<svg width="64" height="64" viewBox="0 0 64 64" version="1.1" xmlns:inkscape="http://www.inkscape.org/namespaces/inkscape"><defs><linearGradient id="linear0" gradientUnits="userSpaceOnUse" x1="0" y1="0" x2="0" y2="1" gradientTransform="matrix(62.354408,0,0,61.359093,0.637215,1.668863)"><stop offset="0" style="stop-color:rgb(92.941177%,83.529413%,72.549021%);stop-opacity:1;"/><stop offset="1" style="stop-color:rgb(81.960785%,71.372551%,59.215689%);stop-opacity:1;"/></linearGradient><filter style="color-interpolation-filters:sRGB;" inkscape:label="Diffuse Light" id="filter184" x="-0.0375" y="-0.0375" width="1.075" height="1.075"><feGaussianBlur in="SourceGraphic" stdDeviation="1" result="blur" id="feGaussianBlur174" /><feDiffuseLighting diffuseConstant="1" surfaceScale="10" lighting-color="rgb(255,255,255)" result="diffuse" id="feDiffuseLighting178"><feDistantLight elevation="8" azimuth="235" id="feDistantLight176" /></feDiffuseLighting><feComposite in="diffuse" in2="diffuse" operator="arithmetic" k1="1" result="composite1" id="feComposite180" /><feComposite in="composite1" in2="SourceGraphic" k1="1" operator="arithmetic" k3="1" result="composite2" id="feComposite182" /></filter></defs><g id="surface1" style="filter:url(#filter184)"><path style=" stroke:none;fill-rule:nonzero;fill:url(#linear0);" d="M 8.949219 1.667969 C 4.417969 1.667969 0.636719 5.386719 0.636719 9.851562 L 0.636719 54.84375 C 0.636719 59.308594 4.417969 63.027344 8.949219 63.027344 L 40.128906 63.027344 L 46.363281 58.9375 L 4.792969 58.9375 L 4.792969 42.578125 L 21.421875 42.578125 L 21.421875 58.9375 L 25.578125 58.9375 L 25.578125 42.578125 L 58.835938 42.578125 L 58.835938 38.484375 L 25.578125 38.484375 L 25.578125 26.214844 L 38.046875 26.214844 L 38.046875 58.9375 L 42.207031 58.9375 L 42.207031 26.214844 L 58.835938 26.214844 L 58.835938 22.121094 L 42.207031 22.121094 L 42.207031 5.757812 L 58.835938 5.757812 L 58.835938 54.84375 L 62.992188 40.660156 L 62.992188 9.851562 C 62.992188 5.386719 59.210938 1.667969 54.675781 1.667969 Z M 4.792969 5.757812 L 21.421875 5.757812 L 21.421875 22.121094 L 4.792969 22.121094 Z M 25.578125 5.757812 L 38.046875 5.757812 L 38.046875 22.121094 L 25.578125 22.121094 Z M 4.792969 26.214844 L 21.421875 26.214844 L 21.421875 38.484375 L 4.792969 38.484375 Z M 62.992188 40.660156 L 58.835938 54.84375 L 58.835938 58.9375 L 46.363281 58.9375 L 40.128906 63.027344 L 54.679688 63.027344 C 59.210938 63.027344 62.992188 59.308594 62.992188 54.84375 Z M 62.992188 40.660156 "/></g></svg>
