<svg width="64" height="64" viewBox="0 0 64 64" version="1.1" xmlns:inkscape="http://www.inkscape.org/namespaces/inkscape"><defs><linearGradient id="linear0" gradientUnits="userSpaceOnUse" x1="0" y1="0" x2="0" y2="1" gradientTransform="matrix(39.96875,0,0,64,12.015625,0)"><stop offset="0" style="stop-color:rgb(100%,73.333335%,0%);stop-opacity:1;"/><stop offset="1" style="stop-color:rgb(70.19608%,51.372552%,0%);stop-opacity:1;"/></linearGradient><filter style="color-interpolation-filters:sRGB;" inkscape:label="Diffuse Light" id="filter184" x="-0.0375" y="-0.0375" width="1.075" height="1.075"><feGaussianBlur in="SourceGraphic" stdDeviation="1" result="blur" id="feGaussianBlur174" /><feDiffuseLighting diffuseConstant="1" surfaceScale="10" lighting-color="rgb(255,255,255)" result="diffuse" id="feDiffuseLighting178"><feDistantLight elevation="8" azimuth="235" id="feDistantLight176" /></feDiffuseLighting><feComposite in="diffuse" in2="diffuse" operator="arithmetic" k1="1" result="composite1" id="feComposite180" /><feComposite in="composite1" in2="SourceGraphic" k1="1" operator="arithmetic" k3="1" result="composite2" id="feComposite182" /></filter></defs><g id="surface1" style="filter:url(#filter184)"><path style=" stroke:none;fill-rule:nonzero;fill:url(#linear0);" d="M 32 0 C 21.121094 0 12.015625 9.105469 12.015625 19.984375 C 12.015625 26.859375 13.402344 30.964844 13.714844 31.976562 L 16.011719 31.976562 C 20.84375 31.976562 25.078125 35.152344 27.792969 40.574219 C 30.117188 45.226562 31.957031 63.988281 31.890625 63.984375 C 32.109375 64.019531 32.480469 63.988281 32.550781 63.984375 C 33.386719 51.585938 34.605469 43.785156 36.207031 40.574219 C 38.921875 35.152344 43.15625 31.976562 47.988281 31.976562 L 50.285156 31.976562 C 50.597656 30.964844 51.984375 26.859375 51.984375 19.984375 C 51.984375 9.105469 42.878906 0 32 0 Z M 32 0 "/></g></svg>
