<svg width="64" height="64" viewBox="0 0 64 64" version="1.1" xmlns:inkscape="http://www.inkscape.org/namespaces/inkscape"><defs><linearGradient id="linear0" gradientUnits="userSpaceOnUse" x1="0" y1="0" x2="0" y2="1" gradientTransform="matrix(61.122372,0,0,60.248562,1.95776,2.705658)"><stop offset="0" style="stop-color:rgb(0%,96.078432%,86.274511%);stop-opacity:1;"/><stop offset="1" style="stop-color:rgb(0%,54.901963%,49.411765%);stop-opacity:1;"/></linearGradient><filter style="color-interpolation-filters:sRGB;" inkscape:label="Diffuse Light" id="filter184" x="-0.0375" y="-0.0375" width="1.075" height="1.075"><feGaussianBlur in="SourceGraphic" stdDeviation="1" result="blur" id="feGaussianBlur174" /><feDiffuseLighting diffuseConstant="1" surfaceScale="10" lighting-color="rgb(255,255,255)" result="diffuse" id="feDiffuseLighting178"><feDistantLight elevation="8" azimuth="235" id="feDistantLight176" /></feDiffuseLighting><feComposite in="diffuse" in2="diffuse" operator="arithmetic" k1="1" result="composite1" id="feComposite180" /><feComposite in="composite1" in2="SourceGraphic" k1="1" operator="arithmetic" k3="1" result="composite2" id="feComposite182" /></filter></defs><g id="surface1" style="filter:url(#filter184)"><path style=" stroke:none;fill-rule:evenodd;fill:url(#linear0);" d="M 35.296875 21.84375 C 35.296875 14.019531 41.519531 7.667969 49.1875 7.667969 C 56.859375 7.667969 63.082031 14.019531 63.082031 21.84375 C 63.082031 29.664062 56.859375 36.019531 49.1875 36.019531 C 41.519531 36.019531 35.296875 29.664062 35.296875 21.84375 Z M 14.980469 48.777344 C 14.980469 40.953125 21.207031 34.601562 28.871094 34.601562 C 36.539062 34.601562 42.761719 40.953125 42.761719 48.777344 C 42.761719 56.605469 36.539062 62.953125 28.871094 62.953125 C 21.207031 62.953125 14.980469 56.605469 14.980469 48.777344 Z M 1.957031 16.882812 C 1.957031 9.054688 8.179688 2.707031 15.847656 2.707031 C 23.515625 2.707031 29.738281 9.054688 29.738281 16.882812 C 29.738281 24.707031 23.515625 31.054688 15.847656 31.054688 C 8.179688 31.054688 1.957031 24.707031 1.957031 16.882812 Z M 1.957031 16.882812 "/></g></svg>
