<svg width="64" height="64" viewBox="0 0 64 64" version="1.1" xmlns:inkscape="http://www.inkscape.org/namespaces/inkscape"><defs><linearGradient id="linear0" gradientUnits="userSpaceOnUse" x1="0" y1="0" x2="0" y2="1" gradientTransform="matrix(67.988145,0,0,44.613033,-2.70024,8.635677)"><stop offset="0" style="stop-color:rgb(61.176473%,69.803923%,85.09804%);stop-opacity:1;"/><stop offset="1" style="stop-color:rgb(44.313726%,52.156866%,65.882355%);stop-opacity:1;"/></linearGradient><filter style="color-interpolation-filters:sRGB;" inkscape:label="Diffuse Light" id="filter184" x="-0.0375" y="-0.0375" width="1.075" height="1.075"><feGaussianBlur in="SourceGraphic" stdDeviation="1" result="blur" id="feGaussianBlur174" /><feDiffuseLighting diffuseConstant="1" surfaceScale="10" lighting-color="rgb(255,255,255)" result="diffuse" id="feDiffuseLighting178"><feDistantLight elevation="8" azimuth="235" id="feDistantLight176" /></feDiffuseLighting><feComposite in="diffuse" in2="diffuse" operator="arithmetic" k1="1" result="composite1" id="feComposite180" /><feComposite in="composite1" in2="SourceGraphic" k1="1" operator="arithmetic" k3="1" result="composite2" id="feComposite182" /></filter></defs><g id="surface1" style="filter:url(#filter184)"><path style=" stroke:none;fill-rule:nonzero;fill:url(#linear0);" d="M 19.0625 1.460938 L 19.066406 1.464844 C 18.460938 1.488281 18.101562 2.085938 18.414062 2.546875 L 20.9375 6.414062 C 15.957031 9.066406 12.972656 13.433594 12.972656 18.054688 L 50.246094 18.054688 C 50.234375 13.40625 47.261719 9.066406 42.285156 6.414062 L 44.820312 2.546875 C 45.132812 2.078125 44.757812 1.476562 44.136719 1.464844 C 43.835938 1.460938 43.566406 1.605469 43.421875 1.828125 L 40.867188 5.742188 C 40.867188 5.742188 22.6875 5.734375 22.367188 5.734375 L 19.820312 1.84375 C 19.671875 1.605469 19.386719 1.46875 19.082031 1.480469 Z M 6.308594 20.425781 L 2.316406 40.578125 C 2.316406 42.550781 4.101562 44.136719 6.308594 44.136719 C 8.523438 44.136719 10.304688 42.550781 10.304688 40.578125 L 10.304688 23.984375 C 10.304688 22.015625 8.523438 20.425781 6.308594 20.425781 Z M 12.96875 20.425781 L 12.96875 46.503906 C 12.96875 49.136719 15.339844 51.25 18.289062 51.25 C 18.289062 51.25 21.035156 59.734375 20.957031 59.546875 C 20.957031 61.515625 22.734375 63.101562 24.949219 63.101562 C 27.160156 63.101562 28.941406 61.515625 28.941406 59.546875 L 28.941406 51.25 L 34.261719 51.25 L 34.261719 59.546875 C 34.261719 61.515625 36.046875 63.101562 38.253906 63.101562 C 40.46875 63.101562 42.25 61.515625 42.25 59.546875 L 42.25 51.25 L 44.914062 51.25 C 47.867188 51.25 50.234375 49.132812 50.234375 46.503906 L 50.234375 20.425781 Z M 56.894531 20.425781 L 52.902344 40.578125 C 52.902344 42.550781 54.679688 44.136719 56.894531 44.136719 C 59.105469 44.136719 60.886719 42.550781 60.886719 40.578125 L 60.886719 23.984375 C 60.886719 22.015625 59.105469 20.425781 56.894531 20.425781 Z M 18.289062 27.539062 L 28.941406 27.539062 L 31.601562 29.914062 L 44.914062 29.914062 L 44.914062 44.136719 L 18.289062 44.136719 Z M 20.957031 29.914062 L 20.957031 32.28125 L 26.277344 32.28125 L 28.941406 29.914062 Z M 20.957031 29.914062 "/></g></svg>
