<svg width="64" height="64" viewBox="0 0 64 64" version="1.1" xmlns:inkscape="http://www.inkscape.org/namespaces/inkscape"><defs><linearGradient id="linear0" gradientUnits="userSpaceOnUse" x1="0" y1="0" x2="0" y2="1" gradientTransform="matrix(61.318656,0,0,61.044248,1.605435,1.623071)"><stop offset="0" style="stop-color:rgb(0%,73.333335%,100%);stop-opacity:1;"/><stop offset="1" style="stop-color:rgb(0%,52.156866%,70.980394%);stop-opacity:1;"/></linearGradient><filter style="color-interpolation-filters:sRGB;" inkscape:label="Diffuse Light" id="filter184" x="-0.0375" y="-0.0375" width="1.075" height="1.075"><feGaussianBlur in="SourceGraphic" stdDeviation="1" result="blur" id="feGaussianBlur174" /><feDiffuseLighting diffuseConstant="1" surfaceScale="10" lighting-color="rgb(255,255,255)" result="diffuse" id="feDiffuseLighting178"><feDistantLight elevation="8" azimuth="235" id="feDistantLight176" /></feDiffuseLighting><feComposite in="diffuse" in2="diffuse" operator="arithmetic" k1="1" result="composite1" id="feComposite180" /><feComposite in="composite1" in2="SourceGraphic" k1="1" operator="arithmetic" k3="1" result="composite2" id="feComposite182" /></filter></defs><g id="surface1" style="filter:url(#filter184)"><path style=" stroke:none;fill-rule:nonzero;fill:url(#linear0);" d="M 32.265625 1.625 C 15.316406 1.625 1.605469 15.261719 1.605469 32.101562 C 1.605469 48.933594 15.316406 62.667969 32.265625 62.667969 C 49.214844 62.667969 62.925781 48.945312 62.925781 32.101562 C 62.925781 15.261719 49.214844 1.625 32.265625 1.625 Z M 48.984375 14.269531 C 56.335938 16.484375 58.261719 26.964844 52.5625 31.050781 L 57.1875 48.445312 L 50.773438 50.011719 L 46.207031 32.746094 C 38.074219 30.75 36.207031 23.683594 41.070312 16.457031 L 46.292969 26.101562 L 49.324219 25.207031 M 32.261719 26.511719 C 35.402344 26.511719 37.890625 29.003906 37.890625 32.101562 C 37.890625 35.203125 35.390625 37.773438 32.261719 37.773438 C 29.132812 37.773438 26.652344 35.203125 26.652344 32.101562 C 26.652344 29.003906 29.144531 26.511719 32.261719 26.511719 Z M 32.261719 26.511719 "/></g></svg>
