<svg width="64" height="64" viewBox="0 0 64 64" version="1.1" xmlns:inkscape="http://www.inkscape.org/namespaces/inkscape"><defs><linearGradient id="linear0" gradientUnits="userSpaceOnUse" x1="0" y1="0" x2="0" y2="1" gradientTransform="matrix(61.937595,0,0,61.831638,1.121152,0.952052)"><stop offset="0" style="stop-color:rgb(0%,78.823531%,36.862746%);stop-opacity:1;"/><stop offset="1" style="stop-color:rgb(0%,54.11765%,25.098041%);stop-opacity:1;"/></linearGradient><filter style="color-interpolation-filters:sRGB;" inkscape:label="Diffuse Light" id="filter184" x="-0.0375" y="-0.0375" width="1.075" height="1.075"><feGaussianBlur in="SourceGraphic" stdDeviation="1" result="blur" id="feGaussianBlur174" /><feDiffuseLighting diffuseConstant="1" surfaceScale="10" lighting-color="rgb(255,255,255)" result="diffuse" id="feDiffuseLighting178"><feDistantLight elevation="8" azimuth="235" id="feDistantLight176" /></feDiffuseLighting><feComposite in="diffuse" in2="diffuse" operator="arithmetic" k1="1" result="composite1" id="feComposite180" /><feComposite in="composite1" in2="SourceGraphic" k1="1" operator="arithmetic" k3="1" result="composite2" id="feComposite182" /></filter></defs><g id="surface1" style="filter:url(#filter184)"><path style=" stroke:none;fill-rule:nonzero;fill:url(#linear0);" d="M 54.390625 49.929688 C 54.390625 49.929688 69.238281 80.078125 60.066406 48.027344 C 60.066406 48.027344 53.074219 24.769531 43.949219 10.488281 C 43.949219 10.488281 35.765625 -6.296875 25.535156 4.671875 C 25.535156 4.671875 3.933594 27.460938 1.28125 53.988281 C 1.28125 53.988281 -1.527344 69.175781 16.535156 59.535156 L 40.988281 47.453125 C 40.988281 47.453125 59.117188 37.851562 38.394531 44 L 17.894531 51.398438 C 17.894531 51.398438 8.953125 55.664062 12.832031 47.453125 C 12.832031 47.453125 21.351562 26.617188 26.539062 21.070312 C 26.539062 21.070312 32.589844 9.460938 37.527344 20.378906 C 37.53125 20.378906 47.417969 34.410156 54.390625 49.929688 Z M 54.390625 49.929688 "/></g></svg>
