<svg width="64" height="64" viewBox="0 0 64 64" version="1.1" xmlns:inkscape="http://www.inkscape.org/namespaces/inkscape"><defs><linearGradient id="linear0" gradientUnits="userSpaceOnUse" x1="0" y1="0" x2="0" y2="1" gradientTransform="matrix(55.50204,0,0,60.402771,3.632035,1.790287)"><stop offset="0" style="stop-color:rgb(100%,73.333335%,0%);stop-opacity:1;"/><stop offset="1" style="stop-color:rgb(70.19608%,51.372552%,0%);stop-opacity:1;"/></linearGradient><filter style="color-interpolation-filters:sRGB;" inkscape:label="Diffuse Light" id="filter184" x="-0.0375" y="-0.0375" width="1.075" height="1.075"><feGaussianBlur in="SourceGraphic" stdDeviation="1" result="blur" id="feGaussianBlur174" /><feDiffuseLighting diffuseConstant="1" surfaceScale="10" lighting-color="rgb(255,255,255)" result="diffuse" id="feDiffuseLighting178"><feDistantLight elevation="8" azimuth="235" id="feDistantLight176" /></feDiffuseLighting><feComposite in="diffuse" in2="diffuse" operator="arithmetic" k1="1" result="composite1" id="feComposite180" /><feComposite in="composite1" in2="SourceGraphic" k1="1" operator="arithmetic" k3="1" result="composite2" id="feComposite182" /></filter></defs><g id="surface1" style="filter:url(#filter184)"><path style=" stroke:none;fill-rule:evenodd;fill:url(#linear0);" d="M 46.324219 23.640625 L 46.324219 43.042969 L 59.132812 50.328125 L 59.132812 60.035156 L 46.324219 52.699219 L 46.324219 56.800781 L 37.789062 62.191406 L 37.789062 47.8125 L 21.769531 38.640625 L 12.171875 44.503906 L 3.632812 39.113281 L 12.914062 33.566406 L 7.902344 30.699219 L 7.902344 21.207031 L 21.074219 28.691406 L 37.789062 18.707031 L 37.789062 6.105469 L 46.324219 1.789062 L 46.324219 13.609375 L 51.664062 10.417969 L 59.132812 15.8125 Z M 37.789062 28.855469 L 37.789062 38.191406 L 29.867188 33.691406 Z M 37.789062 28.855469 "/></g></svg>
