<svg width="64" height="64" viewBox="0 0 64 64" version="1.1" xmlns:inkscape="http://www.inkscape.org/namespaces/inkscape"><defs><linearGradient id="linear0" gradientUnits="userSpaceOnUse" x1="0" y1="0" x2="0" y2="1" gradientTransform="matrix(61.507977,0,0,55.16934,1.576486,5.033666)"><stop offset="0" style="stop-color:rgb(0%,73.333335%,100%);stop-opacity:1;"/><stop offset="1" style="stop-color:rgb(0%,52.156866%,70.980394%);stop-opacity:1;"/></linearGradient><filter style="color-interpolation-filters:sRGB;" inkscape:label="Diffuse Light" id="filter184" x="-0.0375" y="-0.0375" width="1.075" height="1.075"><feGaussianBlur in="SourceGraphic" stdDeviation="1" result="blur" id="feGaussianBlur174" /><feDiffuseLighting diffuseConstant="1" surfaceScale="10" lighting-color="rgb(255,255,255)" result="diffuse" id="feDiffuseLighting178"><feDistantLight elevation="8" azimuth="235" id="feDistantLight176" /></feDiffuseLighting><feComposite in="diffuse" in2="diffuse" operator="arithmetic" k1="1" result="composite1" id="feComposite180" /><feComposite in="composite1" in2="SourceGraphic" k1="1" operator="arithmetic" k3="1" result="composite2" id="feComposite182" /></filter></defs><g id="surface1" style="filter:url(#filter184)"><path style=" stroke:none;fill-rule:evenodd;fill:url(#linear0);" d="M 5.96875 5.035156 L 5.96875 9.632812 L 1.578125 9.632812 L 1.578125 32.617188 L 63.085938 32.617188 L 63.085938 9.632812 L 58.691406 9.632812 L 58.691406 5.035156 Z M 12.558594 55.605469 L 12.558594 60.203125 L 52.101562 60.203125 L 52.101562 55.605469 Z M 5.96875 32.617188 L 10.363281 32.617188 L 10.363281 53.308594 L 5.96875 53.308594 Z M 14.757812 32.617188 L 23.542969 32.617188 L 23.542969 41.8125 L 14.757812 41.8125 Z M 25.742188 46.410156 L 25.742188 51.007812 L 34.527344 51.007812 L 34.527344 46.410156 Z M 54.296875 32.617188 L 58.691406 32.617188 L 58.691406 53.308594 L 54.296875 53.308594 Z M 41.117188 32.617188 L 49.902344 32.617188 L 49.902344 41.8125 L 41.117188 41.8125 Z M 41.117188 32.617188 "/></g></svg>
