<svg width="64" height="64" viewBox="0 0 64 64" version="1.1" xmlns:inkscape="http://www.inkscape.org/namespaces/inkscape"><defs><linearGradient id="linear0" gradientUnits="userSpaceOnUse" x1="0" y1="0" x2="0" y2="1" gradientTransform="matrix(65.972264,0,0,43.05551,-0.802851,10.207808)"><stop offset="0" style="stop-color:rgb(92.941177%,83.529413%,72.549021%);stop-opacity:1;"/><stop offset="1" style="stop-color:rgb(81.960785%,71.372551%,59.215689%);stop-opacity:1;"/></linearGradient><filter style="color-interpolation-filters:sRGB;" inkscape:label="Diffuse Light" id="filter184" x="-0.0375" y="-0.0375" width="1.075" height="1.075"><feGaussianBlur in="SourceGraphic" stdDeviation="1" result="blur" id="feGaussianBlur174" /><feDiffuseLighting diffuseConstant="1" surfaceScale="10" lighting-color="rgb(255,255,255)" result="diffuse" id="feDiffuseLighting178"><feDistantLight elevation="8" azimuth="235" id="feDistantLight176" /></feDiffuseLighting><feComposite in="diffuse" in2="diffuse" operator="arithmetic" k1="1" result="composite1" id="feComposite180" /><feComposite in="composite1" in2="SourceGraphic" k1="1" operator="arithmetic" k3="1" result="composite2" id="feComposite182" /></filter></defs><g id="surface1" style="filter:url(#filter184)"><path style=" stroke:none;fill-rule:nonzero;fill:url(#linear0);" d="M 48.199219 1.6875 L 48.199219 8.722656 L 41.328125 8.722656 L 41.328125 15.753906 L 48.199219 15.753906 L 48.199219 22.789062 L 55.066406 22.789062 L 55.066406 15.753906 L 61.9375 15.753906 L 61.9375 8.722656 L 55.066406 8.722656 L 55.066406 1.6875 Z M 29.878906 6.375 C 14.691406 6.375 2.394531 18.964844 2.394531 34.507812 C 2.394531 50.054688 14.691406 62.644531 29.878906 62.644531 C 45.058594 62.644531 57.355469 50.054688 57.355469 34.507812 C 57.355469 32.144531 57.0625 29.773438 56.480469 27.476562 L 49.3125 27.476562 C 49.3125 27.476562 50.488281 32.121094 50.492188 34.507812 C 50.492188 46.160156 41.261719 55.609375 29.882812 55.609375 C 18.5 55.609375 9.269531 46.160156 9.269531 34.507812 C 9.269531 22.855469 18.5 13.40625 29.882812 13.40625 C 32.21875 13.414062 34.554688 13.820312 36.753906 14.621094 L 36.753906 7.28125 C 34.507812 6.683594 32.195312 6.386719 29.882812 6.386719 Z M 27.585938 20.445312 L 27.585938 35.726562 L 40.019531 44.636719 L 42.652344 40.792969 L 32.1875 33.289062 L 32.1875 20.445312 Z M 27.585938 20.445312 "/></g></svg>
