<svg width="64" height="64" viewBox="0 0 64 64" version="1.1" xmlns:inkscape="http://www.inkscape.org/namespaces/inkscape"><defs><linearGradient id="linear0" gradientUnits="userSpaceOnUse" x1="0" y1="0" x2="0" y2="1" gradientTransform="matrix(56,0,0,35.898438,4,14.050781)"><stop offset="0" style="stop-color:rgb(0%,96.078432%,86.274511%);stop-opacity:1;"/><stop offset="1" style="stop-color:rgb(0%,54.901963%,49.411765%);stop-opacity:1;"/></linearGradient><linearGradient id="linear1" gradientUnits="userSpaceOnUse" x1="0" y1="0" x2="0" y2="1" gradientTransform="matrix(56,0,0,35.898438,4,14.050781)"><stop offset="0" style="stop-color:rgb(0%,96.078432%,86.274511%);stop-opacity:1;"/><stop offset="1" style="stop-color:rgb(0%,54.901963%,49.411765%);stop-opacity:1;"/></linearGradient><filter style="color-interpolation-filters:sRGB;" inkscape:label="Diffuse Light" id="filter184" x="-0.0375" y="-0.0375" width="1.075" height="1.075"><feGaussianBlur in="SourceGraphic" stdDeviation="1" result="blur" id="feGaussianBlur174" /><feDiffuseLighting diffuseConstant="1" surfaceScale="10" lighting-color="rgb(255,255,255)" result="diffuse" id="feDiffuseLighting178"><feDistantLight elevation="8" azimuth="235" id="feDistantLight176" /></feDiffuseLighting><feComposite in="diffuse" in2="diffuse" operator="arithmetic" k1="1" result="composite1" id="feComposite180" /><feComposite in="composite1" in2="SourceGraphic" k1="1" operator="arithmetic" k3="1" result="composite2" id="feComposite182" /></filter></defs><g id="surface1" style="filter:url(#filter184)"><path style=" stroke:none;fill-rule:nonzero;fill:url(#linear0);" d="M 17.679688 12.078125 L 7.792969 49.3125 L 13.609375 49.3125 L 16.257812 38.765625 L 26.050781 38.765625 L 28.84375 49.3125 L 34.882812 49.3125 L 24.863281 12.078125 M 19.558594 24.457031 C 20.101562 22.25 20.570312 19.648438 21.023438 17.488281 L 21.113281 17.488281 C 21.566406 19.644531 22.074219 22.175781 22.667969 24.457031 L 25.09375 33.621094 L 17.179688 33.621094 "/><path style=" stroke:none;fill-rule:nonzero;fill:url(#linear1);" d="M 41.808594 19.433594 L 41.664062 19.433594 L 41.386719 14.304688 L 36.347656 14.304688 C 36.492188 17.253906 36.535156 20.550781 36.535156 24.488281 L 36.535156 48.503906 L 42.316406 48.503906 L 42.316406 28.417969 C 42.316406 27.441406 42.359375 26.382812 42.546875 25.617188 C 43.15625 23.019531 44.742188 20.554688 47.027344 20.554688 C 50.148438 20.554688 51.363281 24.277344 51.363281 29.195312 L 51.363281 48.503906 L 57.097656 48.503906 L 57.097656 28.207031 C 57.097656 17.398438 52.996094 13.542969 49.035156 13.542969 C 45.261719 13.542969 42.78125 16.769531 41.808594 19.433594 "/></g></svg>
