<svg width="64" height="64" viewBox="0 0 64 64" version="1.1" xmlns:inkscape="http://www.inkscape.org/namespaces/inkscape"><defs><linearGradient id="linear0" gradientUnits="userSpaceOnUse" x1="0" y1="0" x2="0" y2="1" gradientTransform="matrix(56,0,0,35.898438,4,14.050781)"><stop offset="0" style="stop-color:rgb(100%,63.137257%,63.137257%);stop-opacity:1;"/><stop offset="1" style="stop-color:rgb(100%,27.843139%,27.843139%);stop-opacity:1;"/></linearGradient><linearGradient id="linear1" gradientUnits="userSpaceOnUse" x1="0" y1="0" x2="0" y2="1" gradientTransform="matrix(56,0,0,35.898438,4,14.050781)"><stop offset="0" style="stop-color:rgb(100%,63.137257%,63.137257%);stop-opacity:1;"/><stop offset="1" style="stop-color:rgb(100%,27.843139%,27.843139%);stop-opacity:1;"/></linearGradient><filter style="color-interpolation-filters:sRGB;" inkscape:label="Diffuse Light" id="filter184" x="-0.0375" y="-0.0375" width="1.075" height="1.075"><feGaussianBlur in="SourceGraphic" stdDeviation="1" result="blur" id="feGaussianBlur174" /><feDiffuseLighting diffuseConstant="1" surfaceScale="10" lighting-color="rgb(255,255,255)" result="diffuse" id="feDiffuseLighting178"><feDistantLight elevation="8" azimuth="235" id="feDistantLight176" /></feDiffuseLighting><feComposite in="diffuse" in2="diffuse" operator="arithmetic" k1="1" result="composite1" id="feComposite180" /><feComposite in="composite1" in2="SourceGraphic" k1="1" operator="arithmetic" k3="1" result="composite2" id="feComposite182" /></filter></defs><g id="surface1" style="filter:url(#filter184)"><path style=" stroke:none;fill-rule:nonzero;fill:url(#linear0);" d="M 8.921875 14.074219 L 8.921875 51.625 L 34.535156 51.625 L 34.535156 45.886719 L 16.789062 45.886719 L 16.789062 14.074219 M 8.921875 14.074219 "/><path style=" stroke:none;fill-rule:nonzero;fill:url(#linear1);" d="M 43.011719 22.671875 L 42.734375 22.671875 L 42.457031 15.914062 L 35.109375 15.914062 C 35.316406 19.113281 35.390625 22.53125 35.390625 27.328125 L 35.390625 51.300781 L 43.832031 51.300781 L 43.832031 32.992188 C 43.832031 31.980469 43.976562 31.027344 44.109375 30.234375 C 44.867188 26.230469 47.617188 23.480469 51.667969 23.480469 C 52.695312 23.480469 53.453125 23.621094 54.144531 23.773438 L 54.144531 15.34375 C 53.453125 15.203125 52.972656 15.128906 52.152344 15.128906 C 48.582031 15.128906 44.660156 17.664062 43.007812 22.679688 "/></g></svg>
