<svg width="64" height="64" viewBox="0 0 64 64" version="1.1" xmlns:inkscape="http://www.inkscape.org/namespaces/inkscape"><defs><linearGradient id="linear0" gradientUnits="userSpaceOnUse" x1="0" y1="0" x2="0" y2="1" gradientTransform="matrix(64,0,0,64,0,0)"><stop offset="0" style="stop-color:rgb(75.686276%,77.64706%,83.92157%);stop-opacity:1;"/><stop offset="1" style="stop-color:rgb(43.529412%,45.09804%,50.196081%);stop-opacity:1;"/></linearGradient><filter style="color-interpolation-filters:sRGB;" inkscape:label="Diffuse Light" id="filter184" x="-0.0375" y="-0.0375" width="1.075" height="1.075"><feGaussianBlur in="SourceGraphic" stdDeviation="1" result="blur" id="feGaussianBlur174" /><feDiffuseLighting diffuseConstant="1" surfaceScale="10" lighting-color="rgb(255,255,255)" result="diffuse" id="feDiffuseLighting178"><feDistantLight elevation="8" azimuth="235" id="feDistantLight176" /></feDiffuseLighting><feComposite in="diffuse" in2="diffuse" operator="arithmetic" k1="1" result="composite1" id="feComposite180" /><feComposite in="composite1" in2="SourceGraphic" k1="1" operator="arithmetic" k3="1" result="composite2" id="feComposite182" /></filter></defs><g id="surface1" style="filter:url(#filter184)"><path style=" stroke:none;fill-rule:nonzero;fill:url(#linear0);" d="M 7.113281 0 C 3.191406 0 0 3.191406 0 7.113281 L 0 56.886719 C 0 60.808594 3.191406 64 7.113281 64 L 56.886719 64 C 60.808594 64 64 60.808594 64 56.886719 L 64 7.113281 C 64 3.191406 60.808594 0 56.886719 0 Z M 15.335938 16.667969 L 24.554688 16.667969 C 25.972656 16.667969 34.113281 16.707031 34.113281 24.886719 C 34.113281 29.511719 30.929688 30.96875 30.222656 31.335938 C 30.933594 31.695312 34.449219 32.664062 34.449219 38 C 34.804688 44.753906 30.914062 47.335938 25.222656 47.335938 L 15.335938 47.335938 Z M 21.332031 22 L 21.332031 29.550781 L 24.554688 29.550781 C 26.695312 29.550781 28.113281 28.488281 28.113281 26 C 28.113281 22.445312 25.972656 22 24.554688 22 Z M 48.335938 24.21875 C 48.691406 24.21875 49.746094 24.554688 50.113281 24.554688 L 50.113281 30.222656 L 48 30.222656 C 45.859375 30.222656 45.136719 31.628906 44.78125 32.335938 L 44.78125 47.335938 L 38.777344 47.335938 L 38.777344 24.550781 L 44.445312 24.550781 L 44.445312 26.996094 C 44.808594 25.929688 46.191406 24.21875 48.335938 24.21875 Z M 21.332031 34.117188 L 21.332031 42.335938 L 25.222656 42.335938 C 27 42.335938 28.445312 41.296875 28.445312 38.449219 C 28.808594 35.601562 27.695312 34.117188 25.550781 34.117188 Z M 21.332031 34.117188 "/></g></svg>
