<svg width="64" height="64" viewBox="0 0 64 64" version="1.1" xmlns:inkscape="http://www.inkscape.org/namespaces/inkscape"><defs><linearGradient id="linear0" gradientUnits="userSpaceOnUse" x1="0" y1="0" x2="0" y2="1" gradientTransform="matrix(56,0,0,35.898438,4,14.050781)"><stop offset="0" style="stop-color:rgb(0%,96.078432%,86.274511%);stop-opacity:1;"/><stop offset="1" style="stop-color:rgb(0%,54.901963%,49.411765%);stop-opacity:1;"/></linearGradient><filter style="color-interpolation-filters:sRGB;" inkscape:label="Diffuse Light" id="filter184" x="-0.0375" y="-0.0375" width="1.075" height="1.075"><feGaussianBlur in="SourceGraphic" stdDeviation="1" result="blur" id="feGaussianBlur174" /><feDiffuseLighting diffuseConstant="1" surfaceScale="10" lighting-color="rgb(255,255,255)" result="diffuse" id="feDiffuseLighting178"><feDistantLight elevation="8" azimuth="235" id="feDistantLight176" /></feDiffuseLighting><feComposite in="diffuse" in2="diffuse" operator="arithmetic" k1="1" result="composite1" id="feComposite180" /><feComposite in="composite1" in2="SourceGraphic" k1="1" operator="arithmetic" k3="1" result="composite2" id="feComposite182" /></filter></defs><g id="surface1" style="filter:url(#filter184)"><path style=" stroke:none;fill-rule:nonzero;fill:url(#linear0);" d="M 9.351562 9.296875 L 9.351562 55.941406 L 56.773438 55.941406 L 56.773438 50.113281 L 50.84375 50.113281 L 50.84375 44.28125 L 44.917969 44.28125 L 44.917969 38.453125 L 38.988281 38.453125 L 38.988281 32.621094 L 33.0625 32.621094 L 33.0625 26.789062 L 27.132812 26.789062 L 27.132812 20.960938 L 21.207031 20.960938 L 21.207031 15.128906 L 15.277344 15.128906 L 15.277344 9.296875 Z M 21.207031 15.128906 L 27.132812 15.128906 L 27.132812 9.296875 L 21.207031 9.296875 Z M 27.132812 15.128906 L 27.132812 20.960938 L 33.0625 20.960938 L 33.0625 15.128906 Z M 33.0625 20.960938 L 33.0625 26.789062 L 38.988281 26.789062 L 38.988281 20.960938 Z M 38.988281 20.960938 L 44.917969 20.960938 L 44.917969 15.128906 L 38.988281 15.128906 Z M 38.988281 26.789062 L 38.988281 32.621094 L 44.917969 32.621094 L 44.917969 26.789062 Z M 44.917969 32.621094 L 44.917969 38.453125 L 50.84375 38.453125 L 50.84375 32.621094 Z M 50.84375 32.621094 L 56.773438 32.621094 L 56.773438 26.789062 L 50.84375 26.789062 Z M 50.84375 38.453125 L 50.84375 44.28125 L 56.773438 44.28125 L 56.773438 38.453125 Z M 50.84375 15.128906 L 50.84375 20.960938 L 56.773438 20.960938 L 56.773438 15.128906 Z M 50.84375 15.128906 "/></g></svg>
