<svg width="64" height="64" viewBox="0 0 64 64" version="1.1" xmlns:inkscape="http://www.inkscape.org/namespaces/inkscape"><defs><linearGradient id="linear0" gradientUnits="userSpaceOnUse" x1="0" y1="0" x2="0" y2="1" gradientTransform="matrix(56,0,0,35.898438,4,14.050781)"><stop offset="0" style="stop-color:rgb(41.960785%,64.313728%,100%);stop-opacity:1;"/><stop offset="1" style="stop-color:rgb(0%,43.137255%,100%);stop-opacity:1;"/></linearGradient><filter style="color-interpolation-filters:sRGB;" inkscape:label="Diffuse Light" id="filter184" x="-0.0375" y="-0.0375" width="1.075" height="1.075"><feGaussianBlur in="SourceGraphic" stdDeviation="1" result="blur" id="feGaussianBlur174" /><feDiffuseLighting diffuseConstant="1" surfaceScale="10" lighting-color="rgb(255,255,255)" result="diffuse" id="feDiffuseLighting178"><feDistantLight elevation="8" azimuth="235" id="feDistantLight176" /></feDiffuseLighting><feComposite in="diffuse" in2="diffuse" operator="arithmetic" k1="1" result="composite1" id="feComposite180" /><feComposite in="composite1" in2="SourceGraphic" k1="1" operator="arithmetic" k3="1" result="composite2" id="feComposite182" /></filter></defs><g id="surface1" style="filter:url(#filter184)"><path style=" stroke:none;fill-rule:nonzero;fill:url(#linear0);" d="M 8.742188 10.664062 L 8.742188 54.035156 L 16.328125 54.035156 L 16.328125 35.636719 L 31.613281 35.636719 L 31.613281 29.132812 L 16.328125 29.132812 L 16.328125 17.171875 L 32.726562 17.171875 L 32.726562 10.664062 Z M 54.0625 22.230469 C 50.882812 22.230469 47.398438 24.464844 45.925781 28.871094 L 45.675781 28.871094 L 45.4375 22.929688 L 38.894531 22.929688 C 39.078125 25.742188 39.132812 28.742188 39.132812 32.960938 L 39.132812 54.035156 L 46.660156 54.035156 L 46.660156 37.941406 C 46.660156 37.046875 46.78125 36.222656 46.898438 35.511719 C 47.582031 32 50.023438 29.570312 53.628906 29.570312 C 54.546875 29.570312 55.234375 29.707031 55.839844 29.832031 L 55.839844 22.421875 C 55.234375 22.296875 54.796875 22.230469 54.0625 22.230469 Z M 54.0625 22.230469 "/></g></svg>
