<svg width="64" height="64" viewBox="0 0 64 64" version="1.1" xmlns:inkscape="http://www.inkscape.org/namespaces/inkscape"><defs><linearGradient id="linear0" gradientUnits="userSpaceOnUse" x1="0" y1="0" x2="0" y2="1" gradientTransform="matrix(56,0,0,35.898438,4,14.050781)"><stop offset="0" style="stop-color:rgb(100%,73.333335%,0%);stop-opacity:1;"/><stop offset="1" style="stop-color:rgb(70.19608%,51.372552%,0%);stop-opacity:1;"/></linearGradient><linearGradient id="linear1" gradientUnits="userSpaceOnUse" x1="0" y1="0" x2="0" y2="1" gradientTransform="matrix(56,0,0,35.898438,4,14.050781)"><stop offset="0" style="stop-color:rgb(100%,73.333335%,0%);stop-opacity:1;"/><stop offset="1" style="stop-color:rgb(70.19608%,51.372552%,0%);stop-opacity:1;"/></linearGradient><filter style="color-interpolation-filters:sRGB;" inkscape:label="Diffuse Light" id="filter184" x="-0.0375" y="-0.0375" width="1.075" height="1.075"><feGaussianBlur in="SourceGraphic" stdDeviation="1" result="blur" id="feGaussianBlur174" /><feDiffuseLighting diffuseConstant="1" surfaceScale="10" lighting-color="rgb(255,255,255)" result="diffuse" id="feDiffuseLighting178"><feDistantLight elevation="8" azimuth="235" id="feDistantLight176" /></feDiffuseLighting><feComposite in="diffuse" in2="diffuse" operator="arithmetic" k1="1" result="composite1" id="feComposite180" /><feComposite in="composite1" in2="SourceGraphic" k1="1" operator="arithmetic" k3="1" result="composite2" id="feComposite182" /></filter></defs><g id="surface1" style="filter:url(#filter184)"><path style=" stroke:none;fill-rule:nonzero;fill:url(#linear0);" d="M 41.148438 26.285156 L 40.988281 26.285156 L 40.679688 12.808594 L 35.015625 12.808594 C 35.175781 15.042969 35.226562 27.132812 35.226562 30.121094 L 35.226562 48.363281 L 41.71875 48.363281 L 41.71875 33.109375 C 41.71875 32.367188 41.769531 31.5625 41.980469 30.980469 C 42.664062 29.007812 44.449219 27.136719 47.015625 27.136719 C 50.523438 27.136719 51.882812 29.964844 51.882812 33.695312 L 51.882812 48.363281 L 58.332031 48.363281 L 58.332031 32.945312 C 58.332031 24.738281 53.71875 21.8125 49.269531 21.8125 C 45.03125 21.8125 42.242188 24.261719 41.148438 26.285156 "/><path style=" stroke:none;fill-rule:nonzero;fill:url(#linear1);" d="M 24.761719 11.535156 C 15.3125 11.53125 7.652344 19.855469 7.652344 30.121094 C 7.652344 40.386719 15.3125 48.710938 24.761719 48.710938 C 27.128906 48.703125 29.46875 48.160156 31.632812 47.117188 L 31.632812 41.578125 C 30.671875 42.046875 27.078125 43.753906 24.914062 43.753906 C 19.984375 43.753906 15.050781 38.796875 15.050781 31.359375 C 15.050781 23.925781 17.515625 16.492188 24.914062 16.492188 C 27.078125 16.492188 30.671875 18.195312 31.632812 18.664062 L 31.632812 13.113281 C 29.46875 12.074219 27.128906 11.539062 24.761719 11.535156 Z M 24.761719 11.535156 "/></g></svg>
