<svg width="64" height="64" viewBox="0 0 64 64" version="1.1" xmlns:inkscape="http://www.inkscape.org/namespaces/inkscape"><defs><linearGradient id="linear0" gradientUnits="userSpaceOnUse" x1="0" y1="0" x2="0" y2="1" gradientTransform="matrix(60.896547,0,0,61.106203,1.781349,1.925078)"><stop offset="0" style="stop-color:rgb(75.686276%,77.64706%,83.92157%);stop-opacity:1;"/><stop offset="1" style="stop-color:rgb(43.529412%,45.09804%,50.196081%);stop-opacity:1;"/></linearGradient><filter style="color-interpolation-filters:sRGB;" inkscape:label="Diffuse Light" id="filter184" x="-0.0375" y="-0.0375" width="1.075" height="1.075"><feGaussianBlur in="SourceGraphic" stdDeviation="1" result="blur" id="feGaussianBlur174" /><feDiffuseLighting diffuseConstant="1" surfaceScale="10" lighting-color="rgb(255,255,255)" result="diffuse" id="feDiffuseLighting178"><feDistantLight elevation="8" azimuth="235" id="feDistantLight176" /></feDiffuseLighting><feComposite in="diffuse" in2="diffuse" operator="arithmetic" k1="1" result="composite1" id="feComposite180" /><feComposite in="composite1" in2="SourceGraphic" k1="1" operator="arithmetic" k3="1" result="composite2" id="feComposite182" /></filter></defs><g id="surface1" style="filter:url(#filter184)"><path style=" stroke:none;fill-rule:nonzero;fill:url(#linear0);" d="M 32.300781 62.9375 C 32.292969 62.9375 32.285156 62.9375 32.277344 62.9375 C 32.277344 62.964844 32.277344 62.988281 32.277344 63.011719 C 32.253906 63 32.238281 62.988281 32.222656 62.976562 C 32.210938 62.996094 32.203125 63.011719 32.191406 63.03125 C 32.175781 62.996094 32.15625 62.960938 32.136719 62.929688 C 26.179688 63.011719 20.125 61.417969 14.585938 57.949219 C 9.027344 54.449219 4.707031 49.511719 1.789062 43.828125 L 1.78125 43.828125 C 6.839844 43.738281 11.972656 44.824219 16.792969 47.273438 C 16.386719 46.574219 15.980469 45.863281 15.59375 45.140625 C 11.457031 37.363281 9.585938 28.867188 9.695312 20.492188 L 9.671875 20.5 C 15.429688 23.980469 20.550781 28.84375 24.496094 35.019531 C 24.457031 34.175781 24.445312 33.328125 24.445312 32.476562 C 24.445312 21.300781 27.28125 10.867188 32.191406 1.925781 C 37.105469 10.867188 40.023438 21.300781 40.023438 32.476562 C 40.023438 33.300781 40.007812 34.121094 39.972656 34.933594 C 44.039062 28.441406 49.339844 23.289062 55.328125 19.660156 L 55.328125 19.617188 C 55.449219 28.160156 53.59375 36.855469 49.378906 44.789062 C 48.945312 45.601562 48.5 46.394531 48.039062 47.175781 C 52.746094 44.820312 57.738281 43.761719 62.667969 43.835938 L 62.679688 43.835938 C 59.757812 49.53125 55.476562 54.5 49.910156 58.003906 C 44.382812 61.460938 38.359375 63.007812 32.421875 62.9375 C 32.382812 62.960938 32.34375 62.984375 32.300781 63.007812 C 32.300781 62.984375 32.300781 62.960938 32.300781 62.9375 Z M 32.300781 62.9375 "/></g></svg>
