<svg width="64" height="64" viewBox="0 0 64 64" version="1.1" xmlns:inkscape="http://www.inkscape.org/namespaces/inkscape"><defs><linearGradient id="linear0" gradientUnits="userSpaceOnUse" x1="0" y1="0" x2="0" y2="1" gradientTransform="matrix(57.48128,0,0,63.124402,3.325956,0.572641)"><stop offset="0" style="stop-color:rgb(100%,63.137257%,63.137257%);stop-opacity:1;"/><stop offset="1" style="stop-color:rgb(100%,27.843139%,27.843139%);stop-opacity:1;"/></linearGradient><filter style="color-interpolation-filters:sRGB;" inkscape:label="Diffuse Light" id="filter184" x="-0.0375" y="-0.0375" width="1.075" height="1.075"><feGaussianBlur in="SourceGraphic" stdDeviation="1" result="blur" id="feGaussianBlur174" /><feDiffuseLighting diffuseConstant="1" surfaceScale="10" lighting-color="rgb(255,255,255)" result="diffuse" id="feDiffuseLighting178"><feDistantLight elevation="8" azimuth="235" id="feDistantLight176" /></feDiffuseLighting><feComposite in="diffuse" in2="diffuse" operator="arithmetic" k1="1" result="composite1" id="feComposite180" /><feComposite in="composite1" in2="SourceGraphic" k1="1" operator="arithmetic" k3="1" result="composite2" id="feComposite182" /></filter></defs><g id="surface1" style="filter:url(#filter184)"><path style=" stroke:none;fill-rule:evenodd;fill:url(#linear0);" d="M 32.121094 1.804688 C 22.90625 1.804688 14.84375 7.230469 10.449219 15.308594 C 9.417969 17.203125 8.585938 19.25 7.992188 21.402344 L 32.238281 29.25 L 1.542969 29.25 C 1.542969 29.304688 1.542969 29.359375 1.542969 29.410156 C 1.542969 47.886719 15.226562 62.851562 32.121094 62.851562 C 49.019531 62.851562 62.707031 47.886719 62.707031 29.410156 C 62.707031 29.359375 62.707031 29.304688 62.707031 29.25 L 57.335938 29.25 C 57.3125 24.152344 56.027344 19.394531 53.800781 15.308594 C 49.402344 7.230469 41.34375 1.804688 32.121094 1.804688 "/></g></svg>
