<svg width="64" height="64" viewBox="0 0 64 64" version="1.1" xmlns:inkscape="http://www.inkscape.org/namespaces/inkscape"><defs><linearGradient id="linear0" gradientUnits="userSpaceOnUse" x1="0" y1="0" x2="0" y2="1" gradientTransform="matrix(64,0,0,59.734375,0,2.132812)"><stop offset="0" style="stop-color:rgb(82.352942%,61.176473%,100%);stop-opacity:1;"/><stop offset="1" style="stop-color:rgb(66.666669%,0%,100%);stop-opacity:1;"/></linearGradient><filter style="color-interpolation-filters:sRGB;" inkscape:label="Diffuse Light" id="filter184" x="-0.0375" y="-0.0375" width="1.075" height="1.075"><feGaussianBlur in="SourceGraphic" stdDeviation="1" result="blur" id="feGaussianBlur174" /><feDiffuseLighting diffuseConstant="1" surfaceScale="10" lighting-color="rgb(255,255,255)" result="diffuse" id="feDiffuseLighting178"><feDistantLight elevation="8" azimuth="235" id="feDistantLight176" /></feDiffuseLighting><feComposite in="diffuse" in2="diffuse" operator="arithmetic" k1="1" result="composite1" id="feComposite180" /><feComposite in="composite1" in2="SourceGraphic" k1="1" operator="arithmetic" k3="1" result="composite2" id="feComposite182" /></filter></defs><g id="surface1" style="filter:url(#filter184)"><path style=" stroke:none;fill-rule:evenodd;fill:url(#linear0);" d="M 41.859375 2.132812 C 61.230469 2.132812 64 4.894531 64 24.246094 L 64 39.746094 C 64 59.105469 61.230469 61.867188 41.859375 61.867188 L 22.140625 61.867188 C 2.769531 61.867188 0 59.105469 0 39.746094 L 0 24.246094 C 0 4.894531 2.769531 2.132812 22.140625 2.132812 Z M 33.902344 7.773438 C 33.117188 7.773438 32.40625 8.242188 32.109375 8.972656 C 31.804688 9.699219 31.972656 10.535156 32.527344 11.09375 L 53.285156 31.847656 C 53.839844 32.402344 54.675781 32.570312 55.402344 32.269531 C 56.132812 31.96875 56.605469 31.261719 56.605469 30.472656 L 56.605469 9.714844 C 56.605469 8.640625 55.734375 7.773438 54.660156 7.773438 Z M 33.902344 7.773438 "/></g></svg>
