<svg width="64" height="64" viewBox="0 0 64 64" version="1.1" xmlns:inkscape="http://www.inkscape.org/namespaces/inkscape"><defs><linearGradient id="linear0" gradientUnits="userSpaceOnUse" x1="0" y1="0" x2="0" y2="1" gradientTransform="matrix(78.327968,0,0,64.622173,-6.978888,-0.283589)"><stop offset="0" style="stop-color:rgb(92.941177%,83.529413%,72.549021%);stop-opacity:1;"/><stop offset="1" style="stop-color:rgb(81.960785%,71.372551%,59.215689%);stop-opacity:1;"/></linearGradient><filter style="color-interpolation-filters:sRGB;" inkscape:label="Diffuse Light" id="filter184" x="-0.0375" y="-0.0375" width="1.075" height="1.075"><feGaussianBlur in="SourceGraphic" stdDeviation="1" result="blur" id="feGaussianBlur174" /><feDiffuseLighting diffuseConstant="1" surfaceScale="10" lighting-color="rgb(255,255,255)" result="diffuse" id="feDiffuseLighting178"><feDistantLight elevation="8" azimuth="235" id="feDistantLight176" /></feDiffuseLighting><feComposite in="diffuse" in2="diffuse" operator="arithmetic" k1="1" result="composite1" id="feComposite180" /><feComposite in="composite1" in2="SourceGraphic" k1="1" operator="arithmetic" k3="1" result="composite2" id="feComposite182" /></filter></defs><g id="surface1" style="filter:url(#filter184)"><path style=" stroke:none;fill-rule:nonzero;fill:url(#linear0);" d="M 31.042969 1.78125 C 18.039062 1.78125 7.5 10.0625 7.5 20.277344 C 7.5 33.574219 19.269531 29.53125 19.269531 50.34375 C 19.269531 51.625 20.585938 52.652344 22.214844 52.652344 L 39.871094 52.652344 C 41.5 52.652344 42.8125 51.625 42.8125 50.34375 C 42.8125 29.53125 54.585938 33.574219 54.585938 20.277344 C 54.585938 10.0625 44.046875 1.78125 31.042969 1.78125 Z M 31.042969 6.40625 C 40.796875 6.40625 48.703125 12.617188 48.703125 20.277344 C 48.703125 31.84375 36.925781 27.792969 36.925781 48.027344 L 25.160156 48.027344 C 25.160156 27.792969 13.382812 31.84375 13.382812 20.277344 C 13.382812 12.617188 21.289062 6.40625 31.042969 6.40625 Z M 31.042969 11.03125 C 24.542969 11.03125 19.269531 15.171875 19.269531 20.277344 C 19.269531 21.558594 20.589844 22.59375 22.214844 22.59375 C 23.84375 22.59375 25.160156 21.558594 25.160156 20.277344 C 25.160156 17.726562 27.792969 15.65625 31.042969 15.65625 C 34.292969 15.65625 36.925781 17.726562 36.925781 20.277344 C 36.925781 21.558594 38.246094 22.59375 39.871094 22.59375 C 41.496094 22.59375 42.8125 21.558594 42.8125 20.277344 C 42.8125 15.171875 37.546875 11.03125 31.042969 11.03125 Z M 22.214844 57.277344 C 20.585938 57.277344 19.269531 58.3125 19.269531 59.59375 C 19.269531 60.871094 20.585938 61.90625 22.214844 61.90625 L 39.871094 61.90625 C 41.5 61.90625 42.8125 60.871094 42.8125 59.59375 C 42.8125 58.3125 41.5 57.277344 39.871094 57.277344 Z M 22.214844 57.277344 "/></g></svg>
