<svg width="64" height="64" viewBox="0 0 64 64" version="1.1" xmlns:inkscape="http://www.inkscape.org/namespaces/inkscape"><defs><linearGradient id="linear0" gradientUnits="userSpaceOnUse" x1="0" y1="0" x2="0" y2="1" gradientTransform="matrix(55.992188,0,0,56,4.003906,4)"><stop offset="0" style="stop-color:rgb(75.686276%,77.64706%,83.92157%);stop-opacity:1;"/><stop offset="1" style="stop-color:rgb(43.529412%,45.09804%,50.196081%);stop-opacity:1;"/></linearGradient><linearGradient id="linear1" gradientUnits="userSpaceOnUse" x1="0" y1="0" x2="0" y2="1" gradientTransform="matrix(55.992188,0,0,56,4.003906,4)"><stop offset="0" style="stop-color:rgb(75.686276%,77.64706%,83.92157%);stop-opacity:1;"/><stop offset="1" style="stop-color:rgb(43.529412%,45.09804%,50.196081%);stop-opacity:1;"/></linearGradient><linearGradient id="linear2" gradientUnits="userSpaceOnUse" x1="0" y1="0" x2="0" y2="1" gradientTransform="matrix(55.992188,0,0,56,4.003906,4)"><stop offset="0" style="stop-color:rgb(75.686276%,77.64706%,83.92157%);stop-opacity:1;"/><stop offset="1" style="stop-color:rgb(43.529412%,45.09804%,50.196081%);stop-opacity:1;"/></linearGradient><filter style="color-interpolation-filters:sRGB;" inkscape:label="Diffuse Light" id="filter184" x="-0.0375" y="-0.0375" width="1.075" height="1.075"><feGaussianBlur in="SourceGraphic" stdDeviation="1" result="blur" id="feGaussianBlur174" /><feDiffuseLighting diffuseConstant="1" surfaceScale="10" lighting-color="rgb(255,255,255)" result="diffuse" id="feDiffuseLighting178"><feDistantLight elevation="8" azimuth="235" id="feDistantLight176" /></feDiffuseLighting><feComposite in="diffuse" in2="diffuse" operator="arithmetic" k1="1" result="composite1" id="feComposite180" /><feComposite in="composite1" in2="SourceGraphic" k1="1" operator="arithmetic" k3="1" result="composite2" id="feComposite182" /></filter></defs><g id="surface1" style="filter:url(#filter184)"><path style=" stroke:none;fill-rule:nonzero;fill:url(#linear0);" d="M 62.824219 35.019531 C 55.730469 47.246094 47.441406 56.0625 32.679688 56.0625 C 18.347656 56.0625 7.851562 45.90625 1.304688 34.605469 C 15.355469 42.6875 31.753906 42.160156 32.0625 42.160156 C 34.300781 42.160156 51.285156 41.652344 62.820312 35.019531 "/><path style=" stroke:none;fill-rule:nonzero;fill:url(#linear1);" d="M 26.308594 18.816406 C 26.308594 24.667969 23.664062 29.351562 20.429688 29.351562 C 17.199219 29.351562 14.558594 24.667969 14.558594 18.816406 C 14.558594 12.96875 17.199219 8.285156 20.429688 8.285156 C 23.664062 8.285156 26.308594 12.96875 26.308594 18.816406 "/><path style=" stroke:none;fill-rule:nonzero;fill:url(#linear2);" d="M 48.144531 18.816406 C 48.144531 24.667969 45.5 29.351562 42.265625 29.351562 C 39.035156 29.351562 36.394531 24.667969 36.394531 18.816406 C 36.394531 12.96875 39.035156 8.285156 42.265625 8.285156 C 45.5 8.285156 48.144531 12.96875 48.144531 18.816406 "/></g></svg>
