<svg width="64" height="64" viewBox="0 0 64 64" version="1.1" xmlns:inkscape="http://www.inkscape.org/namespaces/inkscape"><defs><linearGradient id="linear0" gradientUnits="userSpaceOnUse" x1="0" y1="0" x2="0" y2="1" gradientTransform="matrix(57.885892,0,0,59.473304,4.136606,3.1983)"><stop offset="0" style="stop-color:rgb(0%,73.333335%,100%);stop-opacity:1;"/><stop offset="1" style="stop-color:rgb(0%,52.156866%,70.980394%);stop-opacity:1;"/></linearGradient><linearGradient id="linear1" gradientUnits="userSpaceOnUse" x1="0" y1="0" x2="0" y2="1" gradientTransform="matrix(57.885892,0,0,59.473304,4.136606,3.1983)"><stop offset="0" style="stop-color:rgb(0%,73.333335%,100%);stop-opacity:1;"/><stop offset="1" style="stop-color:rgb(0%,52.156866%,70.980394%);stop-opacity:1;"/></linearGradient><filter style="color-interpolation-filters:sRGB;" inkscape:label="Diffuse Light" id="filter184" x="-0.0375" y="-0.0375" width="1.075" height="1.075"><feGaussianBlur in="SourceGraphic" stdDeviation="1" result="blur" id="feGaussianBlur174" /><feDiffuseLighting diffuseConstant="1" surfaceScale="10" lighting-color="rgb(255,255,255)" result="diffuse" id="feDiffuseLighting178"><feDistantLight elevation="8" azimuth="235" id="feDistantLight176" /></feDiffuseLighting><feComposite in="diffuse" in2="diffuse" operator="arithmetic" k1="1" result="composite1" id="feComposite180" /><feComposite in="composite1" in2="SourceGraphic" k1="1" operator="arithmetic" k3="1" result="composite2" id="feComposite182" /></filter></defs><g id="surface1" style="filter:url(#filter184)"><path style=" stroke:none;fill-rule:nonzero;fill:url(#linear0);" d="M 19.445312 16.925781 L 54.644531 16.925781 C 59.265625 16.925781 63.015625 20.757812 63.015625 25.484375 L 63.015625 39.660156 C 63.015625 44.386719 59.265625 48.226562 54.644531 48.226562 L 19.445312 48.226562 C 14.824219 48.226562 11.074219 44.386719 11.074219 39.660156 L 11.074219 25.484375 C 11.074219 20.757812 14.824219 16.925781 19.445312 16.925781 Z M 19.445312 16.925781 "/><path style=" stroke:none;fill-rule:nonzero;fill:url(#linear1);" d="M 20.636719 16.925781 C 14.195312 16.945312 7.761719 16.964844 1.328125 16.980469 C 0.621094 17 -0.722656 16.953125 0.722656 18.421875 C 7.6875 25.6875 13.886719 25.882812 20.390625 28.914062 C 20.472656 24.914062 20.554688 20.921875 20.636719 16.925781 Z M 20.636719 16.925781 "/></g></svg>
