<svg width="64" height="64" viewBox="0 0 64 64" version="1.1" xmlns:inkscape="http://www.inkscape.org/namespaces/inkscape"><defs><linearGradient id="linear0" gradientUnits="userSpaceOnUse" x1="0" y1="0" x2="0" y2="1" gradientTransform="matrix(80.902072,0,0,47.33992,-8.626972,8.25691)"><stop offset="0" style="stop-color:rgb(0%,73.333335%,100%);stop-opacity:1;"/><stop offset="1" style="stop-color:rgb(0%,52.156866%,70.980394%);stop-opacity:1;"/></linearGradient><filter style="color-interpolation-filters:sRGB;" inkscape:label="Diffuse Light" id="filter184" x="-0.0375" y="-0.0375" width="1.075" height="1.075"><feGaussianBlur in="SourceGraphic" stdDeviation="1" result="blur" id="feGaussianBlur174" /><feDiffuseLighting diffuseConstant="1" surfaceScale="10" lighting-color="rgb(255,255,255)" result="diffuse" id="feDiffuseLighting178"><feDistantLight elevation="8" azimuth="235" id="feDistantLight176" /></feDiffuseLighting><feComposite in="diffuse" in2="diffuse" operator="arithmetic" k1="1" result="composite1" id="feComposite180" /><feComposite in="composite1" in2="SourceGraphic" k1="1" operator="arithmetic" k3="1" result="composite2" id="feComposite182" /></filter></defs><g id="surface1" style="filter:url(#filter184)"><path style=" stroke:none;fill-rule:nonzero;fill:url(#linear0);" d="M 7.882812 1.804688 C 7.882812 1.804688 7.921875 18.746094 17.269531 21.617188 C 17.191406 21.773438 17.109375 21.914062 17.035156 22.070312 C 14.386719 27.5625 13.980469 39.804688 13.980469 39.804688 L 32.269531 6.878906 C 32.269531 6.878906 26 8.710938 20.375 16.519531 C 12.78125 13.976562 7.882812 1.804688 7.882812 1.804688 Z M 32.269531 6.878906 L 50.558594 39.804688 C 50.558594 39.804688 50.152344 27.5625 47.511719 22.070312 C 47.433594 21.914062 47.351562 21.773438 47.273438 21.617188 C 56.625 18.746094 56.652344 1.804688 56.652344 1.804688 C 56.652344 1.804688 51.753906 13.976562 44.167969 16.519531 C 38.542969 8.710938 32.269531 6.878906 32.269531 6.878906 Z M 32.269531 6.878906 L 35.316406 32.207031 L 47.511719 39.804688 Z M 32.269531 6.878906 L 17.035156 39.804688 L 29.222656 32.207031 Z M 29.222656 37.273438 C 29.222656 37.273438 17.035156 39.804688 17.035156 44.871094 C 17.035156 49.933594 29.222656 52.472656 29.222656 52.472656 C 29.222656 52.472656 26.175781 49.933594 26.175781 44.871094 C 26.175781 39.804688 29.222656 37.273438 29.222656 37.273438 Z M 17.035156 44.871094 L 1.789062 42.335938 L 17.035156 62.601562 L 10.929688 47.410156 Z M 35.316406 37.273438 C 35.316406 37.273438 38.371094 39.804688 38.371094 44.871094 C 38.371094 49.933594 35.316406 52.472656 35.316406 52.472656 C 35.316406 52.472656 47.511719 49.933594 47.511719 44.871094 C 47.511719 39.804688 35.316406 37.273438 35.316406 37.273438 Z M 47.511719 44.871094 L 53.605469 47.410156 L 47.511719 62.601562 L 62.753906 42.335938 Z M 47.511719 44.871094 "/></g></svg>
