<svg width="64" height="64" viewBox="0 0 64 64" version="1.1" xmlns:inkscape="http://www.inkscape.org/namespaces/inkscape"><defs><linearGradient id="linear0" gradientUnits="userSpaceOnUse" x1="0" y1="0" x2="0" y2="1" gradientTransform="matrix(84.951545,0,0,54.392801,-11.991631,3.179537)"><stop offset="0" style="stop-color:rgb(41.960785%,64.313728%,100%);stop-opacity:1;"/><stop offset="1" style="stop-color:rgb(0%,43.137255%,100%);stop-opacity:1;"/></linearGradient><filter style="color-interpolation-filters:sRGB;" inkscape:label="Diffuse Light" id="filter184" x="-0.0375" y="-0.0375" width="1.075" height="1.075"><feGaussianBlur in="SourceGraphic" stdDeviation="1" result="blur" id="feGaussianBlur174" /><feDiffuseLighting diffuseConstant="1" surfaceScale="10" lighting-color="rgb(255,255,255)" result="diffuse" id="feDiffuseLighting178"><feDistantLight elevation="8" azimuth="235" id="feDistantLight176" /></feDiffuseLighting><feComposite in="diffuse" in2="diffuse" operator="arithmetic" k1="1" result="composite1" id="feComposite180" /><feComposite in="composite1" in2="SourceGraphic" k1="1" operator="arithmetic" k3="1" result="composite2" id="feComposite182" /></filter></defs><g id="surface1" style="filter:url(#filter184)"><path style=" stroke:none;fill-rule:nonzero;fill:url(#linear0);" d="M 62.84375 32.394531 C 62.84375 49.128906 49.261719 62.699219 32.503906 62.699219 C 15.753906 62.699219 2.164062 49.128906 2.164062 32.394531 C 2.164062 15.660156 15.753906 2.089844 32.503906 2.089844 C 49.261719 2.089844 62.84375 15.660156 62.84375 32.394531 Z M 62.84375 32.394531 "/><path style=" stroke:none;fill-rule:nonzero;fill:rgb(0%,43.137255%,100%);fill-opacity:1;" d="M 20.371094 14.210938 C 14.300781 14.210938 8.230469 22.296875 8.230469 30.375 C 8.230469 35.425781 10.261719 38.453125 14.300781 38.453125 C 22.394531 38.453125 26.4375 27.527344 26.4375 20.269531 C 26.4375 17.242188 24.414062 14.210938 20.371094 14.210938 Z M 50.710938 32.394531 C 44.640625 32.394531 40.601562 40.476562 40.601562 45.53125 C 40.601562 50.578125 42.921875 52.601562 45.652344 52.601562 C 50.710938 52.601562 54.753906 45.710938 54.753906 38.453125 C 54.753906 35.425781 53.746094 32.394531 50.710938 32.394531 Z M 50.710938 32.394531 "/></g></svg>
