<svg width="64" height="64" viewBox="0 0 64 64" version="1.1" xmlns:inkscape="http://www.inkscape.org/namespaces/inkscape"><defs><linearGradient id="linear0" gradientUnits="userSpaceOnUse" x1="0" y1="0" x2="0" y2="1" gradientTransform="matrix(83.948009,0,0,50.759296,-11.036125,6.022331)"><stop offset="0" style="stop-color:rgb(0%,78.823531%,36.862746%);stop-opacity:1;"/><stop offset="1" style="stop-color:rgb(0%,54.11765%,25.098041%);stop-opacity:1;"/></linearGradient><filter style="color-interpolation-filters:sRGB;" inkscape:label="Diffuse Light" id="filter184" x="-0.0375" y="-0.0375" width="1.075" height="1.075"><feGaussianBlur in="SourceGraphic" stdDeviation="1" result="blur" id="feGaussianBlur174" /><feDiffuseLighting diffuseConstant="1" surfaceScale="10" lighting-color="rgb(255,255,255)" result="diffuse" id="feDiffuseLighting178"><feDistantLight elevation="8" azimuth="235" id="feDistantLight176" /></feDiffuseLighting><feComposite in="diffuse" in2="diffuse" operator="arithmetic" k1="1" result="composite1" id="feComposite180" /><feComposite in="composite1" in2="SourceGraphic" k1="1" operator="arithmetic" k3="1" result="composite2" id="feComposite182" /></filter></defs><g id="surface1" style="filter:url(#filter184)"><path style=" stroke:none;fill-rule:nonzero;fill:url(#linear0);" d="M 19.851562 1.78125 C 17.480469 1.78125 15.578125 3.476562 15.578125 5.585938 C 15.578125 7.691406 17.480469 9.390625 19.851562 9.390625 L 21.28125 9.390625 L 21.28125 22.066406 C 21.28125 22.066406 7.015625 52.5 7.015625 57.570312 C 7.015625 60.105469 9.867188 62.640625 14.148438 62.640625 L 51.226562 62.640625 C 55.507812 62.640625 58.359375 60.105469 58.359375 57.570312 C 58.359375 52.5 44.101562 22.066406 44.101562 22.066406 L 44.101562 9.390625 L 45.523438 9.390625 C 47.894531 9.390625 49.804688 7.691406 49.804688 5.585938 C 49.804688 3.476562 47.894531 1.78125 45.523438 1.78125 Z M 19.851562 1.78125 "/></g></svg>
