<svg width="64" height="64" viewBox="0 0 64 64" version="1.1" xmlns:inkscape="http://www.inkscape.org/namespaces/inkscape"><defs><linearGradient id="linear0" gradientUnits="userSpaceOnUse" x1="0" y1="0" x2="0" y2="1" gradientTransform="matrix(58.289062,0,0,64,2.855469,0)"><stop offset="0" style="stop-color:rgb(81.960785%,70.980394%,59.215689%);stop-opacity:1;"/><stop offset="1" style="stop-color:rgb(65.098041%,53.725493%,41.568628%);stop-opacity:1;"/></linearGradient><filter style="color-interpolation-filters:sRGB;" inkscape:label="Diffuse Light" id="filter184" x="-0.0375" y="-0.0375" width="1.075" height="1.075"><feGaussianBlur in="SourceGraphic" stdDeviation="1" result="blur" id="feGaussianBlur174" /><feDiffuseLighting diffuseConstant="1" surfaceScale="10" lighting-color="rgb(255,255,255)" result="diffuse" id="feDiffuseLighting178"><feDistantLight elevation="8" azimuth="235" id="feDistantLight176" /></feDiffuseLighting><feComposite in="diffuse" in2="diffuse" operator="arithmetic" k1="1" result="composite1" id="feComposite180" /><feComposite in="composite1" in2="SourceGraphic" k1="1" operator="arithmetic" k3="1" result="composite2" id="feComposite182" /></filter></defs><g id="surface1" style="filter:url(#filter184)"><path style=" stroke:none;fill-rule:nonzero;fill:url(#linear0);" d="M 6.554688 50.664062 L 6.550781 50.664062 C 6.308594 50.523438 6.070312 50.371094 5.851562 50.199219 C 5.742188 50.132812 5.648438 50.054688 5.554688 49.976562 C 5.410156 49.867188 5.277344 49.746094 5.152344 49.621094 C 5.09375 49.574219 5.039062 49.523438 4.996094 49.464844 C 3.640625 48.128906 2.855469 46.300781 2.855469 44.359375 L 2.855469 19.636719 C 2.855469 17.035156 4.269531 14.636719 6.550781 13.335938 L 28.304688 0.972656 C 29.480469 0.304688 30.820312 -0.03125 32.175781 0.00390625 L 32.175781 0 C 33.410156 0.0273438 34.625 0.363281 35.695312 0.972656 L 57.449219 13.335938 C 59.730469 14.632812 61.144531 17.035156 61.144531 19.636719 L 61.144531 44.363281 C 61.144531 46.960938 59.730469 49.363281 57.449219 50.664062 L 35.695312 63.023438 C 33.40625 64.324219 30.59375 64.324219 28.304688 63.023438 Z M 6.554688 50.664062 "/></g></svg>
