<svg width="64" height="64" viewBox="0 0 64 64" version="1.1" xmlns:inkscape="http://www.inkscape.org/namespaces/inkscape"><defs><linearGradient id="linear0" gradientUnits="userSpaceOnUse" x1="0" y1="0" x2="0" y2="1" gradientTransform="matrix(64,0,0,56.890625,0,3.554688)"><stop offset="0" style="stop-color:rgb(41.960785%,64.313728%,100%);stop-opacity:1;"/><stop offset="1" style="stop-color:rgb(0%,43.137255%,100%);stop-opacity:1;"/></linearGradient><filter style="color-interpolation-filters:sRGB;" inkscape:label="Diffuse Light" id="filter184" x="-0.0375" y="-0.0375" width="1.075" height="1.075"><feGaussianBlur in="SourceGraphic" stdDeviation="1" result="blur" id="feGaussianBlur174" /><feDiffuseLighting diffuseConstant="1" surfaceScale="10" lighting-color="rgb(255,255,255)" result="diffuse" id="feDiffuseLighting178"><feDistantLight elevation="8" azimuth="235" id="feDistantLight176" /></feDiffuseLighting><feComposite in="diffuse" in2="diffuse" operator="arithmetic" k1="1" result="composite1" id="feComposite180" /><feComposite in="composite1" in2="SourceGraphic" k1="1" operator="arithmetic" k3="1" result="composite2" id="feComposite182" /></filter></defs><g id="surface1" style="filter:url(#filter184)"><path style=" stroke:none;fill-rule:evenodd;fill:url(#linear0);" d="M 0 3.554688 L 16.789062 3.554688 L 16.789062 20.339844 L 0 20.339844 Z M 23.710938 3.660156 L 40.5 3.660156 L 40.5 20.445312 L 23.710938 20.445312 Z M 47.210938 3.660156 L 64 3.660156 L 64 20.445312 L 47.210938 20.445312 Z M 0 23.554688 L 16.789062 23.554688 L 16.789062 40.339844 L 0 40.339844 Z M 23.710938 23.660156 L 40.5 23.660156 L 40.5 40.445312 L 23.710938 40.445312 Z M 47.210938 23.660156 L 64 23.660156 L 64 40.445312 L 47.210938 40.445312 Z M 0 43.554688 L 16.789062 43.554688 L 16.789062 60.339844 L 0 60.339844 Z M 23.710938 43.660156 L 40.5 43.660156 L 40.5 60.445312 L 23.710938 60.445312 Z M 47.210938 43.660156 L 64 43.660156 L 64 60.445312 L 47.210938 60.445312 Z M 47.210938 43.660156 "/></g></svg>
