<svg xmlns="http://www.w3.org/2000/svg" xmlns:xlink="http://www.w3.org/1999/xlink" width="64" height="64" viewBox="0 0 64 64" version="1.1"><path style=" stroke:none;fill-rule:nonzero;fill:rgb(97.647059%,98.039216%,98.431373%);fill-opacity:1;" d="M 17.523438 17.78125 C 14.777344 17.742188 14.777344 21.882812 17.523438 21.84375 L 21.613281 21.84375 C 24.363281 21.804688 24.363281 25.945312 21.613281 25.90625 L 15.519531 25.90625 C 12.773438 25.867188 12.773438 30.007812 15.519531 29.96875 L 19.582031 29.96875 C 22.328125 29.929688 22.328125 34.070312 19.582031 34.03125 L 17.523438 34.03125 C 14.777344 33.992188 14.777344 38.132812 17.523438 38.09375 L 21.304688 38.09375 C 21.492188 38.175781 21.628906 38.367188 21.628906 38.585938 L 21.628906 45.125 C 21.636719 45.726562 22.128906 46.210938 22.730469 46.21875 L 36.648438 46.21875 C 40.714844 46.21875 43.789062 45.269531 46.28125 43.375 C 48.769531 41.480469 50.015625 38.6875 50.015625 34.996094 L 50.015625 28.953125 C 50.019531 25.433594 48.742188 22.695312 46.179688 20.726562 C 43.621094 18.765625 40.570312 17.78125 36.617188 17.78125 Z M 32.757812 25.90625 L 35.589844 25.90625 C 37.761719 25.90625 38.851562 26.957031 38.855469 29.050781 L 38.855469 34.90625 C 38.855469 35.953125 38.554688 36.75 37.960938 37.285156 C 37.328125 37.835938 36.46875 38.128906 35.589844 38.089844 L 32.757812 38.089844 Z M 32.757812 25.90625 "/></svg>
