<svg width="64" height="64" viewBox="0 0 64 64" version="1.1" xmlns:inkscape="http://www.inkscape.org/namespaces/inkscape"><defs><linearGradient id="linear0" gradientUnits="userSpaceOnUse" x1="0" y1="0" x2="0" y2="1" gradientTransform="matrix(64,0,0,64,0,0)"><stop offset="0" style="stop-color:rgb(75.686276%,77.64706%,83.92157%);stop-opacity:1;"/><stop offset="1" style="stop-color:rgb(43.529412%,45.09804%,50.196081%);stop-opacity:1;"/></linearGradient><filter style="color-interpolation-filters:sRGB;" inkscape:label="Diffuse Light" id="filter184" x="-0.0375" y="-0.0375" width="1.075" height="1.075"><feGaussianBlur in="SourceGraphic" stdDeviation="1" result="blur" id="feGaussianBlur174" /><feDiffuseLighting diffuseConstant="1" surfaceScale="10" lighting-color="rgb(255,255,255)" result="diffuse" id="feDiffuseLighting178"><feDistantLight elevation="8" azimuth="235" id="feDistantLight176" /></feDiffuseLighting><feComposite in="diffuse" in2="diffuse" operator="arithmetic" k1="1" result="composite1" id="feComposite180" /><feComposite in="composite1" in2="SourceGraphic" k1="1" operator="arithmetic" k3="1" result="composite2" id="feComposite182" /></filter></defs><g id="surface1" style="filter:url(#filter184)"><path style=" stroke:none;fill-rule:nonzero;fill:url(#linear0);" d="M 10.980469 0 C -3.660156 14.640625 -3.660156 38.378906 10.980469 53.019531 C 25.621094 67.660156 49.359375 67.660156 64 53.019531 L 58.109375 47.128906 C 46.722656 58.515625 28.261719 58.515625 16.871094 47.128906 C 5.488281 35.742188 5.488281 17.28125 16.871094 5.894531 Z M 19.742188 9.054688 C 16.394531 13.019531 14.367188 17.929688 13.933594 23.101562 L 33.785156 23.101562 Z M 13.902344 27.265625 C 14.34375 32.441406 16.382812 37.347656 19.742188 41.308594 L 33.785156 27.265625 Z M 36.734375 30.210938 L 22.6875 44.253906 C 26.652344 47.601562 31.5625 49.632812 36.734375 50.066406 Z M 40.898438 30.210938 L 40.898438 50.097656 C 46.074219 49.65625 50.980469 47.613281 54.941406 44.253906 Z M 40.898438 30.210938 "/></g></svg>
