<svg width="64" height="64" viewBox="0 0 64 64" version="1.1" xmlns:inkscape="http://www.inkscape.org/namespaces/inkscape"><defs><linearGradient id="linear0" gradientUnits="userSpaceOnUse" x1="0" y1="0" x2="0" y2="1" gradientTransform="matrix(64,0,0,64,0,0)"><stop offset="0" style="stop-color:rgb(92.941177%,83.529413%,72.549021%);stop-opacity:1;"/><stop offset="1" style="stop-color:rgb(81.960785%,71.372551%,59.215689%);stop-opacity:1;"/></linearGradient><filter style="color-interpolation-filters:sRGB;" inkscape:label="Diffuse Light" id="filter184" x="-0.0375" y="-0.0375" width="1.075" height="1.075"><feGaussianBlur in="SourceGraphic" stdDeviation="1" result="blur" id="feGaussianBlur174" /><feDiffuseLighting diffuseConstant="1" surfaceScale="10" lighting-color="rgb(255,255,255)" result="diffuse" id="feDiffuseLighting178"><feDistantLight elevation="8" azimuth="235" id="feDistantLight176" /></feDiffuseLighting><feComposite in="diffuse" in2="diffuse" operator="arithmetic" k1="1" result="composite1" id="feComposite180" /><feComposite in="composite1" in2="SourceGraphic" k1="1" operator="arithmetic" k3="1" result="composite2" id="feComposite182" /></filter></defs><g id="surface1" style="filter:url(#filter184)"><path style=" stroke:none;fill-rule:evenodd;fill:url(#linear0);" d="M 8.25 0 C 3.691406 0 0 3.691406 0 8.25 C 0.00390625 12.804688 3.695312 16.492188 8.25 16.492188 C 12.800781 16.488281 16.488281 12.800781 16.492188 8.25 C 16.492188 3.695312 12.804688 0.00390625 8.25 0 Z M 55.75 0 C 51.195312 0.00390625 47.507812 3.695312 47.507812 8.25 C 47.511719 12.800781 51.199219 16.488281 55.75 16.492188 C 60.304688 16.492188 63.996094 12.804688 64 8.25 C 64 3.691406 60.308594 0 55.75 0 Z M 32 23.75 C 27.441406 23.75 23.75 27.441406 23.75 32 C 23.75 36.558594 27.441406 40.25 32 40.25 C 36.558594 40.25 40.25 36.558594 40.25 32 C 40.25 27.441406 36.558594 23.75 32 23.75 Z M 8.25 47.507812 C 3.695312 47.507812 0.00390625 51.195312 0 55.75 C 0 60.308594 3.691406 64 8.25 64 C 12.804688 63.996094 16.492188 60.304688 16.492188 55.75 C 16.488281 51.199219 12.800781 47.511719 8.25 47.507812 Z M 55.75 47.507812 C 51.199219 47.511719 47.511719 51.199219 47.507812 55.75 C 47.507812 60.304688 51.195312 63.996094 55.75 64 C 60.308594 64 64 60.308594 64 55.75 C 63.996094 51.195312 60.304688 47.507812 55.75 47.507812 Z M 55.75 47.507812 "/></g></svg>
