<svg width="64" height="64" viewBox="0 0 64 64" version="1.1" xmlns:inkscape="http://www.inkscape.org/namespaces/inkscape"><defs><linearGradient id="linear0" gradientUnits="userSpaceOnUse" x1="0" y1="0" x2="0" y2="1" gradientTransform="matrix(49.78125,0,0,60,8,2)"><stop offset="0" style="stop-color:rgb(82.352942%,61.176473%,100%);stop-opacity:1;"/><stop offset="1" style="stop-color:rgb(66.666669%,0%,100%);stop-opacity:1;"/></linearGradient><filter style="color-interpolation-filters:sRGB;" inkscape:label="Diffuse Light" id="filter184" x="-0.0375" y="-0.0375" width="1.075" height="1.075"><feGaussianBlur in="SourceGraphic" stdDeviation="1" result="blur" id="feGaussianBlur174" /><feDiffuseLighting diffuseConstant="1" surfaceScale="10" lighting-color="rgb(255,255,255)" result="diffuse" id="feDiffuseLighting178"><feDistantLight elevation="8" azimuth="235" id="feDistantLight176" /></feDiffuseLighting><feComposite in="diffuse" in2="diffuse" operator="arithmetic" k1="1" result="composite1" id="feComposite180" /><feComposite in="composite1" in2="SourceGraphic" k1="1" operator="arithmetic" k3="1" result="composite2" id="feComposite182" /></filter></defs><g id="surface1" style="filter:url(#filter184)"><path style=" stroke:none;fill-rule:evenodd;fill:url(#linear0);" d="M 57.78125 43.265625 L 55.789062 62 L 8 62 L 8 60.511719 L 32.148438 33.625 L 8.679688 3.472656 L 8.679688 2 L 53.925781 2 L 53.925781 17.933594 L 50.925781 17.933594 C 50.304688 15.121094 49.105469 12.464844 47.34375 9.96875 C 45.582031 7.46875 43.765625 6.070312 41.875 5.769531 C 41.023438 5.617188 39.824219 5.507812 38.265625 5.449219 C 36.695312 5.375 35.421875 5.328125 34.425781 5.328125 L 21.363281 5.328125 L 40.1875 29.519531 L 40.1875 30.199219 L 18.191406 54.546875 L 45.800781 54.546875 C 47.070312 54.546875 48.195312 54.171875 49.191406 53.40625 C 50.175781 52.65625 51.027344 51.675781 51.734375 50.492188 C 52.382812 49.425781 52.960938 48.226562 53.464844 46.925781 C 53.972656 45.613281 54.417969 44.386719 54.808594 43.257812 L 57.78125 43.257812 Z M 57.78125 43.265625 "/></g></svg>
