<svg width="64" height="64" viewBox="0 0 64 64" version="1.1" xmlns:inkscape="http://www.inkscape.org/namespaces/inkscape"><defs><linearGradient id="linear0" gradientUnits="userSpaceOnUse" x1="0" y1="0" x2="0" y2="1" gradientTransform="matrix(122.145602,0,0,122.515401,-28.972227,-28.71187)"><stop offset="0" style="stop-color:rgb(75.686276%,77.64706%,83.92157%);stop-opacity:1;"/><stop offset="1" style="stop-color:rgb(43.529412%,45.09804%,50.196081%);stop-opacity:1;"/></linearGradient><linearGradient id="linear1" gradientUnits="userSpaceOnUse" x1="0" y1="0" x2="0" y2="1" gradientTransform="matrix(122.145602,0,0,122.515401,-28.972227,-28.71187)"><stop offset="0" style="stop-color:rgb(75.686276%,77.64706%,83.92157%);stop-opacity:1;"/><stop offset="1" style="stop-color:rgb(43.529412%,45.09804%,50.196081%);stop-opacity:1;"/></linearGradient><filter style="color-interpolation-filters:sRGB;" inkscape:label="Diffuse Light" id="filter184" x="-0.0375" y="-0.0375" width="1.075" height="1.075"><feGaussianBlur in="SourceGraphic" stdDeviation="1" result="blur" id="feGaussianBlur174" /><feDiffuseLighting diffuseConstant="1" surfaceScale="10" lighting-color="rgb(255,255,255)" result="diffuse" id="feDiffuseLighting178"><feDistantLight elevation="8" azimuth="235" id="feDistantLight176" /></feDiffuseLighting><feComposite in="diffuse" in2="diffuse" operator="arithmetic" k1="1" result="composite1" id="feComposite180" /><feComposite in="composite1" in2="SourceGraphic" k1="1" operator="arithmetic" k3="1" result="composite2" id="feComposite182" /></filter></defs><g id="surface1" style="filter:url(#filter184)"><path style=" stroke:none;fill-rule:nonzero;fill:url(#linear0);" d="M 5.378906 1.914062 L 24.460938 1.914062 C 26.566406 1.914062 28.277344 3.625 28.277344 5.742188 L 28.277344 24.882812 C 28.277344 27 26.566406 28.707031 24.460938 28.707031 L 5.378906 28.707031 C 3.265625 28.707031 1.5625 27 1.5625 24.882812 L 1.5625 5.742188 C 1.5625 3.625 3.265625 1.914062 5.378906 1.914062 Z M 5.378906 1.914062 "/><path style=" stroke:none;fill-rule:nonzero;fill:url(#linear1);" d="M 39.726562 1.914062 C 37.609375 1.914062 35.910156 3.621094 35.910156 5.742188 L 35.910156 24.882812 C 35.910156 27.003906 37.609375 28.707031 39.726562 28.707031 L 58.808594 28.707031 C 60.925781 28.707031 62.625 27.003906 62.625 24.882812 L 62.625 5.742188 C 62.625 3.621094 60.925781 1.914062 58.808594 1.914062 Z M 39.726562 5.742188 L 58.808594 5.742188 L 58.808594 24.882812 L 39.726562 24.882812 Z M 39.726562 36.363281 C 37.609375 36.363281 35.910156 38.070312 35.910156 40.195312 L 35.910156 59.332031 C 35.910156 61.460938 37.609375 63.164062 39.726562 63.164062 L 58.808594 63.164062 C 60.925781 63.164062 62.625 61.460938 62.625 59.332031 L 62.625 40.195312 C 62.625 38.070312 60.925781 36.363281 58.808594 36.363281 Z M 39.726562 40.195312 L 58.808594 40.195312 L 58.808594 59.332031 L 39.726562 59.332031 Z M 5.378906 36.363281 C 3.261719 36.363281 1.5625 38.070312 1.5625 40.195312 L 1.5625 59.332031 C 1.5625 61.460938 3.261719 63.164062 5.378906 63.164062 L 24.460938 63.164062 C 26.578125 63.164062 28.277344 61.460938 28.277344 59.332031 L 28.277344 40.195312 C 28.277344 38.070312 26.578125 36.363281 24.460938 36.363281 Z M 5.378906 40.195312 L 24.460938 40.195312 L 24.460938 59.332031 L 5.378906 59.332031 Z M 5.378906 40.195312 "/></g></svg>
