<svg width="64" height="64" viewBox="0 0 64 64" version="1.1" xmlns:inkscape="http://www.inkscape.org/namespaces/inkscape"><defs><linearGradient id="linear0" gradientUnits="userSpaceOnUse" x1="0" y1="0" x2="0" y2="1" gradientTransform="matrix(64,0,0,63.960938,0,0.0195312)"><stop offset="0" style="stop-color:rgb(0%,96.078432%,86.274511%);stop-opacity:1;"/><stop offset="1" style="stop-color:rgb(0%,54.901963%,49.411765%);stop-opacity:1;"/></linearGradient><filter style="color-interpolation-filters:sRGB;" inkscape:label="Diffuse Light" id="filter184" x="-0.0375" y="-0.0375" width="1.075" height="1.075"><feGaussianBlur in="SourceGraphic" stdDeviation="1" result="blur" id="feGaussianBlur174" /><feDiffuseLighting diffuseConstant="1" surfaceScale="10" lighting-color="rgb(255,255,255)" result="diffuse" id="feDiffuseLighting178"><feDistantLight elevation="8" azimuth="235" id="feDistantLight176" /></feDiffuseLighting><feComposite in="diffuse" in2="diffuse" operator="arithmetic" k1="1" result="composite1" id="feComposite180" /><feComposite in="composite1" in2="SourceGraphic" k1="1" operator="arithmetic" k3="1" result="composite2" id="feComposite182" /></filter></defs><g id="surface1" style="filter:url(#filter184)"><path style=" stroke:none;fill-rule:nonzero;fill:url(#linear0);" d="M 9.597656 0.0195312 C 4.3125 0.0195312 0 4.328125 0 9.613281 L 0 47.992188 C 0 53.273438 4.3125 57.585938 9.597656 57.585938 L 17.1875 57.585938 L 43.671875 63.785156 C 44.386719 63.945312 45.074219 63.980469 45.773438 63.980469 C 50.261719 63.957031 54.144531 60.855469 55.167969 56.484375 L 63.765625 19.113281 C 64.9375 13.949219 61.617188 8.792969 56.464844 7.617188 L 43.375 4.617188 C 41.625 1.773438 38.523438 0.03125 35.179688 0.0195312 Z M 9.597656 6.414062 L 35.179688 6.414062 C 36.941406 6.414062 38.375 7.855469 38.375 9.613281 L 38.375 47.992188 C 38.375 49.746094 36.941406 51.1875 35.179688 51.1875 L 9.597656 51.1875 C 7.835938 51.1875 6.394531 49.746094 6.394531 47.992188 L 6.394531 9.613281 C 6.394531 7.855469 7.835938 6.414062 9.597656 6.414062 Z M 44.773438 11.511719 L 55.066406 13.808594 C 56.792969 14.199219 57.851562 15.996094 57.46875 17.710938 L 48.867188 55.085938 C 48.472656 56.789062 46.78125 57.855469 45.070312 57.484375 L 39.875 56.285156 C 42.777344 54.636719 44.773438 51.5625 44.773438 47.992188 Z M 22.386719 12.8125 C 22.386719 12.8125 9.597656 23.167969 9.597656 29.003906 C 9.597656 32.882812 12.757812 36.097656 16.59375 36.097656 C 17.925781 36.097656 19.253906 35.625 20.386719 34.894531 L 18.089844 41.597656 L 26.683594 41.597656 L 24.382812 34.996094 C 25.4375 35.671875 26.710938 36.097656 28.183594 36.097656 C 32.019531 36.097656 35.179688 32.882812 35.179688 29 C 35.179688 23.179688 22.386719 12.8125 22.386719 12.8125 Z M 22.386719 12.8125 "/></g></svg>
