<svg width="64" height="64" viewBox="0 0 64 64" version="1.1" xmlns:inkscape="http://www.inkscape.org/namespaces/inkscape"><defs><linearGradient id="linear0" gradientUnits="userSpaceOnUse" x1="0" y1="0" x2="0" y2="1" gradientTransform="matrix(60.82455,0,0,60.197857,1.985004,1.96717)"><stop offset="0" style="stop-color:rgb(100%,56.862748%,82.745099%);stop-opacity:1;"/><stop offset="1" style="stop-color:rgb(100%,0%,60.000002%);stop-opacity:1;"/></linearGradient><filter style="color-interpolation-filters:sRGB;" inkscape:label="Diffuse Light" id="filter184" x="-0.0375" y="-0.0375" width="1.075" height="1.075"><feGaussianBlur in="SourceGraphic" stdDeviation="1" result="blur" id="feGaussianBlur174" /><feDiffuseLighting diffuseConstant="1" surfaceScale="10" lighting-color="rgb(255,255,255)" result="diffuse" id="feDiffuseLighting178"><feDistantLight elevation="8" azimuth="235" id="feDistantLight176" /></feDiffuseLighting><feComposite in="diffuse" in2="diffuse" operator="arithmetic" k1="1" result="composite1" id="feComposite180" /><feComposite in="composite1" in2="SourceGraphic" k1="1" operator="arithmetic" k3="1" result="composite2" id="feComposite182" /></filter></defs><g id="surface1" style="filter:url(#filter184)"><path style=" stroke:none;fill-rule:nonzero;fill:url(#linear0);" d="M 8.5 1.96875 C 4.929688 1.96875 1.984375 5.367188 1.984375 9.492188 L 1.984375 54.640625 C 1.984375 58.769531 4.929688 62.164062 8.5 62.164062 L 56.292969 62.164062 C 59.863281 62.164062 62.808594 58.769531 62.808594 54.640625 L 62.808594 9.492188 C 62.808594 5.367188 59.863281 1.96875 56.292969 1.96875 Z M 8.5 6.984375 L 23.707031 6.984375 L 23.707031 31.890625 L 28.050781 26.875 L 32.398438 31.890625 L 36.742188 28.128906 L 41.085938 31.890625 L 41.085938 6.984375 L 56.292969 6.984375 C 57.535156 6.984375 58.464844 8.0625 58.464844 9.492188 L 58.464844 54.640625 C 58.464844 56.074219 57.535156 57.148438 56.292969 57.148438 L 8.5 57.148438 C 7.921875 57.164062 7.359375 56.902344 6.949219 56.433594 C 6.539062 55.957031 6.316406 55.3125 6.328125 54.640625 L 6.328125 9.492188 C 6.328125 8.0625 7.257812 6.984375 8.5 6.984375 Z M 28.050781 6.984375 L 36.742188 6.984375 L 36.742188 21.855469 L 32.804688 25.265625 L 28.050781 19.78125 Z M 28.050781 6.984375 "/></g></svg>
