<svg width="64" height="64" viewBox="0 0 64 64" version="1.1" xmlns:inkscape="http://www.inkscape.org/namespaces/inkscape"><defs><linearGradient id="linear0" gradientUnits="userSpaceOnUse" x1="0" y1="0" x2="0" y2="1" gradientTransform="matrix(64,0,0,34.46875,0,15.53125)"><stop offset="0" style="stop-color:rgb(100%,56.862748%,82.745099%);stop-opacity:1;"/><stop offset="1" style="stop-color:rgb(100%,0%,60.000002%);stop-opacity:1;"/></linearGradient><filter style="color-interpolation-filters:sRGB;" inkscape:label="Diffuse Light" id="filter184" x="-0.0375" y="-0.0375" width="1.075" height="1.075"><feGaussianBlur in="SourceGraphic" stdDeviation="1" result="blur" id="feGaussianBlur174" /><feDiffuseLighting diffuseConstant="1" surfaceScale="10" lighting-color="rgb(255,255,255)" result="diffuse" id="feDiffuseLighting178"><feDistantLight elevation="8" azimuth="235" id="feDistantLight176" /></feDiffuseLighting><feComposite in="diffuse" in2="diffuse" operator="arithmetic" k1="1" result="composite1" id="feComposite180" /><feComposite in="composite1" in2="SourceGraphic" k1="1" operator="arithmetic" k3="1" result="composite2" id="feComposite182" /></filter></defs><g id="surface1" style="filter:url(#filter184)"><path style=" stroke:none;fill-rule:nonzero;fill:url(#linear0);" d="M 0 15.53125 L 0 21.085938 L 64 21.085938 L 64 15.53125 Z M 3.53125 23.867188 L 3.53125 44.445312 L 0 44.445312 L 0 50 L 64 50 L 64 44.445312 L 42.453125 44.445312 L 42.453125 29.429688 L 53.570312 29.429688 L 53.570312 34.992188 L 45.234375 34.992188 L 45.234375 40.546875 L 59.132812 40.546875 L 59.132812 23.867188 L 36.890625 23.867188 L 36.890625 44.445312 L 9.09375 44.445312 L 9.09375 29.429688 L 20.210938 29.429688 L 20.210938 34.992188 L 11.867188 34.992188 L 11.867188 40.546875 L 25.773438 40.546875 L 25.773438 23.867188 Z M 3.53125 23.867188 "/></g></svg>
