<svg width="64" height="64" viewBox="0 0 64 64" version="1.1" xmlns:inkscape="http://www.inkscape.org/namespaces/inkscape"><defs><linearGradient id="linear0" gradientUnits="userSpaceOnUse" x1="0" y1="0" x2="0" y2="1" gradientTransform="matrix(55.992188,0,0,56,4.003906,4)"><stop offset="0" style="stop-color:rgb(0%,96.078432%,86.274511%);stop-opacity:1;"/><stop offset="1" style="stop-color:rgb(0%,54.901963%,49.411765%);stop-opacity:1;"/></linearGradient><linearGradient id="linear1" gradientUnits="userSpaceOnUse" x1="0" y1="0" x2="0" y2="1" gradientTransform="matrix(55.992188,0,0,56,4.003906,4)"><stop offset="0" style="stop-color:rgb(0%,96.078432%,86.274511%);stop-opacity:1;"/><stop offset="1" style="stop-color:rgb(0%,54.901963%,49.411765%);stop-opacity:1;"/></linearGradient><filter style="color-interpolation-filters:sRGB;" inkscape:label="Diffuse Light" id="filter184" x="-0.0375" y="-0.0375" width="1.075" height="1.075"><feGaussianBlur in="SourceGraphic" stdDeviation="1" result="blur" id="feGaussianBlur174" /><feDiffuseLighting diffuseConstant="1" surfaceScale="10" lighting-color="rgb(255,255,255)" result="diffuse" id="feDiffuseLighting178"><feDistantLight elevation="8" azimuth="235" id="feDistantLight176" /></feDiffuseLighting><feComposite in="diffuse" in2="diffuse" operator="arithmetic" k1="1" result="composite1" id="feComposite180" /><feComposite in="composite1" in2="SourceGraphic" k1="1" operator="arithmetic" k3="1" result="composite2" id="feComposite182" /></filter></defs><g id="surface1" style="filter:url(#filter184)"><path style="fill-rule:nonzero;fill:url(#linear0);stroke-width:1.406;stroke-linecap:butt;stroke-linejoin:miter;stroke:url(#linear1);stroke-miterlimit:4;" d="M 221.414407 109.344222 L 200.602543 179.123414 L 116.967291 165.593138 L 171.425308 221.565925 L 103.154271 250.445675 L 175.432561 261.718198 L 117.225824 335.05457 L 199.808479 310.186799 L 215.874425 362.683621 L 257.553552 321.280651 L 328.336047 363.934319 L 311.549904 284.376944 L 385.582521 278.562011 L 323.867129 234.154118 L 367.26365 207.255993 L 322.094335 201.749674 L 369.793574 122.679584 L 264.847861 170.628415 L 221.414407 109.360465 Z M 233.953231 192.377562 L 252.549102 192.377562 C 256.870287 192.377562 260.342009 195.496185 260.342009 199.378221 L 260.342009 245.865197 C 260.342009 249.747233 256.870287 252.898342 252.549102 252.898342 L 233.953231 252.898342 C 229.668979 252.898342 226.178791 249.747233 226.178791 245.865197 L 226.178791 199.378221 C 226.178791 195.496185 229.668979 192.377562 233.953231 192.377562 Z M 233.953231 261.409584 L 252.549102 261.409584 C 256.870287 261.409584 260.342009 264.54445 260.342009 268.410243 L 260.342009 289.054879 C 260.342009 292.953158 256.870287 296.104266 252.549102 296.104266 L 233.953231 296.104266 C 229.668979 296.104266 226.178791 292.953158 226.178791 289.054879 L 226.178791 268.410243 C 226.178791 264.54445 229.668979 261.409584 233.953231 261.409584 Z M 233.953231 261.409584 " transform="matrix(0.21153,0,0,0.240491,-19.164024,-24.897836)"/></g></svg>
