<svg width="64" height="64" viewBox="0 0 64 64" version="1.1" xmlns:inkscape="http://www.inkscape.org/namespaces/inkscape"><defs><linearGradient id="linear0" gradientUnits="userSpaceOnUse" x1="0" y1="0" x2="0" y2="1" gradientTransform="matrix(62.549981,0,0,65.133493,0.308173,7.657448)"><stop offset="0" style="stop-color:rgb(75.686276%,77.64706%,83.92157%);stop-opacity:1;"/><stop offset="1" style="stop-color:rgb(43.529412%,45.09804%,50.196081%);stop-opacity:1;"/></linearGradient><filter style="color-interpolation-filters:sRGB;" inkscape:label="Diffuse Light" id="filter184" x="-0.0375" y="-0.0375" width="1.075" height="1.075"><feGaussianBlur in="SourceGraphic" stdDeviation="1" result="blur" id="feGaussianBlur174" /><feDiffuseLighting diffuseConstant="1" surfaceScale="10" lighting-color="rgb(255,255,255)" result="diffuse" id="feDiffuseLighting178"><feDistantLight elevation="8" azimuth="235" id="feDistantLight176" /></feDiffuseLighting><feComposite in="diffuse" in2="diffuse" operator="arithmetic" k1="1" result="composite1" id="feComposite180" /><feComposite in="composite1" in2="SourceGraphic" k1="1" operator="arithmetic" k3="1" result="composite2" id="feComposite182" /></filter></defs><g id="surface1" style="filter:url(#filter184)"><path style=" stroke:none;fill-rule:nonzero;fill:url(#linear0);" d="M 1.625 62.96875 C 1.625 62.757812 30.972656 4.867188 31.957031 3.136719 L 32.636719 1.9375 L 33.375 3.285156 C 33.792969 4.03125 36.777344 9.9375 40.03125 16.417969 C 43.28125 22.890625 49.832031 35.90625 54.59375 45.34375 C 61.265625 58.589844 63.152344 62.570312 62.839844 62.769531 C 62.617188 62.914062 59.9375 63.03125 56.898438 63.039062 L 51.355469 63.046875 L 49.726562 61.328125 C 45.628906 57.019531 38.464844 53.113281 30.457031 50.820312 L 26.875 49.792969 L 31.351562 49.5625 C 35.566406 49.347656 40.320312 49.488281 42.910156 49.925781 C 43.785156 50.058594 44.054688 50 44.054688 49.675781 C 44.054688 48.855469 33.066406 28.035156 32.636719 28.035156 C 32.324219 28.035156 30.105469 32.035156 21.496094 48.175781 C 17.265625 56.09375 13.777344 62.605469 13.75 62.644531 C 13.621094 62.804688 1.625 63.117188 1.625 62.960938 Z M 1.625 62.96875 "/></g></svg>
