<svg width="64" height="64" viewBox="0 0 64 64" version="1.1" xmlns:inkscape="http://www.inkscape.org/namespaces/inkscape"><defs><linearGradient id="linear0" gradientUnits="userSpaceOnUse" x1="0" y1="0" x2="0" y2="1" gradientTransform="matrix(70.637585,0,0,44.431662,-2.840463,9.048543)"><stop offset="0" style="stop-color:rgb(100%,56.862748%,82.745099%);stop-opacity:1;"/><stop offset="1" style="stop-color:rgb(100%,0%,60.000002%);stop-opacity:1;"/></linearGradient><filter style="color-interpolation-filters:sRGB;" inkscape:label="Diffuse Light" id="filter184" x="-0.0375" y="-0.0375" width="1.075" height="1.075"><feGaussianBlur in="SourceGraphic" stdDeviation="1" result="blur" id="feGaussianBlur174" /><feDiffuseLighting diffuseConstant="1" surfaceScale="10" lighting-color="rgb(255,255,255)" result="diffuse" id="feDiffuseLighting178"><feDistantLight elevation="8" azimuth="235" id="feDistantLight176" /></feDiffuseLighting><feComposite in="diffuse" in2="diffuse" operator="arithmetic" k1="1" result="composite1" id="feComposite180" /><feComposite in="composite1" in2="SourceGraphic" k1="1" operator="arithmetic" k3="1" result="composite2" id="feComposite182" /></filter></defs><g id="surface1" style="filter:url(#filter184)"><path style=" stroke:none;fill-rule:nonzero;fill:url(#linear0);" d="M 31.910156 1.757812 C 15.195312 1.757812 1.636719 15.242188 1.636719 31.878906 C 1.636719 48.515625 15.195312 62 31.910156 62 C 48.636719 62 62.191406 48.515625 62.191406 31.878906 C 62.191406 15.242188 48.636719 1.757812 31.910156 1.757812 Z M 31.910156 19.832031 C 38.601562 19.832031 44.023438 25.226562 44.023438 31.878906 C 44.023438 38.53125 38.601562 43.925781 31.910156 43.925781 C 25.226562 43.925781 19.804688 38.53125 19.804688 31.878906 C 19.804688 25.226562 25.226562 19.832031 31.910156 19.832031 Z M 31.910156 23.847656 C 27.457031 23.847656 23.839844 27.441406 23.839844 31.878906 C 23.839844 36.316406 27.457031 39.910156 31.910156 39.910156 C 36.371094 39.910156 39.988281 36.316406 39.988281 31.878906 C 39.988281 27.441406 36.371094 23.847656 31.910156 23.847656 Z M 31.910156 27.859375 C 34.144531 27.859375 35.953125 29.660156 35.953125 31.878906 C 35.953125 34.097656 34.144531 35.894531 31.910156 35.894531 C 29.683594 35.894531 27.875 34.097656 27.875 31.878906 C 27.875 29.660156 29.683594 27.859375 31.910156 27.859375 Z M 31.910156 27.859375 "/></g></svg>
