<svg width="64" height="64" viewBox="0 0 64 64" version="1.1" xmlns:inkscape="http://www.inkscape.org/namespaces/inkscape"><defs><linearGradient id="linear0" gradientUnits="userSpaceOnUse" x1="0" y1="0" x2="0" y2="1" gradientTransform="matrix(75.204585,0,0,50.216194,-6.977928,8.298153)"><stop offset="0" style="stop-color:rgb(82.352942%,61.176473%,100%);stop-opacity:1;"/><stop offset="1" style="stop-color:rgb(66.666669%,0%,100%);stop-opacity:1;"/></linearGradient><filter style="color-interpolation-filters:sRGB;" inkscape:label="Diffuse Light" id="filter184" x="-0.0375" y="-0.0375" width="1.075" height="1.075"><feGaussianBlur in="SourceGraphic" stdDeviation="1" result="blur" id="feGaussianBlur174" /><feDiffuseLighting diffuseConstant="1" surfaceScale="10" lighting-color="rgb(255,255,255)" result="diffuse" id="feDiffuseLighting178"><feDistantLight elevation="8" azimuth="235" id="feDistantLight176" /></feDiffuseLighting><feComposite in="diffuse" in2="diffuse" operator="arithmetic" k1="1" result="composite1" id="feComposite180" /><feComposite in="composite1" in2="SourceGraphic" k1="1" operator="arithmetic" k3="1" result="composite2" id="feComposite182" /></filter></defs><g id="surface1" style="filter:url(#filter184)"><path style=" stroke:none;fill-rule:nonzero;fill:url(#linear0);" d="M 3.167969 1.824219 L 3.167969 62.96875 L 24.019531 62.96875 L 24.019531 42.585938 L 37.921875 42.585938 L 37.921875 52.777344 L 58.773438 52.777344 L 58.773438 1.824219 Z M 14.75 9.46875 C 16.402344 9.46875 17.925781 10.441406 18.757812 12.015625 L 37.921875 12.015625 L 37.921875 32.394531 L 24.019531 32.394531 L 24.019531 17.113281 L 18.757812 17.113281 C 18.757812 17.113281 16.398438 19.652344 14.75 19.660156 C 12.199219 19.660156 10.117188 17.375 10.117188 14.558594 C 10.117188 11.746094 12.191406 9.46875 14.75 9.46875 Z M 14.75 12.015625 C 13.46875 12.015625 12.433594 13.15625 12.433594 14.558594 C 12.433594 15.96875 13.46875 17.113281 14.75 17.113281 C 16.03125 17.113281 17.070312 15.96875 17.070312 14.558594 C 17.070312 13.15625 16.03125 12.015625 14.75 12.015625 Z M 14.75 12.015625 "/></g></svg>
