<svg width="64" height="64" viewBox="0 0 64 64" version="1.1" xmlns:inkscape="http://www.inkscape.org/namespaces/inkscape"><defs><linearGradient id="linear0" gradientUnits="userSpaceOnUse" x1="0" y1="0" x2="0" y2="1" gradientTransform="matrix(64,0,0,40,0,13.210938)"><stop offset="0" style="stop-color:rgb(0%,96.078432%,86.274511%);stop-opacity:1;"/><stop offset="1" style="stop-color:rgb(0%,54.901963%,49.411765%);stop-opacity:1;"/></linearGradient><filter style="color-interpolation-filters:sRGB;" inkscape:label="Diffuse Light" id="filter184" x="-0.0375" y="-0.0375" width="1.075" height="1.075"><feGaussianBlur in="SourceGraphic" stdDeviation="1" result="blur" id="feGaussianBlur174" /><feDiffuseLighting diffuseConstant="1" surfaceScale="10" lighting-color="rgb(255,255,255)" result="diffuse" id="feDiffuseLighting178"><feDistantLight elevation="8" azimuth="235" id="feDistantLight176" /></feDiffuseLighting><feComposite in="diffuse" in2="diffuse" operator="arithmetic" k1="1" result="composite1" id="feComposite180" /><feComposite in="composite1" in2="SourceGraphic" k1="1" operator="arithmetic" k3="1" result="composite2" id="feComposite182" /></filter></defs><g id="surface1" style="filter:url(#filter184)"><path style=" stroke:none;fill-rule:nonzero;fill:url(#linear0);" d="M 18.632812 13.210938 L 16.0625 15.953125 L 31.898438 32.8125 L 32.101562 32.8125 L 47.9375 15.953125 L 45.367188 13.210938 L 35.398438 23.820312 L 28.601562 23.820312 Z M 15.835938 16.421875 L 0 33.28125 L 0 33.492188 L 15.835938 50.351562 L 18.414062 47.609375 L 8.445312 37 L 8.445312 29.765625 L 18.414062 19.164062 Z M 48.164062 16.421875 L 45.585938 19.164062 L 55.554688 29.765625 L 55.554688 37 L 45.585938 47.609375 L 48.164062 50.351562 L 64 33.492188 L 64 33.28125 Z M 31.898438 33.609375 L 16.0625 50.46875 L 18.632812 53.210938 L 28.601562 42.601562 L 35.398438 42.601562 L 45.367188 53.210938 L 47.9375 50.46875 L 32.101562 33.609375 Z M 31.898438 33.609375 "/></g></svg>
