<svg width="64" height="64" viewBox="0 0 64 64" version="1.1" xmlns:inkscape="http://www.inkscape.org/namespaces/inkscape"><defs><linearGradient id="linear0" gradientUnits="userSpaceOnUse" x1="0" y1="0" x2="0" y2="1" gradientTransform="matrix(47.382812,0,0,56,8.308594,4)"><stop offset="0" style="stop-color:rgb(81.960785%,70.980394%,59.215689%);stop-opacity:1;"/><stop offset="1" style="stop-color:rgb(65.098041%,53.725493%,41.568628%);stop-opacity:1;"/></linearGradient><filter style="color-interpolation-filters:sRGB;" inkscape:label="Diffuse Light" id="filter184" x="-0.0375" y="-0.0375" width="1.075" height="1.075"><feGaussianBlur in="SourceGraphic" stdDeviation="1" result="blur" id="feGaussianBlur174" /><feDiffuseLighting diffuseConstant="1" surfaceScale="10" lighting-color="rgb(255,255,255)" result="diffuse" id="feDiffuseLighting178"><feDistantLight elevation="8" azimuth="235" id="feDistantLight176" /></feDiffuseLighting><feComposite in="diffuse" in2="diffuse" operator="arithmetic" k1="1" result="composite1" id="feComposite180" /><feComposite in="composite1" in2="SourceGraphic" k1="1" operator="arithmetic" k3="1" result="composite2" id="feComposite182" /></filter></defs><g id="surface1" style="filter:url(#filter184)"><path style=" stroke:none;fill-rule:nonzero;fill:url(#linear0);" d="M 39.867188 37.386719 L 47.824219 60 L 55.691406 60 L 35.59375 4 L 28.414062 4 L 8.308594 60 L 16.171875 60 L 31.957031 14.910156 L 38.710938 34.105469 C 36.195312 33.433594 33.449219 33.667969 31.085938 34.738281 C 28.667969 35.851562 26.632812 37.929688 25.898438 40.808594 C 25.464844 42.5625 25.632812 44.457031 26.394531 46.09375 C 27.167969 47.730469 28.609375 49.128906 30.585938 49.578125 C 31.742188 49.84375 32.984375 49.699219 34.058594 49.152344 C 35.144531 48.617188 36.097656 47.570312 36.355469 46.183594 C 36.503906 45.382812 36.386719 44.566406 36.011719 43.820312 C 35.617188 43.074219 34.859375 42.394531 33.863281 42.242188 C 33.300781 42.160156 32.765625 42.265625 32.246094 42.558594 C 31.726562 42.851562 31.214844 43.46875 31.148438 44.230469 L 33.789062 44.484375 C 33.773438 44.667969 33.605469 44.863281 33.554688 44.894531 C 33.496094 44.929688 33.535156 44.910156 33.480469 44.902344 C 33.5625 44.921875 33.578125 44.929688 33.65625 45.078125 C 33.738281 45.230469 33.785156 45.507812 33.746094 45.683594 C 33.65625 46.175781 33.367188 46.511719 32.882812 46.753906 C 32.386719 46.988281 31.703125 47.066406 31.167969 46.964844 C 30.046875 46.703125 29.292969 45.980469 28.800781 44.941406 C 28.3125 43.910156 28.195312 42.59375 28.476562 41.480469 C 28.996094 39.4375 30.367188 38.023438 32.183594 37.191406 C 34.003906 36.355469 36.230469 36.179688 38.175781 36.734375 C 38.769531 36.902344 39.332031 37.125 39.867188 37.386719 Z M 39.867188 37.386719 "/></g></svg>
