<svg width="64" height="64" viewBox="0 0 64 64" version="1.1" xmlns:inkscape="http://www.inkscape.org/namespaces/inkscape"><defs><linearGradient id="linear0" gradientUnits="userSpaceOnUse" x1="0" y1="0" x2="0" y2="1" gradientTransform="matrix(60.35332,0,0,59.825119,1.816222,2.06181)"><stop offset="0" style="stop-color:rgb(100%,56.862748%,82.745099%);stop-opacity:1;"/><stop offset="1" style="stop-color:rgb(100%,0%,60.000002%);stop-opacity:1;"/></linearGradient><filter style="color-interpolation-filters:sRGB;" inkscape:label="Diffuse Light" id="filter184" x="-0.0375" y="-0.0375" width="1.075" height="1.075"><feGaussianBlur in="SourceGraphic" stdDeviation="1" result="blur" id="feGaussianBlur174" /><feDiffuseLighting diffuseConstant="1" surfaceScale="10" lighting-color="rgb(255,255,255)" result="diffuse" id="feDiffuseLighting178"><feDistantLight elevation="8" azimuth="235" id="feDistantLight176" /></feDiffuseLighting><feComposite in="diffuse" in2="diffuse" operator="arithmetic" k1="1" result="composite1" id="feComposite180" /><feComposite in="composite1" in2="SourceGraphic" k1="1" operator="arithmetic" k3="1" result="composite2" id="feComposite182" /></filter></defs><g id="surface1" style="filter:url(#filter184)"><path style=" stroke:none;fill-rule:nonzero;fill:url(#linear0);" d="M 34.3125 2.0625 C 45.925781 2.0625 62.167969 6.347656 62.167969 22.996094 L 62.167969 61.886719 L 38.960938 61.886719 L 38.960938 45.433594 C 38.960938 45.433594 32.71875 47.722656 29.550781 49.925781 C 25.023438 53.078125 23.328125 55.90625 28.320312 61.886719 L 7.269531 61.886719 C 4.523438 61.886719 1.816406 58.398438 1.816406 52.914062 C 1.816406 39.429688 10.507812 36.171875 18.753906 34.074219 C 25.410156 32.367188 35.125 31.101562 36.988281 29.730469 C 41.148438 26.660156 38.523438 20.003906 34.3125 20.003906 C 27.351562 20.003906 25.023438 21.890625 25.023438 28.984375 L 4.128906 28.984375 C 4.128906 9.070312 20.382812 2.0625 34.3125 2.0625 Z M 34.3125 2.0625 "/></g></svg>
