<svg width="64" height="64" viewBox="0 0 64 64" version="1.1" xmlns:inkscape="http://www.inkscape.org/namespaces/inkscape"><defs><linearGradient id="linear0" gradientUnits="userSpaceOnUse" x1="0" y1="0" x2="0" y2="1" gradientTransform="matrix(50.949159,0,0,53.475337,6.584257,6.397029)"><stop offset="0" style="stop-color:rgb(92.941177%,83.529413%,72.549021%);stop-opacity:0.4;"/><stop offset="1" style="stop-color:rgb(81.960785%,71.372551%,59.215689%);stop-opacity:0.4;"/></linearGradient><linearGradient id="linear1" gradientUnits="userSpaceOnUse" x1="0" y1="0" x2="0" y2="1" gradientTransform="matrix(61.055516,0,0,61.487202,1.571537,1.271666)"><stop offset="0" style="stop-color:rgb(92.941177%,83.529413%,72.549021%);stop-opacity:1;"/><stop offset="1" style="stop-color:rgb(81.960785%,71.372551%,59.215689%);stop-opacity:1;"/></linearGradient><filter style="color-interpolation-filters:sRGB;" inkscape:label="Diffuse Light" id="filter184" x="-0.0375" y="-0.0375" width="1.075" height="1.075"><feGaussianBlur in="SourceGraphic" stdDeviation="1" result="blur" id="feGaussianBlur174" /><feDiffuseLighting diffuseConstant="1" surfaceScale="10" lighting-color="rgb(255,255,255)" result="diffuse" id="feDiffuseLighting178"><feDistantLight elevation="8" azimuth="235" id="feDistantLight176" /></feDiffuseLighting><feComposite in="diffuse" in2="diffuse" operator="arithmetic" k1="1" result="composite1" id="feComposite180" /><feComposite in="composite1" in2="SourceGraphic" k1="1" operator="arithmetic" k3="1" result="composite2" id="feComposite182" /></filter></defs><g id="surface1" style="filter:url(#filter184)"><path style=" stroke:none;fill-rule:nonzero;fill:url(#linear0);" d="M 6.753906 6.398438 L 57.433594 6.398438 C 57.492188 6.398438 57.535156 6.441406 57.535156 6.496094 L 57.535156 49.851562 C 57.535156 49.910156 57.492188 49.953125 57.433594 49.953125 L 57.480469 55.410156 L 52.378906 57.503906 L 52.378906 59.871094 L 11.820312 59.46875 L 11.617188 54.597656 L 6.585938 54.597656 L 6.753906 49.953125 C 6.699219 49.953125 6.65625 49.910156 6.65625 49.851562 L 6.65625 6.496094 C 6.65625 6.441406 6.699219 6.398438 6.753906 6.398438 Z M 6.753906 6.398438 "/><path style=" stroke:none;fill-rule:nonzero;fill:url(#linear1);" d="M 11.746094 57.632812 L 6.660156 57.632812 L 6.660156 52.511719 L 1.570312 52.511719 L 1.570312 11.519531 L 6.660156 11.519531 L 6.660156 6.398438 L 11.746094 6.398438 L 11.746094 1.273438 L 52.453125 1.273438 L 52.453125 6.398438 L 57.539062 6.398438 L 57.539062 11.519531 L 62.628906 11.519531 L 62.628906 52.511719 L 57.539062 52.511719 L 57.539062 57.632812 L 52.453125 57.632812 L 52.453125 62.757812 L 11.746094 62.757812 Z M 52.453125 52.511719 L 57.539062 52.511719 L 57.539062 11.519531 L 52.453125 11.519531 L 52.453125 6.398438 L 11.746094 6.398438 L 11.746094 11.519531 L 6.660156 11.519531 L 6.660156 52.511719 L 11.746094 52.511719 L 11.746094 57.632812 L 52.453125 57.632812 Z M 19.378906 16.644531 L 24.46875 16.644531 L 24.46875 34.574219 L 19.378906 34.574219 Z M 39.730469 16.644531 L 44.820312 16.644531 L 44.820312 34.574219 L 39.730469 34.574219 Z M 39.730469 16.644531 "/></g></svg>
