<svg width="64" height="64" viewBox="0 0 64 64" version="1.1" xmlns:inkscape="http://www.inkscape.org/namespaces/inkscape"><defs><linearGradient id="linear0" gradientUnits="userSpaceOnUse" x1="0" y1="0" x2="0" y2="1" gradientTransform="matrix(68.720612,0,0,51.179446,-1.484426,6.969556)"><stop offset="0" style="stop-color:rgb(61.176473%,69.803923%,85.09804%);stop-opacity:1;"/><stop offset="1" style="stop-color:rgb(44.313726%,52.156866%,65.882355%);stop-opacity:1;"/></linearGradient><filter style="color-interpolation-filters:sRGB;" inkscape:label="Diffuse Light" id="filter184" x="-0.0375" y="-0.0375" width="1.075" height="1.075"><feGaussianBlur in="SourceGraphic" stdDeviation="1" result="blur" id="feGaussianBlur174" /><feDiffuseLighting diffuseConstant="1" surfaceScale="10" lighting-color="rgb(255,255,255)" result="diffuse" id="feDiffuseLighting178"><feDistantLight elevation="8" azimuth="235" id="feDistantLight176" /></feDiffuseLighting><feComposite in="diffuse" in2="diffuse" operator="arithmetic" k1="1" result="composite1" id="feComposite180" /><feComposite in="composite1" in2="SourceGraphic" k1="1" operator="arithmetic" k3="1" result="composite2" id="feComposite182" /></filter></defs><g id="surface1" style="filter:url(#filter184)"><path style=" stroke:none;fill-rule:nonzero;fill:url(#linear0);" d="M 8.925781 2.859375 L 8.925781 62.226562 L 18.082031 62.226562 L 18.082031 59.257812 L 11.21875 59.257812 L 11.21875 5.828125 L 18.082031 5.828125 L 18.082031 2.859375 Z M 45.539062 2.859375 L 45.539062 5.828125 L 52.40625 5.828125 L 52.40625 59.257812 L 45.539062 59.257812 L 45.539062 62.226562 L 54.695312 62.226562 L 54.695312 2.859375 Z M 2.0625 5.828125 L 2.0625 59.257812 L 6.640625 59.257812 L 6.640625 56.289062 L 4.355469 56.289062 L 4.355469 8.796875 L 6.640625 8.796875 L 6.640625 5.828125 Z M 56.984375 5.828125 L 56.984375 8.796875 L 59.269531 8.796875 L 59.269531 56.289062 L 56.984375 56.289062 L 56.984375 59.257812 L 61.5625 59.257812 L 61.5625 5.828125 Z M 29.523438 11.765625 L 18.652344 50.351562 L 15.796875 50.351562 L 15.796875 53.320312 L 24.949219 53.320312 L 24.949219 50.351562 L 22.660156 50.351562 L 25.773438 38.480469 L 36.6875 38.480469 L 39.796875 50.351562 L 36.367188 50.351562 L 36.367188 53.320312 L 47.808594 53.320312 L 47.808594 50.351562 L 45.519531 50.351562 L 35.21875 11.765625 Z M 31.242188 17.699219 L 35.910156 35.511719 L 26.546875 35.511719 Z M 31.242188 17.699219 "/></g></svg>
