<svg width="64" height="64" viewBox="0 0 64 64" version="1.1" xmlns:inkscape="http://www.inkscape.org/namespaces/inkscape"><defs><linearGradient id="linear0" gradientUnits="userSpaceOnUse" x1="0" y1="0" x2="0" y2="1" gradientTransform="matrix(105.281896,0,0,69.150781,-20.526442,0.545633)"><stop offset="0" style="stop-color:rgb(75.686276%,77.64706%,83.92157%);stop-opacity:1;"/><stop offset="1" style="stop-color:rgb(43.529412%,45.09804%,50.196081%);stop-opacity:1;"/></linearGradient><filter style="color-interpolation-filters:sRGB;" inkscape:label="Diffuse Light" id="filter184" x="-0.0375" y="-0.0375" width="1.075" height="1.075"><feGaussianBlur in="SourceGraphic" stdDeviation="1" result="blur" id="feGaussianBlur174" /><feDiffuseLighting diffuseConstant="1" surfaceScale="10" lighting-color="rgb(255,255,255)" result="diffuse" id="feDiffuseLighting178"><feDistantLight elevation="8" azimuth="235" id="feDistantLight176" /></feDiffuseLighting><feComposite in="diffuse" in2="diffuse" operator="arithmetic" k1="1" result="composite1" id="feComposite180" /><feComposite in="composite1" in2="SourceGraphic" k1="1" operator="arithmetic" k3="1" result="composite2" id="feComposite182" /></filter></defs><g id="surface1" style="filter:url(#filter184)"><path style=" stroke:none;fill-rule:nonzero;fill:url(#linear0);" d="M 32.113281 1.734375 C 23.96875 1.792969 19.578125 14.570312 19.578125 14.570312 L 2.035156 63.375 L 14.570312 58.238281 L 27.097656 17.144531 C 27.097656 17.144531 28.78125 12.132812 32.113281 12.003906 C 35.449219 12.132812 37.128906 17.144531 37.128906 17.144531 L 49.660156 58.238281 L 62.195312 63.375 L 44.652344 14.570312 C 44.652344 14.570312 40.257812 1.808594 32.113281 1.734375 Z M 32.113281 35.121094 C 27.957031 35.121094 24.59375 38.566406 24.59375 42.828125 C 24.59375 47.085938 27.957031 50.53125 32.113281 50.53125 C 36.269531 50.53125 39.632812 47.085938 39.632812 42.828125 C 39.632812 38.566406 36.269531 35.121094 32.113281 35.121094 Z M 32.113281 35.121094 "/></g></svg>
