<svg width="64" height="64" viewBox="0 0 64 64" version="1.1" xmlns:inkscape="http://www.inkscape.org/namespaces/inkscape"><defs><linearGradient id="linear0" gradientUnits="userSpaceOnUse" x1="0" y1="0" x2="0" y2="1" gradientTransform="matrix(53.093681,0,0,60.740444,5.55075,1.972635)"><stop offset="0" style="stop-color:rgb(0%,96.078432%,86.274511%);stop-opacity:1;"/><stop offset="1" style="stop-color:rgb(0%,54.901963%,49.411765%);stop-opacity:1;"/></linearGradient><filter style="color-interpolation-filters:sRGB;" inkscape:label="Diffuse Light" id="filter184" x="-0.0375" y="-0.0375" width="1.075" height="1.075"><feGaussianBlur in="SourceGraphic" stdDeviation="1" result="blur" id="feGaussianBlur174" /><feDiffuseLighting diffuseConstant="1" surfaceScale="10" lighting-color="rgb(255,255,255)" result="diffuse" id="feDiffuseLighting178"><feDistantLight elevation="8" azimuth="235" id="feDistantLight176" /></feDiffuseLighting><feComposite in="diffuse" in2="diffuse" operator="arithmetic" k1="1" result="composite1" id="feComposite180" /><feComposite in="composite1" in2="SourceGraphic" k1="1" operator="arithmetic" k3="1" result="composite2" id="feComposite182" /></filter></defs><g id="surface1" style="filter:url(#filter184)"><path style=" stroke:none;fill-rule:nonzero;fill:url(#linear0);" d="M 35.023438 1.984375 C 49.1875 2.519531 57.566406 12.105469 58.492188 26.085938 C 59.535156 41.84375 54.910156 45.945312 56.890625 49.109375 C 61.039062 55.722656 55.160156 57.457031 51.261719 60.6875 C 48.839844 62.699219 44.164062 61.777344 41.839844 58.917969 C 34.789062 54.832031 37.503906 62.679688 22.933594 62.714844 C 15.363281 62.402344 8.421875 56.933594 6.460938 49.554688 C 3.453125 38.246094 7.867188 29.898438 20.152344 25.960938 C 23.703125 24.820312 30.742188 25.507812 33.839844 23.238281 C 36.765625 21.09375 35.714844 18.011719 32.121094 17.609375 C 26.964844 17.035156 18.921875 19.375 14.164062 18.429688 C 10.347656 17.671875 9.183594 10.371094 11.675781 7.234375 C 15.753906 2.097656 26.214844 2.320312 32.121094 2.050781 C 33.117188 2 34.078125 1.949219 35.023438 1.984375 Z M 33.128906 35.765625 C 29.847656 35.765625 27.140625 38.214844 27.140625 41.269531 C 27.140625 44.320312 29.847656 46.835938 33.128906 46.835938 C 36.410156 46.835938 38.996094 44.320312 38.996094 41.269531 C 38.996094 38.214844 36.410156 35.765625 33.128906 35.765625 Z M 33.128906 35.765625 "/></g></svg>
