<svg width="64" height="64" viewBox="0 0 64 64" version="1.1" xmlns:inkscape="http://www.inkscape.org/namespaces/inkscape"><defs><linearGradient id="linear0" gradientUnits="userSpaceOnUse" x1="0" y1="0" x2="0" y2="1" gradientTransform="matrix(78.298544,0,0,80.774172,-7.134565,-8.437857)"><stop offset="0" style="stop-color:rgb(61.176473%,69.803923%,85.09804%);stop-opacity:1;"/><stop offset="1" style="stop-color:rgb(44.313726%,52.156866%,65.882355%);stop-opacity:1;"/></linearGradient><linearGradient id="linear1" gradientUnits="userSpaceOnUse" x1="0" y1="0" x2="0" y2="1" gradientTransform="matrix(78.298544,0,0,80.774172,-7.134565,-8.437857)"><stop offset="0" style="stop-color:rgb(61.176473%,69.803923%,85.09804%);stop-opacity:1;"/><stop offset="1" style="stop-color:rgb(44.313726%,52.156866%,65.882355%);stop-opacity:1;"/></linearGradient><linearGradient id="linear2" gradientUnits="userSpaceOnUse" x1="0" y1="0" x2="0" y2="1" gradientTransform="matrix(78.298544,0,0,80.774172,-7.134565,-8.437857)"><stop offset="0" style="stop-color:rgb(61.176473%,69.803923%,85.09804%);stop-opacity:1;"/><stop offset="1" style="stop-color:rgb(44.313726%,52.156866%,65.882355%);stop-opacity:1;"/></linearGradient><filter style="color-interpolation-filters:sRGB;" inkscape:label="Diffuse Light" id="filter184" x="-0.0375" y="-0.0375" width="1.075" height="1.075"><feGaussianBlur in="SourceGraphic" stdDeviation="1" result="blur" id="feGaussianBlur174" /><feDiffuseLighting diffuseConstant="1" surfaceScale="10" lighting-color="rgb(255,255,255)" result="diffuse" id="feDiffuseLighting178"><feDistantLight elevation="8" azimuth="235" id="feDistantLight176" /></feDiffuseLighting><feComposite in="diffuse" in2="diffuse" operator="arithmetic" k1="1" result="composite1" id="feComposite180" /><feComposite in="composite1" in2="SourceGraphic" k1="1" operator="arithmetic" k3="1" result="composite2" id="feComposite182" /></filter></defs><g id="surface1" style="filter:url(#filter184)"><path style=" stroke:none;fill-rule:evenodd;fill:url(#linear0);" d="M 10.558594 23.925781 L 2.898438 31.15625 L 4.058594 62.667969 L 62.5 60.988281 L 61.082031 22.476562 L 10.558594 23.925781 M 14.320312 38.429688 L 50.476562 37.386719 L 50.566406 39.574219 L 14.398438 40.613281 Z M 14.605469 46.238281 L 50.761719 45.203125 L 50.847656 47.386719 L 14.6875 48.429688 Z M 14.605469 46.238281 "/><path style=" stroke:none;fill-rule:evenodd;fill:url(#linear1);" d="M 1.851562 15.289062 L 2.195312 22.6875 L 2.527344 29.683594 L 10.109375 22.375 L 10.324219 22.167969 L 1.851562 15.289062 "/><path style=" stroke:none;fill-rule:evenodd;fill:url(#linear2);" d="M 1.675781 12.625 L 2.0625 14.066406 L 11.863281 19.605469 L 11.699219 19.839844 L 60.851562 10.421875 L 58.53125 1.714844 L 1.675781 12.625 M 13.730469 11.277344 L 20.023438 10.070312 L 24.074219 16.777344 L 17.773438 17.980469 L 13.730469 11.277344 M 29.054688 8.339844 L 35.347656 7.128906 L 39.390625 13.835938 L 33.101562 15.046875 Z M 43.78125 5.519531 L 50.078125 4.308594 L 54.121094 11.011719 L 47.832031 12.222656 L 43.78125 5.519531 "/></g></svg>
