<svg width="64" height="64" viewBox="0 0 64 64" version="1.1" xmlns:inkscape="http://www.inkscape.org/namespaces/inkscape"><defs><linearGradient id="linear0" gradientUnits="userSpaceOnUse" x1="0" y1="0" x2="0" y2="1" gradientTransform="matrix(80.9278,0,0,53.412152,-7.375661,7.278988)"><stop offset="0" style="stop-color:rgb(87.058824%,86.666667%,56.470591%);stop-opacity:1;"/><stop offset="1" style="stop-color:rgb(67.843139%,67.450982%,38.039216%);stop-opacity:1;"/></linearGradient><filter style="color-interpolation-filters:sRGB;" inkscape:label="Diffuse Light" id="filter184" x="-0.0375" y="-0.0375" width="1.075" height="1.075"><feGaussianBlur in="SourceGraphic" stdDeviation="1" result="blur" id="feGaussianBlur174" /><feDiffuseLighting diffuseConstant="1" surfaceScale="10" lighting-color="rgb(255,255,255)" result="diffuse" id="feDiffuseLighting178"><feDistantLight elevation="8" azimuth="235" id="feDistantLight176" /></feDiffuseLighting><feComposite in="diffuse" in2="diffuse" operator="arithmetic" k1="1" result="composite1" id="feComposite180" /><feComposite in="composite1" in2="SourceGraphic" k1="1" operator="arithmetic" k3="1" result="composite2" id="feComposite182" /></filter></defs><g id="surface1" style="filter:url(#filter184)"><path style=" stroke:none;fill-rule:nonzero;fill:url(#linear0);" d="M 32.121094 1.855469 L 62.449219 14.433594 L 62.449219 16.949219 L 1.804688 16.949219 L 1.804688 14.433594 Z M 9.382812 19.464844 L 16.964844 19.464844 L 16.964844 49.652344 L 9.382812 49.652344 Z M 22.019531 19.464844 L 29.597656 19.464844 L 29.597656 49.652344 L 22.019531 49.652344 Z M 34.652344 19.464844 L 42.234375 19.464844 L 42.234375 49.652344 L 34.652344 49.652344 Z M 47.285156 19.464844 L 54.867188 19.464844 L 54.867188 49.652344 L 47.285156 49.652344 Z M 1.804688 62.230469 L 1.804688 59.714844 L 6.855469 52.164062 L 57.394531 52.164062 L 62.449219 59.714844 L 62.449219 62.230469 Z M 1.804688 62.230469 "/></g></svg>
