<svg width="64" height="64" viewBox="0 0 64 64" version="1.1" xmlns:inkscape="http://www.inkscape.org/namespaces/inkscape"><defs><linearGradient id="linear0" gradientUnits="userSpaceOnUse" x1="0" y1="0" x2="0" y2="1" gradientTransform="matrix(71.253502,0,0,53.538185,-3.565545,5.354528)"><stop offset="0" style="stop-color:rgb(100%,73.333335%,0%);stop-opacity:1;"/><stop offset="1" style="stop-color:rgb(70.19608%,51.372552%,0%);stop-opacity:1;"/></linearGradient><filter style="color-interpolation-filters:sRGB;" inkscape:label="Diffuse Light" id="filter184" x="-0.0375" y="-0.0375" width="1.075" height="1.075"><feGaussianBlur in="SourceGraphic" stdDeviation="1" result="blur" id="feGaussianBlur174" /><feDiffuseLighting diffuseConstant="1" surfaceScale="10" lighting-color="rgb(255,255,255)" result="diffuse" id="feDiffuseLighting178"><feDistantLight elevation="8" azimuth="235" id="feDistantLight176" /></feDiffuseLighting><feComposite in="diffuse" in2="diffuse" operator="arithmetic" k1="1" result="composite1" id="feComposite180" /><feComposite in="composite1" in2="SourceGraphic" k1="1" operator="arithmetic" k3="1" result="composite2" id="feComposite182" /></filter></defs><g id="surface1" style="filter:url(#filter184)"><path style=" stroke:none;fill-rule:nonzero;fill:url(#linear0);" d="M 40.765625 10.882812 C 36.097656 10.882812 32.074219 15.019531 28.976562 20.175781 C 27.144531 18.734375 24.382812 17.175781 20.296875 16.832031 C 19.792969 16.753906 19.289062 16.707031 18.78125 16.707031 C 11.5 16.707031 5.59375 24.527344 5.59375 34.175781 C 5.59375 35.1875 5.664062 36.203125 5.796875 37.203125 C 3.542969 37.691406 1.761719 39.976562 1.316406 42.925781 C 16.582031 45.820312 29.773438 45.820312 44.789062 48.441406 C 48.488281 47.089844 49.554688 45.820312 49.554688 45.820312 C 53.949219 51.640625 56.152344 54.550781 60.546875 54.550781 C 62.742188 54.550781 62.742188 51.640625 62.742188 51.640625 C 62.742188 51.640625 61.007812 49.558594 60.457031 47.375 C 59.910156 45.191406 60.546875 42.90625 58.347656 39.996094 C 60.546875 37.085938 60.222656 34.59375 60.773438 32.410156 C 61.324219 30.230469 62.742188 28.355469 62.742188 28.355469 C 62.742188 28.355469 62.742188 25.441406 60.546875 25.441406 C 56.152344 25.441406 53.949219 31.261719 49.554688 37.085938 C 49.554688 37.085938 46.777344 31.714844 39.242188 26.589844 C 39.480469 18.195312 42.320312 10.882812 40.765625 10.882812 Z M 40.765625 10.882812 "/><path style=" stroke:none;fill-rule:nonzero;fill:rgb(40.000001%,40.000001%,40.000001%);fill-opacity:1;" d="M 17.472656 27.933594 C 17.472656 29.03125 16.714844 29.921875 15.777344 29.921875 C 14.839844 29.921875 14.078125 29.03125 14.078125 27.933594 C 14.078125 26.832031 14.839844 25.941406 15.777344 25.941406 C 16.714844 25.941406 17.472656 26.832031 17.472656 27.933594 Z M 17.472656 27.933594 "/></g></svg>
