<svg width="64" height="64" viewBox="0 0 64 64" version="1.1" xmlns:inkscape="http://www.inkscape.org/namespaces/inkscape"><defs><linearGradient id="linear0" gradientUnits="userSpaceOnUse" x1="0" y1="0" x2="0" y2="1" gradientTransform="matrix(86.552882,0,0,86.404541,-11.508348,-11.618579)"><stop offset="0" style="stop-color:rgb(0%,96.078432%,86.274511%);stop-opacity:1;"/><stop offset="1" style="stop-color:rgb(0%,54.901963%,49.411765%);stop-opacity:1;"/></linearGradient><linearGradient id="linear1" gradientUnits="userSpaceOnUse" x1="0" y1="0" x2="0" y2="1" gradientTransform="matrix(86.552882,0,0,86.404541,-11.508348,-11.618579)"><stop offset="0" style="stop-color:rgb(0%,96.078432%,86.274511%);stop-opacity:1;"/><stop offset="1" style="stop-color:rgb(0%,54.901963%,49.411765%);stop-opacity:1;"/></linearGradient><linearGradient id="linear2" gradientUnits="userSpaceOnUse" x1="0" y1="0" x2="0" y2="1" gradientTransform="matrix(86.552882,0,0,86.404541,-11.508348,-11.618579)"><stop offset="0" style="stop-color:rgb(0%,96.078432%,86.274511%);stop-opacity:1;"/><stop offset="1" style="stop-color:rgb(0%,54.901963%,49.411765%);stop-opacity:1;"/></linearGradient><linearGradient id="linear3" gradientUnits="userSpaceOnUse" x1="0" y1="0" x2="0" y2="1" gradientTransform="matrix(86.552882,0,0,86.404541,-11.508348,-11.618579)"><stop offset="0" style="stop-color:rgb(0%,96.078432%,86.274511%);stop-opacity:1;"/><stop offset="1" style="stop-color:rgb(0%,54.901963%,49.411765%);stop-opacity:1;"/></linearGradient><linearGradient id="linear4" gradientUnits="userSpaceOnUse" x1="0" y1="0" x2="0" y2="1" gradientTransform="matrix(86.552882,0,0,86.404541,-11.508348,-11.618579)"><stop offset="0" style="stop-color:rgb(0%,96.078432%,86.274511%);stop-opacity:1;"/><stop offset="1" style="stop-color:rgb(0%,54.901963%,49.411765%);stop-opacity:1;"/></linearGradient><filter style="color-interpolation-filters:sRGB;" inkscape:label="Diffuse Light" id="filter184" x="-0.0375" y="-0.0375" width="1.075" height="1.075"><feGaussianBlur in="SourceGraphic" stdDeviation="1" result="blur" id="feGaussianBlur174" /><feDiffuseLighting diffuseConstant="1" surfaceScale="10" lighting-color="rgb(255,255,255)" result="diffuse" id="feDiffuseLighting178"><feDistantLight elevation="8" azimuth="235" id="feDistantLight176" /></feDiffuseLighting><feComposite in="diffuse" in2="diffuse" operator="arithmetic" k1="1" result="composite1" id="feComposite180" /><feComposite in="composite1" in2="SourceGraphic" k1="1" operator="arithmetic" k3="1" result="composite2" id="feComposite182" /></filter></defs><g id="surface1" style="filter:url(#filter184)"><path style=" stroke:none;fill-rule:nonzero;fill:url(#linear0);" d="M 5.785156 13.363281 L 5.785156 25.054688 L 11.304688 27.394531 L 19.585938 25.054688 L 19.585938 13.363281 L 11.304688 11.019531 Z M 41.660156 13.363281 L 41.660156 25.054688 L 47.179688 27.394531 L 52.695312 25.054688 L 58.214844 25.054688 L 58.214844 13.363281 L 52.699219 13.363281 L 47.179688 11.019531 Z M 41.660156 13.363281 "/><path style=" stroke:none;fill-rule:nonzero;fill:url(#linear1);" d="M 5.785156 1.664062 L 52.695312 1.664062 L 52.695312 13.363281 L 5.785156 13.363281 Z M 5.785156 1.664062 "/><path style=" stroke:none;fill-rule:nonzero;fill:url(#linear2);" d="M 5.785156 39.089844 L 5.785156 50.78125 L 11.304688 53.121094 L 19.585938 50.78125 L 19.585938 39.089844 L 11.304688 36.75 Z M 41.660156 39.089844 L 41.660156 50.78125 L 47.179688 53.121094 L 52.695312 50.78125 L 58.214844 50.78125 L 58.214844 39.089844 L 52.699219 39.089844 L 47.179688 36.75 Z M 41.660156 39.089844 "/><path style=" stroke:none;fill-rule:nonzero;fill:url(#linear3);" d="M 5.785156 25.054688 L 52.695312 25.054688 L 52.695312 39.089844 L 5.785156 39.089844 Z M 5.785156 25.054688 "/><path style=" stroke:none;fill-rule:nonzero;fill:url(#linear4);" d="M 5.785156 50.785156 L 52.695312 50.785156 L 52.695312 62.476562 L 5.785156 62.476562 Z M 5.785156 50.785156 "/></g></svg>
