<svg width="64" height="64" viewBox="0 0 64 64" version="1.1" xmlns:inkscape="http://www.inkscape.org/namespaces/inkscape"><defs><linearGradient id="linear0" gradientUnits="userSpaceOnUse" x1="0" y1="0" x2="0" y2="1" gradientTransform="matrix(101.745513,0,0,48.352701,-23.22229,5.670839)"><stop offset="0" style="stop-color:rgb(61.176473%,69.803923%,85.09804%);stop-opacity:1;"/><stop offset="1" style="stop-color:rgb(44.313726%,52.156866%,65.882355%);stop-opacity:1;"/></linearGradient><filter style="color-interpolation-filters:sRGB;" inkscape:label="Diffuse Light" id="filter184" x="-0.0375" y="-0.0375" width="1.075" height="1.075"><feGaussianBlur in="SourceGraphic" stdDeviation="1" result="blur" id="feGaussianBlur174" /><feDiffuseLighting diffuseConstant="1" surfaceScale="10" lighting-color="rgb(255,255,255)" result="diffuse" id="feDiffuseLighting178"><feDistantLight elevation="8" azimuth="235" id="feDistantLight176" /></feDiffuseLighting><feComposite in="diffuse" in2="diffuse" operator="arithmetic" k1="1" result="composite1" id="feComposite180" /><feComposite in="composite1" in2="SourceGraphic" k1="1" operator="arithmetic" k3="1" result="composite2" id="feComposite182" /></filter></defs><g id="surface1" style="filter:url(#filter184)"><path style=" stroke:none;fill-rule:nonzero;fill:url(#linear0);" d="M 1.730469 1.652344 L 1.730469 27.925781 C 1.730469 28.691406 2.703125 29.308594 3.910156 29.308594 L 25.726562 29.308594 C 26.933594 29.308594 27.90625 28.691406 27.90625 27.925781 L 27.90625 3.03125 C 27.90625 2.265625 26.933594 1.652344 25.726562 1.652344 Z M 36.628906 1.652344 L 36.628906 5.796875 C 36.628906 6.566406 37.601562 7.179688 38.8125 7.179688 L 45.359375 7.179688 L 45.359375 23.777344 L 36.628906 25.160156 L 36.628906 27.925781 C 36.628906 28.691406 37.601562 29.308594 38.8125 29.308594 L 60.625 29.308594 C 61.832031 29.308594 62.804688 28.691406 62.804688 27.925781 L 62.804688 25.160156 C 62.804688 24.390625 61.832031 23.777344 60.625 23.777344 L 54.082031 23.777344 L 54.082031 3.03125 C 54.082031 2.265625 53.109375 1.652344 51.902344 1.652344 Z M 10.453125 7.179688 L 19.183594 7.179688 L 19.183594 23.777344 L 10.453125 23.777344 Z M 1.730469 34.839844 L 1.730469 38.992188 C 1.730469 39.753906 2.703125 40.371094 3.910156 40.371094 L 10.453125 40.371094 L 10.453125 56.96875 L 1.730469 58.355469 L 1.730469 61.117188 C 1.730469 61.882812 2.703125 62.5 3.910156 62.5 L 25.726562 62.5 C 26.933594 62.5 27.90625 61.882812 27.90625 61.117188 L 27.90625 58.355469 C 27.90625 57.585938 26.933594 56.96875 25.726562 56.96875 L 19.183594 56.96875 L 19.183594 36.222656 C 19.183594 35.457031 18.210938 34.839844 16.996094 34.839844 Z M 36.628906 34.839844 L 36.628906 61.117188 C 36.628906 61.882812 37.601562 62.5 38.8125 62.5 L 60.625 62.5 C 61.832031 62.5 62.804688 61.882812 62.804688 61.117188 L 62.804688 36.222656 C 62.804688 35.457031 61.832031 34.839844 60.625 34.839844 Z M 45.359375 40.371094 L 54.082031 40.371094 L 54.082031 56.96875 L 45.359375 56.96875 Z M 45.359375 40.371094 "/></g></svg>
