<svg width="64" height="64" viewBox="0 0 64 64" version="1.1" xmlns:inkscape="http://www.inkscape.org/namespaces/inkscape"><defs><linearGradient id="linear0" gradientUnits="userSpaceOnUse" x1="0" y1="0" x2="0" y2="1" gradientTransform="matrix(72.909192,0,0,53.108176,-6.477634,3.881188)"><stop offset="0" style="stop-color:rgb(81.960785%,70.980394%,59.215689%);stop-opacity:1;"/><stop offset="1" style="stop-color:rgb(65.098041%,53.725493%,41.568628%);stop-opacity:1;"/></linearGradient><filter style="color-interpolation-filters:sRGB;" inkscape:label="Diffuse Light" id="filter184" x="-0.0375" y="-0.0375" width="1.075" height="1.075"><feGaussianBlur in="SourceGraphic" stdDeviation="1" result="blur" id="feGaussianBlur174" /><feDiffuseLighting diffuseConstant="1" surfaceScale="10" lighting-color="rgb(255,255,255)" result="diffuse" id="feDiffuseLighting178"><feDistantLight elevation="8" azimuth="235" id="feDistantLight176" /></feDiffuseLighting><feComposite in="diffuse" in2="diffuse" operator="arithmetic" k1="1" result="composite1" id="feComposite180" /><feComposite in="composite1" in2="SourceGraphic" k1="1" operator="arithmetic" k3="1" result="composite2" id="feComposite182" /></filter></defs><g id="surface1" style="filter:url(#filter184)"><path style=" stroke:none;fill-rule:nonzero;fill:url(#linear0);" d="M 10.230469 8.492188 C 5.859375 8.492188 1.492188 13.417969 1.492188 27.1875 C 1.492188 42.765625 8.789062 58.347656 16.785156 58.347656 C 21.675781 58.347656 26.046875 45.882812 32.074219 45.882812 C 38.105469 45.882812 42.472656 58.347656 47.363281 58.347656 C 55.359375 58.347656 62.65625 42.765625 62.65625 27.1875 C 62.65625 13.417969 58.289062 8.492188 53.914062 8.492188 C 45.179688 8.492188 38.628906 20.957031 32.074219 20.957031 C 25.523438 20.957031 18.964844 8.492188 10.230469 8.492188 Z M 13.503906 27.1875 C 18.964844 27.1875 25.523438 33.417969 25.523438 33.417969 C 25.523438 33.417969 20.296875 39.652344 16.785156 39.652344 C 12.414062 39.652344 8.042969 30.300781 8.042969 30.300781 C 8.042969 30.300781 11.105469 27.1875 13.503906 27.1875 Z M 50.640625 27.1875 C 53.046875 27.1875 56.101562 30.300781 56.101562 30.300781 C 56.101562 30.300781 51.734375 39.652344 47.363281 39.652344 C 43.847656 39.652344 38.628906 33.417969 38.628906 33.417969 C 38.628906 33.417969 45.179688 27.1875 50.640625 27.1875 Z M 50.640625 27.1875 "/></g></svg>
