<svg width="64" height="64" viewBox="0 0 64 64" version="1.1" xmlns:inkscape="http://www.inkscape.org/namespaces/inkscape"><defs><linearGradient id="linear0" gradientUnits="userSpaceOnUse" x1="0" y1="0" x2="0" y2="1" gradientTransform="matrix(59.987635,0,0,60.58065,2.204615,1.867858)"><stop offset="0" style="stop-color:rgb(87.058824%,86.666667%,56.470591%);stop-opacity:1;"/><stop offset="1" style="stop-color:rgb(67.843139%,67.450982%,38.039216%);stop-opacity:1;"/></linearGradient><filter style="color-interpolation-filters:sRGB;" inkscape:label="Diffuse Light" id="filter184" x="-0.0375" y="-0.0375" width="1.075" height="1.075"><feGaussianBlur in="SourceGraphic" stdDeviation="1" result="blur" id="feGaussianBlur174" /><feDiffuseLighting diffuseConstant="1" surfaceScale="10" lighting-color="rgb(255,255,255)" result="diffuse" id="feDiffuseLighting178"><feDistantLight elevation="8" azimuth="235" id="feDistantLight176" /></feDiffuseLighting><feComposite in="diffuse" in2="diffuse" operator="arithmetic" k1="1" result="composite1" id="feComposite180" /><feComposite in="composite1" in2="SourceGraphic" k1="1" operator="arithmetic" k3="1" result="composite2" id="feComposite182" /></filter></defs><g id="surface1" style="filter:url(#filter184)"><path style=" stroke:none;fill-rule:nonzero;fill:url(#linear0);" d="M 32.199219 1.867188 C 17.566406 1.871094 5.074219 12.542969 2.632812 27.109375 L 7.710938 27.109375 C 10.089844 15.363281 20.320312 6.917969 32.199219 6.917969 C 42.117188 6.9375 51.085938 12.882812 55.054688 22.0625 L 37.199219 22.0625 L 37.199219 27.109375 L 62.191406 27.109375 L 62.191406 1.867188 L 57.191406 1.867188 L 57.191406 15.496094 C 51.652344 7.003906 42.265625 1.886719 32.199219 1.867188 M 2.203125 37.207031 L 2.203125 62.449219 L 7.203125 62.449219 L 7.203125 48.820312 C 12.746094 57.3125 22.132812 62.429688 32.199219 62.449219 C 46.828125 62.445312 59.320312 51.773438 61.761719 37.207031 L 56.6875 37.207031 C 54.308594 48.953125 44.074219 57.398438 32.199219 57.398438 C 22.277344 57.378906 13.3125 51.433594 9.34375 42.253906 L 27.199219 42.253906 L 27.199219 37.207031 Z M 2.203125 37.207031 "/></g></svg>
