<svg width="64" height="64" viewBox="0 0 64 64" version="1.1" xmlns:inkscape="http://www.inkscape.org/namespaces/inkscape"><defs><linearGradient id="linear0" gradientUnits="userSpaceOnUse" x1="0" y1="0" x2="0" y2="1" gradientTransform="matrix(54.398438,0,0,64,4.800781,0)"><stop offset="0" style="stop-color:rgb(41.960785%,64.313728%,100%);stop-opacity:1;"/><stop offset="1" style="stop-color:rgb(0%,43.137255%,100%);stop-opacity:1;"/></linearGradient><filter style="color-interpolation-filters:sRGB;" inkscape:label="Diffuse Light" id="filter184" x="-0.0375" y="-0.0375" width="1.075" height="1.075"><feGaussianBlur in="SourceGraphic" stdDeviation="1" result="blur" id="feGaussianBlur174" /><feDiffuseLighting diffuseConstant="1" surfaceScale="10" lighting-color="rgb(255,255,255)" result="diffuse" id="feDiffuseLighting178"><feDistantLight elevation="8" azimuth="235" id="feDistantLight176" /></feDiffuseLighting><feComposite in="diffuse" in2="diffuse" operator="arithmetic" k1="1" result="composite1" id="feComposite180" /><feComposite in="composite1" in2="SourceGraphic" k1="1" operator="arithmetic" k3="1" result="composite2" id="feComposite182" /></filter></defs><g id="surface1" style="filter:url(#filter184)"><path style=" stroke:none;fill-rule:nonzero;fill:url(#linear0);" d="M 32 0 C 7.363281 0 6.734375 0.015625 6.09375 0.398438 C 4.730469 1.214844 4.800781 0.203125 4.800781 19.257812 C 4.800781 38.589844 4.777344 38.199219 6.265625 41.949219 C 7.972656 46.265625 10.726562 49.90625 15.253906 53.867188 C 19.042969 57.191406 23.542969 60.199219 28.5625 62.757812 C 30.261719 63.621094 31.136719 64.011719 32 64 C 32.863281 64.011719 33.738281 63.621094 35.4375 62.757812 C 40.457031 60.199219 44.957031 57.191406 48.746094 53.867188 C 53.273438 49.90625 56.027344 46.265625 57.734375 41.949219 C 59.222656 38.199219 59.199219 38.589844 59.199219 19.257812 C 59.199219 0.203125 59.269531 1.214844 57.90625 0.398438 C 57.265625 0.015625 56.636719 0 32 0 Z M 32 9.601562 C 41.898438 9.601562 45.910156 9.617188 49.53125 9.644531 C 49.558594 12.203125 49.601562 13.382812 49.601562 19.257812 C 49.601562 28.929688 49.574219 33.753906 49.445312 35.832031 C 49.308594 37.90625 49.59375 36.449219 48.8125 38.410156 C 47.71875 41.167969 46.203125 43.339844 42.425781 46.648438 C 39.554688 49.160156 35.941406 51.488281 32 53.589844 Z M 32 9.601562 "/></g></svg>
