<svg width="64" height="64" viewBox="0 0 64 64" version="1.1" xmlns:inkscape="http://www.inkscape.org/namespaces/inkscape"><defs><linearGradient id="linear0" gradientUnits="userSpaceOnUse" x1="0" y1="0" x2="0" y2="1" gradientTransform="matrix(80.867752,0,0,53.473309,-8.453802,6.074461)"><stop offset="0" style="stop-color:rgb(100%,73.333335%,0%);stop-opacity:1;"/><stop offset="1" style="stop-color:rgb(70.19608%,51.372552%,0%);stop-opacity:1;"/></linearGradient><filter style="color-interpolation-filters:sRGB;" inkscape:label="Diffuse Light" id="filter184" x="-0.0375" y="-0.0375" width="1.075" height="1.075"><feGaussianBlur in="SourceGraphic" stdDeviation="1" result="blur" id="feGaussianBlur174" /><feDiffuseLighting diffuseConstant="1" surfaceScale="10" lighting-color="rgb(255,255,255)" result="diffuse" id="feDiffuseLighting178"><feDistantLight elevation="8" azimuth="235" id="feDistantLight176" /></feDiffuseLighting><feComposite in="diffuse" in2="diffuse" operator="arithmetic" k1="1" result="composite1" id="feComposite180" /><feComposite in="composite1" in2="SourceGraphic" k1="1" operator="arithmetic" k3="1" result="composite2" id="feComposite182" /></filter></defs><g id="surface1" style="filter:url(#filter184)"><path style=" stroke:none;fill-rule:nonzero;fill:url(#linear0);" d="M 6.292969 2.117188 L 1.554688 19.519531 C 1.554688 31.125 6.292969 39.824219 13.386719 45.625 L 13.386719 48.527344 C 15.757812 48.527344 22.859375 54.328125 27.117188 60.128906 C 27.992188 61.324219 29.605469 63.027344 32.324219 63.027344 C 35.046875 63.027344 36.609375 61.265625 37.53125 60.128906 C 41.796875 54.328125 48.890625 48.527344 51.261719 48.527344 L 51.261719 45.625 C 58.363281 39.824219 63.09375 31.125 63.09375 19.519531 C 63.09375 10.816406 59.542969 3.566406 59.542969 3.566406 L 58.363281 2.117188 C 51.261719 7.917969 45.863281 16.820312 39.425781 28.21875 C 39.425781 28.21875 24.230469 28.855469 25.222656 28.21875 C 18.785156 16.820312 13.386719 7.917969 6.292969 2.117188 Z M 6.292969 2.117188 "/><path style=" stroke:none;fill-rule:nonzero;fill:rgb(97.254902%,97.254902%,97.254902%);fill-opacity:1;" d="M 24.28125 44.726562 C 24.28125 47.707031 25.238281 48.703125 28.128906 48.703125 C 28.128906 45.722656 27.167969 44.726562 24.28125 44.726562 Z M 39.679688 44.726562 C 36.792969 44.722656 35.832031 45.816406 35.832031 48.695312 C 38.722656 48.695312 39.679688 47.699219 39.679688 44.726562 Z M 39.679688 44.726562 "/></g></svg>
