<svg width="64" height="64" viewBox="0 0 64 64" version="1.1" xmlns:inkscape="http://www.inkscape.org/namespaces/inkscape"><defs><linearGradient id="linear0" gradientUnits="userSpaceOnUse" x1="0" y1="0" x2="0" y2="1" gradientTransform="matrix(83.098604,0,0,51.025267,-10.921231,6.752723)"><stop offset="0" style="stop-color:rgb(100%,63.137257%,63.137257%);stop-opacity:1;"/><stop offset="1" style="stop-color:rgb(100%,27.843139%,27.843139%);stop-opacity:1;"/></linearGradient><filter style="color-interpolation-filters:sRGB;" inkscape:label="Diffuse Light" id="filter184" x="-0.0375" y="-0.0375" width="1.075" height="1.075"><feGaussianBlur in="SourceGraphic" stdDeviation="1" result="blur" id="feGaussianBlur174" /><feDiffuseLighting diffuseConstant="1" surfaceScale="10" lighting-color="rgb(255,255,255)" result="diffuse" id="feDiffuseLighting178"><feDistantLight elevation="8" azimuth="235" id="feDistantLight176" /></feDiffuseLighting><feComposite in="diffuse" in2="diffuse" operator="arithmetic" k1="1" result="composite1" id="feComposite180" /><feComposite in="composite1" in2="SourceGraphic" k1="1" operator="arithmetic" k3="1" result="composite2" id="feComposite182" /></filter></defs><g id="surface1" style="filter:url(#filter184)"><path style=" stroke:none;fill-rule:nonzero;fill:url(#linear0);" d="M 2.101562 1.679688 L 2.101562 13.875 L 9.3125 13.875 C 31.878906 13.875 50.175781 32.441406 50.175781 55.347656 L 50.175781 62.664062 L 62.191406 62.664062 L 62.191406 55.347656 C 62.191406 25.703125 38.515625 1.679688 9.3125 1.679688 Z M 2.101562 26.074219 L 2.101562 38.265625 L 8.113281 38.265625 C 18.0625 38.265625 26.140625 46.46875 26.140625 56.566406 L 26.140625 62.664062 L 38.15625 62.664062 L 38.15625 56.566406 C 38.15625 39.734375 24.699219 26.074219 8.113281 26.074219 L 2.101562 26.074219 M 9.3125 48.027344 C 5.332031 48.027344 2.101562 51.304688 2.101562 55.347656 C 2.101562 59.386719 5.332031 62.664062 9.3125 62.664062 C 13.296875 62.664062 16.523438 59.386719 16.523438 55.347656 C 16.523438 51.304688 13.296875 48.027344 9.3125 48.027344 Z M 9.3125 48.027344 "/></g></svg>
