<svg width="64" height="64" viewBox="0 0 64 64" version="1.1" xmlns:inkscape="http://www.inkscape.org/namespaces/inkscape"><defs><linearGradient id="linear0" gradientUnits="userSpaceOnUse" x1="0" y1="0" x2="0" y2="1" gradientTransform="matrix(86.662931,0,0,83.338285,-10.582782,-6.816885)"><stop offset="0" style="stop-color:rgb(0%,96.078432%,86.274511%);stop-opacity:1;"/><stop offset="1" style="stop-color:rgb(0%,54.901963%,49.411765%);stop-opacity:1;"/></linearGradient><linearGradient id="linear1" gradientUnits="userSpaceOnUse" x1="0" y1="0" x2="0" y2="1" gradientTransform="matrix(86.662931,0,0,83.338285,-10.582782,-6.816885)"><stop offset="0" style="stop-color:rgb(0%,96.078432%,86.274511%);stop-opacity:1;"/><stop offset="1" style="stop-color:rgb(0%,54.901963%,49.411765%);stop-opacity:1;"/></linearGradient><linearGradient id="linear2" gradientUnits="userSpaceOnUse" x1="0" y1="0" x2="0" y2="1" gradientTransform="matrix(86.662931,0,0,83.338285,-10.582782,-6.816885)"><stop offset="0" style="stop-color:rgb(0%,96.078432%,86.274511%);stop-opacity:1;"/><stop offset="1" style="stop-color:rgb(0%,54.901963%,49.411765%);stop-opacity:1;"/></linearGradient><filter style="color-interpolation-filters:sRGB;" inkscape:label="Diffuse Light" id="filter184" x="-0.0375" y="-0.0375" width="1.075" height="1.075"><feGaussianBlur in="SourceGraphic" stdDeviation="1" result="blur" id="feGaussianBlur174" /><feDiffuseLighting diffuseConstant="1" surfaceScale="10" lighting-color="rgb(255,255,255)" result="diffuse" id="feDiffuseLighting178"><feDistantLight elevation="8" azimuth="235" id="feDistantLight176" /></feDiffuseLighting><feComposite in="diffuse" in2="diffuse" operator="arithmetic" k1="1" result="composite1" id="feComposite180" /><feComposite in="composite1" in2="SourceGraphic" k1="1" operator="arithmetic" k3="1" result="composite2" id="feComposite182" /></filter></defs><g id="surface1" style="filter:url(#filter184)"><path style=" stroke:none;fill-rule:nonzero;fill:url(#linear0);" d="M 24.652344 2.609375 L 11.960938 14.910156 L 17.039062 59.179688 L 17.039062 61.632812 L 22.117188 61.632812 L 22.117188 54.261719 L 27.191406 54.261719 L 27.191406 61.632812 L 32.277344 61.632812 L 32.277344 54.261719 L 39.894531 51.796875 L 47.511719 54.261719 L 47.511719 61.632812 L 52.59375 61.632812 L 52.59375 54.261719 L 57.671875 54.261719 L 57.671875 61.632812 L 62.75 61.632812 L 62.75 46.878906 L 57.671875 39.5 L 62.75 32.125 L 62.75 17.363281 L 52.59375 9.992188 C 52.59375 5.902344 44.113281 2.609375 39.894531 2.609375 Z M 24.652344 2.609375 "/><path style=" stroke:none;fill-rule:nonzero;fill:url(#linear1);" d="M 9.414062 2.609375 L 9.414062 17.363281 L 32.277344 17.363281 L 32.277344 9.992188 C 32.277344 5.902344 28.875 2.609375 24.652344 2.609375 Z M 32.277344 17.363281 L 32.277344 32.125 L 47.511719 32.125 L 47.511719 17.363281 Z M 47.511719 17.363281 L 62.75 17.363281 L 62.75 9.992188 C 62.75 5.902344 59.347656 2.609375 55.132812 2.609375 L 39.894531 2.609375 C 44.113281 2.609375 47.511719 5.902344 47.511719 9.992188 Z M 47.511719 32.125 L 47.511719 46.878906 L 62.75 46.878906 L 62.75 32.125 Z M 47.511719 46.878906 L 32.277344 46.878906 L 32.277344 54.261719 L 37.355469 54.261719 L 37.355469 61.632812 L 42.433594 61.632812 L 42.433594 54.261719 L 47.511719 54.261719 Z M 32.277344 46.878906 L 32.277344 32.125 L 9.414062 32.125 L 9.414062 46.878906 Z M 32.277344 46.878906 "/><path style=" stroke:none;fill-rule:nonzero;fill:url(#linear2);" d="M 9.414062 2.609375 C 5.199219 2.609375 1.796875 5.902344 1.796875 9.992188 L 1.796875 56.714844 L 6.875 56.714844 L 6.875 49.335938 L 11.960938 49.335938 L 11.960938 56.714844 L 17.039062 56.714844 L 17.039062 9.992188 C 17.039062 5.902344 13.632812 2.609375 9.414062 2.609375 Z M 9.414062 2.609375 "/></g></svg>
