<svg width="64" height="64" viewBox="0 0 64 64" version="1.1" xmlns:inkscape="http://www.inkscape.org/namespaces/inkscape"><defs><linearGradient id="linear0" gradientUnits="userSpaceOnUse" x1="0" y1="0" x2="0" y2="1" gradientTransform="matrix(57.094943,0,0,58.651256,2.849924,2.715585)"><stop offset="0" style="stop-color:rgb(87.058824%,86.666667%,56.470591%);stop-opacity:1;"/><stop offset="1" style="stop-color:rgb(67.843139%,67.450982%,38.039216%);stop-opacity:1;"/></linearGradient><filter style="color-interpolation-filters:sRGB;" inkscape:label="Diffuse Light" id="filter184" x="-0.0375" y="-0.0375" width="1.075" height="1.075"><feGaussianBlur in="SourceGraphic" stdDeviation="1" result="blur" id="feGaussianBlur174" /><feDiffuseLighting diffuseConstant="1" surfaceScale="10" lighting-color="rgb(255,255,255)" result="diffuse" id="feDiffuseLighting178"><feDistantLight elevation="8" azimuth="235" id="feDistantLight176" /></feDiffuseLighting><feComposite in="diffuse" in2="diffuse" operator="arithmetic" k1="1" result="composite1" id="feComposite180" /><feComposite in="composite1" in2="SourceGraphic" k1="1" operator="arithmetic" k3="1" result="composite2" id="feComposite182" /></filter></defs><g id="surface1" style="filter:url(#filter184)"><path style=" stroke:none;fill-rule:nonzero;fill:url(#linear0);" d="M 62.570312 23.125 C 63.316406 25.167969 48.53125 36.902344 47.964844 39.003906 C 47.390625 41.105469 54.140625 58.953125 52.476562 60.3125 C 50.808594 61.664062 35.320312 50.917969 33.191406 51.011719 C 31.066406 51.105469 16.546875 63.1875 14.777344 61.984375 C 13 60.785156 18.210938 42.398438 17.464844 40.355469 C 16.714844 38.316406 1 27.933594 1.566406 25.832031 C 2.140625 23.726562 20.847656 23.117188 22.515625 21.765625 C 24.179688 20.40625 28.976562 1.910156 31.105469 1.8125 C 33.238281 1.71875 39.585938 19.726562 41.363281 20.925781 C 43.140625 22.128906 61.820312 21.082031 62.570312 23.125 "/></g></svg>
