<svg width="64" height="64" viewBox="0 0 64 64" version="1.1" xmlns:inkscape="http://www.inkscape.org/namespaces/inkscape"><defs><linearGradient id="linear0" gradientUnits="userSpaceOnUse" x1="0" y1="0" x2="0" y2="1" gradientTransform="matrix(71.395399,0,0,46.33614,-4.513607,7.423081)"><stop offset="0" style="stop-color:rgb(75.686276%,77.64706%,83.92157%);stop-opacity:1;"/><stop offset="1" style="stop-color:rgb(43.529412%,45.09804%,50.196081%);stop-opacity:1;"/></linearGradient><filter style="color-interpolation-filters:sRGB;" inkscape:label="Diffuse Light" id="filter184" x="-0.0375" y="-0.0375" width="1.075" height="1.075"><feGaussianBlur in="SourceGraphic" stdDeviation="1" result="blur" id="feGaussianBlur174" /><feDiffuseLighting diffuseConstant="1" surfaceScale="10" lighting-color="rgb(255,255,255)" result="diffuse" id="feDiffuseLighting178"><feDistantLight elevation="8" azimuth="235" id="feDistantLight176" /></feDiffuseLighting><feComposite in="diffuse" in2="diffuse" operator="arithmetic" k1="1" result="composite1" id="feComposite180" /><feComposite in="composite1" in2="SourceGraphic" k1="1" operator="arithmetic" k3="1" result="composite2" id="feComposite182" /></filter></defs><g id="surface1" style="filter:url(#filter184)"><path style=" stroke:none;fill-rule:nonzero;fill:url(#linear0);" d="M 21.34375 1.578125 L 21.34375 8.097656 L 8.300781 8.097656 L 8.300781 21.140625 L 1.78125 21.140625 L 1.78125 27.667969 L 8.300781 27.667969 L 8.300781 36.359375 L 1.78125 36.359375 L 1.78125 42.882812 L 8.300781 42.882812 L 8.300781 51.574219 C 8.300781 53.75 10.476562 55.925781 12.648438 55.925781 L 21.34375 55.925781 L 21.34375 62.445312 L 27.863281 62.445312 L 27.863281 55.925781 L 36.550781 55.925781 L 36.550781 62.445312 L 43.070312 62.445312 L 43.070312 55.925781 L 51.765625 55.925781 C 53.9375 55.925781 56.113281 53.75 56.113281 51.574219 L 56.113281 42.882812 L 62.632812 42.882812 L 62.632812 36.359375 L 56.113281 36.359375 L 56.113281 27.667969 L 62.632812 27.667969 L 62.632812 21.140625 L 56.113281 21.140625 L 56.113281 12.449219 C 56.113281 10.273438 53.9375 8.097656 51.765625 8.097656 L 43.070312 8.097656 L 43.070312 1.578125 L 36.550781 1.578125 L 36.550781 8.097656 L 27.863281 8.097656 L 27.863281 1.578125 Z M 14.820312 14.625 L 49.59375 14.625 L 49.59375 49.402344 L 14.820312 49.402344 Z M 21.34375 21.140625 L 21.34375 42.882812 L 43.070312 42.882812 L 43.070312 21.140625 Z M 27.863281 27.667969 L 36.550781 27.667969 L 36.550781 36.359375 L 27.863281 36.359375 Z M 27.863281 27.667969 "/></g></svg>
