<svg width="64" height="64" viewBox="0 0 64 64" version="1.1" xmlns:inkscape="http://www.inkscape.org/namespaces/inkscape"><defs><linearGradient id="linear0" gradientUnits="userSpaceOnUse" x1="0" y1="0" x2="0" y2="1" gradientTransform="matrix(97.100391,0,0,65.14332,-22.758229,-1.623785)"><stop offset="0" style="stop-color:rgb(92.941177%,83.529413%,72.549021%);stop-opacity:1;"/><stop offset="1" style="stop-color:rgb(81.960785%,71.372551%,59.215689%);stop-opacity:1;"/></linearGradient><linearGradient id="linear1" gradientUnits="userSpaceOnUse" x1="0" y1="0" x2="0" y2="1" gradientTransform="matrix(97.100391,0,0,65.14332,-22.758229,-1.623785)"><stop offset="0" style="stop-color:rgb(92.941177%,83.529413%,72.549021%);stop-opacity:1;"/><stop offset="1" style="stop-color:rgb(81.960785%,71.372551%,59.215689%);stop-opacity:1;"/></linearGradient><filter style="color-interpolation-filters:sRGB;" inkscape:label="Diffuse Light" id="filter184" x="-0.0375" y="-0.0375" width="1.075" height="1.075"><feGaussianBlur in="SourceGraphic" stdDeviation="1" result="blur" id="feGaussianBlur174" /><feDiffuseLighting diffuseConstant="1" surfaceScale="10" lighting-color="rgb(255,255,255)" result="diffuse" id="feDiffuseLighting178"><feDistantLight elevation="8" azimuth="235" id="feDistantLight176" /></feDiffuseLighting><feComposite in="diffuse" in2="diffuse" operator="arithmetic" k1="1" result="composite1" id="feComposite180" /><feComposite in="composite1" in2="SourceGraphic" k1="1" operator="arithmetic" k3="1" result="composite2" id="feComposite182" /></filter></defs><g id="surface1" style="filter:url(#filter184)"><path style=" stroke:none;fill-rule:nonzero;fill:url(#linear0);" d="M 2.675781 9.171875 L 2.675781 57.566406 C 2.675781 60.246094 12.984375 62.398438 25.792969 62.398438 C 28.226562 62.398438 30.523438 62.304688 32.726562 62.15625 C 42.101562 61.542969 48.910156 59.734375 48.910156 57.566406 L 48.910156 45.464844 C 56.515625 40.628906 62.777344 35.789062 62.777344 26.105469 C 62.777344 15.394531 56.832031 11.59375 48.910156 11.589844 L 48.910156 9.171875 C 48.910156 7.003906 42.101562 5.195312 32.726562 4.578125 Z M 48.910156 18.847656 C 53.535156 18.847656 55.84375 20.058594 55.84375 26.105469 C 55.84375 30.949219 53.535156 33.363281 48.910156 36.996094 Z M 48.910156 18.847656 "/><path style=" stroke:none;fill-rule:nonzero;fill:url(#linear1);" d="M 21.164062 1.964844 C 20.390625 1.976562 19.601562 1.984375 18.855469 2.011719 L 18.855469 23.691406 L 11.921875 26.113281 L 11.921875 40.628906 C 11.921875 41.96875 12.949219 43.050781 14.230469 43.050781 L 25.792969 43.050781 C 27.070312 43.050781 28.101562 41.96875 28.101562 40.628906 L 28.101562 26.113281 C 28.101562 24.765625 27.070312 23.691406 25.792969 23.691406 L 21.164062 23.691406 Z M 21.164062 1.964844 "/></g></svg>
