<svg width="64" height="64" viewBox="0 0 64 64" version="1.1" xmlns:inkscape="http://www.inkscape.org/namespaces/inkscape"><defs><linearGradient id="linear0" gradientUnits="userSpaceOnUse" x1="0" y1="0" x2="0" y2="1" gradientTransform="matrix(78.971474,0,0,53.441051,-8.291542,2.658392)"><stop offset="0" style="stop-color:rgb(0%,78.823531%,36.862746%);stop-opacity:1;"/><stop offset="1" style="stop-color:rgb(0%,54.11765%,25.098041%);stop-opacity:1;"/></linearGradient><filter style="color-interpolation-filters:sRGB;" inkscape:label="Diffuse Light" id="filter184" x="-0.0375" y="-0.0375" width="1.075" height="1.075"><feGaussianBlur in="SourceGraphic" stdDeviation="1" result="blur" id="feGaussianBlur174" /><feDiffuseLighting diffuseConstant="1" surfaceScale="10" lighting-color="rgb(255,255,255)" result="diffuse" id="feDiffuseLighting178"><feDistantLight elevation="8" azimuth="235" id="feDistantLight176" /></feDiffuseLighting><feComposite in="diffuse" in2="diffuse" operator="arithmetic" k1="1" result="composite1" id="feComposite180" /><feComposite in="composite1" in2="SourceGraphic" k1="1" operator="arithmetic" k3="1" result="composite2" id="feComposite182" /></filter></defs><g id="surface1" style="filter:url(#filter184)"><path style=" stroke:none;fill-rule:nonzero;fill:url(#linear0);" d="M 32.128906 1.679688 C 14.851562 1.679688 0.941406 6.042969 0.941406 11.457031 L 0.941406 19.835938 C 0.941406 25.257812 14.851562 29.617188 32.128906 29.617188 C 49.40625 29.617188 63.320312 25.257812 63.320312 19.835938 L 63.320312 11.457031 C 63.320312 6.042969 49.40625 1.679688 32.128906 1.679688 Z M 1.289062 26.820312 C 1.078125 27.28125 0.941406 27.746094 0.941406 28.222656 L 0.941406 36.601562 C 0.941406 42.019531 14.851562 46.375 32.128906 46.375 C 49.40625 46.375 63.320312 42.019531 63.320312 36.601562 L 63.320312 28.222656 C 63.320312 27.746094 63.175781 27.28125 62.96875 26.820312 C 60.820312 31.570312 47.890625 35.207031 32.128906 35.207031 C 16.363281 35.207031 3.441406 31.570312 1.289062 26.820312 Z M 1.289062 43.585938 C 1.078125 44.042969 0.941406 44.511719 0.941406 44.980469 L 0.941406 53.367188 C 0.941406 58.78125 14.851562 63.140625 32.128906 63.140625 C 49.40625 63.140625 63.320312 58.78125 63.320312 53.367188 L 63.320312 44.980469 C 63.320312 44.511719 63.175781 44.042969 62.96875 43.585938 C 60.820312 48.335938 47.890625 51.964844 32.128906 51.964844 C 16.363281 51.964844 3.441406 48.335938 1.289062 43.585938 Z M 1.289062 43.585938 "/></g></svg>
