<svg width="64" height="64" viewBox="0 0 64 64" version="1.1" xmlns:inkscape="http://www.inkscape.org/namespaces/inkscape"><defs><linearGradient id="linear0" gradientUnits="userSpaceOnUse" x1="0" y1="0" x2="0" y2="1" gradientTransform="matrix(77.52329,0,0,49.55388,-5.547637,7.070556)"><stop offset="0" style="stop-color:rgb(100%,73.333335%,0%);stop-opacity:1;"/><stop offset="1" style="stop-color:rgb(70.19608%,51.372552%,0%);stop-opacity:1;"/></linearGradient><filter style="color-interpolation-filters:sRGB;" inkscape:label="Diffuse Light" id="filter184" x="-0.0375" y="-0.0375" width="1.075" height="1.075"><feGaussianBlur in="SourceGraphic" stdDeviation="1" result="blur" id="feGaussianBlur174" /><feDiffuseLighting diffuseConstant="1" surfaceScale="10" lighting-color="rgb(255,255,255)" result="diffuse" id="feDiffuseLighting178"><feDistantLight elevation="8" azimuth="235" id="feDistantLight176" /></feDiffuseLighting><feComposite in="diffuse" in2="diffuse" operator="arithmetic" k1="1" result="composite1" id="feComposite180" /><feComposite in="composite1" in2="SourceGraphic" k1="1" operator="arithmetic" k3="1" result="composite2" id="feComposite182" /></filter></defs><g id="surface1" style="filter:url(#filter184)"><path style=" stroke:none;fill-rule:nonzero;fill:url(#linear0);" d="M 21.863281 1.757812 C 26.347656 15.359375 28.855469 22.933594 29.363281 29.929688 C 22.550781 29.40625 15.050781 26.882812 1.5 22.347656 L 1.5 42.832031 C 14.953125 38.296875 22.449219 35.789062 29.363281 35.25 C 28.84375 42.140625 26.347656 49.71875 21.863281 63.160156 L 42.132812 63.160156 C 37.648438 49.585938 35.160156 42.011719 34.628906 35.25 C 41.445312 35.773438 48.945312 38.296875 62.492188 42.832031 L 62.492188 22.347656 C 49.042969 26.882812 41.546875 29.390625 34.628906 29.929688 C 35.144531 23.035156 37.648438 15.460938 42.132812 1.757812 Z M 21.863281 1.757812 "/></g></svg>
