<svg width="64" height="64" viewBox="0 0 64 64" version="1.1" xmlns:inkscape="http://www.inkscape.org/namespaces/inkscape"><defs><linearGradient id="linear0" gradientUnits="userSpaceOnUse" x1="0" y1="0" x2="0" y2="1" gradientTransform="matrix(85.658372,0,0,55.189624,-10.911285,2.876987)"><stop offset="0" style="stop-color:rgb(61.176473%,69.803923%,85.09804%);stop-opacity:1;"/><stop offset="1" style="stop-color:rgb(44.313726%,52.156866%,65.882355%);stop-opacity:1;"/></linearGradient><filter style="color-interpolation-filters:sRGB;" inkscape:label="Diffuse Light" id="filter184" x="-0.0375" y="-0.0375" width="1.075" height="1.075"><feGaussianBlur in="SourceGraphic" stdDeviation="1" result="blur" id="feGaussianBlur174" /><feDiffuseLighting diffuseConstant="1" surfaceScale="10" lighting-color="rgb(255,255,255)" result="diffuse" id="feDiffuseLighting178"><feDistantLight elevation="8" azimuth="235" id="feDistantLight176" /></feDiffuseLighting><feComposite in="diffuse" in2="diffuse" operator="arithmetic" k1="1" result="composite1" id="feComposite180" /><feComposite in="composite1" in2="SourceGraphic" k1="1" operator="arithmetic" k3="1" result="composite2" id="feComposite182" /></filter></defs><g id="surface1" style="filter:url(#filter184)"><path style=" stroke:none;fill-rule:nonzero;fill:url(#linear0);" d="M 32.058594 1.785156 C 15.160156 1.785156 1.460938 15.546875 1.460938 32.53125 C 1.460938 49.511719 15.160156 63.277344 32.058594 63.277344 C 48.949219 63.277344 62.648438 49.511719 62.648438 32.53125 C 62.648438 15.546875 48.949219 1.785156 32.058594 1.785156 Z M 32.058594 5.886719 C 46.703125 5.886719 58.566406 17.8125 58.566406 32.53125 C 58.566406 47.25 46.703125 59.179688 32.058594 59.179688 C 17.410156 59.179688 5.542969 47.25 5.542969 32.53125 C 5.542969 17.8125 17.410156 5.886719 32.058594 5.886719 Z M 32.058594 12.035156 C 20.792969 12.035156 11.664062 21.210938 11.664062 32.53125 C 11.664062 43.851562 20.792969 53.027344 32.058594 53.027344 C 43.316406 53.027344 52.445312 43.851562 52.445312 32.53125 C 52.445312 21.210938 43.316406 12.035156 32.058594 12.035156 Z M 32.058594 12.035156 "/></g></svg>
