<svg width="64" height="64" viewBox="0 0 64 64" version="1.1" xmlns:inkscape="http://www.inkscape.org/namespaces/inkscape"><defs><linearGradient id="linear0" gradientUnits="userSpaceOnUse" x1="0" y1="0" x2="0" y2="1" gradientTransform="matrix(107.749991,0,0,63.308897,-24.538625,-1.907217)"><stop offset="0" style="stop-color:rgb(0%,73.333335%,100%);stop-opacity:1;"/><stop offset="1" style="stop-color:rgb(0%,52.156866%,70.980394%);stop-opacity:1;"/></linearGradient><filter style="color-interpolation-filters:sRGB;" inkscape:label="Diffuse Light" id="filter184" x="-0.0375" y="-0.0375" width="1.075" height="1.075"><feGaussianBlur in="SourceGraphic" stdDeviation="1" result="blur" id="feGaussianBlur174" /><feDiffuseLighting diffuseConstant="1" surfaceScale="10" lighting-color="rgb(255,255,255)" result="diffuse" id="feDiffuseLighting178"><feDistantLight elevation="8" azimuth="235" id="feDistantLight176" /></feDiffuseLighting><feComposite in="diffuse" in2="diffuse" operator="arithmetic" k1="1" result="composite1" id="feComposite180" /><feComposite in="composite1" in2="SourceGraphic" k1="1" operator="arithmetic" k3="1" result="composite2" id="feComposite182" /></filter></defs><g id="surface1" style="filter:url(#filter184)"><path style=" stroke:none;fill-rule:nonzero;fill:url(#linear0);" d="M 62.6875 17.988281 L 60.121094 6.234375 L 54.988281 1.53125 L 42.164062 1.53125 C 39.597656 3.882812 37.03125 6.234375 31.96875 6.234375 C 26.902344 6.234375 24.203125 3.882812 21.640625 1.53125 L 11.378906 1.53125 L 6.246094 6.234375 L 1.113281 17.988281 L 11.378906 25.042969 L 13.945312 17.988281 L 13.945312 62.667969 L 49.859375 62.667969 L 49.859375 17.988281 L 52.425781 25.042969 Z M 62.6875 17.988281 "/><path style=" stroke:none;fill-rule:nonzero;fill:rgb(86.274511%,86.274511%,86.274511%);fill-opacity:1;" d="M 16.507812 17.988281 L 16.507812 22.691406 L 19.074219 22.691406 L 19.074219 36.800781 L 16.507812 36.800781 L 16.507812 41.507812 L 26.773438 41.507812 L 26.773438 36.800781 L 24.203125 36.800781 L 24.203125 17.988281 Z M 31.902344 17.988281 L 31.902344 22.691406 L 34.46875 22.691406 L 34.46875 36.800781 L 31.902344 36.800781 L 31.902344 41.507812 L 42.164062 41.507812 L 42.164062 36.800781 L 39.597656 36.800781 L 39.597656 17.988281 Z M 31.902344 17.988281 "/></g></svg>
