<svg width="64" height="64" viewBox="0 0 64 64" version="1.1" xmlns:inkscape="http://www.inkscape.org/namespaces/inkscape"><defs><linearGradient id="linear0" gradientUnits="userSpaceOnUse" x1="0" y1="0" x2="0" y2="1" gradientTransform="matrix(61.92305,0,0,61.283707,1.335987,1.707536)"><stop offset="0" style="stop-color:rgb(82.352942%,61.176473%,100%);stop-opacity:1;"/><stop offset="1" style="stop-color:rgb(66.666669%,0%,100%);stop-opacity:1;"/></linearGradient><filter style="color-interpolation-filters:sRGB;" inkscape:label="Diffuse Light" id="filter184" x="-0.0375" y="-0.0375" width="1.075" height="1.075"><feGaussianBlur in="SourceGraphic" stdDeviation="1" result="blur" id="feGaussianBlur174" /><feDiffuseLighting diffuseConstant="1" surfaceScale="10" lighting-color="rgb(255,255,255)" result="diffuse" id="feDiffuseLighting178"><feDistantLight elevation="8" azimuth="235" id="feDistantLight176" /></feDiffuseLighting><feComposite in="diffuse" in2="diffuse" operator="arithmetic" k1="1" result="composite1" id="feComposite180" /><feComposite in="composite1" in2="SourceGraphic" k1="1" operator="arithmetic" k3="1" result="composite2" id="feComposite182" /></filter></defs><g id="surface1" style="filter:url(#filter184)"><path style=" stroke:none;fill-rule:nonzero;fill:url(#linear0);" d="M 26.558594 1.707031 C 12.667969 1.707031 1.335938 13.375 1.335938 27.636719 C 1.335938 41.898438 12.667969 53.566406 26.558594 53.566406 C 32.414062 53.566406 37.804688 51.476562 42.09375 48.015625 L 55.375 61.667969 C 56.238281 62.554688 57.453125 62.992188 58.671875 62.992188 L 63.257812 62.992188 L 63.257812 58.277344 C 63.257812 57.027344 62.828125 55.777344 61.964844 54.890625 L 48.253906 40.789062 C 50.488281 36.925781 51.792969 32.433594 51.792969 27.636719 C 51.792969 25.058594 51.335938 22.625 50.644531 20.269531 L 31.4375 40.011719 L 26.558594 45.023438 L 21.691406 40.011719 L 7.925781 25.871094 L 17.679688 15.847656 L 26.558594 24.980469 L 43.046875 8.042969 C 38.609375 4.101562 32.84375 1.707031 26.558594 1.707031 Z M 26.558594 1.707031 "/></g></svg>
