<svg width="64" height="64" viewBox="0 0 64 64" version="1.1" xmlns:inkscape="http://www.inkscape.org/namespaces/inkscape"><defs><linearGradient id="linear0" gradientUnits="userSpaceOnUse" x1="0" y1="0" x2="0" y2="1" gradientTransform="matrix(106.489747,0,0,67.779879,-23.298281,-3.949428)"><stop offset="0" style="stop-color:rgb(100%,63.137257%,63.137257%);stop-opacity:1;"/><stop offset="1" style="stop-color:rgb(100%,27.843139%,27.843139%);stop-opacity:1;"/></linearGradient><filter style="color-interpolation-filters:sRGB;" inkscape:label="Diffuse Light" id="filter184" x="-0.0375" y="-0.0375" width="1.075" height="1.075"><feGaussianBlur in="SourceGraphic" stdDeviation="1" result="blur" id="feGaussianBlur174" /><feDiffuseLighting diffuseConstant="1" surfaceScale="10" lighting-color="rgb(255,255,255)" result="diffuse" id="feDiffuseLighting178"><feDistantLight elevation="8" azimuth="235" id="feDistantLight176" /></feDiffuseLighting><feComposite in="diffuse" in2="diffuse" operator="arithmetic" k1="1" result="composite1" id="feComposite180" /><feComposite in="composite1" in2="SourceGraphic" k1="1" operator="arithmetic" k3="1" result="composite2" id="feComposite182" /></filter></defs><g id="surface1" style="filter:url(#filter184)"><path style=" stroke:none;fill-rule:nonzero;fill:url(#linear0);" d="M 2.054688 2.246094 L 2.054688 21.960938 L 7.128906 18.9375 L 7.128906 7.285156 L 57.839844 7.285156 L 57.839844 57.636719 L 37.554688 57.636719 L 37.554688 62.664062 L 62.90625 62.664062 L 62.90625 2.246094 Z M 24.875 22.386719 L 2.054688 24.902344 L 2.054688 62.664062 L 35.019531 62.664062 L 35.019531 47.558594 L 40.085938 40.007812 L 40.085938 37.492188 L 47.691406 34.976562 L 55.296875 34.976562 L 55.296875 32.457031 L 35.019531 27.425781 L 45.160156 19.875 L 52.765625 19.875 L 52.765625 17.351562 L 47.691406 14.835938 Z M 24.875 22.386719 "/></g></svg>
