<svg width="64" height="64" viewBox="0 0 64 64" version="1.1" xmlns:inkscape="http://www.inkscape.org/namespaces/inkscape"><defs><linearGradient id="linear0" gradientUnits="userSpaceOnUse" x1="0" y1="0" x2="0" y2="1" gradientTransform="matrix(86.086703,0,0,54.574705,-12.578897,3.17463)"><stop offset="0" style="stop-color:rgb(100%,56.862748%,82.745099%);stop-opacity:1;"/><stop offset="1" style="stop-color:rgb(100%,0%,60.000002%);stop-opacity:1;"/></linearGradient><filter style="color-interpolation-filters:sRGB;" inkscape:label="Diffuse Light" id="filter184" x="-0.0375" y="-0.0375" width="1.075" height="1.075"><feGaussianBlur in="SourceGraphic" stdDeviation="1" result="blur" id="feGaussianBlur174" /><feDiffuseLighting diffuseConstant="1" surfaceScale="10" lighting-color="rgb(255,255,255)" result="diffuse" id="feDiffuseLighting178"><feDistantLight elevation="8" azimuth="235" id="feDistantLight176" /></feDiffuseLighting><feComposite in="diffuse" in2="diffuse" operator="arithmetic" k1="1" result="composite1" id="feComposite180" /><feComposite in="composite1" in2="SourceGraphic" k1="1" operator="arithmetic" k3="1" result="composite2" id="feComposite182" /></filter></defs><g id="surface1" style="filter:url(#filter184)"><path style=" stroke:none;fill-rule:nonzero;fill:url(#linear0);" d="M 32.511719 2.082031 C 15.535156 2.082031 1.765625 15.699219 1.765625 32.488281 C 1.765625 49.28125 15.535156 62.890625 32.511719 62.890625 C 49.492188 62.890625 63.257812 49.28125 63.257812 32.488281 C 63.257812 15.699219 49.492188 2.082031 32.511719 2.082031 Z M 32.511719 12.21875 C 43.832031 12.21875 53.011719 21.292969 53.011719 32.488281 C 53.011719 43.679688 43.832031 52.761719 32.511719 52.761719 C 21.191406 52.761719 12.015625 43.679688 12.015625 32.488281 C 12.015625 21.292969 21.191406 12.21875 32.511719 12.21875 Z M 32.511719 20.324219 C 25.71875 20.324219 20.214844 25.769531 20.214844 32.488281 C 20.214844 39.203125 25.71875 44.648438 32.511719 44.648438 C 39.304688 44.648438 44.808594 39.203125 44.808594 32.488281 C 44.808594 25.769531 39.304688 20.324219 32.511719 20.324219 Z M 32.511719 26.40625 C 35.910156 26.40625 38.660156 29.132812 38.660156 32.488281 C 38.660156 35.847656 35.910156 38.566406 32.511719 38.566406 C 29.121094 38.566406 26.363281 35.847656 26.363281 32.488281 C 26.363281 29.132812 29.121094 26.40625 32.511719 26.40625 Z M 32.511719 26.40625 "/></g></svg>
