<svg width="64" height="64" viewBox="0 0 64 64" version="1.1" xmlns:inkscape="http://www.inkscape.org/namespaces/inkscape"><defs><linearGradient id="linear0" gradientUnits="userSpaceOnUse" x1="0" y1="0" x2="0" y2="1" gradientTransform="matrix(57.545491,0,0,73.953922,-2.134306,-5.481011)"><stop offset="0" style="stop-color:rgb(100%,56.862748%,82.745099%);stop-opacity:1;"/><stop offset="1" style="stop-color:rgb(100%,0%,60.000002%);stop-opacity:1;"/></linearGradient><linearGradient id="linear1" gradientUnits="userSpaceOnUse" x1="0" y1="0" x2="0" y2="1" gradientTransform="matrix(57.545491,0,0,73.953922,-2.134306,-5.481011)"><stop offset="0" style="stop-color:rgb(100%,56.862748%,82.745099%);stop-opacity:1;"/><stop offset="1" style="stop-color:rgb(100%,0%,60.000002%);stop-opacity:1;"/></linearGradient><filter style="color-interpolation-filters:sRGB;" inkscape:label="Diffuse Light" id="filter184" x="-0.0375" y="-0.0375" width="1.075" height="1.075"><feGaussianBlur in="SourceGraphic" stdDeviation="1" result="blur" id="feGaussianBlur174" /><feDiffuseLighting diffuseConstant="1" surfaceScale="10" lighting-color="rgb(255,255,255)" result="diffuse" id="feDiffuseLighting178"><feDistantLight elevation="8" azimuth="235" id="feDistantLight176" /></feDiffuseLighting><feComposite in="diffuse" in2="diffuse" operator="arithmetic" k1="1" result="composite1" id="feComposite180" /><feComposite in="composite1" in2="SourceGraphic" k1="1" operator="arithmetic" k3="1" result="composite2" id="feComposite182" /></filter></defs><g id="surface1" style="filter:url(#filter184)"><path style=" stroke:none;fill-rule:nonzero;fill:url(#linear0);" d="M 29.386719 63.59375 L 29.386719 17.042969 L 21.304688 17.042969 L 21.304688 63.59375 M 19.285156 14.453125 L 1.089844 1.523438 L 1.089844 45.492188 L 19.285156 61.007812 M 49.597656 45.492188 L 49.597656 1.523438 L 31.410156 14.453125 L 31.410156 61.007812 M 45.558594 1.523438 C 37.46875 1.523438 33.429688 2.867188 25.351562 11.867188 C 17.261719 3.082031 13.21875 1.523438 5.136719 1.523438 L 21.304688 14.453125 L 29.386719 14.453125 "/><path style=" stroke:none;fill-rule:nonzero;fill:url(#linear1);" d="M 55.667969 51.234375 L 55.371094 35.523438 C 53.390625 34.484375 51.976562 32.0625 51.921875 29.164062 C 51.871094 26.265625 53.195312 23.695312 55.117188 22.539062 L 55.238281 28.546875 C 55.28125 31.523438 59.71875 31.386719 59.667969 28.410156 L 59.542969 22.394531 C 60.171875 22.730469 60.734375 23.199219 61.210938 23.761719 C 62.289062 25.042969 62.984375 26.785156 63.023438 28.78125 C 63.070312 31.683594 61.734375 34.234375 59.808594 35.390625 L 60.109375 51.105469 C 59.746094 54.121094 56.078125 54.117188 55.679688 51.238281 "/></g></svg>
