<svg width="64" height="64" viewBox="0 0 64 64" version="1.1" xmlns:inkscape="http://www.inkscape.org/namespaces/inkscape"><defs><linearGradient id="linear0" gradientUnits="userSpaceOnUse" x1="0" y1="0" x2="0" y2="1" gradientTransform="matrix(107.45306,0,0,66.719022,-22.194439,0.932323)"><stop offset="0" style="stop-color:rgb(100%,73.333335%,0%);stop-opacity:1;"/><stop offset="1" style="stop-color:rgb(70.19608%,51.372552%,0%);stop-opacity:1;"/></linearGradient><linearGradient id="linear1" gradientUnits="userSpaceOnUse" x1="0" y1="0" x2="0" y2="1" gradientTransform="matrix(107.45306,0,0,66.719022,-22.194439,0.932323)"><stop offset="0" style="stop-color:rgb(100%,73.333335%,0%);stop-opacity:1;"/><stop offset="1" style="stop-color:rgb(70.19608%,51.372552%,0%);stop-opacity:1;"/></linearGradient><linearGradient id="linear2" gradientUnits="userSpaceOnUse" x1="0" y1="0" x2="0" y2="1" gradientTransform="matrix(107.45306,0,0,66.719022,-22.194439,0.932323)"><stop offset="0" style="stop-color:rgb(100%,73.333335%,0%);stop-opacity:1;"/><stop offset="1" style="stop-color:rgb(70.19608%,51.372552%,0%);stop-opacity:1;"/></linearGradient><filter style="color-interpolation-filters:sRGB;" inkscape:label="Diffuse Light" id="filter184" x="-0.0375" y="-0.0375" width="1.075" height="1.075"><feGaussianBlur in="SourceGraphic" stdDeviation="1" result="blur" id="feGaussianBlur174" /><feDiffuseLighting diffuseConstant="1" surfaceScale="10" lighting-color="rgb(255,255,255)" result="diffuse" id="feDiffuseLighting178"><feDistantLight elevation="8" azimuth="235" id="feDistantLight176" /></feDiffuseLighting><feComposite in="diffuse" in2="diffuse" operator="arithmetic" k1="1" result="composite1" id="feComposite180" /><feComposite in="composite1" in2="SourceGraphic" k1="1" operator="arithmetic" k3="1" result="composite2" id="feComposite182" /></filter></defs><g id="surface1" style="filter:url(#filter184)"><path style=" stroke:none;fill-rule:nonzero;fill:url(#linear0);" d="M 19.5625 17.160156 L 19.5625 24.59375 L 1.65625 36.984375 L 1.65625 44.417969 L 32.355469 59.289062 L 63.058594 44.417969 L 63.058594 36.984375 L 45.152344 24.59375 L 45.152344 17.160156 Z M 19.5625 17.160156 "/><path style=" stroke:none;fill-rule:nonzero;fill:url(#linear1);" d="M 16.863281 1.714844 L 47.566406 1.714844 C 48.980469 1.714844 50.121094 2.820312 50.121094 4.191406 L 50.121094 14.109375 C 50.121094 15.480469 48.980469 16.585938 47.566406 16.585938 L 16.863281 16.585938 C 15.445312 16.585938 14.300781 15.480469 14.300781 14.109375 L 14.300781 4.191406 C 14.300781 2.820312 15.445312 1.714844 16.863281 1.714844 Z M 16.863281 1.714844 "/><path style=" stroke:none;fill-rule:nonzero;fill:url(#linear2);" d="M 1.753906 43.367188 L 1.753906 58.234375 C 1.753906 60.988281 4.03125 63.1875 6.863281 63.1875 L 58.035156 63.1875 C 60.875 63.1875 63.15625 60.980469 63.15625 58.234375 L 63.15625 43.367188 Z M 1.753906 43.367188 "/></g></svg>
