<svg width="64" height="64" viewBox="0 0 64 64" version="1.1" xmlns:inkscape="http://www.inkscape.org/namespaces/inkscape"><defs><linearGradient id="linear0" gradientUnits="userSpaceOnUse" x1="0" y1="0" x2="0" y2="1" gradientTransform="matrix(111.544159,0,0,70.417442,-26.632639,-6.266992)"><stop offset="0" style="stop-color:rgb(100%,56.862748%,82.745099%);stop-opacity:1;"/><stop offset="1" style="stop-color:rgb(100%,0%,60.000002%);stop-opacity:1;"/></linearGradient><filter style="color-interpolation-filters:sRGB;" inkscape:label="Diffuse Light" id="filter184" x="-0.0375" y="-0.0375" width="1.075" height="1.075"><feGaussianBlur in="SourceGraphic" stdDeviation="1" result="blur" id="feGaussianBlur174" /><feDiffuseLighting diffuseConstant="1" surfaceScale="10" lighting-color="rgb(255,255,255)" result="diffuse" id="feDiffuseLighting178"><feDistantLight elevation="8" azimuth="235" id="feDistantLight176" /></feDiffuseLighting><feComposite in="diffuse" in2="diffuse" operator="arithmetic" k1="1" result="composite1" id="feComposite180" /><feComposite in="composite1" in2="SourceGraphic" k1="1" operator="arithmetic" k3="1" result="composite2" id="feComposite182" /></filter></defs><g id="surface1" style="filter:url(#filter184)"><path style=" stroke:none;fill-rule:nonzero;fill:url(#linear0);" d="M 42.421875 2.789062 C 39.472656 2.789062 37.105469 5.121094 37.105469 8.015625 L 37.105469 15.863281 C 37.105469 18.765625 39.472656 21.09375 42.421875 21.09375 L 45.074219 21.09375 C 41.066406 32.246094 32.484375 40.679688 21.171875 44.632812 L 21.171875 42.019531 C 21.171875 39.117188 18.808594 36.789062 15.859375 36.789062 L 7.890625 36.789062 C 4.949219 36.789062 2.582031 39.117188 2.582031 42.019531 L 2.582031 55.09375 C 2.582031 57.996094 4.949219 60.328125 7.890625 60.328125 C 37.230469 60.328125 61.007812 36.910156 61.007812 8.015625 C 61.007812 5.121094 58.644531 2.789062 55.695312 2.789062 Z M 42.421875 2.789062 "/></g></svg>
