<svg width="64" height="64" viewBox="0 0 64 64" version="1.1" xmlns:inkscape="http://www.inkscape.org/namespaces/inkscape"><defs><linearGradient id="linear0" gradientUnits="userSpaceOnUse" x1="0" y1="0" x2="0" y2="1" gradientTransform="matrix(88.350464,0,0,67.302734,-7.121268,2.311277)"><stop offset="0" style="stop-color:rgb(75.686276%,77.64706%,83.92157%);stop-opacity:1;"/><stop offset="1" style="stop-color:rgb(43.529412%,45.09804%,50.196081%);stop-opacity:1;"/></linearGradient><filter style="color-interpolation-filters:sRGB;" inkscape:label="Diffuse Light" id="filter184" x="-0.0375" y="-0.0375" width="1.075" height="1.075"><feGaussianBlur in="SourceGraphic" stdDeviation="1" result="blur" id="feGaussianBlur174" /><feDiffuseLighting diffuseConstant="1" surfaceScale="10" lighting-color="rgb(255,255,255)" result="diffuse" id="feDiffuseLighting178"><feDistantLight elevation="8" azimuth="235" id="feDistantLight176" /></feDiffuseLighting><feComposite in="diffuse" in2="diffuse" operator="arithmetic" k1="1" result="composite1" id="feComposite180" /><feComposite in="composite1" in2="SourceGraphic" k1="1" operator="arithmetic" k3="1" result="composite2" id="feComposite182" /></filter></defs><g id="surface1" style="filter:url(#filter184)"><path style=" stroke:none;fill-rule:nonzero;fill:url(#linear0);" d="M 27.902344 44.875 C 10.90625 37.496094 0.484375 45.074219 3.195312 54.609375 C 4.867188 60.484375 18.777344 65.957031 30.957031 56.699219 C 31.746094 56.160156 32.789062 54.332031 32.824219 53.394531 C 34.59375 42.1875 36.820312 30.929688 38.539062 19.726562 C 57.765625 32.585938 51.625 40.367188 47.644531 49.324219 C 55.816406 46.765625 68.625 35.492188 54.632812 19.585938 C 48.019531 12.535156 48.640625 17.511719 42.230469 3.457031 C 39.964844 3.171875 37.707031 2.894531 35.453125 2.605469 C 32.75 17.089844 30.601562 30.386719 27.902344 44.875 "/></g></svg>
