<svg width="64" height="64" viewBox="0 0 64 64" version="1.1" xmlns:inkscape="http://www.inkscape.org/namespaces/inkscape"><defs><linearGradient id="linear0" gradientUnits="userSpaceOnUse" x1="0" y1="0" x2="0" y2="1" gradientTransform="matrix(64,0,0,63.890625,0,0.0546875)"><stop offset="0" style="stop-color:rgb(100%,63.137257%,63.137257%);stop-opacity:1;"/><stop offset="1" style="stop-color:rgb(100%,27.843139%,27.843139%);stop-opacity:1;"/></linearGradient><filter style="color-interpolation-filters:sRGB;" inkscape:label="Diffuse Light" id="filter184" x="-0.0375" y="-0.0375" width="1.075" height="1.075"><feGaussianBlur in="SourceGraphic" stdDeviation="1" result="blur" id="feGaussianBlur174" /><feDiffuseLighting diffuseConstant="1" surfaceScale="10" lighting-color="rgb(255,255,255)" result="diffuse" id="feDiffuseLighting178"><feDistantLight elevation="8" azimuth="235" id="feDistantLight176" /></feDiffuseLighting><feComposite in="diffuse" in2="diffuse" operator="arithmetic" k1="1" result="composite1" id="feComposite180" /><feComposite in="composite1" in2="SourceGraphic" k1="1" operator="arithmetic" k3="1" result="composite2" id="feComposite182" /></filter></defs><g id="surface1" style="filter:url(#filter184)"><path style=" stroke:none;fill-rule:evenodd;fill:url(#linear0);" d="M 0 1.433594 L 0 34.15625 C 0 35.445312 0.871094 35.910156 1.945312 35.195312 L 26.105469 19.09375 C 27.175781 18.375 27.175781 17.210938 26.105469 16.496094 L 1.945312 0.390625 C 0.871094 -0.324219 0 0.144531 0 1.433594 Z M 14.714844 35.144531 L 14.714844 62.566406 C 14.714844 63.855469 15.589844 64.324219 16.660156 63.609375 L 36.84375 50.152344 C 37.921875 49.4375 37.921875 48.277344 36.84375 47.558594 L 16.660156 34.105469 C 15.589844 33.386719 14.714844 33.851562 14.714844 35.144531 Z M 46.792969 22.894531 L 46.792969 42.683594 C 46.792969 43.976562 47.664062 44.441406 48.734375 43.726562 L 63.195312 34.089844 C 64.269531 33.371094 64.269531 32.210938 63.195312 31.496094 L 48.734375 21.855469 C 47.664062 21.140625 46.792969 21.609375 46.792969 22.894531 Z M 46.792969 22.894531 "/></g></svg>
