<svg width="64" height="64" viewBox="0 0 64 64" version="1.1" xmlns:inkscape="http://www.inkscape.org/namespaces/inkscape"><defs><linearGradient id="linear0" gradientUnits="userSpaceOnUse" x1="0" y1="0" x2="0" y2="1" gradientTransform="matrix(107.277088,0,0,62.601025,-21.933907,-1.455156)"><stop offset="0" style="stop-color:rgb(100%,56.862748%,82.745099%);stop-opacity:1;"/><stop offset="1" style="stop-color:rgb(100%,0%,60.000002%);stop-opacity:1;"/></linearGradient><filter style="color-interpolation-filters:sRGB;" inkscape:label="Diffuse Light" id="filter184" x="-0.0375" y="-0.0375" width="1.075" height="1.075"><feGaussianBlur in="SourceGraphic" stdDeviation="1" result="blur" id="feGaussianBlur174" /><feDiffuseLighting diffuseConstant="1" surfaceScale="10" lighting-color="rgb(255,255,255)" result="diffuse" id="feDiffuseLighting178"><feDistantLight elevation="8" azimuth="235" id="feDistantLight176" /></feDiffuseLighting><feComposite in="diffuse" in2="diffuse" operator="arithmetic" k1="1" result="composite1" id="feComposite180" /><feComposite in="composite1" in2="SourceGraphic" k1="1" operator="arithmetic" k3="1" result="composite2" id="feComposite182" /></filter></defs><g id="surface1" style="filter:url(#filter184)"><path style=" stroke:none;fill-rule:nonzero;fill:url(#linear0);" d="M 34.257812 1.945312 C 15.921875 1.945312 1.054688 15.476562 1.054688 32.167969 C 1.054688 48.867188 15.921875 62.398438 34.257812 62.398438 C 45.460938 62.398438 54.152344 60.820312 60.890625 58.34375 C 61.425781 53.722656 62.351562 48.449219 62.351562 43.796875 L 57.402344 43.796875 C 53.695312 52.34375 46.246094 57.734375 38.089844 57.75 C 26.101562 57.75 16.378906 46.296875 16.378906 32.167969 C 16.378906 18.046875 26.101562 6.59375 38.089844 6.59375 C 46.25 6.589844 53.71875 11.984375 57.433594 20.546875 L 62.351562 20.546875 C 62.351562 15.894531 61.425781 10.621094 60.890625 6 C 54.152344 3.519531 45.460938 1.945312 34.257812 1.945312 M 52.140625 22.867188 C 52.140625 25.96875 52.140625 29.070312 52.140625 32.167969 L 57.246094 32.167969 C 58.660156 32.167969 59.804688 33.210938 59.804688 34.496094 L 59.804688 36.820312 C 59.804688 38.109375 58.660156 39.144531 57.246094 39.144531 L 52.140625 39.144531 L 52.140625 41.476562 L 57.246094 41.476562 C 60.078125 41.476562 62.351562 39.394531 62.351562 36.820312 L 62.351562 34.496094 C 62.351562 31.917969 60.078125 29.847656 57.246094 29.847656 L 54.691406 29.847656 L 54.691406 25.191406 L 62.351562 25.191406 L 62.351562 22.867188 Z M 52.140625 22.867188 "/></g></svg>
