<svg width="64" height="64" viewBox="0 0 64 64" version="1.1" xmlns:inkscape="http://www.inkscape.org/namespaces/inkscape"><defs><linearGradient id="linear0" gradientUnits="userSpaceOnUse" x1="0" y1="0" x2="0" y2="1" gradientTransform="matrix(53.451037,0,0,61.808324,6.225403,1.359772)"><stop offset="0" style="stop-color:rgb(0%,78.823531%,36.862746%);stop-opacity:1;"/><stop offset="1" style="stop-color:rgb(0%,54.11765%,25.098041%);stop-opacity:1;"/></linearGradient><filter style="color-interpolation-filters:sRGB;" inkscape:label="Diffuse Light" id="filter184" x="-0.0375" y="-0.0375" width="1.075" height="1.075"><feGaussianBlur in="SourceGraphic" stdDeviation="1" result="blur" id="feGaussianBlur174" /><feDiffuseLighting diffuseConstant="1" surfaceScale="10" lighting-color="rgb(255,255,255)" result="diffuse" id="feDiffuseLighting178"><feDistantLight elevation="8" azimuth="235" id="feDistantLight176" /></feDiffuseLighting><feComposite in="diffuse" in2="diffuse" operator="arithmetic" k1="1" result="composite1" id="feComposite180" /><feComposite in="composite1" in2="SourceGraphic" k1="1" operator="arithmetic" k3="1" result="composite2" id="feComposite182" /></filter></defs><g id="surface1" style="filter:url(#filter184)"><path style=" stroke:none;fill-rule:evenodd;fill:url(#linear0);" d="M 18.375 24.539062 L 34.164062 15.929688 L 46.921875 22.882812 L 42.667969 30.054688 L 34.164062 24.976562 L 28.089844 28.289062 L 28.089844 36.238281 L 34.164062 39.550781 L 42.667969 34.472656 L 46.921875 41.644531 L 34.164062 48.601562 L 18.375 39.769531 Z M 6.226562 16.8125 L 34.164062 1.359375 L 59.675781 15.707031 L 56.03125 22.332031 L 34.164062 10.191406 L 13.515625 21.226562 L 13.515625 43.300781 L 34.164062 54.339844 L 56.03125 41.976562 L 59.675781 48.820312 L 34.164062 63.167969 L 6.226562 47.714844 Z M 6.226562 16.8125 "/></g></svg>
