<svg width="64" height="64" viewBox="0 0 64 64" version="1.1" xmlns:inkscape="http://www.inkscape.org/namespaces/inkscape"><defs><linearGradient id="linear0" gradientUnits="userSpaceOnUse" x1="0" y1="0" x2="0" y2="1" gradientTransform="matrix(64,0,0,64,0,0)"><stop offset="0" style="stop-color:rgb(41.960785%,64.313728%,100%);stop-opacity:1;"/><stop offset="1" style="stop-color:rgb(0%,43.137255%,100%);stop-opacity:1;"/></linearGradient><filter style="color-interpolation-filters:sRGB;" inkscape:label="Diffuse Light" id="filter184" x="-0.0375" y="-0.0375" width="1.075" height="1.075"><feGaussianBlur in="SourceGraphic" stdDeviation="1" result="blur" id="feGaussianBlur174" /><feDiffuseLighting diffuseConstant="1" surfaceScale="10" lighting-color="rgb(255,255,255)" result="diffuse" id="feDiffuseLighting178"><feDistantLight elevation="8" azimuth="235" id="feDistantLight176" /></feDiffuseLighting><feComposite in="diffuse" in2="diffuse" operator="arithmetic" k1="1" result="composite1" id="feComposite180" /><feComposite in="composite1" in2="SourceGraphic" k1="1" operator="arithmetic" k3="1" result="composite2" id="feComposite182" /></filter></defs><g id="surface1" style="filter:url(#filter184)"><path style=" stroke:none;fill-rule:nonzero;fill:url(#linear0);" d="M 19.125 0 C 8.652344 0 0 9.476562 0 21.144531 C 0 27.199219 2.300781 32.753906 6.015625 36.632812 L 6.015625 36.640625 L 31.574219 64 L 57.976562 36.640625 C 61.824219 32.625 64.007812 27.015625 64 21.144531 C 64 9.476562 55.347656 0 44.875 0 C 39.714844 0 35.4375 2.769531 32 6.496094 C 28.558594 2.769531 24.28125 0 19.125 0 Z M 19.125 4.453125 C 24.613281 4.453125 29.363281 7.660156 32 12.523438 C 34.714844 7.496094 39.605469 4.429688 44.875 4.453125 C 53.203125 4.453125 60 11.90625 60 21.144531 C 60 25.953125 58.175781 30.335938 55.246094 33.386719 L 31.625 57.871094 L 8.746094 33.386719 C 5.710938 30.210938 3.992188 25.78125 4 21.144531 C 4 11.90625 10.800781 4.453125 19.125 4.453125 Z M 19.125 4.453125 "/></g></svg>
