<svg xmlns="http://www.w3.org/2000/svg" xmlns:xlink="http://www.w3.org/1999/xlink" width="64" height="64" viewBox="0 0 64 64" version="1.1"><path style="fill:none;stroke-width:26.871;stroke-linecap:square;stroke-linejoin:miter;stroke:rgb(64.313728%,40.392157%,3.137255%);stroke-opacity:1;stroke-miterlimit:4;" d="M 138.61084 231.079102 C 286.865234 28.808594 570.3125 -16.479492 774.169922 129.638672 C 978.088379 275.695801 1026.367188 558.654785 882.446289 764.099121 C 738.586426 969.482422 456.176758 1020.812988 249.206543 879.150391 C 42.236328 737.487793 -12.084961 455.627441 127.319336 247.192383 " transform="matrix(0.064,0,0,0.064,0,0)"/><path style=" stroke:none;fill-rule:evenodd;fill:rgb(87.058824%,75.294119%,57.254905%);fill-opacity:1;" d="M 8.871094 14.789062 C 18.359375 1.84375 36.5 -1.054688 49.546875 8.296875 C 62.597656 17.644531 65.6875 35.753906 56.476562 48.902344 C 47.269531 62.046875 29.195312 65.332031 15.949219 56.265625 C 2.703125 47.199219 -0.773438 29.160156 8.148438 15.820312 "/><path style=" stroke:none;fill-rule:nonzero;fill:rgb(94.117647%,59.607846%,4.705882%);fill-opacity:1;" d="M 20.628906 25.027344 L 24.066406 17.59375 L 31.992188 39.589844 L 15.601562 39.589844 L 9.632812 23.03125 L 16.742188 26.425781 Z M 20.628906 25.027344 "/><path style=" stroke:none;fill-rule:nonzero;fill:rgb(64.313728%,40.392157%,3.137255%);fill-opacity:1;" d="M 10.332031 24.117188 L 13.375 28.253906 L 12.023438 28.359375 Z M 10.332031 24.117188 "/><path style=" stroke:none;fill-rule:nonzero;fill:rgb(64.313728%,40.392157%,3.137255%);fill-opacity:1;" d="M 25.570312 23.222656 L 24 18.9375 L 24.5 24.0625 "/><path style=" stroke:none;fill-rule:nonzero;fill:rgb(100%,100%,100%);fill-opacity:1;" d="M 27.105469 30.234375 C 27.324219 31.617188 26.382812 32.914062 25.003906 33.132812 C 23.621094 33.351562 22.324219 32.410156 22.105469 31.027344 C 21.886719 29.648438 22.828125 28.351562 24.210938 28.132812 C 25.589844 27.914062 26.886719 28.855469 27.105469 30.234375 Z M 27.105469 30.234375 "/><path style=" stroke:none;fill-rule:nonzero;fill:rgb(64.313728%,40.392157%,3.137255%);fill-opacity:1;" d="M 25.96875 30.503906 C 26.113281 31.421875 25.632812 32.261719 24.898438 32.378906 C 24.160156 32.496094 23.445312 31.84375 23.300781 30.925781 C 23.15625 30.003906 23.632812 29.164062 24.371094 29.046875 C 25.105469 28.929688 25.820312 29.582031 25.96875 30.503906 Z M 25.96875 30.503906 "/><path style=" stroke:none;fill-rule:nonzero;fill:rgb(100%,100%,100%);fill-opacity:1;" d="M 19.90625 32.867188 C 20.125 34.25 19.183594 35.546875 17.800781 35.765625 C 16.421875 35.984375 15.125 35.042969 14.90625 33.660156 C 14.6875 32.277344 15.628906 30.980469 17.007812 30.761719 C 18.390625 30.542969 19.6875 31.488281 19.90625 32.867188 Z M 19.90625 32.867188 "/><path style=" stroke:none;fill-rule:nonzero;fill:rgb(64.313728%,40.392157%,3.137255%);fill-opacity:1;" d="M 22.652344 35.328125 L 21.859375 35.609375 L 20.53125 34.988281 L 20.742188 34.5 L 22.84375 33.746094 L 23.296875 33.953125 Z M 22.652344 35.328125 "/><path style=" stroke:none;fill-rule:nonzero;fill:rgb(97.647059%,80.000001%,0.392157%);fill-opacity:1;" d="M 22.734375 35.632812 C 22.378906 35.9375 24.203125 36.582031 25.96875 35.886719 C 26.667969 35.613281 28.132812 34.554688 28.0625 34.335938 C 28.0625 34.335938 26.902344 35.457031 25.492188 35.351562 C 24.136719 35.246094 23.324219 35.128906 22.734375 35.632812 Z M 22.734375 35.632812 "/><path style=" stroke:none;fill-rule:nonzero;fill:rgb(64.313728%,40.392157%,3.137255%);fill-opacity:1;" d="M 18.597656 32.65625 C 19.074219 33.457031 18.9375 34.414062 18.296875 34.796875 C 17.65625 35.175781 16.75 34.835938 16.273438 34.03125 C 15.800781 33.230469 15.9375 32.273438 16.578125 31.894531 C 17.21875 31.511719 18.125 31.855469 18.597656 32.65625 Z M 18.597656 32.65625 "/><path style=" stroke:none;fill-rule:nonzero;fill:rgb(97.647059%,80.000001%,0.392157%);fill-opacity:1;" d="M 22.167969 35.835938 C 22.636719 35.847656 21.648438 37.503906 19.835938 38.097656 C 19.125 38.328125 17.324219 38.449219 17.238281 38.234375 C 17.238281 38.234375 18.84375 38.355469 19.859375 37.375 C 20.84375 36.433594 21.398438 35.824219 22.167969 35.835938 Z M 22.167969 35.835938 "/><path style="fill:none;stroke-width:5;stroke-linecap:butt;stroke-linejoin:miter;stroke:rgb(64.313728%,40.392157%,3.137255%);stroke-opacity:1;stroke-miterlimit:10;" d="M 297.600573 527.621303 C 301.639362 538.620557 286.171661 554.174189 263.227906 562.509561 " transform="matrix(0.0454576,0,0,0.0454576,9.018658,12.117148)"/><path style="fill:none;stroke-width:5;stroke-linecap:butt;stroke-linejoin:miter;stroke:rgb(64.313728%,40.392157%,3.137255%);stroke-opacity:1;stroke-miterlimit:10;" d="M 298.373958 527.277576 C 302.412747 538.27683 324.239391 540.511053 347.097214 532.175682 " transform="matrix(0.0454576,0,0,0.0454576,9.018658,12.117148)"/><path style=" stroke:none;fill-rule:nonzero;fill:rgb(97.647059%,80.000001%,0.392157%);fill-opacity:1;" d="M 46.046875 26.867188 L 53.320312 23.855469 L 47.558594 39.625 L 30.460938 39.503906 L 38.808594 18.644531 L 42.179688 25.421875 Z M 46.046875 26.867188 "/><path style=" stroke:none;fill-rule:nonzero;fill:rgb(94.117647%,59.607846%,4.705882%);fill-opacity:1;" d="M 38.789062 19.808594 L 38.429688 24.933594 L 37.328125 24.136719 Z M 38.789062 19.808594 "/><path style=" stroke:none;fill-rule:nonzero;fill:rgb(94.117647%,59.607846%,4.705882%);fill-opacity:1;" d="M 50.984375 28.988281 L 52.5625 24.703125 L 49.625 28.9375 "/><path style=" stroke:none;fill-rule:nonzero;fill:rgb(94.117647%,59.607846%,4.705882%);fill-opacity:1;" d="M 41.570312 34.578125 L 40.785156 34.28125 L 40.175781 32.949219 L 40.648438 32.714844 L 42.742188 33.496094 L 42.949219 33.949219 Z M 41.570312 34.578125 "/><path style="fill:none;stroke-width:5;stroke-linecap:butt;stroke-linejoin:miter;stroke:rgb(94.117647%,59.607846%,4.705882%);stroke-opacity:1;stroke-miterlimit:10;" d="M 703.198048 504.505684 C 699.073328 515.419006 677.332616 517.395435 654.38886 508.802268 " transform="matrix(0.0454576,0,0,0.0454576,9.018658,12.117148)"/><path style="fill:none;stroke-width:5;stroke-linecap:butt;stroke-linejoin:miter;stroke:rgb(94.117647%,59.607846%,4.705882%);stroke-opacity:1;stroke-miterlimit:10;" d="M 703.198048 504.505684 C 699.073328 515.419006 714.283233 531.230433 737.226989 539.8236 " transform="matrix(0.0454576,0,0,0.0454576,9.018658,12.117148)"/><path style=" stroke:none;fill-rule:nonzero;fill:rgb(100%,100%,100%);fill-opacity:1;" d="M 46.152344 30.347656 C 47.484375 30.574219 48.421875 31.613281 48.242188 32.671875 C 48.058594 33.730469 46.832031 34.402344 45.5 34.171875 C 44.164062 33.945312 43.230469 32.90625 43.410156 31.847656 C 43.589844 30.789062 44.816406 30.117188 46.152344 30.347656 Z M 46.152344 30.347656 "/><path style=" stroke:none;fill-rule:nonzero;fill:rgb(94.117647%,59.607846%,4.705882%);fill-opacity:1;" d="M 45.597656 30.773438 C 46.429688 30.917969 46.992188 31.707031 46.847656 32.542969 C 46.707031 33.375 45.914062 33.9375 45.082031 33.796875 C 44.246094 33.652344 43.6875 32.863281 43.828125 32.027344 C 43.972656 31.195312 44.761719 30.632812 45.597656 30.773438 Z M 45.597656 30.773438 "/><path style=" stroke:none;fill-rule:nonzero;fill:rgb(100%,100%,100%);fill-opacity:1;" d="M 39.941406 28.023438 C 41.097656 28.726562 41.582031 30.039062 41.027344 30.953125 C 40.46875 31.871094 39.082031 32.042969 37.925781 31.339844 C 36.769531 30.636719 36.28125 29.324219 36.839844 28.40625 C 37.398438 27.492188 38.785156 27.320312 39.941406 28.023438 Z M 39.941406 28.023438 "/><path style=" stroke:none;fill-rule:nonzero;fill:rgb(94.117647%,59.607846%,4.705882%);fill-opacity:1;" d="M 37.328125 29.023438 C 37.769531 28.300781 38.710938 28.066406 39.433594 28.507812 C 40.308594 29.042969 40.234375 30.140625 39.949219 30.613281 C 39.507812 31.335938 38.566406 31.570312 37.84375 31.128906 C 37.117188 30.6875 36.890625 29.746094 37.328125 29.023438 Z M 37.328125 29.023438 "/><path style=" stroke:none;fill-rule:nonzero;fill:rgb(94.117647%,59.607846%,4.705882%);fill-opacity:1;" d="M 46.261719 29.800781 L 46.214844 26.84375 L 49.175781 26.800781 "/><path style=" stroke:none;fill-rule:nonzero;fill:rgb(94.117647%,59.607846%,4.705882%);fill-opacity:1;" d="M 43.296875 26.886719 L 46.257812 26.84375 L 46.210938 23.886719 "/><path style=" stroke:none;fill-rule:nonzero;fill:rgb(64.313728%,40.392157%,3.137255%);fill-opacity:1;" d="M 46.664062 26.839844 C 46.667969 27.085938 46.46875 27.289062 46.222656 27.292969 C 45.976562 27.292969 45.777344 27.097656 45.773438 26.851562 C 45.769531 26.605469 45.964844 26.402344 46.210938 26.398438 C 46.457031 26.398438 46.660156 26.59375 46.664062 26.839844 Z M 46.664062 26.839844 "/><path style=" stroke:none;fill-rule:nonzero;fill:rgb(64.313728%,40.392157%,3.137255%);fill-opacity:1;" d="M 34.21875 25.003906 L 39.9375 19.746094 L 39.949219 39.820312 L 24.273438 39.742188 L 24.488281 19.390625 L 30.089844 25.007812 Z M 34.21875 25.003906 "/><path style=" stroke:none;fill-rule:nonzero;fill:rgb(94.117647%,59.607846%,4.705882%);fill-opacity:1;" d="M 24.917969 20.492188 L 26.382812 25.410156 L 25.078125 25.050781 Z M 24.917969 20.492188 "/><path style=" stroke:none;fill-rule:nonzero;fill:rgb(94.117647%,59.607846%,4.705882%);fill-opacity:1;" d="M 39.570312 25.226562 L 39.546875 20.664062 L 38.28125 25.660156 "/><path style=" stroke:none;fill-rule:nonzero;fill:rgb(94.117647%,59.607846%,4.705882%);fill-opacity:1;" d="M 32.421875 34.046875 L 31.578125 34.046875 L 30.542969 33.007812 L 30.902344 32.625 L 33.136719 32.625 L 33.488281 32.972656 Z M 32.421875 34.046875 "/><path style="fill:none;stroke-width:5;stroke-linecap:butt;stroke-linejoin:miter;stroke:rgb(94.117647%,59.607846%,4.705882%);stroke-opacity:1;stroke-miterlimit:10;" d="M 506.414527 496.685903 C 506.414527 508.372609 486.736175 517.911025 462.331582 517.911025 " transform="matrix(0.0454576,0,0,0.0454576,9.018658,12.117148)"/><path style="fill:none;stroke-width:5;stroke-linecap:butt;stroke-linejoin:miter;stroke:rgb(94.117647%,59.607846%,4.705882%);stroke-opacity:1;stroke-miterlimit:10;" d="M 506.414527 496.685903 C 506.414527 508.372609 526.178811 517.825093 550.583405 517.825093 " transform="matrix(0.0454576,0,0,0.0454576,9.018658,12.117148)"/><path style="fill:none;stroke-width:4;stroke-linecap:butt;stroke-linejoin:miter;stroke:rgb(100%,100%,100%);stroke-opacity:1;stroke-miterlimit:10;" d="M 361.877461 406.027992 C 393.75811 376.295635 443.68441 378.014269 473.502698 409.894917 " transform="matrix(0.0454576,0,0,0.0454576,9.018658,12.117148)"/><path style="fill:none;stroke-width:4;stroke-linecap:butt;stroke-linejoin:miter;stroke:rgb(100%,100%,100%);stroke-opacity:1;stroke-miterlimit:10;" d="M 642.874017 405.684266 C 610.907436 376.03784 560.981137 377.928337 531.334711 409.894917 " transform="matrix(0.0454576,0,0,0.0454576,9.018658,12.117148)"/><path style="fill:none;stroke-width:2;stroke-linecap:butt;stroke-linejoin:miter;stroke:rgb(100%,100%,100%);stroke-opacity:1;stroke-miterlimit:10;" d="M 466.542233 490.069164 C 466.542233 479.671432 427.615188 471.33606 379.579385 471.421992 " transform="matrix(0.0454576,0,0,0.0454576,9.018658,12.117148)"/><path style="fill:none;stroke-width:2;stroke-linecap:butt;stroke-linejoin:miter;stroke:rgb(100%,100%,100%);stroke-opacity:1;stroke-miterlimit:10;" d="M 462.159718 493.420499 C 462.159718 489.467642 417.389319 486.374102 361.877461 486.460034 " transform="matrix(0.0454576,0,0,0.0454576,9.018658,12.117148)"/><path style="fill:none;stroke-width:2;stroke-linecap:butt;stroke-linejoin:miter;stroke:rgb(100%,100%,100%);stroke-opacity:1;stroke-miterlimit:10;" d="M 466.542233 502.271461 C 466.542233 505.021274 429.505684 507.341429 383.790037 507.341429 " transform="matrix(0.0454576,0,0,0.0454576,9.018658,12.117148)"/><path style="fill:none;stroke-width:2;stroke-linecap:butt;stroke-linejoin:miter;stroke:rgb(100%,100%,100%);stroke-opacity:1;stroke-miterlimit:10;" d="M 538.896698 490.584754 C 538.896698 480.187022 577.823744 471.765719 625.773615 471.679787 " transform="matrix(0.0454576,0,0,0.0454576,9.018658,12.117148)"/><path style="fill:none;stroke-width:2;stroke-linecap:butt;stroke-linejoin:miter;stroke:rgb(100%,100%,100%);stroke-opacity:1;stroke-miterlimit:10;" d="M 543.10735 493.936089 C 543.10735 489.983232 587.877749 486.803761 643.303675 486.717829 " transform="matrix(0.0454576,0,0,0.0454576,9.018658,12.117148)"/><path style="fill:none;stroke-width:2;stroke-linecap:butt;stroke-linejoin:miter;stroke:rgb(100%,100%,100%);stroke-opacity:1;stroke-miterlimit:10;" d="M 538.896698 502.872983 C 538.896698 505.622796 575.933247 507.771088 621.562963 507.685156 " transform="matrix(0.0454576,0,0,0.0454576,9.018658,12.117148)"/></svg>
