<svg width="64" height="64" viewBox="0 0 64 64" version="1.1" xmlns:inkscape="http://www.inkscape.org/namespaces/inkscape"><defs><linearGradient id="linear0" gradientUnits="userSpaceOnUse" x1="0" y1="0" x2="0" y2="1" gradientTransform="matrix(56,0,0,35.898438,4,14.050781)"><stop offset="0" style="stop-color:rgb(82.352942%,61.176473%,100%);stop-opacity:1;"/><stop offset="1" style="stop-color:rgb(66.666669%,0%,100%);stop-opacity:1;"/></linearGradient><filter style="color-interpolation-filters:sRGB;" inkscape:label="Diffuse Light" id="filter184" x="-0.0375" y="-0.0375" width="1.075" height="1.075"><feGaussianBlur in="SourceGraphic" stdDeviation="1" result="blur" id="feGaussianBlur174" /><feDiffuseLighting diffuseConstant="1" surfaceScale="10" lighting-color="rgb(255,255,255)" result="diffuse" id="feDiffuseLighting178"><feDistantLight elevation="8" azimuth="235" id="feDistantLight176" /></feDiffuseLighting><feComposite in="diffuse" in2="diffuse" operator="arithmetic" k1="1" result="composite1" id="feComposite180" /><feComposite in="composite1" in2="SourceGraphic" k1="1" operator="arithmetic" k3="1" result="composite2" id="feComposite182" /></filter></defs><g id="surface1" style="filter:url(#filter184)"><path style=" stroke:none;fill-rule:nonzero;fill:url(#linear0);" d="M 22.671875 13.5625 L 17.339844 24.230469 L 18.671875 24.230469 L 22.671875 16.230469 L 26.671875 24.230469 L 28.007812 24.230469 Z M 22.671875 18.898438 L 18.671875 26.898438 L 2.808594 26.898438 C 1.839844 29.914062 1.34375 33.0625 1.339844 36.230469 C 1.351562 39.398438 1.855469 42.546875 2.832031 45.5625 L 28.035156 45.5625 L 32.035156 52.230469 L 36.035156 45.5625 L 61.234375 45.5625 C 62.203125 42.546875 62.695312 39.398438 62.699219 36.230469 C 62.6875 33.058594 62.183594 29.910156 61.207031 26.898438 L 45.339844 26.898438 L 41.339844 18.898438 L 37.339844 26.898438 L 26.671875 26.898438 Z M 22.671875 18.898438 "/><path style=" stroke:none;fill-rule:nonzero;fill:rgb(86.666667%,86.666667%,86.666667%);fill-opacity:1;" d="M 23.972656 33.890625 L 23.972656 40.558594 L 27.972656 40.558594 L 27.972656 33.890625 Z M 35.972656 33.890625 L 35.972656 40.558594 L 39.972656 40.558594 L 39.972656 33.890625 Z M 35.972656 33.890625 "/></g></svg>
