<svg width="64" height="64" viewBox="0 0 64 64" version="1.1" xmlns:inkscape="http://www.inkscape.org/namespaces/inkscape"><defs><linearGradient id="linear0" gradientUnits="userSpaceOnUse" x1="0" y1="0" x2="0" y2="1" gradientTransform="matrix(42.617188,0,0,64,10.691406,0)"><stop offset="0" style="stop-color:rgb(100%,56.862748%,82.745099%);stop-opacity:1;"/><stop offset="1" style="stop-color:rgb(100%,0%,60.000002%);stop-opacity:1;"/></linearGradient><filter style="color-interpolation-filters:sRGB;" inkscape:label="Diffuse Light" id="filter184" x="-0.0375" y="-0.0375" width="1.075" height="1.075"><feGaussianBlur in="SourceGraphic" stdDeviation="1" result="blur" id="feGaussianBlur174" /><feDiffuseLighting diffuseConstant="1" surfaceScale="10" lighting-color="rgb(255,255,255)" result="diffuse" id="feDiffuseLighting178"><feDistantLight elevation="8" azimuth="235" id="feDistantLight176" /></feDiffuseLighting><feComposite in="diffuse" in2="diffuse" operator="arithmetic" k1="1" result="composite1" id="feComposite180" /><feComposite in="composite1" in2="SourceGraphic" k1="1" operator="arithmetic" k3="1" result="composite2" id="feComposite182" /></filter></defs><g id="surface1" style="filter:url(#filter184)"><path style=" stroke:none;fill-rule:evenodd;fill:url(#linear0);" d="M 13.605469 18.101562 C 11.863281 18.875 10.691406 20.519531 10.691406 22.414062 C 10.691406 25.128906 13.09375 27.324219 16.046875 27.324219 C 17.300781 27.324219 18.449219 26.933594 19.339844 26.257812 C 20.234375 26.988281 21.429688 27.410156 22.722656 27.410156 C 23.84375 27.410156 24.882812 27.101562 25.761719 26.578125 C 26.644531 27.1875 27.742188 27.546875 28.9375 27.546875 C 30.15625 27.546875 31.277344 27.175781 32.164062 26.535156 C 33.054688 27.230469 34.222656 27.636719 35.488281 27.636719 C 36.566406 27.636719 37.570312 27.34375 38.421875 26.855469 C 39.285156 27.351562 40.304688 27.65625 41.398438 27.65625 C 42.617188 27.65625 43.738281 27.28125 44.628906 26.644531 C 45.519531 27.339844 46.683594 27.742188 47.953125 27.742188 C 50.90625 27.742188 53.308594 25.542969 53.308594 22.832031 C 53.308594 20.996094 52.207031 19.394531 50.558594 18.578125 C 50.335938 8.285156 42.140625 0 32.070312 0 C 22.164062 0 14.066406 8.023438 13.605469 18.101562 Z M 16.734375 29.121094 L 30.785156 63.296875 L 32.3125 64 L 47.066406 29.359375 Z M 16.734375 29.121094 "/></g></svg>
