<svg width="64" height="64" viewBox="0 0 64 64" version="1.1" xmlns:inkscape="http://www.inkscape.org/namespaces/inkscape"><defs><linearGradient id="linear0" gradientUnits="userSpaceOnUse" x1="0" y1="0" x2="0" y2="1" gradientTransform="matrix(56,0,0,35.898438,4,14.050781)"><stop offset="0" style="stop-color:rgb(61.176473%,69.803923%,85.09804%);stop-opacity:1;"/><stop offset="1" style="stop-color:rgb(44.313726%,52.156866%,65.882355%);stop-opacity:1;"/></linearGradient><filter style="color-interpolation-filters:sRGB;" inkscape:label="Diffuse Light" id="filter184" x="-0.0375" y="-0.0375" width="1.075" height="1.075"><feGaussianBlur in="SourceGraphic" stdDeviation="1" result="blur" id="feGaussianBlur174" /><feDiffuseLighting diffuseConstant="1" surfaceScale="10" lighting-color="rgb(255,255,255)" result="diffuse" id="feDiffuseLighting178"><feDistantLight elevation="8" azimuth="235" id="feDistantLight176" /></feDiffuseLighting><feComposite in="diffuse" in2="diffuse" operator="arithmetic" k1="1" result="composite1" id="feComposite180" /><feComposite in="composite1" in2="SourceGraphic" k1="1" operator="arithmetic" k3="1" result="composite2" id="feComposite182" /></filter></defs><g id="surface1" style="filter:url(#filter184)"><path style=" stroke:none;fill-rule:nonzero;fill:url(#linear0);" d="M 7.003906 9.359375 L 7.003906 56.621094 L 11.363281 56.621094 L 11.363281 9.359375 Z M 13.542969 9.359375 L 13.542969 56.621094 L 17.902344 56.621094 L 17.902344 26.546875 L 20.082031 56.621094 L 24.441406 56.621094 L 26.621094 26.546875 L 26.621094 56.621094 L 30.980469 56.621094 L 30.980469 9.359375 L 24.441406 9.359375 L 22.261719 30.84375 L 20.082031 9.359375 Z M 33.160156 9.359375 L 33.160156 56.621094 L 39.699219 56.621094 C 42.117188 56.621094 44.058594 52.789062 44.058594 48.027344 L 44.058594 17.953125 C 44.058594 13.183594 42.113281 9.359375 39.699219 9.359375 Z M 46.238281 9.359375 L 46.238281 56.621094 L 49.945312 56.621094 L 50.601562 52.324219 C 50.601562 54.707031 52.058594 56.621094 53.871094 56.621094 C 55.679688 56.621094 57.140625 53.746094 57.140625 50.175781 L 57.140625 28.695312 C 57.140625 25.125 55.679688 22.25 53.871094 22.25 C 52.058594 22.25 50.601562 24.164062 50.601562 26.546875 L 50.601562 9.359375 Z M 37.519531 17.953125 L 38.609375 17.953125 C 39.214844 17.953125 39.699219 18.910156 39.699219 20.101562 L 39.699219 45.878906 C 39.699219 47.070312 39.214844 48.027344 38.609375 48.027344 L 37.519531 48.027344 Z M 51.6875 30.84375 C 52.292969 30.84375 52.777344 31.800781 52.777344 32.992188 L 52.777344 45.878906 C 52.777344 47.070312 52.292969 48.027344 51.6875 48.027344 C 51.085938 48.027344 50.597656 47.070312 50.597656 45.878906 L 50.597656 32.992188 C 50.597656 31.800781 51.085938 30.84375 51.6875 30.84375 Z M 51.6875 30.84375 "/></g></svg>
