<!-- color: #66d511 --><svg width="64" height="64" viewBox="0 0 64 64" version="1.1" xmlns:inkscape="http://www.inkscape.org/namespaces/inkscape"><defs><linearGradient id="linear0" gradientUnits="userSpaceOnUse" x1="0" y1="0" x2="0" y2="1" gradientTransform="matrix(79.619753,0,0,41.028538,-8.465363,11.399486)"><stop offset="0" style="stop-color:rgb(92.941177%,83.529413%,72.549021%);stop-opacity:1;"/><stop offset="1" style="stop-color:rgb(81.960785%,71.372551%,59.215689%);stop-opacity:1;"/></linearGradient><filter style="color-interpolation-filters:sRGB;" inkscape:label="Diffuse Light" id="filter184" x="-0.0375" y="-0.0375" width="1.075" height="1.075"><feGaussianBlur in="SourceGraphic" stdDeviation="1" result="blur" id="feGaussianBlur174" /><feDiffuseLighting diffuseConstant="1" surfaceScale="10" lighting-color="rgb(255,255,255)" result="diffuse" id="feDiffuseLighting178"><feDistantLight elevation="8" azimuth="235" id="feDistantLight176" /></feDiffuseLighting><feComposite in="diffuse" in2="diffuse" operator="arithmetic" k1="1" result="composite1" id="feComposite180" /><feComposite in="composite1" in2="SourceGraphic" k1="1" operator="arithmetic" k3="1" result="composite2" id="feComposite182" /></filter></defs><g id="surface1" style="filter:url(#filter184)"><path style=" stroke:none;fill-rule:nonzero;fill:url(#linear0);" d="M 32.496094 1.871094 C 17.660156 1.871094 5.628906 13.292969 5.628906 27.386719 C 5.628906 41.476562 17.660156 52.898438 32.496094 52.898438 L 32.496094 62.175781 C 32.496094 62.175781 59.351562 52.898438 59.351562 27.386719 C 59.351562 13.292969 47.328125 1.871094 32.496094 1.871094 M 25.167969 18.105469 C 26.519531 18.105469 27.605469 19.140625 27.605469 20.425781 L 27.605469 36.664062 L 44.703125 36.664062 C 46.054688 36.664062 47.144531 37.695312 47.144531 38.980469 C 47.144531 40.265625 46.054688 41.300781 44.703125 41.300781 L 25.167969 41.300781 C 23.8125 41.300781 22.726562 40.265625 22.726562 38.980469 L 22.726562 20.425781 C 22.726562 19.140625 23.8125 18.105469 25.167969 18.105469 Z M 25.167969 18.105469 "/></g></svg>
