<svg width="64" height="64" viewBox="0 0 64 64" version="1.1" xmlns:inkscape="http://www.inkscape.org/namespaces/inkscape"><defs><linearGradient id="linear0" gradientUnits="userSpaceOnUse" x1="0" y1="0" x2="0" y2="1" gradientTransform="matrix(66.903841,0,0,44.1192,-2.462582,9.239099)"><stop offset="0" style="stop-color:rgb(41.960785%,64.313728%,100%);stop-opacity:1;"/><stop offset="1" style="stop-color:rgb(0%,43.137255%,100%);stop-opacity:1;"/></linearGradient><filter style="color-interpolation-filters:sRGB;" inkscape:label="Diffuse Light" id="filter184" x="-0.0375" y="-0.0375" width="1.075" height="1.075"><feGaussianBlur in="SourceGraphic" stdDeviation="1" result="blur" id="feGaussianBlur174" /><feDiffuseLighting diffuseConstant="1" surfaceScale="10" lighting-color="rgb(255,255,255)" result="diffuse" id="feDiffuseLighting178"><feDistantLight elevation="8" azimuth="235" id="feDistantLight176" /></feDiffuseLighting><feComposite in="diffuse" in2="diffuse" operator="arithmetic" k1="1" result="composite1" id="feComposite180" /><feComposite in="composite1" in2="SourceGraphic" k1="1" operator="arithmetic" k3="1" result="composite2" id="feComposite182" /></filter></defs><g id="surface1" style="filter:url(#filter184)"><path style=" stroke:none;fill-rule:nonzero;fill:url(#linear0);" d="M 16.601562 1.902344 C 12.714844 1.902344 8.828125 3.652344 5.847656 7.136719 C -0.105469 14.105469 -0.105469 25.335938 5.847656 32.308594 L 31.792969 62.144531 L 57.730469 32.308594 C 63.683594 25.335938 63.683594 14.105469 57.730469 7.136719 C 54.753906 3.652344 50.867188 1.902344 46.984375 1.902344 C 43.09375 1.902344 39.207031 3.652344 36.230469 7.136719 L 31.792969 12.335938 L 27.347656 7.136719 C 24.371094 3.652344 20.488281 1.902344 16.601562 1.902344 Z M 16.59375 12.859375 C 18.085938 12.859375 19.578125 13.527344 20.726562 14.871094 L 25.175781 20.078125 L 16.90625 29.757812 L 12.457031 24.546875 C 10.164062 21.863281 10.164062 17.550781 12.457031 14.871094 C 13.601562 13.527344 15.09375 12.859375 16.59375 12.859375 Z M 46.988281 12.859375 C 48.484375 12.859375 49.980469 13.527344 51.121094 14.871094 C 53.414062 17.550781 53.414062 21.863281 51.121094 24.546875 L 31.789062 47.175781 L 23.523438 37.5 L 42.851562 14.871094 C 44 13.527344 45.492188 12.859375 46.988281 12.859375 Z M 46.988281 12.859375 "/></g></svg>
