<svg width="64" height="64" viewBox="0 0 64 64" version="1.1" xmlns:inkscape="http://www.inkscape.org/namespaces/inkscape"><defs><linearGradient id="linear0" gradientUnits="userSpaceOnUse" x1="0" y1="0" x2="0" y2="1" gradientTransform="matrix(75.427774,0,0,42.810855,-9.08908,11.408608)"><stop offset="0" style="stop-color:rgb(81.960785%,70.980394%,59.215689%);stop-opacity:1;"/><stop offset="1" style="stop-color:rgb(65.098041%,53.725493%,41.568628%);stop-opacity:1;"/></linearGradient><linearGradient id="linear1" gradientUnits="userSpaceOnUse" x1="0" y1="0" x2="0" y2="1" gradientTransform="matrix(75.427774,0,0,42.810855,-9.08908,11.408608)"><stop offset="0" style="stop-color:rgb(81.960785%,70.980394%,59.215689%);stop-opacity:1;"/><stop offset="1" style="stop-color:rgb(65.098041%,53.725493%,41.568628%);stop-opacity:1;"/></linearGradient><filter style="color-interpolation-filters:sRGB;" inkscape:label="Diffuse Light" id="filter184" x="-0.0375" y="-0.0375" width="1.075" height="1.075"><feGaussianBlur in="SourceGraphic" stdDeviation="1" result="blur" id="feGaussianBlur174" /><feDiffuseLighting diffuseConstant="1" surfaceScale="10" lighting-color="rgb(255,255,255)" result="diffuse" id="feDiffuseLighting178"><feDistantLight elevation="8" azimuth="235" id="feDistantLight176" /></feDiffuseLighting><feComposite in="diffuse" in2="diffuse" operator="arithmetic" k1="1" result="composite1" id="feComposite180" /><feComposite in="composite1" in2="SourceGraphic" k1="1" operator="arithmetic" k3="1" result="composite2" id="feComposite182" /></filter></defs><g id="surface1" style="filter:url(#filter184)"><path style=" stroke:none;fill-rule:nonzero;fill:url(#linear0);" d="M 30.585938 1.480469 C 28.28125 1.480469 26.019531 1.738281 23.863281 2.183594 C 14.78125 29.207031 34.917969 52.230469 60.984375 41.753906 C 61.972656 38.78125 62.511719 35.605469 62.511719 32.300781 C 62.511719 15.269531 48.234375 1.484375 30.585938 1.484375 M 30.585938 1.484375 "/><path style=" stroke:none;fill-rule:nonzero;fill:url(#linear1);" d="M 9.945312 13.433594 C -0.980469 23.394531 -1.839844 41.074219 8.011719 52.925781 C 17.863281 64.761719 34.707031 66.289062 45.625 56.339844 C 48.628906 53.59375 50.863281 50.273438 52.328125 46.652344 C 42.746094 49.367188 31.933594 46.210938 24.789062 37.621094 C 17.640625 29.035156 16.140625 17.371094 20.023438 7.816406 C 16.390625 8.851562 12.941406 10.707031 9.945312 13.449219 M 9.945312 13.433594 "/></g></svg>
