<svg width="64" height="64" viewBox="0 0 64 64" version="1.1" xmlns:inkscape="http://www.inkscape.org/namespaces/inkscape"><defs><linearGradient id="linear0" gradientUnits="userSpaceOnUse" x1="0" y1="0" x2="0" y2="1" gradientTransform="matrix(49.773438,0,0,64,7.113281,0)"><stop offset="0" style="stop-color:rgb(92.941177%,83.529413%,72.549021%);stop-opacity:1;"/><stop offset="1" style="stop-color:rgb(81.960785%,71.372551%,59.215689%);stop-opacity:1;"/></linearGradient><filter style="color-interpolation-filters:sRGB;" inkscape:label="Diffuse Light" id="filter184" x="-0.0375" y="-0.0375" width="1.075" height="1.075"><feGaussianBlur in="SourceGraphic" stdDeviation="1" result="blur" id="feGaussianBlur174" /><feDiffuseLighting diffuseConstant="1" surfaceScale="10" lighting-color="rgb(255,255,255)" result="diffuse" id="feDiffuseLighting178"><feDistantLight elevation="8" azimuth="235" id="feDistantLight176" /></feDiffuseLighting><feComposite in="diffuse" in2="diffuse" operator="arithmetic" k1="1" result="composite1" id="feComposite180" /><feComposite in="composite1" in2="SourceGraphic" k1="1" operator="arithmetic" k3="1" result="composite2" id="feComposite182" /></filter></defs><g id="surface1" style="filter:url(#filter184)"><path style=" stroke:none;fill-rule:nonzero;fill:url(#linear0);" d="M 56.886719 59.074219 C 51.144531 62.132812 44.816406 63.972656 38.820312 64 C 29.070312 64 21.351562 61.136719 15.65625 55.40625 C 9.960938 49.648438 7.113281 41.855469 7.113281 32.019531 C 7.113281 22.160156 9.960938 14.363281 15.65625 8.636719 C 21.351562 2.878906 29.070312 0 38.820312 0 C 45.339844 0.0703125 51.613281 2.066406 56.886719 4.925781 L 56.886719 18.0625 C 51.710938 14.941406 45.621094 13.011719 40.035156 12.976562 C 34.652344 12.976562 29.210938 14.796875 26.128906 18.433594 C 23.042969 22.066406 21.503906 25.632812 21.503906 32.019531 C 21.503906 38.382812 23.042969 41.933594 26.128906 45.566406 C 29.210938 49.203125 34.652344 51.023438 40.035156 51.023438 C 46.039062 50.679688 52.542969 48.988281 56.886719 45.9375 Z M 56.886719 59.074219 "/></g></svg>
