<svg width="64" height="64" viewBox="0 0 64 64" version="1.1" xmlns:inkscape="http://www.inkscape.org/namespaces/inkscape"><defs><linearGradient id="linear0" gradientUnits="userSpaceOnUse" x1="0" y1="0" x2="0" y2="1" gradientTransform="matrix(64,0,0,51.203125,0,6.398438)"><stop offset="0" style="stop-color:rgb(100%,63.137257%,63.137257%);stop-opacity:1;"/><stop offset="1" style="stop-color:rgb(100%,27.843139%,27.843139%);stop-opacity:1;"/></linearGradient><filter style="color-interpolation-filters:sRGB;" inkscape:label="Diffuse Light" id="filter184" x="-0.0375" y="-0.0375" width="1.075" height="1.075"><feGaussianBlur in="SourceGraphic" stdDeviation="1" result="blur" id="feGaussianBlur174" /><feDiffuseLighting diffuseConstant="1" surfaceScale="10" lighting-color="rgb(255,255,255)" result="diffuse" id="feDiffuseLighting178"><feDistantLight elevation="8" azimuth="235" id="feDistantLight176" /></feDiffuseLighting><feComposite in="diffuse" in2="diffuse" operator="arithmetic" k1="1" result="composite1" id="feComposite180" /><feComposite in="composite1" in2="SourceGraphic" k1="1" operator="arithmetic" k3="1" result="composite2" id="feComposite182" /></filter></defs><g id="surface1" style="filter:url(#filter184)"><path style=" stroke:none;fill-rule:evenodd;fill:url(#linear0);" d="M 21.230469 28.46875 L 6.398438 19.199219 L 6.398438 51.199219 L 57.601562 51.199219 L 57.601562 19.199219 L 43.480469 28.023438 L 43.480469 27.679688 C 43.480469 25.828125 43.003906 24.046875 42.121094 22.476562 L 57.601562 12.800781 L 6.398438 12.800781 L 23.125 23.253906 C 22.496094 24.625 22.160156 26.128906 22.160156 27.679688 L 22.160156 28.160156 C 21.835938 28.226562 21.523438 28.332031 21.230469 28.46875 Z M 57.601562 6.398438 L 6.398438 6.398438 C 2.878906 6.398438 0.03125 9.28125 0.03125 12.800781 L 0 51.199219 C 0 54.71875 2.878906 57.601562 6.398438 57.601562 L 57.601562 57.601562 C 61.121094 57.601562 64 54.71875 64 51.199219 L 64 12.800781 C 64 9.28125 61.121094 6.398438 57.601562 6.398438 Z M 32.832031 36.597656 C 34.003906 36.597656 34.953125 37.542969 34.953125 38.71875 C 34.953125 39.410156 34.617188 40.015625 34.105469 40.402344 L 34.105469 42.113281 C 34.105469 42.8125 33.53125 43.382812 32.832031 43.382812 C 32.132812 43.382812 31.554688 42.8125 31.554688 42.113281 L 31.554688 40.402344 C 31.023438 40.007812 30.710938 39.382812 30.707031 38.71875 C 30.707031 37.542969 31.65625 36.597656 32.832031 36.597656 Z M 32.832031 24.714844 C 34.441406 24.714844 35.800781 26.074219 35.800781 27.6875 L 35.800781 30.65625 L 29.859375 30.65625 L 29.859375 27.6875 C 29.859375 26.074219 31.21875 24.714844 32.832031 24.714844 Z M 32.832031 19.625 C 28.390625 19.625 24.769531 23.246094 24.769531 27.6875 L 24.769531 30.65625 L 23.070312 30.65625 C 22.136719 30.65625 21.375 31.421875 21.375 32.351562 L 21.375 46.78125 C 21.375 47.714844 22.136719 48.476562 23.070312 48.476562 L 42.589844 48.476562 C 43.523438 48.476562 44.289062 47.714844 44.289062 46.78125 L 44.289062 32.351562 C 44.289062 31.421875 43.523438 30.65625 42.589844 30.65625 L 40.890625 30.65625 L 40.890625 27.6875 C 40.890625 23.246094 37.269531 19.625 32.832031 19.625 Z M 32.832031 19.625 "/></g></svg>
