<svg width="64" height="64" viewBox="0 0 64 64" version="1.1" xmlns:inkscape="http://www.inkscape.org/namespaces/inkscape"><defs><linearGradient id="linear0" gradientUnits="userSpaceOnUse" x1="0" y1="0" x2="0" y2="1" gradientTransform="matrix(64,0,0,51.648438,0,6.351562)"><stop offset="0" style="stop-color:rgb(92.941177%,83.529413%,72.549021%);stop-opacity:1;"/><stop offset="1" style="stop-color:rgb(81.960785%,71.372551%,59.215689%);stop-opacity:1;"/></linearGradient><filter style="color-interpolation-filters:sRGB;" inkscape:label="Diffuse Light" id="filter184" x="-0.0375" y="-0.0375" width="1.075" height="1.075"><feGaussianBlur in="SourceGraphic" stdDeviation="1" result="blur" id="feGaussianBlur174" /><feDiffuseLighting diffuseConstant="1" surfaceScale="10" lighting-color="rgb(255,255,255)" result="diffuse" id="feDiffuseLighting178"><feDistantLight elevation="8" azimuth="235" id="feDistantLight176" /></feDiffuseLighting><feComposite in="diffuse" in2="diffuse" operator="arithmetic" k1="1" result="composite1" id="feComposite180" /><feComposite in="composite1" in2="SourceGraphic" k1="1" operator="arithmetic" k3="1" result="composite2" id="feComposite182" /></filter></defs><g id="surface1" style="filter:url(#filter184)"><path style=" stroke:none;fill-rule:evenodd;fill:url(#linear0);" d="M 0 50 L 64 50 L 64 58 L 0 58 Z M 18.578125 42.066406 C 16.507812 42.066406 14.632812 41.722656 12.957031 41.03125 C 11.277344 40.339844 9.90625 39.421875 8.835938 38.273438 C 7.765625 37.121094 6.871094 35.753906 6.148438 34.175781 C 5.425781 32.597656 4.90625 30.984375 4.59375 29.339844 C 4.28125 27.695312 4.125 25.984375 4.125 24.207031 C 4.125 22.105469 4.386719 20.050781 4.914062 18.042969 C 5.441406 16.035156 6.246094 14.136719 7.332031 12.34375 C 8.417969 10.550781 9.929688 9.105469 11.871094 8.003906 C 13.8125 6.902344 16.046875 6.351562 18.578125 6.351562 C 21.636719 6.351562 24.203125 7.066406 26.277344 8.496094 C 28.347656 9.929688 29.796875 11.664062 30.621094 13.699219 L 25.292969 16.121094 C 24.371094 14.703125 23.40625 13.667969 22.402344 13.011719 C 21.402344 12.351562 20.125 12.023438 18.578125 12.023438 C 17.066406 12.023438 15.742188 12.394531 14.609375 13.132812 C 13.476562 13.875 12.605469 14.859375 11.996094 16.09375 C 11.386719 17.328125 10.941406 18.625 10.664062 19.992188 C 10.382812 21.355469 10.242188 22.761719 10.242188 24.207031 C 10.242188 27.433594 10.957031 30.261719 12.386719 32.695312 C 13.820312 35.128906 15.882812 36.347656 18.578125 36.347656 C 21.210938 36.347656 23.414062 34.867188 25.191406 31.90625 L 30.667969 33.980469 C 28.269531 39.371094 24.238281 42.066406 18.578125 42.066406 Z M 59.875 41.476562 L 37.179688 41.476562 L 37.179688 6.945312 L 43.101562 6.945312 L 43.101562 35.804688 L 59.875 35.804688 Z M 59.875 41.476562 "/></g></svg>
