<svg width="64" height="64" viewBox="0 0 64 64" version="1.1" xmlns:inkscape="http://www.inkscape.org/namespaces/inkscape"><defs><linearGradient id="linear0" gradientUnits="userSpaceOnUse" x1="0" y1="0" x2="0" y2="1" gradientTransform="matrix(117.035614,0,0,73.597893,-26.150103,-4.647722)"><stop offset="0" style="stop-color:rgb(100%,73.333335%,0%);stop-opacity:1;"/><stop offset="1" style="stop-color:rgb(70.19608%,51.372552%,0%);stop-opacity:1;"/></linearGradient><linearGradient id="linear1" gradientUnits="userSpaceOnUse" x1="0" y1="0" x2="0" y2="1" gradientTransform="matrix(117.035614,0,0,73.597893,-26.150103,-4.647722)"><stop offset="0" style="stop-color:rgb(100%,73.333335%,0%);stop-opacity:1;"/><stop offset="1" style="stop-color:rgb(70.19608%,51.372552%,0%);stop-opacity:1;"/></linearGradient><filter style="color-interpolation-filters:sRGB;" inkscape:label="Diffuse Light" id="filter184" x="-0.0375" y="-0.0375" width="1.075" height="1.075"><feGaussianBlur in="SourceGraphic" stdDeviation="1" result="blur" id="feGaussianBlur174" /><feDiffuseLighting diffuseConstant="1" surfaceScale="10" lighting-color="rgb(255,255,255)" result="diffuse" id="feDiffuseLighting178"><feDistantLight elevation="8" azimuth="235" id="feDistantLight176" /></feDiffuseLighting><feComposite in="diffuse" in2="diffuse" operator="arithmetic" k1="1" result="composite1" id="feComposite180" /><feComposite in="composite1" in2="SourceGraphic" k1="1" operator="arithmetic" k3="1" result="composite2" id="feComposite182" /></filter></defs><g id="surface1" style="filter:url(#filter184)"><path style=" stroke:none;fill-rule:nonzero;fill:url(#linear0);" d="M 4.503906 2.078125 C 2.960938 2.078125 1.710938 3.304688 1.710938 4.816406 C 1.710938 6.332031 2.960938 7.550781 4.503906 7.550781 C 6.046875 7.550781 7.289062 6.332031 7.289062 4.816406 C 7.289062 3.304688 6.046875 2.078125 4.503906 2.078125 Z M 60.230469 2.078125 C 58.6875 2.078125 57.445312 3.304688 57.445312 4.816406 C 57.445312 6.332031 58.6875 7.550781 60.230469 7.550781 C 61.773438 7.550781 63.023438 6.332031 63.023438 4.816406 C 63.023438 3.304688 61.773438 2.078125 60.230469 2.078125 Z M 4.503906 56.753906 C 2.960938 56.753906 1.710938 57.96875 1.710938 59.484375 C 1.710938 60.996094 2.960938 62.222656 4.503906 62.222656 C 6.046875 62.222656 7.289062 60.996094 7.289062 59.484375 C 7.289062 57.96875 6.046875 56.753906 4.503906 56.753906 Z M 60.230469 56.753906 C 58.6875 56.753906 57.445312 57.96875 57.445312 59.484375 C 57.445312 60.996094 58.6875 62.222656 60.230469 62.222656 C 61.773438 62.222656 63.023438 60.996094 63.023438 59.484375 C 63.023438 57.96875 61.773438 56.753906 60.230469 56.753906 Z M 60.230469 56.753906 "/><path style=" stroke:none;fill-rule:nonzero;fill:url(#linear1);" d="M 26.792969 18.480469 L 15.648438 32.152344 L 26.792969 45.820312 L 28.1875 45.820312 L 21.222656 32.152344 L 28.1875 18.480469 Z M 36.546875 18.480469 L 43.511719 32.152344 L 36.546875 45.820312 L 37.945312 45.820312 L 49.085938 32.152344 L 37.945312 18.480469 Z M 36.546875 18.480469 "/></g></svg>
