<svg width="64" height="64" viewBox="0 0 64 64" version="1.1" xmlns:inkscape="http://www.inkscape.org/namespaces/inkscape"><defs><linearGradient id="linear0" gradientUnits="userSpaceOnUse" x1="0" y1="0" x2="0" y2="1" gradientTransform="matrix(63.913185,0,0,44.343763,-1.500727,9.475228)"><stop offset="0" style="stop-color:rgb(100%,56.862748%,82.745099%);stop-opacity:1;"/><stop offset="1" style="stop-color:rgb(100%,0%,60.000002%);stop-opacity:1;"/></linearGradient><filter style="color-interpolation-filters:sRGB;" inkscape:label="Diffuse Light" id="filter184" x="-0.0375" y="-0.0375" width="1.075" height="1.075"><feGaussianBlur in="SourceGraphic" stdDeviation="1" result="blur" id="feGaussianBlur174" /><feDiffuseLighting diffuseConstant="1" surfaceScale="10" lighting-color="rgb(255,255,255)" result="diffuse" id="feDiffuseLighting178"><feDistantLight elevation="8" azimuth="235" id="feDistantLight176" /></feDiffuseLighting><feComposite in="diffuse" in2="diffuse" operator="arithmetic" k1="1" result="composite1" id="feComposite180" /><feComposite in="composite1" in2="SourceGraphic" k1="1" operator="arithmetic" k3="1" result="composite2" id="feComposite182" /></filter></defs><g id="surface1" style="filter:url(#filter184)"><path style=" stroke:none;fill-rule:nonzero;fill:url(#linear0);" d="M 10.472656 7.835938 L 1.621094 20.046875 L 1.621094 44.46875 L 10.472656 56.679688 L 19.324219 56.679688 L 19.324219 44.46875 L 14.898438 44.46875 L 10.472656 38.363281 L 10.472656 26.152344 L 14.898438 20.046875 L 19.324219 20.046875 L 19.324219 7.835938 Z M 21.535156 7.835938 L 21.535156 56.679688 L 30.390625 56.679688 L 30.390625 40.53125 L 35.589844 56.679688 L 43.664062 56.679688 L 43.664062 7.835938 L 34.816406 7.835938 L 34.816406 23.984375 L 29.613281 7.835938 L 21.535156 7.835938 M 45.882812 7.835938 L 45.882812 20.046875 L 50.308594 20.046875 L 54.730469 26.152344 L 54.730469 38.363281 L 50.308594 44.46875 L 45.882812 44.46875 L 45.882812 56.679688 L 54.730469 56.679688 L 63.585938 44.46875 L 63.585938 20.046875 L 54.730469 7.835938 Z M 23.75 10.890625 L 28.175781 10.890625 L 37.027344 38.363281 L 37.027344 10.890625 L 41.453125 10.890625 L 41.453125 53.625 L 37.027344 53.625 L 28.175781 26.152344 L 28.175781 53.625 L 23.75 53.625 Z M 23.75 10.890625 "/></g></svg>
