<svg width="64" height="64" viewBox="0 0 64 64" version="1.1" xmlns:inkscape="http://www.inkscape.org/namespaces/inkscape"><defs><linearGradient id="linear0" gradientUnits="userSpaceOnUse" x1="0" y1="0" x2="0" y2="1" gradientTransform="matrix(61.442968,0,0,39.788184,2.513248,12.741992)"><stop offset="0" style="stop-color:rgb(75.686276%,77.64706%,83.92157%);stop-opacity:1;"/><stop offset="1" style="stop-color:rgb(43.529412%,45.09804%,50.196081%);stop-opacity:1;"/></linearGradient><filter style="color-interpolation-filters:sRGB;" inkscape:label="Diffuse Light" id="filter184" x="-0.0375" y="-0.0375" width="1.075" height="1.075"><feGaussianBlur in="SourceGraphic" stdDeviation="1" result="blur" id="feGaussianBlur174" /><feDiffuseLighting diffuseConstant="1" surfaceScale="10" lighting-color="rgb(255,255,255)" result="diffuse" id="feDiffuseLighting178"><feDistantLight elevation="8" azimuth="235" id="feDistantLight176" /></feDiffuseLighting><feComposite in="diffuse" in2="diffuse" operator="arithmetic" k1="1" result="composite1" id="feComposite180" /><feComposite in="composite1" in2="SourceGraphic" k1="1" operator="arithmetic" k3="1" result="composite2" id="feComposite182" /></filter></defs><g id="surface1" style="filter:url(#filter184)"><path style=" stroke:none;fill-rule:nonzero;fill:url(#linear0);" d="M 31.40625 1.300781 C 16.066406 1.300781 3.722656 14.09375 3.722656 29.992188 L 3.722656 34.769531 C 3.722656 50.667969 16.066406 63.457031 31.40625 63.457031 L 45.25 63.457031 L 45.25 53.894531 L 31.40625 53.894531 C 21.1875 53.894531 12.949219 45.359375 12.949219 34.769531 L 12.949219 29.992188 C 12.949219 19.394531 21.1875 10.863281 31.40625 10.863281 L 45.25 10.863281 L 45.25 1.300781 Z M 38.328125 15.644531 C 31.9375 15.644531 26.792969 20.976562 26.792969 27.597656 L 26.792969 37.160156 C 26.792969 43.785156 31.9375 49.113281 38.328125 49.113281 L 59.089844 49.113281 L 59.089844 44.335938 L 38.328125 44.335938 C 34.5 44.335938 31.40625 41.128906 31.40625 37.160156 L 31.40625 34.769531 L 59.089844 34.769531 L 59.089844 29.992188 L 31.40625 29.992188 L 31.40625 27.597656 C 31.40625 23.628906 34.5 20.425781 38.328125 20.425781 L 59.089844 20.425781 L 59.089844 15.644531 Z M 38.328125 15.644531 "/></g></svg>
