<svg width="64" height="64" viewBox="0 0 64 64" version="1.1" xmlns:inkscape="http://www.inkscape.org/namespaces/inkscape"><defs><linearGradient id="linear0" gradientUnits="userSpaceOnUse" x1="0" y1="0" x2="0" y2="1" gradientTransform="matrix(66.108062,0,0,42.847384,-0.188863,7.288437)"><stop offset="0" style="stop-color:rgb(92.941177%,83.529413%,72.549021%);stop-opacity:1;"/><stop offset="1" style="stop-color:rgb(81.960785%,71.372551%,59.215689%);stop-opacity:1;"/></linearGradient><filter style="color-interpolation-filters:sRGB;" inkscape:label="Diffuse Light" id="filter184" x="-0.0375" y="-0.0375" width="1.075" height="1.075"><feGaussianBlur in="SourceGraphic" stdDeviation="1" result="blur" id="feGaussianBlur174" /><feDiffuseLighting diffuseConstant="1" surfaceScale="10" lighting-color="rgb(255,255,255)" result="diffuse" id="feDiffuseLighting178"><feDistantLight elevation="8" azimuth="235" id="feDistantLight176" /></feDiffuseLighting><feComposite in="diffuse" in2="diffuse" operator="arithmetic" k1="1" result="composite1" id="feComposite180" /><feComposite in="composite1" in2="SourceGraphic" k1="1" operator="arithmetic" k3="1" result="composite2" id="feComposite182" /></filter></defs><g id="surface1" style="filter:url(#filter184)"><path style=" stroke:none;fill-rule:nonzero;fill:url(#linear0);" d="M 27.972656 0.574219 C 13.113281 0.574219 1.070312 12.792969 1.070312 27.867188 L 16.109375 27.867188 C 17.609375 21.964844 22.152344 17.355469 27.972656 15.820312 L 27.972656 0.574219 M 36.25 0.574219 L 36.25 15.828125 C 42.070312 17.359375 46.617188 21.964844 48.128906 27.867188 L 63.148438 27.867188 C 63.148438 12.792969 51.109375 0.574219 36.25 0.574219 M 32.109375 21.574219 C 26.394531 21.574219 21.765625 26.273438 21.765625 32.070312 C 21.765625 37.867188 26.394531 42.570312 32.109375 42.570312 C 37.828125 42.570312 42.457031 37.867188 42.457031 32.070312 C 42.457031 26.273438 37.828125 21.574219 32.109375 21.574219 Z M 1.070312 36.269531 C 1.070312 51.34375 13.113281 63.5625 27.972656 63.5625 L 27.972656 48.308594 C 22.152344 46.777344 17.605469 42.171875 16.09375 36.269531 L 1.070312 36.269531 M 48.113281 36.269531 C 46.613281 42.171875 42.070312 46.789062 36.25 48.316406 L 36.25 63.5625 C 51.109375 63.5625 63.148438 51.34375 63.148438 36.269531 Z M 48.113281 36.269531 "/></g></svg>
