<svg xmlns="http://www.w3.org/2000/svg" xmlns:xlink="http://www.w3.org/1999/xlink" width="64" height="64" viewBox="0 0 64 64" version="1.1"><defs><filter id="alpha" filterUnits="objectBoundingBox" x="0%" y="0%" width="100%" height="100%"> <feColorMatrix type="matrix" in="SourceGraphic" values="0 0 0 0 1 0 0 0 0 1 0 0 0 0 1 0 0 0 1 0"/></filter><mask id="mask0"><rect x="0" y="0" width="64" height="64" style="fill:rgb(0%,0%,0%);fill-opacity:0.99;stroke:none;"/></mask><clipPath id="clip1"> <rect x="0" y="0" width="64" height="64"/></clipPath><path style=" stroke:none;fill-rule:nonzero;fill:rgb(90.196079%,66.274512%,44.313726%);fill-opacity:1;" d="M 62.347656 32.285156 C 62.347656 49.058594 48.75 62.660156 31.976562 62.660156 C 15.203125 62.660156 1.605469 49.058594 1.605469 32.285156 C 1.605469 15.511719 15.203125 1.914062 31.976562 1.914062 C 48.75 1.914062 62.347656 15.511719 62.347656 32.285156 Z M 62.347656 32.285156 "/><mask id="mask1"><rect x="0" y="0" width="64" height="64" style="fill:rgb(0%,0%,0%);fill-opacity:0.99;stroke:none;"/></mask><clipPath id="clip2"> <rect x="0" y="0" width="64" height="64"/></clipPath><path style=" stroke:none;fill-rule:nonzero;fill:rgb(100%,100%,100%);fill-opacity:0.239216;" d="M 59.09375 32.285156 C 59.09375 47.261719 46.953125 59.402344 31.976562 59.402344 C 17 59.402344 4.859375 47.261719 4.859375 32.285156 C 4.859375 17.308594 17 5.167969 31.976562 5.167969 C 46.953125 5.167969 59.09375 17.308594 59.09375 32.285156 Z M 59.09375 32.285156 "/></defs><use xlink:href="#surface5" mask="url(#mask0)"/><use xlink:href="#surface8" mask="url(#mask1)"/><path style=" stroke:none;fill-rule:nonzero;fill:rgb(100%,100%,100%);fill-opacity:1;" d="M 38.988281 11.417969 C 41.519531 10.660156 44.695312 7.207031 48.507812 1.066406 C 48.648438 2.648438 48.648438 4.699219 48.507812 7.21875 C 48.363281 9.738281 48.125 12.023438 47.789062 14.078125 L 55.960938 10.078125 C 54.328125 13.824219 53.304688 16.167969 52.898438 17.105469 C 51.625 20.023438 50.96875 23.175781 50.96875 26.359375 C 50.847656 28.757812 50.855469 20.03125 51.320312 31.175781 C 51.785156 42.320312 42.296875 51.4375 31.753906 51.4375 C 21.210938 51.4375 12.648438 42.679688 12.648438 31.894531 C 12.648438 21.105469 21.210938 12.347656 31.753906 12.347656 C 33.230469 12.347656 35.1875 12.558594 38.988281 11.417969 Z M 38.988281 11.417969 "/><path style="fill-rule:nonzero;fill:rgb(100%,100%,100%);fill-opacity:1;stroke-width:1.421477;stroke-linecap:butt;stroke-linejoin:miter;stroke:rgb(92.54902%,74.509805%,57.647061%);stroke-opacity:0.992157;stroke-miterlimit:4;" d="M 31.119141 24.131836 C 31.119141 27.916992 28.037109 30.990234 24.237305 30.990234 C 20.44043 30.990234 17.355469 27.916992 17.355469 24.131836 C 17.355469 20.34668 20.44043 17.273438 24.237305 17.273438 C 28.037109 17.273438 31.119141 20.34668 31.119141 24.131836 Z M 31.119141 24.131836 " transform="matrix(1.333333,0,0,1.333333,0,0)"/><path style=" stroke:none;fill-rule:nonzero;fill:rgb(92.54902%,74.509805%,57.647061%);fill-opacity:0.992157;" d="M 36.589844 32.175781 C 36.589844 34.496094 34.675781 36.378906 32.316406 36.378906 C 29.960938 36.378906 28.046875 34.496094 28.046875 32.175781 C 28.046875 29.851562 29.960938 27.96875 32.316406 27.96875 C 34.675781 27.96875 36.589844 29.851562 36.589844 32.175781 Z M 36.589844 32.175781 "/></svg>
