<svg width="64" height="64" viewBox="0 0 64 64" version="1.1" xmlns:inkscape="http://www.inkscape.org/namespaces/inkscape"><defs><linearGradient id="linear0" gradientUnits="userSpaceOnUse" x1="0" y1="0" x2="0" y2="1" gradientTransform="matrix(66.056912,0,0,41.682058,-1.479519,8.996729)"><stop offset="0" style="stop-color:rgb(100%,73.333335%,0%);stop-opacity:1;"/><stop offset="1" style="stop-color:rgb(70.19608%,51.372552%,0%);stop-opacity:1;"/></linearGradient><filter style="color-interpolation-filters:sRGB;" inkscape:label="Diffuse Light" id="filter184" x="-0.0375" y="-0.0375" width="1.075" height="1.075"><feGaussianBlur in="SourceGraphic" stdDeviation="1" result="blur" id="feGaussianBlur174" /><feDiffuseLighting diffuseConstant="1" surfaceScale="10" lighting-color="rgb(255,255,255)" result="diffuse" id="feDiffuseLighting178"><feDistantLight elevation="8" azimuth="235" id="feDistantLight176" /></feDiffuseLighting><feComposite in="diffuse" in2="diffuse" operator="arithmetic" k1="1" result="composite1" id="feComposite180" /><feComposite in="composite1" in2="SourceGraphic" k1="1" operator="arithmetic" k3="1" result="composite2" id="feComposite182" /></filter></defs><g id="surface1" style="filter:url(#filter184)"><path style=" stroke:none;fill-rule:nonzero;fill:url(#linear0);" d="M 1.441406 1.441406 L 9.984375 43.714844 L 32.199219 48.410156 L 54.414062 43.714844 L 62.957031 1.441406 Z M 4.859375 53.109375 L 1.441406 60.152344 C 1.441406 61.457031 2.96875 62.503906 4.859375 62.503906 L 59.542969 62.503906 C 61.433594 62.503906 62.957031 61.457031 62.957031 60.152344 L 62.957031 55.460938 C 62.957031 54.15625 61.433594 53.109375 59.542969 53.109375 Z M 28.785156 55.460938 L 59.542969 55.460938 L 59.542969 60.152344 L 28.785156 60.152344 Z M 28.785156 55.460938 "/><path style=" stroke:none;fill-rule:nonzero;fill:rgb(0%,0%,0%);fill-opacity:1;" d="M 14.632812 10.691406 L 16.707031 25.003906 L 39.863281 25.003906 L 38.824219 32.753906 L 31.222656 34.453125 L 23.066406 32.753906 L 22.652344 29.773438 L 17.398438 29.773438 L 18.433594 36.332031 L 31.222656 39.3125 L 44.007812 36.332031 L 46.425781 20.234375 L 21.199219 20.234375 L 20.507812 15.464844 L 47.117188 15.464844 L 47.808594 10.691406 Z M 14.632812 10.691406 "/></g></svg>
