<?xml version="1.0" encoding="UTF-8" standalone="no"?><svg width="64" height="64" viewBox="0 0 64 64" version="1.1" id="svg9" sodipodi:docname="com.github.aggalex.contacts.svg" inkscape:version="1.2.2 (b0a8486541, 2022-12-01)" xmlns:inkscape="http://www.inkscape.org/namespaces/inkscape" xmlns:sodipodi="http://sodipodi.sourceforge.net/DTD/sodipodi-0.dtd" xmlns="http://www.w3.org/2000/svg" xmlns:svg="http://www.w3.org/2000/svg"> <defs id="defs13"> <filter style="color-interpolation-filters:sRGB;" inkscape:label="Diffuse Light" id="filter183" x="-0.042340294" y="-0.065955212" width="1.0846806" height="1.1319104"> <feGaussianBlur in="SourceGraphic" stdDeviation="1" result="blur" id="feGaussianBlur173" /> <feDiffuseLighting diffuseConstant="1" surfaceScale="10" lighting-color="rgb(255,255,255)" result="diffuse" id="feDiffuseLighting177"> <feDistantLight elevation="8" azimuth="235" id="feDistantLight175" /> </feDiffuseLighting> <feComposite in="diffuse" in2="diffuse" operator="arithmetic" k1="1" result="composite1" id="feComposite179" /> <feComposite in="composite1" in2="SourceGraphic" k1="1" operator="arithmetic" k3="1" result="composite2" id="feComposite181" /> </filter> </defs> <sodipodi:namedview id="namedview11" pagecolor="#ffffff" bordercolor="#000000" borderopacity="0.25" inkscape:showpageshadow="2" inkscape:pageopacity="0.0" inkscape:pagecheckerboard="0" inkscape:deskcolor="#d1d1d1" showgrid="false" inkscape:zoom="3.6875" inkscape:cx="32" inkscape:cy="32.135593" inkscape:window-width="1432" inkscape:window-height="844" inkscape:window-x="0" inkscape:window-y="0" inkscape:window-maximized="1" inkscape:current-layer="svg9" /> <g id="surface1" transform="matrix(1.1029734,0,0,1.195114,-3.2338794,-22.454204)" style="filter:url(#filter183)"> <path style="fill:#3ab370;fill-opacity:1;fill-rule:nonzero;stroke:none" d="m 31.828125,27.261719 c -3.183594,0.08594 -5.757813,2.617187 -5.898437,5.792969 -0.105469,2.441406 1.261718,4.707031 3.46875,5.75 h 5.167968 c 2.03125,-0.953126 3.367188,-2.953126 3.476563,-5.191407 l 0.0039,-0.04297 c 0.132813,-3.34375 -2.460937,-6.160156 -5.800781,-6.304687 -0.140625,-0.0039 -0.28125,-0.0078 -0.417969,-0.0039 z m 2.738281,11.542969 2.496094,2.667968 -2.8125,0.753906 1.578125,1.714844 -2.226563,4.269532 h 8.765626 v -6.207032 c 0,-1.773437 -1.429688,-3.199218 -3.203126,-3.199218 z m -5.167968,0 H 24.8125 c -1.773438,0 -3.203125,1.425781 -3.203125,3.199218 v 6.207032 h 8.757813 l -2.230469,-4.269532 1.578125,-1.714844 -2.808594,-0.753906 z m 2.648437,0.292968 -1.378906,1.378906 0.886719,0.886719 -0.636719,4.457031 1.125,1.824219 1.066406,-1.824219 -0.558594,-4.464843 0.878907,-0.878907 z m 0,0" id="path2" /> <path style="fill:#000000;fill-opacity:0.0745098;fill-rule:nonzero;stroke:none" d="m 3.574219,45.238281 c 1.675781,3.769531 4.089843,7.167969 7.09375,9.992188 h 42.492187 c 3.007813,-2.824219 5.417969,-6.222657 7.097656,-9.992188 z m 0,0" id="path4" /> <path style="fill:#8a94a3;fill-opacity:0.992157;fill-rule:nonzero;stroke:none" d="m 5.046875,48.136719 c 5.542969,9.597656 15.785156,15.511719 26.867187,15.511719 11.082032,0 21.324219,-5.914063 26.867188,-15.511719 z m 0,0" id="path6" /> </g></svg>
