<?xml version="1.0" encoding="UTF-8" standalone="no"?><svg width="64" height="64" viewBox="0 0 64 64" version="1.1" id="svg19" sodipodi:docname="com.github.panosx2.brightness.svg" inkscape:version="1.2.2 (b0a8486541, 2022-12-01)" xmlns:inkscape="http://www.inkscape.org/namespaces/inkscape" xmlns:sodipodi="http://sodipodi.sourceforge.net/DTD/sodipodi-0.dtd" xmlns="http://www.w3.org/2000/svg" xmlns:svg="http://www.w3.org/2000/svg"> <defs id="defs23"> <filter style="color-interpolation-filters:sRGB;" inkscape:label="Diffuse Light" id="filter193" x="-0.085142327" y="-0.10033261" width="1.1849074" height="1.1662837"> <feGaussianBlur in="SourceGraphic" stdDeviation="1" result="blur" id="feGaussianBlur183" /> <feDiffuseLighting diffuseConstant="1" surfaceScale="10" lighting-color="rgb(255,255,255)" result="diffuse" id="feDiffuseLighting187"> <feDistantLight elevation="8" azimuth="235" id="feDistantLight185" /> </feDiffuseLighting> <feComposite in="diffuse" in2="diffuse" operator="arithmetic" k1="1" result="composite1" id="feComposite189" /> <feComposite in="composite1" in2="SourceGraphic" k1="1" operator="arithmetic" k3="1" result="composite2" id="feComposite191" /> </filter> </defs> <sodipodi:namedview id="namedview21" pagecolor="#ffffff" bordercolor="#000000" borderopacity="0.25" inkscape:showpageshadow="2" inkscape:pageopacity="0.0" inkscape:pagecheckerboard="0" inkscape:deskcolor="#d1d1d1" showgrid="false" inkscape:zoom="3.6875" inkscape:cx="32" inkscape:cy="32.135593" inkscape:window-width="1432" inkscape:window-height="844" inkscape:window-x="0" inkscape:window-y="0" inkscape:window-maximized="1" inkscape:current-layer="svg19" /> <g id="surface1" style="fill:#2e8b57;filter:url(#filter193)" transform="matrix(1.5580918,0,0,1.6327333,-17.65595,-24.446077)"> <path style="fill:#2e8b57;fill-opacity:1;fill-rule:nonzero;stroke:#ffffff;stroke-width:1.87675;stroke-linecap:square;stroke-linejoin:miter;stroke-miterlimit:4;stroke-opacity:1" d="M 10.686559,12.184159 H 37.73344 V 31.2535 H 10.686559 Z m 0,0 v 0 m 0,0" transform="matrix(1.333333,0,0,1.333333,-0.365929,0.621646)" id="path2" /> <path style="fill:#2e8b57;fill-opacity:1;fill-rule:nonzero;stroke:none" d="m 13.347656,35.726562 h 36.585938 v 2.511719 H 13.347656 Z m 0,0" id="path4" /> <path style="fill:#2e8b57;fill-opacity:1;fill-rule:nonzero;stroke:none" d="m 27.351562,41.847656 h 2.574219 v 8.832032 h -2.574219 z m 0,0" id="path6" /> <path style="fill:#2e8b57;fill-opacity:1;fill-rule:nonzero;stroke:none" d="m 33.902344,41.847656 h 2.578125 v 8.832032 h -2.578125 z m 0,0" id="path8" /> <path style="fill:#2e8b57;fill-opacity:1;fill-rule:nonzero;stroke:none" d="m 39.582031,50.679688 v 2.578124 H 24.246094 v -2.578124 z m 0,0" id="path10" /> <path style="fill:#2e8b57;fill-opacity:0.133333;fill-rule:nonzero;stroke:none" d="m 24.234375,17.453125 c -0.425781,0.265625 -10.335937,11.46875 -10.335937,11.46875 l -0.01563,-12.054687 z m 0,0" id="path12" /> <path style="fill:#2e8b57;fill-opacity:0.133333;fill-rule:nonzero;stroke:none" d="M 28.824219,17.371094 C 28.402344,17.640625 14.550781,34.070312 14.550781,34.070312 L 13.882812,16.867188 Z m 0,0" id="path14" /> <path style="fill:#2e8b57;fill-opacity:0.133333;fill-rule:nonzero;stroke:none" d="M 33.875,17.859375 C 33.449219,18.128906 17.011719,37.8125 17.011719,37.8125 L 13.992188,37.039062 13.882812,16.867188 Z m 0,0" id="path16" /> </g></svg>
