<svg width="64" height="64" viewBox="0 0 64 64" version="1.1" xmlns:inkscape="http://www.inkscape.org/namespaces/inkscape"><defs><linearGradient id="linear0" gradientUnits="userSpaceOnUse" x1="0" y1="0" x2="0" y2="1" gradientTransform="matrix(68.431152,0,0,46.371381,-3.344628,8.117956)"><stop offset="0" style="stop-color:rgb(0%,96.078432%,86.274511%);stop-opacity:1;"/><stop offset="1" style="stop-color:rgb(0%,54.901963%,49.411765%);stop-opacity:1;"/></linearGradient><filter style="color-interpolation-filters:sRGB;" inkscape:label="Diffuse Light" id="filter184" x="-0.0375" y="-0.0375" width="1.075" height="1.075"><feGaussianBlur in="SourceGraphic" stdDeviation="1" result="blur" id="feGaussianBlur174" /><feDiffuseLighting diffuseConstant="1" surfaceScale="10" lighting-color="rgb(255,255,255)" result="diffuse" id="feDiffuseLighting178"><feDistantLight elevation="8" azimuth="235" id="feDistantLight176" /></feDiffuseLighting><feComposite in="diffuse" in2="diffuse" operator="arithmetic" k1="1" result="composite1" id="feComposite180" /><feComposite in="composite1" in2="SourceGraphic" k1="1" operator="arithmetic" k3="1" result="composite2" id="feComposite182" /></filter></defs><g id="surface1" style="filter:url(#filter184)"><path style=" stroke:none;fill-rule:nonzero;fill:url(#linear0);" d="M 8.378906 1.160156 L 8.378906 8.28125 L 1.253906 8.28125 L 1.253906 13.023438 L 8.378906 13.023438 L 8.378906 20.140625 L 13.128906 20.140625 L 13.128906 13.023438 L 20.253906 13.023438 L 20.253906 8.28125 L 13.128906 8.28125 L 13.128906 1.160156 Z M 44.003906 8.28125 L 44.003906 13.023438 L 63.003906 13.023438 L 63.003906 8.28125 Z M 8.308594 43.878906 L 8.308594 48.625 L 13.058594 48.625 L 13.058594 43.878906 Z M 44.003906 46.25 L 44.003906 50.996094 L 63.003906 50.996094 L 63.003906 46.25 Z M 1.253906 50.921875 L 1.253906 55.671875 L 20.253906 55.671875 L 20.253906 50.921875 Z M 44.003906 55.746094 L 44.003906 60.488281 L 63.003906 60.488281 L 63.003906 55.746094 Z M 8.308594 58.117188 L 8.308594 62.867188 L 13.058594 62.867188 L 13.058594 58.117188 Z M 8.308594 58.117188 "/></g></svg>
