<svg width="64" height="64" viewBox="0 0 64 64" version="1.1" xmlns:inkscape="http://www.inkscape.org/namespaces/inkscape"><defs><linearGradient id="linear0" gradientUnits="userSpaceOnUse" x1="0" y1="0" x2="0" y2="1" gradientTransform="matrix(64,0,0,45.710938,0,9.144531)"><stop offset="0" style="stop-color:rgb(0%,73.333335%,100%);stop-opacity:1;"/><stop offset="1" style="stop-color:rgb(0%,52.156866%,70.980394%);stop-opacity:1;"/></linearGradient><filter style="color-interpolation-filters:sRGB;" inkscape:label="Diffuse Light" id="filter184" x="-0.0375" y="-0.0375" width="1.075" height="1.075"><feGaussianBlur in="SourceGraphic" stdDeviation="1" result="blur" id="feGaussianBlur174" /><feDiffuseLighting diffuseConstant="1" surfaceScale="10" lighting-color="rgb(255,255,255)" result="diffuse" id="feDiffuseLighting178"><feDistantLight elevation="8" azimuth="235" id="feDistantLight176" /></feDiffuseLighting><feComposite in="diffuse" in2="diffuse" operator="arithmetic" k1="1" result="composite1" id="feComposite180" /><feComposite in="composite1" in2="SourceGraphic" k1="1" operator="arithmetic" k3="1" result="composite2" id="feComposite182" /></filter></defs><g id="surface1" style="filter:url(#filter184)"><path style=" stroke:none;fill-rule:evenodd;fill:url(#linear0);" d="M 57.902344 48.761719 L 57.902344 24.378906 L 45.714844 24.378906 L 45.714844 48.761719 L 51.808594 48.761719 L 51.808594 54.855469 L 64 54.855469 L 64 48.761719 Z M 24.378906 21.332031 L 21.332031 21.332031 L 21.332031 15.238281 L 12.191406 15.238281 L 12.191406 48.761719 L 21.332031 48.761719 L 21.332031 42.667969 L 24.378906 42.667969 Z M 30.476562 21.332031 L 30.476562 15.238281 L 27.429688 15.238281 L 27.429688 9.144531 L 0 9.144531 L 0 54.855469 L 27.429688 54.855469 L 27.429688 48.761719 L 30.476562 48.761719 L 30.476562 42.667969 L 36.570312 42.667969 L 36.570312 21.332031 Z M 45.714844 9.144531 L 57.902344 9.144531 L 57.902344 15.238281 L 45.714844 15.238281 Z M 45.714844 9.144531 "/></g></svg>
