<svg width="64" height="64" viewBox="0 0 64 64" version="1.1" xmlns:inkscape="http://www.inkscape.org/namespaces/inkscape"><defs><linearGradient id="linear0" gradientUnits="userSpaceOnUse" x1="0" y1="0" x2="0" y2="1" gradientTransform="matrix(63.9375,0,0,64,0.03125,0)"><stop offset="0" style="stop-color:rgb(92.941177%,83.529413%,72.549021%);stop-opacity:1;"/><stop offset="1" style="stop-color:rgb(81.960785%,71.372551%,59.215689%);stop-opacity:1;"/></linearGradient><filter style="color-interpolation-filters:sRGB;" inkscape:label="Diffuse Light" id="filter184" x="-0.0375" y="-0.0375" width="1.075" height="1.075"><feGaussianBlur in="SourceGraphic" stdDeviation="1" result="blur" id="feGaussianBlur174" /><feDiffuseLighting diffuseConstant="1" surfaceScale="10" lighting-color="rgb(255,255,255)" result="diffuse" id="feDiffuseLighting178"><feDistantLight elevation="8" azimuth="235" id="feDistantLight176" /></feDiffuseLighting><feComposite in="diffuse" in2="diffuse" operator="arithmetic" k1="1" result="composite1" id="feComposite180" /><feComposite in="composite1" in2="SourceGraphic" k1="1" operator="arithmetic" k3="1" result="composite2" id="feComposite182" /></filter></defs><g id="surface1" style="filter:url(#filter184)"><path style=" stroke:none;fill-rule:evenodd;fill:url(#linear0);" d="M 63.96875 25.574219 L 41.59375 22.375 L 32 0 L 22.40625 22.375 L 0.03125 25.574219 L 16.015625 41.558594 L 12.820312 64 L 32 54.34375 L 51.179688 63.9375 L 47.984375 41.558594 Z M 40.261719 50.058594 L 22.542969 50.058594 C 22.542969 44.007812 25.570312 39.375 31.625 36.152344 C 32.867188 35.492188 33.84375 34.816406 34.550781 34.121094 C 35.257812 33.425781 35.613281 32.574219 35.613281 31.574219 C 35.613281 30.574219 35.253906 29.757812 34.53125 29.125 C 33.8125 28.488281 32.867188 28.171875 31.695312 28.171875 C 29.402344 28.171875 27.804688 29.222656 26.898438 31.320312 L 22.949219 29.527344 C 23.628906 27.84375 24.753906 26.5 26.316406 25.5 C 27.875 24.5 29.65625 24 31.660156 24 C 34.21875 24 36.257812 24.707031 37.773438 26.125 C 39.285156 27.539062 40.039062 29.355469 40.039062 31.574219 C 40.039062 33.574219 39.535156 35.15625 38.519531 36.316406 C 37.507812 37.476562 35.941406 38.640625 33.820312 39.8125 C 32.039062 40.789062 30.671875 41.738281 29.71875 42.667969 C 28.769531 43.59375 28.132812 44.644531 27.816406 45.816406 L 40.261719 45.816406 Z M 40.261719 50.058594 "/></g></svg>
