<svg xmlns="http://www.w3.org/2000/svg" xmlns:xlink="http://www.w3.org/1999/xlink" width="64" height="64" viewBox="0 0 64 64" version="1.1"><g id="surface1"><path style=" stroke:none;fill-rule:nonzero;fill:rgb(11.764706%,56.470591%,100%);fill-opacity:1;" d="M 1.355469 1.871094 L 1.355469 62.585938 L 53.25 62.585938 L 53.25 59.550781 L 47.144531 59.550781 L 47.144531 47.40625 L 59.355469 47.40625 L 59.355469 53.480469 L 62.40625 53.480469 L 62.40625 1.871094 Z M 4.410156 4.910156 L 13.566406 4.910156 L 13.566406 14.015625 L 4.410156 14.015625 Z M 16.617188 4.910156 L 28.828125 4.910156 L 28.828125 14.015625 L 16.617188 14.015625 Z M 31.882812 4.910156 L 44.089844 4.910156 L 44.089844 14.015625 L 31.882812 14.015625 Z M 47.144531 4.910156 L 59.355469 4.910156 L 59.355469 14.015625 L 47.144531 14.015625 Z M 4.410156 17.050781 L 13.566406 17.050781 L 13.566406 29.195312 L 4.410156 29.195312 Z M 16.617188 17.050781 L 28.828125 17.050781 L 28.828125 29.195312 L 16.617188 29.195312 Z M 31.882812 17.050781 L 44.089844 17.050781 L 44.089844 29.195312 L 31.882812 29.195312 Z M 4.410156 32.230469 L 13.566406 32.230469 L 13.566406 44.371094 L 4.410156 44.371094 Z M 47.144531 32.230469 L 59.355469 32.230469 L 59.355469 44.371094 L 47.144531 44.371094 Z M 4.410156 47.40625 L 13.566406 47.40625 L 13.566406 59.550781 L 4.410156 59.550781 Z M 16.617188 47.40625 L 28.828125 47.40625 L 28.828125 59.550781 L 16.617188 59.550781 Z M 16.617188 47.40625 "/></g></svg>
