<svg width="64" height="64" viewBox="0 0 64 64" version="1.1" xmlns:inkscape="http://www.inkscape.org/namespaces/inkscape"><defs><linearGradient id="linear0" gradientUnits="userSpaceOnUse" x1="0" y1="0" x2="0" y2="1" gradientTransform="matrix(54.148438,0,0,64,4.925781,0)"><stop offset="0" style="stop-color:rgb(75.686276%,77.64706%,83.92157%);stop-opacity:1;"/><stop offset="1" style="stop-color:rgb(43.529412%,45.09804%,50.196081%);stop-opacity:1;"/></linearGradient><filter style="color-interpolation-filters:sRGB;" inkscape:label="Diffuse Light" id="filter184" x="-0.0375" y="-0.0375" width="1.075" height="1.075"><feGaussianBlur in="SourceGraphic" stdDeviation="1" result="blur" id="feGaussianBlur174" /><feDiffuseLighting diffuseConstant="1" surfaceScale="10" lighting-color="rgb(255,255,255)" result="diffuse" id="feDiffuseLighting178"><feDistantLight elevation="8" azimuth="235" id="feDistantLight176" /></feDiffuseLighting><feComposite in="diffuse" in2="diffuse" operator="arithmetic" k1="1" result="composite1" id="feComposite180" /><feComposite in="composite1" in2="SourceGraphic" k1="1" operator="arithmetic" k3="1" result="composite2" id="feComposite182" /></filter></defs><g id="surface1" style="filter:url(#filter184)"><path style=" stroke:none;fill-rule:nonzero;fill:url(#linear0);" d="M 59.074219 59.410156 C 56.0625 60.929688 52.925781 62.070312 49.652344 62.84375 C 46.382812 63.617188 42.972656 64 39.421875 64 C 28.816406 64 20.414062 61.136719 14.21875 55.402344 C 8.019531 49.648438 4.925781 41.855469 4.925781 32.019531 C 4.925781 22.160156 8.019531 14.363281 14.21875 8.636719 C 20.414062 2.878906 28.816406 0 39.421875 0 C 42.972656 0 46.382812 0.382812 49.652344 1.15625 C 52.925781 1.929688 56.0625 3.070312 59.074219 4.589844 L 59.074219 17.871094 C 56.035156 15.859375 53.035156 14.386719 50.078125 13.453125 C 47.125 12.515625 44.601562 12.046875 41.332031 12.046875 C 35.476562 12.046875 30.871094 13.863281 27.515625 17.5 C 24.164062 21.136719 22.484375 25.632812 22.484375 32.019531 C 22.484375 38.382812 24.164062 42.863281 27.515625 46.5 C 30.871094 50.136719 35.476562 51.953125 41.332031 51.953125 C 44.601562 51.953125 47.125 51.488281 50.078125 50.546875 C 53.035156 49.613281 56.035156 48.140625 59.074219 46.128906 Z M 59.074219 59.410156 "/></g></svg>
