<svg width="64" height="64" viewBox="0 0 64 64" version="1.1" xmlns:inkscape="http://www.inkscape.org/namespaces/inkscape"><defs><linearGradient id="linear0" gradientUnits="userSpaceOnUse" x1="0" y1="0" x2="0" y2="1" gradientTransform="matrix(37.4375,0,0,60.625,13.28125,2)"><stop offset="0" style="stop-color:rgb(100%,73.333335%,0%);stop-opacity:1;"/><stop offset="1" style="stop-color:rgb(70.19608%,51.372552%,0%);stop-opacity:1;"/></linearGradient><filter style="color-interpolation-filters:sRGB;" inkscape:label="Diffuse Light" id="filter184" x="-0.0375" y="-0.0375" width="1.075" height="1.075"><feGaussianBlur in="SourceGraphic" stdDeviation="1" result="blur" id="feGaussianBlur174" /><feDiffuseLighting diffuseConstant="1" surfaceScale="10" lighting-color="rgb(255,255,255)" result="diffuse" id="feDiffuseLighting178"><feDistantLight elevation="8" azimuth="235" id="feDistantLight176" /></feDiffuseLighting><feComposite in="diffuse" in2="diffuse" operator="arithmetic" k1="1" result="composite1" id="feComposite180" /><feComposite in="composite1" in2="SourceGraphic" k1="1" operator="arithmetic" k3="1" result="composite2" id="feComposite182" /></filter></defs><g id="surface1" style="filter:url(#filter184)"><path style=" stroke:none;fill-rule:evenodd;fill:url(#linear0);" d="M 37.992188 58 L 19.28125 58 C 18.175781 58 17.28125 57.105469 17.28125 56 L 17.28125 40.328125 C 17.246094 40.113281 17.246094 39.894531 17.28125 39.679688 L 17.28125 24.328125 C 17.246094 24.113281 17.246094 23.894531 17.28125 23.679688 L 17.28125 18 L 21.28125 18 L 21.28125 22 L 37.992188 22 C 38.800781 19.324219 41.285156 17.375 44.21875 17.375 C 47.808594 17.375 50.71875 20.289062 50.71875 23.875 C 50.71875 27.464844 47.808594 30.375 44.21875 30.375 C 41.375 30.375 38.957031 28.542969 38.074219 26 L 21.28125 26 L 21.28125 38 L 37.992188 38 C 38.800781 35.324219 41.285156 33.375 44.21875 33.375 C 47.808594 33.375 50.71875 36.289062 50.71875 39.875 C 50.71875 43.464844 47.808594 46.375 44.21875 46.375 C 41.375 46.375 38.957031 44.542969 38.074219 42 L 21.28125 42 L 21.28125 54 L 38.074219 54 C 38.957031 51.457031 41.375 49.625 44.21875 49.625 C 47.808594 49.625 50.71875 52.535156 50.71875 56.125 C 50.71875 59.710938 47.808594 62.625 44.21875 62.625 C 41.285156 62.625 38.800781 60.675781 37.992188 58 Z M 17.28125 2 L 17.28125 6 L 13.28125 6 L 13.28125 10 L 17.28125 10 L 17.28125 14 L 21.28125 14 L 21.28125 10 L 25.28125 10 L 25.28125 6 L 21.28125 6 L 21.28125 2 Z M 17.28125 2 "/></g></svg>
