<svg width="64" height="64" viewBox="0 0 64 64" version="1.1" xmlns:inkscape="http://www.inkscape.org/namespaces/inkscape"><defs><linearGradient id="linear0" gradientUnits="userSpaceOnUse" x1="0" y1="0" x2="0" y2="1" gradientTransform="matrix(60.985205,0,0,61.079332,1.934835,1.589016)"><stop offset="0" style="stop-color:rgb(100%,63.137257%,63.137257%);stop-opacity:1;"/><stop offset="1" style="stop-color:rgb(100%,27.843139%,27.843139%);stop-opacity:1;"/></linearGradient><filter style="color-interpolation-filters:sRGB;" inkscape:label="Diffuse Light" id="filter184" x="-0.0375" y="-0.0375" width="1.075" height="1.075"><feGaussianBlur in="SourceGraphic" stdDeviation="1" result="blur" id="feGaussianBlur174" /><feDiffuseLighting diffuseConstant="1" surfaceScale="10" lighting-color="rgb(255,255,255)" result="diffuse" id="feDiffuseLighting178"><feDistantLight elevation="8" azimuth="235" id="feDistantLight176" /></feDiffuseLighting><feComposite in="diffuse" in2="diffuse" operator="arithmetic" k1="1" result="composite1" id="feComposite180" /><feComposite in="composite1" in2="SourceGraphic" k1="1" operator="arithmetic" k3="1" result="composite2" id="feComposite182" /></filter></defs><g id="surface1" style="filter:url(#filter184)"><path style=" stroke:none;fill-rule:nonzero;fill:url(#linear0);" d="M 32.425781 1.589844 C 17.554688 1.59375 4.851562 12.351562 2.371094 27.039062 L 7.53125 27.039062 C 9.949219 15.195312 20.351562 6.679688 32.425781 6.679688 C 42.511719 6.699219 51.628906 12.695312 55.664062 21.949219 L 37.507812 21.949219 L 37.507812 27.039062 L 62.921875 27.039062 L 62.921875 1.589844 L 57.839844 1.589844 L 57.839844 15.328125 C 52.203125 6.769531 42.660156 1.609375 32.425781 1.589844 M 1.933594 37.21875 L 1.933594 62.667969 L 7.015625 62.667969 L 7.015625 48.929688 C 12.648438 57.488281 22.195312 62.648438 32.425781 62.667969 C 47.300781 62.664062 60 51.90625 62.484375 37.21875 L 57.320312 37.21875 C 54.90625 49.0625 44.503906 57.578125 32.425781 57.578125 C 22.34375 57.558594 13.226562 51.5625 9.191406 42.308594 L 27.34375 42.308594 L 27.34375 37.21875 Z M 1.933594 37.21875 "/></g></svg>
