<svg width="64" height="64" viewBox="0 0 64 64" version="1.1" xmlns:inkscape="http://www.inkscape.org/namespaces/inkscape"><defs><linearGradient id="linear0" gradientUnits="userSpaceOnUse" x1="0" y1="0" x2="0" y2="1" gradientTransform="matrix(66.975892,0,0,41.296956,0.776339,12.993291)"><stop offset="0" style="stop-color:rgb(75.686276%,77.64706%,83.92157%);stop-opacity:1;"/><stop offset="1" style="stop-color:rgb(43.529412%,45.09804%,50.196081%);stop-opacity:1;"/></linearGradient><filter style="color-interpolation-filters:sRGB;" inkscape:label="Diffuse Light" id="filter184" x="-0.0375" y="-0.0375" width="1.075" height="1.075"><feGaussianBlur in="SourceGraphic" stdDeviation="1" result="blur" id="feGaussianBlur174" /><feDiffuseLighting diffuseConstant="1" surfaceScale="10" lighting-color="rgb(255,255,255)" result="diffuse" id="feDiffuseLighting178"><feDistantLight elevation="8" azimuth="235" id="feDistantLight176" /></feDiffuseLighting><feComposite in="diffuse" in2="diffuse" operator="arithmetic" k1="1" result="composite1" id="feComposite180" /><feComposite in="composite1" in2="SourceGraphic" k1="1" operator="arithmetic" k3="1" result="composite2" id="feComposite182" /></filter></defs><g id="surface1" style="filter:url(#filter184)"><path style=" stroke:none;fill-rule:nonzero;fill:url(#linear0);" d="M 23.792969 1.601562 L 23.792969 8.226562 L 26.722656 11.0625 L 23.792969 10.589844 L 15.007812 6.332031 L 6.21875 18.152344 L 15.984375 22.878906 L 6.21875 27.605469 L 15.007812 39.429688 L 23.792969 35.167969 L 23.792969 44.15625 C 25.410156 44.15625 26.722656 45.21875 26.722656 46.519531 C 26.722656 48.882812 20.867188 51.246094 17.9375 60.707031 C 23.792969 62.597656 27.308594 63.070312 32.578125 63.070312 C 37.851562 63.070312 41.367188 62.597656 47.222656 60.707031 C 44.292969 51.246094 38.4375 48.882812 38.4375 46.519531 C 38.4375 45.21875 39.75 44.15625 41.367188 44.15625 L 41.367188 35.167969 L 50.152344 39.429688 L 58.941406 27.605469 L 49.175781 22.878906 L 58.941406 18.152344 L 50.152344 6.332031 L 41.367188 10.589844 L 38.4375 11.0625 L 41.367188 8.226562 L 41.367188 1.601562 Z M 23.792969 1.601562 "/></g></svg>
