<svg width="64" height="64" viewBox="0 0 64 64" version="1.1" xmlns:inkscape="http://www.inkscape.org/namespaces/inkscape"><defs><linearGradient id="linear0" gradientUnits="userSpaceOnUse" x1="0" y1="0" x2="0" y2="1" gradientTransform="matrix(69.801825,0,0,41.078145,-4.403373,11.743971)"><stop offset="0" style="stop-color:rgb(82.352942%,61.176473%,100%);stop-opacity:1;"/><stop offset="1" style="stop-color:rgb(66.666669%,0%,100%);stop-opacity:1;"/></linearGradient><filter style="color-interpolation-filters:sRGB;" inkscape:label="Diffuse Light" id="filter184" x="-0.0375" y="-0.0375" width="1.075" height="1.075"><feGaussianBlur in="SourceGraphic" stdDeviation="1" result="blur" id="feGaussianBlur174" /><feDiffuseLighting diffuseConstant="1" surfaceScale="10" lighting-color="rgb(255,255,255)" result="diffuse" id="feDiffuseLighting178"><feDistantLight elevation="8" azimuth="235" id="feDistantLight176" /></feDiffuseLighting><feComposite in="diffuse" in2="diffuse" operator="arithmetic" k1="1" result="composite1" id="feComposite180" /><feComposite in="composite1" in2="SourceGraphic" k1="1" operator="arithmetic" k3="1" result="composite2" id="feComposite182" /></filter></defs><g id="surface1" style="filter:url(#filter184)"><path style=" stroke:none;fill-rule:nonzero;fill:url(#linear0);" d="M 15.15625 1.566406 C 14.648438 1.628906 14.160156 1.765625 13.710938 1.976562 C 12.332031 2.625 11.46875 3.882812 11.46875 5.246094 L 11.46875 47.296875 C 11.464844 48.664062 12.320312 49.921875 13.699219 50.570312 C 15.082031 51.222656 16.761719 51.164062 18.078125 50.417969 L 55.089844 29.386719 C 56.292969 28.703125 57.023438 27.535156 57.023438 26.285156 C 57.023438 25.03125 56.292969 23.867188 55.089844 23.179688 L 18.078125 2.152344 C 17.210938 1.660156 16.167969 1.457031 15.140625 1.582031 Z M 20.023438 12.105469 L 44.96875 26.28125 L 20.023438 40.457031 Z M 15.753906 55.894531 C 13.386719 55.894531 11.484375 57.546875 11.484375 59.601562 C 11.484375 61.660156 13.386719 63.3125 15.753906 63.3125 L 52.769531 63.3125 C 55.132812 63.3125 57.039062 61.660156 57.039062 59.601562 C 57.039062 57.546875 55.132812 55.894531 52.769531 55.894531 Z M 15.753906 55.894531 "/></g></svg>
