<svg width="64" height="64" viewBox="0 0 64 64" version="1.1" xmlns:inkscape="http://www.inkscape.org/namespaces/inkscape"><defs><linearGradient id="linear0" gradientUnits="userSpaceOnUse" x1="0" y1="0" x2="0" y2="1" gradientTransform="matrix(61.674938,0,0,60.859109,0.986378,1.830773)"><stop offset="0" style="stop-color:rgb(82.352942%,61.176473%,100%);stop-opacity:1;"/><stop offset="1" style="stop-color:rgb(66.666669%,0%,100%);stop-opacity:1;"/></linearGradient><filter style="color-interpolation-filters:sRGB;" inkscape:label="Diffuse Light" id="filter184" x="-0.0375" y="-0.0375" width="1.075" height="1.075"><feGaussianBlur in="SourceGraphic" stdDeviation="1" result="blur" id="feGaussianBlur174" /><feDiffuseLighting diffuseConstant="1" surfaceScale="10" lighting-color="rgb(255,255,255)" result="diffuse" id="feDiffuseLighting178"><feDistantLight elevation="8" azimuth="235" id="feDistantLight176" /></feDiffuseLighting><feComposite in="diffuse" in2="diffuse" operator="arithmetic" k1="1" result="composite1" id="feComposite180" /><feComposite in="composite1" in2="SourceGraphic" k1="1" operator="arithmetic" k3="1" result="composite2" id="feComposite182" /></filter></defs><g id="surface1" style="filter:url(#filter184)"><path style=" stroke:none;fill-rule:evenodd;fill:url(#linear0);" d="M 32.925781 29.726562 C 31.097656 29.726562 29.621094 31.425781 29.621094 33.53125 C 29.621094 35.628906 31.097656 37.332031 32.925781 37.332031 C 34.75 37.332031 36.226562 35.628906 36.226562 33.53125 C 36.226562 31.425781 34.75 29.726562 32.925781 29.726562 Z M 41.734375 29.726562 C 39.910156 29.726562 38.429688 31.425781 38.429688 33.53125 C 38.429688 35.628906 39.910156 37.332031 41.734375 37.332031 C 43.5625 37.332031 45.039062 35.628906 45.039062 33.53125 C 45.039062 31.425781 43.5625 29.726562 41.734375 29.726562 Z M 50.546875 29.726562 C 48.722656 29.726562 47.242188 31.425781 47.242188 33.53125 C 47.242188 35.628906 48.722656 37.332031 50.546875 37.332031 C 52.375 37.332031 53.847656 35.628906 53.847656 33.53125 C 53.847656 31.425781 52.375 29.726562 50.546875 29.726562 Z M 32.925781 39.867188 C 31.097656 39.867188 29.621094 41.570312 29.621094 43.671875 C 29.621094 45.773438 31.097656 47.476562 32.925781 47.476562 C 34.75 47.476562 36.226562 45.773438 36.226562 43.671875 C 36.226562 41.570312 34.75 39.867188 32.925781 39.867188 Z M 41.734375 39.867188 C 39.910156 39.867188 38.429688 41.570312 38.429688 43.671875 C 38.429688 45.773438 39.910156 47.476562 41.734375 47.476562 C 43.5625 47.476562 45.039062 45.773438 45.039062 43.671875 C 45.039062 41.570312 43.5625 39.867188 41.734375 39.867188 Z M 50.546875 39.867188 C 48.722656 39.867188 47.242188 41.570312 47.242188 43.671875 C 47.242188 45.773438 48.722656 47.476562 50.546875 47.476562 C 52.375 47.476562 53.847656 45.773438 53.847656 43.671875 C 53.847656 41.570312 52.375 39.867188 50.546875 39.867188 Z M 32.925781 50.011719 C 31.097656 50.011719 29.621094 51.714844 29.621094 53.816406 C 29.621094 55.917969 31.097656 57.617188 32.925781 57.617188 C 34.75 57.617188 36.226562 55.917969 36.226562 53.816406 C 36.226562 51.714844 34.75 50.011719 32.925781 50.011719 Z M 41.734375 50.011719 C 39.910156 50.011719 38.429688 51.714844 38.429688 53.816406 C 38.429688 55.917969 39.910156 57.617188 41.734375 57.617188 C 43.5625 57.617188 45.039062 55.917969 45.039062 53.816406 C 45.039062 51.714844 43.5625 50.011719 41.734375 50.011719 Z M 31.824219 1.832031 L 0.988281 27.191406 L 5.390625 27.191406 L 5.390625 60.171875 C 5.390625 61.410156 6.1875 62.691406 7.355469 62.691406 L 56.292969 62.691406 C 57.460938 62.691406 58.265625 61.410156 58.257812 60.171875 L 58.257812 27.191406 L 62.660156 27.191406 Z M 50.546875 50.011719 C 48.722656 50.011719 47.242188 51.714844 47.242188 53.816406 C 47.242188 55.917969 48.722656 57.617188 50.546875 57.617188 C 52.375 57.617188 53.847656 55.917969 53.847656 53.816406 C 53.847656 51.714844 52.375 50.011719 50.546875 50.011719 Z M 50.546875 50.011719 "/></g></svg>
