<svg width="64" height="64" viewBox="0 0 64 64" version="1.1" xmlns:inkscape="http://www.inkscape.org/namespaces/inkscape"><defs><linearGradient id="linear0" gradientUnits="userSpaceOnUse" x1="0" y1="0" x2="0" y2="1" gradientTransform="matrix(56,0,0,35.898438,4,14.050781)"><stop offset="0" style="stop-color:rgb(81.960785%,70.980394%,59.215689%);stop-opacity:1;"/><stop offset="1" style="stop-color:rgb(65.098041%,53.725493%,41.568628%);stop-opacity:1;"/></linearGradient><filter style="color-interpolation-filters:sRGB;" inkscape:label="Diffuse Light" id="filter184" x="-0.0375" y="-0.0375" width="1.075" height="1.075"><feGaussianBlur in="SourceGraphic" stdDeviation="1" result="blur" id="feGaussianBlur174" /><feDiffuseLighting diffuseConstant="1" surfaceScale="10" lighting-color="rgb(255,255,255)" result="diffuse" id="feDiffuseLighting178"><feDistantLight elevation="8" azimuth="235" id="feDistantLight176" /></feDiffuseLighting><feComposite in="diffuse" in2="diffuse" operator="arithmetic" k1="1" result="composite1" id="feComposite180" /><feComposite in="composite1" in2="SourceGraphic" k1="1" operator="arithmetic" k3="1" result="composite2" id="feComposite182" /></filter></defs><g id="surface1" style="filter:url(#filter184)"><path style=" stroke:none;fill-rule:nonzero;fill:url(#linear0);" d="M 1.859375 16.867188 L 1.859375 29.183594 L 10.515625 29.183594 L 10.515625 16.867188 Z M 10.515625 29.183594 L 10.515625 41.5 L 19.171875 41.5 L 19.171875 29.183594 Z M 19.171875 29.183594 L 27.828125 29.183594 L 27.828125 16.867188 L 19.171875 16.867188 Z M 27.828125 29.183594 L 27.828125 41.5 L 36.484375 41.5 L 36.484375 29.183594 Z M 36.484375 29.183594 L 45.136719 29.183594 L 45.136719 16.867188 L 36.484375 16.867188 Z M 45.136719 29.183594 L 45.136719 41.5 L 53.792969 41.5 L 53.792969 29.183594 Z M 53.792969 29.183594 L 62.449219 29.183594 L 62.449219 16.867188 L 53.792969 16.867188 Z M 53.792969 29.183594 "/></g></svg>
