<svg width="64" height="64" viewBox="0 0 64 64" version="1.1" xmlns:inkscape="http://www.inkscape.org/namespaces/inkscape"><defs><linearGradient id="linear0" gradientUnits="userSpaceOnUse" x1="0" y1="0" x2="0" y2="1" gradientTransform="matrix(64.334029,0,0,42.690111,-0.351548,10.826608)"><stop offset="0" style="stop-color:rgb(0%,78.823531%,36.862746%);stop-opacity:1;"/><stop offset="1" style="stop-color:rgb(0%,54.11765%,25.098041%);stop-opacity:1;"/></linearGradient><filter style="color-interpolation-filters:sRGB;" inkscape:label="Diffuse Light" id="filter184" x="-0.0375" y="-0.0375" width="1.075" height="1.075"><feGaussianBlur in="SourceGraphic" stdDeviation="1" result="blur" id="feGaussianBlur174" /><feDiffuseLighting diffuseConstant="1" surfaceScale="10" lighting-color="rgb(255,255,255)" result="diffuse" id="feDiffuseLighting178"><feDistantLight elevation="8" azimuth="235" id="feDistantLight176" /></feDiffuseLighting><feComposite in="diffuse" in2="diffuse" operator="arithmetic" k1="1" result="composite1" id="feComposite180" /><feComposite in="composite1" in2="SourceGraphic" k1="1" operator="arithmetic" k3="1" result="composite2" id="feComposite182" /></filter></defs><g id="surface1" style="filter:url(#filter184)"><path style=" stroke:none;fill-rule:nonzero;fill:url(#linear0);" d="M 27.601562 1.378906 L 27.601562 10.074219 L 36.292969 10.074219 L 36.292969 1.378906 Z M 27.601562 14.425781 L 27.601562 23.121094 L 36.292969 23.121094 L 36.292969 14.425781 Z M 1.527344 27.46875 L 1.527344 36.167969 L 10.222656 36.167969 L 10.222656 27.46875 Z M 14.566406 27.46875 L 14.566406 36.167969 L 23.257812 36.167969 L 23.257812 27.46875 Z M 27.601562 27.46875 L 27.601562 36.167969 L 36.292969 36.167969 L 36.292969 27.46875 Z M 40.640625 27.46875 L 40.640625 36.167969 L 49.332031 36.167969 L 49.332031 27.46875 Z M 53.679688 27.46875 L 53.679688 36.167969 L 62.371094 36.167969 L 62.371094 27.46875 Z M 27.601562 40.519531 L 27.601562 49.214844 L 36.292969 49.214844 L 36.292969 40.519531 Z M 27.601562 53.5625 L 27.601562 62.257812 L 36.292969 62.257812 L 36.292969 53.5625 Z M 27.601562 53.5625 "/></g></svg>
