<svg width="64" height="64" viewBox="0 0 64 64" version="1.1" xmlns:inkscape="http://www.inkscape.org/namespaces/inkscape"><defs><linearGradient id="linear0" gradientUnits="userSpaceOnUse" x1="0" y1="0" x2="0" y2="1" gradientTransform="matrix(60,0,0,60,2,2)"><stop offset="0" style="stop-color:rgb(0%,73.333335%,100%);stop-opacity:1;"/><stop offset="1" style="stop-color:rgb(0%,52.156866%,70.980394%);stop-opacity:1;"/></linearGradient><filter style="color-interpolation-filters:sRGB;" inkscape:label="Diffuse Light" id="filter184" x="-0.0375" y="-0.0375" width="1.075" height="1.075"><feGaussianBlur in="SourceGraphic" stdDeviation="1" result="blur" id="feGaussianBlur174" /><feDiffuseLighting diffuseConstant="1" surfaceScale="10" lighting-color="rgb(255,255,255)" result="diffuse" id="feDiffuseLighting178"><feDistantLight elevation="8" azimuth="235" id="feDistantLight176" /></feDiffuseLighting><feComposite in="diffuse" in2="diffuse" operator="arithmetic" k1="1" result="composite1" id="feComposite180" /><feComposite in="composite1" in2="SourceGraphic" k1="1" operator="arithmetic" k3="1" result="composite2" id="feComposite182" /></filter></defs><g id="surface1" style="filter:url(#filter184)"><path style=" stroke:none;fill-rule:evenodd;fill:url(#linear0);" d="M 21.507812 28.910156 C 8.757812 21.304688 2 2 2 2 L 12.5 2 C 20 2 21.5 12.5 32 23 C 42.5 12.5 44 2 51.5 2 L 62 2 C 62 2 51.5 32 32 32 C 30.539062 32.105469 28.847656 31.839844 27.222656 31.375 C 26.359375 31.164062 25.515625 30.878906 24.710938 30.507812 C 23.390625 30.03125 22.238281 29.445312 21.4375 28.90625 C 21.460938 28.90625 21.484375 28.910156 21.507812 28.910156 Z M 42.488281 35.089844 C 55.242188 42.695312 62 62 62 62 L 51.5 62 C 44 62 42.5 51.5 32 41 C 21.5 51.5 20 62 12.5 62 L 2 62 C 2 62 12.5 32 32 32 C 33.460938 31.894531 35.152344 32.160156 36.777344 32.628906 C 37.640625 32.839844 38.480469 33.121094 39.285156 33.492188 C 40.609375 33.96875 41.761719 34.554688 42.566406 35.09375 C 42.539062 35.089844 42.515625 35.089844 42.488281 35.089844 Z M 42.488281 35.089844 "/></g></svg>
