<svg width="64" height="64" viewBox="0 0 64 64" version="1.1" xmlns:inkscape="http://www.inkscape.org/namespaces/inkscape"><defs><linearGradient id="linear0" gradientUnits="userSpaceOnUse" x1="0" y1="0" x2="0" y2="1" gradientTransform="matrix(64.96604,0,0,39.082147,-1.413115,11.688361)"><stop offset="0" style="stop-color:rgb(82.352942%,61.176473%,100%);stop-opacity:1;"/><stop offset="1" style="stop-color:rgb(66.666669%,0%,100%);stop-opacity:1;"/></linearGradient><filter style="color-interpolation-filters:sRGB;" inkscape:label="Diffuse Light" id="filter184" x="-0.0375" y="-0.0375" width="1.075" height="1.075"><feGaussianBlur in="SourceGraphic" stdDeviation="1" result="blur" id="feGaussianBlur174" /><feDiffuseLighting diffuseConstant="1" surfaceScale="10" lighting-color="rgb(255,255,255)" result="diffuse" id="feDiffuseLighting178"><feDistantLight elevation="8" azimuth="235" id="feDistantLight176" /></feDiffuseLighting><feComposite in="diffuse" in2="diffuse" operator="arithmetic" k1="1" result="composite1" id="feComposite180" /><feComposite in="composite1" in2="SourceGraphic" k1="1" operator="arithmetic" k3="1" result="composite2" id="feComposite182" /></filter></defs><g id="surface1" style="filter:url(#filter184)"><path style=" stroke:none;fill-rule:nonzero;fill:url(#linear0);" d="M 31.867188 1.175781 L 24.507812 5.953125 L 24.507812 13.113281 L 31.867188 17.882812 L 39.226562 13.113281 L 39.226562 5.953125 Z M 12.246094 13.113281 L 4.886719 17.882812 L 4.886719 25.046875 L 12.246094 29.820312 L 19.605469 25.046875 L 19.605469 17.882812 Z M 51.496094 13.113281 L 44.132812 17.882812 L 44.132812 25.046875 L 51.496094 29.820312 L 58.855469 25.046875 L 58.855469 17.882812 Z M 12.246094 34.59375 L 4.886719 39.367188 L 4.886719 46.527344 L 12.246094 51.300781 L 19.605469 46.527344 L 19.605469 39.367188 Z M 51.496094 34.59375 L 44.132812 39.367188 L 44.132812 46.527344 L 51.496094 51.300781 L 58.855469 46.527344 L 58.855469 39.367188 Z M 31.867188 46.527344 L 24.507812 51.300781 L 24.507812 58.464844 L 31.867188 63.234375 L 39.226562 58.464844 L 39.226562 51.300781 Z M 31.867188 46.527344 "/></g></svg>
