<?xml version="1.0" encoding="UTF-8" standalone="no"?><svg width="64" height="64" viewBox="0 0 64 64" version="1.1" id="svg420" sodipodi:docname="cs-overview.svg" inkscape:version="1.2.2 (b0a8486541, 2022-12-01)" xmlns:inkscape="http://www.inkscape.org/namespaces/inkscape" xmlns:sodipodi="http://sodipodi.sourceforge.net/DTD/sodipodi-0.dtd" xmlns:xlink="http://www.w3.org/1999/xlink" xmlns="http://www.w3.org/2000/svg" xmlns:svg="http://www.w3.org/2000/svg"> <sodipodi:namedview id="namedview422" pagecolor="#ffffff" bordercolor="#000000" borderopacity="0.25" inkscape:showpageshadow="2" inkscape:pageopacity="0.0" inkscape:pagecheckerboard="0" inkscape:deskcolor="#d1d1d1" showgrid="false" inkscape:zoom="3.6875" inkscape:cx="32" inkscape:cy="32.135593" inkscape:window-width="1432" inkscape:window-height="844" inkscape:window-x="0" inkscape:window-y="0" inkscape:window-maximized="1" inkscape:current-layer="svg420" /> <defs id="defs407"> <linearGradient id="linear0" gradientUnits="userSpaceOnUse" x1="0" y1="0" x2="0" y2="1" gradientTransform="matrix(64,0,0,64,0,0)"> <stop offset="0" style="stop-color:#ffa1a1;stop-opacity:1;" id="stop335" /> <stop offset="1" style="stop-color:#ff4747;stop-opacity:1;" id="stop337" /> </linearGradient> <filter id="alpha" filterUnits="objectBoundingBox" x="0" y="0" width="1" height="1"> <feColorMatrix type="matrix" in="SourceGraphic" values="0 0 0 0 1 0 0 0 0 1 0 0 0 0 1 0 0 0 1 0" id="feColorMatrix340" /> </filter> <mask id="mask0"> <g filter="url(#alpha)" id="g345"> <rect x="0" y="0" width="64" height="64" style="fill:rgb(0%,0%,0%);fill-opacity:0.75;stroke:none;" id="rect343" /> </g> </mask> <linearGradient id="linear1" gradientUnits="userSpaceOnUse" x1="0" y1="0" x2="0" y2="1" gradientTransform="matrix(32,0,0,32,0,0)"> <stop offset="0" style="stop-color:#ffa1a1;stop-opacity:1;" id="stop348" /> <stop offset="1" style="stop-color:#ff4747;stop-opacity:1;" id="stop350" /> </linearGradient> <clipPath id="clip1"> <rect x="0" y="0" width="64" height="64" id="rect353" /> </clipPath> <g id="surface5" clip-path="url(#clip1)"> <path style=" stroke:none;fill-rule:nonzero;fill:url(#linear1);" d="M 0 0 L 0 32 L 32 32 L 32 0 Z M 4 4 L 4 28 L 28 28 L 4 28 Z M 4 4 " id="path356" /> </g> <mask id="mask1"> <g filter="url(#alpha)" id="g361"> <rect x="0" y="0" width="64" height="64" style="fill:rgb(0%,0%,0%);fill-opacity:0.4;stroke:none;" id="rect359" /> </g> </mask> <linearGradient id="linear2" gradientUnits="userSpaceOnUse" x1="0" y1="0" x2="0" y2="1" gradientTransform="matrix(32,0,0,32,32,0)"> <stop offset="0" style="stop-color:#ffa1a1;stop-opacity:1;" id="stop364" /> <stop offset="1" style="stop-color:#ff4747;stop-opacity:1;" id="stop366" /> </linearGradient> <clipPath id="clip2"> <rect x="0" y="0" width="64" height="64" id="rect369" /> </clipPath> <g id="surface8" clip-path="url(#clip2)"> <path style=" stroke:none;fill-rule:nonzero;fill:url(#linear2);" d="M 32 0 L 32 32 L 64 32 L 64 0 Z M 36 4 L 36 28 L 60 28 L 36 28 Z M 36 4 " id="path372" /> </g> <mask id="mask2"> <g filter="url(#alpha)" id="g377"> <rect x="0" y="0" width="64" height="64" style="fill:rgb(0%,0%,0%);fill-opacity:0.4;stroke:none;" id="rect375" /> </g> </mask> <linearGradient id="linear3" gradientUnits="userSpaceOnUse" x1="0" y1="0" x2="0" y2="1" gradientTransform="matrix(32,0,0,32,0,32)"> <stop offset="0" style="stop-color:#ffa1a1;stop-opacity:1;" id="stop380" /> <stop offset="1" style="stop-color:#ff4747;stop-opacity:1;" id="stop382" /> </linearGradient> <clipPath id="clip3"> <rect x="0" y="0" width="64" height="64" id="rect385" /> </clipPath> <g id="surface11" clip-path="url(#clip3)"> <path style=" stroke:none;fill-rule:nonzero;fill:url(#linear3);" d="M 0 32 L 0 64 L 32 64 L 32 32 Z M 4 36 L 4 60 L 28 60 L 4 60 Z M 4 36 " id="path388" /> </g> <mask id="mask3"> <g filter="url(#alpha)" id="g393"> <rect x="0" y="0" width="64" height="64" style="fill:rgb(0%,0%,0%);fill-opacity:0.75;stroke:none;" id="rect391" /> </g> </mask> <linearGradient id="linear4" gradientUnits="userSpaceOnUse" x1="0" y1="0" x2="0" y2="1" gradientTransform="matrix(32,0,0,32,32,32)"> <stop offset="0" style="stop-color:#ffa1a1;stop-opacity:1;" id="stop396" /> <stop offset="1" style="stop-color:#ff4747;stop-opacity:1;" id="stop398" /> </linearGradient> <clipPath id="clip4"> <rect x="0" y="0" width="64" height="64" id="rect401" /> </clipPath> <g id="surface14" clip-path="url(#clip4)"> <path style=" stroke:none;fill-rule:nonzero;fill:url(#linear4);" d="M 32 32 L 32 64 L 64 64 L 64 32 Z M 36 36 L 36 60 L 60 60 L 36 60 Z M 36 36 " id="path404" /> </g> <filter style="color-interpolation-filters:sRGB;" inkscape:label="Diffuse Light" id="filter1647" x="-0.0375" y="-0.0375" width="1.075" height="1.075"> <feGaussianBlur in="SourceGraphic" stdDeviation="1" result="blur" id="feGaussianBlur1637" /> <feDiffuseLighting diffuseConstant="1" surfaceScale="10" lighting-color="rgb(255,255,255)" result="diffuse" id="feDiffuseLighting1641"> <feDistantLight elevation="8" azimuth="235" id="feDistantLight1639" /> </feDiffuseLighting> <feComposite in="diffuse" in2="diffuse" operator="arithmetic" k1="1" result="composite1" id="feComposite1643" /> <feComposite in="composite1" in2="SourceGraphic" k1="1" operator="arithmetic" k3="1" result="composite2" id="feComposite1645" /> </filter> </defs> <g id="surface1" style="filter:url(#filter1647)"> <path style=" stroke:none;fill-rule:nonzero;fill:url(#linear0);" d="M 0 0 L 0 64 L 64 64 L 64 0 Z M 8 8 L 56 8 L 56 56 L 8 56 Z M 8 8 " id="path409" /> <use xlink:href="#surface5" mask="url(#mask0)" id="use411" /> <use xlink:href="#surface8" mask="url(#mask1)" id="use413" /> <use xlink:href="#surface11" mask="url(#mask2)" id="use415" /> <use xlink:href="#surface14" mask="url(#mask3)" id="use417" /> </g></svg>
