<svg width="64" height="64" viewBox="0 0 64 64" version="1.1" xmlns:inkscape="http://www.inkscape.org/namespaces/inkscape"><defs><linearGradient id="linear0" gradientUnits="userSpaceOnUse" x1="0" y1="0" x2="0" y2="1" gradientTransform="matrix(62.676581,0,0,75.355249,-0.428822,-3.013812)"><stop offset="0" style="stop-color:rgb(81.960785%,70.980394%,59.215689%);stop-opacity:1;"/><stop offset="1" style="stop-color:rgb(65.098041%,53.725493%,41.568628%);stop-opacity:1;"/></linearGradient><linearGradient id="linear1" gradientUnits="userSpaceOnUse" x1="0" y1="0" x2="0" y2="1" gradientTransform="matrix(62.676581,0,0,75.355249,-0.428822,-3.013812)"><stop offset="0" style="stop-color:rgb(81.960785%,70.980394%,59.215689%);stop-opacity:1;"/><stop offset="1" style="stop-color:rgb(65.098041%,53.725493%,41.568628%);stop-opacity:1;"/></linearGradient><linearGradient id="linear2" gradientUnits="userSpaceOnUse" x1="0" y1="0" x2="0" y2="1" gradientTransform="matrix(62.676581,0,0,75.355249,-0.428822,-3.013812)"><stop offset="0" style="stop-color:rgb(81.960785%,70.980394%,59.215689%);stop-opacity:1;"/><stop offset="1" style="stop-color:rgb(65.098041%,53.725493%,41.568628%);stop-opacity:1;"/></linearGradient><filter style="color-interpolation-filters:sRGB;" inkscape:label="Diffuse Light" id="filter184" x="-0.0375" y="-0.0375" width="1.075" height="1.075"><feGaussianBlur in="SourceGraphic" stdDeviation="1" result="blur" id="feGaussianBlur174" /><feDiffuseLighting diffuseConstant="1" surfaceScale="10" lighting-color="rgb(255,255,255)" result="diffuse" id="feDiffuseLighting178"><feDistantLight elevation="8" azimuth="235" id="feDistantLight176" /></feDiffuseLighting><feComposite in="diffuse" in2="diffuse" operator="arithmetic" k1="1" result="composite1" id="feComposite180" /><feComposite in="composite1" in2="SourceGraphic" k1="1" operator="arithmetic" k3="1" result="composite2" id="feComposite182" /></filter></defs><g id="surface1" style="filter:url(#filter184)"><path style=" stroke:none;fill-rule:nonzero;fill:url(#linear0);" d="M 4.445312 2.601562 L 27.851562 2.601562 C 29.480469 2.601562 30.800781 4.90625 30.800781 7.75 L 30.800781 25.964844 C 30.800781 28.808594 29.480469 31.121094 27.851562 31.121094 L 4.445312 31.121094 C 2.816406 31.121094 1.496094 28.808594 1.496094 25.964844 L 1.496094 7.75 C 1.496094 4.90625 2.816406 2.601562 4.445312 2.601562 Z M 4.445312 2.601562 "/><path style=" stroke:none;fill-rule:nonzero;fill:url(#linear1);" d="M 4.351562 34.386719 L 27.757812 34.386719 C 29.382812 34.386719 30.703125 36.691406 30.703125 39.542969 L 30.703125 57.75 C 30.703125 60.597656 29.382812 62.910156 27.757812 62.910156 L 4.351562 62.910156 C 2.722656 62.910156 1.398438 60.597656 1.398438 57.75 L 1.398438 39.542969 C 1.398438 36.691406 2.722656 34.386719 4.351562 34.386719 Z M 4.351562 34.386719 "/><path style=" stroke:none;fill-rule:nonzero;fill:url(#linear2);" d="M 39.863281 1.738281 L 57.132812 1.738281 C 60.625 1.738281 63.464844 6.695312 63.464844 12.796875 L 63.464844 51.867188 C 63.464844 57.96875 60.625 62.917969 57.132812 62.917969 L 39.863281 62.917969 C 36.375 62.917969 33.542969 57.96875 33.542969 51.867188 L 33.542969 12.796875 C 33.542969 6.695312 36.375 1.738281 39.863281 1.738281 Z M 39.863281 1.738281 "/></g></svg>
