<svg width="64" height="64" viewBox="0 0 64 64" version="1.1" xmlns:inkscape="http://www.inkscape.org/namespaces/inkscape"><defs><linearGradient id="linear0" gradientUnits="userSpaceOnUse" x1="0" y1="0" x2="0" y2="1" gradientTransform="matrix(64,0,0,64.007812,0,-0.00390625)"><stop offset="0" style="stop-color:rgb(100%,73.333335%,0%);stop-opacity:1;"/><stop offset="1" style="stop-color:rgb(70.19608%,51.372552%,0%);stop-opacity:1;"/></linearGradient><filter style="color-interpolation-filters:sRGB;" inkscape:label="Diffuse Light" id="filter184" x="-0.0375" y="-0.0375" width="1.075" height="1.075"><feGaussianBlur in="SourceGraphic" stdDeviation="1" result="blur" id="feGaussianBlur174" /><feDiffuseLighting diffuseConstant="1" surfaceScale="10" lighting-color="rgb(255,255,255)" result="diffuse" id="feDiffuseLighting178"><feDistantLight elevation="8" azimuth="235" id="feDistantLight176" /></feDiffuseLighting><feComposite in="diffuse" in2="diffuse" operator="arithmetic" k1="1" result="composite1" id="feComposite180" /><feComposite in="composite1" in2="SourceGraphic" k1="1" operator="arithmetic" k3="1" result="composite2" id="feComposite182" /></filter></defs><g id="surface1" style="filter:url(#filter184)"><path style=" stroke:none;fill-rule:nonzero;fill:url(#linear0);" d="M 37.890625 63.4375 C 36.113281 62.359375 34.972656 60.484375 30.019531 50.476562 C 27.285156 44.933594 24.675781 40.007812 24.226562 39.535156 C 23.722656 39.003906 19.59375 36.808594 13.425781 33.796875 C 1.234375 27.847656 0 26.902344 0 23.53125 C 0 21.960938 0.769531 20.457031 1.972656 19.671875 C 2.382812 19.398438 15.128906 14.84375 30.289062 9.539062 C 56.929688 0.222656 57.921875 -0.0976562 59.738281 0.0117188 C 61.3125 0.109375 61.769531 0.269531 62.523438 0.992188 C 63.660156 2.070312 64.171875 3.570312 63.949219 5.175781 C 63.710938 6.898438 44.589844 60.925781 43.875 61.878906 C 42.359375 63.921875 39.785156 64.59375 37.890625 63.441406 Z M 37.890625 63.4375 "/></g></svg>
