<svg width="64" height="64" viewBox="0 0 64 64" version="1.1" xmlns:inkscape="http://www.inkscape.org/namespaces/inkscape"><defs><linearGradient id="linear0" gradientUnits="userSpaceOnUse" x1="0" y1="0" x2="0" y2="1" gradientTransform="matrix(64,0,0,64,0,0)"><stop offset="0" style="stop-color:rgb(61.176473%,69.803923%,85.09804%);stop-opacity:1;"/><stop offset="1" style="stop-color:rgb(44.313726%,52.156866%,65.882355%);stop-opacity:1;"/></linearGradient><filter style="color-interpolation-filters:sRGB;" inkscape:label="Diffuse Light" id="filter184" x="-0.0375" y="-0.0375" width="1.075" height="1.075"><feGaussianBlur in="SourceGraphic" stdDeviation="1" result="blur" id="feGaussianBlur174" /><feDiffuseLighting diffuseConstant="1" surfaceScale="10" lighting-color="rgb(255,255,255)" result="diffuse" id="feDiffuseLighting178"><feDistantLight elevation="8" azimuth="235" id="feDistantLight176" /></feDiffuseLighting><feComposite in="diffuse" in2="diffuse" operator="arithmetic" k1="1" result="composite1" id="feComposite180" /><feComposite in="composite1" in2="SourceGraphic" k1="1" operator="arithmetic" k3="1" result="composite2" id="feComposite182" /></filter></defs><g id="surface1" style="filter:url(#filter184)"><path style=" stroke:none;fill-rule:nonzero;fill:url(#linear0);" d="M 14.222656 0 L 14.222656 14.222656 L 0 14.222656 L 0 21.332031 L 14.222656 21.332031 L 14.222656 42.667969 L 0 42.667969 L 0 49.777344 L 14.222656 49.777344 L 14.222656 64 L 53.332031 35.554688 L 64 35.554688 L 64 28.445312 L 53.332031 28.445312 Z M 17.777344 17.777344 L 32 17.777344 L 32 24.886719 L 17.777344 24.886719 Z M 21.332031 35.554688 L 28.445312 35.554688 L 28.445312 39.113281 L 32 39.113281 L 32 46.222656 L 28.445312 46.222656 L 28.445312 49.777344 L 21.332031 49.777344 L 21.332031 46.222656 L 17.777344 46.222656 L 17.777344 39.113281 L 21.332031 39.113281 Z M 21.332031 35.554688 "/></g></svg>
