<svg width="64" height="64" viewBox="0 0 64 64" version="1.1" xmlns:inkscape="http://www.inkscape.org/namespaces/inkscape"><defs><linearGradient id="linear0" gradientUnits="userSpaceOnUse" x1="0" y1="0" x2="0" y2="1" gradientTransform="matrix(56,0,0,35.898438,4,14.050781)"><stop offset="0" style="stop-color:rgb(81.960785%,70.980394%,59.215689%);stop-opacity:1;"/><stop offset="1" style="stop-color:rgb(65.098041%,53.725493%,41.568628%);stop-opacity:1;"/></linearGradient><filter style="color-interpolation-filters:sRGB;" inkscape:label="Diffuse Light" id="filter184" x="-0.0375" y="-0.0375" width="1.075" height="1.075"><feGaussianBlur in="SourceGraphic" stdDeviation="1" result="blur" id="feGaussianBlur174" /><feDiffuseLighting diffuseConstant="1" surfaceScale="10" lighting-color="rgb(255,255,255)" result="diffuse" id="feDiffuseLighting178"><feDistantLight elevation="8" azimuth="235" id="feDistantLight176" /></feDiffuseLighting><feComposite in="diffuse" in2="diffuse" operator="arithmetic" k1="1" result="composite1" id="feComposite180" /><feComposite in="composite1" in2="SourceGraphic" k1="1" operator="arithmetic" k3="1" result="composite2" id="feComposite182" /></filter></defs><g id="surface1" style="filter:url(#filter184)"><path style=" stroke:none;fill-rule:nonzero;fill:url(#linear0);" d="M 2.546875 6.363281 L 2.546875 55.101562 L 9.394531 55.101562 L 9.394531 48.140625 L 7.113281 48.140625 L 7.113281 13.324219 L 9.394531 13.324219 L 9.394531 6.363281 Z M 13.957031 6.363281 L 13.957031 13.324219 L 16.242188 13.324219 L 16.242188 48.140625 L 13.957031 48.140625 L 13.957031 55.101562 L 20.804688 55.101562 L 20.804688 6.363281 Z M 23.085938 6.363281 L 23.085938 55.101562 L 29.933594 55.101562 L 29.933594 48.140625 L 27.652344 48.140625 L 27.652344 13.324219 L 29.933594 13.324219 L 29.933594 6.363281 Z M 34.5 6.363281 L 34.5 13.324219 L 36.78125 13.324219 L 36.78125 48.140625 L 34.5 48.140625 L 34.5 55.101562 L 41.347656 55.101562 L 41.347656 6.363281 Z M 43.628906 6.363281 L 43.628906 55.101562 L 50.476562 55.101562 L 50.476562 48.140625 L 48.195312 48.140625 L 48.195312 13.324219 L 50.476562 13.324219 L 50.476562 6.363281 Z M 55.039062 6.363281 L 55.039062 13.324219 L 57.324219 13.324219 L 57.324219 48.140625 L 55.039062 48.140625 L 55.039062 55.101562 L 61.886719 55.101562 L 61.886719 6.363281 Z M 9.394531 27.25 L 9.394531 34.214844 L 13.957031 34.214844 L 13.957031 27.25 Z M 29.933594 27.25 L 29.933594 34.214844 L 34.5 34.214844 L 34.5 27.25 Z M 50.476562 27.25 L 50.476562 34.214844 L 55.039062 34.214844 L 55.039062 27.25 Z M 50.476562 27.25 "/></g></svg>
