<svg width="64" height="64" viewBox="0 0 64 64" version="1.1" xmlns:inkscape="http://www.inkscape.org/namespaces/inkscape"><defs><linearGradient id="linear0" gradientUnits="userSpaceOnUse" x1="0" y1="0" x2="0" y2="1" gradientTransform="matrix(57.601563,0,0,64,3.199219,0)"><stop offset="0" style="stop-color:rgb(100%,63.137257%,63.137257%);stop-opacity:1;"/><stop offset="1" style="stop-color:rgb(100%,27.843139%,27.843139%);stop-opacity:1;"/></linearGradient><filter style="color-interpolation-filters:sRGB;" inkscape:label="Diffuse Light" id="filter184" x="-0.0375" y="-0.0375" width="1.075" height="1.075"><feGaussianBlur in="SourceGraphic" stdDeviation="1" result="blur" id="feGaussianBlur174" /><feDiffuseLighting diffuseConstant="1" surfaceScale="10" lighting-color="rgb(255,255,255)" result="diffuse" id="feDiffuseLighting178"><feDistantLight elevation="8" azimuth="235" id="feDistantLight176" /></feDiffuseLighting><feComposite in="diffuse" in2="diffuse" operator="arithmetic" k1="1" result="composite1" id="feComposite180" /><feComposite in="composite1" in2="SourceGraphic" k1="1" operator="arithmetic" k3="1" result="composite2" id="feComposite182" /></filter></defs><g id="surface1" style="filter:url(#filter184)"><path style=" stroke:none;fill-rule:nonzero;fill:url(#linear0);" d="M 12.800781 0 L 12.800781 6.398438 L 9.601562 6.398438 C 6.0625 6.398438 3.199219 9.265625 3.199219 12.800781 L 3.199219 57.601562 C 3.199219 61.136719 6.0625 64 9.601562 64 L 54.398438 64 C 57.9375 64 60.800781 61.136719 60.800781 57.601562 L 60.800781 12.800781 C 60.800781 9.265625 57.9375 6.398438 54.398438 6.398438 L 51.199219 6.398438 L 51.199219 0 L 44.800781 0 L 44.800781 6.398438 L 19.199219 6.398438 L 19.199219 0 Z M 9.601562 22.398438 L 54.398438 22.398438 L 54.398438 57.601562 L 9.601562 57.601562 Z M 26.300781 28.800781 C 22.363281 28.800781 19.199219 31.960938 19.199219 35.898438 C 19.199219 41.601562 32 51.800781 32 51.800781 C 32 51.800781 44.800781 41.625 44.800781 35.894531 C 44.800781 31.960938 41.640625 28.800781 37.699219 28.800781 C 35.363281 28.800781 33.316406 29.976562 32 31.699219 C 30.660156 29.894531 28.546875 28.820312 26.300781 28.800781 Z M 26.300781 28.800781 "/></g></svg>
