<?xml version="1.0" encoding="UTF-8" standalone="no"?><svg width="64" height="64" viewBox="0 0 64 64" version="1.1" id="svg526" sodipodi:docname="deepin-toggle-desktop.svg" inkscape:version="1.2.2 (b0a8486541, 2022-12-01)" xmlns:inkscape="http://www.inkscape.org/namespaces/inkscape" xmlns:sodipodi="http://sodipodi.sourceforge.net/DTD/sodipodi-0.dtd" xmlns:xlink="http://www.w3.org/1999/xlink" xmlns="http://www.w3.org/2000/svg" xmlns:svg="http://www.w3.org/2000/svg"> <sodipodi:namedview id="namedview528" pagecolor="#ffffff" bordercolor="#000000" borderopacity="0.25" inkscape:showpageshadow="2" inkscape:pageopacity="0.0" inkscape:pagecheckerboard="0" inkscape:deskcolor="#d1d1d1" showgrid="false" inkscape:zoom="3.6875" inkscape:cx="32" inkscape:cy="32.135593" inkscape:window-width="1432" inkscape:window-height="844" inkscape:window-x="0" inkscape:window-y="0" inkscape:window-maximized="1" inkscape:current-layer="svg526" /> <defs id="defs515"> <linearGradient id="linear0" gradientUnits="userSpaceOnUse" x1="0" y1="0" x2="0" y2="1" gradientTransform="matrix(64,0,0,64,0,0)"> <stop offset="0" style="stop-color:#6ba4ff;stop-opacity:1;" id="stop459" /> <stop offset="1" style="stop-color:#006eff;stop-opacity:1;" id="stop461" /> </linearGradient> <filter id="alpha" filterUnits="objectBoundingBox" x="0" y="0" width="1" height="1"> <feColorMatrix type="matrix" in="SourceGraphic" values="0 0 0 0 1 0 0 0 0 1 0 0 0 0 1 0 0 0 1 0" id="feColorMatrix464" /> </filter> <mask id="mask0"> <g filter="url(#alpha)" id="g469"> <rect x="0" y="0" width="64" height="64" style="fill:rgb(0%,0%,0%);fill-opacity:0.6;stroke:none;" id="rect467" /> </g> </mask> <linearGradient id="linear1" gradientUnits="userSpaceOnUse" x1="0" y1="0" x2="0" y2="1" gradientTransform="matrix(13.390625,0,0,12.5,8.804688,44.6875)"> <stop offset="0" style="stop-color:#6ba4ff;stop-opacity:1;" id="stop472" /> <stop offset="1" style="stop-color:#006eff;stop-opacity:1;" id="stop474" /> </linearGradient> <clipPath id="clip1"> <rect x="0" y="0" width="64" height="64" id="rect477" /> </clipPath> <g id="surface5" clip-path="url(#clip1)"> <path style=" stroke:none;fill-rule:nonzero;fill:url(#linear1);" d="M 17.5625 44.6875 C 21.617188 44.6875 22.195312 45.265625 22.195312 49.316406 L 22.195312 52.558594 C 22.195312 56.609375 21.617188 57.1875 17.5625 57.1875 L 13.4375 57.1875 C 9.382812 57.1875 8.804688 56.609375 8.804688 52.558594 L 8.804688 49.316406 C 8.804688 45.265625 9.382812 44.6875 13.4375 44.6875 Z M 17.5625 44.6875 " id="path480" /> </g> <mask id="mask1"> <g filter="url(#alpha)" id="g485"> <rect x="0" y="0" width="64" height="64" style="fill:rgb(0%,0%,0%);fill-opacity:0.6;stroke:none;" id="rect483" /> </g> </mask> <linearGradient id="linear2" gradientUnits="userSpaceOnUse" x1="0" y1="0" x2="0" y2="1" gradientTransform="matrix(13.390625,0,0,12.5,25.492187,44.6875)"> <stop offset="0" style="stop-color:#6ba4ff;stop-opacity:1;" id="stop488" /> <stop offset="1" style="stop-color:#006eff;stop-opacity:1;" id="stop490" /> </linearGradient> <clipPath id="clip2"> <rect x="0" y="0" width="64" height="64" id="rect493" /> </clipPath> <g id="surface8" clip-path="url(#clip2)"> <path style=" stroke:none;fill-rule:nonzero;fill:url(#linear2);" d="M 34.253906 44.6875 C 38.304688 44.6875 38.882812 45.265625 38.882812 49.316406 L 38.882812 52.558594 C 38.882812 56.609375 38.304688 57.1875 34.253906 57.1875 L 30.125 57.1875 C 26.070312 57.1875 25.492188 56.609375 25.492188 52.558594 L 25.492188 49.316406 C 25.492188 45.265625 26.070312 44.6875 30.125 44.6875 Z M 34.253906 44.6875 " id="path496" /> </g> <mask id="mask2"> <g filter="url(#alpha)" id="g501"> <rect x="0" y="0" width="64" height="64" style="fill:rgb(0%,0%,0%);fill-opacity:0.6;stroke:none;" id="rect499" /> </g> </mask> <linearGradient id="linear3" gradientUnits="userSpaceOnUse" x1="0" y1="0" x2="0" y2="1" gradientTransform="matrix(13.390625,0,0,12.5,42.179687,44.6875)"> <stop offset="0" style="stop-color:#6ba4ff;stop-opacity:1;" id="stop504" /> <stop offset="1" style="stop-color:#006eff;stop-opacity:1;" id="stop506" /> </linearGradient> <clipPath id="clip3"> <rect x="0" y="0" width="64" height="64" id="rect509" /> </clipPath> <g id="surface11" clip-path="url(#clip3)"> <path style=" stroke:none;fill-rule:nonzero;fill:url(#linear3);" d="M 50.9375 44.6875 C 54.992188 44.6875 55.570312 45.265625 55.570312 49.316406 L 55.570312 52.558594 C 55.570312 56.609375 54.992188 57.1875 50.9375 57.1875 L 46.8125 57.1875 C 42.757812 57.1875 42.179688 56.609375 42.179688 52.558594 L 42.179688 49.316406 C 42.179688 45.265625 42.757812 44.6875 46.8125 44.6875 Z M 50.9375 44.6875 " id="path512" /> </g> <filter style="color-interpolation-filters:sRGB;" inkscape:label="Diffuse Light" id="filter1547" x="-0.0375" y="-0.0375" width="1.075" height="1.075"> <feGaussianBlur in="SourceGraphic" stdDeviation="1" result="blur" id="feGaussianBlur1537" /> <feDiffuseLighting diffuseConstant="1" surfaceScale="10" lighting-color="rgb(255,255,255)" result="diffuse" id="feDiffuseLighting1541"> <feDistantLight elevation="8" azimuth="235" id="feDistantLight1539" /> </feDiffuseLighting> <feComposite in="diffuse" in2="diffuse" operator="arithmetic" k1="1" result="composite1" id="feComposite1543" /> <feComposite in="composite1" in2="SourceGraphic" k1="1" operator="arithmetic" k3="1" result="composite2" id="feComposite1545" /> </filter> </defs> <g id="surface1" style="filter:url(#filter1547)"> <path style=" stroke:none;fill-rule:nonzero;fill:url(#linear0);" d="M 4 0 C 1.792969 0 0 1.792969 0 4 L 0 60 C 0 62.207031 1.792969 64 4 64 L 60 64 C 62.207031 64 64 62.207031 64 60 L 64 4 C 64 1.792969 62.207031 0 60 0 Z M 6.609375 5.125 L 10.390625 5.125 C 11.007812 5.125 11.5 5.617188 11.5 6.234375 L 11.5 10.007812 C 11.5 10.625 11.007812 11.125 10.390625 11.125 L 6.609375 11.125 C 5.992188 11.125 5.5 10.625 5.5 10.007812 L 5.5 6.234375 C 5.5 5.617188 5.992188 5.125 6.609375 5.125 Z M 4.3125 14.398438 L 59.6875 14.398438 C 60.304688 14.398438 60.796875 14.898438 60.796875 15.515625 L 60.796875 59.6875 C 60.796875 60.304688 60.304688 60.796875 59.6875 60.796875 L 4.3125 60.796875 C 3.695312 60.796875 3.203125 60.304688 3.203125 59.6875 L 3.203125 15.515625 C 3.203125 14.898438 3.695312 14.398438 4.3125 14.398438 Z M 4.3125 14.398438 " id="path517" /> <use xlink:href="#surface5" mask="url(#mask0)" id="use519" /> <use xlink:href="#surface8" mask="url(#mask1)" id="use521" /> <use xlink:href="#surface11" mask="url(#mask2)" id="use523" /> </g></svg>
