<svg width="64" height="64" viewBox="0 0 64 64" version="1.1" xmlns:inkscape="http://www.inkscape.org/namespaces/inkscape"><defs><linearGradient id="linear0" gradientUnits="userSpaceOnUse" x1="0" y1="0" x2="0" y2="1" gradientTransform="matrix(55.992188,0,0,56,4.003906,4)"><stop offset="0" style="stop-color:rgb(82.352942%,61.176473%,100%);stop-opacity:1;"/><stop offset="1" style="stop-color:rgb(66.666669%,0%,100%);stop-opacity:1;"/></linearGradient><filter style="color-interpolation-filters:sRGB;" inkscape:label="Diffuse Light" id="filter184" x="-0.0375" y="-0.0375" width="1.075" height="1.075"><feGaussianBlur in="SourceGraphic" stdDeviation="1" result="blur" id="feGaussianBlur174" /><feDiffuseLighting diffuseConstant="1" surfaceScale="10" lighting-color="rgb(255,255,255)" result="diffuse" id="feDiffuseLighting178"><feDistantLight elevation="8" azimuth="235" id="feDistantLight176" /></feDiffuseLighting><feComposite in="diffuse" in2="diffuse" operator="arithmetic" k1="1" result="composite1" id="feComposite180" /><feComposite in="composite1" in2="SourceGraphic" k1="1" operator="arithmetic" k3="1" result="composite2" id="feComposite182" /></filter></defs><g id="surface1" style="filter:url(#filter184)"><path style=" stroke:none;fill-rule:nonzero;fill:url(#linear0);" d="M 58.632812 17.910156 C 54.742188 10.726562 48.097656 5.417969 40.214844 3.191406 C 32.328125 0.960938 23.871094 2.007812 16.773438 6.085938 C 2.417969 14.496094 -2.449219 32.859375 5.882812 47.222656 C 14.207031 61.585938 32.613281 66.574219 47.105469 58.398438 C 61.308594 50.226562 66.414062 32.292969 58.632812 17.910156 M 44.667969 10.296875 L 35.839844 25.503906 C 33.5 24.171875 30.535156 24.050781 28.03125 25.496094 L 19.222656 10.304688 C 27.085938 5.78125 36.796875 5.773438 44.667969 10.296875 M 57.390625 32.234375 C 57.390625 41.289062 52.527344 49.660156 44.65625 54.183594 L 35.855469 38.992188 C 38.359375 37.558594 39.738281 34.945312 39.746094 32.253906 L 57.382812 32.234375 M 36.171875 29.804688 C 37.523438 32.132812 36.722656 35.113281 34.382812 36.460938 C 32.050781 37.804688 29.050781 37.003906 27.699219 34.679688 C 26.347656 32.347656 27.15625 29.367188 29.496094 28.023438 C 31.835938 26.675781 34.820312 27.472656 36.171875 29.804688 M 24.132812 32.230469 C 24.128906 33.558594 24.441406 34.90625 25.15625 36.136719 C 25.871094 37.371094 26.886719 38.320312 28.046875 38.976562 L 19.203125 54.183594 C 11.332031 49.660156 6.484375 41.296875 6.484375 32.246094 L 24.132812 32.234375 "/></g></svg>
