<svg width="64" height="64" viewBox="0 0 64 64" version="1.1" xmlns:inkscape="http://www.inkscape.org/namespaces/inkscape"><defs><linearGradient id="linear0" gradientUnits="userSpaceOnUse" x1="0" y1="0" x2="0" y2="1" gradientTransform="matrix(65.431211,0,0,38.558983,-0.56456,12.422488)"><stop offset="0" style="stop-color:rgb(100%,63.137257%,63.137257%);stop-opacity:1;"/><stop offset="1" style="stop-color:rgb(100%,27.843139%,27.843139%);stop-opacity:1;"/></linearGradient><filter style="color-interpolation-filters:sRGB;" inkscape:label="Diffuse Light" id="filter184" x="-0.0375" y="-0.0375" width="1.075" height="1.075"><feGaussianBlur in="SourceGraphic" stdDeviation="1" result="blur" id="feGaussianBlur174" /><feDiffuseLighting diffuseConstant="1" surfaceScale="10" lighting-color="rgb(255,255,255)" result="diffuse" id="feDiffuseLighting178"><feDistantLight elevation="8" azimuth="235" id="feDistantLight176" /></feDiffuseLighting><feComposite in="diffuse" in2="diffuse" operator="arithmetic" k1="1" result="composite1" id="feComposite180" /><feComposite in="composite1" in2="SourceGraphic" k1="1" operator="arithmetic" k3="1" result="composite2" id="feComposite182" /></filter></defs><g id="surface1" style="filter:url(#filter184)"><path style=" stroke:none;fill-rule:nonzero;fill:url(#linear0);" d="M 31.074219 1.386719 C 24.523438 1.386719 19.222656 6.652344 19.222656 13.148438 C 19.222656 19.644531 24.523438 24.910156 31.074219 24.910156 C 37.625 24.910156 42.925781 19.644531 42.925781 13.148438 C 42.925781 6.652344 37.625 1.386719 31.074219 1.386719 Z M 16.054688 20.246094 C 14.453125 20.421875 12.957031 21.136719 11.816406 22.269531 C 9.039062 25.023438 9.039062 29.496094 11.816406 32.25 L 21.015625 41.378906 L 11.816406 50.496094 C 9.039062 53.25 9.039062 57.722656 11.816406 60.480469 C 14.597656 63.238281 19.097656 63.238281 21.878906 60.480469 L 31.074219 51.355469 L 40.269531 60.480469 C 43.050781 63.238281 47.550781 63.238281 50.328125 60.480469 C 53.109375 57.722656 53.109375 53.25 50.328125 50.496094 L 41.132812 41.378906 L 50.328125 32.25 C 53.109375 29.496094 53.109375 25.023438 50.328125 22.269531 C 47.550781 19.511719 43.050781 19.511719 40.269531 22.269531 L 31.074219 31.390625 L 21.878906 22.269531 C 20.347656 20.75 18.203125 20.003906 16.054688 20.246094 Z M 16.054688 20.246094 "/></g></svg>
