<svg width="64" height="64" viewBox="0 0 64 64" version="1.1" xmlns:inkscape="http://www.inkscape.org/namespaces/inkscape"><defs><linearGradient id="linear0" gradientUnits="userSpaceOnUse" x1="0" y1="0" x2="0" y2="1" gradientTransform="matrix(63.367235,0,0,66.17343,0.926218,3.538773)"><stop offset="0" style="stop-color:rgb(0%,78.823531%,36.862746%);stop-opacity:1;"/><stop offset="1" style="stop-color:rgb(0%,54.11765%,25.098041%);stop-opacity:1;"/></linearGradient><linearGradient id="linear1" gradientUnits="userSpaceOnUse" x1="0" y1="0" x2="0" y2="1" gradientTransform="matrix(63.367235,0,0,66.17343,0.926218,3.538773)"><stop offset="0" style="stop-color:rgb(0%,78.823531%,36.862746%);stop-opacity:1;"/><stop offset="1" style="stop-color:rgb(0%,54.11765%,25.098041%);stop-opacity:1;"/></linearGradient><filter style="color-interpolation-filters:sRGB;" inkscape:label="Diffuse Light" id="filter184" x="-0.0375" y="-0.0375" width="1.075" height="1.075"><feGaussianBlur in="SourceGraphic" stdDeviation="1" result="blur" id="feGaussianBlur174" /><feDiffuseLighting diffuseConstant="1" surfaceScale="10" lighting-color="rgb(255,255,255)" result="diffuse" id="feDiffuseLighting178"><feDistantLight elevation="8" azimuth="235" id="feDistantLight176" /></feDiffuseLighting><feComposite in="diffuse" in2="diffuse" operator="arithmetic" k1="1" result="composite1" id="feComposite180" /><feComposite in="composite1" in2="SourceGraphic" k1="1" operator="arithmetic" k3="1" result="composite2" id="feComposite182" /></filter></defs><g id="surface1" style="filter:url(#filter184)"><path style=" stroke:none;fill-rule:nonzero;fill:url(#linear0);" d="M 62.878906 24.902344 L 42.089844 21.03125 L 32.128906 1.675781 L 22.160156 21.03125 L 1.371094 24.902344 L 16 40.738281 L 13.125 62.492188 L 32.128906 52.925781 L 51.132812 62.492188 L 48.25 40.738281 Z M 32.128906 47.394531 L 19.082031 53.960938 L 21.058594 39.03125 L 11.015625 28.15625 L 25.28125 25.496094 L 32.128906 12.210938 L 38.96875 25.496094 L 53.242188 28.15625 L 43.191406 39.03125 L 45.171875 53.960938 Z M 32.128906 47.394531 "/><path style=" stroke:none;fill-rule:nonzero;fill:url(#linear1);" d="M 28.914062 30.03125 L 22.210938 31.277344 L 26.929688 36.378906 L 25.996094 43.390625 L 32.128906 40.3125 L 38.25 43.390625 L 37.328125 36.378906 L 42.042969 31.277344 L 35.34375 30.03125 L 32.128906 23.785156 Z M 28.914062 30.03125 "/></g></svg>
