<svg width="64" height="64" viewBox="0 0 64 64" version="1.1" xmlns:inkscape="http://www.inkscape.org/namespaces/inkscape"><defs><linearGradient id="linear0" gradientUnits="userSpaceOnUse" x1="0" y1="0" x2="0" y2="1" gradientTransform="matrix(61.90842,0,0,41.684493,2.231663,12.910936)"><stop offset="0" style="stop-color:rgb(100%,73.333335%,0%);stop-opacity:1;"/><stop offset="1" style="stop-color:rgb(70.19608%,51.372552%,0%);stop-opacity:1;"/></linearGradient><filter style="color-interpolation-filters:sRGB;" inkscape:label="Diffuse Light" id="filter184" x="-0.0375" y="-0.0375" width="1.075" height="1.075"><feGaussianBlur in="SourceGraphic" stdDeviation="1" result="blur" id="feGaussianBlur174" /><feDiffuseLighting diffuseConstant="1" surfaceScale="10" lighting-color="rgb(255,255,255)" result="diffuse" id="feDiffuseLighting178"><feDistantLight elevation="8" azimuth="235" id="feDistantLight176" /></feDiffuseLighting><feComposite in="diffuse" in2="diffuse" operator="arithmetic" k1="1" result="composite1" id="feComposite180" /><feComposite in="composite1" in2="SourceGraphic" k1="1" operator="arithmetic" k3="1" result="composite2" id="feComposite182" /></filter></defs><g id="surface1" style="filter:url(#filter184)"><path style=" stroke:none;fill-rule:nonzero;fill:url(#linear0);" d="M 43.792969 1.414062 C 41.628906 1.414062 39.886719 4.289062 39.886719 7.859375 L 39.886719 14.304688 L 45.742188 14.304688 L 45.742188 11.078125 L 53.550781 11.078125 L 53.550781 17.523438 L 47.695312 17.523438 L 47.695312 27.191406 L 53.550781 27.191406 L 53.550781 33.636719 L 45.742188 33.636719 L 45.742188 30.414062 L 39.886719 30.414062 L 39.886719 36.855469 C 39.886719 40.433594 41.628906 43.300781 43.792969 43.300781 L 55.503906 43.300781 C 57.671875 43.300781 59.40625 40.425781 59.40625 36.855469 L 59.40625 7.859375 C 59.40625 4.277344 57.667969 1.414062 55.503906 1.414062 Z M 28.175781 1.414062 L 28.175781 17.523438 L 14.511719 17.523438 C 11.273438 17.523438 8.65625 21.84375 8.65625 27.191406 L 8.65625 52.96875 C 8.65625 58.316406 11.273438 62.632812 14.511719 62.632812 L 35.984375 62.632812 L 35.984375 1.414062 Z M 16.464844 30.414062 L 28.175781 30.414062 L 28.175781 49.746094 L 16.464844 49.746094 Z M 16.464844 30.414062 "/></g></svg>
