<svg width="64" height="64" viewBox="0 0 64 64" version="1.1" xmlns:inkscape="http://www.inkscape.org/namespaces/inkscape"><defs><linearGradient id="linear0" gradientUnits="userSpaceOnUse" x1="0" y1="0" x2="0" y2="1" gradientTransform="matrix(93.16293,0,0,61.373945,-8.373021,5.475237)"><stop offset="0" style="stop-color:rgb(81.960785%,70.980394%,59.215689%);stop-opacity:1;"/><stop offset="1" style="stop-color:rgb(65.098041%,53.725493%,41.568628%);stop-opacity:1;"/></linearGradient><linearGradient id="linear1" gradientUnits="userSpaceOnUse" x1="0" y1="0" x2="0" y2="1" gradientTransform="matrix(93.16293,0,0,61.373945,-8.373021,5.475237)"><stop offset="0" style="stop-color:rgb(81.960785%,70.980394%,59.215689%);stop-opacity:1;"/><stop offset="1" style="stop-color:rgb(65.098041%,53.725493%,41.568628%);stop-opacity:1;"/></linearGradient><linearGradient id="linear2" gradientUnits="userSpaceOnUse" x1="0" y1="0" x2="0" y2="1" gradientTransform="matrix(93.16293,0,0,61.373945,-8.373021,5.475237)"><stop offset="0" style="stop-color:rgb(81.960785%,70.980394%,59.215689%);stop-opacity:1;"/><stop offset="1" style="stop-color:rgb(65.098041%,53.725493%,41.568628%);stop-opacity:1;"/></linearGradient><linearGradient id="linear3" gradientUnits="userSpaceOnUse" x1="0" y1="0" x2="0" y2="1" gradientTransform="matrix(93.16293,0,0,61.373945,-8.373021,5.475237)"><stop offset="0" style="stop-color:rgb(81.960785%,70.980394%,59.215689%);stop-opacity:1;"/><stop offset="1" style="stop-color:rgb(65.098041%,53.725493%,41.568628%);stop-opacity:1;"/></linearGradient><linearGradient id="linear4" gradientUnits="userSpaceOnUse" x1="0" y1="0" x2="0" y2="1" gradientTransform="matrix(93.16293,0,0,61.373945,-8.373021,5.475237)"><stop offset="0" style="stop-color:rgb(81.960785%,70.980394%,59.215689%);stop-opacity:1;"/><stop offset="1" style="stop-color:rgb(65.098041%,53.725493%,41.568628%);stop-opacity:1;"/></linearGradient><filter style="color-interpolation-filters:sRGB;" inkscape:label="Diffuse Light" id="filter184" x="-0.0375" y="-0.0375" width="1.075" height="1.075"><feGaussianBlur in="SourceGraphic" stdDeviation="1" result="blur" id="feGaussianBlur174" /><feDiffuseLighting diffuseConstant="1" surfaceScale="10" lighting-color="rgb(255,255,255)" result="diffuse" id="feDiffuseLighting178"><feDistantLight elevation="8" azimuth="235" id="feDistantLight176" /></feDiffuseLighting><feComposite in="diffuse" in2="diffuse" operator="arithmetic" k1="1" result="composite1" id="feComposite180" /><feComposite in="composite1" in2="SourceGraphic" k1="1" operator="arithmetic" k3="1" result="composite2" id="feComposite182" /></filter></defs><g id="surface1" style="filter:url(#filter184)"><path style=" stroke:none;fill-rule:nonzero;fill:url(#linear0);" d="M 44.257812 56.277344 L 30.949219 56.277344 C 21.144531 56.277344 13.199219 50.027344 13.199219 43.738281 C 13.199219 36.941406 21.144531 33.476562 30.949219 33.476562 L 37.601562 33.476562 L 37.601562 26.640625 L 30.949219 26.640625 C 17.640625 26.640625 8.769531 33.476562 8.769531 43.738281 C 8.769531 53.171875 17.640625 60.835938 30.949219 60.835938 L 46.476562 60.835938 L 53.128906 47.152344 L 53.128906 6.125 C 53.128906 3.59375 51.152344 1.566406 48.695312 1.566406 Z M 44.257812 56.277344 "/><path style=" stroke:none;fill-rule:nonzero;fill:url(#linear1);" d="M 42.523438 47.984375 L 45.851562 54.820312 C 47.683594 56.40625 49.269531 59.0625 52.503906 54.820312 L 55.832031 47.984375 L 49.175781 45.703125 Z M 42.523438 47.984375 "/><path style=" stroke:none;fill-rule:nonzero;fill:url(#linear2);" d="M 47.417969 1.691406 C 44.957031 1.691406 42.980469 3.726562 42.980469 6.25 L 42.980469 8.527344 L 49.632812 10.8125 L 56.285156 8.527344 L 56.285156 6.25 C 56.285156 3.71875 54.3125 1.691406 51.847656 1.691406 Z M 47.417969 1.691406 "/><path style=" stroke:none;fill-rule:nonzero;fill:url(#linear3);" d="M 42.777344 8.496094 L 56.085938 8.496094 L 56.085938 47.25 L 42.777344 47.25 Z M 42.777344 8.496094 "/><path style=" stroke:none;fill-rule:nonzero;fill:url(#linear4);" d="M 45.972656 56.679688 L 49.300781 63.519531 L 52.628906 56.679688 Z M 45.972656 56.679688 "/></g></svg>
