<svg width="64" height="64" viewBox="0 0 64 64" version="1.1" xmlns:inkscape="http://www.inkscape.org/namespaces/inkscape"><defs><linearGradient id="linear0" gradientUnits="userSpaceOnUse" x1="0" y1="0" x2="0" y2="1" gradientTransform="matrix(74.049352,0,0,46.754108,-5.671099,10.165426)"><stop offset="0" style="stop-color:rgb(0%,73.333335%,100%);stop-opacity:1;"/><stop offset="1" style="stop-color:rgb(0%,52.156866%,70.980394%);stop-opacity:1;"/></linearGradient><filter style="color-interpolation-filters:sRGB;" inkscape:label="Diffuse Light" id="filter184" x="-0.0375" y="-0.0375" width="1.075" height="1.075"><feGaussianBlur in="SourceGraphic" stdDeviation="1" result="blur" id="feGaussianBlur174" /><feDiffuseLighting diffuseConstant="1" surfaceScale="10" lighting-color="rgb(255,255,255)" result="diffuse" id="feDiffuseLighting178"><feDistantLight elevation="8" azimuth="235" id="feDistantLight176" /></feDiffuseLighting><feComposite in="diffuse" in2="diffuse" operator="arithmetic" k1="1" result="composite1" id="feComposite180" /><feComposite in="composite1" in2="SourceGraphic" k1="1" operator="arithmetic" k3="1" result="composite2" id="feComposite182" /></filter></defs><g id="surface1" style="filter:url(#filter184)"><path style=" stroke:none;fill-rule:nonzero;fill:url(#linear0);" d="M 30.0625 1.882812 L 23.039062 10.660156 L 23.039062 13.585938 L 30.0625 22.355469 L 32.40625 22.355469 L 39.433594 13.585938 L 39.433594 10.660156 L 32.40625 1.882812 Z M 31.234375 9.195312 L 33.578125 12.117188 L 31.234375 15.042969 L 28.894531 12.117188 Z M 16.007812 19.429688 L 16.007812 34.054688 L 8.984375 34.054688 L 1.953125 42.832031 L 1.953125 63.304688 L 23.039062 63.304688 L 23.039062 19.429688 Z M 53.488281 28.144531 L 39.433594 28.207031 L 39.433594 63.304688 L 46.460938 63.304688 L 46.460938 36.921875 L 51.148438 36.980469 L 55.832031 42.832031 L 55.832031 63.304688 L 62.855469 63.304688 L 62.855469 39.851562 L 53.488281 28.148438 Z M 27.722656 28.207031 L 27.722656 63.304688 L 34.746094 63.304688 L 34.746094 28.207031 Z M 11.324219 42.832031 L 16.007812 42.832031 L 16.007812 54.527344 L 8.984375 54.527344 L 8.984375 45.753906 Z M 11.324219 42.832031 "/></g></svg>
