<?xml version="1.0" encoding="UTF-8" standalone="no"?><svg width="64" height="64" viewBox="0 0 64 64" version="1.1" id="svg33" sodipodi:docname="dirt4.svg" inkscape:version="1.2.2 (b0a8486541, 2022-12-01)" xmlns:inkscape="http://www.inkscape.org/namespaces/inkscape" xmlns:sodipodi="http://sodipodi.sourceforge.net/DTD/sodipodi-0.dtd" xmlns:xlink="http://www.w3.org/1999/xlink" xmlns="http://www.w3.org/2000/svg" xmlns:svg="http://www.w3.org/2000/svg"> <sodipodi:namedview id="namedview35" pagecolor="#ffffff" bordercolor="#000000" borderopacity="0.25" inkscape:showpageshadow="2" inkscape:pageopacity="0.0" inkscape:pagecheckerboard="0" inkscape:deskcolor="#d1d1d1" showgrid="false" inkscape:zoom="3.6875" inkscape:cx="32" inkscape:cy="32.135593" inkscape:window-width="1432" inkscape:window-height="844" inkscape:window-x="0" inkscape:window-y="0" inkscape:window-maximized="1" inkscape:current-layer="svg33" /> <defs id="defs26"> <filter id="alpha" filterUnits="objectBoundingBox" x="0" y="0" width="1" height="1"> <feColorMatrix type="matrix" in="SourceGraphic" values="0 0 0 0 1 0 0 0 0 1 0 0 0 0 1 0 0 0 1 0" id="feColorMatrix2" /> </filter> <mask id="mask0"> <g filter="url(#alpha)" id="g7"> <rect x="0" y="0" width="64" height="64" style="fill:rgb(0%,0%,0%);fill-opacity:0.6;stroke:none;" id="rect5" /> </g> </mask> <linearGradient id="linear0" gradientUnits="userSpaceOnUse" x1="0" y1="0" x2="0" y2="1" gradientTransform="matrix(52.964844,0,0,55.171875,0,0)"> <stop offset="0" style="stop-color:#d29cff;stop-opacity:1;" id="stop10" /> <stop offset="1" style="stop-color:#aa00ff;stop-opacity:1;" id="stop12" /> </linearGradient> <clipPath id="clip1"> <rect x="0" y="0" width="64" height="64" id="rect15" /> </clipPath> <g id="surface5" clip-path="url(#clip1)"> <path style=" stroke:none;fill-rule:nonzero;fill:url(#linear0);" d="M 2.796875 0 C 1.25 0 0.0859375 1.234375 0 2.757812 L 0 52.414062 C 0 53.941406 1.25 55.171875 2.796875 55.171875 L 25.003906 55.171875 C 31.269531 55.171875 37.050781 53.140625 41.710938 49.707031 C 42.339844 49.246094 41.128906 47.273438 41.609375 46.730469 C 44.550781 43.390625 46.796875 40.082031 48.382812 35.523438 C 49.359375 32.714844 52.964844 30.722656 52.964844 27.585938 C 52.964844 12.351562 40.445312 0 25.003906 0 Z M 17.65625 17.65625 L 25.085938 17.65625 C 30.898438 17.65625 35.308594 21.890625 35.308594 27.585938 C 35.308594 33.28125 30.898438 37.515625 25.085938 37.515625 L 17.65625 37.515625 Z M 17.65625 17.65625 " id="path18" /> </g> <linearGradient id="linear1" gradientUnits="userSpaceOnUse" x1="0" y1="0" x2="0" y2="1" gradientTransform="matrix(30.894531,0,0,37.464844,33.105469,28.328125)"> <stop offset="0" style="stop-color:#d29cff;stop-opacity:1;" id="stop21" /> <stop offset="1" style="stop-color:#aa00ff;stop-opacity:1;" id="stop23" /> </linearGradient> <filter style="color-interpolation-filters:sRGB;" inkscape:label="Diffuse Light" id="filter1508" x="-0.0375" y="-0.036478062" width="1.075" height="1.0729561"> <feGaussianBlur in="SourceGraphic" stdDeviation="1" result="blur" id="feGaussianBlur1498" /> <feDiffuseLighting diffuseConstant="1" surfaceScale="10" lighting-color="rgb(255,255,255)" result="diffuse" id="feDiffuseLighting1502"> <feDistantLight elevation="8" azimuth="235" id="feDistantLight1500" /> </feDiffuseLighting> <feComposite in="diffuse" in2="diffuse" operator="arithmetic" k1="1" result="composite1" id="feComposite1504" /> <feComposite in="composite1" in2="SourceGraphic" k1="1" operator="arithmetic" k3="1" result="composite2" id="feComposite1506" /> </filter> </defs> <g id="surface1" transform="scale(1,0.96163245)" style="filter:url(#filter1508)"> <use xlink:href="#surface5" mask="url(#mask0)" id="use28" /> <path style="fill:url(#linear1);fill-rule:nonzero;stroke:none" d="M 51.511719,28.328125 33.105469,50.34375 v 8.828125 h 17.652343 v 6.621094 h 8.828126 V 59.171875 H 64 V 50.34375 H 59.585938 V 28.328125 Z m -0.753907,14.050781 v 7.964844 h -6.285156 z m 0,0" id="path30" /> </g></svg>
