<svg width="64" height="64" viewBox="0 0 64 64" version="1.1" xmlns:inkscape="http://www.inkscape.org/namespaces/inkscape"><defs><linearGradient id="linear0" gradientUnits="userSpaceOnUse" x1="0" y1="0" x2="0" y2="1" gradientTransform="matrix(60.916761,0,0,46.250252,0.838635,6.269049)"><stop offset="0" style="stop-color:rgb(82.352942%,61.176473%,100%);stop-opacity:1;"/><stop offset="1" style="stop-color:rgb(66.666669%,0%,100%);stop-opacity:1;"/></linearGradient><filter style="color-interpolation-filters:sRGB;" inkscape:label="Diffuse Light" id="filter184" x="-0.0375" y="-0.0375" width="1.075" height="1.075"><feGaussianBlur in="SourceGraphic" stdDeviation="1" result="blur" id="feGaussianBlur174" /><feDiffuseLighting diffuseConstant="1" surfaceScale="10" lighting-color="rgb(255,255,255)" result="diffuse" id="feDiffuseLighting178"><feDistantLight elevation="8" azimuth="235" id="feDistantLight176" /></feDiffuseLighting><feComposite in="diffuse" in2="diffuse" operator="arithmetic" k1="1" result="composite1" id="feComposite180" /><feComposite in="composite1" in2="SourceGraphic" k1="1" operator="arithmetic" k3="1" result="composite2" id="feComposite182" /></filter></defs><g id="surface1" style="filter:url(#filter184)"><path style=" stroke:none;fill-rule:nonzero;fill:url(#linear0);" d="M 4.835938 8.011719 C -10.710938 56.902344 25.074219 12.707031 29.519531 24.773438 C 25.890625 1.808594 -1.824219 47.796875 4.835938 8.011719 Z M 59.136719 8.011719 C 65.898438 47.683594 38.082031 1.808594 34.453125 24.773438 C 38.898438 12.707031 74.6875 56.902344 59.136719 8.011719 Z M 17.179688 30.367188 C 17.179688 30.367188 14.710938 30.367188 14.710938 33.160156 L 14.710938 52.714844 C 14.710938 52.714844 14.710938 55.507812 17.179688 55.507812 L 22.113281 55.507812 C 22.113281 55.507812 24.582031 55.507812 24.582031 52.714844 L 24.582031 41.539062 L 19.644531 41.539062 L 19.644531 44.332031 L 22.113281 44.332031 L 22.113281 52.714844 L 17.179688 52.714844 L 17.179688 33.160156 L 22.113281 33.160156 L 22.113281 38.746094 L 24.582031 38.746094 L 24.582031 33.160156 C 24.582031 33.160156 24.582031 30.367188 22.113281 30.367188 Z M 29.519531 30.367188 C 29.519531 30.367188 27.050781 30.367188 27.050781 33.160156 L 27.050781 55.507812 L 29.519531 55.507812 L 29.519531 33.160156 L 34.453125 33.160156 L 34.453125 55.507812 L 36.921875 55.507812 L 36.921875 33.160156 C 36.921875 33.160156 36.921875 30.367188 34.453125 30.367188 Z M 39.390625 30.367188 L 39.390625 52.714844 C 39.390625 52.714844 39.390625 55.507812 41.859375 55.507812 L 46.796875 55.507812 C 46.796875 55.507812 49.261719 55.507812 49.261719 52.714844 L 49.261719 30.367188 L 46.796875 30.367188 L 46.796875 52.714844 L 41.859375 52.714844 L 41.859375 30.367188 Z M 39.390625 30.367188 "/></g></svg>
