<svg width="64" height="64" viewBox="0 0 64 64" version="1.1" xmlns:inkscape="http://www.inkscape.org/namespaces/inkscape"><defs><linearGradient id="linear0" gradientUnits="userSpaceOnUse" x1="0" y1="0" x2="0" y2="1" gradientTransform="matrix(65.087371,0,0,76.069656,1.236447,-5.880182)"><stop offset="0" style="stop-color:rgb(41.960785%,64.313728%,100%);stop-opacity:1;"/><stop offset="1" style="stop-color:rgb(0%,43.137255%,100%);stop-opacity:1;"/></linearGradient><linearGradient id="linear1" gradientUnits="userSpaceOnUse" x1="0" y1="0" x2="0" y2="1" gradientTransform="matrix(65.087371,0,0,76.069656,1.236447,-5.880182)"><stop offset="0" style="stop-color:rgb(41.960785%,64.313728%,100%);stop-opacity:1;"/><stop offset="1" style="stop-color:rgb(0%,43.137255%,100%);stop-opacity:1;"/></linearGradient><linearGradient id="linear2" gradientUnits="userSpaceOnUse" x1="0" y1="0" x2="0" y2="1" gradientTransform="matrix(65.087371,0,0,76.069656,1.236447,-5.880182)"><stop offset="0" style="stop-color:rgb(41.960785%,64.313728%,100%);stop-opacity:1;"/><stop offset="1" style="stop-color:rgb(0%,43.137255%,100%);stop-opacity:1;"/></linearGradient><linearGradient id="linear3" gradientUnits="userSpaceOnUse" x1="0" y1="0" x2="0" y2="1" gradientTransform="matrix(65.087371,0,0,76.069656,1.236447,-5.880182)"><stop offset="0" style="stop-color:rgb(41.960785%,64.313728%,100%);stop-opacity:1;"/><stop offset="1" style="stop-color:rgb(0%,43.137255%,100%);stop-opacity:1;"/></linearGradient><filter style="color-interpolation-filters:sRGB;" inkscape:label="Diffuse Light" id="filter184" x="-0.0375" y="-0.0375" width="1.075" height="1.075"><feGaussianBlur in="SourceGraphic" stdDeviation="1" result="blur" id="feGaussianBlur174" /><feDiffuseLighting diffuseConstant="1" surfaceScale="10" lighting-color="rgb(255,255,255)" result="diffuse" id="feDiffuseLighting178"><feDistantLight elevation="8" azimuth="235" id="feDistantLight176" /></feDiffuseLighting><feComposite in="diffuse" in2="diffuse" operator="arithmetic" k1="1" result="composite1" id="feComposite180" /><feComposite in="composite1" in2="SourceGraphic" k1="1" operator="arithmetic" k3="1" result="composite2" id="feComposite182" /></filter></defs><g id="surface1" style="filter:url(#filter184)"><path style=" stroke:none;fill-rule:nonzero;fill:url(#linear0);" d="M 32.394531 1.613281 L 5.609375 16.835938 C 7.023438 23.304688 12.40625 22.734375 17.78125 23.863281 L 32.394531 15.667969 L 47.003906 23.863281 C 53.847656 26.308594 57.1875 23.714844 59.183594 16.835938 Z M 32.394531 1.613281 "/><path style=" stroke:none;fill-rule:nonzero;fill:url(#linear1);" d="M 47.003906 23.863281 L 47.003906 40.257812 L 32.394531 48.457031 C 27.375 53.140625 29.40625 57.824219 32.394531 62.511719 L 59.183594 47.285156 L 59.183594 16.835938 Z M 47.003906 23.863281 "/><path style=" stroke:none;fill-rule:nonzero;fill:url(#linear2);" d="M 5.609375 16.835938 L 5.609375 47.285156 L 32.394531 62.511719 L 32.394531 48.457031 L 17.78125 40.257812 L 17.78125 23.863281 Z M 5.609375 16.835938 "/><path style=" stroke:none;fill-rule:nonzero;fill:url(#linear3);" d="M 42.132812 46.117188 L 59.183594 55.480469 L 59.183594 60.164062 L 54.3125 62.511719 L 49.4375 62.511719 L 32.394531 53.140625 Z M 42.132812 46.117188 "/></g></svg>
