<svg width="64" height="64" viewBox="0 0 64 64" version="1.1" xmlns:inkscape="http://www.inkscape.org/namespaces/inkscape"><defs><linearGradient id="linear0" gradientUnits="userSpaceOnUse" x1="0" y1="0" x2="0" y2="1" gradientTransform="matrix(64.148004,0,0,39.422439,0.220919,12.018593)"><stop offset="0" style="stop-color:rgb(61.176473%,69.803923%,85.09804%);stop-opacity:1;"/><stop offset="1" style="stop-color:rgb(44.313726%,52.156866%,65.882355%);stop-opacity:1;"/></linearGradient><filter style="color-interpolation-filters:sRGB;" inkscape:label="Diffuse Light" id="filter184" x="-0.0375" y="-0.0375" width="1.075" height="1.075"><feGaussianBlur in="SourceGraphic" stdDeviation="1" result="blur" id="feGaussianBlur174" /><feDiffuseLighting diffuseConstant="1" surfaceScale="10" lighting-color="rgb(255,255,255)" result="diffuse" id="feDiffuseLighting178"><feDistantLight elevation="8" azimuth="235" id="feDistantLight176" /></feDiffuseLighting><feComposite in="diffuse" in2="diffuse" operator="arithmetic" k1="1" result="composite1" id="feComposite180" /><feComposite in="composite1" in2="SourceGraphic" k1="1" operator="arithmetic" k3="1" result="composite2" id="feComposite182" /></filter></defs><g id="surface1" style="filter:url(#filter184)"><path style=" stroke:none;fill-rule:nonzero;fill:url(#linear0);" d="M 32.710938 1.847656 C 15.4375 1.847656 1.4375 15.4375 1.4375 32.191406 C 1.4375 48.953125 15.4375 62.542969 32.710938 62.542969 C 46.40625 62.539062 58.503906 53.890625 62.570312 41.207031 C 58.234375 48.160156 50.472656 52.410156 42.09375 52.425781 C 28.855469 52.425781 18.121094 42.007812 18.121094 29.160156 C 18.121094 16.3125 28.855469 5.898438 42.09375 5.898438 C 45.113281 5.902344 48.109375 6.464844 50.914062 7.542969 C 45.605469 3.851562 39.242188 1.855469 32.710938 1.847656 M 42.09375 9.941406 C 31.152344 9.941406 22.289062 18.546875 22.289062 29.160156 C 22.289062 39.773438 31.152344 48.378906 42.09375 48.378906 C 53.035156 48.378906 61.902344 39.773438 61.902344 29.160156 C 61.902344 18.546875 53.035156 9.941406 42.09375 9.941406 M 42.09375 13.988281 C 50.730469 13.988281 57.734375 20.78125 57.734375 29.160156 C 57.734375 37.542969 50.730469 44.332031 42.09375 44.332031 C 33.457031 44.332031 26.457031 37.542969 26.457031 29.160156 C 26.457031 20.78125 33.457031 13.988281 42.09375 13.988281 "/></g></svg>
