<svg width="64" height="64" viewBox="0 0 64 64" version="1.1" xmlns:inkscape="http://www.inkscape.org/namespaces/inkscape"><defs><linearGradient id="linear0" gradientUnits="userSpaceOnUse" x1="0" y1="0" x2="0" y2="1" gradientTransform="matrix(64.466743,0,0,42.671042,-1.912244,11.497633)"><stop offset="0" style="stop-color:rgb(0%,96.078432%,86.274511%);stop-opacity:1;"/><stop offset="1" style="stop-color:rgb(0%,54.901963%,49.411765%);stop-opacity:1;"/></linearGradient><filter style="color-interpolation-filters:sRGB;" inkscape:label="Diffuse Light" id="filter184" x="-0.0375" y="-0.0375" width="1.075" height="1.075"><feGaussianBlur in="SourceGraphic" stdDeviation="1" result="blur" id="feGaussianBlur174" /><feDiffuseLighting diffuseConstant="1" surfaceScale="10" lighting-color="rgb(255,255,255)" result="diffuse" id="feDiffuseLighting178"><feDistantLight elevation="8" azimuth="235" id="feDistantLight176" /></feDiffuseLighting><feComposite in="diffuse" in2="diffuse" operator="arithmetic" k1="1" result="composite1" id="feComposite180" /><feComposite in="composite1" in2="SourceGraphic" k1="1" operator="arithmetic" k3="1" result="composite2" id="feComposite182" /></filter></defs><g id="surface1" style="filter:url(#filter184)"><path style=" stroke:none;fill-rule:nonzero;fill:url(#linear0);" d="M 10.707031 50.050781 C 7.839844 48.46875 5.9375 42.566406 11.113281 42.714844 C 17.058594 42.886719 20.582031 51.230469 25.851562 50.152344 C 30.402344 49.222656 27.214844 39.796875 27.601562 34.875 C 28.113281 28.292969 26.324219 20.101562 30.441406 15.226562 C 34.445312 10.503906 36.542969 20.425781 36.542969 24.246094 L 36.542969 37.914062 C 36.542969 42.410156 36.742188 49.546875 42.25 46.683594 C 46.34375 44.558594 49.382812 38.042969 53.996094 39.171875 C 58.390625 40.257812 53.15625 47.964844 50.714844 50.125 C 46.800781 53.59375 41.96875 55.550781 38.117188 59.121094 C 35.054688 61.960938 31.273438 63.316406 27.515625 62.011719 C 21.015625 59.742188 16.6875 53.367188 10.675781 50.050781 Z M 1.914062 37.136719 C 3.839844 34.449219 11.230469 44.246094 5.527344 43.039062 C 3.34375 42.578125 0.582031 38.996094 1.914062 37.136719 Z M 56.371094 39.25 C 55.816406 35.03125 64.964844 30.933594 62.339844 37.136719 C 61.578125 38.949219 56.828125 42.863281 56.371094 39.25 Z M 31 11.113281 C 29.5625 8.96875 30.992188 -1.074219 33.582031 3.421875 C 34.734375 5.425781 34.324219 16.0625 31 11.113281 Z M 31 11.113281 "/></g></svg>
