<svg width="64" height="64" viewBox="0 0 64 64" version="1.1" xmlns:inkscape="http://www.inkscape.org/namespaces/inkscape"><defs><linearGradient id="linear0" gradientUnits="userSpaceOnUse" x1="0" y1="0" x2="0" y2="1" gradientTransform="matrix(63.653707,0,0,42.974081,1.846367,10.573395)"><stop offset="0" style="stop-color:rgb(100%,73.333335%,0%);stop-opacity:1;"/><stop offset="1" style="stop-color:rgb(70.19608%,51.372552%,0%);stop-opacity:1;"/></linearGradient><filter style="color-interpolation-filters:sRGB;" inkscape:label="Diffuse Light" id="filter184" x="-0.0375" y="-0.0375" width="1.075" height="1.075"><feGaussianBlur in="SourceGraphic" stdDeviation="1" result="blur" id="feGaussianBlur174" /><feDiffuseLighting diffuseConstant="1" surfaceScale="10" lighting-color="rgb(255,255,255)" result="diffuse" id="feDiffuseLighting178"><feDistantLight elevation="8" azimuth="235" id="feDistantLight176" /></feDiffuseLighting><feComposite in="diffuse" in2="diffuse" operator="arithmetic" k1="1" result="composite1" id="feComposite180" /><feComposite in="composite1" in2="SourceGraphic" k1="1" operator="arithmetic" k3="1" result="composite2" id="feComposite182" /></filter></defs><g id="surface1" style="filter:url(#filter184)"><path style=" stroke:none;fill-rule:nonzero;fill:url(#linear0);" d="M 32.359375 1.601562 C 32.359375 1.601562 22.875 8.878906 22.875 21.019531 L 22.875 22.234375 C 17.464844 19.921875 11.015625 18.59375 1.53125 18.59375 C 1.53125 31.363281 6.273438 38.019531 15.761719 40.445312 C 8.074219 43.648438 3.902344 50.394531 3.902344 62.292969 C 19.148438 62.292969 28.328125 58.652344 32.359375 50.15625 C 36.363281 58.652344 45.5625 62.292969 60.8125 62.292969 C 60.8125 50.394531 56.636719 43.648438 48.957031 40.445312 C 58.441406 38.019531 63.183594 31.363281 63.183594 18.59375 C 53.699219 18.59375 47.25 19.921875 41.84375 22.234375 L 41.84375 21.019531 C 41.84375 8.878906 32.359375 1.601562 32.359375 1.601562 Z M 32.359375 1.601562 "/></g></svg>
