<svg width="64" height="64" viewBox="0 0 64 64" version="1.1" xmlns:inkscape="http://www.inkscape.org/namespaces/inkscape"><defs><linearGradient id="linear0" gradientUnits="userSpaceOnUse" x1="0" y1="0" x2="0" y2="1" gradientTransform="matrix(62.515832,0,0,65.10418,0.437515,-0.970055)"><stop offset="0" style="stop-color:rgb(61.176473%,69.803923%,85.09804%);stop-opacity:1;"/><stop offset="1" style="stop-color:rgb(44.313726%,52.156866%,65.882355%);stop-opacity:1;"/></linearGradient><filter style="color-interpolation-filters:sRGB;" inkscape:label="Diffuse Light" id="filter184" x="-0.0375" y="-0.0375" width="1.075" height="1.075"><feGaussianBlur in="SourceGraphic" stdDeviation="1" result="blur" id="feGaussianBlur174" /><feDiffuseLighting diffuseConstant="1" surfaceScale="10" lighting-color="rgb(255,255,255)" result="diffuse" id="feDiffuseLighting178"><feDistantLight elevation="8" azimuth="235" id="feDistantLight176" /></feDiffuseLighting><feComposite in="diffuse" in2="diffuse" operator="arithmetic" k1="1" result="composite1" id="feComposite180" /><feComposite in="composite1" in2="SourceGraphic" k1="1" operator="arithmetic" k3="1" result="composite2" id="feComposite182" /></filter></defs><g id="surface1" style="filter:url(#filter184)"><path style=" stroke:none;fill-rule:evenodd;fill:url(#linear0);" d="M 33.183594 1.101562 C 26.390625 1.324219 51.273438 35.886719 32.113281 33.683594 C 48.089844 38.136719 51.75 17.371094 48.492188 7.207031 C 45.257812 -2.855469 43.574219 3.425781 33.9375 1.191406 C 33.652344 1.125 33.402344 1.089844 33.183594 1.101562 M 14.144531 5.917969 C 3.640625 5.90625 9.050781 9.457031 3.960938 17.988281 C -0.898438 26.140625 42.355469 11.542969 34.085938 29.777344 C 43.234375 15.859375 24.742188 5.933594 14.144531 5.917969 M 21.539062 21.519531 C 13.128906 21.5 4.671875 31.113281 2.304688 38.414062 C -0.953125 48.460938 4.074219 44.378906 10.558594 51.890625 C 16.761719 59.0625 16.339844 13.136719 31.011719 26.6875 C 28.105469 23.011719 24.820312 21.53125 21.539062 21.519531 M 57.945312 23.148438 C 52.726562 22.746094 31.347656 50.5 27.824219 33 C 28.550781 49.679688 49.296875 46.769531 57.882812 40.5 C 66.390625 34.292969 59.945312 34.628906 59.070312 24.714844 C 58.984375 23.675781 58.582031 23.203125 57.945312 23.148438 M 27.136719 28.679688 C 11.605469 34.535156 20.769531 53.5 29.339844 59.785156 C 37.832031 66.007812 35.523438 59.9375 44.621094 56.046875 C 53.316406 52.332031 9.804688 38.542969 27.136719 28.679688 "/></g></svg>
