<svg width="64" height="64" viewBox="0 0 64 64" version="1.1" xmlns:inkscape="http://www.inkscape.org/namespaces/inkscape"><defs><linearGradient id="linear0" gradientUnits="userSpaceOnUse" x1="0" y1="0" x2="0" y2="1" gradientTransform="matrix(59.628581,0,0,37.337382,2.956439,12.92679)"><stop offset="0" style="stop-color:rgb(82.352942%,61.176473%,100%);stop-opacity:1;"/><stop offset="1" style="stop-color:rgb(66.666669%,0%,100%);stop-opacity:1;"/></linearGradient><filter style="color-interpolation-filters:sRGB;" inkscape:label="Diffuse Light" id="filter184" x="-0.0375" y="-0.0375" width="1.075" height="1.075"><feGaussianBlur in="SourceGraphic" stdDeviation="1" result="blur" id="feGaussianBlur174" /><feDiffuseLighting diffuseConstant="1" surfaceScale="10" lighting-color="rgb(255,255,255)" result="diffuse" id="feDiffuseLighting178"><feDistantLight elevation="8" azimuth="235" id="feDistantLight176" /></feDiffuseLighting><feComposite in="diffuse" in2="diffuse" operator="arithmetic" k1="1" result="composite1" id="feComposite180" /><feComposite in="composite1" in2="SourceGraphic" k1="1" operator="arithmetic" k3="1" result="composite2" id="feComposite182" /></filter></defs><g id="surface1" style="filter:url(#filter184)"><path style=" stroke:none;fill-rule:nonzero;fill:url(#linear0);" d="M 39.859375 1.558594 C 14.203125 16.828125 24.464844 29.550781 27.03125 32.09375 C 25.554688 26.34375 27.363281 18.25 34.726562 14.285156 C 36.980469 13.070312 39.859375 4.105469 39.859375 1.558594 Z M 15.832031 5.101562 C 8.578125 33.894531 24.90625 35.695312 28.53125 35.695312 C 23.386719 32.660156 18.898438 25.667969 21.277344 17.699219 C 22.007812 15.261719 17.648438 6.902344 15.832031 5.101562 Z M 45.746094 14.085938 C 29.730469 14.335938 28.53125 25.574219 28.53125 28.5 C 31.59375 23.394531 38.640625 18.945312 46.671875 21.300781 C 49.132812 22.023438 57.558594 17.703125 59.375 15.90625 C 53.933594 14.554688 49.445312 14.027344 45.753906 14.085938 Z M 42.746094 22.871094 C 37.292969 22.550781 33.445312 25.734375 32.160156 27.003906 C 37.960938 25.542969 46.121094 27.335938 50.121094 34.636719 C 51.34375 36.878906 60.378906 39.730469 62.945312 39.730469 C 55.253906 27.003906 48.195312 23.191406 42.746094 22.871094 Z M 1.371094 24.460938 C 16.765625 49.90625 29.59375 39.730469 32.160156 37.1875 C 26.355469 38.648438 18.199219 36.851562 14.199219 29.550781 C 12.976562 27.3125 3.9375 24.460938 1.371094 24.460938 Z M 35.785156 28.496094 C 40.9375 31.53125 45.421875 38.523438 43.042969 46.488281 C 42.316406 48.925781 46.671875 57.289062 48.484375 59.089844 C 55.742188 30.300781 39.417969 28.5 35.785156 28.5 Z M 37.292969 32.09375 C 38.765625 37.851562 36.953125 45.941406 29.59375 49.90625 C 27.339844 51.121094 24.464844 60.089844 24.464844 62.632812 C 50.121094 47.363281 39.859375 34.636719 37.292969 32.09375 Z M 35.785156 35.695312 C 32.730469 40.796875 25.683594 45.25 17.648438 42.890625 C 15.1875 42.167969 6.757812 46.488281 4.945312 48.289062 C 33.972656 55.484375 35.785156 39.292969 35.785156 35.695312 Z M 35.785156 35.695312 "/></g></svg>
