<svg width="64" height="64" viewBox="0 0 64 64" version="1.1" xmlns:inkscape="http://www.inkscape.org/namespaces/inkscape"><defs><linearGradient id="linear0" gradientUnits="userSpaceOnUse" x1="0" y1="0" x2="0" y2="1" gradientTransform="matrix(65.581997,0,0,67.530898,-0.937355,-1.810796)"><stop offset="0" style="stop-color:rgb(75.686276%,77.64706%,83.92157%);stop-opacity:1;"/><stop offset="1" style="stop-color:rgb(43.529412%,45.09804%,50.196081%);stop-opacity:1;"/></linearGradient><filter style="color-interpolation-filters:sRGB;" inkscape:label="Diffuse Light" id="filter184" x="-0.0375" y="-0.0375" width="1.075" height="1.075"><feGaussianBlur in="SourceGraphic" stdDeviation="1" result="blur" id="feGaussianBlur174" /><feDiffuseLighting diffuseConstant="1" surfaceScale="10" lighting-color="rgb(255,255,255)" result="diffuse" id="feDiffuseLighting178"><feDistantLight elevation="8" azimuth="235" id="feDistantLight176" /></feDiffuseLighting><feComposite in="diffuse" in2="diffuse" operator="arithmetic" k1="1" result="composite1" id="feComposite180" /><feComposite in="composite1" in2="SourceGraphic" k1="1" operator="arithmetic" k3="1" result="composite2" id="feComposite182" /></filter></defs><g id="surface1" style="filter:url(#filter184)"><path style=" stroke:none;fill-rule:evenodd;fill:url(#linear0);" d="M 25.988281 2.734375 C 13.652344 3.335938 4.003906 14.808594 4.488281 21.039062 C 4.964844 27.113281 19.96875 32.445312 19.792969 32.617188 C 16.71875 35.28125 14.695312 37.074219 12.144531 39.46875 C 5.984375 45.242188 1.726562 49.523438 3.878906 55.527344 C 6.371094 62.457031 11.820312 62.171875 18.210938 60.886719 C 34.703125 57.546875 61.855469 36.160156 60.476562 28.261719 C 59.355469 21.878906 44.183594 9.253906 35.210938 4.730469 C 32.410156 3.324219 29.226562 2.585938 25.988281 2.746094 M 28.53125 13.699219 C 30.078125 13.550781 31.871094 13.957031 33.875 14.945312 C 38.25 17.113281 42.78125 22.867188 33.875 26.148438 C 31.457031 27.042969 23.6875 24.007812 23.914062 19.800781 C 24.136719 15.917969 25.964844 13.945312 28.53125 13.699219 "/></g></svg>
