<svg width="64" height="64" viewBox="0 0 64 64" version="1.1" xmlns:inkscape="http://www.inkscape.org/namespaces/inkscape"><defs><linearGradient id="linear0" gradientUnits="userSpaceOnUse" x1="0" y1="0" x2="0" y2="1" gradientTransform="matrix(88.430615,0,0,65.210058,-13.010893,-5.919575)"><stop offset="0" style="stop-color:rgb(100%,63.137257%,63.137257%);stop-opacity:1;"/><stop offset="1" style="stop-color:rgb(100%,27.843139%,27.843139%);stop-opacity:1;"/></linearGradient><linearGradient id="linear1" gradientUnits="userSpaceOnUse" x1="0" y1="0" x2="0" y2="1" gradientTransform="matrix(88.430615,0,0,65.210058,-13.010893,-5.919575)"><stop offset="0" style="stop-color:rgb(100%,63.137257%,63.137257%);stop-opacity:1;"/><stop offset="1" style="stop-color:rgb(100%,27.843139%,27.843139%);stop-opacity:1;"/></linearGradient><filter style="color-interpolation-filters:sRGB;" inkscape:label="Diffuse Light" id="filter184" x="-0.0375" y="-0.0375" width="1.075" height="1.075"><feGaussianBlur in="SourceGraphic" stdDeviation="1" result="blur" id="feGaussianBlur174" /><feDiffuseLighting diffuseConstant="1" surfaceScale="10" lighting-color="rgb(255,255,255)" result="diffuse" id="feDiffuseLighting178"><feDistantLight elevation="8" azimuth="235" id="feDistantLight176" /></feDiffuseLighting><feComposite in="diffuse" in2="diffuse" operator="arithmetic" k1="1" result="composite1" id="feComposite180" /><feComposite in="composite1" in2="SourceGraphic" k1="1" operator="arithmetic" k3="1" result="composite2" id="feComposite182" /></filter></defs><g id="surface1" style="filter:url(#filter184)"><path style=" stroke:none;fill-rule:nonzero;fill:url(#linear0);" d="M 8.042969 4.886719 C 5.9375 4.886719 3.835938 7.308594 3.835938 9.734375 C 3.835938 15.664062 9.121094 21.839844 16.46875 21.839844 L 29.101562 21.839844 L 29.101562 26.683594 L 8.042969 26.683594 C 5.9375 26.683594 3.835938 26.683594 3.835938 29.105469 C 3.835938 36.371094 12.253906 36.371094 15.414062 36.371094 C 22.785156 36.371094 22.785156 31.53125 29.101562 31.53125 L 29.101562 33.953125 L 31.203125 36.371094 L 31.203125 60.597656 L 33.308594 63.015625 L 35.417969 60.597656 L 35.417969 36.371094 L 37.519531 33.953125 L 37.519531 31.53125 C 43.835938 31.53125 43.835938 36.371094 51.207031 36.371094 C 54.367188 36.371094 62.785156 36.371094 62.785156 29.105469 C 62.785156 26.683594 60.683594 26.683594 58.574219 26.683594 L 37.519531 26.683594 L 37.519531 21.839844 L 50.152344 21.839844 C 57.5 21.839844 62.785156 15.664062 62.785156 9.734375 C 62.785156 7.308594 60.683594 4.886719 58.574219 4.886719 C 52.257812 4.886719 45.941406 17 37.519531 17 L 36.464844 14.574219 C 38.21875 14.574219 39.625 12.957031 39.625 10.941406 C 39.625 8.933594 38.21875 7.308594 36.464844 7.308594 L 30.148438 7.308594 C 28.402344 7.308594 26.992188 8.933594 26.992188 10.941406 C 26.992188 12.957031 28.402344 14.574219 30.148438 14.574219 L 29.101562 17 C 20.675781 17 14.359375 4.886719 8.042969 4.886719 Z M 8.042969 4.886719 "/><path style=" stroke:none;fill-rule:nonzero;fill:url(#linear1);" d="M 5.9375 2.46875 C 3.835938 2.46875 1.726562 4.886719 1.726562 7.308594 C 1.726562 13.246094 7.011719 19.417969 14.359375 19.417969 L 26.992188 19.417969 L 26.992188 14.574219 C 18.570312 14.574219 12.253906 2.46875 5.9375 2.46875 Z M 56.46875 2.46875 C 50.152344 2.46875 43.835938 14.574219 35.417969 14.574219 L 35.417969 19.417969 L 48.050781 19.417969 C 55.398438 19.417969 60.683594 13.246094 60.683594 7.308594 C 60.683594 4.886719 58.574219 2.46875 56.46875 2.46875 Z M 5.9375 24.265625 C 3.835938 24.265625 1.726562 24.265625 1.726562 26.683594 C 1.726562 33.953125 10.152344 33.953125 13.308594 33.953125 C 20.675781 33.953125 20.675781 29.105469 26.992188 29.105469 L 26.992188 24.265625 Z M 35.417969 24.265625 L 35.417969 29.105469 C 41.734375 29.105469 41.734375 33.953125 49.097656 33.953125 C 52.257812 33.953125 60.683594 33.953125 60.683594 26.683594 C 60.683594 24.265625 58.574219 24.265625 56.46875 24.265625 Z M 35.417969 24.265625 "/></g></svg>
