<svg width="64" height="64" viewBox="0 0 64 64" version="1.1" xmlns:inkscape="http://www.inkscape.org/namespaces/inkscape"><defs><linearGradient id="linear0" gradientUnits="userSpaceOnUse" x1="0" y1="0" x2="0" y2="1" gradientTransform="matrix(66.81448,0,0,41.056769,-0.687932,11.535103)"><stop offset="0" style="stop-color:rgb(100%,63.137257%,63.137257%);stop-opacity:1;"/><stop offset="1" style="stop-color:rgb(100%,27.843139%,27.843139%);stop-opacity:1;"/></linearGradient><filter style="color-interpolation-filters:sRGB;" inkscape:label="Diffuse Light" id="filter184" x="-0.0375" y="-0.0375" width="1.075" height="1.075"><feGaussianBlur in="SourceGraphic" stdDeviation="1" result="blur" id="feGaussianBlur174" /><feDiffuseLighting diffuseConstant="1" surfaceScale="10" lighting-color="rgb(255,255,255)" result="diffuse" id="feDiffuseLighting178"><feDistantLight elevation="8" azimuth="235" id="feDistantLight176" /></feDiffuseLighting><feComposite in="diffuse" in2="diffuse" operator="arithmetic" k1="1" result="composite1" id="feComposite180" /><feComposite in="composite1" in2="SourceGraphic" k1="1" operator="arithmetic" k3="1" result="composite2" id="feComposite182" /></filter></defs><g id="surface1" style="filter:url(#filter184)"><path style=" stroke:none;fill-rule:nonzero;fill:url(#linear0);" d="M 1.484375 2.019531 L 1.484375 63.054688 L 9.121094 63.054688 L 9.121094 2.019531 Z M 16.757812 2.019531 L 16.757812 9.058594 L 49.847656 25.492188 L 49.847656 30.1875 L 62.574219 30.1875 L 62.574219 23.144531 L 26.941406 6.714844 L 26.941406 2.019531 Z M 52.390625 2.019531 L 52.390625 6.714844 L 43.941406 10.609375 L 51.984375 14.320312 L 62.574219 9.058594 L 62.574219 2.019531 Z M 27.292969 18.285156 L 16.757812 23.144531 L 16.757812 30.1875 L 29.484375 30.1875 L 29.484375 25.492188 L 35.644531 22.441406 Z M 24.394531 34.882812 C 20.167969 34.882812 16.757812 38.027344 16.757812 41.929688 L 16.757812 56.007812 C 16.757812 59.90625 20.167969 63.054688 24.394531 63.054688 L 62.574219 63.054688 L 62.574219 56.007812 L 26.941406 56.007812 C 25.527344 56.007812 24.394531 54.964844 24.394531 53.664062 L 24.394531 44.273438 C 24.394531 42.972656 25.527344 41.929688 26.941406 41.929688 L 47.300781 41.929688 L 29.484375 51.3125 L 44.757812 51.3125 L 62.574219 41.929688 C 62.574219 38.027344 59.164062 34.882812 54.9375 34.882812 Z M 24.394531 34.882812 "/></g></svg>
