<svg width="64" height="64" viewBox="0 0 64 64" version="1.1" xmlns:inkscape="http://www.inkscape.org/namespaces/inkscape"><defs><linearGradient id="linear0" gradientUnits="userSpaceOnUse" x1="0" y1="0" x2="0" y2="1" gradientTransform="matrix(64.504767,0,0,44.046416,-0.766655,9.292017)"><stop offset="0" style="stop-color:rgb(0%,73.333335%,100%);stop-opacity:1;"/><stop offset="1" style="stop-color:rgb(0%,52.156866%,70.980394%);stop-opacity:1;"/></linearGradient><filter style="color-interpolation-filters:sRGB;" inkscape:label="Diffuse Light" id="filter184" x="-0.0375" y="-0.0375" width="1.075" height="1.075"><feGaussianBlur in="SourceGraphic" stdDeviation="1" result="blur" id="feGaussianBlur174" /><feDiffuseLighting diffuseConstant="1" surfaceScale="10" lighting-color="rgb(255,255,255)" result="diffuse" id="feDiffuseLighting178"><feDistantLight elevation="8" azimuth="235" id="feDistantLight176" /></feDiffuseLighting><feComposite in="diffuse" in2="diffuse" operator="arithmetic" k1="1" result="composite1" id="feComposite180" /><feComposite in="composite1" in2="SourceGraphic" k1="1" operator="arithmetic" k3="1" result="composite2" id="feComposite182" /></filter></defs><g id="surface1" style="filter:url(#filter184)"><path style=" stroke:none;fill-rule:nonzero;fill:url(#linear0);" d="M 1.753906 1.371094 L 1.753906 31.785156 C 1.753906 33.183594 2.886719 34.320312 4.285156 34.320312 L 57.449219 34.320312 L 57.449219 57.132812 L 34.667969 57.132812 L 34.667969 39.390625 L 29.601562 39.390625 L 29.601562 59.667969 C 29.601562 61.070312 30.734375 62.207031 32.132812 62.207031 L 59.980469 62.207031 C 61.378906 62.207031 62.515625 61.070312 62.515625 59.667969 L 62.515625 31.785156 C 62.515625 30.390625 61.378906 29.253906 59.980469 29.253906 L 6.816406 29.253906 L 6.816406 6.441406 L 29.601562 6.441406 L 29.601562 24.183594 L 34.667969 24.183594 L 34.667969 3.90625 C 34.667969 2.503906 33.527344 1.371094 32.132812 1.371094 Z M 1.753906 1.371094 "/></g></svg>
