<svg width="64" height="64" viewBox="0 0 64 64" version="1.1" xmlns:inkscape="http://www.inkscape.org/namespaces/inkscape"><defs><linearGradient id="linear0" gradientUnits="userSpaceOnUse" x1="0" y1="0" x2="0" y2="1" gradientTransform="matrix(66.254293,0,0,41.834166,0.284819,10.57003)"><stop offset="0" style="stop-color:rgb(41.960785%,64.313728%,100%);stop-opacity:1;"/><stop offset="1" style="stop-color:rgb(0%,43.137255%,100%);stop-opacity:1;"/></linearGradient><filter style="color-interpolation-filters:sRGB;" inkscape:label="Diffuse Light" id="filter184" x="-0.0375" y="-0.0375" width="1.075" height="1.075"><feGaussianBlur in="SourceGraphic" stdDeviation="1" result="blur" id="feGaussianBlur174" /><feDiffuseLighting diffuseConstant="1" surfaceScale="10" lighting-color="rgb(255,255,255)" result="diffuse" id="feDiffuseLighting178"><feDistantLight elevation="8" azimuth="235" id="feDistantLight176" /></feDiffuseLighting><feComposite in="diffuse" in2="diffuse" operator="arithmetic" k1="1" result="composite1" id="feComposite180" /><feComposite in="composite1" in2="SourceGraphic" k1="1" operator="arithmetic" k3="1" result="composite2" id="feComposite182" /></filter></defs><g id="surface1" style="filter:url(#filter184)"><path style=" stroke:none;fill-rule:nonzero;fill:url(#linear0);" d="M 32.097656 1.425781 C 24.460938 22.097656 1.542969 63.433594 1.542969 63.433594 C 1.542969 63.433594 12.523438 56.03125 25.171875 53.765625 C 23.332031 51.210938 20.644531 46.441406 20.644531 40.183594 C 20.644531 29.414062 31.480469 23.894531 31.480469 23.894531 L 37.1875 20.585938 L 37.191406 27.257812 C 37.191406 27.257812 37.246094 29.039062 38.066406 30.699219 C 38.800781 32.195312 39.933594 33.328125 41.242188 35.566406 C 42.546875 37.800781 43.5625 40.957031 43.5625 45.347656 C 43.5625 48.679688 42.484375 51.636719 41.070312 54.171875 C 52.835938 56.804688 62.65625 63.433594 62.65625 63.433594 C 62.65625 63.433594 39.738281 22.097656 32.097656 1.425781 Z M 33.375 27.261719 C 33.375 27.261719 24.460938 32.429688 24.460938 40.183594 C 24.460938 47.933594 29.554688 53.101562 29.554688 53.101562 C 29.554688 53.101562 27.773438 48.070312 27.773438 45.347656 C 27.773438 42.765625 30.828125 40.183594 30.828125 40.183594 C 30.828125 40.183594 34.644531 42.765625 34.644531 47.933594 C 34.644531 52.445312 30.675781 60.851562 30.675781 60.851562 C 30.675781 60.851562 39.738281 53.101562 39.738281 45.347656 C 39.738281 37.597656 36.6875 36.582031 34.644531 32.429688 C 33.375 29.847656 33.375 27.261719 33.375 27.261719 Z M 33.375 27.261719 "/></g></svg>
