<svg width="64" height="64" viewBox="0 0 64 64" version="1.1" xmlns:inkscape="http://www.inkscape.org/namespaces/inkscape"><defs><linearGradient id="linear0" gradientUnits="userSpaceOnUse" x1="0" y1="0" x2="0" y2="1" gradientTransform="matrix(56,0,0,35.898438,4,14.050781)"><stop offset="0" style="stop-color:rgb(0%,73.333335%,100%);stop-opacity:1;"/><stop offset="1" style="stop-color:rgb(0%,52.156866%,70.980394%);stop-opacity:1;"/></linearGradient><filter style="color-interpolation-filters:sRGB;" inkscape:label="Diffuse Light" id="filter184" x="-0.0375" y="-0.0375" width="1.075" height="1.075"><feGaussianBlur in="SourceGraphic" stdDeviation="1" result="blur" id="feGaussianBlur174" /><feDiffuseLighting diffuseConstant="1" surfaceScale="10" lighting-color="rgb(255,255,255)" result="diffuse" id="feDiffuseLighting178"><feDistantLight elevation="8" azimuth="235" id="feDistantLight176" /></feDiffuseLighting><feComposite in="diffuse" in2="diffuse" operator="arithmetic" k1="1" result="composite1" id="feComposite180" /><feComposite in="composite1" in2="SourceGraphic" k1="1" operator="arithmetic" k3="1" result="composite2" id="feComposite182" /></filter></defs><g id="surface1" style="filter:url(#filter184)"><path style=" stroke:none;fill-rule:nonzero;fill:url(#linear0);" d="M 44.0625 25.414062 L 42.164062 31.980469 L 36.464844 31.980469 L 40.640625 35.921875 L 38.363281 42.925781 L 44.0625 38.550781 L 49.765625 42.925781 L 47.484375 35.921875 L 51.664062 31.980469 L 45.964844 31.980469 Z M 2.257812 31.980469 L 2.257812 40.738281 L 9.859375 40.738281 L 9.859375 31.980469 Z M 13.660156 31.980469 L 13.660156 40.738281 L 21.261719 40.738281 L 21.261719 31.980469 Z M 25.0625 31.980469 L 25.0625 40.738281 L 32.664062 40.738281 L 32.664062 31.980469 Z M 55.464844 31.980469 L 55.464844 40.738281 L 63.066406 40.738281 L 63.066406 31.980469 Z M 55.464844 31.980469 "/></g></svg>
