<svg width="64" height="64" viewBox="0 0 64 64" version="1.1" xmlns:inkscape="http://www.inkscape.org/namespaces/inkscape"><defs><linearGradient id="linear0" gradientUnits="userSpaceOnUse" x1="0" y1="0" x2="0" y2="1" gradientTransform="matrix(66.808932,0,0,43.916351,-1.26307,7.510847)"><stop offset="0" style="stop-color:rgb(82.352942%,61.176473%,100%);stop-opacity:1;"/><stop offset="1" style="stop-color:rgb(66.666669%,0%,100%);stop-opacity:1;"/></linearGradient><filter style="color-interpolation-filters:sRGB;" inkscape:label="Diffuse Light" id="filter184" x="-0.0375" y="-0.0375" width="1.075" height="1.075"><feGaussianBlur in="SourceGraphic" stdDeviation="1" result="blur" id="feGaussianBlur174" /><feDiffuseLighting diffuseConstant="1" surfaceScale="10" lighting-color="rgb(255,255,255)" result="diffuse" id="feDiffuseLighting178"><feDistantLight elevation="8" azimuth="235" id="feDistantLight176" /></feDiffuseLighting><feComposite in="diffuse" in2="diffuse" operator="arithmetic" k1="1" result="composite1" id="feComposite180" /><feComposite in="composite1" in2="SourceGraphic" k1="1" operator="arithmetic" k3="1" result="composite2" id="feComposite182" /></filter></defs><g id="surface1" style="filter:url(#filter184)"><path style=" stroke:none;fill-rule:nonzero;fill:url(#linear0);" d="M 27.457031 1.613281 C 14.488281 1.613281 4.046875 12.964844 4.046875 27.054688 L 4.046875 62.679688 L 36.820312 62.679688 C 49.789062 62.679688 60.230469 51.332031 60.230469 37.234375 L 60.230469 1.613281 Z M 8.726562 19.425781 L 26.285156 19.425781 C 32.113281 19.425781 36.820312 24.539062 36.820312 30.875 C 36.820312 33.828125 35.777344 36.476562 34.101562 38.511719 C 35.78125 40.53125 36.820312 43.1875 36.820312 46.140625 C 36.820312 52.476562 32.066406 56.75 26.285156 57.589844 L 8.726562 57.589844 L 8.726562 49.960938 L 26.285156 49.960938 C 28.230469 49.960938 29.796875 48.253906 29.796875 46.140625 C 29.796875 44.023438 28.210938 42.046875 26.285156 42.324219 L 8.726562 42.324219 L 8.726562 34.691406 L 26.285156 34.691406 C 28.230469 34.691406 29.796875 32.992188 29.796875 30.875 C 29.796875 28.761719 28.230469 27.054688 26.285156 27.054688 L 8.726562 27.054688 "/></g></svg>
