<svg width="64" height="64" viewBox="0 0 64 64" version="1.1" xmlns:inkscape="http://www.inkscape.org/namespaces/inkscape"><defs><linearGradient id="linear0" gradientUnits="userSpaceOnUse" x1="0" y1="0" x2="0" y2="1" gradientTransform="matrix(70.004325,0,0,65.77754,-3.036498,-0.885863)"><stop offset="0" style="stop-color:rgb(100%,73.333335%,0%);stop-opacity:1;"/><stop offset="1" style="stop-color:rgb(70.19608%,51.372552%,0%);stop-opacity:1;"/></linearGradient><filter style="color-interpolation-filters:sRGB;" inkscape:label="Diffuse Light" id="filter184" x="-0.0375" y="-0.0375" width="1.075" height="1.075"><feGaussianBlur in="SourceGraphic" stdDeviation="1" result="blur" id="feGaussianBlur174" /><feDiffuseLighting diffuseConstant="1" surfaceScale="10" lighting-color="rgb(255,255,255)" result="diffuse" id="feDiffuseLighting178"><feDistantLight elevation="8" azimuth="235" id="feDistantLight176" /></feDiffuseLighting><feComposite in="diffuse" in2="diffuse" operator="arithmetic" k1="1" result="composite1" id="feComposite180" /><feComposite in="composite1" in2="SourceGraphic" k1="1" operator="arithmetic" k3="1" result="composite2" id="feComposite182" /></filter></defs><g id="surface1" style="filter:url(#filter184)"><path style=" stroke:none;fill-rule:nonzero;fill:url(#linear0);" d="M 9.480469 50.257812 L 2.574219 51.824219 L 1.492188 58.765625 L 28.460938 62.445312 C 46.125 64.855469 59.179688 55.210938 62.039062 36.84375 C 64.910156 18.46875 56.148438 7.429688 38.746094 5.050781 L 30.480469 3.921875 L 10.410156 1.601562 L 9.328125 8.539062 L 15.472656 11.878906 L 9.480469 50.257812 M 23.035156 51.695312 L 28.953125 13.726562 L 36.785156 14.796875 C 45.3125 15.957031 49.503906 21.53125 47.363281 35.257812 C 45.074219 49.949219 38.691406 53.832031 30.25 52.675781 L 23.035156 51.695312 "/></g></svg>
