<svg width="64" height="64" viewBox="0 0 64 64" version="1.1" xmlns:inkscape="http://www.inkscape.org/namespaces/inkscape"><defs><linearGradient id="linear0" gradientUnits="userSpaceOnUse" x1="0" y1="0" x2="0" y2="1" gradientTransform="matrix(72.716551,0,0,42.325076,-4.757483,8.810266)"><stop offset="0" style="stop-color:rgb(100%,56.862748%,82.745099%);stop-opacity:1;"/><stop offset="1" style="stop-color:rgb(100%,0%,60.000002%);stop-opacity:1;"/></linearGradient><filter style="color-interpolation-filters:sRGB;" inkscape:label="Diffuse Light" id="filter184" x="-0.0375" y="-0.0375" width="1.075" height="1.075"><feGaussianBlur in="SourceGraphic" stdDeviation="1" result="blur" id="feGaussianBlur174" /><feDiffuseLighting diffuseConstant="1" surfaceScale="10" lighting-color="rgb(255,255,255)" result="diffuse" id="feDiffuseLighting178"><feDistantLight elevation="8" azimuth="235" id="feDistantLight176" /></feDiffuseLighting><feComposite in="diffuse" in2="diffuse" operator="arithmetic" k1="1" result="composite1" id="feComposite180" /><feComposite in="composite1" in2="SourceGraphic" k1="1" operator="arithmetic" k3="1" result="composite2" id="feComposite182" /></filter></defs><g id="surface1" style="filter:url(#filter184)"><path style=" stroke:none;fill-rule:nonzero;fill:url(#linear0);" d="M 62.902344 32.4375 C 62.902344 49.429688 49.070312 63.199219 31.984375 63.199219 C 14.90625 63.199219 1.070312 49.429688 1.070312 32.4375 C 1.070312 15.4375 14.90625 1.671875 31.984375 1.671875 L 62.902344 1.671875 Z M 62.902344 32.4375 "/><path style=" stroke:none;fill-rule:nonzero;fill:rgb(100%,56.862748%,82.745099%);fill-opacity:1;" d="M 44.519531 8.371094 L 44.519531 22.871094 C 41.105469 19.289062 36.136719 17.003906 30.585938 17.003906 C 20.320312 17.003906 12.007812 24.722656 12.007812 34.261719 C 12.007812 43.792969 20.320312 51.519531 30.585938 51.519531 C 40.847656 51.519531 49.167969 43.792969 49.167969 34.261719 L 49.167969 8.371094 Z M 44.519531 8.371094 "/></g></svg>
