<svg width="64" height="64" viewBox="0 0 64 64" version="1.1" xmlns:inkscape="http://www.inkscape.org/namespaces/inkscape"><defs><linearGradient id="linear0" gradientUnits="userSpaceOnUse" x1="0" y1="0" x2="0" y2="1" gradientTransform="matrix(68.505186,0,0,40.364568,-1.313379,11.233639)"><stop offset="0" style="stop-color:rgb(87.058824%,86.666667%,56.470591%);stop-opacity:1;"/><stop offset="1" style="stop-color:rgb(67.843139%,67.450982%,38.039216%);stop-opacity:1;"/></linearGradient><filter style="color-interpolation-filters:sRGB;" inkscape:label="Diffuse Light" id="filter184" x="-0.0375" y="-0.0375" width="1.075" height="1.075"><feGaussianBlur in="SourceGraphic" stdDeviation="1" result="blur" id="feGaussianBlur174" /><feDiffuseLighting diffuseConstant="1" surfaceScale="10" lighting-color="rgb(255,255,255)" result="diffuse" id="feDiffuseLighting178"><feDistantLight elevation="8" azimuth="235" id="feDistantLight176" /></feDiffuseLighting><feComposite in="diffuse" in2="diffuse" operator="arithmetic" k1="1" result="composite1" id="feComposite180" /><feComposite in="composite1" in2="SourceGraphic" k1="1" operator="arithmetic" k3="1" result="composite2" id="feComposite182" /></filter></defs><g id="surface1" style="filter:url(#filter184)"><path style=" stroke:none;fill-rule:nonzero;fill:url(#linear0);" d="M 9.976562 1.34375 L 9.976562 10.808594 L 12.425781 10.808594 L 15.21875 18.242188 L 34.441406 10.808594 L 41.78125 10.808594 L 16.144531 20.722656 L 18.9375 28.15625 L 49.472656 16.34375 L 51.554688 10.808594 L 54.003906 10.808594 L 54.003906 1.34375 Z M 48.238281 19.667969 L 19.882812 30.632812 L 22.683594 38.070312 L 44.492188 29.632812 Z M 43.242188 32.953125 L 23.613281 40.550781 L 26.101562 47.15625 L 39.910156 41.8125 Z M 38.660156 45.132812 L 27.027344 49.636719 L 29.511719 56.246094 L 35.328125 53.996094 Z M 34.082031 57.316406 L 30.445312 58.722656 L 31.996094 62.855469 Z M 34.082031 57.316406 "/></g></svg>
