<svg width="64" height="64" viewBox="0 0 64 64" version="1.1" xmlns:inkscape="http://www.inkscape.org/namespaces/inkscape"><defs><linearGradient id="linear0" gradientUnits="userSpaceOnUse" x1="0" y1="0" x2="0" y2="1" gradientTransform="matrix(25.296875,0,0,64,19.351563,0)"><stop offset="0" style="stop-color:rgb(82.352942%,61.176473%,100%);stop-opacity:1;"/><stop offset="1" style="stop-color:rgb(66.666669%,0%,100%);stop-opacity:1;"/></linearGradient><filter style="color-interpolation-filters:sRGB;" inkscape:label="Diffuse Light" id="filter184" x="-0.0375" y="-0.0375" width="1.075" height="1.075"><feGaussianBlur in="SourceGraphic" stdDeviation="1" result="blur" id="feGaussianBlur174" /><feDiffuseLighting diffuseConstant="1" surfaceScale="10" lighting-color="rgb(255,255,255)" result="diffuse" id="feDiffuseLighting178"><feDistantLight elevation="8" azimuth="235" id="feDistantLight176" /></feDiffuseLighting><feComposite in="diffuse" in2="diffuse" operator="arithmetic" k1="1" result="composite1" id="feComposite180" /><feComposite in="composite1" in2="SourceGraphic" k1="1" operator="arithmetic" k3="1" result="composite2" id="feComposite182" /></filter></defs><g id="surface1" style="filter:url(#filter184)"><path style=" stroke:none;fill-rule:evenodd;fill:url(#linear0);" d="M 22.160156 9.839844 C 22.160156 4.40625 26.566406 0 32 0 C 37.433594 0 41.839844 4.40625 41.839844 9.839844 C 41.839844 15.269531 37.433594 19.675781 32 19.675781 C 26.566406 19.675781 22.160156 15.269531 22.160156 9.839844 Z M 19.351562 37.949219 L 19.351562 64 L 24.972656 64 L 24.972656 48.464844 C 26.984375 49.8125 29.398438 50.601562 32 50.601562 C 38.980469 50.601562 44.648438 44.933594 44.648438 37.949219 C 44.648438 30.96875 38.980469 25.300781 32 25.300781 C 25.019531 25.300781 19.351562 30.96875 19.351562 37.949219 Z M 19.351562 37.949219 "/></g></svg>
