<svg width="64" height="64" viewBox="0 0 64 64" version="1.1" xmlns:inkscape="http://www.inkscape.org/namespaces/inkscape"><defs><linearGradient id="linear0" gradientUnits="userSpaceOnUse" x1="0" y1="0" x2="0" y2="1" gradientTransform="matrix(38.960938,0,0,64,12.519531,0)"><stop offset="0" style="stop-color:rgb(100%,73.333335%,0%);stop-opacity:1;"/><stop offset="1" style="stop-color:rgb(70.19608%,51.372552%,0%);stop-opacity:1;"/></linearGradient><filter style="color-interpolation-filters:sRGB;" inkscape:label="Diffuse Light" id="filter184" x="-0.0375" y="-0.0375" width="1.075" height="1.075"><feGaussianBlur in="SourceGraphic" stdDeviation="1" result="blur" id="feGaussianBlur174" /><feDiffuseLighting diffuseConstant="1" surfaceScale="10" lighting-color="rgb(255,255,255)" result="diffuse" id="feDiffuseLighting178"><feDistantLight elevation="8" azimuth="235" id="feDistantLight176" /></feDiffuseLighting><feComposite in="diffuse" in2="diffuse" operator="arithmetic" k1="1" result="composite1" id="feComposite180" /><feComposite in="composite1" in2="SourceGraphic" k1="1" operator="arithmetic" k3="1" result="composite2" id="feComposite182" /></filter></defs><g id="surface1" style="filter:url(#filter184)"><path style=" stroke:none;fill-rule:nonzero;fill:url(#linear0);" d="M 19.480469 0 C 15.585938 0 12.519531 3.058594 12.519531 6.957031 L 12.519531 57.042969 C 12.519531 60.941406 15.585938 64 19.480469 64 L 44.519531 64 C 48.414062 64 51.480469 60.941406 51.480469 57.042969 L 51.480469 6.957031 C 51.480469 3.058594 48.414062 0 44.519531 0 Z M 19.480469 2.785156 L 44.519531 2.785156 C 46.886719 2.785156 48.695312 4.59375 48.695312 6.957031 L 48.695312 50.089844 L 15.304688 50.089844 L 15.304688 6.957031 C 15.304688 4.59375 17.113281 2.785156 19.480469 2.785156 Z M 22 12.519531 C 21.234375 12.59375 20.667969 13.277344 20.738281 14.042969 C 20.808594 14.808594 21.496094 15.375 22.261719 15.304688 L 41.738281 15.304688 C 42.238281 15.308594 42.707031 15.046875 42.964844 14.617188 C 43.210938 14.179688 43.210938 13.644531 42.964844 13.210938 C 42.707031 12.777344 42.238281 12.515625 41.738281 12.519531 Z M 22 19.480469 C 21.234375 19.546875 20.667969 20.230469 20.738281 21 C 20.808594 21.765625 21.496094 22.332031 22.261719 22.261719 L 37.5625 22.261719 C 38.066406 22.269531 38.53125 22.003906 38.789062 21.570312 C 39.039062 21.136719 39.039062 20.605469 38.789062 20.167969 C 38.53125 19.734375 38.0625 19.472656 37.5625 19.480469 Z M 22 26.4375 C 21.234375 26.503906 20.667969 27.191406 20.738281 27.957031 C 20.808594 28.722656 21.496094 29.289062 22.261719 29.214844 L 41.738281 29.214844 C 42.238281 29.222656 42.707031 28.960938 42.964844 28.527344 C 43.210938 28.09375 43.210938 27.558594 42.964844 27.125 C 42.707031 26.691406 42.238281 26.429688 41.738281 26.4375 Z M 22 33.390625 C 21.234375 33.460938 20.667969 34.148438 20.738281 34.910156 C 20.808594 35.679688 21.496094 36.242188 22.261719 36.171875 L 37.5625 36.171875 C 38.066406 36.179688 38.53125 35.914062 38.789062 35.484375 C 39.039062 35.046875 39.039062 34.515625 38.789062 34.078125 C 38.53125 33.648438 38.0625 33.382812 37.5625 33.390625 Z M 22 40.347656 C 21.234375 40.414062 20.667969 41.105469 20.738281 41.867188 C 20.808594 42.636719 21.496094 43.199219 22.261719 43.132812 L 41.738281 43.132812 C 42.238281 43.136719 42.707031 42.875 42.964844 42.441406 C 43.210938 42.007812 43.210938 41.472656 42.964844 41.035156 C 42.707031 40.605469 42.238281 40.34375 41.738281 40.347656 Z M 32 54.261719 C 33.53125 54.261719 34.785156 55.511719 34.785156 57.042969 C 34.785156 58.574219 33.53125 59.828125 32 59.828125 C 30.46875 59.828125 29.214844 58.574219 29.214844 57.042969 C 29.214844 55.511719 30.46875 54.261719 32 54.261719 Z M 32 54.261719 "/></g></svg>
