<svg width="64" height="64" viewBox="0 0 64 64" version="1.1" xmlns:inkscape="http://www.inkscape.org/namespaces/inkscape"><defs><linearGradient id="linear0" gradientUnits="userSpaceOnUse" x1="0" y1="0" x2="0" y2="1" gradientTransform="matrix(60.760009,0,0,41.808733,-0.2769,10.125731)"><stop offset="0" style="stop-color:rgb(81.960785%,70.980394%,59.215689%);stop-opacity:1;"/><stop offset="1" style="stop-color:rgb(65.098041%,53.725493%,41.568628%);stop-opacity:1;"/></linearGradient><filter style="color-interpolation-filters:sRGB;" inkscape:label="Diffuse Light" id="filter184" x="-0.0375" y="-0.0375" width="1.075" height="1.075"><feGaussianBlur in="SourceGraphic" stdDeviation="1" result="blur" id="feGaussianBlur174" /><feDiffuseLighting diffuseConstant="1" surfaceScale="10" lighting-color="rgb(255,255,255)" result="diffuse" id="feDiffuseLighting178"><feDistantLight elevation="8" azimuth="235" id="feDistantLight176" /></feDiffuseLighting><feComposite in="diffuse" in2="diffuse" operator="arithmetic" k1="1" result="composite1" id="feComposite180" /><feComposite in="composite1" in2="SourceGraphic" k1="1" operator="arithmetic" k3="1" result="composite2" id="feComposite182" /></filter></defs><g id="surface1" style="filter:url(#filter184)"><path style=" stroke:none;fill-rule:nonzero;fill:url(#linear0);" d="M 59.148438 2.136719 C 38.253906 2.136719 4.820312 20.820312 4.820312 32.5 C 4.820312 44.179688 38.253906 62.867188 59.148438 62.867188 C 59.917969 62.867188 60.542969 62.34375 60.542969 61.699219 C 60.542969 61.050781 59.917969 60.527344 59.148438 60.527344 C 49.796875 60.527344 18.753906 46.515625 15.964844 37.171875 L 15.964844 27.828125 C 18.753906 18.488281 49.796875 4.472656 59.148438 4.472656 C 59.917969 4.472656 60.542969 3.953125 60.542969 3.304688 C 60.542969 2.65625 59.917969 2.136719 59.148438 2.136719 Z M 56.363281 9.144531 C 41.039062 9.144531 18.753906 24.324219 18.753906 28.996094 L 18.753906 36.003906 C 18.753906 40.675781 41.039062 55.859375 56.363281 55.859375 C 57.136719 55.859375 57.757812 55.335938 57.757812 54.691406 C 57.757812 54.046875 57.136719 53.523438 56.363281 53.523438 C 49.949219 53.523438 27.109375 44.179688 24.320312 34.839844 L 24.320312 30.164062 C 27.109375 20.820312 49.949219 11.480469 56.363281 11.480469 C 57.136719 11.480469 57.757812 10.957031 57.757812 10.3125 C 57.757812 9.667969 57.136719 9.144531 56.363281 9.144531 Z M 50.789062 16.148438 C 41.039062 16.148438 27.109375 26.949219 27.109375 32.5 C 27.109375 38.054688 41.039062 48.851562 50.789062 48.851562 C 51.5625 48.851562 52.183594 48.332031 52.183594 47.683594 C 52.183594 47.035156 51.5625 46.515625 50.789062 46.515625 C 47.707031 46.515625 32.679688 39.511719 32.679688 32.5 C 32.679688 25.492188 47.707031 18.488281 50.789062 18.488281 C 51.5625 18.488281 52.183594 17.964844 52.183594 17.316406 C 52.183594 16.671875 51.5625 16.148438 50.789062 16.148438 Z M 50.789062 16.148438 "/></g></svg>
