<svg width="64" height="64" viewBox="0 0 64 64" version="1.1" xmlns:inkscape="http://www.inkscape.org/namespaces/inkscape"><defs><linearGradient id="linear0" gradientUnits="userSpaceOnUse" x1="0" y1="0" x2="0" y2="1" gradientTransform="matrix(62.647192,0,0,61.132294,-4.425093,2.084289)"><stop offset="0" style="stop-color:rgb(87.058824%,86.666667%,56.470591%);stop-opacity:1;"/><stop offset="1" style="stop-color:rgb(67.843139%,67.450982%,38.039216%);stop-opacity:1;"/></linearGradient><filter style="color-interpolation-filters:sRGB;" inkscape:label="Diffuse Light" id="filter184" x="-0.0375" y="-0.0375" width="1.075" height="1.075"><feGaussianBlur in="SourceGraphic" stdDeviation="1" result="blur" id="feGaussianBlur174" /><feDiffuseLighting diffuseConstant="1" surfaceScale="10" lighting-color="rgb(255,255,255)" result="diffuse" id="feDiffuseLighting178"><feDistantLight elevation="8" azimuth="235" id="feDistantLight176" /></feDiffuseLighting><feComposite in="diffuse" in2="diffuse" operator="arithmetic" k1="1" result="composite1" id="feComposite180" /><feComposite in="composite1" in2="SourceGraphic" k1="1" operator="arithmetic" k3="1" result="composite2" id="feComposite182" /></filter></defs><g id="surface1" style="filter:url(#filter184)"><path style=" stroke:none;fill-rule:nonzero;fill:url(#linear0);" d="M 15.378906 1.222656 C 14.328125 1.316406 13.523438 2.167969 13.523438 3.191406 L 13.523438 52.464844 C 13.523438 52.992188 13.738281 53.5 14.128906 53.863281 C 14.507812 54.230469 15.027344 54.441406 15.570312 54.4375 L 27.417969 54.4375 L 35.75 62.621094 C 36.3125 63.179688 37.164062 63.363281 37.917969 63.085938 L 41.941406 61.625 C 42.664062 61.363281 43.171875 60.726562 43.253906 59.984375 L 44.351562 49.394531 L 52.203125 39.917969 C 52.847656 39.136719 52.796875 38.019531 52.085938 37.300781 L 17.015625 1.828125 C 16.59375 1.398438 15.988281 1.175781 15.378906 1.222656 "/></g></svg>
