<svg width="64" height="64" viewBox="0 0 64 64" version="1.1" xmlns:inkscape="http://www.inkscape.org/namespaces/inkscape"><defs><linearGradient id="linear0" gradientUnits="userSpaceOnUse" x1="0" y1="0" x2="0" y2="1" gradientTransform="matrix(66.649109,0,0,47.465537,-2.335296,5.896218)"><stop offset="0" style="stop-color:rgb(41.960785%,64.313728%,100%);stop-opacity:1;"/><stop offset="1" style="stop-color:rgb(0%,43.137255%,100%);stop-opacity:1;"/></linearGradient><filter style="color-interpolation-filters:sRGB;" inkscape:label="Diffuse Light" id="filter184" x="-0.0375" y="-0.0375" width="1.075" height="1.075"><feGaussianBlur in="SourceGraphic" stdDeviation="1" result="blur" id="feGaussianBlur174" /><feDiffuseLighting diffuseConstant="1" surfaceScale="10" lighting-color="rgb(255,255,255)" result="diffuse" id="feDiffuseLighting178"><feDistantLight elevation="8" azimuth="235" id="feDistantLight176" /></feDiffuseLighting><feComposite in="diffuse" in2="diffuse" operator="arithmetic" k1="1" result="composite1" id="feComposite180" /><feComposite in="composite1" in2="SourceGraphic" k1="1" operator="arithmetic" k3="1" result="composite2" id="feComposite182" /></filter></defs><g id="surface1" style="filter:url(#filter184)"><path style=" stroke:none;fill-rule:nonzero;fill:url(#linear0);" d="M 6.972656 1.625 C 4.28125 1.691406 2.128906 3.960938 2.128906 6.726562 C 2.132812 9.542969 4.355469 11.832031 7.097656 11.832031 L 31.921875 11.832031 C 42.890625 11.832031 51.785156 20.960938 51.785156 32.230469 C 51.785156 43.5 42.890625 52.636719 31.921875 52.636719 L 7.097656 52.636719 C 4.355469 52.636719 2.128906 54.925781 2.128906 57.742188 C 2.128906 60.5625 4.355469 62.84375 7.097656 62.84375 L 31.921875 62.84375 C 48.375 62.84375 61.714844 49.136719 61.714844 32.230469 C 61.714844 15.328125 48.375 1.625 31.921875 1.625 L 7.097656 1.625 C 7.054688 1.625 7.015625 1.625 6.972656 1.625 Z M 7.097656 27.132812 C 4.34375 27.132812 2.132812 29.40625 2.132812 32.230469 C 2.132812 35.0625 4.34375 37.335938 7.097656 37.335938 L 31.921875 37.335938 C 34.675781 37.335938 36.890625 35.0625 36.890625 32.230469 C 36.890625 29.40625 34.675781 27.132812 31.921875 27.132812 Z M 7.097656 27.132812 "/></g></svg>
