<svg width="64" height="64" viewBox="0 0 64 64" version="1.1" xmlns:inkscape="http://www.inkscape.org/namespaces/inkscape"><defs><linearGradient id="linear0" gradientUnits="userSpaceOnUse" x1="0" y1="0" x2="0" y2="1" gradientTransform="matrix(74.395848,0,0,75.292019,-5.015152,-6.95598)"><stop offset="0" style="stop-color:rgb(100%,56.862748%,82.745099%);stop-opacity:1;"/><stop offset="1" style="stop-color:rgb(100%,0%,60.000002%);stop-opacity:1;"/></linearGradient><filter style="color-interpolation-filters:sRGB;" inkscape:label="Diffuse Light" id="filter184" x="-0.0375" y="-0.0375" width="1.075" height="1.075"><feGaussianBlur in="SourceGraphic" stdDeviation="1" result="blur" id="feGaussianBlur174" /><feDiffuseLighting diffuseConstant="1" surfaceScale="10" lighting-color="rgb(255,255,255)" result="diffuse" id="feDiffuseLighting178"><feDistantLight elevation="8" azimuth="235" id="feDistantLight176" /></feDiffuseLighting><feComposite in="diffuse" in2="diffuse" operator="arithmetic" k1="1" result="composite1" id="feComposite180" /><feComposite in="composite1" in2="SourceGraphic" k1="1" operator="arithmetic" k3="1" result="composite2" id="feComposite182" /></filter></defs><g id="surface1" style="filter:url(#filter184)"><path style=" stroke:none;fill-rule:nonzero;fill:url(#linear0);" d="M 8.628906 1.742188 L 1.726562 12.535156 L 1.726562 51.394531 L 8.628906 62.179688 L 32.101562 62.179688 L 23.816406 49.226562 L 8.628906 49.226562 L 8.628906 38.4375 L 23.816406 38.4375 L 23.816406 25.484375 L 8.628906 25.484375 L 8.628906 14.675781 L 23.816406 14.675781 L 32.101562 1.753906 Z M 39 1.742188 L 32.101562 12.535156 L 32.101562 27.640625 L 39.011719 38.4375 L 55.578125 38.4375 L 55.578125 49.226562 L 32.101562 49.226562 L 40.386719 62.179688 L 55.578125 62.179688 L 62.484375 51.394531 L 62.484375 36.277344 L 55.578125 25.484375 L 39.011719 25.484375 L 39.011719 14.675781 L 54.195312 14.675781 L 62.484375 1.730469 Z M 39 1.742188 "/></g></svg>
