<?xml version="1.0" encoding="UTF-8" standalone="no"?><svg width="64" height="64" viewBox="0 0 64 64" version="1.1" id="svg680" sodipodi:docname="epiphany-game.svg" inkscape:version="1.2.2 (b0a8486541, 2022-12-01)" xmlns:inkscape="http://www.inkscape.org/namespaces/inkscape" xmlns:sodipodi="http://sodipodi.sourceforge.net/DTD/sodipodi-0.dtd" xmlns:xlink="http://www.w3.org/1999/xlink" xmlns="http://www.w3.org/2000/svg" xmlns:svg="http://www.w3.org/2000/svg"> <sodipodi:namedview id="namedview682" pagecolor="#ffffff" bordercolor="#000000" borderopacity="0.25" inkscape:showpageshadow="2" inkscape:pageopacity="0.0" inkscape:pagecheckerboard="0" inkscape:deskcolor="#d1d1d1" showgrid="false" inkscape:zoom="3.6875" inkscape:cx="32" inkscape:cy="32.135593" inkscape:window-width="1432" inkscape:window-height="844" inkscape:window-x="0" inkscape:window-y="0" inkscape:window-maximized="1" inkscape:current-layer="svg680" /> <defs id="defs673"> <filter id="alpha" filterUnits="objectBoundingBox" x="0" y="0" width="1" height="1"> <feColorMatrix type="matrix" in="SourceGraphic" values="0 0 0 0 1 0 0 0 0 1 0 0 0 0 1 0 0 0 1 0" id="feColorMatrix649" /> </filter> <mask id="mask0"> <g filter="url(#alpha)" id="g654"> <rect x="0" y="0" width="64" height="64" style="fill:rgb(0%,0%,0%);fill-opacity:0.4;stroke:none;" id="rect652" /> </g> </mask> <linearGradient id="linear0" gradientUnits="userSpaceOnUse" x1="0" y1="0" x2="0" y2="1" gradientTransform="matrix(47.09375,0,0,30.195312,8.453125,20.402344)"> <stop offset="0" style="stop-color:#dedd90;stop-opacity:1;" id="stop657" /> <stop offset="1" style="stop-color:#adac61;stop-opacity:1;" id="stop659" /> </linearGradient> <clipPath id="clip1"> <rect x="0" y="0" width="64" height="64" id="rect662" /> </clipPath> <g id="surface5" clip-path="url(#clip1)"> <path style=" stroke:none;fill-rule:nonzero;fill:url(#linear0);" d="M 55.546875 35.5 C 55.546875 43.835938 45.003906 50.597656 32 50.597656 C 18.996094 50.597656 8.453125 43.835938 8.453125 35.5 C 8.453125 27.164062 18.996094 20.402344 32 20.402344 C 45.003906 20.402344 55.546875 27.164062 55.546875 35.5 Z M 55.546875 35.5 " id="path665" /> </g> <linearGradient id="linear1" gradientUnits="userSpaceOnUse" x1="0" y1="0" x2="0" y2="1" gradientTransform="matrix(64,0,0,30.191406,0,13.402344)"> <stop offset="0" style="stop-color:#dedd90;stop-opacity:1;" id="stop668" /> <stop offset="1" style="stop-color:#adac61;stop-opacity:1;" id="stop670" /> </linearGradient> <filter style="color-interpolation-filters:sRGB;" inkscape:label="Diffuse Light" id="filter1356" x="-0.037502012" y="-0.06452426" width="1.075004" height="1.1290485"> <feGaussianBlur in="SourceGraphic" stdDeviation="1" result="blur" id="feGaussianBlur1346" /> <feDiffuseLighting diffuseConstant="1" surfaceScale="10" lighting-color="rgb(255,255,255)" result="diffuse" id="feDiffuseLighting1350"> <feDistantLight elevation="8" azimuth="235" id="feDistantLight1348" /> </feDiffuseLighting> <feComposite in="diffuse" in2="diffuse" operator="arithmetic" k1="1" result="composite1" id="feComposite1352" /> <feComposite in="composite1" in2="SourceGraphic" k1="1" operator="arithmetic" k3="1" result="composite2" id="feComposite1354" /> </filter> </defs> <g id="surface1" style="filter:url(#filter1356)"> <use xlink:href="#surface5" mask="url(#mask0)" id="use675" /> <path style=" stroke:none;fill-rule:evenodd;fill:url(#linear1);" d="M 19.320312 31.515625 L 22.945312 31.515625 L 22.945312 35.140625 L 19.320312 35.140625 Z M 39.847656 31.515625 L 43.472656 31.515625 L 43.472656 35.140625 L 39.847656 35.140625 Z M 20.527344 39.96875 L 42.265625 39.96875 L 42.265625 43.59375 L 20.527344 43.59375 Z M 3.371094 13.402344 C 0.15625 13.40625 -1.226562 17.503906 1.328125 19.46875 L 8.6875 33.183594 C 8.6875 33.183594 12.761719 26.726562 15.859375 25.769531 C 21.03125 24.171875 26.515625 29.101562 32 29.101562 C 37.484375 29.101562 42.96875 24.171875 48.140625 25.769531 C 51.238281 26.726562 55.3125 33.183594 55.3125 33.183594 L 62.671875 19.46875 C 65.226562 17.503906 63.84375 13.40625 60.628906 13.402344 Z M 3.371094 13.402344 " id="path677" /> </g></svg>
