<svg width="64" height="64" viewBox="0 0 64 64" version="1.1" xmlns:inkscape="http://www.inkscape.org/namespaces/inkscape"><defs><linearGradient id="linear0" gradientUnits="userSpaceOnUse" x1="0" y1="0" x2="0" y2="1" gradientTransform="matrix(47.40625,0,0,64,8.296875,0)"><stop offset="0" style="stop-color:rgb(61.176473%,69.803923%,85.09804%);stop-opacity:1;"/><stop offset="1" style="stop-color:rgb(44.313726%,52.156866%,65.882355%);stop-opacity:1;"/></linearGradient><filter style="color-interpolation-filters:sRGB;" inkscape:label="Diffuse Light" id="filter184" x="-0.0375" y="-0.0375" width="1.075" height="1.075"><feGaussianBlur in="SourceGraphic" stdDeviation="1" result="blur" id="feGaussianBlur174" /><feDiffuseLighting diffuseConstant="1" surfaceScale="10" lighting-color="rgb(255,255,255)" result="diffuse" id="feDiffuseLighting178"><feDistantLight elevation="8" azimuth="235" id="feDistantLight176" /></feDiffuseLighting><feComposite in="diffuse" in2="diffuse" operator="arithmetic" k1="1" result="composite1" id="feComposite180" /><feComposite in="composite1" in2="SourceGraphic" k1="1" operator="arithmetic" k3="1" result="composite2" id="feComposite182" /></filter></defs><g id="surface1" style="filter:url(#filter184)"><path style=" stroke:none;fill-rule:nonzero;fill:url(#linear0);" d="M 52.890625 0 C 52.242188 0.015625 51.621094 0.257812 51.136719 0.679688 L 9.214844 33.835938 C 7.476562 35.347656 8.34375 38.152344 10.652344 38.476562 L 26.902344 40.757812 L 19.289062 53.878906 C 17.585938 56.816406 18.59375 60.542969 21.542969 62.234375 L 23.175781 63.175781 C 26.125 64.871094 29.871094 63.867188 31.570312 60.933594 L 39.484375 47.304688 L 51.074219 56.652344 C 52.859375 58.097656 55.5625 56.859375 55.5625 54.601562 L 55.703125 2.679688 C 55.707031 1.171875 54.4375 -0.0351562 52.890625 0 Z M 52.890625 0 "/></g></svg>
