<svg width="64" height="64" viewBox="0 0 64 64" version="1.1" xmlns:inkscape="http://www.inkscape.org/namespaces/inkscape"><defs><linearGradient id="linear0" gradientUnits="userSpaceOnUse" x1="0" y1="0" x2="0" y2="1" gradientTransform="matrix(70.689952,0,0,71.400079,-3.356824,-3.271456)"><stop offset="0" style="stop-color:rgb(0%,78.823531%,36.862746%);stop-opacity:1;"/><stop offset="1" style="stop-color:rgb(0%,54.11765%,25.098041%);stop-opacity:1;"/></linearGradient><filter style="color-interpolation-filters:sRGB;" inkscape:label="Diffuse Light" id="filter184" x="-0.0375" y="-0.0375" width="1.075" height="1.075"><feGaussianBlur in="SourceGraphic" stdDeviation="1" result="blur" id="feGaussianBlur174" /><feDiffuseLighting diffuseConstant="1" surfaceScale="10" lighting-color="rgb(255,255,255)" result="diffuse" id="feDiffuseLighting178"><feDistantLight elevation="8" azimuth="235" id="feDistantLight176" /></feDiffuseLighting><feComposite in="diffuse" in2="diffuse" operator="arithmetic" k1="1" result="composite1" id="feComposite180" /><feComposite in="composite1" in2="SourceGraphic" k1="1" operator="arithmetic" k3="1" result="composite2" id="feComposite182" /></filter></defs><g id="surface1" style="filter:url(#filter184)"><path style=" stroke:none;fill-rule:nonzero;fill:url(#linear0);" d="M 17.691406 2.210938 L 17.691406 9.484375 L 30.347656 9.484375 L 30.347656 2.210938 Z M 17.691406 12.933594 L 17.691406 20.203125 L 30.347656 20.203125 L 30.347656 12.933594 Z M 1.609375 23.65625 L 1.609375 30.925781 L 14.265625 30.925781 L 14.265625 23.65625 Z M 17.691406 23.65625 L 17.691406 30.925781 L 30.347656 30.925781 L 30.347656 23.65625 Z M 49.855469 23.65625 L 49.855469 30.925781 L 62.511719 30.925781 L 62.511719 23.65625 Z M 1.609375 34.371094 L 1.609375 41.640625 L 14.265625 41.640625 L 14.265625 34.371094 Z M 17.691406 34.371094 L 17.691406 41.640625 L 30.347656 41.640625 L 30.347656 34.371094 Z M 33.773438 34.371094 L 33.773438 41.640625 L 46.429688 41.640625 L 46.429688 34.371094 Z M 49.855469 34.371094 L 49.855469 41.640625 L 62.511719 41.640625 L 62.511719 34.371094 Z M 1.609375 45.09375 L 1.609375 52.367188 L 14.265625 52.367188 L 14.265625 45.09375 Z M 17.691406 45.09375 L 17.691406 52.367188 L 30.347656 52.367188 L 30.347656 45.09375 Z M 33.773438 45.09375 L 33.773438 52.367188 L 46.429688 52.367188 L 46.429688 45.09375 Z M 49.855469 45.09375 L 49.855469 52.367188 L 62.511719 52.367188 L 62.511719 45.09375 Z M 1.609375 55.816406 L 1.609375 63.082031 L 14.265625 63.082031 L 14.265625 55.816406 Z M 17.691406 55.816406 L 17.691406 63.082031 L 30.347656 63.082031 L 30.347656 55.816406 Z M 33.761719 55.816406 L 33.761719 63.082031 L 46.429688 63.082031 L 46.429688 55.816406 Z M 49.84375 55.816406 L 49.84375 63.082031 L 62.5 63.082031 L 62.5 55.816406 Z M 49.84375 55.816406 "/></g></svg>
