<svg width="64" height="64" viewBox="0 0 64 64" version="1.1" xmlns:inkscape="http://www.inkscape.org/namespaces/inkscape"><defs><linearGradient id="linear0" gradientUnits="userSpaceOnUse" x1="0" y1="0" x2="0" y2="1" gradientTransform="matrix(69.551612,0,0,41.131283,-0.515796,11.434102)"><stop offset="0" style="stop-color:rgb(100%,73.333335%,0%);stop-opacity:1;"/><stop offset="1" style="stop-color:rgb(70.19608%,51.372552%,0%);stop-opacity:1;"/></linearGradient><filter style="color-interpolation-filters:sRGB;" inkscape:label="Diffuse Light" id="filter184" x="-0.0375" y="-0.0375" width="1.075" height="1.075"><feGaussianBlur in="SourceGraphic" stdDeviation="1" result="blur" id="feGaussianBlur174" /><feDiffuseLighting diffuseConstant="1" surfaceScale="10" lighting-color="rgb(255,255,255)" result="diffuse" id="feDiffuseLighting178"><feDistantLight elevation="8" azimuth="235" id="feDistantLight176" /></feDiffuseLighting><feComposite in="diffuse" in2="diffuse" operator="arithmetic" k1="1" result="composite1" id="feComposite180" /><feComposite in="composite1" in2="SourceGraphic" k1="1" operator="arithmetic" k3="1" result="composite2" id="feComposite182" /></filter></defs><g id="surface1" style="filter:url(#filter184)"><path style=" stroke:none;fill-rule:nonzero;fill:url(#linear0);" d="M 29.171875 2.085938 C 29.171875 7.308594 33.253906 11.535156 38.300781 11.535156 L 42.863281 11.535156 L 38.300781 54.078125 L 22.324219 54.078125 C 22.324219 59.300781 26.410156 63.535156 31.449219 63.535156 L 51.992188 63.535156 C 54.523438 63.535156 56.558594 61.425781 56.558594 58.804688 C 56.558594 56.183594 54.519531 54.078125 51.992188 54.078125 L 47.425781 54.078125 L 51.992188 11.535156 L 58.835938 11.535156 C 61.371094 11.535156 63.402344 9.429688 63.402344 6.8125 C 63.402344 4.1875 61.367188 2.085938 58.835938 2.085938 Z M 6.347656 28.078125 C 3.832031 28.078125 1.785156 30.195312 1.785156 32.808594 C 1.785156 35.417969 3.832031 37.535156 6.347656 37.535156 C 8.871094 37.535156 10.914062 35.417969 10.914062 32.808594 C 10.914062 30.195312 8.871094 28.078125 6.347656 28.078125 Z M 17.761719 28.078125 C 15.242188 28.078125 13.195312 30.195312 13.195312 32.808594 C 13.195312 35.417969 15.242188 37.535156 17.761719 37.535156 C 20.28125 37.535156 22.324219 35.417969 22.324219 32.808594 C 22.324219 30.195312 20.28125 28.078125 17.761719 28.078125 Z M 29.171875 28.078125 C 26.652344 28.078125 24.605469 30.195312 24.605469 32.808594 C 24.605469 35.417969 26.652344 37.535156 29.171875 37.535156 C 31.695312 37.535156 33.734375 35.417969 33.734375 32.808594 C 33.734375 30.195312 31.695312 28.078125 29.171875 28.078125 Z M 29.171875 28.078125 "/></g></svg>
