<svg xmlns="http://www.w3.org/2000/svg" xmlns:xlink="http://www.w3.org/1999/xlink" width="64" height="64" viewBox="0 0 64 64" version="1.1"><g id="surface1"><path style=" stroke:none;fill-rule:nonzero;fill:rgb(20%,49.019608%,89.019608%);fill-opacity:1;" d="M 62.785156 60.765625 L 33.257812 63.339844 L 38.171875 42.722656 Z M 62.785156 60.765625 "/><path style=" stroke:none;fill-rule:nonzero;fill:rgb(12.941177%,47.058824%,90.196079%);fill-opacity:1;" d="M 16.027344 47.878906 L 13.570312 37.574219 L 25.875 37.574219 L 40.640625 47.878906 L 30.792969 50.453125 Z M 16.027344 47.878906 "/><path style=" stroke:none;fill-rule:nonzero;fill:rgb(22.745098%,58.039218%,92.156863%);fill-opacity:1;" d="M 18.492188 47.878906 L 33.257812 63.339844 L 40.640625 47.878906 Z M 18.492188 47.878906 "/><path style=" stroke:none;fill-rule:nonzero;fill:rgb(41.960785%,65.882355%,93.333334%);fill-opacity:1;" d="M 62.785156 60.765625 L 60.320312 40.148438 L 48.019531 40.148438 L 40.640625 47.878906 Z M 62.785156 60.765625 "/><path style=" stroke:none;fill-rule:nonzero;fill:rgb(24.705882%,56.078434%,92.156863%);fill-opacity:1;" d="M 40.640625 47.878906 L 45.554688 14.378906 L 60.320312 40.148438 Z M 40.640625 47.878906 "/><path style=" stroke:none;fill-rule:nonzero;fill:rgb(14.901961%,49.803922%,90.196079%);fill-opacity:1;" d="M 60.320312 40.148438 L 60.320312 24.683594 L 50.480469 22.109375 L 45.554688 24.683594 Z M 60.320312 40.148438 "/><path style=" stroke:none;fill-rule:nonzero;fill:rgb(20%,52.941179%,90.980393%);fill-opacity:1;" d="M 43.097656 6.648438 L 52.9375 11.796875 L 60.320312 24.683594 L 45.554688 24.683594 L 40.640625 14.378906 Z M 43.097656 6.648438 "/><path style=" stroke:none;fill-rule:nonzero;fill:rgb(36.078432%,61.960787%,92.156863%);fill-opacity:1;" d="M 43.097656 6.648438 L 60.320312 24.683594 L 60.320312 1.492188 Z M 43.097656 6.648438 "/><path style=" stroke:none;fill-rule:nonzero;fill:rgb(36.078432%,63.137257%,92.156863%);fill-opacity:1;" d="M 40.640625 47.878906 L 45.554688 24.683594 L 33.257812 19.527344 L 13.570312 22.109375 Z M 40.640625 47.878906 "/><path style=" stroke:none;fill-rule:nonzero;fill:rgb(22.745098%,52.156866%,90.196079%);fill-opacity:1;" d="M 40.640625 47.878906 L 13.570312 37.574219 L 13.570312 27.261719 L 20.949219 24.683594 Z M 40.640625 47.878906 "/><path style=" stroke:none;fill-rule:nonzero;fill:rgb(9.019608%,47.058824%,88.235295%);fill-opacity:1;" d="M 1.261719 14.378906 L 13.570312 37.574219 L 20.949219 24.683594 L 11.109375 14.378906 Z M 1.261719 14.378906 "/><path style=" stroke:none;fill-rule:nonzero;fill:rgb(25.882354%,56.078434%,90.980393%);fill-opacity:1;" d="M 43.097656 6.648438 L 45.554688 24.683594 L 20.949219 24.683594 L 28.332031 14.378906 Z M 43.097656 6.648438 "/><path style=" stroke:none;fill-rule:nonzero;fill:rgb(47.058824%,69.01961%,94.117647%);fill-opacity:1;" d="M 43.097656 6.648438 L 13.570312 1.492188 L 13.570312 14.378906 L 20.949219 24.683594 Z M 43.097656 6.648438 "/><path style=" stroke:none;fill-rule:nonzero;fill:rgb(20%,52.156866%,90.980393%);fill-opacity:1;" d="M 1.261719 14.378906 L 13.570312 1.492188 L 20.949219 24.683594 Z M 1.261719 14.378906 "/><path style=" stroke:none;fill-rule:nonzero;fill:rgb(45.09804%,68.235296%,94.117647%);fill-opacity:1;" d="M 13.570312 37.574219 L 20.949219 47.878906 L 18.492188 55.609375 L 8.644531 60.765625 Z M 13.570312 37.574219 "/><path style=" stroke:none;fill-rule:nonzero;fill:rgb(22.745098%,54.11765%,90.980393%);fill-opacity:1;" d="M 20.949219 47.878906 L 33.257812 63.339844 L 8.644531 60.765625 Z M 20.949219 47.878906 "/></g></svg>
