<svg width="64" height="64" viewBox="0 0 64 64" version="1.1" xmlns:inkscape="http://www.inkscape.org/namespaces/inkscape"><defs><linearGradient id="linear0" gradientUnits="userSpaceOnUse" x1="0" y1="0" x2="0" y2="1" gradientTransform="matrix(79.848123,0,0,45.434473,-9.082813,6.529064)"><stop offset="0" style="stop-color:rgb(0%,96.078432%,86.274511%);stop-opacity:1;"/><stop offset="1" style="stop-color:rgb(0%,54.901963%,49.411765%);stop-opacity:1;"/></linearGradient><filter style="color-interpolation-filters:sRGB;" inkscape:label="Diffuse Light" id="filter184" x="-0.0375" y="-0.0375" width="1.075" height="1.075"><feGaussianBlur in="SourceGraphic" stdDeviation="1" result="blur" id="feGaussianBlur174" /><feDiffuseLighting diffuseConstant="1" surfaceScale="10" lighting-color="rgb(255,255,255)" result="diffuse" id="feDiffuseLighting178"><feDistantLight elevation="8" azimuth="235" id="feDistantLight176" /></feDiffuseLighting><feComposite in="diffuse" in2="diffuse" operator="arithmetic" k1="1" result="composite1" id="feComposite180" /><feComposite in="composite1" in2="SourceGraphic" k1="1" operator="arithmetic" k3="1" result="composite2" id="feComposite182" /></filter></defs><g id="surface1" style="filter:url(#filter184)"><path style=" stroke:none;fill-rule:nonzero;fill:url(#linear0);" d="M 23.488281 1.15625 C 20.375 1.15625 17.871094 3.449219 17.871094 6.292969 L 17.871094 45.359375 L 10.4375 38.574219 C 8.273438 36.601562 4.785156 36.601562 2.625 38.574219 C 0.457031 40.554688 0.457031 43.738281 2.625 45.710938 L 21.300781 62.761719 L 51.605469 62.761719 C 57.820312 62.761719 62.855469 58.164062 62.855469 52.492188 L 62.855469 13.988281 C 62.855469 11.148438 60.34375 8.859375 57.230469 8.859375 C 54.117188 8.859375 51.605469 11.148438 51.605469 13.988281 L 51.605469 26.824219 C 51.605469 23.980469 49.097656 21.691406 45.984375 21.691406 C 42.867188 21.691406 40.359375 23.980469 40.359375 26.824219 L 40.359375 24.257812 C 40.359375 21.414062 37.855469 19.125 34.734375 19.125 C 31.621094 19.125 29.113281 21.414062 29.113281 24.257812 L 29.113281 6.292969 C 29.113281 3.449219 26.609375 1.160156 23.488281 1.160156 Z M 23.488281 1.15625 "/></g></svg>
