<svg width="64" height="64" viewBox="0 0 64 64" version="1.1" xmlns:inkscape="http://www.inkscape.org/namespaces/inkscape"><defs><linearGradient id="linear0" gradientUnits="userSpaceOnUse" x1="0" y1="0" x2="0" y2="1" gradientTransform="matrix(62.432811,0,0,45.385718,4.232436,9.959129)"><stop offset="0" style="stop-color:rgb(100%,56.862748%,82.745099%);stop-opacity:1;"/><stop offset="1" style="stop-color:rgb(100%,0%,60.000002%);stop-opacity:1;"/></linearGradient><filter style="color-interpolation-filters:sRGB;" inkscape:label="Diffuse Light" id="filter184" x="-0.0375" y="-0.0375" width="1.075" height="1.075"><feGaussianBlur in="SourceGraphic" stdDeviation="1" result="blur" id="feGaussianBlur174" /><feDiffuseLighting diffuseConstant="1" surfaceScale="10" lighting-color="rgb(255,255,255)" result="diffuse" id="feDiffuseLighting178"><feDistantLight elevation="8" azimuth="235" id="feDistantLight176" /></feDiffuseLighting><feComposite in="diffuse" in2="diffuse" operator="arithmetic" k1="1" result="composite1" id="feComposite180" /><feComposite in="composite1" in2="SourceGraphic" k1="1" operator="arithmetic" k3="1" result="composite2" id="feComposite182" /></filter></defs><g id="surface1" style="filter:url(#filter184)"><path style=" stroke:none;fill-rule:nonzero;fill:url(#linear0);" d="M 15.863281 1.96875 C 8.183594 1.96875 1.976562 10.085938 1.976562 20.136719 L 1.976562 44.363281 C 1.976562 54.417969 8.183594 62.53125 15.863281 62.53125 L 48.269531 62.53125 C 55.957031 62.53125 62.15625 54.417969 62.15625 44.363281 L 62.15625 20.136719 C 62.15625 10.085938 55.957031 1.96875 48.269531 1.96875 Z M 15.863281 11.054688 L 48.269531 11.054688 C 51.71875 11.054688 54.566406 14.324219 55.125 18.65625 C 53.785156 17.671875 52.25 17.109375 50.585938 17.109375 L 13.550781 17.109375 C 11.902344 17.109375 10.355469 17.671875 9.015625 18.65625 C 9.554688 14.324219 12.394531 11.054688 15.863281 11.054688 Z M 13.550781 23.164062 L 50.585938 23.164062 C 52.46875 23.164062 54.078125 24.632812 54.796875 26.742188 L 43.640625 41.335938 L 8.921875 29.222656 C 8.921875 25.863281 10.988281 23.164062 13.550781 23.164062 Z M 13.550781 23.164062 "/></g></svg>
