<svg width="64" height="64" viewBox="0 0 64 64" version="1.1" xmlns:inkscape="http://www.inkscape.org/namespaces/inkscape"><defs><linearGradient id="linear0" gradientUnits="userSpaceOnUse" x1="0" y1="0" x2="0" y2="1" gradientTransform="matrix(71.732843,0,0,42.997044,-3.690918,10.570584)"><stop offset="0" style="stop-color:rgb(92.941177%,83.529413%,72.549021%);stop-opacity:1;"/><stop offset="1" style="stop-color:rgb(81.960785%,71.372551%,59.215689%);stop-opacity:1;"/></linearGradient><filter style="color-interpolation-filters:sRGB;" inkscape:label="Diffuse Light" id="filter184" x="-0.0375" y="-0.0375" width="1.075" height="1.075"><feGaussianBlur in="SourceGraphic" stdDeviation="1" result="blur" id="feGaussianBlur174" /><feDiffuseLighting diffuseConstant="1" surfaceScale="10" lighting-color="rgb(255,255,255)" result="diffuse" id="feDiffuseLighting178"><feDistantLight elevation="8" azimuth="235" id="feDistantLight176" /></feDiffuseLighting><feComposite in="diffuse" in2="diffuse" operator="arithmetic" k1="1" result="composite1" id="feComposite180" /><feComposite in="composite1" in2="SourceGraphic" k1="1" operator="arithmetic" k3="1" result="composite2" id="feComposite182" /></filter></defs><g id="surface1" style="filter:url(#filter184)"><path style=" stroke:none;fill-rule:nonzero;fill:url(#linear0);" d="M 18.519531 1.355469 L 18.519531 9.175781 L 9.046875 21.445312 C 9.046875 29.714844 14.800781 33.613281 21.101562 36.617188 C 24.351562 38.164062 27.996094 39.167969 27.996094 42.714844 L 23.257812 46.257812 L 12.601562 41.53125 L 6.683594 48.621094 C 10.089844 51.621094 13.808594 54.175781 18.519531 55.214844 L 18.519531 62.796875 L 27.996094 62.796875 L 27.996094 54.976562 C 29.71875 54.445312 31.335938 53.613281 32.734375 52.519531 C 34.125 53.613281 35.742188 54.441406 37.46875 54.976562 L 37.46875 62.796875 L 46.945312 62.796875 L 46.945312 55.214844 C 51.660156 54.175781 55.378906 51.644531 58.785156 48.621094 L 52.867188 41.53125 C 49.289062 44.671875 45.976562 46.257812 42.207031 46.257812 C 39.839844 46.257812 37.46875 45.074219 37.46875 42.714844 C 37.46875 39.167969 41.117188 38.175781 44.363281 36.617188 C 50.664062 33.613281 56.417969 29.714844 56.417969 21.445312 C 56.417969 15.039062 52.15625 10.785156 46.945312 9.175781 L 46.945312 1.355469 L 37.46875 1.355469 L 37.46875 8.988281 L 27.996094 8.988281 L 27.996094 1.355469 Z M 23.257812 17.898438 C 28.28125 17.898438 32.734375 22.621094 32.734375 22.621094 C 32.734375 22.621094 37.183594 17.898438 42.207031 17.898438 C 44.574219 17.898438 46.945312 18.84375 46.945312 21.445312 L 32.734375 32.667969 C 32.734375 32.667969 25.296875 28.199219 25.511719 28.25 C 22.359375 25.8125 18.519531 24.992188 18.519531 21.445312 C 18.519531 18.84375 20.890625 17.898438 23.257812 17.898438 Z M 23.257812 17.898438 "/></g></svg>
