<?xml version="1.0" encoding="UTF-8" standalone="no"?><svg width="64" height="64" viewBox="0 0 64 64" version="1.1" id="svg733" sodipodi:docname="feedindicator.svg" inkscape:version="1.2.2 (b0a8486541, 2022-12-01)" xmlns:inkscape="http://www.inkscape.org/namespaces/inkscape" xmlns:sodipodi="http://sodipodi.sourceforge.net/DTD/sodipodi-0.dtd" xmlns:xlink="http://www.w3.org/1999/xlink" xmlns="http://www.w3.org/2000/svg" xmlns:svg="http://www.w3.org/2000/svg"> <sodipodi:namedview id="namedview735" pagecolor="#ffffff" bordercolor="#000000" borderopacity="0.25" inkscape:showpageshadow="2" inkscape:pageopacity="0.0" inkscape:pagecheckerboard="0" inkscape:deskcolor="#d1d1d1" showgrid="false" inkscape:zoom="3.6875" inkscape:cx="32" inkscape:cy="32.135593" inkscape:window-width="1432" inkscape:window-height="844" inkscape:window-x="0" inkscape:window-y="0" inkscape:window-maximized="1" inkscape:current-layer="svg733" /> <defs id="defs724"> <linearGradient id="linear0" gradientUnits="userSpaceOnUse" x1="0" y1="0" x2="0" y2="1" gradientTransform="matrix(60,0,0,60,2,2)"> <stop offset="0" style="stop-color:#d29cff;stop-opacity:1;" id="stop684" /> <stop offset="1" style="stop-color:#aa00ff;stop-opacity:1;" id="stop686" /> </linearGradient> <filter id="alpha" filterUnits="objectBoundingBox" x="0" y="0" width="1" height="1"> <feColorMatrix type="matrix" in="SourceGraphic" values="0 0 0 0 1 0 0 0 0 1 0 0 0 0 1 0 0 0 1 0" id="feColorMatrix689" /> </filter> <mask id="mask0"> <g filter="url(#alpha)" id="g694"> <rect x="0" y="0" width="64" height="64" style="fill:rgb(0%,0%,0%);fill-opacity:0.8;stroke:none;" id="rect692" /> </g> </mask> <linearGradient id="linear1" gradientUnits="userSpaceOnUse" x1="0" y1="0" x2="0" y2="1" gradientTransform="matrix(45.9375,0,0,45.9375,9.03125,9.03125)"> <stop offset="0" style="stop-color:#d29cff;stop-opacity:1;" id="stop697" /> <stop offset="1" style="stop-color:#aa00ff;stop-opacity:1;" id="stop699" /> </linearGradient> <clipPath id="clip1"> <rect x="0" y="0" width="64" height="64" id="rect702" /> </clipPath> <g id="surface5" clip-path="url(#clip1)"> <path style=" stroke:none;fill-rule:nonzero;fill:url(#linear1);" d="M 32 9.03125 C 19.335938 9.03125 9.03125 19.335938 9.03125 32 C 9.03125 44.664062 19.335938 54.96875 32 54.96875 C 44.664062 54.96875 54.96875 44.664062 54.96875 32 C 54.96875 19.335938 44.664062 9.03125 32 9.03125 Z M 32 12.78125 C 42.636719 12.78125 51.21875 21.363281 51.21875 32 C 51.21875 42.636719 42.636719 51.21875 32 51.21875 C 21.363281 51.21875 12.78125 42.636719 12.78125 32 C 12.78125 21.363281 21.363281 12.78125 32 12.78125 Z M 32 12.78125 " id="path705" /> </g> <mask id="mask1"> <g filter="url(#alpha)" id="g710"> <rect x="0" y="0" width="64" height="64" style="fill:rgb(0%,0%,0%);fill-opacity:0.6;stroke:none;" id="rect708" /> </g> </mask> <linearGradient id="linear2" gradientUnits="userSpaceOnUse" x1="0" y1="0" x2="0" y2="1" gradientTransform="matrix(27.550781,0,0,27.550781,18.222656,18.566406)"> <stop offset="0" style="stop-color:#d29cff;stop-opacity:1;" id="stop713" /> <stop offset="1" style="stop-color:#aa00ff;stop-opacity:1;" id="stop715" /> </linearGradient> <clipPath id="clip2"> <rect x="0" y="0" width="64" height="64" id="rect718" /> </clipPath> <g id="surface8" clip-path="url(#clip2)"> <path style=" stroke:none;fill-rule:nonzero;fill:url(#linear2);" d="M 45.773438 32.34375 C 45.773438 39.949219 39.605469 46.117188 32 46.117188 C 24.390625 46.117188 18.222656 39.949219 18.222656 32.34375 C 18.222656 24.734375 24.390625 18.566406 32 18.566406 C 39.605469 18.566406 45.773438 24.734375 45.773438 32.34375 Z M 45.773438 32.34375 " id="path721" /> </g> <filter style="color-interpolation-filters:sRGB;" inkscape:label="Diffuse Light" id="filter1306" x="-0.04" y="-0.04" width="1.08" height="1.08"> <feGaussianBlur in="SourceGraphic" stdDeviation="1" result="blur" id="feGaussianBlur1296" /> <feDiffuseLighting diffuseConstant="1" surfaceScale="10" lighting-color="rgb(255,255,255)" result="diffuse" id="feDiffuseLighting1300"> <feDistantLight elevation="8" azimuth="235" id="feDistantLight1298" /> </feDiffuseLighting> <feComposite in="diffuse" in2="diffuse" operator="arithmetic" k1="1" result="composite1" id="feComposite1302" /> <feComposite in="composite1" in2="SourceGraphic" k1="1" operator="arithmetic" k3="1" result="composite2" id="feComposite1304" /> </filter> </defs> <g id="surface1" style="filter:url(#filter1306)"> <path style=" stroke:none;fill-rule:nonzero;fill:url(#linear0);" d="M 32 2 C 15.453125 2 2 15.453125 2 32 C 2 48.546875 15.453125 62 32 62 C 48.546875 62 62 48.546875 62 32 C 62 15.453125 48.546875 2 32 2 Z M 32 5.75 C 46.519531 5.75 58.25 17.480469 58.25 32 C 58.25 46.519531 46.519531 58.25 32 58.25 C 17.480469 58.25 5.75 46.519531 5.75 32 C 5.75 17.480469 17.480469 5.75 32 5.75 Z M 32 5.75 " id="path726" /> <use xlink:href="#surface5" mask="url(#mask0)" id="use728" /> <use xlink:href="#surface8" mask="url(#mask1)" id="use730" /> </g></svg>
