<svg width="64" height="64" viewBox="0 0 64 64" version="1.1" xmlns:inkscape="http://www.inkscape.org/namespaces/inkscape"><defs><linearGradient id="linear0" gradientUnits="userSpaceOnUse" x1="0" y1="0" x2="0" y2="1" gradientTransform="matrix(68.144811,0,0,41.47142,-5.047823,11.597297)"><stop offset="0" style="stop-color:rgb(100%,73.333335%,0%);stop-opacity:1;"/><stop offset="1" style="stop-color:rgb(70.19608%,51.372552%,0%);stop-opacity:1;"/></linearGradient><filter style="color-interpolation-filters:sRGB;" inkscape:label="Diffuse Light" id="filter184" x="-0.0375" y="-0.0375" width="1.075" height="1.075"><feGaussianBlur in="SourceGraphic" stdDeviation="1" result="blur" id="feGaussianBlur174" /><feDiffuseLighting diffuseConstant="1" surfaceScale="10" lighting-color="rgb(255,255,255)" result="diffuse" id="feDiffuseLighting178"><feDistantLight elevation="8" azimuth="235" id="feDistantLight176" /></feDiffuseLighting><feComposite in="diffuse" in2="diffuse" operator="arithmetic" k1="1" result="composite1" id="feComposite180" /><feComposite in="composite1" in2="SourceGraphic" k1="1" operator="arithmetic" k3="1" result="composite2" id="feComposite182" /></filter></defs><g id="surface1" style="filter:url(#filter184)"><path style=" stroke:none;fill-rule:nonzero;fill:url(#linear0);" d="M 14.378906 10.667969 L 14.378906 25.113281 L 27.753906 25.113281 L 27.753906 10.667969 Z M 27.753906 25.113281 L 27.753906 39.554688 L 41.132812 39.554688 L 41.132812 25.113281 Z M 27.753906 39.554688 L 14.378906 39.554688 L 14.378906 54 L 27.753906 54 Z M 14.378906 39.554688 L 14.378906 25.113281 L 1.003906 25.113281 L 1.003906 39.554688 Z M 50.050781 13.074219 L 50.050781 27.519531 L 63.425781 27.519531 L 63.425781 13.074219 Z M 50.050781 37.148438 L 50.050781 51.589844 L 63.425781 51.589844 L 63.425781 37.148438 Z M 50.050781 37.148438 "/></g></svg>
