<svg width="64" height="64" viewBox="0 0 64 64" version="1.1" xmlns:inkscape="http://www.inkscape.org/namespaces/inkscape"><defs><linearGradient id="linear0" gradientUnits="userSpaceOnUse" x1="0" y1="0" x2="0" y2="1" gradientTransform="matrix(98.993861,0,0,62.582635,-17.841669,0.595476)"><stop offset="0" style="stop-color:rgb(0%,78.823531%,36.862746%);stop-opacity:1;"/><stop offset="1" style="stop-color:rgb(0%,54.11765%,25.098041%);stop-opacity:1;"/></linearGradient><linearGradient id="linear1" gradientUnits="userSpaceOnUse" x1="0" y1="0" x2="0" y2="1" gradientTransform="matrix(98.993861,0,0,62.582635,-17.841669,0.595476)"><stop offset="0" style="stop-color:rgb(0%,78.823531%,36.862746%);stop-opacity:1;"/><stop offset="1" style="stop-color:rgb(0%,54.11765%,25.098041%);stop-opacity:1;"/></linearGradient><filter style="color-interpolation-filters:sRGB;" inkscape:label="Diffuse Light" id="filter184" x="-0.0375" y="-0.0375" width="1.075" height="1.075"><feGaussianBlur in="SourceGraphic" stdDeviation="1" result="blur" id="feGaussianBlur174" /><feDiffuseLighting diffuseConstant="1" surfaceScale="10" lighting-color="rgb(255,255,255)" result="diffuse" id="feDiffuseLighting178"><feDistantLight elevation="8" azimuth="235" id="feDistantLight176" /></feDiffuseLighting><feComposite in="diffuse" in2="diffuse" operator="arithmetic" k1="1" result="composite1" id="feComposite180" /><feComposite in="composite1" in2="SourceGraphic" k1="1" operator="arithmetic" k3="1" result="composite2" id="feComposite182" /></filter></defs><g id="surface1" style="filter:url(#filter184)"><path style=" stroke:none;fill-rule:nonzero;fill:url(#linear0);" d="M 12.796875 1.671875 L 10.441406 8.644531 L 10.441406 55.128906 L 12.796875 62.101562 L 17.511719 62.101562 L 19.867188 55.128906 L 19.867188 8.644531 L 17.511719 1.671875 Z M 29.300781 1.671875 L 26.9375 8.644531 L 26.9375 55.128906 L 29.300781 62.101562 L 34.011719 62.101562 L 36.371094 55.128906 L 36.371094 8.644531 L 34.011719 1.671875 Z M 45.796875 1.671875 L 43.441406 8.644531 L 43.441406 55.128906 L 45.796875 62.101562 L 50.511719 62.101562 L 52.867188 55.128906 L 52.867188 8.644531 L 50.511719 1.671875 Z M 45.796875 1.671875 "/><path style=" stroke:none;fill-rule:nonzero;fill:url(#linear1);" d="M 8.804688 11.074219 L 55.941406 11.074219 C 59.847656 11.074219 63.011719 14.195312 63.011719 18.050781 L 63.011719 45.941406 C 63.011719 49.789062 59.847656 52.914062 55.941406 52.914062 L 8.804688 52.914062 C 4.898438 52.914062 1.734375 49.789062 1.734375 45.941406 L 1.734375 18.050781 C 1.734375 14.195312 4.898438 11.074219 8.804688 11.074219 Z M 8.804688 11.074219 "/></g></svg>
