<svg width="64" height="64" viewBox="0 0 64 64" version="1.1" xmlns:inkscape="http://www.inkscape.org/namespaces/inkscape"><defs><linearGradient id="linear0" gradientUnits="userSpaceOnUse" x1="0" y1="0" x2="0" y2="1" gradientTransform="matrix(61.948487,0,0,42.098823,-0.663884,9.435634)"><stop offset="0" style="stop-color:rgb(75.686276%,77.64706%,83.92157%);stop-opacity:1;"/><stop offset="1" style="stop-color:rgb(43.529412%,45.09804%,50.196081%);stop-opacity:1;"/></linearGradient><filter style="color-interpolation-filters:sRGB;" inkscape:label="Diffuse Light" id="filter184" x="-0.0375" y="-0.0375" width="1.075" height="1.075"><feGaussianBlur in="SourceGraphic" stdDeviation="1" result="blur" id="feGaussianBlur174" /><feDiffuseLighting diffuseConstant="1" surfaceScale="10" lighting-color="rgb(255,255,255)" result="diffuse" id="feDiffuseLighting178"><feDistantLight elevation="8" azimuth="235" id="feDistantLight176" /></feDiffuseLighting><feComposite in="diffuse" in2="diffuse" operator="arithmetic" k1="1" result="composite1" id="feComposite180" /><feComposite in="composite1" in2="SourceGraphic" k1="1" operator="arithmetic" k3="1" result="composite2" id="feComposite182" /></filter></defs><g id="surface1" style="filter:url(#filter184)"><path style=" stroke:none;fill-rule:nonzero;fill:url(#linear0);" d="M 42.613281 7.429688 L 30.738281 27.085938 L 17.6875 34.457031 C 17.6875 35.816406 18.695312 36.917969 19.953125 36.917969 L 26.207031 36.917969 L 21.671875 46.742188 L 1.300781 46.742188 C 3.089844 50.429688 5.449219 53.746094 8.257812 56.570312 L 24.484375 56.570312 C 26.199219 56.570312 27.769531 55.519531 28.539062 53.84375 L 36.359375 36.917969 L 47.144531 36.917969 C 48.398438 36.917969 49.410156 35.816406 49.410156 34.457031 L 49.410156 29.546875 C 49.410156 28.179688 48.398438 27.085938 47.144531 27.085938 L 40.886719 27.085938 L 45.421875 17.261719 L 63.324219 17.261719 C 62.175781 13.746094 60.535156 10.429688 58.476562 7.429688 Z M 42.613281 7.429688 "/></g></svg>
