<svg width="64" height="64" viewBox="0 0 64 64" version="1.1" xmlns:inkscape="http://www.inkscape.org/namespaces/inkscape"><defs><linearGradient id="linear0" gradientUnits="userSpaceOnUse" x1="0" y1="0" x2="0" y2="1" gradientTransform="matrix(60.759682,0,0,61.954674,1.772014,1.379179)"><stop offset="0" style="stop-color:rgb(81.960785%,70.980394%,59.215689%);stop-opacity:1;"/><stop offset="1" style="stop-color:rgb(65.098041%,53.725493%,41.568628%);stop-opacity:1;"/></linearGradient><filter style="color-interpolation-filters:sRGB;" inkscape:label="Diffuse Light" id="filter184" x="-0.0375" y="-0.0375" width="1.075" height="1.075"><feGaussianBlur in="SourceGraphic" stdDeviation="1" result="blur" id="feGaussianBlur174" /><feDiffuseLighting diffuseConstant="1" surfaceScale="10" lighting-color="rgb(255,255,255)" result="diffuse" id="feDiffuseLighting178"><feDistantLight elevation="8" azimuth="235" id="feDistantLight176" /></feDiffuseLighting><feComposite in="diffuse" in2="diffuse" operator="arithmetic" k1="1" result="composite1" id="feComposite180" /><feComposite in="composite1" in2="SourceGraphic" k1="1" operator="arithmetic" k3="1" result="composite2" id="feComposite182" /></filter></defs><g id="surface1" style="filter:url(#filter184)"><path style=" stroke:none;fill-rule:nonzero;fill:url(#linear0);" d="M 32.152344 1.378906 C 17.332031 1.382812 4.679688 12.292969 2.207031 27.195312 L 7.347656 27.195312 C 9.757812 15.179688 20.121094 6.542969 32.152344 6.542969 C 42.199219 6.5625 51.28125 12.644531 55.300781 22.03125 L 37.214844 22.03125 L 37.214844 27.195312 L 62.53125 27.195312 L 62.53125 1.378906 L 57.46875 1.378906 L 57.46875 15.316406 C 51.855469 6.632812 42.347656 1.398438 32.152344 1.378906 M 1.773438 37.519531 L 1.773438 63.332031 L 6.835938 63.332031 L 6.835938 49.398438 C 12.449219 58.082031 21.957031 63.3125 32.152344 63.332031 C 46.972656 63.328125 59.625 52.417969 62.097656 37.519531 L 56.953125 37.519531 C 54.546875 49.535156 44.183594 58.171875 32.152344 58.171875 C 22.105469 58.152344 13.019531 52.070312 9 42.683594 L 27.089844 42.683594 L 27.089844 37.519531 Z M 1.773438 37.519531 "/></g></svg>
