<svg width="64" height="64" viewBox="0 0 64 64" version="1.1" xmlns:inkscape="http://www.inkscape.org/namespaces/inkscape"><defs><linearGradient id="linear0" gradientUnits="userSpaceOnUse" x1="0" y1="0" x2="0" y2="1" gradientTransform="matrix(58.749155,0,0,38.634913,4.028606,12.873919)"><stop offset="0" style="stop-color:rgb(0%,96.078432%,86.274511%);stop-opacity:1;"/><stop offset="1" style="stop-color:rgb(0%,54.901963%,49.411765%);stop-opacity:1;"/></linearGradient><linearGradient id="linear1" gradientUnits="userSpaceOnUse" x1="0" y1="0" x2="0" y2="1" gradientTransform="matrix(58.749155,0,0,38.634913,4.028606,12.873919)"><stop offset="0" style="stop-color:rgb(0%,96.078432%,86.274511%);stop-opacity:1;"/><stop offset="1" style="stop-color:rgb(0%,54.901963%,49.411765%);stop-opacity:1;"/></linearGradient><filter style="color-interpolation-filters:sRGB;" inkscape:label="Diffuse Light" id="filter184" x="-0.0375" y="-0.0375" width="1.075" height="1.075"><feGaussianBlur in="SourceGraphic" stdDeviation="1" result="blur" id="feGaussianBlur174" /><feDiffuseLighting diffuseConstant="1" surfaceScale="10" lighting-color="rgb(255,255,255)" result="diffuse" id="feDiffuseLighting178"><feDistantLight elevation="8" azimuth="235" id="feDistantLight176" /></feDiffuseLighting><feComposite in="diffuse" in2="diffuse" operator="arithmetic" k1="1" result="composite1" id="feComposite180" /><feComposite in="composite1" in2="SourceGraphic" k1="1" operator="arithmetic" k3="1" result="composite2" id="feComposite182" /></filter></defs><g id="surface1" style="filter:url(#filter184)"><path style=" stroke:none;fill-rule:nonzero;fill:url(#linear0);" d="M 25.488281 6.148438 C 25.148438 6.210938 24.816406 6.328125 24.515625 6.5 L 3.417969 18.539062 C 2.480469 19.074219 1.984375 20.070312 1.984375 21.148438 L 1.984375 43.21875 C 1.984375 44.300781 2.480469 45.304688 3.417969 45.824219 L 24.515625 57.867188 C 25.441406 58.390625 26.585938 58.390625 27.511719 57.867188 L 48.601562 45.824219 C 49.542969 45.292969 50.203125 44.292969 50.203125 43.21875 L 50.203125 21.148438 C 50.203125 20.066406 49.546875 19.0625 48.601562 18.539062 L 27.511719 6.5 C 26.898438 6.15625 26.1875 6.03125 25.5 6.148438 Z M 26.011719 12.628906 L 43.929688 22.820312 L 26.09375 32.191406 L 26.09375 51.792969 L 8.007812 41.480469 L 8.007812 22.863281 L 26.09375 32.191406 Z M 26.011719 12.628906 "/><path style=" stroke:none;fill-rule:nonzero;fill:url(#linear1);" d="M 48.886719 25.289062 L 46.085938 28.160156 L 51.683594 33.898438 L 46.085938 39.636719 L 48.886719 42.507812 L 54.480469 36.769531 L 60.078125 42.507812 L 62.871094 39.636719 L 57.277344 33.898438 L 62.871094 28.160156 L 60.078125 25.289062 L 54.480469 31.027344 Z M 48.886719 25.289062 "/></g></svg>
