<svg width="64" height="64" viewBox="0 0 64 64" version="1.1" xmlns:inkscape="http://www.inkscape.org/namespaces/inkscape"><defs><linearGradient id="linear0" gradientUnits="userSpaceOnUse" x1="0" y1="0" x2="0" y2="1" gradientTransform="matrix(88.24633,0,0,90.781174,-13.924633,-13.994615)"><stop offset="0" style="stop-color:rgb(100%,63.137257%,63.137257%);stop-opacity:1;"/><stop offset="1" style="stop-color:rgb(100%,27.843139%,27.843139%);stop-opacity:1;"/></linearGradient><filter style="color-interpolation-filters:sRGB;" inkscape:label="Diffuse Light" id="filter184" x="-0.0375" y="-0.0375" width="1.075" height="1.075"><feGaussianBlur in="SourceGraphic" stdDeviation="1" result="blur" id="feGaussianBlur174" /><feDiffuseLighting diffuseConstant="1" surfaceScale="10" lighting-color="rgb(255,255,255)" result="diffuse" id="feDiffuseLighting178"><feDistantLight elevation="8" azimuth="235" id="feDistantLight176" /></feDiffuseLighting><feComposite in="diffuse" in2="diffuse" operator="arithmetic" k1="1" result="composite1" id="feComposite180" /><feComposite in="composite1" in2="SourceGraphic" k1="1" operator="arithmetic" k3="1" result="composite2" id="feComposite182" /></filter></defs><g id="surface1" style="filter:url(#filter184)"><path style=" stroke:none;fill-rule:nonzero;fill:url(#linear0);" d="M 30.066406 1.542969 C 14.476562 1.542969 1.835938 15.273438 1.835938 32.214844 C 1.835938 49.15625 14.476562 62.882812 30.066406 62.882812 L 58.535156 62.882812 L 63.28125 57.472656 L 46.078125 57.472656 C 53.726562 51.746094 58.300781 42.304688 58.300781 32.214844 C 58.300781 15.273438 45.660156 1.542969 30.066406 1.542969 Z M 30.066406 19.433594 C 36.5625 19.433594 41.828125 25.15625 41.828125 32.214844 C 41.828125 39.269531 36.5625 44.992188 30.066406 44.992188 C 23.566406 44.992188 18.296875 39.269531 18.296875 32.214844 C 18.296875 25.15625 23.566406 19.433594 30.066406 19.433594 Z M 30.066406 19.433594 "/></g></svg>
