<svg width="64" height="64" viewBox="0 0 64 64" version="1.1" xmlns:inkscape="http://www.inkscape.org/namespaces/inkscape"><defs><linearGradient id="linear0" gradientUnits="userSpaceOnUse" x1="0" y1="0" x2="0" y2="1" gradientTransform="matrix(64.312447,0,0,38.568291,2.379916,11.98744)"><stop offset="0" style="stop-color:rgb(0%,96.078432%,86.274511%);stop-opacity:1;"/><stop offset="1" style="stop-color:rgb(0%,54.901963%,49.411765%);stop-opacity:1;"/></linearGradient><filter style="color-interpolation-filters:sRGB;" inkscape:label="Diffuse Light" id="filter184" x="-0.0375" y="-0.0375" width="1.075" height="1.075"><feGaussianBlur in="SourceGraphic" stdDeviation="1" result="blur" id="feGaussianBlur174" /><feDiffuseLighting diffuseConstant="1" surfaceScale="10" lighting-color="rgb(255,255,255)" result="diffuse" id="feDiffuseLighting178"><feDistantLight elevation="8" azimuth="235" id="feDistantLight176" /></feDiffuseLighting><feComposite in="diffuse" in2="diffuse" operator="arithmetic" k1="1" result="composite1" id="feComposite180" /><feComposite in="composite1" in2="SourceGraphic" k1="1" operator="arithmetic" k3="1" result="composite2" id="feComposite182" /></filter></defs><g id="surface1" style="filter:url(#filter184)"><path style=" stroke:none;fill-rule:nonzero;fill:url(#linear0);" d="M 38.335938 1.21875 L 20.925781 20.195312 C 12.222656 29.6875 9.320312 33.507812 9.320312 41.550781 C 9.320312 55.785156 20.925781 62.898438 35.433594 62.898438 C 47.039062 62.898438 55.742188 55.785156 55.742188 43.921875 C 55.742188 24.941406 41.234375 24.445312 41.234375 8.335938 L 41.234375 2.40625 C 41.234375 1.746094 40.585938 1.21875 39.785156 1.21875 Z M 35.433594 13.082031 L 35.433594 15.453125 C 35.433594 20.105469 38.214844 23.613281 41.0625 27.363281 C 40.640625 27.332031 40.214844 27.304688 39.789062 27.304688 C 30.96875 27.300781 23.832031 33.144531 23.832031 40.351562 C 23.832031 43.625 27.085938 46.289062 31.085938 46.289062 C 35.09375 46.289062 38.339844 43.625 38.339844 40.351562 C 38.339844 37.53125 35.921875 35.113281 32.535156 34.539062 C 34.441406 32.949219 37.0625 32.050781 39.789062 32.050781 C 41.59375 32.050781 43.359375 32.449219 44.925781 33.195312 C 46.183594 35.617188 47.058594 38.296875 47.058594 41.546875 C 47.058594 46.292969 45.367188 55.78125 32.546875 55.78125 C 22.917969 55.78125 15.144531 49.492188 15.144531 41.546875 C 15.144531 35.375 18.039062 32.054688 22.398438 27.308594 Z M 35.433594 13.082031 "/></g></svg>
