<svg width="64" height="64" viewBox="0 0 64 64" version="1.1" xmlns:inkscape="http://www.inkscape.org/namespaces/inkscape"><defs><linearGradient id="linear0" gradientUnits="userSpaceOnUse" x1="0" y1="0" x2="0" y2="1" gradientTransform="matrix(56,0,0,35.898438,4,14.050781)"><stop offset="0" style="stop-color:rgb(82.352942%,61.176473%,100%);stop-opacity:1;"/><stop offset="1" style="stop-color:rgb(66.666669%,0%,100%);stop-opacity:1;"/></linearGradient><filter style="color-interpolation-filters:sRGB;" inkscape:label="Diffuse Light" id="filter184" x="-0.0375" y="-0.0375" width="1.075" height="1.075"><feGaussianBlur in="SourceGraphic" stdDeviation="1" result="blur" id="feGaussianBlur174" /><feDiffuseLighting diffuseConstant="1" surfaceScale="10" lighting-color="rgb(255,255,255)" result="diffuse" id="feDiffuseLighting178"><feDistantLight elevation="8" azimuth="235" id="feDistantLight176" /></feDiffuseLighting><feComposite in="diffuse" in2="diffuse" operator="arithmetic" k1="1" result="composite1" id="feComposite180" /><feComposite in="composite1" in2="SourceGraphic" k1="1" operator="arithmetic" k3="1" result="composite2" id="feComposite182" /></filter></defs><g id="surface1" style="filter:url(#filter184)"><path style=" stroke:none;fill-rule:nonzero;fill:url(#linear0);" d="M 32.679688 11.523438 L 15.882812 47.667969 L 21.84375 47.667969 L 32.65625 23.703125 L 43.492188 47.695312 L 49.453125 47.6875 L 32.699219 11.546875 Z M 11.011719 11.5625 L 8.300781 17.09375 L 26.695312 17.09375 L 29.402344 11.5625 L 10.988281 11.5625 Z M 35.910156 11.5625 L 38.621094 17.09375 L 57.011719 17.09375 L 54.304688 11.5625 L 35.890625 11.5625 Z M 4.894531 22.65625 L 2.183594 28.214844 L 15.445312 28.214844 L 5.964844 47.679688 L 11.925781 47.679688 L 24.09375 22.65625 L 4.871094 22.65625 Z M 41.371094 22.65625 L 53.539062 47.679688 L 59.503906 47.679688 L 50.023438 28.214844 L 63.28125 28.214844 L 60.574219 22.65625 L 41.351562 22.65625 Z M 32.722656 33.777344 C 31.515625 33.777344 30.539062 35.023438 30.539062 36.558594 C 30.539062 38.09375 31.515625 39.335938 32.722656 39.335938 C 33.929688 39.335938 34.90625 38.09375 34.90625 36.558594 C 34.90625 35.023438 33.929688 33.777344 32.722656 33.777344 Z M 32.722656 33.777344 "/></g></svg>
