<svg width="64" height="64" viewBox="0 0 64 64" version="1.1" xmlns:inkscape="http://www.inkscape.org/namespaces/inkscape"><defs><linearGradient id="linear0" gradientUnits="userSpaceOnUse" x1="0" y1="0" x2="0" y2="1" gradientTransform="matrix(65.473094,0,0,44.003972,0.98683,11.5252)"><stop offset="0" style="stop-color:rgb(0%,78.823531%,36.862746%);stop-opacity:1;"/><stop offset="1" style="stop-color:rgb(0%,54.11765%,25.098041%);stop-opacity:1;"/></linearGradient><filter style="color-interpolation-filters:sRGB;" inkscape:label="Diffuse Light" id="filter184" x="-0.0375" y="-0.0375" width="1.075" height="1.075"><feGaussianBlur in="SourceGraphic" stdDeviation="1" result="blur" id="feGaussianBlur174" /><feDiffuseLighting diffuseConstant="1" surfaceScale="10" lighting-color="rgb(255,255,255)" result="diffuse" id="feDiffuseLighting178"><feDistantLight elevation="8" azimuth="235" id="feDistantLight176" /></feDiffuseLighting><feComposite in="diffuse" in2="diffuse" operator="arithmetic" k1="1" result="composite1" id="feComposite180" /><feComposite in="composite1" in2="SourceGraphic" k1="1" operator="arithmetic" k3="1" result="composite2" id="feComposite182" /></filter></defs><g id="surface1" style="filter:url(#filter184)"><path style=" stroke:none;fill-rule:nonzero;fill:url(#linear0);" d="M 54.796875 2.570312 L 49.808594 9.496094 L 57.289062 18.726562 L 57.289062 21.035156 L 27.355469 21.035156 L 27.355469 11.804688 L 22.371094 21.035156 L 7.402344 21.035156 L 2.417969 11.804688 L 2.417969 62.574219 L 7.402344 62.574219 L 7.402344 44.109375 L 22.371094 44.109375 L 22.371094 62.574219 L 27.355469 62.574219 L 27.355469 44.109375 L 37.335938 44.109375 L 37.335938 62.574219 L 42.324219 62.574219 L 42.324219 44.109375 L 57.289062 44.109375 L 57.289062 62.574219 L 62.28125 62.574219 L 62.28125 16.417969 L 54.796875 9.496094 Z M 54.796875 2.570312 "/><path style=" stroke:none;fill-rule:nonzero;fill:rgb(0%,78.823531%,36.862746%);fill-opacity:1;" d="M 10.734375 23.085938 L 10.734375 30.980469 L 12.898438 30.980469 L 12.898438 23.085938 Z M 17.230469 23.085938 L 17.230469 30.980469 L 19.402344 30.980469 L 19.402344 23.085938 Z M 6.394531 33.609375 L 6.394531 36.238281 L 10.734375 36.238281 L 10.734375 33.609375 Z M 12.898438 33.609375 L 15.066406 38.871094 L 17.230469 33.609375 Z M 19.402344 33.609375 L 19.402344 36.238281 L 23.734375 36.238281 L 23.734375 33.609375 Z M 6.394531 38.871094 L 6.394531 41.5 L 10.734375 41.5 L 10.734375 38.871094 Z M 19.402344 38.871094 L 19.402344 41.5 L 23.734375 41.5 L 23.734375 38.871094 Z M 19.402344 38.871094 "/></g></svg>
