<svg width="64" height="64" viewBox="0 0 64 64" version="1.1" xmlns:inkscape="http://www.inkscape.org/namespaces/inkscape"><defs><linearGradient id="linear0" gradientUnits="userSpaceOnUse" x1="0" y1="0" x2="0" y2="1" gradientTransform="matrix(69.12028,0,0,41.128462,-0.860723,9.313534)"><stop offset="0" style="stop-color:rgb(75.686276%,77.64706%,83.92157%);stop-opacity:1;"/><stop offset="1" style="stop-color:rgb(43.529412%,45.09804%,50.196081%);stop-opacity:1;"/></linearGradient><filter style="color-interpolation-filters:sRGB;" inkscape:label="Diffuse Light" id="filter184" x="-0.0375" y="-0.0375" width="1.075" height="1.075"><feGaussianBlur in="SourceGraphic" stdDeviation="1" result="blur" id="feGaussianBlur174" /><feDiffuseLighting diffuseConstant="1" surfaceScale="10" lighting-color="rgb(255,255,255)" result="diffuse" id="feDiffuseLighting178"><feDistantLight elevation="8" azimuth="235" id="feDistantLight176" /></feDiffuseLighting><feComposite in="diffuse" in2="diffuse" operator="arithmetic" k1="1" result="composite1" id="feComposite180" /><feComposite in="composite1" in2="SourceGraphic" k1="1" operator="arithmetic" k3="1" result="composite2" id="feComposite182" /></filter></defs><g id="surface1" style="filter:url(#filter184)"><path style=" stroke:none;fill-rule:nonzero;fill:url(#linear0);" d="M 46.5625 24.980469 C 46.5625 24.980469 44.457031 17.074219 35.261719 16.835938 C 26.082031 16.59375 21.367188 23.152344 21.367188 32.503906 C 21.367188 41.859375 26.578125 49.351562 35.496094 49.351562 C 44.417969 49.351562 46.519531 40.304688 46.519531 40.304688 L 63.292969 40.304688 C 63.292969 40.304688 63.535156 49.351562 56.363281 55.832031 C 49.191406 62.269531 40.40625 63.332031 34.261719 63.28125 C 28.140625 63.226562 19.640625 63.371094 11.375 55.691406 C 3.136719 48.03125 1.734375 40.550781 1.734375 33.242188 C 1.734375 25.914062 3.320312 16.207031 13.113281 8.847656 C 19.761719 3.839844 26.515625 2.003906 33.238281 2.003906 C 61.414062 2.003906 63.269531 24.980469 63.269531 24.980469 L 46.492188 24.980469 M 46.515625 24.980469 "/></g></svg>
