<svg width="64" height="64" viewBox="0 0 64 64" version="1.1" xmlns:inkscape="http://www.inkscape.org/namespaces/inkscape"><defs><linearGradient id="linear0" gradientUnits="userSpaceOnUse" x1="0" y1="0" x2="0" y2="1" gradientTransform="matrix(58.537094,0,0,37.975864,3.071094,13.367679)"><stop offset="0" style="stop-color:rgb(41.960785%,64.313728%,100%);stop-opacity:1;"/><stop offset="1" style="stop-color:rgb(0%,43.137255%,100%);stop-opacity:1;"/></linearGradient><filter style="color-interpolation-filters:sRGB;" inkscape:label="Diffuse Light" id="filter184" x="-0.0375" y="-0.0375" width="1.075" height="1.075"><feGaussianBlur in="SourceGraphic" stdDeviation="1" result="blur" id="feGaussianBlur174" /><feDiffuseLighting diffuseConstant="1" surfaceScale="10" lighting-color="rgb(255,255,255)" result="diffuse" id="feDiffuseLighting178"><feDistantLight elevation="8" azimuth="235" id="feDistantLight176" /></feDiffuseLighting><feComposite in="diffuse" in2="diffuse" operator="arithmetic" k1="1" result="composite1" id="feComposite180" /><feComposite in="composite1" in2="SourceGraphic" k1="1" operator="arithmetic" k3="1" result="composite2" id="feComposite182" /></filter></defs><g id="surface1" style="filter:url(#filter184)"><path style=" stroke:none;fill-rule:nonzero;fill:url(#linear0);" d="M 17.914062 5.582031 L 17.914062 10.402344 L 27.421875 7.992188 Z M 17.914062 10.402344 L 17.914062 44.136719 C 17.914062 44.136719 23.859375 42.214844 29.800781 39.148438 L 29.800781 44.136719 C 29.800781 44.136719 36.292969 43.175781 41.691406 40.738281 L 41.691406 44.144531 C 41.691406 44.144531 55.453125 42.15625 55.929688 36.429688 C 56.300781 31.996094 49.296875 28.140625 44.96875 26.214844 L 17.867188 10.40625 Z M 41.691406 44.136719 L 1.269531 44.136719 L 3.652344 46.550781 L 4.042969 46.550781 L 17.90625 58.597656 L 34.546875 58.597656 L 58.320312 46.550781 L 60.699219 46.550781 L 63.078125 44.136719 L 41.679688 44.136719 Z M 41.691406 44.136719 "/></g></svg>
