<svg width="64" height="64" viewBox="0 0 64 64" version="1.1" xmlns:inkscape="http://www.inkscape.org/namespaces/inkscape"><defs><linearGradient id="linear0" gradientUnits="userSpaceOnUse" x1="0" y1="0" x2="0" y2="1" gradientTransform="matrix(107.029639,0,0,68.454929,-21.080329,-9.008699)"><stop offset="0" style="stop-color:rgb(61.176473%,69.803923%,85.09804%);stop-opacity:1;"/><stop offset="1" style="stop-color:rgb(44.313726%,52.156866%,65.882355%);stop-opacity:1;"/></linearGradient><linearGradient id="linear1" gradientUnits="userSpaceOnUse" x1="0" y1="0" x2="0" y2="1" gradientTransform="matrix(107.029639,0,0,68.454929,-21.080329,-9.008699)"><stop offset="0" style="stop-color:rgb(61.176473%,69.803923%,85.09804%);stop-opacity:1;"/><stop offset="1" style="stop-color:rgb(44.313726%,52.156866%,65.882355%);stop-opacity:1;"/></linearGradient><filter style="color-interpolation-filters:sRGB;" inkscape:label="Diffuse Light" id="filter184" x="-0.0375" y="-0.0375" width="1.075" height="1.075"><feGaussianBlur in="SourceGraphic" stdDeviation="1" result="blur" id="feGaussianBlur174" /><feDiffuseLighting diffuseConstant="1" surfaceScale="10" lighting-color="rgb(255,255,255)" result="diffuse" id="feDiffuseLighting178"><feDistantLight elevation="8" azimuth="235" id="feDistantLight176" /></feDiffuseLighting><feComposite in="diffuse" in2="diffuse" operator="arithmetic" k1="1" result="composite1" id="feComposite180" /><feComposite in="composite1" in2="SourceGraphic" k1="1" operator="arithmetic" k3="1" result="composite2" id="feComposite182" /></filter></defs><g id="surface1" style="filter:url(#filter184)"><path style=" stroke:none;fill-rule:nonzero;fill:url(#linear0);" d="M 62.722656 27.058594 L 62.722656 60.109375 C 62.722656 61.523438 61.589844 62.65625 60.175781 62.65625 L 4.117188 62.65625 C 2.699219 62.65625 1.5625 61.523438 1.5625 60.109375 L 1.5625 27.058594 L 32.144531 24.519531 Z M 62.722656 27.058594 "/><path style=" stroke:none;fill-rule:nonzero;fill:url(#linear1);" d="M 8.796875 2.3125 C 6.246094 2.3125 6.246094 3.484375 5.609375 4.855469 L 29.179688 4.855469 L 29.179688 20.109375 L 1.914062 20.109375 L 1.152344 22.648438 L 1.152344 27.738281 L 62.3125 27.738281 L 62.3125 22.648438 L 61.804688 20.109375 L 34.277344 20.109375 L 34.277344 4.855469 L 57.847656 4.855469 C 57.214844 3.632812 57.214844 2.3125 54.667969 2.3125 Z M 8.796875 2.3125 "/></g></svg>
