<svg width="64" height="64" viewBox="0 0 64 64" version="1.1" xmlns:inkscape="http://www.inkscape.org/namespaces/inkscape"><defs><linearGradient id="linear0" gradientUnits="userSpaceOnUse" x1="0" y1="0" x2="0" y2="1" gradientTransform="matrix(63.780031,0,0,42.524163,0.218095,8.585167)"><stop offset="0" style="stop-color:rgb(92.941177%,83.529413%,72.549021%);stop-opacity:1;"/><stop offset="1" style="stop-color:rgb(81.960785%,71.372551%,59.215689%);stop-opacity:1;"/></linearGradient><filter style="color-interpolation-filters:sRGB;" inkscape:label="Diffuse Light" id="filter184" x="-0.0375" y="-0.0375" width="1.075" height="1.075"><feGaussianBlur in="SourceGraphic" stdDeviation="1" result="blur" id="feGaussianBlur174" /><feDiffuseLighting diffuseConstant="1" surfaceScale="10" lighting-color="rgb(255,255,255)" result="diffuse" id="feDiffuseLighting178"><feDistantLight elevation="8" azimuth="235" id="feDistantLight176" /></feDiffuseLighting><feComposite in="diffuse" in2="diffuse" operator="arithmetic" k1="1" result="composite1" id="feComposite180" /><feComposite in="composite1" in2="SourceGraphic" k1="1" operator="arithmetic" k3="1" result="composite2" id="feComposite182" /></filter></defs><g id="surface1" style="filter:url(#filter184)"><path style=" stroke:none;fill-rule:nonzero;fill:url(#linear0);" d="M 21.082031 2.941406 L 8.347656 10.402344 L 0.707031 20.351562 L 5.800781 17.867188 L 18.539062 17.867188 L 36.367188 25.328125 L 36.367188 17.867188 L 28.726562 11.648438 L 28.726562 7.914062 L 33.820312 2.941406 Z M 46.554688 2.941406 L 38.914062 22.839844 L 38.914062 25.328125 L 44.007812 29.0625 L 49.101562 35.28125 L 56.742188 35.28125 L 61.835938 27.816406 L 61.835938 17.867188 L 54.195312 7.914062 Z M 3.253906 20.351562 L 3.253906 32.789062 L 10.894531 32.789062 L 18.539062 22.839844 L 18.539062 20.351562 Z M 23.632812 22.839844 L 13.445312 32.789062 L 18.539062 35.28125 L 28.726562 42.742188 L 36.367188 45.226562 L 46.554688 40.253906 L 44.007812 32.789062 L 36.367188 27.816406 Z M 3.253906 35.28125 L 5.800781 45.226562 L 13.445312 47.71875 L 21.082031 47.71875 L 24.472656 43.117188 L 13.445312 35.28125 Z M 26.175781 45.226562 L 18.539062 57.671875 L 23.632812 62.644531 L 33.820312 47.71875 Z M 26.175781 45.226562 "/></g></svg>
