<svg width="64" height="64" viewBox="0 0 64 64" version="1.1" xmlns:inkscape="http://www.inkscape.org/namespaces/inkscape"><defs><linearGradient id="linear0" gradientUnits="userSpaceOnUse" x1="0" y1="0" x2="0" y2="1" gradientTransform="matrix(85.488821,0,0,54.825336,-10.70309,4.783657)"><stop offset="0" style="stop-color:rgb(82.352942%,61.176473%,100%);stop-opacity:1;"/><stop offset="1" style="stop-color:rgb(66.666669%,0%,100%);stop-opacity:1;"/></linearGradient><linearGradient id="linear1" gradientUnits="userSpaceOnUse" x1="0" y1="0" x2="0" y2="1" gradientTransform="matrix(85.488821,0,0,54.825336,-10.70309,4.783657)"><stop offset="0" style="stop-color:rgb(82.352942%,61.176473%,100%);stop-opacity:1;"/><stop offset="1" style="stop-color:rgb(66.666669%,0%,100%);stop-opacity:1;"/></linearGradient><linearGradient id="linear2" gradientUnits="userSpaceOnUse" x1="0" y1="0" x2="0" y2="1" gradientTransform="matrix(85.488821,0,0,54.825336,-10.70309,4.783657)"><stop offset="0" style="stop-color:rgb(82.352942%,61.176473%,100%);stop-opacity:1;"/><stop offset="1" style="stop-color:rgb(66.666669%,0%,100%);stop-opacity:1;"/></linearGradient><linearGradient id="linear3" gradientUnits="userSpaceOnUse" x1="0" y1="0" x2="0" y2="1" gradientTransform="matrix(85.488821,0,0,54.825336,-10.70309,4.783657)"><stop offset="0" style="stop-color:rgb(82.352942%,61.176473%,100%);stop-opacity:1;"/><stop offset="1" style="stop-color:rgb(66.666669%,0%,100%);stop-opacity:1;"/></linearGradient><linearGradient id="linear4" gradientUnits="userSpaceOnUse" x1="0" y1="0" x2="0" y2="1" gradientTransform="matrix(85.488821,0,0,54.825336,-10.70309,4.783657)"><stop offset="0" style="stop-color:rgb(82.352942%,61.176473%,100%);stop-opacity:1;"/><stop offset="1" style="stop-color:rgb(66.666669%,0%,100%);stop-opacity:1;"/></linearGradient><linearGradient id="linear5" gradientUnits="userSpaceOnUse" x1="0" y1="0" x2="0" y2="1" gradientTransform="matrix(85.488821,0,0,54.825336,-10.70309,4.783657)"><stop offset="0" style="stop-color:rgb(82.352942%,61.176473%,100%);stop-opacity:1;"/><stop offset="1" style="stop-color:rgb(66.666669%,0%,100%);stop-opacity:1;"/></linearGradient><linearGradient id="linear6" gradientUnits="userSpaceOnUse" x1="0" y1="0" x2="0" y2="1" gradientTransform="matrix(85.488821,0,0,54.825336,-10.70309,4.783657)"><stop offset="0" style="stop-color:rgb(82.352942%,61.176473%,100%);stop-opacity:1;"/><stop offset="1" style="stop-color:rgb(66.666669%,0%,100%);stop-opacity:1;"/></linearGradient><linearGradient id="linear7" gradientUnits="userSpaceOnUse" x1="0" y1="0" x2="0" y2="1" gradientTransform="matrix(85.488821,0,0,54.825336,-10.70309,4.783657)"><stop offset="0" style="stop-color:rgb(82.352942%,61.176473%,100%);stop-opacity:1;"/><stop offset="1" style="stop-color:rgb(66.666669%,0%,100%);stop-opacity:1;"/></linearGradient><linearGradient id="linear8" gradientUnits="userSpaceOnUse" x1="0" y1="0" x2="0" y2="1" gradientTransform="matrix(85.488821,0,0,54.825336,-10.70309,4.783657)"><stop offset="0" style="stop-color:rgb(82.352942%,61.176473%,100%);stop-opacity:1;"/><stop offset="1" style="stop-color:rgb(66.666669%,0%,100%);stop-opacity:1;"/></linearGradient><linearGradient id="linear9" gradientUnits="userSpaceOnUse" x1="0" y1="0" x2="0" y2="1" gradientTransform="matrix(85.488821,0,0,54.825336,-10.70309,4.783657)"><stop offset="0" style="stop-color:rgb(82.352942%,61.176473%,100%);stop-opacity:1;"/><stop offset="1" style="stop-color:rgb(66.666669%,0%,100%);stop-opacity:1;"/></linearGradient><filter style="color-interpolation-filters:sRGB;" inkscape:label="Diffuse Light" id="filter184" x="-0.0375" y="-0.0375" width="1.075" height="1.075"><feGaussianBlur in="SourceGraphic" stdDeviation="1" result="blur" id="feGaussianBlur174" /><feDiffuseLighting diffuseConstant="1" surfaceScale="10" lighting-color="rgb(255,255,255)" result="diffuse" id="feDiffuseLighting178"><feDistantLight elevation="8" azimuth="235" id="feDistantLight176" /></feDiffuseLighting><feComposite in="diffuse" in2="diffuse" operator="arithmetic" k1="1" result="composite1" id="feComposite180" /><feComposite in="composite1" in2="SourceGraphic" k1="1" operator="arithmetic" k3="1" result="composite2" id="feComposite182" /></filter></defs><g id="surface1" style="filter:url(#filter184)"><path style=" stroke:none;fill-rule:nonzero;fill:url(#linear0);" d="M 53.46875 54.078125 C 54.875 52.671875 56.140625 51.113281 57.257812 49.457031 C 58.375 47.808594 59.339844 46.019531 60.128906 44.160156 C 60.914062 42.292969 61.519531 40.34375 61.929688 38.320312 C 62.332031 36.289062 62.554688 34.195312 62.554688 32.054688 L 40.777344 32.054688 C 40.777344 33.34375 40.515625 34.582031 40.050781 35.691406 C 39.582031 36.804688 38.90625 37.8125 38.058594 38.648438 L 53.480469 54.078125 M 53.46875 54.078125 "/><path style=" stroke:none;fill-rule:nonzero;fill:url(#linear1);" d="M 10.660156 10.386719 C 9.261719 11.785156 7.996094 13.339844 6.882812 14.988281 C 5.773438 16.652344 4.804688 18.417969 4.035156 20.269531 C 3.246094 22.125 2.648438 24.066406 2.242188 26.082031 C 1.832031 28.101562 1.613281 30.191406 1.613281 32.335938 L 23.316406 32.335938 C 23.316406 31.046875 23.574219 29.808594 24.050781 28.707031 C 24.515625 27.589844 25.199219 26.589844 26.027344 25.75 L 10.6875 10.398438 M 10.660156 10.386719 "/><path style=" stroke:none;fill-rule:nonzero;fill:url(#linear2);" d="M 40.773438 32.195312 C 40.773438 37.015625 36.875 40.921875 32.054688 40.921875 C 27.234375 40.921875 23.332031 37.015625 23.332031 32.195312 C 23.332031 27.375 27.234375 23.46875 32.054688 23.46875 C 36.875 23.46875 40.773438 27.375 40.773438 32.195312 "/><path style=" stroke:none;fill-rule:nonzero;fill:url(#linear3);" d="M 24.144531 35.78125 L 4.242188 44.835938 C 5.765625 48.199219 7.886719 51.214844 10.472656 53.792969 L 25.867188 38.382812 C 25.132812 37.640625 24.574219 36.753906 24.144531 35.792969 M 24.144531 35.78125 "/><path style=" stroke:none;fill-rule:nonzero;fill:url(#linear4);" d="M 53.621094 10.605469 L 38.21875 26.003906 C 38.957031 26.742188 39.507812 27.640625 39.945312 28.597656 L 59.847656 19.546875 C 58.316406 16.191406 56.199219 13.179688 53.621094 10.59375 M 53.621094 10.605469 "/><path style=" stroke:none;fill-rule:nonzero;fill:url(#linear5);" d="M 62.570312 32.195312 C 62.570312 34.933594 62.207031 37.652344 61.480469 40.285156 L 32.042969 32.195312 M 62.570312 32.195312 "/><path style=" stroke:none;fill-rule:nonzero;fill:url(#linear6);" d="M 1.507812 32.195312 C 1.507812 29.457031 1.875 26.738281 2.601562 24.105469 L 32.042969 32.195312 M 1.507812 32.195312 "/><path style=" stroke:none;fill-rule:nonzero;fill:url(#linear7);" d="M 32.042969 1.652344 C 34.777344 1.652344 37.5 2.015625 40.125 2.746094 L 32.042969 32.195312 M 32.042969 1.652344 "/><path style=" stroke:none;fill-rule:nonzero;fill:url(#linear8);" d="M 32.042969 62.738281 C 29.300781 62.738281 26.582031 62.375 23.957031 61.648438 L 32.042969 32.195312 M 32.042969 62.738281 "/><path style=" stroke:none;fill-rule:nonzero;fill:url(#linear9);" d="M 32.042969 27.835938 C 33.238281 27.835938 34.339844 28.316406 35.125 29.097656 C 35.917969 29.886719 36.402344 30.984375 36.402344 32.195312 C 36.402344 33.398438 35.917969 34.492188 35.125 35.28125 C 34.339844 36.074219 33.238281 36.558594 32.042969 36.558594 C 30.832031 36.558594 29.730469 36.074219 28.949219 35.28125 C 28.167969 34.492188 27.683594 33.398438 27.683594 32.195312 C 27.683594 30.984375 28.167969 29.886719 28.949219 29.097656 C 29.730469 28.316406 30.832031 27.835938 32.042969 27.835938 "/></g></svg>
