<svg width="64" height="64" viewBox="0 0 64 64" version="1.1" xmlns:inkscape="http://www.inkscape.org/namespaces/inkscape"><defs><linearGradient id="linear0" gradientUnits="userSpaceOnUse" x1="0" y1="0" x2="0" y2="1" gradientTransform="matrix(64,0,0,56.617188,0,3.691406)"><stop offset="0" style="stop-color:rgb(82.352942%,61.176473%,100%);stop-opacity:1;"/><stop offset="1" style="stop-color:rgb(66.666669%,0%,100%);stop-opacity:1;"/></linearGradient><filter style="color-interpolation-filters:sRGB;" inkscape:label="Diffuse Light" id="filter184" x="-0.0375" y="-0.0375" width="1.075" height="1.075"><feGaussianBlur in="SourceGraphic" stdDeviation="1" result="blur" id="feGaussianBlur174" /><feDiffuseLighting diffuseConstant="1" surfaceScale="10" lighting-color="rgb(255,255,255)" result="diffuse" id="feDiffuseLighting178"><feDistantLight elevation="8" azimuth="235" id="feDistantLight176" /></feDiffuseLighting><feComposite in="diffuse" in2="diffuse" operator="arithmetic" k1="1" result="composite1" id="feComposite180" /><feComposite in="composite1" in2="SourceGraphic" k1="1" operator="arithmetic" k3="1" result="composite2" id="feComposite182" /></filter></defs><g id="surface1" style="filter:url(#filter184)"><path style=" stroke:none;fill-rule:evenodd;fill:url(#linear0);" d="M 41.847656 28.308594 L 63.769531 28.308594 C 63.910156 29.53125 63.988281 30.769531 64 32 C 64 33.230469 63.933594 34.464844 63.804688 35.691406 L 56.335938 35.691406 C 54.484375 49.765625 42.5 60.289062 28.308594 60.308594 C 12.671875 60.308594 0 47.632812 0 32 C 0 16.367188 12.671875 3.691406 28.308594 3.691406 C 35.351562 3.699219 42.136719 6.332031 47.339844 11.074219 L 28.308594 11.074219 C 16.753906 11.074219 7.382812 20.445312 7.382812 32 C 7.382812 43.554688 16.753906 52.925781 28.308594 52.925781 C 38.433594 52.914062 47.097656 45.65625 48.882812 35.691406 L 41.847656 35.691406 L 41.847656 45.539062 L 34.460938 45.539062 L 34.460938 44.042969 C 32.554688 45.019531 30.449219 45.53125 28.308594 45.539062 C 20.832031 45.539062 14.769531 39.476562 14.769531 32 C 14.769531 24.523438 20.832031 18.460938 28.308594 18.460938 C 30.449219 18.460938 32.554688 18.96875 34.460938 19.945312 L 34.460938 18.460938 L 41.847656 18.460938 Z M 28.308594 25.847656 C 31.707031 25.847656 34.460938 28.601562 34.460938 32 C 34.460938 35.398438 31.707031 38.152344 28.308594 38.152344 C 24.90625 38.152344 22.152344 35.398438 22.152344 32 C 22.152344 28.601562 24.90625 25.847656 28.308594 25.847656 Z M 28.308594 25.847656 "/></g></svg>
