<svg xmlns="http://www.w3.org/2000/svg" xmlns:xlink="http://www.w3.org/1999/xlink" width="64" height="64" viewBox="0 0 64 64" version="1.1"><defs><filter id="alpha" filterUnits="objectBoundingBox" x="0%" y="0%" width="100%" height="100%"> <feColorMatrix type="matrix" in="SourceGraphic" values="0 0 0 0 1 0 0 0 0 1 0 0 0 0 1 0 0 0 1 0"/></filter><mask id="mask0"><rect x="0" y="0" width="64" height="64" style="fill:rgb(0%,0%,0%);fill-opacity:0.99;stroke:none;"/></mask><clipPath id="clip1"> <rect x="0" y="0" width="64" height="64"/></clipPath></defs><use xlink:href="#surface5" mask="url(#mask0)"/><path style=" stroke:none;fill-rule:nonzero;fill:rgb(100%,100%,100%);fill-opacity:1;" d="M 16.707031 20.453125 C 13.960938 20.453125 12.132812 22.691406 11.746094 25.414062 L 9.261719 42.789062 C 8.875 45.511719 11.476562 47.75 14.226562 47.75 L 16.707031 47.75 C 20.765625 47.75 23.210938 42.789062 28.085938 38.179688 C 30.292969 37.769531 32.484375 37.746094 34.6875 38.105469 C 39.40625 43.40625 40.816406 47.75 46.488281 47.75 L 48.972656 47.75 C 51.722656 47.75 54.261719 45.519531 53.933594 42.789062 L 51.851562 25.414062 C 51.523438 22.683594 49.636719 20.453125 46.886719 20.453125 L 41.527344 20.453125 C 39.414062 20.453125 37.996094 22.101562 36.570312 22.964844 C 34.082031 24.476562 30.125 24.441406 26.625 23.015625 C 25.109375 22.398438 23.738281 20.453125 21.671875 20.453125 Z M 39.578125 26.023438 C 39.664062 26.019531 39.753906 26.019531 39.839844 26.023438 C 41.90625 26.113281 43.515625 27.859375 43.429688 29.929688 L 43.429688 29.953125 C 43.332031 32.023438 41.578125 33.621094 39.507812 33.527344 C 37.441406 33.433594 35.839844 31.679688 35.929688 29.609375 C 36.015625 27.644531 37.609375 26.074219 39.578125 26.023438 Z M 16.707031 27.007812 L 21.671875 27.007812 L 21.671875 30.734375 L 25.394531 30.734375 L 25.394531 35.695312 L 21.671875 35.695312 L 21.671875 39.417969 L 16.707031 39.417969 L 16.707031 35.695312 L 12.988281 35.695312 L 12.988281 30.734375 L 16.707031 30.734375 Z M 46.800781 32.398438 C 46.886719 32.398438 46.972656 32.398438 47.058594 32.402344 C 49.128906 32.492188 50.734375 34.238281 50.652344 36.304688 L 50.652344 36.332031 C 50.550781 38.402344 48.796875 40 46.726562 39.902344 C 44.660156 39.808594 43.058594 38.054688 43.148438 35.988281 C 43.234375 34.019531 44.828125 32.453125 46.800781 32.398438 Z M 46.800781 32.398438 "/></svg>
