<svg width="64" height="64" viewBox="0 0 64 64" version="1.1" xmlns:inkscape="http://www.inkscape.org/namespaces/inkscape"><defs><linearGradient id="linear0" gradientUnits="userSpaceOnUse" x1="0" y1="0" x2="0" y2="1" gradientTransform="matrix(63.176539,0,0,38.996439,5.96987,11.918372)"><stop offset="0" style="stop-color:rgb(41.960785%,64.313728%,100%);stop-opacity:1;"/><stop offset="1" style="stop-color:rgb(0%,43.137255%,100%);stop-opacity:1;"/></linearGradient><filter style="color-interpolation-filters:sRGB;" inkscape:label="Diffuse Light" id="filter184" x="-0.0375" y="-0.0375" width="1.075" height="1.075"><feGaussianBlur in="SourceGraphic" stdDeviation="1" result="blur" id="feGaussianBlur174" /><feDiffuseLighting diffuseConstant="1" surfaceScale="10" lighting-color="rgb(255,255,255)" result="diffuse" id="feDiffuseLighting178"><feDistantLight elevation="8" azimuth="235" id="feDistantLight176" /></feDiffuseLighting><feComposite in="diffuse" in2="diffuse" operator="arithmetic" k1="1" result="composite1" id="feComposite180" /><feComposite in="composite1" in2="SourceGraphic" k1="1" operator="arithmetic" k3="1" result="composite2" id="feComposite182" /></filter></defs><g id="surface1" style="filter:url(#filter184)"><path style=" stroke:none;fill-rule:nonzero;fill:url(#linear0);" d="M 5.710938 17.960938 L 5.707031 17.960938 L 5.707031 46.292969 C 5.707031 47.125 6.144531 47.894531 6.867188 48.316406 L 30.851562 62.488281 C 31.609375 62.933594 32.554688 62.933594 33.3125 62.488281 L 57.296875 48.316406 C 58.019531 47.894531 58.464844 47.125 58.464844 46.292969 L 58.464844 32.128906 C 58.464844 30.296875 56.433594 29.160156 54.832031 30.105469 L 44.074219 36.457031 L 37.054688 32.3125 L 57.328125 19.96875 C 58.851562 19.035156 58.835938 16.847656 57.296875 15.9375 L 33.3125 1.769531 Z M 10.5 22.195312 L 27.113281 32.3125 L 10.5 42.125 Z M 32.085938 34.488281 L 39.277344 39.210938 L 29.6875 46.292969 L 29.6875 56.292969 L 12.765625 46.292969 C 19.199219 42.542969 32.085938 34.488281 32.085938 34.488281 Z M 53.667969 36.296875 L 53.667969 44.957031 L 34.480469 56.292969 L 34.480469 47.628906 Z M 53.667969 36.296875 "/></g></svg>
