<svg width="64" height="64" viewBox="0 0 64 64" version="1.1" xmlns:inkscape="http://www.inkscape.org/namespaces/inkscape"><defs><linearGradient id="linear0" gradientUnits="userSpaceOnUse" x1="0" y1="0" x2="0" y2="1" gradientTransform="matrix(65.461465,0,0,41.675309,-0.50459,11.667132)"><stop offset="0" style="stop-color:rgb(82.352942%,61.176473%,100%);stop-opacity:1;"/><stop offset="1" style="stop-color:rgb(66.666669%,0%,100%);stop-opacity:1;"/></linearGradient><filter style="color-interpolation-filters:sRGB;" inkscape:label="Diffuse Light" id="filter184" x="-0.0375" y="-0.0375" width="1.075" height="1.075"><feGaussianBlur in="SourceGraphic" stdDeviation="1" result="blur" id="feGaussianBlur174" /><feDiffuseLighting diffuseConstant="1" surfaceScale="10" lighting-color="rgb(255,255,255)" result="diffuse" id="feDiffuseLighting178"><feDistantLight elevation="8" azimuth="235" id="feDistantLight176" /></feDiffuseLighting><feComposite in="diffuse" in2="diffuse" operator="arithmetic" k1="1" result="composite1" id="feComposite180" /><feComposite in="composite1" in2="SourceGraphic" k1="1" operator="arithmetic" k3="1" result="composite2" id="feComposite182" /></filter></defs><g id="surface1" style="filter:url(#filter184)"><path style=" stroke:none;fill-rule:nonzero;fill:url(#linear0);" d="M 22.152344 1.566406 L 22.152344 21.871094 L 42.628906 21.871094 L 42.628906 1.566406 Z M 42.628906 21.871094 L 42.628906 42.167969 L 63.097656 42.167969 L 63.097656 21.871094 Z M 42.628906 42.167969 L 22.152344 42.167969 L 22.152344 62.472656 L 42.628906 62.472656 Z M 22.152344 42.167969 L 22.152344 21.871094 L 1.683594 21.871094 L 1.683594 42.167969 Z M 29.832031 26.945312 L 27.273438 29.484375 L 27.273438 34.558594 L 29.832031 37.09375 L 34.953125 37.09375 L 37.507812 34.558594 L 37.507812 29.484375 L 34.953125 26.945312 Z M 29.832031 26.945312 "/></g></svg>
