<svg width="64" height="64" viewBox="0 0 64 64" version="1.1" xmlns:inkscape="http://www.inkscape.org/namespaces/inkscape"><defs><linearGradient id="linear0" gradientUnits="userSpaceOnUse" x1="0" y1="0" x2="0" y2="1" gradientTransform="matrix(65.583624,0,0,42.932198,-3.19214,8.713615)"><stop offset="0" style="stop-color:rgb(100%,56.862748%,82.745099%);stop-opacity:1;"/><stop offset="1" style="stop-color:rgb(100%,0%,60.000002%);stop-opacity:1;"/></linearGradient><filter style="color-interpolation-filters:sRGB;" inkscape:label="Diffuse Light" id="filter184" x="-0.0375" y="-0.0375" width="1.075" height="1.075"><feGaussianBlur in="SourceGraphic" stdDeviation="1" result="blur" id="feGaussianBlur174" /><feDiffuseLighting diffuseConstant="1" surfaceScale="10" lighting-color="rgb(255,255,255)" result="diffuse" id="feDiffuseLighting178"><feDistantLight elevation="8" azimuth="235" id="feDistantLight176" /></feDiffuseLighting><feComposite in="diffuse" in2="diffuse" operator="arithmetic" k1="1" result="composite1" id="feComposite180" /><feComposite in="composite1" in2="SourceGraphic" k1="1" operator="arithmetic" k3="1" result="composite2" id="feComposite182" /></filter></defs><g id="surface1" style="filter:url(#filter184)"><path style=" stroke:none;fill-rule:nonzero;fill:url(#linear0);" d="M 32.269531 1.710938 L 25.273438 11.828125 L 25.273438 21.949219 L 20.601562 21.949219 C 10.261719 21.949219 1.925781 30.984375 1.925781 42.191406 L 1.925781 62.433594 L 8.929688 62.433594 L 8.929688 42.191406 C 8.929688 35.183594 14.136719 29.539062 20.601562 29.539062 L 25.273438 29.539062 L 25.273438 42.191406 C 25.273438 53.371094 33.628906 62.433594 43.941406 62.433594 C 54.257812 62.433594 62.617188 53.371094 62.617188 42.191406 C 62.617188 30.984375 54.285156 21.949219 43.941406 21.949219 L 32.269531 21.949219 Z M 32.269531 29.539062 L 43.941406 29.539062 C 50.386719 29.539062 55.617188 35.203125 55.617188 42.191406 C 55.617188 49.179688 50.386719 54.839844 43.941406 54.839844 C 37.496094 54.839844 32.269531 49.179688 32.269531 42.191406 Z M 32.269531 29.539062 "/></g></svg>
