<svg width="64" height="64" viewBox="0 0 64 64" version="1.1" xmlns:inkscape="http://www.inkscape.org/namespaces/inkscape"><defs><linearGradient id="linear0" gradientUnits="userSpaceOnUse" x1="0" y1="0" x2="0" y2="1" gradientTransform="matrix(64,0,0,35.84375,0,14.078125)"><stop offset="0" style="stop-color:rgb(75.686276%,77.64706%,83.92157%);stop-opacity:1;"/><stop offset="1" style="stop-color:rgb(43.529412%,45.09804%,50.196081%);stop-opacity:1;"/></linearGradient><filter style="color-interpolation-filters:sRGB;" inkscape:label="Diffuse Light" id="filter184" x="-0.0375" y="-0.0375" width="1.075" height="1.075"><feGaussianBlur in="SourceGraphic" stdDeviation="1" result="blur" id="feGaussianBlur174" /><feDiffuseLighting diffuseConstant="1" surfaceScale="10" lighting-color="rgb(255,255,255)" result="diffuse" id="feDiffuseLighting178"><feDistantLight elevation="8" azimuth="235" id="feDistantLight176" /></feDiffuseLighting><feComposite in="diffuse" in2="diffuse" operator="arithmetic" k1="1" result="composite1" id="feComposite180" /><feComposite in="composite1" in2="SourceGraphic" k1="1" operator="arithmetic" k3="1" result="composite2" id="feComposite182" /></filter></defs><g id="surface1" style="filter:url(#filter184)"><path style=" stroke:none;fill-rule:nonzero;fill:url(#linear0);" d="M 46.078125 14.078125 C 36.183594 14.078125 28.160156 22.101562 28.160156 32 C 28.160156 41.898438 36.183594 49.921875 46.078125 49.921875 C 55.976562 49.921875 64 41.898438 64 32 C 64 22.101562 55.976562 14.078125 46.078125 14.078125 Z M 12.800781 19.199219 C 5.730469 19.199219 0 24.929688 0 32 C 0 39.070312 5.730469 44.800781 12.800781 44.800781 C 19.871094 44.800781 25.601562 39.070312 25.601562 32 C 25.601562 24.929688 19.871094 19.199219 12.800781 19.199219 Z M 46.078125 19.199219 C 53.148438 19.199219 58.878906 24.929688 58.878906 32 C 58.878906 39.070312 53.148438 44.800781 46.078125 44.800781 C 39.011719 44.800781 33.28125 39.070312 33.28125 32 C 33.28125 24.929688 39.011719 19.199219 46.078125 19.199219 Z M 12.800781 24.320312 C 17.042969 24.320312 20.480469 27.757812 20.480469 32 C 20.480469 36.242188 17.042969 39.679688 12.800781 39.679688 C 8.558594 39.679688 5.121094 36.242188 5.121094 32 C 5.121094 27.757812 8.558594 24.320312 12.800781 24.320312 Z M 12.800781 24.320312 "/></g></svg>
