<svg width="64" height="64" viewBox="0 0 64 64" version="1.1" xmlns:inkscape="http://www.inkscape.org/namespaces/inkscape"><defs><linearGradient id="linear0" gradientUnits="userSpaceOnUse" x1="0" y1="0" x2="0" y2="1" gradientTransform="matrix(61.050781,0,0,64,1.472656,0)"><stop offset="0" style="stop-color:rgb(100%,63.137257%,63.137257%);stop-opacity:1;"/><stop offset="1" style="stop-color:rgb(100%,27.843139%,27.843139%);stop-opacity:1;"/></linearGradient><filter style="color-interpolation-filters:sRGB;" inkscape:label="Diffuse Light" id="filter184" x="-0.0375" y="-0.0375" width="1.075" height="1.075"><feGaussianBlur in="SourceGraphic" stdDeviation="1" result="blur" id="feGaussianBlur174" /><feDiffuseLighting diffuseConstant="1" surfaceScale="10" lighting-color="rgb(255,255,255)" result="diffuse" id="feDiffuseLighting178"><feDistantLight elevation="8" azimuth="235" id="feDistantLight176" /></feDiffuseLighting><feComposite in="diffuse" in2="diffuse" operator="arithmetic" k1="1" result="composite1" id="feComposite180" /><feComposite in="composite1" in2="SourceGraphic" k1="1" operator="arithmetic" k3="1" result="composite2" id="feComposite182" /></filter></defs><g id="surface1" style="filter:url(#filter184)"><path style=" stroke:none;fill-rule:nonzero;fill:url(#linear0);" d="M 38.609375 0 C 38.433594 0.0195312 38.261719 0.0625 38.097656 0.128906 L 2.855469 11.578125 C 2.03125 11.855469 1.476562 12.628906 1.472656 13.5 L 1.472656 50.515625 C 1.460938 51.394531 2.019531 52.183594 2.855469 52.46875 L 38.097656 63.910156 C 38.933594 64.167969 39.839844 63.867188 40.351562 63.15625 L 62.132812 33.203125 C 62.65625 32.488281 62.65625 31.515625 62.132812 30.796875 L 40.351562 0.84375 C 39.949219 0.289062 39.292969 -0.0273438 38.609375 0.00390625 Z M 37.949219 4.445312 L 57.957031 31.996094 L 37.917969 59.578125 L 5.53125 49.03125 L 5.53125 14.960938 Z M 37.949219 4.445312 "/></g></svg>
