<svg width="64" height="64" viewBox="0 0 64 64" version="1.1" xmlns:inkscape="http://www.inkscape.org/namespaces/inkscape"><defs><linearGradient id="linear0" gradientUnits="userSpaceOnUse" x1="0" y1="0" x2="0" y2="1" gradientTransform="matrix(58.306263,0,0,58.948939,3.457232,4.144814)"><stop offset="0" style="stop-color:rgb(87.058824%,86.666667%,56.470591%);stop-opacity:1;"/><stop offset="1" style="stop-color:rgb(67.843139%,67.450982%,38.039216%);stop-opacity:1;"/></linearGradient><filter style="color-interpolation-filters:sRGB;" inkscape:label="Diffuse Light" id="filter184" x="-0.0375" y="-0.0375" width="1.075" height="1.075"><feGaussianBlur in="SourceGraphic" stdDeviation="1" result="blur" id="feGaussianBlur174" /><feDiffuseLighting diffuseConstant="1" surfaceScale="10" lighting-color="rgb(255,255,255)" result="diffuse" id="feDiffuseLighting178"><feDistantLight elevation="8" azimuth="235" id="feDistantLight176" /></feDiffuseLighting><feComposite in="diffuse" in2="diffuse" operator="arithmetic" k1="1" result="composite1" id="feComposite180" /><feComposite in="composite1" in2="SourceGraphic" k1="1" operator="arithmetic" k3="1" result="composite2" id="feComposite182" /></filter></defs><g id="surface1" style="filter:url(#filter184)"><path style=" stroke:none;fill-rule:evenodd;fill:url(#linear0);" d="M 63.511719 24.132812 C 63.644531 24.53125 50.191406 39.804688 50.0625 40.207031 C 49.929688 40.605469 51.90625 60.917969 51.570312 61.167969 C 51.222656 61.410156 32.648438 53.25 32.222656 53.25 C 31.804688 53.25 13.222656 61.421875 12.886719 61.167969 C 12.546875 60.921875 14.519531 40.605469 14.390625 40.207031 C 14.261719 39.808594 0.800781 24.542969 0.929688 24.140625 C 1.0625 23.742188 20.867188 19.347656 21.199219 19.105469 C 21.539062 18.851562 31.804688 1.25 32.21875 1.25 C 32.640625 1.25 42.90625 18.851562 43.246094 19.097656 C 43.585938 19.34375 63.382812 23.734375 63.511719 24.132812 "/></g></svg>
