<svg width="64" height="64" viewBox="0 0 64 64" version="1.1" xmlns:inkscape="http://www.inkscape.org/namespaces/inkscape"><defs><linearGradient id="linear0" gradientUnits="userSpaceOnUse" x1="0" y1="0" x2="0" y2="1" gradientTransform="matrix(53.335938,0,0,17.335938,5.332031,42.222656)"><stop offset="0" style="stop-color:rgb(75.686276%,77.64706%,83.92157%);stop-opacity:1;"/><stop offset="1" style="stop-color:rgb(43.529412%,45.09804%,50.196081%);stop-opacity:1;"/></linearGradient><linearGradient id="linear1" gradientUnits="userSpaceOnUse" x1="0" y1="0" x2="0" y2="1" gradientTransform="matrix(64,0,0,63.117188,0,0.441406)"><stop offset="0" style="stop-color:rgb(75.686276%,77.64706%,83.92157%);stop-opacity:1;"/><stop offset="1" style="stop-color:rgb(43.529412%,45.09804%,50.196081%);stop-opacity:1;"/></linearGradient><filter style="color-interpolation-filters:sRGB;" inkscape:label="Diffuse Light" id="filter184" x="-0.0375" y="-0.0375" width="1.075" height="1.075"><feGaussianBlur in="SourceGraphic" stdDeviation="1" result="blur" id="feGaussianBlur174" /><feDiffuseLighting diffuseConstant="1" surfaceScale="10" lighting-color="rgb(255,255,255)" result="diffuse" id="feDiffuseLighting178"><feDistantLight elevation="8" azimuth="235" id="feDistantLight176" /></feDiffuseLighting><feComposite in="diffuse" in2="diffuse" operator="arithmetic" k1="1" result="composite1" id="feComposite180" /><feComposite in="composite1" in2="SourceGraphic" k1="1" operator="arithmetic" k3="1" result="composite2" id="feComposite182" /></filter></defs><g id="surface1" style="filter:url(#filter184)"><path style=" stroke:none;fill-rule:nonzero;fill:url(#linear0);" d="M 36 51.558594 L 36 42.222656 L 28 42.222656 L 28 51.558594 L 5.332031 51.558594 L 5.332031 59.558594 L 58.667969 59.558594 L 58.667969 51.558594 Z M 36 51.558594 "/><path style=" stroke:none;fill-rule:evenodd;fill:url(#linear1);" d="M 0 55.558594 C 0 51.144531 3.585938 47.558594 8 47.558594 C 12.414062 47.558594 16 51.144531 16 55.558594 C 16 59.976562 12.414062 63.558594 8 63.558594 C 3.585938 63.558594 0 59.976562 0 55.558594 Z M 24 55.558594 C 24 51.144531 27.585938 47.558594 32 47.558594 C 36.414062 47.558594 40 51.144531 40 55.558594 C 40 59.976562 36.414062 63.558594 32 63.558594 C 27.585938 63.558594 24 59.976562 24 55.558594 Z M 48 55.558594 C 48 51.144531 51.585938 47.558594 56 47.558594 C 60.414062 47.558594 64 51.144531 64 55.558594 C 64 59.976562 60.414062 63.558594 56 63.558594 C 51.585938 63.558594 48 59.976562 48 55.558594 Z M 12.21875 4.855469 L 51.78125 4.855469 C 52.640625 4.855469 53.46875 5.199219 54.074219 5.808594 C 54.683594 6.410156 55.023438 7.234375 55.023438 8.101562 L 55.023438 38.394531 C 55.023438 39.257812 54.683594 40.078125 54.074219 40.683594 C 53.46875 41.296875 52.640625 41.640625 51.78125 41.640625 L 12.21875 41.640625 C 11.359375 41.640625 10.535156 41.296875 9.925781 40.683594 C 9.316406 40.078125 8.976562 39.257812 8.976562 38.394531 L 8.976562 8.101562 C 8.976562 7.234375 9.316406 6.410156 9.925781 5.808594 C 10.535156 5.199219 11.359375 4.855469 12.21875 4.855469 Z M 12.21875 0.441406 L 51.78125 0.441406 C 53.8125 0.441406 55.765625 1.246094 57.195312 2.683594 C 58.632812 4.121094 59.441406 6.066406 59.441406 8.101562 L 59.441406 38.394531 C 59.441406 40.425781 58.632812 42.371094 57.195312 43.8125 C 55.765625 45.242188 53.8125 46.050781 51.78125 46.050781 L 12.21875 46.050781 C 10.1875 46.050781 8.238281 45.242188 6.804688 43.8125 C 5.371094 42.371094 4.5625 40.425781 4.5625 38.394531 L 4.5625 8.101562 C 4.5625 6.066406 5.371094 4.121094 6.804688 2.683594 C 8.238281 1.246094 10.1875 0.441406 12.21875 0.441406 Z M 12.21875 0.441406 "/></g></svg>
