<svg width="64" height="64" viewBox="0 0 64 64" version="1.1" xmlns:inkscape="http://www.inkscape.org/namespaces/inkscape"><defs><linearGradient id="linear0" gradientUnits="userSpaceOnUse" x1="0" y1="0" x2="0" y2="1" gradientTransform="matrix(67.164928,0,0,43.87125,-0.768769,10.347327)"><stop offset="0" style="stop-color:rgb(41.960785%,64.313728%,100%);stop-opacity:1;"/><stop offset="1" style="stop-color:rgb(0%,43.137255%,100%);stop-opacity:1;"/></linearGradient><filter style="color-interpolation-filters:sRGB;" inkscape:label="Diffuse Light" id="filter184" x="-0.0375" y="-0.0375" width="1.075" height="1.075"><feGaussianBlur in="SourceGraphic" stdDeviation="1" result="blur" id="feGaussianBlur174" /><feDiffuseLighting diffuseConstant="1" surfaceScale="10" lighting-color="rgb(255,255,255)" result="diffuse" id="feDiffuseLighting178"><feDistantLight elevation="8" azimuth="235" id="feDistantLight176" /></feDiffuseLighting><feComposite in="diffuse" in2="diffuse" operator="arithmetic" k1="1" result="composite1" id="feComposite180" /><feComposite in="composite1" in2="SourceGraphic" k1="1" operator="arithmetic" k3="1" result="composite2" id="feComposite182" /></filter></defs><g id="surface1" style="filter:url(#filter184)"><path style=" stroke:none;fill-rule:nonzero;fill:url(#linear0);" d="M 31.789062 2.074219 C 15.167969 2.109375 1.738281 15.800781 1.738281 32.707031 C 1.738281 49.621094 15.226562 63.339844 31.847656 63.339844 C 48.472656 63.339844 61.960938 49.621094 61.960938 32.707031 L 25.828125 32.707031 L 25.828125 41.902344 L 50.878906 41.902344 C 47.382812 49.375 39.976562 54.152344 31.847656 54.152344 C 20.195312 54.152344 10.769531 44.566406 10.769531 32.707031 C 10.769531 20.980469 20.046875 11.421875 31.578125 11.269531 C 31.671875 11.265625 31.765625 11.265625 31.859375 11.269531 C 37.371094 11.269531 42.671875 13.46875 46.617188 17.394531 L 57.933594 17.394531 C 52.546875 7.925781 42.609375 2.074219 31.859375 2.074219 Z M 31.789062 2.074219 "/></g></svg>
