<svg width="64" height="64" viewBox="0 0 64 64" version="1.1" xmlns:inkscape="http://www.inkscape.org/namespaces/inkscape"><defs><linearGradient id="linear0" gradientUnits="userSpaceOnUse" x1="0" y1="0" x2="0" y2="1" gradientTransform="matrix(141.443077,0,0,131.384409,-42.103423,-42.289032)"><stop offset="0" style="stop-color:rgb(0%,73.333335%,100%);stop-opacity:1;"/><stop offset="1" style="stop-color:rgb(0%,52.156866%,70.980394%);stop-opacity:1;"/></linearGradient><filter style="color-interpolation-filters:sRGB;" inkscape:label="Diffuse Light" id="filter184" x="-0.0375" y="-0.0375" width="1.075" height="1.075"><feGaussianBlur in="SourceGraphic" stdDeviation="1" result="blur" id="feGaussianBlur174" /><feDiffuseLighting diffuseConstant="1" surfaceScale="10" lighting-color="rgb(255,255,255)" result="diffuse" id="feDiffuseLighting178"><feDistantLight elevation="8" azimuth="235" id="feDistantLight176" /></feDiffuseLighting><feComposite in="diffuse" in2="diffuse" operator="arithmetic" k1="1" result="composite1" id="feComposite180" /><feComposite in="composite1" in2="SourceGraphic" k1="1" operator="arithmetic" k3="1" result="composite2" id="feComposite182" /></filter></defs><g id="surface1" style="filter:url(#filter184)"><path style=" stroke:none;fill-rule:nonzero;fill:url(#linear0);" d="M 23.230469 2.414062 C 18.246094 2.429688 15.152344 8.71875 15.152344 8.71875 L 35.355469 18.46875 C 35.355469 18.46875 35.355469 13.597656 31.984375 8.71875 C 28.914062 4.273438 26.121094 2.617188 23.738281 2.414062 C 23.566406 2.398438 23.410156 2.398438 23.25 2.398438 Z M 58.589844 7.394531 C 57.753906 7.445312 56.726562 7.851562 55.464844 8.761719 C 48.726562 13.640625 45.359375 18.511719 45.359375 18.511719 L 62.203125 13.640625 C 62.203125 13.640625 62.203125 8.175781 59.359375 7.433594 C 59.125 7.394531 58.867188 7.363281 58.589844 7.378906 Z M 1.675781 18.527344 C 1.675781 18.527344 5.046875 23.40625 11.777344 28.277344 L 18.515625 42.917969 L 25.253906 33.167969 L 48.824219 33.167969 L 52.1875 42.917969 L 62.289062 28.277344 L 28.617188 28.277344 C 18.515625 28.277344 1.675781 18.527344 1.675781 18.527344 Z M 25.253906 47.804688 L 18.515625 57.554688 L 11.777344 57.554688 C 11.777344 57.554688 25.253906 62.449219 31.984375 62.449219 C 42.085938 62.449219 48.824219 57.554688 48.824219 57.554688 L 45.457031 47.804688 L 42.085938 57.554688 L 25.253906 57.554688 Z M 25.253906 47.804688 "/></g></svg>
