<svg width="64" height="64" viewBox="0 0 64 64" version="1.1" xmlns:inkscape="http://www.inkscape.org/namespaces/inkscape"><defs><linearGradient id="linear0" gradientUnits="userSpaceOnUse" x1="0" y1="0" x2="0" y2="1" gradientTransform="matrix(62.652949,0,0,40.541415,1.992573,10.36716)"><stop offset="0" style="stop-color:rgb(100%,56.862748%,82.745099%);stop-opacity:1;"/><stop offset="1" style="stop-color:rgb(100%,0%,60.000002%);stop-opacity:1;"/></linearGradient><filter style="color-interpolation-filters:sRGB;" inkscape:label="Diffuse Light" id="filter184" x="-0.0375" y="-0.0375" width="1.075" height="1.075"><feGaussianBlur in="SourceGraphic" stdDeviation="1" result="blur" id="feGaussianBlur174" /><feDiffuseLighting diffuseConstant="1" surfaceScale="10" lighting-color="rgb(255,255,255)" result="diffuse" id="feDiffuseLighting178"><feDistantLight elevation="8" azimuth="235" id="feDistantLight176" /></feDiffuseLighting><feComposite in="diffuse" in2="diffuse" operator="arithmetic" k1="1" result="composite1" id="feComposite180" /><feComposite in="composite1" in2="SourceGraphic" k1="1" operator="arithmetic" k3="1" result="composite2" id="feComposite182" /></filter></defs><g id="surface1" style="filter:url(#filter184)"><path style=" stroke:none;fill-rule:nonzero;fill:url(#linear0);" d="M 33.066406 0.976562 C 16.917969 0.976562 3.828125 14.824219 3.828125 31.902344 C 3.828125 48.984375 16.917969 62.832031 33.066406 62.832031 C 49.21875 62.832031 60.21875 49.578125 60.21875 38.53125 C 60.21875 38.53125 54.0625 30.804688 49.777344 25.277344 L 35.15625 25.277344 C 31.691406 25.277344 28.890625 28.242188 28.890625 31.902344 C 28.890625 35.566406 31.691406 38.53125 35.15625 38.53125 L 45.601562 38.53125 C 43.253906 43.753906 38.894531 47.367188 33.066406 47.367188 C 24.992188 47.367188 18.445312 40.445312 18.445312 31.902344 C 18.445312 23.363281 24.992188 16.441406 33.066406 16.441406 L 43.511719 16.441406 C 49.777344 16.441406 51.867188 12.980469 51.867188 8.707031 C 51.867188 4.4375 49.777344 0.976562 43.511719 0.976562 Z M 33.066406 0.976562 "/></g></svg>
