<svg width="64" height="64" viewBox="0 0 64 64" version="1.1" xmlns:inkscape="http://www.inkscape.org/namespaces/inkscape"><defs><linearGradient id="linear0" gradientUnits="userSpaceOnUse" x1="0" y1="0" x2="0" y2="1" gradientTransform="matrix(66.881531,0,0,41.22674,-1.105565,9.500631)"><stop offset="0" style="stop-color:rgb(0%,78.823531%,36.862746%);stop-opacity:1;"/><stop offset="1" style="stop-color:rgb(0%,54.11765%,25.098041%);stop-opacity:1;"/></linearGradient><filter style="color-interpolation-filters:sRGB;" inkscape:label="Diffuse Light" id="filter184" x="-0.0375" y="-0.0375" width="1.075" height="1.075"><feGaussianBlur in="SourceGraphic" stdDeviation="1" result="blur" id="feGaussianBlur174" /><feDiffuseLighting diffuseConstant="1" surfaceScale="10" lighting-color="rgb(255,255,255)" result="diffuse" id="feDiffuseLighting178"><feDistantLight elevation="8" azimuth="235" id="feDistantLight176" /></feDiffuseLighting><feComposite in="diffuse" in2="diffuse" operator="arithmetic" k1="1" result="composite1" id="feComposite180" /><feComposite in="composite1" in2="SourceGraphic" k1="1" operator="arithmetic" k3="1" result="composite2" id="feComposite182" /></filter></defs><g id="surface1" style="filter:url(#filter184)"><path style=" stroke:none;fill-rule:nonzero;fill:url(#linear0);" d="M 2.3125 2.089844 L 2.3125 20.804688 C 2.3125 28.574219 8.964844 34.847656 17.207031 34.847656 L 17.433594 34.847656 C 18.496094 40.71875 23.390625 45.332031 29.625 46.335938 L 29.625 62.925781 L 34.589844 62.925781 L 34.589844 46.335938 C 40.816406 45.335938 45.707031 40.71875 46.773438 34.847656 L 47.003906 34.847656 C 55.242188 34.847656 61.894531 28.574219 61.894531 20.804688 L 61.894531 2.089844 L 56.929688 2.089844 L 56.929688 20.804688 L 46.777344 30.167969 C 45.71875 24.269531 40.820312 19.660156 34.59375 18.679688 L 34.59375 2.089844 L 29.628906 2.089844 L 29.628906 18.679688 L 17.214844 30.167969 C 11.707031 30.167969 7.289062 26 7.289062 20.804688 L 7.289062 2.089844 Z M 2.3125 2.089844 "/></g></svg>
