<svg width="64" height="64" viewBox="0 0 64 64" version="1.1" xmlns:inkscape="http://www.inkscape.org/namespaces/inkscape"><defs><linearGradient id="linear0" gradientUnits="userSpaceOnUse" x1="0" y1="0" x2="0" y2="1" gradientTransform="matrix(58.79194,0,0,37.334305,3.053739,12.944781)"><stop offset="0" style="stop-color:rgb(92.941177%,83.529413%,72.549021%);stop-opacity:1;"/><stop offset="1" style="stop-color:rgb(81.960785%,71.372551%,59.215689%);stop-opacity:1;"/></linearGradient><linearGradient id="linear1" gradientUnits="userSpaceOnUse" x1="0" y1="0" x2="0" y2="1" gradientTransform="matrix(58.79194,0,0,37.334305,3.053739,12.944781)"><stop offset="0" style="stop-color:rgb(92.941177%,83.529413%,72.549021%);stop-opacity:1;"/><stop offset="1" style="stop-color:rgb(81.960785%,71.372551%,59.215689%);stop-opacity:1;"/></linearGradient><filter style="color-interpolation-filters:sRGB;" inkscape:label="Diffuse Light" id="filter184" x="-0.0375" y="-0.0375" width="1.075" height="1.075"><feGaussianBlur in="SourceGraphic" stdDeviation="1" result="blur" id="feGaussianBlur174" /><feDiffuseLighting diffuseConstant="1" surfaceScale="10" lighting-color="rgb(255,255,255)" result="diffuse" id="feDiffuseLighting178"><feDistantLight elevation="8" azimuth="235" id="feDistantLight176" /></feDiffuseLighting><feComposite in="diffuse" in2="diffuse" operator="arithmetic" k1="1" result="composite1" id="feComposite180" /><feComposite in="composite1" in2="SourceGraphic" k1="1" operator="arithmetic" k3="1" result="composite2" id="feComposite182" /></filter></defs><g id="surface1" style="filter:url(#filter184)"><path style=" stroke:none;fill-rule:nonzero;fill:url(#linear0);" d="M 56.96875 1.6875 C 56.679688 1.679688 56.382812 1.71875 56.085938 1.789062 L 51.085938 2.976562 L 51.085938 2.984375 L 60.023438 11.679688 L 62.347656 11.132812 L 61.335938 5.863281 C 60.867188 3.414062 59.003906 1.710938 56.972656 1.6875 Z M 44.136719 4.648438 L 37.195312 6.308594 L 46.132812 14.984375 L 53.078125 13.328125 Z M 30.21875 7.957031 L 23.277344 9.605469 L 32.210938 18.308594 L 39.160156 16.648438 Z M 16.308594 11.253906 L 9.359375 12.917969 L 18.292969 21.613281 L 25.25 19.957031 Z M 2.769531 14.882812 C 1.378906 16.011719 0.628906 18.082031 1.039062 20.195312 L 1.070312 20.359375 L 2.050781 25.441406 L 11.3125 23.234375 C 11.3125 23.234375 2.757812 14.875 2.757812 14.851562 Z M 2.03125 25.457031 L 2.03125 36.039062 L 4.410156 36.039062 L 11.523438 25.457031 Z M 18.632812 25.457031 L 11.523438 36.039062 L 18.632812 36.039062 L 25.75 25.457031 Z M 32.859375 25.457031 L 25.75 36.039062 L 32.859375 36.039062 L 39.972656 25.457031 Z M 47.085938 25.457031 L 39.972656 36.039062 L 47.085938 36.039062 L 54.199219 25.457031 Z M 61.308594 25.457031 L 54.199219 36.039062 L 63.679688 36.039062 L 63.679688 25.457031 Z M 61.308594 25.457031 "/><path style=" stroke:none;fill-rule:nonzero;fill:url(#linear1);" d="M 28.042969 41.359375 L 42.261719 51.933594 L 28.042969 62.507812 Z M 28.042969 41.359375 "/></g></svg>
