<svg width="64" height="64" viewBox="0 0 64 64" version="1.1" xmlns:inkscape="http://www.inkscape.org/namespaces/inkscape"><defs><linearGradient id="linear0" gradientUnits="userSpaceOnUse" x1="0" y1="0" x2="0" y2="1" gradientTransform="matrix(62.948799,0,0,64.851551,0.0812682,-0.716619)"><stop offset="0" style="stop-color:rgb(100%,56.862748%,82.745099%);stop-opacity:1;"/><stop offset="1" style="stop-color:rgb(100%,0%,60.000002%);stop-opacity:1;"/></linearGradient><filter style="color-interpolation-filters:sRGB;" inkscape:label="Diffuse Light" id="filter184" x="-0.0375" y="-0.0375" width="1.075" height="1.075"><feGaussianBlur in="SourceGraphic" stdDeviation="1" result="blur" id="feGaussianBlur174" /><feDiffuseLighting diffuseConstant="1" surfaceScale="10" lighting-color="rgb(255,255,255)" result="diffuse" id="feDiffuseLighting178"><feDistantLight elevation="8" azimuth="235" id="feDistantLight176" /></feDiffuseLighting><feComposite in="diffuse" in2="diffuse" operator="arithmetic" k1="1" result="composite1" id="feComposite180" /><feComposite in="composite1" in2="SourceGraphic" k1="1" operator="arithmetic" k3="1" result="composite2" id="feComposite182" /></filter></defs><g id="surface1" style="filter:url(#filter184)"><path style=" stroke:none;fill-rule:nonzero;fill:url(#linear0);" d="M 45.332031 1.355469 L 27.292969 6.191406 L 31.230469 7.75 C 29.558594 10.519531 28.238281 13.242188 27.222656 15.929688 L 1.394531 31.066406 L 31.113281 62.460938 L 61.84375 31.1875 L 39.496094 18.683594 L 42.800781 14.128906 L 48.640625 18.039062 Z M 26.152344 19.105469 C 23.050781 29.449219 23.984375 39.246094 25.015625 49.042969 L 6.347656 30.542969 Z M 38.589844 20.320312 C 56.457031 31.117188 44.230469 23.710938 56.472656 31.089844 L 31.511719 54.035156 C 31.484375 53.652344 31.476562 53.269531 31.460938 52.890625 C 33.917969 36.792969 34.046875 32.085938 38.59375 20.320312 Z M 38.589844 20.320312 "/></g></svg>
