<svg width="64" height="64" viewBox="0 0 64 64" version="1.1" xmlns:inkscape="http://www.inkscape.org/namespaces/inkscape"><defs><linearGradient id="linear0" gradientUnits="userSpaceOnUse" x1="0" y1="0" x2="0" y2="1" gradientTransform="matrix(75.200192,0,0,46.104692,-2.892548,9.085106)"><stop offset="0" style="stop-color:rgb(41.960785%,64.313728%,100%);stop-opacity:1;"/><stop offset="1" style="stop-color:rgb(0%,43.137255%,100%);stop-opacity:1;"/></linearGradient><linearGradient id="linear1" gradientUnits="userSpaceOnUse" x1="0" y1="0" x2="0" y2="1" gradientTransform="matrix(75.200192,0,0,46.104692,-2.892548,9.085106)"><stop offset="0" style="stop-color:rgb(41.960785%,64.313728%,100%);stop-opacity:1;"/><stop offset="1" style="stop-color:rgb(0%,43.137255%,100%);stop-opacity:1;"/></linearGradient><filter style="color-interpolation-filters:sRGB;" inkscape:label="Diffuse Light" id="filter184" x="-0.0375" y="-0.0375" width="1.075" height="1.075"><feGaussianBlur in="SourceGraphic" stdDeviation="1" result="blur" id="feGaussianBlur174" /><feDiffuseLighting diffuseConstant="1" surfaceScale="10" lighting-color="rgb(255,255,255)" result="diffuse" id="feDiffuseLighting178"><feDistantLight elevation="8" azimuth="235" id="feDistantLight176" /></feDiffuseLighting><feComposite in="diffuse" in2="diffuse" operator="arithmetic" k1="1" result="composite1" id="feComposite180" /><feComposite in="composite1" in2="SourceGraphic" k1="1" operator="arithmetic" k3="1" result="composite2" id="feComposite182" /></filter></defs><g id="surface1" style="filter:url(#filter184)"><path style=" stroke:none;fill-rule:nonzero;fill:url(#linear0);" d="M 1.792969 1.984375 L 1.792969 26.488281 L 8.234375 26.488281 L 8.234375 14.238281 L 11.453125 20.363281 L 17.890625 20.363281 L 21.109375 14.238281 L 21.109375 26.488281 L 27.550781 26.488281 L 27.550781 1.984375 L 21.109375 1.984375 L 14.667969 14.238281 L 8.234375 1.984375 Z M 43.644531 38.738281 L 43.644531 63.242188 L 50.085938 63.242188 L 50.085938 57.117188 L 53.308594 57.117188 C 58.652344 57.117188 62.964844 53.011719 62.964844 47.925781 C 62.964844 42.84375 58.652344 38.738281 53.308594 38.738281 Z M 50.085938 44.863281 L 53.308594 44.863281 C 55.089844 44.863281 56.527344 46.230469 56.527344 47.925781 C 56.527344 49.625 55.089844 50.992188 53.308594 50.992188 L 50.085938 50.992188 Z M 50.085938 44.863281 "/><path style=" stroke:none;fill-rule:nonzero;fill:url(#linear1);" d="M 46.714844 2.167969 L 42.003906 7.195312 L 46.714844 12.214844 L 42.003906 17.242188 L 46.714844 22.265625 L 51.425781 17.242188 L 56.136719 22.265625 L 60.851562 17.242188 L 56.136719 12.214844 L 60.851562 7.195312 L 56.136719 2.167969 L 51.425781 7.195312 Z M 10.605469 42.367188 L 10.605469 49.0625 L 4.320312 49.0625 L 4.320312 55.761719 L 10.605469 55.761719 L 10.605469 62.464844 L 16.882812 62.464844 L 16.882812 55.761719 L 23.160156 55.761719 L 23.160156 49.0625 L 16.882812 49.0625 L 16.882812 42.367188 Z M 10.605469 42.367188 "/></g></svg>
