<svg width="64" height="64" viewBox="0 0 64 64" version="1.1" xmlns:inkscape="http://www.inkscape.org/namespaces/inkscape"><defs><linearGradient id="linear0" gradientUnits="userSpaceOnUse" x1="0" y1="0" x2="0" y2="1" gradientTransform="matrix(64,0,0,64,0,0)"><stop offset="0" style="stop-color:rgb(0%,78.823531%,36.862746%);stop-opacity:1;"/><stop offset="1" style="stop-color:rgb(0%,54.11765%,25.098041%);stop-opacity:1;"/></linearGradient><filter style="color-interpolation-filters:sRGB;" inkscape:label="Diffuse Light" id="filter184" x="-0.0375" y="-0.0375" width="1.075" height="1.075"><feGaussianBlur in="SourceGraphic" stdDeviation="1" result="blur" id="feGaussianBlur174" /><feDiffuseLighting diffuseConstant="1" surfaceScale="10" lighting-color="rgb(255,255,255)" result="diffuse" id="feDiffuseLighting178"><feDistantLight elevation="8" azimuth="235" id="feDistantLight176" /></feDiffuseLighting><feComposite in="diffuse" in2="diffuse" operator="arithmetic" k1="1" result="composite1" id="feComposite180" /><feComposite in="composite1" in2="SourceGraphic" k1="1" operator="arithmetic" k3="1" result="composite2" id="feComposite182" /></filter></defs><g id="surface1" style="filter:url(#filter184)"><path style=" stroke:none;fill-rule:nonzero;fill:url(#linear0);" d="M 32 0 C 26.402344 0 21.859375 4.542969 21.859375 10.140625 C 21.859375 15.738281 32 25.234375 32 25.234375 C 32 25.234375 42.140625 15.738281 42.140625 10.140625 C 42.140625 4.542969 37.597656 0 32 0 Z M 10.140625 21.859375 C 4.542969 21.859375 0 26.402344 0 32 C 0 37.597656 4.542969 42.140625 10.140625 42.140625 C 15.738281 42.140625 25.234375 32 25.234375 32 C 25.234375 32 15.738281 21.859375 10.140625 21.859375 Z M 53.859375 21.859375 C 48.261719 21.859375 38.765625 32 38.765625 32 C 38.765625 32 48.261719 42.140625 53.859375 42.140625 C 59.457031 42.140625 64 37.597656 64 32 C 64 26.402344 59.457031 21.859375 53.859375 21.859375 Z M 32 38.765625 C 32 38.765625 21.859375 48.261719 21.859375 53.859375 C 21.859375 59.457031 26.402344 64 32 64 C 37.597656 64 42.140625 59.457031 42.140625 53.859375 C 42.140625 48.261719 32 38.765625 32 38.765625 Z M 32 38.765625 "/></g></svg>
