<svg width="64" height="64" viewBox="0 0 64 64" version="1.1" xmlns:inkscape="http://www.inkscape.org/namespaces/inkscape"><defs><linearGradient id="linear0" gradientUnits="userSpaceOnUse" x1="0" y1="0" x2="0" y2="1" gradientTransform="matrix(62.998458,0,0,39.67935,5.03626,10.163275)"><stop offset="0" style="stop-color:rgb(75.686276%,77.64706%,83.92157%);stop-opacity:1;"/><stop offset="1" style="stop-color:rgb(43.529412%,45.09804%,50.196081%);stop-opacity:1;"/></linearGradient><filter style="color-interpolation-filters:sRGB;" inkscape:label="Diffuse Light" id="filter184" x="-0.0375" y="-0.0375" width="1.075" height="1.075"><feGaussianBlur in="SourceGraphic" stdDeviation="1" result="blur" id="feGaussianBlur174" /><feDiffuseLighting diffuseConstant="1" surfaceScale="10" lighting-color="rgb(255,255,255)" result="diffuse" id="feDiffuseLighting178"><feDistantLight elevation="8" azimuth="235" id="feDistantLight176" /></feDiffuseLighting><feComposite in="diffuse" in2="diffuse" operator="arithmetic" k1="1" result="composite1" id="feComposite180" /><feComposite in="composite1" in2="SourceGraphic" k1="1" operator="arithmetic" k3="1" result="composite2" id="feComposite182" /></filter></defs><g id="surface1" style="filter:url(#filter184)"><path style=" stroke:none;fill-rule:nonzero;fill:url(#linear0);" d="M 32.476562 1.355469 C 22.050781 1.355469 11.628906 8.40625 11.628906 18.984375 C 11.628906 29.566406 20.890625 31.914062 22.632812 41.320312 L 22.636719 41.324219 C 21.363281 42.074219 20.71875 43.226562 20.71875 44.660156 C 20.71875 45.644531 21.050781 46.484375 21.738281 47.203125 C 21.0625 47.921875 20.71875 48.761719 20.71875 49.742188 C 20.71875 51.132812 21.339844 52.207031 22.5625 52.964844 C 22.199219 53.578125 22.039062 54.203125 22.039062 54.839844 C 22.039062 56.058594 22.460938 57.003906 23.320312 57.679688 C 24.167969 58.339844 25.21875 58.671875 26.472656 58.671875 C 27.015625 59.839844 27.832031 60.761719 28.929688 61.449219 C 30.003906 62.128906 31.1875 62.480469 32.46875 62.480469 C 33.746094 62.480469 34.90625 62.140625 35.996094 61.449219 C 37.09375 60.757812 37.910156 59.828125 38.445312 58.671875 C 39.699219 58.671875 40.730469 58.339844 41.574219 57.679688 C 42.4375 57.003906 42.875 56.074219 42.875 54.832031 C 42.875 54.203125 42.695312 53.578125 42.34375 52.964844 C 43.566406 52.195312 44.167969 51.128906 44.167969 49.742188 C 44.167969 48.757812 43.835938 47.914062 43.152344 47.203125 C 43.835938 46.484375 44.167969 45.644531 44.167969 44.660156 C 44.167969 43.222656 43.527344 42.074219 42.265625 41.324219 L 42.234375 41.324219 C 44.046875 32.417969 53.308594 29.570312 53.308594 18.992188 C 53.308594 8.410156 42.886719 1.359375 32.457031 1.359375 Z M 32.476562 1.355469 "/></g></svg>
