<svg width="64" height="64" viewBox="0 0 64 64" version="1.1" xmlns:inkscape="http://www.inkscape.org/namespaces/inkscape"><defs><linearGradient id="linear0" gradientUnits="userSpaceOnUse" x1="0" y1="0" x2="0" y2="1" gradientTransform="matrix(46.975372,0,0,47.234138,7.839575,6.633439)"><stop offset="0" style="stop-color:rgb(61.176473%,69.803923%,85.09804%);stop-opacity:1;"/><stop offset="1" style="stop-color:rgb(44.313726%,52.156866%,65.882355%);stop-opacity:1;"/></linearGradient><linearGradient id="linear1" gradientUnits="userSpaceOnUse" x1="0" y1="0" x2="0" y2="1" gradientTransform="matrix(46.975372,0,0,47.234138,7.839575,6.633439)"><stop offset="0" style="stop-color:rgb(61.176473%,69.803923%,85.09804%);stop-opacity:1;"/><stop offset="1" style="stop-color:rgb(44.313726%,52.156866%,65.882355%);stop-opacity:1;"/></linearGradient><linearGradient id="linear2" gradientUnits="userSpaceOnUse" x1="0" y1="0" x2="0" y2="1" gradientTransform="matrix(46.975372,0,0,47.234138,7.839575,6.633439)"><stop offset="0" style="stop-color:rgb(61.176473%,69.803923%,85.09804%);stop-opacity:1;"/><stop offset="1" style="stop-color:rgb(44.313726%,52.156866%,65.882355%);stop-opacity:1;"/></linearGradient><linearGradient id="linear3" gradientUnits="userSpaceOnUse" x1="0" y1="0" x2="0" y2="1" gradientTransform="matrix(46.975372,0,0,47.234138,7.839575,6.633439)"><stop offset="0" style="stop-color:rgb(61.176473%,69.803923%,85.09804%);stop-opacity:1;"/><stop offset="1" style="stop-color:rgb(44.313726%,52.156866%,65.882355%);stop-opacity:1;"/></linearGradient><filter style="color-interpolation-filters:sRGB;" inkscape:label="Diffuse Light" id="filter184" x="-0.0375" y="-0.0375" width="1.075" height="1.075"><feGaussianBlur in="SourceGraphic" stdDeviation="1" result="blur" id="feGaussianBlur174" /><feDiffuseLighting diffuseConstant="1" surfaceScale="10" lighting-color="rgb(255,255,255)" result="diffuse" id="feDiffuseLighting178"><feDistantLight elevation="8" azimuth="235" id="feDistantLight176" /></feDiffuseLighting><feComposite in="diffuse" in2="diffuse" operator="arithmetic" k1="1" result="composite1" id="feComposite180" /><feComposite in="composite1" in2="SourceGraphic" k1="1" operator="arithmetic" k3="1" result="composite2" id="feComposite182" /></filter></defs><g id="surface1" style="filter:url(#filter184)"><path style=" stroke:none;fill-rule:nonzero;fill:url(#linear0);" d="M 26.097656 7.683594 L 2.078125 31.738281 C 0.769531 33.042969 0.769531 35.167969 2.078125 36.476562 L 11.550781 45.957031 C 12.859375 47.269531 14.980469 47.265625 16.28125 45.957031 L 40.304688 21.910156 Z M 26.097656 7.683594 "/><path style=" stroke:none;fill-rule:nonzero;fill:url(#linear1);" d="M 47.097656 9.757812 L 37.964844 0.605469 L 30.5625 8.019531 L 39.695312 17.171875 Z M 43.140625 9.226562 L 41.617188 10.75 L 39.757812 8.886719 L 41.285156 7.363281 Z M 36.929688 6.050781 L 38.457031 4.527344 L 40.308594 6.390625 L 38.78125 7.910156 Z M 36.929688 6.050781 "/><path style=" stroke:none;fill-rule:nonzero;fill:url(#linear2);" d="M 42.632812 23.578125 L 18.613281 47.628906 C 17.3125 48.9375 17.3125 51.058594 18.613281 52.371094 L 28.085938 61.855469 C 29.398438 63.164062 31.515625 63.160156 32.820312 61.855469 L 56.839844 37.804688 Z M 42.632812 23.578125 "/><path style=" stroke:none;fill-rule:nonzero;fill:url(#linear3);" d="M 63.632812 25.652344 L 54.5 16.503906 L 47.101562 23.917969 L 56.234375 33.066406 Z M 59.679688 25.121094 L 58.15625 26.644531 L 56.296875 24.78125 L 57.824219 23.253906 Z M 53.46875 21.945312 L 54.992188 20.421875 L 56.851562 22.285156 L 55.328125 23.804688 Z M 53.46875 21.945312 "/></g></svg>
