<svg width="64" height="64" viewBox="0 0 64 64" version="1.1" xmlns:inkscape="http://www.inkscape.org/namespaces/inkscape"><defs><linearGradient id="linear0" gradientUnits="userSpaceOnUse" x1="0" y1="0" x2="0" y2="1" gradientTransform="matrix(56,0,0,35.898438,4,14.050781)"><stop offset="0" style="stop-color:rgb(75.686276%,77.64706%,83.92157%);stop-opacity:1;"/><stop offset="1" style="stop-color:rgb(43.529412%,45.09804%,50.196081%);stop-opacity:1;"/></linearGradient><linearGradient id="linear1" gradientUnits="userSpaceOnUse" x1="0" y1="0" x2="0" y2="1" gradientTransform="matrix(56,0,0,35.898438,4,14.050781)"><stop offset="0" style="stop-color:rgb(75.686276%,77.64706%,83.92157%);stop-opacity:1;"/><stop offset="1" style="stop-color:rgb(43.529412%,45.09804%,50.196081%);stop-opacity:1;"/></linearGradient><linearGradient id="linear2" gradientUnits="userSpaceOnUse" x1="0" y1="0" x2="0" y2="1" gradientTransform="matrix(56,0,0,35.898438,4,14.050781)"><stop offset="0" style="stop-color:rgb(75.686276%,77.64706%,83.92157%);stop-opacity:1;"/><stop offset="1" style="stop-color:rgb(43.529412%,45.09804%,50.196081%);stop-opacity:1;"/></linearGradient><filter style="color-interpolation-filters:sRGB;" inkscape:label="Diffuse Light" id="filter184" x="-0.0375" y="-0.0375" width="1.075" height="1.075"><feGaussianBlur in="SourceGraphic" stdDeviation="1" result="blur" id="feGaussianBlur174" /><feDiffuseLighting diffuseConstant="1" surfaceScale="10" lighting-color="rgb(255,255,255)" result="diffuse" id="feDiffuseLighting178"><feDistantLight elevation="8" azimuth="235" id="feDistantLight176" /></feDiffuseLighting><feComposite in="diffuse" in2="diffuse" operator="arithmetic" k1="1" result="composite1" id="feComposite180" /><feComposite in="composite1" in2="SourceGraphic" k1="1" operator="arithmetic" k3="1" result="composite2" id="feComposite182" /></filter></defs><g id="surface1" style="filter:url(#filter184)"><path style=" stroke:none;fill-rule:nonzero;fill:url(#linear0);" d="M 0.898438 39.410156 L 0.898438 42.246094 C 0.898438 45.394531 3.035156 47.921875 5.691406 47.921875 L 58.476562 47.921875 C 61.140625 47.921875 63.273438 45.394531 63.273438 42.246094 L 63.273438 39.410156 C 63.273438 42.5625 61.136719 45.089844 58.476562 45.089844 L 5.691406 45.089844 C 3.027344 45.089844 0.898438 42.554688 0.898438 39.410156 Z M 0.898438 39.410156 "/><path style=" stroke:none;fill-rule:nonzero;fill:url(#linear1);" d="M 5.671875 12.558594 L 5.671875 32.417969 L 58.449219 32.417969 L 58.449219 12.558594 Z M 18.863281 18.230469 C 20.851562 18.230469 22.464844 20.140625 22.464844 22.484375 C 22.464844 24.839844 20.851562 26.742188 18.863281 26.742188 C 16.875 26.742188 15.265625 24.839844 15.265625 22.484375 C 15.265625 20.140625 16.875 18.230469 18.863281 18.230469 Z M 45.257812 18.230469 C 47.238281 18.230469 48.855469 20.140625 48.855469 22.484375 C 48.855469 24.839844 47.238281 26.742188 45.257812 26.742188 C 43.269531 26.742188 41.660156 24.839844 41.660156 22.484375 C 41.660156 20.140625 43.269531 18.230469 45.257812 18.230469 Z M 45.257812 18.230469 "/><path style=" stroke:none;fill-rule:nonzero;fill:url(#linear2);" d="M 17.691406 36.578125 L 46.480469 36.578125 L 48.878906 45.089844 L 48.878906 47.921875 L 15.292969 47.921875 L 15.292969 45.089844 Z M 17.691406 36.578125 "/></g></svg>
