<svg width="64" height="64" viewBox="0 0 64 64" version="1.1" xmlns:inkscape="http://www.inkscape.org/namespaces/inkscape"><defs><linearGradient id="linear0" gradientUnits="userSpaceOnUse" x1="0" y1="0" x2="0" y2="1" gradientTransform="matrix(63.60725,0,0,39.432876,6.173382,12.125241)"><stop offset="0" style="stop-color:rgb(87.058824%,86.666667%,56.470591%);stop-opacity:1;"/><stop offset="1" style="stop-color:rgb(67.843139%,67.450982%,38.039216%);stop-opacity:1;"/></linearGradient><filter style="color-interpolation-filters:sRGB;" inkscape:label="Diffuse Light" id="filter184" x="-0.0375" y="-0.0375" width="1.075" height="1.075"><feGaussianBlur in="SourceGraphic" stdDeviation="1" result="blur" id="feGaussianBlur174" /><feDiffuseLighting diffuseConstant="1" surfaceScale="10" lighting-color="rgb(255,255,255)" result="diffuse" id="feDiffuseLighting178"><feDistantLight elevation="8" azimuth="235" id="feDistantLight176" /></feDiffuseLighting><feComposite in="diffuse" in2="diffuse" operator="arithmetic" k1="1" result="composite1" id="feComposite180" /><feComposite in="composite1" in2="SourceGraphic" k1="1" operator="arithmetic" k3="1" result="composite2" id="feComposite182" /></filter></defs><g id="surface1" style="filter:url(#filter184)"><path style=" stroke:none;fill-rule:nonzero;fill:url(#linear0);" d="M 29.117188 0.765625 C 18.058594 0.765625 9.097656 9.753906 9.097656 20.839844 C 9.101562 31.054688 16.765625 39.636719 26.894531 40.769531 L 26.894531 50.21875 C 24.230469 51.164062 22.449219 53.6875 22.445312 56.519531 C 22.445312 60.210938 25.433594 63.207031 29.117188 63.207031 C 32.804688 63.207031 35.792969 60.210938 35.792969 56.519531 C 35.789062 53.683594 34.007812 51.160156 31.34375 50.214844 L 31.34375 40.757812 C 32.898438 40.585938 34.421875 40.234375 35.894531 39.707031 L 40.894531 44.71875 C 40.464844 45.617188 40.246094 46.601562 40.238281 47.597656 C 40.238281 51.292969 43.230469 54.285156 46.914062 54.285156 C 50.601562 54.285156 53.589844 51.292969 53.589844 47.597656 C 53.589844 43.902344 50.601562 40.910156 46.914062 40.910156 C 45.917969 40.910156 44.9375 41.136719 44.042969 41.566406 L 40.097656 37.609375 C 45.738281 33.902344 49.136719 27.597656 49.140625 20.839844 C 49.140625 9.753906 40.175781 0.765625 29.117188 0.765625 Z M 35.792969 9.6875 L 38.015625 9.6875 L 40.238281 11.917969 L 40.238281 14.152344 L 36.902344 17.492188 L 32.453125 13.035156 Z M 31.34375 14.152344 L 35.792969 18.609375 L 22.445312 31.988281 L 17.992188 31.988281 L 17.992188 27.53125 Z M 46.917969 45.367188 C 48.140625 45.367188 49.140625 46.367188 49.140625 47.597656 C 49.140625 48.828125 48.140625 49.828125 46.917969 49.828125 C 45.6875 49.828125 44.691406 48.828125 44.691406 47.597656 C 44.691406 46.367188 45.6875 45.367188 46.917969 45.367188 Z M 29.117188 54.285156 C 30.34375 54.285156 31.34375 55.285156 31.34375 56.519531 C 31.34375 57.75 30.34375 58.746094 29.117188 58.746094 C 27.886719 58.746094 26.894531 57.75 26.894531 56.519531 C 26.894531 55.285156 27.886719 54.285156 29.117188 54.285156 Z M 29.117188 54.285156 "/></g></svg>
