<svg width="64" height="64" viewBox="0 0 64 64" version="1.1" xmlns:inkscape="http://www.inkscape.org/namespaces/inkscape"><defs><linearGradient id="linear0" gradientUnits="userSpaceOnUse" x1="0" y1="0" x2="0" y2="1" gradientTransform="matrix(69.677696,0,0,45.414459,-1.440428,9.351156)"><stop offset="0" style="stop-color:rgb(75.686276%,77.64706%,83.92157%);stop-opacity:1;"/><stop offset="1" style="stop-color:rgb(43.529412%,45.09804%,50.196081%);stop-opacity:1;"/></linearGradient><filter style="color-interpolation-filters:sRGB;" inkscape:label="Diffuse Light" id="filter184" x="-0.0375" y="-0.0375" width="1.075" height="1.075"><feGaussianBlur in="SourceGraphic" stdDeviation="1" result="blur" id="feGaussianBlur174" /><feDiffuseLighting diffuseConstant="1" surfaceScale="10" lighting-color="rgb(255,255,255)" result="diffuse" id="feDiffuseLighting178"><feDistantLight elevation="8" azimuth="235" id="feDistantLight176" /></feDiffuseLighting><feComposite in="diffuse" in2="diffuse" operator="arithmetic" k1="1" result="composite1" id="feComposite180" /><feComposite in="composite1" in2="SourceGraphic" k1="1" operator="arithmetic" k3="1" result="composite2" id="feComposite182" /></filter></defs><g id="surface1" style="filter:url(#filter184)"><path style=" stroke:none;fill-rule:nonzero;fill:url(#linear0);" d="M 1.382812 1.734375 L 1.382812 20.105469 L 4.828125 20.105469 C 4.828125 13.320312 9.441406 7.859375 15.167969 7.859375 L 25.5 7.859375 L 25.5 50.714844 C 25.5 55.796875 20.894531 59.894531 15.167969 59.894531 L 15.167969 62.953125 L 49.617188 62.953125 L 49.617188 59.894531 C 43.890625 59.894531 39.28125 55.796875 39.28125 50.714844 L 39.28125 7.859375 L 49.617188 7.859375 C 55.34375 7.859375 59.949219 13.320312 59.949219 20.105469 L 63.394531 20.105469 L 63.394531 1.734375 Z M 1.382812 1.734375 "/></g></svg>
