<svg width="64" height="64" viewBox="0 0 64 64" version="1.1" xmlns:inkscape="http://www.inkscape.org/namespaces/inkscape"><defs><linearGradient id="linear0" gradientUnits="userSpaceOnUse" x1="0" y1="128" x2="128" y2="0" gradientTransform="matrix(0.556328,0,0,0.604045,-3.449956,-6.901369)"><stop offset="0" style="stop-color:rgb(82.352942%,61.176473%,100%);stop-opacity:1;"/><stop offset="1" style="stop-color:rgb(66.666669%,0%,100%);stop-opacity:1;"/></linearGradient><filter style="color-interpolation-filters:sRGB;" inkscape:label="Diffuse Light" id="filter184" x="-0.0375" y="-0.0375" width="1.075" height="1.075"><feGaussianBlur in="SourceGraphic" stdDeviation="1" result="blur" id="feGaussianBlur174" /><feDiffuseLighting diffuseConstant="1" surfaceScale="10" lighting-color="rgb(255,255,255)" result="diffuse" id="feDiffuseLighting178"><feDistantLight elevation="8" azimuth="235" id="feDistantLight176" /></feDiffuseLighting><feComposite in="diffuse" in2="diffuse" operator="arithmetic" k1="1" result="composite1" id="feComposite180" /><feComposite in="composite1" in2="SourceGraphic" k1="1" operator="arithmetic" k3="1" result="composite2" id="feComposite182" /></filter></defs><g id="surface1" style="filter:url(#filter184)"><path style=" stroke:none;fill-rule:nonzero;fill:url(#linear0);" d="M 5.585938 7.675781 C 3.042969 7.675781 0.992188 9.902344 0.992188 12.664062 L 0.992188 39.984375 C 1.160156 41.335938 1.148438 41.820312 2 43.933594 L 5.304688 52.144531 C 6.265625 54.53125 6.765625 55.839844 9.6875 55.839844 L 59.058594 55.839844 C 63.269531 55.839844 65.542969 51.351562 60.167969 47.882812 L 49.921875 41.269531 C 48.449219 40.519531 47.726562 39.636719 47.726562 38.019531 L 47.726562 12.664062 C 47.726562 9.902344 45.675781 7.675781 43.132812 7.675781 Z M 6.773438 13.980469 L 41.796875 13.980469 L 41.796875 38.355469 L 6.773438 38.355469 Z M 6.773438 13.980469 "/></g></svg>
