<svg xmlns="http://www.w3.org/2000/svg" xmlns:xlink="http://www.w3.org/1999/xlink" width="64" height="64" viewBox="0 0 64 64" version="1.1"><path style=" stroke:none;fill-rule:nonzero;fill:rgb(100%,100%,100%);fill-opacity:1;" d="M 31.648438 17.914062 L 18.710938 34.472656 C 16.285156 37.578125 16.964844 43.109375 20.070312 45.535156 C 23.175781 47.960938 28.707031 47.28125 31.132812 44.175781 L 44.070312 27.617188 L 45.6875 25.546875 C 47.304688 23.476562 46.851562 19.789062 44.78125 18.171875 C 42.710938 16.554688 39.023438 17.007812 37.40625 19.078125 L 35.789062 21.148438 L 26.085938 33.566406 L 24.46875 35.636719 C 23.660156 36.671875 23.886719 38.515625 24.921875 39.324219 C 25.957031 40.132812 27.800781 39.90625 28.609375 38.871094 L 39.929688 24.382812 L 42 26 L 30.679688 40.488281 C 29.0625 42.558594 25.375 43.011719 23.304688 41.394531 C 21.234375 39.777344 20.78125 36.089844 22.398438 34.019531 L 24.015625 31.949219 L 35.335938 17.460938 C 37.761719 14.355469 43.292969 13.675781 46.398438 16.101562 C 49.503906 18.527344 50.183594 24.058594 47.757812 27.164062 L 46.140625 29.234375 L 33.203125 45.792969 C 29.96875 49.933594 22.59375 50.839844 18.453125 47.605469 C 14.3125 44.371094 13.40625 36.996094 16.640625 32.855469 L 29.578125 16.296875 Z M 31.648438 17.914062 "/></svg>
