<svg width="64" height="64" viewBox="0 0 64 64" version="1.1" xmlns:inkscape="http://www.inkscape.org/namespaces/inkscape"><defs><linearGradient id="linear0" gradientUnits="userSpaceOnUse" x1="0" y1="0" x2="0" y2="1" gradientTransform="matrix(44.012951,0,0,43.060225,10.518983,10.594133)"><stop offset="0" style="stop-color:rgb(0%,96.078432%,86.274511%);stop-opacity:1;"/><stop offset="1" style="stop-color:rgb(0%,54.901963%,49.411765%);stop-opacity:1;"/></linearGradient><filter style="color-interpolation-filters:sRGB;" inkscape:label="Diffuse Light" id="filter184" x="-0.0375" y="-0.0375" width="1.075" height="1.075"><feGaussianBlur in="SourceGraphic" stdDeviation="1" result="blur" id="feGaussianBlur174" /><feDiffuseLighting diffuseConstant="1" surfaceScale="10" lighting-color="rgb(255,255,255)" result="diffuse" id="feDiffuseLighting178"><feDistantLight elevation="8" azimuth="235" id="feDistantLight176" /></feDiffuseLighting><feComposite in="diffuse" in2="diffuse" operator="arithmetic" k1="1" result="composite1" id="feComposite180" /><feComposite in="composite1" in2="SourceGraphic" k1="1" operator="arithmetic" k3="1" result="composite2" id="feComposite182" /></filter></defs><g id="surface1" style="filter:url(#filter184)"><path style=" stroke:none;fill-rule:nonzero;fill:rgb(14.901961%,13.725491%,15.686275%);fill-opacity:1;" d="M 32.144531 1.386719 C 14.871094 1.386719 0.875 15.023438 0.875 31.847656 C 0.875 32.011719 0.875 32.167969 0.878906 32.328125 L 32.496094 32.328125 L 32.496094 1.390625 C 32.378906 1.390625 32.261719 1.386719 32.144531 1.386719 "/><path style=" stroke:none;fill-rule:nonzero;fill:rgb(14.901961%,13.725491%,15.686275%);fill-opacity:1;" d="M 32.496094 63.261719 L 32.496094 32.328125 L 63.410156 32.328125 C 63.414062 32.488281 63.414062 32.644531 63.414062 32.804688 C 63.414062 49.519531 49.605469 63.078125 32.496094 63.261719 "/><path style=" stroke:none;fill-rule:nonzero;fill:url(#linear0);" d="M 16.808594 13.851562 C 15.074219 13.851562 13.679688 15.214844 13.679688 16.90625 L 13.679688 27.003906 C 13.679688 28.699219 15.074219 30.0625 16.808594 30.0625 L 27.183594 30.0625 C 28.917969 30.0625 30.316406 28.699219 30.316406 27.003906 L 30.316406 16.90625 C 30.316406 15.214844 28.917969 13.851562 27.183594 13.851562 Z M 37.957031 13.851562 C 36.222656 13.851562 34.824219 15.214844 34.824219 16.90625 L 34.824219 27.003906 C 34.824219 28.699219 36.222656 30.0625 37.957031 30.0625 L 48.328125 30.0625 C 50.0625 30.0625 51.460938 28.699219 51.460938 27.003906 L 51.460938 16.90625 C 51.460938 15.214844 50.0625 13.851562 48.328125 13.851562 Z M 16.808594 34.453125 C 15.074219 34.453125 13.679688 35.816406 13.679688 37.507812 L 13.679688 47.605469 C 13.679688 49.300781 15.074219 50.660156 16.808594 50.660156 L 27.183594 50.660156 C 28.917969 50.660156 30.316406 49.300781 30.316406 47.605469 L 30.316406 37.507812 C 30.316406 35.816406 28.917969 34.453125 27.183594 34.453125 Z M 37.957031 34.453125 C 36.222656 34.453125 34.824219 35.816406 34.824219 37.507812 L 34.824219 47.605469 C 34.824219 49.300781 36.222656 50.660156 37.957031 50.660156 L 48.328125 50.660156 C 50.0625 50.660156 51.460938 49.300781 51.460938 47.605469 L 51.460938 37.507812 C 51.460938 35.816406 50.0625 34.453125 48.328125 34.453125 Z M 37.957031 34.453125 "/></g></svg>
