<?xml version="1.0" encoding="UTF-8" standalone="no"?><svg width="64" height="64" viewBox="0 0 64 64" version="1.1" id="svg174" sodipodi:docname="gnome-nettool.svg" inkscape:version="1.2.2 (b0a8486541, 2022-12-01)" xmlns:inkscape="http://www.inkscape.org/namespaces/inkscape" xmlns:sodipodi="http://sodipodi.sourceforge.net/DTD/sodipodi-0.dtd" xmlns:xlink="http://www.w3.org/1999/xlink" xmlns="http://www.w3.org/2000/svg" xmlns:svg="http://www.w3.org/2000/svg"> <sodipodi:namedview id="namedview176" pagecolor="#ffffff" bordercolor="#000000" borderopacity="0.25" inkscape:showpageshadow="2" inkscape:pageopacity="0.0" inkscape:pagecheckerboard="0" inkscape:deskcolor="#d1d1d1" showgrid="false" inkscape:zoom="3.6875" inkscape:cx="32" inkscape:cy="32.135593" inkscape:window-width="1432" inkscape:window-height="844" inkscape:window-x="0" inkscape:window-y="0" inkscape:window-maximized="1" inkscape:current-layer="svg174" /> <defs id="defs169"> <filter id="alpha" filterUnits="objectBoundingBox" x="0" y="0" width="1" height="1"> <feColorMatrix type="matrix" in="SourceGraphic" values="0 0 0 0 1 0 0 0 0 1 0 0 0 0 1 0 0 0 1 0" id="feColorMatrix150" /> </filter> <mask id="mask0"> <g filter="url(#alpha)" id="g155"> <rect x="0" y="0" width="64" height="64" style="fill:rgb(0%,0%,0%);fill-opacity:0.9;stroke:none;" id="rect153" /> </g> </mask> <linearGradient id="linear0" gradientUnits="userSpaceOnUse" x1="0" y1="0" x2="0" y2="1" gradientTransform="matrix(64,0,0,24.28125,0,19.859375)"> <stop offset="0" style="stop-color:#6ba4ff;stop-opacity:1;" id="stop158" /> <stop offset="1" style="stop-color:#006eff;stop-opacity:1;" id="stop160" /> </linearGradient> <clipPath id="clip1"> <rect x="0" y="0" width="64" height="64" id="rect163" /> </clipPath> <g id="surface5" clip-path="url(#clip1)"> <path style=" stroke:none;fill-rule:evenodd;fill:url(#linear0);" d="M 6.617188 19.859375 L 6.617188 26.484375 L 0 26.484375 L 0 28.6875 L 8.828125 28.6875 L 8.828125 22.070312 L 11.03125 22.070312 L 11.03125 35.3125 L 17.65625 35.3125 L 17.65625 28.6875 L 30.898438 28.6875 L 30.898438 22.070312 L 33.101562 22.070312 L 33.101562 35.3125 L 39.726562 35.3125 L 39.726562 28.6875 L 50.757812 28.6875 L 50.757812 22.070312 L 52.96875 22.070312 L 52.96875 35.3125 L 59.585938 35.3125 L 59.585938 28.6875 L 64 28.6875 L 64 26.484375 L 57.382812 26.484375 L 57.382812 33.101562 L 55.171875 33.101562 L 55.171875 19.859375 L 48.554688 19.859375 L 48.554688 26.484375 L 37.515625 26.484375 L 37.515625 33.101562 L 35.3125 33.101562 L 35.3125 19.859375 L 28.6875 19.859375 L 28.6875 26.484375 L 15.445312 26.484375 L 15.445312 33.101562 L 13.242188 33.101562 L 13.242188 19.859375 Z M 48.554688 37.515625 L 48.554688 44.140625 L 50.757812 44.140625 L 50.757812 37.515625 Z M 44.140625 39.726562 L 44.140625 44.140625 L 46.34375 44.140625 L 46.34375 39.726562 Z M 52.96875 39.726562 L 52.96875 44.140625 L 55.171875 44.140625 L 55.171875 39.726562 Z M 39.726562 41.929688 L 39.726562 44.140625 L 41.929688 44.140625 L 41.929688 41.929688 Z M 57.382812 41.929688 L 57.382812 44.140625 L 59.585938 44.140625 L 59.585938 41.929688 Z M 57.382812 41.929688 " id="path166" /> </g> <filter style="color-interpolation-filters:sRGB;" inkscape:label="Diffuse Light" id="filter1855" x="-0.0375" y="-0.098841699" width="1.075" height="1.1976834"> <feGaussianBlur in="SourceGraphic" stdDeviation="1" result="blur" id="feGaussianBlur1845" /> <feDiffuseLighting diffuseConstant="1" surfaceScale="10" lighting-color="rgb(255,255,255)" result="diffuse" id="feDiffuseLighting1849"> <feDistantLight elevation="8" azimuth="235" id="feDistantLight1847" /> </feDiffuseLighting> <feComposite in="diffuse" in2="diffuse" operator="arithmetic" k1="1" result="composite1" id="feComposite1851" /> <feComposite in="composite1" in2="SourceGraphic" k1="1" operator="arithmetic" k3="1" result="composite2" id="feComposite1853" /> </filter> </defs> <g id="surface1" style="filter:url(#filter1855)"> <use xlink:href="#surface5" mask="url(#mask0)" id="use171" /> </g></svg>
