<svg width="64" height="64" viewBox="0 0 64 64" version="1.1" xmlns:inkscape="http://www.inkscape.org/namespaces/inkscape"><defs><linearGradient id="linear0" gradientUnits="userSpaceOnUse" x1="0" y1="0" x2="0" y2="1" gradientTransform="matrix(62.217632,0,0,38.971293,0.368802,9.88688)"><stop offset="0" style="stop-color:rgb(0%,73.333335%,100%);stop-opacity:1;"/><stop offset="1" style="stop-color:rgb(0%,52.156866%,70.980394%);stop-opacity:1;"/></linearGradient><linearGradient id="linear1" gradientUnits="userSpaceOnUse" x1="0" y1="0" x2="0" y2="1" gradientTransform="matrix(62.217632,0,0,38.971293,0.368802,9.88688)"><stop offset="0" style="stop-color:rgb(0%,73.333335%,100%);stop-opacity:1;"/><stop offset="1" style="stop-color:rgb(0%,52.156866%,70.980394%);stop-opacity:1;"/></linearGradient><linearGradient id="linear2" gradientUnits="userSpaceOnUse" x1="0" y1="0" x2="0" y2="1" gradientTransform="matrix(62.217632,0,0,38.971293,0.368802,9.88688)"><stop offset="0" style="stop-color:rgb(0%,73.333335%,100%);stop-opacity:1;"/><stop offset="1" style="stop-color:rgb(0%,52.156866%,70.980394%);stop-opacity:1;"/></linearGradient><linearGradient id="linear3" gradientUnits="userSpaceOnUse" x1="0" y1="0" x2="0" y2="1" gradientTransform="matrix(62.217632,0,0,38.971293,0.368802,9.88688)"><stop offset="0" style="stop-color:rgb(0%,73.333335%,100%);stop-opacity:1;"/><stop offset="1" style="stop-color:rgb(0%,52.156866%,70.980394%);stop-opacity:1;"/></linearGradient><filter style="color-interpolation-filters:sRGB;" inkscape:label="Diffuse Light" id="filter184" x="-0.0375" y="-0.0375" width="1.075" height="1.075"><feGaussianBlur in="SourceGraphic" stdDeviation="1" result="blur" id="feGaussianBlur174" /><feDiffuseLighting diffuseConstant="1" surfaceScale="10" lighting-color="rgb(255,255,255)" result="diffuse" id="feDiffuseLighting178"><feDistantLight elevation="8" azimuth="235" id="feDistantLight176" /></feDiffuseLighting><feComposite in="diffuse" in2="diffuse" operator="arithmetic" k1="1" result="composite1" id="feComposite180" /><feComposite in="composite1" in2="SourceGraphic" k1="1" operator="arithmetic" k3="1" result="composite2" id="feComposite182" /></filter></defs><g id="surface1" style="filter:url(#filter184)"><path style=" stroke:none;fill-rule:nonzero;fill:url(#linear0);" d="M 27.878906 1.097656 C 12.988281 2.960938 1.484375 15.191406 1.484375 29.996094 C 1.484375 30.851562 1.53125 31.691406 1.605469 32.527344 L 27.878906 32.527344 Z M 27.878906 1.097656 "/><path style=" stroke:none;fill-rule:nonzero;fill:url(#linear1);" d="M 33.429688 1.769531 C 32.171875 1.769531 30.941406 1.84375 29.734375 1.996094 L 29.734375 31.324219 L 61.667969 31.324219 C 61.734375 30.542969 61.777344 29.757812 61.777344 28.957031 C 61.777344 13.945312 49.089844 1.773438 33.429688 1.773438 Z M 33.429688 1.769531 "/><path style=" stroke:none;fill-rule:nonzero;fill:url(#linear2);" d="M 29.507812 33.410156 L 29.507812 61.527344 C 30.765625 61.699219 32.039062 61.78125 33.339844 61.78125 C 48.707031 61.78125 61.304688 49.304688 62.605469 33.410156 Z M 29.507812 33.410156 "/><path style=" stroke:none;fill-rule:nonzero;fill:url(#linear3);" d="M 1.382812 34.214844 C 2.574219 48.945312 13.253906 60.796875 26.855469 62.695312 L 26.855469 34.214844 Z M 1.382812 34.214844 "/></g></svg>
