<svg width="64" height="64" viewBox="0 0 64 64" version="1.1" xmlns:inkscape="http://www.inkscape.org/namespaces/inkscape"><defs><linearGradient id="linear0" gradientUnits="userSpaceOnUse" x1="0" y1="0" x2="0" y2="1" gradientTransform="matrix(42.236409,0,0,54.467051,10.579486,10.589818)"><stop offset="0" style="stop-color:rgb(100%,63.137257%,63.137257%);stop-opacity:1;"/><stop offset="1" style="stop-color:rgb(100%,27.843139%,27.843139%);stop-opacity:1;"/></linearGradient><linearGradient id="linear1" gradientUnits="userSpaceOnUse" x1="0" y1="0" x2="0" y2="1" gradientTransform="matrix(42.236409,0,0,54.467051,10.579486,10.589818)"><stop offset="0" style="stop-color:rgb(100%,63.137257%,63.137257%);stop-opacity:1;"/><stop offset="1" style="stop-color:rgb(100%,27.843139%,27.843139%);stop-opacity:1;"/></linearGradient><linearGradient id="linear2" gradientUnits="userSpaceOnUse" x1="0" y1="0" x2="0" y2="1" gradientTransform="matrix(42.236409,0,0,54.467051,10.579486,10.589818)"><stop offset="0" style="stop-color:rgb(100%,63.137257%,63.137257%);stop-opacity:1;"/><stop offset="1" style="stop-color:rgb(100%,27.843139%,27.843139%);stop-opacity:1;"/></linearGradient><linearGradient id="linear3" gradientUnits="userSpaceOnUse" x1="0" y1="0" x2="0" y2="1" gradientTransform="matrix(42.236409,0,0,54.467051,10.579486,10.589818)"><stop offset="0" style="stop-color:rgb(100%,63.137257%,63.137257%);stop-opacity:1;"/><stop offset="1" style="stop-color:rgb(100%,27.843139%,27.843139%);stop-opacity:1;"/></linearGradient><filter style="color-interpolation-filters:sRGB;" inkscape:label="Diffuse Light" id="filter184" x="-0.0375" y="-0.0375" width="1.075" height="1.075"><feGaussianBlur in="SourceGraphic" stdDeviation="1" result="blur" id="feGaussianBlur174" /><feDiffuseLighting diffuseConstant="1" surfaceScale="10" lighting-color="rgb(255,255,255)" result="diffuse" id="feDiffuseLighting178"><feDistantLight elevation="8" azimuth="235" id="feDistantLight176" /></feDiffuseLighting><feComposite in="diffuse" in2="diffuse" operator="arithmetic" k1="1" result="composite1" id="feComposite180" /><feComposite in="composite1" in2="SourceGraphic" k1="1" operator="arithmetic" k3="1" result="composite2" id="feComposite182" /></filter></defs><g id="surface1" style="filter:url(#filter184)"><path style=" stroke:none;fill-rule:nonzero;fill:url(#linear0);" d="M 44.308594 19.300781 L 26.851562 34.820312 L 18.792969 22.75 L 1.425781 37.082031 C 1.371094 38.046875 1.339844 39.015625 1.339844 39.992188 C 1.339844 40.199219 1.34375 40.398438 1.34375 40.605469 L 18.792969 26.203125 L 26.851562 38.273438 L 44.308594 22.753906 L 62.707031 46.375 C 62.835938 45.359375 62.929688 44.335938 62.992188 43.292969 L 44.308594 19.304688 Z M 44.308594 19.300781 "/><path style=" stroke:none;fill-rule:nonzero;fill:url(#linear1);" d="M 21.480469 24.476562 C 21.480469 26.378906 20.277344 27.925781 18.792969 27.925781 C 17.3125 27.925781 16.105469 26.378906 16.105469 24.476562 C 16.105469 22.570312 17.3125 21.027344 18.792969 21.027344 C 20.277344 21.027344 21.480469 22.570312 21.480469 24.476562 M 21.480469 24.476562 "/><path style=" stroke:none;fill-rule:nonzero;fill:url(#linear2);" d="M 29.539062 36.546875 C 29.539062 38.453125 28.335938 39.992188 26.851562 39.992188 C 25.371094 39.992188 24.167969 38.453125 24.167969 36.546875 C 24.167969 34.644531 25.371094 33.097656 26.851562 33.097656 C 28.335938 33.097656 29.539062 34.644531 29.539062 36.546875 M 29.539062 36.546875 "/><path style=" stroke:none;fill-rule:nonzero;fill:url(#linear3);" d="M 46.992188 21.027344 C 46.992188 22.929688 45.792969 24.476562 44.308594 24.476562 C 42.828125 24.476562 41.621094 22.929688 41.621094 21.027344 C 41.621094 19.121094 42.828125 17.582031 44.308594 17.582031 C 45.792969 17.582031 46.992188 19.121094 46.992188 21.027344 M 46.992188 21.027344 "/></g></svg>
