<svg width="64" height="64" viewBox="0 0 64 64" version="1.1" xmlns:inkscape="http://www.inkscape.org/namespaces/inkscape"><defs><linearGradient id="linear0" gradientUnits="userSpaceOnUse" x1="0" y1="0" x2="0" y2="1" gradientTransform="matrix(94.92782,0,0,61.816831,-18.370879,5.920978)"><stop offset="0" style="stop-color:rgb(0%,96.078432%,86.274511%);stop-opacity:1;"/><stop offset="1" style="stop-color:rgb(0%,54.901963%,49.411765%);stop-opacity:1;"/></linearGradient><linearGradient id="linear1" gradientUnits="userSpaceOnUse" x1="0" y1="0" x2="0" y2="1" gradientTransform="matrix(94.92782,0,0,61.816831,-18.370879,5.920978)"><stop offset="0" style="stop-color:rgb(0%,96.078432%,86.274511%);stop-opacity:1;"/><stop offset="1" style="stop-color:rgb(0%,54.901963%,49.411765%);stop-opacity:1;"/></linearGradient><linearGradient id="linear2" gradientUnits="userSpaceOnUse" x1="0" y1="0" x2="0" y2="1" gradientTransform="matrix(94.92782,0,0,61.816831,-18.370879,5.920978)"><stop offset="0" style="stop-color:rgb(0%,96.078432%,86.274511%);stop-opacity:1;"/><stop offset="1" style="stop-color:rgb(0%,54.901963%,49.411765%);stop-opacity:1;"/></linearGradient><filter style="color-interpolation-filters:sRGB;" inkscape:label="Diffuse Light" id="filter184" x="-0.0375" y="-0.0375" width="1.075" height="1.075"><feGaussianBlur in="SourceGraphic" stdDeviation="1" result="blur" id="feGaussianBlur174" /><feDiffuseLighting diffuseConstant="1" surfaceScale="10" lighting-color="rgb(255,255,255)" result="diffuse" id="feDiffuseLighting178"><feDistantLight elevation="8" azimuth="235" id="feDistantLight176" /></feDiffuseLighting><feComposite in="diffuse" in2="diffuse" operator="arithmetic" k1="1" result="composite1" id="feComposite180" /><feComposite in="composite1" in2="SourceGraphic" k1="1" operator="arithmetic" k3="1" result="composite2" id="feComposite182" /></filter></defs><g id="surface1" style="filter:url(#filter184)"><path style=" stroke:none;fill-rule:nonzero;fill:url(#linear0);" d="M 8.339844 62.8125 C 15.121094 62.8125 21.902344 51.332031 33.203125 51.332031 C 44.5 51.332031 45.632812 60.519531 51.28125 60.519531 C 52.414062 60.519531 53.546875 59.761719 53.546875 58.21875 C 53.546875 51.332031 51.28125 39.855469 42.242188 39.855469 L 30.941406 37.554688 L 17.378906 39.855469 C 9.472656 39.855469 6.082031 54.777344 6.082031 60.519531 C 6.082031 62.8125 6.824219 62.8125 8.339844 62.8125 Z M 8.339844 62.8125 "/><path style=" stroke:none;fill-rule:nonzero;fill:url(#linear1);" d="M 7.136719 14.082031 C 13.917969 14.082031 20.695312 25.554688 27.476562 25.554688 L 34.257812 25.554688 C 43.296875 25.554688 52.339844 9.484375 56.859375 9.484375 C 59.121094 9.484375 59.121094 11.78125 59.121094 14.082031 C 59.121094 20.96875 50.078125 34.746094 45.5625 34.746094 L 20.695312 34.746094 C 13.917969 34.746094 4.878906 23.261719 4.878906 17.523438 C 4.878906 16.375 4.878906 14.082031 7.136719 14.082031 Z M 7.136719 14.082031 "/><path style=" stroke:none;fill-rule:nonzero;fill:url(#linear2);" d="M 33.703125 1.589844 C 26.21875 1.589844 20.140625 7.765625 20.140625 15.363281 C 20.140625 17.167969 20.492188 18.949219 21.167969 20.625 L 31.449219 10.777344 C 31.449219 10.777344 33.707031 8.476562 38.230469 8.476562 L 45.460938 8.476562 C 43.042969 4.207031 38.570312 1.589844 33.707031 1.589844 Z M 40.480469 13.070312 C 39.238281 13.070312 38.222656 14.101562 38.222656 15.363281 C 38.222656 16.636719 39.238281 17.664062 40.480469 17.664062 C 41.734375 17.664062 42.746094 16.636719 42.746094 15.363281 C 42.746094 14.101562 41.734375 13.070312 40.480469 13.070312 Z M 40.480469 13.070312 "/></g></svg>
