<svg width="64" height="64" viewBox="0 0 64 64" version="1.1" xmlns:inkscape="http://www.inkscape.org/namespaces/inkscape"><defs><linearGradient id="linear0" gradientUnits="userSpaceOnUse" x1="0" y1="0" x2="0" y2="1" gradientTransform="matrix(75.115471,0,0,40.286425,-8.173196,12.162294)"><stop offset="0" style="stop-color:rgb(100%,73.333335%,0%);stop-opacity:1;"/><stop offset="1" style="stop-color:rgb(70.19608%,51.372552%,0%);stop-opacity:1;"/></linearGradient><filter style="color-interpolation-filters:sRGB;" inkscape:label="Diffuse Light" id="filter184" x="-0.0375" y="-0.0375" width="1.075" height="1.075"><feGaussianBlur in="SourceGraphic" stdDeviation="1" result="blur" id="feGaussianBlur174" /><feDiffuseLighting diffuseConstant="1" surfaceScale="10" lighting-color="rgb(255,255,255)" result="diffuse" id="feDiffuseLighting178"><feDistantLight elevation="8" azimuth="235" id="feDistantLight176" /></feDiffuseLighting><feComposite in="diffuse" in2="diffuse" operator="arithmetic" k1="1" result="composite1" id="feComposite180" /><feComposite in="composite1" in2="SourceGraphic" k1="1" operator="arithmetic" k3="1" result="composite2" id="feComposite182" /></filter></defs><g id="surface1" style="filter:url(#filter184)"><path style=" stroke:none;fill-rule:nonzero;fill:url(#linear0);" d="M 24.359375 6.992188 L 24.359375 10.089844 L 35.808594 10.089844 L 35.808594 13.183594 L 39.621094 13.183594 L 39.621094 6.992188 Z M 35.808594 13.183594 L 28.175781 13.183594 L 28.175781 16.277344 L 31.988281 16.277344 L 31.988281 19.375 L 35.808594 19.375 Z M 35.808594 19.375 L 35.808594 28.664062 L 39.621094 28.664062 L 39.621094 25.566406 L 43.4375 25.566406 L 43.4375 22.46875 L 39.621094 22.46875 L 39.621094 19.375 Z M 43.4375 22.46875 L 58.699219 22.46875 L 58.699219 19.375 L 43.4375 19.375 Z M 58.699219 22.46875 L 58.699219 28.664062 L 62.515625 28.664062 L 62.515625 22.46875 Z M 58.699219 28.664062 L 54.886719 28.664062 L 54.886719 31.757812 L 58.699219 31.757812 Z M 58.699219 31.757812 L 58.699219 37.949219 L 62.515625 37.949219 L 62.515625 31.757812 Z M 58.699219 37.949219 L 54.886719 37.949219 L 54.886719 44.136719 L 58.699219 44.136719 Z M 54.886719 44.136719 L 51.066406 44.136719 L 51.066406 50.332031 L 54.886719 50.332031 Z M 51.066406 50.332031 L 43.4375 50.332031 L 43.4375 53.425781 L 51.066406 53.425781 Z M 43.4375 53.425781 L 39.621094 53.425781 L 39.621094 56.519531 L 43.4375 56.519531 Z M 39.621094 53.425781 L 39.621094 50.332031 L 31.988281 50.332031 L 31.988281 53.425781 Z M 31.988281 19.375 L 28.175781 19.375 L 28.175781 28.664062 L 31.988281 28.664062 Z M 24.359375 10.089844 L 20.546875 10.089844 L 20.546875 13.183594 L 24.359375 13.183594 Z M 20.546875 13.183594 L 16.730469 13.183594 L 16.730469 16.277344 L 20.546875 16.277344 Z M 16.730469 16.277344 L 12.910156 16.277344 L 12.910156 19.375 L 16.730469 19.375 Z M 16.730469 19.375 L 16.730469 25.566406 L 20.546875 25.566406 L 20.546875 19.375 Z M 12.910156 19.375 L 9.097656 19.375 L 9.097656 25.566406 L 12.910156 25.566406 Z M 9.097656 25.566406 L 5.28125 25.566406 L 5.28125 28.664062 L 9.097656 28.664062 Z M 9.097656 28.664062 L 9.097656 31.757812 L 12.910156 31.757812 L 12.910156 28.664062 Z M 9.097656 31.757812 L 5.28125 31.757812 L 5.28125 34.851562 L 9.097656 34.851562 Z M 5.28125 34.851562 L 1.46875 34.851562 L 1.46875 44.136719 L 5.28125 44.136719 Z M 5.28125 44.136719 L 5.28125 47.238281 L 9.097656 47.238281 L 9.097656 44.136719 Z M 9.097656 47.238281 L 9.097656 50.332031 L 12.910156 50.332031 L 12.910156 47.238281 Z M 12.910156 50.332031 L 12.910156 53.425781 L 20.546875 53.425781 L 20.546875 50.332031 Z M 12.910156 53.425781 L 9.097656 53.425781 L 9.097656 56.519531 L 12.910156 56.519531 Z M 35.808594 34.851562 L 35.808594 37.949219 L 39.621094 37.949219 L 39.621094 34.851562 Z M 39.621094 37.949219 L 39.621094 41.042969 L 47.25 41.042969 L 47.25 37.949219 Z M 47.25 37.949219 L 51.066406 37.949219 L 51.066406 34.851562 L 47.25 34.851562 Z M 24.359375 53.425781 L 24.359375 56.519531 L 28.175781 56.519531 L 28.175781 53.425781 Z M 24.359375 53.425781 "/></g></svg>
