<svg width="64" height="64" viewBox="0 0 64 64" version="1.1" xmlns:inkscape="http://www.inkscape.org/namespaces/inkscape"><defs><linearGradient id="linear0" gradientUnits="userSpaceOnUse" x1="0" y1="0" x2="0" y2="1" gradientTransform="matrix(74.315438,0,0,78.059477,-5.512671,-3.206645)"><stop offset="0" style="stop-color:rgb(0%,78.823531%,36.862746%);stop-opacity:1;"/><stop offset="1" style="stop-color:rgb(0%,54.11765%,25.098041%);stop-opacity:1;"/></linearGradient><linearGradient id="linear1" gradientUnits="userSpaceOnUse" x1="0" y1="0" x2="0" y2="1" gradientTransform="matrix(74.315438,0,0,78.059477,-5.512671,-3.206645)"><stop offset="0" style="stop-color:rgb(0%,78.823531%,36.862746%);stop-opacity:1;"/><stop offset="1" style="stop-color:rgb(0%,54.11765%,25.098041%);stop-opacity:1;"/></linearGradient><linearGradient id="linear2" gradientUnits="userSpaceOnUse" x1="0" y1="0" x2="0" y2="1" gradientTransform="matrix(74.315438,0,0,78.059477,-5.512671,-3.206645)"><stop offset="0" style="stop-color:rgb(0%,78.823531%,36.862746%);stop-opacity:1;"/><stop offset="1" style="stop-color:rgb(0%,54.11765%,25.098041%);stop-opacity:1;"/></linearGradient><linearGradient id="linear3" gradientUnits="userSpaceOnUse" x1="0" y1="0" x2="0" y2="1" gradientTransform="matrix(74.315438,0,0,78.059477,-5.512671,-3.206645)"><stop offset="0" style="stop-color:rgb(0%,78.823531%,36.862746%);stop-opacity:1;"/><stop offset="1" style="stop-color:rgb(0%,54.11765%,25.098041%);stop-opacity:1;"/></linearGradient><linearGradient id="linear4" gradientUnits="userSpaceOnUse" x1="0" y1="0" x2="0" y2="1" gradientTransform="matrix(74.315438,0,0,78.059477,-5.512671,-3.206645)"><stop offset="0" style="stop-color:rgb(0%,78.823531%,36.862746%);stop-opacity:1;"/><stop offset="1" style="stop-color:rgb(0%,54.11765%,25.098041%);stop-opacity:1;"/></linearGradient><linearGradient id="linear5" gradientUnits="userSpaceOnUse" x1="0" y1="0" x2="0" y2="1" gradientTransform="matrix(74.315438,0,0,78.059477,-5.512671,-3.206645)"><stop offset="0" style="stop-color:rgb(0%,78.823531%,36.862746%);stop-opacity:1;"/><stop offset="1" style="stop-color:rgb(0%,54.11765%,25.098041%);stop-opacity:1;"/></linearGradient><linearGradient id="linear6" gradientUnits="userSpaceOnUse" x1="0" y1="0" x2="0" y2="1" gradientTransform="matrix(74.315438,0,0,78.059477,-5.512671,-3.206645)"><stop offset="0" style="stop-color:rgb(0%,78.823531%,36.862746%);stop-opacity:1;"/><stop offset="1" style="stop-color:rgb(0%,54.11765%,25.098041%);stop-opacity:1;"/></linearGradient><filter style="color-interpolation-filters:sRGB;" inkscape:label="Diffuse Light" id="filter184" x="-0.0375" y="-0.0375" width="1.075" height="1.075"><feGaussianBlur in="SourceGraphic" stdDeviation="1" result="blur" id="feGaussianBlur174" /><feDiffuseLighting diffuseConstant="1" surfaceScale="10" lighting-color="rgb(255,255,255)" result="diffuse" id="feDiffuseLighting178"><feDistantLight elevation="8" azimuth="235" id="feDistantLight176" /></feDiffuseLighting><feComposite in="diffuse" in2="diffuse" operator="arithmetic" k1="1" result="composite1" id="feComposite180" /><feComposite in="composite1" in2="SourceGraphic" k1="1" operator="arithmetic" k3="1" result="composite2" id="feComposite182" /></filter></defs><g id="surface1" style="filter:url(#filter184)"><path style=" stroke:none;fill-rule:nonzero;fill:url(#linear0);" d="M 37.046875 32.289062 L 43.503906 39.347656 L 51.699219 44.648438 L 53.121094 32.328125 L 51.699219 20.300781 L 43.351562 24.949219 Z M 37.046875 32.289062 "/><path style=" stroke:none;fill-rule:nonzero;fill:url(#linear1);" d="M 16.539062 6.234375 L 1.886719 21.558594 L 9.222656 23.695312 L 16.539062 21.558594 L 18.636719 14.261719 Z M 16.539062 6.234375 "/><path style=" stroke:none;fill-rule:nonzero;fill:url(#linear2);" d="M 1.886719 43.011719 L 1.886719 54 C 1.886719 56.394531 3.757812 58.332031 6.0625 58.332031 L 16.539062 58.332031 L 18.824219 50.40625 L 16.539062 43.011719 L 9.226562 40.875 Z M 1.886719 43.011719 "/><path style=" stroke:none;fill-rule:nonzero;fill:url(#linear3);" d="M 16.539062 21.558594 L 1.886719 21.558594 L 1.886719 43.015625 L 16.539062 43.015625 Z M 16.539062 21.558594 "/><path style=" stroke:none;fill-rule:nonzero;fill:url(#linear4);" d="M 37.046875 32.289062 L 37.046875 43.011719 L 16.539062 43.011719 L 16.539062 58.332031 L 47.4375 58.332031 C 49.730469 58.332031 51.699219 56.394531 51.699219 54 L 51.699219 44.648438 Z M 37.046875 32.289062 "/><path style=" stroke:none;fill-rule:nonzero;fill:url(#linear5);" d="M 60.226562 12.851562 L 51.699219 20.289062 L 51.699219 44.644531 L 60.269531 51.75 C 61.554688 52.839844 63.421875 51.847656 63.421875 50.082031 L 63.421875 14.480469 C 63.421875 12.691406 61.507812 11.710938 60.226562 12.851562 Z M 60.226562 12.851562 "/><path style=" stroke:none;fill-rule:nonzero;fill:url(#linear6);" d="M 47.523438 6.234375 L 16.539062 6.234375 L 16.539062 21.558594 L 37.046875 21.558594 L 37.046875 32.289062 L 51.699219 20.289062 L 51.699219 10.582031 C 51.699219 8.171875 49.832031 6.234375 47.523438 6.234375 Z M 47.523438 6.234375 "/></g></svg>
