<svg width="64" height="64" viewBox="0 0 64 64" version="1.1" xmlns:inkscape="http://www.inkscape.org/namespaces/inkscape"><defs><linearGradient id="linear0" gradientUnits="userSpaceOnUse" x1="0" y1="0" x2="0" y2="1" gradientTransform="matrix(67.100164,0,0,70.766032,-1.458734,-3.267597)"><stop offset="0" style="stop-color:rgb(41.960785%,64.313728%,100%);stop-opacity:1;"/><stop offset="1" style="stop-color:rgb(0%,43.137255%,100%);stop-opacity:1;"/></linearGradient><linearGradient id="linear1" gradientUnits="userSpaceOnUse" x1="0" y1="0" x2="0" y2="1" gradientTransform="matrix(67.100164,0,0,70.766032,-1.458734,-3.267597)"><stop offset="0" style="stop-color:rgb(41.960785%,64.313728%,100%);stop-opacity:1;"/><stop offset="1" style="stop-color:rgb(0%,43.137255%,100%);stop-opacity:1;"/></linearGradient><filter style="color-interpolation-filters:sRGB;" inkscape:label="Diffuse Light" id="filter184" x="-0.0375" y="-0.0375" width="1.075" height="1.075"><feGaussianBlur in="SourceGraphic" stdDeviation="1" result="blur" id="feGaussianBlur174" /><feDiffuseLighting diffuseConstant="1" surfaceScale="10" lighting-color="rgb(255,255,255)" result="diffuse" id="feDiffuseLighting178"><feDistantLight elevation="8" azimuth="235" id="feDistantLight176" /></feDiffuseLighting><feComposite in="diffuse" in2="diffuse" operator="arithmetic" k1="1" result="composite1" id="feComposite180" /><feComposite in="composite1" in2="SourceGraphic" k1="1" operator="arithmetic" k3="1" result="composite2" id="feComposite182" /></filter></defs><g id="surface1" style="filter:url(#filter184)"><path style=" stroke:none;fill-rule:nonzero;fill:url(#linear0);" d="M 15.96875 17.28125 C 8.035156 17.28125 1.59375 24.078125 1.59375 32.460938 C 1.59375 32.992188 1.601562 33.496094 1.652344 34.007812 C 1.769531 37.257812 1.59375 41.953125 5.1875 53.335938 C 8.25 63.03125 10.578125 62.824219 10.578125 62.824219 L 14.171875 60.929688 C 14.171875 60.929688 12.375 57.132812 12.375 53.335938 C 12.375 51.515625 12.78125 49.265625 13.214844 47.40625 C 14.101562 47.585938 15.039062 47.640625 15.96875 47.640625 C 23.902344 47.640625 30.335938 40.847656 30.335938 32.460938 C 30.335938 24.078125 23.902344 17.28125 15.96875 17.28125 "/><path style=" stroke:none;fill-rule:nonzero;fill:url(#linear1);" d="M 48.355469 47.382812 C 56.292969 47.382812 62.71875 40.589844 62.71875 32.203125 C 62.71875 31.675781 62.714844 31.167969 62.667969 30.664062 C 62.550781 27.410156 62.71875 22.71875 59.128906 11.328125 C 56.074219 1.640625 53.738281 1.847656 53.738281 1.847656 L 50.152344 3.742188 C 50.152344 3.742188 51.949219 7.539062 51.949219 11.328125 C 51.949219 13.15625 51.53125 15.40625 51.105469 17.261719 C 50.222656 17.085938 49.289062 17.023438 48.355469 17.023438 C 40.417969 17.023438 33.984375 23.824219 33.984375 32.203125 C 33.984375 40.589844 40.414062 47.382812 48.355469 47.382812 "/></g></svg>
