<svg width="64" height="64" viewBox="0 0 64 64" version="1.1" xmlns:inkscape="http://www.inkscape.org/namespaces/inkscape"><defs><linearGradient id="linear0" gradientUnits="userSpaceOnUse" x1="0" y1="0" x2="0" y2="1" gradientTransform="matrix(74.832687,0,0,72.033658,-5.255117,-3.568076)"><stop offset="0" style="stop-color:rgb(81.960785%,70.980394%,59.215689%);stop-opacity:1;"/><stop offset="1" style="stop-color:rgb(65.098041%,53.725493%,41.568628%);stop-opacity:1;"/></linearGradient><filter style="color-interpolation-filters:sRGB;" inkscape:label="Diffuse Light" id="filter184" x="-0.0375" y="-0.0375" width="1.075" height="1.075"><feGaussianBlur in="SourceGraphic" stdDeviation="1" result="blur" id="feGaussianBlur174" /><feDiffuseLighting diffuseConstant="1" surfaceScale="10" lighting-color="rgb(255,255,255)" result="diffuse" id="feDiffuseLighting178"><feDistantLight elevation="8" azimuth="235" id="feDistantLight176" /></feDiffuseLighting><feComposite in="diffuse" in2="diffuse" operator="arithmetic" k1="1" result="composite1" id="feComposite180" /><feComposite in="composite1" in2="SourceGraphic" k1="1" operator="arithmetic" k3="1" result="composite2" id="feComposite182" /></filter></defs><g id="surface1" style="filter:url(#filter184)"><path style=" stroke:none;fill-rule:nonzero;fill:url(#linear0);" d="M 6.824219 2.59375 L 26.566406 14.597656 L 39.136719 14.597656 L 58.875 2.59375 L 46.632812 2.59375 C 43.308594 3.636719 35.894531 8.40625 32.457031 12.746094 C 28.484375 8.246094 22.117188 3.78125 19.082031 2.59375 L 6.824219 2.59375 M 2.074219 3.191406 L 2.074219 49.433594 L 23.265625 61.164062 L 23.265625 14.921875 Z M 62.40625 3.191406 L 41.199219 14.921875 L 41.199219 61.164062 L 62.40625 49.433594 Z M 26.660156 16.515625 L 26.660156 62.742188 L 37.945312 62.742188 L 37.945312 16.515625 Z M 26.660156 16.515625 "/></g></svg>
