<svg width="64" height="64" viewBox="0 0 64 64" version="1.1" xmlns:inkscape="http://www.inkscape.org/namespaces/inkscape"><defs><linearGradient id="linear0" gradientUnits="userSpaceOnUse" x1="0" y1="128" x2="128" y2="0" gradientTransform="matrix(0.592792,0,0,0.59414,-5.627262,-5.712825)"><stop offset="0" style="stop-color:rgb(0%,96.078432%,86.274511%);stop-opacity:1;"/><stop offset="1" style="stop-color:rgb(0%,54.901963%,49.411765%);stop-opacity:1;"/></linearGradient><filter style="color-interpolation-filters:sRGB;" inkscape:label="Diffuse Light" id="filter184" x="-0.0375" y="-0.0375" width="1.075" height="1.075"><feGaussianBlur in="SourceGraphic" stdDeviation="1" result="blur" id="feGaussianBlur174" /><feDiffuseLighting diffuseConstant="1" surfaceScale="10" lighting-color="rgb(255,255,255)" result="diffuse" id="feDiffuseLighting178"><feDistantLight elevation="8" azimuth="235" id="feDistantLight176" /></feDiffuseLighting><feComposite in="diffuse" in2="diffuse" operator="arithmetic" k1="1" result="composite1" id="feComposite180" /><feComposite in="composite1" in2="SourceGraphic" k1="1" operator="arithmetic" k3="1" result="composite2" id="feComposite182" /></filter></defs><g id="surface1" style="filter:url(#filter184)"><path style=" stroke:none;fill-rule:nonzero;fill:url(#linear0);" d="M 32.300781 1.730469 C 28.789062 1.730469 25.425781 2.34375 22.28125 3.441406 L 44.382812 24.53125 L 44.472656 4.257812 C 40.746094 2.632812 36.621094 1.730469 32.300781 1.730469 Z M 18.78125 4.910156 C 8.71875 9.90625 1.808594 20.296875 1.808594 32.3125 C 1.808594 35.160156 2.195312 37.898438 2.925781 40.519531 L 29.835938 15.453125 Z M 47.9375 6.039062 L 47.769531 42.082031 L 61.183594 42.132812 C 62.230469 39.046875 62.8125 35.753906 62.8125 32.3125 C 62.8125 21.152344 56.847656 11.375 47.9375 6.039062 Z M 16.390625 32.742188 L 4.160156 44.121094 C 6.628906 50.019531 10.886719 54.964844 16.257812 58.304688 Z M 19.796875 45.417969 L 19.722656 60.160156 C 23.554688 61.90625 27.8125 62.894531 32.300781 62.894531 C 44.390625 62.894531 54.855469 55.847656 59.792969 45.621094 Z M 19.796875 45.417969 "/></g></svg>
