<svg width="64" height="64" viewBox="0 0 64 64" version="1.1" xmlns:inkscape="http://www.inkscape.org/namespaces/inkscape"><defs><linearGradient id="linear0" gradientUnits="userSpaceOnUse" x1="0" y1="0" x2="0" y2="1" gradientTransform="matrix(49.565023,0,0,57.500008,7.257818,3.906145)"><stop offset="0" style="stop-color:rgb(87.058824%,86.666667%,56.470591%);stop-opacity:1;"/><stop offset="1" style="stop-color:rgb(67.843139%,67.450982%,38.039216%);stop-opacity:1;"/></linearGradient><filter style="color-interpolation-filters:sRGB;" inkscape:label="Diffuse Light" id="filter184" x="-0.0375" y="-0.0375" width="1.075" height="1.075"><feGaussianBlur in="SourceGraphic" stdDeviation="1" result="blur" id="feGaussianBlur174" /><feDiffuseLighting diffuseConstant="1" surfaceScale="10" lighting-color="rgb(255,255,255)" result="diffuse" id="feDiffuseLighting178"><feDistantLight elevation="8" azimuth="235" id="feDistantLight176" /></feDiffuseLighting><feComposite in="diffuse" in2="diffuse" operator="arithmetic" k1="1" result="composite1" id="feComposite180" /><feComposite in="composite1" in2="SourceGraphic" k1="1" operator="arithmetic" k3="1" result="composite2" id="feComposite182" /></filter></defs><g id="surface1" style="filter:url(#filter184)"><path style=" stroke:none;fill-rule:nonzero;fill:url(#linear0);" d="M 59.539062 7.503906 C 49.910156 18.652344 40.269531 29.785156 30.625 40.917969 C 27.289062 37.046875 23.933594 33.203125 20.609375 29.320312 C 14.042969 36.941406 7.460938 44.546875 0.871094 52.136719 C 1.925781 54.316406 3.160156 56.375 4.53125 58.285156 C 9.878906 52.078125 15.25 45.890625 20.609375 39.703125 C 23.945312 43.570312 27.300781 47.421875 30.625 51.296875 C 41.414062 38.808594 52.214844 26.335938 63.023438 13.875 C 62.03125 11.625 60.863281 9.488281 59.539062 7.503906 "/></g></svg>
