<svg width="64" height="64" viewBox="0 0 64 64" version="1.1" xmlns:inkscape="http://www.inkscape.org/namespaces/inkscape"><defs><linearGradient id="linear0" gradientUnits="userSpaceOnUse" x1="0" y1="0" x2="0" y2="1" gradientTransform="matrix(60.249408,0,0,59.550829,2.817539,3.425078)"><stop offset="0" style="stop-color:rgb(61.176473%,69.803923%,85.09804%);stop-opacity:1;"/><stop offset="1" style="stop-color:rgb(44.313726%,52.156866%,65.882355%);stop-opacity:1;"/></linearGradient><filter style="color-interpolation-filters:sRGB;" inkscape:label="Diffuse Light" id="filter184" x="-0.0375" y="-0.0375" width="1.075" height="1.075"><feGaussianBlur in="SourceGraphic" stdDeviation="1" result="blur" id="feGaussianBlur174" /><feDiffuseLighting diffuseConstant="1" surfaceScale="10" lighting-color="rgb(255,255,255)" result="diffuse" id="feDiffuseLighting178"><feDistantLight elevation="8" azimuth="235" id="feDistantLight176" /></feDiffuseLighting><feComposite in="diffuse" in2="diffuse" operator="arithmetic" k1="1" result="composite1" id="feComposite180" /><feComposite in="composite1" in2="SourceGraphic" k1="1" operator="arithmetic" k3="1" result="composite2" id="feComposite182" /></filter></defs><g id="surface1" style="filter:url(#filter184)"><path style=" stroke:none;fill-rule:evenodd;fill:url(#linear0);" d="M 32.300781 1.125 C 42.613281 1.332031 50.476562 6.515625 54.015625 11.152344 L 31.71875 27.292969 L 24.789062 1.847656 C 27.40625 1.292969 29.914062 1.078125 32.300781 1.125 M 23.195312 7.507812 L 29.800781 32.679688 L 54.605469 46.742188 C 50.015625 55.871094 40.453125 62.148438 29.398438 62.148438 C 13.875 62.148438 1.289062 49.765625 1.289062 34.484375 C 1.289062 21.308594 10.65625 10.285156 23.195312 7.507812 M 55.984375 14.953125 C 65.730469 26.574219 63.1875 39.507812 58.757812 46.273438 L 33.671875 31.074219 L 55.984375 14.957031 "/></g></svg>
