<svg width="64" height="64" viewBox="0 0 64 64" version="1.1" xmlns:inkscape="http://www.inkscape.org/namespaces/inkscape"><defs><linearGradient id="linear0" gradientUnits="userSpaceOnUse" x1="0" y1="0" x2="0" y2="1" gradientTransform="matrix(59.617653,0,0,39.15064,3.425181,10.977522)"><stop offset="0" style="stop-color:rgb(100%,73.333335%,0%);stop-opacity:1;"/><stop offset="1" style="stop-color:rgb(70.19608%,51.372552%,0%);stop-opacity:1;"/></linearGradient><filter style="color-interpolation-filters:sRGB;" inkscape:label="Diffuse Light" id="filter184" x="-0.0375" y="-0.0375" width="1.075" height="1.075"><feGaussianBlur in="SourceGraphic" stdDeviation="1" result="blur" id="feGaussianBlur174" /><feDiffuseLighting diffuseConstant="1" surfaceScale="10" lighting-color="rgb(255,255,255)" result="diffuse" id="feDiffuseLighting178"><feDistantLight elevation="8" azimuth="235" id="feDistantLight176" /></feDiffuseLighting><feComposite in="diffuse" in2="diffuse" operator="arithmetic" k1="1" result="composite1" id="feComposite180" /><feComposite in="composite1" in2="SourceGraphic" k1="1" operator="arithmetic" k3="1" result="composite2" id="feComposite182" /></filter></defs><g id="surface1" style="filter:url(#filter184)"><path style=" stroke:none;fill-rule:nonzero;fill:url(#linear0);" d="M 31.660156 1.472656 C 27.886719 1.472656 24.152344 2.269531 20.660156 3.789062 L 24.898438 11.671875 L 43.253906 11.671875 L 51.65625 27.992188 L 60.34375 27.992188 C 58.414062 12.820312 46.160156 1.480469 31.660156 1.472656 Z M 13.96875 7.863281 C 6.855469 13.652344 2.6875 22.59375 2.683594 32.070312 C 2.679688 48.96875 15.660156 62.675781 31.660156 62.664062 C 46.160156 62.65625 58.414062 51.320312 60.347656 36.152344 L 51.65625 36.152344 L 43.257812 52.46875 L 20.070312 52.46875 L 9.445312 32.070312 L 18.140625 15.753906 Z M 31.660156 21.871094 C 26.328125 21.871094 22 26.4375 22 32.070312 C 22 37.707031 26.328125 42.269531 31.660156 42.269531 C 36.996094 42.269531 41.324219 37.707031 41.324219 32.070312 C 41.324219 26.4375 36.996094 21.871094 31.660156 21.871094 Z M 31.660156 21.871094 "/></g></svg>
