<svg width="64" height="64" viewBox="0 0 64 64" version="1.1" xmlns:inkscape="http://www.inkscape.org/namespaces/inkscape"><defs><linearGradient id="linear0" gradientUnits="userSpaceOnUse" x1="0" y1="0" x2="0" y2="1" gradientTransform="matrix(64,0,0,64,0,0)"><stop offset="0" style="stop-color:rgb(82.352942%,61.176473%,100%);stop-opacity:1;"/><stop offset="1" style="stop-color:rgb(66.666669%,0%,100%);stop-opacity:1;"/></linearGradient><filter style="color-interpolation-filters:sRGB;" inkscape:label="Diffuse Light" id="filter184" x="-0.0375" y="-0.0375" width="1.075" height="1.075"><feGaussianBlur in="SourceGraphic" stdDeviation="1" result="blur" id="feGaussianBlur174" /><feDiffuseLighting diffuseConstant="1" surfaceScale="10" lighting-color="rgb(255,255,255)" result="diffuse" id="feDiffuseLighting178"><feDistantLight elevation="8" azimuth="235" id="feDistantLight176" /></feDiffuseLighting><feComposite in="diffuse" in2="diffuse" operator="arithmetic" k1="1" result="composite1" id="feComposite180" /><feComposite in="composite1" in2="SourceGraphic" k1="1" operator="arithmetic" k3="1" result="composite2" id="feComposite182" /></filter></defs><g id="surface1" style="filter:url(#filter184)"><path style=" stroke:none;fill-rule:nonzero;fill:url(#linear0);" d="M 9.703125 32.003906 L 0.851562 40.851562 C 0.308594 41.394531 0 42.136719 0 42.90625 L 0 61.09375 C 0 62.695312 1.304688 64 2.90625 64 L 21.09375 64 C 21.863281 64 22.601562 63.695312 23.148438 63.152344 L 32 54.300781 L 40.851562 63.152344 C 41.398438 63.695312 42.136719 64 42.90625 64 L 61.09375 64 C 62.695312 64 64 62.695312 64 61.09375 L 64 42.90625 C 64 42.136719 63.691406 41.394531 63.148438 40.851562 L 54.296875 32.003906 L 63.148438 23.152344 C 63.691406 22.605469 64 21.863281 64 21.09375 L 64 2.90625 C 64 1.304688 62.695312 0 61.09375 0 L 42.90625 0 C 42.136719 0 41.394531 0.308594 40.851562 0.851562 L 32 9.703125 L 23.148438 0.851562 C 22.605469 0.308594 21.863281 0 21.09375 0 L 2.90625 0 C 1.304688 0 0 1.304688 0 2.90625 L 0 21.09375 C 0 21.863281 0.308594 22.605469 0.851562 23.152344 Z M 9.703125 32.003906 "/></g></svg>
