<svg width="64" height="64" viewBox="0 0 64 64" version="1.1" xmlns:inkscape="http://www.inkscape.org/namespaces/inkscape"><defs><linearGradient id="linear0" gradientUnits="userSpaceOnUse" x1="0" y1="0" x2="0" y2="1" gradientTransform="matrix(77.927765,0,0,41.938096,-5.525157,9.855699)"><stop offset="0" style="stop-color:rgb(82.352942%,61.176473%,100%);stop-opacity:1;"/><stop offset="1" style="stop-color:rgb(66.666669%,0%,100%);stop-opacity:1;"/></linearGradient><filter style="color-interpolation-filters:sRGB;" inkscape:label="Diffuse Light" id="filter184" x="-0.0375" y="-0.0375" width="1.075" height="1.075"><feGaussianBlur in="SourceGraphic" stdDeviation="1" result="blur" id="feGaussianBlur174" /><feDiffuseLighting diffuseConstant="1" surfaceScale="10" lighting-color="rgb(255,255,255)" result="diffuse" id="feDiffuseLighting178"><feDistantLight elevation="8" azimuth="235" id="feDistantLight176" /></feDiffuseLighting><feComposite in="diffuse" in2="diffuse" operator="arithmetic" k1="1" result="composite1" id="feComposite180" /><feComposite in="composite1" in2="SourceGraphic" k1="1" operator="arithmetic" k3="1" result="composite2" id="feComposite182" /></filter></defs><g id="surface1" style="filter:url(#filter184)"><path style=" stroke:none;fill-rule:nonzero;fill:url(#linear0);" d="M 1.898438 5.195312 L 1.898438 27.671875 C 1.898438 33.347656 5.949219 37.796875 10.167969 41.15625 L 10.167969 8.746094 L 41.863281 8.746094 C 44.148438 8.746094 45.996094 7.152344 45.996094 5.195312 C 45.996094 3.238281 44.148438 1.644531 41.863281 1.644531 Z M 18.4375 19.394531 L 18.4375 41.867188 C 18.4375 48.511719 24.003906 53.460938 28.855469 56.984375 C 33.707031 60.511719 38.527344 62.730469 38.527344 62.730469 C 39.75 63.296875 41.222656 63.296875 42.441406 62.730469 C 42.441406 62.730469 47.265625 60.519531 52.117188 56.984375 C 56.964844 53.460938 62.535156 48.511719 62.535156 41.867188 L 62.535156 19.394531 C 62.535156 17.429688 60.683594 15.84375 58.398438 15.84375 Z M 26.703125 22.9375 L 54.269531 22.9375 L 54.269531 41.867188 L 40.484375 55.324219 L 34.199219 51.589844 C 30.09375 48.609375 26.703125 44.679688 26.703125 41.867188 Z M 26.703125 22.9375 "/></g></svg>
