<svg width="64" height="64" viewBox="0 0 64 64" version="1.1" xmlns:inkscape="http://www.inkscape.org/namespaces/inkscape"><defs><linearGradient id="linear0" gradientUnits="userSpaceOnUse" x1="0" y1="0" x2="0" y2="1" gradientTransform="matrix(65.960048,0,0,41.64766,-0.757404,9.035263)"><stop offset="0" style="stop-color:rgb(82.352942%,61.176473%,100%);stop-opacity:1;"/><stop offset="1" style="stop-color:rgb(66.666669%,0%,100%);stop-opacity:1;"/></linearGradient><filter style="color-interpolation-filters:sRGB;" inkscape:label="Diffuse Light" id="filter184" x="-0.0375" y="-0.0375" width="1.075" height="1.075"><feGaussianBlur in="SourceGraphic" stdDeviation="1" result="blur" id="feGaussianBlur174" /><feDiffuseLighting diffuseConstant="1" surfaceScale="10" lighting-color="rgb(255,255,255)" result="diffuse" id="feDiffuseLighting178"><feDistantLight elevation="8" azimuth="235" id="feDistantLight176" /></feDiffuseLighting><feComposite in="diffuse" in2="diffuse" operator="arithmetic" k1="1" result="composite1" id="feComposite180" /><feComposite in="composite1" in2="SourceGraphic" k1="1" operator="arithmetic" k3="1" result="composite2" id="feComposite182" /></filter></defs><g id="surface1" style="filter:url(#filter184)"><path style=" stroke:none;fill-rule:nonzero;fill:url(#linear0);" d="M 32.664062 1.179688 C 47.308594 1.179688 62.804688 13.042969 62.804688 31.648438 C 62.804688 50.179688 47.839844 62.527344 32.867188 62.527344 C 15.050781 62.527344 2.320312 49.300781 1.707031 32.878906 C 1.707031 16.003906 13.5625 1.179688 32.664062 1.179688 M 56.082031 32.0625 C 56.664062 16.703125 44.089844 7.726562 33.074219 7.726562 C 22.726562 7.726562 12.503906 11.917969 8.226562 27.375 C 7.464844 30.238281 7.757812 35.1875 9.308594 36.394531 C 11.367188 38.035156 15.621094 36.308594 18.308594 32.738281 C 21.808594 27.480469 22.019531 20.710938 20.960938 14.613281 C 20.773438 13.898438 20.820312 13.867188 21.847656 14.089844 C 30.851562 16.480469 37.082031 23.78125 42.621094 30.816406 C 46.691406 36.953125 55.410156 44.105469 56.082031 32.0625 "/></g></svg>
