<svg width="64" height="64" viewBox="0 0 64 64" version="1.1" xmlns:inkscape="http://www.inkscape.org/namespaces/inkscape"><defs><linearGradient id="linear0" gradientUnits="userSpaceOnUse" x1="0" y1="0" x2="0" y2="1" gradientTransform="matrix(61.581369,0,0,41.84676,2.008576,9.353266)"><stop offset="0" style="stop-color:rgb(41.960785%,64.313728%,100%);stop-opacity:1;"/><stop offset="1" style="stop-color:rgb(0%,43.137255%,100%);stop-opacity:1;"/></linearGradient><filter style="color-interpolation-filters:sRGB;" inkscape:label="Diffuse Light" id="filter184" x="-0.0375" y="-0.0375" width="1.075" height="1.075"><feGaussianBlur in="SourceGraphic" stdDeviation="1" result="blur" id="feGaussianBlur174" /><feDiffuseLighting diffuseConstant="1" surfaceScale="10" lighting-color="rgb(255,255,255)" result="diffuse" id="feDiffuseLighting178"><feDistantLight elevation="8" azimuth="235" id="feDistantLight176" /></feDiffuseLighting><feComposite in="diffuse" in2="diffuse" operator="arithmetic" k1="1" result="composite1" id="feComposite180" /><feComposite in="composite1" in2="SourceGraphic" k1="1" operator="arithmetic" k3="1" result="composite2" id="feComposite182" /></filter></defs><g id="surface1" style="filter:url(#filter184)"><path style=" stroke:none;fill-rule:nonzero;fill:url(#linear0);" d="M 32.507812 3.277344 L 1.6875 17.800781 L 1.6875 46.84375 L 32.507812 61.367188 L 63.328125 46.84375 L 63.328125 17.800781 Z M 27.765625 11.75 L 27.765625 29.902344 L 18.28125 29.902344 L 18.28125 15.523438 L 27.765625 11.75 M 37.246094 11.75 L 46.730469 15.523438 L 46.730469 29.902344 L 37.246094 29.902344 L 37.246094 11.75 M 13.539062 17.386719 L 13.539062 29.902344 L 6.425781 29.902344 L 6.425781 20.21875 Z M 51.472656 17.386719 L 58.585938 20.21875 L 58.585938 29.902344 L 51.472656 29.902344 Z M 6.425781 34.742188 L 13.539062 34.742188 L 13.539062 47.257812 L 6.425781 44.425781 L 6.425781 34.742188 M 18.28125 34.742188 L 27.765625 34.742188 L 27.765625 52.894531 L 18.28125 49.117188 L 18.28125 34.742188 M 37.246094 34.742188 L 46.730469 34.742188 L 46.730469 49.117188 L 37.246094 52.894531 L 37.246094 34.742188 M 51.472656 34.742188 L 58.585938 34.742188 L 58.585938 44.425781 L 51.472656 47.257812 L 51.472656 34.742188 "/></g></svg>
