<?xml version="1.0" encoding="UTF-8" standalone="no"?><svg width="64" height="64" viewBox="0 0 64 64" version="1.1" id="svg325" sodipodi:docname="gtk-select-color.svg" inkscape:version="1.2.2 (b0a8486541, 2022-12-01)" xmlns:inkscape="http://www.inkscape.org/namespaces/inkscape" xmlns:sodipodi="http://sodipodi.sourceforge.net/DTD/sodipodi-0.dtd" xmlns:xlink="http://www.w3.org/1999/xlink" xmlns="http://www.w3.org/2000/svg" xmlns:svg="http://www.w3.org/2000/svg"> <sodipodi:namedview id="namedview327" pagecolor="#ffffff" bordercolor="#000000" borderopacity="0.25" inkscape:showpageshadow="2" inkscape:pageopacity="0.0" inkscape:pagecheckerboard="0" inkscape:deskcolor="#d1d1d1" showgrid="false" inkscape:zoom="3.6875" inkscape:cx="32" inkscape:cy="32.135593" inkscape:window-width="1432" inkscape:window-height="844" inkscape:window-x="0" inkscape:window-y="0" inkscape:window-maximized="1" inkscape:current-layer="svg325" /> <defs id="defs314"> <linearGradient id="linear0" gradientUnits="userSpaceOnUse" x1="0" y1="0" x2="0" y2="1" gradientTransform="matrix(31.960938,0,0,31.960938,16.007812,2)"> <stop offset="0" style="stop-color:#d29cff;stop-opacity:1;" id="stop280" /> <stop offset="1" style="stop-color:#aa00ff;stop-opacity:1;" id="stop282" /> </linearGradient> <filter id="alpha" filterUnits="objectBoundingBox" x="0" y="0" width="1" height="1"> <feColorMatrix type="matrix" in="SourceGraphic" values="0 0 0 0 1 0 0 0 0 1 0 0 0 0 1 0 0 0 1 0" id="feColorMatrix285" /> </filter> <mask id="mask0"> <g filter="url(#alpha)" id="g290"> <rect x="0" y="0" width="64" height="64" style="fill:rgb(0%,0%,0%);fill-opacity:0.6;stroke:none;" id="rect288" /> </g> </mask> <linearGradient id="linear1" gradientUnits="userSpaceOnUse" x1="0" y1="0" x2="0" y2="1" gradientTransform="matrix(27.75,0,0,27.75,2.105469,32.121094)"> <stop offset="0" style="stop-color:#d29cff;stop-opacity:1;" id="stop293" /> <stop offset="1" style="stop-color:#aa00ff;stop-opacity:1;" id="stop295" /> </linearGradient> <clipPath id="clip1"> <rect x="0" y="0" width="64" height="64" id="rect298" /> </clipPath> <g id="surface5" clip-path="url(#clip1)"> <path style=" stroke:none;fill-rule:nonzero;fill:url(#linear1);" d="M 29.855469 45.996094 C 29.855469 53.65625 23.644531 59.871094 15.980469 59.871094 C 8.316406 59.871094 2.105469 53.65625 2.105469 45.996094 C 2.105469 38.332031 8.316406 32.121094 15.980469 32.121094 C 23.644531 32.121094 29.855469 38.332031 29.855469 45.996094 Z M 29.855469 45.996094 " id="path301" /> </g> <linearGradient id="linear2" gradientUnits="userSpaceOnUse" x1="0" y1="0" x2="0" y2="1" gradientTransform="matrix(31.960938,0,0,31.960938,0,30.015625)"> <stop offset="0" style="stop-color:#d29cff;stop-opacity:1;" id="stop304" /> <stop offset="1" style="stop-color:#aa00ff;stop-opacity:1;" id="stop306" /> </linearGradient> <linearGradient id="linear3" gradientUnits="userSpaceOnUse" x1="0" y1="0" x2="0" y2="1" gradientTransform="matrix(32.011719,0,0,32.011719,31.988281,29.988281)"> <stop offset="0" style="stop-color:#d29cff;stop-opacity:1;" id="stop309" /> <stop offset="1" style="stop-color:#aa00ff;stop-opacity:1;" id="stop311" /> </linearGradient> <filter style="color-interpolation-filters:sRGB;" inkscape:label="Diffuse Light" id="filter1711" x="-0.0375" y="-0.04" width="1.075" height="1.08"> <feGaussianBlur in="SourceGraphic" stdDeviation="1" result="blur" id="feGaussianBlur1701" /> <feDiffuseLighting diffuseConstant="1" surfaceScale="10" lighting-color="rgb(255,255,255)" result="diffuse" id="feDiffuseLighting1705"> <feDistantLight elevation="8" azimuth="235" id="feDistantLight1703" /> </feDiffuseLighting> <feComposite in="diffuse" in2="diffuse" operator="arithmetic" k1="1" result="composite1" id="feComposite1707" /> <feComposite in="composite1" in2="SourceGraphic" k1="1" operator="arithmetic" k3="1" result="composite2" id="feComposite1709" /> </filter> </defs> <g id="surface1" style="filter:url(#filter1711)"> <path style=" stroke:none;fill-rule:nonzero;fill:url(#linear0);" d="M 31.988281 2 C 23.171875 2 16.007812 9.164062 16.007812 17.980469 C 16.007812 26.796875 23.171875 33.960938 31.988281 33.960938 C 40.804688 33.960938 47.96875 26.796875 47.96875 17.980469 C 47.96875 9.164062 40.804688 2 31.988281 2 Z M 31.988281 6.210938 C 38.5 6.210938 43.757812 11.46875 43.757812 17.980469 C 43.757812 24.488281 38.5 29.75 31.988281 29.75 C 25.480469 29.75 20.222656 24.488281 20.222656 17.980469 C 20.222656 11.46875 25.480469 6.210938 31.988281 6.210938 Z M 31.988281 6.210938 " id="path316" /> <use xlink:href="#surface5" mask="url(#mask0)" id="use318" /> <path style=" stroke:none;fill-rule:nonzero;fill:url(#linear2);" d="M 15.980469 30.015625 C 7.164062 30.015625 0 37.179688 0 45.996094 C 0 54.8125 7.164062 61.976562 15.980469 61.976562 C 24.796875 61.976562 31.960938 54.8125 31.960938 45.996094 C 31.960938 37.179688 24.796875 30.015625 15.980469 30.015625 Z M 15.980469 34.226562 C 22.488281 34.226562 27.75 39.484375 27.75 45.996094 C 27.75 52.503906 22.488281 57.761719 15.980469 57.761719 C 9.472656 57.761719 4.210938 52.503906 4.210938 45.996094 C 4.210938 39.484375 9.472656 34.226562 15.980469 34.226562 Z M 15.980469 34.226562 " id="path320" /> <path style=" stroke:none;fill-rule:nonzero;fill:url(#linear3);" d="M 64 45.996094 C 64 54.835938 56.835938 62 47.996094 62 C 39.15625 62 31.988281 54.835938 31.988281 45.996094 C 31.988281 37.15625 39.15625 29.988281 47.996094 29.988281 C 56.835938 29.988281 64 37.15625 64 45.996094 Z M 64 45.996094 " id="path322" /> </g></svg>
