<svg width="64" height="64" viewBox="0 0 64 64" version="1.1" xmlns:inkscape="http://www.inkscape.org/namespaces/inkscape"><defs><linearGradient id="linear0" gradientUnits="userSpaceOnUse" x1="0" y1="0" x2="0" y2="1" gradientTransform="matrix(61.564281,0,0,61.665377,0.0160309,9.196677)"><stop offset="0" style="stop-color:rgb(92.941177%,83.529413%,72.549021%);stop-opacity:1;"/><stop offset="1" style="stop-color:rgb(81.960785%,71.372551%,59.215689%);stop-opacity:1;"/></linearGradient><linearGradient id="linear1" gradientUnits="userSpaceOnUse" x1="0" y1="0" x2="0" y2="1" gradientTransform="matrix(61.564281,0,0,61.665377,0.0160309,9.196677)"><stop offset="0" style="stop-color:rgb(92.941177%,83.529413%,72.549021%);stop-opacity:1;"/><stop offset="1" style="stop-color:rgb(81.960785%,71.372551%,59.215689%);stop-opacity:1;"/></linearGradient><linearGradient id="linear2" gradientUnits="userSpaceOnUse" x1="0" y1="0" x2="0" y2="1" gradientTransform="matrix(61.564281,0,0,61.665377,0.0160309,9.196677)"><stop offset="0" style="stop-color:rgb(92.941177%,83.529413%,72.549021%);stop-opacity:1;"/><stop offset="1" style="stop-color:rgb(81.960785%,71.372551%,59.215689%);stop-opacity:1;"/></linearGradient><filter style="color-interpolation-filters:sRGB;" inkscape:label="Diffuse Light" id="filter184" x="-0.0375" y="-0.0375" width="1.075" height="1.075"><feGaussianBlur in="SourceGraphic" stdDeviation="1" result="blur" id="feGaussianBlur174" /><feDiffuseLighting diffuseConstant="1" surfaceScale="10" lighting-color="rgb(255,255,255)" result="diffuse" id="feDiffuseLighting178"><feDistantLight elevation="8" azimuth="235" id="feDistantLight176" /></feDiffuseLighting><feComposite in="diffuse" in2="diffuse" operator="arithmetic" k1="1" result="composite1" id="feComposite180" /><feComposite in="composite1" in2="SourceGraphic" k1="1" operator="arithmetic" k3="1" result="composite2" id="feComposite182" /></filter></defs><g id="surface1" style="filter:url(#filter184)"><path style=" stroke:none;fill-rule:nonzero;fill:url(#linear0);" d="M 47.84375 34.738281 L 47.84375 42.859375 L 32.160156 34.738281 L 32.160156 42.859375 L 16.472656 34.738281 L 16.472656 42.859375 L 0.789062 34.738281 L 0.789062 61.121094 L 63.53125 61.121094 L 63.53125 42.859375 Z M 20.832031 57.789062 L 5.148438 57.789062 L 5.148438 48.597656 L 20.832031 48.597656 Z M 39.96875 57.789062 L 24.347656 57.789062 L 24.347656 48.597656 L 39.96875 48.597656 Z M 59.175781 57.789062 L 43.484375 57.789062 L 43.484375 48.597656 L 59.175781 48.597656 Z M 59.175781 57.789062 "/><path style=" stroke:none;fill-rule:nonzero;fill:url(#linear1);" d="M 41.980469 9.464844 L 37.738281 9.464844 L 36.511719 35.683594 L 43.378906 39.296875 Z M 41.980469 9.464844 "/><path style=" stroke:none;fill-rule:nonzero;fill:url(#linear2);" d="M 26.410156 4.617188 L 22.054688 4.617188 L 20.832031 35.683594 L 27.6875 39.296875 Z M 26.410156 4.617188 "/></g></svg>
