<svg width="64" height="64" viewBox="0 0 64 64" version="1.1" xmlns:inkscape="http://www.inkscape.org/namespaces/inkscape"><defs><linearGradient id="linear0" gradientUnits="userSpaceOnUse" x1="0" y1="0" x2="0" y2="1" gradientTransform="matrix(61.418115,0,0,37.786251,0.847181,13.447566)"><stop offset="0" style="stop-color:rgb(100%,56.862748%,82.745099%);stop-opacity:1;"/><stop offset="1" style="stop-color:rgb(100%,0%,60.000002%);stop-opacity:1;"/></linearGradient><linearGradient id="linear1" gradientUnits="userSpaceOnUse" x1="0" y1="0" x2="0" y2="1" gradientTransform="matrix(61.418115,0,0,37.786251,0.847181,13.447566)"><stop offset="0" style="stop-color:rgb(100%,56.862748%,82.745099%);stop-opacity:1;"/><stop offset="1" style="stop-color:rgb(100%,0%,60.000002%);stop-opacity:1;"/></linearGradient><linearGradient id="linear2" gradientUnits="userSpaceOnUse" x1="0" y1="0" x2="0" y2="1" gradientTransform="matrix(61.418115,0,0,37.786251,0.847181,13.447566)"><stop offset="0" style="stop-color:rgb(100%,56.862748%,82.745099%);stop-opacity:1;"/><stop offset="1" style="stop-color:rgb(100%,0%,60.000002%);stop-opacity:1;"/></linearGradient><linearGradient id="linear3" gradientUnits="userSpaceOnUse" x1="0" y1="0" x2="0" y2="1" gradientTransform="matrix(61.418115,0,0,37.786251,0.847181,13.447566)"><stop offset="0" style="stop-color:rgb(100%,56.862748%,82.745099%);stop-opacity:1;"/><stop offset="1" style="stop-color:rgb(100%,0%,60.000002%);stop-opacity:1;"/></linearGradient><linearGradient id="linear4" gradientUnits="userSpaceOnUse" x1="0" y1="0" x2="0" y2="1" gradientTransform="matrix(61.418115,0,0,37.786251,0.847181,13.447566)"><stop offset="0" style="stop-color:rgb(100%,56.862748%,82.745099%);stop-opacity:1;"/><stop offset="1" style="stop-color:rgb(100%,0%,60.000002%);stop-opacity:1;"/></linearGradient><linearGradient id="linear5" gradientUnits="userSpaceOnUse" x1="0" y1="0" x2="0" y2="1" gradientTransform="matrix(61.418115,0,0,37.786251,0.847181,13.447566)"><stop offset="0" style="stop-color:rgb(100%,56.862748%,82.745099%);stop-opacity:1;"/><stop offset="1" style="stop-color:rgb(100%,0%,60.000002%);stop-opacity:1;"/></linearGradient><filter style="color-interpolation-filters:sRGB;" inkscape:label="Diffuse Light" id="filter184" x="-0.0375" y="-0.0375" width="1.075" height="1.075"><feGaussianBlur in="SourceGraphic" stdDeviation="1" result="blur" id="feGaussianBlur174" /><feDiffuseLighting diffuseConstant="1" surfaceScale="10" lighting-color="rgb(255,255,255)" result="diffuse" id="feDiffuseLighting178"><feDistantLight elevation="8" azimuth="235" id="feDistantLight176" /></feDiffuseLighting><feComposite in="diffuse" in2="diffuse" operator="arithmetic" k1="1" result="composite1" id="feComposite180" /><feComposite in="composite1" in2="SourceGraphic" k1="1" operator="arithmetic" k3="1" result="composite2" id="feComposite182" /></filter></defs><g id="surface1" style="filter:url(#filter184)"><path style=" stroke:none;fill-rule:nonzero;fill:url(#linear0);" d="M 27.167969 1.992188 C 25.019531 1.992188 22.976562 2.761719 21.324219 4.101562 L 22.398438 19.613281 L 31.949219 23.46875 L 43.898438 19.613281 L 42.574219 4.101562 C 40.921875 2.761719 38.878906 1.992188 36.730469 1.992188 Z M 27.167969 1.992188 "/><path style=" stroke:none;fill-rule:nonzero;fill:url(#linear1);" d="M 21.324219 4.101562 C 20.355469 4.882812 19.535156 5.867188 18.894531 7.015625 L 2.175781 37.488281 C 1.359375 38.972656 0.9375 40.617188 0.894531 42.277344 L 10.449219 47.316406 L 21.625 42.277344 L 31.949219 23.46875 Z M 21.324219 4.101562 "/><path style=" stroke:none;fill-rule:nonzero;fill:url(#linear2);" d="M 0.894531 42.277344 C 0.859375 43.941406 1.203125 45.605469 1.945312 47.125 L 6.726562 56.949219 C 7.699219 58.953125 9.257812 60.503906 11.113281 61.433594 L 22.398438 54.867188 L 21.625 42.277344 Z M 0.894531 42.277344 "/><path style=" stroke:none;fill-rule:nonzero;fill:url(#linear3);" d="M 21.625 42.277344 L 11.113281 61.433594 C 12.378906 62.070312 13.78125 62.425781 15.230469 62.425781 L 48.671875 62.425781 C 50.128906 62.425781 51.519531 62.070312 52.785156 61.433594 L 53.453125 49.832031 L 42.273438 42.277344 Z M 21.625 42.277344 "/><path style=" stroke:none;fill-rule:nonzero;fill:url(#linear4);" d="M 42.273438 42.277344 L 52.785156 61.433594 C 54.640625 60.496094 56.203125 58.953125 57.175781 56.949219 L 61.957031 47.125 C 62.699219 45.605469 63.039062 43.941406 63.007812 42.277344 L 51.0625 34.726562 Z M 42.273438 42.277344 "/><path style=" stroke:none;fill-rule:nonzero;fill:url(#linear5);" d="M 42.574219 4.101562 L 31.949219 23.46875 L 42.273438 42.277344 L 63.007812 42.277344 C 62.964844 40.617188 62.535156 38.972656 61.726562 37.488281 L 45.003906 7.015625 C 44.375 5.867188 43.539062 4.882812 42.574219 4.101562 Z M 42.574219 4.101562 "/></g></svg>
