<svg width="64" height="64" viewBox="0 0 64 64" version="1.1" xmlns:inkscape="http://www.inkscape.org/namespaces/inkscape"><defs><linearGradient id="linear0" gradientUnits="userSpaceOnUse" x1="0" y1="0" x2="0" y2="1" gradientTransform="matrix(67.651381,0,0,40.573096,-1.205234,10.689845)"><stop offset="0" style="stop-color:rgb(100%,73.333335%,0%);stop-opacity:1;"/><stop offset="1" style="stop-color:rgb(70.19608%,51.372552%,0%);stop-opacity:1;"/></linearGradient><filter style="color-interpolation-filters:sRGB;" inkscape:label="Diffuse Light" id="filter184" x="-0.0375" y="-0.0375" width="1.075" height="1.075"><feGaussianBlur in="SourceGraphic" stdDeviation="1" result="blur" id="feGaussianBlur174" /><feDiffuseLighting diffuseConstant="1" surfaceScale="10" lighting-color="rgb(255,255,255)" result="diffuse" id="feDiffuseLighting178"><feDistantLight elevation="8" azimuth="235" id="feDistantLight176" /></feDiffuseLighting><feComposite in="diffuse" in2="diffuse" operator="arithmetic" k1="1" result="composite1" id="feComposite180" /><feComposite in="composite1" in2="SourceGraphic" k1="1" operator="arithmetic" k3="1" result="composite2" id="feComposite182" /></filter></defs><g id="surface1" style="filter:url(#filter184)"><path style=" stroke:none;fill-rule:nonzero;fill:url(#linear0);" d="M 6.390625 1.570312 C 3.59375 1.570312 1.351562 3.855469 1.351562 6.703125 L 1.351562 58.027344 C 1.351562 60.875 3.601562 63.15625 6.390625 63.15625 L 56.773438 63.15625 C 59.570312 63.15625 61.8125 60.871094 61.8125 58.027344 L 61.8125 6.703125 C 61.8125 3.851562 59.566406 1.570312 56.773438 1.570312 Z M 8.914062 9.269531 L 54.257812 9.269531 L 54.257812 55.457031 L 8.914062 55.457031 Z M 16.46875 14.398438 L 16.46875 50.328125 L 24.027344 50.328125 L 24.027344 34.929688 L 39.140625 34.929688 L 39.140625 50.328125 L 46.695312 50.328125 L 46.695312 14.398438 L 39.140625 14.398438 L 39.140625 29.796875 L 24.027344 29.796875 L 24.027344 14.398438 Z M 16.46875 14.398438 "/></g></svg>
