<svg width="64" height="64" viewBox="0 0 64 64" version="1.1" xmlns:inkscape="http://www.inkscape.org/namespaces/inkscape"><defs><linearGradient id="linear0" gradientUnits="userSpaceOnUse" x1="0" y1="0" x2="0" y2="1" gradientTransform="matrix(69.861773,0,0,43.34717,-1.111669,7.513743)"><stop offset="0" style="stop-color:rgb(0%,73.333335%,100%);stop-opacity:1;"/><stop offset="1" style="stop-color:rgb(0%,52.156866%,70.980394%);stop-opacity:1;"/></linearGradient><filter style="color-interpolation-filters:sRGB;" inkscape:label="Diffuse Light" id="filter184" x="-0.0375" y="-0.0375" width="1.075" height="1.075"><feGaussianBlur in="SourceGraphic" stdDeviation="1" result="blur" id="feGaussianBlur174" /><feDiffuseLighting diffuseConstant="1" surfaceScale="10" lighting-color="rgb(255,255,255)" result="diffuse" id="feDiffuseLighting178"><feDistantLight elevation="8" azimuth="235" id="feDistantLight176" /></feDiffuseLighting><feComposite in="diffuse" in2="diffuse" operator="arithmetic" k1="1" result="composite1" id="feComposite180" /><feComposite in="composite1" in2="SourceGraphic" k1="1" operator="arithmetic" k3="1" result="composite2" id="feComposite182" /></filter></defs><g id="surface1" style="filter:url(#filter184)"><path style=" stroke:none;fill-rule:nonzero;fill:url(#linear0);" d="M 34.871094 1.300781 C 5.257812 1.300781 5.257812 32.015625 5.257812 32.015625 C 5.257812 41.46875 12.660156 43.832031 12.660156 43.832031 C 12.660156 43.832031 14.386719 41.398438 17.273438 38.445312 C 21.640625 43.714844 29.414062 51.394531 42.199219 58.53125 L 42.199219 62.761719 L 47.132812 62.761719 L 47.132812 20.230469 C 54.535156 15.503906 59.472656 8.414062 59.472656 8.414062 L 57.003906 3.6875 C 57.003906 3.6875 47.132812 1.324219 34.792969 1.324219 Z M 42.273438 23.042969 L 42.273438 50.921875 C 32.007812 45.300781 25.296875 38.894531 21.496094 34.59375 C 22.597656 33.703125 23.75 32.828125 25 32.015625 C 30.453125 28.546875 36.523438 26.066406 42.273438 23.042969 Z M 42.273438 23.042969 "/></g></svg>
