<svg width="64" height="64" viewBox="0 0 64 64" version="1.1" xmlns:inkscape="http://www.inkscape.org/namespaces/inkscape"><defs><linearGradient id="linear0" gradientUnits="userSpaceOnUse" x1="0" y1="0" x2="0" y2="1" gradientTransform="matrix(80.688251,0,0,95.486946,-6.967203,-14.317554)"><stop offset="0" style="stop-color:rgb(0%,96.078432%,86.274511%);stop-opacity:1;"/><stop offset="1" style="stop-color:rgb(0%,54.901963%,49.411765%);stop-opacity:1;"/></linearGradient><filter style="color-interpolation-filters:sRGB;" inkscape:label="Diffuse Light" id="filter184" x="-0.0375" y="-0.0375" width="1.075" height="1.075"><feGaussianBlur in="SourceGraphic" stdDeviation="1" result="blur" id="feGaussianBlur174" /><feDiffuseLighting diffuseConstant="1" surfaceScale="10" lighting-color="rgb(255,255,255)" result="diffuse" id="feDiffuseLighting178"><feDistantLight elevation="8" azimuth="235" id="feDistantLight176" /></feDiffuseLighting><feComposite in="diffuse" in2="diffuse" operator="arithmetic" k1="1" result="composite1" id="feComposite180" /><feComposite in="composite1" in2="SourceGraphic" k1="1" operator="arithmetic" k3="1" result="composite2" id="feComposite182" /></filter></defs><g id="surface1" style="filter:url(#filter184)"><path style=" stroke:none;fill-rule:nonzero;fill:url(#linear0);" d="M 6.121094 1.226562 L 6.121094 63.066406 L 23.515625 63.066406 L 23.515625 39.878906 L 40.910156 39.878906 L 40.910156 63.066406 L 58.296875 63.066406 L 58.296875 1.226562 L 40.910156 1.226562 L 40.910156 24.414062 L 23.515625 24.414062 L 23.515625 1.226562 Z M 10.46875 8.953125 L 19.167969 8.953125 L 19.167969 19.265625 L 10.46875 19.265625 Z M 45.257812 8.953125 L 53.953125 8.953125 L 53.953125 19.265625 L 45.257812 19.265625 Z M 10.46875 26.992188 L 19.167969 26.992188 L 19.167969 37.296875 L 10.46875 37.296875 Z M 45.257812 26.992188 L 53.953125 26.992188 L 53.953125 37.296875 L 45.257812 37.296875 Z M 10.46875 45.03125 L 19.167969 45.03125 L 19.167969 55.332031 L 10.46875 55.332031 Z M 45.257812 45.03125 L 53.953125 45.03125 L 53.953125 55.332031 L 45.257812 55.332031 Z M 45.257812 45.03125 "/></g></svg>
