<svg width="64" height="64" viewBox="0 0 64 64" version="1.1" xmlns:inkscape="http://www.inkscape.org/namespaces/inkscape"><defs><linearGradient id="linear0" gradientUnits="userSpaceOnUse" x1="0" y1="0" x2="0" y2="1" gradientTransform="matrix(70.147306,0,0,75.32615,-3.901835,-2.208653)"><stop offset="0" style="stop-color:rgb(100%,56.862748%,82.745099%);stop-opacity:1;"/><stop offset="1" style="stop-color:rgb(100%,0%,60.000002%);stop-opacity:1;"/></linearGradient><linearGradient id="linear1" gradientUnits="userSpaceOnUse" x1="0" y1="0" x2="0" y2="1" gradientTransform="matrix(70.147306,0,0,75.32615,-3.901835,-2.208653)"><stop offset="0" style="stop-color:rgb(100%,56.862748%,82.745099%);stop-opacity:1;"/><stop offset="1" style="stop-color:rgb(100%,0%,60.000002%);stop-opacity:1;"/></linearGradient><linearGradient id="linear2" gradientUnits="userSpaceOnUse" x1="0" y1="0" x2="0" y2="1" gradientTransform="matrix(70.147306,0,0,75.32615,-3.901835,-2.208653)"><stop offset="0" style="stop-color:rgb(100%,56.862748%,82.745099%);stop-opacity:1;"/><stop offset="1" style="stop-color:rgb(100%,0%,60.000002%);stop-opacity:1;"/></linearGradient><filter style="color-interpolation-filters:sRGB;" inkscape:label="Diffuse Light" id="filter184" x="-0.0375" y="-0.0375" width="1.075" height="1.075"><feGaussianBlur in="SourceGraphic" stdDeviation="1" result="blur" id="feGaussianBlur174" /><feDiffuseLighting diffuseConstant="1" surfaceScale="10" lighting-color="rgb(255,255,255)" result="diffuse" id="feDiffuseLighting178"><feDistantLight elevation="8" azimuth="235" id="feDistantLight176" /></feDiffuseLighting><feComposite in="diffuse" in2="diffuse" operator="arithmetic" k1="1" result="composite1" id="feComposite180" /><feComposite in="composite1" in2="SourceGraphic" k1="1" operator="arithmetic" k3="1" result="composite2" id="feComposite182" /></filter></defs><g id="surface1" style="filter:url(#filter184)"><path style=" stroke:none;fill-rule:nonzero;fill:url(#linear0);" d="M 0.757812 52.53125 C 7.910156 52.53125 22.234375 42.320312 22.234375 9.140625 L 22.234375 1.484375 L 27.007812 1.484375 L 27.007812 21.902344 C 27.007812 49.972656 12.6875 62.738281 0.757812 62.738281 Z M 0.757812 52.53125 "/><path style=" stroke:none;fill-rule:nonzero;fill:url(#linear1);" d="M 62.816406 52.53125 C 55.652344 52.53125 41.332031 42.320312 41.332031 9.140625 L 41.332031 1.484375 L 36.554688 1.484375 L 36.554688 21.902344 C 36.554688 49.972656 50.878906 62.738281 62.816406 62.738281 Z M 62.816406 52.53125 "/><path style=" stroke:none;fill-rule:nonzero;fill:url(#linear2);" d="M 24.625 24.453125 L 38.949219 24.453125 L 38.949219 34.660156 L 24.625 34.660156 Z M 24.625 24.453125 "/></g></svg>
