<svg width="64" height="64" viewBox="0 0 64 64" version="1.1" xmlns:inkscape="http://www.inkscape.org/namespaces/inkscape"><defs><linearGradient id="linear0" gradientUnits="userSpaceOnUse" x1="0" y1="0" x2="0" y2="1" gradientTransform="matrix(72.662698,0,0,44.56943,-4.491249,8.293666)"><stop offset="0" style="stop-color:rgb(41.960785%,64.313728%,100%);stop-opacity:1;"/><stop offset="1" style="stop-color:rgb(0%,43.137255%,100%);stop-opacity:1;"/></linearGradient><filter style="color-interpolation-filters:sRGB;" inkscape:label="Diffuse Light" id="filter184" x="-0.0375" y="-0.0375" width="1.075" height="1.075"><feGaussianBlur in="SourceGraphic" stdDeviation="1" result="blur" id="feGaussianBlur174" /><feDiffuseLighting diffuseConstant="1" surfaceScale="10" lighting-color="rgb(255,255,255)" result="diffuse" id="feDiffuseLighting178"><feDistantLight elevation="8" azimuth="235" id="feDistantLight176" /></feDiffuseLighting><feComposite in="diffuse" in2="diffuse" operator="arithmetic" k1="1" result="composite1" id="feComposite180" /><feComposite in="composite1" in2="SourceGraphic" k1="1" operator="arithmetic" k3="1" result="composite2" id="feComposite182" /></filter></defs><g id="surface1" style="filter:url(#filter184)"><path style=" stroke:none;fill-rule:nonzero;fill:url(#linear0);" d="M 21.519531 1.570312 L 21.519531 8.6875 L 9.421875 13.433594 L 9.421875 20.550781 L 4.582031 26.480469 L 4.582031 40.714844 L 9.421875 46.644531 L 4.582031 56.136719 L 31.203125 63.25 L 57.816406 56.136719 L 52.980469 46.644531 L 57.816406 40.714844 L 57.816406 26.480469 L 52.980469 20.550781 L 52.980469 13.433594 L 40.882812 8.6875 L 40.882812 1.570312 Z M 31.203125 20.550781 C 37.882812 20.550781 43.300781 25.859375 43.300781 32.410156 C 43.300781 38.964844 37.882812 44.273438 31.203125 44.273438 C 24.519531 44.273438 19.101562 38.964844 19.101562 32.410156 C 19.101562 25.859375 24.519531 20.550781 31.203125 20.550781 Z M 31.203125 20.550781 "/></g></svg>
