<svg width="64" height="64" viewBox="0 0 64 64" version="1.1" xmlns:inkscape="http://www.inkscape.org/namespaces/inkscape"><defs><linearGradient id="linear0" gradientUnits="userSpaceOnUse" x1="0" y1="0" x2="0" y2="1" gradientTransform="matrix(55.992188,0,0,54.140829,5.184355,7.621969)"><stop offset="0" style="stop-color:rgb(0%,78.823531%,36.862746%);stop-opacity:1;"/><stop offset="1" style="stop-color:rgb(0%,54.11765%,25.098041%);stop-opacity:1;"/></linearGradient><filter style="color-interpolation-filters:sRGB;" inkscape:label="Diffuse Light" id="filter184" x="-0.0375" y="-0.0375" width="1.075" height="1.075"><feGaussianBlur in="SourceGraphic" stdDeviation="1" result="blur" id="feGaussianBlur174" /><feDiffuseLighting diffuseConstant="1" surfaceScale="10" lighting-color="rgb(255,255,255)" result="diffuse" id="feDiffuseLighting178"><feDistantLight elevation="8" azimuth="235" id="feDistantLight176" /></feDiffuseLighting><feComposite in="diffuse" in2="diffuse" operator="arithmetic" k1="1" result="composite1" id="feComposite180" /><feComposite in="composite1" in2="SourceGraphic" k1="1" operator="arithmetic" k3="1" result="composite2" id="feComposite182" /></filter></defs><g id="surface1" style="filter:url(#filter184)"><path style=" stroke:none;fill-rule:nonzero;fill:url(#linear0);" d="M 32.277344 1.292969 L 6.753906 10.234375 L 18.355469 54.910156 L 32.277344 63.84375 L 46.195312 54.910156 L 57.796875 10.234375 Z M 32.277344 5.769531 L 36.914062 12.464844 L 34.597656 43.742188 L 32.277344 45.96875 L 29.953125 43.742188 L 27.636719 12.464844 Z M 22.996094 45.96875 L 27.636719 45.96875 L 29.953125 48.203125 L 27.636719 50.4375 L 22.996094 50.4375 L 21.839844 48.203125 Z M 36.914062 45.96875 L 41.554688 45.96875 L 42.714844 48.203125 L 41.554688 50.4375 L 36.914062 50.4375 L 34.597656 48.203125 Z M 32.277344 50.4375 L 34.597656 52.671875 L 34.597656 57.140625 L 32.277344 58.253906 L 29.953125 57.140625 L 29.953125 52.671875 Z M 32.277344 50.4375 "/></g></svg>
