<svg width="64" height="64" viewBox="0 0 64 64" version="1.1" xmlns:inkscape="http://www.inkscape.org/namespaces/inkscape"><defs><linearGradient id="linear0" gradientUnits="userSpaceOnUse" x1="0" y1="0" x2="0" y2="1" gradientTransform="matrix(60.709167,0,0,38.746264,0.955668,12.197635)"><stop offset="0" style="stop-color:rgb(0%,96.078432%,86.274511%);stop-opacity:1;"/><stop offset="1" style="stop-color:rgb(0%,54.901963%,49.411765%);stop-opacity:1;"/></linearGradient><filter style="color-interpolation-filters:sRGB;" inkscape:label="Diffuse Light" id="filter184" x="-0.0375" y="-0.0375" width="1.075" height="1.075"><feGaussianBlur in="SourceGraphic" stdDeviation="1" result="blur" id="feGaussianBlur174" /><feDiffuseLighting diffuseConstant="1" surfaceScale="10" lighting-color="rgb(255,255,255)" result="diffuse" id="feDiffuseLighting178"><feDistantLight elevation="8" azimuth="235" id="feDistantLight176" /></feDiffuseLighting><feComposite in="diffuse" in2="diffuse" operator="arithmetic" k1="1" result="composite1" id="feComposite180" /><feComposite in="composite1" in2="SourceGraphic" k1="1" operator="arithmetic" k3="1" result="composite2" id="feComposite182" /></filter></defs><g id="surface1" style="filter:url(#filter184)"><path style=" stroke:none;fill-rule:nonzero;fill:url(#linear0);" d="M 32.359375 1.515625 L 5.394531 17.707031 L 5.394531 46.054688 L 32.359375 62.246094 L 59.324219 46.054688 L 59.324219 17.707031 Z M 32.359375 6.253906 L 55.175781 19.734375 L 55.175781 44.03125 L 32.359375 57.511719 L 9.542969 44.03125 L 9.542969 19.734375 Z M 13.695312 19.734375 L 20.953125 21.761719 L 30.285156 31.882812 L 20.953125 42.003906 L 13.695312 44.03125 L 24.066406 44.03125 L 32.359375 35.929688 L 40.65625 44.03125 L 51.027344 44.03125 L 43.769531 42.003906 L 34.433594 31.882812 L 43.769531 21.761719 L 51.027344 19.734375 L 40.65625 19.734375 L 32.359375 27.832031 L 24.066406 19.734375 Z M 13.695312 19.734375 "/></g></svg>
