<svg width="64" height="64" viewBox="0 0 64 64" version="1.1" xmlns:inkscape="http://www.inkscape.org/namespaces/inkscape"><defs><linearGradient id="linear0" gradientUnits="userSpaceOnUse" x1="0" y1="0" x2="0" y2="1" gradientTransform="matrix(60.730042,0,0,49.098532,0.188393,9.646058)"><stop offset="0" style="stop-color:rgb(81.960785%,70.980394%,59.215689%);stop-opacity:1;"/><stop offset="1" style="stop-color:rgb(65.098041%,53.725493%,41.568628%);stop-opacity:1;"/></linearGradient><filter style="color-interpolation-filters:sRGB;" inkscape:label="Diffuse Light" id="filter184" x="-0.0375" y="-0.0375" width="1.075" height="1.075"><feGaussianBlur in="SourceGraphic" stdDeviation="1" result="blur" id="feGaussianBlur174" /><feDiffuseLighting diffuseConstant="1" surfaceScale="10" lighting-color="rgb(255,255,255)" result="diffuse" id="feDiffuseLighting178"><feDistantLight elevation="8" azimuth="235" id="feDistantLight176" /></feDiffuseLighting><feComposite in="diffuse" in2="diffuse" operator="arithmetic" k1="1" result="composite1" id="feComposite180" /><feComposite in="composite1" in2="SourceGraphic" k1="1" operator="arithmetic" k3="1" result="composite2" id="feComposite182" /></filter></defs><g id="surface1" style="filter:url(#filter184)"><path style=" stroke:none;fill-rule:nonzero;fill:url(#linear0);" d="M 15.789062 18.140625 C 10.007812 18.140625 4.695312 20.507812 1.332031 20.507812 L 1.332031 24.058594 C 1.332031 26.425781 2.164062 26.710938 3.257812 27.613281 C 6.007812 37.085938 6.152344 46.554688 15.789062 46.554688 C 25.425781 46.554688 28.894531 34.714844 29.863281 29.980469 C 30.105469 28.785156 30.246094 27.613281 32.171875 27.613281 C 34.097656 27.613281 34.238281 28.785156 34.484375 29.980469 C 35.453125 34.714844 38.917969 46.554688 48.558594 46.554688 C 58.195312 46.554688 58.335938 37.085938 61.082031 27.613281 C 62.179688 26.710938 63.011719 26.425781 63.011719 24.058594 L 63.011719 20.507812 C 59.648438 20.507812 54.339844 18.140625 48.558594 18.140625 C 40.847656 18.140625 37.953125 22.878906 32.171875 22.878906 C 26.390625 22.878906 23.5 18.140625 15.789062 18.140625 Z M 15.789062 18.140625 "/></g></svg>
