<svg width="64" height="64" viewBox="0 0 64 64" version="1.1" xmlns:inkscape="http://www.inkscape.org/namespaces/inkscape"><defs><linearGradient id="linear0" gradientUnits="userSpaceOnUse" x1="0" y1="0" x2="0" y2="1" gradientTransform="matrix(58.850686,0,0,38.199965,2.538264,12.673168)"><stop offset="0" style="stop-color:rgb(92.941177%,83.529413%,72.549021%);stop-opacity:1;"/><stop offset="1" style="stop-color:rgb(81.960785%,71.372551%,59.215689%);stop-opacity:1;"/></linearGradient><filter style="color-interpolation-filters:sRGB;" inkscape:label="Diffuse Light" id="filter184" x="-0.0375" y="-0.0375" width="1.075" height="1.075"><feGaussianBlur in="SourceGraphic" stdDeviation="1" result="blur" id="feGaussianBlur174" /><feDiffuseLighting diffuseConstant="1" surfaceScale="10" lighting-color="rgb(255,255,255)" result="diffuse" id="feDiffuseLighting178"><feDistantLight elevation="8" azimuth="235" id="feDistantLight176" /></feDiffuseLighting><feComposite in="diffuse" in2="diffuse" operator="arithmetic" k1="1" result="composite1" id="feComposite180" /><feComposite in="composite1" in2="SourceGraphic" k1="1" operator="arithmetic" k3="1" result="composite2" id="feComposite182" /></filter></defs><g id="surface1" style="filter:url(#filter184)"><path style=" stroke:none;fill-rule:nonzero;fill:url(#linear0);" d="M 40.910156 2.425781 C 39.679688 2.425781 38.691406 3.472656 38.691406 4.777344 L 38.691406 11.828125 L 29.824219 11.828125 L 29.824219 30.632812 L 25.390625 30.632812 L 25.390625 23.582031 C 25.390625 22.277344 24.402344 21.230469 23.175781 21.230469 L 5.4375 21.230469 C 4.210938 21.230469 3.21875 22.277344 3.21875 23.582031 L 3.21875 42.386719 C 3.21875 43.6875 4.210938 44.738281 5.4375 44.738281 L 23.175781 44.738281 C 24.402344 44.738281 25.390625 43.6875 25.390625 42.386719 L 25.390625 35.335938 L 29.824219 35.335938 L 29.824219 54.140625 L 38.691406 54.140625 L 38.691406 61.191406 C 38.691406 62.492188 39.679688 63.542969 40.910156 63.542969 L 58.648438 63.542969 C 59.875 63.542969 60.863281 62.492188 60.863281 61.191406 L 60.863281 42.386719 C 60.863281 41.085938 59.875 40.035156 58.648438 40.035156 L 40.910156 40.035156 C 39.679688 40.035156 38.691406 41.085938 38.691406 42.386719 L 38.691406 49.4375 L 34.257812 49.4375 L 34.257812 16.53125 L 38.691406 16.53125 L 38.691406 23.582031 C 38.691406 24.882812 39.679688 25.933594 40.910156 25.933594 L 58.648438 25.933594 C 59.875 25.933594 60.863281 24.882812 60.863281 23.582031 L 60.863281 4.777344 C 60.863281 3.472656 59.875 2.425781 58.648438 2.425781 Z M 40.910156 2.425781 "/></g></svg>
