<svg width="64" height="64" viewBox="0 0 64 64" version="1.1" xmlns:inkscape="http://www.inkscape.org/namespaces/inkscape"><defs><linearGradient id="linear0" gradientUnits="userSpaceOnUse" x1="0" y1="0" x2="0" y2="1" gradientTransform="matrix(74.368102,0,0,75.076144,-4.944911,-5.84185)"><stop offset="0" style="stop-color:rgb(41.960785%,64.313728%,100%);stop-opacity:1;"/><stop offset="1" style="stop-color:rgb(0%,43.137255%,100%);stop-opacity:1;"/></linearGradient><filter style="color-interpolation-filters:sRGB;" inkscape:label="Diffuse Light" id="filter184" x="-0.0375" y="-0.0375" width="1.075" height="1.075"><feGaussianBlur in="SourceGraphic" stdDeviation="1" result="blur" id="feGaussianBlur174" /><feDiffuseLighting diffuseConstant="1" surfaceScale="10" lighting-color="rgb(255,255,255)" result="diffuse" id="feDiffuseLighting178"><feDistantLight elevation="8" azimuth="235" id="feDistantLight176" /></feDiffuseLighting><feComposite in="diffuse" in2="diffuse" operator="arithmetic" k1="1" result="composite1" id="feComposite180" /><feComposite in="composite1" in2="SourceGraphic" k1="1" operator="arithmetic" k3="1" result="composite2" id="feComposite182" /></filter></defs><g id="surface1" style="filter:url(#filter184)"><path style=" stroke:none;fill-rule:evenodd;fill:url(#linear0);" d="M 32.3125 1.269531 C 15.464844 1.269531 1.808594 14.992188 1.808594 31.925781 C 1.808594 48.867188 15.464844 62.589844 32.3125 62.589844 C 49.164062 62.589844 62.820312 48.867188 62.820312 31.925781 C 62.820312 14.992188 49.164062 1.269531 32.3125 1.269531 Z M 32.269531 10.617188 C 33.140625 10.605469 33.988281 10.949219 34.617188 11.570312 C 35.238281 12.199219 35.582031 13.058594 35.570312 13.9375 L 35.570312 30.753906 L 42.941406 39.640625 C 43.773438 40.527344 44.046875 41.808594 43.648438 42.949219 C 43.257812 44.101562 42.269531 44.941406 41.070312 45.128906 C 39.882812 45.300781 38.6875 44.820312 37.957031 43.832031 L 29.816406 34.019531 C 29.328125 33.433594 29.054688 32.695312 29.054688 31.925781 L 29.054688 13.9375 C 29.03125 12.140625 30.476562 10.636719 32.269531 10.617188 Z M 32.269531 10.617188 "/></g></svg>
