<svg width="64" height="64" viewBox="0 0 64 64" version="1.1" xmlns:inkscape="http://www.inkscape.org/namespaces/inkscape"><defs><linearGradient id="linear0" gradientUnits="userSpaceOnUse" x1="0" y1="0" x2="0" y2="1" gradientTransform="matrix(64,0,0,59.921875,0,2.039062)"><stop offset="0" style="stop-color:rgb(100%,73.333335%,0%);stop-opacity:1;"/><stop offset="1" style="stop-color:rgb(70.19608%,51.372552%,0%);stop-opacity:1;"/></linearGradient><filter style="color-interpolation-filters:sRGB;" inkscape:label="Diffuse Light" id="filter184" x="-0.0375" y="-0.0375" width="1.075" height="1.075"><feGaussianBlur in="SourceGraphic" stdDeviation="1" result="blur" id="feGaussianBlur174" /><feDiffuseLighting diffuseConstant="1" surfaceScale="10" lighting-color="rgb(255,255,255)" result="diffuse" id="feDiffuseLighting178"><feDistantLight elevation="8" azimuth="235" id="feDistantLight176" /></feDiffuseLighting><feComposite in="diffuse" in2="diffuse" operator="arithmetic" k1="1" result="composite1" id="feComposite180" /><feComposite in="composite1" in2="SourceGraphic" k1="1" operator="arithmetic" k3="1" result="composite2" id="feComposite182" /></filter></defs><g id="surface1" style="filter:url(#filter184)"><path style=" stroke:none;fill-rule:nonzero;fill:url(#linear0);" d="M 32 2.039062 L 0 34.03125 L 2.882812 36.921875 L 7.554688 32.25 L 7.554688 61.960938 L 44.226562 61.960938 L 44.226562 43.65625 C 44.226562 42.625 44.128906 41.683594 43.9375 40.828125 C 43.742188 39.976562 43.398438 39.246094 42.914062 38.648438 C 42.445312 38.023438 41.816406 37.550781 41.023438 37.226562 C 40.230469 36.875 39.226562 36.703125 38.023438 36.703125 C 36.683594 36.703125 35.503906 36.785156 34.476562 36.960938 C 33.644531 37.097656 32.820312 37.265625 32 37.460938 L 32 57.882812 L 11.625 57.882812 L 11.625 28.179688 L 32 7.796875 L 52.382812 28.1875 L 52.375 61.960938 L 56.445312 61.960938 L 56.445312 32.25 L 61.117188 36.921875 L 64 34.03125 Z M 48.289062 13.070312 L 56.445312 21.21875 L 56.445312 13.070312 Z M 48.289062 13.070312 "/></g></svg>
