<svg width="64" height="64" viewBox="0 0 64 64" version="1.1" xmlns:inkscape="http://www.inkscape.org/namespaces/inkscape"><defs><linearGradient id="linear0" gradientUnits="userSpaceOnUse" x1="0" y1="0" x2="0" y2="1" gradientTransform="matrix(60.938017,0,0,39.344545,1.075499,11.871558)"><stop offset="0" style="stop-color:rgb(0%,96.078432%,86.274511%);stop-opacity:1;"/><stop offset="1" style="stop-color:rgb(0%,54.901963%,49.411765%);stop-opacity:1;"/></linearGradient><filter style="color-interpolation-filters:sRGB;" inkscape:label="Diffuse Light" id="filter184" x="-0.0375" y="-0.0375" width="1.075" height="1.075"><feGaussianBlur in="SourceGraphic" stdDeviation="1" result="blur" id="feGaussianBlur174" /><feDiffuseLighting diffuseConstant="1" surfaceScale="10" lighting-color="rgb(255,255,255)" result="diffuse" id="feDiffuseLighting178"><feDistantLight elevation="8" azimuth="235" id="feDistantLight176" /></feDiffuseLighting><feComposite in="diffuse" in2="diffuse" operator="arithmetic" k1="1" result="composite1" id="feComposite180" /><feComposite in="composite1" in2="SourceGraphic" k1="1" operator="arithmetic" k3="1" result="composite2" id="feComposite182" /></filter></defs><g id="surface1" style="filter:url(#filter184)"><path style=" stroke:none;fill-rule:nonzero;fill:url(#linear0);" d="M 32.433594 1.972656 C 15.820312 1.972656 2.339844 15.742188 2.339844 32.707031 C 2.339844 49.671875 15.820312 63.4375 32.433594 63.4375 C 49.039062 63.4375 62.523438 49.671875 62.523438 32.707031 C 62.523438 15.742188 49.039062 1.972656 32.433594 1.972656 Z M 32.433594 6.074219 C 46.835938 6.074219 58.511719 17.996094 58.511719 32.707031 C 58.511719 47.417969 46.835938 59.34375 32.433594 59.34375 C 18.027344 59.34375 6.351562 47.417969 6.351562 32.707031 C 6.351562 17.996094 18.027344 6.074219 32.433594 6.074219 Z M 50.484375 14.269531 L 32.433594 18.367188 L 46.472656 32.707031 Z M 50.484375 14.269531 "/></g></svg>
