<svg width="64" height="64" viewBox="0 0 64 64" version="1.1" xmlns:inkscape="http://www.inkscape.org/namespaces/inkscape"><defs><linearGradient id="linear0" gradientUnits="userSpaceOnUse" x1="0" y1="0" x2="0" y2="1" gradientTransform="matrix(64,0,0,8,-0.125,50)"><stop offset="0" style="stop-color:rgb(81.960785%,70.980394%,59.215689%);stop-opacity:1;"/><stop offset="1" style="stop-color:rgb(65.098041%,53.725493%,41.568628%);stop-opacity:1;"/></linearGradient><linearGradient id="linear1" gradientUnits="userSpaceOnUse" x1="0" y1="0" x2="0" y2="1" gradientTransform="matrix(63.78125,0,0,35.71875,0.109375,5.601562)"><stop offset="0" style="stop-color:rgb(81.960785%,70.980394%,59.215689%);stop-opacity:1;"/><stop offset="1" style="stop-color:rgb(65.098041%,53.725493%,41.568628%);stop-opacity:1;"/></linearGradient><filter style="color-interpolation-filters:sRGB;" inkscape:label="Diffuse Light" id="filter184" x="-0.0375" y="-0.0375" width="1.075" height="1.075"><feGaussianBlur in="SourceGraphic" stdDeviation="1" result="blur" id="feGaussianBlur174" /><feDiffuseLighting diffuseConstant="1" surfaceScale="10" lighting-color="rgb(255,255,255)" result="diffuse" id="feDiffuseLighting178"><feDistantLight elevation="8" azimuth="235" id="feDistantLight176" /></feDiffuseLighting><feComposite in="diffuse" in2="diffuse" operator="arithmetic" k1="1" result="composite1" id="feComposite180" /><feComposite in="composite1" in2="SourceGraphic" k1="1" operator="arithmetic" k3="1" result="composite2" id="feComposite182" /></filter></defs><g id="surface1" style="filter:url(#filter184)"><path style=" stroke:none;fill-rule:evenodd;fill:url(#linear0);" d="M -0.125 50 L 63.875 50 L 63.875 58 L -0.125 58 Z M -0.125 50 "/><path style=" stroke:none;fill-rule:evenodd;fill:url(#linear1);" d="M 27.914062 41.320312 L 21.84375 41.320312 L 21.84375 25.808594 L 6.230469 25.808594 L 6.230469 41.320312 L 0.109375 41.320312 L 0.109375 5.601562 L 6.230469 5.601562 L 6.230469 20.039062 L 21.84375 20.039062 L 21.84375 5.601562 L 27.914062 5.601562 Z M 36.59375 41.320312 L 36.59375 5.601562 L 51.1875 5.601562 C 55.167969 5.601562 58.066406 6.5 59.886719 8.304688 C 61.707031 10.105469 62.617188 12.386719 62.617188 15.144531 C 62.617188 18.542969 61.085938 20.992188 58.023438 22.492188 C 59.996094 23.207031 61.46875 24.320312 62.441406 25.832031 C 63.40625 27.347656 63.890625 28.988281 63.890625 30.757812 C 63.890625 33.613281 62.914062 36.089844 60.960938 38.179688 C 59.003906 40.273438 56 41.320312 51.953125 41.320312 Z M 42.714844 19.992188 L 50.371094 19.992188 C 52.34375 19.992188 53.847656 19.601562 54.886719 18.816406 C 55.925781 18.035156 56.445312 16.960938 56.445312 15.601562 C 56.445312 12.710938 54.742188 11.265625 51.339844 11.265625 L 42.714844 11.265625 Z M 42.714844 35.65625 L 52.308594 35.65625 C 54.214844 35.65625 55.585938 35.1875 56.414062 34.253906 C 57.25 33.316406 57.667969 32.203125 57.667969 30.910156 C 57.667969 27.40625 55.386719 25.65625 50.828125 25.65625 L 42.714844 25.65625 Z M 42.714844 35.65625 "/></g></svg>
