<svg width="64" height="64" viewBox="0 0 64 64" version="1.1" xmlns:inkscape="http://www.inkscape.org/namespaces/inkscape"><defs><linearGradient id="linear0" gradientUnits="userSpaceOnUse" x1="0" y1="0" x2="0" y2="1" gradientTransform="matrix(57.273707,0,0,58.517074,3.610351,3.064589)"><stop offset="0" style="stop-color:rgb(100%,56.862748%,82.745099%);stop-opacity:1;"/><stop offset="1" style="stop-color:rgb(100%,0%,60.000002%);stop-opacity:1;"/></linearGradient><linearGradient id="linear1" gradientUnits="userSpaceOnUse" x1="0" y1="0" x2="0" y2="1" gradientTransform="matrix(57.273707,0,0,58.517074,3.610351,3.064589)"><stop offset="0" style="stop-color:rgb(100%,56.862748%,82.745099%);stop-opacity:1;"/><stop offset="1" style="stop-color:rgb(100%,0%,60.000002%);stop-opacity:1;"/></linearGradient><linearGradient id="linear2" gradientUnits="userSpaceOnUse" x1="0" y1="0" x2="0" y2="1" gradientTransform="matrix(57.273707,0,0,58.517074,3.610351,3.064589)"><stop offset="0" style="stop-color:rgb(100%,56.862748%,82.745099%);stop-opacity:1;"/><stop offset="1" style="stop-color:rgb(100%,0%,60.000002%);stop-opacity:1;"/></linearGradient><filter style="color-interpolation-filters:sRGB;" inkscape:label="Diffuse Light" id="filter184" x="-0.0375" y="-0.0375" width="1.075" height="1.075"><feGaussianBlur in="SourceGraphic" stdDeviation="1" result="blur" id="feGaussianBlur174" /><feDiffuseLighting diffuseConstant="1" surfaceScale="10" lighting-color="rgb(255,255,255)" result="diffuse" id="feDiffuseLighting178"><feDistantLight elevation="8" azimuth="235" id="feDistantLight176" /></feDiffuseLighting><feComposite in="diffuse" in2="diffuse" operator="arithmetic" k1="1" result="composite1" id="feComposite180" /><feComposite in="composite1" in2="SourceGraphic" k1="1" operator="arithmetic" k3="1" result="composite2" id="feComposite182" /></filter></defs><g id="surface1" style="filter:url(#filter184)"><path style=" stroke:none;fill-rule:nonzero;fill:url(#linear0);" d="M 1.402344 13.15625 L 63.210938 17.992188 L 29.929688 17.992188 Z M 1.402344 13.15625 "/><path style=" stroke:none;fill-rule:nonzero;fill:url(#linear1);" d="M 29.929688 25.246094 L 25.171875 37.34375 L 18.039062 51.851562 L 25.171875 56.691406 L 22.792969 51.851562 L 29.929688 37.34375 L 27.546875 54.269531 L 34.679688 59.109375 L 32.304688 54.269531 L 32.304688 44.597656 L 37.0625 25.246094 L 39.4375 20.414062 L 29.929688 20.414062 Z M 29.929688 25.246094 "/><path style=" stroke:none;fill-rule:nonzero;fill:url(#linear2);" d="M 39.4375 10.738281 C 39.4375 13.410156 37.304688 15.570312 34.679688 15.570312 C 32.054688 15.570312 29.929688 13.410156 29.929688 10.738281 C 29.929688 8.070312 32.054688 5.898438 34.679688 5.898438 C 37.304688 5.898438 39.4375 8.070312 39.4375 10.738281 Z M 39.4375 10.738281 "/></g></svg>
