<svg width="64" height="64" viewBox="0 0 64 64" version="1.1" xmlns:inkscape="http://www.inkscape.org/namespaces/inkscape"><defs><linearGradient id="linear0" gradientUnits="userSpaceOnUse" x1="0" y1="0" x2="0" y2="1" gradientTransform="matrix(65.05832,0,0,62.706929,-5.554306,0.859951)"><stop offset="0" style="stop-color:rgb(87.058824%,86.666667%,56.470591%);stop-opacity:1;"/><stop offset="1" style="stop-color:rgb(67.843139%,67.450982%,38.039216%);stop-opacity:1;"/></linearGradient><filter style="color-interpolation-filters:sRGB;" inkscape:label="Diffuse Light" id="filter184" x="-0.0375" y="-0.0375" width="1.075" height="1.075"><feGaussianBlur in="SourceGraphic" stdDeviation="1" result="blur" id="feGaussianBlur174" /><feDiffuseLighting diffuseConstant="1" surfaceScale="10" lighting-color="rgb(255,255,255)" result="diffuse" id="feDiffuseLighting178"><feDistantLight elevation="8" azimuth="235" id="feDistantLight176" /></feDiffuseLighting><feComposite in="diffuse" in2="diffuse" operator="arithmetic" k1="1" result="composite1" id="feComposite180" /><feComposite in="composite1" in2="SourceGraphic" k1="1" operator="arithmetic" k3="1" result="composite2" id="feComposite182" /></filter></defs><g id="surface1" style="filter:url(#filter184)"><path style=" stroke:none;fill-rule:evenodd;fill:url(#linear0);" d="M 45.453125 1.878906 L 45.453125 10.320312 L 36.648438 10.320312 L 36.648438 18.742188 L 45.453125 18.742188 L 45.453125 27.195312 L 54.226562 27.195312 L 54.226562 18.742188 L 63.035156 18.742188 L 63.035156 10.320312 L 54.226562 10.320312 L 54.226562 1.878906 Z M 1.53125 8.273438 L 1.53125 60.777344 C 1.53125 61.066406 1.550781 61.347656 1.570312 61.625 L 14.601562 61.625 L 14.601562 56.695312 L 14.707031 56.695312 L 14.707031 39.628906 C 15.109375 38.0625 16.59375 36.910156 18.355469 36.910156 L 26.238281 36.910156 C 28.3125 36.910156 29.996094 38.507812 29.996094 40.492188 L 29.996094 61.625 L 43.027344 61.625 C 43.046875 61.347656 43.070312 61.066406 43.070312 60.777344 L 43.070312 37.859375 C 43.070312 30.792969 37.128906 25.113281 29.765625 25.113281 L 14.832031 25.113281 C 14.792969 25.113281 14.746094 25.113281 14.707031 25.113281 L 14.707031 8.273438 L 1.53125 8.273438 "/></g></svg>
