<svg width="64" height="64" viewBox="0 0 64 64" version="1.1" xmlns:inkscape="http://www.inkscape.org/namespaces/inkscape"><defs><linearGradient id="linear0" gradientUnits="userSpaceOnUse" x1="0" y1="0" x2="0" y2="1" gradientTransform="matrix(54.105141,0,0,59.03077,3.924148,7.269931)"><stop offset="0" style="stop-color:rgb(41.960785%,64.313728%,100%);stop-opacity:1;"/><stop offset="1" style="stop-color:rgb(0%,43.137255%,100%);stop-opacity:1;"/></linearGradient><filter style="color-interpolation-filters:sRGB;" inkscape:label="Diffuse Light" id="filter184" x="-0.0375" y="-0.0375" width="1.075" height="1.075"><feGaussianBlur in="SourceGraphic" stdDeviation="1" result="blur" id="feGaussianBlur174" /><feDiffuseLighting diffuseConstant="1" surfaceScale="10" lighting-color="rgb(255,255,255)" result="diffuse" id="feDiffuseLighting178"><feDistantLight elevation="8" azimuth="235" id="feDistantLight176" /></feDiffuseLighting><feComposite in="diffuse" in2="diffuse" operator="arithmetic" k1="1" result="composite1" id="feComposite180" /><feComposite in="composite1" in2="SourceGraphic" k1="1" operator="arithmetic" k3="1" result="composite2" id="feComposite182" /></filter></defs><g id="surface1" style="filter:url(#filter184)"><path style=" stroke:none;fill-rule:nonzero;fill:url(#linear0);" d="M 33.386719 6.835938 L 25.3125 36.71875 L 18.910156 27.9375 L 18.824219 27.8125 L 18.75 27.953125 L 15.246094 35.363281 L 0.480469 35.433594 L 0.480469 35.542969 L 0.472656 35.660156 L 0.480469 35.660156 L 15.800781 37.644531 L 15.863281 37.652344 L 15.890625 37.59375 L 18.9375 32.328125 L 26.503906 44.242188 L 26.617188 44.417969 L 26.671875 44.21875 L 32.496094 24.484375 L 38.539062 56.882812 L 38.597656 57.195312 L 38.71875 56.917969 L 47.375 36.761719 L 55.703125 36.78125 C 56.308594 38.425781 57.785156 39.578125 59.511719 39.578125 C 61.773438 39.578125 63.605469 37.589844 63.605469 35.128906 C 63.605469 32.671875 61.773438 30.683594 59.511719 30.683594 C 57.652344 30.683594 56.085938 32.023438 55.585938 33.863281 L 46.066406 33.980469 L 46.011719 33.980469 L 45.980469 34.042969 L 40.402344 45.3125 L 33.570312 6.851562 L 33.390625 6.835938 "/></g></svg>
