<svg width="64" height="64" viewBox="0 0 64 64" version="1.1" xmlns:inkscape="http://www.inkscape.org/namespaces/inkscape"><defs><linearGradient id="linear0" gradientUnits="userSpaceOnUse" x1="0" y1="0" x2="0" y2="1" gradientTransform="matrix(68.75387,0,0,48.857604,3.217394,7.979235)"><stop offset="0" style="stop-color:rgb(61.176473%,69.803923%,85.09804%);stop-opacity:1;"/><stop offset="1" style="stop-color:rgb(44.313726%,52.156866%,65.882355%);stop-opacity:1;"/></linearGradient><linearGradient id="linear1" gradientUnits="userSpaceOnUse" x1="0" y1="0" x2="0" y2="1" gradientTransform="matrix(68.75387,0,0,48.857604,3.217394,7.979235)"><stop offset="0" style="stop-color:rgb(61.176473%,69.803923%,85.09804%);stop-opacity:1;"/><stop offset="1" style="stop-color:rgb(44.313726%,52.156866%,65.882355%);stop-opacity:1;"/></linearGradient><linearGradient id="linear2" gradientUnits="userSpaceOnUse" x1="0" y1="0" x2="0" y2="1" gradientTransform="matrix(68.75387,0,0,48.857604,3.217394,7.979235)"><stop offset="0" style="stop-color:rgb(61.176473%,69.803923%,85.09804%);stop-opacity:1;"/><stop offset="1" style="stop-color:rgb(44.313726%,52.156866%,65.882355%);stop-opacity:1;"/></linearGradient><linearGradient id="linear3" gradientUnits="userSpaceOnUse" x1="0" y1="0" x2="0" y2="1" gradientTransform="matrix(68.75387,0,0,48.857604,3.217394,7.979235)"><stop offset="0" style="stop-color:rgb(61.176473%,69.803923%,85.09804%);stop-opacity:1;"/><stop offset="1" style="stop-color:rgb(44.313726%,52.156866%,65.882355%);stop-opacity:1;"/></linearGradient><filter style="color-interpolation-filters:sRGB;" inkscape:label="Diffuse Light" id="filter184" x="-0.0375" y="-0.0375" width="1.075" height="1.075"><feGaussianBlur in="SourceGraphic" stdDeviation="1" result="blur" id="feGaussianBlur174" /><feDiffuseLighting diffuseConstant="1" surfaceScale="10" lighting-color="rgb(255,255,255)" result="diffuse" id="feDiffuseLighting178"><feDistantLight elevation="8" azimuth="235" id="feDistantLight176" /></feDiffuseLighting><feComposite in="diffuse" in2="diffuse" operator="arithmetic" k1="1" result="composite1" id="feComposite180" /><feComposite in="composite1" in2="SourceGraphic" k1="1" operator="arithmetic" k3="1" result="composite2" id="feComposite182" /></filter></defs><g id="surface1" style="filter:url(#filter184)"><path style=" stroke:none;fill-rule:nonzero;fill:url(#linear0);" d="M 54.007812 14.976562 L 23.394531 31.925781 L 54.007812 48.871094 L 56.199219 44.007812 L 34.425781 31.925781 L 56.199219 19.839844 Z M 54.007812 14.976562 "/><path style=" stroke:none;fill-rule:nonzero;fill:url(#linear1);" d="M 60.667969 47.300781 C 60.667969 51.308594 57.738281 54.554688 54.121094 54.554688 C 50.5 54.554688 47.570312 51.308594 47.570312 47.300781 C 47.570312 43.289062 50.5 40.042969 54.121094 40.042969 C 57.738281 40.042969 60.667969 43.289062 60.667969 47.300781 Z M 60.667969 47.300781 "/><path style=" stroke:none;fill-rule:nonzero;fill:url(#linear2);" d="M 62.757812 17.203125 C 62.757812 21.210938 59.828125 24.464844 56.210938 24.464844 C 52.597656 24.464844 49.660156 21.210938 49.660156 17.203125 C 49.660156 13.195312 52.597656 9.945312 56.210938 9.945312 C 59.828125 9.945312 62.757812 13.195312 62.757812 17.203125 Z M 62.757812 17.203125 "/><path style=" stroke:none;fill-rule:nonzero;fill:url(#linear3);" d="M 1.042969 11.296875 L 1.042969 55.21875 L 9.078125 55.21875 L 9.078125 38.75 L 17.105469 38.75 L 17.105469 55.21875 L 25.132812 55.21875 L 25.132812 11.296875 L 17.105469 11.296875 L 17.105469 27.765625 L 9.078125 27.765625 L 9.078125 11.296875 Z M 1.042969 11.296875 "/></g></svg>
