<svg width="64" height="64" viewBox="0 0 64 64" version="1.1" xmlns:inkscape="http://www.inkscape.org/namespaces/inkscape"><defs><linearGradient id="linear0" gradientUnits="userSpaceOnUse" x1="0" y1="0" x2="0" y2="1" gradientTransform="matrix(62.535443,0,0,39.736964,2.880549,12.37544)"><stop offset="0" style="stop-color:rgb(92.941177%,83.529413%,72.549021%);stop-opacity:1;"/><stop offset="1" style="stop-color:rgb(81.960785%,71.372551%,59.215689%);stop-opacity:1;"/></linearGradient><filter style="color-interpolation-filters:sRGB;" inkscape:label="Diffuse Light" id="filter184" x="-0.0375" y="-0.0375" width="1.075" height="1.075"><feGaussianBlur in="SourceGraphic" stdDeviation="1" result="blur" id="feGaussianBlur174" /><feDiffuseLighting diffuseConstant="1" surfaceScale="10" lighting-color="rgb(255,255,255)" result="diffuse" id="feDiffuseLighting178"><feDistantLight elevation="8" azimuth="235" id="feDistantLight176" /></feDiffuseLighting><feComposite in="diffuse" in2="diffuse" operator="arithmetic" k1="1" result="composite1" id="feComposite180" /><feComposite in="composite1" in2="SourceGraphic" k1="1" operator="arithmetic" k3="1" result="composite2" id="feComposite182" /></filter></defs><g id="surface1" style="filter:url(#filter184)"><path style=" stroke:none;fill-rule:nonzero;fill:url(#linear0);" d="M 3.320312 1.457031 L 3.320312 18.019531 L 18.71875 18.019531 L 18.71875 1.457031 Z M 44.386719 1.457031 L 44.386719 18.019531 L 59.789062 18.019531 L 59.789062 1.457031 Z M 3.320312 23.539062 L 3.320312 40.101562 L 18.71875 40.101562 L 18.71875 23.539062 Z M 44.386719 23.539062 L 44.386719 40.101562 L 59.789062 40.101562 L 59.789062 23.539062 Z M 26.832031 26.296875 L 26.832031 37.335938 L 36.6875 37.335938 L 36.6875 26.296875 Z M 3.320312 45.617188 L 3.320312 62.179688 L 18.71875 62.179688 L 18.71875 45.617188 Z M 44.386719 45.617188 L 44.386719 62.179688 L 59.789062 62.179688 L 59.789062 45.617188 Z M 44.386719 45.617188 "/></g></svg>
