<svg width="64" height="64" viewBox="0 0 64 64" version="1.1" xmlns:inkscape="http://www.inkscape.org/namespaces/inkscape"><defs><linearGradient id="linear0" gradientUnits="userSpaceOnUse" x1="0" y1="0" x2="0" y2="1" gradientTransform="matrix(108.456882,0,0,139.02751,-21.218172,-28.667421)"><stop offset="0" style="stop-color:rgb(81.960785%,70.980394%,59.215689%);stop-opacity:1;"/><stop offset="1" style="stop-color:rgb(65.098041%,53.725493%,41.568628%);stop-opacity:1;"/></linearGradient><linearGradient id="linear1" gradientUnits="userSpaceOnUse" x1="0" y1="0" x2="0" y2="1" gradientTransform="matrix(108.456882,0,0,139.02751,-21.218172,-28.667421)"><stop offset="0" style="stop-color:rgb(81.960785%,70.980394%,59.215689%);stop-opacity:1;"/><stop offset="1" style="stop-color:rgb(65.098041%,53.725493%,41.568628%);stop-opacity:1;"/></linearGradient><filter style="color-interpolation-filters:sRGB;" inkscape:label="Diffuse Light" id="filter184" x="-0.0375" y="-0.0375" width="1.075" height="1.075"><feGaussianBlur in="SourceGraphic" stdDeviation="1" result="blur" id="feGaussianBlur174" /><feDiffuseLighting diffuseConstant="1" surfaceScale="10" lighting-color="rgb(255,255,255)" result="diffuse" id="feDiffuseLighting178"><feDistantLight elevation="8" azimuth="235" id="feDistantLight176" /></feDiffuseLighting><feComposite in="diffuse" in2="diffuse" operator="arithmetic" k1="1" result="composite1" id="feComposite180" /><feComposite in="composite1" in2="SourceGraphic" k1="1" operator="arithmetic" k3="1" result="composite2" id="feComposite182" /></filter></defs><g id="surface1" style="filter:url(#filter184)"><path style=" stroke:none;fill-rule:nonzero;fill:url(#linear0);" d="M 6.960938 9.476562 L 12.484375 9.476562 C 15.503906 9.476562 17.949219 12.871094 17.949219 17.0625 L 17.949219 46.457031 C 17.949219 50.648438 15.503906 54.042969 12.484375 54.042969 L 6.960938 54.042969 C 3.945312 54.042969 1.5 50.648438 1.5 46.457031 L 1.5 17.0625 C 1.5 12.871094 3.945312 9.476562 6.960938 9.476562 Z M 6.960938 9.476562 "/><path style=" stroke:none;fill-rule:nonzero;fill:url(#linear1);" d="M 52.558594 9.476562 L 58.089844 9.476562 C 61.101562 9.476562 63.550781 12.871094 63.550781 17.0625 L 63.550781 46.457031 C 63.550781 50.648438 61.101562 54.042969 58.089844 54.042969 L 52.558594 54.042969 C 49.546875 54.042969 47.097656 50.648438 47.097656 46.457031 L 47.097656 17.0625 C 47.097656 12.871094 49.546875 9.476562 52.558594 9.476562 Z M 52.558594 9.476562 "/></g></svg>
