<svg width="64" height="64" viewBox="0 0 64 64" version="1.1" xmlns:inkscape="http://www.inkscape.org/namespaces/inkscape"><defs><linearGradient id="linear0" gradientUnits="userSpaceOnUse" x1="0" y1="0" x2="0" y2="1" gradientTransform="matrix(70.06648,0,0,68.68985,-1.634552,-0.243794)"><stop offset="0" style="stop-color:rgb(87.058824%,86.666667%,56.470591%);stop-opacity:1;"/><stop offset="1" style="stop-color:rgb(67.843139%,67.450982%,38.039216%);stop-opacity:1;"/></linearGradient><filter style="color-interpolation-filters:sRGB;" inkscape:label="Diffuse Light" id="filter184" x="-0.0375" y="-0.0375" width="1.075" height="1.075"><feGaussianBlur in="SourceGraphic" stdDeviation="1" result="blur" id="feGaussianBlur174" /><feDiffuseLighting diffuseConstant="1" surfaceScale="10" lighting-color="rgb(255,255,255)" result="diffuse" id="feDiffuseLighting178"><feDistantLight elevation="8" azimuth="235" id="feDistantLight176" /></feDiffuseLighting><feComposite in="diffuse" in2="diffuse" operator="arithmetic" k1="1" result="composite1" id="feComposite180" /><feComposite in="composite1" in2="SourceGraphic" k1="1" operator="arithmetic" k3="1" result="composite2" id="feComposite182" /></filter></defs><g id="surface1" style="filter:url(#filter184)"><path style=" stroke:none;fill-rule:nonzero;fill:url(#linear0);" d="M 22.46875 20.703125 C 26.441406 16 30.410156 10.324219 33.390625 4.78125 L 24.386719 0.984375 C 21.339844 8.175781 16.226562 15.582031 14.457031 17.519531 C 12.828125 19.59375 11.480469 20.84375 9.925781 21.261719 C 10.980469 23.609375 12.476562 27.96875 12.976562 29.703125 C 13.535156 29.074219 16.726562 28.65625 19.777344 28.65625 L 46.429688 28.65625 C 45.019531 44.164062 43.097656 52.121094 40.402344 54.132812 C 39.347656 54.957031 38.28125 55.097656 36.511719 55.097656 C 34.027344 55.097656 28.28125 55.097656 22.609375 54.613281 C 24.457031 57.039062 25.800781 60.703125 26.011719 63.191406 C 31.117188 63.46875 36.296875 63.539062 39.414062 63.261719 C 43.171875 62.921875 45.65625 62.226562 47.996094 59.527344 C 51.753906 55.996094 53.738281 46.65625 55.792969 24.582031 C 55.933594 23.402344 56.074219 20.703125 56.074219 20.703125 Z M 22.46875 20.703125 "/></g></svg>
