<svg xmlns="http://www.w3.org/2000/svg" xmlns:xlink="http://www.w3.org/1999/xlink" width="64" height="64" viewBox="0 0 64 64" version="1.1"><defs><filter id="alpha" filterUnits="objectBoundingBox" x="0%" y="0%" width="100%" height="100%"> <feColorMatrix type="matrix" in="SourceGraphic" values="0 0 0 0 1 0 0 0 0 1 0 0 0 0 1 0 0 0 1 0"/></filter><mask id="mask0"><rect x="0" y="0" width="64" height="64" style="fill:rgb(0%,0%,0%);fill-opacity:0.99;stroke:none;"/></mask><clipPath id="clip1"> <rect x="0" y="0" width="64" height="64"/></clipPath></defs><use xlink:href="#surface5" mask="url(#mask0)"/><path style=" stroke:none;fill-rule:nonzero;fill:rgb(100%,100%,100%);fill-opacity:1;" d="M 10.023438 17.582031 L 10.023438 18.28125 L 10.011719 24.613281 L 15.640625 24.625 L 15.601562 42.21875 L 9.972656 42.207031 L 9.972656 42.90625 L 9.960938 48.53125 L 16.988281 48.546875 L 17 43.621094 L 46.554688 43.683594 L 46.542969 48.609375 L 52.871094 48.621094 L 52.882812 42.296875 L 47.957031 42.285156 L 47.996094 24.6875 L 53.640625 24.703125 L 53.636719 17.675781 L 46.609375 17.660156 L 46.609375 18.359375 L 46.597656 23.289062 L 17.042969 23.226562 L 17.054688 17.597656 Z M 11.425781 18.984375 L 15.652344 19 L 15.640625 23.226562 L 11.414062 23.214844 Z M 48.007812 19.0625 L 52.238281 19.078125 L 52.238281 23.304688 L 48 23.289062 Z M 17.039062 24.625 L 46.59375 24.6875 L 46.558594 42.285156 L 17.003906 42.222656 Z M 27.195312 28.800781 L 27.183594 35.992188 C 27.179688 36.199219 27.179688 36.378906 27.175781 36.523438 C 27.171875 36.667969 27.164062 36.769531 27.152344 36.835938 C 27.144531 36.898438 27.132812 36.953125 27.121094 37.007812 C 27.113281 37.058594 27.109375 37.105469 27.109375 37.148438 C 27.109375 37.226562 27.132812 37.289062 27.183594 37.339844 C 27.234375 37.390625 27.296875 37.414062 27.375 37.414062 C 27.4375 37.414062 27.492188 37.390625 27.542969 37.351562 L 28.238281 37.351562 L 28.25 33.214844 L 31.910156 36.101562 L 32.714844 37.359375 L 33.507812 37.359375 L 33.914062 37.679688 L 33.914062 37.359375 L 33.957031 37.359375 L 33.976562 28.910156 L 32.980469 28.910156 L 32.972656 33.398438 L 29.746094 30.828125 L 28.507812 28.898438 L 27.320312 28.898438 Z M 20.683594 28.882812 L 20.683594 29.15625 L 20.113281 29.15625 L 20.097656 37.335938 L 24.996094 37.351562 C 25 37.351562 25.003906 37.351562 25.011719 37.351562 L 25.390625 37.351562 L 25.390625 37.285156 C 25.402344 37.273438 25.421875 37.273438 25.433594 37.269531 C 25.515625 37.214844 25.558594 37.15625 25.558594 37.085938 C 25.5625 37.019531 25.535156 36.960938 25.484375 36.917969 C 25.460938 36.898438 25.429688 36.882812 25.390625 36.871094 L 25.394531 36.417969 L 23.046875 36.402344 L 23.054688 33.382812 L 25.1875 33.398438 L 25.1875 32.472656 L 23.054688 32.460938 L 23.058594 31.761719 L 24.234375 31.761719 C 24.300781 31.761719 24.359375 31.761719 24.410156 31.773438 C 24.460938 31.789062 24.511719 31.789062 24.554688 31.789062 C 24.613281 31.789062 24.664062 31.789062 24.699219 31.789062 L 24.800781 31.789062 C 24.902344 31.789062 24.980469 31.769531 25.039062 31.730469 C 25.097656 31.6875 25.128906 31.625 25.128906 31.546875 C 25.128906 31.472656 25.097656 31.414062 25.035156 31.378906 C 24.976562 31.335938 24.90625 31.3125 24.820312 31.3125 C 24.765625 31.3125 24.71875 31.3125 24.675781 31.328125 C 24.636719 31.339844 24.589844 31.339844 24.53125 31.339844 C 24.484375 31.351562 24.425781 31.351562 24.359375 31.351562 L 23.058594 31.351562 L 23.0625 29.835938 L 25.40625 29.847656 L 25.40625 29.667969 C 25.445312 29.65625 25.476562 29.636719 25.5 29.609375 C 25.550781 29.550781 25.578125 29.488281 25.578125 29.421875 C 25.578125 29.347656 25.539062 29.285156 25.46875 29.238281 C 25.453125 29.226562 25.429688 29.222656 25.410156 29.214844 L 25.410156 28.914062 Z M 36.269531 28.917969 L 36.269531 29.191406 L 36.003906 29.191406 L 35.988281 37.371094 L 37.941406 37.382812 L 38.609375 37.382812 C 38.980469 37.382812 39.324219 37.355469 39.652344 37.304688 C 39.753906 37.292969 39.875 37.289062 39.964844 37.277344 C 40.21875 37.238281 40.449219 37.1875 40.652344 37.121094 C 40.859375 37.058594 41.058594 36.976562 41.253906 36.886719 C 41.617188 36.710938 41.941406 36.5 42.226562 36.253906 C 42.515625 36.003906 42.765625 35.722656 42.964844 35.410156 C 43.164062 35.097656 43.320312 34.757812 43.421875 34.386719 C 43.53125 34.019531 43.585938 33.621094 43.589844 33.195312 C 43.589844 32.804688 43.539062 32.425781 43.445312 32.0625 C 43.347656 31.703125 43.210938 31.367188 43.023438 31.058594 C 42.839844 30.75 42.613281 30.472656 42.339844 30.234375 C 42.128906 30.046875 41.886719 29.890625 41.628906 29.757812 C 41.460938 29.628906 41.285156 29.507812 41.089844 29.410156 C 40.464844 29.09375 39.726562 28.933594 38.875 28.929688 Z M 38.953125 29.851562 C 39.855469 29.890625 40.566406 30.144531 41.074219 30.632812 C 41.632812 31.152344 41.910156 31.980469 41.910156 33.109375 C 41.90625 35.1875 40.90625 36.285156 38.9375 36.433594 Z M 42.964844 32.1875 C 43.054688 32.511719 43.097656 32.851562 43.097656 33.199219 C 43.09375 33.585938 43.046875 33.949219 42.949219 34.285156 C 42.925781 34.359375 42.898438 34.429688 42.871094 34.5 C 42.976562 34.070312 43.03125 33.597656 43.03125 33.074219 C 43.035156 32.757812 43.007812 32.46875 42.964844 32.1875 Z M 11.371094 43.609375 L 15.597656 43.625 L 15.589844 47.148438 L 11.363281 47.136719 Z M 47.957031 43.6875 L 51.480469 43.699219 L 51.472656 47.226562 L 47.949219 47.210938 Z M 47.957031 43.6875 "/></svg>
