<svg width="64" height="64" viewBox="0 0 64 64" version="1.1" xmlns:inkscape="http://www.inkscape.org/namespaces/inkscape"><defs><linearGradient id="linear0" gradientUnits="userSpaceOnUse" x1="0" y1="0" x2="0" y2="1" gradientTransform="matrix(62.534108,0,0,44.427083,1.019575,8.046954)"><stop offset="0" style="stop-color:rgb(87.058824%,86.666667%,56.470591%);stop-opacity:1;"/><stop offset="1" style="stop-color:rgb(67.843139%,67.450982%,38.039216%);stop-opacity:1;"/></linearGradient><filter style="color-interpolation-filters:sRGB;" inkscape:label="Diffuse Light" id="filter184" x="-0.0375" y="-0.0375" width="1.075" height="1.075"><feGaussianBlur in="SourceGraphic" stdDeviation="1" result="blur" id="feGaussianBlur174" /><feDiffuseLighting diffuseConstant="1" surfaceScale="10" lighting-color="rgb(255,255,255)" result="diffuse" id="feDiffuseLighting178"><feDistantLight elevation="8" azimuth="235" id="feDistantLight176" /></feDiffuseLighting><feComposite in="diffuse" in2="diffuse" operator="arithmetic" k1="1" result="composite1" id="feComposite180" /><feComposite in="composite1" in2="SourceGraphic" k1="1" operator="arithmetic" k3="1" result="composite2" id="feComposite182" /></filter></defs><g id="surface1" style="filter:url(#filter184)"><path style=" stroke:none;fill-rule:nonzero;fill:url(#linear0);" d="M 7.601562 9.6875 L 0.882812 19.011719 L 7.601562 28.339844 L 12.078125 28.339844 L 14.316406 25.234375 L 16.558594 28.339844 L 23.273438 28.339844 L 25.511719 25.234375 L 27.75 28.339844 L 34.46875 28.339844 L 36.707031 25.234375 L 38.949219 28.339844 L 50.140625 28.339844 L 52.378906 25.234375 L 54.621094 28.339844 L 63.574219 28.339844 L 63.574219 9.6875 L 54.621094 9.6875 L 52.378906 12.792969 L 50.140625 9.6875 L 38.949219 9.6875 L 36.707031 12.792969 L 34.46875 9.6875 L 27.75 9.6875 L 25.511719 12.792969 L 23.273438 9.6875 L 16.558594 9.6875 L 14.316406 12.792969 L 12.078125 9.6875 Z M 21.03125 40.78125 L 14.316406 50.109375 L 21.03125 59.441406 L 27.75 59.441406 L 32.230469 56.332031 L 36.707031 59.441406 L 54.621094 59.441406 L 56.859375 56.332031 L 59.09375 59.441406 L 63.574219 59.441406 L 63.574219 40.78125 L 59.09375 40.78125 L 56.859375 43.894531 L 54.621094 40.78125 L 36.707031 40.78125 L 32.230469 43.894531 L 27.75 40.78125 Z M 21.03125 40.78125 "/></g></svg>
