<svg width="64" height="64" viewBox="0 0 64 64" version="1.1" xmlns:inkscape="http://www.inkscape.org/namespaces/inkscape"><defs><linearGradient id="linear0" gradientUnits="userSpaceOnUse" x1="0" y1="128" x2="128" y2="0" gradientTransform="matrix(0.571059,0,0,0.588106,-3.952188,-5.279723)"><stop offset="0" style="stop-color:rgb(0%,78.823531%,36.862746%);stop-opacity:1;"/><stop offset="1" style="stop-color:rgb(0%,54.11765%,25.098041%);stop-opacity:1;"/></linearGradient><filter style="color-interpolation-filters:sRGB;" inkscape:label="Diffuse Light" id="filter184" x="-0.0375" y="-0.0375" width="1.075" height="1.075"><feGaussianBlur in="SourceGraphic" stdDeviation="1" result="blur" id="feGaussianBlur174" /><feDiffuseLighting diffuseConstant="1" surfaceScale="10" lighting-color="rgb(255,255,255)" result="diffuse" id="feDiffuseLighting178"><feDistantLight elevation="8" azimuth="235" id="feDistantLight176" /></feDiffuseLighting><feComposite in="diffuse" in2="diffuse" operator="arithmetic" k1="1" result="composite1" id="feComposite180" /><feComposite in="composite1" in2="SourceGraphic" k1="1" operator="arithmetic" k3="1" result="composite2" id="feComposite182" /></filter></defs><g id="surface1" style="filter:url(#filter184)"><path style=" stroke:none;fill-rule:nonzero;fill:url(#linear0);" d="M 32.59375 2.121094 C 15.984375 2.121094 1.945312 13.308594 1.945312 27.828125 C 1.945312 41.917969 15.34375 53.785156 33.945312 53.613281 C 36.109375 58.09375 41.007812 62.304688 48.359375 62.46875 L 53.695312 62.597656 L 50.386719 58.210938 C 48.5625 55.796875 47.007812 54.285156 46.609375 50.417969 C 56.230469 46.207031 63.246094 37.894531 63.246094 27.828125 C 63.246094 13.308594 49.207031 2.121094 32.59375 2.121094 Z M 32.59375 7.375 C 47.007812 7.375 58.152344 16.875 58.152344 27.828125 C 58.152344 35.941406 52.125 43.148438 43.027344 46.441406 L 41.3125 47.058594 L 41.355469 48.9375 C 41.378906 51.675781 41.984375 53.773438 42.746094 55.585938 C 40.136719 54.113281 38.457031 51.972656 37.929688 50.257812 L 37.371094 48.324219 L 35.386719 48.40625 C 18.023438 49.246094 7.039062 38.789062 7.039062 27.828125 C 7.039062 16.875 18.183594 7.375 32.59375 7.375 Z M 21.128906 11.183594 L 21.128906 41.113281 L 28.097656 41.113281 L 28.097656 28.078125 L 43.902344 44.554688 L 43.902344 14.503906 L 36.695312 14.503906 L 36.695312 27.707031 Z M 21.128906 11.183594 "/></g></svg>
