<svg width="64" height="64" viewBox="0 0 64 64" version="1.1" xmlns:inkscape="http://www.inkscape.org/namespaces/inkscape"><defs><linearGradient id="linear0" gradientUnits="userSpaceOnUse" x1="0" y1="0" x2="0" y2="1" gradientTransform="matrix(68.320736,0,0,41.861764,-5.269687,10.366586)"><stop offset="0" style="stop-color:rgb(87.058824%,86.666667%,56.470591%);stop-opacity:1;"/><stop offset="1" style="stop-color:rgb(67.843139%,67.450982%,38.039216%);stop-opacity:1;"/></linearGradient><filter style="color-interpolation-filters:sRGB;" inkscape:label="Diffuse Light" id="filter184" x="-0.0375" y="-0.0375" width="1.075" height="1.075"><feGaussianBlur in="SourceGraphic" stdDeviation="1" result="blur" id="feGaussianBlur174" /><feDiffuseLighting diffuseConstant="1" surfaceScale="10" lighting-color="rgb(255,255,255)" result="diffuse" id="feDiffuseLighting178"><feDistantLight elevation="8" azimuth="235" id="feDistantLight176" /></feDiffuseLighting><feComposite in="diffuse" in2="diffuse" operator="arithmetic" k1="1" result="composite1" id="feComposite180" /><feComposite in="composite1" in2="SourceGraphic" k1="1" operator="arithmetic" k3="1" result="composite2" id="feComposite182" /></filter></defs><g id="surface1" style="filter:url(#filter184)"><path style=" stroke:none;fill-rule:nonzero;fill:url(#linear0);" d="M 3.097656 2.417969 C 2.398438 2.417969 1.835938 2.976562 1.835938 3.671875 L 1.835938 61.234375 C 1.835938 61.925781 2.398438 62.480469 3.097656 62.480469 L 30.964844 62.480469 C 31.667969 62.480469 32.230469 61.925781 32.230469 61.234375 L 32.230469 3.671875 C 32.230469 2.976562 31.667969 2.417969 30.964844 2.417969 Z M 41.101562 2.417969 C 40.394531 2.417969 39.832031 2.976562 39.832031 3.671875 L 39.832031 11.175781 C 39.832031 11.871094 40.394531 12.429688 41.101562 12.429688 L 52.496094 12.429688 L 52.496094 61.234375 C 52.496094 61.925781 53.0625 62.480469 53.761719 62.480469 L 61.363281 62.480469 C 62.066406 62.480469 62.632812 61.925781 62.632812 61.234375 L 62.632812 3.671875 C 62.632812 2.976562 62.066406 2.417969 61.363281 2.417969 Z M 11.96875 12.429688 L 22.097656 12.429688 L 22.097656 52.472656 L 11.96875 52.472656 Z M 11.96875 12.429688 "/></g></svg>
