<svg width="64" height="64" viewBox="0 0 64 64" version="1.1" xmlns:inkscape="http://www.inkscape.org/namespaces/inkscape"><defs><linearGradient id="linear0" gradientUnits="userSpaceOnUse" x1="0" y1="0" x2="0" y2="1" gradientTransform="matrix(63.375429,0,0,42.138215,0.29415,10.11862)"><stop offset="0" style="stop-color:rgb(87.058824%,86.666667%,56.470591%);stop-opacity:1;"/><stop offset="1" style="stop-color:rgb(67.843139%,67.450982%,38.039216%);stop-opacity:1;"/></linearGradient><filter style="color-interpolation-filters:sRGB;" inkscape:label="Diffuse Light" id="filter184" x="-0.0375" y="-0.0375" width="1.075" height="1.075"><feGaussianBlur in="SourceGraphic" stdDeviation="1" result="blur" id="feGaussianBlur174" /><feDiffuseLighting diffuseConstant="1" surfaceScale="10" lighting-color="rgb(255,255,255)" result="diffuse" id="feDiffuseLighting178"><feDistantLight elevation="8" azimuth="235" id="feDistantLight176" /></feDiffuseLighting><feComposite in="diffuse" in2="diffuse" operator="arithmetic" k1="1" result="composite1" id="feComposite180" /><feComposite in="composite1" in2="SourceGraphic" k1="1" operator="arithmetic" k3="1" result="composite2" id="feComposite182" /></filter></defs><g id="surface1" style="filter:url(#filter184)"><path style=" stroke:none;fill-rule:nonzero;fill:url(#linear0);" d="M 32.367188 1.570312 C 28.488281 1.570312 25.347656 4.851562 25.347656 8.894531 C 25.347656 12.933594 28.488281 16.210938 32.367188 16.210938 C 36.242188 16.210938 39.386719 12.933594 39.386719 8.894531 C 39.386719 4.851562 36.242188 1.570312 32.367188 1.570312 Z M 32.367188 18.652344 C 29.785156 18.652344 27.6875 20.839844 27.6875 23.53125 C 27.6875 26.226562 29.785156 28.414062 32.367188 28.414062 C 34.953125 28.414062 37.046875 26.226562 37.046875 23.53125 C 37.046875 20.839844 34.953125 18.652344 32.367188 18.652344 Z M 32.367188 30.851562 C 30.925781 30.851562 30.371094 34.5625 29.613281 37.976562 C 29.585938 38.042969 29.558594 38.105469 29.53125 38.171875 L 14.113281 38.171875 L 1.941406 62.574219 L 62.789062 62.574219 L 50.625 38.171875 L 35.199219 38.171875 C 35.179688 38.105469 35.152344 38.042969 35.125 37.976562 C 34.363281 34.5625 33.8125 30.851562 32.367188 30.851562 Z M 32.367188 30.851562 "/></g></svg>
