<svg width="64" height="64" viewBox="0 0 64 64" version="1.1" xmlns:inkscape="http://www.inkscape.org/namespaces/inkscape"><defs><linearGradient id="linear0" gradientUnits="userSpaceOnUse" x1="0" y1="0" x2="0" y2="1" gradientTransform="matrix(79.245138,0,0,43.660672,-3.756346,11.031063)"><stop offset="0" style="stop-color:rgb(61.176473%,69.803923%,85.09804%);stop-opacity:1;"/><stop offset="1" style="stop-color:rgb(44.313726%,52.156866%,65.882355%);stop-opacity:1;"/></linearGradient><filter style="color-interpolation-filters:sRGB;" inkscape:label="Diffuse Light" id="filter184" x="-0.0375" y="-0.0375" width="1.075" height="1.075"><feGaussianBlur in="SourceGraphic" stdDeviation="1" result="blur" id="feGaussianBlur174" /><feDiffuseLighting diffuseConstant="1" surfaceScale="10" lighting-color="rgb(255,255,255)" result="diffuse" id="feDiffuseLighting178"><feDistantLight elevation="8" azimuth="235" id="feDistantLight176" /></feDiffuseLighting><feComposite in="diffuse" in2="diffuse" operator="arithmetic" k1="1" result="composite1" id="feComposite180" /><feComposite in="composite1" in2="SourceGraphic" k1="1" operator="arithmetic" k3="1" result="composite2" id="feComposite182" /></filter></defs><g id="surface1" style="filter:url(#filter184)"><path style=" stroke:none;fill-rule:nonzero;fill:url(#linear0);" d="M 11.765625 1.894531 C 8.765625 1.894531 7.25 4.644531 9.382812 6.25 L 21.3125 15.273438 L 9.382812 24.296875 C 5.476562 27.25 1.667969 32.371094 1.667969 40.121094 C 1.667969 54.210938 16.828125 63.054688 31.996094 63.054688 C 39.984375 63.054688 49.253906 61.210938 54.476562 57.296875 C 55.867188 56.355469 55.976562 54.75 54.726562 53.703125 C 53.484375 52.652344 51.359375 52.566406 49.976562 53.511719 C 47.429688 55.246094 44.921875 55.410156 42.125 55.410156 C 35.378906 55.410156 32.011719 50.695312 32.011719 47.765625 C 32.011719 43.175781 32.636719 41.976562 37.4375 38.363281 L 44.648438 32.910156 L 56.585938 41.929688 C 58.707031 43.53125 62.34375 42.394531 62.34375 40.125 L 62.34375 4.449219 C 62.34375 3.042969 60.835938 1.90625 58.972656 1.90625 Z M 11.765625 1.894531 "/></g></svg>
