<svg width="64" height="64" viewBox="0 0 64 64" version="1.1" xmlns:inkscape="http://www.inkscape.org/namespaces/inkscape"><defs><linearGradient id="linear0" gradientUnits="userSpaceOnUse" x1="0" y1="0" x2="0" y2="1" gradientTransform="matrix(64,0,0,57.597656,0,3.199219)"><stop offset="0" style="stop-color:rgb(61.176473%,69.803923%,85.09804%);stop-opacity:1;"/><stop offset="1" style="stop-color:rgb(44.313726%,52.156866%,65.882355%);stop-opacity:1;"/></linearGradient><filter style="color-interpolation-filters:sRGB;" inkscape:label="Diffuse Light" id="filter184" x="-0.0375" y="-0.0375" width="1.075" height="1.075"><feGaussianBlur in="SourceGraphic" stdDeviation="1" result="blur" id="feGaussianBlur174" /><feDiffuseLighting diffuseConstant="1" surfaceScale="10" lighting-color="rgb(255,255,255)" result="diffuse" id="feDiffuseLighting178"><feDistantLight elevation="8" azimuth="235" id="feDistantLight176" /></feDiffuseLighting><feComposite in="diffuse" in2="diffuse" operator="arithmetic" k1="1" result="composite1" id="feComposite180" /><feComposite in="composite1" in2="SourceGraphic" k1="1" operator="arithmetic" k3="1" result="composite2" id="feComposite182" /></filter></defs><g id="surface1" style="filter:url(#filter184)"><path style=" stroke:none;fill-rule:nonzero;fill:url(#linear0);" d="M 30.398438 3.199219 C 20.285156 3.210938 11.910156 11.070312 11.265625 21.164062 C 4.6875 22.632812 0.0078125 28.464844 0 35.199219 C 0 43.152344 6.449219 49.601562 14.398438 49.601562 L 14.332031 49.601562 L 15.640625 49.671875 C 15.953125 50.765625 16.234375 51.875 16.160156 52.957031 C 16.195312 55.671875 14.703125 57.328125 12.875 58.910156 C 12.40625 59.160156 12.050781 59.449219 12.089844 59.550781 C 12.199219 59.890625 14.332031 60.617188 15.589844 60.742188 C 17.207031 60.90625 19.464844 60.707031 20.753906 60.222656 C 22.804688 59.457031 24.457031 58.171875 25.617188 56.4375 C 26.609375 54.949219 27.128906 53.476562 27.285156 51.761719 L 27.414062 49.671875 L 35.453125 49.601562 L 52 49.601562 C 58.628906 49.601562 64 44.226562 64 37.601562 C 64 30.972656 58.628906 25.601562 52 25.601562 C 51.074219 25.605469 50.160156 25.714844 49.265625 25.933594 C 49.484375 24.769531 49.597656 23.585938 49.601562 22.398438 C 49.601562 11.796875 41.003906 3.199219 30.398438 3.199219 Z M 30.398438 3.199219 "/></g></svg>
