<svg width="64" height="64" viewBox="0 0 64 64" version="1.1" xmlns:inkscape="http://www.inkscape.org/namespaces/inkscape"><defs><linearGradient id="linear0" gradientUnits="userSpaceOnUse" x1="0" y1="0" x2="0" y2="1" gradientTransform="matrix(63.139509,0,0,42.135343,1.252843,9.529495)"><stop offset="0" style="stop-color:rgb(75.686276%,77.64706%,83.92157%);stop-opacity:1;"/><stop offset="1" style="stop-color:rgb(43.529412%,45.09804%,50.196081%);stop-opacity:1;"/></linearGradient><filter style="color-interpolation-filters:sRGB;" inkscape:label="Diffuse Light" id="filter184" x="-0.0375" y="-0.0375" width="1.075" height="1.075"><feGaussianBlur in="SourceGraphic" stdDeviation="1" result="blur" id="feGaussianBlur174" /><feDiffuseLighting diffuseConstant="1" surfaceScale="10" lighting-color="rgb(255,255,255)" result="diffuse" id="feDiffuseLighting178"><feDistantLight elevation="8" azimuth="235" id="feDistantLight176" /></feDiffuseLighting><feComposite in="diffuse" in2="diffuse" operator="arithmetic" k1="1" result="composite1" id="feComposite180" /><feComposite in="composite1" in2="SourceGraphic" k1="1" operator="arithmetic" k3="1" result="composite2" id="feComposite182" /></filter></defs><g id="surface1" style="filter:url(#filter184)"><path style=" stroke:none;fill-rule:nonzero;fill:url(#linear0);" d="M 7.730469 1.726562 C 3.355469 1.726562 1.164062 4.632812 1.164062 10.441406 L 1.164062 39.511719 C 1.164062 45.320312 3.355469 48.226562 7.730469 48.226562 L 42.761719 48.226562 L 42.761719 54.039062 L 20.871094 54.039062 L 20.871094 51.132812 L 14.300781 51.132812 L 14.300781 54.039062 C 14.300781 59.851562 16.511719 62.761719 20.871094 62.761719 L 42.761719 62.761719 C 46.3125 62.761719 49.335938 59.851562 49.335938 54.039062 L 49.335938 48.226562 C 49.335938 42.417969 47.144531 39.511719 42.761719 39.511719 L 7.730469 39.511719 L 7.730469 10.441406 L 55.902344 10.441406 L 55.902344 39.511719 L 51.523438 39.511719 L 51.523438 48.226562 L 55.902344 48.226562 C 60.28125 48.226562 62.472656 45.320312 62.472656 39.511719 L 62.472656 10.441406 C 62.472656 4.632812 60.28125 1.726562 55.902344 1.726562 Z M 14.300781 27.882812 L 14.300781 36.601562 L 20.871094 36.601562 L 20.871094 27.882812 Z M 14.300781 27.882812 "/></g></svg>
