<svg width="64" height="64" viewBox="0 0 64 64" version="1.1" xmlns:inkscape="http://www.inkscape.org/namespaces/inkscape"><defs><linearGradient id="linear0" gradientUnits="userSpaceOnUse" x1="0" y1="0" x2="0" y2="1" gradientTransform="matrix(56,0,0,35.898438,4,14.050781)"><stop offset="0" style="stop-color:rgb(0%,78.823531%,36.862746%);stop-opacity:1;"/><stop offset="1" style="stop-color:rgb(0%,54.11765%,25.098041%);stop-opacity:1;"/></linearGradient><filter style="color-interpolation-filters:sRGB;" inkscape:label="Diffuse Light" id="filter184" x="-0.0375" y="-0.0375" width="1.075" height="1.075"><feGaussianBlur in="SourceGraphic" stdDeviation="1" result="blur" id="feGaussianBlur174" /><feDiffuseLighting diffuseConstant="1" surfaceScale="10" lighting-color="rgb(255,255,255)" result="diffuse" id="feDiffuseLighting178"><feDistantLight elevation="8" azimuth="235" id="feDistantLight176" /></feDiffuseLighting><feComposite in="diffuse" in2="diffuse" operator="arithmetic" k1="1" result="composite1" id="feComposite180" /><feComposite in="composite1" in2="SourceGraphic" k1="1" operator="arithmetic" k3="1" result="composite2" id="feComposite182" /></filter></defs><g id="surface1" style="filter:url(#filter184)"><path style=" stroke:none;fill-rule:nonzero;fill:url(#linear0);" d="M 11.960938 9.707031 C 10.433594 9.707031 9.191406 11.082031 9.191406 12.777344 C 9.191406 14.476562 10.433594 15.847656 11.960938 15.847656 C 13.492188 15.847656 14.734375 14.476562 14.734375 12.777344 C 14.734375 11.082031 13.492188 9.707031 11.960938 9.707031 Z M 50.761719 9.707031 C 49.230469 9.707031 47.992188 11.082031 47.992188 12.777344 C 47.992188 14.476562 49.230469 15.847656 50.761719 15.847656 C 52.292969 15.847656 53.535156 14.476562 53.535156 12.777344 C 53.535156 11.082031 52.292969 9.707031 50.761719 9.707031 Z M 20.277344 25.058594 C 18.746094 25.058594 17.503906 26.433594 17.503906 28.128906 C 17.503906 29.824219 18.746094 31.199219 20.277344 31.199219 C 21.808594 31.199219 23.046875 29.824219 23.046875 28.128906 C 23.046875 26.433594 21.808594 25.058594 20.277344 25.058594 Z M 42.449219 25.058594 C 40.917969 25.058594 39.675781 26.433594 39.675781 28.128906 C 39.675781 29.824219 40.917969 31.199219 42.449219 31.199219 C 43.980469 31.199219 45.21875 29.824219 45.21875 28.128906 C 45.21875 26.433594 43.980469 25.058594 42.449219 25.058594 Z M 0.875 37.339844 C 0.875 37.339844 14.734375 58.832031 31.363281 58.832031 C 47.992188 58.832031 61.847656 37.339844 61.847656 37.339844 C 61.847656 37.339844 45.21875 43.480469 31.363281 43.480469 C 17.503906 43.480469 0.875 37.339844 0.875 37.339844 Z M 0.875 37.339844 "/></g></svg>
