<svg width="64" height="64" viewBox="0 0 64 64" version="1.1" xmlns:inkscape="http://www.inkscape.org/namespaces/inkscape"><defs><linearGradient id="linear0" gradientUnits="userSpaceOnUse" x1="0" y1="0" x2="0" y2="1" gradientTransform="matrix(52.833818,0,0,62.675907,13.398239,13.8118)"><stop offset="0" style="stop-color:rgb(100%,73.333335%,0%);stop-opacity:1;"/><stop offset="1" style="stop-color:rgb(70.19608%,51.372552%,0%);stop-opacity:1;"/></linearGradient><filter style="color-interpolation-filters:sRGB;" inkscape:label="Diffuse Light" id="filter184" x="-0.0375" y="-0.0375" width="1.075" height="1.075"><feGaussianBlur in="SourceGraphic" stdDeviation="1" result="blur" id="feGaussianBlur174" /><feDiffuseLighting diffuseConstant="1" surfaceScale="10" lighting-color="rgb(255,255,255)" result="diffuse" id="feDiffuseLighting178"><feDistantLight elevation="8" azimuth="235" id="feDistantLight176" /></feDiffuseLighting><feComposite in="diffuse" in2="diffuse" operator="arithmetic" k1="1" result="composite1" id="feComposite180" /><feComposite in="composite1" in2="SourceGraphic" k1="1" operator="arithmetic" k3="1" result="composite2" id="feComposite182" /></filter></defs><g id="surface1" style="filter:url(#filter184)"><path style=" stroke:none;fill-rule:evenodd;fill:url(#linear0);" d="M 48.777344 1.816406 L 33.714844 13.960938 L 25.585938 3.492188 C 21.03125 5.613281 16.910156 8.757812 13.425781 12.6875 L 21.855469 23.539062 L 2.089844 39.476562 C 1.917969 41.207031 1.820312 42.964844 1.820312 44.746094 C 1.820312 47.785156 1.417969 50.9375 1.914062 53.800781 C 2.4375 55.320312 2.464844 57.433594 3.121094 58.855469 L 31.605469 36.089844 L 43.535156 51.449219 L 35.765625 59.875 L 61.972656 62.695312 L 62.460938 30.933594 L 53.984375 40.035156 L 43.488281 26.519531 L 63.289062 10.589844 C 59.113281 6.507812 54.1875 3.460938 48.777344 1.816406 "/></g></svg>
