<svg width="64" height="64" viewBox="0 0 64 64" version="1.1" xmlns:inkscape="http://www.inkscape.org/namespaces/inkscape"><defs><linearGradient id="linear0" gradientUnits="userSpaceOnUse" x1="0" y1="0" x2="0" y2="1" gradientTransform="matrix(56,0,0,35.898438,4,14.050781)"><stop offset="0" style="stop-color:rgb(82.352942%,61.176473%,100%);stop-opacity:1;"/><stop offset="1" style="stop-color:rgb(66.666669%,0%,100%);stop-opacity:1;"/></linearGradient><linearGradient id="linear1" gradientUnits="userSpaceOnUse" x1="0" y1="0" x2="0" y2="1" gradientTransform="matrix(56,0,0,35.898438,4,14.050781)"><stop offset="0" style="stop-color:rgb(82.352942%,61.176473%,100%);stop-opacity:1;"/><stop offset="1" style="stop-color:rgb(66.666669%,0%,100%);stop-opacity:1;"/></linearGradient><filter style="color-interpolation-filters:sRGB;" inkscape:label="Diffuse Light" id="filter184" x="-0.0375" y="-0.0375" width="1.075" height="1.075"><feGaussianBlur in="SourceGraphic" stdDeviation="1" result="blur" id="feGaussianBlur174" /><feDiffuseLighting diffuseConstant="1" surfaceScale="10" lighting-color="rgb(255,255,255)" result="diffuse" id="feDiffuseLighting178"><feDistantLight elevation="8" azimuth="235" id="feDistantLight176" /></feDiffuseLighting><feComposite in="diffuse" in2="diffuse" operator="arithmetic" k1="1" result="composite1" id="feComposite180" /><feComposite in="composite1" in2="SourceGraphic" k1="1" operator="arithmetic" k3="1" result="composite2" id="feComposite182" /></filter></defs><g id="surface1" style="filter:url(#filter184)"><path style=" stroke:none;fill-rule:nonzero;fill:url(#linear0);" d="M 4.222656 36.402344 L 29.214844 36.402344 L 29.214844 61.316406 L 4.222656 61.316406 Z M 4.222656 36.402344 "/><path style=" stroke:none;fill-rule:nonzero;fill:url(#linear1);" d="M 3.171875 2.707031 L 3.171875 15.109375 L 7.933594 15.109375 L 7.933594 7.667969 L 15.078125 7.667969 L 15.078125 2.707031 Z M 19.839844 2.707031 L 19.839844 7.667969 L 29.367188 7.667969 L 29.367188 2.707031 Z M 34.128906 2.707031 L 34.128906 7.667969 L 43.65625 7.667969 L 43.65625 2.707031 Z M 48.417969 2.707031 L 48.417969 7.667969 L 55.5625 7.667969 L 55.5625 15.109375 L 60.324219 15.109375 L 60.324219 2.707031 Z M 34.128906 12.628906 L 40.082031 18.832031 L 26.984375 32.472656 L 31.746094 32.472656 L 31.746094 37.433594 L 44.84375 23.792969 L 50.800781 29.992188 L 50.800781 12.628906 Z M 3.171875 20.070312 L 3.171875 29.992188 L 7.933594 29.992188 L 7.933594 20.070312 Z M 55.5625 20.070312 L 55.5625 29.992188 L 60.324219 29.992188 L 60.324219 20.070312 Z M 55.5625 34.953125 L 55.5625 44.875 L 60.324219 44.875 L 60.324219 34.953125 Z M 55.5625 49.835938 L 55.5625 57.277344 L 48.417969 57.277344 L 48.417969 62.238281 L 60.324219 62.238281 L 60.324219 49.835938 Z M 34.128906 57.277344 L 34.128906 62.238281 L 43.65625 62.238281 L 43.65625 57.277344 Z M 34.128906 57.277344 "/></g></svg>
