<svg width="64" height="64" viewBox="0 0 64 64" version="1.1" xmlns:inkscape="http://www.inkscape.org/namespaces/inkscape"><defs><linearGradient id="linear0" gradientUnits="userSpaceOnUse" x1="0" y1="0" x2="0" y2="1" gradientTransform="matrix(68.278491,0,0,67.785744,1.787519,-0.242257)"><stop offset="0" style="stop-color:rgb(81.960785%,70.980394%,59.215689%);stop-opacity:1;"/><stop offset="1" style="stop-color:rgb(65.098041%,53.725493%,41.568628%);stop-opacity:1;"/></linearGradient><filter style="color-interpolation-filters:sRGB;" inkscape:label="Diffuse Light" id="filter184" x="-0.0375" y="-0.0375" width="1.075" height="1.075"><feGaussianBlur in="SourceGraphic" stdDeviation="1" result="blur" id="feGaussianBlur174" /><feDiffuseLighting diffuseConstant="1" surfaceScale="10" lighting-color="rgb(255,255,255)" result="diffuse" id="feDiffuseLighting178"><feDistantLight elevation="8" azimuth="235" id="feDistantLight176" /></feDiffuseLighting><feComposite in="diffuse" in2="diffuse" operator="arithmetic" k1="1" result="composite1" id="feComposite180" /><feComposite in="composite1" in2="SourceGraphic" k1="1" operator="arithmetic" k3="1" result="composite2" id="feComposite182" /></filter></defs><g id="surface1" style="filter:url(#filter184)"><path style=" stroke:none;fill-rule:nonzero;fill:url(#linear0);" d="M 24.332031 2.273438 C 20.058594 2.273438 16.605469 5.695312 16.605469 9.914062 C 16.605469 14.136719 20.058594 17.554688 24.332031 17.554688 C 28.601562 17.554688 32.0625 14.136719 32.0625 9.914062 C 32.0625 5.695312 28.601562 2.273438 24.332031 2.273438 Z M 24.332031 17.554688 L 16.605469 17.554688 L 16.605469 48.121094 L 1.140625 48.121094 C 1.140625 56.558594 8.066406 63.402344 16.605469 63.402344 C 25.140625 63.402344 32.0625 56.558594 32.0625 48.121094 L 32.0625 17.554688 Z M 32.0625 32.832031 C 32.0625 49.710938 45.90625 63.402344 62.972656 63.402344 C 62.972656 60.851562 62.972656 50.667969 62.972656 48.121094 C 57.257812 48.121094 52.289062 45.046875 49.613281 40.476562 L 62.972656 40.476562 L 62.972656 25.191406 L 49.613281 25.191406 C 52.285156 20.628906 57.257812 17.554688 62.972656 17.554688 C 62.972656 15.007812 62.972656 4.820312 62.972656 2.273438 C 45.90625 2.273438 32.0625 15.957031 32.0625 32.832031 Z M 32.0625 32.832031 "/></g></svg>
