<svg width="64" height="64" viewBox="0 0 64 64" version="1.1" xmlns:inkscape="http://www.inkscape.org/namespaces/inkscape"><defs><linearGradient id="linear0" gradientUnits="userSpaceOnUse" x1="0" y1="0" x2="0" y2="1" gradientTransform="matrix(63.875,0,0,63.875,0.125,0.0625)"><stop offset="0" style="stop-color:rgb(61.176473%,69.803923%,85.09804%);stop-opacity:1;"/><stop offset="1" style="stop-color:rgb(44.313726%,52.156866%,65.882355%);stop-opacity:1;"/></linearGradient><filter style="color-interpolation-filters:sRGB;" inkscape:label="Diffuse Light" id="filter184" x="-0.0375" y="-0.0375" width="1.075" height="1.075"><feGaussianBlur in="SourceGraphic" stdDeviation="1" result="blur" id="feGaussianBlur174" /><feDiffuseLighting diffuseConstant="1" surfaceScale="10" lighting-color="rgb(255,255,255)" result="diffuse" id="feDiffuseLighting178"><feDistantLight elevation="8" azimuth="235" id="feDistantLight176" /></feDiffuseLighting><feComposite in="diffuse" in2="diffuse" operator="arithmetic" k1="1" result="composite1" id="feComposite180" /><feComposite in="composite1" in2="SourceGraphic" k1="1" operator="arithmetic" k3="1" result="composite2" id="feComposite182" /></filter></defs><g id="surface1" style="filter:url(#filter184)"><path style=" stroke:none;fill-rule:evenodd;fill:url(#linear0);" d="M 32.125 63.796875 L 0.125 51.9375 L 0.125 10.1875 L 0.300781 10.257812 L 32.6875 0.0625 L 64 12.125 L 63.96875 12.136719 L 64 52.125 L 32.5 63.796875 L 32.5 63.9375 L 32.3125 63.867188 L 32.125 63.9375 Z M 32.328125 22.746094 L 6.207031 12.558594 L 32.5 4.1875 L 57.546875 14.28125 Z M 4.121094 16.039062 L 28.519531 25.558594 L 28.519531 58.199219 L 4.121094 49.160156 Z M 40.4375 48 L 40.4375 53.3125 L 51.8125 49.4375 L 51.8125 44.125 Z M 40.4375 48 "/></g></svg>
