<svg width="64" height="64" viewBox="0 0 64 64" version="1.1" xmlns:inkscape="http://www.inkscape.org/namespaces/inkscape"><defs><linearGradient id="linear0" gradientUnits="userSpaceOnUse" x1="0" y1="0" x2="0" y2="1" gradientTransform="matrix(72.929426,0,0,42.904365,-4.059299,10.524015)"><stop offset="0" style="stop-color:rgb(41.960785%,64.313728%,100%);stop-opacity:1;"/><stop offset="1" style="stop-color:rgb(0%,43.137255%,100%);stop-opacity:1;"/></linearGradient><linearGradient id="linear1" gradientUnits="userSpaceOnUse" x1="0" y1="0" x2="0" y2="1" gradientTransform="matrix(72.929426,0,0,42.904365,-4.059299,10.524015)"><stop offset="0" style="stop-color:rgb(41.960785%,64.313728%,100%);stop-opacity:1;"/><stop offset="1" style="stop-color:rgb(0%,43.137255%,100%);stop-opacity:1;"/></linearGradient><linearGradient id="linear2" gradientUnits="userSpaceOnUse" x1="0" y1="0" x2="0" y2="1" gradientTransform="matrix(72.929426,0,0,42.904365,-4.059299,10.524015)"><stop offset="0" style="stop-color:rgb(41.960785%,64.313728%,100%);stop-opacity:1;"/><stop offset="1" style="stop-color:rgb(0%,43.137255%,100%);stop-opacity:1;"/></linearGradient><filter style="color-interpolation-filters:sRGB;" inkscape:label="Diffuse Light" id="filter184" x="-0.0375" y="-0.0375" width="1.075" height="1.075"><feGaussianBlur in="SourceGraphic" stdDeviation="1" result="blur" id="feGaussianBlur174" /><feDiffuseLighting diffuseConstant="1" surfaceScale="10" lighting-color="rgb(255,255,255)" result="diffuse" id="feDiffuseLighting178"><feDistantLight elevation="8" azimuth="235" id="feDistantLight176" /></feDiffuseLighting><feComposite in="diffuse" in2="diffuse" operator="arithmetic" k1="1" result="composite1" id="feComposite180" /><feComposite in="composite1" in2="SourceGraphic" k1="1" operator="arithmetic" k3="1" result="composite2" id="feComposite182" /></filter></defs><g id="surface1" style="filter:url(#filter184)"><path style=" stroke:none;fill-rule:nonzero;fill:url(#linear0);" d="M 10.371094 1.710938 C 5.617188 1.710938 1.78125 4.90625 1.78125 8.875 L 1.78125 18.433594 C 1.78125 19.753906 3.058594 20.824219 4.644531 20.824219 C 6.230469 20.824219 7.507812 19.753906 7.507812 18.433594 L 7.507812 16.042969 L 13.238281 16.042969 L 13.238281 18.433594 C 13.238281 19.753906 14.515625 20.824219 16.101562 20.824219 C 17.6875 20.824219 18.964844 19.753906 18.964844 18.433594 L 18.964844 8.875 C 18.964844 4.90625 15.132812 1.710938 10.371094 1.710938 Z M 10.371094 6.484375 C 11.960938 6.484375 13.238281 7.554688 13.238281 8.875 L 13.238281 11.265625 L 7.507812 11.265625 L 7.507812 8.875 C 7.507812 7.554688 8.785156 6.484375 10.371094 6.484375 Z M 10.371094 6.484375 "/><path style=" stroke:none;fill-rule:nonzero;fill:url(#linear1);" d="M 54.4375 62.242188 C 59.195312 62.242188 63.03125 59.042969 63.03125 55.078125 L 63.03125 45.519531 C 63.03125 44.199219 61.753906 43.128906 60.164062 43.128906 C 58.578125 43.128906 57.300781 44.199219 57.300781 45.519531 L 57.300781 47.910156 L 51.574219 47.910156 L 51.574219 45.519531 C 51.574219 44.199219 50.296875 43.128906 48.710938 43.128906 C 47.121094 43.128906 45.84375 44.199219 45.84375 45.519531 L 45.84375 55.078125 C 45.84375 59.042969 49.675781 62.242188 54.4375 62.242188 Z M 54.4375 57.464844 C 52.851562 57.464844 51.574219 56.398438 51.574219 55.078125 L 51.574219 52.6875 L 57.300781 52.6875 L 57.300781 55.078125 C 57.300781 56.398438 56.023438 57.464844 54.4375 57.464844 Z M 54.4375 57.464844 "/><path style=" stroke:none;fill-rule:nonzero;fill:url(#linear2);" d="M 32.464844 21.261719 C 32.109375 21.261719 31.769531 21.382812 31.546875 21.597656 L 20.785156 31.695312 C 20.429688 32.035156 20.429688 32.523438 20.785156 32.859375 L 31.546875 42.957031 C 31.769531 43.171875 32.109375 43.292969 32.464844 43.292969 C 32.824219 43.292969 33.164062 43.171875 33.390625 42.957031 L 44.148438 32.859375 C 44.507812 32.523438 44.507812 32.035156 44.148438 31.695312 L 33.390625 21.597656 C 33.164062 21.382812 32.824219 21.261719 32.464844 21.261719 Z M 32.464844 21.261719 "/></g></svg>
