<svg width="64" height="64" viewBox="0 0 64 64" version="1.1" xmlns:inkscape="http://www.inkscape.org/namespaces/inkscape"><defs><linearGradient id="linear0" gradientUnits="userSpaceOnUse" x1="0" y1="0" x2="0" y2="1" gradientTransform="matrix(98.937118,0,0,68.448544,-16.839206,-6.02775)"><stop offset="0" style="stop-color:rgb(100%,73.333335%,0%);stop-opacity:1;"/><stop offset="1" style="stop-color:rgb(70.19608%,51.372552%,0%);stop-opacity:1;"/></linearGradient><linearGradient id="linear1" gradientUnits="userSpaceOnUse" x1="0" y1="0" x2="0" y2="1" gradientTransform="matrix(98.937118,0,0,68.448544,-16.839206,-6.02775)"><stop offset="0" style="stop-color:rgb(100%,73.333335%,0%);stop-opacity:1;"/><stop offset="1" style="stop-color:rgb(70.19608%,51.372552%,0%);stop-opacity:1;"/></linearGradient><filter style="color-interpolation-filters:sRGB;" inkscape:label="Diffuse Light" id="filter184" x="-0.0375" y="-0.0375" width="1.075" height="1.075"><feGaussianBlur in="SourceGraphic" stdDeviation="1" result="blur" id="feGaussianBlur174" /><feDiffuseLighting diffuseConstant="1" surfaceScale="10" lighting-color="rgb(255,255,255)" result="diffuse" id="feDiffuseLighting178"><feDistantLight elevation="8" azimuth="235" id="feDistantLight176" /></feDiffuseLighting><feComposite in="diffuse" in2="diffuse" operator="arithmetic" k1="1" result="composite1" id="feComposite180" /><feComposite in="composite1" in2="SourceGraphic" k1="1" operator="arithmetic" k3="1" result="composite2" id="feComposite182" /></filter></defs><g id="surface1" style="filter:url(#filter184)"><path style=" stroke:none;fill-rule:nonzero;fill:url(#linear0);" d="M 10.753906 1.882812 L 1.332031 12.054688 L 24.886719 37.476562 L 24.886719 62.898438 L 39.019531 62.898438 L 39.019531 37.476562 L 62.574219 12.054688 L 53.152344 1.882812 L 31.953125 24.761719 Z M 10.753906 1.882812 "/><path style=" stroke:none;fill-rule:nonzero;fill:url(#linear1);" d="M 16.902344 3.871094 C 16.308594 3.871094 15.722656 4.117188 15.265625 4.601562 L 3.84375 16.925781 C 2.941406 17.902344 2.941406 19.476562 3.84375 20.449219 L 5.480469 22.207031 C 6.382812 23.183594 7.839844 23.183594 8.742188 22.207031 L 20.160156 9.890625 C 21.0625 8.914062 21.0625 7.339844 20.160156 6.367188 L 18.53125 4.601562 C 18.074219 4.117188 17.488281 3.871094 16.902344 3.871094 Z M 45.976562 3.871094 C 45.390625 3.871094 44.804688 4.117188 44.347656 4.601562 L 42.710938 6.367188 C 41.816406 7.339844 41.816406 8.914062 42.710938 9.890625 L 54.132812 22.207031 C 55.039062 23.183594 56.492188 23.183594 57.398438 22.207031 L 59.035156 20.449219 C 59.929688 19.476562 59.929688 17.902344 59.035156 16.925781 L 47.613281 4.601562 C 47.15625 4.117188 46.570312 3.871094 45.976562 3.871094 Z M 22.015625 49.632812 C 20.710938 49.632812 19.660156 50.773438 19.660156 52.179688 L 19.660156 54.71875 C 19.660156 56.128906 20.710938 57.257812 22.015625 57.257812 L 40.863281 57.257812 C 42.167969 57.257812 43.214844 56.128906 43.214844 54.71875 L 43.214844 52.179688 C 43.214844 50.773438 42.167969 49.632812 40.863281 49.632812 Z M 22.015625 49.632812 "/></g></svg>
