<svg xmlns="http://www.w3.org/2000/svg" xmlns:xlink="http://www.w3.org/1999/xlink" width="64" height="64" viewBox="0 0 64 64" version="1.1"><g id="surface1"><path style=" stroke:none;fill-rule:nonzero;fill:rgb(66.666669%,66.666669%,66.666669%);fill-opacity:1;" d="M 8 40 C 8 43.683594 9.789062 46.667969 12 46.667969 C 14.210938 46.667969 16 43.683594 16 40 L 16 0 L 28 32 L 32 0 L 44 32 L 48 0 L 56 0 L 48 64 L 36 32 L 32 64 L 24 48 C 26.210938 53.890625 23.222656 60.457031 17.332031 62.667969 C 11.441406 64.875 4.875 61.890625 2.667969 56 "/><path style="fill-rule:nonzero;fill:rgb(0%,46.666667%,80.000001%);fill-opacity:1;stroke-width:1;stroke-linecap:butt;stroke-linejoin:miter;stroke:rgb(0%,0%,0%);stroke-opacity:1;stroke-miterlimit:4;" d="M 24 0 L 36 0 L 48 48 L 36 48 Z M 48 0 L 60 0 L 72 48 L 60 48 Z M 72 0 L 84 0 L 96 48 L 84 48 Z M 72 0 " transform="matrix(0.666667,0,0,1.333333,0,0)"/></g></svg>
