<svg width="64" height="64" viewBox="0 0 64 64" version="1.1" xmlns:inkscape="http://www.inkscape.org/namespaces/inkscape"><defs><linearGradient id="linear0" gradientUnits="userSpaceOnUse" x1="0" y1="0" x2="0" y2="1" gradientTransform="matrix(60.488327,0,0,39.514853,0.148259,12.441159)"><stop offset="0" style="stop-color:rgb(41.960785%,64.313728%,100%);stop-opacity:1;"/><stop offset="1" style="stop-color:rgb(0%,43.137255%,100%);stop-opacity:1;"/></linearGradient><filter style="color-interpolation-filters:sRGB;" inkscape:label="Diffuse Light" id="filter184" x="-0.0375" y="-0.0375" width="1.075" height="1.075"><feGaussianBlur in="SourceGraphic" stdDeviation="1" result="blur" id="feGaussianBlur174" /><feDiffuseLighting diffuseConstant="1" surfaceScale="10" lighting-color="rgb(255,255,255)" result="diffuse" id="feDiffuseLighting178"><feDistantLight elevation="8" azimuth="235" id="feDistantLight176" /></feDiffuseLighting><feComposite in="diffuse" in2="diffuse" operator="arithmetic" k1="1" result="composite1" id="feComposite180" /><feComposite in="composite1" in2="SourceGraphic" k1="1" operator="arithmetic" k3="1" result="composite2" id="feComposite182" /></filter></defs><g id="surface1" style="filter:url(#filter184)"><path style=" stroke:none;fill-rule:nonzero;fill:url(#linear0);" d="M 13.078125 4.855469 C 10.445312 4.855469 8.324219 7.496094 8.324219 10.777344 C 8.324219 14.0625 10.445312 16.703125 13.078125 16.703125 L 51.0625 16.703125 C 53.691406 16.703125 55.808594 14.0625 55.808594 10.777344 C 55.808594 7.496094 53.691406 4.855469 51.0625 4.855469 Z M 5.949219 25.585938 C 3.320312 25.585938 1.203125 28.230469 1.203125 31.511719 C 1.203125 34.792969 3.320312 37.429688 5.949219 37.429688 L 58.183594 37.429688 C 60.816406 37.429688 62.933594 34.792969 62.933594 31.511719 C 62.933594 28.230469 60.816406 25.585938 58.183594 25.585938 Z M 13.078125 46.320312 C 10.453125 46.320312 8.324219 48.972656 8.324219 52.238281 C 8.324219 55.511719 10.453125 58.164062 13.078125 58.164062 C 15.695312 58.164062 17.824219 55.511719 17.824219 52.238281 C 17.824219 48.972656 15.695312 46.320312 13.078125 46.320312 Z M 24.945312 46.320312 C 22.316406 46.320312 20.199219 48.960938 20.199219 52.238281 C 20.199219 55.523438 22.316406 58.164062 24.945312 58.164062 L 51.0625 58.164062 C 53.691406 58.164062 55.808594 55.523438 55.808594 52.238281 C 55.808594 48.960938 53.691406 46.320312 51.0625 46.320312 Z M 24.945312 46.320312 "/></g></svg>
