<svg width="64" height="64" viewBox="0 0 64 64" version="1.1" xmlns:inkscape="http://www.inkscape.org/namespaces/inkscape"><defs><linearGradient id="linear0" gradientUnits="userSpaceOnUse" x1="0" y1="0" x2="0" y2="1" gradientTransform="matrix(64,0,0,64,0,0)"><stop offset="0" style="stop-color:rgb(100%,73.333335%,0%);stop-opacity:1;"/><stop offset="1" style="stop-color:rgb(70.19608%,51.372552%,0%);stop-opacity:1;"/></linearGradient><filter style="color-interpolation-filters:sRGB;" inkscape:label="Diffuse Light" id="filter184" x="-0.0375" y="-0.0375" width="1.075" height="1.075"><feGaussianBlur in="SourceGraphic" stdDeviation="1" result="blur" id="feGaussianBlur174" /><feDiffuseLighting diffuseConstant="1" surfaceScale="10" lighting-color="rgb(255,255,255)" result="diffuse" id="feDiffuseLighting178"><feDistantLight elevation="8" azimuth="235" id="feDistantLight176" /></feDiffuseLighting><feComposite in="diffuse" in2="diffuse" operator="arithmetic" k1="1" result="composite1" id="feComposite180" /><feComposite in="composite1" in2="SourceGraphic" k1="1" operator="arithmetic" k3="1" result="composite2" id="feComposite182" /></filter></defs><g id="surface1" style="filter:url(#filter184)"><path style=" stroke:none;fill-rule:nonzero;fill:url(#linear0);" d="M 0 0 L 0 52.828125 L 40.347656 52.867188 L 40.347656 16.132812 L 24.214844 0.0390625 Z M 23.652344 2.785156 L 37.5625 16.695312 L 23.652344 16.695312 Z M 43.132812 11.132812 L 43.132812 37 L 44.910156 35.171875 L 46.910156 37.175781 L 43.132812 40.910156 L 43.132812 41.738281 L 55.652344 41.738281 L 55.652344 44.519531 L 43.132812 44.519531 L 43.132812 45.347656 L 46.910156 49.089844 L 44.910156 51.089844 L 43.132812 49.261719 L 43.132812 55.652344 L 23.652344 55.652344 L 23.652344 63.957031 L 64 64 L 64 27.261719 L 47.867188 11.171875 Z M 47.304688 13.910156 L 61.214844 27.828125 L 47.304688 27.828125 Z M 21.867188 25.4375 L 29.785156 33.390625 L 21.867188 41.347656 L 19.867188 39.347656 L 24.480469 34.785156 L 11.132812 34.785156 L 11.132812 32 L 24.480469 32 L 19.867188 27.4375 Z M 21.867188 25.4375 "/></g></svg>
