<?xml version="1.0" encoding="UTF-8" standalone="no"?><svg width="64" height="64" viewBox="0 0 64 64" version="1.1" id="svg670" sodipodi:docname="kdots.svg" inkscape:version="1.2.2 (b0a8486541, 2022-12-01)" xmlns:inkscape="http://www.inkscape.org/namespaces/inkscape" xmlns:sodipodi="http://sodipodi.sourceforge.net/DTD/sodipodi-0.dtd" xmlns:xlink="http://www.w3.org/1999/xlink" xmlns="http://www.w3.org/2000/svg" xmlns:svg="http://www.w3.org/2000/svg"> <sodipodi:namedview id="namedview672" pagecolor="#ffffff" bordercolor="#000000" borderopacity="0.25" inkscape:showpageshadow="2" inkscape:pageopacity="0.0" inkscape:pagecheckerboard="0" inkscape:deskcolor="#d1d1d1" showgrid="false" inkscape:zoom="3.6875" inkscape:cx="32" inkscape:cy="32.135593" inkscape:window-width="1432" inkscape:window-height="844" inkscape:window-x="0" inkscape:window-y="0" inkscape:window-maximized="1" inkscape:current-layer="svg670" /> <defs id="defs655"> <filter id="alpha" filterUnits="objectBoundingBox" x="0" y="0" width="1" height="1"> <feColorMatrix type="matrix" in="SourceGraphic" values="0 0 0 0 1 0 0 0 0 1 0 0 0 0 1 0 0 0 1 0" id="feColorMatrix589" /> </filter> <mask id="mask0"> <g filter="url(#alpha)" id="g594"> <rect x="0" y="0" width="64" height="64" style="fill:rgb(0%,0%,0%);fill-opacity:0.6;stroke:none;" id="rect592" /> </g> </mask> <linearGradient id="linear0" gradientUnits="userSpaceOnUse" x1="0" y1="0" x2="0" y2="1" gradientTransform="matrix(52.675781,0,0,30.089844,5.785156,19.515625)"> <stop offset="0" style="stop-color:#d29cff;stop-opacity:1;" id="stop597" /> <stop offset="1" style="stop-color:#aa00ff;stop-opacity:1;" id="stop599" /> </linearGradient> <clipPath id="clip1"> <rect x="0" y="0" width="64" height="64" id="rect602" /> </clipPath> <g id="surface5" clip-path="url(#clip1)"> <path style=" stroke:none;fill-rule:evenodd;fill:url(#linear0);" d="M 33.796875 44.9375 L 8.039062 19.515625 L 5.785156 21.796875 L 33.960938 49.605469 L 58.460938 21.714844 L 56.050781 19.601562 Z M 33.796875 44.9375 " id="path605" /> </g> <mask id="mask1"> <g filter="url(#alpha)" id="g610"> <rect x="0" y="0" width="64" height="64" style="fill:rgb(0%,0%,0%);fill-opacity:0.7;stroke:none;" id="rect608" /> </g> </mask> <linearGradient id="linear1" gradientUnits="userSpaceOnUse" x1="0" y1="0" x2="0" y2="1" gradientTransform="matrix(13.480469,0,0,13.476562,26.957031,12.464844)"> <stop offset="0" style="stop-color:#d29cff;stop-opacity:1;" id="stop613" /> <stop offset="1" style="stop-color:#aa00ff;stop-opacity:1;" id="stop615" /> </linearGradient> <clipPath id="clip2"> <rect x="0" y="0" width="64" height="64" id="rect618" /> </clipPath> <g id="surface8" clip-path="url(#clip2)"> <path style=" stroke:none;fill-rule:nonzero;fill:url(#linear1);" d="M 33.699219 25.941406 C 37.421875 25.941406 40.4375 22.925781 40.4375 19.203125 C 40.4375 15.480469 37.421875 12.464844 33.699219 12.464844 C 29.976562 12.464844 26.957031 15.480469 26.957031 19.203125 C 26.957031 22.925781 29.976562 25.941406 33.699219 25.941406 Z M 33.699219 25.941406 " id="path621" /> </g> <mask id="mask2"> <g filter="url(#alpha)" id="g626"> <rect x="0" y="0" width="64" height="64" style="fill:rgb(0%,0%,0%);fill-opacity:0.7;stroke:none;" id="rect624" /> </g> </mask> <linearGradient id="linear2" gradientUnits="userSpaceOnUse" x1="0" y1="0" x2="0" y2="1" gradientTransform="matrix(13.480469,0,0,13.480469,0,39.421875)"> <stop offset="0" style="stop-color:#d29cff;stop-opacity:1;" id="stop629" /> <stop offset="1" style="stop-color:#aa00ff;stop-opacity:1;" id="stop631" /> </linearGradient> <clipPath id="clip3"> <rect x="0" y="0" width="64" height="64" id="rect634" /> </clipPath> <g id="surface11" clip-path="url(#clip3)"> <path style=" stroke:none;fill-rule:nonzero;fill:url(#linear2);" d="M 6.738281 52.902344 C 10.460938 52.902344 13.480469 49.882812 13.480469 46.160156 C 13.480469 42.4375 10.460938 39.421875 6.738281 39.421875 C 3.015625 39.421875 0 42.4375 0 46.160156 C 0 49.882812 3.015625 52.902344 6.738281 52.902344 Z M 6.738281 52.902344 " id="path637" /> </g> <linearGradient id="linear3" gradientUnits="userSpaceOnUse" x1="0" y1="0" x2="0" y2="1" gradientTransform="matrix(13.480469,0,0,13.476562,0,12.464844)"> <stop offset="0" style="stop-color:#d29cff;stop-opacity:1;" id="stop640" /> <stop offset="1" style="stop-color:#aa00ff;stop-opacity:1;" id="stop642" /> </linearGradient> <linearGradient id="linear4" gradientUnits="userSpaceOnUse" x1="0" y1="0" x2="0" y2="1" gradientTransform="matrix(13.480469,0,0,13.480469,26.957031,39.421875)"> <stop offset="0" style="stop-color:#d29cff;stop-opacity:1;" id="stop645" /> <stop offset="1" style="stop-color:#aa00ff;stop-opacity:1;" id="stop647" /> </linearGradient> <linearGradient id="linear5" gradientUnits="userSpaceOnUse" x1="0" y1="0" x2="0" y2="1" gradientTransform="matrix(13.480469,0,0,13.480469,50.519531,12)"> <stop offset="0" style="stop-color:#d29cff;stop-opacity:1;" id="stop650" /> <stop offset="1" style="stop-color:#aa00ff;stop-opacity:1;" id="stop652" /> </linearGradient> <filter style="color-interpolation-filters:sRGB;" inkscape:label="Diffuse Light" id="filter1343" x="-0.0375" y="-0.058676344" width="1.075" height="1.1173527"> <feGaussianBlur in="SourceGraphic" stdDeviation="1" result="blur" id="feGaussianBlur1333" /> <feDiffuseLighting diffuseConstant="1" surfaceScale="10" lighting-color="rgb(255,255,255)" result="diffuse" id="feDiffuseLighting1337"> <feDistantLight elevation="8" azimuth="235" id="feDistantLight1335" /> </feDiffuseLighting> <feComposite in="diffuse" in2="diffuse" operator="arithmetic" k1="1" result="composite1" id="feComposite1339" /> <feComposite in="composite1" in2="SourceGraphic" k1="1" operator="arithmetic" k3="1" result="composite2" id="feComposite1341" /> </filter> </defs> <g id="surface1" style="filter:url(#filter1343)"> <use xlink:href="#surface5" mask="url(#mask0)" id="use657" /> <use xlink:href="#surface8" mask="url(#mask1)" id="use659" /> <use xlink:href="#surface11" mask="url(#mask2)" id="use661" /> <path style=" stroke:none;fill-rule:nonzero;fill:url(#linear3);" d="M 6.738281 25.941406 C 10.460938 25.941406 13.480469 22.925781 13.480469 19.203125 C 13.480469 15.480469 10.460938 12.464844 6.738281 12.464844 C 3.015625 12.464844 0 15.480469 0 19.203125 C 0 22.925781 3.015625 25.941406 6.738281 25.941406 Z M 6.738281 25.941406 " id="path663" /> <path style=" stroke:none;fill-rule:nonzero;fill:url(#linear4);" d="M 33.699219 52.902344 C 37.421875 52.902344 40.4375 49.882812 40.4375 46.160156 C 40.4375 42.4375 37.421875 39.421875 33.699219 39.421875 C 29.976562 39.421875 26.957031 42.4375 26.957031 46.160156 C 26.957031 49.882812 29.976562 52.902344 33.699219 52.902344 Z M 33.699219 52.902344 " id="path665" /> <path style=" stroke:none;fill-rule:nonzero;fill:url(#linear5);" d="M 57.261719 25.480469 C 60.984375 25.480469 64 22.460938 64 18.738281 C 64 15.015625 60.984375 12 57.261719 12 C 53.539062 12 50.519531 15.015625 50.519531 18.738281 C 50.519531 22.460938 53.539062 25.480469 57.261719 25.480469 Z M 57.261719 25.480469 " id="path667" /> </g></svg>
