<svg width="64" height="64" viewBox="0 0 64 64" version="1.1" xmlns:inkscape="http://www.inkscape.org/namespaces/inkscape"><defs><linearGradient id="linear0" gradientUnits="userSpaceOnUse" x1="0" y1="0" x2="0" y2="1" gradientTransform="matrix(60,0,0,59.097656,2,2.902344)"><stop offset="0" style="stop-color:rgb(81.960785%,70.980394%,59.215689%);stop-opacity:1;"/><stop offset="1" style="stop-color:rgb(65.098041%,53.725493%,41.568628%);stop-opacity:1;"/></linearGradient><filter style="color-interpolation-filters:sRGB;" inkscape:label="Diffuse Light" id="filter184" x="-0.0375" y="-0.0375" width="1.075" height="1.075"><feGaussianBlur in="SourceGraphic" stdDeviation="1" result="blur" id="feGaussianBlur174" /><feDiffuseLighting diffuseConstant="1" surfaceScale="10" lighting-color="rgb(255,255,255)" result="diffuse" id="feDiffuseLighting178"><feDistantLight elevation="8" azimuth="235" id="feDistantLight176" /></feDiffuseLighting><feComposite in="diffuse" in2="diffuse" operator="arithmetic" k1="1" result="composite1" id="feComposite180" /><feComposite in="composite1" in2="SourceGraphic" k1="1" operator="arithmetic" k3="1" result="composite2" id="feComposite182" /></filter></defs><g id="surface1" style="filter:url(#filter184)"><path style=" stroke:none;fill-rule:nonzero;fill:url(#linear0);" d="M 38.9375 2.902344 C 26.902344 2.90625 16.070312 10.210938 11.558594 21.371094 L 5.695312 21.371094 L 2 28.757812 L 9.65625 28.757812 C 9.488281 29.980469 9.398438 31.214844 9.386719 32.449219 L 5.695312 39.839844 L 10.367188 39.839844 C 13.734375 52.871094 25.476562 61.980469 38.9375 62 C 47.90625 62 56.394531 57.921875 62 50.917969 L 51.167969 50.917969 C 47.539062 53.324219 43.289062 54.609375 38.9375 54.613281 C 29.554688 54.601562 21.195312 48.683594 18.066406 39.839844 L 42.628906 39.839844 L 46.324219 32.449219 L 16.773438 32.449219 C 16.78125 31.210938 16.894531 29.976562 17.105469 28.757812 L 46.324219 28.757812 L 50.019531 21.371094 L 19.769531 21.371094 C 23.722656 14.519531 31.027344 10.296875 38.9375 10.289062 C 43.285156 10.292969 47.535156 11.578125 51.160156 13.980469 L 61.96875 13.980469 C 56.371094 6.988281 47.898438 2.910156 38.9375 2.902344 Z M 38.9375 2.902344 "/></g></svg>
