<svg width="64" height="64" viewBox="0 0 64 64" version="1.1" xmlns:inkscape="http://www.inkscape.org/namespaces/inkscape"><defs><linearGradient id="linear0" gradientUnits="userSpaceOnUse" x1="0" y1="0" x2="0" y2="1" gradientTransform="matrix(55.023438,0,0,64,4.488281,0)"><stop offset="0" style="stop-color:rgb(92.941177%,83.529413%,72.549021%);stop-opacity:1;"/><stop offset="1" style="stop-color:rgb(81.960785%,71.372551%,59.215689%);stop-opacity:1;"/></linearGradient><filter style="color-interpolation-filters:sRGB;" inkscape:label="Diffuse Light" id="filter184" x="-0.0375" y="-0.0375" width="1.075" height="1.075"><feGaussianBlur in="SourceGraphic" stdDeviation="1" result="blur" id="feGaussianBlur174" /><feDiffuseLighting diffuseConstant="1" surfaceScale="10" lighting-color="rgb(255,255,255)" result="diffuse" id="feDiffuseLighting178"><feDistantLight elevation="8" azimuth="235" id="feDistantLight176" /></feDiffuseLighting><feComposite in="diffuse" in2="diffuse" operator="arithmetic" k1="1" result="composite1" id="feComposite180" /><feComposite in="composite1" in2="SourceGraphic" k1="1" operator="arithmetic" k3="1" result="composite2" id="feComposite182" /></filter></defs><g id="surface1" style="filter:url(#filter184)"><path style=" stroke:none;fill-rule:nonzero;fill:url(#linear0);" d="M 32 64 C 16.8125 64 4.488281 59.859375 4.488281 54.828125 L 4.488281 45.65625 C 4.488281 44.867188 4.882812 44.082031 5.472656 43.390625 C 8.53125 47.335938 19.179688 50.292969 32 50.292969 C 44.820312 50.292969 55.46875 47.335938 58.527344 43.390625 C 59.117188 44.082031 59.511719 44.867188 59.511719 45.65625 L 59.511719 54.828125 C 59.511719 59.859375 47.1875 64 32 64 Z M 32 45.65625 C 16.8125 45.65625 4.488281 41.515625 4.488281 36.488281 L 4.488281 27.316406 C 4.488281 26.824219 4.683594 26.328125 4.882812 25.933594 L 5.472656 25.046875 C 8.53125 28.992188 19.179688 31.949219 32 31.949219 C 44.820312 31.949219 55.46875 28.992188 58.527344 25.046875 L 59.117188 25.933594 C 59.316406 26.429688 59.511719 26.921875 59.511719 27.316406 L 59.511719 36.488281 C 59.511719 41.613281 47.1875 45.65625 32 45.65625 Z M 32 27.414062 C 16.8125 27.414062 4.488281 23.273438 4.488281 18.242188 L 4.488281 9.171875 C 4.488281 4.140625 16.8125 0 32 0 C 47.1875 0 59.511719 4.140625 59.511719 9.171875 L 59.511719 18.242188 C 59.511719 23.273438 47.1875 27.414062 32 27.414062 Z M 32 4.4375 C 21.84375 4.4375 13.65625 6.507812 13.65625 8.972656 C 13.65625 11.4375 21.84375 13.511719 32 13.511719 C 42.15625 13.511719 50.34375 11.4375 50.34375 8.972656 C 50.34375 6.507812 42.15625 4.4375 32 4.4375 Z M 32 4.4375 "/></g></svg>
