<svg width="64" height="64" viewBox="0 0 64 64" version="1.1" xmlns:inkscape="http://www.inkscape.org/namespaces/inkscape"><defs><linearGradient id="linear0" gradientUnits="userSpaceOnUse" x1="0" y1="0" x2="0" y2="1" gradientTransform="matrix(53.81628,0,0,56,7.415645,6.377797)"><stop offset="0" style="stop-color:rgb(100%,56.862748%,82.745099%);stop-opacity:1;"/><stop offset="1" style="stop-color:rgb(100%,0%,60.000002%);stop-opacity:1;"/></linearGradient><filter style="color-interpolation-filters:sRGB;" inkscape:label="Diffuse Light" id="filter184" x="-0.0375" y="-0.0375" width="1.075" height="1.075"><feGaussianBlur in="SourceGraphic" stdDeviation="1" result="blur" id="feGaussianBlur174" /><feDiffuseLighting diffuseConstant="1" surfaceScale="10" lighting-color="rgb(255,255,255)" result="diffuse" id="feDiffuseLighting178"><feDistantLight elevation="8" azimuth="235" id="feDistantLight176" /></feDiffuseLighting><feComposite in="diffuse" in2="diffuse" operator="arithmetic" k1="1" result="composite1" id="feComposite180" /><feComposite in="composite1" in2="SourceGraphic" k1="1" operator="arithmetic" k3="1" result="composite2" id="feComposite182" /></filter></defs><g id="surface1" style="filter:url(#filter184)"><path style=" stroke:none;fill-rule:nonzero;fill:url(#linear0);" d="M 60.222656 22.046875 C 55.289062 16.667969 47.085938 16.449219 41.894531 21.554688 C 40.265625 23.152344 39.132812 25.085938 38.484375 27.144531 C 38.484375 27.148438 38.464844 27.15625 38.464844 27.167969 L 4.484375 26.25 L 0.71875 29.949219 L 4.292969 33.84375 L 6.730469 33.914062 L 9.242188 31.449219 L 11.621094 34.042969 L 14.070312 34.109375 L 16.449219 36.707031 L 18.886719 36.773438 L 21.398438 34.308594 L 23.835938 34.371094 L 26.222656 36.972656 L 28.730469 34.5 L 38.273438 34.761719 C 38.273438 34.765625 38.292969 34.773438 38.292969 34.777344 C 38.832031 36.871094 39.871094 38.863281 41.417969 40.546875 C 46.347656 45.925781 54.554688 46.144531 59.742188 41.039062 L 59.777344 41 C 64.949219 35.886719 65.140625 27.414062 60.222656 22.046875 Z M 56.992188 28.929688 C 58.300781 30.363281 58.238281 32.628906 56.867188 33.992188 C 55.480469 35.355469 53.292969 35.296875 51.972656 33.863281 C 50.660156 32.425781 50.714844 30.15625 52.101562 28.796875 C 53.488281 27.433594 55.675781 27.496094 56.992188 28.929688 Z M 56.992188 28.929688 "/></g></svg>
