<svg width="64" height="64" viewBox="0 0 64 64" version="1.1" xmlns:inkscape="http://www.inkscape.org/namespaces/inkscape"><defs><linearGradient id="linear0" gradientUnits="userSpaceOnUse" x1="0" y1="128" x2="128" y2="0" gradientTransform="matrix(0.576011,0,0,0.667476,-4.982652,-10.739837)"><stop offset="0" style="stop-color:rgb(87.058824%,86.666667%,56.470591%);stop-opacity:1;"/><stop offset="1" style="stop-color:rgb(67.843139%,67.450982%,38.039216%);stop-opacity:1;"/></linearGradient><filter style="color-interpolation-filters:sRGB;" inkscape:label="Diffuse Light" id="filter184" x="-0.0375" y="-0.0375" width="1.075" height="1.075"><feGaussianBlur in="SourceGraphic" stdDeviation="1" result="blur" id="feGaussianBlur174" /><feDiffuseLighting diffuseConstant="1" surfaceScale="10" lighting-color="rgb(255,255,255)" result="diffuse" id="feDiffuseLighting178"><feDistantLight elevation="8" azimuth="235" id="feDistantLight176" /></feDiffuseLighting><feComposite in="diffuse" in2="diffuse" operator="arithmetic" k1="1" result="composite1" id="feComposite180" /><feComposite in="composite1" in2="SourceGraphic" k1="1" operator="arithmetic" k3="1" result="composite2" id="feComposite182" /></filter></defs><g id="surface1" style="filter:url(#filter184)"><path style=" stroke:none;fill-rule:nonzero;fill:url(#linear0);" d="M 5.019531 1.480469 C 3.160156 1.480469 1.628906 3.253906 1.628906 5.40625 L 1.628906 27.246094 C 1.628906 29.390625 3.160156 31.164062 5.019531 31.164062 L 27.464844 31.164062 C 29.316406 31.164062 30.847656 29.390625 30.847656 27.246094 L 30.847656 5.40625 C 30.847656 3.253906 29.316406 1.480469 27.464844 1.480469 Z M 38.210938 1.480469 C 36.804688 1.480469 35.671875 2.796875 35.671875 4.425781 L 35.671875 28.222656 C 35.671875 29.851562 36.804688 31.164062 38.210938 31.164062 L 59.59375 31.164062 C 61 31.164062 62.132812 29.851562 62.132812 28.222656 L 62.132812 4.425781 C 62.132812 2.796875 61 1.480469 59.59375 1.480469 Z M 5.019531 3.921875 L 27.464844 3.921875 C 28.183594 3.921875 28.738281 4.570312 28.738281 5.40625 L 28.738281 27.246094 C 28.738281 28.078125 28.183594 28.703125 27.464844 28.703125 L 5.019531 28.703125 C 4.292969 28.703125 3.738281 28.078125 3.738281 27.246094 L 3.738281 5.40625 C 3.738281 4.570312 4.292969 3.921875 5.019531 3.921875 Z M 4.152344 32.792969 C 2.75 32.792969 1.628906 34.105469 1.628906 35.734375 L 1.628906 59.535156 C 1.628906 61.160156 2.75 62.476562 4.152344 62.476562 L 42.4375 62.476562 C 43.84375 62.476562 44.957031 61.160156 44.957031 59.535156 L 44.957031 35.734375 C 44.957031 34.105469 43.84375 32.792969 42.4375 32.792969 Z M 4.152344 32.792969 "/></g></svg>
