<svg width="64" height="64" viewBox="0 0 64 64" version="1.1" xmlns:inkscape="http://www.inkscape.org/namespaces/inkscape"><defs><linearGradient id="linear0" gradientUnits="userSpaceOnUse" x1="0" y1="0" x2="0" y2="1" gradientTransform="matrix(64,0,0,64,0,0)"><stop offset="0" style="stop-color:rgb(75.686276%,77.64706%,83.92157%);stop-opacity:1;"/><stop offset="1" style="stop-color:rgb(43.529412%,45.09804%,50.196081%);stop-opacity:1;"/></linearGradient><filter style="color-interpolation-filters:sRGB;" inkscape:label="Diffuse Light" id="filter184" x="-0.0375" y="-0.0375" width="1.075" height="1.075"><feGaussianBlur in="SourceGraphic" stdDeviation="1" result="blur" id="feGaussianBlur174" /><feDiffuseLighting diffuseConstant="1" surfaceScale="10" lighting-color="rgb(255,255,255)" result="diffuse" id="feDiffuseLighting178"><feDistantLight elevation="8" azimuth="235" id="feDistantLight176" /></feDiffuseLighting><feComposite in="diffuse" in2="diffuse" operator="arithmetic" k1="1" result="composite1" id="feComposite180" /><feComposite in="composite1" in2="SourceGraphic" k1="1" operator="arithmetic" k3="1" result="composite2" id="feComposite182" /></filter></defs><g id="surface1" style="filter:url(#filter184)"><path style=" stroke:none;fill-rule:nonzero;fill:url(#linear0);" d="M 18.257812 0 C 12.507812 0.0664062 8.300781 -0.140625 4.859375 1.757812 C 3.140625 2.707031 1.777344 4.316406 1.023438 6.320312 C 0.269531 8.324219 0 10.703125 0 13.710938 L 0 51.234375 L 0.671875 51.898438 L 12.765625 64 L 45.742188 64 C 51.492188 63.933594 55.699219 64.140625 59.140625 62.242188 C 60.859375 61.292969 62.222656 59.683594 62.976562 57.679688 C 63.730469 55.675781 64 53.296875 64 50.289062 L 64 13.710938 C 64 10.703125 63.730469 8.324219 62.976562 6.320312 C 62.222656 4.316406 60.859375 2.707031 59.140625 1.757812 C 55.699219 -0.140625 51.492188 0.0664062 45.742188 0 Z M 18.289062 4.570312 L 45.71875 4.570312 C 51.472656 4.636719 55.265625 4.84375 56.9375 5.765625 C 57.777344 6.226562 58.25 6.742188 58.695312 7.929688 C 59.140625 9.117188 59.429688 11.003906 59.429688 13.710938 L 59.429688 50.289062 C 59.429688 52.996094 59.140625 54.882812 58.695312 56.070312 C 58.25 57.257812 57.777344 57.773438 56.9375 58.234375 C 55.800781 58.863281 53.335938 59.105469 50.289062 59.25 L 50.289062 36.570312 L 13.710938 36.570312 L 13.710938 58.476562 L 4.570312 49.335938 L 4.570312 13.710938 C 4.570312 11.003906 4.859375 9.117188 5.304688 7.929688 C 5.75 6.742188 6.230469 6.226562 7.070312 5.765625 C 8.742188 4.84375 12.535156 4.636719 18.289062 4.570312 Z M 22.859375 41.140625 L 32 41.140625 L 32 59.429688 L 22.859375 59.429688 Z M 22.859375 41.140625 "/></g></svg>
