<svg xmlns="http://www.w3.org/2000/svg" xmlns:xlink="http://www.w3.org/1999/xlink" width="64" height="64" viewBox="0 0 64 64" version="1.1"><defs><filter id="alpha" filterUnits="objectBoundingBox" x="0%" y="0%" width="100%" height="100%"> <feColorMatrix type="matrix" in="SourceGraphic" values="0 0 0 0 1 0 0 0 0 1 0 0 0 0 1 0 0 0 1 0"/></filter><mask id="mask0"><rect x="0" y="0" width="64" height="64" style="fill:rgb(0%,0%,0%);fill-opacity:0.99;stroke:none;"/></mask><clipPath id="clip1"> <rect x="0" y="0" width="64" height="64"/></clipPath><mask id="mask1"><rect x="0" y="0" width="64" height="64" style="fill:rgb(0%,0%,0%);fill-opacity:0.193;stroke:none;"/></mask><clipPath id="clip2"> <rect x="0" y="0" width="64" height="64"/></clipPath><path style=" stroke:none;fill-rule:nonzero;fill:rgb(100%,100%,100%);fill-opacity:1;" d="M 57.703125 32 C 57.703125 46.339844 46.078125 57.964844 31.738281 57.964844 C 17.398438 57.964844 5.773438 46.339844 5.773438 32 C 5.773438 17.660156 17.398438 6.035156 31.738281 6.035156 C 46.078125 6.035156 57.703125 17.660156 57.703125 32 Z M 57.703125 32 "/><clipPath id="clip3"> <path d="M 25 34 L 54 34 L 54 52 L 25 52 Z M 25 34 "/></clipPath><clipPath id="clip4"> <path d="M 45.878906 -16.53125 L 97.324219 34.292969 L 28.09375 104.367188 L -23.347656 53.542969 Z M 25.867188 37.675781 C 25.332031 38.242188 24.933594 38.921875 24.578125 39.609375 C 24.003906 40.832031 24.585938 39.585938 24.011719 40.832031 C 23.800781 41.289062 23.523438 41.75 23.574219 42.277344 C 23.585938 42.402344 23.636719 42.519531 23.667969 42.640625 C 23.828125 43.019531 23.988281 43.402344 24.109375 43.800781 C 24.292969 44.386719 24.164062 44.035156 24.328125 44.675781 C 24.367188 44.832031 24.417969 44.984375 24.460938 45.136719 C 24.785156 45.890625 24.472656 45.203125 24.792969 45.808594 C 24.984375 46.171875 25.144531 46.550781 25.332031 46.914062 C 25.414062 47.070312 25.507812 47.222656 25.597656 47.375 C 25.699219 47.535156 25.792969 47.703125 25.90625 47.855469 C 26.152344 48.183594 26.488281 48.394531 26.796875 48.65625 C 26.894531 48.734375 26.984375 48.824219 27.078125 48.90625 C 27.164062 48.984375 27.25 49.058594 27.335938 49.136719 C 27.429688 49.226562 27.519531 49.324219 27.617188 49.410156 C 28.035156 49.769531 28.539062 50.003906 28.992188 50.3125 C 29.742188 50.726562 30.464844 51.183594 31.210938 51.605469 C 31.449219 51.746094 31.699219 51.875 31.929688 52.027344 C 31.964844 52.050781 32.652344 52.558594 32.65625 52.558594 C 32.757812 52.628906 32.863281 52.691406 32.96875 52.757812 C 33.089844 52.832031 33.214844 52.902344 33.335938 52.972656 C 33.464844 53.042969 33.59375 53.113281 33.726562 53.175781 C 33.792969 53.207031 33.871094 53.222656 33.941406 53.261719 C 34.320312 53.457031 34.597656 53.816406 35.011719 53.953125 C 35.257812 54.019531 35.367188 54.050781 35.632812 54.097656 C 36.238281 54.207031 36.847656 54.273438 37.433594 54.46875 C 37.867188 54.613281 38.296875 54.777344 38.734375 54.910156 C 39.578125 55.171875 40.441406 55.339844 41.300781 55.539062 C 41.628906 55.609375 41.957031 55.683594 42.289062 55.742188 C 42.703125 55.816406 43.242188 55.855469 43.652344 55.894531 C 44.65625 55.984375 45.667969 56.042969 46.664062 56.226562 C 46.84375 56.253906 47.023438 56.304688 47.207031 56.316406 C 47.59375 56.347656 47.859375 56.28125 48.242188 56.226562 C 48.902344 56.136719 49.566406 56.054688 50.234375 56.035156 C 50.628906 56.046875 50.824219 56.078125 51.226562 55.945312 C 51.808594 55.75 52.273438 55.425781 52.761719 55.058594 C 53.453125 54.550781 53.871094 54.15625 54.511719 53.59375 C 55.066406 53.023438 55.273438 52.84375 55.746094 52.234375 C 55.90625 52.023438 56.066406 51.808594 56.207031 51.582031 C 56.417969 51.242188 56.585938 50.878906 56.738281 50.511719 C 56.878906 50.652344 57.027344 50.71875 57.25 50.617188 C 57.28125 50.617188 57.3125 50.613281 57.332031 50.609375 C 57.585938 50.550781 57.765625 50.230469 57.871094 50.027344 C 57.945312 49.886719 58.007812 49.738281 58.074219 49.597656 C 58.109375 49.453125 58.15625 49.316406 58.175781 49.171875 C 58.222656 48.871094 58.222656 48.519531 58.210938 48.214844 C 58.191406 47.539062 58.117188 46.863281 58.027344 46.195312 C 57.960938 45.726562 57.6875 43.808594 57.605469 43.40625 C 57.539062 43.078125 57.429688 42.761719 57.339844 42.441406 C 57.265625 42.167969 57.191406 41.894531 57.109375 41.621094 C 56.757812 40.449219 57.042969 41.546875 56.75 40.339844 C 56.703125 40.144531 56.648438 39.953125 56.605469 39.753906 C 56.453125 39.066406 56.386719 38.359375 56.105469 37.707031 C 55.890625 37.28125 55.929688 37.363281 55.71875 36.925781 C 55.640625 36.757812 55.566406 36.582031 55.480469 36.417969 C 55.203125 35.90625 54.855469 35.449219 54.445312 35.042969 C 54.257812 34.878906 54.0625 34.722656 53.882812 34.550781 C 53.8125 34.480469 53.753906 34.402344 53.683594 34.335938 C 53.335938 33.996094 52.925781 33.734375 52.503906 33.5 C 52.253906 33.386719 52.007812 33.257812 51.75 33.160156 C 51.542969 33.082031 51.324219 33.035156 51.113281 32.972656 C 50.363281 32.761719 49.613281 32.558594 48.859375 32.355469 C 48.421875 32.257812 47.980469 32.15625 47.539062 32.066406 C 47.351562 32.027344 47.160156 31.996094 46.972656 31.949219 C 46.820312 31.910156 45.558594 31.53125 45.4375 31.496094 C 44.921875 31.355469 44.417969 31.222656 43.890625 31.15625 C 43.5625 31.113281 43.25 31.082031 42.917969 31.125 C 42.769531 31.144531 42.625 31.199219 42.480469 31.234375 C 42.234375 31.308594 41.789062 31.445312 41.539062 31.507812 C 40.8125 31.683594 40.070312 31.785156 39.347656 31.980469 C 38.890625 32.097656 38.433594 32.226562 37.972656 32.335938 C 37.238281 32.511719 36.476562 32.570312 35.757812 32.828125 C 35.117188 33.066406 35.347656 32.972656 34.714844 33.234375 C 34.320312 33.394531 34.179688 33.464844 33.78125 33.589844 C 33.667969 33.625 33.550781 33.648438 33.4375 33.679688 C 33.324219 33.710938 33.214844 33.742188 33.105469 33.773438 C 32.453125 34.011719 31.800781 34.25 31.171875 34.535156 C 30.921875 34.644531 30.679688 34.777344 30.429688 34.894531 C 28.585938 35.757812 30.445312 34.84375 28.535156 35.800781 C 27.886719 36.179688 27.550781 36.355469 26.925781 36.800781 C 26.644531 37.003906 26.359375 37.207031 26.105469 37.441406 C 26.023438 37.515625 25.945312 37.59375 25.867188 37.675781 Z M 26.433594 38.148438 C 26.503906 38.074219 26.578125 38.003906 26.652344 37.933594 C 26.875 37.730469 27.128906 37.5625 27.375 37.386719 C 28.011719 36.9375 28.25 36.820312 28.90625 36.4375 C 30.792969 35.492188 28.898438 36.425781 30.734375 35.566406 C 30.988281 35.445312 31.238281 35.3125 31.492188 35.195312 C 32.101562 34.921875 32.734375 34.695312 33.359375 34.464844 C 34.28125 34.253906 35.132812 33.84375 36.015625 33.515625 C 36.167969 33.472656 36.316406 33.421875 36.472656 33.382812 C 36.875 33.28125 37.054688 33.273438 37.472656 33.195312 C 37.691406 33.152344 37.910156 33.109375 38.125 33.058594 C 38.132812 33.054688 39.507812 32.699219 39.535156 32.691406 C 40.246094 32.5 40.976562 32.402344 41.691406 32.226562 C 41.996094 32.152344 42.394531 32.027344 42.691406 31.9375 C 42.828125 31.90625 42.957031 31.859375 43.09375 31.839844 C 43.269531 31.820312 43.652344 31.867188 43.816406 31.886719 C 44.304688 31.957031 44.769531 32.074219 45.242188 32.207031 C 45.378906 32.246094 46.609375 32.613281 46.769531 32.65625 C 46.859375 32.679688 47.707031 32.851562 47.863281 32.886719 C 48.144531 32.945312 48.425781 33.011719 48.703125 33.074219 C 49.441406 33.277344 50.183594 33.476562 50.917969 33.683594 C 51.128906 33.742188 51.339844 33.792969 51.542969 33.867188 C 51.769531 33.953125 51.980469 34.070312 52.199219 34.171875 C 52.554688 34.371094 52.902344 34.59375 53.191406 34.882812 C 53.246094 34.9375 53.289062 34.996094 53.34375 35.050781 C 53.394531 35.101562 53.925781 35.566406 53.953125 35.59375 C 54.308594 35.949219 54.609375 36.347656 54.84375 36.792969 C 54.921875 36.9375 54.984375 37.089844 55.054688 37.238281 C 55.238281 37.625 55.253906 37.65625 55.445312 38.035156 C 55.683594 38.632812 55.746094 39.273438 55.882812 39.894531 C 55.929688 40.101562 55.980469 40.308594 56.03125 40.511719 C 56.320312 41.699219 56.046875 40.636719 56.40625 41.84375 C 56.484375 42.109375 56.558594 42.375 56.628906 42.640625 C 56.71875 42.960938 56.828125 43.273438 56.894531 43.601562 C 56.953125 43.886719 57.25 45.96875 57.300781 46.300781 C 57.382812 46.949219 57.457031 47.597656 57.476562 48.253906 C 57.484375 48.523438 57.488281 48.835938 57.441406 49.109375 C 57.425781 49.210938 57.386719 49.3125 57.359375 49.417969 C 57.324219 49.464844 57.269531 49.585938 57.210938 49.703125 C 57.199219 49.652344 57.179688 49.605469 57.152344 49.5625 C 57.140625 49.542969 57.121094 49.53125 57.109375 49.515625 C 57.160156 49.15625 56.910156 48.984375 56.667969 49.101562 C 56.160156 48.609375 55.648438 49.117188 56.15625 49.632812 C 56.167969 49.644531 56.179688 49.65625 56.195312 49.667969 C 56.214844 49.691406 56.234375 49.710938 56.257812 49.734375 C 56.058594 50.25 55.851562 50.765625 55.558594 51.234375 C 55.125 51.925781 54.546875 52.5 53.984375 53.078125 C 53.371094 53.613281 52.957031 54 52.300781 54.484375 C 51.855469 54.8125 51.453125 55.105469 50.925781 55.269531 C 50.695312 55.34375 50.492188 55.3125 50.261719 55.300781 C 49.550781 55.3125 48.847656 55.402344 48.144531 55.496094 C 47.800781 55.542969 47.535156 55.613281 47.195312 55.578125 C 47.058594 55.566406 46.925781 55.527344 46.792969 55.5 C 45.777344 55.3125 44.746094 55.253906 43.722656 55.160156 C 43.324219 55.121094 42.785156 55.082031 42.386719 55.011719 C 42.070312 54.957031 41.757812 54.882812 41.445312 54.820312 C 40.605469 54.621094 39.757812 54.457031 38.933594 54.203125 C 38.507812 54.070312 38.085938 53.910156 37.664062 53.769531 C 36.859375 53.496094 36.011719 53.453125 35.195312 53.238281 C 34.894531 53.066406 34.652344 52.808594 34.34375 52.640625 C 34.238281 52.585938 34.117188 52.546875 34.007812 52.496094 C 33.898438 52.441406 33.789062 52.378906 33.679688 52.320312 C 33.566406 52.253906 33.453125 52.191406 33.34375 52.121094 C 33.246094 52.0625 33.144531 52.003906 33.050781 51.9375 C 32.882812 51.824219 32.53125 51.542969 32.367188 51.433594 C 32.273438 51.371094 31.679688 51.027344 31.582031 50.96875 C 30.832031 50.542969 30.101562 50.085938 29.347656 49.667969 C 28.929688 49.378906 28.453125 49.164062 28.070312 48.828125 C 27.992188 48.757812 27.925781 48.683594 27.851562 48.609375 C 27.757812 48.523438 27.660156 48.441406 27.566406 48.355469 C 27.472656 48.273438 27.382812 48.1875 27.289062 48.105469 C 27.113281 47.960938 26.828125 47.761719 26.660156 47.601562 C 26.445312 47.394531 26.382812 47.25 26.21875 46.980469 C 26.136719 46.839844 26.050781 46.695312 25.972656 46.550781 C 25.792969 46.199219 25.640625 45.835938 25.457031 45.488281 C 25.152344 44.910156 25.375 45.414062 25.140625 44.847656 C 25.105469 44.722656 25.066406 44.601562 25.039062 44.476562 C 24.898438 43.90625 25 44.179688 24.820312 43.601562 C 24.691406 43.175781 24.519531 42.761719 24.347656 42.355469 C 24.328125 42.269531 24.292969 42.1875 24.289062 42.097656 C 24.28125 41.914062 24.628906 41.253906 24.679688 41.144531 C 25.496094 39.390625 24.449219 41.625 25.246094 39.921875 C 25.574219 39.289062 25.9375 38.667969 26.433594 38.148438 Z M 56.960938 49.960938 C 56.96875 49.953125 56.996094 49.9375 57 49.9375 C 57.011719 49.933594 57.015625 49.9375 57.027344 49.9375 C 56.996094 49.957031 56.976562 49.96875 56.953125 49.980469 C 56.953125 49.972656 56.957031 49.96875 56.960938 49.960938 Z M 57.011719 49.960938 C 57.019531 49.953125 57.035156 49.945312 57.046875 49.9375 C 57.054688 49.9375 57.058594 49.9375 57.066406 49.9375 C 57.042969 49.960938 57.019531 49.980469 57 49.988281 C 56.984375 49.992188 56.992188 49.976562 57.011719 49.960938 Z M 57.097656 50.613281 C 57.125 50.613281 57.160156 50.617188 57.199219 50.617188 C 57.191406 50.617188 57.179688 50.625 57.175781 50.625 C 57.027344 50.601562 57.035156 50.605469 57.097656 50.613281 Z M 57.097656 50.613281 "/></clipPath></defs><use xlink:href="#surface5" mask="url(#mask0)"/><use xlink:href="#surface10" mask="url(#mask1)"/><path style=" stroke:none;fill-rule:nonzero;fill:rgb(100%,100%,100%);fill-opacity:1;" d="M 42.046875 15.382812 C 41.757812 15.375 41.390625 15.425781 40.933594 15.53125 L 33.367188 17.066406 L 26.152344 18.492188 C 24.875 18.765625 24.628906 19.476562 24.660156 20.605469 L 24.679688 38.199219 C 24.621094 39.433594 24.488281 40.113281 23.0625 40.34375 C 18.03125 41.089844 17.050781 42.648438 17.082031 44.867188 C 17.113281 47.074219 18.902344 48.84375 21.371094 48.59375 C 23.53125 48.355469 25.144531 47.726562 26.132812 45.726562 C 26.519531 44.972656 26.648438 43.402344 26.550781 41.816406 L 26.535156 27.820312 C 26.539062 26.839844 26.371094 26.296875 27.667969 26.027344 L 34.46875 24.65625 L 35.484375 24.453125 L 35.484375 24.449219 L 40.125 23.515625 C 40.878906 23.363281 41.234375 23.621094 41.246094 24.472656 L 41.265625 34.929688 C 41.207031 36.164062 41.089844 36.730469 39.664062 36.960938 C 34.632812 37.707031 33.640625 39.382812 33.671875 41.597656 C 33.699219 43.804688 35.519531 45.460938 37.984375 45.214844 C 40.148438 44.972656 41.703125 44.414062 42.695312 42.414062 C 43.078125 41.660156 43.109375 40.164062 43.140625 38.546875 L 43.125 17.136719 C 43.125 15.933594 42.921875 15.398438 42.046875 15.382812 Z M 42.046875 15.382812 "/><path style=" stroke:none;fill-rule:nonzero;fill:rgb(51.372552%,68.235296%,81.960785%);fill-opacity:0.992157;" d="M 56.101562 43.488281 C 56.101562 52.191406 49.046875 59.246094 40.34375 59.246094 C 31.640625 59.246094 24.582031 52.191406 24.582031 43.488281 C 24.582031 34.78125 31.640625 27.726562 40.34375 27.726562 C 49.046875 27.726562 56.101562 34.78125 56.101562 43.488281 Z M 56.101562 43.488281 "/><path style=" stroke:none;fill-rule:nonzero;fill:rgb(100%,100%,100%);fill-opacity:0.588235;" d="M 31.414062 36.507812 C 32.328125 35.582031 34.140625 34.820312 35.445312 34.8125 L 51 34.722656 C 52.300781 34.71875 53.375 35.777344 53.382812 37.078125 L 53.460938 49.082031 C 53.46875 50.382812 52.410156 51.453125 51.109375 51.460938 L 35.554688 51.546875 C 34.25 51.554688 32.429688 50.8125 31.5 49.898438 L 26.449219 44.90625 C 25.523438 43.988281 25.511719 42.484375 26.425781 41.558594 Z M 30.878906 41.535156 C 29.960938 42.464844 29.96875 43.960938 30.898438 44.878906 C 31.828125 45.792969 33.324219 45.785156 34.238281 44.859375 C 35.15625 43.929688 35.148438 42.433594 34.21875 41.515625 C 33.289062 40.601562 31.792969 40.609375 30.878906 41.535156 Z M 30.878906 41.535156 "/><path style=" stroke:none;fill-rule:nonzero;fill:rgb(51.764709%,68.627453%,82.352942%);fill-opacity:1;" d="M 50.09375 40.960938 C 49.894531 40.769531 49.636719 40.605469 49.320312 40.476562 C 49.015625 40.347656 48.640625 40.28125 48.203125 40.277344 L 48.1875 40.277344 C 47.707031 40.277344 47.292969 40.359375 46.9375 40.527344 C 46.585938 40.695312 46.292969 40.921875 46.0625 41.203125 C 45.832031 41.484375 45.660156 41.808594 45.546875 42.175781 C 45.4375 42.535156 45.378906 42.910156 45.378906 43.300781 C 45.375 43.808594 45.445312 44.25 45.585938 44.628906 C 45.726562 45.003906 45.917969 45.316406 46.164062 45.566406 C 46.40625 45.8125 46.683594 46.003906 47 46.132812 C 47.316406 46.257812 47.652344 46.320312 47.996094 46.320312 C 48.257812 46.324219 48.484375 46.296875 48.675781 46.238281 C 48.871094 46.179688 49.035156 46.109375 49.175781 46.023438 C 49.3125 45.941406 49.429688 45.847656 49.527344 45.746094 C 49.628906 45.644531 49.71875 45.550781 49.792969 45.460938 L 49.910156 46.179688 L 50.707031 46.183594 L 50.726562 43.089844 L 48.328125 43.078125 L 48.324219 44.046875 L 49.660156 44.050781 C 49.59375 44.339844 49.496094 44.570312 49.367188 44.738281 C 49.238281 44.902344 49.101562 45.027344 48.957031 45.113281 C 48.816406 45.195312 48.679688 45.25 48.546875 45.277344 C 48.417969 45.296875 48.324219 45.308594 48.257812 45.308594 C 48.058594 45.308594 47.855469 45.277344 47.652344 45.214844 C 47.457031 45.15625 47.277344 45.050781 47.117188 44.902344 C 46.964844 44.75 46.839844 44.550781 46.738281 44.300781 C 46.644531 44.042969 46.597656 43.71875 46.601562 43.324219 C 46.605469 42.957031 46.652344 42.640625 46.742188 42.382812 C 46.835938 42.121094 46.957031 41.90625 47.105469 41.742188 C 47.261719 41.578125 47.4375 41.460938 47.636719 41.386719 C 47.839844 41.308594 48.046875 41.269531 48.261719 41.269531 C 48.476562 41.273438 48.65625 41.3125 48.8125 41.394531 C 48.972656 41.46875 49.101562 41.558594 49.203125 41.667969 C 49.308594 41.769531 49.386719 41.875 49.433594 41.980469 C 49.484375 42.085938 49.511719 42.167969 49.511719 42.222656 L 50.710938 42.226562 C 50.695312 42.03125 50.636719 41.820312 50.539062 41.59375 C 50.441406 41.367188 50.296875 41.152344 50.09375 40.960938 Z M 43.261719 40.402344 L 41.878906 40.394531 L 39.796875 46.125 L 41.058594 46.132812 L 41.464844 44.949219 L 43.585938 44.960938 L 43.945312 46.148438 L 45.25 46.152344 Z M 42.558594 41.695312 L 43.253906 43.96875 L 41.792969 43.960938 L 42.542969 41.695312 Z M 40.285156 40.386719 L 35.617188 40.359375 L 35.609375 41.375 L 37.34375 41.382812 L 37.3125 46.109375 L 38.511719 46.117188 L 38.542969 41.390625 L 40.277344 41.402344 Z M 40.285156 40.386719 "/></svg>
