<svg width="64" height="64" viewBox="0 0 64 64" version="1.1" xmlns:inkscape="http://www.inkscape.org/namespaces/inkscape"><defs><linearGradient id="linear0" gradientUnits="userSpaceOnUse" x1="0" y1="0" x2="0" y2="1" gradientTransform="matrix(65.691704,0,0,66.173491,-0.417089,2.161265)"><stop offset="0" style="stop-color:rgb(41.960785%,64.313728%,100%);stop-opacity:1;"/><stop offset="1" style="stop-color:rgb(0%,43.137255%,100%);stop-opacity:1;"/></linearGradient><linearGradient id="linear1" gradientUnits="userSpaceOnUse" x1="0" y1="0" x2="0" y2="1" gradientTransform="matrix(65.691704,0,0,66.173491,-0.417089,2.161265)"><stop offset="0" style="stop-color:rgb(41.960785%,64.313728%,100%);stop-opacity:1;"/><stop offset="1" style="stop-color:rgb(0%,43.137255%,100%);stop-opacity:1;"/></linearGradient><linearGradient id="linear2" gradientUnits="userSpaceOnUse" x1="0" y1="0" x2="0" y2="1" gradientTransform="matrix(65.691704,0,0,66.173491,-0.417089,2.161265)"><stop offset="0" style="stop-color:rgb(41.960785%,64.313728%,100%);stop-opacity:1;"/><stop offset="1" style="stop-color:rgb(0%,43.137255%,100%);stop-opacity:1;"/></linearGradient><linearGradient id="linear3" gradientUnits="userSpaceOnUse" x1="0" y1="0" x2="0" y2="1" gradientTransform="matrix(65.691704,0,0,66.173491,-0.417089,2.161265)"><stop offset="0" style="stop-color:rgb(41.960785%,64.313728%,100%);stop-opacity:1;"/><stop offset="1" style="stop-color:rgb(0%,43.137255%,100%);stop-opacity:1;"/></linearGradient><filter style="color-interpolation-filters:sRGB;" inkscape:label="Diffuse Light" id="filter184" x="-0.0375" y="-0.0375" width="1.075" height="1.075"><feGaussianBlur in="SourceGraphic" stdDeviation="1" result="blur" id="feGaussianBlur174" /><feDiffuseLighting diffuseConstant="1" surfaceScale="10" lighting-color="rgb(255,255,255)" result="diffuse" id="feDiffuseLighting178"><feDistantLight elevation="8" azimuth="235" id="feDistantLight176" /></feDiffuseLighting><feComposite in="diffuse" in2="diffuse" operator="arithmetic" k1="1" result="composite1" id="feComposite180" /><feComposite in="composite1" in2="SourceGraphic" k1="1" operator="arithmetic" k3="1" result="composite2" id="feComposite182" /></filter></defs><g id="surface1" style="filter:url(#filter184)"><path style=" stroke:none;fill-rule:nonzero;fill:url(#linear0);" d="M 30.027344 49.316406 C 30.027344 57.0625 23.78125 63.339844 16.058594 63.339844 C 8.328125 63.339844 2.082031 57.0625 2.082031 49.316406 C 2.082031 41.578125 8.328125 35.296875 16.058594 35.296875 C 23.78125 35.296875 30.027344 41.578125 30.027344 49.316406 "/><path style=" stroke:none;fill-rule:nonzero;fill:url(#linear1);" d="M 63.070312 49.316406 C 63.070312 57.0625 56.816406 63.339844 49.09375 63.339844 C 41.371094 63.339844 35.113281 57.0625 35.113281 49.316406 C 35.113281 41.578125 41.371094 35.296875 49.09375 35.296875 C 56.816406 35.296875 63.070312 41.578125 63.070312 49.316406 "/><path style=" stroke:none;fill-rule:nonzero;fill:url(#linear2);" d="M 30.027344 16.179688 C 30.027344 23.925781 23.78125 30.199219 16.058594 30.199219 C 8.328125 30.199219 2.082031 23.925781 2.082031 16.179688 C 2.082031 8.433594 8.328125 2.160156 16.058594 2.160156 C 23.78125 2.160156 30.027344 8.433594 30.027344 16.179688 "/><path style=" stroke:none;fill-rule:nonzero;fill:url(#linear3);" d="M 63.070312 16.179688 C 63.070312 23.925781 56.816406 30.199219 49.09375 30.199219 C 41.371094 30.199219 35.113281 23.925781 35.113281 16.179688 C 35.113281 8.433594 41.371094 2.160156 49.09375 2.160156 C 56.816406 2.160156 63.070312 8.433594 63.070312 16.179688 "/></g></svg>
