<svg width="64" height="64" viewBox="0 0 64 64" version="1.1" xmlns:inkscape="http://www.inkscape.org/namespaces/inkscape"><defs><linearGradient id="linear0" gradientUnits="userSpaceOnUse" x1="0" y1="0" x2="0" y2="1" gradientTransform="matrix(64,0,0,24.273438,0,19.863281)"><stop offset="0" style="stop-color:rgb(82.352942%,61.176473%,100%);stop-opacity:1;"/><stop offset="1" style="stop-color:rgb(66.666669%,0%,100%);stop-opacity:1;"/></linearGradient><filter style="color-interpolation-filters:sRGB;" inkscape:label="Diffuse Light" id="filter184" x="-0.0375" y="-0.0375" width="1.075" height="1.075"><feGaussianBlur in="SourceGraphic" stdDeviation="1" result="blur" id="feGaussianBlur174" /><feDiffuseLighting diffuseConstant="1" surfaceScale="10" lighting-color="rgb(255,255,255)" result="diffuse" id="feDiffuseLighting178"><feDistantLight elevation="8" azimuth="235" id="feDistantLight176" /></feDiffuseLighting><feComposite in="diffuse" in2="diffuse" operator="arithmetic" k1="1" result="composite1" id="feComposite180" /><feComposite in="composite1" in2="SourceGraphic" k1="1" operator="arithmetic" k3="1" result="composite2" id="feComposite182" /></filter></defs><g id="surface1" style="filter:url(#filter184)"><path style=" stroke:none;fill-rule:evenodd;fill:url(#linear0);" d="M 6.617188 19.863281 L 6.617188 26.484375 L 0 26.484375 L 0 28.6875 L 8.828125 28.6875 L 8.828125 22.070312 L 11.03125 22.070312 L 11.03125 35.3125 L 17.652344 35.3125 L 17.652344 28.6875 L 30.890625 28.6875 L 30.890625 22.070312 L 33.101562 22.070312 L 33.101562 35.3125 L 39.722656 35.3125 L 39.722656 28.6875 L 50.753906 28.6875 L 50.753906 22.070312 L 52.964844 22.070312 L 52.964844 35.3125 L 59.585938 35.3125 L 59.585938 28.6875 L 64 28.6875 L 64 26.484375 L 57.378906 26.484375 L 57.378906 33.101562 L 55.171875 33.101562 L 55.171875 19.863281 L 48.550781 19.863281 L 48.550781 26.484375 L 37.515625 26.484375 L 37.515625 33.101562 L 35.3125 33.101562 L 35.3125 19.863281 L 28.6875 19.863281 L 28.6875 26.484375 L 15.449219 26.484375 L 15.449219 33.101562 L 13.238281 33.101562 L 13.238281 19.863281 Z M 48.550781 37.519531 L 48.550781 44.136719 L 50.753906 44.136719 L 50.753906 37.519531 Z M 44.136719 39.722656 L 44.136719 44.136719 L 46.339844 44.136719 L 46.339844 39.722656 Z M 52.964844 39.722656 L 52.964844 44.136719 L 55.171875 44.136719 L 55.171875 39.722656 Z M 39.722656 41.933594 L 39.722656 44.136719 L 41.929688 44.136719 L 41.929688 41.933594 Z M 57.378906 41.933594 L 57.378906 44.136719 L 59.585938 44.136719 L 59.585938 41.933594 Z M 57.378906 41.933594 "/></g></svg>
