<svg width="64" height="64" viewBox="0 0 64 64" version="1.1" xmlns:inkscape="http://www.inkscape.org/namespaces/inkscape"><defs><linearGradient id="linear0" gradientUnits="userSpaceOnUse" x1="0" y1="0" x2="0" y2="1" gradientTransform="matrix(46.546875,0,0,64,8.726562,0)"><stop offset="0" style="stop-color:rgb(81.960785%,70.980394%,59.215689%);stop-opacity:1;"/><stop offset="1" style="stop-color:rgb(65.098041%,53.725493%,41.568628%);stop-opacity:1;"/></linearGradient><filter style="color-interpolation-filters:sRGB;" inkscape:label="Diffuse Light" id="filter184" x="-0.0375" y="-0.0375" width="1.075" height="1.075"><feGaussianBlur in="SourceGraphic" stdDeviation="1" result="blur" id="feGaussianBlur174" /><feDiffuseLighting diffuseConstant="1" surfaceScale="10" lighting-color="rgb(255,255,255)" result="diffuse" id="feDiffuseLighting178"><feDistantLight elevation="8" azimuth="235" id="feDistantLight176" /></feDiffuseLighting><feComposite in="diffuse" in2="diffuse" operator="arithmetic" k1="1" result="composite1" id="feComposite180" /><feComposite in="composite1" in2="SourceGraphic" k1="1" operator="arithmetic" k3="1" result="composite2" id="feComposite182" /></filter></defs><g id="surface1" style="filter:url(#filter184)"><path style=" stroke:none;fill-rule:nonzero;fill:url(#linear0);" d="M 32 0 C 32 0 17.457031 5.820312 17.457031 17.457031 L 17.457031 34.90625 L 8.726562 43.636719 L 8.726562 49.457031 L 55.273438 49.457031 L 55.273438 43.636719 L 46.542969 34.90625 L 46.542969 17.457031 C 46.542969 5.820312 32 0 32 0 Z M 32 14.542969 C 35.210938 14.542969 37.820312 17.152344 37.820312 20.363281 C 37.820312 23.574219 35.210938 26.179688 32 26.179688 C 28.789062 26.179688 26.179688 23.574219 26.179688 20.363281 C 26.179688 17.152344 28.789062 14.542969 32 14.542969 Z M 23.273438 55.273438 C 23.273438 61.09375 32 64 32 64 C 32 64 40.726562 61.09375 40.726562 55.273438 L 35.671875 55.273438 C 34.011719 57.394531 32 58.566406 32 58.566406 C 32 58.566406 29.988281 57.394531 28.328125 55.273438 Z M 23.273438 55.273438 "/></g></svg>
