<svg width="64" height="64" viewBox="0 0 64 64" version="1.1" xmlns:inkscape="http://www.inkscape.org/namespaces/inkscape"><defs><linearGradient id="linear0" gradientUnits="userSpaceOnUse" x1="0" y1="0" x2="0" y2="1" gradientTransform="matrix(57.745594,0,0,37.584194,3.464731,13.533168)"><stop offset="0" style="stop-color:rgb(100%,73.333335%,0%);stop-opacity:1;"/><stop offset="1" style="stop-color:rgb(70.19608%,51.372552%,0%);stop-opacity:1;"/></linearGradient><filter style="color-interpolation-filters:sRGB;" inkscape:label="Diffuse Light" id="filter184" x="-0.0375" y="-0.0375" width="1.075" height="1.075"><feGaussianBlur in="SourceGraphic" stdDeviation="1" result="blur" id="feGaussianBlur174" /><feDiffuseLighting diffuseConstant="1" surfaceScale="10" lighting-color="rgb(255,255,255)" result="diffuse" id="feDiffuseLighting178"><feDistantLight elevation="8" azimuth="235" id="feDistantLight176" /></feDiffuseLighting><feComposite in="diffuse" in2="diffuse" operator="arithmetic" k1="1" result="composite1" id="feComposite180" /><feComposite in="composite1" in2="SourceGraphic" k1="1" operator="arithmetic" k3="1" result="composite2" id="feComposite182" /></filter></defs><g id="surface1" style="filter:url(#filter184)"><path style=" stroke:none;fill-rule:nonzero;fill:url(#linear0);" d="M 32.421875 1.566406 C 15.28125 1.566406 1.394531 15.398438 1.394531 32.460938 C 1.394531 49.519531 15.28125 63.347656 32.421875 63.347656 C 49.558594 63.347656 63.445312 49.519531 63.445312 32.460938 C 63.445312 15.398438 49.558594 1.566406 32.421875 1.566406 M 32.421875 5.6875 C 37.46875 5.699219 42.414062 7.125 46.6875 9.808594 L 42.761719 9.808594 L 26.214844 30.398438 L 26.214844 9.808594 L 18.105469 9.808594 C 22.390625 7.117188 27.355469 5.6875 32.421875 5.6875 M 17.941406 9.910156 L 17.941406 54.984375 C 10.21875 50.074219 5.542969 41.585938 5.53125 32.460938 C 5.535156 23.328125 10.210938 14.824219 17.941406 9.910156 M 50.683594 12.863281 C 56.171875 17.917969 59.296875 25.015625 59.308594 32.460938 C 59.304688 39.390625 56.597656 46.050781 51.761719 51.035156 L 37.421875 29.585938 L 50.683594 12.855469 M 32.421875 36.0625 L 44.832031 55.113281 L 46.730469 55.113281 C 42.445312 57.800781 37.484375 59.226562 32.421875 59.230469 C 27.367188 59.21875 22.421875 57.792969 18.148438 55.113281 L 26.214844 55.113281 L 26.214844 42.757812 Z M 32.421875 36.0625 "/></g></svg>
