<svg width="64" height="64" viewBox="0 0 64 64" version="1.1" xmlns:inkscape="http://www.inkscape.org/namespaces/inkscape"><defs><linearGradient id="linear0" gradientUnits="userSpaceOnUse" x1="0" y1="0" x2="0" y2="1" gradientTransform="matrix(58.860119,0,0,40.232633,3.433761,12.93625)"><stop offset="0" style="stop-color:rgb(92.941177%,83.529413%,72.549021%);stop-opacity:1;"/><stop offset="1" style="stop-color:rgb(81.960785%,71.372551%,59.215689%);stop-opacity:1;"/></linearGradient><filter style="color-interpolation-filters:sRGB;" inkscape:label="Diffuse Light" id="filter184" x="-0.0375" y="-0.0375" width="1.075" height="1.075"><feGaussianBlur in="SourceGraphic" stdDeviation="1" result="blur" id="feGaussianBlur174" /><feDiffuseLighting diffuseConstant="1" surfaceScale="10" lighting-color="rgb(255,255,255)" result="diffuse" id="feDiffuseLighting178"><feDistantLight elevation="8" azimuth="235" id="feDistantLight176" /></feDiffuseLighting><feComposite in="diffuse" in2="diffuse" operator="arithmetic" k1="1" result="composite1" id="feComposite180" /><feComposite in="composite1" in2="SourceGraphic" k1="1" operator="arithmetic" k3="1" result="composite2" id="feComposite182" /></filter></defs><g id="surface1" style="filter:url(#filter184)"><path style=" stroke:none;fill-rule:nonzero;fill:url(#linear0);" d="M 13.601562 7.566406 C 12.285156 7.566406 11.226562 8.699219 11.226562 10.105469 L 11.226562 15.171875 L 6.480469 15.171875 C 3.847656 15.171875 1.734375 17.4375 1.734375 20.246094 L 1.734375 55.75 C 1.734375 58.5625 3.847656 60.824219 6.480469 60.824219 L 58.703125 60.824219 C 61.328125 60.824219 63.449219 58.5625 63.449219 55.75 L 63.449219 20.246094 C 63.449219 17.4375 61.328125 15.171875 58.703125 15.171875 L 53.949219 15.171875 L 53.949219 10.105469 C 53.949219 8.699219 52.890625 7.566406 51.578125 7.566406 L 42.085938 7.566406 C 40.765625 7.566406 39.710938 8.699219 39.710938 10.105469 L 39.710938 15.171875 L 25.46875 15.171875 L 25.46875 10.105469 C 25.46875 8.699219 24.410156 7.566406 23.097656 7.566406 Z M 13.601562 7.566406 "/></g></svg>
