<svg width="64" height="64" viewBox="0 0 64 64" version="1.1" xmlns:inkscape="http://www.inkscape.org/namespaces/inkscape"><defs><linearGradient id="linear0" gradientUnits="userSpaceOnUse" x1="0" y1="0" x2="0" y2="1" gradientTransform="matrix(61.386044,0,0,86.453087,0.878829,-11.236418)"><stop offset="0" style="stop-color:rgb(81.960785%,70.980394%,59.215689%);stop-opacity:1;"/><stop offset="1" style="stop-color:rgb(65.098041%,53.725493%,41.568628%);stop-opacity:1;"/></linearGradient><filter style="color-interpolation-filters:sRGB;" inkscape:label="Diffuse Light" id="filter184" x="-0.0375" y="-0.0375" width="1.075" height="1.075"><feGaussianBlur in="SourceGraphic" stdDeviation="1" result="blur" id="feGaussianBlur174" /><feDiffuseLighting diffuseConstant="1" surfaceScale="10" lighting-color="rgb(255,255,255)" result="diffuse" id="feDiffuseLighting178"><feDistantLight elevation="8" azimuth="235" id="feDistantLight176" /></feDiffuseLighting><feComposite in="diffuse" in2="diffuse" operator="arithmetic" k1="1" result="composite1" id="feComposite180" /><feComposite in="composite1" in2="SourceGraphic" k1="1" operator="arithmetic" k3="1" result="composite2" id="feComposite182" /></filter></defs><g id="surface1" style="filter:url(#filter184)"><path style=" stroke:none;fill-rule:nonzero;fill:url(#linear0);" d="M 10.390625 2.277344 L 10.390625 14.199219 L 1.320312 14.199219 L 1.320312 25.03125 L 10.390625 25.03125 L 10.390625 41.046875 L 1.320312 41.046875 L 1.320312 51.882812 L 18.292969 51.882812 L 18.292969 62.511719 L 26.605469 62.511719 L 26.605469 51.882812 L 36.523438 51.882812 L 36.523438 62.511719 L 44.839844 62.511719 L 44.839844 51.882812 L 62.414062 51.882812 L 62.414062 41.046875 L 53.246094 41.046875 L 53.246094 25.03125 L 62.414062 25.03125 L 62.414062 14.199219 L 53.246094 14.199219 L 53.246094 2.277344 L 45.523438 2.277344 L 45.523438 14.199219 L 35.8125 14.199219 L 35.8125 2.277344 L 28.097656 2.277344 L 28.097656 14.199219 L 18.117188 14.199219 L 18.117188 2.277344 Z M 18.117188 25.03125 L 28.097656 25.03125 L 28.097656 41.046875 L 18.117188 41.046875 Z M 35.8125 25.03125 L 45.523438 25.03125 L 45.523438 41.046875 L 35.8125 41.046875 Z M 35.8125 25.03125 "/></g></svg>
