<svg width="64" height="64" viewBox="0 0 64 64" version="1.1" xmlns:inkscape="http://www.inkscape.org/namespaces/inkscape"><defs><linearGradient id="linear0" gradientUnits="userSpaceOnUse" x1="0" y1="0" x2="0" y2="1" gradientTransform="matrix(62.142445,0,0,62.633389,1.504803,1.489279)"><stop offset="0" style="stop-color:rgb(0%,73.333335%,100%);stop-opacity:1;"/><stop offset="1" style="stop-color:rgb(0%,52.156866%,70.980394%);stop-opacity:1;"/></linearGradient><filter style="color-interpolation-filters:sRGB;" inkscape:label="Diffuse Light" id="filter184" x="-0.0375" y="-0.0375" width="1.075" height="1.075"><feGaussianBlur in="SourceGraphic" stdDeviation="1" result="blur" id="feGaussianBlur174" /><feDiffuseLighting diffuseConstant="1" surfaceScale="10" lighting-color="rgb(255,255,255)" result="diffuse" id="feDiffuseLighting178"><feDistantLight elevation="8" azimuth="235" id="feDistantLight176" /></feDiffuseLighting><feComposite in="diffuse" in2="diffuse" operator="arithmetic" k1="1" result="composite1" id="feComposite180" /><feComposite in="composite1" in2="SourceGraphic" k1="1" operator="arithmetic" k3="1" result="composite2" id="feComposite182" /></filter></defs><g id="surface1" style="filter:url(#filter184)"><path style=" stroke:none;fill-rule:evenodd;fill:url(#linear0);" d="M 32.039062 1.660156 C 15.117188 1.660156 1.402344 15.421875 1.402344 32.402344 C 1.402344 40.058594 4.1875 47.054688 8.800781 52.4375 L 2.789062 62.855469 L 27.804688 62.855469 C 29.191406 63.050781 30.601562 63.152344 32.039062 63.152344 C 48.953125 63.152344 62.675781 49.390625 62.675781 32.402344 C 62.675781 15.425781 48.964844 1.660156 32.039062 1.660156 M 13.996094 26.5625 C 17.535156 26.5625 20.410156 29.445312 20.410156 33 C 20.410156 36.554688 17.535156 39.4375 13.996094 39.4375 C 10.445312 39.4375 7.578125 36.554688 7.578125 33 C 7.578125 29.445312 10.445312 26.5625 13.996094 26.5625 M 32.636719 26.5625 C 36.179688 26.5625 39.054688 29.445312 39.054688 33 C 39.054688 36.554688 36.179688 39.4375 32.636719 39.4375 C 29.089844 39.4375 26.21875 36.554688 26.21875 33 C 26.21875 29.445312 29.089844 26.5625 32.636719 26.5625 M 51.28125 26.5625 C 54.824219 26.5625 57.699219 29.445312 57.699219 33 C 57.699219 36.554688 54.824219 39.4375 51.28125 39.4375 C 47.742188 39.4375 44.867188 36.554688 44.867188 33 C 44.867188 29.445312 47.742188 26.5625 51.28125 26.5625 "/></g></svg>
