<?xml version="1.0" encoding="UTF-8" standalone="no"?><svg width="64" height="64" viewBox="0 0 64 64" version="1.1" id="svg796" sodipodi:docname="kregexpeditor.svg" inkscape:version="1.2.2 (b0a8486541, 2022-12-01)" xmlns:inkscape="http://www.inkscape.org/namespaces/inkscape" xmlns:sodipodi="http://sodipodi.sourceforge.net/DTD/sodipodi-0.dtd" xmlns:xlink="http://www.w3.org/1999/xlink" xmlns="http://www.w3.org/2000/svg" xmlns:svg="http://www.w3.org/2000/svg"> <sodipodi:namedview id="namedview798" pagecolor="#ffffff" bordercolor="#000000" borderopacity="0.25" inkscape:showpageshadow="2" inkscape:pageopacity="0.0" inkscape:pagecheckerboard="0" inkscape:deskcolor="#d1d1d1" showgrid="false" inkscape:zoom="3.6875" inkscape:cx="32" inkscape:cy="32.135593" inkscape:window-width="1432" inkscape:window-height="844" inkscape:window-x="0" inkscape:window-y="0" inkscape:window-maximized="1" inkscape:current-layer="svg796" /> <defs id="defs785"> <filter id="alpha" filterUnits="objectBoundingBox" x="0" y="0" width="1" height="1"> <feColorMatrix type="matrix" in="SourceGraphic" values="0 0 0 0 1 0 0 0 0 1 0 0 0 0 1 0 0 0 1 0" id="feColorMatrix751" /> </filter> <mask id="mask0"> <g filter="url(#alpha)" id="g756"> <rect x="0" y="0" width="64" height="64" style="fill:rgb(0%,0%,0%);fill-opacity:0.6;stroke:none;" id="rect754" /> </g> </mask> <linearGradient id="linear0" gradientUnits="userSpaceOnUse" x1="0" y1="0" x2="0" y2="1" gradientTransform="matrix(64,0,0,25.597656,0,18.980469)"> <stop offset="0" style="stop-color:#6ba4ff;stop-opacity:1;" id="stop759" /> <stop offset="1" style="stop-color:#006eff;stop-opacity:1;" id="stop761" /> </linearGradient> <clipPath id="clip1"> <rect x="0" y="0" width="64" height="64" id="rect764" /> </clipPath> <g id="surface5" clip-path="url(#clip1)"> <path style=" stroke:none;fill-rule:nonzero;fill:url(#linear0);" d="M 62.222656 18.980469 L 1.777344 18.980469 C 0.796875 18.980469 0 19.800781 0 20.808594 L 0 42.75 C 0 43.761719 0.796875 44.578125 1.777344 44.578125 L 62.222656 44.578125 C 63.203125 44.578125 64 43.761719 64 42.75 L 64 20.808594 C 64 19.800781 63.203125 18.980469 62.222656 18.980469 Z M 62.222656 18.980469 " id="path767" /> </g> <linearGradient id="linear1" gradientUnits="userSpaceOnUse" x1="0" y1="0" x2="0" y2="1" gradientTransform="matrix(16.640625,0,0,26.882812,8.960938,11.738281)"> <stop offset="0" style="stop-color:#6ba4ff;stop-opacity:1;" id="stop770" /> <stop offset="1" style="stop-color:#006eff;stop-opacity:1;" id="stop772" /> </linearGradient> <linearGradient id="linear2" gradientUnits="userSpaceOnUse" x1="0" y1="0" x2="0" y2="1" gradientTransform="matrix(17.917969,0,0,26.882813,37.121094,11.738281)"> <stop offset="0" style="stop-color:#6ba4ff;stop-opacity:1;" id="stop775" /> <stop offset="1" style="stop-color:#006eff;stop-opacity:1;" id="stop777" /> </linearGradient> <linearGradient id="linear3" gradientUnits="userSpaceOnUse" x1="0" y1="0" x2="0" y2="1" gradientTransform="matrix(28.15625,0,0,23.042969,17.921875,29.21875)"> <stop offset="0" style="stop-color:#6ba4ff;stop-opacity:1;" id="stop780" /> <stop offset="1" style="stop-color:#006eff;stop-opacity:1;" id="stop782" /> </linearGradient> <filter style="color-interpolation-filters:sRGB;" inkscape:label="Diffuse Light" id="filter1214" x="-0.0375" y="-0.059224985" width="1.075" height="1.11845"> <feGaussianBlur in="SourceGraphic" stdDeviation="1" result="blur" id="feGaussianBlur1204" /> <feDiffuseLighting diffuseConstant="1" surfaceScale="10" lighting-color="rgb(255,255,255)" result="diffuse" id="feDiffuseLighting1208"> <feDistantLight elevation="8" azimuth="235" id="feDistantLight1206" /> </feDiffuseLighting> <feComposite in="diffuse" in2="diffuse" operator="arithmetic" k1="1" result="composite1" id="feComposite1210" /> <feComposite in="composite1" in2="SourceGraphic" k1="1" operator="arithmetic" k3="1" result="composite2" id="feComposite1212" /> </filter> </defs> <g id="surface1" style="filter:url(#filter1214)"> <use xlink:href="#surface5" mask="url(#mask0)" id="use787" /> <path style=" stroke:none;fill-rule:nonzero;fill:url(#linear1);" d="M 25.601562 37.722656 L 25.601562 12.636719 C 25.601562 12.140625 25.1875 11.738281 24.675781 11.738281 L 9.882812 11.738281 C 9.375 11.738281 8.960938 12.140625 8.960938 12.636719 L 8.960938 37.722656 C 8.960938 38.21875 9.375 38.621094 9.882812 38.621094 L 24.675781 38.621094 C 25.1875 38.621094 25.601562 38.21875 25.601562 37.722656 Z M 25.601562 37.722656 " id="path789" /> <path style=" stroke:none;fill-rule:nonzero;fill:url(#linear2);" d="M 55.039062 37.722656 L 55.039062 12.636719 C 55.039062 12.140625 54.640625 11.738281 54.144531 11.738281 L 38.015625 11.738281 C 37.519531 11.738281 37.121094 12.140625 37.121094 12.636719 L 37.121094 37.722656 C 37.121094 38.21875 37.519531 38.621094 38.015625 38.621094 L 54.144531 38.621094 C 54.640625 38.621094 55.039062 38.21875 55.039062 37.722656 Z M 55.039062 37.722656 " id="path791" /> <path style=" stroke:none;fill-rule:nonzero;fill:url(#linear3);" d="M 19.679688 52.261719 L 44.320312 52.261719 C 45.292969 52.261719 46.078125 51.464844 46.078125 50.488281 L 46.078125 30.992188 C 46.078125 30.011719 45.292969 29.21875 44.320312 29.21875 L 19.679688 29.21875 C 18.707031 29.21875 17.921875 30.011719 17.921875 30.992188 L 17.921875 50.488281 C 17.921875 51.464844 18.707031 52.261719 19.679688 52.261719 Z M 19.679688 52.261719 " id="path793" /> </g></svg>
