<svg width="64" height="64" viewBox="0 0 64 64" version="1.1" xmlns:inkscape="http://www.inkscape.org/namespaces/inkscape"><defs><linearGradient id="linear0" gradientUnits="userSpaceOnUse" x1="0" y1="0" x2="0" y2="1" gradientTransform="matrix(70.341849,0,0,71.090058,-3.274492,-3.47848)"><stop offset="0" style="stop-color:rgb(75.686276%,77.64706%,83.92157%);stop-opacity:1;"/><stop offset="1" style="stop-color:rgb(43.529412%,45.09804%,50.196081%);stop-opacity:1;"/></linearGradient><linearGradient id="linear1" gradientUnits="userSpaceOnUse" x1="0" y1="0" x2="0" y2="1" gradientTransform="matrix(70.341849,0,0,71.090058,-3.274492,-3.47848)"><stop offset="0" style="stop-color:rgb(75.686276%,77.64706%,83.92157%);stop-opacity:1;"/><stop offset="1" style="stop-color:rgb(43.529412%,45.09804%,50.196081%);stop-opacity:1;"/></linearGradient><linearGradient id="linear2" gradientUnits="userSpaceOnUse" x1="0" y1="0" x2="0" y2="1" gradientTransform="matrix(70.341849,0,0,71.090058,-3.274492,-3.47848)"><stop offset="0" style="stop-color:rgb(75.686276%,77.64706%,83.92157%);stop-opacity:1;"/><stop offset="1" style="stop-color:rgb(43.529412%,45.09804%,50.196081%);stop-opacity:1;"/></linearGradient><linearGradient id="linear3" gradientUnits="userSpaceOnUse" x1="0" y1="0" x2="0" y2="1" gradientTransform="matrix(70.341849,0,0,71.090058,-3.274492,-3.47848)"><stop offset="0" style="stop-color:rgb(75.686276%,77.64706%,83.92157%);stop-opacity:1;"/><stop offset="1" style="stop-color:rgb(43.529412%,45.09804%,50.196081%);stop-opacity:1;"/></linearGradient><linearGradient id="linear4" gradientUnits="userSpaceOnUse" x1="0" y1="0" x2="0" y2="1" gradientTransform="matrix(70.341849,0,0,71.090058,-3.274492,-3.47848)"><stop offset="0" style="stop-color:rgb(75.686276%,77.64706%,83.92157%);stop-opacity:1;"/><stop offset="1" style="stop-color:rgb(43.529412%,45.09804%,50.196081%);stop-opacity:1;"/></linearGradient><filter style="color-interpolation-filters:sRGB;" inkscape:label="Diffuse Light" id="filter184" x="-0.0375" y="-0.0375" width="1.075" height="1.075"><feGaussianBlur in="SourceGraphic" stdDeviation="1" result="blur" id="feGaussianBlur174" /><feDiffuseLighting diffuseConstant="1" surfaceScale="10" lighting-color="rgb(255,255,255)" result="diffuse" id="feDiffuseLighting178"><feDistantLight elevation="8" azimuth="235" id="feDistantLight176" /></feDiffuseLighting><feComposite in="diffuse" in2="diffuse" operator="arithmetic" k1="1" result="composite1" id="feComposite180" /><feComposite in="composite1" in2="SourceGraphic" k1="1" operator="arithmetic" k3="1" result="composite2" id="feComposite182" /></filter></defs><g id="surface1" style="filter:url(#filter184)"><path style=" stroke:none;fill-rule:nonzero;fill:url(#linear0);" d="M 22.910156 32.300781 C 22.910156 38.152344 18.195312 42.898438 12.386719 42.898438 C 6.570312 42.898438 1.855469 38.152344 1.855469 32.300781 C 1.855469 26.449219 6.570312 21.703125 12.386719 21.703125 C 18.195312 21.703125 22.910156 26.449219 22.910156 32.300781 "/><path style=" stroke:none;fill-rule:nonzero;fill:url(#linear1);" d="M 62.085938 12.6875 C 62.085938 18.539062 57.371094 23.285156 51.558594 23.285156 C 45.746094 23.285156 41.035156 18.539062 41.035156 12.6875 C 41.035156 6.835938 45.746094 2.089844 51.558594 2.089844 C 57.371094 2.089844 62.085938 6.835938 62.085938 12.6875 "/><path style=" stroke:none;fill-rule:nonzero;fill:url(#linear2);" d="M 62.085938 51.886719 C 62.085938 57.738281 57.371094 62.484375 51.558594 62.484375 C 45.746094 62.484375 41.035156 57.742188 41.035156 51.886719 C 41.035156 46.035156 45.746094 41.296875 51.558594 41.296875 C 57.371094 41.296875 62.085938 46.035156 62.085938 51.886719 "/><path style=" stroke:none;fill-rule:nonzero;fill:url(#linear3);" d="M 18.234375 39.78125 C 19.683594 40.109375 42.054688 51.761719 42.054688 51.761719 L 45.3125 44.015625 L 22.449219 32.4375 Z M 18.234375 39.78125 "/><path style=" stroke:none;fill-rule:nonzero;fill:url(#linear4);" d="M 46 20.210938 C 44.558594 20.542969 22.183594 32.199219 22.183594 32.199219 L 18.925781 24.453125 L 41.789062 12.875 Z M 46 20.210938 "/></g></svg>
