<svg width="64" height="64" viewBox="0 0 64 64" version="1.1" xmlns:inkscape="http://www.inkscape.org/namespaces/inkscape"><defs><linearGradient id="linear0" gradientUnits="userSpaceOnUse" x1="0" y1="0" x2="0" y2="1" gradientTransform="matrix(65.342485,0,0,65.603978,-0.403111,-0.58772)"><stop offset="0" style="stop-color:rgb(100%,56.862748%,82.745099%);stop-opacity:1;"/><stop offset="1" style="stop-color:rgb(100%,0%,60.000002%);stop-opacity:1;"/></linearGradient><filter style="color-interpolation-filters:sRGB;" inkscape:label="Diffuse Light" id="filter184" x="-0.0375" y="-0.0375" width="1.075" height="1.075"><feGaussianBlur in="SourceGraphic" stdDeviation="1" result="blur" id="feGaussianBlur174" /><feDiffuseLighting diffuseConstant="1" surfaceScale="10" lighting-color="rgb(255,255,255)" result="diffuse" id="feDiffuseLighting178"><feDistantLight elevation="8" azimuth="235" id="feDistantLight176" /></feDiffuseLighting><feComposite in="diffuse" in2="diffuse" operator="arithmetic" k1="1" result="composite1" id="feComposite180" /><feComposite in="composite1" in2="SourceGraphic" k1="1" operator="arithmetic" k3="1" result="composite2" id="feComposite182" /></filter></defs><g id="surface1" style="filter:url(#filter184)"><path style=" stroke:none;fill-rule:nonzero;fill:url(#linear0);" d="M 9.433594 1.476562 C 8.945312 1.476562 8.554688 1.871094 8.554688 2.359375 L 8.554688 62.476562 C 8.554688 62.964844 8.945312 63.355469 9.433594 63.355469 L 55.230469 63.355469 C 55.722656 63.355469 56.113281 62.964844 56.113281 62.476562 L 56.113281 20.726562 L 42.40625 20.726562 C 40.625 20.710938 38.113281 21.226562 37.117188 19.273438 C 36.609375 13.371094 36.914062 7.410156 36.898438 1.476562 L 9.433594 1.476562 M 38.554688 1.476562 L 38.554688 18.148438 C 38.554688 18.636719 38.945312 19.035156 39.4375 19.035156 L 56.113281 19.035156 L 38.554688 1.476562 M 27.949219 20.5625 C 28.253906 20.558594 28.507812 20.5625 28.667969 20.5625 C 32.710938 20.5625 34.386719 22.367188 34.386719 26.691406 L 34.386719 33.625 C 34.386719 36.273438 35.394531 37.636719 37.632812 37.949219 L 37.632812 41.523438 C 35.394531 41.832031 34.386719 43.195312 34.386719 45.847656 L 34.386719 52.773438 C 34.386719 57.105469 32.710938 58.910156 28.667969 58.910156 C 28.351562 58.910156 27.636719 58.910156 27.03125 58.867188 L 27.03125 55.332031 C 29.875 55.066406 30.183594 54.585938 30.183594 50.835938 L 30.183594 45.40625 C 30.183594 41.964844 31.113281 40.507812 33.789062 39.710938 C 31.15625 39 30.183594 37.5 30.183594 34.058594 L 30.183594 28.640625 C 30.183594 24.890625 29.875 24.402344 27.03125 24.136719 L 27.03125 20.605469 C 27.335938 20.585938 27.660156 20.574219 27.949219 20.5625 "/></g></svg>
