<svg width="64" height="64" viewBox="0 0 64 64" version="1.1" xmlns:inkscape="http://www.inkscape.org/namespaces/inkscape"><defs><linearGradient id="linear0" gradientUnits="userSpaceOnUse" x1="0" y1="0" x2="0" y2="1" gradientTransform="matrix(65.50214,0,0,62.054438,-0.494471,0.348211)"><stop offset="0" style="stop-color:rgb(0%,78.823531%,36.862746%);stop-opacity:1;"/><stop offset="1" style="stop-color:rgb(0%,54.11765%,25.098041%);stop-opacity:1;"/></linearGradient><filter style="color-interpolation-filters:sRGB;" inkscape:label="Diffuse Light" id="filter184" x="-0.0375" y="-0.0375" width="1.075" height="1.075"><feGaussianBlur in="SourceGraphic" stdDeviation="1" result="blur" id="feGaussianBlur174" /><feDiffuseLighting diffuseConstant="1" surfaceScale="10" lighting-color="rgb(255,255,255)" result="diffuse" id="feDiffuseLighting178"><feDistantLight elevation="8" azimuth="235" id="feDistantLight176" /></feDiffuseLighting><feComposite in="diffuse" in2="diffuse" operator="arithmetic" k1="1" result="composite1" id="feComposite180" /><feComposite in="composite1" in2="SourceGraphic" k1="1" operator="arithmetic" k3="1" result="composite2" id="feComposite182" /></filter></defs><g id="surface1" style="filter:url(#filter184)"><path style=" stroke:none;fill-rule:nonzero;fill:url(#linear0);" d="M 6 38.054688 C 2.945312 40.914062 1.457031 44.714844 1.664062 48.570312 C 1.867188 52.429688 3.613281 55.777344 6.957031 58.347656 C 10.289062 60.925781 14.621094 62.226562 19.160156 62.011719 L 19.167969 62.027344 C 23.691406 61.804688 27.878906 59.621094 30.929688 56.75 L 62.316406 27.167969 L 58.839844 23.871094 L 27.117188 53.757812 C 24.941406 55.804688 22.164062 57.710938 18.941406 57.863281 C 15.71875 58.007812 12.453125 57.28125 10.257812 55.25 C 8 53.167969 6.683594 51.085938 6.539062 48.34375 C 6.390625 45.597656 7.5625 42.996094 9.742188 40.949219 L 45.726562 7.03125 C 46.972656 5.863281 48.519531 5.210938 50.253906 5.261719 C 52.023438 5.296875 53.660156 5.792969 55.242188 7.011719 C 58.277344 9.347656 58.957031 13.171875 56.613281 15.394531 L 26.75 43.515625 C 25.710938 44.503906 24 44.058594 23.28125 43.335938 C 22.066406 42.113281 22.496094 40.871094 23.015625 40.378906 L 46.925781 17.855469 L 43.449219 14.625 L 18.75 37.910156 C 16.335938 40.191406 17.226562 43.847656 20.011719 46.421875 C 22.949219 49.109375 27.691406 49.234375 30.226562 46.839844 L 60.40625 18.363281 C 64.578125 14.433594 63.554688 7.78125 58.535156 3.910156 C 56.09375 2.035156 53.351562 1.167969 50.421875 1.097656 C 47.246094 1.023438 44.191406 2.058594 41.996094 4.144531 L 6 38.054688 "/></g></svg>
