<svg width="64" height="64" viewBox="0 0 64 64" version="1.1" xmlns:inkscape="http://www.inkscape.org/namespaces/inkscape"><defs><linearGradient id="linear0" gradientUnits="userSpaceOnUse" x1="0" y1="0" x2="0" y2="1" gradientTransform="matrix(56,0,0,35.898438,4,14.050781)"><stop offset="0" style="stop-color:rgb(41.960785%,64.313728%,100%);stop-opacity:1;"/><stop offset="1" style="stop-color:rgb(0%,43.137255%,100%);stop-opacity:1;"/></linearGradient><linearGradient id="linear1" gradientUnits="userSpaceOnUse" x1="0" y1="0" x2="0" y2="1" gradientTransform="matrix(56,0,0,35.898438,4,14.050781)"><stop offset="0" style="stop-color:rgb(41.960785%,64.313728%,100%);stop-opacity:1;"/><stop offset="1" style="stop-color:rgb(0%,43.137255%,100%);stop-opacity:1;"/></linearGradient><filter style="color-interpolation-filters:sRGB;" inkscape:label="Diffuse Light" id="filter184" x="-0.0375" y="-0.0375" width="1.075" height="1.075"><feGaussianBlur in="SourceGraphic" stdDeviation="1" result="blur" id="feGaussianBlur174" /><feDiffuseLighting diffuseConstant="1" surfaceScale="10" lighting-color="rgb(255,255,255)" result="diffuse" id="feDiffuseLighting178"><feDistantLight elevation="8" azimuth="235" id="feDistantLight176" /></feDiffuseLighting><feComposite in="diffuse" in2="diffuse" operator="arithmetic" k1="1" result="composite1" id="feComposite180" /><feComposite in="composite1" in2="SourceGraphic" k1="1" operator="arithmetic" k3="1" result="composite2" id="feComposite182" /></filter></defs><g id="surface1" style="filter:url(#filter184)"><path style=" stroke:none;fill-rule:nonzero;fill:url(#linear0);" d="M 32.46875 1.746094 C 21.402344 1.746094 11.671875 7.613281 6.335938 16.414062 L 6.335938 48.414062 C 11.722656 57.214844 21.402344 63.082031 32.46875 63.082031 C 43.535156 63.082031 53.269531 57.214844 58.601562 48.414062 L 58.601562 16.414062 C 53.21875 7.613281 43.535156 1.746094 32.46875 1.746094 Z M 32.46875 1.746094 "/><path style=" stroke:none;fill-rule:nonzero;fill:url(#linear1);" d="M 6.398438 18.78125 C 3.546875 23.4375 1.894531 28.914062 1.894531 34.78125 C 1.894531 40.648438 3.546875 46.128906 6.398438 50.78125 L 58.667969 50.78125 C 61.519531 46.128906 63.171875 40.648438 63.171875 34.78125 C 63.171875 28.914062 61.519531 23.4375 58.667969 18.78125 Z M 6.398438 18.78125 "/></g></svg>
