<svg width="64" height="64" viewBox="0 0 64 64" version="1.1" xmlns:inkscape="http://www.inkscape.org/namespaces/inkscape"><defs><linearGradient id="linear0" gradientUnits="userSpaceOnUse" x1="0" y1="0" x2="0" y2="1" gradientTransform="matrix(64,0,0,64,0,0)"><stop offset="0" style="stop-color:rgb(75.686276%,77.64706%,83.92157%);stop-opacity:1;"/><stop offset="1" style="stop-color:rgb(43.529412%,45.09804%,50.196081%);stop-opacity:1;"/></linearGradient><filter style="color-interpolation-filters:sRGB;" inkscape:label="Diffuse Light" id="filter184" x="-0.0375" y="-0.0375" width="1.075" height="1.075"><feGaussianBlur in="SourceGraphic" stdDeviation="1" result="blur" id="feGaussianBlur174" /><feDiffuseLighting diffuseConstant="1" surfaceScale="10" lighting-color="rgb(255,255,255)" result="diffuse" id="feDiffuseLighting178"><feDistantLight elevation="8" azimuth="235" id="feDistantLight176" /></feDiffuseLighting><feComposite in="diffuse" in2="diffuse" operator="arithmetic" k1="1" result="composite1" id="feComposite180" /><feComposite in="composite1" in2="SourceGraphic" k1="1" operator="arithmetic" k3="1" result="composite2" id="feComposite182" /></filter></defs><g id="surface1" style="filter:url(#filter184)"><path style=" stroke:none;fill-rule:nonzero;fill:url(#linear0);" d="M 56.617188 14.769531 L 6.519531 14.769531 C 4.355469 14.769531 2.433594 14.335938 2.433594 12.308594 L 56.617188 9.847656 L 56.617188 4.925781 C 56.617188 0.847656 53.308594 0 49.230469 0 L 4.972656 7.382812 C 1.027344 8.261719 0 9.933594 0 12.308594 L 0 56.617188 C 0 60.691406 3.308594 64 7.382812 64 L 56.617188 64 C 60.691406 64 64 60.691406 64 56.617188 L 64 22.152344 C 64 18.074219 60.691406 14.769531 56.617188 14.769531 Z M 54.152344 44.308594 C 51.4375 44.308594 49.230469 42.105469 49.230469 39.382812 C 49.230469 36.664062 51.4375 34.460938 54.152344 34.460938 C 56.871094 34.460938 59.074219 36.664062 59.074219 39.382812 C 59.074219 42.105469 56.871094 44.308594 54.152344 44.308594 Z M 54.152344 44.308594 "/></g></svg>
