<svg width="64" height="64" viewBox="0 0 64 64" version="1.1" xmlns:inkscape="http://www.inkscape.org/namespaces/inkscape"><defs><linearGradient id="linear0" gradientUnits="userSpaceOnUse" x1="0" y1="0" x2="0" y2="1" gradientTransform="matrix(94.136841,0,0,60.156593,-13.331621,7.89397)"><stop offset="0" style="stop-color:rgb(0%,78.823531%,36.862746%);stop-opacity:1;"/><stop offset="1" style="stop-color:rgb(0%,54.11765%,25.098041%);stop-opacity:1;"/></linearGradient><linearGradient id="linear1" gradientUnits="userSpaceOnUse" x1="0" y1="0" x2="0" y2="1" gradientTransform="matrix(94.136841,0,0,60.156593,-13.331621,7.89397)"><stop offset="0" style="stop-color:rgb(0%,78.823531%,36.862746%);stop-opacity:1;"/><stop offset="1" style="stop-color:rgb(0%,54.11765%,25.098041%);stop-opacity:1;"/></linearGradient><filter style="color-interpolation-filters:sRGB;" inkscape:label="Diffuse Light" id="filter184" x="-0.0375" y="-0.0375" width="1.075" height="1.075"><feGaussianBlur in="SourceGraphic" stdDeviation="1" result="blur" id="feGaussianBlur174" /><feDiffuseLighting diffuseConstant="1" surfaceScale="10" lighting-color="rgb(255,255,255)" result="diffuse" id="feDiffuseLighting178"><feDistantLight elevation="8" azimuth="235" id="feDistantLight176" /></feDiffuseLighting><feComposite in="diffuse" in2="diffuse" operator="arithmetic" k1="1" result="composite1" id="feComposite180" /><feComposite in="composite1" in2="SourceGraphic" k1="1" operator="arithmetic" k3="1" result="composite2" id="feComposite182" /></filter></defs><g id="surface1" style="filter:url(#filter184)"><path style=" stroke:none;fill-rule:nonzero;fill:url(#linear0);" d="M 25.285156 0.535156 L 38.734375 0.535156 C 48.636719 0.535156 56.667969 8.542969 56.667969 18.414062 C 56.667969 28.285156 48.636719 36.289062 38.734375 36.289062 L 25.285156 36.289062 C 15.382812 36.289062 7.359375 28.285156 7.359375 18.414062 C 7.359375 8.542969 15.382812 0.535156 25.285156 0.535156 Z M 25.285156 0.535156 "/><path style=" stroke:none;fill-rule:nonzero;fill:url(#linear1);" d="M 27.664062 38.769531 L 27.664062 47.707031 L 29.902344 47.707031 L 29.902344 49.9375 L 16.453125 49.9375 L 16.453125 52.175781 L 20.9375 52.175781 L 20.9375 54.410156 L 18.691406 54.410156 L 18.691406 63.34375 L 27.664062 63.34375 L 27.664062 54.410156 L 25.417969 54.410156 L 25.417969 52.175781 L 38.863281 52.175781 L 38.863281 54.410156 L 36.625 54.410156 L 36.625 63.34375 L 45.589844 63.34375 L 45.589844 54.410156 L 43.351562 54.410156 L 43.351562 52.175781 L 47.835938 52.175781 L 47.835938 49.9375 L 34.386719 49.9375 L 34.386719 47.707031 L 36.625 47.707031 L 36.625 38.769531 Z M 27.664062 38.769531 "/></g></svg>
