<svg width="64" height="64" viewBox="0 0 64 64" version="1.1" xmlns:inkscape="http://www.inkscape.org/namespaces/inkscape"><defs><linearGradient id="linear0" gradientUnits="userSpaceOnUse" x1="0" y1="0" x2="0" y2="1" gradientTransform="matrix(64,0,0,48,0,8)"><stop offset="0" style="stop-color:rgb(81.960785%,70.980394%,59.215689%);stop-opacity:1;"/><stop offset="1" style="stop-color:rgb(65.098041%,53.725493%,41.568628%);stop-opacity:1;"/></linearGradient><filter style="color-interpolation-filters:sRGB;" inkscape:label="Diffuse Light" id="filter184" x="-0.0375" y="-0.0375" width="1.075" height="1.075"><feGaussianBlur in="SourceGraphic" stdDeviation="1" result="blur" id="feGaussianBlur174" /><feDiffuseLighting diffuseConstant="1" surfaceScale="10" lighting-color="rgb(255,255,255)" result="diffuse" id="feDiffuseLighting178"><feDistantLight elevation="8" azimuth="235" id="feDistantLight176" /></feDiffuseLighting><feComposite in="diffuse" in2="diffuse" operator="arithmetic" k1="1" result="composite1" id="feComposite180" /><feComposite in="composite1" in2="SourceGraphic" k1="1" operator="arithmetic" k3="1" result="composite2" id="feComposite182" /></filter></defs><g id="surface1" style="filter:url(#filter184)"><path style=" stroke:none;fill-rule:nonzero;fill:url(#linear0);" d="M 31.898438 8 C 31.488281 8.019531 31.085938 8.132812 30.722656 8.328125 L 1.390625 24.328125 C 0.535156 24.796875 0 25.691406 0 26.667969 L 0 40 C 0 41.046875 0.613281 41.996094 1.5625 42.429688 L 30.894531 55.761719 C 31.71875 56.136719 32.675781 56.066406 33.4375 55.578125 L 57.28125 40.320312 L 59.117188 42.859375 L 61.554688 37.429688 L 64 32 L 58.078125 32.601562 L 52.15625 33.199219 L 54.160156 35.984375 L 31.78125 50.308594 L 5.332031 38.285156 L 5.332031 28.253906 L 32.050781 13.679688 L 53.375 24.339844 L 31.761719 38.820312 L 11.789062 29.578125 L 9.546875 34.425781 L 30.878906 44.289062 C 31.722656 44.679688 32.710938 44.601562 33.484375 44.085938 L 60.152344 26.214844 C 60.941406 25.6875 61.386719 24.78125 61.328125 23.832031 C 61.269531 22.882812 60.707031 22.039062 59.859375 21.617188 L 33.191406 8.285156 C 32.792969 8.078125 32.347656 7.984375 31.898438 8 Z M 31.898438 8 "/></g></svg>
