<svg width="64" height="64" viewBox="0 0 64 64" version="1.1" xmlns:inkscape="http://www.inkscape.org/namespaces/inkscape"><defs><linearGradient id="linear0" gradientUnits="userSpaceOnUse" x1="0" y1="0" x2="0" y2="1" gradientTransform="matrix(60.936715,0,0,38.657098,1.325047,12.657722)"><stop offset="0" style="stop-color:rgb(0%,73.333335%,100%);stop-opacity:1;"/><stop offset="1" style="stop-color:rgb(0%,52.156866%,70.980394%);stop-opacity:1;"/></linearGradient><filter style="color-interpolation-filters:sRGB;" inkscape:label="Diffuse Light" id="filter184" x="-0.0375" y="-0.0375" width="1.075" height="1.075"><feGaussianBlur in="SourceGraphic" stdDeviation="1" result="blur" id="feGaussianBlur174" /><feDiffuseLighting diffuseConstant="1" surfaceScale="10" lighting-color="rgb(255,255,255)" result="diffuse" id="feDiffuseLighting178"><feDistantLight elevation="8" azimuth="235" id="feDistantLight176" /></feDiffuseLighting><feComposite in="diffuse" in2="diffuse" operator="arithmetic" k1="1" result="composite1" id="feComposite180" /><feComposite in="composite1" in2="SourceGraphic" k1="1" operator="arithmetic" k3="1" result="composite2" id="feComposite182" /></filter></defs><g id="surface1" style="filter:url(#filter184)"><path style=" stroke:none;fill-rule:nonzero;fill:url(#linear0);" d="M 24.890625 20.53125 L 28.609375 20.53125 L 28.609375 39.703125 L 39.925781 39.703125 L 39.925781 43.375 L 24.878906 43.375 Z M 24.828125 1.699219 L 24.828125 5.34375 L 5.242188 5.34375 L 5.242188 16.421875 L 1.5 16.421875 L 1.5 1.6875 Z M 40.046875 1.699219 L 40.046875 5.34375 L 59.628906 5.34375 L 59.628906 16.421875 L 63.375 16.421875 L 63.375 1.6875 Z M 24.828125 62.242188 L 24.828125 58.601562 L 5.242188 58.601562 L 5.242188 47.515625 L 1.5 47.515625 L 1.5 62.25 Z M 40.046875 62.242188 L 40.046875 58.601562 L 59.628906 58.601562 L 59.628906 47.515625 L 63.375 47.515625 L 63.375 62.25 Z M 40.046875 62.242188 "/></g></svg>
