<svg width="64" height="64" viewBox="0 0 64 64" version="1.1" xmlns:inkscape="http://www.inkscape.org/namespaces/inkscape"><defs><linearGradient id="linear0" gradientUnits="userSpaceOnUse" x1="0" y1="0" x2="0" y2="1" gradientTransform="matrix(62.620325,0,0,41.296721,1.183112,11.306618)"><stop offset="0" style="stop-color:rgb(87.058824%,86.666667%,56.470591%);stop-opacity:1;"/><stop offset="1" style="stop-color:rgb(67.843139%,67.450982%,38.039216%);stop-opacity:1;"/></linearGradient><filter style="color-interpolation-filters:sRGB;" inkscape:label="Diffuse Light" id="filter184" x="-0.0375" y="-0.0375" width="1.075" height="1.075"><feGaussianBlur in="SourceGraphic" stdDeviation="1" result="blur" id="feGaussianBlur174" /><feDiffuseLighting diffuseConstant="1" surfaceScale="10" lighting-color="rgb(255,255,255)" result="diffuse" id="feDiffuseLighting178"><feDistantLight elevation="8" azimuth="235" id="feDistantLight176" /></feDiffuseLighting><feComposite in="diffuse" in2="diffuse" operator="arithmetic" k1="1" result="composite1" id="feComposite180" /><feComposite in="composite1" in2="SourceGraphic" k1="1" operator="arithmetic" k3="1" result="composite2" id="feComposite182" /></filter></defs><g id="surface1" style="filter:url(#filter184)"><path style=" stroke:none;fill-rule:nonzero;fill:url(#linear0);" d="M 44.042969 1.28125 C 41.925781 1.28125 40.21875 3.890625 40.21875 7.136719 C 40.21875 10.382812 41.925781 12.992188 44.042969 12.992188 L 50.117188 12.992188 L 36.402344 34.011719 L 27.652344 20.605469 C 26.160156 18.320312 23.753906 18.320312 22.261719 20.605469 L 1.136719 52.984375 C 2.160156 56.78125 3.441406 60.363281 4.941406 63.703125 L 24.960938 33.019531 L 33.710938 46.429688 C 35.207031 48.710938 37.609375 48.710938 39.097656 46.429688 L 55.492188 21.308594 L 55.492188 30.621094 C 55.492188 33.859375 57.195312 36.476562 59.308594 36.476562 C 61.425781 36.476562 63.128906 33.859375 63.128906 30.621094 L 63.128906 7.195312 C 63.128906 3.953125 61.425781 1.339844 59.308594 1.339844 L 44.023438 1.339844 Z M 44.042969 1.28125 "/></g></svg>
