<svg width="64" height="64" viewBox="0 0 64 64" version="1.1" xmlns:inkscape="http://www.inkscape.org/namespaces/inkscape"><defs><linearGradient id="linear0" gradientUnits="userSpaceOnUse" x1="0" y1="0" x2="0" y2="1" gradientTransform="matrix(51.429688,0,0,64,6.285156,0)"><stop offset="0" style="stop-color:rgb(0%,73.333335%,100%);stop-opacity:1;"/><stop offset="1" style="stop-color:rgb(0%,52.156866%,70.980394%);stop-opacity:1;"/></linearGradient><filter style="color-interpolation-filters:sRGB;" inkscape:label="Diffuse Light" id="filter184" x="-0.0375" y="-0.0375" width="1.075" height="1.075"><feGaussianBlur in="SourceGraphic" stdDeviation="1" result="blur" id="feGaussianBlur174" /><feDiffuseLighting diffuseConstant="1" surfaceScale="10" lighting-color="rgb(255,255,255)" result="diffuse" id="feDiffuseLighting178"><feDistantLight elevation="8" azimuth="235" id="feDistantLight176" /></feDiffuseLighting><feComposite in="diffuse" in2="diffuse" operator="arithmetic" k1="1" result="composite1" id="feComposite180" /><feComposite in="composite1" in2="SourceGraphic" k1="1" operator="arithmetic" k3="1" result="composite2" id="feComposite182" /></filter></defs><g id="surface1" style="filter:url(#filter184)"><path style=" stroke:none;fill-rule:evenodd;fill:url(#linear0);" d="M 32 0 C 20 0 6.285156 19.199219 6.285156 34.398438 C 6.285156 49.601562 14.320312 64 32 64 C 49.679688 64 57.714844 49.601562 57.714844 34.398438 C 57.714844 19.199219 44 0 32 0 Z M 16.570312 41.714844 C 16.570312 33.199219 23.484375 26.285156 32 26.285156 C 40.515625 26.285156 47.429688 33.199219 47.429688 41.714844 C 47.429688 50.226562 40.515625 57.144531 32 57.144531 C 23.484375 57.144531 16.570312 50.226562 16.570312 41.714844 Z M 16.570312 41.714844 "/></g></svg>
