<svg width="64" height="64" viewBox="0 0 64 64" version="1.1" xmlns:inkscape="http://www.inkscape.org/namespaces/inkscape"><defs><linearGradient id="linear0" gradientUnits="userSpaceOnUse" x1="0" y1="0" x2="0" y2="1" gradientTransform="matrix(71.225324,0,0,71.11102,-3.757689,-3.473299)"><stop offset="0" style="stop-color:rgb(0%,96.078432%,86.274511%);stop-opacity:1;"/><stop offset="1" style="stop-color:rgb(0%,54.901963%,49.411765%);stop-opacity:1;"/></linearGradient><filter style="color-interpolation-filters:sRGB;" inkscape:label="Diffuse Light" id="filter184" x="-0.0375" y="-0.0375" width="1.075" height="1.075"><feGaussianBlur in="SourceGraphic" stdDeviation="1" result="blur" id="feGaussianBlur174" /><feDiffuseLighting diffuseConstant="1" surfaceScale="10" lighting-color="rgb(255,255,255)" result="diffuse" id="feDiffuseLighting178"><feDistantLight elevation="8" azimuth="235" id="feDistantLight176" /></feDiffuseLighting><feComposite in="diffuse" in2="diffuse" operator="arithmetic" k1="1" result="composite1" id="feComposite180" /><feComposite in="composite1" in2="SourceGraphic" k1="1" operator="arithmetic" k3="1" result="composite2" id="feComposite182" /></filter></defs><g id="surface1" style="filter:url(#filter184)"><path style=" stroke:none;fill-rule:nonzero;fill:url(#linear0);" d="M 13.882812 63.070312 L 13.882812 22.378906 L 1.230469 22.378906 L 1.230469 63.070312 Z M 13.882812 7.957031 C 13.808594 4.3125 11.367188 1.546875 7.402344 1.546875 C 3.433594 1.546875 0.84375 4.308594 0.84375 7.957031 C 0.84375 11.515625 3.363281 14.367188 7.25 14.367188 L 7.324219 14.367188 C 11.367188 14.367188 13.882812 11.515625 13.882812 7.957031 M 34.519531 63.070312 L 34.519531 39.878906 C 34.519531 38.644531 34.613281 37.398438 34.976562 36.515625 C 35.980469 34.03125 38.261719 31.46875 42.097656 31.46875 C 47.121094 31.46875 50.273438 34.300781 50.273438 39.878906 L 50.273438 63.070312 L 63.011719 63.070312 L 63.011719 39.261719 C 63.011719 26.511719 56.164062 20.585938 47.03125 20.585938 C 39.542969 20.585938 36.253906 24.742188 34.433594 27.578125 L 34.519531 22.132812 L 21.808594 22.132812 C 21.992188 26.027344 21.808594 63.070312 21.808594 63.070312 L 34.519531 63.070312 "/></g></svg>
