<?xml version="1.0" encoding="UTF-8" standalone="no"?><svg width="64" height="64" viewBox="0 0 64 64" version="1.1" id="svg31" sodipodi:docname="lix.svg" inkscape:version="1.2.2 (b0a8486541, 2022-12-01)" xmlns:inkscape="http://www.inkscape.org/namespaces/inkscape" xmlns:sodipodi="http://sodipodi.sourceforge.net/DTD/sodipodi-0.dtd" xmlns:xlink="http://www.w3.org/1999/xlink" xmlns="http://www.w3.org/2000/svg" xmlns:svg="http://www.w3.org/2000/svg"> <sodipodi:namedview id="namedview33" pagecolor="#ffffff" bordercolor="#000000" borderopacity="0.25" inkscape:showpageshadow="2" inkscape:pageopacity="0.0" inkscape:pagecheckerboard="0" inkscape:deskcolor="#d1d1d1" showgrid="false" inkscape:zoom="3.6875" inkscape:cx="32" inkscape:cy="32.135593" inkscape:window-width="1432" inkscape:window-height="844" inkscape:window-x="0" inkscape:window-y="0" inkscape:window-maximized="1" inkscape:current-layer="svg31" /> <defs id="defs16"> <filter id="alpha" filterUnits="objectBoundingBox" x="0" y="0" width="1" height="1"> <feColorMatrix type="matrix" in="SourceGraphic" values="0 0 0 0 1 0 0 0 0 1 0 0 0 0 1 0 0 0 1 0" id="feColorMatrix2" /> </filter> <mask id="mask0"> <g filter="url(#alpha)" id="g7"> <rect x="0" y="0" width="64" height="64" style="fill:rgb(0%,0%,0%);fill-opacity:0.1;stroke:none;" id="rect5" /> </g> </mask> <clipPath id="clip1"> <rect x="0" y="0" width="64" height="64" id="rect10" /> </clipPath> <g id="surface10" clip-path="url(#clip1)"> <path style=" stroke:none;fill-rule:nonzero;fill:rgb(0%,0%,0%);fill-opacity:1;" d="M 28 38.667969 C 28 39.726562 28.019531 40.585938 28.019531 41.347656 L 31.992188 42.839844 C 31.996094 42.785156 31.996094 42.730469 31.996094 42.671875 C 32.0625 42.75 32.121094 42.828125 32.183594 42.910156 L 36.636719 44.578125 L 36 42.671875 L 28 38.671875 Z M 28 38.667969 " id="path13" /> </g> <filter style="color-interpolation-filters:sRGB;" inkscape:label="Diffuse Light" id="filter203" x="-0.089995605" y="-0.06923588" width="1.1799912" height="1.1384718"> <feGaussianBlur in="SourceGraphic" stdDeviation="1" result="blur" id="feGaussianBlur193" /> <feDiffuseLighting diffuseConstant="1" surfaceScale="10" lighting-color="rgb(255,255,255)" result="diffuse" id="feDiffuseLighting197"> <feDistantLight elevation="8" azimuth="235" id="feDistantLight195" /> </feDiffuseLighting> <feComposite in="diffuse" in2="diffuse" operator="arithmetic" k1="1" result="composite1" id="feComposite199" /> <feComposite in="composite1" in2="SourceGraphic" k1="1" operator="arithmetic" k3="1" result="composite2" id="feComposite201" /> </filter> </defs> <g id="surface1" transform="matrix(1.8341648,0,0,1.7607138,-25.590765,-23.637592)" style="filter:url(#filter203)"> <path style="fill:#baba23;fill-opacity:1;fill-rule:nonzero;stroke:none" d="M 34.667969,14.667969 C 32.667969,14.667969 32,16 32,16 h -2.667969 c -2,0 -2.730469,1.585938 -2.664062,5.332031 0,2.667969 -1.335938,4 -1.335938,8 v 4 L 24,36 h 1.332031 L 24,40 28,38.667969 34.667969,40 37.332031,37.332031 40,40 V 25.332031 C 40,21.332031 38.667969,20 38.667969,20 L 40,18.667969 c -2.667969,0 -2.546875,-4.015625 -5.332031,-4 z m 0,0" id="path18" /> <path style="fill:#28b8ee;fill-opacity:1;fill-rule:nonzero;stroke:none" d="m 28,38.667969 8,4 1.332031,4 -4,1.332031 c 0,-1.332031 -0.109375,-3.90625 -1.332031,-5.332031 0,2.664062 -1.332031,4 -1.332031,5.332031 l -4,-1.332031 c 1.640625,-2.761719 1.332031,-4 1.332031,-8 z m 0,0" id="path20" /> <use xlink:href="#surface10" mask="url(#mask0)" id="use22" /> <path style="fill:#f0633f;fill-opacity:1;fill-rule:nonzero;stroke:none" d="M 28,33.332031 H 21.332031 V 32 L 20,28 c 0,0 4,1.335938 8,1.335938 h 2.667969 l 2.664062,1.332031 c 0,0 0.28125,1.386719 2.667969,1.332031 h 5.332031 L 42.667969,33.335938 41.332031,36 v 1.335938 c 0,0 -3.746093,-2.746094 -8,-2.667969 l 4,9.332031 -10.664062,-4 z m 0,0" id="path24" /> <path style="fill:#f8e8b8;fill-opacity:1;fill-rule:nonzero;stroke:none" d="m 32,20 c 0,0 -0.332031,1.332031 -1,1.332031 h -1.667969 c -0.652343,1.441407 -1.332031,4 -1.332031,6 C 28,30.667969 29.332031,32 30.667969,32 c 2.664062,0 4,-1.332031 5.332031,-4 0,0 -1.332031,-0.667969 -1.332031,-2 0,-1.332031 0.429687,-3.265625 1.332031,-4.332031 C 36.519531,21.054688 37.332031,20 37.332031,20 36.113281,20.765625 34.828125,21.386719 34,21.332031 33.332031,21.332031 33.332031,20 32,20 Z m -14,4 c -0.398438,0 -0.667969,0.265625 -0.667969,0.667969 V 28 c 0,2.667969 0.0078,4 2,4 h 2 C 21.332031,26.761719 20,24 18,24 Z m 24.667969,4 c -0.933594,0 -1.335938,1.332031 -1.335938,4 v 4 C 42.800781,36 44,34.464844 44,32.667969 V 30 c 0,-1.332031 -0.597656,-2 -1.332031,-2 z m -16,18.667969 C 25.1875,46.667969 24,47.855469 24,49.332031 h 6.667969 V 48 C 30.613281,46.742188 29.429688,46.667969 28,46.667969 Z m 9.332031,0 c -1.425781,0 -2.679688,0 -2.667969,1.332031 v 1.332031 H 40 c 0,-1.480469 -1.1875,-2.664062 -2.667969,-2.664062 z m 0,0" id="path26" /> <path style="fill:#4c4c4c;fill-opacity:1;fill-rule:nonzero;stroke:none" d="m 30,24 c -0.351562,0.01953 -0.632812,0.308594 -0.632812,0.667969 v 2.664062 c 0,0.371094 0.296874,0.667969 0.667968,0.667969 0.367188,0 0.664063,-0.296875 0.664063,-0.667969 V 24.667969 C 30.699219,24.296875 30.402344,24 30.035156,24 30.023438,24 30.011719,24 30,24 Z m 2.667969,0 c -0.355469,0.01953 -0.632813,0.308594 -0.632813,0.667969 v 2.664062 c 0,0.371094 0.296875,0.667969 0.664063,0.667969 0.371093,0 0.667969,-0.296875 0.667969,-0.667969 V 24.667969 C 33.367188,24.296875 33.070312,24 32.699219,24 c -0.01172,0 -0.02344,0 -0.03125,0 z m 0,0" id="path28" /> </g></svg>
