<svg width="64" height="64" viewBox="0 0 64 64" version="1.1" xmlns:inkscape="http://www.inkscape.org/namespaces/inkscape"><defs><linearGradient id="linear0" gradientUnits="userSpaceOnUse" x1="0" y1="0" x2="0" y2="1" gradientTransform="matrix(64,0,0,42.664062,0.125,10.667969)"><stop offset="0" style="stop-color:rgb(61.176473%,69.803923%,85.09804%);stop-opacity:1;"/><stop offset="1" style="stop-color:rgb(44.313726%,52.156866%,65.882355%);stop-opacity:1;"/></linearGradient><filter style="color-interpolation-filters:sRGB;" inkscape:label="Diffuse Light" id="filter184" x="-0.0375" y="-0.0375" width="1.075" height="1.075"><feGaussianBlur in="SourceGraphic" stdDeviation="1" result="blur" id="feGaussianBlur174" /><feDiffuseLighting diffuseConstant="1" surfaceScale="10" lighting-color="rgb(255,255,255)" result="diffuse" id="feDiffuseLighting178"><feDistantLight elevation="8" azimuth="235" id="feDistantLight176" /></feDiffuseLighting><feComposite in="diffuse" in2="diffuse" operator="arithmetic" k1="1" result="composite1" id="feComposite180" /><feComposite in="composite1" in2="SourceGraphic" k1="1" operator="arithmetic" k3="1" result="composite2" id="feComposite182" /></filter></defs><g id="surface1" style="filter:url(#filter184)"><path style=" stroke:none;fill-rule:evenodd;fill:url(#linear0);" d="M 32.125 21.332031 C 38.015625 21.332031 42.792969 26.109375 42.792969 32 C 42.792969 37.890625 38.015625 42.667969 32.125 42.667969 C 26.230469 42.667969 21.460938 37.890625 21.460938 32 C 21.460938 26.109375 26.230469 21.332031 32.125 21.332031 Z M 32.125 17.066406 C 23.875 17.066406 17.191406 23.753906 17.191406 32 C 17.191406 40.246094 23.875 46.933594 32.125 46.933594 C 40.371094 46.933594 47.058594 40.246094 47.058594 32 C 47.058594 23.753906 40.371094 17.066406 32.125 17.066406 Z M 32.125 10.667969 C 23.839844 10.667969 16.789062 15.585938 13.746094 22.542969 C 6.039062 23.65625 0.125 30.03125 0.125 37.816406 C 0.125 46.386719 7.289062 53.332031 16.125 53.332031 L 50.128906 53.332031 C 57.855469 53.332031 64.125 47.257812 64.125 39.757812 C 64.125 32.789062 58.71875 27.078125 51.746094 26.304688 C 49.933594 17.40625 41.832031 10.667969 32.125 10.667969 Z M 25.722656 32 C 25.722656 28.46875 28.59375 25.601562 32.125 25.601562 C 35.65625 25.601562 38.523438 28.46875 38.523438 32 C 38.523438 35.53125 35.65625 38.398438 32.125 38.398438 C 28.59375 38.398438 25.722656 35.53125 25.722656 32 Z M 25.722656 32 "/></g></svg>
