<svg width="64" height="64" viewBox="0 0 64 64" version="1.1" xmlns:inkscape="http://www.inkscape.org/namespaces/inkscape"><defs><linearGradient id="linear0" gradientUnits="userSpaceOnUse" x1="0" y1="0" x2="0" y2="1" gradientTransform="matrix(58.8311,0,0,40.749536,2.210042,9.178932)"><stop offset="0" style="stop-color:rgb(87.058824%,86.666667%,56.470591%);stop-opacity:1;"/><stop offset="1" style="stop-color:rgb(67.843139%,67.450982%,38.039216%);stop-opacity:1;"/></linearGradient><filter style="color-interpolation-filters:sRGB;" inkscape:label="Diffuse Light" id="filter184" x="-0.0375" y="-0.0375" width="1.075" height="1.075"><feGaussianBlur in="SourceGraphic" stdDeviation="1" result="blur" id="feGaussianBlur174" /><feDiffuseLighting diffuseConstant="1" surfaceScale="10" lighting-color="rgb(255,255,255)" result="diffuse" id="feDiffuseLighting178"><feDistantLight elevation="8" azimuth="235" id="feDistantLight176" /></feDiffuseLighting><feComposite in="diffuse" in2="diffuse" operator="arithmetic" k1="1" result="composite1" id="feComposite180" /><feComposite in="composite1" in2="SourceGraphic" k1="1" operator="arithmetic" k3="1" result="composite2" id="feComposite182" /></filter></defs><g id="surface1" style="filter:url(#filter184)"><path style=" stroke:none;fill-rule:nonzero;fill:url(#linear0);" d="M 0.777344 0.847656 L 0.777344 63.160156 L 58.4375 63.160156 L 58.4375 55.367188 L 10.390625 55.367188 L 10.390625 0.847656 Z M 48.828125 0.847656 L 48.828125 11.230469 L 44.023438 11.230469 L 44.023438 19.023438 L 48.828125 19.023438 L 48.828125 50.175781 L 58.4375 50.175781 L 58.4375 19.023438 L 63.242188 19.023438 L 63.242188 11.230469 L 58.4375 11.230469 L 58.4375 0.847656 Z M 15.195312 24.214844 L 15.195312 42.390625 L 27.207031 42.390625 L 27.207031 24.214844 Z M 32.011719 24.214844 L 32.011719 42.390625 L 44.023438 42.390625 L 44.023438 24.214844 Z M 32.011719 24.214844 "/></g></svg>
