<svg width="64" height="64" viewBox="0 0 64 64" version="1.1" xmlns:inkscape="http://www.inkscape.org/namespaces/inkscape"><defs><linearGradient id="linear0" gradientUnits="userSpaceOnUse" x1="0" y1="0" x2="0" y2="1" gradientTransform="matrix(62.472545,0,0,39.290513,1.658802,12.36479)"><stop offset="0" style="stop-color:rgb(82.352942%,61.176473%,100%);stop-opacity:1;"/><stop offset="1" style="stop-color:rgb(66.666669%,0%,100%);stop-opacity:1;"/></linearGradient><filter style="color-interpolation-filters:sRGB;" inkscape:label="Diffuse Light" id="filter184" x="-0.0375" y="-0.0375" width="1.075" height="1.075"><feGaussianBlur in="SourceGraphic" stdDeviation="1" result="blur" id="feGaussianBlur174" /><feDiffuseLighting diffuseConstant="1" surfaceScale="10" lighting-color="rgb(255,255,255)" result="diffuse" id="feDiffuseLighting178"><feDistantLight elevation="8" azimuth="235" id="feDistantLight176" /></feDiffuseLighting><feComposite in="diffuse" in2="diffuse" operator="arithmetic" k1="1" result="composite1" id="feComposite180" /><feComposite in="composite1" in2="SourceGraphic" k1="1" operator="arithmetic" k3="1" result="composite2" id="feComposite182" /></filter></defs><g id="surface1" style="filter:url(#filter184)"><path style=" stroke:none;fill-rule:nonzero;fill:url(#linear0);" d="M 13.34375 7.828125 C 12.035156 7.828125 10.984375 8.859375 10.984375 10.136719 L 10.984375 14.757812 L 6.265625 14.757812 C 3.648438 14.757812 1.546875 16.820312 1.546875 19.375 L 1.546875 51.71875 C 1.546875 54.277344 3.648438 56.335938 6.265625 56.335938 L 58.175781 56.335938 C 60.789062 56.335938 62.894531 54.277344 62.894531 51.71875 L 62.894531 19.375 C 62.894531 16.820312 60.789062 14.757812 58.175781 14.757812 L 53.453125 14.757812 L 53.453125 10.136719 C 53.453125 8.859375 52.40625 7.828125 51.097656 7.828125 L 41.660156 7.828125 C 40.351562 7.828125 39.296875 8.859375 39.296875 10.136719 L 39.296875 14.757812 L 25.136719 14.757812 L 25.136719 10.136719 C 25.136719 8.859375 24.089844 7.828125 22.78125 7.828125 Z M 13.34375 7.828125 "/><path style=" stroke:none;fill-rule:nonzero;fill:rgb(82.352942%,61.176473%,100%);fill-opacity:1;" d="M 53.9375 42.214844 C 53.9375 42.214844 55.765625 41.183594 55.765625 36.464844 C 55.765625 31.75 53.9375 30.71875 53.9375 30.71875 L 13.988281 30.71875 L 6.152344 36.464844 L 13.988281 42.214844 "/></g></svg>
