<svg width="64" height="64" viewBox="0 0 64 64" version="1.1" xmlns:inkscape="http://www.inkscape.org/namespaces/inkscape"><defs><linearGradient id="linear0" gradientUnits="userSpaceOnUse" x1="0" y1="0" x2="0" y2="1" gradientTransform="matrix(64,0,0,62.175781,0,0.914062)"><stop offset="0" style="stop-color:rgb(92.941177%,83.529413%,72.549021%);stop-opacity:1;"/><stop offset="1" style="stop-color:rgb(81.960785%,71.372551%,59.215689%);stop-opacity:1;"/></linearGradient><filter style="color-interpolation-filters:sRGB;" inkscape:label="Diffuse Light" id="filter184" x="-0.0375" y="-0.0375" width="1.075" height="1.075"><feGaussianBlur in="SourceGraphic" stdDeviation="1" result="blur" id="feGaussianBlur174" /><feDiffuseLighting diffuseConstant="1" surfaceScale="10" lighting-color="rgb(255,255,255)" result="diffuse" id="feDiffuseLighting178"><feDistantLight elevation="8" azimuth="235" id="feDistantLight176" /></feDiffuseLighting><feComposite in="diffuse" in2="diffuse" operator="arithmetic" k1="1" result="composite1" id="feComposite180" /><feComposite in="composite1" in2="SourceGraphic" k1="1" operator="arithmetic" k3="1" result="composite2" id="feComposite182" /></filter></defs><g id="surface1" style="filter:url(#filter184)"><path style=" stroke:none;fill-rule:nonzero;fill:url(#linear0);" d="M 47.957031 24.898438 C 44.035156 20.472656 40.5 17.609375 35.269531 25.066406 C 32.152344 29.507812 13.464844 54.929688 10.035156 58.980469 C 9.039062 60.15625 8.457031 60.972656 7.691406 61.449219 C 7.691406 59.835938 20.601562 39.394531 24.210938 33.472656 C 28.550781 26.355469 28.410156 26.773438 27.890625 26.777344 C 27.160156 26.777344 25.664062 27.863281 23.390625 30.289062 C 19.238281 34.710938 6.945312 51.191406 6.097656 50.9375 C 6.390625 49.738281 16.007812 34.992188 20.375 28.890625 C 24.140625 23.632812 22.699219 23.230469 20.542969 23.742188 C 11.351562 25.9375 0.355469 31.234375 0 31.046875 C 0.132812 30.773438 37.027344 4.828125 41.960938 4.332031 C 42.53125 4.273438 43.742188 3.246094 45.898438 2.394531 C 48.242188 1.472656 49.820312 0.71875 50.207031 0.957031 C 48.5 3.351562 47.601562 3.835938 47.585938 4.609375 C 47.558594 5.871094 47.109375 7.921875 46.617188 8.574219 C 56.152344 14.929688 59.871094 36.585938 62.597656 54.003906 C 63.242188 58.136719 63.847656 61.242188 64 63.089844 C 63.195312 61.015625 55.570312 33.496094 47.957031 24.898438 Z M 47.957031 24.898438 "/></g></svg>
