<svg width="64" height="64" viewBox="0 0 64 64" version="1.1" xmlns:inkscape="http://www.inkscape.org/namespaces/inkscape"><defs><linearGradient id="linear0" gradientUnits="userSpaceOnUse" x1="0" y1="0" x2="0" y2="1" gradientTransform="matrix(60,0,0,56,2,4)"><stop offset="0" style="stop-color:rgb(61.176473%,69.803923%,85.09804%);stop-opacity:1;"/><stop offset="1" style="stop-color:rgb(44.313726%,52.156866%,65.882355%);stop-opacity:1;"/></linearGradient><filter style="color-interpolation-filters:sRGB;" inkscape:label="Diffuse Light" id="filter184" x="-0.0375" y="-0.0375" width="1.075" height="1.075"><feGaussianBlur in="SourceGraphic" stdDeviation="1" result="blur" id="feGaussianBlur174" /><feDiffuseLighting diffuseConstant="1" surfaceScale="10" lighting-color="rgb(255,255,255)" result="diffuse" id="feDiffuseLighting178"><feDistantLight elevation="8" azimuth="235" id="feDistantLight176" /></feDiffuseLighting><feComposite in="diffuse" in2="diffuse" operator="arithmetic" k1="1" result="composite1" id="feComposite180" /><feComposite in="composite1" in2="SourceGraphic" k1="1" operator="arithmetic" k3="1" result="composite2" id="feComposite182" /></filter></defs><g id="surface1" style="filter:url(#filter184)"><path style=" stroke:none;fill-rule:nonzero;fill:url(#linear0);" d="M 13.296875 4 C 10.4375 4 7.953125 6.050781 7.40625 8.859375 L 2 36.800781 L 2 46 C 2 49.292969 4.707031 52 8 52 L 22 52 L 22 48 L 8 48 C 7.46875 48.007812 6.957031 47.800781 6.574219 47.425781 C 6.199219 47.042969 5.992188 46.53125 6 46 L 6 38 C 6 36.875 6.875 36 8 36 L 30 36 L 30 32 L 8 32 C 7.652344 32 7.320312 32.050781 6.984375 32.109375 L 11.335938 9.617188 C 11.511719 8.671875 12.335938 7.992188 13.296875 8 L 46.703125 8 C 47.660156 8 48.480469 8.679688 48.664062 9.617188 L 52.246094 28 L 56.304688 28 L 52.59375 8.859375 C 52.042969 6.039062 49.574219 4.003906 46.703125 4 Z M 48 32 C 40.976562 32 35.1875 37.238281 34.199219 44 L 24 44 L 36 56 L 48 44 L 38.199219 44 C 39.136719 39.335938 43.238281 35.984375 48 36 C 53.546875 36 58 40.453125 58 46 C 58 51.546875 53.546875 56 48 56 L 45.914062 56 L 45.914062 60 L 48 60 C 55.707031 60 62 53.707031 62 46 C 62 38.292969 55.707031 32 48 32 Z M 48 32 "/></g></svg>
