<svg xmlns="http://www.w3.org/2000/svg" xmlns:xlink="http://www.w3.org/1999/xlink" width="64" height="64" viewBox="0 0 64 64" version="1.1"><defs><filter id="alpha" filterUnits="objectBoundingBox" x="0%" y="0%" width="100%" height="100%"> <feColorMatrix type="matrix" in="SourceGraphic" values="0 0 0 0 1 0 0 0 0 1 0 0 0 0 1 0 0 0 1 0"/></filter><mask id="mask0"><rect x="0" y="0" width="64" height="64" style="fill:rgb(0%,0%,0%);fill-opacity:0.99;stroke:none;"/></mask><clipPath id="clip1"> <rect x="0" y="0" width="64" height="64"/></clipPath><path style=" stroke:none;fill-rule:nonzero;fill:rgb(40.000001%,28.235295%,29.411766%);fill-opacity:1;" d="M 62.9375 32.625 C 62.9375 49.757812 49.046875 63.648438 31.914062 63.648438 C 14.78125 63.648438 0.890625 49.757812 0.890625 32.625 C 0.890625 15.492188 14.78125 1.601562 31.914062 1.601562 C 49.046875 1.601562 62.9375 15.492188 62.9375 32.625 Z M 62.9375 32.625 "/></defs><use xlink:href="#surface5" mask="url(#mask0)"/><path style=" stroke:none;fill-rule:nonzero;fill:rgb(100%,100%,100%);fill-opacity:1;" d="M 8.671875 12.078125 C 3.660156 17.75 0.890625 25.054688 0.890625 32.625 C 0.890625 37.195312 1.898438 41.707031 3.847656 45.839844 L 59.980469 45.839844 C 61.929688 41.707031 62.9375 37.195312 62.9375 32.625 C 62.9375 25.054688 60.167969 17.75 55.15625 12.078125 Z M 8.671875 12.078125 "/><path style=" stroke:none;fill-rule:nonzero;fill:rgb(74.901962%,38.039216%,41.568628%);fill-opacity:1;" d="M 31.855469 1.601562 C 14.746094 1.632812 0.890625 15.511719 0.890625 32.625 C 0.890625 49.757812 14.78125 63.648438 31.914062 63.648438 C 49.046875 63.648438 62.9375 49.757812 62.9375 32.625 C 62.9375 15.492188 49.046875 1.601562 31.914062 1.601562 C 31.894531 1.601562 31.875 1.601562 31.855469 1.601562 Z M 31.699219 3.433594 C 31.773438 3.433594 31.84375 3.433594 31.914062 3.433594 C 48.035156 3.433594 61.105469 16.503906 61.105469 32.625 C 61.105469 48.746094 48.035156 61.816406 31.914062 61.816406 C 15.792969 61.816406 2.722656 48.746094 2.722656 32.625 C 2.722656 16.585938 15.660156 3.550781 31.699219 3.433594 Z M 31.699219 3.433594 "/><path style=" stroke:none;fill-rule:nonzero;fill:rgb(74.901962%,38.039216%,41.568628%);fill-opacity:1;" d="M 34.496094 16.113281 L 26.476562 24.136719 L 2.074219 24.136719 C 1.289062 26.898438 0.890625 29.753906 0.890625 32.625 C 0.890625 49.757812 14.78125 63.648438 31.914062 63.648438 C 49.046875 63.648438 62.9375 49.757812 62.9375 32.625 C 62.9375 26.78125 61.285156 21.058594 58.175781 16.113281 Z M 34.496094 16.113281 "/><path style=" stroke:none;fill-rule:nonzero;fill:rgb(100%,100%,100%);fill-opacity:1;" d="M 43 20.230469 C 50.394531 20.429688 56.378906 26.308594 56.707031 33.695312 C 57.050781 41.464844 51.039062 48.042969 43.269531 48.398438 C 35.503906 48.757812 28.914062 42.757812 28.542969 34.992188 L 28.539062 34.890625 C 28.222656 27.125 34.257812 20.566406 42.027344 20.238281 C 42.351562 20.226562 42.675781 20.222656 43 20.230469 Z M 42.898438 24.039062 C 42.660156 24.03125 42.425781 24.035156 42.1875 24.042969 C 36.519531 24.285156 32.117188 29.066406 32.347656 34.734375 L 32.347656 34.8125 C 32.621094 40.480469 37.429688 44.855469 43.097656 44.59375 C 48.761719 44.335938 53.148438 39.535156 52.898438 33.867188 C 52.660156 28.472656 48.292969 24.183594 42.898438 24.039062 Z M 42.898438 24.039062 "/><path style="fill:none;stroke-width:3;stroke-linecap:round;stroke-linejoin:miter;stroke:rgb(100%,100%,100%);stroke-opacity:1;stroke-miterlimit:4;" d="M 24.172852 31.02832 L 12.049805 38.027344 " transform="matrix(1.333333,0,0,1.333333,0,0)"/><path style=" stroke:none;fill-rule:nonzero;fill:rgb(100%,100%,100%);fill-opacity:0.643137;" d="M 40.230469 28.101562 C 40.300781 29.570312 41.550781 30.707031 43.019531 30.636719 C 44.488281 30.570312 45.625 29.324219 45.5625 27.855469 C 45.496094 26.386719 44.253906 25.246094 42.785156 25.308594 C 41.3125 25.371094 40.171875 26.613281 40.230469 28.082031 "/></svg>
