<svg width="64" height="64" viewBox="0 0 64 64" version="1.1" xmlns:inkscape="http://www.inkscape.org/namespaces/inkscape"><defs><linearGradient id="linear0" gradientUnits="userSpaceOnUse" x1="0" y1="0" x2="0" y2="1" gradientTransform="matrix(68.803097,0,0,42.544996,0.460128,10.186527)"><stop offset="0" style="stop-color:rgb(100%,56.862748%,82.745099%);stop-opacity:1;"/><stop offset="1" style="stop-color:rgb(100%,0%,60.000002%);stop-opacity:1;"/></linearGradient><linearGradient id="linear1" gradientUnits="userSpaceOnUse" x1="0" y1="0" x2="0" y2="1" gradientTransform="matrix(68.803097,0,0,42.544996,0.460128,10.186527)"><stop offset="0" style="stop-color:rgb(100%,56.862748%,82.745099%);stop-opacity:1;"/><stop offset="1" style="stop-color:rgb(100%,0%,60.000002%);stop-opacity:1;"/></linearGradient><filter style="color-interpolation-filters:sRGB;" inkscape:label="Diffuse Light" id="filter184" x="-0.0375" y="-0.0375" width="1.075" height="1.075"><feGaussianBlur in="SourceGraphic" stdDeviation="1" result="blur" id="feGaussianBlur174" /><feDiffuseLighting diffuseConstant="1" surfaceScale="10" lighting-color="rgb(255,255,255)" result="diffuse" id="feDiffuseLighting178"><feDistantLight elevation="8" azimuth="235" id="feDistantLight176" /></feDiffuseLighting><feComposite in="diffuse" in2="diffuse" operator="arithmetic" k1="1" result="composite1" id="feComposite180" /><feComposite in="composite1" in2="SourceGraphic" k1="1" operator="arithmetic" k3="1" result="composite2" id="feComposite182" /></filter></defs><g id="surface1" style="filter:url(#filter184)"><path style=" stroke:none;fill-rule:nonzero;fill:url(#linear0);" d="M 1.234375 1.441406 L 1.234375 54.160156 L 12.570312 54.160156 L 12.570312 15.820312 L 26.742188 30.199219 L 38.082031 30.199219 L 52.253906 15.820312 L 52.253906 54.160156 L 63.589844 54.160156 L 63.589844 1.441406 L 52.253906 1.441406 L 32.414062 21.8125 L 12.570312 1.441406 Z M 1.234375 1.441406 "/><path style=" stroke:none;fill-rule:nonzero;fill:url(#linear1);" d="M 27.273438 39.804688 L 27.273438 46.921875 L 18.257812 46.921875 L 18.257812 56.40625 L 27.273438 56.40625 L 27.273438 63.519531 L 39.300781 63.519531 L 39.300781 56.40625 L 48.324219 56.40625 L 48.324219 46.921875 L 39.300781 46.921875 L 39.300781 39.804688 Z M 27.273438 39.804688 "/></g></svg>
