<svg xmlns="http://www.w3.org/2000/svg" xmlns:xlink="http://www.w3.org/1999/xlink" width="64" height="64" viewBox="0 0 64 64" version="1.1"><g id="surface1"><path style=" stroke:none;fill-rule:nonzero;fill:rgb(65.098041%,54.11765%,38.039216%);fill-opacity:1;" d="M 29.898438 8.339844 L 34.832031 8.339844 L 34.832031 14.945312 L 29.898438 14.945312 Z M 29.898438 8.339844 "/><path style=" stroke:none;fill-rule:nonzero;fill:rgb(20.784314%,20.784314%,20.784314%);fill-opacity:1;" d="M 7.683594 53.3125 L 57.046875 53.3125 L 57.046875 60.082031 L 7.683594 60.082031 Z M 7.683594 53.3125 "/><path style=" stroke:none;fill-rule:nonzero;fill:rgb(88.235295%,70.19608%,30.980393%);fill-opacity:1;" d="M 32.367188 12.695312 C 17.367188 12.695312 5.210938 23.808594 5.210938 37.511719 L 5.210938 55.566406 L 59.523438 55.566406 L 59.523438 37.511719 C 59.523438 23.808594 47.363281 12.695312 32.367188 12.695312 M 5.210938 57.820312 L 5.210938 62.335938 L 59.523438 62.335938 L 59.523438 57.820312 Z M 5.210938 57.820312 "/><path style=" stroke:none;fill-rule:nonzero;fill:rgb(72.156864%,50.980395%,21.960784%);fill-opacity:1;" d="M 32.367188 12.695312 C 31.542969 12.695312 30.71875 12.734375 29.898438 12.816406 L 29.898438 45.585938 L 32.367188 45.585938 L 32.367188 12.695312 "/><path style=" stroke:none;fill-rule:nonzero;fill:rgb(72.156864%,50.980395%,21.960784%);fill-opacity:1;" d="M 5.210938 44.28125 L 59.523438 44.28125 L 59.523438 46.542969 L 5.210938 46.542969 Z M 5.210938 44.28125 "/><path style=" stroke:none;fill-rule:nonzero;fill:rgb(72.156864%,50.980395%,21.960784%);fill-opacity:1;" d="M 34.832031 20.589844 C 34.832031 21.21875 34.28125 21.71875 33.601562 21.71875 C 32.914062 21.71875 32.367188 21.21875 32.367188 20.589844 C 32.367188 19.96875 32.914062 19.464844 33.601562 19.464844 C 34.28125 19.464844 34.832031 19.96875 34.832031 20.589844 Z M 34.832031 20.589844 "/><path style=" stroke:none;fill-rule:nonzero;fill:rgb(72.156864%,50.980395%,21.960784%);fill-opacity:1;" d="M 34.832031 27.359375 C 34.832031 27.988281 34.28125 28.488281 33.601562 28.488281 C 32.914062 28.488281 32.367188 27.988281 32.367188 27.359375 C 32.367188 26.738281 32.914062 26.234375 33.601562 26.234375 C 34.28125 26.234375 34.832031 26.738281 34.832031 27.359375 Z M 34.832031 27.359375 "/><path style=" stroke:none;fill-rule:nonzero;fill:rgb(72.156864%,50.980395%,21.960784%);fill-opacity:1;" d="M 34.832031 34.128906 C 34.832031 34.757812 34.28125 35.257812 33.601562 35.257812 C 32.914062 35.257812 32.367188 34.757812 32.367188 34.128906 C 32.367188 33.507812 32.914062 33.003906 33.601562 33.003906 C 34.28125 33.003906 34.832031 33.507812 34.832031 34.128906 Z M 34.832031 34.128906 "/><path style=" stroke:none;fill-rule:nonzero;fill:rgb(72.156864%,50.980395%,21.960784%);fill-opacity:1;" d="M 34.832031 40.898438 C 34.832031 41.523438 34.28125 42.027344 33.601562 42.027344 C 32.914062 42.027344 32.367188 41.523438 32.367188 40.898438 C 32.367188 40.277344 32.914062 39.773438 33.601562 39.773438 C 34.28125 39.773438 34.832031 40.277344 34.832031 40.898438 Z M 34.832031 40.898438 "/><path style=" stroke:none;fill-rule:nonzero;fill:rgb(88.235295%,70.19608%,30.980393%);fill-opacity:1;" d="M 27.425781 1.414062 L 37.304688 1.414062 L 37.304688 10.4375 L 27.425781 10.4375 Z M 27.425781 1.414062 "/><path style=" stroke:none;fill-rule:nonzero;fill:rgb(65.098041%,54.11765%,38.039216%);fill-opacity:1;" d="M 24.960938 43.15625 C 24.960938 47.515625 21.09375 51.050781 16.320312 51.050781 C 11.554688 51.050781 7.683594 47.515625 7.683594 43.15625 C 7.683594 38.796875 11.554688 35.257812 16.320312 35.257812 C 21.09375 35.257812 24.960938 38.796875 24.960938 43.15625 Z M 24.960938 43.15625 "/><path style=" stroke:none;fill-rule:nonzero;fill:rgb(72.156864%,50.980395%,21.960784%);fill-opacity:1;" d="M 22.496094 43.15625 C 22.496094 46.273438 19.730469 48.796875 16.320312 48.796875 C 12.914062 48.796875 10.148438 46.273438 10.148438 43.15625 C 10.148438 40.039062 12.914062 37.511719 16.320312 37.511719 C 19.730469 37.511719 22.496094 40.039062 22.496094 43.15625 Z M 22.496094 43.15625 "/><path style=" stroke:none;fill-rule:nonzero;fill:rgb(20.784314%,20.784314%,20.784314%);fill-opacity:1;" d="M 20.023438 43.15625 C 20.023438 45.023438 18.367188 46.542969 16.320312 46.542969 C 14.28125 46.542969 12.617188 45.023438 12.617188 43.15625 C 12.617188 41.289062 14.28125 39.773438 16.320312 39.773438 C 18.367188 39.773438 20.023438 41.289062 20.023438 43.15625 Z M 20.023438 43.15625 "/><path style=" stroke:none;fill-rule:nonzero;fill:rgb(65.098041%,54.11765%,38.039216%);fill-opacity:1;" d="M 57.046875 43.15625 C 57.046875 47.515625 53.179688 51.050781 48.414062 51.050781 C 43.640625 51.050781 39.773438 47.515625 39.773438 43.15625 C 39.773438 38.796875 43.640625 35.257812 48.414062 35.257812 C 53.179688 35.257812 57.046875 38.796875 57.046875 43.15625 Z M 57.046875 43.15625 "/><path style=" stroke:none;fill-rule:nonzero;fill:rgb(72.156864%,50.980395%,21.960784%);fill-opacity:1;" d="M 54.582031 43.15625 C 54.582031 46.273438 51.820312 48.796875 48.414062 48.796875 C 45 48.796875 42.238281 46.273438 42.238281 43.15625 C 42.238281 40.039062 45 37.511719 48.414062 37.511719 C 51.820312 37.511719 54.582031 40.039062 54.582031 43.15625 Z M 54.582031 43.15625 "/><path style=" stroke:none;fill-rule:nonzero;fill:rgb(20.784314%,20.784314%,20.784314%);fill-opacity:1;" d="M 52.117188 43.15625 C 52.117188 45.023438 50.453125 46.542969 48.414062 46.542969 C 46.367188 46.542969 44.710938 45.023438 44.710938 43.15625 C 44.710938 41.289062 46.367188 39.773438 48.414062 39.773438 C 50.453125 39.773438 52.117188 41.289062 52.117188 43.15625 Z M 52.117188 43.15625 "/></g></svg>
