<svg width="64" height="64" viewBox="0 0 64 64" version="1.1" xmlns:inkscape="http://www.inkscape.org/namespaces/inkscape"><defs><linearGradient id="linear0" gradientUnits="userSpaceOnUse" x1="0" y1="0" x2="0" y2="1" gradientTransform="matrix(64,0,0,64,0,0)"><stop offset="0" style="stop-color:rgb(75.686276%,77.64706%,83.92157%);stop-opacity:1;"/><stop offset="1" style="stop-color:rgb(43.529412%,45.09804%,50.196081%);stop-opacity:1;"/></linearGradient><filter style="color-interpolation-filters:sRGB;" inkscape:label="Diffuse Light" id="filter184" x="-0.0375" y="-0.0375" width="1.075" height="1.075"><feGaussianBlur in="SourceGraphic" stdDeviation="1" result="blur" id="feGaussianBlur174" /><feDiffuseLighting diffuseConstant="1" surfaceScale="10" lighting-color="rgb(255,255,255)" result="diffuse" id="feDiffuseLighting178"><feDistantLight elevation="8" azimuth="235" id="feDistantLight176" /></feDiffuseLighting><feComposite in="diffuse" in2="diffuse" operator="arithmetic" k1="1" result="composite1" id="feComposite180" /><feComposite in="composite1" in2="SourceGraphic" k1="1" operator="arithmetic" k3="1" result="composite2" id="feComposite182" /></filter></defs><g id="surface1" style="filter:url(#filter184)"><path style=" stroke:none;fill-rule:nonzero;fill:url(#linear0);" d="M 27.71875 0 C 12.425781 0 0 12.425781 0 27.71875 C 0 43.007812 12.425781 55.433594 27.71875 55.433594 C 34.269531 55.4375 40.609375 53.109375 45.601562 48.867188 L 60.730469 64 L 64 60.730469 L 48.867188 45.601562 C 53.109375 40.609375 55.4375 34.269531 55.433594 27.71875 C 55.433594 12.425781 43.007812 0 27.71875 0 Z M 27.71875 4.621094 C 40.472656 4.621094 50.816406 14.960938 50.816406 27.71875 C 50.816406 40.472656 40.472656 50.816406 27.71875 50.816406 C 14.960938 50.816406 4.621094 40.472656 4.621094 27.71875 C 4.621094 14.960938 14.960938 4.621094 27.71875 4.621094 Z M 27.71875 4.621094 "/></g></svg>
