<?xml version="1.0" encoding="UTF-8" standalone="no"?><svg width="64" height="64" viewBox="0 0 64 64" version="1.1" id="svg33" sodipodi:docname="mahzhong.svg" inkscape:version="1.2.2 (b0a8486541, 2022-12-01)" xmlns:inkscape="http://www.inkscape.org/namespaces/inkscape" xmlns:sodipodi="http://sodipodi.sourceforge.net/DTD/sodipodi-0.dtd" xmlns:xlink="http://www.w3.org/1999/xlink" xmlns="http://www.w3.org/2000/svg" xmlns:svg="http://www.w3.org/2000/svg"> <sodipodi:namedview id="namedview35" pagecolor="#ffffff" bordercolor="#000000" borderopacity="0.25" inkscape:showpageshadow="2" inkscape:pageopacity="0.0" inkscape:pagecheckerboard="0" inkscape:deskcolor="#d1d1d1" showgrid="false" inkscape:zoom="3.6875" inkscape:cx="32" inkscape:cy="32.135593" inkscape:window-width="1432" inkscape:window-height="844" inkscape:window-x="0" inkscape:window-y="0" inkscape:window-maximized="1" inkscape:current-layer="svg33" /> <defs id="defs26"> <filter id="alpha" filterUnits="objectBoundingBox" x="0" y="0" width="1" height="1"> <feColorMatrix type="matrix" in="SourceGraphic" values="0 0 0 0 1 0 0 0 0 1 0 0 0 0 1 0 0 0 1 0" id="feColorMatrix2" /> </filter> <mask id="mask0"> <g filter="url(#alpha)" id="g7"> <rect x="0" y="0" width="64" height="64" style="fill:rgb(0%,0%,0%);fill-opacity:0.3;stroke:none;" id="rect5" /> </g> </mask> <linearGradient id="linear0" gradientUnits="userSpaceOnUse" x1="0" y1="0" x2="0" y2="1" gradientTransform="matrix(43.996094,0,0,12.125,10.003906,51.875)"> <stop offset="0" style="stop-color:#d29cff;stop-opacity:1;" id="stop10" /> <stop offset="1" style="stop-color:#aa00ff;stop-opacity:1;" id="stop12" /> </linearGradient> <clipPath id="clip1"> <rect x="0" y="0" width="64" height="64" id="rect15" /> </clipPath> <g id="surface5" clip-path="url(#clip1)"> <path style=" stroke:none;fill-rule:nonzero;fill:url(#linear0);" d="M 10.003906 51.875 L 10.003906 59.875 C 10.003906 62.160156 11.84375 64 14.128906 64 L 49.875 64 C 52.160156 64 54 62.160156 54 59.875 L 54 51.875 C 54 54.160156 52.160156 56 49.875 56 L 14.128906 56 C 11.84375 56 10.003906 54.160156 10.003906 51.875 Z M 10.003906 51.875 " id="path18" /> </g> <linearGradient id="linear1" gradientUnits="userSpaceOnUse" x1="0" y1="0" x2="0" y2="1" gradientTransform="matrix(43.996094,0,0,55.996094,10,0)"> <stop offset="0" style="stop-color:#d29cff;stop-opacity:1;" id="stop21" /> <stop offset="1" style="stop-color:#aa00ff;stop-opacity:1;" id="stop23" /> </linearGradient> <filter style="color-interpolation-filters:sRGB;" inkscape:label="Diffuse Light" id="filter1678" x="-0.054545455" y="-0.0375" width="1.1090909" height="1.075"> <feGaussianBlur in="SourceGraphic" stdDeviation="1" result="blur" id="feGaussianBlur1668" /> <feDiffuseLighting diffuseConstant="1" surfaceScale="10" lighting-color="rgb(255,255,255)" result="diffuse" id="feDiffuseLighting1672"> <feDistantLight elevation="8" azimuth="235" id="feDistantLight1670" /> </feDiffuseLighting> <feComposite in="diffuse" in2="diffuse" operator="arithmetic" k1="1" result="composite1" id="feComposite1674" /> <feComposite in="composite1" in2="SourceGraphic" k1="1" operator="arithmetic" k3="1" result="composite2" id="feComposite1676" /> </filter> </defs> <g id="surface1" style="filter:url(#filter1678)"> <use xlink:href="#surface5" mask="url(#mask0)" id="use28" /> <path style=" stroke:none;fill-rule:nonzero;fill:url(#linear1);" d="M 14.125 0 C 11.839844 0 10 1.839844 10 4.125 L 10 51.871094 C 10 54.15625 11.839844 55.996094 14.125 55.996094 L 49.871094 55.996094 C 52.15625 55.996094 53.996094 54.15625 53.996094 51.871094 L 53.996094 4.125 C 53.996094 1.839844 52.15625 0 49.871094 0 Z M 26 8 L 37.996094 8 L 33.996094 12.25 L 33.996094 16 L 45.996094 16 L 45.996094 24.621094 L 38.621094 31.996094 L 33.996094 31.996094 L 33.996094 47.996094 L 29.996094 51.996094 L 29.996094 31.996094 L 27.375 31.996094 L 16.25 20.375 L 30 16.5 L 30 12.25 Z M 33.996094 20 L 33.996094 27.996094 L 36.996094 27.996094 L 41.996094 23 L 41.996094 20 Z M 29.996094 20.5 L 23.75 22.375 L 29 27.996094 L 29.996094 27.996094 Z M 29.996094 20.5 " id="path30" /> </g></svg>
