<svg width="64" height="64" viewBox="0 0 64 64" version="1.1" xmlns:inkscape="http://www.inkscape.org/namespaces/inkscape"><defs><linearGradient id="linear0" gradientUnits="userSpaceOnUse" x1="0" y1="128" x2="128" y2="0" gradientTransform="matrix(0.531907,0,0,0.557634,-1.489216,-3.657895)"><stop offset="0" style="stop-color:rgb(87.058824%,86.666667%,56.470591%);stop-opacity:1;"/><stop offset="1" style="stop-color:rgb(67.843139%,67.450982%,38.039216%);stop-opacity:1;"/></linearGradient><filter style="color-interpolation-filters:sRGB;" inkscape:label="Diffuse Light" id="filter184" x="-0.0375" y="-0.0375" width="1.075" height="1.075"><feGaussianBlur in="SourceGraphic" stdDeviation="1" result="blur" id="feGaussianBlur174" /><feDiffuseLighting diffuseConstant="1" surfaceScale="10" lighting-color="rgb(255,255,255)" result="diffuse" id="feDiffuseLighting178"><feDistantLight elevation="8" azimuth="235" id="feDistantLight176" /></feDiffuseLighting><feComposite in="diffuse" in2="diffuse" operator="arithmetic" k1="1" result="composite1" id="feComposite180" /><feComposite in="composite1" in2="SourceGraphic" k1="1" operator="arithmetic" k3="1" result="composite2" id="feComposite182" /></filter></defs><g id="surface1" style="filter:url(#filter184)"><path style=" stroke:none;fill-rule:nonzero;fill:url(#linear0);" d="M 11.890625 0.714844 C 10.179688 0.714844 8.769531 2.214844 8.769531 4.007812 L 8.769531 60.066406 C 8.769531 61.867188 10.171875 63.347656 11.890625 63.347656 L 53.199219 63.347656 C 54.917969 63.347656 56.335938 61.871094 56.335938 60.066406 L 56.335938 23.648438 L 56.023438 23.316406 L 34.8125 1.046875 L 34.5 0.714844 Z M 54.03125 0.960938 C 53.039062 0.960938 44.355469 1.046875 42.644531 1.046875 C 40.933594 1.046875 40.398438 2.367188 41.425781 3.695312 C 42.460938 5.027344 53.039062 15.882812 53.632812 16.589844 C 54.414062 17.539062 56.125 17.421875 56.125 15.230469 L 56.125 3.15625 C 56.125 2.105469 55.34375 0.960938 54.03125 0.960938 Z M 11.890625 2.945312 L 33.601562 2.945312 L 54.214844 24.554688 L 54.214844 60.066406 C 54.214844 60.664062 53.761719 61.117188 53.199219 61.117188 L 11.890625 61.117188 C 11.324219 61.117188 10.894531 60.671875 10.894531 60.066406 L 10.894531 4.007812 C 10.894531 3.410156 11.320312 2.945312 11.890625 2.945312 Z M 11.890625 2.945312 "/></g></svg>
