<svg width="64" height="64" viewBox="0 0 64 64" version="1.1" xmlns:inkscape="http://www.inkscape.org/namespaces/inkscape"><defs><linearGradient id="linear0" gradientUnits="userSpaceOnUse" x1="0" y1="0" x2="0" y2="1" gradientTransform="matrix(56,0,0,35.898438,4,14.050781)"><stop offset="0" style="stop-color:rgb(82.352942%,61.176473%,100%);stop-opacity:1;"/><stop offset="1" style="stop-color:rgb(66.666669%,0%,100%);stop-opacity:1;"/></linearGradient><filter style="color-interpolation-filters:sRGB;" inkscape:label="Diffuse Light" id="filter184" x="-0.0375" y="-0.0375" width="1.075" height="1.075"><feGaussianBlur in="SourceGraphic" stdDeviation="1" result="blur" id="feGaussianBlur174" /><feDiffuseLighting diffuseConstant="1" surfaceScale="10" lighting-color="rgb(255,255,255)" result="diffuse" id="feDiffuseLighting178"><feDistantLight elevation="8" azimuth="235" id="feDistantLight176" /></feDiffuseLighting><feComposite in="diffuse" in2="diffuse" operator="arithmetic" k1="1" result="composite1" id="feComposite180" /><feComposite in="composite1" in2="SourceGraphic" k1="1" operator="arithmetic" k3="1" result="composite2" id="feComposite182" /></filter></defs><g id="surface1" style="filter:url(#filter184)"><path style=" stroke:none;fill-rule:nonzero;fill:url(#linear0);" d="M 21.890625 25.886719 L 29.0625 25.886719 L 25.476562 32.753906 M 29.0625 12.152344 L 36.230469 12.152344 L 32.644531 19.023438 M 36.230469 25.886719 L 43.398438 25.886719 L 39.8125 32.753906 M 43.398438 39.621094 L 50.566406 39.621094 L 46.980469 46.488281 M 50.566406 53.355469 L 57.734375 53.355469 L 54.148438 60.222656 M 36.226562 53.359375 L 43.394531 53.359375 L 39.808594 60.226562 M 21.882812 53.359375 L 29.054688 53.359375 L 25.46875 60.226562 M 7.542969 53.363281 L 14.710938 53.363281 L 11.125 60.230469 M 14.714844 39.628906 L 21.882812 39.628906 L 18.296875 46.496094 M 25.46875 19.027344 L 39.808594 19.027344 L 32.636719 32.761719 M 39.808594 46.496094 L 54.148438 46.496094 L 46.976562 60.230469 M 11.125 46.5 L 25.46875 46.496094 L 18.296875 60.230469 M 18.296875 32.761719 L 46.976562 32.761719 L 32.636719 60.230469 M 32.640625 5.292969 L 3.957031 60.234375 L 61.316406 60.226562 "/></g></svg>
