<svg xmlns="http://www.w3.org/2000/svg" xmlns:xlink="http://www.w3.org/1999/xlink" width="64" height="64" viewBox="0 0 64 64" version="1.1"><defs><filter id="alpha" filterUnits="objectBoundingBox" x="0%" y="0%" width="100%" height="100%"> <feColorMatrix type="matrix" in="SourceGraphic" values="0 0 0 0 1 0 0 0 0 1 0 0 0 0 1 0 0 0 1 0"/></filter><mask id="mask0"><rect x="0" y="0" width="64" height="64" style="fill:rgb(0%,0%,0%);fill-opacity:0.99;stroke:none;"/></mask><clipPath id="clip1"> <rect x="0" y="0" width="64" height="64"/></clipPath><path style=" stroke:none;fill-rule:nonzero;fill:rgb(50.588238%,63.137257%,75.686276%);fill-opacity:1;" d="M 62.9375 32.625 C 62.9375 49.757812 49.046875 63.648438 31.914062 63.648438 C 14.78125 63.648438 0.890625 49.757812 0.890625 32.625 C 0.890625 15.492188 14.78125 1.601562 31.914062 1.601562 C 49.046875 1.601562 62.9375 15.492188 62.9375 32.625 Z M 62.9375 32.625 "/><mask id="mask1"><rect x="0" y="0" width="64" height="64" style="fill:rgb(0%,0%,0%);fill-opacity:0.99;stroke:none;"/></mask><clipPath id="clip2"> <rect x="0" y="0" width="64" height="64"/></clipPath><path style=" stroke:none;fill-rule:nonzero;fill:rgb(100%,100%,100%);fill-opacity:0.321569;" d="M 58.980469 32.625 C 58.980469 47.574219 46.863281 59.691406 31.914062 59.691406 C 16.964844 59.691406 4.847656 47.574219 4.847656 32.625 C 4.847656 17.675781 16.964844 5.558594 31.914062 5.558594 C 46.863281 5.558594 58.980469 17.675781 58.980469 32.625 Z M 58.980469 32.625 "/></defs><use xlink:href="#surface5" mask="url(#mask0)"/><use xlink:href="#surface8" mask="url(#mask1)"/><path style=" stroke:none;fill-rule:nonzero;fill:rgb(98.823529%,98.823529%,98.823529%);fill-opacity:1;" d="M 31.621094 7.121094 L 22.210938 17.738281 L 35.234375 24.097656 L 34.351562 20 C 36.417969 18.945312 50.777344 20.886719 52.121094 35.980469 C 52.992188 28.863281 52.710938 19.65625 42.613281 13.839844 C 39.890625 12.269531 36.5 11.136719 32.304688 10.695312 Z M 24.539062 13.113281 C 17.9375 15.917969 10.101562 20.765625 10.117188 32.421875 C 10.117188 35.558594 10.832031 39.0625 12.546875 42.917969 L 9.792969 45.296875 L 23.695312 48.136719 L 22.6875 33.679688 L 19.582031 36.492188 C 17.636719 35.230469 12.136719 21.824219 24.539062 13.113281 Z M 49.542969 31.699219 L 37.527344 39.800781 L 41.515625 41.085938 C 41.394531 43.398438 32.53125 54.867188 18.789062 48.484375 C 24.519531 52.796875 32.632812 57.15625 42.71875 51.320312 C 45.4375 49.746094 48.117188 47.375 50.597656 43.960938 L 54.035156 45.160156 Z M 49.542969 31.699219 "/></svg>
