<svg width="64" height="64" viewBox="0 0 64 64" version="1.1" xmlns:inkscape="http://www.inkscape.org/namespaces/inkscape"><defs><linearGradient id="linear0" gradientUnits="userSpaceOnUse" x1="0" y1="0" x2="0" y2="1" gradientTransform="matrix(64,0,0,60.210937,0,1.894531)"><stop offset="0" style="stop-color:rgb(0%,73.333335%,100%);stop-opacity:1;"/><stop offset="1" style="stop-color:rgb(0%,52.156866%,70.980394%);stop-opacity:1;"/></linearGradient><filter style="color-interpolation-filters:sRGB;" inkscape:label="Diffuse Light" id="filter184" x="-0.0375" y="-0.0375" width="1.075" height="1.075"><feGaussianBlur in="SourceGraphic" stdDeviation="1" result="blur" id="feGaussianBlur174" /><feDiffuseLighting diffuseConstant="1" surfaceScale="10" lighting-color="rgb(255,255,255)" result="diffuse" id="feDiffuseLighting178"><feDistantLight elevation="8" azimuth="235" id="feDistantLight176" /></feDiffuseLighting><feComposite in="diffuse" in2="diffuse" operator="arithmetic" k1="1" result="composite1" id="feComposite180" /><feComposite in="composite1" in2="SourceGraphic" k1="1" operator="arithmetic" k3="1" result="composite2" id="feComposite182" /></filter></defs><g id="surface1" style="filter:url(#filter184)"><path style=" stroke:none;fill-rule:nonzero;fill:url(#linear0);" d="M 38.871094 1.894531 L 20.234375 20.527344 L 19.816406 20.867188 L 19.648438 21.371094 L 13.15625 36.71875 L 7.335938 42.367188 L 5.3125 44.222656 L 8.097656 47.007812 L 0 55.105469 L 14.335938 62.105469 L 18.71875 57.71875 L 19.394531 58.308594 L 21.246094 60.246094 L 23.1875 58.390625 L 29.175781 52.742188 L 44.523438 46.253906 L 44.945312 45.996094 L 45.367188 45.660156 L 64 27.023438 L 60.121094 23.230469 L 50.425781 32.929688 L 32.882812 15.386719 L 42.664062 5.691406 Z M 29.175781 19.269531 L 46.632812 36.722656 L 43.429688 39.925781 L 25.972656 22.46875 Z M 23.105469 27.195312 L 38.703125 42.792969 L 26.480469 48.019531 L 26.054688 48.191406 L 25.636719 48.527344 L 21.332031 52.660156 L 13.070312 44.390625 L 17.285156 40.347656 L 17.625 39.925781 L 17.875 39.421875 Z M 23.105469 27.195312 "/></g></svg>
