<svg width="64" height="64" viewBox="0 0 64 64" version="1.1" xmlns:inkscape="http://www.inkscape.org/namespaces/inkscape"><defs><linearGradient id="linear0" gradientUnits="userSpaceOnUse" x1="0" y1="0" x2="0" y2="1" gradientTransform="matrix(56,0,0,35.898438,4,14.050781)"><stop offset="0" style="stop-color:rgb(0%,78.823531%,36.862746%);stop-opacity:1;"/><stop offset="1" style="stop-color:rgb(0%,54.11765%,25.098041%);stop-opacity:1;"/></linearGradient><filter style="color-interpolation-filters:sRGB;" inkscape:label="Diffuse Light" id="filter184" x="-0.0375" y="-0.0375" width="1.075" height="1.075"><feGaussianBlur in="SourceGraphic" stdDeviation="1" result="blur" id="feGaussianBlur174" /><feDiffuseLighting diffuseConstant="1" surfaceScale="10" lighting-color="rgb(255,255,255)" result="diffuse" id="feDiffuseLighting178"><feDistantLight elevation="8" azimuth="235" id="feDistantLight176" /></feDiffuseLighting><feComposite in="diffuse" in2="diffuse" operator="arithmetic" k1="1" result="composite1" id="feComposite180" /><feComposite in="composite1" in2="SourceGraphic" k1="1" operator="arithmetic" k3="1" result="composite2" id="feComposite182" /></filter></defs><g id="surface1" style="filter:url(#filter184)"><path style=" stroke:none;fill-rule:nonzero;fill:url(#linear0);" d="M 19.152344 3.582031 L 19.152344 6.207031 L 16.984375 6.207031 L 16.984375 8.835938 L 19.152344 8.835938 L 19.152344 11.460938 L 16.984375 11.460938 L 16.984375 14.089844 L 19.152344 14.089844 L 19.152344 16.71875 L 14.816406 16.71875 L 14.816406 19.34375 L 19.152344 19.34375 L 19.152344 21.972656 L 21.316406 21.972656 L 21.316406 19.34375 L 23.484375 19.34375 L 23.484375 16.71875 L 21.316406 16.71875 L 21.316406 14.089844 L 23.484375 14.089844 L 23.484375 11.460938 L 21.316406 11.460938 L 21.316406 8.835938 L 25.652344 8.835938 L 25.652344 6.207031 L 21.316406 6.207031 L 21.316406 3.582031 Z M 23.484375 14.089844 L 23.484375 16.71875 L 25.652344 16.71875 L 25.652344 14.089844 Z M 16.984375 11.460938 L 16.984375 8.835938 L 14.816406 8.835938 L 14.816406 11.460938 Z M 32.152344 3.582031 L 32.152344 6.207031 L 29.988281 6.207031 L 29.988281 8.835938 L 32.152344 8.835938 L 32.152344 19.34375 L 29.988281 19.34375 L 29.988281 21.972656 L 36.488281 21.972656 L 36.488281 19.34375 L 34.320312 19.34375 L 34.320312 3.582031 Z M 45.15625 3.582031 L 45.15625 6.207031 L 42.988281 6.207031 L 42.988281 8.835938 L 45.15625 8.835938 L 45.15625 14.089844 L 40.824219 14.089844 L 40.824219 11.460938 L 38.65625 11.460938 L 38.65625 16.71875 L 45.15625 16.71875 L 45.15625 21.972656 L 47.324219 21.972656 L 47.324219 16.71875 L 49.492188 16.71875 L 49.492188 14.089844 L 47.324219 14.089844 L 47.324219 3.582031 Z M 40.824219 11.460938 L 42.988281 11.460938 L 42.988281 8.835938 L 40.824219 8.835938 Z M 60.328125 27.226562 L 51.660156 35.105469 L 42.988281 29.851562 L 29.988281 40.359375 L 16.984375 35.105469 L 3.980469 42.988281 L 3.980469 61.378906 L 8.3125 61.378906 L 8.3125 45.613281 L 12.648438 42.988281 L 12.648438 61.378906 L 16.984375 61.378906 L 16.984375 40.359375 L 21.316406 42.109375 L 21.316406 61.378906 L 25.652344 61.378906 L 25.652344 43.863281 L 29.988281 45.613281 L 29.988281 61.378906 L 34.320312 61.378906 L 34.320312 42.109375 L 38.65625 38.609375 L 38.65625 61.378906 L 42.988281 61.378906 L 42.988281 35.105469 L 47.324219 37.734375 L 47.324219 61.378906 L 51.660156 61.378906 L 51.660156 40.359375 L 55.992188 36.421875 L 55.992188 61.378906 L 60.328125 61.378906 Z M 60.328125 27.226562 "/></g></svg>
