<svg width="64" height="64" viewBox="0 0 64 64" version="1.1" xmlns:inkscape="http://www.inkscape.org/namespaces/inkscape"><defs><linearGradient id="linear0" gradientUnits="userSpaceOnUse" x1="0" y1="0" x2="0" y2="1" gradientTransform="matrix(72.77965,0,0,62.050868,-4.351985,1.761501)"><stop offset="0" style="stop-color:rgb(100%,63.137257%,63.137257%);stop-opacity:1;"/><stop offset="1" style="stop-color:rgb(100%,27.843139%,27.843139%);stop-opacity:1;"/></linearGradient><filter style="color-interpolation-filters:sRGB;" inkscape:label="Diffuse Light" id="filter184" x="-0.0375" y="-0.0375" width="1.075" height="1.075"><feGaussianBlur in="SourceGraphic" stdDeviation="1" result="blur" id="feGaussianBlur174" /><feDiffuseLighting diffuseConstant="1" surfaceScale="10" lighting-color="rgb(255,255,255)" result="diffuse" id="feDiffuseLighting178"><feDistantLight elevation="8" azimuth="235" id="feDistantLight176" /></feDiffuseLighting><feComposite in="diffuse" in2="diffuse" operator="arithmetic" k1="1" result="composite1" id="feComposite180" /><feComposite in="composite1" in2="SourceGraphic" k1="1" operator="arithmetic" k3="1" result="composite2" id="feComposite182" /></filter></defs><g id="surface1" style="filter:url(#filter184)"><path style=" stroke:none;fill-rule:nonzero;fill:url(#linear0);" d="M 10.523438 14.964844 C 8.832031 14.964844 7.472656 16.28125 7.472656 17.917969 L 7.472656 52.90625 C 7.472656 54.542969 8.832031 55.746094 10.523438 55.757812 L 37.960938 55.757812 L 44.058594 62.195312 L 50.15625 55.757812 L 59.304688 55.757812 C 60.992188 55.757812 62.351562 54.542969 62.351562 52.90625 L 62.351562 17.917969 C 62.351562 16.28125 60.992188 14.964844 59.304688 14.964844 Z M 10.523438 14.964844 "/><path style=" stroke:none;fill-rule:nonzero;fill:rgb(100%,27.843139%,27.843139%);fill-opacity:1;" d="M 2.726562 2.082031 C 1.703125 2.082031 0.890625 2.882812 0.890625 3.875 L 0.890625 36.785156 C 0.882812 37.265625 1.074219 37.71875 1.425781 38.050781 C 1.769531 38.390625 2.238281 38.582031 2.726562 38.582031 L 11.867188 38.582031 L 11.867188 12.816406 L 25.03125 12.816406 L 25.03125 2.082031 Z M 27.234375 2.082031 L 27.234375 38.582031 L 36.367188 38.582031 C 37.390625 38.582031 38.207031 37.78125 38.207031 36.785156 L 38.207031 3.875 C 38.207031 2.882812 37.390625 2.082031 36.367188 2.082031 Z M 14.0625 14.964844 L 14.0625 38.582031 L 25.03125 38.582031 L 25.03125 14.964844 Z M 14.0625 14.964844 "/></g></svg>
