<svg width="64" height="64" viewBox="0 0 64 64" version="1.1" xmlns:inkscape="http://www.inkscape.org/namespaces/inkscape"><defs><linearGradient id="linear0" gradientUnits="userSpaceOnUse" x1="0" y1="0" x2="0" y2="1" gradientTransform="matrix(64,0,0,18.75,0,28.652344)"><stop offset="0" style="stop-color:rgb(0%,96.078432%,86.274511%);stop-opacity:1;"/><stop offset="1" style="stop-color:rgb(0%,54.901963%,49.411765%);stop-opacity:1;"/></linearGradient><linearGradient id="linear1" gradientUnits="userSpaceOnUse" x1="0" y1="0" x2="0" y2="1" gradientTransform="matrix(25.449219,0,0,25.449219,18.539062,16.597656)"><stop offset="0" style="stop-color:rgb(0%,96.078432%,86.274511%);stop-opacity:1;"/><stop offset="1" style="stop-color:rgb(0%,54.901963%,49.411765%);stop-opacity:1;"/></linearGradient><filter style="color-interpolation-filters:sRGB;" inkscape:label="Diffuse Light" id="filter184" x="-0.0375" y="-0.0375" width="1.075" height="1.075"><feGaussianBlur in="SourceGraphic" stdDeviation="1" result="blur" id="feGaussianBlur174" /><feDiffuseLighting diffuseConstant="1" surfaceScale="10" lighting-color="rgb(255,255,255)" result="diffuse" id="feDiffuseLighting178"><feDistantLight elevation="8" azimuth="235" id="feDistantLight176" /></feDiffuseLighting><feComposite in="diffuse" in2="diffuse" operator="arithmetic" k1="1" result="composite1" id="feComposite180" /><feComposite in="composite1" in2="SourceGraphic" k1="1" operator="arithmetic" k3="1" result="composite2" id="feComposite182" /></filter></defs><g id="surface1" style="filter:url(#filter184)"><path style=" stroke:none;fill-rule:nonzero;fill:url(#linear0);" d="M 18.539062 43.382812 L 18.539062 47.402344 L 0 47.402344 L 17.011719 28.652344 L 64 28.652344 L 49.429688 47.402344 L 43.988281 47.402344 L 43.988281 43.382812 L 47.457031 43.382812 L 55.789062 32.667969 L 18.792969 32.667969 L 9.066406 43.382812 Z M 18.539062 43.382812 "/><path style=" stroke:none;fill-rule:nonzero;fill:url(#linear1);" d="M 18.539062 16.597656 L 18.539062 42.046875 L 22.554688 42.046875 L 22.554688 26.0625 L 29.660156 42.046875 L 32.867188 42.046875 L 39.96875 26.0625 L 39.96875 42.046875 L 43.988281 42.046875 L 43.988281 16.597656 L 39.78125 16.597656 L 31.265625 35.757812 L 22.746094 16.597656 Z M 18.539062 16.597656 "/></g></svg>
