<svg width="64" height="64" viewBox="0 0 64 64" version="1.1" xmlns:inkscape="http://www.inkscape.org/namespaces/inkscape"><defs><linearGradient id="linear0" gradientUnits="userSpaceOnUse" x1="0" y1="0" x2="0" y2="1" gradientTransform="matrix(56,0,0,35.898438,4,14.050781)"><stop offset="0" style="stop-color:rgb(41.960785%,64.313728%,100%);stop-opacity:1;"/><stop offset="1" style="stop-color:rgb(0%,43.137255%,100%);stop-opacity:1;"/></linearGradient><filter style="color-interpolation-filters:sRGB;" inkscape:label="Diffuse Light" id="filter184" x="-0.0375" y="-0.0375" width="1.075" height="1.075"><feGaussianBlur in="SourceGraphic" stdDeviation="1" result="blur" id="feGaussianBlur174" /><feDiffuseLighting diffuseConstant="1" surfaceScale="10" lighting-color="rgb(255,255,255)" result="diffuse" id="feDiffuseLighting178"><feDistantLight elevation="8" azimuth="235" id="feDistantLight176" /></feDiffuseLighting><feComposite in="diffuse" in2="diffuse" operator="arithmetic" k1="1" result="composite1" id="feComposite180" /><feComposite in="composite1" in2="SourceGraphic" k1="1" operator="arithmetic" k3="1" result="composite2" id="feComposite182" /></filter></defs><g id="surface1" style="filter:url(#filter184)"><path style=" stroke:none;fill-rule:nonzero;fill:url(#linear0);" d="M 3.953125 4.796875 L 3.953125 11.613281 L 11.074219 11.613281 L 11.074219 38.878906 L 3.953125 38.878906 L 3.953125 59.328125 L 46.683594 59.328125 L 46.683594 52.511719 L 32.441406 52.511719 L 32.441406 45.695312 L 53.804688 45.695312 L 53.804688 59.328125 L 60.925781 59.328125 L 60.925781 38.878906 L 25.320312 38.878906 L 25.320312 52.511719 L 11.074219 52.511719 L 11.074219 45.695312 L 18.199219 45.695312 L 18.199219 32.0625 L 32.441406 32.0625 L 32.441406 11.613281 L 53.804688 11.613281 L 53.804688 25.246094 L 46.683594 25.246094 L 46.683594 18.429688 L 39.5625 18.429688 L 39.5625 32.0625 L 60.925781 32.0625 L 60.925781 4.796875 L 25.320312 4.796875 L 25.320312 25.246094 L 18.199219 25.246094 L 18.199219 4.796875 Z M 3.953125 4.796875 "/></g></svg>
