<?xml version="1.0" encoding="UTF-8" standalone="no"?><svg width="64" height="64" viewBox="0 0 64 64" version="1.1" id="svg17" sodipodi:docname="megamek.svg" inkscape:version="1.2.2 (b0a8486541, 2022-12-01)" xmlns:inkscape="http://www.inkscape.org/namespaces/inkscape" xmlns:sodipodi="http://sodipodi.sourceforge.net/DTD/sodipodi-0.dtd" xmlns="http://www.w3.org/2000/svg" xmlns:svg="http://www.w3.org/2000/svg"> <defs id="defs21"> <filter style="color-interpolation-filters:sRGB;" inkscape:label="Diffuse Light" id="filter191" x="-0.06" y="-0.066666667" width="1.12" height="1.1333333"> <feGaussianBlur in="SourceGraphic" stdDeviation="1" result="blur" id="feGaussianBlur181" /> <feDiffuseLighting diffuseConstant="1" surfaceScale="10" lighting-color="rgb(255,255,255)" result="diffuse" id="feDiffuseLighting185"> <feDistantLight elevation="8" azimuth="235" id="feDistantLight183" /> </feDiffuseLighting> <feComposite in="diffuse" in2="diffuse" operator="arithmetic" k1="1" result="composite1" id="feComposite187" /> <feComposite in="composite1" in2="SourceGraphic" k1="1" operator="arithmetic" k3="1" result="composite2" id="feComposite189" /> </filter> </defs> <sodipodi:namedview id="namedview19" pagecolor="#ffffff" bordercolor="#000000" borderopacity="0.25" inkscape:showpageshadow="2" inkscape:pageopacity="0.0" inkscape:pagecheckerboard="0" inkscape:deskcolor="#d1d1d1" showgrid="false" inkscape:zoom="3.6875" inkscape:cx="32" inkscape:cy="32.135593" inkscape:window-width="1432" inkscape:window-height="844" inkscape:window-x="0" inkscape:window-y="0" inkscape:window-maximized="1" inkscape:current-layer="svg17" /> <g id="surface1" transform="matrix(1.5381993,0,0,1.6967128,-17.267151,-20.898178)" style="filter:url(#filter191)"> <path style="fill:#17b34f;fill-opacity:1;fill-rule:nonzero;stroke:none" d="M 24,22.667969 H 40 V 40 H 24 Z m 0,0" id="path2" /> <path style="fill:#8a8a8a;fill-opacity:1;fill-rule:nonzero;stroke:none" d="m 32,17.332031 6.667969,-4 6.664062,4 V 24 L 42.667969,26.667969 38.667969,28 32,24 30.667969,20.332031 Z m 0,0" id="path4" /> <path style="fill:#686868;fill-opacity:1;fill-rule:nonzero;stroke:none" d="M 38.667969,28 45.332031,24 52,28 v 6.667969 l -6.667969,4 h -4 l -2.664062,-4 z m 0,0" id="path6" /> <path style="fill:#d9ca75;fill-opacity:1;fill-rule:nonzero;stroke:none" d="m 32,38.667969 6.667969,-4 6.664062,4 v 6.664062 l -6.664062,4 -6.667969,-4 -1.332031,-4 z m 0,0" id="path8" /> <path style="fill:#8a8a8a;fill-opacity:1;fill-rule:nonzero;stroke:none" d="M 18.667969,38.667969 21.332031,36 l 4,-1.332031 6.667969,4 v 6.664062 l -6.667969,4 -6.664062,-4 z m 0,0" id="path10" /> <path style="fill:#686868;fill-opacity:1;fill-rule:nonzero;stroke:none" d="m 12,28 6.667969,-4 4,1.332031 L 25.332031,28 v 6.667969 l -6.664062,4 -6.667969,-4 z m 0,0" id="path12" /> <path style="fill:#d9ca75;fill-opacity:1;fill-rule:nonzero;stroke:none" d="m 18.667969,17.332031 6.664062,-4 6.667969,4 V 24 l -6.667969,4 -6.664062,-4 z m 0,0" id="path14" /> </g></svg>
