<svg width="64" height="64" viewBox="0 0 64 64" version="1.1" xmlns:inkscape="http://www.inkscape.org/namespaces/inkscape"><defs><linearGradient id="linear0" gradientUnits="userSpaceOnUse" x1="0" y1="0" x2="0" y2="1" gradientTransform="matrix(60.507101,0,0,63.353493,2.085656,-0.116786)"><stop offset="0" style="stop-color:rgb(0%,96.078432%,86.274511%);stop-opacity:1;"/><stop offset="1" style="stop-color:rgb(0%,54.901963%,49.411765%);stop-opacity:1;"/></linearGradient><filter style="color-interpolation-filters:sRGB;" inkscape:label="Diffuse Light" id="filter184" x="-0.0375" y="-0.0375" width="1.075" height="1.075"><feGaussianBlur in="SourceGraphic" stdDeviation="1" result="blur" id="feGaussianBlur174" /><feDiffuseLighting diffuseConstant="1" surfaceScale="10" lighting-color="rgb(255,255,255)" result="diffuse" id="feDiffuseLighting178"><feDistantLight elevation="8" azimuth="235" id="feDistantLight176" /></feDiffuseLighting><feComposite in="diffuse" in2="diffuse" operator="arithmetic" k1="1" result="composite1" id="feComposite180" /><feComposite in="composite1" in2="SourceGraphic" k1="1" operator="arithmetic" k3="1" result="composite2" id="feComposite182" /></filter></defs><g id="surface1" style="filter:url(#filter184)"><path style=" stroke:none;fill-rule:nonzero;fill:url(#linear0);" d="M 7.945312 6.03125 C 6.730469 6.03125 5.746094 7.050781 5.746094 8.320312 L 5.746094 45.414062 C 5.746094 46.683594 6.730469 47.707031 7.945312 47.707031 L 56.855469 47.707031 C 58.070312 47.707031 59.050781 46.683594 59.050781 45.414062 L 59.050781 8.320312 C 59.050781 7.050781 58.070312 6.03125 56.855469 6.03125 Z M 24.402344 15.753906 L 41.726562 26.867188 L 24.402344 37.980469 Z M 33.285156 52.011719 C 31.667969 52.011719 30.324219 53.199219 30.015625 54.789062 L 10.289062 54.789062 C 6.050781 54.789062 3.25 54.8125 1.371094 54.867188 L 1.371094 56.179688 L 30.015625 56.179688 C 30.324219 57.765625 31.667969 58.957031 33.285156 58.957031 C 34.898438 58.957031 36.238281 57.765625 36.546875 56.179688 L 63.429688 56.179688 L 63.429688 54.789062 L 36.546875 54.789062 C 36.238281 53.199219 34.898438 52.011719 33.285156 52.011719 "/></g></svg>
