<svg width="64" height="64" viewBox="0 0 64 64" version="1.1" xmlns:inkscape="http://www.inkscape.org/namespaces/inkscape"><defs><linearGradient id="linear0" gradientUnits="userSpaceOnUse" x1="0" y1="0" x2="0" y2="1" gradientTransform="matrix(55.992188,0,0,56,4.003906,4)"><stop offset="0" style="stop-color:rgb(87.058824%,86.666667%,56.470591%);stop-opacity:1;"/><stop offset="1" style="stop-color:rgb(67.843139%,67.450982%,38.039216%);stop-opacity:1;"/></linearGradient><filter style="color-interpolation-filters:sRGB;" inkscape:label="Diffuse Light" id="filter184" x="-0.0375" y="-0.0375" width="1.075" height="1.075"><feGaussianBlur in="SourceGraphic" stdDeviation="1" result="blur" id="feGaussianBlur174" /><feDiffuseLighting diffuseConstant="1" surfaceScale="10" lighting-color="rgb(255,255,255)" result="diffuse" id="feDiffuseLighting178"><feDistantLight elevation="8" azimuth="235" id="feDistantLight176" /></feDiffuseLighting><feComposite in="diffuse" in2="diffuse" operator="arithmetic" k1="1" result="composite1" id="feComposite180" /><feComposite in="composite1" in2="SourceGraphic" k1="1" operator="arithmetic" k3="1" result="composite2" id="feComposite182" /></filter></defs><g id="surface1" style="filter:url(#filter184)"><path style=" stroke:none;fill-rule:nonzero;fill:url(#linear0);" d="M 29.488281 59.78125 C 19.492188 54.425781 11.34375 43.550781 7.289062 30.160156 C 5.835938 25.359375 4.320312 17.292969 4.769531 16.757812 C 4.886719 16.617188 5.824219 16.226562 6.859375 15.886719 C 15.195312 13.152344 24.390625 8.855469 29.371094 5.371094 C 30.183594 4.800781 30.953125 4.335938 31.085938 4.335938 C 31.210938 4.335938 32.066406 4.757812 32.988281 5.269531 C 37.054688 7.542969 44.675781 10.835938 54.691406 14.648438 C 56.554688 15.355469 58.191406 16.042969 58.332031 16.179688 C 58.617188 16.453125 58.507812 17.484375 57.765625 21.585938 C 55 36.765625 47.691406 49.625 37.46875 57.300781 C 36.003906 58.398438 31.953125 60.800781 31.574219 60.796875 C 31.460938 60.796875 30.523438 60.335938 29.488281 59.78125 Z M 29.488281 59.78125 "/></g></svg>
