<svg width="64" height="64" viewBox="0 0 64 64" version="1.1" xmlns:inkscape="http://www.inkscape.org/namespaces/inkscape"><defs><linearGradient id="linear0" gradientUnits="userSpaceOnUse" x1="0" y1="0" x2="0" y2="1" gradientTransform="matrix(64,0,0,56.617188,0,3.691406)"><stop offset="0" style="stop-color:rgb(82.352942%,61.176473%,100%);stop-opacity:1;"/><stop offset="1" style="stop-color:rgb(66.666669%,0%,100%);stop-opacity:1;"/></linearGradient><filter style="color-interpolation-filters:sRGB;" inkscape:label="Diffuse Light" id="filter184" x="-0.0375" y="-0.0375" width="1.075" height="1.075"><feGaussianBlur in="SourceGraphic" stdDeviation="1" result="blur" id="feGaussianBlur174" /><feDiffuseLighting diffuseConstant="1" surfaceScale="10" lighting-color="rgb(255,255,255)" result="diffuse" id="feDiffuseLighting178"><feDistantLight elevation="8" azimuth="235" id="feDistantLight176" /></feDiffuseLighting><feComposite in="diffuse" in2="diffuse" operator="arithmetic" k1="1" result="composite1" id="feComposite180" /><feComposite in="composite1" in2="SourceGraphic" k1="1" operator="arithmetic" k3="1" result="composite2" id="feComposite182" /></filter></defs><g id="surface1" style="filter:url(#filter184)"><path style=" stroke:none;fill-rule:nonzero;fill:url(#linear0);" d="M 5.382812 3.691406 C 2.433594 3.691406 0 4.902344 0 8.847656 C 0 32.71875 2.671875 36.925781 20.15625 36.925781 C 7.597656 36.925781 5.691406 45.816406 6.921875 48.773438 C 9.382812 54.925781 14.738281 60.308594 18.925781 60.308594 C 20.507812 60.308594 28.84375 55.625 32 45.308594 C 35.152344 55.625 43.492188 60.308594 45.078125 60.308594 C 49.261719 60.308594 54.617188 54.921875 57.078125 48.769531 C 58.308594 45.816406 56.402344 36.925781 43.847656 36.925781 C 61.324219 36.925781 64 32.71875 64 8.847656 C 64 4.902344 61.566406 3.691406 58.617188 3.691406 C 52.289062 3.691406 36.4375 17.21875 32 30.382812 C 27.566406 17.21875 11.710938 3.691406 5.382812 3.691406 Z M 5.382812 3.691406 "/></g></svg>
