<svg width="64" height="64" viewBox="0 0 64 64" version="1.1" xmlns:inkscape="http://www.inkscape.org/namespaces/inkscape"><defs><linearGradient id="linear0" gradientUnits="userSpaceOnUse" x1="0" y1="0" x2="0" y2="1" gradientTransform="matrix(58.354026,0,0,38.822065,2.387886,13.290417)"><stop offset="0" style="stop-color:rgb(0%,96.078432%,86.274511%);stop-opacity:1;"/><stop offset="1" style="stop-color:rgb(0%,54.901963%,49.411765%);stop-opacity:1;"/></linearGradient><filter style="color-interpolation-filters:sRGB;" inkscape:label="Diffuse Light" id="filter184" x="-0.0375" y="-0.0375" width="1.075" height="1.075"><feGaussianBlur in="SourceGraphic" stdDeviation="1" result="blur" id="feGaussianBlur174" /><feDiffuseLighting diffuseConstant="1" surfaceScale="10" lighting-color="rgb(255,255,255)" result="diffuse" id="feDiffuseLighting178"><feDistantLight elevation="8" azimuth="235" id="feDistantLight176" /></feDiffuseLighting><feComposite in="diffuse" in2="diffuse" operator="arithmetic" k1="1" result="composite1" id="feComposite180" /><feComposite in="composite1" in2="SourceGraphic" k1="1" operator="arithmetic" k3="1" result="composite2" id="feComposite182" /></filter></defs><g id="surface1" style="filter:url(#filter184)"><path style=" stroke:none;fill-rule:nonzero;fill:url(#linear0);" d="M 16.605469 14.003906 C 14.132812 14.003906 11.449219 16.769531 7.324219 22.308594 C 4.464844 26.148438 1.132812 30.613281 1.132812 33.386719 C 1.132812 36.152344 4.128906 39.414062 7.324219 42.382812 C 10.515625 45.347656 13.71875 47.230469 16.402344 47.230469 C 19.082031 47.230469 20.941406 44.871094 25.375 38.917969 C 29.496094 33.386719 30.015625 30.613281 30.015625 29.230469 C 30.015625 26.460938 27.949219 23.003906 24.855469 19.542969 C 22.203125 16.574219 19.082031 14.003906 16.605469 14.003906 Z M 47.546875 14.003906 C 45.070312 14.003906 41.949219 16.574219 39.292969 19.542969 C 36.199219 23.003906 34.136719 26.460938 34.136719 29.230469 C 34.136719 30.613281 34.65625 33.386719 38.78125 38.917969 C 43.210938 44.871094 45.070312 47.230469 47.753906 47.230469 C 50.433594 47.230469 53.636719 45.347656 56.832031 42.382812 C 60.019531 39.414062 63.015625 36.152344 63.015625 33.386719 C 63.015625 30.613281 59.691406 26.148438 56.832031 22.308594 C 52.703125 16.769531 50.019531 14.003906 47.546875 14.003906 Z M 47.546875 14.003906 "/></g></svg>
