<svg width="64" height="64" viewBox="0 0 64 64" version="1.1" xmlns:inkscape="http://www.inkscape.org/namespaces/inkscape"><defs><linearGradient id="linear0" gradientUnits="userSpaceOnUse" x1="0" y1="0" x2="0" y2="1" gradientTransform="matrix(73.736073,0,0,68.844473,-4.218728,-2.764429)"><stop offset="0" style="stop-color:rgb(81.960785%,70.980394%,59.215689%);stop-opacity:1;"/><stop offset="1" style="stop-color:rgb(65.098041%,53.725493%,41.568628%);stop-opacity:1;"/></linearGradient><linearGradient id="linear1" gradientUnits="userSpaceOnUse" x1="0" y1="0" x2="0" y2="1" gradientTransform="matrix(73.736073,0,0,68.844473,-4.218728,-2.764429)"><stop offset="0" style="stop-color:rgb(81.960785%,70.980394%,59.215689%);stop-opacity:1;"/><stop offset="1" style="stop-color:rgb(65.098041%,53.725493%,41.568628%);stop-opacity:1;"/></linearGradient><filter style="color-interpolation-filters:sRGB;" inkscape:label="Diffuse Light" id="filter184" x="-0.0375" y="-0.0375" width="1.075" height="1.075"><feGaussianBlur in="SourceGraphic" stdDeviation="1" result="blur" id="feGaussianBlur174" /><feDiffuseLighting diffuseConstant="1" surfaceScale="10" lighting-color="rgb(255,255,255)" result="diffuse" id="feDiffuseLighting178"><feDistantLight elevation="8" azimuth="235" id="feDistantLight176" /></feDiffuseLighting><feComposite in="diffuse" in2="diffuse" operator="arithmetic" k1="1" result="composite1" id="feComposite180" /><feComposite in="composite1" in2="SourceGraphic" k1="1" operator="arithmetic" k3="1" result="composite2" id="feComposite182" /></filter></defs><g id="surface1" style="filter:url(#filter184)"><path style=" stroke:none;fill-rule:nonzero;fill:url(#linear0);" d="M 11.644531 1.757812 C 8.761719 1.757812 6.429688 3.914062 6.429688 6.605469 L 6.429688 57.128906 C 6.429688 59.816406 8.761719 61.984375 11.644531 61.984375 L 11.726562 61.984375 C 14.625 61.984375 16.945312 59.816406 16.945312 57.128906 L 16.945312 6.605469 C 16.945312 3.914062 14.625 1.757812 11.726562 1.757812 Z M 11.644531 1.757812 "/><path style=" stroke:none;fill-rule:nonzero;fill:url(#linear1);" d="M 53.726562 1.757812 C 50.828125 1.757812 48.492188 3.914062 48.492188 6.605469 L 48.492188 57.128906 C 48.492188 59.816406 50.828125 61.984375 53.726562 61.984375 L 53.808594 61.984375 C 56.691406 61.984375 59.019531 59.816406 59.019531 57.128906 L 59.019531 6.605469 C 59.019531 3.914062 56.691406 1.757812 53.808594 1.757812 Z M 53.726562 1.757812 "/></g></svg>
