<svg width="64" height="64" viewBox="0 0 64 64" version="1.1" xmlns:inkscape="http://www.inkscape.org/namespaces/inkscape"><defs><linearGradient id="linear0" gradientUnits="userSpaceOnUse" x1="0" y1="0" x2="0" y2="1" gradientTransform="matrix(47.40625,0,0,64,8.296875,0)"><stop offset="0" style="stop-color:rgb(100%,63.137257%,63.137257%);stop-opacity:1;"/><stop offset="1" style="stop-color:rgb(100%,27.843139%,27.843139%);stop-opacity:1;"/></linearGradient><filter style="color-interpolation-filters:sRGB;" inkscape:label="Diffuse Light" id="filter184" x="-0.0375" y="-0.0375" width="1.075" height="1.075"><feGaussianBlur in="SourceGraphic" stdDeviation="1" result="blur" id="feGaussianBlur174" /><feDiffuseLighting diffuseConstant="1" surfaceScale="10" lighting-color="rgb(255,255,255)" result="diffuse" id="feDiffuseLighting178"><feDistantLight elevation="8" azimuth="235" id="feDistantLight176" /></feDiffuseLighting><feComposite in="diffuse" in2="diffuse" operator="arithmetic" k1="1" result="composite1" id="feComposite180" /><feComposite in="composite1" in2="SourceGraphic" k1="1" operator="arithmetic" k3="1" result="composite2" id="feComposite182" /></filter></defs><g id="surface1" style="filter:url(#filter184)"><path style=" stroke:none;fill-rule:nonzero;fill:url(#linear0);" d="M 26.84375 0 C 15.90625 6.3125 12.160156 20.296875 18.476562 31.230469 C 20.011719 33.894531 22.011719 36.125 24.304688 37.890625 L 19.554688 56.886719 L 8.296875 56.886719 L 8.296875 64 L 55.703125 64 L 55.703125 56.886719 L 44.445312 56.886719 L 40.847656 42.511719 C 43.878906 42.167969 46.894531 41.222656 49.707031 39.601562 L 39.953125 22.707031 L 41.3125 20.644531 L 42.898438 18.242188 C 44.035156 19.105469 45.578125 19.199219 46.816406 18.488281 C 48.515625 17.503906 49.097656 15.328125 48.117188 13.628906 C 47.132812 11.929688 44.960938 11.347656 43.261719 12.328125 C 41.921875 13.105469 41.230469 14.65625 41.5625 16.167969 L 38.824219 16.332031 L 36.359375 16.480469 Z M 26.84375 0 "/></g></svg>
