<svg width="64" height="64" viewBox="0 0 64 64" version="1.1" xmlns:inkscape="http://www.inkscape.org/namespaces/inkscape"><defs><linearGradient id="linear0" gradientUnits="userSpaceOnUse" x1="0" y1="0" x2="0" y2="1" gradientTransform="matrix(70.960375,0,0,79.522401,-3.488112,-8.353407)"><stop offset="0" style="stop-color:rgb(100%,63.137257%,63.137257%);stop-opacity:1;"/><stop offset="1" style="stop-color:rgb(100%,27.843139%,27.843139%);stop-opacity:1;"/></linearGradient><filter style="color-interpolation-filters:sRGB;" inkscape:label="Diffuse Light" id="filter184" x="-0.0375" y="-0.0375" width="1.075" height="1.075"><feGaussianBlur in="SourceGraphic" stdDeviation="1" result="blur" id="feGaussianBlur174" /><feDiffuseLighting diffuseConstant="1" surfaceScale="10" lighting-color="rgb(255,255,255)" result="diffuse" id="feDiffuseLighting178"><feDistantLight elevation="8" azimuth="235" id="feDistantLight176" /></feDiffuseLighting><feComposite in="diffuse" in2="diffuse" operator="arithmetic" k1="1" result="composite1" id="feComposite180" /><feComposite in="composite1" in2="SourceGraphic" k1="1" operator="arithmetic" k3="1" result="composite2" id="feComposite182" /></filter></defs><g id="surface1" style="filter:url(#filter184)"><path style=" stroke:none;fill-rule:nonzero;fill:url(#linear0);" d="M 1.671875 0.832031 L 1.671875 62.476562 L 62.460938 62.476562 L 62.460938 0.832031 Z M 6.472656 10.566406 L 57.65625 10.566406 L 57.65625 57.613281 L 6.472656 57.613281 Z M 18.277344 13.175781 L 18.277344 21.804688 L 26.015625 21.804688 L 26.015625 13.175781 Z M 28.238281 13.175781 L 28.238281 21.804688 L 35.976562 21.804688 L 35.976562 13.175781 Z M 38.210938 13.175781 L 38.210938 21.804688 L 45.949219 21.804688 L 45.949219 13.175781 Z M 48.171875 13.175781 L 48.171875 21.804688 L 55.90625 21.804688 L 55.90625 13.175781 Z M 8.320312 24.289062 L 8.320312 32.921875 L 16.054688 32.921875 L 16.054688 24.289062 Z M 18.277344 24.289062 L 18.277344 32.921875 L 26.015625 32.921875 L 26.015625 24.289062 Z M 28.238281 24.289062 L 28.238281 32.921875 L 35.976562 32.921875 L 35.976562 24.289062 Z M 38.210938 24.289062 L 38.210938 32.921875 L 45.949219 32.921875 L 45.949219 24.289062 Z M 48.171875 24.289062 L 48.171875 32.921875 L 55.90625 32.921875 L 55.90625 24.289062 Z M 8.3125 35.417969 L 8.3125 44.054688 L 16.050781 44.054688 L 16.050781 35.417969 Z M 18.273438 35.417969 L 18.273438 44.054688 L 26.011719 44.054688 L 26.011719 35.417969 Z M 28.234375 35.417969 L 28.234375 44.054688 L 35.972656 44.054688 L 35.972656 35.417969 Z M 38.210938 35.417969 L 38.210938 44.054688 L 45.949219 44.054688 L 45.949219 35.417969 Z M 48.171875 35.417969 L 48.171875 44.054688 L 55.90625 44.054688 L 55.90625 35.417969 Z M 8.3125 46.535156 L 8.3125 55.164062 L 16.050781 55.164062 L 16.050781 46.535156 Z M 18.273438 46.535156 L 18.273438 55.164062 L 26.011719 55.164062 L 26.011719 46.535156 Z M 28.234375 46.535156 L 28.234375 55.164062 L 35.972656 55.164062 L 35.972656 46.535156 Z M 38.199219 46.535156 L 38.199219 55.164062 L 45.9375 55.164062 L 45.9375 46.535156 Z M 38.199219 46.535156 "/></g></svg>
