<svg width="64" height="64" viewBox="0 0 64 64" version="1.1" xmlns:inkscape="http://www.inkscape.org/namespaces/inkscape"><defs><linearGradient id="linear0" gradientUnits="userSpaceOnUse" x1="0" y1="0" x2="0" y2="1" gradientTransform="matrix(36.030472,0,0,61.341331,1.318322,1.295468)"><stop offset="0" style="stop-color:rgb(100%,56.862748%,82.745099%);stop-opacity:1;"/><stop offset="1" style="stop-color:rgb(100%,0%,60.000002%);stop-opacity:1;"/></linearGradient><linearGradient id="linear1" gradientUnits="userSpaceOnUse" x1="0" y1="0" x2="0" y2="1" gradientTransform="matrix(22.519045,0,0,46.005998,39.600698,10.058515)"><stop offset="0" style="stop-color:rgb(100%,56.862748%,82.745099%);stop-opacity:1;"/><stop offset="1" style="stop-color:rgb(100%,0%,60.000002%);stop-opacity:1;"/></linearGradient><linearGradient id="linear2" gradientUnits="userSpaceOnUse" x1="0" y1="0" x2="0" y2="1" gradientTransform="matrix(2.251904,0,0,23.272565,51.234072,29.775371)"><stop offset="0" style="stop-color:rgb(100%,56.862748%,82.745099%);stop-opacity:1;"/><stop offset="1" style="stop-color:rgb(100%,0%,60.000002%);stop-opacity:1;"/></linearGradient><filter style="color-interpolation-filters:sRGB;" inkscape:label="Diffuse Light" id="filter184" x="-0.0375" y="-0.0375" width="1.075" height="1.075"><feGaussianBlur in="SourceGraphic" stdDeviation="1" result="blur" id="feGaussianBlur174" /><feDiffuseLighting diffuseConstant="1" surfaceScale="10" lighting-color="rgb(255,255,255)" result="diffuse" id="feDiffuseLighting178"><feDistantLight elevation="8" azimuth="235" id="feDistantLight176" /></feDiffuseLighting><feComposite in="diffuse" in2="diffuse" operator="arithmetic" k1="1" result="composite1" id="feComposite180" /><feComposite in="composite1" in2="SourceGraphic" k1="1" operator="arithmetic" k3="1" result="composite2" id="feComposite182" /></filter></defs><g id="surface1" style="filter:url(#filter184)"><path style=" stroke:none;fill-rule:evenodd;fill:url(#linear0);" d="M 34.273438 1.296875 C 23.289062 3.195312 12.304688 5.71875 1.324219 7.589844 C 1.324219 23.835938 1.3125 40.101562 1.324219 56.359375 C 12.242188 58.214844 23.171875 60.699219 34.082031 62.636719 L 37.347656 62.636719 L 37.347656 1.296875 Z M 26.800781 20.953125 C 27.429688 20.953125 27.933594 21.140625 28.304688 21.527344 C 28.675781 21.90625 28.863281 22.414062 28.863281 23.054688 L 28.863281 42.34375 C 28.863281 42.980469 28.671875 43.492188 28.289062 43.886719 C 27.90625 44.28125 27.410156 44.480469 26.800781 44.480469 C 26.082031 44.480469 25.53125 44.226562 25.148438 43.71875 L 12.816406 28.113281 L 12.816406 42.34375 C 12.816406 42.980469 12.636719 43.492188 12.273438 43.886719 C 11.914062 44.28125 11.421875 44.480469 10.789062 44.480469 C 10.160156 44.480469 9.660156 44.28125 9.304688 43.886719 C 8.945312 43.492188 8.765625 42.980469 8.765625 42.34375 L 8.765625 23.054688 C 8.765625 22.414062 8.953125 21.90625 9.339844 21.527344 C 9.71875 21.140625 10.226562 20.953125 10.859375 20.953125 C 11.558594 20.953125 12.097656 21.199219 12.476562 21.707031 L 24.773438 37.25 L 24.773438 23.054688 C 24.773438 22.414062 24.957031 21.90625 25.332031 21.527344 C 25.707031 21.140625 26.195312 20.953125 26.800781 20.953125 Z M 26.800781 20.953125 "/><path style=" stroke:none;fill-rule:nonzero;fill:url(#linear1);" d="M 39.601562 10.058594 L 39.601562 14.441406 L 57.617188 14.441406 L 57.617188 27.59375 L 39.601562 27.59375 L 39.601562 29.773438 L 57.617188 29.773438 L 57.617188 40.179688 L 39.601562 40.179688 L 39.601562 42.371094 L 57.617188 42.371094 L 57.617188 51.683594 L 39.601562 51.683594 L 39.601562 56.066406 L 62.121094 56.066406 L 62.121094 10.058594 Z M 39.601562 10.058594 "/><path style=" stroke:none;fill-rule:nonzero;fill:url(#linear2);" d="M 51.234375 29.773438 L 53.484375 29.773438 L 53.484375 53.046875 L 51.234375 53.046875 Z M 51.234375 29.773438 "/></g></svg>
