<svg width="64" height="64" viewBox="0 0 64 64" version="1.1" xmlns:inkscape="http://www.inkscape.org/namespaces/inkscape"><defs><linearGradient id="linear0" gradientUnits="userSpaceOnUse" x1="0" y1="0" x2="0" y2="1" gradientTransform="matrix(56,0,0,35.898438,4,14.050781)"><stop offset="0" style="stop-color:rgb(0%,96.078432%,86.274511%);stop-opacity:1;"/><stop offset="1" style="stop-color:rgb(0%,54.901963%,49.411765%);stop-opacity:1;"/></linearGradient><filter style="color-interpolation-filters:sRGB;" inkscape:label="Diffuse Light" id="filter184" x="-0.0375" y="-0.0375" width="1.075" height="1.075"><feGaussianBlur in="SourceGraphic" stdDeviation="1" result="blur" id="feGaussianBlur174" /><feDiffuseLighting diffuseConstant="1" surfaceScale="10" lighting-color="rgb(255,255,255)" result="diffuse" id="feDiffuseLighting178"><feDistantLight elevation="8" azimuth="235" id="feDistantLight176" /></feDiffuseLighting><feComposite in="diffuse" in2="diffuse" operator="arithmetic" k1="1" result="composite1" id="feComposite180" /><feComposite in="composite1" in2="SourceGraphic" k1="1" operator="arithmetic" k3="1" result="composite2" id="feComposite182" /></filter></defs><g id="surface1" style="filter:url(#filter184)"><path style=" stroke:none;fill-rule:nonzero;fill:url(#linear0);" d="M 31.851562 4.351562 C 15.425781 4.351562 2.097656 16.902344 2.097656 32.359375 C 2.097656 47.820312 15.425781 60.367188 31.851562 60.367188 C 48.277344 60.367188 61.609375 47.820312 61.609375 32.359375 C 61.609375 30.984375 61.503906 29.617188 61.289062 28.253906 C 59.542969 38.148438 50.457031 45.414062 39.863281 45.429688 C 27.800781 45.429688 18.042969 36.246094 18.042969 24.890625 C 18.054688 14.847656 25.777344 6.292969 36.292969 4.726562 C 34.847656 4.523438 33.394531 4.425781 31.929688 4.425781 Z M 43.257812 11.820312 L 45.242188 17.421875 L 40.78125 21.15625 L 46.234375 21.15625 L 48.714844 26.757812 L 51.195312 21.15625 L 56.648438 21.15625 L 52.1875 17.421875 L 54.171875 11.820312 L 48.714844 15.554688 Z M 43.257812 11.820312 "/></g></svg>
