<svg width="64" height="64" viewBox="0 0 64 64" version="1.1" xmlns:inkscape="http://www.inkscape.org/namespaces/inkscape"><defs><linearGradient id="linear0" gradientUnits="userSpaceOnUse" x1="0" y1="0" x2="0" y2="1" gradientTransform="matrix(79.472092,0,0,72.275459,-7.700219,-4.730074)"><stop offset="0" style="stop-color:rgb(87.058824%,86.666667%,56.470591%);stop-opacity:1;"/><stop offset="1" style="stop-color:rgb(67.843139%,67.450982%,38.039216%);stop-opacity:1;"/></linearGradient><linearGradient id="linear1" gradientUnits="userSpaceOnUse" x1="0" y1="0" x2="0" y2="1" gradientTransform="matrix(79.472092,0,0,72.275459,-7.700219,-4.730074)"><stop offset="0" style="stop-color:rgb(87.058824%,86.666667%,56.470591%);stop-opacity:1;"/><stop offset="1" style="stop-color:rgb(67.843139%,67.450982%,38.039216%);stop-opacity:1;"/></linearGradient><linearGradient id="linear2" gradientUnits="userSpaceOnUse" x1="0" y1="0" x2="0" y2="1" gradientTransform="matrix(79.472092,0,0,72.275459,-7.700219,-4.730074)"><stop offset="0" style="stop-color:rgb(87.058824%,86.666667%,56.470591%);stop-opacity:1;"/><stop offset="1" style="stop-color:rgb(67.843139%,67.450982%,38.039216%);stop-opacity:1;"/></linearGradient><linearGradient id="linear3" gradientUnits="userSpaceOnUse" x1="0" y1="0" x2="0" y2="1" gradientTransform="matrix(79.472092,0,0,72.275459,-7.700219,-4.730074)"><stop offset="0" style="stop-color:rgb(87.058824%,86.666667%,56.470591%);stop-opacity:1;"/><stop offset="1" style="stop-color:rgb(67.843139%,67.450982%,38.039216%);stop-opacity:1;"/></linearGradient><linearGradient id="linear4" gradientUnits="userSpaceOnUse" x1="0" y1="0" x2="0" y2="1" gradientTransform="matrix(79.472092,0,0,72.275459,-7.700219,-4.730074)"><stop offset="0" style="stop-color:rgb(87.058824%,86.666667%,56.470591%);stop-opacity:1;"/><stop offset="1" style="stop-color:rgb(67.843139%,67.450982%,38.039216%);stop-opacity:1;"/></linearGradient><linearGradient id="linear5" gradientUnits="userSpaceOnUse" x1="0" y1="0" x2="0" y2="1" gradientTransform="matrix(79.472092,0,0,72.275459,-7.700219,-4.730074)"><stop offset="0" style="stop-color:rgb(87.058824%,86.666667%,56.470591%);stop-opacity:1;"/><stop offset="1" style="stop-color:rgb(67.843139%,67.450982%,38.039216%);stop-opacity:1;"/></linearGradient><linearGradient id="linear6" gradientUnits="userSpaceOnUse" x1="0" y1="0" x2="0" y2="1" gradientTransform="matrix(79.472092,0,0,72.275459,-7.700219,-4.730074)"><stop offset="0" style="stop-color:rgb(87.058824%,86.666667%,56.470591%);stop-opacity:1;"/><stop offset="1" style="stop-color:rgb(67.843139%,67.450982%,38.039216%);stop-opacity:1;"/></linearGradient><linearGradient id="linear7" gradientUnits="userSpaceOnUse" x1="0" y1="0" x2="0" y2="1" gradientTransform="matrix(79.472092,0,0,72.275459,-7.700219,-4.730074)"><stop offset="0" style="stop-color:rgb(87.058824%,86.666667%,56.470591%);stop-opacity:1;"/><stop offset="1" style="stop-color:rgb(67.843139%,67.450982%,38.039216%);stop-opacity:1;"/></linearGradient><linearGradient id="linear8" gradientUnits="userSpaceOnUse" x1="0" y1="0" x2="0" y2="1" gradientTransform="matrix(79.472092,0,0,72.275459,-7.700219,-4.730074)"><stop offset="0" style="stop-color:rgb(87.058824%,86.666667%,56.470591%);stop-opacity:1;"/><stop offset="1" style="stop-color:rgb(67.843139%,67.450982%,38.039216%);stop-opacity:1;"/></linearGradient><filter style="color-interpolation-filters:sRGB;" inkscape:label="Diffuse Light" id="filter184" x="-0.0375" y="-0.0375" width="1.075" height="1.075"><feGaussianBlur in="SourceGraphic" stdDeviation="1" result="blur" id="feGaussianBlur174" /><feDiffuseLighting diffuseConstant="1" surfaceScale="10" lighting-color="rgb(255,255,255)" result="diffuse" id="feDiffuseLighting178"><feDistantLight elevation="8" azimuth="235" id="feDistantLight176" /></feDiffuseLighting><feComposite in="diffuse" in2="diffuse" operator="arithmetic" k1="1" result="composite1" id="feComposite180" /><feComposite in="composite1" in2="SourceGraphic" k1="1" operator="arithmetic" k3="1" result="composite2" id="feComposite182" /></filter></defs><g id="surface1" style="filter:url(#filter184)"><path style=" stroke:none;fill-rule:nonzero;fill:url(#linear0);" d="M 15.6875 16.796875 L 4.734375 16.796875 C 3.234375 16.796875 2.003906 17.910156 2.003906 19.269531 L 2.003906 24.214844 C 2.003906 25.574219 3.234375 26.683594 4.734375 26.683594 L 15.6875 26.683594 C 17.195312 26.683594 18.429688 25.574219 18.429688 24.214844 L 18.429688 19.269531 C 18.429688 17.910156 17.195312 16.796875 15.6875 16.796875 "/><path style=" stroke:none;fill-rule:nonzero;fill:url(#linear1);" d="M 7.472656 1.960938 L 12.945312 1.960938 L 12.945312 14.328125 L 7.472656 14.328125 Z M 7.472656 1.960938 "/><path style=" stroke:none;fill-rule:nonzero;fill:url(#linear2);" d="M 7.472656 29.160156 L 12.945312 29.160156 L 12.945312 61.292969 L 7.472656 61.292969 Z M 7.472656 29.160156 "/><path style=" stroke:none;fill-rule:nonzero;fill:url(#linear3);" d="M 37.585938 36.574219 L 26.640625 36.574219 C 25.132812 36.574219 23.902344 37.6875 23.902344 39.046875 L 23.902344 43.984375 C 23.902344 45.351562 25.132812 46.460938 26.640625 46.460938 L 37.585938 46.460938 C 39.09375 46.460938 40.332031 45.351562 40.332031 43.984375 L 40.332031 39.046875 C 40.332031 37.6875 39.09375 36.574219 37.585938 36.574219 "/><path style=" stroke:none;fill-rule:nonzero;fill:url(#linear4);" d="M 29.375 1.960938 L 34.859375 1.960938 L 34.859375 34.105469 L 29.378906 34.105469 Z M 29.375 1.960938 "/><path style=" stroke:none;fill-rule:nonzero;fill:url(#linear5);" d="M 29.375 48.9375 L 34.859375 48.9375 L 34.859375 61.292969 L 29.378906 61.292969 Z M 29.375 48.9375 "/><path style=" stroke:none;fill-rule:nonzero;fill:url(#linear6);" d="M 59.492188 21.742188 L 48.535156 21.742188 C 47.03125 21.742188 45.800781 22.851562 45.800781 24.214844 L 45.800781 29.160156 C 45.800781 30.515625 47.027344 31.628906 48.535156 31.628906 L 59.492188 31.628906 C 60.992188 31.628906 62.21875 30.515625 62.21875 29.160156 L 62.21875 24.214844 C 62.21875 22.851562 60.992188 21.742188 59.492188 21.742188 "/><path style=" stroke:none;fill-rule:nonzero;fill:url(#linear7);" d="M 51.273438 1.960938 L 56.746094 1.960938 L 56.746094 19.269531 L 51.273438 19.269531 Z M 51.273438 1.960938 "/><path style=" stroke:none;fill-rule:nonzero;fill:url(#linear8);" d="M 51.273438 34.105469 L 56.746094 34.105469 L 56.746094 61.292969 L 51.273438 61.292969 Z M 51.273438 34.105469 "/></g></svg>
