<svg width="64" height="64" viewBox="0 0 64 64" version="1.1" xmlns:inkscape="http://www.inkscape.org/namespaces/inkscape"><defs><linearGradient id="linear0" gradientUnits="userSpaceOnUse" x1="0" y1="0" x2="0" y2="1" gradientTransform="matrix(84.058627,0,0,71.429832,-4.787012,-3.594741)"><stop offset="0" style="stop-color:rgb(61.176473%,69.803923%,85.09804%);stop-opacity:1;"/><stop offset="1" style="stop-color:rgb(44.313726%,52.156866%,65.882355%);stop-opacity:1;"/></linearGradient><linearGradient id="linear1" gradientUnits="userSpaceOnUse" x1="0" y1="0" x2="0" y2="1" gradientTransform="matrix(84.058627,0,0,71.429832,-4.787012,-3.594741)"><stop offset="0" style="stop-color:rgb(61.176473%,69.803923%,85.09804%);stop-opacity:1;"/><stop offset="1" style="stop-color:rgb(44.313726%,52.156866%,65.882355%);stop-opacity:1;"/></linearGradient><filter style="color-interpolation-filters:sRGB;" inkscape:label="Diffuse Light" id="filter184" x="-0.0375" y="-0.0375" width="1.075" height="1.075"><feGaussianBlur in="SourceGraphic" stdDeviation="1" result="blur" id="feGaussianBlur174" /><feDiffuseLighting diffuseConstant="1" surfaceScale="10" lighting-color="rgb(255,255,255)" result="diffuse" id="feDiffuseLighting178"><feDistantLight elevation="8" azimuth="235" id="feDistantLight176" /></feDiffuseLighting><feComposite in="diffuse" in2="diffuse" operator="arithmetic" k1="1" result="composite1" id="feComposite180" /><feComposite in="composite1" in2="SourceGraphic" k1="1" operator="arithmetic" k3="1" result="composite2" id="feComposite182" /></filter></defs><g id="surface1" style="filter:url(#filter184)"><path style=" stroke:none;fill-rule:nonzero;fill:url(#linear0);" d="M 59.542969 1.820312 C 46.359375 3.449219 33.097656 4.644531 19.9375 6.371094 C 17.914062 7.253906 17.964844 9.464844 18.1875 11.117188 C 18.105469 22.636719 18.171875 34.152344 18.152344 45.671875 C 11.640625 45.203125 4.527344 48.058594 1.960938 53.324219 C 0.34375 56.757812 2.71875 61.09375 6.929688 62.171875 C 12.148438 63.875 18.28125 62.335938 22.257812 59.175781 C 25.054688 56.84375 26.328125 53.449219 26.035156 50.167969 C 26.082031 41.632812 26.03125 33.105469 26.066406 24.582031 L 26.066406 19.6875 L 55.074219 16.023438 C 55.050781 23.765625 55.109375 31.511719 55.035156 39.261719 C 48.496094 38.808594 41.335938 41.695312 38.835938 47.023438 C 37.308594 50.441406 39.707031 54.710938 43.875 55.773438 C 49.207031 57.472656 55.410156 55.871094 59.375 52.597656 C 62.046875 50.285156 63.203125 46.976562 62.957031 43.792969 C 63.039062 36.101562 62.894531 28.402344 63 20.707031 C 63.003906 14.914062 63.097656 9.101562 62.75 3.304688 C 62.210938 2.289062 60.824219 1.742188 59.542969 1.820312 "/><path style=" stroke:none;fill-rule:nonzero;fill:url(#linear1);" d="M 59.542969 1.820312 C 46.359375 3.449219 33.097656 4.644531 19.9375 6.371094 C 17.914062 7.253906 17.964844 9.464844 18.1875 11.117188 C 18.105469 22.636719 18.171875 34.152344 18.152344 45.671875 C 11.640625 45.203125 4.527344 48.058594 1.960938 53.324219 C 0.34375 56.757812 2.71875 61.09375 6.929688 62.171875 C 12.148438 63.875 18.28125 62.335938 22.257812 59.175781 C 25.054688 56.84375 26.328125 53.449219 26.035156 50.167969 C 26.082031 41.632812 26.03125 33.105469 26.066406 24.582031 L 26.066406 19.6875 L 55.074219 16.023438 C 55.050781 23.765625 55.109375 31.511719 55.035156 39.261719 C 48.496094 38.808594 41.335938 41.695312 38.835938 47.023438 C 37.308594 50.441406 39.707031 54.710938 43.875 55.773438 C 49.207031 57.472656 55.410156 55.871094 59.375 52.597656 C 62.046875 50.285156 63.203125 46.976562 62.957031 43.792969 C 63.039062 36.101562 62.894531 28.402344 63 20.707031 C 63.003906 14.914062 63.097656 9.101562 62.75 3.304688 C 62.210938 2.289062 60.824219 1.742188 59.542969 1.820312 "/></g></svg>
