<svg width="64" height="64" viewBox="0 0 64 64" version="1.1" xmlns:inkscape="http://www.inkscape.org/namespaces/inkscape"><defs><linearGradient id="linear0" gradientUnits="userSpaceOnUse" x1="0" y1="0" x2="0" y2="1" gradientTransform="matrix(62.472293,0,0,65.14786,1.689165,-1.311165)"><stop offset="0" style="stop-color:rgb(87.058824%,86.666667%,56.470591%);stop-opacity:1;"/><stop offset="1" style="stop-color:rgb(67.843139%,67.450982%,38.039216%);stop-opacity:1;"/></linearGradient><filter style="color-interpolation-filters:sRGB;" inkscape:label="Diffuse Light" id="filter184" x="-0.0375" y="-0.0375" width="1.075" height="1.075"><feGaussianBlur in="SourceGraphic" stdDeviation="1" result="blur" id="feGaussianBlur174" /><feDiffuseLighting diffuseConstant="1" surfaceScale="10" lighting-color="rgb(255,255,255)" result="diffuse" id="feDiffuseLighting178"><feDistantLight elevation="8" azimuth="235" id="feDistantLight176" /></feDiffuseLighting><feComposite in="diffuse" in2="diffuse" operator="arithmetic" k1="1" result="composite1" id="feComposite180" /><feComposite in="composite1" in2="SourceGraphic" k1="1" operator="arithmetic" k3="1" result="composite2" id="feComposite182" /></filter></defs><g id="surface1" style="filter:url(#filter184)"><path style=" stroke:none;fill-rule:nonzero;fill:url(#linear0);" d="M 12.683594 3.160156 L 2.097656 14.152344 L 5.628906 17.820312 L 12.683594 10.492188 L 19.746094 17.820312 L 23.277344 14.152344 Z M 52.6875 3.160156 L 42.097656 14.152344 L 45.628906 17.820312 L 52.6875 10.492188 L 59.746094 17.820312 L 63.277344 14.152344 Z M 18.566406 22.703125 C 15.96875 22.703125 13.859375 24.890625 13.859375 27.589844 C 13.859375 30.285156 15.96875 32.476562 18.566406 32.476562 C 21.167969 32.476562 23.277344 30.285156 23.277344 27.589844 C 23.277344 24.890625 21.167969 22.703125 18.566406 22.703125 Z M 46.800781 22.703125 C 44.203125 22.703125 42.097656 24.890625 42.097656 27.589844 C 42.097656 30.285156 44.203125 32.476562 46.800781 32.476562 C 49.398438 32.476562 51.507812 30.285156 51.507812 27.589844 C 51.507812 24.890625 49.398438 22.703125 46.800781 22.703125 Z M 18.566406 37.367188 C 18.566406 37.367188 13.859375 42.246094 13.859375 49.578125 C 13.859375 56.90625 18.566406 61.796875 18.566406 61.796875 L 23.277344 61.796875 C 23.277344 61.796875 18.566406 56.90625 18.566406 49.578125 C 18.566406 42.246094 23.277344 37.367188 23.277344 37.367188 Z M 27.984375 37.367188 L 27.984375 42.246094 L 32.6875 42.246094 L 32.6875 54.464844 C 32.6875 55.816406 31.632812 56.90625 30.332031 56.90625 C 29.035156 56.90625 27.984375 55.816406 27.984375 54.464844 L 23.277344 54.464844 C 23.277344 58.511719 26.4375 61.796875 30.332031 61.796875 C 34.226562 61.796875 37.394531 58.511719 37.394531 54.464844 L 37.394531 42.246094 L 39.742188 42.246094 L 39.742188 37.367188 Z M 42.097656 37.367188 C 42.097656 37.367188 46.800781 42.246094 46.800781 49.578125 C 46.800781 56.90625 42.097656 61.796875 42.097656 61.796875 L 46.800781 61.796875 C 46.800781 61.796875 51.507812 56.90625 51.507812 49.578125 C 51.507812 42.246094 46.800781 37.367188 46.800781 37.367188 Z M 42.097656 37.367188 "/></g></svg>
