<svg xmlns="http://www.w3.org/2000/svg" xmlns:xlink="http://www.w3.org/1999/xlink" width="64" height="64" viewBox="0 0 64 64" version="1.1"><defs><filter id="alpha" filterUnits="objectBoundingBox" x="0%" y="0%" width="100%" height="100%"> <feColorMatrix type="matrix" in="SourceGraphic" values="0 0 0 0 1 0 0 0 0 1 0 0 0 0 1 0 0 0 1 0"/></filter><mask id="mask0"><rect x="0" y="0" width="64" height="64" style="fill:rgb(0%,0%,0%);fill-opacity:0.99;stroke:none;"/></mask><clipPath id="clip1"> <rect x="0" y="0" width="64" height="64"/></clipPath><path style=" stroke:none;fill-rule:nonzero;fill:rgb(81.568629%,52.941179%,43.921569%);fill-opacity:1;" d="M 62.9375 32.625 C 62.9375 49.757812 49.046875 63.648438 31.914062 63.648438 C 14.78125 63.648438 0.890625 49.757812 0.890625 32.625 C 0.890625 15.492188 14.78125 1.601562 31.914062 1.601562 C 49.046875 1.601562 62.9375 15.492188 62.9375 32.625 Z M 62.9375 32.625 "/><mask id="mask1"><rect x="0" y="0" width="64" height="64" style="fill:rgb(0%,0%,0%);fill-opacity:0.99;stroke:none;"/></mask><clipPath id="clip2"> <rect x="0" y="0" width="64" height="64"/></clipPath><path style=" stroke:none;fill-rule:nonzero;fill:rgb(100%,100%,100%);fill-opacity:1;" d="M 60.117188 32.625 C 60.117188 48.203125 47.492188 60.828125 31.914062 60.828125 C 16.335938 60.828125 3.710938 48.203125 3.710938 32.625 C 3.710938 17.046875 16.335938 4.421875 31.914062 4.421875 C 47.492188 4.421875 60.117188 17.046875 60.117188 32.625 Z M 60.117188 32.625 "/></defs><use xlink:href="#surface5" mask="url(#mask0)"/><use xlink:href="#surface8" mask="url(#mask1)"/><path style=" stroke:none;fill-rule:nonzero;fill:rgb(36.078432%,32.941177%,41.568628%);fill-opacity:1;" d="M 36.269531 37.242188 L 35.015625 37.980469 Z M 36.269531 37.242188 "/><path style=" stroke:none;fill-rule:nonzero;fill:rgb(55.686277%,64.313728%,74.901962%);fill-opacity:1;" d="M 19.265625 42.734375 C 19.1875 42.6875 19.101562 42.640625 19.011719 42.59375 C 18.292969 42.214844 17.328125 41.851562 16.394531 41.503906 C 15.5625 41.195312 14.773438 40.902344 14.261719 40.628906 C 13.898438 40.441406 13.800781 40.324219 13.773438 40.277344 C 13.550781 39.640625 14.765625 38.871094 15.285156 38.539062 C 15.417969 38.457031 15.523438 38.390625 15.589844 38.339844 C 16.53125 37.613281 17.390625 36.765625 17.292969 35.480469 C 17.214844 34.410156 16.371094 33.152344 15.160156 32.273438 C 14.8125 32.007812 14.390625 31.746094 13.832031 31.449219 C 13.371094 31.207031 12.871094 30.96875 12.382812 30.738281 C 11.882812 30.503906 11.367188 30.257812 10.882812 30.003906 C 9.21875 29.125 8.410156 28.339844 8.179688 27.375 C 7.773438 25.542969 10.261719 23.957031 12.082031 23.710938 C 12.195312 23.699219 12.25 23.605469 12.214844 23.503906 C 12.175781 23.402344 12.054688 23.324219 11.9375 23.324219 C 9.757812 23.339844 7.761719 24.40625 7.078125 25.910156 C 6.714844 26.714844 6.546875 28.011719 7.816406 29.617188 C 8.503906 30.480469 9.902344 31.328125 11.257812 32.144531 C 12.585938 32.945312 13.964844 33.777344 14.191406 34.40625 C 14.253906 34.570312 14.230469 34.71875 14.121094 34.863281 C 13.640625 35.535156 12.792969 36 11.972656 36.445312 C 10.417969 37.292969 8.8125 38.167969 9.570312 40.476562 C 10.238281 42.507812 12.039062 43.460938 13.898438 44.425781 C 14.046875 44.507812 14.203125 44.585938 14.351562 44.664062 C 15.160156 45.089844 16.085938 45.601562 16.816406 46.269531 C 17.328125 46.757812 17.441406 47.277344 17.207031 48.0625 C 17.085938 48.554688 17.167969 49.039062 17.378906 49.480469 C 17.53125 49.304688 17.753906 49.175781 18.023438 49.113281 C 19.351562 48.796875 19.566406 47.957031 19.890625 46.242188 C 20.042969 45.445312 20.210938 44.5625 20.585938 43.703125 C 20.167969 43.328125 19.734375 43.007812 19.265625 42.734375 Z M 19.265625 42.734375 "/><path style=" stroke:none;fill-rule:nonzero;fill:rgb(69.01961%,68.627453%,68.627453%);fill-opacity:1;" d="M 33.882812 34.371094 L 38 39.597656 L 31.1875 44.964844 L 27.070312 39.738281 Z M 33.882812 34.371094 "/><path style=" stroke:none;fill-rule:nonzero;fill:rgb(35.686275%,39.607844%,44.313726%);fill-opacity:1;" d="M 26.808594 39.257812 L 26.925781 39.261719 L 27.152344 39.277344 L 27.261719 39.289062 L 27.367188 39.300781 L 27.46875 39.3125 L 27.574219 39.328125 L 27.632812 39.339844 L 27.652344 39.339844 L 27.675781 39.34375 L 27.714844 39.351562 L 27.738281 39.355469 L 27.816406 39.371094 L 27.839844 39.375 L 27.859375 39.382812 L 27.878906 39.386719 L 27.898438 39.386719 L 27.921875 39.394531 L 28 39.410156 L 28.019531 39.417969 L 28.042969 39.421875 L 28.082031 39.429688 L 28.101562 39.4375 L 28.160156 39.449219 L 28.183594 39.457031 L 28.203125 39.460938 L 28.222656 39.46875 L 28.261719 39.476562 L 28.28125 39.484375 L 28.300781 39.488281 L 28.320312 39.496094 L 28.339844 39.5 L 28.359375 39.507812 L 28.378906 39.511719 L 32.058594 43.695312 L 32.0625 43.722656 L 32.0625 43.804688 L 32.066406 43.832031 L 32.066406 43.941406 L 32.0625 43.96875 L 32.0625 44.082031 L 32.058594 44.109375 L 32.058594 44.136719 L 32.054688 44.164062 L 32.054688 44.191406 L 32.050781 44.21875 L 32.050781 44.246094 L 32.042969 44.300781 L 32.039062 44.332031 L 32.039062 44.359375 L 32.023438 44.46875 L 32.015625 44.496094 L 32.011719 44.523438 L 32.007812 44.554688 L 32 44.609375 L 31.992188 44.636719 L 31.984375 44.691406 L 31.96875 44.746094 L 31.964844 44.777344 L 31.957031 44.804688 L 31.929688 44.910156 L 31.898438 45.015625 L 31.867188 45.125 L 31.832031 45.230469 L 31.792969 45.335938 L 31.707031 45.546875 L 31.660156 45.652344 L 31.609375 45.753906 L 31.554688 45.859375 L 31.5 45.960938 L 31.441406 46.066406 L 31.378906 46.167969 L 31.3125 46.273438 L 31.246094 46.375 L 31.105469 46.578125 L 31.027344 46.679688 L 30.949219 46.777344 L 30.871094 46.878906 L 30.785156 46.980469 L 30.699219 47.078125 L 30.609375 47.175781 L 30.519531 47.277344 L 30.324219 47.472656 L 30.226562 47.566406 L 30.125 47.664062 L 30.019531 47.757812 L 29.910156 47.851562 L 29.796875 47.945312 L 29.6875 48.039062 L 29.453125 48.226562 L 29.332031 48.316406 L 29.082031 48.496094 L 28.953125 48.585938 L 28.6875 48.765625 L 28.390625 48.953125 L 28.089844 49.128906 L 27.789062 49.292969 L 27.484375 49.449219 L 27.179688 49.59375 L 26.875 49.730469 L 26.566406 49.855469 L 26.261719 49.972656 L 25.953125 50.078125 L 25.644531 50.175781 L 25.335938 50.265625 L 25.03125 50.34375 L 24.722656 50.414062 L 24.417969 50.476562 L 24.113281 50.53125 L 23.8125 50.574219 L 23.511719 50.613281 L 23.210938 50.640625 L 22.914062 50.664062 L 22.617188 50.675781 L 22.328125 50.679688 L 22.039062 50.679688 L 21.75 50.671875 L 21.46875 50.65625 L 21.1875 50.636719 L 20.914062 50.605469 L 20.640625 50.570312 L 20.375 50.53125 L 20.113281 50.484375 L 19.855469 50.429688 L 19.601562 50.371094 L 19.351562 50.308594 L 19.109375 50.238281 L 18.875 50.164062 L 18.644531 50.085938 L 18.421875 50 L 18.203125 49.910156 L 17.992188 49.816406 L 17.789062 49.71875 L 17.59375 49.617188 L 17.589844 49.613281 L 17.585938 49.613281 L 17.578125 49.605469 L 17.570312 49.605469 L 17.570312 49.601562 L 17.566406 49.597656 L 17.5625 49.597656 L 17.554688 49.59375 L 17.550781 49.589844 L 17.542969 49.585938 L 17.539062 49.582031 L 17.53125 49.578125 L 17.527344 49.574219 L 17.519531 49.570312 L 17.519531 49.566406 L 17.515625 49.566406 L 17.503906 49.554688 L 17.5 49.554688 L 17.484375 49.539062 L 17.484375 49.535156 L 17.480469 49.535156 L 17.4375 49.492188 L 17.429688 49.476562 L 17.421875 49.472656 L 17.417969 49.464844 L 17.414062 49.460938 L 17.40625 49.445312 L 17.402344 49.441406 L 17.398438 49.433594 L 17.394531 49.429688 L 17.390625 49.421875 L 17.386719 49.417969 L 17.378906 49.402344 L 17.378906 49.394531 L 17.371094 49.390625 L 17.371094 49.382812 L 17.367188 49.375 L 17.363281 49.371094 L 17.363281 49.363281 L 17.355469 49.347656 L 17.355469 49.34375 L 17.351562 49.335938 L 17.351562 49.328125 L 17.347656 49.320312 L 17.347656 49.316406 L 17.34375 49.308594 L 17.34375 49.292969 L 17.339844 49.285156 L 17.339844 49.28125 L 17.335938 49.273438 L 17.335938 49.171875 L 17.34375 49.148438 L 17.34375 49.140625 L 17.351562 49.117188 L 17.355469 49.109375 L 17.355469 49.097656 L 17.359375 49.089844 L 17.367188 49.078125 L 17.371094 49.070312 L 17.375 49.058594 L 17.378906 49.050781 L 17.386719 49.042969 L 17.390625 49.03125 L 17.398438 49.023438 L 17.402344 49.015625 L 17.425781 48.992188 L 17.433594 48.980469 L 17.441406 48.976562 L 17.472656 48.945312 L 17.480469 48.941406 L 17.492188 48.933594 L 17.5 48.925781 L 17.511719 48.921875 L 17.519531 48.914062 L 17.542969 48.90625 L 17.550781 48.898438 L 17.5625 48.894531 L 17.671875 48.847656 L 17.777344 48.796875 L 17.878906 48.746094 L 17.972656 48.695312 L 18.0625 48.636719 L 18.148438 48.582031 L 18.230469 48.523438 L 18.308594 48.460938 L 18.382812 48.398438 L 18.453125 48.335938 L 18.519531 48.265625 L 18.582031 48.199219 L 18.640625 48.128906 L 18.699219 48.054688 L 18.800781 47.90625 L 18.847656 47.828125 L 18.890625 47.75 L 18.96875 47.585938 L 19.003906 47.503906 L 19.039062 47.417969 L 19.070312 47.332031 L 19.101562 47.242188 L 19.128906 47.152344 L 19.152344 47.058594 L 19.175781 46.96875 L 19.199219 46.871094 L 19.21875 46.777344 L 19.238281 46.679688 L 19.257812 46.578125 L 19.277344 46.480469 L 19.292969 46.378906 L 19.339844 46.0625 L 19.351562 45.957031 L 19.367188 45.847656 L 19.378906 45.738281 L 19.394531 45.628906 L 19.457031 45.160156 L 19.472656 45.039062 L 19.492188 44.917969 L 19.511719 44.800781 L 19.550781 44.558594 L 19.597656 44.316406 L 19.652344 44.074219 L 19.714844 43.832031 L 19.75 43.707031 L 19.828125 43.464844 L 19.871094 43.347656 L 19.917969 43.226562 L 19.96875 43.105469 L 20.023438 42.984375 L 20.078125 42.867188 L 20.140625 42.746094 L 20.203125 42.628906 L 20.273438 42.511719 L 20.34375 42.390625 L 20.421875 42.277344 L 20.5 42.160156 L 20.585938 42.046875 L 20.773438 41.820312 L 20.875 41.707031 L 20.980469 41.597656 L 21.09375 41.488281 L 21.210938 41.378906 L 21.332031 41.269531 L 21.460938 41.167969 L 21.59375 41.0625 L 21.738281 40.957031 L 21.917969 40.832031 L 22.097656 40.710938 L 22.273438 40.597656 L 22.453125 40.488281 L 22.628906 40.386719 L 22.800781 40.285156 L 22.972656 40.195312 L 23.144531 40.109375 L 23.316406 40.027344 L 23.484375 39.949219 L 23.648438 39.875 L 23.8125 39.808594 L 23.976562 39.746094 L 24.136719 39.683594 L 24.296875 39.632812 L 24.453125 39.582031 L 24.609375 39.535156 L 24.761719 39.492188 L 25.066406 39.421875 L 25.210938 39.390625 L 25.359375 39.363281 L 25.5 39.335938 L 25.640625 39.316406 L 25.78125 39.300781 L 25.917969 39.285156 L 26.050781 39.273438 L 26.183594 39.265625 L 26.3125 39.257812 L 26.441406 39.253906 L 26.6875 39.253906 Z M 25.714844 40.6875 L 25.304688 40.746094 L 24.929688 40.828125 L 24.582031 40.929688 L 24.265625 41.046875 L 23.984375 41.175781 L 23.726562 41.308594 L 23.5 41.445312 L 23.304688 41.585938 L 23.132812 41.71875 L 22.988281 41.84375 L 22.871094 41.957031 L 22.78125 42.054688 L 22.714844 42.132812 L 22.667969 42.1875 L 22.648438 42.214844 L 22.609375 42.28125 L 22.578125 42.347656 L 22.550781 42.417969 L 22.535156 42.492188 L 22.527344 42.5625 L 22.527344 42.636719 L 22.535156 42.714844 L 22.550781 42.789062 L 22.570312 42.859375 L 22.601562 42.933594 L 22.636719 43.003906 L 22.679688 43.074219 L 22.726562 43.140625 L 22.785156 43.203125 L 22.847656 43.261719 L 22.917969 43.316406 L 22.992188 43.367188 L 23.007812 43.375 L 23.027344 43.386719 L 23.042969 43.398438 L 23.058594 43.40625 L 23.078125 43.414062 L 23.09375 43.421875 L 23.113281 43.429688 L 23.128906 43.4375 L 23.148438 43.445312 L 23.164062 43.453125 L 23.183594 43.460938 L 23.203125 43.464844 L 23.21875 43.472656 L 23.238281 43.480469 L 23.257812 43.484375 L 23.277344 43.492188 L 23.292969 43.496094 L 23.296875 43.496094 L 23.304688 43.5 L 23.316406 43.5 L 23.320312 43.503906 L 23.328125 43.503906 L 23.332031 43.507812 L 23.347656 43.507812 L 23.355469 43.511719 L 23.371094 43.511719 L 23.375 43.515625 L 23.386719 43.515625 L 23.511719 43.53125 L 23.632812 43.53125 L 23.695312 43.523438 L 23.75 43.515625 L 23.808594 43.503906 L 23.863281 43.488281 L 23.917969 43.46875 L 24.019531 43.421875 L 24.066406 43.390625 L 24.152344 43.328125 L 24.191406 43.289062 L 24.226562 43.25 L 24.261719 43.207031 L 24.273438 43.191406 L 24.300781 43.160156 L 24.339844 43.113281 L 24.398438 43.058594 L 24.472656 42.992188 L 24.5625 42.917969 L 24.671875 42.839844 L 24.796875 42.757812 L 24.9375 42.675781 L 25.101562 42.597656 L 25.28125 42.523438 L 25.484375 42.457031 L 25.703125 42.398438 L 25.945312 42.351562 L 26.210938 42.316406 L 26.492188 42.296875 L 26.84375 42.296875 L 26.886719 42.292969 L 26.929688 42.292969 L 26.972656 42.285156 L 27.011719 42.28125 L 27.050781 42.269531 L 27.089844 42.261719 L 27.132812 42.25 L 27.167969 42.238281 L 27.207031 42.222656 L 27.242188 42.203125 L 27.273438 42.1875 L 27.308594 42.167969 L 27.402344 42.097656 L 27.429688 42.074219 L 27.484375 42.019531 L 27.53125 41.957031 L 27.550781 41.925781 L 27.582031 41.863281 L 27.613281 41.792969 L 27.636719 41.6875 L 27.640625 41.652344 L 27.648438 41.613281 L 27.648438 41.539062 L 27.644531 41.5 L 27.632812 41.429688 L 27.617188 41.359375 L 27.59375 41.292969 L 27.5625 41.222656 L 27.527344 41.160156 L 27.488281 41.101562 L 27.445312 41.042969 L 27.34375 40.933594 L 27.285156 40.886719 L 27.222656 40.839844 L 27.15625 40.800781 L 27.085938 40.761719 L 27.015625 40.730469 L 26.941406 40.703125 L 26.785156 40.664062 L 26.765625 40.664062 L 26.757812 40.660156 L 26.75 40.660156 L 26.742188 40.65625 L 26.703125 40.65625 L 26.695312 40.652344 L 26.640625 40.652344 L 26.632812 40.648438 L 26.15625 40.652344 Z M 25.714844 40.6875 "/><path style=" stroke:none;fill-rule:nonzero;fill:rgb(81.568629%,52.941179%,43.921569%);fill-opacity:1;" d="M 54.171875 19.546875 C 53.523438 19.988281 38.25 30.394531 36.164062 32.042969 C 35.121094 32.867188 33.738281 34.324219 32.535156 35.679688 C 32.933594 36.171875 36.097656 40.089844 36.492188 40.578125 C 38.101562 39.714844 39.855469 38.699219 40.914062 37.863281 C 43.023438 36.195312 56.621094 23.78125 57.199219 23.253906 C 58.121094 22.414062 58.214844 21.007812 57.417969 20.03125 C 56.625 19.054688 55.207031 18.84375 54.171875 19.546875 Z M 54.171875 19.546875 "/></svg>
