<svg width="64" height="64" viewBox="0 0 64 64" version="1.1" xmlns:inkscape="http://www.inkscape.org/namespaces/inkscape"><defs><linearGradient id="linear0" gradientUnits="userSpaceOnUse" x1="0" y1="0" x2="0" y2="1" gradientTransform="matrix(64.94441,0,0,48.811712,-1.674327,5.60428)"><stop offset="0" style="stop-color:rgb(0%,96.078432%,86.274511%);stop-opacity:1;"/><stop offset="1" style="stop-color:rgb(0%,54.901963%,49.411765%);stop-opacity:1;"/></linearGradient><linearGradient id="linear1" gradientUnits="userSpaceOnUse" x1="0" y1="0" x2="0" y2="1" gradientTransform="matrix(64.94441,0,0,48.811712,-1.674327,5.60428)"><stop offset="0" style="stop-color:rgb(0%,96.078432%,86.274511%);stop-opacity:1;"/><stop offset="1" style="stop-color:rgb(0%,54.901963%,49.411765%);stop-opacity:1;"/></linearGradient><filter style="color-interpolation-filters:sRGB;" inkscape:label="Diffuse Light" id="filter184" x="-0.0375" y="-0.0375" width="1.075" height="1.075"><feGaussianBlur in="SourceGraphic" stdDeviation="1" result="blur" id="feGaussianBlur174" /><feDiffuseLighting diffuseConstant="1" surfaceScale="10" lighting-color="rgb(255,255,255)" result="diffuse" id="feDiffuseLighting178"><feDistantLight elevation="8" azimuth="235" id="feDistantLight176" /></feDiffuseLighting><feComposite in="diffuse" in2="diffuse" operator="arithmetic" k1="1" result="composite1" id="feComposite180" /><feComposite in="composite1" in2="SourceGraphic" k1="1" operator="arithmetic" k3="1" result="composite2" id="feComposite182" /></filter></defs><g id="surface1" style="filter:url(#filter184)"><path style=" stroke:none;fill-rule:nonzero;fill:url(#linear0);" d="M 27.410156 17.800781 L 59.570312 17.800781 C 61.34375 17.800781 62.785156 20.1875 62.785156 23.136719 L 62.785156 44.496094 C 62.785156 47.4375 61.34375 49.828125 59.570312 49.828125 L 27.410156 49.828125 C 25.632812 49.828125 24.191406 47.4375 24.191406 44.496094 L 24.191406 23.136719 C 24.191406 20.1875 25.632812 17.800781 27.410156 17.800781 "/><path style=" stroke:none;fill-rule:nonzero;fill:url(#linear1);" d="M 1.851562 19.742188 L 1.851562 25.363281 L 23.5 25.363281 L 23.5 19.742188 Z M 1.851562 31.003906 L 1.851562 36.621094 L 23.5 36.621094 L 23.5 31.003906 Z M 1.851562 42.269531 L 1.851562 47.898438 L 23.5 47.898438 L 23.5 42.269531 Z M 1.851562 42.269531 "/></g></svg>
