<svg width="64" height="64" viewBox="0 0 64 64" version="1.1" xmlns:inkscape="http://www.inkscape.org/namespaces/inkscape"><defs><linearGradient id="linear0" gradientUnits="userSpaceOnUse" x1="0" y1="0" x2="0" y2="1" gradientTransform="matrix(58.850846,0,0,38.14675,2.901122,12.75494)"><stop offset="0" style="stop-color:rgb(81.960785%,70.980394%,59.215689%);stop-opacity:1;"/><stop offset="1" style="stop-color:rgb(65.098041%,53.725493%,41.568628%);stop-opacity:1;"/></linearGradient><filter style="color-interpolation-filters:sRGB;" inkscape:label="Diffuse Light" id="filter184" x="-0.0375" y="-0.0375" width="1.075" height="1.075"><feGaussianBlur in="SourceGraphic" stdDeviation="1" result="blur" id="feGaussianBlur174" /><feDiffuseLighting diffuseConstant="1" surfaceScale="10" lighting-color="rgb(255,255,255)" result="diffuse" id="feDiffuseLighting178"><feDistantLight elevation="8" azimuth="235" id="feDistantLight176" /></feDiffuseLighting><feComposite in="diffuse" in2="diffuse" operator="arithmetic" k1="1" result="composite1" id="feComposite180" /><feComposite in="composite1" in2="SourceGraphic" k1="1" operator="arithmetic" k3="1" result="composite2" id="feComposite182" /></filter></defs><g id="surface1" style="filter:url(#filter184)"><path style=" stroke:none;fill-rule:nonzero;fill:url(#linear0);" d="M 48.816406 3.785156 C 47.6875 3.816406 46.542969 4.28125 45.605469 5.3125 L 32.324219 19.859375 L 19.035156 5.335938 C 17.675781 3.847656 15.636719 3.402344 13.855469 4.207031 C 12.074219 5.019531 10.925781 6.917969 10.925781 9 L 10.925781 40.238281 C 5.675781 40.238281 1.417969 44.898438 1.417969 50.652344 C 1.417969 56.40625 5.675781 61.066406 10.925781 61.066406 C 16.179688 61.066406 20.433594 56.40625 20.433594 50.652344 L 20.433594 21.496094 L 28.96875 30.839844 C 30.824219 32.875 33.839844 32.875 35.695312 30.839844 L 44.230469 21.496094 L 44.230469 50.652344 C 44.230469 56.40625 48.484375 61.066406 53.738281 61.066406 C 58.988281 61.066406 63.246094 56.40625 63.246094 50.652344 C 63.246094 44.898438 58.988281 40.238281 53.738281 40.238281 L 53.738281 9 C 53.734375 5.824219 51.3125 3.714844 48.839844 3.792969 Z M 48.816406 3.785156 "/></g></svg>
