<svg width="64" height="64" viewBox="0 0 64 64" version="1.1" xmlns:inkscape="http://www.inkscape.org/namespaces/inkscape"><defs><linearGradient id="linear0" gradientUnits="userSpaceOnUse" x1="0" y1="0" x2="0" y2="1" gradientTransform="matrix(69.522139,0,0,45.341212,-5.10754,15.256046)"><stop offset="0" style="stop-color:rgb(0%,96.078432%,86.274511%);stop-opacity:1;"/><stop offset="1" style="stop-color:rgb(0%,54.901963%,49.411765%);stop-opacity:1;"/></linearGradient><linearGradient id="linear1" gradientUnits="userSpaceOnUse" x1="0" y1="0" x2="0" y2="1" gradientTransform="matrix(69.522139,0,0,45.341212,-5.10754,15.256046)"><stop offset="0" style="stop-color:rgb(0%,96.078432%,86.274511%);stop-opacity:1;"/><stop offset="1" style="stop-color:rgb(0%,54.901963%,49.411765%);stop-opacity:1;"/></linearGradient><filter style="color-interpolation-filters:sRGB;" inkscape:label="Diffuse Light" id="filter184" x="-0.0375" y="-0.0375" width="1.075" height="1.075"><feGaussianBlur in="SourceGraphic" stdDeviation="1" result="blur" id="feGaussianBlur174" /><feDiffuseLighting diffuseConstant="1" surfaceScale="10" lighting-color="rgb(255,255,255)" result="diffuse" id="feDiffuseLighting178"><feDistantLight elevation="8" azimuth="235" id="feDistantLight176" /></feDiffuseLighting><feComposite in="diffuse" in2="diffuse" operator="arithmetic" k1="1" result="composite1" id="feComposite180" /><feComposite in="composite1" in2="SourceGraphic" k1="1" operator="arithmetic" k3="1" result="composite2" id="feComposite182" /></filter></defs><g id="surface1" style="filter:url(#filter184)"><path style=" stroke:none;fill-rule:nonzero;fill:url(#linear0);" d="M 58.714844 9.46875 C 61.164062 9.46875 63.132812 11.496094 63.132812 14.019531 L 63.132812 41.320312 C 63.132812 43.84375 61.164062 45.875 58.714844 45.875 L 52.082031 45.875 C 50.859375 45.875 49.871094 46.890625 49.871094 48.148438 L 49.871094 54.972656 C 49.871094 56.230469 48.882812 57.253906 47.660156 57.253906 C 47.046875 57.253906 46.519531 56.972656 46.097656 56.582031 L 34.394531 45.875 L 18.921875 45.875 C 16.472656 45.875 14.5 43.84375 14.5 41.320312 L 14.5 14.019531 C 14.5 11.496094 16.472656 9.46875 18.921875 9.46875 Z M 58.714844 9.46875 "/><path style=" stroke:none;fill-rule:nonzero;fill:url(#linear1);" d="M 4.960938 9.753906 C 2.652344 9.753906 0.792969 11.535156 0.792969 13.75 L 0.792969 37.703125 C 0.792969 39.917969 2.652344 41.699219 4.960938 41.699219 L 11.210938 41.699219 C 12.359375 41.699219 13.296875 42.59375 13.296875 43.695312 L 13.296875 49.683594 C 13.296875 50.789062 14.226562 51.683594 15.382812 51.683594 C 15.953125 51.683594 16.453125 51.433594 16.851562 51.09375 L 27.882812 41.699219 L 42.464844 41.699219 C 44.773438 41.699219 46.636719 39.917969 46.636719 37.703125 L 46.636719 13.75 C 46.636719 11.535156 44.773438 9.753906 42.464844 9.753906 Z M 4.960938 9.753906 "/></g></svg>
