<svg width="64" height="64" viewBox="0 0 64 64" version="1.1" xmlns:inkscape="http://www.inkscape.org/namespaces/inkscape"><defs><linearGradient id="linear0" gradientUnits="userSpaceOnUse" x1="0" y1="0" x2="0" y2="1" gradientTransform="matrix(56,0,0,35.898438,4,14.050781)"><stop offset="0" style="stop-color:rgb(92.941177%,83.529413%,72.549021%);stop-opacity:1;"/><stop offset="1" style="stop-color:rgb(81.960785%,71.372551%,59.215689%);stop-opacity:1;"/></linearGradient><filter style="color-interpolation-filters:sRGB;" inkscape:label="Diffuse Light" id="filter184" x="-0.0375" y="-0.0375" width="1.075" height="1.075"><feGaussianBlur in="SourceGraphic" stdDeviation="1" result="blur" id="feGaussianBlur174" /><feDiffuseLighting diffuseConstant="1" surfaceScale="10" lighting-color="rgb(255,255,255)" result="diffuse" id="feDiffuseLighting178"><feDistantLight elevation="8" azimuth="235" id="feDistantLight176" /></feDiffuseLighting><feComposite in="diffuse" in2="diffuse" operator="arithmetic" k1="1" result="composite1" id="feComposite180" /><feComposite in="composite1" in2="SourceGraphic" k1="1" operator="arithmetic" k3="1" result="composite2" id="feComposite182" /></filter></defs><g id="surface1" style="filter:url(#filter184)"><path style=" stroke:none;fill-rule:nonzero;fill:url(#linear0);" d="M 2.65625 5.355469 L 2.65625 59.195312 L 18.691406 59.195312 L 18.691406 39.96875 L 13.347656 39.96875 L 13.347656 5.355469 Z M 18.691406 5.355469 L 18.691406 32.277344 L 24.035156 32.277344 L 24.035156 5.355469 Z M 29.382812 5.355469 L 29.382812 39.96875 L 24.035156 39.96875 L 24.035156 59.195312 L 40.074219 59.195312 L 40.074219 39.96875 L 34.726562 39.96875 L 34.726562 5.355469 Z M 40.074219 5.355469 L 40.074219 32.277344 L 45.417969 32.277344 L 45.417969 5.355469 Z M 50.761719 5.355469 L 50.761719 39.96875 L 45.417969 39.96875 L 45.417969 59.195312 L 61.453125 59.195312 L 61.453125 5.355469 Z M 50.761719 5.355469 "/></g></svg>
