<svg width="64" height="64" viewBox="0 0 64 64" version="1.1" xmlns:inkscape="http://www.inkscape.org/namespaces/inkscape"><defs><linearGradient id="linear0" gradientUnits="userSpaceOnUse" x1="0" y1="0" x2="0" y2="1" gradientTransform="matrix(56,0,0,35.898438,4,14.050781)"><stop offset="0" style="stop-color:rgb(0%,78.823531%,36.862746%);stop-opacity:1;"/><stop offset="1" style="stop-color:rgb(0%,54.11765%,25.098041%);stop-opacity:1;"/></linearGradient><filter style="color-interpolation-filters:sRGB;" inkscape:label="Diffuse Light" id="filter184" x="-0.0375" y="-0.0375" width="1.075" height="1.075"><feGaussianBlur in="SourceGraphic" stdDeviation="1" result="blur" id="feGaussianBlur174" /><feDiffuseLighting diffuseConstant="1" surfaceScale="10" lighting-color="rgb(255,255,255)" result="diffuse" id="feDiffuseLighting178"><feDistantLight elevation="8" azimuth="235" id="feDistantLight176" /></feDiffuseLighting><feComposite in="diffuse" in2="diffuse" operator="arithmetic" k1="1" result="composite1" id="feComposite180" /><feComposite in="composite1" in2="SourceGraphic" k1="1" operator="arithmetic" k3="1" result="composite2" id="feComposite182" /></filter></defs><g id="surface1" style="filter:url(#filter184)"><path style=" stroke:none;fill-rule:nonzero;fill:url(#linear0);" d="M 5.582031 5.976562 L 5.582031 22.097656 L 17.710938 14.039062 Z M 40.625 5.976562 L 40.625 22.097656 L 46.019531 22.097656 L 46.019531 5.976562 Z M 51.410156 5.976562 L 51.410156 22.097656 L 56.800781 22.097656 L 56.800781 5.976562 Z M 10.972656 43.589844 C 6.507812 43.589844 2.886719 47.199219 2.886719 51.652344 C 2.886719 56.101562 6.507812 59.710938 10.972656 59.710938 C 15.4375 59.710938 19.058594 56.101562 19.058594 51.652344 C 19.058594 47.199219 15.4375 43.589844 10.972656 43.589844 Z M 43.320312 43.589844 C 41.828125 43.589844 40.625 44.789062 40.625 46.277344 L 40.625 57.023438 C 40.625 58.511719 41.828125 59.710938 43.320312 59.710938 L 46.019531 59.710938 L 44.667969 58.367188 L 46.019531 57.023438 L 43.320312 57.023438 L 43.320312 46.277344 L 54.105469 46.277344 L 54.105469 57.023438 L 51.410156 57.023438 L 51.410156 54.335938 L 47.367188 58.367188 L 51.410156 62.398438 L 51.410156 59.710938 L 54.105469 59.710938 C 55.597656 59.710938 56.800781 58.511719 56.800781 57.023438 L 56.800781 46.277344 C 56.800781 44.789062 55.597656 43.589844 54.105469 43.589844 Z M 43.320312 43.589844 "/></g></svg>
