<svg width="64" height="64" viewBox="0 0 64 64" version="1.1" xmlns:inkscape="http://www.inkscape.org/namespaces/inkscape"><defs><linearGradient id="linear0" gradientUnits="userSpaceOnUse" x1="0" y1="0" x2="0" y2="1" gradientTransform="matrix(55.992188,0,0,56,4.487884,4)"><stop offset="0" style="stop-color:rgb(92.941177%,83.529413%,72.549021%);stop-opacity:1;"/><stop offset="1" style="stop-color:rgb(81.960785%,71.372551%,59.215689%);stop-opacity:1;"/></linearGradient><linearGradient id="linear1" gradientUnits="userSpaceOnUse" x1="0" y1="0" x2="0" y2="1" gradientTransform="matrix(55.992188,0,0,56,4.487884,4)"><stop offset="0" style="stop-color:rgb(92.941177%,83.529413%,72.549021%);stop-opacity:1;"/><stop offset="1" style="stop-color:rgb(81.960785%,71.372551%,59.215689%);stop-opacity:1;"/></linearGradient><linearGradient id="linear2" gradientUnits="userSpaceOnUse" x1="0" y1="0" x2="0" y2="1" gradientTransform="matrix(55.992188,0,0,56,4.487884,4)"><stop offset="0" style="stop-color:rgb(92.941177%,83.529413%,72.549021%);stop-opacity:1;"/><stop offset="1" style="stop-color:rgb(81.960785%,71.372551%,59.215689%);stop-opacity:1;"/></linearGradient><filter style="color-interpolation-filters:sRGB;" inkscape:label="Diffuse Light" id="filter184" x="-0.0375" y="-0.0375" width="1.075" height="1.075"><feGaussianBlur in="SourceGraphic" stdDeviation="1" result="blur" id="feGaussianBlur174" /><feDiffuseLighting diffuseConstant="1" surfaceScale="10" lighting-color="rgb(255,255,255)" result="diffuse" id="feDiffuseLighting178"><feDistantLight elevation="8" azimuth="235" id="feDistantLight176" /></feDiffuseLighting><feComposite in="diffuse" in2="diffuse" operator="arithmetic" k1="1" result="composite1" id="feComposite180" /><feComposite in="composite1" in2="SourceGraphic" k1="1" operator="arithmetic" k3="1" result="composite2" id="feComposite182" /></filter></defs><g id="surface1" style="filter:url(#filter184)"><path style=" stroke:none;fill-rule:nonzero;fill:url(#linear0);" d="M 9.910156 22.835938 C 5.03125 22.835938 1.074219 26.777344 1.074219 31.640625 C 1.074219 36.5 5.03125 40.441406 9.910156 40.441406 C 14.789062 40.441406 18.746094 36.5 18.746094 31.640625 C 18.746094 26.777344 14.789062 22.835938 9.910156 22.835938 Z M 9.910156 27.234375 C 12.355469 27.234375 14.328125 29.199219 14.328125 31.640625 C 14.328125 34.078125 12.355469 36.042969 9.910156 36.042969 C 7.460938 36.042969 5.492188 34.078125 5.492188 31.640625 C 5.492188 29.199219 7.460938 27.234375 9.910156 27.234375 Z M 9.910156 27.234375 "/><path style=" stroke:none;fill-rule:nonzero;fill:url(#linear1);" d="M 54.097656 22.835938 C 49.214844 22.835938 45.253906 26.777344 45.253906 31.640625 C 45.253906 36.5 49.214844 40.441406 54.097656 40.441406 C 58.976562 40.441406 62.933594 36.5 62.933594 31.640625 C 62.933594 26.777344 58.976562 22.835938 54.097656 22.835938 Z M 54.097656 27.234375 C 56.535156 27.234375 58.515625 29.210938 58.515625 31.640625 C 58.515625 34.066406 56.535156 36.042969 54.097656 36.042969 C 51.65625 36.042969 49.675781 34.066406 49.675781 31.640625 C 49.675781 29.210938 51.65625 27.234375 54.097656 27.234375 Z M 54.097656 27.234375 "/><path style=" stroke:none;fill-rule:nonzero;fill:url(#linear2);" d="M 32 18.4375 C 24.679688 18.4375 18.746094 24.351562 18.746094 31.640625 C 18.746094 38.929688 24.679688 44.839844 32 44.839844 C 39.320312 44.839844 45.253906 38.929688 45.253906 31.640625 C 45.253906 24.351562 39.320312 18.4375 32 18.4375 Z M 32 22.84375 C 36.886719 22.84375 40.835938 26.777344 40.835938 31.640625 C 40.835938 36.5 36.886719 40.441406 32 40.441406 C 27.121094 40.441406 23.164062 36.5 23.164062 31.640625 C 23.164062 26.777344 27.121094 22.84375 32 22.84375 Z M 32 22.84375 "/></g></svg>
