<?xml version="1.0" encoding="UTF-8" standalone="no"?><svg width="64" height="64" viewBox="0 0 64 64" version="1.1" id="svg205" sodipodi:docname="nino.svg" inkscape:version="1.2.2 (b0a8486541, 2022-12-01)" xmlns:inkscape="http://www.inkscape.org/namespaces/inkscape" xmlns:sodipodi="http://sodipodi.sourceforge.net/DTD/sodipodi-0.dtd" xmlns:xlink="http://www.w3.org/1999/xlink" xmlns="http://www.w3.org/2000/svg" xmlns:svg="http://www.w3.org/2000/svg"> <sodipodi:namedview id="namedview207" pagecolor="#ffffff" bordercolor="#000000" borderopacity="0.25" inkscape:showpageshadow="2" inkscape:pageopacity="0.0" inkscape:pagecheckerboard="0" inkscape:deskcolor="#d1d1d1" showgrid="false" inkscape:zoom="3.6875" inkscape:cx="32" inkscape:cy="32.135593" inkscape:window-width="1432" inkscape:window-height="844" inkscape:window-x="0" inkscape:window-y="0" inkscape:window-maximized="1" inkscape:current-layer="svg205" /> <defs id="defs198"> <filter id="alpha" filterUnits="objectBoundingBox" x="0" y="0" width="1" height="1"> <feColorMatrix type="matrix" in="SourceGraphic" values="0 0 0 0 1 0 0 0 0 1 0 0 0 0 1 0 0 0 1 0" id="feColorMatrix174" /> </filter> <mask id="mask0"> <g filter="url(#alpha)" id="g179"> <rect x="0" y="0" width="64" height="64" style="fill:rgb(0%,0%,0%);fill-opacity:0.6;stroke:none;" id="rect177" /> </g> </mask> <linearGradient id="linear0" gradientUnits="userSpaceOnUse" x1="0" y1="0" x2="0" y2="1" gradientTransform="matrix(64,0,0,59.300781,0,2.261719)"> <stop offset="0" style="stop-color:#00f5dc;stop-opacity:1;" id="stop182" /> <stop offset="1" style="stop-color:#008c7e;stop-opacity:1;" id="stop184" /> </linearGradient> <clipPath id="clip1"> <rect x="0" y="0" width="64" height="64" id="rect187" /> </clipPath> <g id="surface5" clip-path="url(#clip1)"> <path style=" stroke:none;fill-rule:evenodd;fill:url(#linear0);" d="M 15.214844 61.519531 C 15.359375 61.53125 15.484375 61.546875 15.628906 61.554688 C 15.738281 61.558594 15.894531 61.554688 16.011719 61.5625 L 16 59.589844 L 22.933594 53.214844 L 22.933594 51.09375 L 26.132812 47.90625 L 26.132812 46.316406 L 27.730469 44.722656 L 27.730469 40.476562 L 25.601562 38.351562 L 21.332031 38.351562 L 19.199219 36.230469 L 13.867188 36.230469 L 11.730469 38.351562 L 11.730469 43.664062 L 16.015625 47.394531 L 16 52.15625 L 14.398438 53.746094 L 14.398438 60.648438 Z M 24.53125 20.308594 L 22.933594 21.898438 L 24.53125 21.898438 L 25.066406 22.429688 L 25.601562 22.429688 L 26.132812 21.898438 Z M 44.800781 27.734375 L 38.398438 27.734375 L 34.667969 31.453125 L 34.667969 36.761719 L 37.332031 39.414062 L 41.066406 39.414062 L 42.667969 41.007812 L 42.667969 42.601562 L 43.730469 43.664062 L 43.730469 50.03125 L 47.785156 54.292969 L 54.472656 47.636719 L 54.398438 41.539062 L 59.730469 36.230469 L 57.601562 36.230469 L 52.269531 30.925781 L 52.269531 28.800781 L 45.867188 28.800781 Z M 64 29.859375 L 64 24.273438 C 64 21.863281 63.957031 19.710938 63.84375 17.792969 C 63.789062 16.835938 63.710938 15.933594 63.617188 15.085938 C 63.519531 14.238281 63.402344 13.449219 63.265625 12.703125 C 63.125 11.964844 62.960938 11.273438 62.769531 10.628906 C 62.570312 9.988281 62.351562 9.390625 62.105469 8.839844 C 61.945312 8.488281 61.746094 8.1875 61.558594 7.871094 L 60.800781 8.628906 L 57.601562 8.628906 L 54.398438 11.8125 L 52.269531 9.6875 L 45.867188 9.6875 L 42.667969 12.875 L 42.667969 15.527344 L 45.867188 15.527344 L 45.867188 13.9375 L 48 13.9375 L 48 16.058594 L 46.933594 17.121094 L 42.667969 17.191406 L 41.066406 18.710938 L 38.933594 18.710938 L 38.933594 20.835938 L 37.332031 22.429688 L 37.332031 25.613281 L 40.53125 25.613281 L 42.667969 23.492188 L 44.800781 23.492188 L 44.800781 24.550781 L 46.933594 26.675781 L 48 26.675781 L 48 25.613281 L 45.867188 23.492188 L 48 23.492188 L 50.132812 25.613281 L 52.800781 25.613281 L 51.199219 24.019531 L 52.800781 22.429688 L 54.398438 22.429688 L 56 24.019531 L 54.398438 24.019531 L 52.800781 25.613281 L 54.371094 27.175781 L 54.398438 28.800781 L 52.269531 28.800781 L 58.667969 35.167969 L 59.730469 35.167969 L 60.800781 34.109375 L 62.933594 31.984375 L 60.800781 29.859375 Z M 39.46875 17.652344 L 39.46875 16.058594 L 41.066406 14.46875 L 41.066406 17.652344 Z M 56 48.972656 L 56 45.644531 L 58.132812 43.664062 L 58.132812 48.972656 Z M 34.132812 2.261719 L 22.140625 2.261719 C 21.9375 2.261719 21.792969 2.273438 21.589844 2.273438 L 19.730469 4.378906 L 22.933594 7.566406 L 22.933594 10.894531 L 26.667969 14.996094 L 28.800781 14.996094 L 28.800781 12.875 L 32 9.6875 L 32 7.566406 L 34.132812 5.445312 Z M 31.46875 13.9375 L 33.066406 13.9375 L 34.667969 15.527344 L 31.46875 15.527344 Z M 17.066406 31.453125 L 15.46875 31.453125 L 13.867188 33.046875 L 17.066406 33.046875 Z M 2.839844 7.207031 C 2.8125 7.246094 2.777344 7.277344 2.746094 7.316406 C 2.433594 7.785156 2.148438 8.289062 1.894531 8.839844 C 1.648438 9.390625 1.429688 9.988281 1.230469 10.628906 C 1.039062 11.273438 0.875 11.964844 0.734375 12.703125 C 0.597656 13.449219 0.480469 14.238281 0.382812 15.085938 C 0.289062 15.933594 0.210938 16.835938 0.15625 17.792969 C 0.0429688 19.710938 0 21.863281 0 24.273438 L 0 29.859375 L 2.132812 31.984375 L 5.332031 31.984375 L 10.667969 37.292969 L 10.667969 30.925781 L 13.867188 27.734375 L 16 27.734375 L 19.199219 24.550781 L 22.398438 24.550781 L 20.800781 22.960938 L 24 19.242188 L 20.800781 16.058594 L 16 16.058594 L 16 20.308594 L 13.867188 20.308594 L 11.730469 18.183594 L 11.730469 16.058594 L 14.933594 12.875 L 17.601562 12.875 L 17.601562 10.753906 L 14.398438 7.566406 L 9.066406 7.566406 L 9.066406 10.753906 L 6.398438 10.753906 Z M 16 2.402344 C 15.886719 2.410156 15.738281 2.40625 15.628906 2.410156 C 14.664062 2.472656 13.757812 2.542969 12.902344 2.640625 C 12.050781 2.730469 11.257812 2.847656 10.507812 2.988281 C 9.84375 3.113281 9.230469 3.265625 8.644531 3.433594 L 10.667969 5.445312 L 16 5.445312 Z M 16 2.402344 " id="path190" /> </g> <linearGradient id="linear1" gradientUnits="userSpaceOnUse" x1="0" y1="0" x2="0" y2="1" gradientTransform="matrix(36.402344,0,0,37.75,13.800781,13.628906)"> <stop offset="0" style="stop-color:#00f5dc;stop-opacity:1;" id="stop193" /> <stop offset="1" style="stop-color:#008c7e;stop-opacity:1;" id="stop195" /> </linearGradient> <filter style="color-interpolation-filters:sRGB;" inkscape:label="Diffuse Light" id="filter1506" x="-0.0375" y="-0.040471642" width="1.075" height="1.0809433"> <feGaussianBlur in="SourceGraphic" stdDeviation="1" result="blur" id="feGaussianBlur1496" /> <feDiffuseLighting diffuseConstant="1" surfaceScale="10" lighting-color="rgb(255,255,255)" result="diffuse" id="feDiffuseLighting1500"> <feDistantLight elevation="8" azimuth="235" id="feDistantLight1498" /> </feDiffuseLighting> <feComposite in="diffuse" in2="diffuse" operator="arithmetic" k1="1" result="composite1" id="feComposite1502" /> <feComposite in="composite1" in2="SourceGraphic" k1="1" operator="arithmetic" k3="1" result="composite2" id="feComposite1504" /> </filter> </defs> <g id="surface1" transform="matrix(0.97334729,0,0,1.0548186,1.2363281,-1.299658)" style="filter:url(#filter1506)"> <use xlink:href="#surface5" mask="url(#mask0)" id="use200" /> <path style="fill:url(#linear1);fill-rule:evenodd;stroke:none" d="m 35.371094,28.460938 v 12.902343 c 0,1.066407 0.859375,1.929688 1.925781,1.929688 h 6.933594 c 1.066406,0 1.925781,-0.863281 1.925781,-1.929688 V 28.460938 h 2.117188 c 0.6875,0 1.328124,-0.324219 1.671874,-0.847657 0.34375,-0.527343 0.34375,-1.175781 0,-1.703125 l -3.757812,-5.714844 -3.75,-5.71875 c -0.34375,-0.523437 -0.984375,-0.847656 -1.671875,-0.847656 -0.695313,0 -1.328125,0.324219 -1.671875,0.847656 l -3.757812,5.71875 -3.75,5.714844 c -0.160157,0.246094 -0.25,0.523438 -0.257813,0.800782 -0.01563,0.460937 0.179687,0.90625 0.542969,1.234374 0.363281,0.332032 0.863281,0.515626 1.386718,0.515626 z M 17.84375,36.550781 v -12.90625 c 0,-1.066406 0.859375,-1.925781 1.925781,-1.925781 h 6.933594 c 1.0625,0 1.925781,0.859375 1.925781,1.925781 v 12.90625 h 2.113282 c 0.691406,0 1.328124,0.320313 1.671874,0.847657 0.347657,0.527343 0.347657,1.171874 0,1.699218 l -3.753906,5.71875 -3.753906,5.714844 c -0.34375,0.523438 -0.980469,0.847656 -1.671875,0.847656 -0.691406,0 -1.328125,-0.324218 -1.671875,-0.847656 l -3.753906,-5.714844 -3.753906,-5.71875 c -0.160157,-0.242187 -0.246094,-0.519531 -0.253907,-0.796875 -0.01563,-0.460937 0.179688,-0.90625 0.542969,-1.238281 0.363281,-0.328125 0.863281,-0.515625 1.382812,-0.511719 z m 0,0" id="path202" /> </g></svg>
