<svg width="64" height="64" viewBox="0 0 64 64" version="1.1" xmlns:inkscape="http://www.inkscape.org/namespaces/inkscape"><defs><linearGradient id="linear0" gradientUnits="userSpaceOnUse" x1="0" y1="0" x2="0" y2="1" gradientTransform="matrix(64.285232,0,0,60.138186,0.920643,2.127625)"><stop offset="0" style="stop-color:rgb(100%,56.862748%,82.745099%);stop-opacity:1;"/><stop offset="1" style="stop-color:rgb(100%,0%,60.000002%);stop-opacity:1;"/></linearGradient><filter style="color-interpolation-filters:sRGB;" inkscape:label="Diffuse Light" id="filter184" x="-0.0375" y="-0.0375" width="1.075" height="1.075"><feGaussianBlur in="SourceGraphic" stdDeviation="1" result="blur" id="feGaussianBlur174" /><feDiffuseLighting diffuseConstant="1" surfaceScale="10" lighting-color="rgb(255,255,255)" result="diffuse" id="feDiffuseLighting178"><feDistantLight elevation="8" azimuth="235" id="feDistantLight176" /></feDiffuseLighting><feComposite in="diffuse" in2="diffuse" operator="arithmetic" k1="1" result="composite1" id="feComposite180" /><feComposite in="composite1" in2="SourceGraphic" k1="1" operator="arithmetic" k3="1" result="composite2" id="feComposite182" /></filter></defs><g id="surface1" style="filter:url(#filter184)"><path style=" stroke:none;fill-rule:evenodd;fill:url(#linear0);" d="M 29.097656 38.980469 C 29.328125 38.296875 28.855469 37.617188 28.050781 37.617188 L 14.296875 37.617188 C 13.488281 37.617188 13.3125 37.003906 13.828125 36.449219 L 43.207031 1.441406 C 43.726562 0.886719 43.910156 0.980469 43.625 1.652344 L 37.171875 26.109375 C 36.875 26.777344 37.300781 27.183594 38.109375 27.183594 L 51.890625 27.183594 C 52.703125 27.183594 52.960938 27.785156 52.464844 28.355469 L 23.023438 63.351562 C 22.523438 63.921875 22.304688 63.816406 22.539062 63.128906 Z M 29.097656 38.980469 "/></g></svg>
