<svg width="64" height="64" viewBox="0 0 64 64" version="1.1" xmlns:inkscape="http://www.inkscape.org/namespaces/inkscape"><defs><linearGradient id="linear0" gradientUnits="userSpaceOnUse" x1="0" y1="0" x2="0" y2="1" gradientTransform="matrix(61.430758,0,0,39.603266,1.786236,10.916087)"><stop offset="0" style="stop-color:rgb(100%,56.862748%,82.745099%);stop-opacity:1;"/><stop offset="1" style="stop-color:rgb(100%,0%,60.000002%);stop-opacity:1;"/></linearGradient><linearGradient id="linear1" gradientUnits="userSpaceOnUse" x1="0" y1="0" x2="0" y2="1" gradientTransform="matrix(61.430758,0,0,39.603266,1.786236,10.916087)"><stop offset="0" style="stop-color:rgb(100%,56.862748%,82.745099%);stop-opacity:1;"/><stop offset="1" style="stop-color:rgb(100%,0%,60.000002%);stop-opacity:1;"/></linearGradient><filter style="color-interpolation-filters:sRGB;" inkscape:label="Diffuse Light" id="filter184" x="-0.0375" y="-0.0375" width="1.075" height="1.075"><feGaussianBlur in="SourceGraphic" stdDeviation="1" result="blur" id="feGaussianBlur174" /><feDiffuseLighting diffuseConstant="1" surfaceScale="10" lighting-color="rgb(255,255,255)" result="diffuse" id="feDiffuseLighting178"><feDistantLight elevation="8" azimuth="235" id="feDistantLight176" /></feDiffuseLighting><feComposite in="diffuse" in2="diffuse" operator="arithmetic" k1="1" result="composite1" id="feComposite180" /><feComposite in="composite1" in2="SourceGraphic" k1="1" operator="arithmetic" k3="1" result="composite2" id="feComposite182" /></filter></defs><g id="surface1" style="filter:url(#filter184)"><path style=" stroke:none;fill-rule:nonzero;fill:url(#linear0);" d="M 13.679688 1.191406 L 10.777344 11.503906 L 2.058594 14.941406 L 10.777344 18.378906 L 13.679688 28.691406 L 16.585938 18.378906 L 25.308594 14.941406 L 16.585938 11.503906 Z M 45.648438 8.0625 L 42.742188 18.378906 L 34.027344 21.816406 L 42.742188 25.253906 L 45.648438 35.566406 L 48.558594 25.253906 L 57.273438 21.816406 L 48.558594 18.378906 Z M 16.585938 35.566406 L 14.402344 43.300781 L 7.867188 45.886719 L 14.402344 48.464844 L 16.585938 56.199219 L 18.773438 48.464844 L 25.3125 45.886719 L 18.773438 43.300781 Z M 16.585938 35.566406 "/><path style=" stroke:none;fill-rule:nonzero;fill:url(#linear1);" d="M 30.050781 28.847656 C 29.007812 28.847656 28.015625 29.230469 27.28125 29.90625 C 25.753906 31.324219 25.753906 33.636719 27.28125 35.039062 L 56.015625 61.652344 C 57.542969 63.0625 60.039062 63.0625 61.550781 61.652344 C 63.078125 60.234375 63.078125 57.921875 61.550781 56.519531 L 32.820312 29.90625 C 32.085938 29.230469 31.085938 28.847656 30.050781 28.847656 Z M 30.050781 28.847656 "/></g></svg>
