<?xml version="1.0" encoding="UTF-8" standalone="no"?><svg width="64" height="64" viewBox="0 0 64 64" version="1.1" id="svg27" sodipodi:docname="nostian.svg" inkscape:version="1.2.2 (b0a8486541, 2022-12-01)" xmlns:inkscape="http://www.inkscape.org/namespaces/inkscape" xmlns:sodipodi="http://sodipodi.sourceforge.net/DTD/sodipodi-0.dtd" xmlns:xlink="http://www.w3.org/1999/xlink" xmlns="http://www.w3.org/2000/svg" xmlns:svg="http://www.w3.org/2000/svg"> <sodipodi:namedview id="namedview29" pagecolor="#ffffff" bordercolor="#000000" borderopacity="0.25" inkscape:showpageshadow="2" inkscape:pageopacity="0.0" inkscape:pagecheckerboard="0" inkscape:deskcolor="#d1d1d1" showgrid="false" inkscape:zoom="3.6875" inkscape:cx="32" inkscape:cy="32.135593" inkscape:window-width="1432" inkscape:window-height="844" inkscape:window-x="0" inkscape:window-y="0" inkscape:window-maximized="1" inkscape:current-layer="svg27" /> <defs id="defs19"> <filter id="alpha" filterUnits="objectBoundingBox" x="0%" y="0%" width="100%" height="100%"> <feColorMatrix type="matrix" in="SourceGraphic" values="0 0 0 0 1 0 0 0 0 1 0 0 0 0 1 0 0 0 1 0" id="feColorMatrix2" /> </filter> <mask id="mask0"> <rect x="0" y="0" width="64" height="64" style="fill:rgb(0%,0%,0%);fill-opacity:0.99;stroke:none;" id="rect5" /> </mask> <clipPath id="clip1"> <rect x="0" y="0" width="64" height="64" id="rect8" /> </clipPath> <mask id="mask1"> <rect x="0" y="0" width="64" height="64" style="fill:rgb(0%,0%,0%);fill-opacity:0.99;stroke:none;" id="rect11" /> </mask> <clipPath id="clip2"> <rect x="0" y="0" width="64" height="64" id="rect14" /> </clipPath> <path style=" stroke:none;fill-rule:nonzero;fill:rgb(100%,100%,100%);fill-opacity:0.176471;" d="M 58.6875 32 C 58.6875 46.882812 46.621094 58.949219 31.738281 58.949219 C 16.855469 58.949219 4.789062 46.882812 4.789062 32 C 4.789062 17.117188 16.855469 5.050781 31.738281 5.050781 C 46.621094 5.050781 58.6875 17.117188 58.6875 32 Z M 58.6875 32 " id="path17" /> <filter style="color-interpolation-filters:sRGB;" inkscape:label="Diffuse Light" id="filter199" x="-0.03994816" y="-0.039501966" width="1.0798963" height="1.0790039"> <feGaussianBlur in="SourceGraphic" stdDeviation="1" result="blur" id="feGaussianBlur189" /> <feDiffuseLighting diffuseConstant="1" surfaceScale="10" lighting-color="rgb(255,255,255)" result="diffuse" id="feDiffuseLighting193"> <feDistantLight elevation="8" azimuth="235" id="feDistantLight191" /> </feDiffuseLighting> <feComposite in="diffuse" in2="diffuse" operator="arithmetic" k1="1" result="composite1" id="feComposite195" /> <feComposite in="composite1" in2="SourceGraphic" k1="1" operator="arithmetic" k3="1" result="composite2" id="feComposite197" /> </filter> </defs> <use xlink:href="#surface5" mask="url(#mask0)" id="use21" /> <use xlink:href="#surface8" mask="url(#mask1)" id="use23" /> <path style="fill:#1e90ff;fill-opacity:1;fill-rule:nonzero;stroke:none;stroke-width:1.41032;filter:url(#filter199)" d="m 39.514276,1.4280739 c -15.772932,0 -37.0485387,11.0227431 -37.0485387,30.3110971 0,9.647067 11.2626307,15.161329 11.2626307,15.161329 0,0 -7.5084205,-7.44483 -7.5084205,-15.161329 0,-11.571858 17.5213965,-20.66403 28.0384355,-20.66403 5.255893,0 15.767681,1.520179 15.767681,-4.4102537 0,-3.8553592 -6.594807,-5.2368134 -10.511788,-5.2368134 z M 56.284832,17.965078 c 0,0 2.504555,4.132806 2.504555,15.704662 0,11.577637 -19.311865,22.080167 -29.79215,18.103424 -7.266891,-2.75135 -15.268869,-3.225321 -15.268869,2.70511 0,3.855359 6.21151,5.317736 10.012976,6.363942 21.028826,5.79171 38.802254,-7.87834 38.802254,-27.172476 0,-9.641287 -6.258766,-15.704662 -6.258766,-15.704662 z M 32.504668,26.23069 c -4.148008,0 -7.50842,2.468123 -7.50842,5.508481 0,3.046139 3.360412,5.514261 7.50842,5.514261 4.148007,0 7.508419,-2.468122 7.508419,-5.514261 0,-3.040358 -3.360412,-5.508481 -7.508419,-5.508481 z m 0,0" id="path25" /></svg>
