<?xml version="1.0" encoding="UTF-8" standalone="no"?><svg width="64" height="64" viewBox="0 0 64 64" version="1.1" id="svg31" sodipodi:docname="Not-sure-of-name.svg" inkscape:version="1.2.2 (b0a8486541, 2022-12-01)" xmlns:inkscape="http://www.inkscape.org/namespaces/inkscape" xmlns:sodipodi="http://sodipodi.sourceforge.net/DTD/sodipodi-0.dtd" xmlns="http://www.w3.org/2000/svg" xmlns:svg="http://www.w3.org/2000/svg"> <defs id="defs35"> <filter style="color-interpolation-filters:sRGB;" inkscape:label="Diffuse Light" id="filter205" x="-0.058978976" y="-0.084204361" width="1.117958" height="1.1684087"> <feGaussianBlur in="SourceGraphic" stdDeviation="1" result="blur" id="feGaussianBlur195" /> <feDiffuseLighting diffuseConstant="1" surfaceScale="10" lighting-color="rgb(255,255,255)" result="diffuse" id="feDiffuseLighting199"> <feDistantLight elevation="8" azimuth="235" id="feDistantLight197" /> </feDiffuseLighting> <feComposite in="diffuse" in2="diffuse" operator="arithmetic" k1="1" result="composite1" id="feComposite201" /> <feComposite in="composite1" in2="SourceGraphic" k1="1" operator="arithmetic" k3="1" result="composite2" id="feComposite203" /> </filter> </defs> <sodipodi:namedview id="namedview33" pagecolor="#ffffff" bordercolor="#000000" borderopacity="0.25" inkscape:showpageshadow="2" inkscape:pageopacity="0.0" inkscape:pagecheckerboard="0" inkscape:deskcolor="#d1d1d1" showgrid="false" inkscape:zoom="3.6875" inkscape:cx="32" inkscape:cy="32.135593" inkscape:window-width="1432" inkscape:window-height="844" inkscape:window-x="0" inkscape:window-y="0" inkscape:window-maximized="1" inkscape:current-layer="svg31" /> <g id="surface1" style="fill:#bdb76b;filter:url(#filter205)" transform="matrix(1.507261,0,0,2.0790752,-20.649142,-32.217149)"> <path style="fill:#bdb76b;fill-opacity:1;fill-rule:evenodd;stroke:none" d="m 48.472656,21.160156 c 0,-0.03516 -0.01563,-0.06641 -0.03906,-0.09375 -0.02344,-0.02344 -0.05469,-0.03516 -0.08984,-0.03516 H 15.152344 c -0.03516,0 -0.06641,0.01172 -0.08984,0.03516 -0.02344,0.02734 -0.03906,0.05859 -0.03906,0.09375 v 23.574219 c 0,0.03516 0.01562,0.06641 0.03906,0.09375 0.02344,0.02344 0.05469,0.03516 0.08984,0.03516 H 48.34375 c 0.03516,0 0.06641,-0.01172 0.08984,-0.03516 0.02344,-0.02734 0.03906,-0.05859 0.03906,-0.09375 z m -1.488281,1.015625 H 16.511719 V 43.71875 h 30.472656 z m 0,0" id="path2" /> <path style="fill:#bdb76b;fill-opacity:1;fill-rule:evenodd;stroke:none" d="m 47.496094,24.644531 c 0,-0.07422 -0.05859,-0.128906 -0.128906,-0.128906 H 16.101562 c -0.07031,0 -0.128906,0.05469 -0.128906,0.128906 v 16.425781 c 0,0.07031 0.05859,0.128907 0.128906,0.128907 h 31.265626 c 0.07031,0 0.128906,-0.05859 0.128906,-0.128907 z m 0,0" id="path4" /> <path style="fill:#bdb76b;stroke:#ffffff;stroke-width:13.61;stroke-linecap:round;stroke-linejoin:round;stroke-miterlimit:1.5;stroke-opacity:1" d="M 340.98728,352.70168 V 682.77986" transform="matrix(0.0669349,0,0,0.0669349,-2.558324,-1.983051)" id="path6" /> <path style="fill:#bdb76b;stroke:#ffffff;stroke-width:13.61;stroke-linecap:round;stroke-linejoin:round;stroke-miterlimit:1.5;stroke-opacity:1" d="m 399.05443,351.35942 v 338.3068" transform="matrix(0.0669349,0,0,0.0669349,-2.558324,-1.983051)" id="path8" /> <path style="fill:#bdb76b;stroke:#ffffff;stroke-width:13.61;stroke-linecap:round;stroke-linejoin:round;stroke-miterlimit:1.5;stroke-opacity:1" d="M 458.46384,352.70168 V 682.77986" transform="matrix(0.0669349,0,0,0.0669349,-2.558324,-1.983051)" id="path10" /> <path style="fill:#bdb76b;stroke:#ffffff;stroke-width:13.61;stroke-linecap:round;stroke-linejoin:round;stroke-miterlimit:1.5;stroke-opacity:1" d="m 512.32914,351.35942 v 338.3068" transform="matrix(0.0669349,0,0,0.0669349,-2.558324,-1.983051)" id="path12" /> <path style="fill:#bdb76b;stroke:#ffffff;stroke-width:13.61;stroke-linecap:round;stroke-linejoin:round;stroke-miterlimit:1.5;stroke-opacity:1" d="M 568.00357,352.70168 V 682.77986" transform="matrix(0.0669349,0,0,0.0669349,-2.558324,-1.983051)" id="path14" /> <path style="fill:#bdb76b;stroke:#ffffff;stroke-width:13.61;stroke-linecap:round;stroke-linejoin:round;stroke-miterlimit:1.5;stroke-opacity:1" d="M 627.41298,352.70168 V 682.77986" transform="matrix(0.0669349,0,0,0.0669349,-2.558324,-1.983051)" id="path16" /> <path style="fill:#bdb76b;stroke:#ffffff;stroke-width:13.61;stroke-linecap:round;stroke-linejoin:round;stroke-miterlimit:1.5;stroke-opacity:1" d="M 684.07951,360.58013 V 689.66622" transform="matrix(0.0669349,0,0,0.0669349,-2.558324,-1.983051)" id="path18" /> <path style="fill:#bdb76b;fill-opacity:1;fill-rule:evenodd;stroke:none" d="m 38.105469,35.515625 c 0,-0.02344 -0.01953,-0.04297 -0.03906,-0.04297 -0.929687,0 -17.691406,0 -18.617187,0 -0.02344,0 -0.03906,0.01953 -0.03906,0.04297 0,0.316406 0,2.453125 0,2.769531 0,0.02344 0.01563,0.04297 0.03906,0.04297 0.925781,0 17.6875,0 18.617187,0 0.01953,0 0.03906,-0.01953 0.03906,-0.04297 0,-0.316406 0,-2.453125 0,-2.769531 z m 0,0" id="path20" /> <path style="fill:#bdb76b;stroke:#e36830;stroke-width:1.72;stroke-linecap:round;stroke-linejoin:round;stroke-miterlimit:1.5;stroke-opacity:1" d="m 642.70302,558.0668 49.48839,-27.89557" transform="matrix(0.0669349,0,0,0.0669349,-2.558324,-1.983051)" id="path22" /> <path style="fill:#bdb76b;stroke:#e36830;stroke-width:1.72;stroke-linecap:round;stroke-linejoin:round;stroke-miterlimit:1.5;stroke-opacity:1" d="m 623.21114,542.36824 17.09917,-55.79115" transform="matrix(0.0669349,0,0,0.0669349,-2.558324,-1.983051)" id="path24" /> <path style="fill:#bdb76b;fill-opacity:1;fill-rule:evenodd;stroke:none" d="m 55.679688,19.402344 c 0.05469,-0.0625 0.04687,-0.15625 -0.01953,-0.207032 -0.535156,-0.449218 -2.796875,-2.351562 -3.332031,-2.800781 -0.0625,-0.05078 -0.15625,-0.04297 -0.210937,0.01953 C 50.988281,17.757812 40.25,30.554688 40.25,30.554688 l 3.566406,2.988281 c 0,0 10.738282,-12.796875 11.863282,-14.140625 z m 0,0" id="path26" /> <path style="fill:#bdb76b;fill-opacity:1;fill-rule:evenodd;stroke:none" d="M 40.558594,35.378906 39.136719,34.1875 c 0,0 -0.96875,1.152344 -1.070313,1.277344 -0.0078,0.0078 -0.01172,0.01563 -0.01172,0.02344 0,0.191407 -0.02344,2.292969 -0.02734,2.800781 0,0.01563 0.01172,0.03125 0.02734,0.03516 0.01562,0.0078 0.03125,0 0.04297,-0.01172 0.40625,-0.488281 2.460938,-2.933594 2.460938,-2.933594 z m 0,0" id="path28" /> </g></svg>
