<svg width="64" height="64" viewBox="0 0 64 64" version="1.1" xmlns:inkscape="http://www.inkscape.org/namespaces/inkscape"><defs><linearGradient id="linear0" gradientUnits="userSpaceOnUse" x1="0" y1="0" x2="0" y2="1" gradientTransform="matrix(63.976562,0,0,64,0.0117188,0)"><stop offset="0" style="stop-color:rgb(61.176473%,69.803923%,85.09804%);stop-opacity:1;"/><stop offset="1" style="stop-color:rgb(44.313726%,52.156866%,65.882355%);stop-opacity:1;"/></linearGradient><filter style="color-interpolation-filters:sRGB;" inkscape:label="Diffuse Light" id="filter184" x="-0.0375" y="-0.0375" width="1.075" height="1.075"><feGaussianBlur in="SourceGraphic" stdDeviation="1" result="blur" id="feGaussianBlur174" /><feDiffuseLighting diffuseConstant="1" surfaceScale="10" lighting-color="rgb(255,255,255)" result="diffuse" id="feDiffuseLighting178"><feDistantLight elevation="8" azimuth="235" id="feDistantLight176" /></feDiffuseLighting><feComposite in="diffuse" in2="diffuse" operator="arithmetic" k1="1" result="composite1" id="feComposite180" /><feComposite in="composite1" in2="SourceGraphic" k1="1" operator="arithmetic" k3="1" result="composite2" id="feComposite182" /></filter></defs><g id="surface1" style="filter:url(#filter184)"><path style=" stroke:none;fill-rule:nonzero;fill:url(#linear0);" d="M 40.390625 0 C 46.230469 7.140625 48.28125 16.652344 45.910156 25.570312 C 41.796875 40.898438 26.039062 49.996094 10.707031 45.890625 C 6.792969 44.828125 3.148438 42.949219 0.0117188 40.375 C 3.171875 51.367188 11.847656 59.902344 22.890625 62.878906 C 40.304688 67.546875 58.207031 57.214844 62.875 39.796875 C 67.464844 22.625 57.472656 4.933594 40.394531 0 Z M 51.257812 12.328125 C 56.601562 17.851562 59.382812 25.363281 58.925781 33.035156 C 58.804688 34.882812 58.503906 36.714844 58.023438 38.503906 C 52.625 58.878906 27.28125 65.890625 12.179688 51.1875 C 29.238281 54.25 46.195312 43.898438 50.761719 26.875 L 50.761719 26.863281 C 51.984375 22.109375 52.15625 17.148438 51.265625 12.324219 Z M 51.257812 12.328125 "/></g></svg>
