<svg width="64" height="64" viewBox="0 0 64 64" version="1.1" xmlns:inkscape="http://www.inkscape.org/namespaces/inkscape"><defs><linearGradient id="linear0" gradientUnits="userSpaceOnUse" x1="0" y1="0" x2="0" y2="1" gradientTransform="matrix(64,0,0,60.675781,0,0)"><stop offset="0" style="stop-color:rgb(0%,78.823531%,36.862746%);stop-opacity:1;"/><stop offset="1" style="stop-color:rgb(0%,54.11765%,25.098041%);stop-opacity:1;"/></linearGradient><filter style="color-interpolation-filters:sRGB;" inkscape:label="Diffuse Light" id="filter184" x="-0.0375" y="-0.0375" width="1.075" height="1.075"><feGaussianBlur in="SourceGraphic" stdDeviation="1" result="blur" id="feGaussianBlur174" /><feDiffuseLighting diffuseConstant="1" surfaceScale="10" lighting-color="rgb(255,255,255)" result="diffuse" id="feDiffuseLighting178"><feDistantLight elevation="8" azimuth="235" id="feDistantLight176" /></feDiffuseLighting><feComposite in="diffuse" in2="diffuse" operator="arithmetic" k1="1" result="composite1" id="feComposite180" /><feComposite in="composite1" in2="SourceGraphic" k1="1" operator="arithmetic" k3="1" result="composite2" id="feComposite182" /></filter></defs><g id="surface1" style="filter:url(#filter184)"><path style=" stroke:none;fill-rule:evenodd;fill:url(#linear0);" d="M 16.179688 57.046875 C 18.191406 57.984375 22.023438 59.222656 24.691406 59.800781 C 28.289062 60.578125 30.96875 60.792969 35.0625 60.621094 C 43.671875 60.265625 49.5 57.863281 55.003906 52.402344 C 60.546875 46.898438 63.390625 40.277344 63.929688 31.253906 C 64.890625 15.101562 56.15625 3.726562 40.675781 0.820312 C 28.136719 -1.53125 17.867188 1.164062 9.9375 9.007812 C 3.511719 15.367188 1.058594 21.203125 1.082031 30.980469 C 1.101562 37.363281 2.367188 41.660156 4.457031 45.175781 L 5.578125 47.0625 L 2.789062 52.578125 C 1.253906 55.613281 0 58.378906 0 58.722656 C 0 59.683594 3.980469 58.875 8.554688 56.984375 L 12.519531 55.347656 Z M 45.675781 44.804688 C 47.21875 48.015625 46.953125 48.746094 43.800781 49.988281 C 36.777344 52.757812 32.789062 49.789062 24.464844 35.589844 C 17.488281 23.691406 16.128906 19.175781 18.253906 14.917969 C 19.367188 12.691406 22.492188 9.75 23.75 9.75 C 24.859375 9.75 26.851562 12.085938 28.339844 15.128906 C 29.960938 18.445312 29.949219 19.457031 28.269531 20.546875 C 26.046875 21.984375 24.21875 23.929688 24.21875 24.851562 C 24.21875 25.328125 25.621094 27.167969 27.335938 28.9375 C 30.140625 31.832031 30.597656 32.605469 31.878906 36.597656 C 32.675781 39.089844 33.683594 41.273438 34.171875 41.578125 C 34.859375 42 35.71875 41.746094 38.273438 40.359375 L 39.304688 39.796875 C 39.484375 39.699219 39.652344 39.605469 39.804688 39.519531 C 41.378906 38.644531 41.675781 38.476562 42.945312 40.359375 C 43.738281 41.324219 44.964844 43.324219 45.675781 44.804688 Z M 45.675781 44.804688 "/></g></svg>
