<svg width="64" height="64" viewBox="0 0 64 64" version="1.1" xmlns:inkscape="http://www.inkscape.org/namespaces/inkscape"><defs><linearGradient id="linear0" gradientUnits="userSpaceOnUse" x1="0" y1="0" x2="0" y2="1" gradientTransform="matrix(76.353297,0,0,75.639174,-5.337128,-2.445603)"><stop offset="0" style="stop-color:rgb(75.686276%,77.64706%,83.92157%);stop-opacity:1;"/><stop offset="1" style="stop-color:rgb(43.529412%,45.09804%,50.196081%);stop-opacity:1;"/></linearGradient><linearGradient id="linear1" gradientUnits="userSpaceOnUse" x1="0" y1="0" x2="0" y2="1" gradientTransform="matrix(76.353297,0,0,75.639174,-5.337128,-2.445603)"><stop offset="0" style="stop-color:rgb(75.686276%,77.64706%,83.92157%);stop-opacity:1;"/><stop offset="1" style="stop-color:rgb(43.529412%,45.09804%,50.196081%);stop-opacity:1;"/></linearGradient><filter style="color-interpolation-filters:sRGB;" inkscape:label="Diffuse Light" id="filter184" x="-0.0375" y="-0.0375" width="1.075" height="1.075"><feGaussianBlur in="SourceGraphic" stdDeviation="1" result="blur" id="feGaussianBlur174" /><feDiffuseLighting diffuseConstant="1" surfaceScale="10" lighting-color="rgb(255,255,255)" result="diffuse" id="feDiffuseLighting178"><feDistantLight elevation="8" azimuth="235" id="feDistantLight176" /></feDiffuseLighting><feComposite in="diffuse" in2="diffuse" operator="arithmetic" k1="1" result="composite1" id="feComposite180" /><feComposite in="composite1" in2="SourceGraphic" k1="1" operator="arithmetic" k3="1" result="composite2" id="feComposite182" /></filter></defs><g id="surface1" style="filter:url(#filter184)"><path style=" stroke:none;fill-rule:nonzero;fill:url(#linear0);" d="M 7.914062 3.417969 C 6.632812 3.433594 5.214844 4.703125 5.238281 5.78125 L 5.238281 14.617188 C 6.472656 12.078125 8.609375 8.660156 10.59375 6.613281 L 10.59375 5.753906 C 10.609375 4.652344 9.226562 3.40625 7.914062 3.417969 Z M 7.914062 3.417969 "/><path style=" stroke:none;fill-rule:nonzero;fill:url(#linear1);" d="M 32.007812 1.066406 C 15.816406 1.066406 5.238281 12.640625 5.238281 27.46875 L 5.238281 59.164062 C 5.21875 60.410156 6.625 61.808594 7.914062 61.808594 C 9.210938 61.808594 10.621094 60.410156 10.59375 59.164062 L 10.59375 27.46875 C 10.59375 15.335938 18.296875 6.34375 32.007812 6.34375 C 45.730469 6.34375 53.433594 15.410156 53.433594 27.554688 L 53.433594 59.175781 C 53.417969 60.410156 54.816406 61.808594 56.113281 61.808594 C 57.402344 61.808594 58.8125 60.410156 58.792969 59.175781 L 58.792969 27.480469 C 58.792969 12.644531 48.203125 1.074219 32.007812 1.074219 Z M 32.007812 1.066406 "/></g></svg>
