<svg xmlns="http://www.w3.org/2000/svg" xmlns:xlink="http://www.w3.org/1999/xlink" width="64" height="64" viewBox="0 0 64 64" version="1.1"><g id="surface1"><path style=" stroke:none;fill-rule:nonzero;fill:rgb(11.764706%,56.470591%,100%);fill-opacity:1;" d="M 11.757812 51.070312 L 63.167969 51.070312 L 63.167969 56.535156 L 11.757812 56.535156 Z M 11.757812 51.070312 "/><path style=" stroke:none;fill-rule:nonzero;fill:rgb(11.764706%,56.470591%,100%);fill-opacity:1;" d="M 32.585938 1.792969 L 37.730469 1.792969 L 37.730469 61.996094 L 32.585938 61.996094 Z M 32.585938 1.792969 "/><path style=" stroke:none;fill-rule:nonzero;fill:rgb(11.764706%,56.470591%,100%);fill-opacity:1;" d="M 8.171875 10.003906 C 4.625 10.003906 1.742188 13.074219 1.742188 16.847656 C 1.742188 20.625 4.625 23.6875 8.171875 23.6875 C 9.566406 23.6875 10.921875 23.199219 12.027344 22.308594 L 12.015625 11.390625 C 10.90625 10.5 9.558594 10.019531 8.160156 10.011719 Z M 8.171875 10.003906 "/><path style=" stroke:none;fill-rule:nonzero;fill:rgb(11.764706%,56.470591%,100%);fill-opacity:1;" d="M 1.742188 29.160156 L 1.742188 37.371094 L 6.886719 37.371094 L 6.886719 42.835938 L 9.453125 42.835938 L 9.453125 29.160156 L 6.886719 29.160156 L 6.886719 34.628906 L 4.316406 34.628906 L 4.316406 29.160156 Z M 12.027344 29.160156 L 12.027344 42.835938 L 19.742188 42.835938 L 19.742188 29.160156 Z M 22.308594 29.160156 L 22.308594 31.894531 L 27.453125 31.894531 L 27.453125 34.628906 L 22.308594 34.628906 L 22.308594 42.835938 L 30.019531 42.835938 L 30.019531 40.105469 L 24.875 40.105469 L 24.875 37.371094 L 30.019531 37.371094 L 30.019531 29.160156 Z M 14.597656 31.894531 L 17.164062 31.894531 L 17.164062 34.628906 L 14.597656 34.628906 Z M 14.597656 37.371094 L 17.164062 37.371094 L 17.164062 40.105469 L 14.597656 40.105469 Z M 14.597656 37.371094 "/><path style=" stroke:none;fill-rule:nonzero;fill:rgb(11.764706%,56.470591%,100%);fill-opacity:1;" d="M 15.886719 10.003906 C 14.492188 10.011719 13.128906 10.492188 12.027344 11.382812 L 12.035156 22.300781 C 13.144531 23.199219 14.5 23.679688 15.890625 23.679688 C 19.4375 23.679688 22.316406 20.617188 22.316406 16.839844 C 22.316406 13.066406 19.4375 10.003906 15.890625 10.003906 Z M 15.886719 10.003906 "/><path style=" stroke:none;fill-rule:nonzero;fill:rgb(11.764706%,56.470591%,100%);fill-opacity:1;" d="M 12.027344 11.375 C 10.410156 12.664062 9.460938 14.691406 9.460938 16.847656 C 9.460938 18.996094 10.410156 21.027344 12.027344 22.316406 C 13.648438 21.027344 14.597656 18.996094 14.597656 16.847656 C 14.597656 14.691406 13.648438 12.664062 12.027344 11.375 Z M 12.027344 11.375 "/></g></svg>
