<svg width="64" height="64" viewBox="0 0 64 64" version="1.1" xmlns:inkscape="http://www.inkscape.org/namespaces/inkscape"><defs><linearGradient id="linear0" gradientUnits="userSpaceOnUse" x1="0" y1="0" x2="0" y2="1" gradientTransform="matrix(64,0,0,43.640625,0,10.179688)"><stop offset="0" style="stop-color:rgb(41.960785%,64.313728%,100%);stop-opacity:1;"/><stop offset="1" style="stop-color:rgb(0%,43.137255%,100%);stop-opacity:1;"/></linearGradient><filter style="color-interpolation-filters:sRGB;" inkscape:label="Diffuse Light" id="filter184" x="-0.0375" y="-0.0375" width="1.075" height="1.075"><feGaussianBlur in="SourceGraphic" stdDeviation="1" result="blur" id="feGaussianBlur174" /><feDiffuseLighting diffuseConstant="1" surfaceScale="10" lighting-color="rgb(255,255,255)" result="diffuse" id="feDiffuseLighting178"><feDistantLight elevation="8" azimuth="235" id="feDistantLight176" /></feDiffuseLighting><feComposite in="diffuse" in2="diffuse" operator="arithmetic" k1="1" result="composite1" id="feComposite180" /><feComposite in="composite1" in2="SourceGraphic" k1="1" operator="arithmetic" k3="1" result="composite2" id="feComposite182" /></filter></defs><g id="surface1" style="filter:url(#filter184)"><path style=" stroke:none;fill-rule:nonzero;fill:url(#linear0);" d="M 32 10.179688 C 17.457031 10.179688 5.03125 19.226562 0 32 C 5.03125 44.773438 17.457031 53.820312 32 53.820312 C 46.542969 53.820312 58.96875 44.773438 64 32 C 58.96875 19.226562 46.542969 10.179688 32 10.179688 Z M 32 46.542969 C 23.972656 46.542969 17.457031 40.027344 17.457031 32 C 17.457031 23.972656 23.972656 17.457031 32 17.457031 C 40.027344 17.457031 46.542969 23.972656 46.542969 32 C 46.542969 40.027344 40.027344 46.542969 32 46.542969 Z M 32 23.273438 C 27.171875 23.273438 23.273438 27.171875 23.273438 32 C 23.273438 36.828125 27.171875 40.726562 32 40.726562 C 36.828125 40.726562 40.726562 36.828125 40.726562 32 C 40.726562 27.171875 36.828125 23.273438 32 23.273438 Z M 32 23.273438 "/></g></svg>
