<svg width="64" height="64" viewBox="0 0 64 64" version="1.1" xmlns:inkscape="http://www.inkscape.org/namespaces/inkscape"><defs><linearGradient id="linear0" gradientUnits="userSpaceOnUse" x1="0" y1="0" x2="0" y2="1" gradientTransform="matrix(56,0,0,35.898438,4,14.050781)"><stop offset="0" style="stop-color:rgb(82.352942%,61.176473%,100%);stop-opacity:1;"/><stop offset="1" style="stop-color:rgb(66.666669%,0%,100%);stop-opacity:1;"/></linearGradient><filter style="color-interpolation-filters:sRGB;" inkscape:label="Diffuse Light" id="filter184" x="-0.0375" y="-0.0375" width="1.075" height="1.075"><feGaussianBlur in="SourceGraphic" stdDeviation="1" result="blur" id="feGaussianBlur174" /><feDiffuseLighting diffuseConstant="1" surfaceScale="10" lighting-color="rgb(255,255,255)" result="diffuse" id="feDiffuseLighting178"><feDistantLight elevation="8" azimuth="235" id="feDistantLight176" /></feDiffuseLighting><feComposite in="diffuse" in2="diffuse" operator="arithmetic" k1="1" result="composite1" id="feComposite180" /><feComposite in="composite1" in2="SourceGraphic" k1="1" operator="arithmetic" k3="1" result="composite2" id="feComposite182" /></filter></defs><g id="surface1" style="filter:url(#filter184)"><path style=" stroke:none;fill-rule:nonzero;fill:url(#linear0);" d="M 31.644531 4.449219 C 17.5625 4.449219 6.148438 15.042969 6.148438 28.105469 C 6.148438 36.992188 11.523438 45.128906 20.054688 49.171875 L 20.054688 51.761719 L 3.828125 51.761719 L 3.828125 58.519531 L 24.691406 58.519531 L 24.691406 47.414062 C 19.035156 43.875 15.421875 36.359375 15.417969 28.105469 C 15.417969 25.316406 15.835938 22.664062 16.570312 20.222656 L 27.007812 20.222656 L 27.007812 47.257812 L 36.28125 47.257812 L 36.28125 20.222656 L 46.71875 20.222656 C 47.453125 22.664062 47.871094 25.316406 47.871094 28.105469 C 47.871094 36.363281 44.253906 43.878906 38.597656 47.417969 L 38.597656 58.519531 L 59.460938 58.519531 L 59.460938 51.761719 L 43.234375 51.773438 L 43.238281 49.152344 C 51.769531 45.117188 54.828125 36.988281 54.828125 28.105469 C 54.832031 15.042969 45.726562 4.449219 31.644531 4.449219 Z M 31.644531 6.703125 C 36.304688 6.703125 40.496094 9.3125 43.457031 13.460938 L 19.835938 13.460938 C 22.792969 9.3125 26.984375 6.703125 31.644531 6.703125 Z M 31.644531 6.703125 "/></g></svg>
