<svg xmlns="http://www.w3.org/2000/svg" xmlns:xlink="http://www.w3.org/1999/xlink" width="64" height="64" viewBox="0 0 64 64" version="1.1"><g id="surface1"><path style=" stroke:none;fill-rule:nonzero;fill:rgb(0%,34.117648%,75.686276%);fill-opacity:1;" d="M 46.445312 3.402344 L 17.300781 3.402344 C 9.261719 3.402344 2.722656 9.941406 2.722656 17.976562 L 2.722656 47.113281 C 2.722656 55.148438 9.261719 61.6875 17.300781 61.6875 L 46.445312 61.6875 C 54.480469 61.6875 61.019531 55.148438 61.019531 47.113281 L 61.019531 17.976562 C 61.019531 9.941406 54.480469 3.402344 46.445312 3.402344 Z M 46.445312 3.402344 "/><path style=" stroke:none;fill-rule:nonzero;fill:rgb(94.901961%,94.901961%,94.901961%);fill-opacity:1;" d="M 15.960938 10.695312 L 35.15625 10.695312 C 38.246094 10.695312 40.753906 13.230469 40.753906 16.355469 L 40.753906 35.757812 C 40.753906 38.882812 38.246094 41.414062 35.15625 41.414062 L 15.960938 41.414062 C 12.871094 41.414062 10.363281 38.882812 10.363281 35.757812 L 10.363281 16.355469 C 10.363281 13.230469 12.871094 10.695312 15.960938 10.695312 Z M 15.960938 10.695312 "/><path style=" stroke:none;fill-rule:nonzero;fill:rgb(80.000001%,80.000001%,80.000001%);fill-opacity:1;" d="M 25.558594 35.757812 C 30.203125 35.757812 33.460938 32.003906 33.460938 26.003906 C 33.460938 20.003906 30.203125 16.355469 25.558594 16.355469 C 20.914062 16.355469 17.65625 20.007812 17.65625 26.003906 C 17.65625 32.003906 20.914062 35.757812 25.558594 35.757812 Z M 25.558594 33.6875 C 22.226562 33.6875 20.054688 30.675781 20.054688 26.003906 C 20.054688 21.308594 22.226562 18.425781 25.554688 18.425781 C 28.867188 18.425781 31.0625 21.308594 31.0625 26.003906 C 31.0625 30.679688 28.867188 33.6875 25.558594 33.6875 Z M 25.558594 33.6875 "/><path style=" stroke:none;fill-rule:nonzero;fill:rgb(33.333334%,58.823532%,100%);fill-opacity:1;" d="M 29.558594 24.441406 L 48.75 24.441406 C 51.84375 24.441406 54.347656 26.972656 54.347656 30.097656 L 54.347656 49.5 C 54.347656 52.625 51.84375 55.160156 48.75 55.160156 L 29.558594 55.160156 C 26.464844 55.160156 23.960938 52.625 23.960938 49.5 L 23.960938 30.097656 C 23.960938 26.972656 26.464844 24.441406 29.558594 24.441406 Z M 29.558594 24.441406 "/><path style=" stroke:none;fill-rule:nonzero;fill:rgb(100%,100%,100%);fill-opacity:1;" d="M 32.6875 49.15625 L 38.597656 49.15625 C 42.738281 49.15625 45.621094 47.34375 45.621094 43.667969 C 45.621094 41.113281 44.054688 39.632812 41.828125 39.199219 L 41.828125 39.070312 C 43.574219 38.511719 44.558594 36.875 44.558594 35.011719 C 44.558594 31.722656 41.960938 30.445312 38.191406 30.445312 L 32.691406 30.445312 Z M 35.039062 38.40625 L 35.039062 32.308594 L 37.890625 32.308594 C 40.769531 32.308594 42.257812 33.125 42.257812 35.320312 C 42.257812 37.207031 40.96875 38.40625 37.789062 38.40625 Z M 35.039062 47.265625 L 35.039062 40.222656 L 38.273438 40.222656 C 41.503906 40.222656 43.320312 41.265625 43.320312 43.589844 C 43.320312 46.117188 41.453125 47.265625 38.273438 47.265625 Z M 35.039062 47.265625 "/></g></svg>
