<svg width="64" height="64" viewBox="0 0 64 64" version="1.1" xmlns:inkscape="http://www.inkscape.org/namespaces/inkscape"><defs><linearGradient id="linear0" gradientUnits="userSpaceOnUse" x1="0" y1="0" x2="0" y2="1" gradientTransform="matrix(79.097029,0,0,84.825266,-7.500384,-10.180642)"><stop offset="0" style="stop-color:rgb(100%,73.333335%,0%);stop-opacity:1;"/><stop offset="1" style="stop-color:rgb(70.19608%,51.372552%,0%);stop-opacity:1;"/></linearGradient><filter style="color-interpolation-filters:sRGB;" inkscape:label="Diffuse Light" id="filter184" x="-0.0375" y="-0.0375" width="1.075" height="1.075"><feGaussianBlur in="SourceGraphic" stdDeviation="1" result="blur" id="feGaussianBlur174" /><feDiffuseLighting diffuseConstant="1" surfaceScale="10" lighting-color="rgb(255,255,255)" result="diffuse" id="feDiffuseLighting178"><feDistantLight elevation="8" azimuth="235" id="feDistantLight176" /></feDiffuseLighting><feComposite in="diffuse" in2="diffuse" operator="arithmetic" k1="1" result="composite1" id="feComposite180" /><feComposite in="composite1" in2="SourceGraphic" k1="1" operator="arithmetic" k3="1" result="composite2" id="feComposite182" /></filter></defs><g id="surface1" style="filter:url(#filter184)"><path style=" stroke:none;fill-rule:nonzero;fill:url(#linear0);" d="M 5.085938 2.089844 C 3.054688 2.089844 1.398438 3.855469 1.410156 6.03125 L 1.410156 58.957031 C 1.402344 61.128906 3.054688 62.898438 5.085938 62.898438 L 59.167969 62.898438 C 60.140625 62.898438 61.078125 62.480469 61.769531 61.738281 C 62.457031 61.007812 62.851562 60 62.84375 58.957031 L 62.84375 6.03125 C 62.851562 3.855469 61.199219 2.089844 59.167969 2.089844 L 5.085938 2.089844 M 8.773438 9.953125 L 28.449219 9.953125 L 28.449219 28.21875 L 8.773438 28.21875 Z M 35.8125 9.953125 L 55.488281 9.953125 L 55.488281 28.21875 L 35.8125 28.21875 Z M 8.773438 36.078125 L 28.449219 36.078125 L 28.449219 55.03125 L 8.773438 55.03125 Z M 35.8125 36.078125 L 55.488281 36.078125 L 55.488281 55.03125 L 35.8125 55.03125 Z M 35.8125 36.078125 "/></g></svg>
