<svg width="64" height="64" viewBox="0 0 64 64" version="1.1" xmlns:inkscape="http://www.inkscape.org/namespaces/inkscape"><defs><linearGradient id="linear0" gradientUnits="userSpaceOnUse" x1="0" y1="0" x2="0" y2="1" gradientTransform="matrix(47.414062,0,0,64,8.292969,0)"><stop offset="0" style="stop-color:rgb(100%,63.137257%,63.137257%);stop-opacity:1;"/><stop offset="1" style="stop-color:rgb(100%,27.843139%,27.843139%);stop-opacity:1;"/></linearGradient><filter style="color-interpolation-filters:sRGB;" inkscape:label="Diffuse Light" id="filter184" x="-0.0375" y="-0.0375" width="1.075" height="1.075"><feGaussianBlur in="SourceGraphic" stdDeviation="1" result="blur" id="feGaussianBlur174" /><feDiffuseLighting diffuseConstant="1" surfaceScale="10" lighting-color="rgb(255,255,255)" result="diffuse" id="feDiffuseLighting178"><feDistantLight elevation="8" azimuth="235" id="feDistantLight176" /></feDiffuseLighting><feComposite in="diffuse" in2="diffuse" operator="arithmetic" k1="1" result="composite1" id="feComposite180" /><feComposite in="composite1" in2="SourceGraphic" k1="1" operator="arithmetic" k3="1" result="composite2" id="feComposite182" /></filter></defs><g id="surface1" style="filter:url(#filter184)"><path style=" stroke:none;fill-rule:evenodd;fill:url(#linear0);" d="M 16.660156 40.292969 C 16.660156 48.765625 23.527344 55.632812 32 55.632812 C 40.472656 55.632812 47.339844 48.765625 47.339844 40.292969 C 47.339844 31.820312 40.472656 24.953125 32 24.953125 C 23.910156 24.953125 17.289062 31.210938 16.703125 39.148438 L 16.703125 40.292969 Z M 16.695312 22.1875 C 20.824219 18.691406 26.164062 16.585938 32 16.585938 C 45.09375 16.585938 55.707031 27.199219 55.707031 40.292969 C 55.707031 53.382812 45.09375 64 32 64 C 18.90625 64 8.292969 53.382812 8.292969 40.292969 C 8.292969 39.804688 8.308594 39.316406 8.335938 38.832031 L 8.375 0.449219 C 11.125 0.21875 13.894531 0.0703125 16.683594 0 Z M 36.183594 40.292969 C 36.183594 37.984375 38.058594 36.109375 40.367188 36.109375 C 42.675781 36.109375 44.550781 37.984375 44.550781 40.292969 C 44.550781 42.601562 42.675781 44.476562 40.367188 44.476562 C 38.058594 44.476562 36.183594 42.601562 36.183594 40.292969 Z M 36.183594 40.292969 "/></g></svg>
