<svg width="64" height="64" viewBox="0 0 64 64" version="1.1" xmlns:inkscape="http://www.inkscape.org/namespaces/inkscape"><defs><linearGradient id="linear0" gradientUnits="userSpaceOnUse" x1="0" y1="0" x2="0" y2="1" gradientTransform="matrix(59.341959,0,0,41.567151,1.596871,7.999551)"><stop offset="0" style="stop-color:rgb(75.686276%,77.64706%,83.92157%);stop-opacity:1;"/><stop offset="1" style="stop-color:rgb(43.529412%,45.09804%,50.196081%);stop-opacity:1;"/></linearGradient><filter style="color-interpolation-filters:sRGB;" inkscape:label="Diffuse Light" id="filter184" x="-0.0375" y="-0.0375" width="1.075" height="1.075"><feGaussianBlur in="SourceGraphic" stdDeviation="1" result="blur" id="feGaussianBlur174" /><feDiffuseLighting diffuseConstant="1" surfaceScale="10" lighting-color="rgb(255,255,255)" result="diffuse" id="feDiffuseLighting178"><feDistantLight elevation="8" azimuth="235" id="feDistantLight176" /></feDiffuseLighting><feComposite in="diffuse" in2="diffuse" operator="arithmetic" k1="1" result="composite1" id="feComposite180" /><feComposite in="composite1" in2="SourceGraphic" k1="1" operator="arithmetic" k3="1" result="composite2" id="feComposite182" /></filter></defs><g id="surface1" style="filter:url(#filter184)"><path style=" stroke:none;fill-rule:nonzero;fill:url(#linear0);" d="M 9.496094 9.425781 L 9.496094 15.128906 L 0.582031 15.128906 L 0.582031 20.832031 L 9.496094 20.832031 L 9.496094 43.652344 L 0.582031 43.652344 L 0.582031 49.355469 L 9.496094 49.355469 L 9.496094 55.058594 L 18.410156 55.058594 L 18.410156 49.355469 L 27.324219 49.355469 L 27.324219 55.058594 L 36.238281 55.058594 L 36.238281 49.355469 L 45.15625 49.355469 L 45.15625 55.058594 L 54.066406 55.058594 L 54.066406 49.355469 L 62.984375 49.355469 L 62.984375 43.652344 L 54.066406 43.652344 L 54.066406 20.832031 L 62.984375 20.832031 L 62.984375 15.128906 L 54.066406 15.128906 L 54.066406 9.425781 L 45.15625 9.425781 L 45.15625 15.128906 L 36.238281 15.128906 L 36.238281 9.425781 L 27.324219 9.425781 L 27.324219 15.128906 L 18.410156 15.128906 L 18.410156 9.425781 Z M 18.410156 20.832031 L 27.324219 20.832031 L 27.324219 43.652344 L 18.410156 43.652344 Z M 36.238281 20.832031 L 45.15625 20.832031 L 45.15625 43.652344 L 36.238281 43.652344 Z M 36.238281 20.832031 "/></g></svg>
