<svg width="64" height="64" viewBox="0 0 64 64" version="1.1" xmlns:inkscape="http://www.inkscape.org/namespaces/inkscape"><defs><linearGradient id="linear0" gradientUnits="userSpaceOnUse" x1="0" y1="0" x2="0" y2="1" gradientTransform="matrix(56,0,0,35.898438,4,14.050781)"><stop offset="0" style="stop-color:rgb(0%,78.823531%,36.862746%);stop-opacity:1;"/><stop offset="1" style="stop-color:rgb(0%,54.11765%,25.098041%);stop-opacity:1;"/></linearGradient><linearGradient id="linear1" gradientUnits="userSpaceOnUse" x1="0" y1="0" x2="0" y2="1" gradientTransform="matrix(56,0,0,35.898438,4,14.050781)"><stop offset="0" style="stop-color:rgb(0%,78.823531%,36.862746%);stop-opacity:1;"/><stop offset="1" style="stop-color:rgb(0%,54.11765%,25.098041%);stop-opacity:1;"/></linearGradient><filter style="color-interpolation-filters:sRGB;" inkscape:label="Diffuse Light" id="filter184" x="-0.0375" y="-0.0375" width="1.075" height="1.075"><feGaussianBlur in="SourceGraphic" stdDeviation="1" result="blur" id="feGaussianBlur174" /><feDiffuseLighting diffuseConstant="1" surfaceScale="10" lighting-color="rgb(255,255,255)" result="diffuse" id="feDiffuseLighting178"><feDistantLight elevation="8" azimuth="235" id="feDistantLight176" /></feDiffuseLighting><feComposite in="diffuse" in2="diffuse" operator="arithmetic" k1="1" result="composite1" id="feComposite180" /><feComposite in="composite1" in2="SourceGraphic" k1="1" operator="arithmetic" k3="1" result="composite2" id="feComposite182" /></filter></defs><g id="surface1" style="filter:url(#filter184)"><path style=" stroke:none;fill-rule:nonzero;fill:url(#linear0);" d="M 6.9375 35.191406 C 5.882812 35.191406 5.035156 35.878906 5.035156 36.734375 L 5.035156 39.824219 C 5.035156 40.679688 5.882812 41.367188 6.9375 41.367188 L 44.957031 41.367188 C 46.007812 41.367188 46.855469 40.679688 46.855469 39.824219 L 46.855469 36.734375 C 46.855469 35.878906 46.007812 35.191406 44.957031 35.191406 Z M 52.558594 35.191406 C 51.507812 35.191406 50.660156 35.878906 50.660156 36.734375 L 50.660156 39.824219 C 50.660156 40.679688 51.507812 41.367188 52.558594 41.367188 L 56.363281 41.367188 C 57.414062 41.367188 58.261719 40.679688 58.261719 39.824219 L 58.261719 36.734375 C 58.261719 35.878906 57.414062 35.191406 56.363281 35.191406 Z M 6.9375 44.457031 C 5.882812 44.457031 5.035156 45.144531 5.035156 46 L 5.035156 49.089844 C 5.035156 49.945312 5.882812 50.632812 6.9375 50.632812 L 22.144531 50.632812 C 23.199219 50.632812 24.046875 49.945312 24.046875 49.089844 L 24.046875 46 C 24.046875 45.144531 23.199219 44.457031 22.144531 44.457031 Z M 33.550781 44.457031 C 32.496094 44.457031 31.648438 45.144531 31.648438 46 L 31.648438 49.089844 C 31.648438 49.945312 32.496094 50.632812 33.550781 50.632812 L 56.363281 50.632812 C 57.414062 50.632812 58.261719 49.945312 58.261719 49.089844 L 58.261719 46 C 58.261719 45.144531 57.414062 44.457031 56.363281 44.457031 Z M 6.9375 53.722656 C 5.882812 53.722656 5.035156 54.414062 5.035156 55.269531 L 5.035156 58.355469 C 5.035156 59.210938 5.882812 59.902344 6.9375 59.902344 L 22.144531 59.902344 C 23.199219 59.902344 24.046875 59.210938 24.046875 58.355469 L 24.046875 55.269531 C 24.046875 54.414062 23.199219 53.722656 22.144531 53.722656 Z M 33.550781 53.722656 C 32.496094 53.722656 31.648438 54.414062 31.648438 55.269531 L 31.648438 58.355469 C 31.648438 59.210938 32.496094 59.902344 33.550781 59.902344 L 56.363281 59.902344 C 57.414062 59.902344 58.261719 59.210938 58.261719 58.355469 L 58.261719 55.269531 C 58.261719 54.414062 57.414062 53.722656 56.363281 53.722656 Z M 33.550781 53.722656 "/><path style=" stroke:none;fill-rule:nonzero;fill:url(#linear1);" d="M 23.363281 2.160156 L 23.363281 20.585938 L 11.605469 20.585938 L 31.199219 33.300781 L 50.792969 20.585938 L 39.035156 20.585938 L 39.035156 2.160156 Z M 23.363281 2.160156 "/></g></svg>
