<svg width="64" height="64" viewBox="0 0 64 64" version="1.1" xmlns:inkscape="http://www.inkscape.org/namespaces/inkscape"><defs><linearGradient id="linear0" gradientUnits="userSpaceOnUse" x1="0" y1="0" x2="0" y2="1" gradientTransform="matrix(70.861088,0,0,74.413096,-3.350216,-5.441881)"><stop offset="0" style="stop-color:rgb(100%,56.862748%,82.745099%);stop-opacity:1;"/><stop offset="1" style="stop-color:rgb(100%,0%,60.000002%);stop-opacity:1;"/></linearGradient><filter style="color-interpolation-filters:sRGB;" inkscape:label="Diffuse Light" id="filter184" x="-0.0375" y="-0.0375" width="1.075" height="1.075"><feGaussianBlur in="SourceGraphic" stdDeviation="1" result="blur" id="feGaussianBlur174" /><feDiffuseLighting diffuseConstant="1" surfaceScale="10" lighting-color="rgb(255,255,255)" result="diffuse" id="feDiffuseLighting178"><feDistantLight elevation="8" azimuth="235" id="feDistantLight176" /></feDiffuseLighting><feComposite in="diffuse" in2="diffuse" operator="arithmetic" k1="1" result="composite1" id="feComposite180" /><feComposite in="composite1" in2="SourceGraphic" k1="1" operator="arithmetic" k3="1" result="composite2" id="feComposite182" /></filter></defs><g id="surface1" style="filter:url(#filter184)"><path style=" stroke:none;fill-rule:nonzero;fill:url(#linear0);" d="M 12.507812 1.355469 C 6.136719 1.355469 1.007812 6.523438 1.007812 12.9375 L 1.007812 24.527344 L 8.675781 24.527344 L 8.675781 12.9375 C 8.675781 10.800781 10.386719 9.078125 12.507812 9.078125 L 24.003906 9.078125 L 24.003906 1.355469 Z M 39.332031 1.355469 L 39.332031 9.078125 L 50.828125 9.078125 C 52.953125 9.078125 54.664062 10.800781 54.664062 12.9375 L 54.664062 24.527344 L 62.324219 24.527344 L 62.324219 12.9375 C 62.324219 6.523438 57.199219 1.355469 50.828125 1.355469 Z M 1.007812 39.972656 L 1.007812 51.5625 C 1.007812 57.976562 6.136719 63.144531 12.507812 63.144531 L 24.003906 63.144531 L 24.003906 55.421875 L 12.507812 55.421875 C 10.386719 55.421875 8.675781 53.699219 8.675781 51.5625 L 8.675781 39.972656 Z M 54.664062 39.972656 L 54.664062 51.5625 C 54.664062 53.699219 52.953125 55.421875 50.828125 55.421875 L 39.332031 55.421875 L 39.332031 63.144531 L 50.828125 63.144531 C 57.199219 63.144531 62.324219 57.976562 62.324219 51.5625 L 62.324219 39.972656 Z M 54.664062 39.972656 "/></g></svg>
