<svg xmlns="http://www.w3.org/2000/svg" xmlns:xlink="http://www.w3.org/1999/xlink" width="64" height="64" viewBox="0 0 64 64" version="1.1"><defs><filter id="alpha" filterUnits="objectBoundingBox" x="0%" y="0%" width="100%" height="100%"> <feColorMatrix type="matrix" in="SourceGraphic" values="0 0 0 0 1 0 0 0 0 1 0 0 0 0 1 0 0 0 1 0"/></filter><mask id="mask0"><rect x="0" y="0" width="64" height="64" style="fill:rgb(0%,0%,0%);fill-opacity:0.99;stroke:none;"/></mask><clipPath id="clip1"> <rect x="0" y="0" width="64" height="64"/></clipPath><path style=" stroke:none;fill-rule:nonzero;fill:rgb(87.450981%,75.294119%,57.254905%);fill-opacity:1;" d="M 62.9375 32.625 C 62.9375 49.757812 49.046875 63.648438 31.914062 63.648438 C 14.78125 63.648438 0.890625 49.757812 0.890625 32.625 C 0.890625 15.492188 14.78125 1.601562 31.914062 1.601562 C 49.046875 1.601562 62.9375 15.492188 62.9375 32.625 Z M 62.9375 32.625 "/><mask id="mask1"><rect x="0" y="0" width="64" height="64" style="fill:rgb(0%,0%,0%);fill-opacity:0.99;stroke:none;"/></mask><clipPath id="clip2"> <rect x="0" y="0" width="64" height="64"/></clipPath><path style=" stroke:none;fill-rule:nonzero;fill:rgb(100%,100%,100%);fill-opacity:0.223529;" d="M 59.238281 32.625 C 59.238281 47.714844 47.003906 59.949219 31.914062 59.949219 C 16.824219 59.949219 4.589844 47.714844 4.589844 32.625 C 4.589844 17.535156 16.824219 5.300781 31.914062 5.300781 C 47.003906 5.300781 59.238281 17.535156 59.238281 32.625 Z M 59.238281 32.625 "/><clipPath id="clip3"> <rect x="0" y="0" width="64" height="64"/></clipPath><path style=" stroke:none;fill-rule:evenodd;fill:rgb(100%,100%,100%);fill-opacity:1;" d="M 31.628906 10.5625 C 31.34375 10.539062 31.003906 10.609375 30.636719 10.804688 C 20.675781 16.183594 14.851562 25.890625 14.941406 32.363281 C 15.066406 41.777344 22.292969 49.484375 33.066406 49.222656 C 32.570312 51.734375 31.082031 52.5625 31.300781 53.757812 C 31.386719 54.230469 32.078125 55.039062 33.015625 54.53125 C 42.578125 49.320312 48.695312 40.015625 48.882812 33.316406 C 49.140625 24.164062 42.175781 15.480469 30.710938 16.0625 C 30.984375 14.796875 31.621094 13.675781 32.414062 12.359375 C 32.914062 11.542969 32.492188 10.632812 31.628906 10.5625 Z M 31.914062 25.835938 C 35.664062 25.835938 38.703125 28.875 38.703125 32.625 C 38.703125 36.375 35.664062 39.414062 31.914062 39.414062 C 28.164062 39.414062 25.125 36.375 25.125 32.625 C 25.125 28.875 28.164062 25.835938 31.914062 25.835938 Z M 31.914062 25.835938 "/></defs><use xlink:href="#surface5" mask="url(#mask0)"/><use xlink:href="#surface8" mask="url(#mask1)"/><use xlink:href="#surface11"/></svg>
