<svg width="64" height="64" viewBox="0 0 64 64" version="1.1" xmlns:inkscape="http://www.inkscape.org/namespaces/inkscape"><defs><linearGradient id="linear0" gradientUnits="userSpaceOnUse" x1="0" y1="0" x2="0" y2="1" gradientTransform="matrix(60.162262,0,0,66.116366,1.935154,0.330693)"><stop offset="0" style="stop-color:rgb(0%,78.823531%,36.862746%);stop-opacity:1;"/><stop offset="1" style="stop-color:rgb(0%,54.11765%,25.098041%);stop-opacity:1;"/></linearGradient><filter style="color-interpolation-filters:sRGB;" inkscape:label="Diffuse Light" id="filter184" x="-0.0375" y="-0.0375" width="1.075" height="1.075"><feGaussianBlur in="SourceGraphic" stdDeviation="1" result="blur" id="feGaussianBlur174" /><feDiffuseLighting diffuseConstant="1" surfaceScale="10" lighting-color="rgb(255,255,255)" result="diffuse" id="feDiffuseLighting178"><feDistantLight elevation="8" azimuth="235" id="feDistantLight176" /></feDiffuseLighting><feComposite in="diffuse" in2="diffuse" operator="arithmetic" k1="1" result="composite1" id="feComposite180" /><feComposite in="composite1" in2="SourceGraphic" k1="1" operator="arithmetic" k3="1" result="composite2" id="feComposite182" /></filter></defs><g id="surface1" style="filter:url(#filter184)"><path style=" stroke:none;fill-rule:nonzero;fill:url(#linear0);" d="M 16.097656 15.605469 C 11.191406 15.605469 7.417969 17.140625 4.78125 20.21875 C 2.15625 23.28125 0.847656 27.714844 0.847656 33.53125 C 0.847656 39.347656 2.15625 43.808594 4.78125 46.921875 C 7.410156 50.023438 11.160156 51.582031 16.054688 51.582031 C 20.949219 51.582031 24.699219 50.023438 27.324219 46.921875 C 29.945312 43.816406 31.261719 39.359375 31.261719 33.578125 C 31.261719 27.777344 29.953125 23.332031 27.347656 20.242188 C 24.753906 17.144531 21.007812 15.605469 16.097656 15.605469 M 34.144531 16.152344 L 44.066406 33.078125 L 33.46875 51.097656 L 40.722656 51.097656 L 48.148438 37.886719 L 55.574219 51.097656 L 63.308594 51.097656 L 52.519531 33.484375 L 62.550781 16.152344 L 55.25 16.152344 L 48.503906 28.726562 L 41.621094 16.152344 L 34.144531 16.152344 M 16.101562 21.777344 C 21.476562 21.777344 24.164062 25.710938 24.164062 33.578125 C 24.164062 41.4375 21.460938 45.367188 16.058594 45.367188 C 13.359375 45.367188 11.339844 44.378906 9.988281 42.402344 C 8.632812 40.421875 7.953125 37.484375 7.953125 33.578125 C 7.953125 29.675781 8.636719 26.734375 10.007812 24.761719 C 11.375 22.773438 13.40625 21.777344 16.101562 21.777344 "/></g></svg>
