<svg width="64" height="64" viewBox="0 0 64 64" version="1.1" xmlns:inkscape="http://www.inkscape.org/namespaces/inkscape"><defs><linearGradient id="linear0" gradientUnits="userSpaceOnUse" x1="0" y1="0" x2="0" y2="1" gradientTransform="matrix(72.201792,0,0,92.364377,1.356071,-13.33887)"><stop offset="0" style="stop-color:rgb(75.686276%,77.64706%,83.92157%);stop-opacity:1;"/><stop offset="1" style="stop-color:rgb(43.529412%,45.09804%,50.196081%);stop-opacity:1;"/></linearGradient><linearGradient id="linear1" gradientUnits="userSpaceOnUse" x1="0" y1="0" x2="0" y2="1" gradientTransform="matrix(72.201792,0,0,92.364377,1.356071,-13.33887)"><stop offset="0" style="stop-color:rgb(75.686276%,77.64706%,83.92157%);stop-opacity:1;"/><stop offset="1" style="stop-color:rgb(43.529412%,45.09804%,50.196081%);stop-opacity:1;"/></linearGradient><filter style="color-interpolation-filters:sRGB;" inkscape:label="Diffuse Light" id="filter184" x="-0.0375" y="-0.0375" width="1.075" height="1.075"><feGaussianBlur in="SourceGraphic" stdDeviation="1" result="blur" id="feGaussianBlur174" /><feDiffuseLighting diffuseConstant="1" surfaceScale="10" lighting-color="rgb(255,255,255)" result="diffuse" id="feDiffuseLighting178"><feDistantLight elevation="8" azimuth="235" id="feDistantLight176" /></feDiffuseLighting><feComposite in="diffuse" in2="diffuse" operator="arithmetic" k1="1" result="composite1" id="feComposite180" /><feComposite in="composite1" in2="SourceGraphic" k1="1" operator="arithmetic" k3="1" result="composite2" id="feComposite182" /></filter></defs><g id="surface1" style="filter:url(#filter184)"><path style=" stroke:none;fill-rule:nonzero;fill:url(#linear0);" d="M 35.609375 4.519531 L 4.472656 4.519531 L 4.472656 14.457031 L 26.5 14.457031 C 23.820312 18.109375 18.515625 28.371094 16.757812 33.292969 C 13.707031 41.488281 12.144531 48.875 10.960938 60.875 L 19.761719 60.875 C 20.566406 43.074219 25.125 29.394531 35.609375 13.269531 Z M 2.664062 2.9375 "/><path style=" stroke:none;fill-rule:nonzero;fill:url(#linear1);" d="M 60.054688 60.875 L 42.265625 60.875 L 42.265625 56.6875 L 53.726562 35.769531 L 42.578125 35.769531 L 42.578125 30.441406 L 59.742188 30.441406 L 59.742188 34.601562 L 48.300781 55.554688 L 60.054688 55.554688 L 60.054688 60.875 "/></g></svg>
