<svg width="64" height="64" viewBox="0 0 64 64" version="1.1" xmlns:inkscape="http://www.inkscape.org/namespaces/inkscape"><defs><linearGradient id="linear0" gradientUnits="userSpaceOnUse" x1="0" y1="0" x2="0" y2="1" gradientTransform="matrix(64,0,0,64,0,0)"><stop offset="0" style="stop-color:rgb(100%,63.137257%,63.137257%);stop-opacity:1;"/><stop offset="1" style="stop-color:rgb(100%,27.843139%,27.843139%);stop-opacity:1;"/></linearGradient><filter style="color-interpolation-filters:sRGB;" inkscape:label="Diffuse Light" id="filter184" x="-0.0375" y="-0.0375" width="1.075" height="1.075"><feGaussianBlur in="SourceGraphic" stdDeviation="1" result="blur" id="feGaussianBlur174" /><feDiffuseLighting diffuseConstant="1" surfaceScale="10" lighting-color="rgb(255,255,255)" result="diffuse" id="feDiffuseLighting178"><feDistantLight elevation="8" azimuth="235" id="feDistantLight176" /></feDiffuseLighting><feComposite in="diffuse" in2="diffuse" operator="arithmetic" k1="1" result="composite1" id="feComposite180" /><feComposite in="composite1" in2="SourceGraphic" k1="1" operator="arithmetic" k3="1" result="composite2" id="feComposite182" /></filter></defs><g id="surface1" style="filter:url(#filter184)"><path style=" stroke:none;fill-rule:nonzero;fill:url(#linear0);" d="M 13.101562 0 C 10.859375 0 8.972656 1.273438 7.699219 3.199219 L 0.601562 14.699219 C 0.277344 15.335938 0 16.636719 0 17.601562 L 0 57.601562 C 0 61.128906 2.871094 64 6.398438 64 L 57.601562 64 C 61.128906 64 64 61.128906 64 57.601562 L 64 17.601562 C 64 16.640625 63.722656 15.359375 63.398438 14.398438 L 56.304688 3.199219 C 55.027344 1.273438 53.140625 0 50.902344 0 Z M 13.101562 6.398438 L 50.898438 6.398438 L 54.699219 12.800781 L 9.300781 12.800781 Z M 6.398438 19.199219 L 57.601562 19.199219 L 57.601562 57.601562 L 6.398438 57.601562 Z M 25 25.601562 C 23.238281 25.761719 21.9375 27.335938 22.101562 29.101562 C 22.265625 30.859375 23.835938 32.164062 25.601562 32 L 38.398438 32 C 39.550781 32.011719 40.625 31.410156 41.210938 30.410156 C 41.789062 29.414062 41.789062 28.183594 41.210938 27.1875 C 40.625 26.1875 39.546875 25.589844 38.398438 25.601562 Z M 25 25.601562 "/></g></svg>
