<svg width="64" height="64" viewBox="0 0 64 64" version="1.1" xmlns:inkscape="http://www.inkscape.org/namespaces/inkscape"><defs><linearGradient id="linear0" gradientUnits="userSpaceOnUse" x1="0" y1="0" x2="0" y2="1" gradientTransform="matrix(64.003906,0,0,64,0,0)"><stop offset="0" style="stop-color:rgb(41.960785%,64.313728%,100%);stop-opacity:1;"/><stop offset="1" style="stop-color:rgb(0%,43.137255%,100%);stop-opacity:1;"/></linearGradient><filter style="color-interpolation-filters:sRGB;" inkscape:label="Diffuse Light" id="filter184" x="-0.0375" y="-0.0375" width="1.075" height="1.075"><feGaussianBlur in="SourceGraphic" stdDeviation="1" result="blur" id="feGaussianBlur174" /><feDiffuseLighting diffuseConstant="1" surfaceScale="10" lighting-color="rgb(255,255,255)" result="diffuse" id="feDiffuseLighting178"><feDistantLight elevation="8" azimuth="235" id="feDistantLight176" /></feDiffuseLighting><feComposite in="diffuse" in2="diffuse" operator="arithmetic" k1="1" result="composite1" id="feComposite180" /><feComposite in="composite1" in2="SourceGraphic" k1="1" operator="arithmetic" k3="1" result="composite2" id="feComposite182" /></filter></defs><g id="surface1" style="filter:url(#filter184)"><path style=" stroke:none;fill-rule:nonzero;fill:url(#linear0);" d="M 17.453125 0.015625 C -0.53125 0.679688 -2.703125 9.453125 2.394531 21.378906 C 3.941406 24.996094 8.871094 24.691406 6.105469 21.019531 C -5.507812 -15.148438 71.667969 17.914062 56.167969 39.386719 C 51.792969 44.234375 44.867188 45.535156 39.308594 43.078125 C 36.777344 41.960938 32.164062 43.410156 35.882812 45.507812 C 43.441406 49.765625 61.347656 47.328125 63.496094 37.207031 C 68.835938 12.003906 30.433594 -0.464844 17.453125 0.0117188 M 41.878906 18.433594 C 31.238281 30.054688 20.8125 54.15625 15.117188 59.847656 C 12.035156 62.925781 7.746094 57.296875 6.460938 59.050781 C 4.105469 62.257812 8.894531 63.945312 13.734375 64 C 25.148438 64.207031 46.402344 14.398438 41.878906 18.433594 Z M 41.878906 18.433594 "/></g></svg>
