<svg width="64" height="64" viewBox="0 0 64 64" version="1.1" xmlns:inkscape="http://www.inkscape.org/namespaces/inkscape"><defs><linearGradient id="linear0" gradientUnits="userSpaceOnUse" x1="0" y1="0" x2="0" y2="1" gradientTransform="matrix(56,0,0,35.898438,4,14.050781)"><stop offset="0" style="stop-color:rgb(0%,73.333335%,100%);stop-opacity:1;"/><stop offset="1" style="stop-color:rgb(0%,52.156866%,70.980394%);stop-opacity:1;"/></linearGradient><filter style="color-interpolation-filters:sRGB;" inkscape:label="Diffuse Light" id="filter184" x="-0.0375" y="-0.0375" width="1.075" height="1.075"><feGaussianBlur in="SourceGraphic" stdDeviation="1" result="blur" id="feGaussianBlur174" /><feDiffuseLighting diffuseConstant="1" surfaceScale="10" lighting-color="rgb(255,255,255)" result="diffuse" id="feDiffuseLighting178"><feDistantLight elevation="8" azimuth="235" id="feDistantLight176" /></feDiffuseLighting><feComposite in="diffuse" in2="diffuse" operator="arithmetic" k1="1" result="composite1" id="feComposite180" /><feComposite in="composite1" in2="SourceGraphic" k1="1" operator="arithmetic" k3="1" result="composite2" id="feComposite182" /></filter></defs><g id="surface1" style="filter:url(#filter184)"><path style=" stroke:none;fill-rule:nonzero;fill:url(#linear0);" d="M 26.539062 2.765625 C 22.191406 2.773438 18.097656 6.972656 15.441406 14.136719 L 24.777344 14.136719 C 26.488281 8.90625 28.890625 5.039062 32.417969 2.765625 Z M 40.644531 2.765625 C 32.863281 2.765625 26.539062 16.003906 26.539062 32.335938 C 26.539062 48.667969 32.863281 61.90625 40.644531 61.90625 C 48.429688 61.90625 54.753906 48.667969 54.753906 32.335938 C 54.753906 16.003906 48.429688 2.765625 40.644531 2.765625 Z M 14.078125 18.6875 C 13.199219 22.214844 12.601562 26.082031 12.453125 30.0625 L 21.859375 30.0625 C 22.003906 26.125 22.53125 22.257812 23.410156 18.6875 Z M 12.453125 34.609375 C 12.601562 38.59375 13.199219 42.457031 14.078125 45.984375 L 23.414062 45.984375 C 22.535156 42.414062 22.007812 38.546875 21.859375 34.609375 Z M 15.464844 50.535156 C 18.144531 57.699219 22.234375 61.90625 26.558594 61.90625 L 32.4375 61.90625 C 28.910156 59.632812 26.511719 55.765625 24.796875 50.535156 Z M 15.464844 50.535156 "/></g></svg>
