<svg width="64" height="64" viewBox="0 0 64 64" version="1.1" xmlns:inkscape="http://www.inkscape.org/namespaces/inkscape"><defs><linearGradient id="linear0" gradientUnits="userSpaceOnUse" x1="0" y1="0" x2="0" y2="1" gradientTransform="matrix(56,0,0,35.898438,4,14.050781)"><stop offset="0" style="stop-color:rgb(0%,78.823531%,36.862746%);stop-opacity:1;"/><stop offset="1" style="stop-color:rgb(0%,54.11765%,25.098041%);stop-opacity:1;"/></linearGradient><filter style="color-interpolation-filters:sRGB;" inkscape:label="Diffuse Light" id="filter184" x="-0.0375" y="-0.0375" width="1.075" height="1.075"><feGaussianBlur in="SourceGraphic" stdDeviation="1" result="blur" id="feGaussianBlur174" /><feDiffuseLighting diffuseConstant="1" surfaceScale="10" lighting-color="rgb(255,255,255)" result="diffuse" id="feDiffuseLighting178"><feDistantLight elevation="8" azimuth="235" id="feDistantLight176" /></feDiffuseLighting><feComposite in="diffuse" in2="diffuse" operator="arithmetic" k1="1" result="composite1" id="feComposite180" /><feComposite in="composite1" in2="SourceGraphic" k1="1" operator="arithmetic" k3="1" result="composite2" id="feComposite182" /></filter></defs><g id="surface1" style="filter:url(#filter184)"><path style=" stroke:none;fill-rule:nonzero;fill:url(#linear0);" d="M 18.9375 4.890625 C 11.269531 4.890625 5.078125 11.277344 5.078125 19.1875 L 5.078125 47.785156 C 5.078125 54.054688 8.960938 59.34375 14.386719 61.300781 C 12.917969 59.613281 12.007812 57.390625 12.007812 54.9375 L 12.007812 19.1875 C 12.007812 15.234375 15.105469 12.039062 18.9375 12.039062 L 46.65625 12.039062 C 50.492188 12.039062 53.585938 15.234375 53.585938 19.1875 L 53.585938 47.785156 C 53.585938 51.742188 50.492188 54.9375 46.65625 54.9375 L 25.867188 54.9375 L 25.867188 47.785156 L 43.191406 47.785156 C 45.113281 47.785156 46.65625 46.191406 46.65625 44.210938 L 46.65625 22.761719 C 46.65625 20.78125 45.113281 19.1875 43.191406 19.1875 L 22.402344 19.1875 C 20.484375 19.1875 18.9375 20.78125 18.9375 22.761719 L 18.9375 57.320312 C 18.9375 59.964844 21 62.085938 23.558594 62.085938 L 46.65625 62.085938 C 54.324219 62.085938 60.515625 55.699219 60.515625 47.785156 L 60.515625 19.1875 C 60.515625 11.277344 54.324219 4.890625 46.65625 4.890625 Z M 25.867188 26.339844 L 39.726562 26.339844 L 39.726562 40.636719 L 25.867188 40.636719 Z M 25.867188 26.339844 "/></g></svg>
