<svg width="64" height="64" viewBox="0 0 64 64" version="1.1" xmlns:inkscape="http://www.inkscape.org/namespaces/inkscape"><defs><linearGradient id="linear0" gradientUnits="userSpaceOnUse" x1="0" y1="0" x2="0" y2="1" gradientTransform="matrix(76.094852,0,0,41.550239,2.554842,13.744567)"><stop offset="0" style="stop-color:rgb(82.352942%,61.176473%,100%);stop-opacity:1;"/><stop offset="1" style="stop-color:rgb(66.666669%,0%,100%);stop-opacity:1;"/></linearGradient><linearGradient id="linear1" gradientUnits="userSpaceOnUse" x1="0" y1="0" x2="0" y2="1" gradientTransform="matrix(76.094852,0,0,41.550239,2.554842,13.744567)"><stop offset="0" style="stop-color:rgb(82.352942%,61.176473%,100%);stop-opacity:1;"/><stop offset="1" style="stop-color:rgb(66.666669%,0%,100%);stop-opacity:1;"/></linearGradient><filter style="color-interpolation-filters:sRGB;" inkscape:label="Diffuse Light" id="filter184" x="-0.0375" y="-0.0375" width="1.075" height="1.075"><feGaussianBlur in="SourceGraphic" stdDeviation="1" result="blur" id="feGaussianBlur174" /><feDiffuseLighting diffuseConstant="1" surfaceScale="10" lighting-color="rgb(255,255,255)" result="diffuse" id="feDiffuseLighting178"><feDistantLight elevation="8" azimuth="235" id="feDistantLight176" /></feDiffuseLighting><feComposite in="diffuse" in2="diffuse" operator="arithmetic" k1="1" result="composite1" id="feComposite180" /><feComposite in="composite1" in2="SourceGraphic" k1="1" operator="arithmetic" k3="1" result="composite2" id="feComposite182" /></filter></defs><g id="surface1" style="filter:url(#filter184)"><path style=" stroke:none;fill-rule:nonzero;fill:url(#linear0);" d="M 8.238281 56.683594 L 8.238281 63.445312 L 12.980469 63.445312 L 12.980469 56.683594 Z M 17.71875 56.683594 L 17.71875 63.445312 L 27.199219 63.445312 L 27.199219 56.683594 Z M 31.941406 56.683594 L 31.941406 63.445312 L 36.679688 63.445312 L 36.679688 56.683594 Z M 46.160156 56.683594 L 46.160156 63.445312 L 55.644531 63.445312 L 55.644531 56.683594 Z M 46.160156 56.683594 "/><path style=" stroke:none;fill-rule:nonzero;fill:url(#linear1);" d="M 10.011719 1.671875 C 8.914062 1.671875 8.027344 2.410156 8.027344 3.328125 L 8.027344 6.636719 C 8.027344 7.554688 8.914062 8.292969 10.011719 8.292969 L 53.714844 8.292969 C 54.8125 8.292969 55.699219 7.554688 55.699219 6.636719 L 55.699219 3.328125 C 55.699219 2.410156 54.8125 1.671875 53.714844 1.671875 Z M 10.011719 11.605469 C 8.914062 11.605469 8.027344 12.34375 8.027344 13.261719 L 8.027344 29.816406 C 8.027344 30.734375 8.914062 31.476562 10.011719 31.476562 L 33.851562 31.476562 C 34.949219 31.476562 35.835938 30.734375 35.835938 29.816406 L 35.835938 13.261719 C 35.835938 12.34375 34.949219 11.605469 33.851562 11.605469 Z M 41.792969 11.605469 C 40.691406 11.605469 39.804688 12.34375 39.804688 13.261719 L 39.804688 29.816406 C 39.804688 30.734375 40.691406 31.476562 41.792969 31.476562 L 53.714844 31.476562 C 54.8125 31.476562 55.699219 30.734375 55.699219 29.816406 L 55.699219 13.261719 C 55.699219 12.34375 54.8125 11.605469 53.714844 11.605469 Z M 10.011719 34.785156 C 8.914062 34.785156 8.027344 35.523438 8.027344 36.441406 L 8.027344 53.003906 C 8.027344 53.921875 8.914062 54.65625 10.011719 54.65625 L 53.714844 54.65625 C 54.8125 54.65625 55.699219 53.921875 55.699219 53.003906 L 55.699219 36.441406 C 55.699219 35.523438 54.8125 34.785156 53.714844 34.785156 Z M 10.011719 34.785156 "/></g></svg>
