<?xml version="1.0" encoding="UTF-8" standalone="no"?><svg width="64" height="64" viewBox="0 0 64 64" version="1.1" id="svg33" sodipodi:docname="patchbay.svg" inkscape:version="1.2.2 (b0a8486541, 2022-12-01)" xmlns:inkscape="http://www.inkscape.org/namespaces/inkscape" xmlns:sodipodi="http://sodipodi.sourceforge.net/DTD/sodipodi-0.dtd" xmlns="http://www.w3.org/2000/svg" xmlns:svg="http://www.w3.org/2000/svg"> <defs id="defs37"> <filter style="color-interpolation-filters:sRGB;" inkscape:label="Diffuse Light" id="filter207" x="-0.056751046" y="-0.05483715" width="1.1135021" height="1.1060158"> <feGaussianBlur in="SourceGraphic" stdDeviation="1" result="blur" id="feGaussianBlur197" /> <feDiffuseLighting diffuseConstant="1" surfaceScale="10" lighting-color="rgb(255,255,255)" result="diffuse" id="feDiffuseLighting201"> <feDistantLight elevation="8" azimuth="235" id="feDistantLight199" /> </feDiffuseLighting> <feComposite in="diffuse" in2="diffuse" operator="arithmetic" k1="1" result="composite1" id="feComposite203" /> <feComposite in="composite1" in2="SourceGraphic" k1="1" operator="arithmetic" k3="1" result="composite2" id="feComposite205" /> </filter> </defs> <sodipodi:namedview id="namedview35" pagecolor="#ffffff" bordercolor="#000000" borderopacity="0.25" inkscape:showpageshadow="2" inkscape:pageopacity="0.0" inkscape:pagecheckerboard="0" inkscape:deskcolor="#d1d1d1" showgrid="false" inkscape:zoom="3.6875" inkscape:cx="32" inkscape:cy="32.135593" inkscape:window-width="1432" inkscape:window-height="844" inkscape:window-x="0" inkscape:window-y="0" inkscape:window-maximized="1" inkscape:current-layer="svg33" /> <g id="surface1" transform="matrix(1.4272367,0,0,1.2512077,-13.807561,-4.1316423)" style="filter:url(#filter207)"> <path style="fill:#b39168;fill-opacity:1;fill-rule:evenodd;stroke:none" d="m 11.582031,48.222656 c -0.316406,-2.109375 2.34375,-6.128906 4.8125,-7.898437 2.46875,-1.773438 4.851563,0.140625 5.996094,1.734375 -1.386719,0.269531 -4.167969,0.183594 -5.875,1.570312 -1.589844,1.292969 -3.960937,3.382813 -4.933594,4.59375 z m 0,0" id="path2" /> <path style="fill:#b39168;fill-opacity:1;fill-rule:evenodd;stroke:none" d="m 17.078125,51.355469 c -1.054687,-2.183594 0.535156,-7.875 2.664063,-10.996094 2.128906,-3.121094 5.394531,-2.128906 7.1875,-0.902344 -1.4375,0.953125 -4.25,2.363281 -5.949219,4.5 -1.460938,1.835938 -3.464844,5.054688 -3.902344,7.398438 z m 0,0" id="path4" /> <path style="fill:#b39168;fill-opacity:1;fill-rule:evenodd;stroke:none" d="m 20.890625,50.238281 c -1.058594,-1.765625 -1.601563,-5.75 -0.523437,-8.1875 1.078124,-2.4375 4.347656,-1.78125 6.332031,-0.902343 -1.050781,0.769531 -3.230469,1.925781 -4.191407,3.601562 -0.824218,1.441406 -1.65625,3.453125 -1.617187,5.488281 z m 0,0" id="path6" /> <path style="fill:#b39168;fill-opacity:1;fill-rule:evenodd;stroke:none" d="m 41.144531,52.398438 c 0.964844,-2.003907 -0.480469,-7.050782 -2.425781,-9.765626 -1.941406,-2.71875 -4.925781,-1.691406 -6.566406,-0.519531 1.316406,0.796875 4.027344,1.835938 5.433594,3.800781 1.40625,1.960938 3.230468,4.984376 3.558593,6.484376 z m 0,0" id="path8" /> <path style="fill:#b39168;fill-opacity:1;fill-rule:evenodd;stroke:none" d="m 44.339844,51.261719 c 1.851562,-4.296875 0.542968,-7.527344 -1.136719,-10.914063 -1.675781,-3.386718 -5.144531,-2.304687 -7.089844,-1.34375 1.292969,1.144532 4.230469,3.007813 5.980469,5.101563 1.878906,2.246093 2.121094,5.4375 2.246094,7.15625 z m 0,0" id="path10" /> <path style="fill:#b39168;fill-opacity:1;fill-rule:evenodd;stroke:none" d="m 49.773438,45.789062 c 0.472656,-2.0625 -1.160157,-7.054687 -3.617188,-9.410156 -2.453125,-2.355468 -5.433594,-0.71875 -6.730469,0.636719 1.425781,0.589844 4.246094,0.429687 6.019531,2.132813 1.773438,1.703124 3.679688,5.238281 4.328126,6.640624 z m 0,0" id="path12" /> <path style="fill:none;stroke:#b39168;stroke-width:5.49;stroke-linecap:round;stroke-linejoin:round;stroke-miterlimit:1.5;stroke-opacity:1" d="M 610.5,88.0625 C 707.1875,141 742.25,323.0625 696,423.5" transform="scale(0.0625)" id="path14" /> <path style="fill:none;stroke:#b39168;stroke-width:5.49;stroke-linecap:round;stroke-linejoin:round;stroke-miterlimit:1.5;stroke-opacity:1" d="M 739.75,120.5625 C 800,206.125 780.3125,333.625 723.1875,426.375" transform="scale(0.0625)" id="path16" /> <path style="fill:#b39168;fill-opacity:1;fill-rule:evenodd;stroke:none" d="m 53.417969,26.003906 c -1.140625,0.07422 -3.074219,0.546875 -4.375,1.230469 -1.464844,0.769531 -3.691407,2.875 -3.976563,2.761719 0.05078,-0.113282 2.171875,-2.628906 2.171875,-2.628906 -0.171875,-0.05859 -3.128906,0.871093 -3.8125,1.359374 -1.382812,0.984376 -2.964843,2.996094 -2.0625,4.433594 0.90625,1.4375 2.644531,1.460938 4.242188,0.96875 4.144531,-1.273437 8.589843,-7.773437 7.8125,-8.125 z m 0,0" id="path18" /> <path style="fill:#b39168;fill-opacity:1;fill-rule:evenodd;stroke:none" d="m 33.824219,17.769531 c 0.0625,0.8125 -0.0078,2.535157 -0.433594,3.378907 C 32.90625,22.097656 31.25,22.75 31.375,22.96875 c 0.08984,-0.01953 1.886719,-0.808594 1.886719,-0.808594 0.06641,0.128906 -0.273438,2 -0.605469,2.425782 -0.667969,0.859374 -2.171875,1.722656 -3.472656,0.871093 -1.296875,-0.847656 -1.507813,-2.101562 -1.273438,-3.183593 0.601563,-2.808594 5.535156,-5.113282 5.914063,-4.503907 z m 0,0" id="path20" /> <path style="fill:#b39168;fill-opacity:1;fill-rule:evenodd;stroke:none" d="m 37.582031,27.261719 c 0.429688,-0.277344 0.433594,-5.445313 -0.117187,-6.714844 -0.390625,-0.898437 -0.828125,-1.117187 -1.511719,-0.96875 -0.683594,0.148437 -1.117187,0.828125 -0.96875,1.511719 0.07031,0.316406 0.382813,0.792968 0.90625,1.015625 2.375,1.007812 1.652344,3.65625 1.691406,5.15625 z m 0,0" id="path22" /> <path style="fill:#b39168;fill-opacity:1;fill-rule:evenodd;stroke:none" d="m 39.359375,27.871094 c 0.539063,-0.160156 2.175781,-4.722656 1.917969,-6.796875 -0.09375,-0.730469 -0.238282,-1.363281 -0.800782,-1.460938 -0.5625,-0.09375 -1.128906,0.402344 -1.242187,1.113281 -0.121094,0.757813 0.394531,1.402344 0.714844,1.792969 1.398437,1.679688 -0.335938,4.34375 -0.589844,5.351563 z m 0,0" id="path24" /> <path style="fill:#ffe6c5;fill-opacity:1;fill-rule:evenodd;stroke:none" d="m 19.859375,25.710938 c 0,0 1.71875,-1.988282 3.234375,-2.46875 3.605469,-1.144532 6.515625,-0.355469 10.53125,2.550781 1.320312,0.953125 2.675781,2.488281 4.195312,3.078125 1.546876,0.605468 5.199219,0.527344 5.199219,0.527344 0.601563,0.527343 0.21875,7.875 -1.996093,12.738281 -1.53125,3.367187 -4.722657,5.980469 -7.542969,7.035156 C 27.0625,51.574219 22.96875,48.089844 22.96875,48.089844 c 0,0 3.292969,-0.191406 5.28125,-1.316406 2.824219,-1.597657 4.707031,-4.832032 4.609375,-9.144532 -0.105469,-4.683594 -2.445313,-8.664062 -4.601563,-9.945312 -4.144531,-2.46875 -8.398437,-1.972656 -8.398437,-1.972656 z m 0,0" id="path26" /> <path style="fill:#ffe6c5;fill-opacity:1;fill-rule:evenodd;stroke:none" d="m 13.546875,35.378906 c -1.765625,0.460938 -2.734375,2.59375 -2.167969,4.753906 0.25,0.949219 2.171875,2.84375 4.144532,3.230469 1.488281,0.289063 7.023437,0.140625 8.695312,-2.355469 2.132812,-3.179687 1.214844,-6.363281 -0.738281,-8.070312 -3.28125,-2.863281 -7.105469,-2.742188 -9.238281,-1.410156 -0.878907,0.515625 -2.574219,3.621094 -2.394532,4.066406 1.28125,-1.585938 7.152344,-2.289062 6.855469,3.234375 -0.136719,2.539063 -2.746094,2.664063 -2.746094,2.664063 0,0 2.214844,-0.945313 1.816407,-3.703126 -0.226563,-1.597656 -1.714844,-3.074218 -4.226563,-2.410156 z m 0,0" id="path28" /> <path style="fill:#ffe6c5;fill-opacity:1;fill-rule:evenodd;stroke:none" d="m 16.550781,29.960938 c 0.90625,-0.53125 5.417969,-0.132813 7.703125,2.046874 2.542969,2.429688 2.914063,4.8125 2.394532,7.121094 -0.636719,2.808594 -2.214844,3.855469 -4.324219,4.613282 -1.40625,0.503906 -5.039063,0.621093 -5.039063,0.621093 -0.136718,0.328125 2.902344,3.050781 4.980469,2.972657 2.183594,-0.08203 5.539063,-0.917969 7.699219,-4.070313 2.925781,-4.277344 1.1875,-10.875 -1.367188,-13.269531 -3.4375,-3.234375 -9.480468,-3.707032 -10.621094,-3.226563 -0.988281,0.417969 -1.425781,3.191407 -1.425781,3.191407 z m 0,0" id="path30" /> </g></svg>
