<svg width="64" height="64" viewBox="0 0 64 64" version="1.1" xmlns:inkscape="http://www.inkscape.org/namespaces/inkscape"><defs><linearGradient id="linear0" gradientUnits="userSpaceOnUse" x1="0" y1="0" x2="0" y2="1" gradientTransform="matrix(63.118741,0,0,38.911899,0.495398,11.683013)"><stop offset="0" style="stop-color:rgb(100%,56.862748%,82.745099%);stop-opacity:1;"/><stop offset="1" style="stop-color:rgb(100%,0%,60.000002%);stop-opacity:1;"/></linearGradient><filter style="color-interpolation-filters:sRGB;" inkscape:label="Diffuse Light" id="filter184" x="-0.0375" y="-0.0375" width="1.075" height="1.075"><feGaussianBlur in="SourceGraphic" stdDeviation="1" result="blur" id="feGaussianBlur174" /><feDiffuseLighting diffuseConstant="1" surfaceScale="10" lighting-color="rgb(255,255,255)" result="diffuse" id="feDiffuseLighting178"><feDistantLight elevation="8" azimuth="235" id="feDistantLight176" /></feDiffuseLighting><feComposite in="diffuse" in2="diffuse" operator="arithmetic" k1="1" result="composite1" id="feComposite180" /><feComposite in="composite1" in2="SourceGraphic" k1="1" operator="arithmetic" k3="1" result="composite2" id="feComposite182" /></filter></defs><g id="surface1" style="filter:url(#filter184)"><path style=" stroke:none;fill-rule:nonzero;fill:url(#linear0);" d="M 32.15625 0.859375 L 18.800781 14.089844 L 22.144531 17.394531 L 32.15625 7.472656 L 42.171875 17.394531 L 45.511719 14.089844 Z M 32.15625 16.292969 L 16.578125 31.726562 L 32.15625 47.15625 L 47.738281 31.726562 Z M 14.351562 18.496094 L 0.996094 31.726562 L 14.351562 44.953125 L 17.691406 41.648438 L 7.675781 31.726562 L 17.691406 21.808594 Z M 49.960938 18.496094 L 46.625 21.808594 L 56.640625 31.726562 L 46.625 41.648438 L 49.960938 44.953125 L 63.320312 31.726562 Z M 32.15625 20.703125 L 43.285156 31.726562 L 32.15625 42.75 L 21.03125 31.726562 Z M 22.144531 46.054688 L 18.800781 49.363281 L 32.15625 62.589844 L 45.511719 49.363281 L 42.171875 46.054688 L 32.15625 55.976562 Z M 22.144531 46.054688 "/></g></svg>
