<svg width="64" height="64" viewBox="0 0 64 64" version="1.1" xmlns:inkscape="http://www.inkscape.org/namespaces/inkscape"><defs><linearGradient id="linear0" gradientUnits="userSpaceOnUse" x1="0" y1="0" x2="0" y2="1" gradientTransform="matrix(64,0,0,56,0,4)"><stop offset="0" style="stop-color:rgb(61.176473%,69.803923%,85.09804%);stop-opacity:1;"/><stop offset="1" style="stop-color:rgb(44.313726%,52.156866%,65.882355%);stop-opacity:1;"/></linearGradient><filter style="color-interpolation-filters:sRGB;" inkscape:label="Diffuse Light" id="filter184" x="-0.0375" y="-0.0375" width="1.075" height="1.075"><feGaussianBlur in="SourceGraphic" stdDeviation="1" result="blur" id="feGaussianBlur174" /><feDiffuseLighting diffuseConstant="1" surfaceScale="10" lighting-color="rgb(255,255,255)" result="diffuse" id="feDiffuseLighting178"><feDistantLight elevation="8" azimuth="235" id="feDistantLight176" /></feDiffuseLighting><feComposite in="diffuse" in2="diffuse" operator="arithmetic" k1="1" result="composite1" id="feComposite180" /><feComposite in="composite1" in2="SourceGraphic" k1="1" operator="arithmetic" k3="1" result="composite2" id="feComposite182" /></filter></defs><g id="surface1" style="filter:url(#filter184)"><path style=" stroke:none;fill-rule:nonzero;fill:url(#linear0);" d="M 41.140625 4 L 41.140625 8.664062 L 0 8.664062 L 0 18 L 41.140625 18 L 41.140625 22.664062 L 50.289062 22.664062 L 50.289062 4 Z M 54.859375 8.664062 L 54.859375 18 L 64 18 L 64 8.664062 Z M 13.710938 22.664062 L 13.710938 27.335938 L 0 27.335938 L 0 36.664062 L 13.710938 36.664062 L 13.710938 41.335938 L 22.859375 41.335938 L 22.859375 22.664062 Z M 27.429688 27.335938 L 27.429688 36.664062 L 64 36.664062 L 64 27.335938 Z M 32 41.335938 L 32 46 L 0 46 L 0 55.335938 L 32 55.335938 L 32 60 L 41.140625 60 L 41.140625 41.335938 Z M 45.710938 46 L 45.710938 55.335938 L 64 55.335938 L 64 46 Z M 45.710938 46 "/></g></svg>
