<svg width="64" height="64" viewBox="0 0 64 64" version="1.1" xmlns:inkscape="http://www.inkscape.org/namespaces/inkscape"><defs><linearGradient id="linear0" gradientUnits="userSpaceOnUse" x1="0" y1="0" x2="0" y2="1" gradientTransform="matrix(59.257812,0,0,64,2.371094,0)"><stop offset="0" style="stop-color:rgb(87.058824%,86.666667%,56.470591%);stop-opacity:1;"/><stop offset="1" style="stop-color:rgb(67.843139%,67.450982%,38.039216%);stop-opacity:1;"/></linearGradient><filter style="color-interpolation-filters:sRGB;" inkscape:label="Diffuse Light" id="filter184" x="-0.0375" y="-0.0375" width="1.075" height="1.075"><feGaussianBlur in="SourceGraphic" stdDeviation="1" result="blur" id="feGaussianBlur174" /><feDiffuseLighting diffuseConstant="1" surfaceScale="10" lighting-color="rgb(255,255,255)" result="diffuse" id="feDiffuseLighting178"><feDistantLight elevation="8" azimuth="235" id="feDistantLight176" /></feDiffuseLighting><feComposite in="diffuse" in2="diffuse" operator="arithmetic" k1="1" result="composite1" id="feComposite180" /><feComposite in="composite1" in2="SourceGraphic" k1="1" operator="arithmetic" k3="1" result="composite2" id="feComposite182" /></filter></defs><g id="surface1" style="filter:url(#filter184)"><path style=" stroke:none;fill-rule:nonzero;fill:url(#linear0);" d="M 40.296875 0 L 23.703125 2.371094 L 23.703125 7.113281 L 15.644531 7.113281 C 2.371094 7.113281 2.371094 15.40625 2.371094 15.40625 L 2.371094 23.703125 L 23.703125 23.703125 C 23.703125 20.957031 25.21875 18.964844 27.96875 18.964844 C 30.71875 18.964844 31.914062 20.957031 31.914062 23.703125 L 32.085938 23.703125 L 2.671875 42.667969 L 2.371094 42.667969 L 2.371094 56.886719 L 23.703125 56.886719 L 23.703125 64 L 40.296875 61.628906 L 40.296875 56.886719 L 61.628906 56.886719 L 61.628906 42.667969 L 32 42.667969 L 55.527344 27.699219 C 58.78125 25.363281 61.628906 23.703125 61.628906 17.0625 C 61.628906 17.0625 62.105469 7.113281 43.851562 7.113281 L 40.296875 7.113281 Z M 40.296875 0 "/></g></svg>
