<?xml version="1.0" encoding="UTF-8" standalone="no"?><svg width="64" height="64" viewBox="0 0 64 64" version="1.1" id="svg317" sodipodi:docname="peazip.svg" inkscape:version="1.2.2 (b0a8486541, 2022-12-01)" xmlns:inkscape="http://www.inkscape.org/namespaces/inkscape" xmlns:sodipodi="http://sodipodi.sourceforge.net/DTD/sodipodi-0.dtd" xmlns:xlink="http://www.w3.org/1999/xlink" xmlns="http://www.w3.org/2000/svg" xmlns:svg="http://www.w3.org/2000/svg"> <sodipodi:namedview id="namedview319" pagecolor="#ffffff" bordercolor="#000000" borderopacity="0.25" inkscape:showpageshadow="2" inkscape:pageopacity="0.0" inkscape:pagecheckerboard="0" inkscape:deskcolor="#d1d1d1" showgrid="false" inkscape:zoom="3.6875" inkscape:cx="32" inkscape:cy="32.135593" inkscape:window-width="1432" inkscape:window-height="844" inkscape:window-x="0" inkscape:window-y="0" inkscape:window-maximized="1" inkscape:current-layer="svg317" /> <defs id="defs310"> <filter id="alpha" filterUnits="objectBoundingBox" x="0" y="0" width="1" height="1"> <feColorMatrix type="matrix" in="SourceGraphic" values="0 0 0 0 1 0 0 0 0 1 0 0 0 0 1 0 0 0 1 0" id="feColorMatrix286" /> </filter> <mask id="mask0"> <g filter="url(#alpha)" id="g291"> <rect x="0" y="0" width="64" height="64" style="fill:rgb(0%,0%,0%);fill-opacity:0.6;stroke:none;" id="rect289" /> </g> </mask> <linearGradient id="linear0" gradientUnits="userSpaceOnUse" x1="0" y1="0" x2="0" y2="1" gradientTransform="matrix(64,0,0,64,0,0)"> <stop offset="0" style="stop-color:#00bbff;stop-opacity:1;" id="stop294" /> <stop offset="1" style="stop-color:#0085b5;stop-opacity:1;" id="stop296" /> </linearGradient> <clipPath id="clip1"> <rect x="0" y="0" width="64" height="64" id="rect299" /> </clipPath> <g id="surface5" clip-path="url(#clip1)"> <path style=" stroke:none;fill-rule:nonzero;fill:url(#linear0);" d="M 15.71875 15.703125 C 3.308594 28.136719 -2.246094 45.851562 0.835938 63.152344 C 18.128906 66.261719 35.84375 60.714844 48.285156 48.296875 C 60.691406 35.863281 66.246094 18.148438 63.164062 0.847656 C 45.871094 -2.261719 28.15625 3.285156 15.714844 15.703125 Z M 15.71875 15.703125 " id="path302" /> </g> <linearGradient id="linear1" gradientUnits="userSpaceOnUse" x1="0" y1="0" x2="0" y2="1" gradientTransform="matrix(45.710938,0,0,45.710938,9.144531,9.144531)"> <stop offset="0" style="stop-color:#00bbff;stop-opacity:1;" id="stop305" /> <stop offset="1" style="stop-color:#0085b5;stop-opacity:1;" id="stop307" /> </linearGradient> <filter style="color-interpolation-filters:sRGB;" inkscape:label="Diffuse Light" id="filter1365" x="-0.037500757" y="-0.037488851" width="1.0750015" height="1.0749777"> <feGaussianBlur in="SourceGraphic" stdDeviation="1" result="blur" id="feGaussianBlur1355" /> <feDiffuseLighting diffuseConstant="1" surfaceScale="10" lighting-color="rgb(255,255,255)" result="diffuse" id="feDiffuseLighting1359"> <feDistantLight elevation="8" azimuth="235" id="feDistantLight1357" /> </feDiffuseLighting> <feComposite in="diffuse" in2="diffuse" operator="arithmetic" k1="1" result="composite1" id="feComposite1361" /> <feComposite in="composite1" in2="SourceGraphic" k1="1" operator="arithmetic" k3="1" result="composite2" id="feComposite1363" /> </filter> </defs> <g id="surface1" style="filter:url(#filter1365)"> <use xlink:href="#surface5" mask="url(#mask0)" id="use312" /> <path style=" stroke:none;fill-rule:evenodd;fill:url(#linear1);" d="M 22.855469 32 C 22.855469 26.953125 26.957031 22.855469 32 22.855469 C 37.046875 22.855469 41.144531 26.953125 41.144531 32 C 41.144531 37.042969 37.046875 41.144531 32 41.144531 C 26.957031 41.144531 22.855469 37.042969 22.855469 32 Z M 45.710938 13.714844 C 45.710938 11.191406 47.761719 9.144531 50.285156 9.144531 C 52.808594 9.144531 54.855469 11.191406 54.855469 13.714844 C 54.855469 16.238281 52.808594 18.289062 50.285156 18.289062 C 47.761719 18.289062 45.710938 16.238281 45.710938 13.714844 Z M 9.144531 50.285156 C 9.144531 47.765625 11.191406 45.714844 13.714844 45.714844 C 16.234375 45.714844 18.289062 47.765625 18.289062 50.285156 C 18.289062 52.808594 16.234375 54.855469 13.714844 54.855469 C 11.191406 54.855469 9.144531 52.808594 9.144531 50.285156 Z M 9.144531 50.285156 " id="path314" /> </g></svg>
