<svg width="64" height="64" viewBox="0 0 64 64" version="1.1" xmlns:inkscape="http://www.inkscape.org/namespaces/inkscape"><defs><linearGradient id="linear0" gradientUnits="userSpaceOnUse" x1="0" y1="0" x2="0" y2="1" gradientTransform="matrix(66.443583,0,0,39.988607,-1.688407,12.718158)"><stop offset="0" style="stop-color:rgb(100%,73.333335%,0%);stop-opacity:1;"/><stop offset="1" style="stop-color:rgb(70.19608%,51.372552%,0%);stop-opacity:1;"/></linearGradient><filter style="color-interpolation-filters:sRGB;" inkscape:label="Diffuse Light" id="filter184" x="-0.0375" y="-0.0375" width="1.075" height="1.075"><feGaussianBlur in="SourceGraphic" stdDeviation="1" result="blur" id="feGaussianBlur174" /><feDiffuseLighting diffuseConstant="1" surfaceScale="10" lighting-color="rgb(255,255,255)" result="diffuse" id="feDiffuseLighting178"><feDistantLight elevation="8" azimuth="235" id="feDistantLight176" /></feDiffuseLighting><feComposite in="diffuse" in2="diffuse" operator="arithmetic" k1="1" result="composite1" id="feComposite180" /><feComposite in="composite1" in2="SourceGraphic" k1="1" operator="arithmetic" k3="1" result="composite2" id="feComposite182" /></filter></defs><g id="surface1" style="filter:url(#filter184)"><path style=" stroke:none;fill-rule:nonzero;fill:url(#linear0);" d="M 14.050781 1.574219 L 0.871094 48.1875 L 17.660156 52.449219 L 17.660156 31.125 C 17.660156 23.59375 24.109375 17.488281 32.058594 17.488281 C 40.011719 17.488281 46.453125 23.59375 46.453125 31.125 C 46.453125 38.65625 40.011719 44.765625 32.058594 44.765625 C 29.53125 44.765625 27.046875 44.121094 24.859375 42.917969 L 24.859375 54.277344 L 50.066406 60.679688 L 63.246094 14.0625 L 14.050781 1.574219 M 24.859375 54.289062 L 17.660156 52.457031 L 17.660156 62.957031 L 24.859375 60.6875 L 24.859375 54.285156 M 32.058594 24.3125 C 28.085938 24.3125 24.859375 27.367188 24.859375 31.132812 C 24.859375 34.902344 28.085938 37.957031 32.058594 37.957031 C 36.035156 37.957031 39.253906 34.902344 39.253906 31.132812 C 39.253906 27.367188 36.035156 24.3125 32.058594 24.3125 Z M 32.058594 24.3125 "/></g></svg>
