<svg width="64" height="64" viewBox="0 0 64 64" version="1.1" xmlns:inkscape="http://www.inkscape.org/namespaces/inkscape"><defs><linearGradient id="linear0" gradientUnits="userSpaceOnUse" x1="0" y1="0" x2="0" y2="1" gradientTransform="matrix(56,0,0,35.898438,4,14.050781)"><stop offset="0" style="stop-color:rgb(100%,63.137257%,63.137257%);stop-opacity:1;"/><stop offset="1" style="stop-color:rgb(100%,27.843139%,27.843139%);stop-opacity:1;"/></linearGradient><filter style="color-interpolation-filters:sRGB;" inkscape:label="Diffuse Light" id="filter184" x="-0.0375" y="-0.0375" width="1.075" height="1.075"><feGaussianBlur in="SourceGraphic" stdDeviation="1" result="blur" id="feGaussianBlur174" /><feDiffuseLighting diffuseConstant="1" surfaceScale="10" lighting-color="rgb(255,255,255)" result="diffuse" id="feDiffuseLighting178"><feDistantLight elevation="8" azimuth="235" id="feDistantLight176" /></feDiffuseLighting><feComposite in="diffuse" in2="diffuse" operator="arithmetic" k1="1" result="composite1" id="feComposite180" /><feComposite in="composite1" in2="SourceGraphic" k1="1" operator="arithmetic" k3="1" result="composite2" id="feComposite182" /></filter></defs><g id="surface1" style="filter:url(#filter184)"><path style=" stroke:none;fill-rule:nonzero;fill:url(#linear0);" d="M 56.746094 6.664062 L 37.332031 11.363281 L 23.269531 9.011719 L 23.269531 14.75 L 3.183594 19.589844 L 3.183594 28.992188 L 27.734375 23 C 27.667969 22.648438 27.632812 22.292969 27.628906 21.941406 C 27.628906 18.695312 30.128906 16.0625 33.210938 16.0625 C 35.710938 16.0625 37.917969 17.820312 38.589844 20.363281 L 61.128906 14.886719 Z M 61.210938 20.765625 L 52.285156 23.117188 C 51.765625 28.640625 49.292969 32.285156 45.8125 35.292969 C 41.882812 38.679688 36.347656 40.886719 31.261719 42.039062 L 3.140625 49 L 3.140625 58.402344 L 23.226562 53.605469 L 23.226562 58.402344 L 32.152344 58.402344 L 32.152344 51.464844 L 33.089844 51.242188 C 39.117188 49.882812 45.878906 47.386719 51.4375 42.589844 C 56.972656 37.820312 61.121094 30.296875 61.167969 20.800781 Z M 23.269531 29.582031 L 3.183594 34.871094 L 3.183594 44.273438 L 23.269531 38.984375 Z M 23.269531 29.582031 "/></g></svg>
