<svg width="64" height="64" viewBox="0 0 64 64" version="1.1" xmlns:inkscape="http://www.inkscape.org/namespaces/inkscape"><defs><linearGradient id="linear0" gradientUnits="userSpaceOnUse" x1="0" y1="0" x2="0" y2="1" gradientTransform="matrix(56,0,0,35.898438,4,14.050781)"><stop offset="0" style="stop-color:rgb(61.176473%,69.803923%,85.09804%);stop-opacity:1;"/><stop offset="1" style="stop-color:rgb(44.313726%,52.156866%,65.882355%);stop-opacity:1;"/></linearGradient><filter style="color-interpolation-filters:sRGB;" inkscape:label="Diffuse Light" id="filter184" x="-0.0375" y="-0.0375" width="1.075" height="1.075"><feGaussianBlur in="SourceGraphic" stdDeviation="1" result="blur" id="feGaussianBlur174" /><feDiffuseLighting diffuseConstant="1" surfaceScale="10" lighting-color="rgb(255,255,255)" result="diffuse" id="feDiffuseLighting178"><feDistantLight elevation="8" azimuth="235" id="feDistantLight176" /></feDiffuseLighting><feComposite in="diffuse" in2="diffuse" operator="arithmetic" k1="1" result="composite1" id="feComposite180" /><feComposite in="composite1" in2="SourceGraphic" k1="1" operator="arithmetic" k3="1" result="composite2" id="feComposite182" /></filter></defs><g id="surface1" style="filter:url(#filter184)"><path style=" stroke:none;fill-rule:nonzero;fill:url(#linear0);" d="M 62.257812 59.574219 L 62.257812 45.632812 L 59.800781 47.953125 L 59.800781 57.25 L 49.960938 57.25 L 47.5 59.574219 Z M 47.5 59.574219 L 47.5 45.632812 L 45.039062 47.953125 L 45.039062 57.25 L 35.203125 57.25 L 32.742188 59.574219 Z M 32.742188 59.574219 L 32.742188 45.632812 L 30.28125 47.953125 L 30.28125 57.25 L 20.445312 57.25 L 17.984375 59.574219 Z M 17.984375 59.574219 L 17.984375 45.632812 L 15.523438 47.953125 L 15.523438 57.25 L 5.6875 57.25 L 3.226562 59.574219 Z M 17.984375 45.632812 L 17.984375 31.6875 L 15.523438 34.011719 L 15.523438 43.308594 L 5.6875 43.308594 L 3.226562 45.632812 Z M 17.984375 45.632812 L 32.742188 45.632812 L 32.742188 31.6875 L 30.28125 34.011719 L 30.28125 43.308594 L 20.445312 43.308594 Z M 32.742188 31.6875 L 32.742188 17.746094 L 30.28125 20.070312 L 30.28125 29.367188 L 20.445312 29.367188 L 17.984375 31.6875 Z M 32.742188 31.6875 L 47.5 31.6875 L 47.5 17.746094 L 45.039062 20.070312 L 45.039062 29.367188 L 35.203125 29.367188 Z M 47.5 17.746094 L 47.5 3.804688 L 45.039062 6.128906 L 45.039062 15.421875 L 35.203125 15.421875 L 32.742188 17.746094 Z M 47.5 17.746094 L 62.257812 17.746094 L 62.257812 3.804688 L 59.800781 6.128906 L 59.800781 15.421875 L 49.960938 15.421875 Z M 62.257812 17.746094 L 59.800781 20.070312 L 59.800781 29.367188 L 49.960938 29.367188 L 47.5 31.6875 L 62.257812 31.6875 Z M 62.257812 31.6875 L 59.800781 34.011719 L 59.800781 43.308594 L 49.960938 43.308594 L 47.5 45.632812 L 62.257812 45.632812 Z M 47.5 45.632812 L 47.5 31.6875 L 45.039062 34.011719 L 45.039062 43.308594 L 35.203125 43.308594 L 32.742188 45.632812 Z M 32.742188 17.746094 L 32.742188 3.804688 L 30.28125 6.128906 L 30.28125 15.421875 L 20.445312 15.421875 L 17.984375 17.746094 Z M 17.984375 17.746094 L 15.523438 20.070312 L 15.523438 29.367188 L 5.6875 29.367188 L 3.226562 31.6875 L 17.984375 31.6875 Z M 17.984375 17.746094 L 17.984375 3.804688 L 15.523438 6.128906 L 15.523438 15.421875 L 5.6875 15.421875 L 3.226562 17.746094 Z M 17.984375 17.746094 "/></g></svg>
