<svg width="64" height="64" viewBox="0 0 64 64" version="1.1" xmlns:inkscape="http://www.inkscape.org/namespaces/inkscape"><defs><linearGradient id="linear0" gradientUnits="userSpaceOnUse" x1="0" y1="0" x2="0" y2="1" gradientTransform="matrix(64,0,0,50.289063,0,6.855469)"><stop offset="0" style="stop-color:rgb(92.941177%,83.529413%,72.549021%);stop-opacity:1;"/><stop offset="1" style="stop-color:rgb(81.960785%,71.372551%,59.215689%);stop-opacity:1;"/></linearGradient><filter style="color-interpolation-filters:sRGB;" inkscape:label="Diffuse Light" id="filter184" x="-0.0375" y="-0.0375" width="1.075" height="1.075"><feGaussianBlur in="SourceGraphic" stdDeviation="1" result="blur" id="feGaussianBlur174" /><feDiffuseLighting diffuseConstant="1" surfaceScale="10" lighting-color="rgb(255,255,255)" result="diffuse" id="feDiffuseLighting178"><feDistantLight elevation="8" azimuth="235" id="feDistantLight176" /></feDiffuseLighting><feComposite in="diffuse" in2="diffuse" operator="arithmetic" k1="1" result="composite1" id="feComposite180" /><feComposite in="composite1" in2="SourceGraphic" k1="1" operator="arithmetic" k3="1" result="composite2" id="feComposite182" /></filter></defs><g id="surface1" style="filter:url(#filter184)"><path style=" stroke:none;fill-rule:evenodd;fill:url(#linear0);" d="M 32 6.855469 C 14.273438 6.855469 0 22.570312 0 32 C 0 41.429688 14.273438 57.144531 32 57.144531 C 49.726562 57.144531 64 41.429688 64 32 C 64 22.570312 49.726562 6.855469 32 6.855469 Z M 35.445312 20.570312 C 39.890625 20.570312 43.4375 24.125 43.4375 28.566406 C 43.4375 33.011719 39.890625 36.566406 35.445312 36.566406 C 31 36.566406 27.457031 33.011719 27.457031 28.566406 C 27.457031 24.125 31 20.570312 35.445312 20.570312 Z M 35.445312 16 C 28.53125 16 22.820312 21.65625 22.820312 28.566406 C 22.820312 31.195312 23.707031 33.613281 25.105469 35.640625 L 16.683594 44.0625 L 18.128906 49.554688 L 28.3125 38.925781 C 30.335938 40.320312 32.816406 41.136719 35.445312 41.136719 C 42.359375 41.136719 48 35.480469 48 28.566406 C 48 21.65625 42.359375 16 35.445312 16 Z M 35.445312 16 "/></g></svg>
