<svg width="64" height="64" viewBox="0 0 64 64" version="1.1" xmlns:inkscape="http://www.inkscape.org/namespaces/inkscape"><defs><linearGradient id="linear0" gradientUnits="userSpaceOnUse" x1="0" y1="0" x2="0" y2="1" gradientTransform="matrix(64,0,0,64,0,0)"><stop offset="0" style="stop-color:rgb(61.176473%,69.803923%,85.09804%);stop-opacity:1;"/><stop offset="1" style="stop-color:rgb(44.313726%,52.156866%,65.882355%);stop-opacity:1;"/></linearGradient><filter style="color-interpolation-filters:sRGB;" inkscape:label="Diffuse Light" id="filter184" x="-0.0375" y="-0.0375" width="1.075" height="1.075"><feGaussianBlur in="SourceGraphic" stdDeviation="1" result="blur" id="feGaussianBlur174" /><feDiffuseLighting diffuseConstant="1" surfaceScale="10" lighting-color="rgb(255,255,255)" result="diffuse" id="feDiffuseLighting178"><feDistantLight elevation="8" azimuth="235" id="feDistantLight176" /></feDiffuseLighting><feComposite in="diffuse" in2="diffuse" operator="arithmetic" k1="1" result="composite1" id="feComposite180" /><feComposite in="composite1" in2="SourceGraphic" k1="1" operator="arithmetic" k3="1" result="composite2" id="feComposite182" /></filter></defs><g id="surface1" style="filter:url(#filter184)"><path style=" stroke:none;fill-rule:nonzero;fill:url(#linear0);" d="M 50.140625 0 C 56.089844 1.347656 66.253906 3.347656 63.550781 12.398438 C 60.117188 23.902344 50.4375 34.371094 42.429688 42.382812 C 42.421875 42.390625 42.417969 42.394531 42.40625 42.40625 C 42.398438 42.414062 42.394531 42.417969 42.382812 42.429688 C 34.371094 50.441406 23.902344 60.117188 12.398438 63.550781 C 3.347656 66.253906 1.347656 56.089844 0 50.140625 L 19.210938 41.695312 L 26.738281 45.753906 C 29.523438 43.976562 34.332031 39.515625 37.304688 36.542969 C 40.277344 33.570312 44.738281 28.761719 46.515625 25.976562 L 41.695312 19.210938 Z M 50.140625 0 "/></g></svg>
