<svg width="64" height="64" viewBox="0 0 64 64" version="1.1" xmlns:inkscape="http://www.inkscape.org/namespaces/inkscape"><defs><linearGradient id="linear0" gradientUnits="userSpaceOnUse" x1="0" y1="0" x2="0" y2="1" gradientTransform="matrix(62.817933,0,0,38.447286,-4.541303,12.370753)"><stop offset="0" style="stop-color:rgb(0%,78.823531%,36.862746%);stop-opacity:1;"/><stop offset="1" style="stop-color:rgb(0%,54.11765%,25.098041%);stop-opacity:1;"/></linearGradient><filter style="color-interpolation-filters:sRGB;" inkscape:label="Diffuse Light" id="filter184" x="-0.0375" y="-0.0375" width="1.075" height="1.075"><feGaussianBlur in="SourceGraphic" stdDeviation="1" result="blur" id="feGaussianBlur174" /><feDiffuseLighting diffuseConstant="1" surfaceScale="10" lighting-color="rgb(255,255,255)" result="diffuse" id="feDiffuseLighting178"><feDistantLight elevation="8" azimuth="235" id="feDistantLight176" /></feDiffuseLighting><feComposite in="diffuse" in2="diffuse" operator="arithmetic" k1="1" result="composite1" id="feComposite180" /><feComposite in="composite1" in2="SourceGraphic" k1="1" operator="arithmetic" k3="1" result="composite2" id="feComposite182" /></filter></defs><g id="surface1" style="filter:url(#filter184)"><path style=" stroke:none;fill-rule:nonzero;fill:url(#linear0);" d="M 33.191406 0.976562 C 31.59375 5.183594 23.433594 13.566406 16.996094 22.640625 L 28.875 40.558594 L 44.03125 15.597656 C 39.070312 9.417969 34.351562 4.058594 33.171875 0.976562 M 46.289062 18.429688 L 35.867188 34.164062 L 55.898438 34.164062 C 53.902344 28.941406 50.195312 23.480469 46.292969 18.429688 M 15.160156 25.277344 C 11.601562 30.714844 8.929688 36.289062 8.929688 41.273438 C 8.929688 43.773438 9.441406 46.15625 10.335938 48.386719 L 30.484375 48.386719 L 15.15625 25.277344 Z M 43.417969 36.535156 L 54.21875 51.851562 C 56.246094 48.730469 57.421875 45.128906 57.421875 41.273438 C 57.421875 39.75 57.132812 38.152344 56.6875 36.535156 Z M 46.648438 46.015625 L 36.292969 62.410156 C 42.730469 61.679688 48.363281 58.742188 52.195312 54.472656 L 46.644531 46.015625 M 11.484375 50.753906 C 15.296875 57.492188 23.015625 62.1875 32.042969 62.5625 L 39.644531 50.753906 Z M 11.484375 50.753906 "/></g></svg>
