<svg width="64" height="64" viewBox="0 0 64 64" version="1.1" xmlns:inkscape="http://www.inkscape.org/namespaces/inkscape"><defs><linearGradient id="linear0" gradientUnits="userSpaceOnUse" x1="0" y1="0" x2="0" y2="1" gradientTransform="matrix(62.860899,0,0,75.868305,0.833693,-6.2287)"><stop offset="0" style="stop-color:rgb(87.058824%,86.666667%,56.470591%);stop-opacity:1;"/><stop offset="1" style="stop-color:rgb(67.843139%,67.450982%,38.039216%);stop-opacity:1;"/></linearGradient><linearGradient id="linear1" gradientUnits="userSpaceOnUse" x1="0" y1="0" x2="0" y2="1" gradientTransform="matrix(62.860899,0,0,75.868305,0.833693,-6.2287)"><stop offset="0" style="stop-color:rgb(87.058824%,86.666667%,56.470591%);stop-opacity:1;"/><stop offset="1" style="stop-color:rgb(67.843139%,67.450982%,38.039216%);stop-opacity:1;"/></linearGradient><filter style="color-interpolation-filters:sRGB;" inkscape:label="Diffuse Light" id="filter184" x="-0.0375" y="-0.0375" width="1.075" height="1.075"><feGaussianBlur in="SourceGraphic" stdDeviation="1" result="blur" id="feGaussianBlur174" /><feDiffuseLighting diffuseConstant="1" surfaceScale="10" lighting-color="rgb(255,255,255)" result="diffuse" id="feDiffuseLighting178"><feDistantLight elevation="8" azimuth="235" id="feDistantLight176" /></feDiffuseLighting><feComposite in="diffuse" in2="diffuse" operator="arithmetic" k1="1" result="composite1" id="feComposite180" /><feComposite in="composite1" in2="SourceGraphic" k1="1" operator="arithmetic" k3="1" result="composite2" id="feComposite182" /></filter></defs><g id="surface1" style="filter:url(#filter184)"><path style=" stroke:none;fill-rule:nonzero;fill:url(#linear0);" d="M 27.601562 35.167969 C 27.410156 35.132812 26.011719 36.5 25.414062 37.703125 C 22.222656 36.5 19.34375 37.265625 18.160156 38.523438 C 14.28125 43.136719 12.542969 48.292969 9.757812 50.480469 C 5.835938 51.523438 3.140625 46.773438 1.316406 47.851562 C 1.722656 55.429688 12.359375 60.742188 12.359375 60.742188 C 27.832031 66.222656 32.167969 55.910156 32.167969 55.910156 C 34.355469 51.523438 32.992188 46.820312 32.992188 46.820312 C 33.96875 46.660156 35.652344 44.6875 35.355469 44.464844 C 33.871094 40.902344 30.128906 36.214844 27.601562 35.171875 "/><path style=" stroke:none;fill-rule:nonzero;fill:url(#linear1);" d="M 28.808594 33.828125 C 28.808594 33.828125 58.578125 -0.152344 60.367188 1.582031 C 61.035156 1.132812 63.597656 4.386719 63.273438 5.140625 C 64.671875 7.324219 36.484375 42.988281 36.484375 42.988281 C 33.792969 38.472656 32.015625 36.308594 28.800781 33.832031 "/></g></svg>
