<svg width="64" height="64" viewBox="0 0 64 64" version="1.1" xmlns:inkscape="http://www.inkscape.org/namespaces/inkscape"><defs><linearGradient id="linear0" gradientUnits="userSpaceOnUse" x1="0" y1="0" x2="0" y2="1" gradientTransform="matrix(78.816508,0,0,78.76231,-7.611229,-7.669298)"><stop offset="0" style="stop-color:rgb(100%,73.333335%,0%);stop-opacity:1;"/><stop offset="1" style="stop-color:rgb(70.19608%,51.372552%,0%);stop-opacity:1;"/></linearGradient><linearGradient id="linear1" gradientUnits="userSpaceOnUse" x1="0" y1="0" x2="0" y2="1" gradientTransform="matrix(78.816508,0,0,78.76231,-7.611229,-7.669298)"><stop offset="0" style="stop-color:rgb(100%,73.333335%,0%);stop-opacity:1;"/><stop offset="1" style="stop-color:rgb(70.19608%,51.372552%,0%);stop-opacity:1;"/></linearGradient><linearGradient id="linear2" gradientUnits="userSpaceOnUse" x1="0" y1="0" x2="0" y2="1" gradientTransform="matrix(78.816508,0,0,78.76231,-7.611229,-7.669298)"><stop offset="0" style="stop-color:rgb(100%,73.333335%,0%);stop-opacity:1;"/><stop offset="1" style="stop-color:rgb(70.19608%,51.372552%,0%);stop-opacity:1;"/></linearGradient><filter style="color-interpolation-filters:sRGB;" inkscape:label="Diffuse Light" id="filter184" x="-0.0375" y="-0.0375" width="1.075" height="1.075"><feGaussianBlur in="SourceGraphic" stdDeviation="1" result="blur" id="feGaussianBlur174" /><feDiffuseLighting diffuseConstant="1" surfaceScale="10" lighting-color="rgb(255,255,255)" result="diffuse" id="feDiffuseLighting178"><feDistantLight elevation="8" azimuth="235" id="feDistantLight176" /></feDiffuseLighting><feComposite in="diffuse" in2="diffuse" operator="arithmetic" k1="1" result="composite1" id="feComposite180" /><feComposite in="composite1" in2="SourceGraphic" k1="1" operator="arithmetic" k3="1" result="composite2" id="feComposite182" /></filter></defs><g id="surface1" style="filter:url(#filter184)"><path style=" stroke:none;fill-rule:evenodd;fill:url(#linear0);" d="M 9.980469 23.8125 L 2.191406 30.933594 L 3.371094 61.96875 L 62.796875 60.3125 L 61.355469 22.378906 L 9.972656 23.8125 M 13.800781 38.097656 L 50.574219 37.070312 L 50.652344 39.226562 L 13.882812 40.25 Z M 14.089844 45.789062 L 50.859375 44.761719 L 50.949219 46.917969 L 14.179688 47.941406 Z M 14.089844 45.789062 "/><path style=" stroke:none;fill-rule:evenodd;fill:url(#linear1);" d="M 1.121094 15.300781 L 1.472656 22.589844 L 1.8125 29.480469 L 9.515625 22.285156 L 9.742188 22.074219 L 1.121094 15.300781 "/><path style=" stroke:none;fill-rule:evenodd;fill:url(#linear2);" d="M 0.949219 12.667969 L 1.339844 14.097656 L 11.308594 19.546875 L 11.140625 19.785156 L 61.117188 10.503906 L 58.761719 1.929688 L 0.949219 12.667969 M 13.199219 11.34375 L 19.605469 10.160156 L 23.714844 16.761719 L 17.320312 17.953125 L 13.199219 11.34375 M 28.785156 8.449219 L 35.183594 7.261719 L 39.292969 13.878906 L 32.898438 15.058594 Z M 43.761719 5.675781 L 50.167969 4.484375 L 54.273438 11.09375 L 47.878906 12.28125 L 43.761719 5.675781 "/></g></svg>
