<svg width="64" height="64" viewBox="0 0 64 64" version="1.1" xmlns:inkscape="http://www.inkscape.org/namespaces/inkscape"><defs><linearGradient id="linear0" gradientUnits="userSpaceOnUse" x1="0" y1="0" x2="0" y2="1" gradientTransform="matrix(122.883888,0,0,62.223278,-29.678907,1.601789)"><stop offset="0" style="stop-color:rgb(100%,56.862748%,82.745099%);stop-opacity:1;"/><stop offset="1" style="stop-color:rgb(100%,0%,60.000002%);stop-opacity:1;"/></linearGradient><linearGradient id="linear1" gradientUnits="userSpaceOnUse" x1="0" y1="0" x2="0" y2="1" gradientTransform="matrix(122.883888,0,0,62.223278,-29.678907,1.601789)"><stop offset="0" style="stop-color:rgb(100%,56.862748%,82.745099%);stop-opacity:1;"/><stop offset="1" style="stop-color:rgb(100%,0%,60.000002%);stop-opacity:1;"/></linearGradient><linearGradient id="linear2" gradientUnits="userSpaceOnUse" x1="0" y1="0" x2="0" y2="1" gradientTransform="matrix(122.883888,0,0,62.223278,-29.678907,1.601789)"><stop offset="0" style="stop-color:rgb(100%,56.862748%,82.745099%);stop-opacity:1;"/><stop offset="1" style="stop-color:rgb(100%,0%,60.000002%);stop-opacity:1;"/></linearGradient><linearGradient id="linear3" gradientUnits="userSpaceOnUse" x1="0" y1="0" x2="0" y2="1" gradientTransform="matrix(122.883888,0,0,62.223278,-29.678907,1.601789)"><stop offset="0" style="stop-color:rgb(100%,56.862748%,82.745099%);stop-opacity:1;"/><stop offset="1" style="stop-color:rgb(100%,0%,60.000002%);stop-opacity:1;"/></linearGradient><linearGradient id="linear4" gradientUnits="userSpaceOnUse" x1="0" y1="0" x2="0" y2="1" gradientTransform="matrix(122.883888,0,0,62.223278,-29.678907,1.601789)"><stop offset="0" style="stop-color:rgb(100%,56.862748%,82.745099%);stop-opacity:1;"/><stop offset="1" style="stop-color:rgb(100%,0%,60.000002%);stop-opacity:1;"/></linearGradient><filter style="color-interpolation-filters:sRGB;" inkscape:label="Diffuse Light" id="filter184" x="-0.0375" y="-0.0375" width="1.075" height="1.075"><feGaussianBlur in="SourceGraphic" stdDeviation="1" result="blur" id="feGaussianBlur174" /><feDiffuseLighting diffuseConstant="1" surfaceScale="10" lighting-color="rgb(255,255,255)" result="diffuse" id="feDiffuseLighting178"><feDistantLight elevation="8" azimuth="235" id="feDistantLight176" /></feDiffuseLighting><feComposite in="diffuse" in2="diffuse" operator="arithmetic" k1="1" result="composite1" id="feComposite180" /><feComposite in="composite1" in2="SourceGraphic" k1="1" operator="arithmetic" k3="1" result="composite2" id="feComposite182" /></filter></defs><g id="surface1" style="filter:url(#filter184)"><path style=" stroke:none;fill-rule:nonzero;fill:url(#linear0);" d="M 14.207031 44.273438 L 49.316406 44.273438 C 50.9375 44.273438 52.242188 45.300781 52.242188 46.582031 L 52.242188 53.515625 C 52.242188 54.792969 50.9375 55.824219 49.316406 55.824219 L 14.207031 55.824219 C 12.589844 55.824219 11.285156 54.792969 11.285156 53.515625 L 11.285156 46.582031 C 11.285156 45.300781 12.589844 44.273438 14.207031 44.273438 Z M 14.207031 44.273438 "/><path style=" stroke:none;fill-rule:nonzero;fill:url(#linear1);" d="M 14.207031 9.605469 L 49.316406 9.605469 C 50.9375 9.605469 52.242188 10.636719 52.242188 11.914062 L 52.242188 18.847656 C 52.242188 20.128906 50.9375 21.15625 49.316406 21.15625 L 14.207031 21.15625 C 12.589844 21.15625 11.285156 20.128906 11.285156 18.847656 L 11.285156 11.914062 C 11.285156 10.636719 12.589844 9.605469 14.207031 9.605469 Z M 14.207031 9.605469 "/><path style=" stroke:none;fill-rule:nonzero;fill:url(#linear2);" d="M 28.839844 3.824219 L 34.6875 3.824219 L 34.6875 61.605469 L 28.839844 61.605469 Z M 28.839844 3.824219 "/><path style=" stroke:none;fill-rule:nonzero;fill:url(#linear3);" d="M 19.460938 16.121094 L 16.539062 18.429688 L 16.539062 20.738281 L 22.386719 25.363281 L 39.941406 25.363281 L 45.792969 20.738281 L 45.792969 18.429688 L 42.871094 16.121094 Z M 16.539062 23.054688 L 16.539062 32.296875 L 22.386719 32.296875 L 22.386719 27.671875 Z M 45.792969 23.054688 L 39.941406 27.671875 L 39.941406 32.296875 L 45.792969 32.296875 Z M 16.539062 34.605469 L 16.539062 43.851562 L 22.386719 39.226562 L 22.386719 34.605469 Z M 39.941406 34.605469 L 39.941406 39.226562 L 45.792969 43.851562 L 45.792969 34.605469 Z M 22.386719 41.539062 L 16.539062 46.160156 L 19.460938 48.46875 L 42.871094 48.46875 L 45.792969 46.160156 L 39.941406 41.539062 Z M 22.386719 41.539062 "/><path style=" stroke:none;fill-rule:nonzero;fill:url(#linear4);" d="M 17.132812 2.671875 L 14.207031 4.980469 L 49.316406 4.980469 L 46.394531 2.671875 Z M 14.207031 60.449219 L 17.132812 62.757812 L 46.394531 62.757812 L 49.316406 60.449219 Z M 14.207031 60.449219 "/></g></svg>
