<svg width="64" height="64" viewBox="0 0 64 64" version="1.1" xmlns:inkscape="http://www.inkscape.org/namespaces/inkscape"><defs><linearGradient id="linear0" gradientUnits="userSpaceOnUse" x1="0" y1="0" x2="0" y2="1" gradientTransform="matrix(64,0,0,51.199219,0,8)"><stop offset="0" style="stop-color:rgb(87.058824%,86.666667%,56.470591%);stop-opacity:1;"/><stop offset="1" style="stop-color:rgb(67.843139%,67.450982%,38.039216%);stop-opacity:1;"/></linearGradient><filter style="color-interpolation-filters:sRGB;" inkscape:label="Diffuse Light" id="filter184" x="-0.0375" y="-0.0375" width="1.075" height="1.075"><feGaussianBlur in="SourceGraphic" stdDeviation="1" result="blur" id="feGaussianBlur174" /><feDiffuseLighting diffuseConstant="1" surfaceScale="10" lighting-color="rgb(255,255,255)" result="diffuse" id="feDiffuseLighting178"><feDistantLight elevation="8" azimuth="235" id="feDistantLight176" /></feDiffuseLighting><feComposite in="diffuse" in2="diffuse" operator="arithmetic" k1="1" result="composite1" id="feComposite180" /><feComposite in="composite1" in2="SourceGraphic" k1="1" operator="arithmetic" k3="1" result="composite2" id="feComposite182" /></filter></defs><g id="surface1" style="filter:url(#filter184)"><path style=" stroke:none;fill-rule:evenodd;fill:url(#linear0);" d="M 15.269531 8 L 23.765625 8 L 41.761719 33.601562 L 25.296875 56.800781 L 28.0625 56.800781 L 44.214844 33.597656 L 26.574219 8 L 35.042969 8 L 52.507812 33.601562 L 36.679688 56.800781 L 39.160156 56.800781 L 55.25 33.601562 L 64 33.601562 L 64 36 L 56.507812 36 L 40.417969 59.199219 L 32.136719 59.199219 L 49.605469 33.601562 L 33.773438 10.398438 L 31.144531 10.398438 L 47.136719 33.601562 L 29.316406 59.199219 L 20.648438 59.199219 L 38.824219 33.597656 L 22.519531 10.398438 L 19.800781 10.398438 L 35.609375 33.679688 L 0 33.679688 L 0 31.28125 L 31.078125 31.28125 Z M 15.269531 8 "/></g></svg>
