<svg width="64" height="64" viewBox="0 0 64 64" version="1.1" xmlns:inkscape="http://www.inkscape.org/namespaces/inkscape"><defs><linearGradient id="linear0" gradientUnits="userSpaceOnUse" x1="0" y1="0" x2="0" y2="1" gradientTransform="matrix(61.937956,0,0,67.605092,2.270836,-1.475898)"><stop offset="0" style="stop-color:rgb(100%,73.333335%,0%);stop-opacity:1;"/><stop offset="1" style="stop-color:rgb(70.19608%,51.372552%,0%);stop-opacity:1;"/></linearGradient><filter style="color-interpolation-filters:sRGB;" inkscape:label="Diffuse Light" id="filter184" x="-0.0375" y="-0.0375" width="1.075" height="1.075"><feGaussianBlur in="SourceGraphic" stdDeviation="1" result="blur" id="feGaussianBlur174" /><feDiffuseLighting diffuseConstant="1" surfaceScale="10" lighting-color="rgb(255,255,255)" result="diffuse" id="feDiffuseLighting178"><feDistantLight elevation="8" azimuth="235" id="feDistantLight176" /></feDiffuseLighting><feComposite in="diffuse" in2="diffuse" operator="arithmetic" k1="1" result="composite1" id="feComposite180" /><feComposite in="composite1" in2="SourceGraphic" k1="1" operator="arithmetic" k3="1" result="composite2" id="feComposite182" /></filter></defs><g id="surface1" style="filter:url(#filter184)"><path style=" stroke:none;fill-rule:nonzero;fill:url(#linear0);" d="M 36.605469 1.453125 C 35.507812 1.453125 34.621094 2.417969 34.621094 3.617188 L 34.621094 23.503906 C 34.621094 24.695312 35.507812 25.660156 36.605469 25.660156 L 60.347656 25.660156 C 61.441406 25.660156 62.335938 24.695312 62.335938 23.503906 L 62.335938 3.617188 C 62.335938 2.417969 61.441406 1.453125 60.347656 1.453125 Z M 3.199219 11.613281 C 2.097656 11.613281 1.210938 12.582031 1.210938 13.773438 L 1.210938 30.519531 C 1.210938 31.722656 2.097656 32.679688 3.199219 32.679688 L 21.5 32.679688 C 22.597656 32.679688 23.484375 31.722656 23.484375 30.519531 L 23.484375 13.773438 C 23.484375 12.582031 22.597656 11.613281 21.5 11.613281 Z M 25.171875 38.359375 C 24.074219 38.359375 23.179688 39.320312 23.179688 40.519531 L 23.179688 60.035156 C 23.179688 61.230469 24.074219 62.195312 25.171875 62.195312 L 51.292969 62.195312 C 52.394531 62.195312 53.285156 61.230469 53.285156 60.035156 L 53.285156 40.519531 C 53.285156 39.320312 52.394531 38.359375 51.292969 38.359375 Z M 25.171875 38.359375 "/></g></svg>
