<svg width="64" height="64" viewBox="0 0 64 64" version="1.1" xmlns:inkscape="http://www.inkscape.org/namespaces/inkscape"><defs><linearGradient id="linear0" gradientUnits="userSpaceOnUse" x1="0" y1="0" x2="0" y2="1" gradientTransform="matrix(59.766982,0,0,42.176199,4.126127,7.375202)"><stop offset="0" style="stop-color:rgb(0%,78.823531%,36.862746%);stop-opacity:1;"/><stop offset="1" style="stop-color:rgb(0%,54.11765%,25.098041%);stop-opacity:1;"/></linearGradient><linearGradient id="linear1" gradientUnits="userSpaceOnUse" x1="0" y1="0" x2="0" y2="1" gradientTransform="matrix(59.766982,0,0,42.176199,4.126127,7.375202)"><stop offset="0" style="stop-color:rgb(0%,78.823531%,36.862746%);stop-opacity:1;"/><stop offset="1" style="stop-color:rgb(0%,54.11765%,25.098041%);stop-opacity:1;"/></linearGradient><filter style="color-interpolation-filters:sRGB;" inkscape:label="Diffuse Light" id="filter184" x="-0.0375" y="-0.0375" width="1.075" height="1.075"><feGaussianBlur in="SourceGraphic" stdDeviation="1" result="blur" id="feGaussianBlur174" /><feDiffuseLighting diffuseConstant="1" surfaceScale="10" lighting-color="rgb(255,255,255)" result="diffuse" id="feDiffuseLighting178"><feDistantLight elevation="8" azimuth="235" id="feDistantLight176" /></feDiffuseLighting><feComposite in="diffuse" in2="diffuse" operator="arithmetic" k1="1" result="composite1" id="feComposite180" /><feComposite in="composite1" in2="SourceGraphic" k1="1" operator="arithmetic" k3="1" result="composite2" id="feComposite182" /></filter></defs><g id="surface1" style="filter:url(#filter184)"><path style=" stroke:none;fill-rule:nonzero;fill:url(#linear0);" d="M 40.664062 2.777344 L 38.328125 19.519531 L 25.484375 20.914062 L 25.484375 9.753906 C 25.484375 8.980469 24.960938 8.355469 24.3125 8.355469 L 20.808594 8.355469 L 2.125 47.425781 L 2.125 48.820312 C 2.125 49.597656 2.644531 50.21875 3.292969 50.21875 L 9.019531 50.21875 L 13.800781 61.375 L 16.140625 61.375 L 16.140625 50.21875 L 48.839844 50.21875 L 48.839844 61.375 L 51.171875 61.382812 L 55.960938 50.21875 L 61.683594 50.21875 C 62.332031 50.21875 62.851562 49.597656 62.851562 48.820312 L 62.851562 46.03125 C 62.851562 45.261719 62.332031 44.636719 61.683594 44.636719 L 58.179688 44.636719 L 58.179688 12.542969 C 58.179688 11.773438 57.660156 11.148438 57.015625 11.148438 L 48.839844 11.148438 L 48.839844 4.171875 C 48.839844 3.402344 48.316406 2.777344 47.671875 2.777344 Z M 11.554688 50.21875 L 13.800781 50.21875 L 13.800781 55.792969 Z M 51.171875 50.21875 L 53.425781 50.21875 L 51.171875 55.796875 Z M 51.171875 50.21875 "/><path style=" stroke:none;fill-rule:nonzero;fill:url(#linear1);" d="M 41.125 3.625 L 41.125 45.351562 L 46.664062 45.351562 L 46.664062 5.015625 C 46.664062 4.246094 46.046875 3.625 45.277344 3.625 Z M 13.449219 9.1875 L 13.449219 45.351562 L 18.984375 45.351562 L 18.984375 10.578125 C 18.984375 9.808594 18.367188 9.1875 17.601562 9.1875 Z M 52.199219 11.96875 L 52.199219 45.351562 L 57.734375 45.351562 L 57.734375 13.359375 C 57.734375 12.589844 57.117188 11.96875 56.351562 11.96875 Z M 2.375 17.535156 L 2.375 45.351562 L 7.910156 45.351562 L 7.910156 18.925781 C 7.910156 18.15625 7.292969 17.535156 6.527344 17.535156 Z M 27.289062 20.316406 L 27.289062 45.351562 L 35.59375 45.351562 L 35.59375 21.707031 C 35.59375 20.9375 34.972656 20.316406 34.210938 20.316406 Z M 27.289062 20.316406 "/></g></svg>
