<svg width="64" height="64" viewBox="0 0 64 64" version="1.1" xmlns:inkscape="http://www.inkscape.org/namespaces/inkscape"><defs><linearGradient id="linear0" gradientUnits="userSpaceOnUse" x1="0" y1="0" x2="0" y2="1" gradientTransform="matrix(61.856082,0,0,44.537446,-0.235527,9.035066)"><stop offset="0" style="stop-color:rgb(81.960785%,70.980394%,59.215689%);stop-opacity:1;"/><stop offset="1" style="stop-color:rgb(65.098041%,53.725493%,41.568628%);stop-opacity:1;"/></linearGradient><filter style="color-interpolation-filters:sRGB;" inkscape:label="Diffuse Light" id="filter184" x="-0.0375" y="-0.0375" width="1.075" height="1.075"><feGaussianBlur in="SourceGraphic" stdDeviation="1" result="blur" id="feGaussianBlur174" /><feDiffuseLighting diffuseConstant="1" surfaceScale="10" lighting-color="rgb(255,255,255)" result="diffuse" id="feDiffuseLighting178"><feDistantLight elevation="8" azimuth="235" id="feDistantLight176" /></feDiffuseLighting><feComposite in="diffuse" in2="diffuse" operator="arithmetic" k1="1" result="composite1" id="feComposite180" /><feComposite in="composite1" in2="SourceGraphic" k1="1" operator="arithmetic" k3="1" result="composite2" id="feComposite182" /></filter></defs><g id="surface1" style="filter:url(#filter184)"><path style=" stroke:none;fill-rule:nonzero;fill:url(#linear0);" d="M 5.398438 1.824219 L 5.398438 25.589844 L 1.007812 32.578125 L 5.398438 39.566406 L 5.398438 63.335938 L 15.195312 50.882812 C 19.363281 57.003906 25.410156 60.53125 31.78125 60.542969 C 38.148438 60.535156 44.203125 57.011719 48.375 50.890625 L 58.15625 63.34375 L 58.15625 39.570312 L 62.550781 32.582031 L 58.15625 25.59375 L 58.15625 1.828125 L 48.367188 14.285156 C 44.199219 8.164062 38.148438 4.632812 31.78125 4.625 C 25.410156 4.632812 19.363281 8.152344 15.191406 14.273438 L 5.398438 1.824219 "/></g></svg>
