<svg width="64" height="64" viewBox="0 0 64 64" version="1.1" xmlns:inkscape="http://www.inkscape.org/namespaces/inkscape"><defs><linearGradient id="linear0" gradientUnits="userSpaceOnUse" x1="0" y1="0" x2="0" y2="1" gradientTransform="matrix(61.193296,0,0,40.708745,0.552232,11.804383)"><stop offset="0" style="stop-color:rgb(82.352942%,61.176473%,100%);stop-opacity:1;"/><stop offset="1" style="stop-color:rgb(66.666669%,0%,100%);stop-opacity:1;"/></linearGradient><linearGradient id="linear1" gradientUnits="userSpaceOnUse" x1="0" y1="0" x2="0" y2="1" gradientTransform="matrix(61.193296,0,0,40.708745,0.552232,11.804383)"><stop offset="0" style="stop-color:rgb(82.352942%,61.176473%,100%);stop-opacity:1;"/><stop offset="1" style="stop-color:rgb(66.666669%,0%,100%);stop-opacity:1;"/></linearGradient><linearGradient id="linear2" gradientUnits="userSpaceOnUse" x1="0" y1="0" x2="0" y2="1" gradientTransform="matrix(61.193296,0,0,40.708745,0.552232,11.804383)"><stop offset="0" style="stop-color:rgb(82.352942%,61.176473%,100%);stop-opacity:1;"/><stop offset="1" style="stop-color:rgb(66.666669%,0%,100%);stop-opacity:1;"/></linearGradient><filter style="color-interpolation-filters:sRGB;" inkscape:label="Diffuse Light" id="filter184" x="-0.0375" y="-0.0375" width="1.075" height="1.075"><feGaussianBlur in="SourceGraphic" stdDeviation="1" result="blur" id="feGaussianBlur174" /><feDiffuseLighting diffuseConstant="1" surfaceScale="10" lighting-color="rgb(255,255,255)" result="diffuse" id="feDiffuseLighting178"><feDistantLight elevation="8" azimuth="235" id="feDistantLight176" /></feDiffuseLighting><feComposite in="diffuse" in2="diffuse" operator="arithmetic" k1="1" result="composite1" id="feComposite180" /><feComposite in="composite1" in2="SourceGraphic" k1="1" operator="arithmetic" k3="1" result="composite2" id="feComposite182" /></filter></defs><g id="surface1" style="filter:url(#filter184)"><path style=" stroke:none;fill-rule:nonzero;fill:url(#linear0);" d="M 1.660156 1.125 L 1.660156 37.269531 L 10 45.613281 L 23.890625 28.230469 L 29.449219 34.484375 L 45.421875 9.464844 L 53.757812 18.507812 L 62.792969 5.992188 L 62.792969 1.125 Z M 1.660156 1.125 "/><path style=" stroke:none;fill-rule:nonzero;fill:url(#linear1);" d="M 62.792969 40.046875 L 51.671875 56.730469 L 37.785156 49.785156 L 18.332031 62.292969 L 62.792969 62.292969 Z M 62.792969 40.046875 "/><path style=" stroke:none;fill-rule:nonzero;fill:url(#linear2);" d="M 62.792969 11.546875 L 54.460938 23.367188 L 46.121094 15.023438 L 30.140625 40.046875 L 23.890625 33.792969 L 10 51.167969 L 1.660156 42.824219 L 1.660156 62.292969 L 12.082031 62.292969 L 37.785156 45.613281 L 50.289062 52.5625 L 62.792969 34.484375 Z M 62.792969 11.546875 "/></g></svg>
