<svg width="64" height="64" viewBox="0 0 64 64" version="1.1" xmlns:inkscape="http://www.inkscape.org/namespaces/inkscape"><defs><linearGradient id="linear0" gradientUnits="userSpaceOnUse" x1="0" y1="0" x2="0" y2="1" gradientTransform="matrix(57.870023,0,0,37.163612,2.024839,14.412436)"><stop offset="0" style="stop-color:rgb(100%,73.333335%,0%);stop-opacity:1;"/><stop offset="1" style="stop-color:rgb(70.19608%,51.372552%,0%);stop-opacity:1;"/></linearGradient><linearGradient id="linear1" gradientUnits="userSpaceOnUse" x1="0" y1="0" x2="0" y2="1" gradientTransform="matrix(57.870023,0,0,37.163612,2.024839,14.412436)"><stop offset="0" style="stop-color:rgb(100%,73.333335%,0%);stop-opacity:1;"/><stop offset="1" style="stop-color:rgb(70.19608%,51.372552%,0%);stop-opacity:1;"/></linearGradient><linearGradient id="linear2" gradientUnits="userSpaceOnUse" x1="0" y1="0" x2="0" y2="1" gradientTransform="matrix(57.870023,0,0,37.163612,2.024839,14.412436)"><stop offset="0" style="stop-color:rgb(100%,73.333335%,0%);stop-opacity:1;"/><stop offset="1" style="stop-color:rgb(70.19608%,51.372552%,0%);stop-opacity:1;"/></linearGradient><filter style="color-interpolation-filters:sRGB;" inkscape:label="Diffuse Light" id="filter184" x="-0.0375" y="-0.0375" width="1.075" height="1.075"><feGaussianBlur in="SourceGraphic" stdDeviation="1" result="blur" id="feGaussianBlur174" /><feDiffuseLighting diffuseConstant="1" surfaceScale="10" lighting-color="rgb(255,255,255)" result="diffuse" id="feDiffuseLighting178"><feDistantLight elevation="8" azimuth="235" id="feDistantLight176" /></feDiffuseLighting><feComposite in="diffuse" in2="diffuse" operator="arithmetic" k1="1" result="composite1" id="feComposite180" /><feComposite in="composite1" in2="SourceGraphic" k1="1" operator="arithmetic" k3="1" result="composite2" id="feComposite182" /></filter></defs><g id="surface1" style="filter:url(#filter184)"><path style=" stroke:none;fill-rule:nonzero;fill:url(#linear0);" d="M 27.386719 42.941406 L 27.386719 50.574219 L 29.757812 50.574219 L 29.757812 55.664062 L 34.5 55.664062 L 34.5 50.574219 L 36.875 50.574219 L 36.875 42.941406 Z M 27.386719 42.941406 "/><path style=" stroke:none;fill-rule:nonzero;fill:url(#linear1);" d="M 8.484375 9.183594 L 8.484375 39.707031 L 17.96875 39.707031 L 17.96875 32.078125 L 27.457031 32.078125 L 27.457031 9.183594 Z M 36.945312 9.183594 L 36.945312 32.078125 L 46.433594 32.078125 L 46.433594 39.707031 L 55.917969 39.707031 L 55.917969 9.183594 Z M 8.484375 49.882812 L 8.484375 62.601562 L 55.917969 62.601562 L 55.917969 49.882812 L 46.433594 49.882812 L 46.433594 57.511719 L 17.96875 57.511719 L 17.96875 49.882812 Z M 8.484375 49.882812 "/><path style=" stroke:none;fill-rule:nonzero;fill:url(#linear2);" d="M 1.472656 3.789062 L 1.472656 21.589844 L 8.589844 21.589844 L 8.589844 3.789062 Z M 27.566406 3.789062 L 27.566406 21.589844 L 37.050781 21.589844 L 37.050781 3.789062 Z M 56.03125 3.789062 L 56.03125 21.589844 L 63.148438 21.589844 L 63.148438 3.789062 Z M 18.074219 29.226562 L 18.074219 41.945312 L 22.816406 41.945312 L 22.816406 29.226562 Z M 41.796875 29.226562 L 41.796875 41.945312 L 46.539062 41.945312 L 46.539062 29.226562 Z M 41.796875 29.226562 "/></g></svg>
