<svg width="64" height="64" viewBox="0 0 64 64" version="1.1" xmlns:inkscape="http://www.inkscape.org/namespaces/inkscape"><defs><linearGradient id="linear0" gradientUnits="userSpaceOnUse" x1="0" y1="0" x2="0" y2="1" gradientTransform="matrix(9.625,0,0,5.238281,0,58.761719)"><stop offset="0" style="stop-color:rgb(61.176473%,69.803923%,85.09804%);stop-opacity:1;"/><stop offset="1" style="stop-color:rgb(44.313726%,52.156866%,65.882355%);stop-opacity:1;"/></linearGradient><linearGradient id="linear1" gradientUnits="userSpaceOnUse" x1="0" y1="0" x2="0" y2="1" gradientTransform="matrix(46.453125,0,0,43.875,5.359375,20.1875)"><stop offset="0" style="stop-color:rgb(61.176473%,69.803923%,85.09804%);stop-opacity:1;"/><stop offset="1" style="stop-color:rgb(44.313726%,52.156866%,65.882355%);stop-opacity:1;"/></linearGradient><linearGradient id="linear2" gradientUnits="userSpaceOnUse" x1="0" y1="0" x2="0" y2="1" gradientTransform="matrix(28.023438,0,0,24.289062,23.625,14.742188)"><stop offset="0" style="stop-color:rgb(61.176473%,69.803923%,85.09804%);stop-opacity:1;"/><stop offset="1" style="stop-color:rgb(44.313726%,52.156866%,65.882355%);stop-opacity:1;"/></linearGradient><linearGradient id="linear3" gradientUnits="userSpaceOnUse" x1="0" y1="0" x2="0" y2="1" gradientTransform="matrix(31.785156,0,0,23.902344,15.84375,12.578125)"><stop offset="0" style="stop-color:rgb(61.176473%,69.803923%,85.09804%);stop-opacity:1;"/><stop offset="1" style="stop-color:rgb(44.313726%,52.156866%,65.882355%);stop-opacity:1;"/></linearGradient><linearGradient id="linear4" gradientUnits="userSpaceOnUse" x1="0" y1="0" x2="0" y2="1" gradientTransform="matrix(12.667969,0,0,15.683594,48.355469,0.0625)"><stop offset="0" style="stop-color:rgb(61.176473%,69.803923%,85.09804%);stop-opacity:1;"/><stop offset="1" style="stop-color:rgb(44.313726%,52.156866%,65.882355%);stop-opacity:1;"/></linearGradient><linearGradient id="linear5" gradientUnits="userSpaceOnUse" x1="0" y1="0" x2="0" y2="1" gradientTransform="matrix(8.492188,0,0,11.695313,55.570312,2.738281)"><stop offset="0" style="stop-color:rgb(61.176473%,69.803923%,85.09804%);stop-opacity:1;"/><stop offset="1" style="stop-color:rgb(44.313726%,52.156866%,65.882355%);stop-opacity:1;"/></linearGradient><filter style="color-interpolation-filters:sRGB;" inkscape:label="Diffuse Light" id="filter184" x="-0.0375" y="-0.0375" width="1.075" height="1.075"><feGaussianBlur in="SourceGraphic" stdDeviation="1" result="blur" id="feGaussianBlur174" /><feDiffuseLighting diffuseConstant="1" surfaceScale="10" lighting-color="rgb(255,255,255)" result="diffuse" id="feDiffuseLighting178"><feDistantLight elevation="8" azimuth="235" id="feDistantLight176" /></feDiffuseLighting><feComposite in="diffuse" in2="diffuse" operator="arithmetic" k1="1" result="composite1" id="feComposite180" /><feComposite in="composite1" in2="SourceGraphic" k1="1" operator="arithmetic" k3="1" result="composite2" id="feComposite182" /></filter></defs><g id="surface1" style="filter:url(#filter184)"><path style=" stroke:none;fill-rule:nonzero;fill:url(#linear0);" d="M 0 63.9375 L 4.234375 58.761719 L 9.625 64 Z M 0 63.9375 "/><path style=" stroke:none;fill-rule:nonzero;fill:url(#linear1);" d="M 5.359375 57.828125 L 11.28125 64.0625 C 11.496094 62.390625 10.707031 60.425781 9.929688 57.722656 C 23.3125 54.8125 46.3125 34.0625 51.8125 20.1875 L 29.765625 39.21875 C 27.0625 40.503906 24.511719 41.03125 22.078125 40.78125 Z M 5.359375 57.828125 "/><path style=" stroke:none;fill-rule:nonzero;fill:url(#linear2);" d="M 27.6875 34.960938 L 23.625 39.03125 C 28.253906 39.03125 28.753906 38.5 30.074219 37.347656 L 51.050781 18.640625 C 53.132812 16.871094 49.289062 13.234375 47.003906 15.421875 Z M 27.6875 34.960938 "/><path style=" stroke:none;fill-rule:nonzero;fill:url(#linear3);" d="M 26.335938 34.023438 C 23.78125 36.09375 20.3125 36.71875 15.84375 36.40625 L 22.390625 30.179688 C 35.59375 16.625 44.148438 10.847656 47.628906 13.027344 Z M 26.335938 34.023438 "/><path style=" stroke:none;fill-rule:nonzero;fill:url(#linear4);" d="M 53.652344 9.445312 L 59.261719 15.421875 C 53.339844 16.871094 47.785156 13.289062 48.402344 7.625 C 49.964844 -1.003906 58.636719 -1.316406 61.023438 2.0625 C 58.878906 4.175781 56.421875 6.636719 53.652344 9.445312 Z M 53.652344 9.445312 "/><path style=" stroke:none;fill-rule:nonzero;fill:url(#linear5);" d="M 60.765625 14.433594 L 55.570312 9.234375 L 62.371094 2.738281 C 65.332031 7.105469 64.152344 11.777344 60.765625 14.433594 Z M 60.765625 14.433594 "/></g></svg>
