<svg width="64" height="64" viewBox="0 0 64 64" version="1.1" xmlns:inkscape="http://www.inkscape.org/namespaces/inkscape"><defs><linearGradient id="linear0" gradientUnits="userSpaceOnUse" x1="0" y1="0" x2="0" y2="1" gradientTransform="matrix(63.922237,0,0,42.671132,1.428644,12.915385)"><stop offset="0" style="stop-color:rgb(75.686276%,77.64706%,83.92157%);stop-opacity:1;"/><stop offset="1" style="stop-color:rgb(43.529412%,45.09804%,50.196081%);stop-opacity:1;"/></linearGradient><linearGradient id="linear1" gradientUnits="userSpaceOnUse" x1="0" y1="0" x2="0" y2="1" gradientTransform="matrix(63.922237,0,0,42.671132,1.428644,12.915385)"><stop offset="0" style="stop-color:rgb(75.686276%,77.64706%,83.92157%);stop-opacity:1;"/><stop offset="1" style="stop-color:rgb(43.529412%,45.09804%,50.196081%);stop-opacity:1;"/></linearGradient><filter style="color-interpolation-filters:sRGB;" inkscape:label="Diffuse Light" id="filter184" x="-0.0375" y="-0.0375" width="1.075" height="1.075"><feGaussianBlur in="SourceGraphic" stdDeviation="1" result="blur" id="feGaussianBlur174" /><feDiffuseLighting diffuseConstant="1" surfaceScale="10" lighting-color="rgb(255,255,255)" result="diffuse" id="feDiffuseLighting178"><feDistantLight elevation="8" azimuth="235" id="feDistantLight176" /></feDiffuseLighting><feComposite in="diffuse" in2="diffuse" operator="arithmetic" k1="1" result="composite1" id="feComposite180" /><feComposite in="composite1" in2="SourceGraphic" k1="1" operator="arithmetic" k3="1" result="composite2" id="feComposite182" /></filter></defs><g id="surface1" style="filter:url(#filter184)"><path style=" stroke:none;fill-rule:nonzero;fill:url(#linear0);" d="M 20.667969 35.898438 L 20.667969 44.828125 L 29.277344 44.828125 C 46.488281 44.828125 61.550781 38.132812 61.550781 15.808594 L 61.550781 6.878906 C 61.550781 5.644531 62.519531 4.644531 63.707031 4.644531 L 48.644531 4.644531 C 31.429688 4.644531 20.667969 13.574219 20.667969 35.898438 Z M 20.667969 35.898438 "/><path style=" stroke:none;fill-rule:nonzero;fill:url(#linear1);" d="M 11.785156 49.378906 L 30.210938 36.296875 L 22.839844 31.265625 L 22.839844 29.253906 L 44.945312 17.179688 L 26.523438 30.257812 L 35.734375 35.292969 L 35.734375 37.300781 L 13.628906 51.390625 L 0.738281 59.441406 L 0.738281 57.425781 Z M 11.785156 49.378906 "/></g></svg>
