<svg width="64" height="64" viewBox="0 0 64 64" version="1.1" xmlns:inkscape="http://www.inkscape.org/namespaces/inkscape"><defs><linearGradient id="linear0" gradientUnits="userSpaceOnUse" x1="0" y1="0" x2="0" y2="1" gradientTransform="matrix(60,0,0,15.003906,2,20.996094)"><stop offset="0" style="stop-color:rgb(0%,96.078432%,86.274511%);stop-opacity:1;"/><stop offset="1" style="stop-color:rgb(0%,54.901963%,49.411765%);stop-opacity:1;"/></linearGradient><filter style="color-interpolation-filters:sRGB;" inkscape:label="Diffuse Light" id="filter184" x="-0.0375" y="-0.0375" width="1.075" height="1.075"><feGaussianBlur in="SourceGraphic" stdDeviation="1" result="blur" id="feGaussianBlur174" /><feDiffuseLighting diffuseConstant="1" surfaceScale="10" lighting-color="rgb(255,255,255)" result="diffuse" id="feDiffuseLighting178"><feDistantLight elevation="8" azimuth="235" id="feDistantLight176" /></feDiffuseLighting><feComposite in="diffuse" in2="diffuse" operator="arithmetic" k1="1" result="composite1" id="feComposite180" /><feComposite in="composite1" in2="SourceGraphic" k1="1" operator="arithmetic" k3="1" result="composite2" id="feComposite182" /></filter></defs><g id="surface1" style="filter:url(#filter184)"><path style=" stroke:none;fill-rule:nonzero;fill:url(#linear0);" d="M 3.886719 20.996094 C 2.839844 20.996094 2 21.648438 2 22.441406 L 2 34.554688 C 2 35.351562 2.839844 36 3.886719 36 L 15.113281 36 C 16.148438 36 17 35.351562 17 34.554688 L 17 22.441406 C 17 21.644531 16.148438 20.996094 15.113281 20.996094 Z M 26.386719 20.996094 C 25.339844 20.996094 24.5 21.648438 24.5 22.441406 L 24.5 34.554688 C 24.5 35.351562 25.339844 36 26.386719 36 L 37.613281 36 C 38.648438 36 39.5 35.351562 39.5 34.554688 L 39.5 22.441406 C 39.5 21.644531 38.648438 20.996094 37.613281 20.996094 Z M 48.886719 20.996094 C 47.839844 20.996094 47 21.648438 47 22.441406 L 47 34.554688 C 47 35.351562 47.839844 36 48.886719 36 L 60.113281 36 C 61.148438 36 62 35.351562 62 34.554688 L 62 22.441406 C 62 21.644531 61.148438 20.996094 60.113281 20.996094 Z M 48.886719 20.996094 "/></g></svg>
