<svg width="64" height="64" viewBox="0 0 64 64" version="1.1" xmlns:inkscape="http://www.inkscape.org/namespaces/inkscape"><defs><linearGradient id="linear0" gradientUnits="userSpaceOnUse" x1="0" y1="0" x2="0" y2="1" gradientTransform="matrix(64,0,0,48,0,8)"><stop offset="0" style="stop-color:rgb(87.058824%,86.666667%,56.470591%);stop-opacity:1;"/><stop offset="1" style="stop-color:rgb(67.843139%,67.450982%,38.039216%);stop-opacity:1;"/></linearGradient><filter style="color-interpolation-filters:sRGB;" inkscape:label="Diffuse Light" id="filter184" x="-0.0375" y="-0.0375" width="1.075" height="1.075"><feGaussianBlur in="SourceGraphic" stdDeviation="1" result="blur" id="feGaussianBlur174" /><feDiffuseLighting diffuseConstant="1" surfaceScale="10" lighting-color="rgb(255,255,255)" result="diffuse" id="feDiffuseLighting178"><feDistantLight elevation="8" azimuth="235" id="feDistantLight176" /></feDiffuseLighting><feComposite in="diffuse" in2="diffuse" operator="arithmetic" k1="1" result="composite1" id="feComposite180" /><feComposite in="composite1" in2="SourceGraphic" k1="1" operator="arithmetic" k3="1" result="composite2" id="feComposite182" /></filter></defs><g id="surface1" style="filter:url(#filter184)"><path style=" stroke:none;fill-rule:nonzero;fill:url(#linear0);" d="M 34.558594 8 C 25.929688 8.007812 18.59375 13.636719 15.085938 21.691406 L 14.84375 22.242188 L 14.285156 22.28125 C 6.3125 22.898438 0 30.203125 0 39.089844 C 0 48.378906 6.863281 56 15.347656 56 L 52.488281 56 C 58.855469 56 64 50.28125 64 43.34375 C 64.015625 38.296875 61.167969 33.730469 56.78125 31.761719 L 56.230469 31.511719 L 56.191406 30.886719 C 55.652344 18.203125 46.242188 8.011719 34.574219 8 Z M 34.558594 12.234375 C 44.03125 12.242188 51.726562 20.503906 52.179688 31.074219 L 52.179688 31.113281 L 52.378906 34.402344 L 55.195312 35.65625 C 58.121094 36.949219 60.011719 39.988281 59.976562 43.34375 C 60.015625 48.0625 56.59375 51.765625 52.496094 51.765625 L 15.347656 51.765625 C 9.125 51.765625 3.996094 46.171875 3.996094 39.089844 C 3.996094 32.328125 8.734375 26.949219 14.574219 26.496094 L 17.464844 26.285156 L 18.703125 23.476562 L 18.703125 23.460938 C 21.625 16.769531 27.558594 12.246094 34.550781 12.238281 Z M 34.558594 12.234375 "/></g></svg>
