<svg width="64" height="64" viewBox="0 0 64 64" version="1.1" xmlns:inkscape="http://www.inkscape.org/namespaces/inkscape"><defs><linearGradient id="linear0" gradientUnits="userSpaceOnUse" x1="0" y1="0" x2="0" y2="1" gradientTransform="matrix(72.592609,0,0,69.218809,-4.554218,-1.268309)"><stop offset="0" style="stop-color:rgb(41.960785%,64.313728%,100%);stop-opacity:1;"/><stop offset="1" style="stop-color:rgb(0%,43.137255%,100%);stop-opacity:1;"/></linearGradient><linearGradient id="linear1" gradientUnits="userSpaceOnUse" x1="0" y1="0" x2="0" y2="1" gradientTransform="matrix(72.592609,0,0,69.218809,-4.554218,-1.268309)"><stop offset="0" style="stop-color:rgb(41.960785%,64.313728%,100%);stop-opacity:1;"/><stop offset="1" style="stop-color:rgb(0%,43.137255%,100%);stop-opacity:1;"/></linearGradient><linearGradient id="linear2" gradientUnits="userSpaceOnUse" x1="0" y1="0" x2="0" y2="1" gradientTransform="matrix(72.592609,0,0,69.218809,-4.554218,-1.268309)"><stop offset="0" style="stop-color:rgb(41.960785%,64.313728%,100%);stop-opacity:1;"/><stop offset="1" style="stop-color:rgb(0%,43.137255%,100%);stop-opacity:1;"/></linearGradient><linearGradient id="linear3" gradientUnits="userSpaceOnUse" x1="0" y1="0" x2="0" y2="1" gradientTransform="matrix(72.592609,0,0,69.218809,-4.554218,-1.268309)"><stop offset="0" style="stop-color:rgb(41.960785%,64.313728%,100%);stop-opacity:1;"/><stop offset="1" style="stop-color:rgb(0%,43.137255%,100%);stop-opacity:1;"/></linearGradient><filter style="color-interpolation-filters:sRGB;" inkscape:label="Diffuse Light" id="filter184" x="-0.0375" y="-0.0375" width="1.075" height="1.075"><feGaussianBlur in="SourceGraphic" stdDeviation="1" result="blur" id="feGaussianBlur174" /><feDiffuseLighting diffuseConstant="1" surfaceScale="10" lighting-color="rgb(255,255,255)" result="diffuse" id="feDiffuseLighting178"><feDistantLight elevation="8" azimuth="235" id="feDistantLight176" /></feDiffuseLighting><feComposite in="diffuse" in2="diffuse" operator="arithmetic" k1="1" result="composite1" id="feComposite180" /><feComposite in="composite1" in2="SourceGraphic" k1="1" operator="arithmetic" k3="1" result="composite2" id="feComposite182" /></filter></defs><g id="surface1" style="filter:url(#filter184)"><path style=" stroke:none;fill-rule:nonzero;fill:url(#linear0);" d="M 29.917969 1.539062 C 22.082031 1.539062 15.777344 8.324219 15.777344 16.761719 C 15.777344 25.191406 22.082031 31.980469 29.917969 31.980469 C 37.757812 31.980469 44.0625 25.191406 44.0625 16.761719 C 44.0625 8.324219 37.757812 1.539062 29.917969 1.539062 Z M 29.917969 31.980469 C 14.242188 31.980469 1.628906 45.546875 1.628906 62.417969 L 33.960938 62.417969 L 33.960938 58.070312 L 6.035156 58.070312 C 7.976562 45.507812 18.085938 36.300781 29.917969 36.328125 C 31.371094 36.328125 32.773438 36.488281 34.140625 36.777344 L 35.191406 32.546875 C 33.453125 32.175781 31.6875 31.980469 29.917969 31.980469 Z M 29.917969 5.886719 C 35.515625 5.886719 40.019531 10.742188 40.019531 16.761719 C 40.019531 22.78125 35.515625 27.628906 29.917969 27.628906 C 24.324219 27.628906 19.816406 22.78125 19.816406 16.761719 C 19.816406 10.742188 24.324219 5.886719 29.917969 5.886719 Z M 29.917969 5.886719 "/><path style=" stroke:none;fill-rule:nonzero;fill:url(#linear1);" d="M 54.167969 36.328125 L 54.167969 62.417969 L 58.210938 62.417969 L 58.210938 36.328125 Z M 54.167969 36.328125 "/><path style=" stroke:none;fill-rule:nonzero;fill:url(#linear2);" d="M 38 58.070312 L 62.25 58.070312 L 62.25 53.71875 L 38 53.71875 Z M 38 45.027344 L 62.25 45.027344 L 62.25 40.675781 L 38 40.675781 Z M 38 45.027344 "/><path style=" stroke:none;fill-rule:nonzero;fill:url(#linear3);" d="M 42.042969 36.328125 L 42.042969 62.417969 L 46.082031 62.417969 L 46.082031 36.328125 Z M 42.042969 36.328125 "/></g></svg>
