<svg width="64" height="64" viewBox="0 0 64 64" version="1.1" xmlns:inkscape="http://www.inkscape.org/namespaces/inkscape"><defs><linearGradient id="linear0" gradientUnits="userSpaceOnUse" x1="0" y1="0" x2="0" y2="1" gradientTransform="matrix(74.408272,0,0,67.96201,-5.254264,-3.763808)"><stop offset="0" style="stop-color:rgb(81.960785%,70.980394%,59.215689%);stop-opacity:1;"/><stop offset="1" style="stop-color:rgb(65.098041%,53.725493%,41.568628%);stop-opacity:1;"/></linearGradient><linearGradient id="linear1" gradientUnits="userSpaceOnUse" x1="0" y1="0" x2="0" y2="1" gradientTransform="matrix(74.408272,0,0,67.96201,-5.254264,-3.763808)"><stop offset="0" style="stop-color:rgb(81.960785%,70.980394%,59.215689%);stop-opacity:1;"/><stop offset="1" style="stop-color:rgb(65.098041%,53.725493%,41.568628%);stop-opacity:1;"/></linearGradient><linearGradient id="linear2" gradientUnits="userSpaceOnUse" x1="0" y1="0" x2="0" y2="1" gradientTransform="matrix(74.408272,0,0,67.96201,-5.254264,-3.763808)"><stop offset="0" style="stop-color:rgb(81.960785%,70.980394%,59.215689%);stop-opacity:1;"/><stop offset="1" style="stop-color:rgb(65.098041%,53.725493%,41.568628%);stop-opacity:1;"/></linearGradient><filter style="color-interpolation-filters:sRGB;" inkscape:label="Diffuse Light" id="filter184" x="-0.0375" y="-0.0375" width="1.075" height="1.075"><feGaussianBlur in="SourceGraphic" stdDeviation="1" result="blur" id="feGaussianBlur174" /><feDiffuseLighting diffuseConstant="1" surfaceScale="10" lighting-color="rgb(255,255,255)" result="diffuse" id="feDiffuseLighting178"><feDistantLight elevation="8" azimuth="235" id="feDistantLight176" /></feDiffuseLighting><feComposite in="diffuse" in2="diffuse" operator="arithmetic" k1="1" result="composite1" id="feComposite180" /><feComposite in="composite1" in2="SourceGraphic" k1="1" operator="arithmetic" k3="1" result="composite2" id="feComposite182" /></filter></defs><g id="surface1" style="filter:url(#filter184)"><path style=" stroke:none;fill-rule:nonzero;fill:url(#linear0);" d="M 7.441406 5.496094 L 7.441406 8.097656 L 29.988281 44.582031 L 29.988281 57.609375 L 34.996094 62.820312 L 34.996094 44.582031 L 57.539062 8.097656 L 57.539062 5.496094 Z M 7.441406 5.496094 "/><path style=" stroke:none;fill-rule:nonzero;fill:url(#linear1);" d="M 60.046875 8.097656 C 61.429688 8.097656 62.546875 6.945312 62.546875 5.496094 L 62.546875 2.890625 L 2.433594 2.890625 L 2.433594 5.496094 C 2.433594 6.945312 3.546875 8.097656 4.941406 8.097656 Z M 60.046875 8.097656 "/><path style=" stroke:none;fill-rule:nonzero;fill:url(#linear2);" d="M 29.988281 55.003906 L 29.988281 57.609375 L 34.996094 62.820312 L 34.996094 60.21875 Z M 29.988281 55.003906 "/></g></svg>
