<svg width="64" height="64" viewBox="0 0 64 64" version="1.1" xmlns:inkscape="http://www.inkscape.org/namespaces/inkscape"><defs><linearGradient id="linear0" gradientUnits="userSpaceOnUse" x1="0" y1="0" x2="0" y2="1" gradientTransform="matrix(70.869771,0,0,71.224841,-3.28676,-3.36716)"><stop offset="0" style="stop-color:rgb(61.176473%,69.803923%,85.09804%);stop-opacity:1;"/><stop offset="1" style="stop-color:rgb(44.313726%,52.156866%,65.882355%);stop-opacity:1;"/></linearGradient><filter style="color-interpolation-filters:sRGB;" inkscape:label="Diffuse Light" id="filter184" x="-0.0375" y="-0.0375" width="1.075" height="1.075"><feGaussianBlur in="SourceGraphic" stdDeviation="1" result="blur" id="feGaussianBlur174" /><feDiffuseLighting diffuseConstant="1" surfaceScale="10" lighting-color="rgb(255,255,255)" result="diffuse" id="feDiffuseLighting178"><feDistantLight elevation="8" azimuth="235" id="feDistantLight176" /></feDiffuseLighting><feComposite in="diffuse" in2="diffuse" operator="arithmetic" k1="1" result="composite1" id="feComposite180" /><feComposite in="composite1" in2="SourceGraphic" k1="1" operator="arithmetic" k3="1" result="composite2" id="feComposite182" /></filter></defs><g id="surface1" style="filter:url(#filter184)"><path style=" stroke:none;fill-rule:nonzero;fill:url(#linear0);" d="M 3.667969 20.027344 C 7.59375 13.839844 9.621094 12.527344 15.328125 12.527344 L 20.796875 12.527344 L 17.707031 38.953125 C 17.230469 42.292969 15.6875 44.910156 11.640625 48.601562 C 7.953125 51.929688 6.882812 53.835938 6.882812 56.457031 C 6.882812 60.027344 9.734375 63 13.425781 63 C 17.109375 63 19.964844 60.265625 21.507812 55.144531 C 22.582031 52.054688 24.246094 39.910156 25.320312 27.882812 L 26.75 12.527344 L 39.71875 12.527344 C 38.285156 21.9375 37.214844 34.789062 37.214844 41.582031 C 37.214844 54.90625 41.734375 63.007812 48.996094 63.007812 C 53.628906 63.007812 57.792969 59.789062 60.644531 54.195312 C 62.3125 50.867188 62.789062 48.601562 63.148438 42.648438 L 60.296875 42.648438 C 59.695312 48.363281 57.441406 51.339844 53.511719 51.339844 C 51.128906 51.339844 48.636719 49.667969 47.328125 47.167969 C 46.257812 45.035156 45.898438 43.125 45.898438 39.195312 C 45.898438 30.148438 46.496094 19.078125 47.328125 12.527344 L 62.3125 12.527344 L 62.3125 1.9375 L 20.683594 1.9375 C 14.253906 1.9375 11.992188 2.761719 8.550781 6.101562 C 5.210938 9.4375 3.308594 12.890625 1.292969 20.027344 L 3.667969 20.027344 "/></g></svg>
