<?xml version="1.0" encoding="UTF-8" standalone="no"?><svg width="64" height="64" version="1.1" id="svg90" sodipodi:docname="preferences-desktop-virtual.svg" inkscape:version="1.2.2 (b0a8486541, 2022-12-01)" xmlns:inkscape="http://www.inkscape.org/namespaces/inkscape" xmlns:sodipodi="http://sodipodi.sourceforge.net/DTD/sodipodi-0.dtd" xmlns="http://www.w3.org/2000/svg" xmlns:svg="http://www.w3.org/2000/svg"> <sodipodi:namedview id="namedview92" pagecolor="#ffffff" bordercolor="#000000" borderopacity="0.25" inkscape:showpageshadow="2" inkscape:pageopacity="0.0" inkscape:pagecheckerboard="0" inkscape:deskcolor="#d1d1d1" showgrid="false" inkscape:zoom="3.6875" inkscape:cx="32" inkscape:cy="32.135593" inkscape:window-width="1432" inkscape:window-height="844" inkscape:window-x="0" inkscape:window-y="0" inkscape:window-maximized="1" inkscape:current-layer="svg90" /> <defs id="defs81"> <linearGradient id="linear0" gradientUnits="userSpaceOnUse" x1="0" y1="0" x2="0" y2="1" gradientTransform="matrix(56,0,0,35.898438,4,14.050781)"> <stop offset="0" style="stop-color:#d1b597;stop-opacity:1;" id="stop76" /> <stop offset="1" style="stop-color:#a6896a;stop-opacity:1;" id="stop78" /> </linearGradient> <filter style="color-interpolation-filters:sRGB;" inkscape:label="Diffuse Light" id="filter1298" x="-0.044444444" y="-0.044444444" width="1.0888889" height="1.0888889"> <feGaussianBlur in="SourceGraphic" stdDeviation="1" result="blur" id="feGaussianBlur1288" /> <feDiffuseLighting diffuseConstant="1" surfaceScale="10" lighting-color="rgb(255,255,255)" result="diffuse" id="feDiffuseLighting1292"> <feDistantLight elevation="8" azimuth="235" id="feDistantLight1290" /> </feDiffuseLighting> <feComposite in="diffuse" in2="diffuse" operator="arithmetic" k1="1" result="composite1" id="feComposite1294" /> <feComposite in="composite1" in2="SourceGraphic" k1="1" operator="arithmetic" k3="1" result="composite2" id="feComposite1296" /> </filter> </defs> <g id="surface1" transform="matrix(1.1308849,0,0,1.1251434,-3.6518751,-3.7404551)" style="filter:url(#filter1298)"> <path fill="#d1b597" d="M 32,5 A 27,27 0 0 0 5,32 h 27 z" style="paint-order:stroke fill markers" id="path83" /> <path fill="#a6896a" d="M 32,5 V 32 H 5 A 27,27 0 0 0 32,59 27,27 0 0 0 59,32 27,27 0 0 0 32,5 Z" style="paint-order:stroke fill markers" id="path85" /> <path fill-rule="evenodd" d="M 32,5 V 32 H 5 a 27,27 0 0 0 0.05,1 H 31 V 58.965 A 27,27 0 0 0 32,59 27,27 0 0 0 33,58.95 V 33 H 58.965 A 27,27 0 0 0 59,32 27,27 0 0 0 58.95,31 H 33 V 5.035 A 27,27 0 0 0 32,5 Z" opacity="0.15" style="paint-order:fill markers stroke" id="path87" /> </g></svg>
