<svg width="64" height="64" viewBox="0 0 64 64" version="1.1" xmlns:inkscape="http://www.inkscape.org/namespaces/inkscape"><defs><linearGradient id="linear0" gradientUnits="userSpaceOnUse" x1="0" y1="0" x2="0" y2="1" gradientTransform="matrix(70.8548,0,0,79.396684,-3.120357,-7.566308)"><stop offset="0" style="stop-color:rgb(0%,78.823531%,36.862746%);stop-opacity:1;"/><stop offset="1" style="stop-color:rgb(0%,54.11765%,25.098041%);stop-opacity:1;"/></linearGradient><linearGradient id="linear1" gradientUnits="userSpaceOnUse" x1="0" y1="0" x2="0" y2="1" gradientTransform="matrix(70.8548,0,0,79.396684,-3.120357,-7.566308)"><stop offset="0" style="stop-color:rgb(0%,78.823531%,36.862746%);stop-opacity:1;"/><stop offset="1" style="stop-color:rgb(0%,54.11765%,25.098041%);stop-opacity:1;"/></linearGradient><filter style="color-interpolation-filters:sRGB;" inkscape:label="Diffuse Light" id="filter184" x="-0.0375" y="-0.0375" width="1.075" height="1.075"><feGaussianBlur in="SourceGraphic" stdDeviation="1" result="blur" id="feGaussianBlur174" /><feDiffuseLighting diffuseConstant="1" surfaceScale="10" lighting-color="rgb(255,255,255)" result="diffuse" id="feDiffuseLighting178"><feDistantLight elevation="8" azimuth="235" id="feDistantLight176" /></feDiffuseLighting><feComposite in="diffuse" in2="diffuse" operator="arithmetic" k1="1" result="composite1" id="feComposite180" /><feComposite in="composite1" in2="SourceGraphic" k1="1" operator="arithmetic" k3="1" result="composite2" id="feComposite182" /></filter></defs><g id="surface1" style="filter:url(#filter184)"><path style=" stroke:none;fill-rule:nonzero;fill:url(#linear0);" d="M 4.945312 1.769531 C 2.886719 1.769531 1.203125 3.644531 1.203125 5.941406 L 1.203125 12.320312 L 63.550781 12.320312 L 63.550781 5.941406 C 63.550781 3.644531 61.886719 1.769531 59.816406 1.769531 L 4.945312 1.769531 M 43.597656 4.546875 C 44.976562 4.546875 46.097656 5.804688 46.097656 7.335938 C 46.097656 8.875 44.976562 10.113281 43.597656 10.113281 C 42.222656 10.113281 41.109375 8.875 41.109375 7.335938 C 41.109375 5.804688 42.222656 4.546875 43.597656 4.546875 M 50.457031 4.546875 C 51.835938 4.546875 52.953125 5.804688 52.953125 7.335938 C 52.953125 8.875 51.835938 10.113281 50.457031 10.113281 C 49.085938 10.113281 47.972656 8.875 47.972656 7.335938 C 47.972656 5.804688 49.085938 4.546875 50.457031 4.546875 M 57.3125 4.546875 C 58.695312 4.546875 59.8125 5.804688 59.8125 7.335938 C 59.8125 8.875 58.695312 10.113281 57.3125 10.113281 C 55.941406 10.113281 54.824219 8.875 54.824219 7.335938 C 54.824219 5.804688 55.941406 4.546875 57.3125 4.546875 "/><path style=" stroke:none;fill-rule:nonzero;fill:url(#linear1);" d="M 1.203125 16.019531 L 1.203125 58.804688 C 1.203125 61.109375 2.886719 62.984375 4.945312 62.984375 L 59.816406 62.984375 C 61.875 62.984375 63.550781 61.109375 63.550781 58.804688 L 63.550781 16.019531 L 1.203125 16.019531 "/></g></svg>
