<svg width="64" height="64" viewBox="0 0 64 64" version="1.1" xmlns:inkscape="http://www.inkscape.org/namespaces/inkscape"><defs><linearGradient id="linear0" gradientUnits="userSpaceOnUse" x1="0" y1="0" x2="0" y2="1" gradientTransform="matrix(57.916603,0,0,65.143093,3.130553,-0.792918)"><stop offset="0" style="stop-color:rgb(82.352942%,61.176473%,100%);stop-opacity:1;"/><stop offset="1" style="stop-color:rgb(66.666669%,0%,100%);stop-opacity:1;"/></linearGradient><linearGradient id="linear1" gradientUnits="userSpaceOnUse" x1="0" y1="0" x2="0" y2="1" gradientTransform="matrix(57.916603,0,0,65.143093,3.130553,-0.792918)"><stop offset="0" style="stop-color:rgb(82.352942%,61.176473%,100%);stop-opacity:1;"/><stop offset="1" style="stop-color:rgb(66.666669%,0%,100%);stop-opacity:1;"/></linearGradient><linearGradient id="linear2" gradientUnits="userSpaceOnUse" x1="0" y1="0" x2="0" y2="1" gradientTransform="matrix(57.916603,0,0,65.143093,3.130553,-0.792918)"><stop offset="0" style="stop-color:rgb(82.352942%,61.176473%,100%);stop-opacity:1;"/><stop offset="1" style="stop-color:rgb(66.666669%,0%,100%);stop-opacity:1;"/></linearGradient><linearGradient id="linear3" gradientUnits="userSpaceOnUse" x1="0" y1="0" x2="0" y2="1" gradientTransform="matrix(57.916603,0,0,65.143093,3.130553,-0.792918)"><stop offset="0" style="stop-color:rgb(82.352942%,61.176473%,100%);stop-opacity:1;"/><stop offset="1" style="stop-color:rgb(66.666669%,0%,100%);stop-opacity:1;"/></linearGradient><linearGradient id="linear4" gradientUnits="userSpaceOnUse" x1="0" y1="0" x2="0" y2="1" gradientTransform="matrix(57.916603,0,0,65.143093,3.130553,-0.792918)"><stop offset="0" style="stop-color:rgb(82.352942%,61.176473%,100%);stop-opacity:1;"/><stop offset="1" style="stop-color:rgb(66.666669%,0%,100%);stop-opacity:1;"/></linearGradient><linearGradient id="linear5" gradientUnits="userSpaceOnUse" x1="0" y1="0" x2="0" y2="1" gradientTransform="matrix(57.916603,0,0,65.143093,3.130553,-0.792918)"><stop offset="0" style="stop-color:rgb(82.352942%,61.176473%,100%);stop-opacity:1;"/><stop offset="1" style="stop-color:rgb(66.666669%,0%,100%);stop-opacity:1;"/></linearGradient><filter style="color-interpolation-filters:sRGB;" inkscape:label="Diffuse Light" id="filter184" x="-0.0375" y="-0.0375" width="1.075" height="1.075"><feGaussianBlur in="SourceGraphic" stdDeviation="1" result="blur" id="feGaussianBlur174" /><feDiffuseLighting diffuseConstant="1" surfaceScale="10" lighting-color="rgb(255,255,255)" result="diffuse" id="feDiffuseLighting178"><feDistantLight elevation="8" azimuth="235" id="feDistantLight176" /></feDiffuseLighting><feComposite in="diffuse" in2="diffuse" operator="arithmetic" k1="1" result="composite1" id="feComposite180" /><feComposite in="composite1" in2="SourceGraphic" k1="1" operator="arithmetic" k3="1" result="composite2" id="feComposite182" /></filter></defs><g id="surface1" style="filter:url(#filter184)"><path style=" stroke:none;fill-rule:nonzero;fill:url(#linear0);" d="M 0.894531 10.441406 L 63.398438 15.824219 L 29.746094 15.824219 Z M 0.894531 10.441406 "/><path style=" stroke:none;fill-rule:nonzero;fill:url(#linear1);" d="M 29.746094 23.898438 L 24.933594 37.367188 L 17.722656 53.515625 L 24.933594 58.90625 L 22.527344 53.515625 L 29.746094 37.367188 L 27.335938 56.210938 L 34.550781 61.597656 L 32.144531 56.210938 L 32.144531 45.441406 L 36.957031 23.898438 L 39.363281 18.519531 L 29.746094 18.519531 Z M 29.746094 23.898438 "/><path style=" stroke:none;fill-rule:nonzero;fill:url(#linear2);" d="M 39.363281 7.75 C 39.363281 10.726562 37.203125 13.128906 34.550781 13.128906 C 31.894531 13.128906 29.746094 10.726562 29.746094 7.75 C 29.746094 4.777344 31.894531 2.359375 34.550781 2.359375 C 37.203125 2.359375 39.363281 4.777344 39.363281 7.75 Z M 39.363281 7.75 "/><path style=" stroke:none;fill-rule:nonzero;fill:url(#linear3);" d="M 27.617188 23.277344 L 63.609375 26.378906 L 44.230469 26.378906 Z M 27.617188 23.277344 "/><path style=" stroke:none;fill-rule:nonzero;fill:url(#linear4);" d="M 44.230469 31.035156 L 41.457031 38.78125 L 37.304688 48.085938 L 41.457031 51.179688 L 40.078125 48.085938 L 44.230469 38.78125 L 42.84375 49.632812 L 47 52.734375 L 45.613281 49.632812 L 45.613281 43.433594 L 48.382812 31.035156 L 49.761719 27.929688 L 44.230469 27.929688 Z M 44.230469 31.035156 "/><path style=" stroke:none;fill-rule:nonzero;fill:url(#linear5);" d="M 49.761719 21.730469 C 49.761719 23.441406 48.527344 24.832031 47 24.832031 C 45.472656 24.832031 44.230469 23.441406 44.230469 21.730469 C 44.230469 20.015625 45.472656 18.625 47 18.625 C 48.527344 18.625 49.761719 20.015625 49.761719 21.730469 Z M 49.761719 21.730469 "/></g></svg>
