<svg width="64" height="64" viewBox="0 0 64 64" version="1.1" xmlns:inkscape="http://www.inkscape.org/namespaces/inkscape"><defs><linearGradient id="linear0" gradientUnits="userSpaceOnUse" x1="0" y1="0" x2="0" y2="1" gradientTransform="matrix(62.827673,0,0,38.042756,2.294274,11.4023)"><stop offset="0" style="stop-color:rgb(61.176473%,69.803923%,85.09804%);stop-opacity:1;"/><stop offset="1" style="stop-color:rgb(44.313726%,52.156866%,65.882355%);stop-opacity:1;"/></linearGradient><linearGradient id="linear1" gradientUnits="userSpaceOnUse" x1="0" y1="0" x2="0" y2="1" gradientTransform="matrix(62.827673,0,0,38.042756,2.294274,11.4023)"><stop offset="0" style="stop-color:rgb(61.176473%,69.803923%,85.09804%);stop-opacity:1;"/><stop offset="1" style="stop-color:rgb(44.313726%,52.156866%,65.882355%);stop-opacity:1;"/></linearGradient><filter style="color-interpolation-filters:sRGB;" inkscape:label="Diffuse Light" id="filter184" x="-0.0375" y="-0.0375" width="1.075" height="1.075"><feGaussianBlur in="SourceGraphic" stdDeviation="1" result="blur" id="feGaussianBlur174" /><feDiffuseLighting diffuseConstant="1" surfaceScale="10" lighting-color="rgb(255,255,255)" result="diffuse" id="feDiffuseLighting178"><feDistantLight elevation="8" azimuth="235" id="feDistantLight176" /></feDiffuseLighting><feComposite in="diffuse" in2="diffuse" operator="arithmetic" k1="1" result="composite1" id="feComposite180" /><feComposite in="composite1" in2="SourceGraphic" k1="1" operator="arithmetic" k3="1" result="composite2" id="feComposite182" /></filter></defs><g id="surface1" style="filter:url(#filter184)"><path style=" stroke:none;fill-rule:nonzero;fill:url(#linear0);" d="M 36.453125 17.242188 L 41.59375 20.859375 L 46.738281 17.242188 C 49.574219 15.242188 49.574219 12.003906 46.738281 10.003906 L 36.453125 2.765625 C 33.613281 0.773438 29.011719 0.773438 26.171875 2.765625 L 15.890625 10.003906 C 13.050781 12.003906 13.050781 15.242188 15.890625 17.242188 L 46.738281 38.957031 C 49.574219 36.957031 49.574219 33.71875 46.738281 31.71875 L 21.03125 13.625 L 31.3125 6.386719 L 41.59375 13.625 Z M 36.453125 17.242188 "/><path style=" stroke:none;fill-rule:nonzero;fill:url(#linear1);" d="M 23.449219 38.414062 L 19.1875 44.121094 L 31.972656 61.253906 C 34.324219 64.40625 38.140625 64.40625 40.496094 61.253906 L 44.757812 55.542969 L 40.496094 49.835938 L 36.234375 55.542969 Z M 23.449219 38.414062 "/></g></svg>
