<svg width="64" height="64" viewBox="0 0 64 64" version="1.1" xmlns:inkscape="http://www.inkscape.org/namespaces/inkscape"><defs><linearGradient id="linear0" gradientUnits="userSpaceOnUse" x1="0" y1="0" x2="0" y2="1" gradientTransform="matrix(61.331183,0,0,40.013466,9.006418,13.819884)"><stop offset="0" style="stop-color:rgb(41.960785%,64.313728%,100%);stop-opacity:1;"/><stop offset="1" style="stop-color:rgb(0%,43.137255%,100%);stop-opacity:1;"/></linearGradient><filter style="color-interpolation-filters:sRGB;" inkscape:label="Diffuse Light" id="filter184" x="-0.0375" y="-0.0375" width="1.075" height="1.075"><feGaussianBlur in="SourceGraphic" stdDeviation="1" result="blur" id="feGaussianBlur174" /><feDiffuseLighting diffuseConstant="1" surfaceScale="10" lighting-color="rgb(255,255,255)" result="diffuse" id="feDiffuseLighting178"><feDistantLight elevation="8" azimuth="235" id="feDistantLight176" /></feDiffuseLighting><feComposite in="diffuse" in2="diffuse" operator="arithmetic" k1="1" result="composite1" id="feComposite180" /><feComposite in="composite1" in2="SourceGraphic" k1="1" operator="arithmetic" k3="1" result="composite2" id="feComposite182" /></filter></defs><g id="surface1" style="filter:url(#filter184)"><path style=" stroke:none;fill-rule:nonzero;fill:url(#linear0);" d="M 31.980469 0.820312 C 27.394531 0.820312 23.679688 4.832031 23.679688 9.785156 C 23.679688 14.265625 27.832031 29.953125 29.90625 41.15625 L 34.054688 41.15625 C 36.125 29.953125 40.273438 14.265625 40.273438 9.785156 C 40.273438 4.832031 36.5625 0.820312 31.980469 0.820312 Z M 31.980469 45.632812 C 27.398438 45.632812 23.679688 49.648438 23.679688 54.601562 C 23.679688 59.550781 27.398438 63.558594 31.980469 63.558594 C 36.5625 63.558594 40.273438 59.550781 40.273438 54.601562 C 40.273438 49.648438 36.5625 45.632812 31.980469 45.632812 Z M 31.980469 45.632812 "/></g></svg>
