<svg width="64" height="64" viewBox="0 0 64 64" version="1.1" xmlns:inkscape="http://www.inkscape.org/namespaces/inkscape"><defs><linearGradient id="linear0" gradientUnits="userSpaceOnUse" x1="0" y1="0" x2="0" y2="1" gradientTransform="matrix(64.893072,0,0,66.90778,-0.955514,-0.0207376)"><stop offset="0" style="stop-color:rgb(100%,56.862748%,82.745099%);stop-opacity:1;"/><stop offset="1" style="stop-color:rgb(100%,0%,60.000002%);stop-opacity:1;"/></linearGradient><filter style="color-interpolation-filters:sRGB;" inkscape:label="Diffuse Light" id="filter184" x="-0.0375" y="-0.0375" width="1.075" height="1.075"><feGaussianBlur in="SourceGraphic" stdDeviation="1" result="blur" id="feGaussianBlur174" /><feDiffuseLighting diffuseConstant="1" surfaceScale="10" lighting-color="rgb(255,255,255)" result="diffuse" id="feDiffuseLighting178"><feDistantLight elevation="8" azimuth="235" id="feDistantLight176" /></feDiffuseLighting><feComposite in="diffuse" in2="diffuse" operator="arithmetic" k1="1" result="composite1" id="feComposite180" /><feComposite in="composite1" in2="SourceGraphic" k1="1" operator="arithmetic" k3="1" result="composite2" id="feComposite182" /></filter></defs><g id="surface1" style="filter:url(#filter184)"><path style=" stroke:none;fill-rule:nonzero;fill:url(#linear0);" d="M 28.792969 1.402344 C 27.386719 1.402344 26.242188 2.535156 26.242188 3.957031 L 26.242188 10.003906 C 24.097656 10.546875 22.078125 11.394531 20.226562 12.511719 L 15.960938 8.234375 C 14.972656 7.230469 13.363281 7.230469 12.363281 8.234375 L 8.175781 12.429688 C 7.183594 13.429688 7.183594 15.042969 8.175781 16.042969 L 12.441406 20.3125 C 11.335938 22.171875 10.488281 24.203125 9.945312 26.359375 L 3.921875 26.359375 C 2.503906 26.359375 1.371094 27.492188 1.371094 28.910156 L 1.371094 34.855469 C 1.371094 36.269531 2.503906 37.410156 3.921875 37.410156 L 9.945312 37.410156 C 10.488281 39.5625 11.335938 41.589844 12.441406 43.445312 L 8.175781 47.722656 C 7.183594 48.722656 7.183594 50.335938 8.175781 51.332031 L 12.363281 55.53125 C 13.363281 56.53125 14.972656 56.53125 15.960938 55.53125 L 20.226562 51.257812 C 22.078125 52.363281 24.097656 53.21875 26.242188 53.753906 L 26.242188 59.8125 C 26.242188 61.222656 27.386719 62.363281 28.792969 62.363281 L 34.722656 62.363281 C 36.132812 62.363281 37.269531 61.222656 37.269531 59.8125 L 37.269531 53.753906 C 39.410156 53.21875 41.4375 52.363281 43.285156 51.257812 L 47.550781 55.53125 C 48.546875 56.53125 50.148438 56.53125 51.148438 55.53125 L 55.332031 51.332031 C 56.332031 50.328125 56.332031 48.722656 55.332031 47.722656 L 51.070312 43.445312 C 52.175781 41.589844 53.027344 39.5625 53.566406 37.410156 L 59.597656 37.410156 C 61.003906 37.410156 62.140625 36.269531 62.140625 34.855469 L 62.140625 28.910156 C 62.140625 27.492188 61.003906 26.359375 59.597656 26.359375 L 53.566406 26.359375 C 53.027344 24.203125 52.175781 22.171875 51.070312 20.3125 L 55.332031 16.042969 C 56.332031 15.039062 56.332031 13.429688 55.332031 12.429688 L 51.148438 8.234375 C 50.148438 7.230469 48.546875 7.230469 47.550781 8.234375 L 43.285156 12.511719 C 41.4375 11.394531 39.410156 10.546875 37.269531 10.003906 L 37.269531 3.957031 C 37.269531 2.535156 36.132812 1.402344 34.722656 1.402344 Z M 31.753906 21.460938 C 37.492188 21.460938 42.140625 26.125 42.140625 31.882812 C 42.140625 37.636719 37.492188 42.300781 31.753906 42.300781 C 26.023438 42.300781 21.367188 37.636719 21.367188 31.882812 C 21.367188 26.125 26.011719 21.460938 31.753906 21.460938 Z M 31.753906 21.460938 "/></g></svg>
