<svg xmlns="http://www.w3.org/2000/svg" xmlns:xlink="http://www.w3.org/1999/xlink" width="64" height="64" viewBox="0 0 64 64" version="1.1"><g id="surface1"><path style=" stroke:none;fill-rule:nonzero;fill:rgb(81.960785%,81.960785%,81.960785%);fill-opacity:1;" d="M 32.25 2.039062 C 19.285156 2.039062 8.769531 6.824219 8.769531 11.167969 L 8.769531 53.679688 C 8.769531 58.011719 19.292969 62.796875 32.257812 62.796875 C 45.234375 62.796875 55.742188 58.011719 55.742188 53.679688 L 55.742188 11.167969 C 55.742188 6.824219 45.21875 2.039062 32.25 2.039062 "/><path style=" stroke:none;fill-rule:nonzero;fill:rgb(60.000002%,60.000002%,60.000002%);fill-opacity:1;" d="M 53.394531 11.40625 C 53.394531 15.605469 43.925781 19.757812 32.257812 19.757812 C 20.578125 19.757812 11.117188 15.605469 11.117188 11.40625 C 11.117188 7.207031 20.585938 3.558594 32.257812 3.558594 C 43.933594 3.558594 53.394531 7.207031 53.394531 11.40625 Z M 53.394531 11.40625 "/></g></svg>
