<svg width="64" height="64" viewBox="0 0 64 64" version="1.1" xmlns:inkscape="http://www.inkscape.org/namespaces/inkscape"><defs><linearGradient id="linear0" gradientUnits="userSpaceOnUse" x1="0" y1="0" x2="0" y2="1" gradientTransform="matrix(64,0,0,8,-0.125,50)"><stop offset="0" style="stop-color:rgb(87.058824%,86.666667%,56.470591%);stop-opacity:1;"/><stop offset="1" style="stop-color:rgb(67.843139%,67.450982%,38.039216%);stop-opacity:1;"/></linearGradient><linearGradient id="linear1" gradientUnits="userSpaceOnUse" x1="0" y1="0" x2="0" y2="1" gradientTransform="matrix(56.851562,0,0,35.71875,3.574219,5.601562)"><stop offset="0" style="stop-color:rgb(87.058824%,86.666667%,56.470591%);stop-opacity:1;"/><stop offset="1" style="stop-color:rgb(67.843139%,67.450982%,38.039216%);stop-opacity:1;"/></linearGradient><filter style="color-interpolation-filters:sRGB;" inkscape:label="Diffuse Light" id="filter184" x="-0.0375" y="-0.0375" width="1.075" height="1.075"><feGaussianBlur in="SourceGraphic" stdDeviation="1" result="blur" id="feGaussianBlur174" /><feDiffuseLighting diffuseConstant="1" surfaceScale="10" lighting-color="rgb(255,255,255)" result="diffuse" id="feDiffuseLighting178"><feDistantLight elevation="8" azimuth="235" id="feDistantLight176" /></feDiffuseLighting><feComposite in="diffuse" in2="diffuse" operator="arithmetic" k1="1" result="composite1" id="feComposite180" /><feComposite in="composite1" in2="SourceGraphic" k1="1" operator="arithmetic" k3="1" result="composite2" id="feComposite182" /></filter></defs><g id="surface1" style="filter:url(#filter184)"><path style=" stroke:none;fill-rule:evenodd;fill:url(#linear0);" d="M -0.125 50 L 63.875 50 L 63.875 58 L -0.125 58 Z M -0.125 50 "/><path style=" stroke:none;fill-rule:evenodd;fill:url(#linear1);" d="M 9.699219 41.320312 L 3.574219 41.320312 L 3.574219 5.601562 L 18.429688 5.601562 C 22.542969 5.601562 25.570312 6.671875 27.507812 8.816406 C 29.449219 10.957031 30.421875 13.574219 30.421875 16.671875 C 30.421875 19.597656 29.40625 22.183594 27.378906 24.429688 C 25.355469 26.671875 22.371094 27.796875 18.429688 27.796875 L 9.699219 27.796875 Z M 9.699219 21.980469 L 18.730469 21.980469 C 20.535156 21.980469 21.878906 21.453125 22.765625 20.398438 C 23.648438 19.34375 24.09375 18.101562 24.09375 16.671875 C 24.09375 15.3125 23.675781 14.097656 22.839844 13.023438 C 22.007812 11.953125 20.636719 11.414062 18.730469 11.414062 L 9.699219 11.414062 Z M 60.425781 41.320312 L 36.03125 41.320312 L 36.03125 5.601562 L 59.300781 5.601562 L 59.300781 11.367188 L 42.15625 11.367188 L 42.15625 19.992188 L 52.714844 19.992188 L 52.714844 25.757812 L 42.15625 25.757812 L 42.15625 35.550781 L 60.425781 35.550781 Z M 60.425781 41.320312 "/></g></svg>
