<svg width="64" height="64" viewBox="0 0 64 64" version="1.1" xmlns:inkscape="http://www.inkscape.org/namespaces/inkscape"><defs><linearGradient id="linear0" gradientUnits="userSpaceOnUse" x1="0" y1="0" x2="0" y2="1" gradientTransform="matrix(56,0,0,35.898438,4,14.050781)"><stop offset="0" style="stop-color:rgb(81.960785%,70.980394%,59.215689%);stop-opacity:1;"/><stop offset="1" style="stop-color:rgb(65.098041%,53.725493%,41.568628%);stop-opacity:1;"/></linearGradient><filter style="color-interpolation-filters:sRGB;" inkscape:label="Diffuse Light" id="filter184" x="-0.0375" y="-0.0375" width="1.075" height="1.075"><feGaussianBlur in="SourceGraphic" stdDeviation="1" result="blur" id="feGaussianBlur174" /><feDiffuseLighting diffuseConstant="1" surfaceScale="10" lighting-color="rgb(255,255,255)" result="diffuse" id="feDiffuseLighting178"><feDistantLight elevation="8" azimuth="235" id="feDistantLight176" /></feDiffuseLighting><feComposite in="diffuse" in2="diffuse" operator="arithmetic" k1="1" result="composite1" id="feComposite180" /><feComposite in="composite1" in2="SourceGraphic" k1="1" operator="arithmetic" k3="1" result="composite2" id="feComposite182" /></filter></defs><g id="surface1" style="filter:url(#filter184)"><path style=" stroke:none;fill-rule:nonzero;fill:url(#linear0);" d="M 62.773438 30.785156 C 62.773438 29.511719 61.816406 28.484375 60.621094 28.484375 L 58.46875 28.484375 L 58.46875 21.585938 C 58.46875 19.03125 56.546875 16.984375 54.160156 16.984375 L 6.785156 16.984375 C 4.394531 16.984375 2.476562 19.035156 2.476562 21.585938 L 2.476562 49.183594 C 2.476562 51.734375 4.398438 53.78125 6.785156 53.78125 L 54.160156 53.78125 C 56.550781 53.78125 58.46875 51.730469 58.46875 49.183594 L 58.46875 42.285156 L 60.621094 42.285156 C 61.816406 42.285156 62.773438 41.257812 62.773438 39.984375 Z M 62.773438 30.785156 "/></g></svg>
