<svg width="64" height="64" viewBox="0 0 64 64" version="1.1" xmlns:inkscape="http://www.inkscape.org/namespaces/inkscape"><defs><linearGradient id="linear0" gradientUnits="userSpaceOnUse" x1="0" y1="0" x2="0" y2="1" gradientTransform="matrix(51.203125,0,0,64,6.398438,0)"><stop offset="0" style="stop-color:rgb(0%,78.823531%,36.862746%);stop-opacity:1;"/><stop offset="1" style="stop-color:rgb(0%,54.11765%,25.098041%);stop-opacity:1;"/></linearGradient><filter style="color-interpolation-filters:sRGB;" inkscape:label="Diffuse Light" id="filter184" x="-0.0375" y="-0.0375" width="1.075" height="1.075"><feGaussianBlur in="SourceGraphic" stdDeviation="1" result="blur" id="feGaussianBlur174" /><feDiffuseLighting diffuseConstant="1" surfaceScale="10" lighting-color="rgb(255,255,255)" result="diffuse" id="feDiffuseLighting178"><feDistantLight elevation="8" azimuth="235" id="feDistantLight176" /></feDiffuseLighting><feComposite in="diffuse" in2="diffuse" operator="arithmetic" k1="1" result="composite1" id="feComposite180" /><feComposite in="composite1" in2="SourceGraphic" k1="1" operator="arithmetic" k3="1" result="composite2" id="feComposite182" /></filter></defs><g id="surface1" style="filter:url(#filter184)"><path style=" stroke:none;fill-rule:evenodd;fill:url(#linear0);" d="M 48 0 L 48 48 L 57.601562 48 L 57.601562 0 Z M 48 54.398438 L 48 64 L 57.601562 64 L 57.601562 54.398438 Z M 33.601562 0 C 18.574219 0 6.398438 10.742188 6.398438 24 C 6.398438 37.257812 18.574219 48 33.601562 48 C 36.3125 47.996094 39.007812 47.636719 41.601562 46.933594 L 41.601562 39.675781 C 39.125 40.941406 36.378906 41.601562 33.601562 41.601562 C 23.878906 41.601562 16 33.71875 16 24 C 16 14.28125 23.878906 6.398438 33.601562 6.398438 C 36.382812 6.40625 39.125 7.070312 41.601562 8.34375 L 41.601562 1.089844 C 39.007812 0.375 36.3125 0.0078125 33.601562 0 Z M 33.601562 0 "/></g></svg>
