<svg width="64" height="64" viewBox="0 0 64 64" version="1.1" xmlns:inkscape="http://www.inkscape.org/namespaces/inkscape"><defs><linearGradient id="linear0" gradientUnits="userSpaceOnUse" x1="0" y1="0" x2="0" y2="1" gradientTransform="matrix(56,0,0,35.898438,4,14.050781)"><stop offset="0" style="stop-color:rgb(100%,63.137257%,63.137257%);stop-opacity:1;"/><stop offset="1" style="stop-color:rgb(100%,27.843139%,27.843139%);stop-opacity:1;"/></linearGradient><filter style="color-interpolation-filters:sRGB;" inkscape:label="Diffuse Light" id="filter184" x="-0.0375" y="-0.0375" width="1.075" height="1.075"><feGaussianBlur in="SourceGraphic" stdDeviation="1" result="blur" id="feGaussianBlur174" /><feDiffuseLighting diffuseConstant="1" surfaceScale="10" lighting-color="rgb(255,255,255)" result="diffuse" id="feDiffuseLighting178"><feDistantLight elevation="8" azimuth="235" id="feDistantLight176" /></feDiffuseLighting><feComposite in="diffuse" in2="diffuse" operator="arithmetic" k1="1" result="composite1" id="feComposite180" /><feComposite in="composite1" in2="SourceGraphic" k1="1" operator="arithmetic" k3="1" result="composite2" id="feComposite182" /></filter></defs><g id="surface1" style="filter:url(#filter184)"><path style=" stroke:none;fill-rule:nonzero;fill:url(#linear0);" d="M 32.800781 4.910156 L 56.3125 4.910156 C 58.917969 4.910156 61.015625 6.890625 61.015625 9.351562 L 61.015625 31.5625 L 32.800781 58.210938 L 9.292969 58.210938 C 6.6875 58.210938 4.589844 56.230469 4.589844 53.769531 L 4.589844 31.5625 Z M 32.800781 4.910156 "/><path style=" stroke:none;fill-rule:nonzero;fill:rgb(100%,63.137257%,63.137257%);fill-opacity:1;" d="M 8.207031 4.527344 C 5.578125 4.527344 3.460938 6.621094 3.460938 9.21875 L 3.460938 32.667969 L 31.9375 32.667969 L 31.9375 4.527344 Z M 31.9375 32.667969 L 31.9375 60.8125 L 55.671875 60.8125 C 58.300781 60.8125 60.417969 58.71875 60.417969 56.121094 L 60.417969 32.667969 Z M 31.9375 32.667969 "/></g></svg>
