<svg width="64" height="64" viewBox="0 0 64 64" version="1.1" xmlns:inkscape="http://www.inkscape.org/namespaces/inkscape"><defs><linearGradient id="linear0" gradientUnits="userSpaceOnUse" x1="0" y1="0" x2="0" y2="1" gradientTransform="matrix(81.717358,0,0,83.639538,-8.834031,-8.371969)"><stop offset="0" style="stop-color:rgb(0%,78.823531%,36.862746%);stop-opacity:1;"/><stop offset="1" style="stop-color:rgb(0%,54.11765%,25.098041%);stop-opacity:1;"/></linearGradient><linearGradient id="linear1" gradientUnits="userSpaceOnUse" x1="0" y1="0" x2="0" y2="1" gradientTransform="matrix(81.717358,0,0,83.639538,-8.834031,-8.371969)"><stop offset="0" style="stop-color:rgb(0%,78.823531%,36.862746%);stop-opacity:1;"/><stop offset="1" style="stop-color:rgb(0%,54.11765%,25.098041%);stop-opacity:1;"/></linearGradient><linearGradient id="linear2" gradientUnits="userSpaceOnUse" x1="0" y1="0" x2="0" y2="1" gradientTransform="matrix(81.717358,0,0,83.639538,-8.834031,-8.371969)"><stop offset="0" style="stop-color:rgb(0%,78.823531%,36.862746%);stop-opacity:1;"/><stop offset="1" style="stop-color:rgb(0%,54.11765%,25.098041%);stop-opacity:1;"/></linearGradient><linearGradient id="linear3" gradientUnits="userSpaceOnUse" x1="0" y1="0" x2="0" y2="1" gradientTransform="matrix(81.717358,0,0,83.639538,-8.834031,-8.371969)"><stop offset="0" style="stop-color:rgb(0%,78.823531%,36.862746%);stop-opacity:1;"/><stop offset="1" style="stop-color:rgb(0%,54.11765%,25.098041%);stop-opacity:1;"/></linearGradient><filter style="color-interpolation-filters:sRGB;" inkscape:label="Diffuse Light" id="filter184" x="-0.0375" y="-0.0375" width="1.075" height="1.075"><feGaussianBlur in="SourceGraphic" stdDeviation="1" result="blur" id="feGaussianBlur174" /><feDiffuseLighting diffuseConstant="1" surfaceScale="10" lighting-color="rgb(255,255,255)" result="diffuse" id="feDiffuseLighting178"><feDistantLight elevation="8" azimuth="235" id="feDistantLight176" /></feDiffuseLighting><feComposite in="diffuse" in2="diffuse" operator="arithmetic" k1="1" result="composite1" id="feComposite180" /><feComposite in="composite1" in2="SourceGraphic" k1="1" operator="arithmetic" k3="1" result="composite2" id="feComposite182" /></filter></defs><g id="surface1" style="filter:url(#filter184)"><path style=" stroke:none;fill-rule:nonzero;fill:url(#linear0);" d="M 29.585938 48.632812 C 29.585938 56.433594 23.386719 62.753906 15.738281 62.753906 C 8.082031 62.753906 1.878906 56.433594 1.878906 48.632812 C 1.878906 40.832031 8.082031 34.515625 15.738281 34.515625 C 23.386719 34.515625 29.585938 40.832031 29.585938 48.632812 "/><path style=" stroke:none;fill-rule:nonzero;fill:url(#linear1);" d="M 62.332031 48.632812 C 62.332031 56.433594 56.132812 62.753906 48.476562 62.753906 C 40.828125 62.753906 34.625 56.433594 34.625 48.632812 C 34.625 40.832031 40.828125 34.515625 48.476562 34.515625 C 56.132812 34.515625 62.332031 40.832031 62.332031 48.632812 "/><path style=" stroke:none;fill-rule:nonzero;fill:url(#linear2);" d="M 29.585938 15.257812 C 29.585938 23.0625 23.386719 29.382812 15.738281 29.382812 C 8.082031 29.382812 1.878906 23.0625 1.878906 15.257812 C 1.878906 7.460938 8.082031 1.144531 15.738281 1.144531 C 23.386719 1.144531 29.585938 7.460938 29.585938 15.257812 "/><path style=" stroke:none;fill-rule:nonzero;fill:url(#linear3);" d="M 62.332031 15.257812 C 62.332031 23.0625 56.132812 29.382812 48.476562 29.382812 C 40.828125 29.382812 34.625 23.0625 34.625 15.257812 C 34.625 7.460938 40.828125 1.144531 48.476562 1.144531 C 56.132812 1.144531 62.332031 7.460938 62.332031 15.257812 "/></g></svg>
