<svg width="64" height="64" viewBox="0 0 64 64" version="1.1" xmlns:inkscape="http://www.inkscape.org/namespaces/inkscape"><defs><linearGradient id="linear0" gradientUnits="userSpaceOnUse" x1="0" y1="0" x2="0" y2="1" gradientTransform="matrix(56,0,0,35.898438,4,14.050781)"><stop offset="0" style="stop-color:rgb(61.176473%,69.803923%,85.09804%);stop-opacity:1;"/><stop offset="1" style="stop-color:rgb(44.313726%,52.156866%,65.882355%);stop-opacity:1;"/></linearGradient><filter style="color-interpolation-filters:sRGB;" inkscape:label="Diffuse Light" id="filter184" x="-0.0375" y="-0.0375" width="1.075" height="1.075"><feGaussianBlur in="SourceGraphic" stdDeviation="1" result="blur" id="feGaussianBlur174" /><feDiffuseLighting diffuseConstant="1" surfaceScale="10" lighting-color="rgb(255,255,255)" result="diffuse" id="feDiffuseLighting178"><feDistantLight elevation="8" azimuth="235" id="feDistantLight176" /></feDiffuseLighting><feComposite in="diffuse" in2="diffuse" operator="arithmetic" k1="1" result="composite1" id="feComposite180" /><feComposite in="composite1" in2="SourceGraphic" k1="1" operator="arithmetic" k3="1" result="composite2" id="feComposite182" /></filter></defs><g id="surface1" style="filter:url(#filter184)"><path style=" stroke:none;fill-rule:nonzero;fill:url(#linear0);" d="M 47.175781 4.578125 L 42.917969 8.9375 L 55.691406 22.019531 L 59.953125 17.660156 Z M 8.851562 8.9375 L 4.589844 13.296875 L 18.429688 27.46875 L 15.238281 30.742188 L 34.402344 50.363281 L 37.59375 47.09375 L 51.433594 61.265625 L 55.691406 56.902344 L 41.851562 42.730469 L 45.046875 39.460938 L 25.882812 19.839844 L 22.691406 23.109375 Z M 42.917969 13.296875 L 38.660156 17.660156 L 47.175781 26.378906 L 51.433594 22.019531 Z M 38.660156 22.019531 L 35.464844 25.289062 L 39.722656 29.648438 L 42.917969 26.378906 Z M 38.660156 22.019531 "/></g></svg>
