<svg xmlns="http://www.w3.org/2000/svg" xmlns:xlink="http://www.w3.org/1999/xlink" width="64" height="64" viewBox="0 0 64 64" version="1.1"><defs><filter id="alpha" filterUnits="objectBoundingBox" x="0%" y="0%" width="100%" height="100%"> <feColorMatrix type="matrix" in="SourceGraphic" values="0 0 0 0 1 0 0 0 0 1 0 0 0 0 1 0 0 0 1 0"/></filter><mask id="mask0"><rect x="0" y="0" width="64" height="64" style="fill:rgb(0%,0%,0%);fill-opacity:0.99;stroke:none;"/></mask><clipPath id="clip1"> <rect x="0" y="0" width="64" height="64"/></clipPath></defs><use xlink:href="#surface5" mask="url(#mask0)"/><path style=" stroke:none;fill-rule:nonzero;fill:rgb(100%,100%,100%);fill-opacity:1;" d="M 27.121094 16.3125 C 26.785156 16.269531 26.4375 16.246094 26.078125 16.238281 C 23.082031 16.167969 20.820312 17.25 19.296875 19.480469 C 17.773438 21.699219 16.964844 24.9375 16.863281 29.203125 C 16.761719 33.558594 17.414062 36.898438 18.828125 39.210938 C 19.820312 40.828125 21.167969 41.894531 22.878906 42.414062 C 22.878906 42.414062 23.226562 42.402344 23.246094 42.777344 C 23.722656 47.601562 26.730469 47.683594 30.15625 47.765625 C 30.15625 47.765625 30.601562 47.777344 30.613281 47.332031 L 30.675781 44.679688 C 30.6875 44.238281 30.242188 44.226562 30.242188 44.226562 C 28.53125 44.1875 28.082031 44.289062 27.664062 42.5625 C 28.246094 42.429688 28.792969 42.246094 29.296875 42.003906 C 30.441406 41.441406 31.394531 40.609375 32.15625 39.5 C 32.917969 38.378906 33.496094 36.992188 33.886719 35.332031 C 34.292969 33.679688 34.527344 31.773438 34.578125 29.625 C 34.679688 25.308594 34.011719 22.019531 32.566406 19.753906 C 31.304688 17.761719 29.488281 16.617188 27.121094 16.3125 Z M 26.4375 18.445312 C 26.855469 18.539062 27.195312 18.757812 27.488281 19.109375 C 27.71875 19.375 27.917969 19.71875 28.101562 20.132812 C 28.203125 20.433594 28.304688 20.757812 28.382812 21.121094 C 28.59375 22.105469 28.730469 23.292969 28.792969 24.699219 C 28.855469 26.105469 28.863281 27.703125 28.820312 29.488281 C 28.777344 31.285156 28.695312 32.898438 28.566406 34.320312 C 28.4375 35.738281 28.242188 36.9375 27.980469 37.933594 C 27.886719 38.304688 27.773438 38.640625 27.652344 38.949219 C 27.632812 38.988281 27.617188 39.035156 27.597656 39.074219 C 27.410156 39.429688 27.210938 39.730469 26.992188 39.972656 C 26.582031 40.445312 26.089844 40.65625 25.46875 40.640625 C 24.84375 40.625 24.367188 40.390625 23.976562 39.898438 C 23.59375 39.398438 23.289062 38.679688 23.074219 37.722656 C 22.859375 36.746094 22.722656 35.558594 22.660156 34.15625 C 22.597656 32.738281 22.578125 31.128906 22.621094 29.339844 C 22.664062 27.5625 22.753906 25.988281 22.886719 24.601562 C 23.015625 23.214844 23.207031 22.050781 23.46875 21.117188 C 23.726562 20.179688 24.070312 19.488281 24.472656 19.035156 C 24.882812 18.589844 25.367188 18.378906 25.996094 18.394531 C 26.152344 18.398438 26.300781 18.414062 26.4375 18.445312 Z M 43.089844 20.699219 L 39.660156 20.617188 C 38.207031 25.894531 39.09375 25.84375 36.4375 25.777344 L 36.371094 28.921875 L 38.179688 28.964844 C 38.179688 28.964844 38.003906 36 37.949219 38.210938 C 37.949219 38.210938 37.410156 40.851562 39.589844 42.234375 C 41.835938 43.652344 46.140625 42.453125 46.234375 42.390625 L 46.308594 39.292969 C 46.308594 39.292969 45.214844 39.617188 44.507812 39.53125 C 43.949219 39.515625 43.503906 39.296875 43.171875 38.871094 C 42.839844 38.445312 42.683594 37.816406 42.703125 36.996094 L 42.898438 29.074219 L 46.554688 29.164062 L 46.621094 26.019531 L 42.964844 25.933594 Z M 43.089844 20.699219 "/></svg>
