<svg width="64" height="64" viewBox="0 0 64 64" version="1.1" xmlns:inkscape="http://www.inkscape.org/namespaces/inkscape"><defs><linearGradient id="linear0" gradientUnits="userSpaceOnUse" x1="0" y1="0" x2="0" y2="1" gradientTransform="matrix(50.507812,0,0,64,6.746094,0)"><stop offset="0" style="stop-color:rgb(100%,63.137257%,63.137257%);stop-opacity:1;"/><stop offset="1" style="stop-color:rgb(100%,27.843139%,27.843139%);stop-opacity:1;"/></linearGradient><filter style="color-interpolation-filters:sRGB;" inkscape:label="Diffuse Light" id="filter184" x="-0.0375" y="-0.0375" width="1.075" height="1.075"><feGaussianBlur in="SourceGraphic" stdDeviation="1" result="blur" id="feGaussianBlur174" /><feDiffuseLighting diffuseConstant="1" surfaceScale="10" lighting-color="rgb(255,255,255)" result="diffuse" id="feDiffuseLighting178"><feDistantLight elevation="8" azimuth="235" id="feDistantLight176" /></feDiffuseLighting><feComposite in="diffuse" in2="diffuse" operator="arithmetic" k1="1" result="composite1" id="feComposite180" /><feComposite in="composite1" in2="SourceGraphic" k1="1" operator="arithmetic" k3="1" result="composite2" id="feComposite182" /></filter></defs><g id="surface1" style="filter:url(#filter184)"><path style=" stroke:none;fill-rule:evenodd;fill:url(#linear0);" d="M 41.46875 18.277344 L 41.46875 16.589844 C 41.46875 16.585938 41.46875 16.578125 41.46875 16.574219 C 41.476562 15.175781 41.246094 13.789062 40.796875 12.464844 C 40.390625 11.277344 39.761719 10.183594 38.945312 9.234375 C 38.15625 8.335938 37.175781 7.617188 36.078125 7.128906 C 35.484375 6.863281 34.859375 6.664062 34.21875 6.535156 C 33.488281 6.386719 32.742188 6.3125 32 6.316406 C 31.257812 6.3125 30.511719 6.386719 29.78125 6.535156 C 29.140625 6.664062 28.515625 6.863281 27.921875 7.128906 C 26.824219 7.617188 25.84375 8.335938 25.054688 9.234375 C 24.238281 10.183594 23.609375 11.277344 23.203125 12.464844 C 22.753906 13.789062 22.523438 15.175781 22.53125 16.574219 C 22.53125 16.578125 22.53125 16.585938 22.53125 16.589844 L 22.53125 18.277344 C 26.453125 18.964844 29.953125 21.414062 32 25.078125 C 34.046875 21.414062 37.546875 18.964844 41.46875 18.277344 Z M 16.214844 18.726562 L 16.214844 16.597656 C 16.207031 14.496094 16.542969 12.40625 17.222656 10.421875 C 17.890625 8.460938 18.9375 6.652344 20.289062 5.085938 C 21.6875 3.492188 23.414062 2.214844 25.351562 1.351562 C 26.371094 0.902344 27.433594 0.5625 28.519531 0.34375 C 29.667969 0.113281 30.832031 -0.00390625 32 0 C 33.167969 -0.00390625 34.332031 0.113281 35.480469 0.34375 C 36.566406 0.5625 37.628906 0.902344 38.648438 1.351562 C 40.585938 2.214844 42.3125 3.492188 43.710938 5.085938 C 45.0625 6.652344 46.109375 8.460938 46.777344 10.421875 C 47.457031 12.40625 47.792969 14.496094 47.785156 16.597656 L 47.785156 18.726562 C 51.746094 20.019531 54.980469 23.148438 56.441406 27.292969 C 58.234375 32.402344 57.007812 38.132812 53.292969 41.980469 L 32 64 L 10.707031 41.980469 C 6.992188 38.132812 5.765625 32.402344 7.558594 27.292969 C 9.019531 23.148438 12.253906 20.019531 16.214844 18.726562 Z M 30.476562 40.785156 C 28.691406 40.152344 27.40625 38.449219 27.40625 36.449219 C 27.40625 33.914062 29.464844 31.855469 32 31.855469 C 34.535156 31.855469 36.59375 33.914062 36.59375 36.449219 C 36.59375 38.484375 35.265625 40.210938 33.429688 40.816406 L 36.59375 50.222656 L 27.40625 50.222656 Z M 30.476562 40.785156 "/></g></svg>
