<svg width="64" height="64" viewBox="0 0 64 64" version="1.1" xmlns:inkscape="http://www.inkscape.org/namespaces/inkscape"><defs><linearGradient id="linear0" gradientUnits="userSpaceOnUse" x1="0" y1="0" x2="0" y2="1" gradientTransform="matrix(61.526555,0,0,67.044118,1.589485,-3.401684)"><stop offset="0" style="stop-color:rgb(100%,56.862748%,82.745099%);stop-opacity:1;"/><stop offset="1" style="stop-color:rgb(100%,0%,60.000002%);stop-opacity:1;"/></linearGradient><linearGradient id="linear1" gradientUnits="userSpaceOnUse" x1="0" y1="0" x2="0" y2="1" gradientTransform="matrix(61.526555,0,0,67.044118,1.589485,-3.401684)"><stop offset="0" style="stop-color:rgb(100%,56.862748%,82.745099%);stop-opacity:1;"/><stop offset="1" style="stop-color:rgb(100%,0%,60.000002%);stop-opacity:1;"/></linearGradient><linearGradient id="linear2" gradientUnits="userSpaceOnUse" x1="0" y1="0" x2="0" y2="1" gradientTransform="matrix(61.526555,0,0,67.044118,1.589485,-3.401684)"><stop offset="0" style="stop-color:rgb(100%,56.862748%,82.745099%);stop-opacity:1;"/><stop offset="1" style="stop-color:rgb(100%,0%,60.000002%);stop-opacity:1;"/></linearGradient><filter style="color-interpolation-filters:sRGB;" inkscape:label="Diffuse Light" id="filter184" x="-0.0375" y="-0.0375" width="1.075" height="1.075"><feGaussianBlur in="SourceGraphic" stdDeviation="1" result="blur" id="feGaussianBlur174" /><feDiffuseLighting diffuseConstant="1" surfaceScale="10" lighting-color="rgb(255,255,255)" result="diffuse" id="feDiffuseLighting178"><feDistantLight elevation="8" azimuth="235" id="feDistantLight176" /></feDiffuseLighting><feComposite in="diffuse" in2="diffuse" operator="arithmetic" k1="1" result="composite1" id="feComposite180" /><feComposite in="composite1" in2="SourceGraphic" k1="1" operator="arithmetic" k3="1" result="composite2" id="feComposite182" /></filter></defs><g id="surface1" style="filter:url(#filter184)"><path style=" stroke:none;fill-rule:nonzero;fill:url(#linear0);" d="M 29.828125 47.457031 L 21.089844 47.46875 C 21.089844 56.464844 21.089844 56.464844 15.167969 60.316406 L 30.5625 61.601562 L 45.957031 60.316406 C 40.03125 56.464844 40.03125 56.464844 40.03125 47.46875 Z M 29.828125 47.457031 "/><path style=" stroke:none;fill-rule:nonzero;fill:url(#linear1);" d="M 15.167969 60.316406 L 15.167969 62.890625 L 45.9375 62.890625 L 45.957031 60.316406 Z M 15.167969 60.316406 "/><path style=" stroke:none;fill-rule:nonzero;fill:url(#linear2);" d="M 3.753906 2.261719 C 2.445312 2.261719 1.386719 3.40625 1.386719 4.828125 L 1.386719 45.945312 C 1.386719 47.367188 2.445312 48.511719 3.753906 48.511719 L 60.597656 48.511719 C 61.90625 48.511719 62.960938 47.367188 62.960938 45.945312 L 62.960938 4.828125 C 62.960938 3.40625 61.90625 2.261719 60.597656 2.261719 Z M 6.121094 7.402344 L 58.222656 7.402344 L 58.222656 43.375 L 6.121094 43.375 Z M 6.121094 7.402344 "/></g></svg>
