<svg width="64" height="64" viewBox="0 0 64 64" version="1.1" xmlns:inkscape="http://www.inkscape.org/namespaces/inkscape"><defs><linearGradient id="linear0" gradientUnits="userSpaceOnUse" x1="0" y1="0" x2="0" y2="1" gradientTransform="matrix(47.898438,0,0,64,8.050781,0)"><stop offset="0" style="stop-color:rgb(0%,73.333335%,100%);stop-opacity:1;"/><stop offset="1" style="stop-color:rgb(0%,52.156866%,70.980394%);stop-opacity:1;"/></linearGradient><filter style="color-interpolation-filters:sRGB;" inkscape:label="Diffuse Light" id="filter184" x="-0.0375" y="-0.0375" width="1.075" height="1.075"><feGaussianBlur in="SourceGraphic" stdDeviation="1" result="blur" id="feGaussianBlur174" /><feDiffuseLighting diffuseConstant="1" surfaceScale="10" lighting-color="rgb(255,255,255)" result="diffuse" id="feDiffuseLighting178"><feDistantLight elevation="8" azimuth="235" id="feDistantLight176" /></feDiffuseLighting><feComposite in="diffuse" in2="diffuse" operator="arithmetic" k1="1" result="composite1" id="feComposite180" /><feComposite in="composite1" in2="SourceGraphic" k1="1" operator="arithmetic" k3="1" result="composite2" id="feComposite182" /></filter></defs><g id="surface1" style="filter:url(#filter184)"><path style=" stroke:none;fill-rule:evenodd;fill:url(#linear0);" d="M 30.027344 23.144531 L 18.757812 23.144531 L 22.140625 26.949219 L 22.140625 35.097656 C 20.597656 34.21875 19.164062 33.132812 17.886719 31.855469 C 14.144531 28.113281 12.039062 23.035156 12.039062 17.742188 C 12.050781 10.625 15.855469 4.050781 22.019531 0.492188 L 22.019531 0 C 13.519531 3.894531 8.0625 12.382812 8.050781 21.734375 C 8.050781 31.449219 13.832031 39.808594 22.140625 43.566406 L 22.140625 52.234375 L 26.363281 64 L 30.59375 52.234375 L 30.59375 45.644531 C 31.054688 45.671875 31.527344 45.683594 32 45.683594 C 32.472656 45.683594 32.945312 45.671875 33.40625 45.644531 L 33.40625 52.234375 L 37.636719 64 L 41.859375 52.234375 L 41.859375 43.566406 C 50.167969 39.808594 55.949219 31.449219 55.949219 21.734375 C 55.929688 12.386719 50.476562 3.90625 41.980469 0.015625 L 41.980469 0.484375 C 48.148438 4.042969 51.949219 10.625 51.960938 17.742188 C 51.960938 23.035156 49.855469 28.113281 46.113281 31.855469 C 44.835938 33.132812 43.402344 34.21875 41.859375 35.097656 L 41.859375 26.949219 L 45.242188 23.144531 Z M 32 25.363281 L 30.59375 26.949219 L 30.59375 37.652344 C 31.058594 37.683594 31.527344 37.703125 32 37.703125 C 32.472656 37.703125 32.941406 37.683594 33.40625 37.652344 L 33.40625 26.949219 Z M 32 25.363281 "/></g></svg>
