<svg width="64" height="64" viewBox="0 0 64 64" version="1.1" xmlns:inkscape="http://www.inkscape.org/namespaces/inkscape"><defs><linearGradient id="linear0" gradientUnits="userSpaceOnUse" x1="0" y1="0" x2="0" y2="1" gradientTransform="matrix(64,0,0,60.445312,0,1.777344)"><stop offset="0" style="stop-color:rgb(0%,78.823531%,36.862746%);stop-opacity:1;"/><stop offset="1" style="stop-color:rgb(0%,54.11765%,25.098041%);stop-opacity:1;"/></linearGradient><filter style="color-interpolation-filters:sRGB;" inkscape:label="Diffuse Light" id="filter184" x="-0.0375" y="-0.0375" width="1.075" height="1.075"><feGaussianBlur in="SourceGraphic" stdDeviation="1" result="blur" id="feGaussianBlur174" /><feDiffuseLighting diffuseConstant="1" surfaceScale="10" lighting-color="rgb(255,255,255)" result="diffuse" id="feDiffuseLighting178"><feDistantLight elevation="8" azimuth="235" id="feDistantLight176" /></feDiffuseLighting><feComposite in="diffuse" in2="diffuse" operator="arithmetic" k1="1" result="composite1" id="feComposite180" /><feComposite in="composite1" in2="SourceGraphic" k1="1" operator="arithmetic" k3="1" result="composite2" id="feComposite182" /></filter></defs><g id="surface1" style="filter:url(#filter184)"><path style=" stroke:none;fill-rule:evenodd;fill:url(#linear0);" d="M 32.003906 1.777344 L 28.160156 32 L 32.003906 62.222656 L 35.839844 32 Z M 13.488281 17.453125 L 10.054688 18.390625 C 7.242188 19.160156 5.039062 20.023438 3.261719 21.242188 C 1.480469 22.46875 -0.257812 24.566406 0.03125 27.195312 C 0.320312 29.828125 2.15625 31.378906 4.046875 32.484375 C 5.941406 33.59375 8.289062 34.425781 11.230469 35.148438 C 14.089844 35.847656 17.300781 36.355469 20.667969 36.714844 L 25.601562 62.222656 L 25.601562 30.09375 C 13.1875 29.503906 5.339844 26.957031 5.332031 24 C 5.34375 22.253906 8.496094 20.589844 14.019531 19.410156 Z M 50.886719 17.523438 L 50.328125 19.488281 C 55.644531 20.660156 58.660156 22.292969 58.671875 24 C 58.65625 26.957031 50.808594 29.5 38.398438 30.09375 L 38.398438 62.222656 L 43.335938 36.71875 C 46.550781 36.371094 49.632812 35.890625 52.390625 35.234375 C 55.375 34.527344 57.765625 33.710938 59.691406 32.636719 C 61.621094 31.558594 63.460938 30.144531 63.921875 27.5625 C 64.382812 24.984375 62.730469 22.679688 60.988281 21.414062 C 59.242188 20.152344 57.078125 19.277344 54.308594 18.492188 Z M 50.886719 17.523438 "/></g></svg>
