<svg width="64" height="64" viewBox="0 0 64 64" version="1.1" xmlns:inkscape="http://www.inkscape.org/namespaces/inkscape"><defs><linearGradient id="linear0" gradientUnits="userSpaceOnUse" x1="0" y1="0" x2="0" y2="1" gradientTransform="matrix(69.269818,0,0,67.103045,-2.783026,-1.450059)"><stop offset="0" style="stop-color:rgb(82.352942%,61.176473%,100%);stop-opacity:0.913725;"/><stop offset="1" style="stop-color:rgb(66.666669%,0%,100%);stop-opacity:0.913725;"/></linearGradient><filter style="color-interpolation-filters:sRGB;" inkscape:label="Diffuse Light" id="filter184" x="-0.0375" y="-0.0375" width="1.075" height="1.075"><feGaussianBlur in="SourceGraphic" stdDeviation="1" result="blur" id="feGaussianBlur174" /><feDiffuseLighting diffuseConstant="1" surfaceScale="10" lighting-color="rgb(255,255,255)" result="diffuse" id="feDiffuseLighting178"><feDistantLight elevation="8" azimuth="235" id="feDistantLight176" /></feDiffuseLighting><feComposite in="diffuse" in2="diffuse" operator="arithmetic" k1="1" result="composite1" id="feComposite180" /><feComposite in="composite1" in2="SourceGraphic" k1="1" operator="arithmetic" k3="1" result="composite2" id="feComposite182" /></filter></defs><g id="surface1" style="filter:url(#filter184)"><path style=" stroke:none;fill-rule:nonzero;fill:url(#linear0);" d="M 57.367188 9.101562 L 10.261719 55.519531 L 21.332031 55.519531 L 63.207031 14.730469 L 57.367188 9.101562 M 9.734375 15.765625 C 4.703125 15.765625 0.632812 19.699219 0.632812 24.550781 C 0.632812 29.402344 4.703125 33.328125 9.734375 33.328125 C 9.945312 33.328125 10.132812 33.257812 10.335938 33.253906 L 10.261719 33.328125 C 10.535156 33.410156 11.027344 33.300781 11.539062 33.179688 C 12.566406 32.933594 13.78125 32.605469 14.402344 33.253906 L 20.710938 38.976562 L 25.226562 34.628906 L 18.988281 28.96875 C 18.339844 28.402344 18.515625 27.386719 18.683594 26.285156 C 18.769531 25.742188 18.832031 25.164062 18.835938 24.617188 L 18.835938 24.542969 C 18.835938 19.691406 14.773438 15.765625 9.742188 15.765625 L 9.734375 15.765625 M 9.886719 21.132812 C 11.882812 21.132812 13.496094 22.699219 13.496094 24.617188 C 13.496094 26.539062 11.882812 28.097656 9.886719 28.097656 C 7.890625 28.097656 6.277344 26.539062 6.277344 24.617188 C 6.277344 22.699219 7.902344 21.132812 9.886719 21.132812 M 55.042969 27.667969 L 27.105469 55.519531 L 37.734375 55.519531 L 60.800781 33.667969 L 55.042969 27.667969 M 57.136719 43.109375 L 43.957031 55.523438 L 55.230469 55.523438 L 62.261719 48.566406 L 57.136719 43.109375 "/></g></svg>
