<svg width="64" height="64" viewBox="0 0 64 64" version="1.1" xmlns:inkscape="http://www.inkscape.org/namespaces/inkscape"><defs><linearGradient id="linear0" gradientUnits="userSpaceOnUse" x1="0" y1="0" x2="0" y2="1" gradientTransform="matrix(70.619567,0,0,71.780515,-3.378417,-3.989184)"><stop offset="0" style="stop-color:rgb(87.058824%,86.666667%,56.470591%);stop-opacity:1;"/><stop offset="1" style="stop-color:rgb(67.843139%,67.450982%,38.039216%);stop-opacity:1;"/></linearGradient><linearGradient id="linear1" gradientUnits="userSpaceOnUse" x1="0" y1="0" x2="0" y2="1" gradientTransform="matrix(70.619567,0,0,71.780515,-3.378417,-3.989184)"><stop offset="0" style="stop-color:rgb(87.058824%,86.666667%,56.470591%);stop-opacity:1;"/><stop offset="1" style="stop-color:rgb(67.843139%,67.450982%,38.039216%);stop-opacity:1;"/></linearGradient><linearGradient id="linear2" gradientUnits="userSpaceOnUse" x1="0" y1="0" x2="0" y2="1" gradientTransform="matrix(70.619567,0,0,71.780515,-3.378417,-3.989184)"><stop offset="0" style="stop-color:rgb(87.058824%,86.666667%,56.470591%);stop-opacity:1;"/><stop offset="1" style="stop-color:rgb(67.843139%,67.450982%,38.039216%);stop-opacity:1;"/></linearGradient><filter style="color-interpolation-filters:sRGB;" inkscape:label="Diffuse Light" id="filter184" x="-0.0375" y="-0.0375" width="1.075" height="1.075"><feGaussianBlur in="SourceGraphic" stdDeviation="1" result="blur" id="feGaussianBlur174" /><feDiffuseLighting diffuseConstant="1" surfaceScale="10" lighting-color="rgb(255,255,255)" result="diffuse" id="feDiffuseLighting178"><feDistantLight elevation="8" azimuth="235" id="feDistantLight176" /></feDiffuseLighting><feComposite in="diffuse" in2="diffuse" operator="arithmetic" k1="1" result="composite1" id="feComposite180" /><feComposite in="composite1" in2="SourceGraphic" k1="1" operator="arithmetic" k3="1" result="composite2" id="feComposite182" /></filter></defs><g id="surface1" style="filter:url(#filter184)"><path style=" stroke:none;fill-rule:nonzero;fill:url(#linear0);" d="M 8.277344 22.894531 L 8.277344 32.9375 C 20.949219 32.9375 31.226562 43.371094 31.226562 56.226562 L 41.179688 56.226562 C 41.179688 37.820312 26.421875 22.902344 8.289062 22.902344 "/><path style=" stroke:none;fill-rule:nonzero;fill:url(#linear1);" d="M 8.304688 0.933594 L 8.304688 12.027344 C 32.34375 12.027344 51.871094 31.824219 51.871094 56.207031 L 62.867188 56.207031 C 62.867188 25.6875 38.40625 0.933594 8.304688 0.933594 "/><path style=" stroke:none;fill-rule:evenodd;fill:url(#linear2);" d="M 19.589844 63.28125 C 18.945312 63.753906 13.34375 59.507812 12.539062 59.507812 C 11.746094 59.503906 6.117188 63.71875 5.480469 63.246094 C 4.835938 62.765625 7.089844 56.058594 6.847656 55.289062 C 6.601562 54.523438 0.902344 50.410156 1.152344 49.644531 C 1.40625 48.875 8.402344 48.976562 9.046875 48.503906 C 9.691406 48.035156 11.796875 41.277344 12.589844 41.277344 C 13.390625 41.285156 15.457031 48.046875 16.101562 48.53125 C 16.746094 49 23.742188 48.941406 23.988281 49.710938 C 24.230469 50.476562 18.515625 54.558594 18.265625 55.328125 C 18.011719 56.09375 20.234375 62.808594 19.589844 63.28125 "/></g></svg>
