<svg width="64" height="64" viewBox="0 0 64 64" version="1.1" xmlns:inkscape="http://www.inkscape.org/namespaces/inkscape"><defs><linearGradient id="linear0" gradientUnits="userSpaceOnUse" x1="0" y1="0" x2="0" y2="1" gradientTransform="matrix(77.710989,0,0,76.062095,-5.995924,-7.496444)"><stop offset="0" style="stop-color:rgb(0%,96.078432%,86.274511%);stop-opacity:1;"/><stop offset="1" style="stop-color:rgb(0%,54.901963%,49.411765%);stop-opacity:1;"/></linearGradient><linearGradient id="linear1" gradientUnits="userSpaceOnUse" x1="0" y1="0" x2="0" y2="1" gradientTransform="matrix(77.710989,0,0,76.062095,-5.995924,-7.496444)"><stop offset="0" style="stop-color:rgb(0%,96.078432%,86.274511%);stop-opacity:1;"/><stop offset="1" style="stop-color:rgb(0%,54.901963%,49.411765%);stop-opacity:1;"/></linearGradient><linearGradient id="linear2" gradientUnits="userSpaceOnUse" x1="0" y1="0" x2="0" y2="1" gradientTransform="matrix(77.710989,0,0,76.062095,-5.995924,-7.496444)"><stop offset="0" style="stop-color:rgb(0%,96.078432%,86.274511%);stop-opacity:1;"/><stop offset="1" style="stop-color:rgb(0%,54.901963%,49.411765%);stop-opacity:1;"/></linearGradient><filter style="color-interpolation-filters:sRGB;" inkscape:label="Diffuse Light" id="filter184" x="-0.0375" y="-0.0375" width="1.075" height="1.075"><feGaussianBlur in="SourceGraphic" stdDeviation="1" result="blur" id="feGaussianBlur174" /><feDiffuseLighting diffuseConstant="1" surfaceScale="10" lighting-color="rgb(255,255,255)" result="diffuse" id="feDiffuseLighting178"><feDistantLight elevation="8" azimuth="235" id="feDistantLight176" /></feDiffuseLighting><feComposite in="diffuse" in2="diffuse" operator="arithmetic" k1="1" result="composite1" id="feComposite180" /><feComposite in="composite1" in2="SourceGraphic" k1="1" operator="arithmetic" k3="1" result="composite2" id="feComposite182" /></filter></defs><g id="surface1" style="filter:url(#filter184)"><path style=" stroke:none;fill-rule:nonzero;fill:url(#linear0);" d="M 12.664062 47.347656 L 23.636719 47.347656 L 23.636719 62.109375 L 12.664062 62.109375 M 12.664062 47.347656 "/><path style=" stroke:none;fill-rule:nonzero;fill:url(#linear1);" d="M 42.589844 46.054688 L 53.5625 46.054688 L 53.5625 62.050781 L 42.589844 62.050781 M 42.589844 46.054688 "/><path style=" stroke:none;fill-rule:nonzero;fill:url(#linear2);" d="M 7.03125 1.652344 C 4.554688 1.652344 2.542969 3.585938 2.542969 5.953125 L 2.542969 45.898438 C 2.542969 48.28125 4.554688 50.203125 7.03125 50.203125 L 58.84375 50.203125 C 61.320312 50.203125 63.328125 48.28125 63.328125 45.898438 L 63.328125 5.953125 C 63.328125 3.585938 61.320312 1.652344 58.84375 1.652344 Z M 12.351562 6.644531 L 53.527344 6.644531 C 55.488281 6.644531 57.089844 8.171875 57.089844 10.054688 L 57.089844 41.796875 C 57.089844 43.691406 55.488281 45.21875 53.527344 45.21875 L 12.351562 45.21875 C 10.386719 45.21875 8.789062 43.691406 8.789062 41.796875 L 8.789062 10.054688 C 8.789062 8.171875 10.386719 6.644531 12.351562 6.644531 Z M 12.351562 6.644531 "/></g></svg>
