<svg width="64" height="64" viewBox="0 0 64 64" version="1.1" xmlns:inkscape="http://www.inkscape.org/namespaces/inkscape"><defs><linearGradient id="linear0" gradientUnits="userSpaceOnUse" x1="0" y1="0" x2="0" y2="1" gradientTransform="matrix(66.055633,0,0,49.078216,-0.864994,0.39429)"><stop offset="0" style="stop-color:rgb(100%,73.333335%,0%);stop-opacity:1;"/><stop offset="1" style="stop-color:rgb(70.19608%,51.372552%,0%);stop-opacity:1;"/></linearGradient><linearGradient id="linear1" gradientUnits="userSpaceOnUse" x1="0" y1="0" x2="0" y2="1" gradientTransform="matrix(66.055633,0,0,49.078216,-0.864994,0.39429)"><stop offset="0" style="stop-color:rgb(100%,73.333335%,0%);stop-opacity:1;"/><stop offset="1" style="stop-color:rgb(70.19608%,51.372552%,0%);stop-opacity:1;"/></linearGradient><linearGradient id="linear2" gradientUnits="userSpaceOnUse" x1="0" y1="0" x2="0" y2="1" gradientTransform="matrix(55.992188,0,0,56,4.003906,4)"><stop offset="0" style="stop-color:rgb(100%,73.333335%,0%);stop-opacity:1;"/><stop offset="1" style="stop-color:rgb(70.19608%,51.372552%,0%);stop-opacity:1;"/></linearGradient><filter style="color-interpolation-filters:sRGB;" inkscape:label="Diffuse Light" id="filter184" x="-0.0375" y="-0.0375" width="1.075" height="1.075"><feGaussianBlur in="SourceGraphic" stdDeviation="1" result="blur" id="feGaussianBlur174" /><feDiffuseLighting diffuseConstant="1" surfaceScale="10" lighting-color="rgb(255,255,255)" result="diffuse" id="feDiffuseLighting178"><feDistantLight elevation="8" azimuth="235" id="feDistantLight176" /></feDiffuseLighting><feComposite in="diffuse" in2="diffuse" operator="arithmetic" k1="1" result="composite1" id="feComposite180" /><feComposite in="composite1" in2="SourceGraphic" k1="1" operator="arithmetic" k3="1" result="composite2" id="feComposite182" /></filter></defs><g id="surface1" style="filter:url(#filter184)"><path style=" stroke:none;fill-rule:nonzero;fill:url(#linear0);" d="M 20.222656 9.410156 C 13.597656 14.242188 13.578125 22.09375 20.191406 26.914062 L 23.347656 24.617188 C 18.425781 21.039062 18.449219 15.296875 23.371094 11.707031 L 20.222656 9.410156 M 41.085938 11.6875 C 46 15.265625 46.039062 21.054688 41.121094 24.644531 L 44.269531 26.941406 C 50.894531 22.113281 50.855469 14.214844 44.242188 9.394531 Z M 41.085938 11.6875 "/><path style=" stroke:none;fill-rule:nonzero;fill:url(#linear1);" d="M 10.328125 2.203125 C -1.757812 11.011719 -1.792969 25.332031 10.273438 34.125 L 16.015625 29.9375 C 7.058594 23.40625 7.097656 12.925781 16.070312 6.390625 L 10.328125 2.203125 M 48.382812 6.351562 C 57.347656 12.882812 57.410156 23.433594 48.433594 29.976562 L 54.1875 34.167969 C 66.265625 25.359375 66.195312 10.957031 54.128906 2.160156 L 48.382812 6.351562 "/><path style="fill:none;stroke-width:21.375;stroke-linecap:round;stroke-linejoin:miter;stroke:url(#linear2);stroke-miterlimit:4;" d="M 261.873836 212.139898 L 261.983158 481.778898 " transform="matrix(0.21439,0,0,0.158603,-22.65482,-15.517174)"/></g></svg>
