<svg width="64" height="64" viewBox="0 0 64 64" version="1.1" xmlns:inkscape="http://www.inkscape.org/namespaces/inkscape"><defs><linearGradient id="linear0" gradientUnits="userSpaceOnUse" x1="0" y1="0" x2="0" y2="1" gradientTransform="matrix(37.664062,0,0,64,13.167969,0)"><stop offset="0" style="stop-color:rgb(0%,96.078432%,86.274511%);stop-opacity:1;"/><stop offset="1" style="stop-color:rgb(0%,54.901963%,49.411765%);stop-opacity:1;"/></linearGradient><filter style="color-interpolation-filters:sRGB;" inkscape:label="Diffuse Light" id="filter184" x="-0.0375" y="-0.0375" width="1.075" height="1.075"><feGaussianBlur in="SourceGraphic" stdDeviation="1" result="blur" id="feGaussianBlur174" /><feDiffuseLighting diffuseConstant="1" surfaceScale="10" lighting-color="rgb(255,255,255)" result="diffuse" id="feDiffuseLighting178"><feDistantLight elevation="8" azimuth="235" id="feDistantLight176" /></feDiffuseLighting><feComposite in="diffuse" in2="diffuse" operator="arithmetic" k1="1" result="composite1" id="feComposite180" /><feComposite in="composite1" in2="SourceGraphic" k1="1" operator="arithmetic" k3="1" result="composite2" id="feComposite182" /></filter></defs><g id="surface1" style="filter:url(#filter184)"><path style=" stroke:none;fill-rule:nonzero;fill:url(#linear0);" d="M 34.585938 0 C 34.636719 8.199219 34.683594 14.167969 34.71875 20.054688 L 34.769531 19.996094 C 34.769531 19.996094 39.117188 24.234375 41.339844 20.464844 C 43.558594 16.695312 43.234375 14.921875 43.480469 13.734375 C 43.726562 12.546875 44.636719 10.773438 46.355469 13.238281 C 48.074219 15.699219 49.789062 18.578125 46.660156 27.269531 C 43.527344 35.960938 45.984375 40.476562 47.621094 44.007812 C 49.253906 47.535156 53.433594 54.019531 48.503906 58.441406 C 43.574219 62.863281 35.449219 63.917969 31.921875 63.992188 C 28.394531 64.070312 17.578125 63.574219 14.988281 59.050781 C 12.941406 55.476562 12.414062 52.644531 14.476562 46.824219 C 16.535156 41 19.160156 38.542969 17.6875 34.273438 C 16.21875 30.007812 14.601562 25.371094 14.917969 23.6875 C 15.414062 21.066406 17.308594 17.785156 19.03125 19.265625 C 20.75 20.746094 19.835938 26.484375 23.609375 26.488281 C 25.300781 26.492188 26.917969 25.359375 28.179688 24.101562 L 28.542969 0 Z M 34.585938 0 "/></g></svg>
