<svg width="64" height="64" viewBox="0 0 64 64" version="1.1" xmlns:inkscape="http://www.inkscape.org/namespaces/inkscape"><defs><linearGradient id="linear0" gradientUnits="userSpaceOnUse" x1="0" y1="0" x2="0" y2="1" gradientTransform="matrix(64,0,0,55.492188,0,4.253906)"><stop offset="0" style="stop-color:rgb(61.176473%,69.803923%,85.09804%);stop-opacity:1;"/><stop offset="1" style="stop-color:rgb(44.313726%,52.156866%,65.882355%);stop-opacity:1;"/></linearGradient><filter style="color-interpolation-filters:sRGB;" inkscape:label="Diffuse Light" id="filter184" x="-0.0375" y="-0.0375" width="1.075" height="1.075"><feGaussianBlur in="SourceGraphic" stdDeviation="1" result="blur" id="feGaussianBlur174" /><feDiffuseLighting diffuseConstant="1" surfaceScale="10" lighting-color="rgb(255,255,255)" result="diffuse" id="feDiffuseLighting178"><feDistantLight elevation="8" azimuth="235" id="feDistantLight176" /></feDiffuseLighting><feComposite in="diffuse" in2="diffuse" operator="arithmetic" k1="1" result="composite1" id="feComposite180" /><feComposite in="composite1" in2="SourceGraphic" k1="1" operator="arithmetic" k3="1" result="composite2" id="feComposite182" /></filter></defs><g id="surface1" style="filter:url(#filter184)"><path style=" stroke:none;fill-rule:nonzero;fill:url(#linear0);" d="M 43.46875 49.429688 C 43.46875 52.070312 39.792969 59.746094 35.320312 59.746094 C 29.734375 59.746094 21.738281 53.664062 21.738281 49.675781 C 21.738281 45.683594 27.019531 43.457031 32.605469 43.457031 C 38.1875 43.457031 43.46875 46.601562 43.46875 49.429688 Z M 57.046875 28.546875 C 57.046875 30.78125 54.617188 32.59375 51.617188 32.59375 C 48.617188 32.59375 46.183594 30.78125 46.183594 28.546875 C 46.183594 26.316406 48.617188 24.503906 51.617188 24.503906 C 54.617188 24.503906 57.046875 26.316406 57.046875 28.546875 Z M 62.074219 4.253906 C 62.074219 4.253906 42.125 20.667969 20.296875 21.351562 C 14.308594 21.535156 9.933594 20.035156 6.992188 18.636719 C 4.046875 17.230469 1.210938 14.476562 1.210938 14.476562 L 0 17.214844 C 0 17.214844 1.15625 18.421875 2.113281 19.109375 C 2.886719 23.253906 6.378906 35.308594 19.023438 35.308594 C 29.730469 35.308594 33.789062 26.59375 34.9375 22.214844 C 50.800781 17.695312 64 6.316406 64 6.316406 Z M 62.074219 4.253906 "/></g></svg>
