<svg width="64" height="64" viewBox="0 0 64 64" version="1.1" xmlns:inkscape="http://www.inkscape.org/namespaces/inkscape"><defs><linearGradient id="linear0" gradientUnits="userSpaceOnUse" x1="0" y1="0" x2="0" y2="1" gradientTransform="matrix(56,0,0,35.898438,4,14.050781)"><stop offset="0" style="stop-color:rgb(41.960785%,64.313728%,100%);stop-opacity:1;"/><stop offset="1" style="stop-color:rgb(0%,43.137255%,100%);stop-opacity:1;"/></linearGradient><linearGradient id="linear1" gradientUnits="userSpaceOnUse" x1="0" y1="0" x2="0" y2="1" gradientTransform="matrix(56,0,0,35.898438,4,14.050781)"><stop offset="0" style="stop-color:rgb(41.960785%,64.313728%,100%);stop-opacity:1;"/><stop offset="1" style="stop-color:rgb(0%,43.137255%,100%);stop-opacity:1;"/></linearGradient><linearGradient id="linear2" gradientUnits="userSpaceOnUse" x1="0" y1="0" x2="0" y2="1" gradientTransform="matrix(56,0,0,35.898438,4,14.050781)"><stop offset="0" style="stop-color:rgb(41.960785%,64.313728%,100%);stop-opacity:1;"/><stop offset="1" style="stop-color:rgb(0%,43.137255%,100%);stop-opacity:1;"/></linearGradient><linearGradient id="linear3" gradientUnits="userSpaceOnUse" x1="0" y1="0" x2="0" y2="1" gradientTransform="matrix(56,0,0,35.898438,4,14.050781)"><stop offset="0" style="stop-color:rgb(41.960785%,64.313728%,100%);stop-opacity:1;"/><stop offset="1" style="stop-color:rgb(0%,43.137255%,100%);stop-opacity:1;"/></linearGradient><filter style="color-interpolation-filters:sRGB;" inkscape:label="Diffuse Light" id="filter184" x="-0.0375" y="-0.0375" width="1.075" height="1.075"><feGaussianBlur in="SourceGraphic" stdDeviation="1" result="blur" id="feGaussianBlur174" /><feDiffuseLighting diffuseConstant="1" surfaceScale="10" lighting-color="rgb(255,255,255)" result="diffuse" id="feDiffuseLighting178"><feDistantLight elevation="8" azimuth="235" id="feDistantLight176" /></feDiffuseLighting><feComposite in="diffuse" in2="diffuse" operator="arithmetic" k1="1" result="composite1" id="feComposite180" /><feComposite in="composite1" in2="SourceGraphic" k1="1" operator="arithmetic" k3="1" result="composite2" id="feComposite182" /></filter></defs><g id="surface1" style="filter:url(#filter184)"><path style=" stroke:none;fill-rule:nonzero;fill:url(#linear0);" d="M 29.5625 4.644531 L 58.9375 4.644531 C 59.671875 4.644531 60.269531 5.238281 60.269531 5.976562 L 60.269531 59.644531 C 60.269531 60.382812 59.671875 60.976562 58.9375 60.976562 L 29.5625 60.976562 C 28.828125 60.976562 28.230469 60.382812 28.230469 59.644531 L 28.230469 5.976562 C 28.230469 5.238281 28.828125 4.644531 29.5625 4.644531 Z M 29.5625 4.644531 "/><path style=" stroke:none;fill-rule:nonzero;fill:url(#linear1);" d="M 18.667969 33.332031 C 18.667969 33.789062 18.75 34.238281 18.902344 34.667969 L 22.667969 36 L 26.429688 34.667969 C 26.582031 34.238281 26.664062 33.789062 26.664062 33.332031 Z M 18.667969 33.332031 "/><path style=" stroke:none;fill-rule:nonzero;fill:url(#linear2);" d="M 5.617188 34.667969 C 7.175781 40.441406 11.34375 44.308594 16.023438 44.320312 C 20.703125 44.308594 24.871094 40.441406 26.433594 34.667969 Z M 5.617188 34.667969 "/><path style=" stroke:none;fill-rule:nonzero;fill:url(#linear3);" d="M 8.011719 20.847656 L 6.3125 22.707031 L 9.707031 26.425781 L 6.3125 30.140625 L 8.011719 32 L 13.097656 26.425781 Z M 24.96875 20.847656 L 19.882812 26.425781 L 24.96875 32 L 26.667969 30.140625 L 23.273438 26.425781 L 26.667969 22.707031 Z M 24.96875 20.847656 "/></g></svg>
