<svg width="64" height="64" viewBox="0 0 64 64" version="1.1" xmlns:inkscape="http://www.inkscape.org/namespaces/inkscape"><defs><linearGradient id="linear0" gradientUnits="userSpaceOnUse" x1="0" y1="0" x2="0" y2="1" gradientTransform="matrix(71.03224,0,0,39.783447,-7.813881,14.23643)"><stop offset="0" style="stop-color:rgb(100%,63.137257%,63.137257%);stop-opacity:1;"/><stop offset="1" style="stop-color:rgb(100%,27.843139%,27.843139%);stop-opacity:1;"/></linearGradient><filter style="color-interpolation-filters:sRGB;" inkscape:label="Diffuse Light" id="filter184" x="-0.0375" y="-0.0375" width="1.075" height="1.075"><feGaussianBlur in="SourceGraphic" stdDeviation="1" result="blur" id="feGaussianBlur174" /><feDiffuseLighting diffuseConstant="1" surfaceScale="10" lighting-color="rgb(255,255,255)" result="diffuse" id="feDiffuseLighting178"><feDistantLight elevation="8" azimuth="235" id="feDistantLight176" /></feDiffuseLighting><feComposite in="diffuse" in2="diffuse" operator="arithmetic" k1="1" result="composite1" id="feComposite180" /><feComposite in="composite1" in2="SourceGraphic" k1="1" operator="arithmetic" k3="1" result="composite2" id="feComposite182" /></filter></defs><g id="surface1" style="filter:url(#filter184)"><path style=" stroke:none;fill-rule:nonzero;fill:url(#linear0);" d="M 15.765625 2.070312 L 15.765625 63.367188 L 25.601562 63.367188 L 25.601562 37.433594 L 32.160156 37.433594 C 35.796875 37.433594 38.714844 39.535156 38.714844 42.148438 L 38.714844 63.367188 L 48.550781 63.367188 L 48.550781 42.148438 C 48.550781 38.285156 45.996094 34.863281 42.027344 32.722656 C 45.996094 30.570312 48.550781 27.152344 48.550781 23.289062 L 48.550781 13.859375 C 48.550781 7.328125 41.242188 2.070312 32.160156 2.070312 Z M 25.601562 9.144531 L 32.160156 9.144531 C 35.796875 9.144531 38.714844 11.25 38.714844 13.859375 L 38.714844 25.648438 C 38.714844 28.261719 35.792969 30.363281 32.160156 30.363281 L 25.601562 30.363281 Z M 25.601562 9.144531 "/></g></svg>
