<svg width="64" height="64" viewBox="0 0 64 64" version="1.1" xmlns:inkscape="http://www.inkscape.org/namespaces/inkscape"><defs><linearGradient id="linear0" gradientUnits="userSpaceOnUse" x1="0" y1="0" x2="0" y2="1" gradientTransform="matrix(56,0,0,38.349796,4,13.380068)"><stop offset="0" style="stop-color:rgb(0%,96.078432%,86.274511%);stop-opacity:1;"/><stop offset="1" style="stop-color:rgb(0%,54.901963%,49.411765%);stop-opacity:1;"/></linearGradient><filter style="color-interpolation-filters:sRGB;" inkscape:label="Diffuse Light" id="filter184" x="-0.0375" y="-0.0375" width="1.075" height="1.075"><feGaussianBlur in="SourceGraphic" stdDeviation="1" result="blur" id="feGaussianBlur174" /><feDiffuseLighting diffuseConstant="1" surfaceScale="10" lighting-color="rgb(255,255,255)" result="diffuse" id="feDiffuseLighting178"><feDistantLight elevation="8" azimuth="235" id="feDistantLight176" /></feDiffuseLighting><feComposite in="diffuse" in2="diffuse" operator="arithmetic" k1="1" result="composite1" id="feComposite180" /><feComposite in="composite1" in2="SourceGraphic" k1="1" operator="arithmetic" k3="1" result="composite2" id="feComposite182" /></filter></defs><g id="surface1" style="filter:url(#filter184)"><path style=" stroke:none;fill-rule:nonzero;fill:url(#linear0);" d="M 31.890625 2.386719 L 24.917969 5.828125 L 30.949219 10.261719 L 19.292969 9.195312 L 2.332031 23.617188 L 8.40625 30.105469 L 19.289062 19.90625 L 13.464844 36.707031 L 31.890625 63.03125 L 43.359375 46.226562 C 36.355469 37.566406 19.480469 19.75 19.480469 19.75 L 31.164062 10.421875 L 44.835938 20.472656 L 31.890625 32.710938 L 49.496094 37.765625 L 61.453125 22.941406 L 51.308594 14.359375 L 44.992188 20.332031 L 45.335938 9.800781 Z M 31.890625 14.519531 C 27.539062 14.519531 24.007812 17.234375 24.007812 20.582031 C 24.007812 23.933594 27.539062 26.644531 31.890625 26.644531 C 36.246094 26.644531 39.773438 23.933594 39.773438 20.582031 C 39.773438 17.234375 36.246094 14.519531 31.890625 14.519531 Z M 31.890625 14.519531 "/></g></svg>
