<svg width="64" height="64" viewBox="0 0 64 64" version="1.1" xmlns:inkscape="http://www.inkscape.org/namespaces/inkscape"><defs><linearGradient id="linear0" gradientUnits="userSpaceOnUse" x1="0" y1="0" x2="0" y2="1" gradientTransform="matrix(63.5625,0,0,64,0.21875,0)"><stop offset="0" style="stop-color:rgb(87.058824%,86.666667%,56.470591%);stop-opacity:1;"/><stop offset="1" style="stop-color:rgb(67.843139%,67.450982%,38.039216%);stop-opacity:1;"/></linearGradient><filter style="color-interpolation-filters:sRGB;" inkscape:label="Diffuse Light" id="filter184" x="-0.0375" y="-0.0375" width="1.075" height="1.075"><feGaussianBlur in="SourceGraphic" stdDeviation="1" result="blur" id="feGaussianBlur174" /><feDiffuseLighting diffuseConstant="1" surfaceScale="10" lighting-color="rgb(255,255,255)" result="diffuse" id="feDiffuseLighting178"><feDistantLight elevation="8" azimuth="235" id="feDistantLight176" /></feDiffuseLighting><feComposite in="diffuse" in2="diffuse" operator="arithmetic" k1="1" result="composite1" id="feComposite180" /><feComposite in="composite1" in2="SourceGraphic" k1="1" operator="arithmetic" k3="1" result="composite2" id="feComposite182" /></filter></defs><g id="surface1" style="filter:url(#filter184)"><path style=" stroke:none;fill-rule:evenodd;fill:url(#linear0);" d="M 22.558594 47.574219 L 18.445312 43.460938 L 7.226562 43.460938 L 7.226562 32.242188 L 0.21875 25.234375 L 7.226562 18.222656 L 7.226562 7.007812 L 18.445312 7.007812 L 25.453125 0 L 32.464844 7.007812 L 43.679688 7.007812 L 43.679688 18.222656 L 48.519531 23.066406 C 57.316406 25.511719 63.78125 33.585938 63.78125 43.15625 C 63.78125 54.660156 54.441406 64 42.9375 64 C 32.949219 64 24.589844 56.960938 22.558594 47.574219 Z M 22.3125 40.285156 C 15.292969 38.875 10.03125 32.671875 10.03125 25.234375 C 10.03125 16.710938 16.933594 9.8125 25.453125 9.8125 C 33.003906 9.8125 39.292969 15.238281 40.570312 22.429688 C 31.128906 23.507812 23.585938 30.898438 22.3125 40.285156 Z M 22.3125 40.285156 "/></g></svg>
