<svg width="64" height="64" viewBox="0 0 64 64" version="1.1" xmlns:inkscape="http://www.inkscape.org/namespaces/inkscape"><defs><linearGradient id="linear0" gradientUnits="userSpaceOnUse" x1="0" y1="0" x2="0" y2="1" gradientTransform="matrix(64,0,0,36.179688,0,13.910156)"><stop offset="0" style="stop-color:rgb(41.960785%,64.313728%,100%);stop-opacity:1;"/><stop offset="1" style="stop-color:rgb(0%,43.137255%,100%);stop-opacity:1;"/></linearGradient><filter style="color-interpolation-filters:sRGB;" inkscape:label="Diffuse Light" id="filter184" x="-0.0375" y="-0.0375" width="1.075" height="1.075"><feGaussianBlur in="SourceGraphic" stdDeviation="1" result="blur" id="feGaussianBlur174" /><feDiffuseLighting diffuseConstant="1" surfaceScale="10" lighting-color="rgb(255,255,255)" result="diffuse" id="feDiffuseLighting178"><feDistantLight elevation="8" azimuth="235" id="feDistantLight176" /></feDiffuseLighting><feComposite in="diffuse" in2="diffuse" operator="arithmetic" k1="1" result="composite1" id="feComposite180" /><feComposite in="composite1" in2="SourceGraphic" k1="1" operator="arithmetic" k3="1" result="composite2" id="feComposite182" /></filter></defs><g id="surface1" style="filter:url(#filter184)"><path style=" stroke:none;fill-rule:evenodd;fill:url(#linear0);" d="M 50.089844 27.160156 C 45.253906 39.480469 13.445312 41.371094 11.8125 36.410156 C 8.980469 26.878906 15.253906 17.078125 25.820312 14.523438 C 36.390625 11.972656 47.257812 17.632812 50.089844 27.160156 Z M 50.089844 30.609375 C 50.089844 30.609375 23.851562 49.59375 7.015625 43.515625 C 4.089844 41.210938 9.640625 37.371094 9.632812 36.496094 C 3.191406 39.054688 0 42.382812 0 46.390625 C 2.738281 55.316406 27.617188 45.503906 31.746094 43.632812 C 39.9375 39.699219 50.089844 30.609375 50.089844 30.609375 Z M 16.695312 50.089844 C 16.695312 50.089844 48.863281 42.65625 56.09375 26.78125 C 56.433594 23.214844 50.824219 24.554688 50.183594 23.984375 C 59.195312 19.851562 64.4375 24.105469 63.972656 26.78125 C 63.132812 31.632812 53.128906 39.558594 40.0625 44.734375 C 31.480469 48.007812 16.695312 50.089844 16.695312 50.089844 Z M 16.695312 50.089844 "/></g></svg>
