<svg width="64" height="64" viewBox="0 0 64 64" version="1.1" xmlns:inkscape="http://www.inkscape.org/namespaces/inkscape"><defs><linearGradient id="linear0" gradientUnits="userSpaceOnUse" x1="0" y1="0" x2="0" y2="1" gradientTransform="matrix(56,0,0,35.898438,4,14.050781)"><stop offset="0" style="stop-color:rgb(0%,96.078432%,86.274511%);stop-opacity:1;"/><stop offset="1" style="stop-color:rgb(0%,54.901963%,49.411765%);stop-opacity:1;"/></linearGradient><filter style="color-interpolation-filters:sRGB;" inkscape:label="Diffuse Light" id="filter184" x="-0.0375" y="-0.0375" width="1.075" height="1.075"><feGaussianBlur in="SourceGraphic" stdDeviation="1" result="blur" id="feGaussianBlur174" /><feDiffuseLighting diffuseConstant="1" surfaceScale="10" lighting-color="rgb(255,255,255)" result="diffuse" id="feDiffuseLighting178"><feDistantLight elevation="8" azimuth="235" id="feDistantLight176" /></feDiffuseLighting><feComposite in="diffuse" in2="diffuse" operator="arithmetic" k1="1" result="composite1" id="feComposite180" /><feComposite in="composite1" in2="SourceGraphic" k1="1" operator="arithmetic" k3="1" result="composite2" id="feComposite182" /></filter></defs><g id="surface1" style="filter:url(#filter184)"><path style=" stroke:none;fill-rule:nonzero;fill:url(#linear0);" d="M 51.382812 24.101562 L 37.777344 13.28125 L 22.230469 13.28125 L 10.570312 27.347656 L 10.570312 41.414062 L 23.203125 52.234375 L 31.949219 52.234375 L 37.777344 50.070312 L 42.636719 39.25 L 40.695312 28.429688 L 31.949219 21.9375 L 27.089844 21.9375 L 20.289062 29.511719 L 20.289062 37.085938 L 28.0625 43.578125 L 31.949219 41.414062 L 31.949219 37.085938 L 28.0625 37.085938 L 26.117188 34.921875 L 26.117188 30.59375 L 28.0625 28.429688 L 32.921875 28.429688 L 37.777344 32.757812 L 37.777344 40.332031 L 34.863281 45.742188 L 24.175781 47.90625 L 16.402344 39.25 L 16.402344 26.265625 L 24.175781 17.609375 L 37.777344 17.609375 L 47.496094 28.429688 L 47.496094 45.742188 L 39.722656 56.558594 L 26.117188 60.886719 L 10.570312 52.234375 L 2.796875 39.25 L 6.683594 19.773438 L 22.230469 4.628906 L 37.777344 4.628906 L 51.382812 11.117188 L 59.15625 21.9375 L 61.101562 37.085938 L 53.753906 39.25 Z M 51.382812 24.101562 "/></g></svg>
