<svg width="64" height="64" viewBox="0 0 64 64" version="1.1" xmlns:inkscape="http://www.inkscape.org/namespaces/inkscape"><defs><linearGradient id="linear0" gradientUnits="userSpaceOnUse" x1="0" y1="0" x2="0" y2="1" gradientTransform="matrix(64,0,0,59.734375,0,2.132812)"><stop offset="0" style="stop-color:rgb(100%,73.333335%,0%);stop-opacity:1;"/><stop offset="1" style="stop-color:rgb(70.19608%,51.372552%,0%);stop-opacity:1;"/></linearGradient><filter style="color-interpolation-filters:sRGB;" inkscape:label="Diffuse Light" id="filter184" x="-0.0375" y="-0.0375" width="1.075" height="1.075"><feGaussianBlur in="SourceGraphic" stdDeviation="1" result="blur" id="feGaussianBlur174" /><feDiffuseLighting diffuseConstant="1" surfaceScale="10" lighting-color="rgb(255,255,255)" result="diffuse" id="feDiffuseLighting178"><feDistantLight elevation="8" azimuth="235" id="feDistantLight176" /></feDiffuseLighting><feComposite in="diffuse" in2="diffuse" operator="arithmetic" k1="1" result="composite1" id="feComposite180" /><feComposite in="composite1" in2="SourceGraphic" k1="1" operator="arithmetic" k3="1" result="composite2" id="feComposite182" /></filter></defs><g id="surface1" style="filter:url(#filter184)"><path style=" stroke:none;fill-rule:evenodd;fill:url(#linear0);" d="M 11.996094 39.871094 L 11.996094 46.253906 L 18.371094 46.253906 L 34.476562 30.148438 L 28.101562 23.773438 Z M 40.117188 24.527344 C 40.789062 23.851562 40.789062 22.789062 40.117188 22.117188 L 36.128906 18.132812 C 35.457031 17.457031 34.390625 17.457031 33.71875 18.132812 L 30.386719 21.484375 L 36.765625 27.859375 Z M 51.769531 18.976562 C 51.769531 16.679688 53.632812 14.816406 55.929688 14.816406 C 58.222656 14.816406 60.089844 16.679688 60.089844 18.976562 C 60.089844 21.269531 58.222656 23.132812 55.929688 23.132812 C 53.632812 23.132812 51.769531 21.269531 51.769531 18.976562 Z M 51.769531 29.371094 C 51.769531 27.074219 53.632812 25.210938 55.929688 25.210938 C 58.222656 25.210938 60.089844 27.074219 60.089844 29.371094 C 60.089844 31.667969 58.222656 33.53125 55.929688 33.53125 C 53.632812 33.53125 51.769531 31.667969 51.769531 29.371094 Z M 51.769531 40.8125 L 51.769531 42.890625 L 60.089844 42.890625 L 60.089844 40.8125 Z M 51.769531 47.046875 L 51.769531 49.128906 L 60.089844 49.128906 L 60.089844 47.046875 Z M 46.546875 31.386719 C 46.546875 13.089844 39.621094 11.5625 25.753906 11.5625 C 11.886719 11.5625 4.957031 13.089844 4.957031 31.386719 C 4.957031 49.683594 11.886719 51.207031 25.753906 51.207031 C 39.621094 51.207031 46.546875 49.683594 46.546875 31.386719 Z M 41.859375 2.132812 C 61.230469 2.132812 64 4.894531 64 24.253906 L 64 39.753906 C 64 59.105469 61.230469 61.867188 41.859375 61.867188 L 22.140625 61.867188 C 2.769531 61.867188 0 59.105469 0 39.753906 L 0 24.253906 C 0 4.894531 2.769531 2.132812 22.140625 2.132812 Z M 51.769531 43.933594 L 51.769531 46.007812 L 60.089844 46.007812 L 60.089844 43.933594 Z M 51.769531 43.933594 "/></g></svg>
