<svg width="64" height="64" viewBox="0 0 64 64" version="1.1" xmlns:inkscape="http://www.inkscape.org/namespaces/inkscape"><defs><linearGradient id="linear0" gradientUnits="userSpaceOnUse" x1="0" y1="0" x2="0" y2="1" gradientTransform="matrix(62.729286,0,0,39.384934,0.738015,12.171011)"><stop offset="0" style="stop-color:rgb(0%,73.333335%,100%);stop-opacity:1;"/><stop offset="1" style="stop-color:rgb(0%,52.156866%,70.980394%);stop-opacity:1;"/></linearGradient><filter style="color-interpolation-filters:sRGB;" inkscape:label="Diffuse Light" id="filter184" x="-0.0375" y="-0.0375" width="1.075" height="1.075"><feGaussianBlur in="SourceGraphic" stdDeviation="1" result="blur" id="feGaussianBlur174" /><feDiffuseLighting diffuseConstant="1" surfaceScale="10" lighting-color="rgb(255,255,255)" result="diffuse" id="feDiffuseLighting178"><feDistantLight elevation="8" azimuth="235" id="feDistantLight176" /></feDiffuseLighting><feComposite in="diffuse" in2="diffuse" operator="arithmetic" k1="1" result="composite1" id="feComposite180" /><feComposite in="composite1" in2="SourceGraphic" k1="1" operator="arithmetic" k3="1" result="composite2" id="feComposite182" /></filter></defs><g id="surface1" style="filter:url(#filter184)"><path style=" stroke:none;fill-rule:nonzero;fill:url(#linear0);" d="M 11.414062 1.285156 L 17.246094 6.042969 L 46.40625 6.042969 L 52.238281 1.285156 Z M 8.5 3.664062 L 8.5 32.21875 L 14.332031 27.457031 L 14.332031 8.421875 Z M 8.5 32.21875 L 8.5 60.773438 L 14.332031 56.011719 L 14.332031 36.976562 Z M 49.320312 8.421875 L 49.320312 27.457031 L 55.152344 32.21875 L 55.152344 3.664062 Z M 55.152344 32.21875 L 49.320312 36.976562 L 49.320312 56.011719 L 55.152344 60.773438 Z M 15.789062 29.839844 L 12.875 32.21875 L 15.789062 34.597656 L 47.863281 34.597656 L 50.777344 32.21875 L 47.863281 29.839844 Z M 17.246094 58.390625 L 11.414062 63.152344 L 52.238281 63.152344 L 46.40625 58.390625 Z M 17.246094 58.390625 "/></g></svg>
