<svg width="64" height="64" viewBox="0 0 64 64" version="1.1" xmlns:inkscape="http://www.inkscape.org/namespaces/inkscape"><defs><linearGradient id="linear0" gradientUnits="userSpaceOnUse" x1="0" y1="0" x2="0" y2="1" gradientTransform="matrix(58.051929,0,0,37.387811,2.019921,14.493866)"><stop offset="0" style="stop-color:rgb(0%,96.078432%,86.274511%);stop-opacity:1;"/><stop offset="1" style="stop-color:rgb(0%,54.901963%,49.411765%);stop-opacity:1;"/></linearGradient><filter style="color-interpolation-filters:sRGB;" inkscape:label="Diffuse Light" id="filter184" x="-0.0375" y="-0.0375" width="1.075" height="1.075"><feGaussianBlur in="SourceGraphic" stdDeviation="1" result="blur" id="feGaussianBlur174" /><feDiffuseLighting diffuseConstant="1" surfaceScale="10" lighting-color="rgb(255,255,255)" result="diffuse" id="feDiffuseLighting178"><feDistantLight elevation="8" azimuth="235" id="feDistantLight176" /></feDiffuseLighting><feComposite in="diffuse" in2="diffuse" operator="arithmetic" k1="1" result="composite1" id="feComposite180" /><feComposite in="composite1" in2="SourceGraphic" k1="1" operator="arithmetic" k3="1" result="composite2" id="feComposite182" /></filter></defs><g id="surface1" style="filter:url(#filter184)"><path style=" stroke:none;fill-rule:nonzero;fill:url(#linear0);" d="M 7.46875 3.371094 L 16.667969 15.609375 L 16.667969 62.117188 L 28.160156 62.117188 L 28.160156 40.085938 L 32.753906 40.085938 L 44.246094 62.117188 L 58.039062 62.117188 L 45.285156 39.472656 C 52.636719 37.386719 58.039062 30.246094 58.039062 21.730469 C 58.039062 11.546875 50.363281 3.371094 40.800781 3.371094 Z M 28.160156 15.609375 L 37.355469 15.609375 C 41.167969 15.609375 44.246094 18.890625 44.246094 22.953125 C 44.246094 27.015625 41.167969 30.296875 37.355469 30.296875 L 28.160156 30.296875 Z M 28.160156 15.609375 "/></g></svg>
