<svg width="64" height="64" viewBox="0 0 64 64" version="1.1" xmlns:inkscape="http://www.inkscape.org/namespaces/inkscape"><defs><linearGradient id="linear0" gradientUnits="userSpaceOnUse" x1="0" y1="0" x2="0" y2="1" gradientTransform="matrix(61.078347,0,0,39.638965,0.655801,11.837533)"><stop offset="0" style="stop-color:rgb(81.960785%,70.980394%,59.215689%);stop-opacity:1;"/><stop offset="1" style="stop-color:rgb(65.098041%,53.725493%,41.568628%);stop-opacity:1;"/></linearGradient><filter style="color-interpolation-filters:sRGB;" inkscape:label="Diffuse Light" id="filter184" x="-0.0375" y="-0.0375" width="1.075" height="1.075"><feGaussianBlur in="SourceGraphic" stdDeviation="1" result="blur" id="feGaussianBlur174" /><feDiffuseLighting diffuseConstant="1" surfaceScale="10" lighting-color="rgb(255,255,255)" result="diffuse" id="feDiffuseLighting178"><feDistantLight elevation="8" azimuth="235" id="feDistantLight176" /></feDiffuseLighting><feComposite in="diffuse" in2="diffuse" operator="arithmetic" k1="1" result="composite1" id="feComposite180" /><feComposite in="composite1" in2="SourceGraphic" k1="1" operator="arithmetic" k3="1" result="composite2" id="feComposite182" /></filter></defs><g id="surface1" style="filter:url(#filter184)"><path style=" stroke:none;fill-rule:nonzero;fill:url(#linear0);" d="M 4.074219 1.585938 L 4.074219 19.425781 L 11.070312 19.425781 L 11.070312 1.585938 Z M 15.730469 6.683594 L 15.730469 14.328125 L 41.375 14.328125 L 32.375 25.488281 L 27.386719 19.425781 L 15.730469 19.425781 L 26.59375 32.628906 L 6.40625 57.652344 L 48.363281 57.652344 L 48.363281 50.011719 L 22.722656 50.011719 L 31.71875 38.84375 L 36.707031 44.910156 L 48.363281 44.910156 L 37.5 31.707031 L 57.6875 6.683594 Z M 53.027344 44.910156 L 53.027344 62.75 L 60.019531 62.75 L 60.019531 44.910156 Z M 53.027344 44.910156 "/></g></svg>
