<svg width="64" height="64" viewBox="0 0 64 64" version="1.1" xmlns:inkscape="http://www.inkscape.org/namespaces/inkscape"><defs><linearGradient id="linear0" gradientUnits="userSpaceOnUse" x1="0" y1="0" x2="0" y2="1" gradientTransform="matrix(48,0,0,60,8,2)"><stop offset="0" style="stop-color:rgb(92.941177%,83.529413%,72.549021%);stop-opacity:1;"/><stop offset="1" style="stop-color:rgb(81.960785%,71.372551%,59.215689%);stop-opacity:1;"/></linearGradient><filter style="color-interpolation-filters:sRGB;" inkscape:label="Diffuse Light" id="filter184" x="-0.0375" y="-0.0375" width="1.075" height="1.075"><feGaussianBlur in="SourceGraphic" stdDeviation="1" result="blur" id="feGaussianBlur174" /><feDiffuseLighting diffuseConstant="1" surfaceScale="10" lighting-color="rgb(255,255,255)" result="diffuse" id="feDiffuseLighting178"><feDistantLight elevation="8" azimuth="235" id="feDistantLight176" /></feDiffuseLighting><feComposite in="diffuse" in2="diffuse" operator="arithmetic" k1="1" result="composite1" id="feComposite180" /><feComposite in="composite1" in2="SourceGraphic" k1="1" operator="arithmetic" k3="1" result="composite2" id="feComposite182" /></filter></defs><g id="surface1" style="filter:url(#filter184)"><path style=" stroke:none;fill-rule:nonzero;fill:url(#linear0);" d="M 16 62 C 8 62 8 54 8 54 L 8 10 C 8 2 15.574219 2.015625 16 2 L 48 2 C 48 2 56 2.015625 56 10 L 56 54 C 56 62 48 62 48 62 Z M 44 59 C 46.761719 59 49 56.761719 49 54 C 49 51.238281 46.761719 49 44 49 C 41.238281 49 39 51.238281 39 54 C 39 56.761719 41.238281 59 44 59 Z M 32 42 C 40.835938 42 48 34.835938 48 26 C 48 17.164062 40.835938 10 32 10 C 23.164062 10 16 17.164062 16 26 C 16 34.835938 23.164062 42 32 42 Z M 32 34 C 27.582031 34 24 30.417969 24 26 C 24 21.582031 27.582031 18 32 18 C 36.417969 18 40 21.582031 40 26 C 40 30.417969 36.417969 34 32 34 Z M 32 34 "/></g></svg>
