<svg width="64" height="64" viewBox="0 0 64 64" version="1.1" xmlns:inkscape="http://www.inkscape.org/namespaces/inkscape"><defs><linearGradient id="linear0" gradientUnits="userSpaceOnUse" x1="0" y1="0" x2="0" y2="1" gradientTransform="matrix(44.581356,0,0,44.738507,10.139515,9.808985)"><stop offset="0" style="stop-color:rgb(87.058824%,86.666667%,56.470591%);stop-opacity:1;"/><stop offset="1" style="stop-color:rgb(67.843139%,67.450982%,38.039216%);stop-opacity:1;"/></linearGradient><filter style="color-interpolation-filters:sRGB;" inkscape:label="Diffuse Light" id="filter184" x="-0.0375" y="-0.0375" width="1.075" height="1.075"><feGaussianBlur in="SourceGraphic" stdDeviation="1" result="blur" id="feGaussianBlur174" /><feDiffuseLighting diffuseConstant="1" surfaceScale="10" lighting-color="rgb(255,255,255)" result="diffuse" id="feDiffuseLighting178"><feDistantLight elevation="8" azimuth="235" id="feDistantLight176" /></feDiffuseLighting><feComposite in="diffuse" in2="diffuse" operator="arithmetic" k1="1" result="composite1" id="feComposite180" /><feComposite in="composite1" in2="SourceGraphic" k1="1" operator="arithmetic" k3="1" result="composite2" id="feComposite182" /></filter></defs><g id="surface1" style="filter:url(#filter184)"><path style=" stroke:none;fill-rule:nonzero;fill:url(#linear0);" d="M 25.578125 1.136719 C 23.863281 1.082031 22.367188 1.207031 21.09375 1.425781 C 19.816406 1.640625 18.75 1.953125 17.957031 2.292969 C 17.917969 2.308594 17.894531 2.324219 17.863281 2.339844 C 15.773438 2.914062 14.675781 4.386719 15.351562 5.765625 L 29.964844 36.558594 C 26.152344 36.480469 21.902344 37.214844 17.667969 38.773438 C 12.523438 40.667969 8.238281 43.449219 5.320312 46.679688 C 2.40625 49.90625 0.859375 53.796875 2.183594 57.183594 C 3.515625 60.574219 7.34375 62.480469 11.734375 63.015625 C 16.125 63.550781 21.25 62.886719 26.394531 60.992188 C 31.546875 59.09375 35.828125 56.265625 38.746094 53.039062 C 41.5 49.992188 43.03125 46.410156 42.074219 43.160156 C 42.136719 42.792969 42.054688 42.421875 41.878906 42.050781 L 27.023438 10.722656 C 31.203125 10.453125 35.050781 10.859375 38.550781 11.789062 C 44.007812 13.230469 48.671875 15.835938 52.296875 18.386719 C 55.925781 20.941406 58.535156 23.488281 60.0625 24.894531 C 60.445312 25.246094 60.761719 25.554688 61.027344 25.761719 C 61.160156 25.867188 61.308594 25.917969 61.464844 26.003906 C 61.535156 26.046875 61.613281 26.054688 61.753906 26.097656 C 61.886719 26.144531 62.121094 26.25 62.425781 26.195312 C 62.734375 26.144531 62.972656 25.972656 63.054688 25.859375 C 63.128906 25.742188 63.144531 25.640625 63.148438 25.570312 C 63.160156 25.429688 63.089844 25.28125 63.054688 25.136719 C 62.976562 24.847656 62.839844 24.511719 62.621094 23.980469 C 62.609375 23.9375 62.550781 23.878906 62.519531 23.835938 C 50.480469 9.445312 39.558594 3.710938 31.265625 1.859375 C 29.195312 1.394531 27.289062 1.1875 25.578125 1.136719 Z M 25.578125 1.136719 "/></g></svg>
