<svg width="64" height="64" viewBox="0 0 64 64" version="1.1" xmlns:inkscape="http://www.inkscape.org/namespaces/inkscape"><defs><linearGradient id="linear0" gradientUnits="userSpaceOnUse" x1="0" y1="0" x2="0" y2="1" gradientTransform="matrix(63.441839,0,0,61.696232,-2.219089,2.666048)"><stop offset="0" style="stop-color:rgb(82.352942%,61.176473%,100%);stop-opacity:1;"/><stop offset="1" style="stop-color:rgb(66.666669%,0%,100%);stop-opacity:1;"/></linearGradient><filter style="color-interpolation-filters:sRGB;" inkscape:label="Diffuse Light" id="filter184" x="-0.0375" y="-0.0375" width="1.075" height="1.075"><feGaussianBlur in="SourceGraphic" stdDeviation="1" result="blur" id="feGaussianBlur174" /><feDiffuseLighting diffuseConstant="1" surfaceScale="10" lighting-color="rgb(255,255,255)" result="diffuse" id="feDiffuseLighting178"><feDistantLight elevation="8" azimuth="235" id="feDistantLight176" /></feDiffuseLighting><feComposite in="diffuse" in2="diffuse" operator="arithmetic" k1="1" result="composite1" id="feComposite180" /><feComposite in="composite1" in2="SourceGraphic" k1="1" operator="arithmetic" k3="1" result="composite2" id="feComposite182" /></filter></defs><g id="surface1" style="filter:url(#filter184)"><path style=" stroke:none;fill-rule:nonzero;fill:url(#linear0);" d="M 16.742188 1.929688 C 12.378906 1.929688 8.847656 5.351562 8.847656 9.574219 C 8.847656 13.789062 12.378906 17.210938 16.742188 17.210938 C 21.105469 17.210938 24.636719 13.789062 24.636719 9.574219 C 24.636719 5.351562 21.105469 1.929688 16.742188 1.929688 Z M 25.472656 1.929688 C 27.382812 3.964844 28.582031 6.632812 28.582031 9.574219 C 28.582031 15.859375 23.234375 21.039062 16.742188 21.039062 C 13.710938 21.039062 10.949219 19.871094 8.847656 18.03125 L 8.847656 55.4375 C 8.847656 59.695312 12.339844 63.074219 16.742188 63.074219 C 21.140625 63.074219 24.636719 59.695312 24.636719 55.4375 C 24.636719 55.4375 25.226562 47.75 24.636719 43.96875 C 24.398438 42.441406 24.367188 41.175781 23.207031 39.542969 C 23.207031 39.542969 23.191406 39.511719 23.175781 39.5 C 22.035156 37.292969 20.695312 35.492188 20.683594 32.507812 L 20.683594 32.503906 C 20.683594 26.214844 26.039062 21.039062 32.535156 21.039062 L 32.539062 21.039062 C 36.339844 21.039062 39.910156 22.820312 42.132812 25.804688 L 42.207031 25.917969 L 50.144531 37.441406 C 53.878906 33.671875 56.210938 28.578125 56.210938 22.945312 C 56.210938 11.335938 46.347656 1.929688 34.5 1.929688 Z M 32.535156 24.859375 C 28.167969 24.859375 24.636719 28.285156 24.636719 32.503906 C 24.636719 34.308594 25.5 35.925781 26.5 37.429688 L 41.683594 59.582031 C 43.15625 61.753906 45.632812 63.085938 48.316406 63.085938 C 52.675781 63.085938 56.210938 59.652344 56.210938 55.4375 C 56.210938 53.863281 55.703125 52.328125 54.765625 51.039062 L 38.929688 28.039062 C 37.445312 26.046875 35.066406 24.863281 32.535156 24.863281 Z M 32.535156 24.859375 "/></g></svg>
