<?xml version="1.0" encoding="UTF-8" standalone="no"?>
<svg
   width="64"
   height="64"
   viewBox="0 0 64 64"
   version="1.1"
   id="svg13"
   sodipodi:docname="riseup-vpn.svg"
   inkscape:version="1.2.2 (b0a8486541, 2022-12-01)"
   xmlns:inkscape="http://www.inkscape.org/namespaces/inkscape"
   xmlns:sodipodi="http://sodipodi.sourceforge.net/DTD/sodipodi-0.dtd"
   xmlns="http://www.w3.org/2000/svg"
   xmlns:svg="http://www.w3.org/2000/svg">
  <defs
     id="defs17">
    <filter
       style="color-interpolation-filters:sRGB;"
       inkscape:label="Diffuse Light"
       id="filter187"
       x="-0.19291343"
       y="-0.17321003"
       width="1.4168374"
       height="1.3742442">
      <feGaussianBlur
         in="SourceGraphic"
         stdDeviation="3.45666"
         result="blur"
         id="feGaussianBlur177" />
      <feDiffuseLighting
         diffuseConstant="1"
         surfaceScale="10"
         lighting-color="rgb(255,255,255)"
         result="diffuse"
         id="feDiffuseLighting181">
        <feDistantLight
           elevation="8"
           azimuth="245"
           id="feDistantLight179" />
      </feDiffuseLighting>
      <feComposite
         in="diffuse"
         in2="diffuse"
         operator="arithmetic"
         k1="1"
         result="composite1"
         id="feComposite183" />
      <feComposite
         in="composite1"
         in2="SourceGraphic"
         k1="1"
         operator="arithmetic"
         k3="1"
         result="composite2"
         id="feComposite185" />
    </filter>
  </defs>
  <sodipodi:namedview
     id="namedview15"
     pagecolor="#ffffff"
     bordercolor="#000000"
     borderopacity="0.25"
     inkscape:showpageshadow="2"
     inkscape:pageopacity="0.0"
     inkscape:pagecheckerboard="0"
     inkscape:deskcolor="#d1d1d1"
     showgrid="false"
     inkscape:zoom="3.6875"
     inkscape:cx="32"
     inkscape:cy="32.135593"
     inkscape:window-width="1432"
     inkscape:window-height="844"
     inkscape:window-x="0"
     inkscape:window-y="0"
     inkscape:window-maximized="1"
     inkscape:current-layer="svg13" />
  <g
     id="surface1"
     transform="matrix(1.4031718,0,0,1.2455808,-25.844058,-16.633503)"
     style="filter:url(#filter187)">
    <path
       style="fill:#ff8a00;fill-opacity:0.992157;fill-rule:nonzero;stroke:none"
       d="m 31.9375,22.613281 c 0,0 -0.523438,-1.015625 -0.558594,-1.15625 C 31.34375,21.316406 31.0625,19.878906 31.0625,19.878906 L 31.414062,19.25 l 0.769532,-1.15625 1.121094,-0.878906 0.277343,-0.105469 2.695313,-1.015625 0.242187,-0.246094 -0.277343,-0.417968 -0.386719,-0.210938 -0.707031,-0.179688 -1.765626,-0.183593 -1.375,0.01172 -0.945312,0.210937 -0.835938,-0.316406 -1.050781,-0.140625 -1.539062,-0.03516 -0.769531,-0.03516 -1.292969,0.492188 -1.960938,2.277343 -0.242187,0.878907 -0.140625,0.769531 -0.664063,1.4375 -0.421875,1.367188 -0.210937,1.472656 v 0.3125 l -1.011719,1.542968 -0.5625,1.15625 v 1.648438 l 0.175781,3.398438 0.316406,1.226562 0.628907,1.121094 0.804687,0.738281 0.347656,1.4375 1.332032,2.941406 1.574218,1.894531 0.105469,0.105469 0.558594,2.839844 -1.925781,3.503906 -0.601563,0.46875 -0.453125,0.367188 -0.777344,-0.02344 -0.433593,0.222657 -0.523438,0.02344 -0.320312,0.316406 -0.679688,-0.101562 -0.671875,-0.03125 -0.515625,0.40625 -0.07422,0.609375 0.34375,-0.390625 0.578126,-0.167969 0.0625,0.554688 0.914062,-0.308594 0.527344,-0.02344 0.925781,0.109375 c 0,0 0.804687,-0.05078 0.941406,-0.06641 0.140625,-0.01563 0.992188,0.07031 0.992188,0.07031 l 0.628906,-0.07031 0.332031,0.140625 0.441406,-0.117188 0.484376,0.226563 0.695312,-0.07422 0.08984,-0.46875 -0.02734,-0.242187 0.476562,0.160156 0.382813,0.308594 0.253906,0.363281 -0.01563,-0.457031 -0.304687,-0.53125 c 0,0 -0.207031,-0.296875 -0.347657,-0.28125 -0.140624,0.01563 -0.679687,-0.101563 -0.679687,-0.101563 l -0.371094,0.144532 -0.40625,-0.167969 -0.398437,0.222656 -0.363282,-0.136719 -0.179687,-0.335937 -0.253906,-0.07813 0.273437,-0.710938 0.628906,-0.878906 0.839844,-1.402344 0.734375,-0.878906 0.28125,-0.347656 c 0,0 0.347657,-0.527344 0.347657,-0.667969 0,-0.140625 0.07031,-1.609375 0.07031,-1.609375 l -0.453125,-0.949219 -0.210937,-0.769531 4.058593,0.980469 h 0.246094 l 3.460937,2.488281 0.488282,0.632812 0.175781,2.488282 -0.07031,0.558594 -0.242187,0.457031 -0.175781,0.28125 -0.152344,0.390625 -0.101562,0.265625 -0.644532,0.199219 -0.652344,-0.117188 -0.398437,-0.05078 -0.726563,0.105469 -0.304687,0.328124 -0.117187,0.40625 0.09375,0.410157 0.152343,-0.410157 0.207031,-0.277343 0.203126,-0.06641 0.01562,0.351563 0.273438,0.175781 0.5625,-0.261718 0.277344,-0.03906 0.08984,0.375 0.847656,-0.01563 0.570312,-0.1875 0.472656,0.07422 0.683594,0.07813 0.234375,-0.07031 0.1875,-0.167969 0.304688,0.628907 0.0039,-0.710938 -0.292969,-0.808593 -0.425781,-0.253907 0.07031,-0.210937 -0.3125,-0.597656 0.03125,-2.277344 1.75,2.066406 2.308593,1.824219 c 0,0 1.574219,0.5625 1.714844,0.5625 0.140625,0 1.222656,-0.140625 1.222656,-0.140625 L 44.25,47.746094 43.726562,46.167969 43.9375,45.640625 l -1.121094,-1.472656 -2.371094,-2.414063 -0.566406,-1.894531 0.03516,-1.296875 -0.523437,-1.367188 -0.59375,-1.085937 0.347656,-1.089844 -0.28125,-1.574219 -1.191406,-2.6875 0.441406,-0.07422 L 37.375,29.40625 37.855469,29.25 37.007812,27.875 37.363281,27.683594 36.730469,26.644531 36.9375,26.527344 36.171875,25.90625 l 0.28125,-0.144531 -1.996094,-1.394531 z m 0,0"
       id="path2" />
    <path
       style="fill:#cf856e;fill-opacity:0.992157;fill-rule:nonzero;stroke:#ffffff;stroke-width:2;stroke-linecap:square;stroke-linejoin:round;stroke-miterlimit:4;stroke-opacity:1"
       d="m 36.621102,25.189459 c -0.140625,0 -0.27832,0.04395 -0.395507,0.128906 -1.12793,0.820313 -4.555666,3.064454 -8.750979,3.457032 -0.506836,0.04687 -0.893555,0.465821 -0.902344,0.972657 -0.05273,3.310548 0.480469,14.551761 9.793948,17.053715 0.166992,0.04395 0.339843,0.04395 0.506836,0 9.316408,-2.499024 9.846682,-13.743167 9.796877,-17.053715 -0.0059,-0.506836 -0.395508,-0.925782 -0.902344,-0.972657 -4.195313,-0.392578 -7.623049,-2.636719 -8.750979,-3.457032 -0.120117,-0.08496 -0.257812,-0.128906 -0.395508,-0.128906 z m 0,0 v 0 m 0,0"
       transform="scale(1.333333)"
       id="path4" />
    <path
       style="fill:#ffffff;fill-opacity:1;fill-rule:nonzero;stroke:none"
       d="m 38.664062,43.824219 h 1.660157 l 1.703125,6.574219 1.695312,-6.574219 h 1.660156 l -2.375,8.910156 h -1.96875 z m 0,0"
       id="path6" />
    <path
       style="fill:#ffffff;fill-opacity:1;fill-rule:nonzero;stroke:none"
       d="m 46.234375,43.824219 h 2.742187 c 0.816407,0 1.441407,0.253906 1.878907,0.757812 0.4375,0.5 0.65625,1.21875 0.65625,2.148438 0,0.933593 -0.21875,1.65625 -0.65625,2.160156 -0.4375,0.5 -1.0625,0.75 -1.878907,0.75 h -1.089843 v 3.09375 h -1.652344 z m 1.652344,1.664062 v 2.488281 h 0.914062 c 0.320313,0 0.570313,-0.105468 0.742188,-0.320312 0.175781,-0.21875 0.261719,-0.527344 0.261719,-0.925781 0,-0.398438 -0.08594,-0.703125 -0.261719,-0.917969 -0.171875,-0.214844 -0.421875,-0.324219 -0.742188,-0.324219 z m 0,0"
       id="path8" />
    <path
       style="fill:#ffffff;fill-opacity:1;fill-rule:nonzero;stroke:none"
       d="m 52.679688,43.824219 h 1.84375 l 2.332031,6.109375 v -6.109375 h 1.566406 v 8.910156 h -1.84375 l -2.332031,-6.113281 v 6.113281 h -1.566406 z m 0,0"
       id="path10" />
  </g>
</svg>
