<svg width="64" height="64" viewBox="0 0 64 64" version="1.1" xmlns:inkscape="http://www.inkscape.org/namespaces/inkscape"><defs><linearGradient id="linear0" gradientUnits="userSpaceOnUse" x1="0" y1="0" x2="0" y2="1" gradientTransform="matrix(56,0,0,35.898438,4,14.050781)"><stop offset="0" style="stop-color:rgb(87.058824%,86.666667%,56.470591%);stop-opacity:1;"/><stop offset="1" style="stop-color:rgb(67.843139%,67.450982%,38.039216%);stop-opacity:1;"/></linearGradient><linearGradient id="linear1" gradientUnits="userSpaceOnUse" x1="0" y1="0" x2="0" y2="1" gradientTransform="matrix(56,0,0,35.898438,4,14.050781)"><stop offset="0" style="stop-color:rgb(87.058824%,86.666667%,56.470591%);stop-opacity:1;"/><stop offset="1" style="stop-color:rgb(67.843139%,67.450982%,38.039216%);stop-opacity:1;"/></linearGradient><filter style="color-interpolation-filters:sRGB;" inkscape:label="Diffuse Light" id="filter184" x="-0.0375" y="-0.0375" width="1.075" height="1.075"><feGaussianBlur in="SourceGraphic" stdDeviation="1" result="blur" id="feGaussianBlur174" /><feDiffuseLighting diffuseConstant="1" surfaceScale="10" lighting-color="rgb(255,255,255)" result="diffuse" id="feDiffuseLighting178"><feDistantLight elevation="8" azimuth="235" id="feDistantLight176" /></feDiffuseLighting><feComposite in="diffuse" in2="diffuse" operator="arithmetic" k1="1" result="composite1" id="feComposite180" /><feComposite in="composite1" in2="SourceGraphic" k1="1" operator="arithmetic" k3="1" result="composite2" id="feComposite182" /></filter></defs><g id="surface1" style="filter:url(#filter184)"><path style=" stroke:none;fill-rule:nonzero;fill:url(#linear0);" d="M 3.253906 5.929688 L 3.253906 58.441406 L 13.367188 58.441406 L 13.367188 20.25 L 26.007812 34.574219 L 36.121094 34.574219 L 48.765625 20.25 L 48.765625 58.441406 L 58.878906 58.441406 L 58.878906 5.929688 L 48.765625 5.929688 L 31.066406 26.21875 L 13.367188 5.929688 Z M 3.253906 5.929688 "/><path style=" stroke:none;fill-rule:nonzero;fill:url(#linear1);" d="M 26.667969 39.347656 L 26.667969 45.066406 L 20.980469 45.066406 L 20.980469 52.6875 L 26.667969 52.6875 L 26.667969 58.40625 L 34.246094 58.40625 L 34.246094 52.6875 L 39.933594 52.6875 L 39.933594 45.066406 L 34.246094 45.066406 L 34.246094 39.347656 Z M 26.667969 39.347656 "/></g></svg>
