<svg width="64" height="64" viewBox="0 0 64 64" version="1.1" xmlns:inkscape="http://www.inkscape.org/namespaces/inkscape"><defs><linearGradient id="linear0" gradientUnits="userSpaceOnUse" x1="0" y1="0" x2="0" y2="1" gradientTransform="matrix(59.164485,0,0,35.898438,1.517732,17.729203)"><stop offset="0" style="stop-color:rgb(0%,73.333335%,100%);stop-opacity:1;"/><stop offset="1" style="stop-color:rgb(0%,52.156866%,70.980394%);stop-opacity:1;"/></linearGradient><linearGradient id="linear1" gradientUnits="userSpaceOnUse" x1="0" y1="0" x2="0" y2="1" gradientTransform="matrix(59.164485,0,0,35.898438,1.517732,17.729203)"><stop offset="0" style="stop-color:rgb(0%,73.333335%,100%);stop-opacity:1;"/><stop offset="1" style="stop-color:rgb(0%,52.156866%,70.980394%);stop-opacity:1;"/></linearGradient><linearGradient id="linear2" gradientUnits="userSpaceOnUse" x1="0" y1="0" x2="0" y2="1" gradientTransform="matrix(59.164485,0,0,35.898438,1.517732,17.729203)"><stop offset="0" style="stop-color:rgb(0%,73.333335%,100%);stop-opacity:1;"/><stop offset="1" style="stop-color:rgb(0%,52.156866%,70.980394%);stop-opacity:1;"/></linearGradient><linearGradient id="linear3" gradientUnits="userSpaceOnUse" x1="0" y1="0" x2="0" y2="1" gradientTransform="matrix(59.164485,0,0,35.898438,1.517732,17.729203)"><stop offset="0" style="stop-color:rgb(0%,73.333335%,100%);stop-opacity:1;"/><stop offset="1" style="stop-color:rgb(0%,52.156866%,70.980394%);stop-opacity:1;"/></linearGradient><filter style="color-interpolation-filters:sRGB;" inkscape:label="Diffuse Light" id="filter184" x="-0.0375" y="-0.0375" width="1.075" height="1.075"><feGaussianBlur in="SourceGraphic" stdDeviation="1" result="blur" id="feGaussianBlur174" /><feDiffuseLighting diffuseConstant="1" surfaceScale="10" lighting-color="rgb(255,255,255)" result="diffuse" id="feDiffuseLighting178"><feDistantLight elevation="8" azimuth="235" id="feDistantLight176" /></feDiffuseLighting><feComposite in="diffuse" in2="diffuse" operator="arithmetic" k1="1" result="composite1" id="feComposite180" /><feComposite in="composite1" in2="SourceGraphic" k1="1" operator="arithmetic" k3="1" result="composite2" id="feComposite182" /></filter></defs><g id="surface1" style="filter:url(#filter184)"><path style=" stroke:none;fill-rule:nonzero;fill:url(#linear0);" d="M 11.625 48.519531 L 11.625 50.609375 L 18.265625 50.609375 L 18.265625 48.519531 Z M 31.554688 48.519531 L 31.554688 50.609375 L 44.839844 50.609375 L 44.839844 48.519531 Z M 31.554688 48.519531 "/><path style=" stroke:none;fill-rule:nonzero;fill:url(#linear1);" d="M 4.980469 8.765625 L 4.980469 19.230469 L 18.265625 19.230469 L 18.265625 8.765625 Z M 31.554688 8.765625 L 31.554688 19.230469 L 44.839844 19.230469 L 44.839844 8.765625 Z M 0.554688 21.320312 L 0.554688 42.242188 L 11.625 42.242188 L 11.625 21.320312 Z M 4.980469 44.332031 L 4.980469 54.796875 L 18.265625 54.796875 L 18.265625 44.332031 Z M 31.554688 44.332031 L 31.554688 54.796875 L 44.839844 54.796875 L 44.839844 44.332031 Z M 31.554688 44.332031 "/><path style=" stroke:none;fill-rule:nonzero;fill:url(#linear2);" d="M 40.414062 17.136719 L 49.265625 21.320312 L 49.265625 42.242188 L 40.414062 46.421875 L 38.195312 31.78125 Z M 40.414062 17.136719 "/><path style=" stroke:none;fill-rule:nonzero;fill:url(#linear3);" d="M 18.636719 21.617188 L 16.417969 23.707031 L 16.417969 40.449219 L 18.636719 42.539062 L 31.921875 42.539062 L 34.132812 40.449219 L 34.132812 36.261719 L 62.917969 36.261719 L 62.917969 27.894531 L 34.132812 27.894531 L 34.132812 23.707031 L 31.921875 21.617188 Z M 18.636719 21.617188 "/></g></svg>
