<svg width="64" height="64" viewBox="0 0 64 64" version="1.1" xmlns:inkscape="http://www.inkscape.org/namespaces/inkscape"><defs><linearGradient id="linear0" gradientUnits="userSpaceOnUse" x1="0" y1="0" x2="0" y2="1" gradientTransform="matrix(38.710938,0,0,64,12.644531,0)"><stop offset="0" style="stop-color:rgb(100%,73.333335%,0%);stop-opacity:1;"/><stop offset="1" style="stop-color:rgb(70.19608%,51.372552%,0%);stop-opacity:1;"/></linearGradient><filter style="color-interpolation-filters:sRGB;" inkscape:label="Diffuse Light" id="filter184" x="-0.0375" y="-0.0375" width="1.075" height="1.075"><feGaussianBlur in="SourceGraphic" stdDeviation="1" result="blur" id="feGaussianBlur174" /><feDiffuseLighting diffuseConstant="1" surfaceScale="10" lighting-color="rgb(255,255,255)" result="diffuse" id="feDiffuseLighting178"><feDistantLight elevation="8" azimuth="235" id="feDistantLight176" /></feDiffuseLighting><feComposite in="diffuse" in2="diffuse" operator="arithmetic" k1="1" result="composite1" id="feComposite180" /><feComposite in="composite1" in2="SourceGraphic" k1="1" operator="arithmetic" k3="1" result="composite2" id="feComposite182" /></filter></defs><g id="surface1" style="filter:url(#filter184)"><path style=" stroke:none;fill-rule:nonzero;fill:url(#linear0);" d="M 51.355469 0 C 26.71875 0 12.089844 21.074219 12.660156 39.808594 L 12.660156 64 C 20.101562 64 27.542969 64 34.984375 64 L 34.984375 39.738281 C 34.984375 35.261719 36.457031 30.855469 39.191406 27.644531 C 41.929688 24.4375 45.867188 22.324219 51.355469 22.324219 Z M 46.890625 4.738281 L 46.890625 9.316406 C 33.023438 11.433594 21.589844 22.855469 21.589844 39.738281 L 21.589844 59.535156 L 17.125 59.535156 L 17.125 39.671875 C 16.660156 24.488281 27.570312 7.085938 46.890625 4.738281 Z M 46.890625 13.804688 L 46.890625 18.308594 C 42.273438 19.238281 38.492188 21.585938 35.792969 24.746094 C 32.273438 28.878906 30.519531 34.296875 30.519531 39.738281 L 30.519531 59.535156 L 26.054688 59.535156 L 26.054688 39.738281 C 26.054688 25.097656 35.300781 15.785156 46.890625 13.804688 Z M 46.890625 13.804688 "/></g></svg>
