<svg width="64" height="64" viewBox="0 0 64 64" version="1.1" xmlns:inkscape="http://www.inkscape.org/namespaces/inkscape"><defs><linearGradient id="linear0" gradientUnits="userSpaceOnUse" x1="0" y1="0" x2="0" y2="1" gradientTransform="matrix(74.123299,0,0,68.962434,-5.170818,-1.430107)"><stop offset="0" style="stop-color:rgb(0%,73.333335%,100%);stop-opacity:1;"/><stop offset="1" style="stop-color:rgb(0%,52.156866%,70.980394%);stop-opacity:1;"/></linearGradient><filter style="color-interpolation-filters:sRGB;" inkscape:label="Diffuse Light" id="filter184" x="-0.0375" y="-0.0375" width="1.075" height="1.075"><feGaussianBlur in="SourceGraphic" stdDeviation="1" result="blur" id="feGaussianBlur174" /><feDiffuseLighting diffuseConstant="1" surfaceScale="10" lighting-color="rgb(255,255,255)" result="diffuse" id="feDiffuseLighting178"><feDistantLight elevation="8" azimuth="235" id="feDistantLight176" /></feDiffuseLighting><feComposite in="diffuse" in2="diffuse" operator="arithmetic" k1="1" result="composite1" id="feComposite180" /><feComposite in="composite1" in2="SourceGraphic" k1="1" operator="arithmetic" k3="1" result="composite2" id="feComposite182" /></filter></defs><g id="surface1" style="filter:url(#filter184)"><path style=" stroke:none;fill-rule:nonzero;fill:url(#linear0);" d="M 53.871094 10.152344 C 49.261719 5.488281 43.328125 2.421875 36.90625 1.394531 L 36.910156 11.347656 C 40.753906 12.253906 44.273438 14.238281 47.066406 17.074219 C 55.332031 25.484375 55.332031 39.121094 47.066406 47.53125 C 44.269531 50.363281 40.753906 52.34375 36.910156 53.242188 L 36.90625 63.203125 C 43.328125 62.179688 49.261719 59.117188 53.871094 54.453125 C 65.890625 42.222656 65.890625 22.390625 53.871094 10.152344 Z M 27.289062 1.40625 C 20.867188 2.429688 14.933594 5.488281 10.324219 10.152344 C -1.695312 22.390625 -1.695312 42.222656 10.324219 54.453125 C 14.933594 59.121094 20.867188 62.1875 27.285156 63.210938 L 27.285156 53.265625 C 23.441406 52.351562 19.925781 50.367188 17.128906 47.53125 C 8.863281 39.121094 8.863281 25.484375 17.128906 17.074219 C 19.925781 14.246094 23.441406 12.265625 27.285156 11.363281 Z M 27.289062 1.40625 "/></g></svg>
