<svg width="64" height="64" viewBox="0 0 64 64" version="1.1" xmlns:inkscape="http://www.inkscape.org/namespaces/inkscape"><defs><linearGradient id="linear0" gradientUnits="userSpaceOnUse" x1="0" y1="0" x2="0" y2="1" gradientTransform="matrix(60.912622,0,0,38.496191,1.11217,11.234194)"><stop offset="0" style="stop-color:rgb(100%,73.333335%,0%);stop-opacity:1;"/><stop offset="1" style="stop-color:rgb(70.19608%,51.372552%,0%);stop-opacity:1;"/></linearGradient><linearGradient id="linear1" gradientUnits="userSpaceOnUse" x1="0" y1="0" x2="0" y2="1" gradientTransform="matrix(60.912622,0,0,38.496191,1.11217,11.234194)"><stop offset="0" style="stop-color:rgb(100%,73.333335%,0%);stop-opacity:1;"/><stop offset="1" style="stop-color:rgb(70.19608%,51.372552%,0%);stop-opacity:1;"/></linearGradient><filter style="color-interpolation-filters:sRGB;" inkscape:label="Diffuse Light" id="filter184" x="-0.0375" y="-0.0375" width="1.075" height="1.075"><feGaussianBlur in="SourceGraphic" stdDeviation="1" result="blur" id="feGaussianBlur174" /><feDiffuseLighting diffuseConstant="1" surfaceScale="10" lighting-color="rgb(255,255,255)" result="diffuse" id="feDiffuseLighting178"><feDistantLight elevation="8" azimuth="235" id="feDistantLight176" /></feDiffuseLighting><feComposite in="diffuse" in2="diffuse" operator="arithmetic" k1="1" result="composite1" id="feComposite180" /><feComposite in="composite1" in2="SourceGraphic" k1="1" operator="arithmetic" k3="1" result="composite2" id="feComposite182" /></filter></defs><g id="surface1" style="filter:url(#filter184)"><path style=" stroke:none;fill-rule:nonzero;fill:url(#linear0);" d="M 46.164062 2.546875 L 29.566406 18.625 L 46.164062 34.699219 L 62.753906 18.625 Z M 1.125 11.734375 L 1.125 34.699219 L 24.828125 34.699219 L 24.828125 11.734375 Z M 1.125 39.292969 L 1.125 62.257812 L 24.828125 62.257812 L 24.828125 39.292969 Z M 29.566406 39.292969 L 29.566406 62.257812 L 53.277344 62.257812 L 53.277344 39.292969 Z M 29.566406 39.292969 "/><path style=" stroke:none;fill-rule:nonzero;fill:url(#linear1);" d="M 35.996094 25.824219 L 31.644531 25.824219 L 31.644531 27.253906 L 34.542969 30.113281 L 34.542969 32.976562 L 33.09375 34.402344 L 30.191406 34.402344 L 27.292969 31.542969 L 25.839844 31.542969 L 25.839844 35.832031 L 28.742188 38.691406 L 34.542969 38.691406 L 42.648438 46.425781 C 43.175781 46.945312 43.902344 47.265625 44.699219 47.265625 C 46.289062 47.265625 47.59375 45.984375 47.59375 44.40625 C 47.59375 43.613281 47.273438 42.902344 46.746094 42.390625 L 38.902344 34.398438 L 38.902344 28.675781 Z M 35.996094 25.824219 "/></g></svg>
