<svg width="64" height="64" viewBox="0 0 64 64" version="1.1" xmlns:inkscape="http://www.inkscape.org/namespaces/inkscape"><defs><linearGradient id="linear0" gradientUnits="userSpaceOnUse" x1="0" y1="0" x2="0" y2="1" gradientTransform="matrix(62.978809,0,0,68.854466,0.647878,-2.768395)"><stop offset="0" style="stop-color:rgb(100%,63.137257%,63.137257%);stop-opacity:1;"/><stop offset="1" style="stop-color:rgb(100%,27.843139%,27.843139%);stop-opacity:1;"/></linearGradient><filter style="color-interpolation-filters:sRGB;" inkscape:label="Diffuse Light" id="filter184" x="-0.0375" y="-0.0375" width="1.075" height="1.075"><feGaussianBlur in="SourceGraphic" stdDeviation="1" result="blur" id="feGaussianBlur174" /><feDiffuseLighting diffuseConstant="1" surfaceScale="10" lighting-color="rgb(255,255,255)" result="diffuse" id="feDiffuseLighting178"><feDistantLight elevation="8" azimuth="235" id="feDistantLight176" /></feDiffuseLighting><feComposite in="diffuse" in2="diffuse" operator="arithmetic" k1="1" result="composite1" id="feComposite180" /><feComposite in="composite1" in2="SourceGraphic" k1="1" operator="arithmetic" k3="1" result="composite2" id="feComposite182" /></filter></defs><g id="surface1" style="filter:url(#filter184)"><path style=" stroke:none;fill-rule:evenodd;fill:url(#linear0);" d="M 5.378906 11.257812 C 3.160156 11.257812 1.382812 13.195312 1.382812 15.609375 C 1.382812 18.019531 3.160156 19.957031 5.378906 19.957031 C 7.59375 19.957031 9.378906 18.019531 9.378906 15.609375 C 9.378906 13.195312 7.59375 11.257812 5.378906 11.257812 M 18.835938 11.257812 C 16.421875 11.257812 14.480469 13.214844 14.480469 15.652344 C 14.480469 18.089844 16.421875 20.058594 18.835938 20.058594 L 58.65625 20.058594 C 61.074219 20.058594 63.019531 18.089844 63.019531 15.652344 C 63.019531 13.214844 61.074219 11.257812 58.65625 11.257812 Z M 5.378906 27.472656 C 3.160156 27.472656 1.382812 29.410156 1.382812 31.820312 C 1.382812 34.238281 3.160156 36.167969 5.378906 36.167969 C 7.59375 36.167969 9.378906 34.238281 9.378906 31.820312 C 9.378906 29.410156 7.59375 27.472656 5.378906 27.472656 M 18.835938 27.472656 C 16.421875 27.472656 14.480469 29.429688 14.480469 31.871094 C 14.480469 34.316406 16.421875 36.273438 18.835938 36.273438 L 58.65625 36.273438 C 61.074219 36.273438 63.019531 34.316406 63.019531 31.871094 C 63.019531 29.429688 61.074219 27.472656 58.65625 27.472656 Z M 5.378906 43.683594 C 3.160156 43.683594 1.382812 45.625 1.382812 48.035156 C 1.382812 50.453125 3.160156 52.394531 5.378906 52.394531 C 7.59375 52.394531 9.378906 50.453125 9.378906 48.035156 C 9.378906 45.625 7.59375 43.683594 5.378906 43.683594 M 18.835938 43.683594 C 16.421875 43.683594 14.480469 45.65625 14.480469 48.089844 C 14.480469 50.53125 16.421875 52.488281 18.835938 52.488281 L 58.65625 52.488281 C 61.074219 52.488281 63.019531 50.53125 63.019531 48.089844 C 63.019531 45.65625 61.074219 43.683594 58.65625 43.683594 Z M 18.835938 43.683594 "/></g></svg>
