<svg width="64" height="64" viewBox="0 0 64 64" version="1.1" xmlns:inkscape="http://www.inkscape.org/namespaces/inkscape"><defs><linearGradient id="linear0" gradientUnits="userSpaceOnUse" x1="0" y1="0" x2="0" y2="1" gradientTransform="matrix(64,0,0,56,0,4)"><stop offset="0" style="stop-color:rgb(92.941177%,83.529413%,72.549021%);stop-opacity:1;"/><stop offset="1" style="stop-color:rgb(81.960785%,71.372551%,59.215689%);stop-opacity:1;"/></linearGradient><filter style="color-interpolation-filters:sRGB;" inkscape:label="Diffuse Light" id="filter184" x="-0.0375" y="-0.0375" width="1.075" height="1.075"><feGaussianBlur in="SourceGraphic" stdDeviation="1" result="blur" id="feGaussianBlur174" /><feDiffuseLighting diffuseConstant="1" surfaceScale="10" lighting-color="rgb(255,255,255)" result="diffuse" id="feDiffuseLighting178"><feDistantLight elevation="8" azimuth="235" id="feDistantLight176" /></feDiffuseLighting><feComposite in="diffuse" in2="diffuse" operator="arithmetic" k1="1" result="composite1" id="feComposite180" /><feComposite in="composite1" in2="SourceGraphic" k1="1" operator="arithmetic" k3="1" result="composite2" id="feComposite182" /></filter></defs><g id="surface1" style="filter:url(#filter184)"><path style=" stroke:none;fill-rule:nonzero;fill:url(#linear0);" d="M 12.015625 4 C 12.015625 4 8.019531 3.988281 8.015625 8 L 8 23.984375 L 0 23.984375 L 0 27.984375 L 64 27.984375 L 64 23.984375 L 56 23.984375 L 56.015625 8 C 56.019531 3.988281 52.015625 4 52.015625 4 Z M 12 7.984375 L 52 7.984375 L 52 23.984375 L 12 23.984375 Z M 8.015625 35.984375 L 8.015625 56 C 8.015625 56 8.015625 60 12.015625 60 L 52.015625 60 C 56.015625 60 56.015625 56 56.015625 56 L 56.015625 35.984375 L 52 35.984375 L 52 55.984375 L 12 55.984375 L 12 35.984375 Z M 8.015625 35.984375 "/></g></svg>
