<svg width="64" height="64" viewBox="0 0 64 64" version="1.1" xmlns:inkscape="http://www.inkscape.org/namespaces/inkscape"><defs><linearGradient id="linear0" gradientUnits="userSpaceOnUse" x1="0" y1="0" x2="0" y2="1" gradientTransform="matrix(56,0,0,35.898438,4,14.050781)"><stop offset="0" style="stop-color:rgb(0%,73.333335%,100%);stop-opacity:1;"/><stop offset="1" style="stop-color:rgb(0%,52.156866%,70.980394%);stop-opacity:1;"/></linearGradient><linearGradient id="linear1" gradientUnits="userSpaceOnUse" x1="0" y1="0" x2="0" y2="1" gradientTransform="matrix(56,0,0,35.898438,4,14.050781)"><stop offset="0" style="stop-color:rgb(0%,73.333335%,100%);stop-opacity:1;"/><stop offset="1" style="stop-color:rgb(0%,52.156866%,70.980394%);stop-opacity:1;"/></linearGradient><filter style="color-interpolation-filters:sRGB;" inkscape:label="Diffuse Light" id="filter184" x="-0.0375" y="-0.0375" width="1.075" height="1.075"><feGaussianBlur in="SourceGraphic" stdDeviation="1" result="blur" id="feGaussianBlur174" /><feDiffuseLighting diffuseConstant="1" surfaceScale="10" lighting-color="rgb(255,255,255)" result="diffuse" id="feDiffuseLighting178"><feDistantLight elevation="8" azimuth="235" id="feDistantLight176" /></feDiffuseLighting><feComposite in="diffuse" in2="diffuse" operator="arithmetic" k1="1" result="composite1" id="feComposite180" /><feComposite in="composite1" in2="SourceGraphic" k1="1" operator="arithmetic" k3="1" result="composite2" id="feComposite182" /></filter></defs><g id="surface1" style="filter:url(#filter184)"><path style=" stroke:none;fill-rule:nonzero;fill:url(#linear0);" d="M 12.085938 3.117188 L 12.085938 5.988281 L 26.132812 5.988281 L 26.132812 3.117188 Z M 12.085938 5.988281 L 2.71875 5.988281 L 2.71875 60.492188 L 12.085938 60.492188 L 12.085938 51.886719 L 58.90625 51.886719 L 58.90625 49.019531 L 12.085938 49.019531 L 12.085938 40.410156 L 58.90625 40.410156 L 58.90625 37.542969 L 12.085938 37.542969 L 12.085938 28.9375 L 58.90625 28.9375 L 58.90625 26.066406 L 12.085938 26.066406 L 12.085938 17.460938 L 58.90625 17.460938 L 58.90625 14.59375 L 12.085938 14.59375 Z M 28.472656 3.117188 L 28.472656 5.988281 L 42.519531 5.988281 L 42.519531 3.117188 Z M 44.859375 3.117188 L 44.859375 5.988281 L 58.90625 5.988281 L 58.90625 3.117188 Z M 44.859375 3.117188 "/><path style=" stroke:none;fill-rule:nonzero;fill:url(#linear1);" d="M 21.402344 3.988281 L 21.402344 60.230469 L 23.886719 60.230469 L 23.886719 3.988281 Z M 38.785156 3.988281 L 38.785156 60.230469 L 41.265625 60.230469 L 41.265625 3.988281 Z M 56.164062 3.988281 L 56.164062 60.230469 L 61.132812 60.230469 L 61.132812 3.988281 Z M 56.164062 3.988281 "/></g></svg>
