<svg width="64" height="64" viewBox="0 0 64 64" version="1.1" xmlns:inkscape="http://www.inkscape.org/namespaces/inkscape"><defs><linearGradient id="linear0" gradientUnits="userSpaceOnUse" x1="0" y1="0" x2="0" y2="1" gradientTransform="matrix(56,0,0,35.898438,4,14.050781)"><stop offset="0" style="stop-color:rgb(41.960785%,64.313728%,100%);stop-opacity:1;"/><stop offset="1" style="stop-color:rgb(0%,43.137255%,100%);stop-opacity:1;"/></linearGradient><filter style="color-interpolation-filters:sRGB;" inkscape:label="Diffuse Light" id="filter184" x="-0.0375" y="-0.0375" width="1.075" height="1.075"><feGaussianBlur in="SourceGraphic" stdDeviation="1" result="blur" id="feGaussianBlur174" /><feDiffuseLighting diffuseConstant="1" surfaceScale="10" lighting-color="rgb(255,255,255)" result="diffuse" id="feDiffuseLighting178"><feDistantLight elevation="8" azimuth="235" id="feDistantLight176" /></feDiffuseLighting><feComposite in="diffuse" in2="diffuse" operator="arithmetic" k1="1" result="composite1" id="feComposite180" /><feComposite in="composite1" in2="SourceGraphic" k1="1" operator="arithmetic" k3="1" result="composite2" id="feComposite182" /></filter></defs><g id="surface1" style="filter:url(#filter184)"><path style=" stroke:none;fill-rule:nonzero;fill:url(#linear0);" d="M 3.550781 5.027344 C 5.886719 7.214844 12.882812 9.402344 12.882812 13.773438 L 12.882812 22.523438 C 12.882812 23.996094 13.277344 25.417969 13.960938 26.679688 L 5.75 49.277344 L 3.550781 57.511719 L 17.550781 57.511719 L 26.882812 55.324219 L 36.214844 55.324219 L 45.546875 57.511719 L 59.546875 57.511719 L 57.351562 49.277344 L 59.546875 48.765625 L 54.882812 35.644531 L 47.882812 24.710938 L 45.546875 20.335938 L 38.550781 18.148438 L 19.882812 19.605469 L 19.882812 13.773438 C 19.882812 9.402344 26.882812 7.214844 29.214844 5.027344 Z M 3.550781 5.027344 "/></g></svg>
