<svg width="64" height="64" viewBox="0 0 64 64" version="1.1" xmlns:inkscape="http://www.inkscape.org/namespaces/inkscape"><defs><linearGradient id="linear0" gradientUnits="userSpaceOnUse" x1="0" y1="0" x2="0" y2="1" gradientTransform="matrix(56,0,0,35.898438,4,14.050781)"><stop offset="0" style="stop-color:rgb(92.941177%,83.529413%,72.549021%);stop-opacity:1;"/><stop offset="1" style="stop-color:rgb(81.960785%,71.372551%,59.215689%);stop-opacity:1;"/></linearGradient><filter style="color-interpolation-filters:sRGB;" inkscape:label="Diffuse Light" id="filter184" x="-0.0375" y="-0.0375" width="1.075" height="1.075"><feGaussianBlur in="SourceGraphic" stdDeviation="1" result="blur" id="feGaussianBlur174" /><feDiffuseLighting diffuseConstant="1" surfaceScale="10" lighting-color="rgb(255,255,255)" result="diffuse" id="feDiffuseLighting178"><feDistantLight elevation="8" azimuth="235" id="feDistantLight176" /></feDiffuseLighting><feComposite in="diffuse" in2="diffuse" operator="arithmetic" k1="1" result="composite1" id="feComposite180" /><feComposite in="composite1" in2="SourceGraphic" k1="1" operator="arithmetic" k3="1" result="composite2" id="feComposite182" /></filter></defs><g id="surface1" style="filter:url(#filter184)"><path style=" stroke:none;fill-rule:nonzero;fill:url(#linear0);" d="M 12.464844 4.683594 L 2.875 14.144531 L 2.875 23.601562 L 22.054688 4.683594 Z M 12.464844 14.144531 L 12.464844 23.601562 L 2.875 33.0625 L 12.464844 42.519531 L 12.464844 51.980469 L 22.054688 51.980469 L 31.648438 61.4375 L 41.238281 51.980469 L 50.828125 51.980469 L 50.828125 42.519531 L 60.421875 33.0625 L 50.828125 23.601562 L 50.828125 14.144531 L 41.238281 14.144531 L 31.648438 4.683594 L 22.054688 14.144531 Z M 50.828125 14.144531 L 60.421875 23.601562 L 60.421875 14.144531 L 50.828125 4.683594 L 41.238281 4.683594 Z M 50.828125 51.980469 L 41.238281 61.4375 L 50.828125 61.4375 L 60.421875 51.980469 L 60.421875 42.519531 Z M 12.464844 51.980469 L 2.875 42.519531 L 2.875 51.980469 L 12.464844 61.4375 L 22.054688 61.4375 Z M 22.054688 23.601562 L 41.238281 23.601562 L 41.238281 42.519531 L 22.054688 42.519531 Z M 22.054688 33.0625 L 31.648438 42.519531 L 41.238281 33.0625 L 31.648438 23.601562 Z M 22.054688 33.0625 "/></g></svg>
