<svg width="64" height="64" viewBox="0 0 64 64" version="1.1" xmlns:inkscape="http://www.inkscape.org/namespaces/inkscape"><defs><linearGradient id="linear0" gradientUnits="userSpaceOnUse" x1="0" y1="0" x2="0" y2="1" gradientTransform="matrix(52.210938,0,0,64,5.894531,0)"><stop offset="0" style="stop-color:rgb(81.960785%,70.980394%,59.215689%);stop-opacity:1;"/><stop offset="1" style="stop-color:rgb(65.098041%,53.725493%,41.568628%);stop-opacity:1;"/></linearGradient><filter style="color-interpolation-filters:sRGB;" inkscape:label="Diffuse Light" id="filter184" x="-0.0375" y="-0.0375" width="1.075" height="1.075"><feGaussianBlur in="SourceGraphic" stdDeviation="1" result="blur" id="feGaussianBlur174" /><feDiffuseLighting diffuseConstant="1" surfaceScale="10" lighting-color="rgb(255,255,255)" result="diffuse" id="feDiffuseLighting178"><feDistantLight elevation="8" azimuth="235" id="feDistantLight176" /></feDiffuseLighting><feComposite in="diffuse" in2="diffuse" operator="arithmetic" k1="1" result="composite1" id="feComposite180" /><feComposite in="composite1" in2="SourceGraphic" k1="1" operator="arithmetic" k3="1" result="composite2" id="feComposite182" /></filter></defs><g id="surface1" style="filter:url(#filter184)"><path style=" stroke:none;fill-rule:nonzero;fill:url(#linear0);" d="M 5.894531 0 L 5.894531 5.050781 L 53.050781 5.050781 L 53.050781 0 Z M 5.894531 11.789062 L 5.894531 16.84375 L 58.105469 16.84375 L 58.105469 11.789062 Z M 5.894531 23.578125 L 5.894531 28.632812 L 53.050781 28.632812 L 53.050781 23.578125 Z M 5.894531 35.367188 L 5.894531 40.421875 L 42.949219 40.421875 L 42.949219 35.367188 Z M 5.894531 47.15625 L 5.894531 52.210938 L 53.050781 52.210938 L 53.050781 47.15625 Z M 5.894531 58.949219 L 5.894531 64 L 42.949219 64 L 42.949219 58.949219 Z M 5.894531 58.949219 "/></g></svg>
