<svg width="64" height="64" viewBox="0 0 64 64" version="1.1" xmlns:inkscape="http://www.inkscape.org/namespaces/inkscape"><defs><linearGradient id="linear0" gradientUnits="userSpaceOnUse" x1="0" y1="0" x2="0" y2="1" gradientTransform="matrix(56,0,0,35.898438,4,14.050781)"><stop offset="0" style="stop-color:rgb(87.058824%,86.666667%,56.470591%);stop-opacity:1;"/><stop offset="1" style="stop-color:rgb(67.843139%,67.450982%,38.039216%);stop-opacity:1;"/></linearGradient><filter style="color-interpolation-filters:sRGB;" inkscape:label="Diffuse Light" id="filter184" x="-0.0375" y="-0.0375" width="1.075" height="1.075"><feGaussianBlur in="SourceGraphic" stdDeviation="1" result="blur" id="feGaussianBlur174" /><feDiffuseLighting diffuseConstant="1" surfaceScale="10" lighting-color="rgb(255,255,255)" result="diffuse" id="feDiffuseLighting178"><feDistantLight elevation="8" azimuth="235" id="feDistantLight176" /></feDiffuseLighting><feComposite in="diffuse" in2="diffuse" operator="arithmetic" k1="1" result="composite1" id="feComposite180" /><feComposite in="composite1" in2="SourceGraphic" k1="1" operator="arithmetic" k3="1" result="composite2" id="feComposite182" /></filter></defs><g id="surface1" style="filter:url(#filter184)"><path style=" stroke:none;fill-rule:nonzero;fill:url(#linear0);" d="M 12.238281 4.222656 C 7.644531 4.222656 3.9375 7.160156 3.9375 10.800781 L 3.9375 23.957031 C 3.9375 27.597656 7.644531 30.535156 12.238281 30.535156 L 50.960938 30.535156 C 55.550781 30.535156 59.257812 27.597656 59.257812 23.957031 L 59.257812 10.800781 C 59.257812 7.160156 55.550781 4.222656 50.960938 4.222656 Z M 12.238281 10.800781 L 50.960938 10.800781 L 50.960938 23.957031 L 12.238281 23.957031 Z M 12.238281 34.921875 C 7.644531 34.921875 3.9375 37.863281 3.9375 41.5 L 3.9375 54.660156 C 3.9375 58.300781 7.644531 61.238281 12.238281 61.238281 L 50.960938 61.238281 C 55.550781 61.238281 59.257812 58.300781 59.257812 54.660156 L 59.257812 41.5 C 59.257812 37.863281 55.550781 34.921875 50.960938 34.921875 Z M 12.238281 41.5 L 50.960938 41.5 L 50.960938 54.660156 L 12.238281 54.660156 Z M 12.238281 41.5 "/></g></svg>
