<svg width="64" height="64" viewBox="0 0 64 64" version="1.1" xmlns:inkscape="http://www.inkscape.org/namespaces/inkscape"><defs><linearGradient id="linear0" gradientUnits="userSpaceOnUse" x1="0" y1="0" x2="0" y2="1" gradientTransform="matrix(64,0,0,46.9375,0,8.53125)"><stop offset="0" style="stop-color:rgb(0%,73.333335%,100%);stop-opacity:1;"/><stop offset="1" style="stop-color:rgb(0%,52.156866%,70.980394%);stop-opacity:1;"/></linearGradient><filter style="color-interpolation-filters:sRGB;" inkscape:label="Diffuse Light" id="filter184" x="-0.0375" y="-0.0375" width="1.075" height="1.075"><feGaussianBlur in="SourceGraphic" stdDeviation="1" result="blur" id="feGaussianBlur174" /><feDiffuseLighting diffuseConstant="1" surfaceScale="10" lighting-color="rgb(255,255,255)" result="diffuse" id="feDiffuseLighting178"><feDistantLight elevation="8" azimuth="235" id="feDistantLight176" /></feDiffuseLighting><feComposite in="diffuse" in2="diffuse" operator="arithmetic" k1="1" result="composite1" id="feComposite180" /><feComposite in="composite1" in2="SourceGraphic" k1="1" operator="arithmetic" k3="1" result="composite2" id="feComposite182" /></filter></defs><g id="surface1" style="filter:url(#filter184)"><path style=" stroke:none;fill-rule:nonzero;fill:url(#linear0);" d="M 12.800781 8.53125 L 12.800781 12.800781 L 25.601562 12.800781 L 25.601562 17.066406 L 8.53125 17.066406 L 8.53125 29.867188 L 4.269531 29.867188 L 4.269531 17.066406 L 0 17.066406 L 0 46.933594 L 4.269531 46.933594 L 4.269531 34.132812 L 8.53125 34.132812 L 8.53125 46.933594 L 17.066406 55.46875 L 44.800781 55.46875 L 49.066406 51.199219 L 55.46875 51.199219 L 55.46875 55.46875 L 59.730469 55.46875 L 64 51.199219 L 64 25.601562 L 59.730469 21.332031 L 55.46875 21.332031 L 55.46875 25.601562 L 51.730469 25.601562 L 43.199219 17.066406 L 29.867188 17.066406 L 29.867188 12.800781 L 42.667969 12.800781 L 42.667969 8.53125 Z M 12.800781 21.332031 L 40.53125 21.332031 L 49.066406 29.867188 L 59.730469 29.867188 L 59.730469 46.933594 L 46.933594 46.933594 L 42.667969 51.199219 L 19.730469 51.199219 L 12.800781 43.949219 Z M 12.800781 21.332031 "/></g></svg>
