<svg width="64" height="64" viewBox="0 0 64 64" version="1.1" xmlns:inkscape="http://www.inkscape.org/namespaces/inkscape"><defs><linearGradient id="linear0" gradientUnits="userSpaceOnUse" x1="0" y1="0" x2="0" y2="1" gradientTransform="matrix(64,0,0,64,0,0)"><stop offset="0" style="stop-color:rgb(100%,63.137257%,63.137257%);stop-opacity:1;"/><stop offset="1" style="stop-color:rgb(100%,27.843139%,27.843139%);stop-opacity:1;"/></linearGradient><filter style="color-interpolation-filters:sRGB;" inkscape:label="Diffuse Light" id="filter184" x="-0.0375" y="-0.0375" width="1.075" height="1.075"><feGaussianBlur in="SourceGraphic" stdDeviation="1" result="blur" id="feGaussianBlur174" /><feDiffuseLighting diffuseConstant="1" surfaceScale="10" lighting-color="rgb(255,255,255)" result="diffuse" id="feDiffuseLighting178"><feDistantLight elevation="8" azimuth="235" id="feDistantLight176" /></feDiffuseLighting><feComposite in="diffuse" in2="diffuse" operator="arithmetic" k1="1" result="composite1" id="feComposite180" /><feComposite in="composite1" in2="SourceGraphic" k1="1" operator="arithmetic" k3="1" result="composite2" id="feComposite182" /></filter></defs><g id="surface1" style="filter:url(#filter184)"><path style=" stroke:none;fill-rule:evenodd;fill:url(#linear0);" d="M 19.429688 49.714844 C 19.429688 48.136719 20.707031 46.855469 22.285156 46.855469 C 23.863281 46.855469 25.144531 48.136719 25.144531 49.714844 C 25.144531 51.292969 23.863281 52.570312 22.285156 52.570312 C 20.707031 52.570312 19.429688 51.292969 19.429688 49.714844 Z M 11.429688 49.714844 C 11.429688 48.136719 12.707031 46.855469 14.285156 46.855469 C 15.863281 46.855469 17.144531 48.136719 17.144531 49.714844 C 17.144531 51.292969 15.863281 52.570312 14.285156 52.570312 C 12.707031 52.570312 11.429688 51.292969 11.429688 49.714844 Z M 3.429688 49.714844 C 3.429688 48.136719 4.707031 46.855469 6.285156 46.855469 C 7.863281 46.855469 9.144531 48.136719 9.144531 49.714844 C 9.144531 51.292969 7.863281 52.570312 6.285156 52.570312 C 4.707031 52.570312 3.429688 51.292969 3.429688 49.714844 Z M 11.429688 28 C 11.429688 26.425781 12.707031 25.144531 14.285156 25.144531 C 15.863281 25.144531 17.144531 26.425781 17.144531 28 C 17.144531 29.574219 15.863281 30.855469 14.285156 30.855469 C 12.707031 30.855469 11.429688 29.574219 11.429688 28 Z M 3.429688 28 C 3.429688 26.425781 4.707031 25.144531 6.285156 25.144531 C 7.863281 25.144531 9.144531 26.425781 9.144531 28 C 9.144531 29.574219 7.863281 30.855469 6.285156 30.855469 C 4.707031 30.855469 3.429688 29.574219 3.429688 28 Z M 0 36.835938 L 0 27.164062 C 0 24.15625 2.445312 21.714844 5.453125 21.714844 L 58.546875 21.714844 C 61.554688 21.714844 64 24.15625 64 27.164062 L 64 36.835938 C 64 39.84375 61.554688 42.285156 58.546875 42.285156 L 5.453125 42.285156 C 2.445312 42.285156 0 39.84375 0 36.835938 Z M 0 58.546875 L 0 48.878906 C 0 45.871094 2.445312 43.429688 5.453125 43.429688 L 58.546875 43.429688 C 61.554688 43.429688 64 45.871094 64 48.878906 L 64 58.546875 C 64 61.554688 61.554688 64 58.546875 64 L 5.453125 64 C 2.445312 64 0 61.554688 0 58.546875 Z M 3.429688 6.285156 C 3.429688 4.707031 4.707031 3.429688 6.285156 3.429688 C 7.863281 3.429688 9.144531 4.707031 9.144531 6.285156 C 9.144531 7.863281 7.863281 9.144531 6.285156 9.144531 C 4.707031 9.144531 3.429688 7.863281 3.429688 6.285156 Z M 0 15.121094 L 0 5.453125 C 0 2.445312 2.445312 0 5.453125 0 L 58.546875 0 C 61.554688 0 64 2.445312 64 5.453125 L 64 15.121094 C 64 18.128906 61.554688 20.570312 58.546875 20.570312 L 5.453125 20.570312 C 2.445312 20.570312 0 18.128906 0 15.121094 Z M 0 15.121094 "/></g></svg>
