<?xml version="1.0" encoding="UTF-8" standalone="no"?><svg width="64" height="64" viewBox="0 0 64 64" version="1.1" id="svg149" sodipodi:docname="settings.svg" inkscape:version="1.2.2 (b0a8486541, 2022-12-01)" xmlns:inkscape="http://www.inkscape.org/namespaces/inkscape" xmlns:sodipodi="http://sodipodi.sourceforge.net/DTD/sodipodi-0.dtd" xmlns:xlink="http://www.w3.org/1999/xlink" xmlns="http://www.w3.org/2000/svg" xmlns:svg="http://www.w3.org/2000/svg"> <sodipodi:namedview id="namedview151" pagecolor="#ffffff" bordercolor="#000000" borderopacity="0.25" inkscape:showpageshadow="2" inkscape:pageopacity="0.0" inkscape:pagecheckerboard="0" inkscape:deskcolor="#d1d1d1" showgrid="false" inkscape:zoom="3.6875" inkscape:cx="32" inkscape:cy="32.135593" inkscape:window-width="1432" inkscape:window-height="844" inkscape:window-x="0" inkscape:window-y="0" inkscape:window-maximized="1" inkscape:current-layer="svg149" /> <defs id="defs142"> <linearGradient id="linear0" gradientUnits="userSpaceOnUse" x1="0" y1="0" x2="0" y2="1" gradientTransform="matrix(64,0,0,63.84375,0.03125,0.234375)"> <stop offset="0" style="stop-color:#6ba4ff;stop-opacity:1;" id="stop118" /> <stop offset="1" style="stop-color:#006eff;stop-opacity:1;" id="stop120" /> </linearGradient> <filter id="alpha" filterUnits="objectBoundingBox" x="0" y="0" width="1" height="1"> <feColorMatrix type="matrix" in="SourceGraphic" values="0 0 0 0 1 0 0 0 0 1 0 0 0 0 1 0 0 0 1 0" id="feColorMatrix123" /> </filter> <mask id="mask0"> <g filter="url(#alpha)" id="g128"> <rect x="0" y="0" width="64" height="64" style="fill:rgb(0%,0%,0%);fill-opacity:0.8;stroke:none;" id="rect126" /> </g> </mask> <linearGradient id="linear1" gradientUnits="userSpaceOnUse" x1="0" y1="0" x2="0" y2="1" gradientTransform="matrix(39.996094,0,0,40,11.96875,12.558594)"> <stop offset="0" style="stop-color:#6ba4ff;stop-opacity:1;" id="stop131" /> <stop offset="1" style="stop-color:#006eff;stop-opacity:1;" id="stop133" /> </linearGradient> <clipPath id="clip1"> <rect x="0" y="0" width="64" height="64" id="rect136" /> </clipPath> <g id="surface5" clip-path="url(#clip1)"> <path style=" stroke:none;fill-rule:nonzero;fill:url(#linear1);" d="M 30.5625 12.609375 C 23.929688 13.058594 17.957031 16.78125 14.632812 22.539062 C 9.136719 32.117188 12.417969 44.339844 21.976562 49.875 C 31.539062 55.394531 43.765625 52.125 49.296875 42.570312 C 54.796875 32.992188 51.515625 20.773438 41.953125 15.242188 C 38.503906 13.242188 34.539062 12.328125 30.5625 12.609375 Z M 31.96875 16.554688 C 40.804688 16.554688 47.96875 23.71875 47.96875 32.554688 C 47.96875 41.390625 40.804688 48.554688 31.96875 48.554688 C 23.132812 48.554688 15.96875 41.390625 15.96875 32.554688 C 15.96875 23.71875 23.132812 16.554688 31.96875 16.554688 Z M 31.96875 16.554688 " id="path139" /> </g> <filter style="color-interpolation-filters:sRGB;" inkscape:label="Diffuse Light" id="filter2477" x="-0.0375" y="-0.037591777" width="1.075" height="1.0751836"> <feGaussianBlur in="SourceGraphic" stdDeviation="1" result="blur" id="feGaussianBlur2467" /> <feDiffuseLighting diffuseConstant="1" surfaceScale="10" lighting-color="rgb(255,255,255)" result="diffuse" id="feDiffuseLighting2471"> <feDistantLight elevation="8" azimuth="235" id="feDistantLight2469" /> </feDiffuseLighting> <feComposite in="diffuse" in2="diffuse" operator="arithmetic" k1="1" result="composite1" id="feComposite2473" /> <feComposite in="composite1" in2="SourceGraphic" k1="1" operator="arithmetic" k3="1" result="composite2" id="feComposite2475" /> </filter> </defs> <g id="surface1" style="filter:url(#filter2477)"> <path style=" stroke:none;fill-rule:nonzero;fill:url(#linear0);" d="M 37.257812 0.234375 L 26.726562 1.8125 L 26.726562 5.046875 C 23.777344 5.605469 20.933594 6.632812 18.3125 8.09375 L 15.71875 5 L 7.695312 11.820312 L 10.242188 14.859375 C 9.300781 16.015625 8.449219 17.246094 7.703125 18.539062 C 6.9375 19.867188 6.332031 21.242188 5.804688 22.632812 L 1.789062 21.921875 L 0.03125 32.296875 L 4.007812 33 C 4.066406 35.992188 4.585938 38.945312 5.570312 41.757812 L 2 43.828125 L 7.320312 52.914062 L 10.851562 50.875 C 12.757812 53.074219 15.027344 55.011719 17.65625 56.578125 L 16.242188 60.484375 L 26.164062 64.015625 L 27.5625 60.171875 C 30.527344 60.648438 33.523438 60.664062 36.4375 60.195312 L 37.851562 64.078125 L 47.726562 60.421875 L 46.335938 56.601562 C 48.863281 55.101562 51.171875 53.1875 53.15625 50.890625 L 56.726562 52.945312 L 61.9375 43.796875 L 58.421875 41.765625 C 59.414062 38.902344 59.914062 35.945312 59.953125 33.007812 L 64.03125 32.289062 L 62.132812 21.929688 L 58.125 22.632812 C 57.074219 19.871094 55.566406 17.28125 53.671875 14.945312 L 56.34375 11.765625 L 48.226562 5.046875 L 45.632812 8.140625 C 43.023438 6.675781 40.195312 5.636719 37.257812 5.070312 Z M 31.96875 8.554688 C 45.222656 8.554688 55.96875 19.300781 55.96875 32.554688 C 55.96875 45.808594 45.222656 56.554688 31.96875 56.554688 C 18.714844 56.554688 7.96875 45.808594 7.96875 32.554688 C 7.96875 19.300781 18.714844 8.554688 31.96875 8.554688 Z M 31.96875 8.554688 " id="path144" /> <use xlink:href="#surface5" mask="url(#mask0)" id="use146" /> </g></svg>
