<svg width="64" height="64" viewBox="0 0 64 64" version="1.1" xmlns:inkscape="http://www.inkscape.org/namespaces/inkscape"><defs><linearGradient id="linear0" gradientUnits="userSpaceOnUse" x1="0" y1="0" x2="0" y2="1" gradientTransform="matrix(46.872383,0,0,40.410454,9.260643,11.87636)"><stop offset="0" style="stop-color:rgb(100%,63.137257%,63.137257%);stop-opacity:1;"/><stop offset="1" style="stop-color:rgb(100%,27.843139%,27.843139%);stop-opacity:1;"/></linearGradient><filter style="color-interpolation-filters:sRGB;" inkscape:label="Diffuse Light" id="filter184" x="-0.0375" y="-0.0375" width="1.075" height="1.075"><feGaussianBlur in="SourceGraphic" stdDeviation="1" result="blur" id="feGaussianBlur174" /><feDiffuseLighting diffuseConstant="1" surfaceScale="10" lighting-color="rgb(255,255,255)" result="diffuse" id="feDiffuseLighting178"><feDistantLight elevation="8" azimuth="235" id="feDistantLight176" /></feDiffuseLighting><feComposite in="diffuse" in2="diffuse" operator="arithmetic" k1="1" result="composite1" id="feComposite180" /><feComposite in="composite1" in2="SourceGraphic" k1="1" operator="arithmetic" k3="1" result="composite2" id="feComposite182" /></filter></defs><g id="surface1" style="filter:url(#filter184)"><path style=" stroke:none;fill-rule:nonzero;fill:url(#linear0);" d="M 17.675781 13.199219 C 6.574219 17.804688 1.753906 31.976562 22.175781 38.230469 C 13.671875 23.660156 17.675781 13.199219 17.675781 13.199219 Z M 15.296875 16.554688 C 15.296875 16.554688 13.238281 24.207031 18.628906 34.6875 C 6.46875 30.460938 8.902344 20.097656 15.296875 16.554688 Z M 2.058594 30.191406 C -0.832031 40.480469 8.875 52.671875 27.46875 43.09375 C 8.953125 39.488281 2.058594 30.191406 2.058594 30.191406 Z M 3.28125 33.734375 C 3.28125 33.734375 10.230469 40.941406 22.917969 43.410156 C 9.816406 48.292969 3.074219 40.328125 3.28125 33.734375 Z M 36.710938 42.226562 C 31.449219 62.574219 12.519531 61.09375 6.90625 49.800781 C 6.90625 49.800781 19.925781 52.179688 36.710938 42.226562 Z M 41.957031 36.671875 C 39.140625 54.507812 32.648438 57.523438 28.414062 62.851562 C 41.390625 60.539062 55.21875 55.441406 41.957031 36.671875 Z M 38.75 29.097656 C 65.550781 29.539062 61.085938 45.839844 54.382812 53.328125 C 54.382812 53.328125 49.640625 36.589844 38.75 29.097656 Z M 29.679688 27.519531 C 42.28125 9.503906 60.679688 17.484375 61.183594 30.609375 C 61.183594 30.609375 48.328125 23.917969 29.679688 27.519531 Z M 22.113281 30.609375 C 19.84375 7.375 26.652344 -0.679688 62.945312 2.082031 C 62.945312 2.082031 29.679688 18.644531 22.113281 30.609375 Z M 22.113281 30.609375 "/></g></svg>
