<svg width="64" height="64" viewBox="0 0 64 64" version="1.1" xmlns:inkscape="http://www.inkscape.org/namespaces/inkscape"><defs><linearGradient id="linear0" gradientUnits="userSpaceOnUse" x1="0" y1="0" x2="0" y2="1" gradientTransform="matrix(70.861141,0,0,71.123824,-4.759383,-1.646597)"><stop offset="0" style="stop-color:rgb(92.941177%,83.529413%,72.549021%);stop-opacity:1;"/><stop offset="1" style="stop-color:rgb(81.960785%,71.372551%,59.215689%);stop-opacity:1;"/></linearGradient><filter style="color-interpolation-filters:sRGB;" inkscape:label="Diffuse Light" id="filter184" x="-0.0375" y="-0.0375" width="1.075" height="1.075"><feGaussianBlur in="SourceGraphic" stdDeviation="1" result="blur" id="feGaussianBlur174" /><feDiffuseLighting diffuseConstant="1" surfaceScale="10" lighting-color="rgb(255,255,255)" result="diffuse" id="feDiffuseLighting178"><feDistantLight elevation="8" azimuth="235" id="feDistantLight176" /></feDiffuseLighting><feComposite in="diffuse" in2="diffuse" operator="arithmetic" k1="1" result="composite1" id="feComposite180" /><feComposite in="composite1" in2="SourceGraphic" k1="1" operator="arithmetic" k3="1" result="composite2" id="feComposite182" /></filter></defs><g id="surface1" style="filter:url(#filter184)"><path style=" stroke:none;fill-rule:nonzero;fill:url(#linear0);" d="M 32.289062 1.804688 C 15.488281 1.804688 1.886719 14.03125 1.878906 29.109375 C 1.886719 36.371094 5.113281 43.320312 10.847656 48.441406 L 11.617188 61.414062 C 11.636719 61.847656 11.890625 62.230469 12.277344 62.425781 C 12.667969 62.628906 13.132812 62.621094 13.507812 62.40625 L 25.417969 55.675781 C 27.664062 56.152344 29.972656 56.398438 32.289062 56.410156 C 49.074219 56.410156 62.691406 44.183594 62.691406 29.109375 C 62.691406 14.03125 49.074219 1.804688 32.289062 1.804688 Z M 32.289062 1.804688 "/></g></svg>
