<svg width="64" height="64" viewBox="0 0 64 64" version="1.1" xmlns:inkscape="http://www.inkscape.org/namespaces/inkscape"><defs><linearGradient id="linear0" gradientUnits="userSpaceOnUse" x1="0" y1="0" x2="0" y2="1" gradientTransform="matrix(64,0,0,64,0,0)"><stop offset="0" style="stop-color:rgb(41.960785%,64.313728%,100%);stop-opacity:1;"/><stop offset="1" style="stop-color:rgb(0%,43.137255%,100%);stop-opacity:1;"/></linearGradient><filter style="color-interpolation-filters:sRGB;" inkscape:label="Diffuse Light" id="filter184" x="-0.0375" y="-0.0375" width="1.075" height="1.075"><feGaussianBlur in="SourceGraphic" stdDeviation="1" result="blur" id="feGaussianBlur174" /><feDiffuseLighting diffuseConstant="1" surfaceScale="10" lighting-color="rgb(255,255,255)" result="diffuse" id="feDiffuseLighting178"><feDistantLight elevation="8" azimuth="235" id="feDistantLight176" /></feDiffuseLighting><feComposite in="diffuse" in2="diffuse" operator="arithmetic" k1="1" result="composite1" id="feComposite180" /><feComposite in="composite1" in2="SourceGraphic" k1="1" operator="arithmetic" k3="1" result="composite2" id="feComposite182" /></filter></defs><g id="surface1" style="filter:url(#filter184)"><path style=" stroke:none;fill-rule:evenodd;fill:url(#linear0);" d="M 16 32 C 7.164062 32 0 24.835938 0 16 C 0 7.164062 7.164062 0 16 0 C 24.835938 0 32 7.164062 32 16 C 32 7.164062 39.164062 0 48 0 C 56.835938 0 64 7.164062 64 16 C 64 24.835938 56.835938 32 48 32 C 56.835938 32 64 39.164062 64 48 C 64 56.835938 56.835938 64 48 64 C 39.164062 64 32 56.835938 32 48 C 32 56.835938 24.835938 64 16 64 C 7.164062 64 0 56.835938 0 48 C 0 39.164062 7.164062 32 16 32 Z M 44.570312 32 C 44.570312 38.941406 38.941406 44.570312 32 44.570312 C 25.058594 44.570312 19.429688 38.941406 19.429688 32 C 19.429688 25.058594 25.058594 19.429688 32 19.429688 C 38.941406 19.429688 44.570312 25.058594 44.570312 32 Z M 44.570312 32 "/></g></svg>
