<svg width="64" height="64" viewBox="0 0 64 64" version="1.1" xmlns:inkscape="http://www.inkscape.org/namespaces/inkscape"><defs><linearGradient id="linear0" gradientUnits="userSpaceOnUse" x1="0" y1="0" x2="0" y2="1" gradientTransform="matrix(70.769409,0,0,69.605051,-5.174973,1.287555)"><stop offset="0" style="stop-color:rgb(0%,73.333335%,100%);stop-opacity:1;"/><stop offset="1" style="stop-color:rgb(0%,52.156866%,70.980394%);stop-opacity:1;"/></linearGradient><filter style="color-interpolation-filters:sRGB;" inkscape:label="Diffuse Light" id="filter184" x="-0.0375" y="-0.0375" width="1.075" height="1.075"><feGaussianBlur in="SourceGraphic" stdDeviation="1" result="blur" id="feGaussianBlur174" /><feDiffuseLighting diffuseConstant="1" surfaceScale="10" lighting-color="rgb(255,255,255)" result="diffuse" id="feDiffuseLighting178"><feDistantLight elevation="8" azimuth="235" id="feDistantLight176" /></feDiffuseLighting><feComposite in="diffuse" in2="diffuse" operator="arithmetic" k1="1" result="composite1" id="feComposite180" /><feComposite in="composite1" in2="SourceGraphic" k1="1" operator="arithmetic" k3="1" result="composite2" id="feComposite182" /></filter></defs><g id="surface1" style="filter:url(#filter184)"><path style=" stroke:none;fill-rule:nonzero;fill:url(#linear0);" d="M 32.277344 2.1875 C 28.230469 2.1875 22.15625 6.148438 22.15625 14.078125 C 22.15625 27.949219 54.535156 20.023438 54.535156 49.746094 C 54.535156 50.570312 54.476562 51.390625 54.398438 52.214844 C 59.675781 46.71875 62.621094 39.453125 62.632812 31.914062 C 62.636719 15.5 49.035156 2.1875 32.277344 2.1875 Z M 10.140625 11.625 C 4.871094 17.121094 1.929688 24.375 1.917969 31.914062 C 1.90625 48.335938 15.507812 61.636719 32.277344 61.636719 C 36.320312 61.636719 42.390625 57.675781 42.390625 49.746094 C 42.390625 29.929688 10.015625 39.84375 10.015625 14.078125 C 10.015625 13.253906 10.0625 12.441406 10.140625 11.625 Z M 10.140625 11.625 "/></g></svg>
