<svg width="64" height="64" viewBox="0 0 64 64" version="1.1" xmlns:inkscape="http://www.inkscape.org/namespaces/inkscape"><defs><linearGradient id="linear0" gradientUnits="userSpaceOnUse" x1="0" y1="0" x2="0" y2="1" gradientTransform="matrix(67.517787,0,0,44.498473,-1.826879,10.115226)"><stop offset="0" style="stop-color:rgb(100%,63.137257%,63.137257%);stop-opacity:1;"/><stop offset="1" style="stop-color:rgb(100%,27.843139%,27.843139%);stop-opacity:1;"/></linearGradient><filter style="color-interpolation-filters:sRGB;" inkscape:label="Diffuse Light" id="filter184" x="-0.0375" y="-0.0375" width="1.075" height="1.075"><feGaussianBlur in="SourceGraphic" stdDeviation="1" result="blur" id="feGaussianBlur174" /><feDiffuseLighting diffuseConstant="1" surfaceScale="10" lighting-color="rgb(255,255,255)" result="diffuse" id="feDiffuseLighting178"><feDistantLight elevation="8" azimuth="235" id="feDistantLight176" /></feDiffuseLighting><feComposite in="diffuse" in2="diffuse" operator="arithmetic" k1="1" result="composite1" id="feComposite180" /><feComposite in="composite1" in2="SourceGraphic" k1="1" operator="arithmetic" k3="1" result="composite2" id="feComposite182" /></filter></defs><g id="surface1" style="filter:url(#filter184)"><path style=" stroke:none;fill-rule:nonzero;fill:url(#linear0);" d="M 33.332031 1.855469 C 33.398438 3.539062 33.460938 5.230469 33.527344 6.914062 C 32.253906 6.914062 31.613281 6.914062 30.335938 6.914062 C 30.402344 5.230469 30.46875 3.539062 30.535156 1.855469 C 27.941406 1.855469 25.347656 1.855469 22.757812 1.855469 C 17.546875 22.195312 12.339844 42.53125 7.132812 62.875 C 14.132812 62.875 21.140625 62.875 28.148438 62.875 C 28.214844 61.1875 28.28125 59.5 28.347656 57.8125 C 30.734375 57.8125 33.128906 57.8125 35.519531 57.8125 C 35.585938 59.5 35.652344 61.1875 35.71875 62.875 C 42.722656 62.875 49.730469 62.875 56.738281 62.875 C 51.523438 42.53125 46.316406 22.195312 41.105469 1.855469 C 38.515625 1.855469 35.921875 1.855469 33.332031 1.855469 Z M 30.039062 14.496094 C 31.300781 14.496094 32.5625 14.496094 33.824219 14.496094 C 34.007812 19.1875 34.191406 23.882812 34.375 28.574219 C 32.746094 28.574219 31.117188 28.574219 29.488281 28.574219 C 29.671875 23.882812 29.855469 19.1875 30.039062 14.496094 Z M 28.640625 50.230469 C 28.824219 45.539062 29.007812 40.847656 29.191406 36.15625 C 31.019531 36.15625 32.84375 36.15625 34.671875 36.15625 C 34.855469 40.847656 35.039062 45.539062 35.222656 50.230469 C 33.03125 50.230469 30.835938 50.230469 28.640625 50.230469 Z M 28.640625 50.230469 "/></g></svg>
