<svg width="64" height="64" viewBox="0 0 64 64" version="1.1" xmlns:inkscape="http://www.inkscape.org/namespaces/inkscape"><defs><linearGradient id="linear0" gradientUnits="userSpaceOnUse" x1="0" y1="0" x2="0" y2="1" gradientTransform="matrix(59.098407,0,0,61.520267,1.875314,0.965499)"><stop offset="0" style="stop-color:rgb(100%,63.137257%,63.137257%);stop-opacity:1;"/><stop offset="1" style="stop-color:rgb(100%,27.843139%,27.843139%);stop-opacity:1;"/></linearGradient><filter style="color-interpolation-filters:sRGB;" inkscape:label="Diffuse Light" id="filter184" x="-0.0375" y="-0.0375" width="1.075" height="1.075"><feGaussianBlur in="SourceGraphic" stdDeviation="1" result="blur" id="feGaussianBlur174" /><feDiffuseLighting diffuseConstant="1" surfaceScale="10" lighting-color="rgb(255,255,255)" result="diffuse" id="feDiffuseLighting178"><feDistantLight elevation="8" azimuth="235" id="feDistantLight176" /></feDiffuseLighting><feComposite in="diffuse" in2="diffuse" operator="arithmetic" k1="1" result="composite1" id="feComposite180" /><feComposite in="composite1" in2="SourceGraphic" k1="1" operator="arithmetic" k3="1" result="composite2" id="feComposite182" /></filter></defs><g id="surface1" style="filter:url(#filter184)"><path style=" stroke:none;fill-rule:nonzero;fill:url(#linear0);" d="M 53.152344 1.207031 C 51.886719 1.144531 48.328125 1.429688 42.761719 5.4375 C 36.8125 3.574219 30.421875 3.285156 23.277344 5.4375 C 17.707031 1.429688 14.867188 1.148438 13.605469 1.210938 C 13.183594 1.230469 12.976562 1.292969 12.976562 1.292969 C 10.863281 6.980469 12.199219 11.183594 12.601562 12.234375 C 10.121094 15.117188 8.601562 18.808594 8.601562 23.320312 C 8.601562 39.148438 17.667969 42.691406 26.292969 43.734375 C 25.183594 44.761719 24.183594 46.589844 23.828125 49.265625 C 21.617188 50.320312 15.988281 52.140625 12.523438 45.828125 C 12.523438 45.828125 10.476562 41.859375 6.578125 41.566406 C 6.578125 41.566406 2.78125 41.515625 6.316406 44.074219 C 6.316406 44.074219 8.855469 45.347656 10.625 50.117188 C 10.625 50.117188 12.898438 58.160156 23.703125 55.664062 C 23.722656 58.699219 23.742188 60.660156 23.75 61.855469 C 26.300781 62.367188 28.890625 62.628906 31.480469 62.632812 C 35.390625 62.628906 39.273438 62.042969 43.023438 60.898438 C 43.027344 58.980469 43.058594 56.011719 43.058594 51.355469 C 43.058594 47.503906 41.820312 44.980469 40.425781 43.707031 C 49.074219 42.679688 58.15625 39.183594 58.15625 23.320312 C 58.15625 18.808594 56.644531 15.117188 54.160156 12.234375 C 54.5625 11.183594 55.898438 6.980469 53.773438 1.292969 C 53.773438 1.292969 53.574219 1.222656 53.152344 1.207031 Z M 53.152344 1.207031 "/></g></svg>
