<svg width="64" height="64" viewBox="0 0 64 64" version="1.1" xmlns:inkscape="http://www.inkscape.org/namespaces/inkscape"><defs><linearGradient id="linear0" gradientUnits="userSpaceOnUse" x1="0" y1="0" x2="0" y2="1" gradientTransform="matrix(40.007812,0,0,64,11.996094,0)"><stop offset="0" style="stop-color:rgb(0%,96.078432%,86.274511%);stop-opacity:1;"/><stop offset="1" style="stop-color:rgb(0%,54.901963%,49.411765%);stop-opacity:1;"/></linearGradient><filter style="color-interpolation-filters:sRGB;" inkscape:label="Diffuse Light" id="filter184" x="-0.0375" y="-0.0375" width="1.075" height="1.075"><feGaussianBlur in="SourceGraphic" stdDeviation="1" result="blur" id="feGaussianBlur174" /><feDiffuseLighting diffuseConstant="1" surfaceScale="10" lighting-color="rgb(255,255,255)" result="diffuse" id="feDiffuseLighting178"><feDistantLight elevation="8" azimuth="235" id="feDistantLight176" /></feDiffuseLighting><feComposite in="diffuse" in2="diffuse" operator="arithmetic" k1="1" result="composite1" id="feComposite180" /><feComposite in="composite1" in2="SourceGraphic" k1="1" operator="arithmetic" k3="1" result="composite2" id="feComposite182" /></filter></defs><g id="surface1" style="filter:url(#filter184)"><path style=" stroke:none;fill-rule:nonzero;fill:url(#linear0);" d="M 22 0 C 19.832031 0 18.0625 0.253906 16.5625 0.921875 C 15.0625 1.589844 13.890625 2.75 13.210938 4.109375 C 11.851562 6.824219 12 10 12 14 L 12 50 C 12 54 11.851562 57.183594 13.210938 59.898438 C 13.890625 61.257812 15.0625 62.410156 16.5625 63.078125 C 18.0625 63.746094 19.832031 64 22 64 L 42 64 C 44.167969 64 45.9375 63.746094 47.4375 63.078125 C 48.9375 62.410156 50.109375 61.257812 50.789062 59.898438 C 52.148438 57.183594 52 54 52 50 L 52 14 C 52 10 52.148438 6.824219 50.789062 4.109375 C 50.109375 2.75 48.9375 1.589844 47.4375 0.921875 C 45.9375 0.253906 44.167969 0 42 0 Z M 16.28125 8 L 47.71875 8 C 47.921875 9.492188 48 11.480469 48 14 L 48 50 C 48 52.519531 47.921875 54.503906 47.71875 56 L 16.28125 56 C 16.078125 54.503906 16 52.519531 16 50 L 16 14 C 16 11.480469 16.078125 9.492188 16.28125 8 Z M 16.28125 8 "/></g></svg>
