<?xml version="1.0" encoding="UTF-8" standalone="no"?><svg width="64" height="64" viewBox="0 0 64 64" version="1.1" id="svg5" sodipodi:docname="SMB4k.svg" inkscape:version="1.2.2 (b0a8486541, 2022-12-01)" xmlns:inkscape="http://www.inkscape.org/namespaces/inkscape" xmlns:sodipodi="http://sodipodi.sourceforge.net/DTD/sodipodi-0.dtd" xmlns="http://www.w3.org/2000/svg" xmlns:svg="http://www.w3.org/2000/svg"> <defs id="defs9"> <filter style="color-interpolation-filters:sRGB;" inkscape:label="Diffuse Light" id="filter179" x="-0.042472003" y="-0.043574468" width="1.084944" height="1.0871489"> <feGaussianBlur in="SourceGraphic" stdDeviation="1" result="blur" id="feGaussianBlur169" /> <feDiffuseLighting diffuseConstant="1" surfaceScale="10" lighting-color="rgb(255,255,255)" result="diffuse" id="feDiffuseLighting173"> <feDistantLight elevation="8" azimuth="235" id="feDistantLight171" /> </feDiffuseLighting> <feComposite in="diffuse" in2="diffuse" operator="arithmetic" k1="1" result="composite1" id="feComposite175" /> <feComposite in="composite1" in2="SourceGraphic" k1="1" operator="arithmetic" k3="1" result="composite2" id="feComposite177" /> </filter> </defs> <sodipodi:namedview id="namedview7" pagecolor="#ffffff" bordercolor="#000000" borderopacity="0.25" inkscape:showpageshadow="2" inkscape:pageopacity="0.0" inkscape:pagecheckerboard="0" inkscape:deskcolor="#d1d1d1" showgrid="false" inkscape:zoom="3.6875" inkscape:cx="32" inkscape:cy="32.135593" inkscape:window-width="1432" inkscape:window-height="844" inkscape:window-x="0" inkscape:window-y="0" inkscape:window-maximized="1" inkscape:current-layer="svg5" /> <g id="surface1" style="fill:#3cb371;filter:url(#filter179)" transform="matrix(1.0624316,0,0,1.0909086,-2.1847588,-4.565005)"> <path style="fill:#3cb371;fill-opacity:1;fill-rule:nonzero;stroke:none" d="m 41.445312,5.457031 v 7.929688 c 0,2.566406 0,2.566406 -2.570312,2.566406 h -6.511719 c -1.195312,0 -1.195312,0 -1.195312,1.101563 v 4.035156 c 0,2.570312 0,2.570312 -2.566407,2.570312 h -5.054687 c -2.652344,0 -2.652344,0 -2.652344,2.570313 0,2.566406 0,2.566406 2.570313,2.566406 h 23.117187 c 2.566407,0 2.566407,0 2.566407,2.570313 v 5.136718 c 0,2.566406 0,2.566406 2.570312,2.566406 h 8.308594 c 0.5625,-2.21875 0.851562,-4.496093 0.863281,-6.789062 C 60.882812,20.078125 53.039062,9.261719 41.445312,5.457031 Z M 6.363281,21.96875 C 5.0625,25.253906 4.394531,28.75 4.382812,32.28125 c 0,15.605469 12.648438,28.253906 28.253907,28.253906 C 34.4375,60.527344 36.234375,60.347656 38,60 L 33.738281,49.34375 C 31.167969,51.914062 20.894531,44.207031 23.464844,39.070312 Z m 0,0" id="path2" /> </g></svg>
