<svg width="64" height="64" viewBox="0 0 64 64" version="1.1" xmlns:inkscape="http://www.inkscape.org/namespaces/inkscape"><defs><linearGradient id="linear0" gradientUnits="userSpaceOnUse" x1="0" y1="0" x2="0" y2="1" gradientTransform="matrix(59.968609,0,0,39.939971,2.436301,9.064176)"><stop offset="0" style="stop-color:rgb(82.352942%,61.176473%,100%);stop-opacity:1;"/><stop offset="1" style="stop-color:rgb(66.666669%,0%,100%);stop-opacity:1;"/></linearGradient><filter style="color-interpolation-filters:sRGB;" inkscape:label="Diffuse Light" id="filter184" x="-0.0375" y="-0.0375" width="1.075" height="1.075"><feGaussianBlur in="SourceGraphic" stdDeviation="1" result="blur" id="feGaussianBlur174" /><feDiffuseLighting diffuseConstant="1" surfaceScale="10" lighting-color="rgb(255,255,255)" result="diffuse" id="feDiffuseLighting178"><feDistantLight elevation="8" azimuth="235" id="feDistantLight176" /></feDiffuseLighting><feComposite in="diffuse" in2="diffuse" operator="arithmetic" k1="1" result="composite1" id="feComposite180" /><feComposite in="composite1" in2="SourceGraphic" k1="1" operator="arithmetic" k3="1" result="composite2" id="feComposite182" /></filter></defs><g id="surface1" style="filter:url(#filter184)"><path style=" stroke:none;fill-rule:nonzero;fill:url(#linear0);" d="M 49.328125 4.484375 L 47.28125 6.726562 C 43.121094 5.160156 42.378906 9.902344 42.871094 11.996094 L 30.976562 25.855469 C 24.054688 18.824219 18.289062 27.121094 21.285156 37.472656 L 16.386719 42.746094 C 14.417969 44.605469 10.371094 44.910156 7.941406 33.375 L 1.609375 36.488281 C 2.457031 52.953125 9.082031 58.34375 12.167969 58.34375 L 62.84375 58.34375 L 59.082031 43.375 L 31.632812 43.410156 L 41.664062 32.363281 L 46.605469 35.386719 L 46.417969 27.089844 L 52.222656 30.207031 L 51.496094 22.183594 L 53.097656 20.007812 M 27.332031 28.449219 C 28.035156 28.449219 28.65625 28.847656 29.042969 29.609375 C 29.828125 31.152344 29.363281 33.589844 27.988281 35.058594 C 26.617188 36.554688 24.863281 36.503906 24.101562 34.960938 C 23.316406 33.433594 23.78125 31.011719 25.160156 29.515625 C 25.839844 28.765625 26.628906 28.429688 27.332031 28.453125 M 26.136719 30.5 C 25.609375 30.5 25.15625 31.179688 25.15625 31.960938 C 25.15625 32.746094 25.609375 33.421875 26.136719 33.421875 C 26.671875 33.421875 27.0625 32.742188 27.0625 31.960938 C 27.0625 31.175781 26.671875 30.5 26.136719 30.5 "/></g></svg>
