<svg width="64" height="64" viewBox="0 0 64 64" version="1.1" xmlns:inkscape="http://www.inkscape.org/namespaces/inkscape"><defs><linearGradient id="linear0" gradientUnits="userSpaceOnUse" x1="0" y1="0" x2="0" y2="1" gradientTransform="matrix(64,0,0,64,0,0)"><stop offset="0" style="stop-color:rgb(100%,63.137257%,63.137257%);stop-opacity:1;"/><stop offset="1" style="stop-color:rgb(100%,27.843139%,27.843139%);stop-opacity:1;"/></linearGradient><filter style="color-interpolation-filters:sRGB;" inkscape:label="Diffuse Light" id="filter184" x="-0.0375" y="-0.0375" width="1.075" height="1.075"><feGaussianBlur in="SourceGraphic" stdDeviation="1" result="blur" id="feGaussianBlur174" /><feDiffuseLighting diffuseConstant="1" surfaceScale="10" lighting-color="rgb(255,255,255)" result="diffuse" id="feDiffuseLighting178"><feDistantLight elevation="8" azimuth="235" id="feDistantLight176" /></feDiffuseLighting><feComposite in="diffuse" in2="diffuse" operator="arithmetic" k1="1" result="composite1" id="feComposite180" /><feComposite in="composite1" in2="SourceGraphic" k1="1" operator="arithmetic" k3="1" result="composite2" id="feComposite182" /></filter></defs><g id="surface1" style="filter:url(#filter184)"><path style=" stroke:none;fill-rule:evenodd;fill:url(#linear0);" d="M 43.429688 11.429688 C 43.429688 17.738281 38.3125 22.855469 32 22.855469 C 25.6875 22.855469 20.570312 17.738281 20.570312 11.429688 C 20.570312 5.117188 25.6875 0 32 0 C 38.3125 0 43.429688 5.117188 43.429688 11.429688 Z M 43.429688 52.570312 C 43.429688 58.882812 38.3125 64 32 64 C 25.6875 64 20.570312 58.882812 20.570312 52.570312 C 20.570312 46.261719 25.6875 41.144531 32 41.144531 C 38.3125 41.144531 43.429688 46.261719 43.429688 52.570312 Z M 52.570312 43.429688 C 46.261719 43.429688 41.144531 38.3125 41.144531 32 C 41.144531 25.6875 46.261719 20.570312 52.570312 20.570312 C 58.882812 20.570312 64 25.6875 64 32 C 64 38.3125 58.882812 43.429688 52.570312 43.429688 Z M 11.429688 43.429688 C 5.117188 43.429688 0 38.3125 0 32 C 0 25.6875 5.117188 20.570312 11.429688 20.570312 C 17.738281 20.570312 22.855469 25.6875 22.855469 32 C 22.855469 38.3125 17.738281 43.429688 11.429688 43.429688 Z M 11.429688 43.429688 "/></g></svg>
