<svg width="64" height="64" viewBox="0 0 64 64" version="1.1" xmlns:inkscape="http://www.inkscape.org/namespaces/inkscape"><defs><linearGradient id="linear0" gradientUnits="userSpaceOnUse" x1="0" y1="0" x2="0" y2="1" gradientTransform="matrix(61.156338,0,0,51.76745,-0.103648,12.580348)"><stop offset="0" style="stop-color:rgb(0%,96.078432%,86.274511%);stop-opacity:1;"/><stop offset="1" style="stop-color:rgb(0%,54.901963%,49.411765%);stop-opacity:1;"/></linearGradient><linearGradient id="linear1" gradientUnits="userSpaceOnUse" x1="0" y1="0" x2="0" y2="1" gradientTransform="matrix(61.156338,0,0,51.76745,-0.103648,12.580348)"><stop offset="0" style="stop-color:rgb(0%,96.078432%,86.274511%);stop-opacity:1;"/><stop offset="1" style="stop-color:rgb(0%,54.901963%,49.411765%);stop-opacity:1;"/></linearGradient><linearGradient id="linear2" gradientUnits="userSpaceOnUse" x1="0" y1="0" x2="0" y2="1" gradientTransform="matrix(61.156338,0,0,51.76745,-0.103648,12.580348)"><stop offset="0" style="stop-color:rgb(0%,96.078432%,86.274511%);stop-opacity:1;"/><stop offset="1" style="stop-color:rgb(0%,54.901963%,49.411765%);stop-opacity:1;"/></linearGradient><filter style="color-interpolation-filters:sRGB;" inkscape:label="Diffuse Light" id="filter184" x="-0.0375" y="-0.0375" width="1.075" height="1.075"><feGaussianBlur in="SourceGraphic" stdDeviation="1" result="blur" id="feGaussianBlur174" /><feDiffuseLighting diffuseConstant="1" surfaceScale="10" lighting-color="rgb(255,255,255)" result="diffuse" id="feDiffuseLighting178"><feDistantLight elevation="8" azimuth="235" id="feDistantLight176" /></feDiffuseLighting><feComposite in="diffuse" in2="diffuse" operator="arithmetic" k1="1" result="composite1" id="feComposite180" /><feComposite in="composite1" in2="SourceGraphic" k1="1" operator="arithmetic" k3="1" result="composite2" id="feComposite182" /></filter></defs><g id="surface1" style="filter:url(#filter184)"><path style=" stroke:none;fill-rule:nonzero;fill:url(#linear0);" d="M 5.289062 10.671875 L 35.613281 10.671875 L 35.613281 14.027344 L 11.214844 39.492188 L 36.203125 39.492188 L 36.203125 43.195312 L 4.699219 43.195312 L 4.699219 39.84375 L 29.097656 14.378906 L 5.289062 14.378906 Z M 2.324219 1.785156 "/><path style=" stroke:none;fill-rule:nonzero;fill:url(#linear1);" d="M 32.910156 26.65625 L 53.914062 29.570312 L 53.453125 31.890625 L 33.117188 47.1875 L 50.429688 49.585938 L 49.925781 52.148438 L 28.101562 49.128906 L 28.558594 46.800781 L 48.902344 31.503906 L 32.414062 29.21875 Z M 32.058594 20.21875 "/><path style=" stroke:none;fill-rule:nonzero;fill:url(#linear2);" d="M 51.183594 44.175781 L 62.1875 50.039062 L 61.273438 51.253906 L 45.492188 55.785156 L 54.5625 60.617188 L 53.550781 61.960938 L 42.117188 55.871094 L 43.027344 54.652344 L 58.8125 50.121094 L 50.179688 45.519531 Z M 52.523438 40.382812 "/></g></svg>
