<svg width="64" height="64" viewBox="0 0 64 64" version="1.1" xmlns:inkscape="http://www.inkscape.org/namespaces/inkscape"><defs><linearGradient id="linear0" gradientUnits="userSpaceOnUse" x1="0" y1="0" x2="0" y2="1" gradientTransform="matrix(61.074415,0,0,39.14764,1.204115,13.616568)"><stop offset="0" style="stop-color:rgb(0%,73.333335%,100%);stop-opacity:1;"/><stop offset="1" style="stop-color:rgb(0%,52.156866%,70.980394%);stop-opacity:1;"/></linearGradient><filter style="color-interpolation-filters:sRGB;" inkscape:label="Diffuse Light" id="filter184" x="-0.0375" y="-0.0375" width="1.075" height="1.075"><feGaussianBlur in="SourceGraphic" stdDeviation="1" result="blur" id="feGaussianBlur174" /><feDiffuseLighting diffuseConstant="1" surfaceScale="10" lighting-color="rgb(255,255,255)" result="diffuse" id="feDiffuseLighting178"><feDistantLight elevation="8" azimuth="235" id="feDistantLight176" /></feDiffuseLighting><feComposite in="diffuse" in2="diffuse" operator="arithmetic" k1="1" result="composite1" id="feComposite180" /><feComposite in="composite1" in2="SourceGraphic" k1="1" operator="arithmetic" k3="1" result="composite2" id="feComposite182" /></filter></defs><g id="surface1" style="filter:url(#filter184)"><path style=" stroke:none;fill-rule:nonzero;fill:url(#linear0);" d="M 25.574219 2.914062 L 21.464844 6.222656 C 9.136719 6.222656 0.917969 10.652344 0.917969 19.445312 C 5.027344 16.136719 9.136719 12.832031 21.464844 12.832031 C 21.464844 22.75 24.21875 26.058594 29.683594 29.363281 L 29.683594 19.445312 C 29.683594 16.136719 29.683594 12.832031 33.792969 12.832031 C 37.902344 19.445312 46.121094 22.75 54.335938 22.75 C 54.335938 19.445312 50.230469 12.832031 42.011719 9.527344 C 50.230469 9.527344 54.335938 16.136719 62.558594 16.136719 C 62.558594 15.007812 61.53125 13.496094 59.78125 11.976562 C 56.601562 10.078125 53.183594 8.449219 49.585938 7.117188 C 47.292969 6.566406 44.78125 6.199219 42.03125 6.199219 C 38.785156 4.4375 36.070312 3.589844 32.207031 3.195312 C 31.335938 3.117188 30.464844 3.050781 29.589844 3.003906 C 28.351562 2.949219 27.128906 2.894531 25.597656 2.894531 Z M 58.449219 29.363281 C 58.449219 29.363281 25.574219 42.585938 21.464844 45.894531 C 19.234375 47.6875 17.355469 49.761719 17.355469 52.503906 C 17.355469 57.992188 22.863281 62.421875 29.683594 62.421875 C 33.085938 62.421875 35.683594 60.914062 37.902344 59.117188 C 42.011719 55.808594 58.449219 29.363281 58.449219 29.363281 Z M 58.449219 29.363281 "/></g></svg>
