<svg width="64" height="64" viewBox="0 0 64 64" version="1.1" xmlns:inkscape="http://www.inkscape.org/namespaces/inkscape"><defs><linearGradient id="linear0" gradientUnits="userSpaceOnUse" x1="0" y1="0" x2="0" y2="1" gradientTransform="matrix(49.773438,0,0,64,7.113281,0)"><stop offset="0" style="stop-color:rgb(100%,63.137257%,63.137257%);stop-opacity:1;"/><stop offset="1" style="stop-color:rgb(100%,27.843139%,27.843139%);stop-opacity:1;"/></linearGradient><filter style="color-interpolation-filters:sRGB;" inkscape:label="Diffuse Light" id="filter184" x="-0.0375" y="-0.0375" width="1.075" height="1.075"><feGaussianBlur in="SourceGraphic" stdDeviation="1" result="blur" id="feGaussianBlur174" /><feDiffuseLighting diffuseConstant="1" surfaceScale="10" lighting-color="rgb(255,255,255)" result="diffuse" id="feDiffuseLighting178"><feDistantLight elevation="8" azimuth="235" id="feDistantLight176" /></feDiffuseLighting><feComposite in="diffuse" in2="diffuse" operator="arithmetic" k1="1" result="composite1" id="feComposite180" /><feComposite in="composite1" in2="SourceGraphic" k1="1" operator="arithmetic" k3="1" result="composite2" id="feComposite182" /></filter></defs><g id="surface1" style="filter:url(#filter184)"><path style=" stroke:none;fill-rule:nonzero;fill:url(#linear0);" d="M 56.886719 12.445312 C 56.886719 13.867188 56.320312 15.214844 55.324219 16.210938 C 54.328125 17.207031 52.976562 17.777344 51.554688 17.777344 C 50.132812 17.777344 48.785156 17.207031 47.789062 16.210938 C 46.792969 15.214844 46.222656 13.867188 46.222656 12.445312 L 46.222656 10.667969 L 17.777344 10.667969 L 17.777344 15.054688 L 56.886719 43.503906 L 56.886719 64 L 7.113281 64 L 7.113281 51.554688 C 7.113281 50.132812 7.679688 48.785156 8.675781 47.789062 C 9.671875 46.792969 11.023438 46.222656 12.445312 46.222656 C 13.867188 46.222656 15.214844 46.792969 16.210938 47.789062 C 17.207031 48.785156 17.777344 50.132812 17.777344 51.554688 L 17.777344 53.332031 L 46.222656 53.332031 L 46.222656 48.945312 L 7.113281 20.496094 L 7.113281 0 L 56.886719 0 Z M 56.886719 12.445312 "/></g></svg>
