<svg width="64" height="64" viewBox="0 0 64 64" version="1.1" xmlns:inkscape="http://www.inkscape.org/namespaces/inkscape"><defs><linearGradient id="linear0" gradientUnits="userSpaceOnUse" x1="0" y1="0" x2="0" y2="1" gradientTransform="matrix(63.303845,0,0,63.308512,2.247797,4.680557)"><stop offset="0" style="stop-color:rgb(0%,96.078432%,86.274511%);stop-opacity:1;"/><stop offset="1" style="stop-color:rgb(0%,54.901963%,49.411765%);stop-opacity:1;"/></linearGradient><filter style="color-interpolation-filters:sRGB;" inkscape:label="Diffuse Light" id="filter184" x="-0.0375" y="-0.0375" width="1.075" height="1.075"><feGaussianBlur in="SourceGraphic" stdDeviation="1" result="blur" id="feGaussianBlur174" /><feDiffuseLighting diffuseConstant="1" surfaceScale="10" lighting-color="rgb(255,255,255)" result="diffuse" id="feDiffuseLighting178"><feDistantLight elevation="8" azimuth="235" id="feDistantLight176" /></feDiffuseLighting><feComposite in="diffuse" in2="diffuse" operator="arithmetic" k1="1" result="composite1" id="feComposite180" /><feComposite in="composite1" in2="SourceGraphic" k1="1" operator="arithmetic" k3="1" result="composite2" id="feComposite182" /></filter></defs><g id="surface1" style="filter:url(#filter184)"><path style=" stroke:none;fill-rule:evenodd;fill:url(#linear0);" d="M 44.511719 1.132812 L 38.964844 22.6875 C 35.894531 34.527344 33.378906 44.679688 33.378906 45.25 C 33.378906 46.59375 32.851562 46.542969 27.972656 44.832031 C 22.921875 43.066406 16.609375 43.691406 11.765625 46.402344 C -0.800781 53.433594 12.054688 66.628906 27.351562 62.398438 C 29.234375 61.882812 32.019531 60.339844 33.550781 58.980469 C 36.304688 56.523438 36.382812 56.242188 39.804688 33.667969 C 41.710938 21.105469 43.304688 10.621094 43.328125 10.367188 C 43.363281 10.125 44.03125 11.136719 44.824219 12.621094 C 45.621094 14.09375 47.777344 17.125 49.617188 19.351562 C 55.644531 26.613281 57 30.789062 55.027344 35.964844 C 54.457031 37.453125 54.445312 38.128906 54.996094 37.792969 C 55.476562 37.492188 56.332031 35.710938 56.882812 33.855469 C 58.292969 29.191406 56.992188 24.976562 51.417969 16.207031 C 48.910156 12.253906 46.335938 7.257812 45.699219 5.09375 L 44.511719 1.132812 "/></g></svg>
