<svg width="64" height="64" viewBox="0 0 64 64" version="1.1" xmlns:inkscape="http://www.inkscape.org/namespaces/inkscape"><defs><linearGradient id="linear0" gradientUnits="userSpaceOnUse" x1="0" y1="0" x2="0" y2="1" gradientTransform="matrix(63.235833,0,0,40.201787,1.649833,11.912753)"><stop offset="0" style="stop-color:rgb(87.058824%,86.666667%,56.470591%);stop-opacity:1;"/><stop offset="1" style="stop-color:rgb(67.843139%,67.450982%,38.039216%);stop-opacity:1;"/></linearGradient><filter style="color-interpolation-filters:sRGB;" inkscape:label="Diffuse Light" id="filter184" x="-0.0375" y="-0.0375" width="1.075" height="1.075"><feGaussianBlur in="SourceGraphic" stdDeviation="1" result="blur" id="feGaussianBlur174" /><feDiffuseLighting diffuseConstant="1" surfaceScale="10" lighting-color="rgb(255,255,255)" result="diffuse" id="feDiffuseLighting178"><feDistantLight elevation="8" azimuth="235" id="feDistantLight176" /></feDiffuseLighting><feComposite in="diffuse" in2="diffuse" operator="arithmetic" k1="1" result="composite1" id="feComposite180" /><feComposite in="composite1" in2="SourceGraphic" k1="1" operator="arithmetic" k3="1" result="composite2" id="feComposite182" /></filter></defs><g id="surface1" style="filter:url(#filter184)"><path style=" stroke:none;fill-rule:nonzero;fill:url(#linear0);" d="M 1.148438 1.273438 L 1.148438 24.164062 L 12.667969 24.164062 C 16.484375 24.164062 21.757812 27.402344 26.75 31.792969 C 21.757812 36.1875 16.484375 39.425781 12.667969 39.425781 L 1.148438 39.425781 L 1.148438 62.316406 L 24.191406 62.316406 L 24.191406 50.871094 C 24.191406 47.082031 27.445312 41.839844 31.871094 36.882812 C 36.289062 41.839844 39.550781 47.082031 39.550781 50.871094 L 39.550781 62.316406 L 62.585938 62.316406 L 62.585938 39.425781 L 51.066406 39.425781 C 47.253906 39.425781 41.976562 36.1875 36.984375 31.792969 C 41.976562 27.402344 47.253906 24.164062 51.066406 24.164062 L 62.585938 24.164062 L 62.585938 1.273438 L 39.550781 1.273438 L 39.550781 12.71875 C 39.550781 16.511719 36.289062 21.75 31.871094 26.707031 C 27.445312 21.75 24.191406 16.511719 24.191406 12.71875 L 24.191406 1.273438 Z M 1.148438 1.273438 "/></g></svg>
