<svg width="64" height="64" viewBox="0 0 64 64" version="1.1" xmlns:inkscape="http://www.inkscape.org/namespaces/inkscape"><defs><linearGradient id="linear0" gradientUnits="userSpaceOnUse" x1="0" y1="0" x2="0" y2="1" gradientTransform="matrix(60.419827,0,0,40.044659,2.041185,6.173175)"><stop offset="0" style="stop-color:rgb(0%,78.823531%,36.862746%);stop-opacity:1;"/><stop offset="1" style="stop-color:rgb(0%,54.11765%,25.098041%);stop-opacity:1;"/></linearGradient><filter style="color-interpolation-filters:sRGB;" inkscape:label="Diffuse Light" id="filter184" x="-0.0375" y="-0.0375" width="1.075" height="1.075"><feGaussianBlur in="SourceGraphic" stdDeviation="1" result="blur" id="feGaussianBlur174" /><feDiffuseLighting diffuseConstant="1" surfaceScale="10" lighting-color="rgb(255,255,255)" result="diffuse" id="feDiffuseLighting178"><feDistantLight elevation="8" azimuth="235" id="feDistantLight176" /></feDiffuseLighting><feComposite in="diffuse" in2="diffuse" operator="arithmetic" k1="1" result="composite1" id="feComposite180" /><feComposite in="composite1" in2="SourceGraphic" k1="1" operator="arithmetic" k3="1" result="composite2" id="feComposite182" /></filter></defs><g id="surface1" style="filter:url(#filter184)"><path style=" stroke:none;fill-rule:nonzero;fill:url(#linear0);" d="M 14.304688 8.167969 L 14.304688 13.652344 L 19.484375 13.652344 L 19.484375 8.167969 Z M 19.484375 13.652344 L 19.484375 19.136719 L 14.304688 19.136719 L 14.304688 24.621094 L 6.542969 24.621094 L 6.542969 32.855469 L 1.367188 32.855469 L 1.367188 52.050781 L 9.128906 52.050781 L 9.128906 38.339844 L 14.304688 38.339844 L 14.304688 52.050781 L 19.484375 52.050781 L 19.484375 46.566406 L 45.363281 46.566406 L 45.363281 52.050781 L 50.539062 52.050781 L 50.539062 38.339844 L 55.714844 38.339844 L 55.714844 52.050781 L 63.480469 52.050781 L 63.480469 32.855469 L 58.300781 32.855469 L 58.300781 24.621094 L 50.539062 24.621094 L 50.539062 19.136719 L 45.363281 19.136719 L 45.363281 13.652344 L 40.1875 13.652344 L 40.1875 19.136719 L 24.660156 19.136719 L 24.660156 13.652344 Z M 45.363281 13.652344 L 50.539062 13.652344 L 50.539062 8.167969 L 45.363281 8.167969 Z M 45.363281 52.050781 L 35.011719 52.050781 L 35.011719 57.539062 L 45.363281 57.539062 Z M 19.484375 52.050781 L 19.484375 57.539062 L 29.835938 57.539062 L 29.835938 52.050781 Z M 19.484375 27.367188 L 24.660156 27.367188 L 24.660156 32.855469 L 19.484375 32.855469 Z M 40.1875 27.367188 L 45.363281 27.367188 L 45.363281 32.855469 L 40.1875 32.855469 Z M 40.1875 27.367188 "/></g></svg>
