<?xml version="1.0" encoding="UTF-8" standalone="no"?><svg width="64" height="64" viewBox="0 0 64 64" version="1.1" id="svg15" sodipodi:docname="spectrum.svg" inkscape:version="1.2.2 (b0a8486541, 2022-12-01)" xmlns:inkscape="http://www.inkscape.org/namespaces/inkscape" xmlns:sodipodi="http://sodipodi.sourceforge.net/DTD/sodipodi-0.dtd" xmlns="http://www.w3.org/2000/svg" xmlns:svg="http://www.w3.org/2000/svg"> <defs id="defs19"> <filter style="color-interpolation-filters:sRGB;" inkscape:label="Diffuse Light" id="filter189" x="-0.058685446" y="-0.05894923" width="1.1173709" height="1.1178985"> <feGaussianBlur in="SourceGraphic" stdDeviation="1" result="blur" id="feGaussianBlur179" /> <feDiffuseLighting diffuseConstant="1" surfaceScale="10" lighting-color="rgb(255,255,255)" result="diffuse" id="feDiffuseLighting183"> <feDistantLight elevation="8" azimuth="235" id="feDistantLight181" /> </feDiffuseLighting> <feComposite in="diffuse" in2="diffuse" operator="arithmetic" k1="1" result="composite1" id="feComposite185" /> <feComposite in="composite1" in2="SourceGraphic" k1="1" operator="arithmetic" k3="1" result="composite2" id="feComposite187" /> </filter> </defs> <sodipodi:namedview id="namedview17" pagecolor="#ffffff" bordercolor="#000000" borderopacity="0.25" inkscape:showpageshadow="2" inkscape:pageopacity="0.0" inkscape:pagecheckerboard="0" inkscape:deskcolor="#d1d1d1" showgrid="false" inkscape:zoom="3.6875" inkscape:cx="32" inkscape:cy="32.135593" inkscape:window-width="1432" inkscape:window-height="844" inkscape:window-x="0" inkscape:window-y="0" inkscape:window-maximized="1" inkscape:current-layer="svg15" /> <g id="surface1" style="fill:#3cb371;filter:url(#filter189)" transform="matrix(1.4846164,0,0,1.4660019,-17.619491,-12.256859)"> <path style="fill:#3cb371;fill-opacity:1;fill-rule:nonzero;stroke:none" d="M 45.640625,49.449219 C 54.363281,39.417969 54.355469,24.71875 45.621094,16.625 36.882812,8.53125 22.730469,10.105469 14.007812,20.136719 13.894531,20.035156 12.988281,19.195312 12.878906,19.089844 22.222656,8.339844 37.386719,6.65625 46.75,15.328125 56.109375,24 56.117188,39.746094 46.769531,50.496094 46.542969,50.285156 45.753906,49.554688 45.640625,49.449219 Z m 0,0" id="path2" /> <path style="fill:#3cb371;fill-opacity:1;fill-rule:nonzero;stroke:none" d="M 43.378906,47.355469 C 50.859375,38.753906 50.851562,26.160156 43.363281,19.222656 35.875,12.285156 23.746094,13.628906 16.265625,22.230469 16.152344,22.125 15.25,21.289062 15.136719,21.183594 23.238281,11.867188 36.378906,10.40625 44.492188,17.925781 c 8.109374,7.515625 8.117187,21.160157 0.01953,30.476563 -0.226563,-0.207032 -1.019531,-0.941406 -1.132812,-1.046875 z m 0,0" id="path4" /> <path style="fill:#3cb371;fill-opacity:1;fill-rule:nonzero;stroke:none" d="M 41.121094,45.261719 C 47.355469,38.09375 47.347656,27.597656 41.105469,21.816406 34.867188,16.035156 24.757812,17.160156 18.527344,24.324219 18.414062,24.21875 17.511719,23.382812 17.398438,23.277344 24.25,15.394531 35.371094,14.160156 42.234375,20.519531 c 6.863281,6.359375 6.871094,17.90625 0.01563,25.789063 -0.222656,-0.210938 -1.015625,-0.941406 -1.128906,-1.046875 z m 0,0" id="path6" /> <path style="fill:#3cb371;fill-opacity:1;fill-rule:nonzero;stroke:none" d="m 38.863281,43.167969 c 4.984375,-5.734375 4.980469,-14.128907 -0.01172,-18.757813 -4.992187,-4.625 -13.082031,-3.726562 -18.066406,2.007813 -0.113281,-0.105469 -1.015625,-0.941407 -1.128906,-1.046875 5.609375,-6.449219 14.707031,-7.460938 20.324219,-2.257813 5.613281,5.203125 5.621093,14.652344 0.01172,21.101563 -0.226563,-0.210938 -1.015626,-0.941406 -1.128907,-1.046875 z m 0,0" id="path8" /> <path style="fill:#3cb371;fill-opacity:1;fill-rule:nonzero;stroke:none" d="m 36.601562,41.074219 c 3.738282,-4.300781 3.734376,-10.597657 -0.0078,-14.066407 -3.742188,-3.46875 -9.808594,-2.796874 -13.546875,1.503907 -0.113281,-0.105469 -1.019531,-0.941407 -1.132813,-1.046875 4.363282,-5.015625 11.441407,-5.800782 15.808594,-1.753906 4.367188,4.046874 4.371094,11.394531 0.01172,16.410156 -0.226563,-0.210938 -1.019531,-0.941406 -1.132813,-1.046875 z m 0,0" id="path10" /> <path style="fill:#3cb371;fill-opacity:1;fill-rule:nonzero;stroke:none" d="m 34.34375,38.980469 c 2.492188,-2.867188 2.488281,-7.066407 -0.0078,-9.378907 -2.492188,-2.3125 -6.539063,-1.863281 -9.03125,1.003907 C 25.191406,30.5 24.289062,29.664062 24.175781,29.558594 c 3.117188,-3.582032 8.171875,-4.144532 11.289063,-1.253906 3.121094,2.890624 3.125,8.140624 0.0078,11.722656 -0.226562,-0.207032 -1.015625,-0.941406 -1.128906,-1.046875 z m 0,0" id="path12" /> </g></svg>
