<svg width="64" height="64" viewBox="0 0 64 64" version="1.1" xmlns:inkscape="http://www.inkscape.org/namespaces/inkscape"><defs><linearGradient id="linear0" gradientUnits="userSpaceOnUse" x1="0" y1="0" x2="0" y2="1" gradientTransform="matrix(64,0,0,64,0,0)"><stop offset="0" style="stop-color:rgb(75.686276%,77.64706%,83.92157%);stop-opacity:1;"/><stop offset="1" style="stop-color:rgb(43.529412%,45.09804%,50.196081%);stop-opacity:1;"/></linearGradient><filter style="color-interpolation-filters:sRGB;" inkscape:label="Diffuse Light" id="filter184" x="-0.0375" y="-0.0375" width="1.075" height="1.075"><feGaussianBlur in="SourceGraphic" stdDeviation="1" result="blur" id="feGaussianBlur174" /><feDiffuseLighting diffuseConstant="1" surfaceScale="10" lighting-color="rgb(255,255,255)" result="diffuse" id="feDiffuseLighting178"><feDistantLight elevation="8" azimuth="235" id="feDistantLight176" /></feDiffuseLighting><feComposite in="diffuse" in2="diffuse" operator="arithmetic" k1="1" result="composite1" id="feComposite180" /><feComposite in="composite1" in2="SourceGraphic" k1="1" operator="arithmetic" k3="1" result="composite2" id="feComposite182" /></filter></defs><g id="surface1" style="filter:url(#filter184)"><path style=" stroke:none;fill-rule:evenodd;fill:url(#linear0);" d="M 0 0 L 0 7.113281 L 7.113281 7.113281 L 7.113281 0 Z M 7.113281 7.113281 L 7.113281 14.222656 L 14.222656 14.222656 L 14.222656 7.113281 Z M 49.777344 14.222656 L 56.886719 14.222656 L 56.886719 7.113281 L 49.777344 7.113281 Z M 56.886719 7.113281 L 64 7.113281 L 64 0 L 56.886719 0 Z M 0 46.222656 L 0 64 L 64 64 L 64 46.222656 Z M 14.222656 28.445312 L 21.332031 28.445312 L 21.332031 35.554688 L 14.222656 35.554688 Z M 14.222656 14.222656 L 14.222656 21.332031 L 7.113281 21.332031 L 7.113281 28.445312 L 0 28.445312 L 0 39.113281 L 64 39.113281 L 64 28.445312 L 56.886719 28.445312 L 56.886719 21.332031 L 49.777344 21.332031 L 49.777344 14.222656 Z M 42.667969 28.445312 L 49.777344 28.445312 L 49.777344 35.554688 L 42.667969 35.554688 Z M 42.667969 28.445312 "/></g></svg>
