<svg width="64" height="64" viewBox="0 0 64 64" version="1.1" xmlns:inkscape="http://www.inkscape.org/namespaces/inkscape"><defs><linearGradient id="linear0" gradientUnits="userSpaceOnUse" x1="0" y1="0" x2="0" y2="1" gradientTransform="matrix(66.09726,0,0,39.877222,3.068759,11.091746)"><stop offset="0" style="stop-color:rgb(92.941177%,83.529413%,72.549021%);stop-opacity:1;"/><stop offset="1" style="stop-color:rgb(81.960785%,71.372551%,59.215689%);stop-opacity:1;"/></linearGradient><linearGradient id="linear1" gradientUnits="userSpaceOnUse" x1="0" y1="0" x2="0" y2="1" gradientTransform="matrix(66.09726,0,0,39.877222,3.068759,11.091746)"><stop offset="0" style="stop-color:rgb(92.941177%,83.529413%,72.549021%);stop-opacity:1;"/><stop offset="1" style="stop-color:rgb(81.960785%,71.372551%,59.215689%);stop-opacity:1;"/></linearGradient><filter style="color-interpolation-filters:sRGB;" inkscape:label="Diffuse Light" id="filter184" x="-0.0375" y="-0.0375" width="1.075" height="1.075"><feGaussianBlur in="SourceGraphic" stdDeviation="1" result="blur" id="feGaussianBlur174" /><feDiffuseLighting diffuseConstant="1" surfaceScale="10" lighting-color="rgb(255,255,255)" result="diffuse" id="feDiffuseLighting178"><feDistantLight elevation="8" azimuth="235" id="feDistantLight176" /></feDiffuseLighting><feComposite in="diffuse" in2="diffuse" operator="arithmetic" k1="1" result="composite1" id="feComposite180" /><feComposite in="composite1" in2="SourceGraphic" k1="1" operator="arithmetic" k3="1" result="composite2" id="feComposite182" /></filter></defs><g id="surface1" style="filter:url(#filter184)"><path style=" stroke:none;fill-rule:nonzero;fill:url(#linear0);" d="M 41.644531 40.441406 C 29.832031 40.441406 27.46875 63.15625 13.296875 63.15625 C 6.207031 63.15625 1.484375 58.109375 1.484375 48.015625 C 1.484375 27.820312 20.902344 27.96875 36.917969 32.871094 C 36.917969 22.773438 15.65625 20.246094 15.65625 10.148438 C 15.65625 5.105469 20.183594 2.578125 25.105469 2.578125 C 41.644531 2.578125 44.007812 25.292969 44.007812 32.871094 C 47.351562 35.390625 65.265625 48.015625 58.179688 55.585938 C 54.78125 59.414062 45.140625 40.441406 41.644531 40.441406 Z M 41.644531 40.441406 "/><path style=" stroke:none;fill-rule:nonzero;fill:url(#linear1);" d="M 47.5 28.371094 C 46.515625 -5.605469 83.269531 22.714844 47.5 28.371094 "/></g></svg>
