<svg width="64" height="64" viewBox="0 0 64 64" version="1.1" xmlns:inkscape="http://www.inkscape.org/namespaces/inkscape"><defs><linearGradient id="linear0" gradientUnits="userSpaceOnUse" x1="0" y1="0" x2="0" y2="1" gradientTransform="matrix(59.513038,0,0,38.271465,2.021646,12.309446)"><stop offset="0" style="stop-color:rgb(82.352942%,61.176473%,100%);stop-opacity:1;"/><stop offset="1" style="stop-color:rgb(66.666669%,0%,100%);stop-opacity:1;"/></linearGradient><linearGradient id="linear1" gradientUnits="userSpaceOnUse" x1="0" y1="0" x2="0" y2="1" gradientTransform="matrix(59.513038,0,0,38.271465,2.021646,12.309446)"><stop offset="0" style="stop-color:rgb(82.352942%,61.176473%,100%);stop-opacity:1;"/><stop offset="1" style="stop-color:rgb(66.666669%,0%,100%);stop-opacity:1;"/></linearGradient><filter style="color-interpolation-filters:sRGB;" inkscape:label="Diffuse Light" id="filter184" x="-0.0375" y="-0.0375" width="1.075" height="1.075"><feGaussianBlur in="SourceGraphic" stdDeviation="1" result="blur" id="feGaussianBlur174" /><feDiffuseLighting diffuseConstant="1" surfaceScale="10" lighting-color="rgb(255,255,255)" result="diffuse" id="feDiffuseLighting178"><feDistantLight elevation="8" azimuth="235" id="feDistantLight176" /></feDiffuseLighting><feComposite in="diffuse" in2="diffuse" operator="arithmetic" k1="1" result="composite1" id="feComposite180" /><feComposite in="composite1" in2="SourceGraphic" k1="1" operator="arithmetic" k3="1" result="composite2" id="feComposite182" /></filter></defs><g id="surface1" style="filter:url(#filter184)"><path style=" stroke:none;fill-rule:nonzero;fill:url(#linear0);" d="M 32.472656 1.394531 L 24.230469 11.746094 L 9.808594 7.308594 L 13.925781 17.664062 L 1.570312 19.144531 L 11.867188 26.539062 L 53.070312 26.539062 L 63.375 19.144531 L 51.011719 17.664062 L 55.132812 7.308594 L 40.710938 11.746094 Z M 32.472656 1.394531 "/><path style=" stroke:none;fill-rule:nonzero;fill:url(#linear1);" d="M 26.792969 29.066406 C 20.949219 29.066406 16.238281 33.226562 16.238281 38.398438 L 19.757812 38.398438 C 19.757812 34.953125 22.894531 32.179688 26.792969 32.179688 Z M 26.78125 35.289062 C 24.839844 35.289062 23.277344 36.683594 23.277344 38.398438 C 23.277344 40.117188 24.839844 41.511719 26.78125 41.511719 C 28.71875 41.511719 30.285156 40.117188 30.285156 38.398438 C 30.285156 36.683594 28.71875 35.289062 26.78125 35.289062 Z M 47.902344 35.289062 C 45.964844 35.289062 44.382812 36.683594 44.382812 38.398438 L 51.417969 38.398438 C 51.417969 36.683594 49.835938 35.289062 47.902344 35.289062 Z M 47.902344 44.621094 L 47.902344 49.289062 C 47.902344 55.324219 42.410156 60.179688 35.589844 60.179688 C 31.273438 60.179688 27.492188 58.234375 25.292969 55.28125 L 22.765625 57.519531 C 25.636719 61.015625 30.300781 63.289062 35.585938 63.289062 C 44.355469 63.289062 51.417969 57.046875 51.417969 49.289062 L 51.417969 44.621094 Z M 47.902344 44.621094 "/></g></svg>
