<svg width="64" height="64" viewBox="0 0 64 64" version="1.1" xmlns:inkscape="http://www.inkscape.org/namespaces/inkscape"><defs><linearGradient id="linear0" gradientUnits="userSpaceOnUse" x1="0" y1="0" x2="0" y2="1" gradientTransform="matrix(56,0,0,35.898438,4,14.050781)"><stop offset="0" style="stop-color:rgb(0%,73.333335%,100%);stop-opacity:1;"/><stop offset="1" style="stop-color:rgb(0%,52.156866%,70.980394%);stop-opacity:1;"/></linearGradient><filter style="color-interpolation-filters:sRGB;" inkscape:label="Diffuse Light" id="filter184" x="-0.0375" y="-0.0375" width="1.075" height="1.075"><feGaussianBlur in="SourceGraphic" stdDeviation="1" result="blur" id="feGaussianBlur174" /><feDiffuseLighting diffuseConstant="1" surfaceScale="10" lighting-color="rgb(255,255,255)" result="diffuse" id="feDiffuseLighting178"><feDistantLight elevation="8" azimuth="235" id="feDistantLight176" /></feDiffuseLighting><feComposite in="diffuse" in2="diffuse" operator="arithmetic" k1="1" result="composite1" id="feComposite180" /><feComposite in="composite1" in2="SourceGraphic" k1="1" operator="arithmetic" k3="1" result="composite2" id="feComposite182" /></filter></defs><g id="surface1" style="filter:url(#filter184)"><path style=" stroke:none;fill-rule:nonzero;fill:url(#linear0);" d="M 16.035156 11.636719 C 13.609375 11.636719 11.640625 13.765625 11.640625 16.394531 C 11.640625 19.027344 13.609375 21.15625 16.035156 21.15625 C 18.457031 21.15625 20.425781 19.027344 20.425781 16.394531 C 20.425781 13.765625 18.457031 11.636719 16.035156 11.636719 Z M 48.238281 11.636719 C 45.8125 11.636719 43.847656 13.765625 43.847656 16.394531 C 43.847656 19.027344 45.8125 21.15625 48.238281 21.15625 C 50.664062 21.15625 52.628906 19.027344 52.628906 16.394531 C 52.628906 13.765625 50.664062 11.636719 48.238281 11.636719 Z M 5.785156 37.027344 C 4.167969 37.027344 2.859375 38.445312 2.859375 40.199219 L 2.859375 46.546875 C 2.859375 50.0625 6.777344 52.894531 11.640625 52.894531 L 14.878906 52.894531 L 17.34375 40.199219 L 10.179688 40.199219 C 10.179688 40.199219 7.402344 37.027344 5.785156 37.027344 Z M 58.484375 37.027344 C 56.867188 37.027344 54.09375 40.199219 54.09375 40.199219 L 46.929688 40.199219 L 49.394531 52.894531 L 52.628906 52.894531 C 57.496094 52.894531 61.414062 50.0625 61.414062 46.546875 L 61.414062 40.199219 C 61.414062 38.445312 60.101562 37.027344 58.484375 37.027344 Z M 24.816406 40.199219 C 24.003906 40.199219 23.351562 40.90625 23.351562 41.785156 L 23.351562 44.960938 C 23.351562 45.839844 24.003906 46.546875 24.816406 46.546875 L 39.453125 46.546875 C 40.265625 46.546875 40.917969 45.839844 40.917969 44.960938 L 40.917969 41.785156 C 40.917969 40.90625 40.265625 40.199219 39.453125 40.199219 Z M 24.816406 40.199219 "/></g></svg>
