<svg width="64" height="64" viewBox="0 0 64 64" version="1.1" xmlns:inkscape="http://www.inkscape.org/namespaces/inkscape"><defs><linearGradient id="linear0" gradientUnits="userSpaceOnUse" x1="0" y1="0" x2="0" y2="1" gradientTransform="matrix(87.014323,0,0,79.743474,-12.215996,-7.346549)"><stop offset="0" style="stop-color:rgb(0%,96.078432%,86.274511%);stop-opacity:1;"/><stop offset="1" style="stop-color:rgb(0%,54.901963%,49.411765%);stop-opacity:1;"/></linearGradient><filter style="color-interpolation-filters:sRGB;" inkscape:label="Diffuse Light" id="filter184" x="-0.0375" y="-0.0375" width="1.075" height="1.075"><feGaussianBlur in="SourceGraphic" stdDeviation="1" result="blur" id="feGaussianBlur174" /><feDiffuseLighting diffuseConstant="1" surfaceScale="10" lighting-color="rgb(255,255,255)" result="diffuse" id="feDiffuseLighting178"><feDistantLight elevation="8" azimuth="235" id="feDistantLight176" /></feDiffuseLighting><feComposite in="diffuse" in2="diffuse" operator="arithmetic" k1="1" result="composite1" id="feComposite180" /><feComposite in="composite1" in2="SourceGraphic" k1="1" operator="arithmetic" k3="1" result="composite2" id="feComposite182" /></filter></defs><g id="surface1" style="filter:url(#filter184)"><path style=" stroke:none;fill-rule:nonzero;fill:url(#linear0);" d="M 3.464844 2.210938 L 3.464844 35.890625 C 3.464844 39.972656 3.992188 43.660156 4.964844 47.03125 C 5.941406 50.339844 7.53125 53.25 9.746094 55.699219 C 11.960938 58.164062 14.796875 60.027344 18.433594 61.398438 C 22.074219 62.707031 26.585938 63.339844 31.910156 63.339844 C 38.023438 63.339844 43.460938 63.125 48.070312 62.441406 C 52.769531 61.746094 56.441406 60.972656 59.292969 60.371094 L 59.292969 2.203125 L 48.128906 2.203125 L 48.128906 52.621094 C 47.6875 52.785156 45.683594 53.085938 44.628906 53.246094 C 43.644531 53.316406 42.589844 53.46875 41.332031 53.628906 C 40.085938 53.695312 38.855469 53.808594 37.453125 53.886719 C 36.03125 53.957031 34.59375 54.019531 33.25 54.019531 C 26.957031 54.019531 22.441406 52.371094 19.78125 49.222656 C 17.117188 46.074219 14.621094 41.058594 14.621094 33.789062 L 14.621094 2.203125 "/></g></svg>
