<svg width="64" height="64" viewBox="0 0 64 64" version="1.1" xmlns:inkscape="http://www.inkscape.org/namespaces/inkscape"><defs><linearGradient id="linear0" gradientUnits="userSpaceOnUse" x1="0" y1="0" x2="0" y2="1" gradientTransform="matrix(56,0,0,35.898438,4,14.050781)"><stop offset="0" style="stop-color:rgb(0%,73.333335%,100%);stop-opacity:1;"/><stop offset="1" style="stop-color:rgb(0%,52.156866%,70.980394%);stop-opacity:1;"/></linearGradient><filter style="color-interpolation-filters:sRGB;" inkscape:label="Diffuse Light" id="filter184" x="-0.0375" y="-0.0375" width="1.075" height="1.075"><feGaussianBlur in="SourceGraphic" stdDeviation="1" result="blur" id="feGaussianBlur174" /><feDiffuseLighting diffuseConstant="1" surfaceScale="10" lighting-color="rgb(255,255,255)" result="diffuse" id="feDiffuseLighting178"><feDistantLight elevation="8" azimuth="235" id="feDistantLight176" /></feDiffuseLighting><feComposite in="diffuse" in2="diffuse" operator="arithmetic" k1="1" result="composite1" id="feComposite180" /><feComposite in="composite1" in2="SourceGraphic" k1="1" operator="arithmetic" k3="1" result="composite2" id="feComposite182" /></filter></defs><g id="surface1" style="filter:url(#filter184)"><path style=" stroke:none;fill-rule:nonzero;fill:url(#linear0);" d="M 17.867188 11.167969 L 1.40625 50.582031 L 10.417969 50.582031 L 15.480469 38.457031 L 21.984375 38.457031 L 26.902344 26.328125 L 20.542969 26.328125 L 23.074219 20.265625 C 23.074219 20.265625 31.453125 20.265625 35.300781 11.167969 Z M 42.5625 11.167969 L 29.90625 41.488281 L 36.082031 41.488281 L 32.273438 50.582031 L 47.9375 47.550781 L 35.546875 47.550781 L 49.171875 44.519531 L 36.824219 44.519531 L 50.445312 41.488281 L 37.605469 41.488281 L 51.703125 38.457031 L 33.199219 38.457031 L 52.976562 35.425781 L 34.476562 35.425781 L 54.191406 32.390625 L 35.730469 32.390625 L 55.53125 29.359375 L 36.988281 29.359375 L 56.621094 26.328125 L 38.261719 26.328125 L 58.039062 23.296875 L 39.519531 23.296875 L 59.335938 20.265625 L 40.792969 20.265625 L 60.550781 17.234375 L 41.90625 17.234375 L 61.847656 14.203125 L 43.449219 14.203125 L 63.125 11.167969 L 42.542969 11.167969 Z M 42.5625 11.167969 "/></g></svg>
