<svg width="64" height="64" viewBox="0 0 64 64" version="1.1" xmlns:inkscape="http://www.inkscape.org/namespaces/inkscape"><defs><linearGradient id="linear0" gradientUnits="userSpaceOnUse" x1="0" y1="0" x2="0" y2="1" gradientTransform="matrix(56,0,0,35.898438,4,14.050781)"><stop offset="0" style="stop-color:rgb(0%,96.078432%,86.274511%);stop-opacity:1;"/><stop offset="1" style="stop-color:rgb(0%,54.901963%,49.411765%);stop-opacity:1;"/></linearGradient><filter style="color-interpolation-filters:sRGB;" inkscape:label="Diffuse Light" id="filter184" x="-0.0375" y="-0.0375" width="1.075" height="1.075"><feGaussianBlur in="SourceGraphic" stdDeviation="1" result="blur" id="feGaussianBlur174" /><feDiffuseLighting diffuseConstant="1" surfaceScale="10" lighting-color="rgb(255,255,255)" result="diffuse" id="feDiffuseLighting178"><feDistantLight elevation="8" azimuth="235" id="feDistantLight176" /></feDiffuseLighting><feComposite in="diffuse" in2="diffuse" operator="arithmetic" k1="1" result="composite1" id="feComposite180" /><feComposite in="composite1" in2="SourceGraphic" k1="1" operator="arithmetic" k3="1" result="composite2" id="feComposite182" /></filter></defs><g id="surface1" style="filter:url(#filter184)"><path style=" stroke:none;fill-rule:nonzero;fill:url(#linear0);" d="M 6.085938 7.632812 C 5.347656 7.632812 4.75 8.222656 4.75 8.953125 L 4.75 16.867188 C 4.75 17.597656 5.347656 18.183594 6.085938 18.183594 L 27.429688 18.183594 C 28.167969 18.183594 28.765625 17.597656 28.765625 16.867188 L 28.765625 8.953125 C 28.765625 8.222656 28.167969 7.632812 27.429688 7.632812 Z M 35.433594 7.632812 C 34.695312 7.632812 34.101562 8.222656 34.101562 8.953125 L 34.101562 16.867188 C 34.101562 17.597656 34.695312 18.183594 35.433594 18.183594 L 56.78125 18.183594 C 57.519531 18.183594 58.113281 17.597656 58.113281 16.867188 L 58.113281 8.953125 C 58.113281 8.222656 57.519531 7.632812 56.78125 7.632812 Z M 6.085938 20.824219 C 5.347656 20.824219 4.75 21.410156 4.75 22.140625 L 4.75 30.054688 C 4.75 30.785156 5.347656 31.375 6.085938 31.375 L 27.429688 31.375 C 28.167969 31.375 28.765625 30.785156 28.765625 30.054688 L 28.765625 22.140625 C 28.765625 21.410156 28.167969 20.824219 27.429688 20.824219 Z M 35.433594 20.824219 C 34.695312 20.824219 34.101562 21.410156 34.101562 22.140625 L 34.101562 30.054688 C 34.101562 30.785156 34.695312 31.375 35.433594 31.375 L 56.78125 31.375 C 57.519531 31.375 58.113281 30.785156 58.113281 30.054688 L 58.113281 22.140625 C 58.113281 21.410156 57.519531 20.824219 56.78125 20.824219 Z M 6.085938 36.648438 C 5.347656 36.648438 4.75 37.238281 4.75 37.96875 L 4.75 45.882812 C 4.75 46.613281 5.347656 47.203125 6.085938 47.203125 L 27.429688 47.203125 C 28.167969 47.203125 28.765625 46.613281 28.765625 45.882812 L 28.765625 37.96875 C 28.765625 37.238281 28.167969 36.648438 27.429688 36.648438 Z M 35.433594 36.648438 C 34.695312 36.648438 34.101562 37.238281 34.101562 37.96875 L 34.101562 45.882812 C 34.101562 46.613281 34.695312 47.203125 35.433594 47.203125 L 56.78125 47.203125 C 57.519531 47.203125 58.113281 46.613281 58.113281 45.882812 L 58.113281 37.96875 C 58.113281 37.238281 57.519531 36.648438 56.78125 36.648438 Z M 6.085938 49.839844 C 5.347656 49.839844 4.75 50.429688 4.75 51.160156 L 4.75 59.074219 C 4.75 59.804688 5.347656 60.390625 6.085938 60.390625 L 27.429688 60.390625 C 28.167969 60.390625 28.765625 59.804688 28.765625 59.074219 L 28.765625 51.160156 C 28.765625 50.429688 28.167969 49.839844 27.429688 49.839844 Z M 35.433594 49.839844 C 34.695312 49.839844 34.101562 50.429688 34.101562 51.160156 L 34.101562 59.074219 C 34.101562 59.804688 34.695312 60.390625 35.433594 60.390625 L 56.78125 60.390625 C 57.519531 60.390625 58.113281 59.804688 58.113281 59.074219 L 58.113281 51.160156 C 58.113281 50.429688 57.519531 49.839844 56.78125 49.839844 Z M 35.433594 49.839844 "/></g></svg>
