<svg width="64" height="64" viewBox="0 0 64 64" version="1.1" xmlns:inkscape="http://www.inkscape.org/namespaces/inkscape"><defs><linearGradient id="linear0" gradientUnits="userSpaceOnUse" x1="0" y1="0" x2="0" y2="1" gradientTransform="matrix(56,0,0,35.898438,4,14.050781)"><stop offset="0" style="stop-color:rgb(0%,73.333335%,100%);stop-opacity:1;"/><stop offset="1" style="stop-color:rgb(0%,52.156866%,70.980394%);stop-opacity:1;"/></linearGradient><filter style="color-interpolation-filters:sRGB;" inkscape:label="Diffuse Light" id="filter184" x="-0.0375" y="-0.0375" width="1.075" height="1.075"><feGaussianBlur in="SourceGraphic" stdDeviation="1" result="blur" id="feGaussianBlur174" /><feDiffuseLighting diffuseConstant="1" surfaceScale="10" lighting-color="rgb(255,255,255)" result="diffuse" id="feDiffuseLighting178"><feDistantLight elevation="8" azimuth="235" id="feDistantLight176" /></feDiffuseLighting><feComposite in="diffuse" in2="diffuse" operator="arithmetic" k1="1" result="composite1" id="feComposite180" /><feComposite in="composite1" in2="SourceGraphic" k1="1" operator="arithmetic" k3="1" result="composite2" id="feComposite182" /></filter></defs><g id="surface1" style="filter:url(#filter184)"><path style=" stroke:none;fill-rule:nonzero;fill:url(#linear0);" d="M 4.546875 3.886719 L 4.546875 11.308594 L 7.742188 11.308594 L 7.742188 14.863281 C 9.222656 13.660156 11.300781 12.484375 14.136719 11.832031 L 14.136719 20.777344 L 7.191406 26.148438 L 4.546875 26.148438 L 4.546875 32.402344 L 14.136719 45.9375 L 17.332031 48.414062 L 7.742188 34.875 L 7.742188 28.625 L 10.390625 28.625 L 17.332031 23.25 L 17.332031 13.78125 L 23.726562 13.78125 L 23.726562 53.359375 L 20.527344 58.308594 L 33.316406 58.308594 L 37.148438 55.339844 L 36.511719 54.597656 L 36.511719 21.203125 C 36.511719 16.257812 42.90625 8.835938 55.691406 6.363281 L 9.339844 6.363281 C 6.144531 6.363281 4.546875 3.886719 4.546875 3.886719 Z M 46.652344 26.148438 L 49.300781 28.199219 L 49.300781 26.148438 Z M 46.652344 26.148438 "/></g></svg>
