<svg width="64" height="64" viewBox="0 0 64 64" version="1.1" xmlns:inkscape="http://www.inkscape.org/namespaces/inkscape"><defs><linearGradient id="linear0" gradientUnits="userSpaceOnUse" x1="0" y1="0" x2="0" y2="1" gradientTransform="matrix(56,0,0,35.898438,4,14.050781)"><stop offset="0" style="stop-color:rgb(100%,63.137257%,63.137257%);stop-opacity:1;"/><stop offset="1" style="stop-color:rgb(100%,27.843139%,27.843139%);stop-opacity:1;"/></linearGradient><filter style="color-interpolation-filters:sRGB;" inkscape:label="Diffuse Light" id="filter184" x="-0.0375" y="-0.0375" width="1.075" height="1.075"><feGaussianBlur in="SourceGraphic" stdDeviation="1" result="blur" id="feGaussianBlur174" /><feDiffuseLighting diffuseConstant="1" surfaceScale="10" lighting-color="rgb(255,255,255)" result="diffuse" id="feDiffuseLighting178"><feDistantLight elevation="8" azimuth="235" id="feDistantLight176" /></feDiffuseLighting><feComposite in="diffuse" in2="diffuse" operator="arithmetic" k1="1" result="composite1" id="feComposite180" /><feComposite in="composite1" in2="SourceGraphic" k1="1" operator="arithmetic" k3="1" result="composite2" id="feComposite182" /></filter></defs><g id="surface1" style="filter:url(#filter184)"><path style=" stroke:none;fill-rule:nonzero;fill:url(#linear0);" d="M 54.117188 22.886719 C 59.457031 22.886719 62.125 19.039062 62.125 15.605469 C 62.125 10.753906 51.449219 3.476562 32.761719 3.476562 C 18.277344 3.476562 3.398438 8.328125 3.398438 32.59375 C 3.398438 52.003906 19.414062 61.707031 32.761719 61.707031 C 54.117188 61.707031 56.789062 47.148438 56.789062 39.871094 C 56.789062 32.59375 48.777344 20.460938 38.101562 20.460938 C 30.09375 20.460938 22.082031 22.886719 22.082031 30.164062 C 22.082031 37.445312 27.421875 39.871094 32.761719 39.871094 C 35.96875 39.871094 40.769531 35.019531 40.769531 35.019531 L 38.101562 32.59375 L 40.769531 33.515625 L 43.441406 30.164062 L 40.769531 37.445312 C 40.769531 37.445312 35.96875 42.296875 32.761719 42.296875 C 30.09375 42.296875 27.421875 39.871094 27.421875 39.871094 L 27.421875 42.296875 C 27.421875 42.296875 27.421875 47.148438 32.761719 47.148438 C 38.101562 47.148438 43.441406 44.722656 43.441406 44.722656 C 43.441406 44.722656 40.769531 49.578125 35.429688 49.578125 C 30.09375 49.578125 19.414062 44.722656 19.414062 32.589844 C 19.414062 25.3125 22.082031 18.035156 32.761719 18.035156 C 40.769531 18.035156 48.777344 22.886719 54.117188 22.886719 Z M 54.117188 22.886719 "/></g></svg>
