<svg width="64" height="64" viewBox="0 0 64 64" version="1.1" xmlns:inkscape="http://www.inkscape.org/namespaces/inkscape"><defs><linearGradient id="linear0" gradientUnits="userSpaceOnUse" x1="0" y1="0" x2="0" y2="1" gradientTransform="matrix(56,0,0,35.898438,4,14.050781)"><stop offset="0" style="stop-color:rgb(0%,96.078432%,86.274511%);stop-opacity:1;"/><stop offset="1" style="stop-color:rgb(0%,54.901963%,49.411765%);stop-opacity:1;"/></linearGradient><linearGradient id="linear1" gradientUnits="userSpaceOnUse" x1="0" y1="0" x2="0" y2="1" gradientTransform="matrix(56,0,0,35.898438,4,14.050781)"><stop offset="0" style="stop-color:rgb(0%,96.078432%,86.274511%);stop-opacity:1;"/><stop offset="1" style="stop-color:rgb(0%,54.901963%,49.411765%);stop-opacity:1;"/></linearGradient><filter style="color-interpolation-filters:sRGB;" inkscape:label="Diffuse Light" id="filter184" x="-0.0375" y="-0.0375" width="1.075" height="1.075"><feGaussianBlur in="SourceGraphic" stdDeviation="1" result="blur" id="feGaussianBlur174" /><feDiffuseLighting diffuseConstant="1" surfaceScale="10" lighting-color="rgb(255,255,255)" result="diffuse" id="feDiffuseLighting178"><feDistantLight elevation="8" azimuth="235" id="feDistantLight176" /></feDiffuseLighting><feComposite in="diffuse" in2="diffuse" operator="arithmetic" k1="1" result="composite1" id="feComposite180" /><feComposite in="composite1" in2="SourceGraphic" k1="1" operator="arithmetic" k3="1" result="composite2" id="feComposite182" /></filter></defs><g id="surface1" style="filter:url(#filter184)"><path style=" stroke:none;fill-rule:nonzero;fill:url(#linear0);" d="M 31.339844 3.996094 C 16.164062 3.996094 3.859375 15.042969 3.859375 28.664062 C 3.859375 42.289062 16.164062 53.332031 31.339844 53.332031 C 20.207031 53.335938 11.183594 45.234375 11.183594 35.242188 C 11.183594 25.25 20.207031 17.152344 31.339844 17.152344 C 35.386719 17.152344 38.667969 14.207031 38.667969 10.574219 C 38.667969 6.941406 35.386719 3.996094 31.339844 3.996094 "/><path style=" stroke:none;fill-rule:nonzero;fill:url(#linear1);" d="M 34.949219 59.589844 C 49.34375 59.589844 61.011719 49.234375 61.011719 36.460938 C 61.011719 23.6875 49.34375 13.332031 34.949219 13.332031 C 45.503906 13.332031 54.0625 20.925781 54.0625 30.292969 C 54.0625 39.660156 45.503906 47.253906 34.949219 47.253906 C 31.113281 47.253906 28 50.015625 28 53.421875 C 28 56.828125 31.113281 59.589844 34.949219 59.589844 "/></g></svg>
