<svg width="64" height="64" viewBox="0 0 64 64" version="1.1" xmlns:inkscape="http://www.inkscape.org/namespaces/inkscape"><defs><linearGradient id="linear0" gradientUnits="userSpaceOnUse" x1="0" y1="0" x2="0" y2="1" gradientTransform="matrix(56,0,0,35.898438,4,14.050781)"><stop offset="0" style="stop-color:rgb(82.352942%,61.176473%,100%);stop-opacity:1;"/><stop offset="1" style="stop-color:rgb(66.666669%,0%,100%);stop-opacity:1;"/></linearGradient><linearGradient id="linear1" gradientUnits="userSpaceOnUse" x1="0" y1="0" x2="0" y2="1" gradientTransform="matrix(56,0,0,35.898438,4,14.050781)"><stop offset="0" style="stop-color:rgb(82.352942%,61.176473%,100%);stop-opacity:1;"/><stop offset="1" style="stop-color:rgb(66.666669%,0%,100%);stop-opacity:1;"/></linearGradient><linearGradient id="linear2" gradientUnits="userSpaceOnUse" x1="0" y1="0" x2="0" y2="1" gradientTransform="matrix(56,0,0,35.898438,4,14.050781)"><stop offset="0" style="stop-color:rgb(82.352942%,61.176473%,100%);stop-opacity:1;"/><stop offset="1" style="stop-color:rgb(66.666669%,0%,100%);stop-opacity:1;"/></linearGradient><filter style="color-interpolation-filters:sRGB;" inkscape:label="Diffuse Light" id="filter184" x="-0.0375" y="-0.0375" width="1.075" height="1.075"><feGaussianBlur in="SourceGraphic" stdDeviation="1" result="blur" id="feGaussianBlur174" /><feDiffuseLighting diffuseConstant="1" surfaceScale="10" lighting-color="rgb(255,255,255)" result="diffuse" id="feDiffuseLighting178"><feDistantLight elevation="8" azimuth="235" id="feDistantLight176" /></feDiffuseLighting><feComposite in="diffuse" in2="diffuse" operator="arithmetic" k1="1" result="composite1" id="feComposite180" /><feComposite in="composite1" in2="SourceGraphic" k1="1" operator="arithmetic" k3="1" result="composite2" id="feComposite182" /></filter></defs><g id="surface1" style="filter:url(#filter184)"><path style=" stroke:none;fill-rule:nonzero;fill:url(#linear0);" d="M 21.152344 47.324219 L 23.957031 47.324219 L 23.957031 58.417969 L 21.152344 58.417969 Z M 40.796875 47.324219 L 43.601562 47.324219 L 43.601562 58.417969 L 40.796875 58.417969 Z M 40.796875 47.324219 "/><path style=" stroke:none;fill-rule:nonzero;fill:url(#linear1);" d="M 9.921875 36.234375 L 32.375 36.234375 L 33.78125 22.367188 L 32.375 5.730469 C 26.636719 5.730469 24.597656 13.242188 29.574219 16.078125 L 29.574219 25.144531 L 15.535156 25.144531 L 15.535156 18.859375 C 20.511719 16.015625 18.472656 8.507812 12.734375 8.507812 C 6.984375 8.507812 4.945312 16.015625 9.921875 18.859375 Z M 9.921875 36.234375 "/><path style=" stroke:none;fill-rule:nonzero;fill:url(#linear2);" d="M 54.832031 36.234375 L 32.375 36.234375 L 32.375 5.730469 C 34.917969 5.730469 37.136719 7.417969 37.792969 9.839844 C 38.453125 12.269531 37.382812 14.828125 35.179688 16.078125 L 35.179688 25.144531 L 49.214844 25.144531 L 49.214844 18.859375 C 47.011719 17.597656 45.941406 15.039062 46.601562 12.617188 C 47.257812 10.191406 49.480469 8.507812 52.019531 8.507812 C 54.558594 8.507812 56.789062 10.191406 57.445312 12.617188 C 58.105469 15.039062 57.027344 17.597656 54.832031 18.859375 Z M 54.832031 36.234375 "/></g></svg>
