<svg width="64" height="64" viewBox="0 0 64 64" version="1.1" xmlns:inkscape="http://www.inkscape.org/namespaces/inkscape"><defs><linearGradient id="linear0" gradientUnits="userSpaceOnUse" x1="0" y1="0" x2="0" y2="1" gradientTransform="matrix(60.389386,0,0,37.621527,6.16913,13.012427)"><stop offset="0" style="stop-color:rgb(100%,63.137257%,63.137257%);stop-opacity:1;"/><stop offset="1" style="stop-color:rgb(100%,27.843139%,27.843139%);stop-opacity:1;"/></linearGradient><linearGradient id="linear1" gradientUnits="userSpaceOnUse" x1="0" y1="0" x2="0" y2="1" gradientTransform="matrix(60.389386,0,0,37.621527,6.16913,13.012427)"><stop offset="0" style="stop-color:rgb(100%,63.137257%,63.137257%);stop-opacity:1;"/><stop offset="1" style="stop-color:rgb(100%,27.843139%,27.843139%);stop-opacity:1;"/></linearGradient><linearGradient id="linear2" gradientUnits="userSpaceOnUse" x1="0" y1="0" x2="0" y2="1" gradientTransform="matrix(60.389386,0,0,37.621527,6.16913,13.012427)"><stop offset="0" style="stop-color:rgb(100%,63.137257%,63.137257%);stop-opacity:1;"/><stop offset="1" style="stop-color:rgb(100%,27.843139%,27.843139%);stop-opacity:1;"/></linearGradient><linearGradient id="linear3" gradientUnits="userSpaceOnUse" x1="0" y1="0" x2="0" y2="1" gradientTransform="matrix(60.389386,0,0,37.621527,6.16913,13.012427)"><stop offset="0" style="stop-color:rgb(100%,63.137257%,63.137257%);stop-opacity:1;"/><stop offset="1" style="stop-color:rgb(100%,27.843139%,27.843139%);stop-opacity:1;"/></linearGradient><linearGradient id="linear4" gradientUnits="userSpaceOnUse" x1="0" y1="0" x2="0" y2="1" gradientTransform="matrix(60.389386,0,0,37.621527,6.16913,13.012427)"><stop offset="0" style="stop-color:rgb(100%,63.137257%,63.137257%);stop-opacity:1;"/><stop offset="1" style="stop-color:rgb(100%,27.843139%,27.843139%);stop-opacity:1;"/></linearGradient><linearGradient id="linear5" gradientUnits="userSpaceOnUse" x1="0" y1="0" x2="0" y2="1" gradientTransform="matrix(60.389386,0,0,37.621527,6.16913,13.012427)"><stop offset="0" style="stop-color:rgb(100%,63.137257%,63.137257%);stop-opacity:1;"/><stop offset="1" style="stop-color:rgb(100%,27.843139%,27.843139%);stop-opacity:1;"/></linearGradient><filter style="color-interpolation-filters:sRGB;" inkscape:label="Diffuse Light" id="filter184" x="-0.0375" y="-0.0375" width="1.075" height="1.075"><feGaussianBlur in="SourceGraphic" stdDeviation="1" result="blur" id="feGaussianBlur174" /><feDiffuseLighting diffuseConstant="1" surfaceScale="10" lighting-color="rgb(255,255,255)" result="diffuse" id="feDiffuseLighting178"><feDistantLight elevation="8" azimuth="235" id="feDistantLight176" /></feDiffuseLighting><feComposite in="diffuse" in2="diffuse" operator="arithmetic" k1="1" result="composite1" id="feComposite180" /><feComposite in="composite1" in2="SourceGraphic" k1="1" operator="arithmetic" k3="1" result="composite2" id="feComposite182" /></filter></defs><g id="surface1" style="filter:url(#filter184)"><path style=" stroke:none;fill-rule:nonzero;fill:url(#linear0);" d="M 18.742188 41.234375 L 51.203125 41.234375 L 51.203125 50.15625 L 18.742188 50.15625 Z M 18.742188 41.234375 "/><path style=" stroke:none;fill-rule:nonzero;fill:url(#linear1);" d="M 48.710938 7.789062 L 53.707031 7.789062 L 53.707031 10.023438 L 48.710938 10.023438 Z M 48.710938 7.789062 "/><path style=" stroke:none;fill-rule:nonzero;fill:url(#linear2);" d="M 16.25 47.925781 L 11.25 52.382812 L 11.25 59.070312 L 23.738281 59.070312 L 23.738281 47.925781 Z M 28.730469 52.382812 L 28.730469 63.535156 L 41.222656 63.535156 L 41.222656 52.382812 Z M 43.714844 52.382812 L 43.714844 63.535156 L 56.203125 63.535156 L 56.203125 52.382812 Z M 43.714844 52.382812 "/><path style=" stroke:none;fill-rule:nonzero;fill:url(#linear3);" d="M 16.25 21.167969 L 11.25 25.628906 L 13.746094 32.320312 L 16.25 32.320312 L 16.25 27.855469 L 18.742188 25.628906 L 28.730469 25.628906 L 28.730469 23.402344 Z M 33.726562 23.402344 L 33.726562 25.628906 L 43.714844 25.628906 L 46.214844 27.855469 L 46.214844 32.320312 L 48.710938 32.320312 L 51.203125 25.628906 L 46.214844 21.167969 Z M 13.746094 36.78125 L 11.25 41.234375 L 28.730469 39.007812 L 28.730469 36.78125 Z M 33.726562 36.78125 L 33.726562 39.007812 L 51.203125 41.234375 L 48.710938 36.78125 Z M 33.726562 36.78125 "/><path style=" stroke:none;fill-rule:nonzero;fill:url(#linear4);" d="M 18.742188 1.101562 L 13.746094 5.5625 L 13.746094 16.714844 L 43.714844 16.714844 L 43.714844 5.5625 L 38.722656 1.101562 Z M 16.25 18.941406 L 8.753906 25.628906 L 8.753906 32.320312 L 13.746094 32.320312 L 13.746094 27.855469 L 18.742188 23.402344 L 28.730469 23.402344 L 28.730469 18.941406 Z M 33.726562 18.941406 L 33.726562 23.402344 L 43.714844 23.402344 L 48.710938 27.855469 L 48.710938 32.320312 L 53.707031 32.320312 L 53.707031 25.628906 L 46.214844 18.941406 Z M 8.753906 36.78125 L 8.753906 43.464844 L 28.730469 43.464844 L 28.730469 39.007812 L 13.746094 39.007812 L 13.746094 36.78125 Z M 48.710938 36.78125 L 48.710938 39.007812 L 33.726562 39.007812 L 33.726562 43.464844 L 53.707031 43.464844 L 53.707031 36.78125 Z M 48.710938 36.78125 "/><path style=" stroke:none;fill-rule:nonzero;fill:url(#linear5);" d="M 21.238281 30.089844 L 41.222656 30.089844 L 36.21875 34.546875 L 26.238281 34.546875 Z M 21.238281 30.089844 "/></g></svg>
