<svg width="64" height="64" viewBox="0 0 64 64" version="1.1" xmlns:inkscape="http://www.inkscape.org/namespaces/inkscape"><defs><linearGradient id="linear0" gradientUnits="userSpaceOnUse" x1="0" y1="0" x2="0" y2="1" gradientTransform="matrix(59.795534,0,0,38.142223,1.686382,12.279194)"><stop offset="0" style="stop-color:rgb(41.960785%,64.313728%,100%);stop-opacity:1;"/><stop offset="1" style="stop-color:rgb(0%,43.137255%,100%);stop-opacity:1;"/></linearGradient><linearGradient id="linear1" gradientUnits="userSpaceOnUse" x1="0" y1="0" x2="0" y2="1" gradientTransform="matrix(59.795534,0,0,38.142223,1.686382,12.279194)"><stop offset="0" style="stop-color:rgb(41.960785%,64.313728%,100%);stop-opacity:1;"/><stop offset="1" style="stop-color:rgb(0%,43.137255%,100%);stop-opacity:1;"/></linearGradient><linearGradient id="linear2" gradientUnits="userSpaceOnUse" x1="0" y1="0" x2="0" y2="1" gradientTransform="matrix(59.795534,0,0,38.142223,1.686382,12.279194)"><stop offset="0" style="stop-color:rgb(41.960785%,64.313728%,100%);stop-opacity:1;"/><stop offset="1" style="stop-color:rgb(0%,43.137255%,100%);stop-opacity:1;"/></linearGradient><linearGradient id="linear3" gradientUnits="userSpaceOnUse" x1="0" y1="0" x2="0" y2="1" gradientTransform="matrix(59.795534,0,0,38.142223,1.686382,12.279194)"><stop offset="0" style="stop-color:rgb(41.960785%,64.313728%,100%);stop-opacity:1;"/><stop offset="1" style="stop-color:rgb(0%,43.137255%,100%);stop-opacity:1;"/></linearGradient><filter style="color-interpolation-filters:sRGB;" inkscape:label="Diffuse Light" id="filter184" x="-0.0375" y="-0.0375" width="1.075" height="1.075"><feGaussianBlur in="SourceGraphic" stdDeviation="1" result="blur" id="feGaussianBlur174" /><feDiffuseLighting diffuseConstant="1" surfaceScale="10" lighting-color="rgb(255,255,255)" result="diffuse" id="feDiffuseLighting178"><feDistantLight elevation="8" azimuth="235" id="feDistantLight176" /></feDiffuseLighting><feComposite in="diffuse" in2="diffuse" operator="arithmetic" k1="1" result="composite1" id="feComposite180" /><feComposite in="composite1" in2="SourceGraphic" k1="1" operator="arithmetic" k3="1" result="composite2" id="feComposite182" /></filter></defs><g id="surface1" style="filter:url(#filter184)"><path style=" stroke:none;fill-rule:nonzero;fill:url(#linear0);" d="M 28.273438 3.238281 L 28.273438 12.667969 L 22.757812 12.667969 L 22.757812 10.3125 L 25.511719 10.3125 L 25.511719 3.238281 Z M 28.273438 3.238281 "/><path style=" stroke:none;fill-rule:nonzero;fill:url(#linear1);" d="M 33.773438 3.238281 L 33.773438 12.667969 L 39.285156 12.667969 L 39.285156 10.3125 L 36.53125 10.3125 L 36.53125 3.238281 Z M 33.773438 3.238281 "/><path style=" stroke:none;fill-rule:nonzero;fill:url(#linear2);" d="M 32.394531 1.597656 L 10.359375 8.667969 L 2.09375 51.109375 L 18.621094 62.902344 L 46.15625 62.902344 L 62.683594 51.109375 L 54.421875 8.667969 Z M 32.394531 3.957031 L 35.144531 4.964844 L 35.144531 13.378906 L 40.65625 13.378906 L 40.65625 11.023438 L 37.894531 11.023438 L 37.894531 5.984375 L 51.667969 11.023438 L 56.078125 32.429688 L 43.410156 34.601562 L 43.410156 39.320312 L 46.15625 39.320312 L 46.15625 36.960938 L 57.011719 36.960938 L 59.929688 51.109375 L 43.410156 60.539062 L 21.375 60.539062 L 4.847656 51.109375 L 7.769531 36.960938 L 18.621094 36.960938 L 18.621094 39.320312 L 21.375 39.320312 L 21.375 34.601562 C 17.238281 34.601562 12.894531 33.40625 8.679688 32.488281 L 13.109375 11.03125 L 26.882812 5.984375 L 26.882812 11.03125 L 24.128906 11.03125 L 24.128906 13.386719 L 29.636719 13.386719 L 29.636719 4.972656 Z M 32.394531 3.957031 "/><path style=" stroke:none;fill-rule:nonzero;fill:url(#linear3);" d="M 15.320312 18.421875 L 15.320312 25.492188 L 29.09375 25.492188 L 26.339844 20.777344 Z M 48.367188 18.421875 L 37.355469 20.777344 L 34.605469 25.492188 L 48.367188 25.492188 Z M 31.847656 25.492188 L 29.09375 30.203125 L 29.09375 37.28125 L 23.585938 37.28125 L 23.585938 39.644531 L 31.847656 42 L 40.105469 39.644531 L 40.105469 37.28125 L 34.605469 37.28125 L 34.605469 30.203125 Z M 20.832031 46.714844 L 18.078125 51.425781 L 45.621094 51.425781 L 42.867188 46.714844 Z M 20.832031 46.714844 "/></g></svg>
