<svg width="64" height="64" viewBox="0 0 64 64" version="1.1" xmlns:inkscape="http://www.inkscape.org/namespaces/inkscape"><defs><linearGradient id="linear0" gradientUnits="userSpaceOnUse" x1="0" y1="0" x2="0" y2="1" gradientTransform="matrix(60.729948,0,0,39.739202,3.085375,12.738308)"><stop offset="0" style="stop-color:rgb(81.960785%,70.980394%,59.215689%);stop-opacity:1;"/><stop offset="1" style="stop-color:rgb(65.098041%,53.725493%,41.568628%);stop-opacity:1;"/></linearGradient><filter style="color-interpolation-filters:sRGB;" inkscape:label="Diffuse Light" id="filter184" x="-0.0375" y="-0.0375" width="1.075" height="1.075"><feGaussianBlur in="SourceGraphic" stdDeviation="1" result="blur" id="feGaussianBlur174" /><feDiffuseLighting diffuseConstant="1" surfaceScale="10" lighting-color="rgb(255,255,255)" result="diffuse" id="feDiffuseLighting178"><feDistantLight elevation="8" azimuth="235" id="feDistantLight176" /></feDiffuseLighting><feComposite in="diffuse" in2="diffuse" operator="arithmetic" k1="1" result="composite1" id="feComposite180" /><feComposite in="composite1" in2="SourceGraphic" k1="1" operator="arithmetic" k3="1" result="composite2" id="feComposite182" /></filter></defs><g id="surface1" style="filter:url(#filter184)"><path style=" stroke:none;fill-rule:nonzero;fill:url(#linear0);" d="M 16.976562 0.902344 C 7.519531 6.875 1.6875 17.910156 1.6875 29.972656 L 22.851562 29.972656 C 22.855469 33.65625 24.648438 37.054688 27.558594 38.878906 L 16.976562 58.945312 C 26.425781 64.914062 38.09375 64.914062 47.542969 58.945312 L 36.960938 38.878906 C 39.875 37.042969 41.664062 33.65625 41.664062 29.972656 L 62.828125 29.972656 C 62.828125 18.039062 57 6.972656 47.542969 0.902344 L 36.960938 20.972656 C 35.535156 20.066406 33.902344 19.582031 32.261719 19.582031 C 30.609375 19.582031 28.988281 20.066406 27.558594 20.976562 Z M 32.261719 24.730469 C 34.84375 24.730469 36.960938 27.03125 36.960938 29.875 C 36.960938 32.714844 34.855469 35.019531 32.261719 35.019531 C 29.660156 35.019531 27.558594 32.714844 27.558594 29.875 C 27.558594 27.03125 29.660156 24.730469 32.261719 24.730469 Z M 32.261719 24.730469 "/></g></svg>
