<svg width="64" height="64" viewBox="0 0 64 64" version="1.1" xmlns:inkscape="http://www.inkscape.org/namespaces/inkscape"><defs><linearGradient id="linear0" gradientUnits="userSpaceOnUse" x1="0" y1="0" x2="0" y2="1" gradientTransform="matrix(56,0,0,35.898438,4,14.050781)"><stop offset="0" style="stop-color:rgb(82.352942%,61.176473%,100%);stop-opacity:1;"/><stop offset="1" style="stop-color:rgb(66.666669%,0%,100%);stop-opacity:1;"/></linearGradient><filter style="color-interpolation-filters:sRGB;" inkscape:label="Diffuse Light" id="filter184" x="-0.0375" y="-0.0375" width="1.075" height="1.075"><feGaussianBlur in="SourceGraphic" stdDeviation="1" result="blur" id="feGaussianBlur174" /><feDiffuseLighting diffuseConstant="1" surfaceScale="10" lighting-color="rgb(255,255,255)" result="diffuse" id="feDiffuseLighting178"><feDistantLight elevation="8" azimuth="235" id="feDistantLight176" /></feDiffuseLighting><feComposite in="diffuse" in2="diffuse" operator="arithmetic" k1="1" result="composite1" id="feComposite180" /><feComposite in="composite1" in2="SourceGraphic" k1="1" operator="arithmetic" k3="1" result="composite2" id="feComposite182" /></filter></defs><g id="surface1" style="filter:url(#filter184)"><path style=" stroke:none;fill-rule:nonzero;fill:url(#linear0);" d="M 23.546875 3.25 L 23.546875 10.09375 C 23.546875 39.753906 10.816406 48.878906 4.449219 48.878906 L 4.449219 58.003906 C 15.058594 58.003906 27.789062 46.597656 27.789062 21.5 L 27.789062 3.25 Z M 29.910156 3.25 L 29.910156 58.003906 L 34.152344 58.003906 L 34.152344 3.25 Z M 36.273438 3.25 L 36.273438 21.5 C 36.273438 46.597656 49.003906 58.003906 59.613281 58.003906 L 59.613281 48.878906 C 53.25 48.878906 40.519531 39.753906 40.519531 10.09375 L 40.519531 3.25 Z M 36.273438 3.25 "/></g></svg>
