<svg width="64" height="64" viewBox="0 0 64 64" version="1.1" xmlns:inkscape="http://www.inkscape.org/namespaces/inkscape"><defs><linearGradient id="linear0" gradientUnits="userSpaceOnUse" x1="0" y1="0" x2="0" y2="1" gradientTransform="matrix(56,0,0,35.898438,4,14.050781)"><stop offset="0" style="stop-color:rgb(92.941177%,83.529413%,72.549021%);stop-opacity:1;"/><stop offset="1" style="stop-color:rgb(81.960785%,71.372551%,59.215689%);stop-opacity:1;"/></linearGradient><linearGradient id="linear1" gradientUnits="userSpaceOnUse" x1="0" y1="0" x2="0" y2="1" gradientTransform="matrix(56,0,0,35.898438,4,14.050781)"><stop offset="0" style="stop-color:rgb(92.941177%,83.529413%,72.549021%);stop-opacity:1;"/><stop offset="1" style="stop-color:rgb(81.960785%,71.372551%,59.215689%);stop-opacity:1;"/></linearGradient><linearGradient id="linear2" gradientUnits="userSpaceOnUse" x1="0" y1="0" x2="0" y2="1" gradientTransform="matrix(56,0,0,35.898438,4,14.050781)"><stop offset="0" style="stop-color:rgb(92.941177%,83.529413%,72.549021%);stop-opacity:1;"/><stop offset="1" style="stop-color:rgb(81.960785%,71.372551%,59.215689%);stop-opacity:1;"/></linearGradient><linearGradient id="linear3" gradientUnits="userSpaceOnUse" x1="0" y1="0" x2="0" y2="1" gradientTransform="matrix(56,0,0,35.898438,4,14.050781)"><stop offset="0" style="stop-color:rgb(92.941177%,83.529413%,72.549021%);stop-opacity:1;"/><stop offset="1" style="stop-color:rgb(81.960785%,71.372551%,59.215689%);stop-opacity:1;"/></linearGradient><linearGradient id="linear4" gradientUnits="userSpaceOnUse" x1="0" y1="0" x2="0" y2="1" gradientTransform="matrix(56,0,0,35.898438,4,14.050781)"><stop offset="0" style="stop-color:rgb(92.941177%,83.529413%,72.549021%);stop-opacity:1;"/><stop offset="1" style="stop-color:rgb(81.960785%,71.372551%,59.215689%);stop-opacity:1;"/></linearGradient><linearGradient id="linear5" gradientUnits="userSpaceOnUse" x1="0" y1="0" x2="0" y2="1" gradientTransform="matrix(56,0,0,35.898438,4,14.050781)"><stop offset="0" style="stop-color:rgb(92.941177%,83.529413%,72.549021%);stop-opacity:1;"/><stop offset="1" style="stop-color:rgb(81.960785%,71.372551%,59.215689%);stop-opacity:1;"/></linearGradient><linearGradient id="linear6" gradientUnits="userSpaceOnUse" x1="0" y1="0" x2="0" y2="1" gradientTransform="matrix(56,0,0,35.898438,4,14.050781)"><stop offset="0" style="stop-color:rgb(92.941177%,83.529413%,72.549021%);stop-opacity:1;"/><stop offset="1" style="stop-color:rgb(81.960785%,71.372551%,59.215689%);stop-opacity:1;"/></linearGradient><filter style="color-interpolation-filters:sRGB;" inkscape:label="Diffuse Light" id="filter184" x="-0.0375" y="-0.0375" width="1.075" height="1.075"><feGaussianBlur in="SourceGraphic" stdDeviation="1" result="blur" id="feGaussianBlur174" /><feDiffuseLighting diffuseConstant="1" surfaceScale="10" lighting-color="rgb(255,255,255)" result="diffuse" id="feDiffuseLighting178"><feDistantLight elevation="8" azimuth="235" id="feDistantLight176" /></feDiffuseLighting><feComposite in="diffuse" in2="diffuse" operator="arithmetic" k1="1" result="composite1" id="feComposite180" /><feComposite in="composite1" in2="SourceGraphic" k1="1" operator="arithmetic" k3="1" result="composite2" id="feComposite182" /></filter></defs><g id="surface1" style="filter:url(#filter184)"><path style=" stroke:none;fill-rule:nonzero;fill:url(#linear0);" d="M 24.21875 3.117188 C 26.992188 5.839844 26.972656 8.007812 26.972656 11.289062 L 26.972656 18.074219 C 20.851562 20.078125 15.839844 24.234375 12.964844 29.550781 C 16.585938 31.582031 54.0625 31.582031 57.667969 29.550781 C 54.789062 24.242188 49.765625 20.09375 43.65625 18.074219 L 43.65625 11.289062 C 43.65625 8.027344 43.640625 5.847656 46.410156 3.117188 "/><path style=" stroke:none;fill-rule:nonzero;fill:url(#linear1);" d="M 12.945312 29.546875 C 11.277344 32.644531 10.34375 36.136719 10.34375 39.839844 C 10.34375 48.488281 15.5 56.074219 23.097656 60.046875 L 47.558594 60.046875 C 55.152344 56.078125 60.3125 48.488281 60.3125 39.839844 C 60.3125 36.140625 59.375 32.648438 57.707031 29.546875 Z M 12.945312 29.546875 "/><path style=" stroke:none;fill-rule:nonzero;fill:url(#linear2);" d="M 41.574219 54.960938 C 41.574219 55.523438 41.109375 55.976562 40.53125 55.976562 C 39.957031 55.976562 39.492188 55.515625 39.492188 54.960938 C 39.492188 54.398438 39.957031 53.945312 40.53125 53.945312 C 41.109375 53.945312 41.574219 54.398438 41.574219 54.960938 M 41.574219 54.960938 "/><path style=" stroke:none;fill-rule:nonzero;fill:url(#linear3);" d="M 38.449219 50.386719 C 38.449219 51.226562 37.75 51.910156 36.890625 51.910156 C 36.027344 51.910156 35.328125 51.226562 35.328125 50.386719 C 35.328125 49.542969 36.027344 48.859375 36.890625 48.859375 C 37.75 48.859375 38.449219 49.542969 38.449219 50.386719 M 38.449219 50.386719 "/><path style=" stroke:none;fill-rule:nonzero;fill:url(#linear4);" d="M 41.574219 43.777344 C 41.574219 44.898438 40.636719 45.8125 39.492188 45.8125 C 38.34375 45.8125 37.410156 44.898438 37.410156 43.777344 C 37.410156 42.648438 38.34375 41.746094 39.492188 41.746094 C 40.636719 41.746094 41.574219 42.660156 41.574219 43.777344 M 41.574219 43.777344 "/><path style=" stroke:none;fill-rule:nonzero;fill:url(#linear5);" d="M 41.574219 28.53125 C 41.574219 30.214844 40.175781 31.582031 38.449219 31.582031 C 36.726562 31.582031 35.328125 30.207031 35.328125 28.53125 C 35.328125 26.847656 36.726562 25.480469 38.449219 25.480469 C 40.175781 25.480469 41.574219 26.847656 41.574219 28.53125 M 41.574219 28.53125 "/><path style=" stroke:none;fill-rule:nonzero;fill:url(#linear6);" d="M 36.367188 37.171875 C 36.367188 38.574219 35.203125 39.710938 33.765625 39.710938 C 32.328125 39.710938 31.164062 38.566406 31.164062 37.171875 C 31.164062 35.765625 32.328125 34.628906 33.765625 34.628906 C 35.203125 34.628906 36.367188 35.773438 36.367188 37.171875 M 36.367188 37.171875 "/></g></svg>
