<svg width="64" height="64" viewBox="0 0 64 64" version="1.1" xmlns:inkscape="http://www.inkscape.org/namespaces/inkscape"><defs><linearGradient id="linear0" gradientUnits="userSpaceOnUse" x1="0" y1="0" x2="0" y2="1" gradientTransform="matrix(56,0,0,35.898438,4,14.050781)"><stop offset="0" style="stop-color:rgb(0%,96.078432%,86.274511%);stop-opacity:1;"/><stop offset="1" style="stop-color:rgb(0%,54.901963%,49.411765%);stop-opacity:1;"/></linearGradient><filter style="color-interpolation-filters:sRGB;" inkscape:label="Diffuse Light" id="filter184" x="-0.0375" y="-0.0375" width="1.075" height="1.075"><feGaussianBlur in="SourceGraphic" stdDeviation="1" result="blur" id="feGaussianBlur174" /><feDiffuseLighting diffuseConstant="1" surfaceScale="10" lighting-color="rgb(255,255,255)" result="diffuse" id="feDiffuseLighting178"><feDistantLight elevation="8" azimuth="235" id="feDistantLight176" /></feDiffuseLighting><feComposite in="diffuse" in2="diffuse" operator="arithmetic" k1="1" result="composite1" id="feComposite180" /><feComposite in="composite1" in2="SourceGraphic" k1="1" operator="arithmetic" k3="1" result="composite2" id="feComposite182" /></filter></defs><g id="surface1" style="filter:url(#filter184)"><path style=" stroke:none;fill-rule:nonzero;fill:url(#linear0);" d="M 14.902344 14.484375 C 7.488281 14.484375 2.546875 22.246094 2.546875 27.421875 L 2.546875 50.707031 L 14.902344 50.707031 L 14.902344 61.058594 L 49.488281 61.058594 L 49.488281 50.707031 L 61.839844 50.707031 L 61.839844 27.421875 C 61.839844 22.246094 56.898438 14.484375 49.488281 14.484375 Z M 18.605469 24.832031 C 23.375 24.832031 27.253906 28.894531 27.253906 33.890625 C 27.253906 38.882812 23.375 42.945312 18.605469 42.945312 C 13.839844 42.945312 9.960938 38.882812 9.960938 33.890625 C 9.960938 28.894531 13.839844 24.832031 18.605469 24.832031 Z M 45.78125 24.832031 C 50.550781 24.832031 54.429688 28.894531 54.429688 33.890625 C 54.429688 38.882812 50.550781 42.945312 45.78125 42.945312 C 41.015625 42.945312 37.136719 38.882812 37.136719 33.890625 C 37.136719 28.894531 41.015625 24.832031 45.78125 24.832031 Z M 45.78125 24.832031 "/></g></svg>
