<svg width="64" height="64" viewBox="0 0 64 64" version="1.1" xmlns:inkscape="http://www.inkscape.org/namespaces/inkscape"><defs><linearGradient id="linear0" gradientUnits="userSpaceOnUse" x1="0" y1="0" x2="0" y2="1" gradientTransform="matrix(58.665021,0,0,37.911412,2.287805,12.662606)"><stop offset="0" style="stop-color:rgb(100%,73.333335%,0%);stop-opacity:1;"/><stop offset="1" style="stop-color:rgb(70.19608%,51.372552%,0%);stop-opacity:1;"/></linearGradient><linearGradient id="linear1" gradientUnits="userSpaceOnUse" x1="0" y1="0" x2="0" y2="1" gradientTransform="matrix(58.665021,0,0,37.911412,2.287805,12.662606)"><stop offset="0" style="stop-color:rgb(100%,73.333335%,0%);stop-opacity:1;"/><stop offset="1" style="stop-color:rgb(70.19608%,51.372552%,0%);stop-opacity:1;"/></linearGradient><linearGradient id="linear2" gradientUnits="userSpaceOnUse" x1="0" y1="0" x2="0" y2="1" gradientTransform="matrix(58.665021,0,0,37.911412,2.287805,12.662606)"><stop offset="0" style="stop-color:rgb(100%,73.333335%,0%);stop-opacity:1;"/><stop offset="1" style="stop-color:rgb(70.19608%,51.372552%,0%);stop-opacity:1;"/></linearGradient><linearGradient id="linear3" gradientUnits="userSpaceOnUse" x1="0" y1="0" x2="0" y2="1" gradientTransform="matrix(58.665021,0,0,37.911412,2.287805,12.662606)"><stop offset="0" style="stop-color:rgb(100%,73.333335%,0%);stop-opacity:1;"/><stop offset="1" style="stop-color:rgb(70.19608%,51.372552%,0%);stop-opacity:1;"/></linearGradient><filter style="color-interpolation-filters:sRGB;" inkscape:label="Diffuse Light" id="filter184" x="-0.0375" y="-0.0375" width="1.075" height="1.075"><feGaussianBlur in="SourceGraphic" stdDeviation="1" result="blur" id="feGaussianBlur174" /><feDiffuseLighting diffuseConstant="1" surfaceScale="10" lighting-color="rgb(255,255,255)" result="diffuse" id="feDiffuseLighting178"><feDistantLight elevation="8" azimuth="235" id="feDistantLight176" /></feDiffuseLighting><feComposite in="diffuse" in2="diffuse" operator="arithmetic" k1="1" result="composite1" id="feComposite180" /><feComposite in="composite1" in2="SourceGraphic" k1="1" operator="arithmetic" k3="1" result="composite2" id="feComposite182" /></filter></defs><g id="surface1" style="filter:url(#filter184)"><path style=" stroke:none;fill-rule:nonzero;fill:url(#linear0);" d="M 18.234375 14.929688 L 18.234375 19.316406 L 15.976562 30.265625 L 22.757812 30.265625 L 22.757812 14.929688 Z M 40.839844 14.929688 L 40.839844 30.265625 L 47.625 30.265625 L 45.367188 19.316406 L 45.367188 14.929688 Z M 40.839844 14.929688 "/><path style=" stroke:none;fill-rule:nonzero;fill:url(#linear1);" d="M 31.800781 1.789062 C 27.574219 2.925781 21.628906 3.980469 17.101562 8.359375 L 29.542969 8.359375 L 29.542969 41.21875 L 34.058594 41.21875 L 34.058594 8.359375 L 46.5 8.359375 C 41.972656 3.980469 36.023438 2.925781 31.800781 1.789062 Z M 31.800781 1.789062 "/><path style=" stroke:none;fill-rule:nonzero;fill:url(#linear2);" d="M 31.800781 1.789062 C 28.050781 1.789062 25.015625 3.753906 25.015625 6.171875 C 25.015625 8.589844 28.050781 10.550781 31.800781 10.550781 C 35.546875 10.550781 38.582031 8.589844 38.582031 6.171875 C 38.582031 3.753906 35.546875 1.789062 31.800781 1.789062 Z M 31.800781 14.929688 C 28.050781 14.929688 25.015625 17.871094 25.015625 21.503906 C 25.015625 25.136719 28.050781 28.074219 31.800781 28.074219 C 35.546875 28.074219 38.582031 25.136719 38.582031 21.503906 C 38.582031 17.871094 35.546875 14.929688 31.800781 14.929688 Z M 31.800781 14.929688 "/><path style=" stroke:none;fill-rule:nonzero;fill:url(#linear3);" d="M 18.234375 25.886719 C 13.710938 25.886719 9.191406 28.074219 9.191406 30.265625 C 9.191406 34.644531 11.449219 41.21875 15.976562 41.21875 C 20.492188 41.21875 27.273438 40.769531 27.273438 36.835938 C 27.273438 32.460938 20.492188 25.886719 18.234375 25.886719 Z M 45.367188 25.886719 C 43.105469 25.886719 36.320312 32.460938 36.320312 36.835938 C 36.320312 40.78125 43.105469 41.21875 47.625 41.21875 C 52.148438 41.21875 54.40625 34.644531 54.40625 30.265625 C 54.40625 28.074219 49.886719 25.886719 45.367188 25.886719 Z M 31.800781 39.03125 L 29.542969 41.21875 C 29.542969 41.21875 25.015625 45.601562 25.015625 54.359375 C 25.015625 56.550781 29.542969 56.550781 29.542969 56.550781 L 29.542969 63.125 L 34.058594 63.125 L 34.058594 56.550781 C 34.058594 56.550781 38.582031 56.550781 38.582031 54.359375 C 38.582031 47.789062 34.058594 41.21875 34.058594 41.21875 Z M 31.800781 39.03125 "/></g></svg>
