<svg width="64" height="64" viewBox="0 0 64 64" version="1.1" xmlns:inkscape="http://www.inkscape.org/namespaces/inkscape"><defs><linearGradient id="linear0" gradientUnits="userSpaceOnUse" x1="0" y1="0" x2="0" y2="1" gradientTransform="matrix(56,0,0,35.898438,4,14.050781)"><stop offset="0" style="stop-color:rgb(0%,96.078432%,86.274511%);stop-opacity:1;"/><stop offset="1" style="stop-color:rgb(0%,54.901963%,49.411765%);stop-opacity:1;"/></linearGradient><filter style="color-interpolation-filters:sRGB;" inkscape:label="Diffuse Light" id="filter184" x="-0.0375" y="-0.0375" width="1.075" height="1.075"><feGaussianBlur in="SourceGraphic" stdDeviation="1" result="blur" id="feGaussianBlur174" /><feDiffuseLighting diffuseConstant="1" surfaceScale="10" lighting-color="rgb(255,255,255)" result="diffuse" id="feDiffuseLighting178"><feDistantLight elevation="8" azimuth="235" id="feDistantLight176" /></feDiffuseLighting><feComposite in="diffuse" in2="diffuse" operator="arithmetic" k1="1" result="composite1" id="feComposite180" /><feComposite in="composite1" in2="SourceGraphic" k1="1" operator="arithmetic" k3="1" result="composite2" id="feComposite182" /></filter></defs><g id="surface1" style="filter:url(#filter184)"><path style=" stroke:none;fill-rule:nonzero;fill:url(#linear0);" d="M 20.90625 9.238281 L 4.136719 29.527344 L 8.925781 32.425781 L 20.90625 17.933594 L 25.695312 29.527344 L 30.484375 26.628906 Z M 44.859375 9.238281 L 35.277344 26.628906 L 40.066406 29.527344 L 44.859375 17.933594 L 56.835938 32.425781 L 61.625 29.527344 Z M 4.136719 38.222656 C 4.136719 38.222656 11.324219 52.710938 18.507812 52.710938 C 25.695312 52.710938 32.882812 46.914062 32.882812 46.914062 C 32.882812 46.914062 40.066406 52.710938 47.253906 52.710938 C 54.4375 52.710938 61.625 38.222656 61.625 38.222656 L 56.835938 38.222656 C 56.835938 38.222656 52.042969 46.914062 47.253906 46.914062 C 42.941406 46.914062 35.277344 41.117188 35.277344 41.117188 L 30.484375 41.117188 C 30.484375 41.117188 23.300781 46.914062 18.507812 46.914062 C 13.71875 46.914062 8.925781 38.222656 8.925781 38.222656 Z M 4.136719 38.222656 "/></g></svg>
