<svg width="64" height="64" viewBox="0 0 64 64" version="1.1" xmlns:inkscape="http://www.inkscape.org/namespaces/inkscape"><defs><linearGradient id="linear0" gradientUnits="userSpaceOnUse" x1="0" y1="0" x2="0" y2="1" gradientTransform="matrix(56,0,0,35.898438,4,14.050781)"><stop offset="0" style="stop-color:rgb(0%,96.078432%,86.274511%);stop-opacity:1;"/><stop offset="1" style="stop-color:rgb(0%,54.901963%,49.411765%);stop-opacity:1;"/></linearGradient><filter style="color-interpolation-filters:sRGB;" inkscape:label="Diffuse Light" id="filter184" x="-0.0375" y="-0.0375" width="1.075" height="1.075"><feGaussianBlur in="SourceGraphic" stdDeviation="1" result="blur" id="feGaussianBlur174" /><feDiffuseLighting diffuseConstant="1" surfaceScale="10" lighting-color="rgb(255,255,255)" result="diffuse" id="feDiffuseLighting178"><feDistantLight elevation="8" azimuth="235" id="feDistantLight176" /></feDiffuseLighting><feComposite in="diffuse" in2="diffuse" operator="arithmetic" k1="1" result="composite1" id="feComposite180" /><feComposite in="composite1" in2="SourceGraphic" k1="1" operator="arithmetic" k3="1" result="composite2" id="feComposite182" /></filter></defs><g id="surface1" style="filter:url(#filter184)"><path style=" stroke:none;fill-rule:nonzero;fill:url(#linear0);" d="M 25.894531 10.660156 L 25.894531 18.035156 C 25.894531 18.035156 24.632812 21.15625 21.363281 25.410156 C 16.828125 25.410156 10.027344 15.578125 7.757812 5.746094 C 5.492188 18.035156 12.292969 27.867188 16.828125 30.328125 C 14.90625 32.742188 14.425781 32.933594 12.292969 35.242188 C 10.027344 37.699219 3.226562 37.699219 3.226562 42.617188 C 3.226562 44.332031 3.800781 46.035156 4.707031 47.53125 L 16.835938 47.53125 L 6.160156 49.460938 C 7.851562 51.253906 10.082031 52.4375 12.300781 52.4375 C 21.371094 52.4375 25.90625 49.980469 32.707031 49.980469 C 41.773438 49.980469 57.644531 57.351562 57.644531 57.351562 L 50.84375 45.0625 L 57.644531 40.148438 L 50.84375 35.230469 C 50.84375 35.230469 57.644531 22.941406 57.644531 15.566406 C 53.109375 18.023438 44.042969 20.480469 44.042969 20.480469 L 44.042969 10.648438 L 30.441406 18.023438 Z M 19.09375 30.328125 L 25.894531 30.328125 L 25.894531 32.785156 L 23.628906 32.785156 L 23.628906 40.160156 L 21.363281 40.160156 L 21.363281 32.785156 L 19.09375 32.785156 Z M 19.09375 30.328125 "/></g></svg>
