<svg width="64" height="64" viewBox="0 0 64 64" version="1.1" xmlns:inkscape="http://www.inkscape.org/namespaces/inkscape"><defs><linearGradient id="linear0" gradientUnits="userSpaceOnUse" x1="0" y1="0" x2="0" y2="1" gradientTransform="matrix(56,0,0,35.898438,4,14.050781)"><stop offset="0" style="stop-color:rgb(92.941177%,83.529413%,72.549021%);stop-opacity:1;"/><stop offset="1" style="stop-color:rgb(81.960785%,71.372551%,59.215689%);stop-opacity:1;"/></linearGradient><filter style="color-interpolation-filters:sRGB;" inkscape:label="Diffuse Light" id="filter184" x="-0.0375" y="-0.0375" width="1.075" height="1.075"><feGaussianBlur in="SourceGraphic" stdDeviation="1" result="blur" id="feGaussianBlur174" /><feDiffuseLighting diffuseConstant="1" surfaceScale="10" lighting-color="rgb(255,255,255)" result="diffuse" id="feDiffuseLighting178"><feDistantLight elevation="8" azimuth="235" id="feDistantLight176" /></feDiffuseLighting><feComposite in="diffuse" in2="diffuse" operator="arithmetic" k1="1" result="composite1" id="feComposite180" /><feComposite in="composite1" in2="SourceGraphic" k1="1" operator="arithmetic" k3="1" result="composite2" id="feComposite182" /></filter></defs><g id="surface1" style="filter:url(#filter184)"><path style=" stroke:none;fill-rule:nonzero;fill:url(#linear0);" d="M 19.800781 7.261719 C 13.648438 7.261719 12.050781 8.738281 9.550781 10.101562 C 5.398438 12.363281 1.347656 18.609375 1.347656 27.121094 C 1.347656 35.386719 3.398438 44.144531 7.5 46.980469 C 17.023438 53.570312 28.003906 44.144531 32.105469 44.144531 C 36.203125 44.144531 47.183594 53.570312 56.707031 46.980469 C 60.808594 44.144531 62.859375 35.386719 62.859375 27.121094 C 62.859375 18.609375 58.808594 12.363281 54.660156 10.101562 C 52.15625 8.738281 50.558594 7.261719 44.40625 7.261719 C 38.542969 7.261719 33.386719 10.101562 32.105469 10.101562 C 30.824219 10.101562 25.664062 7.261719 19.800781 7.261719 Z M 19.800781 18.609375 C 28.054688 18.609375 28.003906 24.285156 28.003906 27.121094 C 28.003906 38.46875 23.964844 38.46875 17.75 38.46875 C 11.664062 38.46875 9.550781 35.632812 9.550781 29.960938 C 9.550781 24.285156 11.652344 18.609375 19.800781 18.609375 Z M 44.40625 18.609375 C 52.554688 18.609375 54.660156 24.285156 54.660156 29.960938 C 54.660156 35.632812 52.542969 38.46875 46.457031 38.46875 C 40.242188 38.46875 36.203125 38.46875 36.203125 27.121094 C 36.203125 24.285156 36.152344 18.609375 44.40625 18.609375 Z M 44.40625 18.609375 "/></g></svg>
