<svg width="64" height="64" viewBox="0 0 64 64" version="1.1" xmlns:inkscape="http://www.inkscape.org/namespaces/inkscape"><defs><linearGradient id="linear0" gradientUnits="userSpaceOnUse" x1="0" y1="0" x2="0" y2="1" gradientTransform="matrix(56,0,0,35.898438,4,14.050781)"><stop offset="0" style="stop-color:rgb(81.960785%,70.980394%,59.215689%);stop-opacity:1;"/><stop offset="1" style="stop-color:rgb(65.098041%,53.725493%,41.568628%);stop-opacity:1;"/></linearGradient><filter style="color-interpolation-filters:sRGB;" inkscape:label="Diffuse Light" id="filter184" x="-0.0375" y="-0.0375" width="1.075" height="1.075"><feGaussianBlur in="SourceGraphic" stdDeviation="1" result="blur" id="feGaussianBlur174" /><feDiffuseLighting diffuseConstant="1" surfaceScale="10" lighting-color="rgb(255,255,255)" result="diffuse" id="feDiffuseLighting178"><feDistantLight elevation="8" azimuth="235" id="feDistantLight176" /></feDiffuseLighting><feComposite in="diffuse" in2="diffuse" operator="arithmetic" k1="1" result="composite1" id="feComposite180" /><feComposite in="composite1" in2="SourceGraphic" k1="1" operator="arithmetic" k3="1" result="composite2" id="feComposite182" /></filter></defs><g id="surface1" style="filter:url(#filter184)"><path style=" stroke:none;fill-rule:nonzero;fill:url(#linear0);" d="M 32.636719 3.761719 L 61.578125 15.847656 L 61.578125 18.261719 L 3.695312 18.261719 L 3.695312 15.847656 Z M 10.929688 20.679688 L 18.164062 20.679688 L 18.164062 49.683594 L 10.929688 49.683594 Z M 22.988281 20.679688 L 30.222656 20.679688 L 30.222656 49.683594 L 22.988281 49.683594 Z M 35.046875 20.679688 L 42.28125 20.679688 L 42.28125 49.683594 L 35.046875 49.683594 Z M 47.105469 20.679688 L 54.339844 20.679688 L 54.339844 49.683594 L 47.105469 49.683594 Z M 3.695312 61.765625 L 3.695312 59.351562 L 8.519531 52.101562 L 56.753906 52.101562 L 61.578125 59.351562 L 61.578125 61.765625 Z M 3.695312 61.765625 "/></g></svg>
