<svg width="64" height="64" viewBox="0 0 64 64" version="1.1" xmlns:inkscape="http://www.inkscape.org/namespaces/inkscape"><defs><linearGradient id="linear0" gradientUnits="userSpaceOnUse" x1="0" y1="0" x2="0" y2="1" gradientTransform="matrix(56,0,0,35.898438,4,14.050781)"><stop offset="0" style="stop-color:rgb(41.960785%,64.313728%,100%);stop-opacity:1;"/><stop offset="1" style="stop-color:rgb(0%,43.137255%,100%);stop-opacity:1;"/></linearGradient><filter style="color-interpolation-filters:sRGB;" inkscape:label="Diffuse Light" id="filter184" x="-0.0375" y="-0.0375" width="1.075" height="1.075"><feGaussianBlur in="SourceGraphic" stdDeviation="1" result="blur" id="feGaussianBlur174" /><feDiffuseLighting diffuseConstant="1" surfaceScale="10" lighting-color="rgb(255,255,255)" result="diffuse" id="feDiffuseLighting178"><feDistantLight elevation="8" azimuth="235" id="feDistantLight176" /></feDiffuseLighting><feComposite in="diffuse" in2="diffuse" operator="arithmetic" k1="1" result="composite1" id="feComposite180" /><feComposite in="composite1" in2="SourceGraphic" k1="1" operator="arithmetic" k3="1" result="composite2" id="feComposite182" /></filter></defs><g id="surface1" style="filter:url(#filter184)"><path style=" stroke:none;fill-rule:nonzero;fill:url(#linear0);" d="M 31.953125 2.765625 C 27.019531 2.890625 22.199219 4.34375 17.929688 6.992188 L 27.734375 25.230469 C 29.226562 24.300781 30.914062 23.8125 32.636719 23.808594 C 34.359375 23.808594 36.050781 24.300781 37.539062 25.226562 L 47.34375 7.007812 C 42.671875 4.113281 37.347656 2.648438 31.953125 2.78125 Z M 32.644531 28.003906 C 29.398438 28.003906 26.761719 30.832031 26.761719 34.316406 C 26.761719 37.800781 29.398438 40.625 32.644531 40.625 C 35.894531 40.625 38.527344 37.800781 38.527344 34.316406 C 38.527344 30.832031 35.894531 28.003906 32.644531 28.003906 Z M 3.230469 34.316406 C 3.226562 45.597656 8.832031 56.023438 17.9375 61.660156 L 27.742188 43.445312 C 24.710938 41.566406 22.839844 38.09375 22.839844 34.335938 L 3.230469 34.335938 Z M 42.449219 34.316406 C 42.441406 38.066406 40.574219 41.527344 37.546875 43.402344 L 47.351562 61.640625 C 56.460938 56 62.066406 45.574219 62.058594 34.296875 L 42.449219 34.296875 Z M 42.449219 34.316406 "/></g></svg>
