<svg width="64" height="64" viewBox="0 0 64 64" version="1.1" xmlns:inkscape="http://www.inkscape.org/namespaces/inkscape"><defs><linearGradient id="linear0" gradientUnits="userSpaceOnUse" x1="0" y1="0" x2="0" y2="1" gradientTransform="matrix(56,0,0,35.898438,4,14.050781)"><stop offset="0" style="stop-color:rgb(0%,78.823531%,36.862746%);stop-opacity:1;"/><stop offset="1" style="stop-color:rgb(0%,54.11765%,25.098041%);stop-opacity:1;"/></linearGradient><filter style="color-interpolation-filters:sRGB;" inkscape:label="Diffuse Light" id="filter184" x="-0.0375" y="-0.0375" width="1.075" height="1.075"><feGaussianBlur in="SourceGraphic" stdDeviation="1" result="blur" id="feGaussianBlur174" /><feDiffuseLighting diffuseConstant="1" surfaceScale="10" lighting-color="rgb(255,255,255)" result="diffuse" id="feDiffuseLighting178"><feDistantLight elevation="8" azimuth="235" id="feDistantLight176" /></feDiffuseLighting><feComposite in="diffuse" in2="diffuse" operator="arithmetic" k1="1" result="composite1" id="feComposite180" /><feComposite in="composite1" in2="SourceGraphic" k1="1" operator="arithmetic" k3="1" result="composite2" id="feComposite182" /></filter></defs><g id="surface1" style="filter:url(#filter184)"><path style=" stroke:none;fill-rule:nonzero;fill:url(#linear0);" d="M 22.457031 3.085938 L 17.066406 6.84375 L 30.542969 27.507812 Z M 24.535156 3.085938 L 31.441406 27.507812 L 31.441406 3.085938 Z M 33.238281 3.085938 L 33.238281 27.507812 L 40.421875 3.085938 Z M 42.21875 3.085938 L 34.136719 27.507812 L 47.609375 6.84375 Z M 15.269531 8.722656 L 10.234375 13.4375 L 29.78125 28.777344 Z M 49.40625 8.722656 L 35.175781 28.777344 L 54.722656 13.4375 Z M 55.472656 14.515625 L 35.933594 29.386719 L 57.691406 21.664062 Z M 9.484375 14.519531 L 7.261719 21.664062 L 29.476562 29.210938 Z M 6.707031 23.449219 L 4.488281 31.265625 L 29.644531 31.265625 Z M 58.25 23.449219 L 35.035156 31.265625 L 60.1875 31.265625 Z M 4.488281 33.144531 L 6.285156 39.71875 L 27.847656 33.144531 Z M 36.832031 33.144531 L 58.390625 39.71875 L 60.1875 33.144531 Z M 29.476562 33.320312 L 7.265625 40.867188 L 9.484375 48.015625 Z M 35.480469 33.320312 L 55.472656 48.011719 L 57.695312 40.867188 Z M 29.78125 33.753906 L 10.234375 49.09375 L 15.269531 53.808594 Z M 35.175781 33.753906 L 48.90625 53.511719 L 54.722656 49.09375 Z M 30.542969 35.023438 L 17.503906 54.617188 L 23.320312 59.035156 Z M 31.441406 35.023438 L 24.535156 59.445312 L 31.441406 59.445312 Z M 33.238281 35.023438 L 33.238281 59.445312 L 40.421875 59.445312 Z M 34.136719 35.023438 L 41.636719 59.027344 L 47.453125 54.613281 Z M 34.136719 35.023438 "/></g></svg>
