<svg width="64" height="64" viewBox="0 0 64 64" version="1.1" xmlns:inkscape="http://www.inkscape.org/namespaces/inkscape"><defs><linearGradient id="linear0" gradientUnits="userSpaceOnUse" x1="0" y1="0" x2="0" y2="1" gradientTransform="matrix(56,0,0,35.898438,4,14.050781)"><stop offset="0" style="stop-color:rgb(61.176473%,69.803923%,85.09804%);stop-opacity:1;"/><stop offset="1" style="stop-color:rgb(44.313726%,52.156866%,65.882355%);stop-opacity:1;"/></linearGradient><filter style="color-interpolation-filters:sRGB;" inkscape:label="Diffuse Light" id="filter184" x="-0.0375" y="-0.0375" width="1.075" height="1.075"><feGaussianBlur in="SourceGraphic" stdDeviation="1" result="blur" id="feGaussianBlur174" /><feDiffuseLighting diffuseConstant="1" surfaceScale="10" lighting-color="rgb(255,255,255)" result="diffuse" id="feDiffuseLighting178"><feDistantLight elevation="8" azimuth="235" id="feDistantLight176" /></feDiffuseLighting><feComposite in="diffuse" in2="diffuse" operator="arithmetic" k1="1" result="composite1" id="feComposite180" /><feComposite in="composite1" in2="SourceGraphic" k1="1" operator="arithmetic" k3="1" result="composite2" id="feComposite182" /></filter></defs><g id="surface1" style="filter:url(#filter184)"><path style=" stroke:none;fill-rule:nonzero;fill:url(#linear0);" d="M 1.425781 13.132812 L 1.425781 25.980469 L 10.511719 25.980469 L 10.511719 58.101562 L 21.867188 58.101562 L 21.867188 25.980469 L 28.679688 25.980469 L 28.679688 58.101562 L 40.035156 58.101562 L 40.035156 45.253906 C 40.941406 45.253906 41.765625 45.210938 42.578125 45.164062 L 49.117188 58.109375 L 60.472656 58.109375 L 52.640625 42.597656 C 58.179688 39.289062 58.203125 33.507812 58.203125 29.203125 C 58.203125 22.777344 58.203125 13.144531 40.035156 13.144531 L 1.425781 13.144531 Z M 40.035156 25.980469 L 44.578125 25.980469 C 49.117188 25.980469 49.117188 32.40625 44.578125 32.40625 L 40.035156 32.40625 Z M 40.035156 25.980469 "/></g></svg>
