<svg width="64" height="64" viewBox="0 0 64 64" version="1.1" xmlns:inkscape="http://www.inkscape.org/namespaces/inkscape"><defs><linearGradient id="linear0" gradientUnits="userSpaceOnUse" x1="0" y1="0" x2="0" y2="1" gradientTransform="matrix(56,0,0,35.898438,4,14.050781)"><stop offset="0" style="stop-color:rgb(87.058824%,86.666667%,56.470591%);stop-opacity:1;"/><stop offset="1" style="stop-color:rgb(67.843139%,67.450982%,38.039216%);stop-opacity:1;"/></linearGradient><filter style="color-interpolation-filters:sRGB;" inkscape:label="Diffuse Light" id="filter184" x="-0.0375" y="-0.0375" width="1.075" height="1.075"><feGaussianBlur in="SourceGraphic" stdDeviation="1" result="blur" id="feGaussianBlur174" /><feDiffuseLighting diffuseConstant="1" surfaceScale="10" lighting-color="rgb(255,255,255)" result="diffuse" id="feDiffuseLighting178"><feDistantLight elevation="8" azimuth="235" id="feDistantLight176" /></feDiffuseLighting><feComposite in="diffuse" in2="diffuse" operator="arithmetic" k1="1" result="composite1" id="feComposite180" /><feComposite in="composite1" in2="SourceGraphic" k1="1" operator="arithmetic" k3="1" result="composite2" id="feComposite182" /></filter></defs><g id="surface1" style="filter:url(#filter184)"><path style=" stroke:none;fill-rule:nonzero;fill:url(#linear0);" d="M 2.683594 2.371094 L 2.683594 17.621094 L 7.558594 22.703125 L 2.683594 20.160156 L 5.121094 22.703125 L 2.683594 21.433594 L 2.683594 27.785156 L 5.121094 30.328125 L 17.3125 17.621094 Z M 61.199219 2.371094 L 19.75 45.578125 L 31.941406 58.285156 L 61.199219 27.785156 L 61.199219 15.917969 L 56.324219 20.160156 L 58.761719 16.578125 L 56.324219 17.613281 L 61.199219 12.53125 Z M 31.941406 4.914062 L 2.683594 35.410156 L 2.683594 37.953125 L 12.433594 30.328125 L 2.683594 40.492188 L 7.558594 37.953125 L 2.683594 43.035156 L 2.683594 60.824219 L 44.132812 17.621094 L 40.472656 13.808594 L 36.816406 17.621094 L 39.253906 12.539062 L 36.816406 15.078125 L 38.441406 11.699219 L 37.792969 11.023438 L 31.941406 15.089844 L 36.816406 10.007812 Z M 58.761719 32.871094 L 46.570312 45.578125 L 61.199219 60.824219 L 61.199219 55.742188 L 56.324219 50.660156 L 61.199219 53.203125 L 58.761719 50.660156 L 61.199219 51.929688 L 61.199219 35.410156 Z M 58.761719 32.871094 "/></g></svg>
