<svg xmlns="http://www.w3.org/2000/svg" xmlns:xlink="http://www.w3.org/1999/xlink" width="64" height="64" viewBox="0 0 64 64" version="1.1"><defs><filter id="alpha" filterUnits="objectBoundingBox" x="0%" y="0%" width="100%" height="100%"> <feColorMatrix type="matrix" in="SourceGraphic" values="0 0 0 0 1 0 0 0 0 1 0 0 0 0 1 0 0 0 1 0"/></filter><mask id="mask0"><rect x="0" y="0" width="64" height="64" style="fill:rgb(0%,0%,0%);fill-opacity:0.99;stroke:none;"/></mask><clipPath id="clip1"> <rect x="0" y="0" width="64" height="64"/></clipPath><path style=" stroke:none;fill-rule:nonzero;fill:rgb(70.588237%,55.686277%,67.843139%);fill-opacity:1;" d="M 62.9375 32.625 C 62.9375 49.757812 49.046875 63.648438 31.914062 63.648438 C 14.78125 63.648438 0.890625 49.757812 0.890625 32.625 C 0.890625 15.492188 14.78125 1.601562 31.914062 1.601562 C 49.046875 1.601562 62.9375 15.492188 62.9375 32.625 Z M 62.9375 32.625 "/></defs><use xlink:href="#surface5" mask="url(#mask0)"/><path style=" stroke:none;fill-rule:nonzero;fill:rgb(57.647061%,55.29412%,74.901962%);fill-opacity:1;" d="M 44.800781 35.398438 C 44.800781 37.988281 42.855469 40.085938 40.457031 40.085938 C 38.054688 40.085938 36.113281 37.988281 36.113281 35.398438 C 36.113281 32.8125 38.054688 30.714844 40.457031 30.714844 C 42.855469 30.714844 44.800781 32.8125 44.800781 35.398438 Z M 44.800781 35.398438 "/><path style=" stroke:none;fill-rule:evenodd;fill:rgb(100%,100%,100%);fill-opacity:1;" d="M 17.367188 28.078125 L 19.386719 28.078125 L 19.378906 27.535156 L 17.367188 27.535156 L 17.367188 28.078125 M 43.667969 14.460938 L 43.667969 11.917969 L 49.742188 11.917969 L 49.742188 27.535156 L 42.789062 27.535156 C 42.414062 27.535156 42.035156 27.460938 41.652344 27.316406 L 41.652344 27.535156 L 29.640625 27.535156 L 29.640625 28.078125 L 30.515625 28.078125 L 31.242188 28.160156 C 31.65625 28.257812 32.046875 28.4375 32.410156 28.699219 L 32.601562 28.859375 L 32.789062 28.707031 C 33.351562 28.285156 33.984375 28.078125 34.691406 28.078125 L 38.617188 28.078125 C 39.3125 28.078125 39.9375 28.28125 40.5 28.695312 L 40.707031 28.859375 L 40.894531 28.707031 C 41.460938 28.285156 42.09375 28.078125 42.796875 28.078125 L 54.28125 28.078125 L 54.28125 28.71875 L 58.183594 28.71875 L 58.183594 38.664062 C 58.183594 39.535156 57.800781 40.234375 57.039062 40.773438 C 56.445312 41.1875 55.8125 41.398438 55.152344 41.398438 L 51.230469 41.398438 C 50.589844 41.398438 49.980469 41.199219 49.394531 40.800781 L 49.363281 40.777344 C 48.988281 40.507812 48.691406 40.136719 48.476562 39.667969 C 48.292969 39.253906 48.199219 38.84375 48.199219 38.429688 L 48.199219 36.710938 L 45.84375 36.710938 L 45.84375 40.207031 C 45.941406 40.265625 46.023438 40.320312 46.089844 40.371094 C 46.847656 40.917969 47.226562 41.625 47.226562 42.492188 L 47.226562 50.097656 C 47.226562 50.96875 46.851562 51.667969 46.097656 52.191406 C 45.507812 52.613281 44.878906 52.824219 44.203125 52.824219 L 40.269531 52.824219 C 39.605469 52.824219 38.980469 52.617188 38.390625 52.203125 L 38.191406 52.039062 L 37.996094 52.191406 C 37.410156 52.613281 36.777344 52.824219 36.101562 52.824219 L 32.183594 52.824219 C 31.535156 52.824219 30.921875 52.625 30.34375 52.226562 L 30.316406 52.210938 L 29.84375 51.796875 C 29.695312 51.960938 29.546875 52.089844 29.390625 52.191406 C 28.804688 52.613281 28.171875 52.824219 27.496094 52.824219 L 23.570312 52.824219 C 23.175781 52.824219 22.792969 52.75 22.429688 52.597656 L 22.429688 52.824219 L 15.476562 52.824219 C 14.800781 52.824219 14.171875 52.617188 13.59375 52.203125 C 12.832031 51.675781 12.449219 50.972656 12.449219 50.097656 L 12.449219 46.277344 C 12.449219 46.128906 12.464844 45.984375 12.492188 45.839844 L 12.449219 45.839844 L 12.449219 42.492188 C 12.449219 41.625 12.824219 40.921875 13.570312 40.378906 C 14.140625 39.960938 14.777344 39.75 15.476562 39.75 L 15.835938 39.75 C 15.625 39.304688 15.519531 38.867188 15.519531 38.429688 L 15.519531 34.167969 L 14.730469 34.167969 L 14.730469 30.671875 L 14.339844 30.695312 L 7.382812 30.695312 L 7.382812 25.238281 L 7.429688 25.238281 L 7.382812 24.808594 L 7.382812 17.210938 C 7.382812 16.335938 7.757812 15.625 8.507812 15.085938 C 9.070312 14.667969 9.707031 14.460938 10.410156 14.460938 L 22.429688 14.460938 C 23.140625 14.460938 23.765625 14.664062 24.3125 15.074219 L 24.519531 15.238281 L 24.695312 15.085938 C 25.265625 14.667969 25.898438 14.460938 26.597656 14.460938 L 30.527344 14.460938 C 30.925781 14.460938 31.304688 14.53125 31.664062 14.671875 L 31.664062 14.460938 L 37.746094 14.460938 L 37.746094 14.515625 L 38.621094 14.460938 C 39.328125 14.460938 39.957031 14.664062 40.503906 15.074219 L 40.707031 15.238281 L 40.886719 15.085938 C 41.457031 14.667969 42.089844 14.460938 42.789062 14.460938 L 43.667969 14.460938 "/><path style=" stroke:none;fill-rule:evenodd;fill:rgb(70.588237%,55.686277%,67.843139%);fill-opacity:1;" d="M 45.132812 13.390625 L 45.132812 15.925781 L 42.789062 15.925781 C 42.414062 15.925781 42.070312 16.039062 41.761719 16.269531 C 41.40625 16.519531 41.230469 16.835938 41.230469 17.210938 L 41.230469 24.808594 C 41.230469 25.175781 41.402344 25.472656 41.742188 25.703125 C 42.082031 25.945312 42.433594 26.070312 42.789062 26.070312 L 48.28125 26.070312 L 48.28125 13.390625 Z M 10.410156 15.925781 C 10.03125 15.925781 9.6875 16.039062 9.378906 16.269531 C 9.019531 16.519531 8.84375 16.835938 8.84375 17.210938 L 8.84375 24.808594 C 8.84375 25.171875 9.015625 25.46875 9.359375 25.703125 C 9.699219 25.945312 10.050781 26.070312 10.410156 26.070312 L 12.75 26.070312 L 12.75 26.710938 L 8.84375 26.710938 L 8.84375 29.230469 L 14.339844 29.230469 C 14.675781 29.230469 15.007812 29.117188 15.339844 28.894531 C 15.714844 28.621094 15.902344 28.316406 15.902344 27.972656 L 15.902344 15.925781 Z M 16.941406 15.925781 L 16.941406 26.070312 L 20.085938 26.070312 L 20.085938 22.265625 L 20.851562 22.265625 L 20.851562 27.972656 C 20.851562 28.320312 21.035156 28.625 21.402344 28.894531 C 21.742188 29.117188 22.085938 29.230469 22.429688 29.230469 L 25.03125 29.230469 L 25.03125 39.925781 L 28.175781 39.925781 L 28.175781 32.085938 L 28.933594 32.085938 L 28.933594 39.925781 L 32.082031 39.925781 L 32.082031 30.824219 C 32.082031 30.457031 31.902344 30.140625 31.546875 29.882812 C 31.351562 29.742188 31.140625 29.644531 30.917969 29.589844 L 30.515625 29.546875 L 28.175781 29.546875 L 28.175781 26.710938 L 23.996094 26.710938 L 23.996094 21.625 C 23.996094 21.4375 23.914062 21.285156 23.746094 21.171875 C 23.570312 21.066406 23.394531 21.003906 23.214844 20.988281 C 23.398438 20.988281 23.574219 20.929688 23.746094 20.808594 C 23.914062 20.710938 23.996094 20.5625 23.996094 20.363281 L 23.996094 17.210938 C 23.996094 16.835938 23.816406 16.519531 23.457031 16.269531 C 23.15625 16.039062 22.8125 15.925781 22.429688 15.925781 Z M 26.597656 15.925781 C 26.21875 15.925781 25.878906 16.039062 25.574219 16.269531 C 25.21875 16.519531 25.042969 16.835938 25.042969 17.210938 L 25.042969 19.089844 L 28.179688 19.089844 L 28.179688 18.46875 L 28.9375 18.46875 L 28.9375 19.730469 L 26.597656 19.730469 C 26.25 19.730469 25.914062 19.847656 25.589844 20.089844 C 25.222656 20.355469 25.042969 20.65625 25.042969 20.988281 L 25.042969 24.808594 C 25.042969 25.175781 25.214844 25.472656 25.554688 25.703125 C 25.890625 25.945312 26.238281 26.070312 26.597656 26.070312 L 32.09375 26.070312 L 32.09375 17.210938 C 32.09375 16.835938 31.914062 16.519531 31.558594 16.269531 C 31.246094 16.039062 30.90625 15.925781 30.527344 15.925781 Z M 33.128906 15.925781 L 33.128906 26.070312 L 36.277344 26.070312 L 36.277344 18.46875 L 37.039062 18.46875 L 37.039062 26.070312 L 40.183594 26.070312 L 40.183594 17.210938 C 40.183594 16.835938 40.003906 16.519531 39.644531 16.269531 C 39.34375 16.039062 39.003906 15.925781 38.621094 15.925781 C 37.585938 15.925781 36.804688 16.140625 36.277344 16.566406 L 36.277344 15.925781 Z M 11.996094 18.46875 L 12.75 18.46875 L 12.75 23.550781 L 11.996094 23.550781 Z M 20.085938 18.46875 L 20.851562 18.46875 L 20.851562 19.730469 L 20.085938 19.730469 Z M 44.367188 18.46875 L 45.132812 18.46875 L 45.132812 23.550781 L 44.367188 23.550781 Z M 28.179688 22.265625 L 28.9375 22.265625 L 28.9375 23.550781 L 28.179688 23.550781 Z M 16.984375 29.546875 L 16.984375 30.183594 L 16.199219 30.183594 L 16.199219 32.703125 L 16.984375 32.703125 L 16.984375 38.429688 C 16.984375 38.621094 17.03125 38.828125 17.125 39.050781 C 17.230469 39.285156 17.367188 39.464844 17.535156 39.589844 C 17.867188 39.816406 18.203125 39.925781 18.550781 39.925781 L 22.46875 39.925781 C 22.820312 39.925781 23.171875 39.808594 23.519531 39.574219 C 23.863281 39.328125 24.035156 38.949219 24.035156 38.429688 L 24.035156 33.34375 L 20.910156 33.34375 L 20.910156 37.164062 L 20.121094 37.164062 L 20.121094 32.703125 L 24.035156 32.703125 L 24.035156 30.183594 L 20.121094 30.183594 L 20.121094 29.546875 Z M 34.691406 29.546875 C 34.308594 29.546875 33.964844 29.660156 33.660156 29.882812 C 33.300781 30.140625 33.125 30.457031 33.125 30.824219 L 33.125 38.429688 C 33.125 38.945312 33.292969 39.324219 33.636719 39.574219 C 33.980469 39.808594 34.332031 39.925781 34.691406 39.925781 L 38.617188 39.925781 C 38.972656 39.925781 39.320312 39.808594 39.660156 39.574219 C 40.003906 39.328125 40.175781 38.949219 40.175781 38.429688 L 40.175781 36.523438 L 37.035156 36.523438 L 37.035156 37.164062 L 36.273438 37.164062 L 36.273438 35.882812 L 40.175781 35.882812 L 40.175781 30.824219 C 40.175781 30.457031 39.996094 30.140625 39.640625 29.882812 C 39.335938 29.660156 38.992188 29.546875 38.617188 29.546875 Z M 42.792969 29.546875 C 42.417969 29.546875 42.074219 29.660156 41.765625 29.882812 C 41.414062 30.136719 41.234375 30.453125 41.234375 30.824219 L 41.234375 39.925781 L 44.378906 39.925781 L 44.378906 35.246094 L 48.285156 35.246094 L 48.285156 32.703125 L 44.378906 32.703125 L 44.378906 32.085938 L 48.285156 32.085938 L 48.285156 29.546875 Z M 49.664062 29.546875 L 49.664062 30.183594 L 48.882812 30.183594 L 48.882812 32.703125 L 49.664062 32.703125 L 49.664062 38.429688 C 49.664062 38.621094 49.714844 38.828125 49.808594 39.050781 C 49.914062 39.285156 50.050781 39.464844 50.21875 39.589844 C 50.554688 39.816406 50.894531 39.925781 51.230469 39.925781 L 55.152344 39.925781 C 55.511719 39.925781 55.859375 39.808594 56.199219 39.574219 C 56.542969 39.328125 56.714844 39.027344 56.714844 38.667969 L 56.714844 33.34375 L 53.589844 33.34375 L 53.589844 37.164062 L 52.808594 37.164062 L 52.808594 32.703125 L 56.714844 32.703125 L 56.714844 30.183594 L 52.808594 30.183594 L 52.808594 29.546875 Z M 36.273438 32.085938 L 37.035156 32.085938 L 37.035156 33.34375 L 36.273438 33.34375 Z M 15.476562 41.214844 C 15.101562 41.214844 14.753906 41.328125 14.445312 41.558594 C 14.09375 41.8125 13.917969 42.125 13.917969 42.492188 L 13.917969 44.375 L 17.054688 44.375 L 17.054688 43.757812 L 17.824219 43.757812 L 17.824219 45.019531 L 15.476562 45.019531 C 15.136719 45.019531 14.796875 45.136719 14.464844 45.378906 C 14.097656 45.640625 13.917969 45.9375 13.917969 46.277344 L 13.917969 50.097656 C 13.917969 50.460938 14.089844 50.761719 14.429688 50.996094 C 14.777344 51.238281 15.128906 51.355469 15.476562 51.355469 L 20.96875 51.355469 L 20.96875 42.492188 C 20.96875 42.132812 20.789062 41.820312 20.425781 41.558594 C 20.121094 41.328125 19.78125 41.214844 19.402344 41.214844 Z M 22.011719 41.214844 L 22.011719 50.097656 C 22.011719 50.457031 22.179688 50.757812 22.515625 50.996094 C 22.863281 51.238281 23.21875 51.355469 23.570312 51.355469 L 27.496094 51.355469 C 27.851562 51.355469 28.199219 51.238281 28.550781 50.996094 C 28.886719 50.757812 29.058594 50.457031 29.058594 50.097656 L 29.058594 41.214844 L 25.914062 41.214844 L 25.914062 48.839844 L 25.152344 48.839844 L 25.152344 41.214844 Z M 30.617188 41.214844 L 30.617188 41.855469 L 29.839844 41.855469 L 29.839844 44.375 L 30.617188 44.375 L 30.617188 50.097656 C 30.617188 50.445312 30.800781 50.753906 31.167969 51.015625 C 31.507812 51.242188 31.84375 51.355469 32.183594 51.355469 L 36.101562 51.355469 C 36.453125 51.355469 36.808594 51.238281 37.15625 50.996094 C 37.496094 50.757812 37.667969 50.457031 37.667969 50.097656 L 37.667969 45.019531 L 34.550781 45.019531 L 34.550781 48.839844 L 33.761719 48.839844 L 33.761719 44.375 L 37.667969 44.375 L 37.667969 41.855469 L 33.761719 41.855469 L 33.761719 41.214844 Z M 40.269531 41.214844 C 39.894531 41.214844 39.550781 41.328125 39.246094 41.558594 C 38.890625 41.8125 38.714844 42.125 38.714844 42.492188 L 38.714844 50.097656 C 38.714844 50.460938 38.886719 50.761719 39.230469 50.996094 C 39.574219 51.238281 39.921875 51.355469 40.269531 51.355469 L 44.203125 51.355469 C 44.554688 51.355469 44.90625 51.238281 45.25 50.996094 C 45.59375 50.757812 45.769531 50.457031 45.769531 50.097656 L 45.769531 42.492188 C 45.769531 42.128906 45.589844 41.816406 45.230469 41.558594 C 44.925781 41.328125 44.582031 41.214844 44.203125 41.214844 Z M 41.859375 43.757812 L 42.621094 43.757812 L 42.621094 48.839844 L 41.859375 48.839844 Z M 17.054688 47.554688 L 17.824219 47.554688 L 17.824219 48.839844 L 17.054688 48.839844 Z M 17.054688 47.554688 "/></svg>
