<svg width="64" height="64" viewBox="0 0 64 64" version="1.1" xmlns:inkscape="http://www.inkscape.org/namespaces/inkscape"><defs><linearGradient id="linear0" gradientUnits="userSpaceOnUse" x1="0" y1="0" x2="0" y2="1" gradientTransform="matrix(56,0,0,35.898438,4,14.050781)"><stop offset="0" style="stop-color:rgb(61.176473%,69.803923%,85.09804%);stop-opacity:1;"/><stop offset="1" style="stop-color:rgb(44.313726%,52.156866%,65.882355%);stop-opacity:1;"/></linearGradient><filter style="color-interpolation-filters:sRGB;" inkscape:label="Diffuse Light" id="filter184" x="-0.0375" y="-0.0375" width="1.075" height="1.075"><feGaussianBlur in="SourceGraphic" stdDeviation="1" result="blur" id="feGaussianBlur174" /><feDiffuseLighting diffuseConstant="1" surfaceScale="10" lighting-color="rgb(255,255,255)" result="diffuse" id="feDiffuseLighting178"><feDistantLight elevation="8" azimuth="235" id="feDistantLight176" /></feDiffuseLighting><feComposite in="diffuse" in2="diffuse" operator="arithmetic" k1="1" result="composite1" id="feComposite180" /><feComposite in="composite1" in2="SourceGraphic" k1="1" operator="arithmetic" k3="1" result="composite2" id="feComposite182" /></filter></defs><g id="surface1" style="filter:url(#filter184)"><path style=" stroke:none;fill-rule:nonzero;fill:url(#linear0);" d="M 12.554688 4.144531 C 7.261719 4.144531 3.003906 8.335938 3.003906 13.542969 L 3.003906 51.140625 C 3.003906 56.347656 7.261719 60.539062 12.554688 60.539062 L 50.769531 60.539062 C 56.0625 60.539062 60.324219 56.347656 60.324219 51.140625 L 60.324219 13.542969 C 60.324219 8.335938 56.0625 4.144531 50.769531 4.144531 Z M 7.78125 20.59375 L 12.554688 20.59375 L 19.722656 39.980469 L 26.886719 20.59375 L 31.664062 20.59375 L 31.664062 46.441406 L 26.886719 46.441406 L 26.886719 33.515625 L 22.109375 46.441406 L 17.332031 46.441406 L 12.554688 33.515625 L 12.554688 46.441406 L 7.78125 46.441406 Z M 45.992188 27.644531 C 50.34375 27.648438 54.140625 30.546875 55.230469 34.691406 L 50.121094 34.691406 C 49.269531 33.242188 47.695312 32.34375 45.992188 32.34375 C 43.355469 32.34375 41.214844 34.445312 41.214844 37.042969 C 41.214844 39.636719 43.355469 41.742188 45.992188 41.742188 C 47.699219 41.738281 49.273438 40.84375 50.125 39.390625 L 55.234375 39.390625 C 54.144531 43.539062 50.347656 46.4375 45.992188 46.441406 C 40.71875 46.441406 36.441406 42.230469 36.441406 37.042969 C 36.441406 31.851562 40.71875 27.644531 45.992188 27.644531 Z M 45.992188 27.644531 "/></g></svg>
