<svg width="64" height="64" viewBox="0 0 64 64" version="1.1" xmlns:inkscape="http://www.inkscape.org/namespaces/inkscape"><defs><linearGradient id="linear0" gradientUnits="userSpaceOnUse" x1="0" y1="0" x2="0" y2="1" gradientTransform="matrix(56,0,0,35.898438,4,14.050781)"><stop offset="0" style="stop-color:rgb(100%,63.137257%,63.137257%);stop-opacity:1;"/><stop offset="1" style="stop-color:rgb(100%,27.843139%,27.843139%);stop-opacity:1;"/></linearGradient><filter style="color-interpolation-filters:sRGB;" inkscape:label="Diffuse Light" id="filter184" x="-0.0375" y="-0.0375" width="1.075" height="1.075"><feGaussianBlur in="SourceGraphic" stdDeviation="1" result="blur" id="feGaussianBlur174" /><feDiffuseLighting diffuseConstant="1" surfaceScale="10" lighting-color="rgb(255,255,255)" result="diffuse" id="feDiffuseLighting178"><feDistantLight elevation="8" azimuth="235" id="feDistantLight176" /></feDiffuseLighting><feComposite in="diffuse" in2="diffuse" operator="arithmetic" k1="1" result="composite1" id="feComposite180" /><feComposite in="composite1" in2="SourceGraphic" k1="1" operator="arithmetic" k3="1" result="composite2" id="feComposite182" /></filter></defs><g id="surface1" style="filter:url(#filter184)"><path style=" stroke:none;fill-rule:nonzero;fill:url(#linear0);" d="M 35.605469 3.003906 C 33.984375 3.003906 32.355469 3.144531 30.734375 3.332031 L 35.605469 9.304688 L 33.3125 11.40625 L 42.476562 17.710938 L 24.148438 11.40625 L 28.730469 9.304688 L 20.785156 5.695312 C 17.25 6.976562 13.777344 8.675781 10.40625 10.882812 C 10.40625 10.882812 14.988281 24.011719 14.988281 33.992188 C 14.988281 43.96875 10.40625 57.097656 10.40625 57.097656 C 17 59.691406 23.972656 61.367188 31.023438 61.824219 C 31.023438 61.824219 33.3125 53.421875 33.3125 43.96875 C 33.3125 34.515625 31.023438 26.113281 31.023438 26.113281 C 26.441406 26.113281 24.148438 26.113281 19.566406 28.214844 L 19.566406 19.808594 L 51.640625 19.808594 L 51.640625 28.214844 C 47.058594 26.113281 44.765625 26.113281 40.183594 26.113281 C 40.183594 26.113281 37.894531 34.515625 37.894531 43.96875 C 37.894531 53.421875 40.183594 61.824219 40.183594 61.824219 C 47.234375 61.367188 54.207031 59.691406 60.800781 57.097656 C 60.800781 57.097656 56.21875 43.96875 56.21875 33.992188 C 56.21875 24.011719 60.800781 10.882812 60.800781 10.882812 C 52.785156 5.628906 44.195312 3.003906 35.605469 3.003906 Z M 35.605469 3.003906 "/></g></svg>
