<svg width="64" height="64" viewBox="0 0 64 64" version="1.1" xmlns:inkscape="http://www.inkscape.org/namespaces/inkscape"><defs><linearGradient id="linear0" gradientUnits="userSpaceOnUse" x1="0" y1="0" x2="0" y2="1" gradientTransform="matrix(56,0,0,35.898438,4,14.050781)"><stop offset="0" style="stop-color:rgb(61.176473%,69.803923%,85.09804%);stop-opacity:1;"/><stop offset="1" style="stop-color:rgb(44.313726%,52.156866%,65.882355%);stop-opacity:1;"/></linearGradient><filter style="color-interpolation-filters:sRGB;" inkscape:label="Diffuse Light" id="filter184" x="-0.0375" y="-0.0375" width="1.075" height="1.075"><feGaussianBlur in="SourceGraphic" stdDeviation="1" result="blur" id="feGaussianBlur174" /><feDiffuseLighting diffuseConstant="1" surfaceScale="10" lighting-color="rgb(255,255,255)" result="diffuse" id="feDiffuseLighting178"><feDistantLight elevation="8" azimuth="235" id="feDistantLight176" /></feDiffuseLighting><feComposite in="diffuse" in2="diffuse" operator="arithmetic" k1="1" result="composite1" id="feComposite180" /><feComposite in="composite1" in2="SourceGraphic" k1="1" operator="arithmetic" k3="1" result="composite2" id="feComposite182" /></filter></defs><g id="surface1" style="filter:url(#filter184)"><path style=" stroke:none;fill-rule:nonzero;fill:url(#linear0);" d="M 59.695312 51.078125 C 60.933594 51.078125 61.941406 50.078125 61.941406 48.839844 L 61.941406 12.863281 C 61.941406 11.625 60.933594 10.613281 59.695312 10.613281 L 50.699219 10.613281 C 49.460938 10.613281 48.453125 11.625 48.453125 12.863281 L 48.453125 48.839844 C 48.453125 50.078125 49.460938 51.078125 50.699219 51.078125 Z M 41.707031 51.078125 C 42.945312 51.078125 43.945312 50.078125 43.945312 48.839844 L 43.945312 12.863281 C 43.945312 11.625 42.945312 10.613281 41.707031 10.613281 C 34.960938 10.613281 28.21875 10.605469 21.472656 10.605469 C 10.296875 10.605469 1.234375 19.667969 1.234375 30.84375 C 1.234375 42.019531 10.296875 51.078125 21.472656 51.078125 Z M 41.707031 51.078125 "/></g></svg>
