<svg width="64" height="64" viewBox="0 0 64 64" version="1.1" xmlns:inkscape="http://www.inkscape.org/namespaces/inkscape"><defs><linearGradient id="linear0" gradientUnits="userSpaceOnUse" x1="0" y1="0" x2="0" y2="1" gradientTransform="matrix(59.92045,0,0,39.446917,1.374533,11.349896)"><stop offset="0" style="stop-color:rgb(41.960785%,64.313728%,100%);stop-opacity:1;"/><stop offset="1" style="stop-color:rgb(0%,43.137255%,100%);stop-opacity:1;"/></linearGradient><linearGradient id="linear1" gradientUnits="userSpaceOnUse" x1="0" y1="0" x2="0" y2="1" gradientTransform="matrix(59.92045,0,0,39.446917,1.374533,11.349896)"><stop offset="0" style="stop-color:rgb(41.960785%,64.313728%,100%);stop-opacity:1;"/><stop offset="1" style="stop-color:rgb(0%,43.137255%,100%);stop-opacity:1;"/></linearGradient><linearGradient id="linear2" gradientUnits="userSpaceOnUse" x1="0" y1="0" x2="0" y2="1" gradientTransform="matrix(59.92045,0,0,39.446917,1.374533,11.349896)"><stop offset="0" style="stop-color:rgb(41.960785%,64.313728%,100%);stop-opacity:1;"/><stop offset="1" style="stop-color:rgb(0%,43.137255%,100%);stop-opacity:1;"/></linearGradient><filter style="color-interpolation-filters:sRGB;" inkscape:label="Diffuse Light" id="filter184" x="-0.0375" y="-0.0375" width="1.075" height="1.075"><feGaussianBlur in="SourceGraphic" stdDeviation="1" result="blur" id="feGaussianBlur174" /><feDiffuseLighting diffuseConstant="1" surfaceScale="10" lighting-color="rgb(255,255,255)" result="diffuse" id="feDiffuseLighting178"><feDistantLight elevation="8" azimuth="235" id="feDistantLight176" /></feDiffuseLighting><feComposite in="diffuse" in2="diffuse" operator="arithmetic" k1="1" result="composite1" id="feComposite180" /><feComposite in="composite1" in2="SourceGraphic" k1="1" operator="arithmetic" k3="1" result="composite2" id="feComposite182" /></filter></defs><g id="surface1" style="filter:url(#filter184)"><path style=" stroke:none;fill-rule:nonzero;fill:url(#linear0);" d="M 30.113281 1.148438 C 5.089844 1.148438 -0.464844 12.140625 2.3125 31.367188 C 4.355469 45.535156 7.875 58.828125 16.214844 61.578125 C 24.558594 64.320312 13.433594 14.882812 44.019531 3.898438 C 47.71875 2.570312 36.878906 1.148438 30.113281 1.148438 Z M 30.113281 1.148438 "/><path style=" stroke:none;fill-rule:nonzero;fill:url(#linear1);" d="M 57.925781 17.628906 C 57.925781 17.628906 7.875 12.140625 2.3125 17.628906 C 2.3125 47.84375 7.347656 51.964844 7.347656 51.964844 C 7.347656 51.964844 12.265625 34.277344 18.996094 28.753906 C 29.367188 20.210938 57.925781 17.761719 57.925781 17.761719 Z M 57.925781 17.628906 "/><path style=" stroke:none;fill-rule:nonzero;fill:url(#linear2);" d="M 12.988281 59.527344 C 12.988281 59.527344 40.792969 67.769531 57.476562 59.527344 C 63.039062 48.542969 63.039062 23.824219 63.039062 23.824219 C 63.039062 23.824219 60.332031 47.28125 51.917969 54.042969 C 41.738281 62.191406 12.988281 59.527344 12.988281 59.527344 Z M 12.988281 59.527344 "/></g></svg>
