<svg width="64" height="64" viewBox="0 0 64 64" version="1.1" xmlns:inkscape="http://www.inkscape.org/namespaces/inkscape"><defs><linearGradient id="linear0" gradientUnits="userSpaceOnUse" x1="0" y1="0" x2="0" y2="1" gradientTransform="matrix(62.293275,0,0,38.682766,-2.297175,13.334039)"><stop offset="0" style="stop-color:rgb(87.058824%,86.666667%,56.470591%);stop-opacity:1;"/><stop offset="1" style="stop-color:rgb(67.843139%,67.450982%,38.039216%);stop-opacity:1;"/></linearGradient><filter style="color-interpolation-filters:sRGB;" inkscape:label="Diffuse Light" id="filter184" x="-0.0375" y="-0.0375" width="1.075" height="1.075"><feGaussianBlur in="SourceGraphic" stdDeviation="1" result="blur" id="feGaussianBlur174" /><feDiffuseLighting diffuseConstant="1" surfaceScale="10" lighting-color="rgb(255,255,255)" result="diffuse" id="feDiffuseLighting178"><feDistantLight elevation="8" azimuth="235" id="feDistantLight176" /></feDiffuseLighting><feComposite in="diffuse" in2="diffuse" operator="arithmetic" k1="1" result="composite1" id="feComposite180" /><feComposite in="composite1" in2="SourceGraphic" k1="1" operator="arithmetic" k3="1" result="composite2" id="feComposite182" /></filter></defs><g id="surface1" style="filter:url(#filter184)"><path style=" stroke:none;fill-rule:nonzero;fill:url(#linear0);" d="M 40.28125 63.484375 L 44.003906 53.128906 L 40.28125 47.949219 L 47.734375 50.539062 L 40.28125 42.773438 L 47.734375 45.363281 L 44.003906 40.183594 L 47.734375 37.597656 L 44.003906 37.597656 L 47.734375 32.417969 L 40.28125 35.007812 L 44.003906 29.828125 L 40.28125 32.417969 L 40.28125 27.242188 L 36.554688 27.242188 L 40.28125 22.0625 L 32.824219 27.242188 L 32.824219 16.886719 L 21.644531 47.949219 L 17.921875 50.539062 L 17.921875 47.949219 L 14.191406 50.539062 L 14.191406 47.949219 L 10.464844 50.539062 L 14.191406 45.363281 L 10.464844 47.949219 C 10.464844 47.949219 21.644531 1.351562 29.101562 1.351562 C 32.824219 1.351562 55.1875 11.703125 55.1875 35.007812 C 55.1875 53.128906 40.28125 63.484375 40.28125 63.484375 Z M 40.28125 63.484375 "/></g></svg>
