<svg width="64" height="64" viewBox="0 0 64 64" version="1.1" xmlns:inkscape="http://www.inkscape.org/namespaces/inkscape"><defs><linearGradient id="linear0" gradientUnits="userSpaceOnUse" x1="0" y1="0" x2="0" y2="1" gradientTransform="matrix(56,0,0,35.898438,-2.532044,14.343344)"><stop offset="0" style="stop-color:rgb(92.941177%,83.529413%,72.549021%);stop-opacity:1;"/><stop offset="1" style="stop-color:rgb(81.960785%,71.372551%,59.215689%);stop-opacity:1;"/></linearGradient><filter style="color-interpolation-filters:sRGB;" inkscape:label="Diffuse Light" id="filter184" x="-0.0375" y="-0.0375" width="1.075" height="1.075"><feGaussianBlur in="SourceGraphic" stdDeviation="1" result="blur" id="feGaussianBlur174" /><feDiffuseLighting diffuseConstant="1" surfaceScale="10" lighting-color="rgb(255,255,255)" result="diffuse" id="feDiffuseLighting178"><feDistantLight elevation="8" azimuth="235" id="feDistantLight176" /></feDiffuseLighting><feComposite in="diffuse" in2="diffuse" operator="arithmetic" k1="1" result="composite1" id="feComposite180" /><feComposite in="composite1" in2="SourceGraphic" k1="1" operator="arithmetic" k3="1" result="composite2" id="feComposite182" /></filter></defs><g id="surface1" style="filter:url(#filter184)"><path style=" stroke:none;fill-rule:nonzero;fill:url(#linear0);" d="M 26.152344 2.609375 C 26.152344 2.609375 21.855469 2.609375 19.707031 8.917969 C 17.5625 6.8125 17.5625 4.710938 17.5625 4.710938 C 17.5625 4.710938 11.117188 8.917969 11.117188 15.226562 C 11.117188 19.433594 15.414062 23.636719 15.414062 23.636719 C 15.414062 23.636719 11.117188 23.636719 11.117188 27.84375 C 11.117188 32.050781 15.414062 32.050781 15.414062 32.050781 L 15.414062 34.152344 C 15.414062 34.152344 15.4375 39.054688 22.136719 41.367188 C 20.03125 42.183594 17.476562 43.742188 15.414062 46.769531 C 13.777344 49.167969 15.414062 53.082031 13.265625 55.183594 C 12.132812 56.292969 8.96875 57.285156 8.96875 57.285156 C 8.96875 57.285156 15.414062 61.492188 30.449219 61.492188 C 45.480469 61.492188 51.925781 57.285156 51.925781 57.285156 C 51.925781 57.285156 48.769531 56.292969 47.628906 55.183594 L 47.628906 53.082031 L 46.484375 52.519531 C 46.230469 50.578125 46.558594 48.355469 45.480469 46.78125 C 43.417969 43.75 40.863281 42.195312 38.757812 41.375 C 45.460938 39.0625 45.480469 34.160156 45.480469 34.160156 L 45.480469 32.058594 C 45.480469 32.058594 49.777344 32.058594 49.777344 27.851562 C 49.777344 23.648438 45.480469 23.648438 45.480469 23.648438 L 45.480469 19.441406 C 45.480469 19.441406 47.628906 19.441406 51.925781 23.648438 C 51.925781 21.542969 49.777344 19.441406 49.777344 19.441406 C 49.777344 19.441406 51.925781 17.335938 56.21875 21.542969 C 54.074219 15.234375 51.925781 13.132812 49.777344 13.132812 C 51.925781 11.027344 54.074219 13.132812 54.074219 13.132812 C 54.074219 13.132812 51.925781 6.824219 45.480469 6.824219 C 34.742188 6.824219 32.59375 8.925781 28.300781 11.027344 C 28.300781 6.824219 28.195312 7.539062 30.449219 4.71875 C 30.449219 4.71875 28.300781 4.71875 26.152344 6.824219 C 24.003906 4.71875 26.152344 2.617188 26.152344 2.617188 Z M 26.152344 2.609375 "/></g></svg>
