<svg width="64" height="64" viewBox="0 0 64 64" version="1.1" xmlns:inkscape="http://www.inkscape.org/namespaces/inkscape"><defs><linearGradient id="linear0" gradientUnits="userSpaceOnUse" x1="0" y1="0" x2="0" y2="1" gradientTransform="matrix(56,0,0,35.898438,4,14.050781)"><stop offset="0" style="stop-color:rgb(75.686276%,77.64706%,83.92157%);stop-opacity:1;"/><stop offset="1" style="stop-color:rgb(43.529412%,45.09804%,50.196081%);stop-opacity:1;"/></linearGradient><filter style="color-interpolation-filters:sRGB;" inkscape:label="Diffuse Light" id="filter184" x="-0.0375" y="-0.0375" width="1.075" height="1.075"><feGaussianBlur in="SourceGraphic" stdDeviation="1" result="blur" id="feGaussianBlur174" /><feDiffuseLighting diffuseConstant="1" surfaceScale="10" lighting-color="rgb(255,255,255)" result="diffuse" id="feDiffuseLighting178"><feDistantLight elevation="8" azimuth="235" id="feDistantLight176" /></feDiffuseLighting><feComposite in="diffuse" in2="diffuse" operator="arithmetic" k1="1" result="composite1" id="feComposite180" /><feComposite in="composite1" in2="SourceGraphic" k1="1" operator="arithmetic" k3="1" result="composite2" id="feComposite182" /></filter></defs><g id="surface1" style="filter:url(#filter184)"><path style=" stroke:none;fill-rule:nonzero;fill:url(#linear0);" d="M 3.761719 3 L 3.761719 61.085938 L 61.289062 61.085938 L 61.289062 3 Z M 6.15625 5.421875 L 58.890625 5.421875 L 58.890625 58.667969 L 6.15625 58.667969 Z M 10.949219 10.261719 L 13.347656 12.679688 L 13.347656 41.726562 L 10.949219 44.144531 L 34.921875 44.144531 L 37.316406 36.882812 L 32.523438 39.304688 L 18.140625 39.304688 L 18.140625 12.679688 L 20.539062 10.261719 Z M 42.113281 17.523438 C 31.515625 17.523438 22.9375 24.976562 22.9375 35.675781 C 22.9375 36.085938 22.972656 36.480469 22.996094 36.882812 L 27.789062 36.882812 C 27.757812 36.484375 27.730469 36.082031 27.730469 35.675781 C 27.730469 27.664062 34.179688 21.152344 42.113281 21.152344 C 46.929688 21.152344 51.4375 23.597656 54.097656 27.640625 L 54.097656 23.574219 C 51.699219 20.0625 46.472656 17.523438 42.113281 17.523438 Z M 54.097656 43.660156 C 51.4375 47.726562 46.929688 50.148438 42.113281 50.148438 C 38.46875 50.148438 35.160156 48.769531 32.621094 46.515625 L 26.554688 46.515625 C 30.03125 51.042969 35.6875 53.777344 42.085938 53.777344 C 46.449219 53.777344 51.675781 51.507812 54.074219 47.726562 L 54.074219 43.660156 Z M 54.097656 43.660156 "/></g></svg>
