<svg width="64" height="64" viewBox="0 0 64 64" version="1.1" xmlns:inkscape="http://www.inkscape.org/namespaces/inkscape"><defs><linearGradient id="linear0" gradientUnits="userSpaceOnUse" x1="0" y1="0" x2="0" y2="1" gradientTransform="matrix(59.203264,0,0,37.875486,2.266916,13.288683)"><stop offset="0" style="stop-color:rgb(41.960785%,64.313728%,100%);stop-opacity:1;"/><stop offset="1" style="stop-color:rgb(0%,43.137255%,100%);stop-opacity:1;"/></linearGradient><filter style="color-interpolation-filters:sRGB;" inkscape:label="Diffuse Light" id="filter184" x="-0.0375" y="-0.0375" width="1.075" height="1.075"><feGaussianBlur in="SourceGraphic" stdDeviation="1" result="blur" id="feGaussianBlur174" /><feDiffuseLighting diffuseConstant="1" surfaceScale="10" lighting-color="rgb(255,255,255)" result="diffuse" id="feDiffuseLighting178"><feDistantLight elevation="8" azimuth="235" id="feDistantLight176" /></feDiffuseLighting><feComposite in="diffuse" in2="diffuse" operator="arithmetic" k1="1" result="composite1" id="feComposite180" /><feComposite in="composite1" in2="SourceGraphic" k1="1" operator="arithmetic" k3="1" result="composite2" id="feComposite182" /></filter></defs><g id="surface1" style="filter:url(#filter184)"><path style=" stroke:none;fill-rule:nonzero;fill:url(#linear0);" d="M 20.464844 1.925781 C 12.230469 5.382812 5.683594 12.019531 2.257812 20.382812 L 6.445312 22.054688 C 4.953125 25.664062 4.175781 29.542969 4.167969 33.460938 C 4.167969 49.8125 17.214844 63.070312 33.316406 63.070312 C 49.414062 63.070312 62.464844 49.8125 62.464844 33.460938 C 62.464844 17.113281 49.414062 3.855469 33.316406 3.855469 C 29.453125 3.859375 25.625 4.636719 22.058594 6.160156 L 20.457031 1.933594 M 33.304688 10.695312 C 45.691406 10.695312 55.730469 20.894531 55.730469 33.472656 C 55.730469 46.050781 45.691406 56.246094 33.304688 56.246094 C 20.921875 56.246094 10.882812 46.050781 10.882812 33.472656 C 10.882812 20.894531 20.921875 10.695312 33.304688 10.695312 Z M 33.304688 12.972656 C 22.160156 12.972656 13.125 22.148438 13.125 33.472656 C 13.125 44.789062 22.160156 53.964844 33.304688 53.964844 C 44.453125 53.964844 53.488281 44.789062 53.488281 33.472656 C 53.488281 22.148438 44.453125 12.972656 33.304688 12.972656 Z M 22.09375 19.804688 L 44.519531 19.804688 L 44.519531 22.082031 L 40.03125 22.082031 L 40.03125 44.859375 L 44.519531 44.859375 L 44.519531 47.132812 L 22.09375 47.132812 L 22.09375 44.859375 L 26.578125 44.859375 L 26.578125 22.082031 L 22.09375 22.082031 Z M 31.0625 22.082031 L 31.0625 44.859375 L 35.546875 44.859375 L 35.546875 22.082031 Z M 31.0625 22.082031 "/></g></svg>
