<svg width="64" height="64" viewBox="0 0 64 64" version="1.1" xmlns:inkscape="http://www.inkscape.org/namespaces/inkscape"><defs><linearGradient id="linear0" gradientUnits="userSpaceOnUse" x1="0" y1="0" x2="0" y2="1" gradientTransform="matrix(56,0,0,35.898438,4,14.050781)"><stop offset="0" style="stop-color:rgb(0%,78.823531%,36.862746%);stop-opacity:1;"/><stop offset="1" style="stop-color:rgb(0%,54.11765%,25.098041%);stop-opacity:1;"/></linearGradient><filter style="color-interpolation-filters:sRGB;" inkscape:label="Diffuse Light" id="filter184" x="-0.0375" y="-0.0375" width="1.075" height="1.075"><feGaussianBlur in="SourceGraphic" stdDeviation="1" result="blur" id="feGaussianBlur174" /><feDiffuseLighting diffuseConstant="1" surfaceScale="10" lighting-color="rgb(255,255,255)" result="diffuse" id="feDiffuseLighting178"><feDistantLight elevation="8" azimuth="235" id="feDistantLight176" /></feDiffuseLighting><feComposite in="diffuse" in2="diffuse" operator="arithmetic" k1="1" result="composite1" id="feComposite180" /><feComposite in="composite1" in2="SourceGraphic" k1="1" operator="arithmetic" k3="1" result="composite2" id="feComposite182" /></filter></defs><g id="surface1" style="filter:url(#filter184)"><path style=" stroke:none;fill-rule:nonzero;fill:url(#linear0);" d="M 31.515625 7.144531 C 16.273438 7.144531 3.917969 18.773438 3.917969 33.121094 C 3.917969 47.464844 16.273438 59.097656 31.515625 59.097656 C 46.757812 59.097656 59.113281 47.464844 59.113281 33.121094 C 59.113281 18.773438 46.757812 7.144531 31.515625 7.144531 Z M 31.515625 10.609375 C 42.691406 10.609375 51.753906 20.6875 51.753906 33.121094 C 51.753906 45.554688 42.691406 55.632812 31.515625 55.632812 C 20.335938 55.632812 11.277344 45.554688 11.277344 33.121094 C 11.277344 20.6875 20.335938 10.609375 31.515625 10.609375 Z M 22.316406 26.191406 L 22.316406 40.046875 L 24.15625 36.582031 L 38.875 36.582031 L 40.714844 40.046875 L 40.714844 26.191406 L 38.875 29.65625 L 24.15625 29.65625 Z M 22.316406 26.191406 "/></g></svg>
