<svg width="64" height="64" viewBox="0 0 64 64" version="1.1" xmlns:inkscape="http://www.inkscape.org/namespaces/inkscape"><defs><linearGradient id="linear0" gradientUnits="userSpaceOnUse" x1="0" y1="0" x2="0" y2="1" gradientTransform="matrix(56,0,0,35.898438,4,14.050781)"><stop offset="0" style="stop-color:rgb(61.176473%,69.803923%,85.09804%);stop-opacity:1;"/><stop offset="1" style="stop-color:rgb(44.313726%,52.156866%,65.882355%);stop-opacity:1;"/></linearGradient><filter style="color-interpolation-filters:sRGB;" inkscape:label="Diffuse Light" id="filter184" x="-0.0375" y="-0.0375" width="1.075" height="1.075"><feGaussianBlur in="SourceGraphic" stdDeviation="1" result="blur" id="feGaussianBlur174" /><feDiffuseLighting diffuseConstant="1" surfaceScale="10" lighting-color="rgb(255,255,255)" result="diffuse" id="feDiffuseLighting178"><feDistantLight elevation="8" azimuth="235" id="feDistantLight176" /></feDiffuseLighting><feComposite in="diffuse" in2="diffuse" operator="arithmetic" k1="1" result="composite1" id="feComposite180" /><feComposite in="composite1" in2="SourceGraphic" k1="1" operator="arithmetic" k3="1" result="composite2" id="feComposite182" /></filter></defs><g id="surface1" style="filter:url(#filter184)"><path style=" stroke:none;fill-rule:nonzero;fill:url(#linear0);" d="M 5.410156 4.988281 L 10.640625 13.625 L 36.792969 13.625 L 35.351562 17.945312 L 35.484375 20.105469 L 36.792969 18.933594 L 36.792969 20.105469 L 37.882812 17.945312 L 42.011719 17.945312 L 38.535156 28.742188 L 37.539062 35.222656 L 34.164062 39.539062 L 31.550781 35.222656 L 28.933594 39.539062 L 31.550781 26.582031 L 26.316406 39.539062 L 26.316406 46.019531 L 23.703125 43.859375 L 23.703125 48.179688 L 26.316406 48.179688 L 23.703125 54.65625 L 28.933594 48.179688 L 23.703125 61.136719 L 34.164062 48.179688 L 34.164062 43.859375 L 39.394531 39.539062 L 44.625 30.902344 L 47.242188 24.421875 L 44.625 22.265625 L 49.855469 20.105469 L 57.703125 4.988281 Z M 36.792969 20.105469 L 34.179688 24.421875 L 36.792969 22.265625 Z M 39.410156 22.265625 L 31.5625 28.742188 L 36.792969 26.582031 Z M 34.179688 28.742188 L 34.179688 33.0625 L 36.792969 30.902344 Z M 31.5625 33.0625 L 34.179688 37.378906 L 34.179688 35.222656 Z M 47.253906 33.0625 L 44.640625 37.378906 L 47.253906 35.222656 Z M 42.023438 39.539062 L 36.792969 48.179688 L 42.023438 43.859375 Z M 42.023438 39.539062 "/></g></svg>
