<svg width="64" height="64" viewBox="0 0 64 64" version="1.1" xmlns:inkscape="http://www.inkscape.org/namespaces/inkscape"><defs><linearGradient id="linear0" gradientUnits="userSpaceOnUse" x1="0" y1="0" x2="0" y2="1" gradientTransform="matrix(56,0,0,35.898438,4,14.050781)"><stop offset="0" style="stop-color:rgb(0%,78.823531%,36.862746%);stop-opacity:1;"/><stop offset="1" style="stop-color:rgb(0%,54.11765%,25.098041%);stop-opacity:1;"/></linearGradient><linearGradient id="linear1" gradientUnits="userSpaceOnUse" x1="0" y1="0" x2="0" y2="1" gradientTransform="matrix(56,0,0,35.898438,4,14.050781)"><stop offset="0" style="stop-color:rgb(0%,78.823531%,36.862746%);stop-opacity:1;"/><stop offset="1" style="stop-color:rgb(0%,54.11765%,25.098041%);stop-opacity:1;"/></linearGradient><linearGradient id="linear2" gradientUnits="userSpaceOnUse" x1="0" y1="0" x2="0" y2="1" gradientTransform="matrix(56,0,0,35.898438,4,14.050781)"><stop offset="0" style="stop-color:rgb(0%,78.823531%,36.862746%);stop-opacity:1;"/><stop offset="1" style="stop-color:rgb(0%,54.11765%,25.098041%);stop-opacity:1;"/></linearGradient><filter style="color-interpolation-filters:sRGB;" inkscape:label="Diffuse Light" id="filter184" x="-0.0375" y="-0.0375" width="1.075" height="1.075"><feGaussianBlur in="SourceGraphic" stdDeviation="1" result="blur" id="feGaussianBlur174" /><feDiffuseLighting diffuseConstant="1" surfaceScale="10" lighting-color="rgb(255,255,255)" result="diffuse" id="feDiffuseLighting178"><feDistantLight elevation="8" azimuth="235" id="feDistantLight176" /></feDiffuseLighting><feComposite in="diffuse" in2="diffuse" operator="arithmetic" k1="1" result="composite1" id="feComposite180" /><feComposite in="composite1" in2="SourceGraphic" k1="1" operator="arithmetic" k3="1" result="composite2" id="feComposite182" /></filter></defs><g id="surface1" style="filter:url(#filter184)"><path style=" stroke:none;fill-rule:nonzero;fill:url(#linear0);" d="M 47.878906 1.132812 C 39.878906 15.535156 39.878906 47.535156 47.878906 61.933594 C 50.679688 61.570312 53.371094 60.835938 55.878906 59.761719 L 55.878906 3.359375 C 53.371094 2.292969 50.679688 1.5625 47.878906 1.1875 Z M 47.878906 1.132812 "/><path style=" stroke:none;fill-rule:nonzero;fill:url(#linear1);" d="M 35.734375 2.390625 C 34.375 2.390625 33.042969 2.488281 31.734375 2.65625 C 23.734375 17.058594 23.734375 49.058594 31.734375 63.457031 C 33.046875 63.628906 34.375 63.726562 35.734375 63.726562 C 37.09375 63.726562 38.429688 63.628906 39.734375 63.457031 L 39.734375 2.65625 C 38.425781 2.488281 37.09375 2.390625 35.734375 2.390625 Z M 35.734375 2.390625 "/><path style=" stroke:none;fill-rule:nonzero;fill:url(#linear2);" d="M 23.304688 1.871094 C 20.507812 2.238281 17.8125 2.972656 15.304688 4.042969 L 15.304688 60.445312 C 17.8125 61.515625 20.507812 62.246094 23.304688 62.617188 L 23.304688 1.816406 Z M 23.304688 1.871094 "/></g></svg>
