<svg width="64" height="64" viewBox="0 0 64 64" version="1.1" xmlns:inkscape="http://www.inkscape.org/namespaces/inkscape"><defs><linearGradient id="linear0" gradientUnits="userSpaceOnUse" x1="0" y1="0" x2="0" y2="1" gradientTransform="matrix(56,0,0,35.898438,4,14.050781)"><stop offset="0" style="stop-color:rgb(100%,73.333335%,0%);stop-opacity:1;"/><stop offset="1" style="stop-color:rgb(70.19608%,51.372552%,0%);stop-opacity:1;"/></linearGradient><linearGradient id="linear1" gradientUnits="userSpaceOnUse" x1="0" y1="0" x2="0" y2="1" gradientTransform="matrix(56,0,0,35.898438,4,14.050781)"><stop offset="0" style="stop-color:rgb(100%,73.333335%,0%);stop-opacity:1;"/><stop offset="1" style="stop-color:rgb(70.19608%,51.372552%,0%);stop-opacity:1;"/></linearGradient><linearGradient id="linear2" gradientUnits="userSpaceOnUse" x1="0" y1="0" x2="0" y2="1" gradientTransform="matrix(56,0,0,35.898438,4,14.050781)"><stop offset="0" style="stop-color:rgb(100%,73.333335%,0%);stop-opacity:1;"/><stop offset="1" style="stop-color:rgb(70.19608%,51.372552%,0%);stop-opacity:1;"/></linearGradient><linearGradient id="linear3" gradientUnits="userSpaceOnUse" x1="0" y1="0" x2="0" y2="1" gradientTransform="matrix(56,0,0,35.898438,4,14.050781)"><stop offset="0" style="stop-color:rgb(100%,73.333335%,0%);stop-opacity:1;"/><stop offset="1" style="stop-color:rgb(70.19608%,51.372552%,0%);stop-opacity:1;"/></linearGradient><linearGradient id="linear4" gradientUnits="userSpaceOnUse" x1="0" y1="0" x2="0" y2="1" gradientTransform="matrix(56,0,0,35.898438,4,14.050781)"><stop offset="0" style="stop-color:rgb(100%,73.333335%,0%);stop-opacity:1;"/><stop offset="1" style="stop-color:rgb(70.19608%,51.372552%,0%);stop-opacity:1;"/></linearGradient><linearGradient id="linear5" gradientUnits="userSpaceOnUse" x1="0" y1="0" x2="0" y2="1" gradientTransform="matrix(56,0,0,35.898438,4,14.050781)"><stop offset="0" style="stop-color:rgb(100%,73.333335%,0%);stop-opacity:1;"/><stop offset="1" style="stop-color:rgb(70.19608%,51.372552%,0%);stop-opacity:1;"/></linearGradient><linearGradient id="linear6" gradientUnits="userSpaceOnUse" x1="0" y1="0" x2="0" y2="1" gradientTransform="matrix(56,0,0,35.898438,4,14.050781)"><stop offset="0" style="stop-color:rgb(100%,73.333335%,0%);stop-opacity:1;"/><stop offset="1" style="stop-color:rgb(70.19608%,51.372552%,0%);stop-opacity:1;"/></linearGradient><filter style="color-interpolation-filters:sRGB;" inkscape:label="Diffuse Light" id="filter184" x="-0.0375" y="-0.0375" width="1.075" height="1.075"><feGaussianBlur in="SourceGraphic" stdDeviation="1" result="blur" id="feGaussianBlur174" /><feDiffuseLighting diffuseConstant="1" surfaceScale="10" lighting-color="rgb(255,255,255)" result="diffuse" id="feDiffuseLighting178"><feDistantLight elevation="8" azimuth="235" id="feDistantLight176" /></feDiffuseLighting><feComposite in="diffuse" in2="diffuse" operator="arithmetic" k1="1" result="composite1" id="feComposite180" /><feComposite in="composite1" in2="SourceGraphic" k1="1" operator="arithmetic" k3="1" result="composite2" id="feComposite182" /></filter></defs><g id="surface1" style="filter:url(#filter184)"><path style=" stroke:none;fill-rule:nonzero;fill:url(#linear0);" d="M 10.394531 4.03125 L 10.394531 6.769531 L 6.082031 6.769531 L 6.082031 9.496094 L 3.929688 9.496094 L 3.929688 12.222656 L 59.949219 12.222656 L 59.949219 9.496094 L 57.796875 9.496094 L 57.796875 6.769531 L 53.484375 6.769531 L 53.484375 4.03125 L 44.867188 4.03125 L 44.867188 6.769531 L 36.25 6.769531 L 36.25 4.03125 L 27.628906 4.03125 L 27.628906 6.769531 L 19.011719 6.769531 L 19.011719 4.03125 Z M 10.394531 4.03125 "/><path style=" stroke:none;fill-rule:nonzero;fill:url(#linear1);" d="M 4.203125 15.742188 L 60.226562 15.742188 L 60.226562 21.207031 L 4.203125 21.207031 Z M 4.203125 15.742188 "/><path style=" stroke:none;fill-rule:nonzero;fill:url(#linear2);" d="M 51.035156 27.589844 L 59.65625 27.589844 L 59.65625 57.628906 L 51.035156 57.628906 Z M 51.035156 27.589844 "/><path style=" stroke:none;fill-rule:nonzero;fill:url(#linear3);" d="M 6.0625 27.871094 L 14.679688 27.871094 L 14.679688 57.90625 L 6.0625 57.90625 Z M 6.0625 27.871094 "/><path style=" stroke:none;fill-rule:nonzero;fill:url(#linear4);" d="M 28.101562 28.085938 L 36.71875 28.085938 L 36.71875 58.125 L 28.101562 58.125 Z M 28.101562 28.085938 "/><path style=" stroke:none;fill-rule:nonzero;fill:url(#linear5);" d="M 5.191406 58.386719 L 61.21875 58.386719 L 61.21875 61.117188 L 5.191406 61.117188 Z M 5.191406 58.386719 "/><path style=" stroke:none;fill-rule:nonzero;fill:url(#linear6);" d="M 4.410156 23.976562 L 60.433594 23.976562 L 60.433594 29.429688 L 4.410156 29.429688 Z M 4.410156 23.976562 "/></g></svg>
