<svg width="64" height="64" viewBox="0 0 64 64" version="1.1" xmlns:inkscape="http://www.inkscape.org/namespaces/inkscape"><defs><linearGradient id="linear0" gradientUnits="userSpaceOnUse" x1="0" y1="0" x2="0" y2="1" gradientTransform="matrix(59.23677,0,0,38.31862,2.596332,8.800095)"><stop offset="0" style="stop-color:rgb(75.686276%,77.64706%,83.92157%);stop-opacity:1;"/><stop offset="1" style="stop-color:rgb(43.529412%,45.09804%,50.196081%);stop-opacity:1;"/></linearGradient><linearGradient id="linear1" gradientUnits="userSpaceOnUse" x1="0" y1="0" x2="0" y2="1" gradientTransform="matrix(59.23677,0,0,38.31862,2.596332,8.800095)"><stop offset="0" style="stop-color:rgb(75.686276%,77.64706%,83.92157%);stop-opacity:1;"/><stop offset="1" style="stop-color:rgb(43.529412%,45.09804%,50.196081%);stop-opacity:1;"/></linearGradient><linearGradient id="linear2" gradientUnits="userSpaceOnUse" x1="0" y1="0" x2="0" y2="1" gradientTransform="matrix(59.23677,0,0,38.31862,2.596332,8.800095)"><stop offset="0" style="stop-color:rgb(75.686276%,77.64706%,83.92157%);stop-opacity:1;"/><stop offset="1" style="stop-color:rgb(43.529412%,45.09804%,50.196081%);stop-opacity:1;"/></linearGradient><filter style="color-interpolation-filters:sRGB;" inkscape:label="Diffuse Light" id="filter184" x="-0.0375" y="-0.0375" width="1.075" height="1.075"><feGaussianBlur in="SourceGraphic" stdDeviation="1" result="blur" id="feGaussianBlur174" /><feDiffuseLighting diffuseConstant="1" surfaceScale="10" lighting-color="rgb(255,255,255)" result="diffuse" id="feDiffuseLighting178"><feDistantLight elevation="8" azimuth="235" id="feDistantLight176" /></feDiffuseLighting><feComposite in="diffuse" in2="diffuse" operator="arithmetic" k1="1" result="composite1" id="feComposite180" /><feComposite in="composite1" in2="SourceGraphic" k1="1" operator="arithmetic" k3="1" result="composite2" id="feComposite182" /></filter></defs><g id="surface1" style="filter:url(#filter184)"><path style=" stroke:none;fill-rule:nonzero;fill:url(#linear0);" d="M 9.121094 35.585938 L 1.378906 48.371094 C 1.378906 48.371094 1.378906 52.636719 9.121094 52.636719 L 12.984375 44.113281 L 12.984375 35.585938 Z M 51.683594 35.585938 L 51.683594 44.113281 L 55.546875 52.636719 C 63.292969 52.636719 63.292969 48.371094 63.292969 48.371094 L 55.546875 35.585938 Z M 51.683594 35.585938 "/><path style=" stroke:none;fill-rule:nonzero;fill:url(#linear1);" d="M 27.855469 42.863281 L 27.855469 47.117188 L 23.992188 47.117188 L 23.992188 55.644531 L 27.855469 55.644531 L 27.855469 59.902344 L 35.597656 59.902344 L 35.597656 55.644531 L 39.464844 55.644531 L 39.464844 47.117188 L 35.597656 47.117188 L 35.597656 42.863281 Z M 27.855469 42.863281 "/><path style=" stroke:none;fill-rule:nonzero;fill:url(#linear2);" d="M 29.792969 5.492188 L 28.433594 11.246094 L 25.917969 14.015625 L 33.660156 14.015625 L 31.144531 11.246094 Z M 12.496094 11.273438 C 11.195312 12.480469 10.441406 14.265625 10.441406 16.136719 C 10.441406 19.671875 13.042969 22.53125 16.25 22.53125 C 18.777344 22.53125 21.28125 20.921875 22.054688 18.273438 L 22.054688 14.015625 L 19.726562 16.578125 Z M 47.070312 11.273438 L 39.851562 16.5625 L 37.523438 14.015625 L 37.523438 18.273438 C 38.296875 20.933594 40.800781 22.53125 43.328125 22.53125 C 46.535156 22.53125 49.136719 19.671875 49.136719 16.136719 C 49.136719 14.265625 48.375 12.480469 47.070312 11.273438 Z M 47.070312 11.273438 "/></g></svg>
