<svg width="64" height="64" viewBox="0 0 64 64" version="1.1" xmlns:inkscape="http://www.inkscape.org/namespaces/inkscape"><defs><linearGradient id="linear0" gradientUnits="userSpaceOnUse" x1="0" y1="0" x2="0" y2="1" gradientTransform="matrix(62.066848,0,0,38.74783,5.745969,11.187387)"><stop offset="0" style="stop-color:rgb(0%,96.078432%,86.274511%);stop-opacity:1;"/><stop offset="1" style="stop-color:rgb(0%,54.901963%,49.411765%);stop-opacity:1;"/></linearGradient><filter style="color-interpolation-filters:sRGB;" inkscape:label="Diffuse Light" id="filter184" x="-0.0375" y="-0.0375" width="1.075" height="1.075"><feGaussianBlur in="SourceGraphic" stdDeviation="1" result="blur" id="feGaussianBlur174" /><feDiffuseLighting diffuseConstant="1" surfaceScale="10" lighting-color="rgb(255,255,255)" result="diffuse" id="feDiffuseLighting178"><feDistantLight elevation="8" azimuth="235" id="feDistantLight176" /></feDiffuseLighting><feComposite in="diffuse" in2="diffuse" operator="arithmetic" k1="1" result="composite1" id="feComposite180" /><feComposite in="composite1" in2="SourceGraphic" k1="1" operator="arithmetic" k3="1" result="composite2" id="feComposite182" /></filter></defs><g id="surface1" style="filter:url(#filter184)"><path style=" stroke:none;fill-rule:nonzero;fill:url(#linear0);" d="M 6.902344 1.042969 L 12.460938 5.808594 C 12.460938 5.808594 6.902344 12.953125 6.902344 29.628906 C 6.902344 41.535156 23.582031 55.828125 23.582031 55.828125 C 23.582031 55.828125 15.246094 41.535156 15.246094 29.628906 C 15.246094 20.101562 23.582031 5.808594 31.921875 5.808594 C 40.265625 5.808594 48.601562 17.71875 48.601562 29.628906 C 48.601562 41.535156 34.707031 62.976562 34.707031 62.976562 C 34.707031 62.976562 56.945312 46.300781 56.945312 29.628906 C 56.945312 15.335938 51.382812 5.808594 51.382812 5.808594 L 56.945312 1.042969 L 31.921875 3.425781 Z M 26.550781 26.929688 C 26.425781 27.421875 26.363281 27.925781 26.363281 28.4375 C 26.363281 31.726562 28.851562 34.390625 31.921875 34.390625 C 34.996094 34.390625 37.484375 31.726562 37.484375 28.4375 C 37.480469 27.929688 37.421875 27.429688 37.300781 26.945312 L 26.550781 26.953125 Z M 26.550781 26.929688 "/></g></svg>
