<svg width="64" height="64" viewBox="0 0 64 64" version="1.1" xmlns:inkscape="http://www.inkscape.org/namespaces/inkscape"><defs><linearGradient id="linear0" gradientUnits="userSpaceOnUse" x1="0" y1="0" x2="0" y2="1" gradientTransform="matrix(56,0,0,35.898438,4,14.050781)"><stop offset="0" style="stop-color:rgb(41.960785%,64.313728%,100%);stop-opacity:1;"/><stop offset="1" style="stop-color:rgb(0%,43.137255%,100%);stop-opacity:1;"/></linearGradient><filter style="color-interpolation-filters:sRGB;" inkscape:label="Diffuse Light" id="filter184" x="-0.0375" y="-0.0375" width="1.075" height="1.075"><feGaussianBlur in="SourceGraphic" stdDeviation="1" result="blur" id="feGaussianBlur174" /><feDiffuseLighting diffuseConstant="1" surfaceScale="10" lighting-color="rgb(255,255,255)" result="diffuse" id="feDiffuseLighting178"><feDistantLight elevation="8" azimuth="235" id="feDistantLight176" /></feDiffuseLighting><feComposite in="diffuse" in2="diffuse" operator="arithmetic" k1="1" result="composite1" id="feComposite180" /><feComposite in="composite1" in2="SourceGraphic" k1="1" operator="arithmetic" k3="1" result="composite2" id="feComposite182" /></filter></defs><g id="surface1" style="filter:url(#filter184)"><path style=" stroke:none;fill-rule:nonzero;fill:url(#linear0);" d="M 32.113281 10.152344 C 22.746094 10.152344 15.25 17.964844 15.25 27.613281 C 15.25 38.527344 22.746094 38.527344 22.746094 47.253906 C 22.746094 48.464844 23.578125 49.4375 24.617188 49.4375 L 32.113281 51.621094 L 39.609375 49.4375 C 40.648438 49.4375 41.480469 48.464844 41.480469 47.253906 C 41.480469 38.527344 48.976562 38.527344 48.976562 27.613281 C 48.980469 17.964844 41.480469 10.152344 32.113281 10.152344 Z M 32.113281 10.152344 "/><path style=" stroke:none;fill-rule:nonzero;fill:rgb(41.960785%,64.313728%,100%);fill-opacity:1;" d="M 23.027344 48.90625 L 23.027344 57.652344 L 26.460938 59.109375 L 32.183594 59.839844 L 37.90625 59.109375 L 41.339844 57.652344 L 41.339844 48.90625 Z M 23.027344 48.90625 "/><path style=" stroke:none;fill-rule:nonzero;fill:rgb(60.000002%,60.000002%,60.000002%);fill-opacity:1;" d="M 24.746094 57.757812 L 29.25 63.214844 L 35.253906 63.214844 L 39.753906 57.757812 Z M 24.746094 57.757812 "/></g></svg>
