<svg width="64" height="64" viewBox="0 0 64 64" version="1.1" xmlns:inkscape="http://www.inkscape.org/namespaces/inkscape"><defs><linearGradient id="linear0" gradientUnits="userSpaceOnUse" x1="0" y1="0" x2="0" y2="1" gradientTransform="matrix(77.609818,0,0,60.893013,-6.780168,2.82747)"><stop offset="0" style="stop-color:rgb(0%,96.078432%,86.274511%);stop-opacity:1;"/><stop offset="1" style="stop-color:rgb(0%,54.901963%,49.411765%);stop-opacity:1;"/></linearGradient><linearGradient id="linear1" gradientUnits="userSpaceOnUse" x1="0" y1="0" x2="0" y2="1" gradientTransform="matrix(77.609818,0,0,60.893013,-6.780168,2.82747)"><stop offset="0" style="stop-color:rgb(0%,96.078432%,86.274511%);stop-opacity:1;"/><stop offset="1" style="stop-color:rgb(0%,54.901963%,49.411765%);stop-opacity:1;"/></linearGradient><filter style="color-interpolation-filters:sRGB;" inkscape:label="Diffuse Light" id="filter184" x="-0.0375" y="-0.0375" width="1.075" height="1.075"><feGaussianBlur in="SourceGraphic" stdDeviation="1" result="blur" id="feGaussianBlur174" /><feDiffuseLighting diffuseConstant="1" surfaceScale="10" lighting-color="rgb(255,255,255)" result="diffuse" id="feDiffuseLighting178"><feDistantLight elevation="8" azimuth="235" id="feDistantLight176" /></feDiffuseLighting><feComposite in="diffuse" in2="diffuse" operator="arithmetic" k1="1" result="composite1" id="feComposite180" /><feComposite in="composite1" in2="SourceGraphic" k1="1" operator="arithmetic" k3="1" result="composite2" id="feComposite182" /></filter></defs><g id="surface1" style="filter:url(#filter184)"><path style=" stroke:none;fill-rule:evenodd;fill:url(#linear0);" d="M 20.027344 12.226562 C 13.160156 12.226562 7.632812 16.46875 7.632812 27.078125 C 7.632812 39.8125 20.027344 63.160156 32.421875 63.160156 C 44.8125 63.160156 57.207031 39.8125 57.207031 27.078125 C 57.207031 16.46875 51.679688 12.226562 44.8125 12.226562 Z M 20.027344 12.226562 "/><path style=" stroke:none;fill-rule:evenodd;fill:url(#linear1);" d="M 32.421875 1.609375 C 32.421875 1.609375 28.289062 3.734375 28.289062 10.101562 C 26.222656 5.859375 22.011719 5.859375 17.960938 5.859375 C 17.960938 10.101562 20.027344 12.226562 24.15625 14.34375 C 20.027344 16.46875 17.960938 18.59375 17.960938 22.835938 C 22.011719 22.835938 26.222656 22.835938 28.289062 18.59375 C 28.289062 24.960938 32.421875 27.078125 32.421875 27.078125 C 32.421875 27.078125 36.550781 24.960938 36.550781 18.59375 C 38.617188 22.835938 42.828125 22.835938 46.878906 22.835938 C 46.878906 18.59375 44.8125 16.46875 40.683594 14.34375 C 44.8125 12.226562 46.878906 10.101562 46.878906 5.859375 C 42.828125 5.859375 38.617188 5.859375 36.550781 10.101562 C 36.550781 3.734375 32.421875 1.609375 32.421875 1.609375 Z M 32.421875 1.609375 "/></g></svg>
