<svg width="64" height="64" viewBox="0 0 64 64" version="1.1" xmlns:inkscape="http://www.inkscape.org/namespaces/inkscape"><defs><linearGradient id="linear0" gradientUnits="userSpaceOnUse" x1="0" y1="0" x2="0" y2="1" gradientTransform="matrix(56,0,0,35.898438,4,14.050781)"><stop offset="0" style="stop-color:rgb(92.941177%,83.529413%,72.549021%);stop-opacity:1;"/><stop offset="1" style="stop-color:rgb(81.960785%,71.372551%,59.215689%);stop-opacity:1;"/></linearGradient><filter style="color-interpolation-filters:sRGB;" inkscape:label="Diffuse Light" id="filter184" x="-0.0375" y="-0.0375" width="1.075" height="1.075"><feGaussianBlur in="SourceGraphic" stdDeviation="1" result="blur" id="feGaussianBlur174" /><feDiffuseLighting diffuseConstant="1" surfaceScale="10" lighting-color="rgb(255,255,255)" result="diffuse" id="feDiffuseLighting178"><feDistantLight elevation="8" azimuth="235" id="feDistantLight176" /></feDiffuseLighting><feComposite in="diffuse" in2="diffuse" operator="arithmetic" k1="1" result="composite1" id="feComposite180" /><feComposite in="composite1" in2="SourceGraphic" k1="1" operator="arithmetic" k3="1" result="composite2" id="feComposite182" /></filter></defs><g id="surface1" style="filter:url(#filter184)"><path style=" stroke:none;fill-rule:nonzero;fill:url(#linear0);" d="M 31.8125 3.796875 C 15.03125 3.796875 2.539062 14.246094 2.539062 29.441406 C 2.539062 40.839844 12.941406 53.1875 27.910156 53.1875 C 32.789062 53.15625 37.667969 50.335938 37.667969 44.636719 C 37.667969 34.191406 18.152344 36.089844 18.152344 19.945312 C 18.152344 10.445312 24.222656 5.828125 31.8125 3.796875 Z M 35.714844 11.394531 C 30.835938 11.425781 25.957031 14.246094 25.957031 19.945312 C 25.957031 30.390625 45.472656 28.492188 45.472656 44.636719 C 45.472656 54.136719 39.402344 58.75 31.8125 60.785156 C 48.59375 60.785156 61.085938 50.335938 61.085938 35.140625 C 61.085938 23.742188 50.683594 11.394531 35.714844 11.394531 Z M 35.714844 11.394531 "/></g></svg>
