<svg width="64" height="64" viewBox="0 0 64 64" version="1.1" xmlns:inkscape="http://www.inkscape.org/namespaces/inkscape"><defs><linearGradient id="linear0" gradientUnits="userSpaceOnUse" x1="0" y1="0" x2="0" y2="1" gradientTransform="matrix(56,0,0,35.898438,4,14.050781)"><stop offset="0" style="stop-color:rgb(61.176473%,69.803923%,85.09804%);stop-opacity:1;"/><stop offset="1" style="stop-color:rgb(44.313726%,52.156866%,65.882355%);stop-opacity:1;"/></linearGradient><linearGradient id="linear1" gradientUnits="userSpaceOnUse" x1="0" y1="0" x2="0" y2="1" gradientTransform="matrix(56,0,0,35.898438,4,14.050781)"><stop offset="0" style="stop-color:rgb(61.176473%,69.803923%,85.09804%);stop-opacity:1;"/><stop offset="1" style="stop-color:rgb(44.313726%,52.156866%,65.882355%);stop-opacity:1;"/></linearGradient><filter style="color-interpolation-filters:sRGB;" inkscape:label="Diffuse Light" id="filter184" x="-0.0375" y="-0.0375" width="1.075" height="1.075"><feGaussianBlur in="SourceGraphic" stdDeviation="1" result="blur" id="feGaussianBlur174" /><feDiffuseLighting diffuseConstant="1" surfaceScale="10" lighting-color="rgb(255,255,255)" result="diffuse" id="feDiffuseLighting178"><feDistantLight elevation="8" azimuth="235" id="feDistantLight176" /></feDiffuseLighting><feComposite in="diffuse" in2="diffuse" operator="arithmetic" k1="1" result="composite1" id="feComposite180" /><feComposite in="composite1" in2="SourceGraphic" k1="1" operator="arithmetic" k3="1" result="composite2" id="feComposite182" /></filter></defs><g id="surface1" style="filter:url(#filter184)"><path style=" stroke:none;fill-rule:nonzero;fill:url(#linear0);" d="M 47.058594 11.40625 L 47.058594 11.410156 L 43.757812 23.914062 L 55.160156 19.230469 C 53.054688 16.144531 50.28125 13.46875 47.058594 11.40625 Z M 15.449219 11.902344 C 12.308594 14.042969 9.648438 16.78125 7.652344 19.945312 L 20.441406 23.027344 Z M 27.90625 14.105469 L 27.90625 60.257812 L 35.367188 60.257812 L 35.367188 14.105469 L 31.636719 12.320312 Z M 47.492188 39.96875 L 50.964844 53.070312 C 53.742188 50.53125 55.949219 47.480469 57.457031 44.039062 Z M 16.714844 40.859375 L 5.621094 43.570312 C 6.980469 46.875 8.992188 49.828125 11.535156 52.335938 Z M 16.714844 40.859375 "/><path style=" stroke:none;fill-rule:nonzero;fill:url(#linear1);" d="M 28.109375 14.042969 L 34.941406 14.042969 L 34.941406 12.246094 L 31.523438 6.859375 L 28.109375 12.246094 "/></g></svg>
