<svg width="64" height="64" viewBox="0 0 64 64" version="1.1" xmlns:inkscape="http://www.inkscape.org/namespaces/inkscape"><defs><linearGradient id="linear0" gradientUnits="userSpaceOnUse" x1="0" y1="0" x2="0" y2="1" gradientTransform="matrix(55.992188,0,0,56,4.003906,4)"><stop offset="0" style="stop-color:rgb(0%,96.078432%,86.274511%);stop-opacity:1;"/><stop offset="1" style="stop-color:rgb(0%,54.901963%,49.411765%);stop-opacity:1;"/></linearGradient><filter style="color-interpolation-filters:sRGB;" inkscape:label="Diffuse Light" id="filter184" x="-0.0375" y="-0.0375" width="1.075" height="1.075"><feGaussianBlur in="SourceGraphic" stdDeviation="1" result="blur" id="feGaussianBlur174" /><feDiffuseLighting diffuseConstant="1" surfaceScale="10" lighting-color="rgb(255,255,255)" result="diffuse" id="feDiffuseLighting178"><feDistantLight elevation="8" azimuth="235" id="feDistantLight176" /></feDiffuseLighting><feComposite in="diffuse" in2="diffuse" operator="arithmetic" k1="1" result="composite1" id="feComposite180" /><feComposite in="composite1" in2="SourceGraphic" k1="1" operator="arithmetic" k3="1" result="composite2" id="feComposite182" /></filter></defs><g id="surface1" style="filter:url(#filter184)"><path style=" stroke:none;fill-rule:nonzero;fill:url(#linear0);" d="M 17.011719 45.605469 C 21.449219 49.359375 27.105469 51.988281 32.199219 51.988281 C 37.949219 51.988281 40.777344 49.734375 40.777344 46.074219 C 40.777344 42.222656 37.292969 41 31.914062 38.746094 L 23.902344 35.367188 C 17.582031 32.828125 11.542969 27.570312 11.542969 18.652344 C 11.542969 8.503906 20.597656 0.429688 33.425781 0.429688 C 40.496094 0.429688 47.953125 3.246094 53.226562 8.511719 L 46.15625 17.242188 C 42.101562 14.144531 38.324219 12.355469 33.425781 12.355469 C 28.613281 12.355469 25.597656 14.421875 25.597656 17.898438 C 25.597656 21.652344 29.652344 22.964844 34.933594 25.125 L 42.859375 28.320312 C 50.308594 31.324219 55.023438 36.308594 55.023438 44.941406 C 55.023438 55.089844 46.53125 63.910156 31.824219 63.910156 C 23.804688 63.910156 15.320312 60.910156 9.097656 55.082031 L 17.019531 45.597656 "/></g></svg>
