<svg width="64" height="64" viewBox="0 0 64 64" version="1.1" xmlns:inkscape="http://www.inkscape.org/namespaces/inkscape"><defs><linearGradient id="linear0" gradientUnits="userSpaceOnUse" x1="0" y1="0" x2="0" y2="1" gradientTransform="matrix(56,0,0,35.898438,4,14.050781)"><stop offset="0" style="stop-color:rgb(75.686276%,77.64706%,83.92157%);stop-opacity:1;"/><stop offset="1" style="stop-color:rgb(43.529412%,45.09804%,50.196081%);stop-opacity:1;"/></linearGradient><linearGradient id="linear1" gradientUnits="userSpaceOnUse" x1="0" y1="0" x2="0" y2="1" gradientTransform="matrix(56,0,0,35.898438,4,14.050781)"><stop offset="0" style="stop-color:rgb(75.686276%,77.64706%,83.92157%);stop-opacity:1;"/><stop offset="1" style="stop-color:rgb(43.529412%,45.09804%,50.196081%);stop-opacity:1;"/></linearGradient><linearGradient id="linear2" gradientUnits="userSpaceOnUse" x1="0" y1="0" x2="0" y2="1" gradientTransform="matrix(56,0,0,35.898438,4,14.050781)"><stop offset="0" style="stop-color:rgb(75.686276%,77.64706%,83.92157%);stop-opacity:1;"/><stop offset="1" style="stop-color:rgb(43.529412%,45.09804%,50.196081%);stop-opacity:1;"/></linearGradient><filter style="color-interpolation-filters:sRGB;" inkscape:label="Diffuse Light" id="filter184" x="-0.0375" y="-0.0375" width="1.075" height="1.075"><feGaussianBlur in="SourceGraphic" stdDeviation="1" result="blur" id="feGaussianBlur174" /><feDiffuseLighting diffuseConstant="1" surfaceScale="10" lighting-color="rgb(255,255,255)" result="diffuse" id="feDiffuseLighting178"><feDistantLight elevation="8" azimuth="235" id="feDistantLight176" /></feDiffuseLighting><feComposite in="diffuse" in2="diffuse" operator="arithmetic" k1="1" result="composite1" id="feComposite180" /><feComposite in="composite1" in2="SourceGraphic" k1="1" operator="arithmetic" k3="1" result="composite2" id="feComposite182" /></filter></defs><g id="surface1" style="filter:url(#filter184)"><path style=" stroke:none;fill-rule:nonzero;fill:url(#linear0);" d="M 30.925781 4.214844 C 17.882812 4.214844 7.332031 10.863281 7.332031 19.085938 C 7.332031 38.207031 44.410156 30.773438 44.410156 44.582031 C 44.410156 49.277344 38.375 53.082031 30.925781 53.082031 C 23.476562 53.082031 17.445312 49.277344 17.445312 44.582031 L 7.332031 44.582031 C 7.332031 52.804688 17.882812 59.457031 30.925781 59.457031 C 43.972656 59.457031 54.523438 52.804688 54.523438 44.582031 C 54.523438 25.460938 17.445312 32.898438 17.445312 19.085938 C 17.445312 14.390625 23.476562 10.585938 30.925781 10.585938 C 38.375 10.585938 44.410156 14.390625 44.410156 19.085938 L 54.523438 19.085938 C 54.523438 10.863281 43.972656 4.214844 30.925781 4.214844 Z M 30.925781 4.214844 "/><path style=" stroke:none;fill-rule:nonzero;fill:url(#linear1);" d="M 37.875 15.359375 L 55.75 15.359375 L 55.75 29.214844 L 37.875 29.214844 Z M 37.875 15.359375 "/><path style=" stroke:none;fill-rule:nonzero;fill:url(#linear2);" d="M 7.972656 36.019531 L 21.398438 44.140625 L 7.972656 52.265625 Z M 7.972656 36.019531 "/></g></svg>
