<svg width="64" height="64" viewBox="0 0 64 64" version="1.1" xmlns:inkscape="http://www.inkscape.org/namespaces/inkscape"><defs><linearGradient id="linear0" gradientUnits="userSpaceOnUse" x1="0" y1="0" x2="0" y2="1" gradientTransform="matrix(64,0,0,64,0,0)"><stop offset="0" style="stop-color:rgb(0%,96.078432%,86.274511%);stop-opacity:1;"/><stop offset="1" style="stop-color:rgb(0%,54.901963%,49.411765%);stop-opacity:1;"/></linearGradient><filter style="color-interpolation-filters:sRGB;" inkscape:label="Diffuse Light" id="filter184" x="-0.0375" y="-0.0375" width="1.075" height="1.075"><feGaussianBlur in="SourceGraphic" stdDeviation="1" result="blur" id="feGaussianBlur174" /><feDiffuseLighting diffuseConstant="1" surfaceScale="10" lighting-color="rgb(255,255,255)" result="diffuse" id="feDiffuseLighting178"><feDistantLight elevation="8" azimuth="235" id="feDistantLight176" /></feDiffuseLighting><feComposite in="diffuse" in2="diffuse" operator="arithmetic" k1="1" result="composite1" id="feComposite180" /><feComposite in="composite1" in2="SourceGraphic" k1="1" operator="arithmetic" k3="1" result="composite2" id="feComposite182" /></filter></defs><g id="surface1" style="filter:url(#filter184)"><path style=" stroke:none;fill-rule:nonzero;fill:url(#linear0);" d="M 58.703125 0.285156 L 0.285156 58.703125 C 0.605469 59.910156 1.242188 61.011719 2.097656 61.902344 C 2.988281 62.757812 4.089844 63.394531 5.296875 63.714844 L 63.753906 5.296875 C 63.074219 2.84375 61.15625 0.925781 58.703125 0.285156 Z M 31.570312 0 L 0 31.570312 L 0 41.636719 L 41.636719 0 Z M 7.113281 0 C 3.199219 0 0 3.199219 0 7.113281 L 0 14.222656 L 14.222656 0 Z M 56.886719 64 C 58.84375 64 60.625 63.214844 61.902344 61.902344 C 63.214844 60.625 64 58.84375 64 56.886719 L 64 49.777344 L 49.777344 64 Z M 22.363281 64 L 32.429688 64 L 64 32.429688 L 64 22.363281 Z M 22.363281 64 "/></g></svg>
