<?xml version="1.0" encoding="UTF-8" standalone="no"?><svg width="64" height="64" viewBox="0 0 64 64" version="1.1" id="svg420" sodipodi:docname="swell-foop.svg" inkscape:version="1.2.2 (b0a8486541, 2022-12-01)" xmlns:inkscape="http://www.inkscape.org/namespaces/inkscape" xmlns:sodipodi="http://sodipodi.sourceforge.net/DTD/sodipodi-0.dtd" xmlns:xlink="http://www.w3.org/1999/xlink" xmlns="http://www.w3.org/2000/svg" xmlns:svg="http://www.w3.org/2000/svg"> <sodipodi:namedview id="namedview422" pagecolor="#ffffff" bordercolor="#000000" borderopacity="0.25" inkscape:showpageshadow="2" inkscape:pageopacity="0.0" inkscape:pagecheckerboard="0" inkscape:deskcolor="#d1d1d1" showgrid="false" inkscape:zoom="3.6875" inkscape:cx="32" inkscape:cy="32.135593" inkscape:window-width="1432" inkscape:window-height="844" inkscape:window-x="0" inkscape:window-y="0" inkscape:window-maximized="1" inkscape:current-layer="svg420" /> <defs id="defs409"> <filter id="alpha" filterUnits="objectBoundingBox" x="0" y="0" width="1" height="1"> <feColorMatrix type="matrix" in="SourceGraphic" values="0 0 0 0 1 0 0 0 0 1 0 0 0 0 1 0 0 0 1 0" id="feColorMatrix364" /> </filter> <mask id="mask0"> <g filter="url(#alpha)" id="g369"> <rect x="0" y="0" width="64" height="64" style="fill:rgb(0%,0%,0%);fill-opacity:0.6;stroke:none;" id="rect367" /> </g> </mask> <linearGradient id="linear0" gradientUnits="userSpaceOnUse" x1="0" y1="0" x2="0" y2="1" gradientTransform="matrix(30.476562,0,0,30.476562,0.0078125,0.0390625)"> <stop offset="0" style="stop-color:#d1b597;stop-opacity:1;" id="stop372" /> <stop offset="1" style="stop-color:#a6896a;stop-opacity:1;" id="stop374" /> </linearGradient> <clipPath id="clip1"> <rect x="0" y="0" width="64" height="64" id="rect377" /> </clipPath> <g id="surface5" clip-path="url(#clip1)"> <path style=" stroke:none;fill-rule:nonzero;fill:url(#linear0);" d="M 30.484375 15.28125 C 30.484375 23.695312 23.660156 30.515625 15.246094 30.515625 C 6.832031 30.515625 0.0078125 23.695312 0.0078125 15.28125 C 0.0078125 6.863281 6.828125 0.0390625 15.246094 0.0390625 C 23.664062 0.0390625 30.484375 6.863281 30.484375 15.28125 Z M 30.484375 15.28125 " id="path380" /> </g> <mask id="mask1"> <g filter="url(#alpha)" id="g385"> <rect x="0" y="0" width="64" height="64" style="fill:rgb(0%,0%,0%);fill-opacity:0.6;stroke:none;" id="rect383" /> </g> </mask> <linearGradient id="linear1" gradientUnits="userSpaceOnUse" x1="0" y1="0" x2="0" y2="1" gradientTransform="matrix(30.476562,0,0,30.476562,33.523438,33.519531)"> <stop offset="0" style="stop-color:#d1b597;stop-opacity:1;" id="stop388" /> <stop offset="1" style="stop-color:#a6896a;stop-opacity:1;" id="stop390" /> </linearGradient> <clipPath id="clip2"> <rect x="0" y="0" width="64" height="64" id="rect393" /> </clipPath> <g id="surface8" clip-path="url(#clip2)"> <path style=" stroke:none;fill-rule:nonzero;fill:url(#linear1);" d="M 64 48.765625 C 63.996094 57.179688 57.175781 63.996094 48.761719 63.996094 C 40.347656 63.996094 33.527344 57.179688 33.523438 48.765625 C 33.519531 40.347656 40.34375 33.519531 48.761719 33.519531 C 57.179688 33.519531 64.003906 40.347656 64 48.765625 Z M 64 48.765625 " id="path396" /> </g> <linearGradient id="linear2" gradientUnits="userSpaceOnUse" x1="0" y1="0" x2="0" y2="1" gradientTransform="matrix(30.476562,0,0,30.476562,0,33.523438)"> <stop offset="0" style="stop-color:#d1b597;stop-opacity:1;" id="stop399" /> <stop offset="1" style="stop-color:#a6896a;stop-opacity:1;" id="stop401" /> </linearGradient> <linearGradient id="linear3" gradientUnits="userSpaceOnUse" x1="0" y1="0" x2="0" y2="1" gradientTransform="matrix(-30.476562,0,0,-30.476562,64,30.480469)"> <stop offset="0" style="stop-color:#d1b597;stop-opacity:1;" id="stop404" /> <stop offset="1" style="stop-color:#a6896a;stop-opacity:1;" id="stop406" /> </linearGradient> <filter style="color-interpolation-filters:sRGB;" inkscape:label="Diffuse Light" id="filter2206" x="-0.037499998" y="-0.037502289" width="1.075" height="1.0750046"> <feGaussianBlur in="SourceGraphic" stdDeviation="1" result="blur" id="feGaussianBlur2196" /> <feDiffuseLighting diffuseConstant="1" surfaceScale="10" lighting-color="rgb(255,255,255)" result="diffuse" id="feDiffuseLighting2200"> <feDistantLight elevation="8" azimuth="235" id="feDistantLight2198" /> </feDiffuseLighting> <feComposite in="diffuse" in2="diffuse" operator="arithmetic" k1="1" result="composite1" id="feComposite2202" /> <feComposite in="composite1" in2="SourceGraphic" k1="1" operator="arithmetic" k3="1" result="composite2" id="feComposite2204" /> </filter> </defs> <g id="surface1" style="filter:url(#filter2206)"> <use xlink:href="#surface5" mask="url(#mask0)" id="use411" /> <use xlink:href="#surface8" mask="url(#mask1)" id="use413" /> <path style=" stroke:none;fill-rule:nonzero;fill:url(#linear2);" d="M 30.476562 48.769531 C 30.472656 57.179688 23.652344 64 15.238281 64 C 6.824219 64 0.00390625 57.179688 0 48.769531 C -0.00390625 40.347656 6.820312 33.523438 15.238281 33.523438 C 23.65625 33.523438 30.480469 40.347656 30.476562 48.769531 Z M 30.476562 48.769531 " id="path415" /> <path style=" stroke:none;fill-rule:nonzero;fill:url(#linear3);" d="M 64 30.480469 L 33.523438 30.480469 L 33.523438 0.00390625 L 64 0.00390625 Z M 64 30.480469 " id="path417" /> </g></svg>
