<?xml version="1.0" encoding="UTF-8" standalone="no"?><svg width="64" height="64" viewBox="0 0 64 64" version="1.1" id="svg10" sodipodi:docname="sylpheed3.svg" inkscape:version="1.2.2 (b0a8486541, 2022-12-01)" xmlns:inkscape="http://www.inkscape.org/namespaces/inkscape" xmlns:sodipodi="http://sodipodi.sourceforge.net/DTD/sodipodi-0.dtd" xmlns="http://www.w3.org/2000/svg" xmlns:svg="http://www.w3.org/2000/svg"> <defs id="defs14"> <filter style="color-interpolation-filters:sRGB;" inkscape:label="Diffuse Light" id="filter189" x="-0.17852824" y="-0.24632945" width="1.3570565" height="1.4926589"> <feGaussianBlur in="SourceGraphic" stdDeviation="3.45666" result="blur" id="feGaussianBlur179" /> <feDiffuseLighting diffuseConstant="1" surfaceScale="10" lighting-color="rgb(255,255,255)" result="diffuse" id="feDiffuseLighting183"> <feDistantLight elevation="8" azimuth="245" id="feDistantLight181" /> </feDiffuseLighting> <feComposite in="diffuse" in2="diffuse" operator="arithmetic" k1="1" result="composite1" id="feComposite185" /> <feComposite in="composite1" in2="SourceGraphic" k1="1" operator="arithmetic" k3="1" result="composite2" id="feComposite187" /> </filter> <filter style="color-interpolation-filters:sRGB;" inkscape:label="Diffuse Light" id="filter201" x="-0.13400037" y="-0.13698219" width="1.2680007" height="1.2739644"> <feGaussianBlur in="SourceGraphic" stdDeviation="3.45666" result="blur" id="feGaussianBlur191" /> <feDiffuseLighting diffuseConstant="1" surfaceScale="10" lighting-color="rgb(255,255,255)" result="diffuse" id="feDiffuseLighting195"> <feDistantLight elevation="8" azimuth="245" id="feDistantLight193" /> </feDiffuseLighting> <feComposite in="diffuse" in2="diffuse" operator="arithmetic" k1="1" result="composite1" id="feComposite197" /> <feComposite in="composite1" in2="SourceGraphic" k1="1" operator="arithmetic" k3="1" result="composite2" id="feComposite199" /> </filter> <filter style="color-interpolation-filters:sRGB;" inkscape:label="Diffuse Light" id="filter213" x="-0.55364046" y="-0.41227719" width="2.1072809" height="1.8245544"> <feGaussianBlur in="SourceGraphic" stdDeviation="3.45666" result="blur" id="feGaussianBlur203" /> <feDiffuseLighting diffuseConstant="1" surfaceScale="10" lighting-color="rgb(255,255,255)" result="diffuse" id="feDiffuseLighting207"> <feDistantLight elevation="8" azimuth="245" id="feDistantLight205" /> </feDiffuseLighting> <feComposite in="diffuse" in2="diffuse" operator="arithmetic" k1="1" result="composite1" id="feComposite209" /> <feComposite in="composite1" in2="SourceGraphic" k1="1" operator="arithmetic" k3="1" result="composite2" id="feComposite211" /> </filter> </defs> <sodipodi:namedview id="namedview12" pagecolor="#ffffff" bordercolor="#000000" borderopacity="0.25" inkscape:showpageshadow="2" inkscape:pageopacity="0.0" inkscape:pagecheckerboard="0" inkscape:deskcolor="#d1d1d1" showgrid="false" inkscape:zoom="3.6875" inkscape:cx="32" inkscape:cy="32.135593" inkscape:window-width="1432" inkscape:window-height="844" inkscape:window-x="0" inkscape:window-y="0" inkscape:window-maximized="1" inkscape:current-layer="svg10" /> <path style="stroke:none;fill-rule:nonzero;fill:#9400d3;fill-opacity:1;filter:url(#filter201)" d="M 63.066406 31.945312 C 63.066406 48.65625 49.195312 62.226562 32.113281 62.226562 C 15.027344 62.226562 1.15625 48.65625 1.15625 31.945312 C 1.15625 15.230469 15.027344 1.664062 32.113281 1.664062 C 49.195312 1.664062 63.066406 15.230469 63.066406 31.945312 Z M 63.066406 31.945312 " id="path2" /> <path style="stroke:none;fill-rule:nonzero;fill:#d2b48c;fill-opacity:1" d="M 30.164062 33.046875 C 30.597656 33.449219 31.066406 33.652344 31.550781 33.652344 C 32.035156 33.652344 32.5 33.449219 32.933594 33.050781 C 36.179688 30.066406 47.207031 20.5 53.492188 15.0625 C 53.886719 14.726562 53.945312 14.132812 53.628906 13.71875 C 52.894531 12.765625 51.804688 12.21875 50.632812 12.21875 C 46.816406 12.21875 16.285156 12.21875 12.46875 12.21875 C 11.296875 12.21875 10.203125 12.765625 9.472656 13.71875 C 9.15625 14.132812 9.214844 14.726562 9.605469 15.0625 C 15.894531 20.5 26.921875 30.066406 30.164062 33.046875 Z M 30.164062 33.046875 " id="path4" /> <path style="stroke:none;fill-rule:nonzero;fill:#d2b48c;fill-opacity:1;filter:url(#filter189)" d="M 53.191406 17.078125 C 46.117188 23.996094 37.09375 32.867188 34.253906 35.820312 C 32.65625 37.480469 30.445312 37.480469 28.847656 35.816406 C 25.820312 32.671875 15.683594 22.726562 9.910156 17.078125 C 9.621094 16.796875 9.21875 16.734375 8.875 16.917969 C 8.535156 17.101562 8.316406 17.496094 8.316406 17.933594 C 8.316406 20.742188 8.316406 43.214844 8.316406 46.027344 C 8.316406 48.488281 10.050781 50.492188 12.1875 50.492188 C 16.058594 50.492188 47.039062 50.492188 50.914062 50.492188 C 53.050781 50.492188 54.785156 48.488281 54.785156 46.027344 C 54.785156 43.214844 54.785156 20.742188 54.785156 17.933594 C 54.785156 17.496094 54.566406 17.101562 54.226562 16.917969 C 53.882812 16.734375 53.476562 16.796875 53.191406 17.078125 Z M 53.191406 17.078125 " id="path6" /> <path style="stroke:none;fill-rule:nonzero;fill:#9400d3;fill-opacity:1;filter:url(#filter213)" d="M 39.492188 36.980469 C 39.480469 35.753906 39.222656 34.722656 38.714844 33.890625 C 38.207031 33.058594 37.511719 32.410156 36.617188 31.933594 C 35.730469 31.460938 34.359375 31.003906 32.511719 30.570312 C 30.660156 30.132812 29.492188 29.714844 29.011719 29.300781 C 28.632812 28.976562 28.441406 28.585938 28.4375 28.128906 C 28.433594 27.621094 28.632812 27.21875 29.03125 26.914062 C 29.652344 26.4375 30.515625 26.199219 31.617188 26.1875 C 32.683594 26.179688 33.488281 26.390625 34.023438 26.824219 C 34.355469 27.089844 34.613281 27.460938 34.804688 27.941406 C 35.050781 28.554688 35.636719 28.945312 36.273438 28.910156 C 36.367188 28.90625 37.089844 28.863281 37.179688 28.859375 C 38.191406 28.804688 38.859375 27.746094 38.507812 26.761719 C 38.1875 25.882812 37.675781 25.125 36.964844 24.496094 C 35.761719 23.4375 33.980469 22.914062 31.621094 22.9375 C 30.179688 22.949219 28.945312 23.1875 27.929688 23.648438 C 26.910156 24.109375 26.136719 24.769531 25.597656 25.636719 C 25.0625 26.503906 24.796875 27.433594 24.804688 28.421875 C 24.820312 29.964844 25.40625 31.261719 26.570312 32.320312 C 27.394531 33.070312 28.832031 33.703125 30.871094 34.207031 C 32.453125 34.601562 33.46875 34.871094 33.914062 35.027344 C 34.566406 35.261719 35.023438 35.539062 35.289062 35.859375 C 35.550781 36.179688 35.6875 36.570312 35.691406 37.027344 C 35.695312 37.746094 35.390625 38.375 34.777344 38.914062 C 34.160156 39.457031 33.246094 39.730469 32.019531 39.742188 C 30.867188 39.75 29.945312 39.460938 29.261719 38.863281 C 28.800781 38.464844 28.441406 37.902344 28.183594 37.191406 C 27.945312 36.523438 27.300781 36.113281 26.617188 36.1875 C 26.539062 36.195312 25.925781 36.261719 25.851562 36.269531 C 24.898438 36.375 24.289062 37.359375 24.582031 38.296875 C 24.980469 39.582031 25.628906 40.617188 26.519531 41.398438 C 27.800781 42.523438 29.632812 43.078125 32.007812 43.058594 C 33.640625 43.042969 35.003906 42.792969 36.089844 42.3125 C 37.191406 41.828125 38.03125 41.097656 38.621094 40.121094 C 39.210938 39.144531 39.503906 38.097656 39.492188 36.980469 Z M 39.492188 36.980469 " id="path8" /></svg>
