<svg width="64" height="64" viewBox="0 0 64 64" version="1.1" xmlns:inkscape="http://www.inkscape.org/namespaces/inkscape"><defs><linearGradient id="linear0" gradientUnits="userSpaceOnUse" x1="0" y1="0" x2="0" y2="1" gradientTransform="matrix(64,0,0,64,0,0)"><stop offset="0" style="stop-color:rgb(100%,56.862748%,82.745099%);stop-opacity:1;"/><stop offset="1" style="stop-color:rgb(100%,0%,60.000002%);stop-opacity:1;"/></linearGradient><filter style="color-interpolation-filters:sRGB;" inkscape:label="Diffuse Light" id="filter184" x="-0.0375" y="-0.0375" width="1.075" height="1.075"><feGaussianBlur in="SourceGraphic" stdDeviation="1" result="blur" id="feGaussianBlur174" /><feDiffuseLighting diffuseConstant="1" surfaceScale="10" lighting-color="rgb(255,255,255)" result="diffuse" id="feDiffuseLighting178"><feDistantLight elevation="8" azimuth="235" id="feDistantLight176" /></feDiffuseLighting><feComposite in="diffuse" in2="diffuse" operator="arithmetic" k1="1" result="composite1" id="feComposite180" /><feComposite in="composite1" in2="SourceGraphic" k1="1" operator="arithmetic" k3="1" result="composite2" id="feComposite182" /></filter></defs><g id="surface1" style="filter:url(#filter184)"><path style=" stroke:none;fill-rule:evenodd;fill:url(#linear0);" d="M 0 26.121094 L 0 0 L 26.121094 0 L 26.121094 26.121094 Z M 20.898438 5.222656 L 5.222656 5.222656 L 5.222656 20.898438 L 20.898438 20.898438 Z M 63.707031 13.355469 C 63.707031 20.570312 57.859375 26.417969 50.644531 26.417969 C 43.429688 26.417969 37.582031 20.570312 37.582031 13.355469 C 37.582031 6.140625 43.429688 0.292969 50.644531 0.292969 C 57.859375 0.292969 63.707031 6.140625 63.707031 13.355469 Z M 7.835938 37.878906 L 18.285156 37.878906 L 18.285156 45.714844 L 26.121094 45.714844 L 26.121094 56.164062 L 18.285156 56.164062 L 18.285156 64 L 7.835938 64 L 7.835938 56.164062 L 0 56.164062 L 0 45.714844 L 7.835938 45.714844 Z M 50.9375 37.878906 L 37.878906 64 L 64 64 Z M 42.402344 61.203125 L 50.9375 44.136719 L 50.9375 61.203125 Z M 42.402344 61.203125 "/></g></svg>
