<svg width="64" height="64" viewBox="0 0 64 64" version="1.1" xmlns:inkscape="http://www.inkscape.org/namespaces/inkscape"><defs><linearGradient id="linear0" gradientUnits="userSpaceOnUse" x1="0" y1="0" x2="0" y2="1" gradientTransform="matrix(56,0,0,35.898438,4,14.050781)"><stop offset="0" style="stop-color:rgb(41.960785%,64.313728%,100%);stop-opacity:1;"/><stop offset="1" style="stop-color:rgb(0%,43.137255%,100%);stop-opacity:1;"/></linearGradient><filter style="color-interpolation-filters:sRGB;" inkscape:label="Diffuse Light" id="filter184" x="-0.0375" y="-0.0375" width="1.075" height="1.075"><feGaussianBlur in="SourceGraphic" stdDeviation="1" result="blur" id="feGaussianBlur174" /><feDiffuseLighting diffuseConstant="1" surfaceScale="10" lighting-color="rgb(255,255,255)" result="diffuse" id="feDiffuseLighting178"><feDistantLight elevation="8" azimuth="235" id="feDistantLight176" /></feDiffuseLighting><feComposite in="diffuse" in2="diffuse" operator="arithmetic" k1="1" result="composite1" id="feComposite180" /><feComposite in="composite1" in2="SourceGraphic" k1="1" operator="arithmetic" k3="1" result="composite2" id="feComposite182" /></filter></defs><g id="surface1" style="filter:url(#filter184)"><path style=" stroke:none;fill-rule:nonzero;fill:url(#linear0);" d="M 61.949219 5.441406 C 25.15625 5.441406 3.085938 26.28125 3.085938 47.121094 C 3.085938 58.699219 16.261719 61.015625 32.515625 61.015625 C 46.632812 61.015625 59.496094 54.070312 59.496094 42.492188 C 55.824219 46.207031 50.792969 48.6875 44.777344 49.4375 C 41.550781 52.597656 37.164062 54.066406 32.515625 54.070312 C 23.035156 54.074219 15.347656 46.8125 15.347656 37.859375 C 15.347656 28.910156 23.035156 21.648438 32.515625 21.652344 C 38.605469 21.652344 44.15625 24.792969 47.230469 29.757812 C 57.332031 24.652344 61.949219 16.277344 61.949219 5.441406 Z M 61.949219 22.808594 C 59.949219 27.359375 54.542969 31.28125 49.171875 34 C 49.507812 35.261719 49.679688 36.558594 49.683594 37.859375 C 49.679688 39.8125 49.296875 41.824219 48.5625 43.648438 C 58.757812 40.402344 61.949219 31.195312 61.949219 22.808594 Z M 32.515625 26.28125 C 25.742188 26.28125 20.253906 31.464844 20.253906 37.859375 C 20.253906 44.253906 25.742188 49.4375 32.515625 49.4375 C 39.289062 49.4375 44.777344 44.253906 44.777344 37.859375 C 44.777344 31.464844 39.289062 26.28125 32.515625 26.28125 Z M 27.609375 30.914062 L 39.875 37.859375 L 27.609375 44.808594 Z M 27.609375 30.914062 "/></g></svg>
