<svg width="64" height="64" viewBox="0 0 64 64" version="1.1" xmlns:inkscape="http://www.inkscape.org/namespaces/inkscape"><defs><linearGradient id="linear0" gradientUnits="userSpaceOnUse" x1="0" y1="0" x2="0" y2="1" gradientTransform="matrix(66.167396,0,0,68.860408,-1.031784,-2.063313)"><stop offset="0" style="stop-color:rgb(75.686276%,77.64706%,83.92157%);stop-opacity:1;"/><stop offset="1" style="stop-color:rgb(43.529412%,45.09804%,50.196081%);stop-opacity:1;"/></linearGradient><filter style="color-interpolation-filters:sRGB;" inkscape:label="Diffuse Light" id="filter184" x="-0.0375" y="-0.0375" width="1.075" height="1.075"><feGaussianBlur in="SourceGraphic" stdDeviation="1" result="blur" id="feGaussianBlur174" /><feDiffuseLighting diffuseConstant="1" surfaceScale="10" lighting-color="rgb(255,255,255)" result="diffuse" id="feDiffuseLighting178"><feDistantLight elevation="8" azimuth="235" id="feDistantLight176" /></feDiffuseLighting><feComposite in="diffuse" in2="diffuse" operator="arithmetic" k1="1" result="composite1" id="feComposite180" /><feComposite in="composite1" in2="SourceGraphic" k1="1" operator="arithmetic" k3="1" result="composite2" id="feComposite182" /></filter></defs><g id="surface1" style="filter:url(#filter184)"><path style=" stroke:none;fill-rule:nonzero;fill:url(#linear0);" d="M 32.140625 1.648438 C 18.082031 1.648438 6.695312 38.546875 6.695312 54.902344 C 6.695312 55.808594 6.738281 56.738281 6.804688 57.628906 C 9.65625 55.890625 12.902344 54.878906 16.347656 54.878906 C 22.695312 54.878906 28.359375 58.246094 32.125 63.511719 C 35.898438 58.234375 41.5625 54.878906 47.902344 54.878906 C 51.351562 54.878906 54.59375 55.875 57.429688 57.621094 C 57.5 56.730469 57.53125 55.820312 57.53125 54.910156 C 57.53125 38.539062 46.160156 1.648438 32.117188 1.648438 "/></g></svg>
