<svg width="64" height="64" viewBox="0 0 64 64" version="1.1" xmlns:inkscape="http://www.inkscape.org/namespaces/inkscape"><defs><linearGradient id="linear0" gradientUnits="userSpaceOnUse" x1="0" y1="0" x2="0" y2="1" gradientTransform="matrix(56,0,0,35.898438,4,14.050781)"><stop offset="0" style="stop-color:rgb(92.941177%,83.529413%,72.549021%);stop-opacity:1;"/><stop offset="1" style="stop-color:rgb(81.960785%,71.372551%,59.215689%);stop-opacity:1;"/></linearGradient><linearGradient id="linear1" gradientUnits="userSpaceOnUse" x1="0" y1="0" x2="0" y2="1" gradientTransform="matrix(56,0,0,35.898438,4,14.050781)"><stop offset="0" style="stop-color:rgb(92.941177%,83.529413%,72.549021%);stop-opacity:1;"/><stop offset="1" style="stop-color:rgb(81.960785%,71.372551%,59.215689%);stop-opacity:1;"/></linearGradient><linearGradient id="linear2" gradientUnits="userSpaceOnUse" x1="0" y1="0" x2="0" y2="1" gradientTransform="matrix(56,0,0,35.898438,4,14.050781)"><stop offset="0" style="stop-color:rgb(92.941177%,83.529413%,72.549021%);stop-opacity:1;"/><stop offset="1" style="stop-color:rgb(81.960785%,71.372551%,59.215689%);stop-opacity:1;"/></linearGradient><filter style="color-interpolation-filters:sRGB;" inkscape:label="Diffuse Light" id="filter184" x="-0.0375" y="-0.0375" width="1.075" height="1.075"><feGaussianBlur in="SourceGraphic" stdDeviation="1" result="blur" id="feGaussianBlur174" /><feDiffuseLighting diffuseConstant="1" surfaceScale="10" lighting-color="rgb(255,255,255)" result="diffuse" id="feDiffuseLighting178"><feDistantLight elevation="8" azimuth="235" id="feDistantLight176" /></feDiffuseLighting><feComposite in="diffuse" in2="diffuse" operator="arithmetic" k1="1" result="composite1" id="feComposite180" /><feComposite in="composite1" in2="SourceGraphic" k1="1" operator="arithmetic" k3="1" result="composite2" id="feComposite182" /></filter></defs><g id="surface1" style="filter:url(#filter184)"><path style=" stroke:none;fill-rule:nonzero;fill:url(#linear0);" d="M 47.882812 6.421875 L 47.882812 56.023438 L 54.441406 56.023438 C 58.074219 56.023438 61 52.335938 61 47.757812 L 61 14.691406 C 61 10.113281 58.074219 6.421875 54.441406 6.421875 Z M 47.882812 6.421875 "/><path style=" stroke:none;fill-rule:nonzero;fill:url(#linear1);" d="M 10.71875 6.421875 C 7.085938 6.421875 4.160156 10.113281 4.160156 14.691406 L 4.160156 47.757812 C 4.160156 52.335938 7.085938 56.023438 10.71875 56.023438 L 17.277344 56.023438 L 17.277344 6.421875 Z M 10.71875 6.421875 "/><path style=" stroke:none;fill-rule:nonzero;fill:url(#linear2);" d="M 20.476562 25.167969 L 20.476562 30.683594 C 30.132812 30.683594 37.96875 40.546875 37.96875 52.722656 L 42.335938 52.722656 C 42.335938 37.503906 32.550781 25.167969 20.476562 25.167969 Z M 20.476562 36.1875 L 20.476562 41.703125 C 25.304688 41.703125 29.21875 46.636719 29.21875 52.722656 L 33.59375 52.722656 C 33.59375 43.589844 27.71875 36.1875 20.476562 36.1875 Z M 20.476562 47.214844 L 20.476562 52.722656 L 24.851562 52.722656 C 24.851562 49.679688 22.890625 47.214844 20.476562 47.214844 Z M 20.476562 47.214844 "/></g></svg>
