<svg width="64" height="64" viewBox="0 0 64 64" version="1.1" xmlns:inkscape="http://www.inkscape.org/namespaces/inkscape"><defs><linearGradient id="linear0" gradientUnits="userSpaceOnUse" x1="0" y1="0" x2="0" y2="1" gradientTransform="matrix(72.42164,0,0,67.209455,-4.073378,-1.881972)"><stop offset="0" style="stop-color:rgb(87.058824%,86.666667%,56.470591%);stop-opacity:1;"/><stop offset="1" style="stop-color:rgb(67.843139%,67.450982%,38.039216%);stop-opacity:1;"/></linearGradient><filter style="color-interpolation-filters:sRGB;" inkscape:label="Diffuse Light" id="filter184" x="-0.0375" y="-0.0375" width="1.075" height="1.075"><feGaussianBlur in="SourceGraphic" stdDeviation="1" result="blur" id="feGaussianBlur174" /><feDiffuseLighting diffuseConstant="1" surfaceScale="10" lighting-color="rgb(255,255,255)" result="diffuse" id="feDiffuseLighting178"><feDistantLight elevation="8" azimuth="235" id="feDistantLight176" /></feDiffuseLighting><feComposite in="diffuse" in2="diffuse" operator="arithmetic" k1="1" result="composite1" id="feComposite180" /><feComposite in="composite1" in2="SourceGraphic" k1="1" operator="arithmetic" k3="1" result="composite2" id="feComposite182" /></filter></defs><g id="surface1" style="filter:url(#filter184)"><path style=" stroke:none;fill-rule:nonzero;fill:url(#linear0);" d="M 61.890625 27.5 C 59.800781 15.734375 50.25 6.082031 38.140625 3.574219 L 36.109375 13.085938 C 44.191406 14.75 50.632812 21.152344 52.027344 29 C 53.378906 36.566406 50.023438 43.964844 43.484375 48.15625 L 39.621094 42.019531 L 32.644531 60.210938 L 52.3125 62.183594 L 48.699219 56.484375 C 58.765625 50.269531 63.941406 38.992188 61.890625 27.5 Z M 31.511719 3.867188 L 12.234375 1.679688 L 15.867188 7.449219 C 5.839844 13.570312 0.46875 25.117188 2.515625 36.546875 C 4.621094 48.351562 13.765625 57.667969 25.894531 60.28125 L 28.015625 50.832031 C 19.921875 49.070312 13.78125 42.914062 12.378906 35.039062 C 11.039062 27.53125 14.496094 19.933594 20.992188 15.796875 L 24.675781 21.878906 Z M 31.511719 3.867188 "/></g></svg>
