<svg width="64" height="64" viewBox="0 0 64 64" version="1.1" xmlns:inkscape="http://www.inkscape.org/namespaces/inkscape"><defs><linearGradient id="linear0" gradientUnits="userSpaceOnUse" x1="0" y1="0" x2="0" y2="1" gradientTransform="matrix(62.875,0,0,64,0.5625,0)"><stop offset="0" style="stop-color:rgb(100%,63.137257%,63.137257%);stop-opacity:1;"/><stop offset="1" style="stop-color:rgb(100%,27.843139%,27.843139%);stop-opacity:1;"/></linearGradient><filter style="color-interpolation-filters:sRGB;" inkscape:label="Diffuse Light" id="filter184" x="-0.0375" y="-0.0375" width="1.075" height="1.075"><feGaussianBlur in="SourceGraphic" stdDeviation="1" result="blur" id="feGaussianBlur174" /><feDiffuseLighting diffuseConstant="1" surfaceScale="10" lighting-color="rgb(255,255,255)" result="diffuse" id="feDiffuseLighting178"><feDistantLight elevation="8" azimuth="235" id="feDistantLight176" /></feDiffuseLighting><feComposite in="diffuse" in2="diffuse" operator="arithmetic" k1="1" result="composite1" id="feComposite180" /><feComposite in="composite1" in2="SourceGraphic" k1="1" operator="arithmetic" k3="1" result="composite2" id="feComposite182" /></filter></defs><g id="surface1" style="filter:url(#filter184)"><path style=" stroke:none;fill-rule:evenodd;fill:url(#linear0);" d="M 0.566406 32.199219 C 0.515625 35.554688 1.007812 38.890625 2.023438 42.089844 C 6.179688 55.144531 18.304688 64.003906 32.003906 64 C 45.703125 64.003906 57.832031 55.144531 61.988281 42.089844 C 66.105469 29.027344 61.257812 14.808594 50.03125 6.976562 L 44.886719 14.339844 C 52.921875 19.910156 56.378906 30.0625 53.425781 39.378906 C 50.46875 48.707031 41.792969 55.039062 32.003906 55.015625 C 22.210938 55.042969 13.539062 48.710938 10.578125 39.378906 C 7.625 30.0625 11.089844 19.910156 19.117188 14.339844 L 13.976562 6.976562 C 5.714844 12.738281 0.722656 22.128906 0.566406 32.199219 Z M 27.515625 1.125 L 27.515625 32.558594 L 36.496094 32.558594 L 36.496094 0 Z M 27.515625 1.125 "/></g></svg>
