<svg width="64" height="64" viewBox="0 0 64 64" version="1.1" xmlns:inkscape="http://www.inkscape.org/namespaces/inkscape"><defs><linearGradient id="linear0" gradientUnits="userSpaceOnUse" x1="0" y1="0" x2="0" y2="1" gradientTransform="matrix(64.911942,0,0,63.742307,0.0560488,3.789889)"><stop offset="0" style="stop-color:rgb(87.058824%,86.666667%,56.470591%);stop-opacity:1;"/><stop offset="1" style="stop-color:rgb(67.843139%,67.450982%,38.039216%);stop-opacity:1;"/></linearGradient><filter style="color-interpolation-filters:sRGB;" inkscape:label="Diffuse Light" id="filter184" x="-0.0375" y="-0.0375" width="1.075" height="1.075"><feGaussianBlur in="SourceGraphic" stdDeviation="1" result="blur" id="feGaussianBlur174" /><feDiffuseLighting diffuseConstant="1" surfaceScale="10" lighting-color="rgb(255,255,255)" result="diffuse" id="feDiffuseLighting178"><feDistantLight elevation="8" azimuth="235" id="feDistantLight176" /></feDiffuseLighting><feComposite in="diffuse" in2="diffuse" operator="arithmetic" k1="1" result="composite1" id="feComposite180" /><feComposite in="composite1" in2="SourceGraphic" k1="1" operator="arithmetic" k3="1" result="composite2" id="feComposite182" /></filter></defs><g id="surface1" style="filter:url(#filter184)"><path style=" stroke:none;fill-rule:nonzero;fill:url(#linear0);" d="M 24.714844 1.175781 L 24.714844 23.882812 L 15.480469 23.882812 C 12.773438 23.882812 15.265625 26.179688 15.265625 26.179688 L 31.660156 45.554688 L 31.667969 45.558594 C 31.667969 45.558594 33.003906 47.09375 34.410156 45.714844 C 36.347656 43.816406 50.300781 25.714844 50.300781 25.714844 C 50.300781 25.714844 52.761719 23.300781 49.484375 23.300781 L 40.957031 23.300781 L 40.957031 1.175781 L 24.714844 1.175781 M 11.648438 50.804688 C 7.894531 50.804688 4.875 53.761719 4.875 57.429688 C 4.875 61.097656 7.894531 64.054688 11.648438 64.054688 L 53.769531 64.054688 C 57.523438 64.054688 60.542969 61.097656 60.542969 57.429688 C 60.542969 53.761719 57.523438 50.8125 53.769531 50.8125 L 11.648438 50.8125 M 11.445312 53.867188 C 11.503906 53.863281 11.578125 53.867188 11.640625 53.867188 C 13.65625 53.867188 15.28125 55.460938 15.28125 57.429688 C 15.28125 59.398438 13.65625 61 11.640625 61 C 9.625 61 8 59.398438 8 57.429688 C 8 55.519531 9.515625 53.964844 11.445312 53.867188 "/></g></svg>
