<svg width="64" height="64" viewBox="0 0 64 64" version="1.1" xmlns:inkscape="http://www.inkscape.org/namespaces/inkscape"><defs><linearGradient id="linear0" gradientUnits="userSpaceOnUse" x1="0" y1="0" x2="0" y2="1" gradientTransform="matrix(63.804687,0,0,64,0.0976562,0)"><stop offset="0" style="stop-color:rgb(41.960785%,64.313728%,100%);stop-opacity:1;"/><stop offset="1" style="stop-color:rgb(0%,43.137255%,100%);stop-opacity:1;"/></linearGradient><filter style="color-interpolation-filters:sRGB;" inkscape:label="Diffuse Light" id="filter184" x="-0.0375" y="-0.0375" width="1.075" height="1.075"><feGaussianBlur in="SourceGraphic" stdDeviation="1" result="blur" id="feGaussianBlur174" /><feDiffuseLighting diffuseConstant="1" surfaceScale="10" lighting-color="rgb(255,255,255)" result="diffuse" id="feDiffuseLighting178"><feDistantLight elevation="8" azimuth="235" id="feDistantLight176" /></feDiffuseLighting><feComposite in="diffuse" in2="diffuse" operator="arithmetic" k1="1" result="composite1" id="feComposite180" /><feComposite in="composite1" in2="SourceGraphic" k1="1" operator="arithmetic" k3="1" result="composite2" id="feComposite182" /></filter></defs><g id="surface1" style="filter:url(#filter184)"><path style=" stroke:none;fill-rule:evenodd;fill:url(#linear0);" d="M 8.171875 3.078125 L 8.171875 34.640625 L 0.0976562 34.640625 C 0.0976562 34.640625 6.714844 50.800781 16.257812 64 C 16.257812 64 16.261719 64 16.265625 63.996094 C 16.269531 63.996094 16.273438 63.992188 16.277344 63.992188 C 16.277344 63.988281 16.28125 63.984375 16.285156 63.984375 C 16.289062 63.984375 16.292969 63.980469 16.296875 63.980469 C 26.136719 50.054688 32.390625 34.640625 32.390625 34.640625 L 24.320312 34.640625 L 24.320312 3.078125 Z M 39.679688 60.921875 L 39.679688 29.359375 L 31.609375 29.359375 C 31.609375 29.359375 38.226562 13.199219 47.765625 0 C 47.769531 0 47.773438 0 47.773438 0.00390625 C 47.777344 0.00390625 47.78125 0.0078125 47.785156 0.0078125 C 47.789062 0.0117188 47.792969 0.015625 47.796875 0.015625 C 47.800781 0.015625 47.804688 0.0195312 47.804688 0.0195312 C 57.648438 13.945312 63.902344 29.359375 63.902344 29.359375 L 55.828125 29.359375 L 55.828125 60.921875 Z M 39.679688 60.921875 "/></g></svg>
