<svg width="64" height="64" viewBox="0 0 64 64" version="1.1" xmlns:inkscape="http://www.inkscape.org/namespaces/inkscape"><defs><linearGradient id="linear0" gradientUnits="userSpaceOnUse" x1="0" y1="0" x2="0" y2="1" gradientTransform="matrix(64,0,0,50.664063,0,6.667969)"><stop offset="0" style="stop-color:rgb(100%,73.333335%,0%);stop-opacity:1;"/><stop offset="1" style="stop-color:rgb(70.19608%,51.372552%,0%);stop-opacity:1;"/></linearGradient><filter style="color-interpolation-filters:sRGB;" inkscape:label="Diffuse Light" id="filter184" x="-0.0375" y="-0.0375" width="1.075" height="1.075"><feGaussianBlur in="SourceGraphic" stdDeviation="1" result="blur" id="feGaussianBlur174" /><feDiffuseLighting diffuseConstant="1" surfaceScale="10" lighting-color="rgb(255,255,255)" result="diffuse" id="feDiffuseLighting178"><feDistantLight elevation="8" azimuth="235" id="feDistantLight176" /></feDiffuseLighting><feComposite in="diffuse" in2="diffuse" operator="arithmetic" k1="1" result="composite1" id="feComposite180" /><feComposite in="composite1" in2="SourceGraphic" k1="1" operator="arithmetic" k3="1" result="composite2" id="feComposite182" /></filter></defs><g id="surface1" style="filter:url(#filter184)"><path style=" stroke:none;fill-rule:nonzero;fill:url(#linear0);" d="M 0 13.332031 L 0 50.667969 C 0 54.347656 2.984375 57.332031 6.667969 57.332031 L 57.332031 57.332031 C 61.015625 57.332031 64 54.347656 64 50.667969 L 64 13.332031 C 64 9.652344 61.015625 6.667969 57.332031 6.667969 L 6.667969 6.667969 C 2.984375 6.667969 0 9.652344 0 13.332031 Z M 61.332031 32 C 61.332031 34.210938 59.546875 36 57.332031 36 C 55.121094 36 53.332031 34.210938 53.332031 32 C 53.332031 29.789062 55.121094 28 57.332031 28 C 59.546875 28 61.332031 29.789062 61.332031 32 Z M 50.667969 12 L 50.667969 52 L 8 52 L 8 12 Z M 50.667969 12 "/></g></svg>
