<svg width="64" height="64" viewBox="0 0 64 64" version="1.1" xmlns:inkscape="http://www.inkscape.org/namespaces/inkscape"><defs><linearGradient id="linear0" gradientUnits="userSpaceOnUse" x1="0" y1="0" x2="0" y2="1" gradientTransform="matrix(64,0,0,64,0,0)"><stop offset="0" style="stop-color:rgb(100%,63.137257%,63.137257%);stop-opacity:1;"/><stop offset="1" style="stop-color:rgb(100%,27.843139%,27.843139%);stop-opacity:1;"/></linearGradient><filter style="color-interpolation-filters:sRGB;" inkscape:label="Diffuse Light" id="filter184" x="-0.0375" y="-0.0375" width="1.075" height="1.075"><feGaussianBlur in="SourceGraphic" stdDeviation="1" result="blur" id="feGaussianBlur174" /><feDiffuseLighting diffuseConstant="1" surfaceScale="10" lighting-color="rgb(255,255,255)" result="diffuse" id="feDiffuseLighting178"><feDistantLight elevation="8" azimuth="235" id="feDistantLight176" /></feDiffuseLighting><feComposite in="diffuse" in2="diffuse" operator="arithmetic" k1="1" result="composite1" id="feComposite180" /><feComposite in="composite1" in2="SourceGraphic" k1="1" operator="arithmetic" k3="1" result="composite2" id="feComposite182" /></filter></defs><g id="surface1" style="filter:url(#filter184)"><path style=" stroke:none;fill-rule:nonzero;fill:url(#linear0);" d="M 10.523438 0 C 10.523438 0 7.980469 -0.03125 5.375 1.273438 C 2.769531 2.578125 0 5.613281 0 10.523438 L 0 32.4375 L 31.5625 64 L 64 31.5625 L 32.4375 0 Z M 10.523438 4.210938 L 30.695312 4.210938 L 58.046875 31.5625 L 31.5625 58.046875 L 4.210938 30.695312 L 4.210938 10.523438 C 4.210938 7.015625 5.648438 5.839844 7.25 5.039062 C 8.851562 4.238281 10.523438 4.210938 10.523438 4.210938 Z M 14.726562 8.414062 C 11.265625 8.414062 8.414062 11.265625 8.414062 14.726562 C 8.414062 18.1875 11.265625 21.039062 14.726562 21.039062 C 18.1875 21.039062 21.039062 18.1875 21.039062 14.726562 C 21.039062 11.265625 18.1875 8.414062 14.726562 8.414062 Z M 14.726562 12.625 C 15.914062 12.625 16.835938 13.539062 16.835938 14.726562 C 16.835938 15.914062 15.914062 16.835938 14.726562 16.835938 C 13.539062 16.835938 12.625 15.914062 12.625 14.726562 C 12.625 13.539062 13.539062 12.625 14.726562 12.625 Z M 14.726562 12.625 "/></g></svg>
