<svg width="64" height="64" viewBox="0 0 64 64" version="1.1" xmlns:inkscape="http://www.inkscape.org/namespaces/inkscape"><defs><linearGradient id="linear0" gradientUnits="userSpaceOnUse" x1="0" y1="0" x2="0" y2="1" gradientTransform="matrix(69.331333,0,0,46.231893,-2.675136,6.703296)"><stop offset="0" style="stop-color:rgb(61.176473%,69.803923%,85.09804%);stop-opacity:1;"/><stop offset="1" style="stop-color:rgb(44.313726%,52.156866%,65.882355%);stop-opacity:1;"/></linearGradient><linearGradient id="linear1" gradientUnits="userSpaceOnUse" x1="0" y1="0" x2="0" y2="1" gradientTransform="matrix(69.331333,0,0,46.231893,-2.675136,6.703296)"><stop offset="0" style="stop-color:rgb(61.176473%,69.803923%,85.09804%);stop-opacity:1;"/><stop offset="1" style="stop-color:rgb(44.313726%,52.156866%,65.882355%);stop-opacity:1;"/></linearGradient><filter style="color-interpolation-filters:sRGB;" inkscape:label="Diffuse Light" id="filter184" x="-0.0375" y="-0.0375" width="1.075" height="1.075"><feGaussianBlur in="SourceGraphic" stdDeviation="1" result="blur" id="feGaussianBlur174" /><feDiffuseLighting diffuseConstant="1" surfaceScale="10" lighting-color="rgb(255,255,255)" result="diffuse" id="feDiffuseLighting178"><feDistantLight elevation="8" azimuth="235" id="feDistantLight176" /></feDiffuseLighting><feComposite in="diffuse" in2="diffuse" operator="arithmetic" k1="1" result="composite1" id="feComposite180" /><feComposite in="composite1" in2="SourceGraphic" k1="1" operator="arithmetic" k3="1" result="composite2" id="feComposite182" /></filter></defs><g id="surface1" style="filter:url(#filter184)"><path style=" stroke:none;fill-rule:nonzero;fill:url(#linear0);" d="M 60.089844 1.378906 C 60.089844 1.378906 48.726562 11.476562 48.722656 11.476562 L 42.988281 8.394531 L 42.988281 8.398438 L 42.421875 10.371094 C 43.847656 10.757812 45.210938 11.398438 46.445312 12.152344 L 3.449219 55.222656 L 1.84375 62.289062 L 2.210938 61.960938 L 8.886719 60.691406 L 15.175781 54.390625 L 51.304688 54.390625 L 51.304688 18.1875 L 51.90625 17.589844 C 53.011719 19.210938 53.980469 20.960938 54.296875 22.367188 L 56.394531 21.890625 C 55.8125 19.316406 54.117188 16.527344 52.328125 14.441406 L 60.351562 6.410156 C 61.636719 6.25 62.597656 5.179688 62.597656 3.910156 C 62.597656 2.542969 61.488281 1.425781 60.089844 1.386719 Z M 60.089844 1.378906 "/><path style=" stroke:none;fill-rule:nonzero;fill:url(#linear1);" d="M 16.382812 16.308594 L 50.667969 16.308594 L 50.667969 53.699219 L 16.382812 53.699219 Z M 16.382812 16.308594 "/></g></svg>
