<svg width="64" height="64" viewBox="0 0 64 64" version="1.1" xmlns:inkscape="http://www.inkscape.org/namespaces/inkscape"><defs><linearGradient id="linear0" gradientUnits="userSpaceOnUse" x1="0" y1="0" x2="0" y2="1" gradientTransform="matrix(59.395776,0,0,59.643929,2.561264,3.548979)"><stop offset="0" style="stop-color:rgb(82.352942%,61.176473%,100%);stop-opacity:1;"/><stop offset="1" style="stop-color:rgb(66.666669%,0%,100%);stop-opacity:1;"/></linearGradient><linearGradient id="linear1" gradientUnits="userSpaceOnUse" x1="0" y1="0" x2="0" y2="1" gradientTransform="matrix(59.395776,0,0,59.643929,2.561264,3.548979)"><stop offset="0" style="stop-color:rgb(82.352942%,61.176473%,100%);stop-opacity:1;"/><stop offset="1" style="stop-color:rgb(66.666669%,0%,100%);stop-opacity:1;"/></linearGradient><filter style="color-interpolation-filters:sRGB;" inkscape:label="Diffuse Light" id="filter184" x="-0.0375" y="-0.0375" width="1.075" height="1.075"><feGaussianBlur in="SourceGraphic" stdDeviation="1" result="blur" id="feGaussianBlur174" /><feDiffuseLighting diffuseConstant="1" surfaceScale="10" lighting-color="rgb(255,255,255)" result="diffuse" id="feDiffuseLighting178"><feDistantLight elevation="8" azimuth="235" id="feDistantLight176" /></feDiffuseLighting><feComposite in="diffuse" in2="diffuse" operator="arithmetic" k1="1" result="composite1" id="feComposite180" /><feComposite in="composite1" in2="SourceGraphic" k1="1" operator="arithmetic" k3="1" result="composite2" id="feComposite182" /></filter></defs><g id="surface1" style="filter:url(#filter184)"><path style=" stroke:none;fill-rule:nonzero;fill:url(#linear0);" d="M 32.296875 1.855469 C 15.417969 1.902344 1.765625 15.59375 1.765625 32.464844 C 1.765625 49.371094 15.472656 63.082031 32.382812 63.082031 C 49.292969 63.082031 63 49.371094 63 32.464844 C 63 15.554688 49.292969 1.855469 32.382812 1.855469 C 32.355469 1.855469 32.324219 1.855469 32.300781 1.855469 Z M 20.304688 6.570312 L 25.492188 17.691406 C 19.742188 20.367188 16.058594 26.128906 16.054688 32.464844 L 3.804688 32.464844 C 3.804688 21.363281 10.238281 11.261719 20.304688 6.570312 Z M 32.382812 22.261719 C 38.019531 22.261719 42.589844 26.835938 42.589844 32.464844 C 42.589844 38.101562 38.019531 42.671875 32.382812 42.671875 C 26.746094 42.671875 22.183594 38.101562 22.183594 32.464844 C 22.183594 26.835938 26.746094 22.261719 32.382812 22.261719 Z M 48.71875 32.464844 L 60.960938 32.472656 C 60.960938 43.574219 54.523438 53.675781 44.457031 58.367188 L 39.277344 47.253906 C 45.03125 44.578125 48.707031 38.808594 48.71875 32.464844 Z M 48.71875 32.464844 "/><path style=" stroke:none;fill-rule:nonzero;fill:url(#linear1);" d="M 34.425781 32.464844 C 34.425781 33.59375 33.511719 34.507812 32.382812 34.507812 C 31.257812 34.507812 30.339844 33.59375 30.339844 32.464844 C 30.339844 31.339844 31.257812 30.429688 32.382812 30.429688 C 33.511719 30.429688 34.425781 31.339844 34.425781 32.464844 Z M 34.425781 32.464844 "/></g></svg>
