<svg width="64" height="64" viewBox="0 0 64 64" version="1.1" xmlns:inkscape="http://www.inkscape.org/namespaces/inkscape"><defs><linearGradient id="linear0" gradientUnits="userSpaceOnUse" x1="0" y1="0" x2="0" y2="1" gradientTransform="matrix(64,0,0,64,0,0)"><stop offset="0" style="stop-color:rgb(92.941177%,83.529413%,72.549021%);stop-opacity:1;"/><stop offset="1" style="stop-color:rgb(81.960785%,71.372551%,59.215689%);stop-opacity:1;"/></linearGradient><filter style="color-interpolation-filters:sRGB;" inkscape:label="Diffuse Light" id="filter184" x="-0.0375" y="-0.0375" width="1.075" height="1.075"><feGaussianBlur in="SourceGraphic" stdDeviation="1" result="blur" id="feGaussianBlur174" /><feDiffuseLighting diffuseConstant="1" surfaceScale="10" lighting-color="rgb(255,255,255)" result="diffuse" id="feDiffuseLighting178"><feDistantLight elevation="8" azimuth="235" id="feDistantLight176" /></feDiffuseLighting><feComposite in="diffuse" in2="diffuse" operator="arithmetic" k1="1" result="composite1" id="feComposite180" /><feComposite in="composite1" in2="SourceGraphic" k1="1" operator="arithmetic" k3="1" result="composite2" id="feComposite182" /></filter></defs><g id="surface1" style="filter:url(#filter184)"><path style=" stroke:none;fill-rule:nonzero;fill:url(#linear0);" d="M 34.519531 0.101562 C 21.308594 -0.941406 8.824219 6.273438 3.117188 18.234375 L 20.628906 22.929688 C 22.914062 20.066406 26.199219 18.175781 29.824219 17.628906 Z M 45.765625 3.117188 L 41.070312 20.628906 C 43.933594 22.921875 45.828125 26.199219 46.371094 29.824219 L 63.898438 34.519531 C 64.941406 21.308594 57.726562 8.820312 45.765625 3.113281 Z M 0.101562 29.480469 C -0.941406 42.691406 6.273438 55.175781 18.234375 60.882812 L 22.929688 43.371094 C 20.0625 41.085938 18.171875 37.796875 17.625 34.171875 L 0.0976562 29.480469 Z M 43.371094 41.070312 C 41.078125 43.9375 37.796875 45.828125 34.175781 46.371094 L 29.480469 63.898438 C 42.691406 64.941406 55.175781 57.726562 60.882812 45.769531 Z M 43.371094 41.070312 "/></g></svg>
