<svg width="64" height="64" viewBox="0 0 64 64" version="1.1" xmlns:inkscape="http://www.inkscape.org/namespaces/inkscape"><defs><linearGradient id="linear0" gradientUnits="userSpaceOnUse" x1="0" y1="0" x2="0" y2="1" gradientTransform="matrix(83.78707,0,0,81.704947,-9.179314,-8.783895)"><stop offset="0" style="stop-color:rgb(100%,63.137257%,63.137257%);stop-opacity:1;"/><stop offset="1" style="stop-color:rgb(100%,27.843139%,27.843139%);stop-opacity:1;"/></linearGradient><filter style="color-interpolation-filters:sRGB;" inkscape:label="Diffuse Light" id="filter184" x="-0.0375" y="-0.0375" width="1.075" height="1.075"><feGaussianBlur in="SourceGraphic" stdDeviation="1" result="blur" id="feGaussianBlur174" /><feDiffuseLighting diffuseConstant="1" surfaceScale="10" lighting-color="rgb(255,255,255)" result="diffuse" id="feDiffuseLighting178"><feDistantLight elevation="8" azimuth="235" id="feDistantLight176" /></feDiffuseLighting><feComposite in="diffuse" in2="diffuse" operator="arithmetic" k1="1" result="composite1" id="feComposite180" /><feComposite in="composite1" in2="SourceGraphic" k1="1" operator="arithmetic" k3="1" result="composite2" id="feComposite182" /></filter></defs><g id="surface1" style="filter:url(#filter184)"><path style=" stroke:none;fill-rule:nonzero;fill:url(#linear0);" d="M 13.207031 2.074219 C 7.195312 2.074219 2.34375 6.769531 2.34375 12.609375 L 2.34375 38.640625 C 2.34375 44.21875 6.765625 48.75 12.414062 49.144531 L 12.414062 60.640625 C 12.417969 61.429688 12.957031 62.1875 13.722656 62.460938 C 14.476562 62.738281 15.398438 62.503906 15.933594 61.90625 L 27.195312 49.179688 L 52.382812 49.179688 C 58.40625 49.179688 63.257812 44.476562 63.257812 38.621094 L 63.257812 12.628906 C 63.257812 6.78125 58.40625 2.074219 52.382812 2.074219 L 13.207031 2.074219 M 14.203125 15.695312 L 55.585938 15.695312 C 56.722656 15.695312 57.628906 16.582031 57.628906 17.683594 C 57.628906 18.785156 56.722656 19.65625 55.585938 19.65625 L 14.203125 19.65625 C 13.074219 19.65625 12.171875 18.785156 12.171875 17.683594 C 12.171875 16.582031 13.074219 15.695312 14.203125 15.695312 M 14.203125 24.335938 L 55.597656 24.335938 C 56.726562 24.335938 57.628906 25.222656 57.628906 26.324219 C 57.628906 27.414062 56.726562 28.296875 55.597656 28.296875 L 14.203125 28.296875 C 13.074219 28.296875 12.171875 27.414062 12.171875 26.324219 C 12.171875 25.222656 13.074219 24.335938 14.203125 24.335938 M 14.203125 32.976562 L 55.597656 32.976562 C 56.726562 32.976562 57.628906 33.859375 57.628906 34.953125 C 57.628906 36.050781 56.726562 36.925781 55.597656 36.925781 L 14.203125 36.925781 C 13.074219 36.925781 12.171875 36.050781 12.171875 34.953125 C 12.171875 33.859375 13.074219 32.976562 14.203125 32.976562 "/></g></svg>
