<svg width="64" height="64" viewBox="0 0 64 64" version="1.1" xmlns:inkscape="http://www.inkscape.org/namespaces/inkscape"><defs><linearGradient id="linear0" gradientUnits="userSpaceOnUse" x1="0" y1="0" x2="0" y2="1" gradientTransform="matrix(71.372163,0,0,78.658549,-14.050628,-16.678123)"><stop offset="0" style="stop-color:rgb(87.058824%,86.666667%,56.470591%);stop-opacity:1;"/><stop offset="1" style="stop-color:rgb(67.843139%,67.450982%,38.039216%);stop-opacity:1;"/></linearGradient><filter style="color-interpolation-filters:sRGB;" inkscape:label="Diffuse Light" id="filter184" x="-0.0375" y="-0.0375" width="1.075" height="1.075"><feGaussianBlur in="SourceGraphic" stdDeviation="1" result="blur" id="feGaussianBlur174" /><feDiffuseLighting diffuseConstant="1" surfaceScale="10" lighting-color="rgb(255,255,255)" result="diffuse" id="feDiffuseLighting178"><feDistantLight elevation="8" azimuth="235" id="feDistantLight176" /></feDiffuseLighting><feComposite in="diffuse" in2="diffuse" operator="arithmetic" k1="1" result="composite1" id="feComposite180" /><feComposite in="composite1" in2="SourceGraphic" k1="1" operator="arithmetic" k3="1" result="composite2" id="feComposite182" /></filter></defs>
<g id="surface1" style="filter:url(#filter184)"><path style=" stroke:none;fill-rule:nonzero;fill:url(#linear0);" d="M 62.203125 31.425781 C 62.203125 48.269531 48.621094 61.921875 31.859375 61.921875 C 15.097656 61.921875 1.511719 48.269531 1.511719 31.425781 C 1.511719 14.582031 15.097656 0.929688 31.859375 0.929688 C 48.621094 0.929688 62.203125 14.582031 62.203125 31.425781 Z M 62.203125 31.425781 "/><path style=" stroke:none;fill-rule:nonzero;fill:rgb(97.254902%,97.254902%,97.254902%);fill-opacity:1;" d="M 48.851562 6.214844 C 47.429688 12.867188 46.058594 21.667969 45.941406 31.425781 C 45.804688 41.207031 47.171875 50.070312 48.667969 56.839844 C 50.585938 55.535156 52.355469 54.011719 53.929688 52.300781 C 52.808594 46.472656 51.910156 39.335938 52.015625 31.570312 C 52.117188 23.84375 53.046875 16.726562 54.136719 10.828125 C 52.5625 9.109375 50.789062 7.570312 48.855469 6.253906 Z M 14.664062 6.261719 C 12.738281 7.582031 10.972656 9.125 9.402344 10.851562 C 10.484375 16.667969 11.410156 23.765625 11.503906 31.390625 C 11.609375 39.132812 10.710938 46.292969 9.597656 52.125 C 11.167969 53.832031 12.933594 55.351562 14.851562 56.65625 C 16.339844 49.96875 17.703125 41.105469 17.585938 31.246094 C 17.457031 21.566406 16.09375 12.78125 14.667969 6.035156 Z M 14.664062 6.261719 "/></g></svg>
