<svg width="64" height="64" viewBox="0 0 64 64" version="1.1" xmlns:inkscape="http://www.inkscape.org/namespaces/inkscape"><defs><linearGradient id="linear0" gradientUnits="userSpaceOnUse" x1="0" y1="0" x2="0" y2="1" gradientTransform="matrix(64,0,0,61.085937,0,1.457031)"><stop offset="0" style="stop-color:rgb(61.176473%,69.803923%,85.09804%);stop-opacity:1;"/><stop offset="1" style="stop-color:rgb(44.313726%,52.156866%,65.882355%);stop-opacity:1;"/></linearGradient><filter style="color-interpolation-filters:sRGB;" inkscape:label="Diffuse Light" id="filter184" x="-0.0375" y="-0.0375" width="1.075" height="1.075"><feGaussianBlur in="SourceGraphic" stdDeviation="1" result="blur" id="feGaussianBlur174" /><feDiffuseLighting diffuseConstant="1" surfaceScale="10" lighting-color="rgb(255,255,255)" result="diffuse" id="feDiffuseLighting178"><feDistantLight elevation="8" azimuth="235" id="feDistantLight176" /></feDiffuseLighting><feComposite in="diffuse" in2="diffuse" operator="arithmetic" k1="1" result="composite1" id="feComposite180" /><feComposite in="composite1" in2="SourceGraphic" k1="1" operator="arithmetic" k3="1" result="composite2" id="feComposite182" /></filter></defs><g id="surface1" style="filter:url(#filter184)"><path style=" stroke:none;fill-rule:evenodd;fill:url(#linear0);" d="M 32 1.457031 C 23.511719 1.457031 15.371094 4.671875 9.371094 10.398438 C 3.371094 16.128906 0 23.898438 0 32 C 0 40.101562 3.371094 47.871094 9.371094 53.601562 C 15.371094 59.328125 23.511719 62.542969 32 62.542969 C 40.488281 62.542969 48.628906 59.328125 54.628906 53.601562 C 60.628906 47.871094 64 40.101562 64 32 C 64 23.898438 60.628906 16.128906 54.628906 10.398438 C 48.628906 4.671875 40.488281 1.457031 32 1.457031 Z M 32 7.273438 C 37.789062 7.273438 43.335938 9.875 47.429688 14.515625 C 51.519531 19.152344 53.820312 25.441406 53.820312 32 C 53.820312 38.554688 51.519531 44.847656 47.429688 49.484375 C 43.335938 54.125 37.789062 56.726562 32 56.726562 C 26.210938 56.726562 20.664062 54.125 16.570312 49.484375 C 12.480469 44.847656 10.179688 38.554688 10.179688 32 C 10.179688 25.441406 12.480469 19.152344 16.570312 14.515625 C 20.664062 9.875 26.210938 7.273438 32 7.273438 Z M 20.363281 23.273438 L 20.363281 40.726562 L 22.542969 40.726562 C 22.542969 36.363281 22.480469 36.363281 33.054688 36.363281 C 41.519531 36.363281 41.457031 36.363281 41.457031 40.726562 L 43.636719 40.726562 L 43.636719 23.273438 L 41.457031 23.273438 C 41.457031 27.636719 41.519531 27.636719 33.054688 27.636719 C 22.480469 27.636719 22.542969 27.636719 22.542969 23.273438 Z M 20.363281 23.273438 "/></g></svg>
