<svg width="64" height="64" viewBox="0 0 64 64" version="1.1" xmlns:inkscape="http://www.inkscape.org/namespaces/inkscape"><defs><linearGradient id="linear0" gradientUnits="userSpaceOnUse" x1="0" y1="0" x2="0" y2="1" gradientTransform="matrix(48,0,0,64,8,0)"><stop offset="0" style="stop-color:rgb(81.960785%,70.980394%,59.215689%);stop-opacity:1;"/><stop offset="1" style="stop-color:rgb(65.098041%,53.725493%,41.568628%);stop-opacity:1;"/></linearGradient><filter style="color-interpolation-filters:sRGB;" inkscape:label="Diffuse Light" id="filter184" x="-0.0375" y="-0.0375" width="1.075" height="1.075"><feGaussianBlur in="SourceGraphic" stdDeviation="1" result="blur" id="feGaussianBlur174" /><feDiffuseLighting diffuseConstant="1" surfaceScale="10" lighting-color="rgb(255,255,255)" result="diffuse" id="feDiffuseLighting178"><feDistantLight elevation="8" azimuth="235" id="feDistantLight176" /></feDiffuseLighting><feComposite in="diffuse" in2="diffuse" operator="arithmetic" k1="1" result="composite1" id="feComposite180" /><feComposite in="composite1" in2="SourceGraphic" k1="1" operator="arithmetic" k3="1" result="composite2" id="feComposite182" /></filter></defs><g id="surface1" style="filter:url(#filter184)"><path style=" stroke:none;fill-rule:nonzero;fill:url(#linear0);" d="M 33.679688 0 C 34.238281 0.429688 34.722656 0.960938 35.257812 1.425781 C 40.082031 6.023438 44.503906 11.097656 48.0625 16.765625 C 51.507812 22.246094 54.152344 28.3125 55.328125 34.714844 C 55.976562 38.222656 56.191406 41.824219 55.8125 45.375 C 55.640625 46.859375 55.386719 48.34375 54.917969 49.761719 C 54.261719 51.820312 53.398438 53.816406 52.214844 55.625 C 51.195312 57.1875 49.921875 58.578125 48.449219 59.707031 C 46.828125 60.945312 44.980469 61.847656 43.058594 62.46875 C 40.664062 63.242188 38.160156 63.621094 35.660156 63.832031 C 32.675781 64.054688 29.675781 64.09375 26.703125 63.714844 C 23.332031 63.289062 19.984375 62.386719 16.984375 60.753906 C 14.207031 59.242188 11.765625 57.027344 10.199219 54.242188 C 8.382812 51.054688 7.78125 47.28125 8.070312 43.640625 C 8.363281 39.78125 9.582031 36.042969 11.191406 32.550781 C 12.589844 29.546875 14.296875 26.703125 16.195312 23.996094 C 17.816406 21.707031 19.558594 19.507812 21.464844 17.453125 C 21.5 17.429688 21.566406 17.367188 21.605469 17.34375 C 21.570312 19.078125 21.738281 20.820312 22.230469 22.488281 C 22.730469 24.1875 23.578125 25.789062 24.703125 27.15625 C 24.769531 27.242188 24.820312 27.355469 24.941406 27.375 C 27.382812 25.523438 29.691406 23.449219 31.492188 20.953125 C 33.359375 18.375 34.609375 15.355469 35.085938 12.195312 C 35.71875 8.105469 35.175781 3.847656 33.679688 0 Z M 33.679688 0 "/></g></svg>
