<svg width="64" height="64" viewBox="0 0 64 64" version="1.1" xmlns:inkscape="http://www.inkscape.org/namespaces/inkscape"><defs><linearGradient id="linear0" gradientUnits="userSpaceOnUse" x1="0" y1="0" x2="0" y2="1" gradientTransform="matrix(62.4375,0,0,64,0.78125,0)"><stop offset="0" style="stop-color:rgb(82.352942%,61.176473%,100%);stop-opacity:1;"/><stop offset="1" style="stop-color:rgb(66.666669%,0%,100%);stop-opacity:1;"/></linearGradient><filter style="color-interpolation-filters:sRGB;" inkscape:label="Diffuse Light" id="filter184" x="-0.0375" y="-0.0375" width="1.075" height="1.075"><feGaussianBlur in="SourceGraphic" stdDeviation="1" result="blur" id="feGaussianBlur174" /><feDiffuseLighting diffuseConstant="1" surfaceScale="10" lighting-color="rgb(255,255,255)" result="diffuse" id="feDiffuseLighting178"><feDistantLight elevation="8" azimuth="235" id="feDistantLight176" /></feDiffuseLighting><feComposite in="diffuse" in2="diffuse" operator="arithmetic" k1="1" result="composite1" id="feComposite180" /><feComposite in="composite1" in2="SourceGraphic" k1="1" operator="arithmetic" k3="1" result="composite2" id="feComposite182" /></filter></defs><g id="surface1" style="filter:url(#filter184)"><path style=" stroke:none;fill-rule:evenodd;fill:url(#linear0);" d="M 8.585938 0 L 8.585938 19.042969 C 8.585938 16.859375 13.972656 12.488281 17.328125 12.488281 L 27.316406 12.488281 L 27.316406 51.511719 L 22.636719 57.757812 L 41.363281 57.757812 L 36.683594 51.511719 L 36.683594 22.636719 C 38.492188 9.859375 43.019531 6.953125 52.179688 4.683594 L 12.292969 4.683594 Z M 0.78125 23.414062 L 22.636719 23.414062 L 17.953125 29.660156 L 17.953125 57.445312 L 22.636719 64 L 0.78125 64 L 5.464844 57.445312 L 5.464844 29.660156 Z M 41.363281 23.414062 L 63.21875 23.414062 L 58.535156 29.660156 L 58.535156 57.445312 L 63.21875 64 L 41.363281 64 L 46.046875 57.445312 L 46.046875 29.660156 Z M 41.363281 23.414062 "/></g></svg>
