<?xml version="1.0" encoding="UTF-8" standalone="no"?><svg width="64" height="64" viewBox="0 0 64 64" version="1.1" id="svg609" sodipodi:docname="torrential.svg" inkscape:version="1.2.2 (b0a8486541, 2022-12-01)" xmlns:inkscape="http://www.inkscape.org/namespaces/inkscape" xmlns:sodipodi="http://sodipodi.sourceforge.net/DTD/sodipodi-0.dtd" xmlns:xlink="http://www.w3.org/1999/xlink" xmlns="http://www.w3.org/2000/svg" xmlns:svg="http://www.w3.org/2000/svg"> <sodipodi:namedview id="namedview611" pagecolor="#ffffff" bordercolor="#000000" borderopacity="0.25" inkscape:showpageshadow="2" inkscape:pageopacity="0.0" inkscape:pagecheckerboard="0" inkscape:deskcolor="#d1d1d1" showgrid="false" inkscape:zoom="3.6875" inkscape:cx="32" inkscape:cy="32.135593" inkscape:window-width="1432" inkscape:window-height="844" inkscape:window-x="0" inkscape:window-y="0" inkscape:window-maximized="1" inkscape:current-layer="svg609" /> <defs id="defs600"> <filter id="alpha" filterUnits="objectBoundingBox" x="0" y="0" width="1" height="1"> <feColorMatrix type="matrix" in="SourceGraphic" values="0 0 0 0 1 0 0 0 0 1 0 0 0 0 1 0 0 0 1 0" id="feColorMatrix560" /> </filter> <mask id="mask0"> <g filter="url(#alpha)" id="g565"> <rect x="0" y="0" width="64" height="64" style="fill:rgb(0%,0%,0%);fill-opacity:0.2;stroke:none;" id="rect563" /> </g> </mask> <linearGradient id="linear0" gradientUnits="userSpaceOnUse" x1="0" y1="0" x2="0" y2="1" gradientTransform="matrix(19.203125,0,0,47.996094,22.398437,0)"> <stop offset="0" style="stop-color:#00f5dc;stop-opacity:1;" id="stop568" /> <stop offset="1" style="stop-color:#008c7e;stop-opacity:1;" id="stop570" /> </linearGradient> <clipPath id="clip1"> <rect x="0" y="0" width="64" height="64" id="rect573" /> </clipPath> <g id="surface5" clip-path="url(#clip1)"> <path style=" stroke:none;fill-rule:nonzero;fill:url(#linear0);" d="M 32 0 C 32 0 28.800781 0 28.800781 3.199219 C 28.800781 6.398438 25.601562 6.398438 25.601562 6.398438 C 25.601562 6.398438 22.398438 6.402344 22.398438 3.199219 L 22.398438 47.996094 L 41.601562 47.996094 L 41.601562 3.199219 C 41.601562 6.398438 38.398438 6.398438 38.398438 6.398438 C 38.398438 6.398438 35.199219 6.398438 35.199219 3.199219 C 35.199219 0 32 0 32 0 Z M 32 0 " id="path576" /> </g> <mask id="mask1"> <g filter="url(#alpha)" id="g581"> <rect x="0" y="0" width="64" height="64" style="fill:rgb(0%,0%,0%);fill-opacity:0.5;stroke:none;" id="rect579" /> </g> </mask> <linearGradient id="linear1" gradientUnits="userSpaceOnUse" x1="0" y1="0" x2="0" y2="1" gradientTransform="matrix(19.203125,0,0,22.398437,22.398438,12.800781)"> <stop offset="0" style="stop-color:#00f5dc;stop-opacity:1;" id="stop584" /> <stop offset="1" style="stop-color:#008c7e;stop-opacity:1;" id="stop586" /> </linearGradient> <clipPath id="clip2"> <rect x="0" y="0" width="64" height="64" id="rect589" /> </clipPath> <g id="surface8" clip-path="url(#clip2)"> <path style=" stroke:none;fill-rule:nonzero;fill:url(#linear1);" d="M 25.601562 12.800781 C 25.601562 12.800781 22.398438 12.796875 22.398438 15.996094 L 22.398438 35.199219 L 41.601562 35.199219 L 41.601562 15.996094 C 41.601562 12.800781 38.398438 12.800781 38.398438 12.800781 C 38.398438 12.800781 35.199219 12.800781 35.199219 15.996094 C 35.199219 19.199219 32 19.199219 32 19.199219 C 32 19.199219 28.800781 19.199219 28.800781 15.996094 C 28.800781 12.800781 25.601562 12.800781 25.601562 12.800781 Z M 25.601562 12.800781 " id="path592" /> </g> <linearGradient id="linear2" gradientUnits="userSpaceOnUse" x1="0" y1="0" x2="0" y2="1" gradientTransform="matrix(44.796875,0,0,38.398438,9.601562,25.601562)"> <stop offset="0" style="stop-color:#00f5dc;stop-opacity:1;" id="stop595" /> <stop offset="1" style="stop-color:#008c7e;stop-opacity:1;" id="stop597" /> </linearGradient> <filter style="color-interpolation-filters:sRGB;" inkscape:label="Diffuse Light" id="filter2055" x="-0.053575164" y="-0.0375" width="1.1071503" height="1.075"> <feGaussianBlur in="SourceGraphic" stdDeviation="1" result="blur" id="feGaussianBlur2045" /> <feDiffuseLighting diffuseConstant="1" surfaceScale="10" lighting-color="rgb(255,255,255)" result="diffuse" id="feDiffuseLighting2049"> <feDistantLight elevation="8" azimuth="235" id="feDistantLight2047" /> </feDiffuseLighting> <feComposite in="diffuse" in2="diffuse" operator="arithmetic" k1="1" result="composite1" id="feComposite2051" /> <feComposite in="composite1" in2="SourceGraphic" k1="1" operator="arithmetic" k3="1" result="composite2" id="feComposite2053" /> </filter> </defs> <g id="surface1" style="filter:url(#filter2055)"> <use xlink:href="#surface5" mask="url(#mask0)" id="use602" /> <use xlink:href="#surface8" mask="url(#mask1)" id="use604" /> <path style=" stroke:none;fill-rule:nonzero;fill:url(#linear2);" d="M 9.601562 38.398438 L 32 64 L 54.398438 38.398438 L 41.601562 38.402344 L 41.601562 28.796875 C 41.601562 32 38.398438 32 38.398438 32 C 38.398438 32 35.199219 32 35.199219 28.796875 C 35.199219 25.601562 32 25.601562 32 25.601562 C 32 25.601562 28.800781 25.601562 28.800781 28.796875 C 28.800781 32 25.601562 32 25.601562 32 C 25.601562 32 22.398438 32 22.398438 28.796875 L 22.398438 38.398438 Z M 9.601562 38.398438 " id="path606" /> </g></svg>
