<svg width="64" height="64" viewBox="0 0 64 64" version="1.1" xmlns:inkscape="http://www.inkscape.org/namespaces/inkscape"><defs><linearGradient id="linear0" gradientUnits="userSpaceOnUse" x1="0" y1="0" x2="0" y2="1" gradientTransform="matrix(64,0,0,54.148438,0,4.925781)"><stop offset="0" style="stop-color:rgb(92.941177%,83.529413%,72.549021%);stop-opacity:1;"/><stop offset="1" style="stop-color:rgb(81.960785%,71.372551%,59.215689%);stop-opacity:1;"/></linearGradient><filter style="color-interpolation-filters:sRGB;" inkscape:label="Diffuse Light" id="filter184" x="-0.0375" y="-0.0375" width="1.075" height="1.075"><feGaussianBlur in="SourceGraphic" stdDeviation="1" result="blur" id="feGaussianBlur174" /><feDiffuseLighting diffuseConstant="1" surfaceScale="10" lighting-color="rgb(255,255,255)" result="diffuse" id="feDiffuseLighting178"><feDistantLight elevation="8" azimuth="235" id="feDistantLight176" /></feDiffuseLighting><feComposite in="diffuse" in2="diffuse" operator="arithmetic" k1="1" result="composite1" id="feComposite180" /><feComposite in="composite1" in2="SourceGraphic" k1="1" operator="arithmetic" k3="1" result="composite2" id="feComposite182" /></filter></defs><g id="surface1" style="filter:url(#filter184)"><path style=" stroke:none;fill-rule:nonzero;fill:url(#linear0);" d="M 32 4.925781 C 29.722656 4.925781 27.742188 6.484375 27.214844 8.695312 C 26.683594 10.910156 27.738281 13.199219 29.769531 14.230469 L 19.691406 34.460938 L 8.691406 25.308594 C 9.4375 24.425781 9.84375 23.308594 9.847656 22.152344 C 9.847656 19.4375 7.644531 17.230469 4.925781 17.230469 C 2.203125 17.230469 0 19.4375 0 22.152344 C 0 24.871094 2.203125 27.074219 4.925781 27.074219 C 5.261719 27.074219 5.605469 27.066406 5.925781 27 L 10.074219 46.769531 L 53.925781 46.769531 L 58.074219 27 C 58.394531 27.066406 58.742188 27.074219 59.074219 27.074219 C 61.796875 27.074219 64 24.871094 64 22.152344 C 64 19.4375 61.796875 17.230469 59.074219 17.230469 C 56.355469 17.230469 54.152344 19.4375 54.152344 22.152344 C 54.15625 23.308594 54.5625 24.425781 55.308594 25.308594 L 44.308594 34.460938 L 34.230469 14.230469 C 36.261719 13.199219 37.316406 10.910156 36.785156 8.695312 C 36.257812 6.484375 34.277344 4.925781 32 4.925781 Z M 9.847656 51.691406 L 9.847656 55.382812 C 9.847656 57.425781 11.5 59.074219 13.539062 59.074219 L 50.460938 59.074219 C 52.5 59.074219 54.152344 57.425781 54.152344 55.382812 L 54.152344 51.691406 Z M 9.847656 51.691406 "/></g></svg>
