<svg width="64" height="64" viewBox="0 0 64 64" version="1.1" xmlns:inkscape="http://www.inkscape.org/namespaces/inkscape"><defs><linearGradient id="linear0" gradientUnits="userSpaceOnUse" x1="0" y1="0" x2="0" y2="1" gradientTransform="matrix(74.20242,0,0,74.469041,-4.172154,-5.05792)"><stop offset="0" style="stop-color:rgb(100%,56.862748%,82.745099%);stop-opacity:1;"/><stop offset="1" style="stop-color:rgb(100%,0%,60.000002%);stop-opacity:1;"/></linearGradient><linearGradient id="linear1" gradientUnits="userSpaceOnUse" x1="0" y1="0" x2="0" y2="1" gradientTransform="matrix(74.20242,0,0,74.469041,-4.172154,-5.05792)"><stop offset="0" style="stop-color:rgb(100%,56.862748%,82.745099%);stop-opacity:1;"/><stop offset="1" style="stop-color:rgb(100%,0%,60.000002%);stop-opacity:1;"/></linearGradient><filter style="color-interpolation-filters:sRGB;" inkscape:label="Diffuse Light" id="filter184" x="-0.0375" y="-0.0375" width="1.075" height="1.075"><feGaussianBlur in="SourceGraphic" stdDeviation="1" result="blur" id="feGaussianBlur174" /><feDiffuseLighting diffuseConstant="1" surfaceScale="10" lighting-color="rgb(255,255,255)" result="diffuse" id="feDiffuseLighting178"><feDistantLight elevation="8" azimuth="235" id="feDistantLight176" /></feDiffuseLighting><feComposite in="diffuse" in2="diffuse" operator="arithmetic" k1="1" result="composite1" id="feComposite180" /><feComposite in="composite1" in2="SourceGraphic" k1="1" operator="arithmetic" k3="1" result="composite2" id="feComposite182" /></filter></defs><g id="surface1" style="filter:url(#filter184)"><path style=" stroke:none;fill-rule:nonzero;fill:url(#linear0);" d="M 5.273438 1.683594 C 3.148438 1.683594 1.425781 3.410156 1.425781 5.535156 L 1.425781 16.089844 L 63.078125 16.089844 L 63.078125 5.535156 C 63.078125 3.410156 61.355469 1.683594 59.222656 1.683594 Z M 5.273438 5.03125 L 9.132812 5.03125 L 12.984375 12.734375 L 5.273438 12.734375 Z M 16.839844 5.03125 L 24.542969 5.03125 L 28.398438 12.734375 L 20.691406 12.734375 Z M 32.25 5.03125 L 39.957031 5.03125 L 43.808594 12.734375 L 36.101562 12.734375 Z M 47.660156 5.03125 L 55.371094 5.03125 L 59.222656 8.882812 L 59.222656 12.734375 L 51.519531 12.734375 Z M 47.660156 5.03125 "/><path style=" stroke:none;fill-rule:nonzero;fill:url(#linear1);" d="M 1.425781 20.363281 L 1.425781 59.441406 C 1.425781 61.574219 3.148438 63.292969 5.273438 63.292969 L 59.222656 63.292969 C 61.355469 63.292969 63.078125 61.574219 63.078125 59.441406 L 63.078125 20.363281 L 1.425781 20.363281 M 22.804688 30.015625 C 23.21875 30.019531 23.664062 30.152344 24.140625 30.382812 L 44.21875 40.414062 C 46.113281 41.367188 46.113281 42.914062 44.21875 43.859375 L 24.140625 53.894531 C 22.238281 54.839844 20.691406 53.882812 20.691406 51.765625 L 20.691406 32.515625 C 20.691406 30.925781 21.570312 29.984375 22.804688 30.015625 "/></g></svg>
