<svg width="64" height="64" viewBox="0 0 64 64" version="1.1" xmlns:inkscape="http://www.inkscape.org/namespaces/inkscape"><defs><linearGradient id="linear0" gradientUnits="userSpaceOnUse" x1="0" y1="0" x2="0" y2="1" gradientTransform="matrix(98.289998,0,0,76.168839,-11.95054,-2.471374)"><stop offset="0" style="stop-color:rgb(61.176473%,69.803923%,85.09804%);stop-opacity:1;"/><stop offset="1" style="stop-color:rgb(44.313726%,52.156866%,65.882355%);stop-opacity:1;"/></linearGradient><filter style="color-interpolation-filters:sRGB;" inkscape:label="Diffuse Light" id="filter184" x="-0.0375" y="-0.0375" width="1.075" height="1.075"><feGaussianBlur in="SourceGraphic" stdDeviation="1" result="blur" id="feGaussianBlur174" /><feDiffuseLighting diffuseConstant="1" surfaceScale="10" lighting-color="rgb(255,255,255)" result="diffuse" id="feDiffuseLighting178"><feDistantLight elevation="8" azimuth="235" id="feDistantLight176" /></feDiffuseLighting><feComposite in="diffuse" in2="diffuse" operator="arithmetic" k1="1" result="composite1" id="feComposite180" /><feComposite in="composite1" in2="SourceGraphic" k1="1" operator="arithmetic" k3="1" result="composite2" id="feComposite182" /></filter></defs><g id="surface1" style="filter:url(#filter184)"><path style=" stroke:none;fill-rule:nonzero;fill:url(#linear0);" d="M 30.585938 1.414062 C 28.0625 1.414062 26.1875 2.980469 26.039062 4.917969 L 26.039062 43.550781 L 9.527344 32.871094 C 8.640625 32.1875 7.476562 31.839844 6.308594 31.839844 C 5.144531 31.839844 3.984375 32.1875 3.101562 32.871094 C 2.203125 33.558594 1.765625 34.453125 1.765625 35.359375 C 1.765625 36.257812 2.203125 37.148438 3.101562 37.839844 L 30.585938 57.59375 C 30.585938 57.59375 36.296875 62.28125 44.242188 62.28125 C 54.289062 62.28125 62.441406 57.039062 62.441406 50.570312 L 62.441406 27.164062 C 62.441406 25.863281 61.089844 24.816406 59.410156 24.816406 L 56.375 24.816406 L 56.375 36.527344 L 53.34375 36.527344 L 53.34375 22.070312 C 53.34375 20.773438 51.984375 19.730469 50.304688 19.730469 L 47.273438 19.730469 L 47.273438 34.1875 L 44.242188 34.1875 L 44.242188 14.871094 C 44.242188 13.894531 42.886719 13.113281 41.199219 13.113281 C 39.527344 13.113281 38.167969 13.894531 38.167969 14.871094 L 38.167969 31.839844 L 35.136719 31.839844 L 35.136719 4.917969 C 35.136719 2.972656 33.109375 1.414062 30.585938 1.414062 Z M 30.585938 1.414062 "/></g></svg>
