<svg width="64" height="64" viewBox="0 0 64 64" version="1.1" xmlns:inkscape="http://www.inkscape.org/namespaces/inkscape"><defs><linearGradient id="linear0" gradientUnits="userSpaceOnUse" x1="0" y1="0" x2="0" y2="1" gradientTransform="matrix(56,0,0,35.898438,4,14.050781)"><stop offset="0" style="stop-color:rgb(81.960785%,70.980394%,59.215689%);stop-opacity:1;"/><stop offset="1" style="stop-color:rgb(65.098041%,53.725493%,41.568628%);stop-opacity:1;"/></linearGradient><filter style="color-interpolation-filters:sRGB;" inkscape:label="Diffuse Light" id="filter184" x="-0.0375" y="-0.0375" width="1.075" height="1.075"><feGaussianBlur in="SourceGraphic" stdDeviation="1" result="blur" id="feGaussianBlur174" /><feDiffuseLighting diffuseConstant="1" surfaceScale="10" lighting-color="rgb(255,255,255)" result="diffuse" id="feDiffuseLighting178"><feDistantLight elevation="8" azimuth="235" id="feDistantLight176" /></feDiffuseLighting><feComposite in="diffuse" in2="diffuse" operator="arithmetic" k1="1" result="composite1" id="feComposite180" /><feComposite in="composite1" in2="SourceGraphic" k1="1" operator="arithmetic" k3="1" result="composite2" id="feComposite182" /></filter></defs><g id="surface1" style="filter:url(#filter184)"><path style=" stroke:none;fill-rule:nonzero;fill:url(#linear0);" d="M 1.964844 4.03125 L 1.964844 18.1875 L 6.898438 18.1875 L 6.898438 55.9375 L 16.769531 55.9375 L 16.769531 51.21875 L 11.835938 51.21875 L 11.835938 37.0625 L 16.769531 37.0625 L 16.769531 32.34375 L 11.835938 32.34375 L 11.835938 18.1875 L 16.769531 18.1875 L 16.769531 4.03125 Z M 21.703125 27.625 L 21.703125 41.78125 L 36.511719 41.78125 L 36.511719 27.625 Z M 41.445312 32.34375 L 41.445312 37.0625 L 61.1875 37.0625 L 61.1875 32.34375 Z M 21.710938 46.5 L 21.710938 60.652344 L 36.515625 60.652344 L 36.515625 46.5 Z M 41.445312 51.21875 L 41.445312 55.9375 L 61.1875 55.9375 L 61.1875 51.21875 Z M 41.445312 51.21875 "/></g></svg>
