<?xml version="1.0" encoding="UTF-8" standalone="no"?><svg width="64" height="64" viewBox="0 0 64 64" version="1.1" id="svg5" sodipodi:docname="tromchat.svg" inkscape:version="1.2.2 (b0a8486541, 2022-12-01)" xmlns:inkscape="http://www.inkscape.org/namespaces/inkscape" xmlns:sodipodi="http://sodipodi.sourceforge.net/DTD/sodipodi-0.dtd" xmlns="http://www.w3.org/2000/svg" xmlns:svg="http://www.w3.org/2000/svg"> <defs id="defs9"> <filter style="color-interpolation-filters:sRGB;" inkscape:label="Diffuse Light" id="filter179" x="-0.072951754" y="-0.059912284" width="1.1459035" height="1.1198246"> <feGaussianBlur in="SourceGraphic" stdDeviation="1" result="blur" id="feGaussianBlur169" /> <feDiffuseLighting diffuseConstant="1" surfaceScale="10" lighting-color="rgb(255,255,255)" result="diffuse" id="feDiffuseLighting173"> <feDistantLight elevation="8" azimuth="235" id="feDistantLight171" /> </feDiffuseLighting> <feComposite in="diffuse" in2="diffuse" operator="arithmetic" k1="1" result="composite1" id="feComposite175" /> <feComposite in="composite1" in2="SourceGraphic" k1="1" operator="arithmetic" k3="1" result="composite2" id="feComposite177" /> </filter> </defs> <sodipodi:namedview id="namedview7" pagecolor="#ffffff" bordercolor="#000000" borderopacity="0.25" inkscape:showpageshadow="2" inkscape:pageopacity="0.0" inkscape:pagecheckerboard="0" inkscape:deskcolor="#d1d1d1" showgrid="false" inkscape:zoom="3.6875" inkscape:cx="32" inkscape:cy="32.135593" inkscape:window-width="1432" inkscape:window-height="844" inkscape:window-x="0" inkscape:window-y="0" inkscape:window-maximized="1" inkscape:current-layer="svg5" /> <g id="surface1" style="fill:#deb887;filter:url(#filter179)" transform="matrix(1.6012646,0,0,1.5112914,-21.692432,-14.687971)"> <path style="fill:#deb887;fill-opacity:1;fill-rule:evenodd;stroke:none" d="m 25.601562,48.601562 c -0.0078,0 -0.01172,0.0039 -0.01953,0.0039 0.0625,0.05469 0.914063,0.539062 0.960938,0.539062 0.04687,0 0.09766,0 0.148437,0 -0.03125,-0.351562 -0.238281,-0.882812 -0.238281,-1.132812 0,-0.414063 0.261719,-1.859375 0.476563,-1.9375 0,-0.222657 0.332031,-0.730469 0.4375,-0.9375 0.08984,-0.179688 0.394531,-0.789063 0.582031,-0.789063 0.01172,0 0.01953,0 0.03125,0 0.06641,0 0.08984,0.01953 0.08984,0.08984 0,0.0078 0,0.01953 0,0.02734 0,0.289062 -0.808593,0.957031 -0.8125,1.484375 -0.148437,0.109375 -0.199218,0.472656 -0.242187,0.65625 -0.03125,0.121093 -0.08594,0.503906 -0.08594,0.660156 0,0.01172 0,0.01953 0,0.03125 0,1.035156 0.316406,2.121094 0.832031,2.628906 0.132812,0.128907 0.300781,0.3125 0.445312,0.421875 0.195313,0.144532 0.34375,0.203125 0.539063,0.328125 0.300781,0.1875 0.859375,0.40625 1.332031,0.40625 0,0.01563 0,0.03516 0,0.05078 0.277344,0.02344 0.558594,0.04297 0.835937,0.06641 1.738282,0.152343 2.832032,-1.21875 3.65625,-2.027344 0.234376,-0.234375 0.394532,-0.539063 0.722657,-0.679687 0.28125,-0.121094 0.628906,-0.394532 0.84375,-0.59375 0.28125,-0.261719 0.4375,-0.417969 0.675781,-0.726563 0.238281,-0.308594 0.324219,-0.636719 0.515625,-0.917969 0,-0.140625 -0.01172,-0.226562 0.08984,-0.269531 0,-0.1875 0,-0.375 0,-0.566406 0,-0.484375 -0.04687,-0.4375 -0.191407,-0.851563 -0.05469,-0.152344 -0.347656,-0.710937 -0.347656,-0.785156 0,-0.07031 0,-0.140625 0,-0.210938 0,-0.289062 0.3125,-0.902343 0.4375,-1.113281 0.03906,-0.0625 0.308594,-0.347656 0.371094,-0.40625 0.07422,-0.07422 0.253906,-0.449219 0.246094,-0.566406 -0.01172,-0.121094 -0.02344,-0.238281 -0.03125,-0.359375 -0.02344,-0.02734 -0.04297,-0.05859 -0.06641,-0.08594 0,-0.203124 -0.191407,-0.515624 -0.289063,-0.632812 -0.08594,-0.101562 -0.382813,-0.410156 -0.519531,-0.410156 -0.03906,0 -0.07813,0 -0.121094,0 C 36.691406,39.460938 34.480469,39.398438 34,39.042969 c -0.296875,-0.03125 -0.597656,-0.05859 -0.898438,-0.08984 -0.277343,-0.08594 -0.238281,-0.574219 -0.328124,-0.65625 -0.0625,-0.07813 -0.25,-0.0625 -0.269532,-0.05859 -0.179687,0.01953 -0.363281,0.03516 -0.542968,0.05469 -0.02734,0.02344 -0.05859,0.04297 -0.08594,0.0625 -0.183594,0 -1.050781,0.125 -1.050781,0.210937 0,0.230469 0.628906,0.480469 0.835937,0.570313 0.152344,0.06641 0.886719,0.410156 0.992188,0.414062 0.01953,0.07031 0.230468,0.238281 0.269531,0.238281 0.109375,0 0.324219,0.210938 0.417969,0.296876 0.113281,0.105468 0.214844,0.21875 0.324218,0.332031 0.101563,0.105469 0.515626,0.628906 0.515626,0.769531 0,0.589844 -0.425782,-0.203125 -0.589844,-0.363281 -0.101563,-0.101563 -0.566406,-0.511719 -0.578125,-0.621094 -0.09375,-0.0078 -0.414063,-0.3125 -0.558594,-0.394531 -0.199219,-0.117188 -0.410156,-0.253906 -0.609375,-0.347656 -0.140625,-0.07031 -0.15625,-0.113282 -0.316406,-0.160157 -0.08594,-0.02734 -0.25,-0.113281 -0.324219,-0.15625 -0.121094,-0.07422 -0.953125,-0.488281 -1.125,-0.488281 -0.01953,0 -0.04297,0 -0.0625,0 -0.09766,0 -0.550781,0.207031 -0.566406,0.207031 -0.25,0 -0.453125,-0.148437 -0.71875,-0.148437 -0.04297,0 -0.08203,0 -0.121094,0 -0.386719,0 -1.042969,0.164062 -1.335937,0.28125 -0.796876,0.308594 -1.304688,0.671875 -2.058594,0.992187 -0.25,0.109375 -0.644532,0.53125 -0.800782,0.574219 0.128907,-0.554688 1.464844,-1.273438 1.902344,-1.476562 0.144532,-0.06641 0.191406,-0.09375 0.320313,-0.15625 0.257812,-0.128907 0.40625,-0.148438 0.679687,-0.25 0.101563,-0.03516 1.578125,-0.621094 1.171875,-0.621094 -0.0039,0 -0.332031,-0.08984 -0.429687,-0.105469 -0.175782,-0.03125 -0.375,-0.01172 -0.558594,-0.01172 -0.339844,0 -0.71875,-0.0625 -1.078125,-0.0625 -0.191406,-0.05859 -2.261719,-0.464844 -2.457031,-1.191406 0.171875,0.04297 0.445312,0.28125 0.601562,0.355469 0.46875,0.210937 0.976563,0.460937 1.492188,0.554687 0.105468,0.04687 0.390625,0.105469 0.511718,0.105469 0.160157,0 0.320313,0 0.480469,0 0.08203,0 0.08203,-0.01563 0.148438,-0.03125 -0.0039,-0.253906 -0.3125,-0.289063 -0.484375,-0.367187 -0.1875,-0.0625 -0.378906,-0.121094 -0.570313,-0.179688 0.01953,-0.07813 0.597657,0.02734 0.695313,0.03516 0.08984,0.01953 0.796875,0.191406 0.898437,0.214844 0.140625,0.132812 0.429688,0.01953 0.601563,0.148438 0.179687,0 1.015625,0.269531 1.121094,0.34375 0.285156,0.1875 1.039062,0.03906 1.402343,0.09766 0.160157,0.02344 1.214844,-0.03516 1.386719,-0.06641 0.1875,-0.03125 0.546875,-0.03125 0.679688,-0.07422 0.160156,-0.05078 0.429687,-0.152344 0.5625,-0.183594 -0.01172,-0.515625 -1.949219,-0.929687 -2.007813,-1.070313 -0.1875,0 -0.765625,-0.207031 -0.996094,-0.261718 -0.460937,-0.117188 -0.886719,-0.226563 -1.3125,-0.300782 -0.03125,-0.02344 -0.05859,-0.04297 -0.08594,-0.0625 -0.289063,0 -0.453125,-0.05078 -0.710938,-0.101562 -0.109375,-0.02344 -0.636718,-0.136719 -0.699218,-0.136719 -0.453126,0 -0.867188,-0.175781 -1.378907,-0.179687 -0.28125,-0.0039 -0.910156,-0.01953 -0.988281,-0.210938 -0.171875,0 -0.878906,-0.210937 -1.078125,-0.269531 -0.144531,-0.03906 -1.015625,-0.175781 -1.167969,-0.175781 -0.140625,-0.0039 -0.28125,-0.0078 -0.421875,-0.01172 -0.339843,0.02344 -0.675781,0.04687 -1.015625,0.07031 0,0.03125 0,0.05859 0,0.08984 0,0.140625 0.589844,0.28125 0.628906,0.386719 0.398438,0 0.652344,0.238281 0.957032,0.238281 0.03906,0 0.08203,0 0.121094,0 0.08984,0.21875 0.75,0 0.777343,0.285157 -0.328125,-0.0039 -0.660156,-0.0078 -0.992187,-0.01172 -0.02734,-0.01563 -0.05859,-0.02734 -0.08984,-0.04297 -0.316406,-0.06641 -0.636719,-0.132812 -0.953125,-0.199219 -0.390625,-0.257812 -1.46875,-0.355469 -1.46875,-1.011719 0,-0.0625 0.05078,-0.132812 0.05859,-0.238281 0.152343,-0.01563 0.210937,-0.08984 0.269531,-0.08984 0.101562,0 0.199219,0 0.300781,0 0.125,0 0.46875,0.144531 0.597657,0.179687 0.171874,0.04297 0.53125,0.05859 0.75,0.05859 0.03125,0 0.0625,0 0.08984,0 0,0.01953 0,0.03906 0,0.05859 0.363281,0 0.828125,0.05078 1.171875,0.08594 0.25,0.02734 0.324219,0.02344 0.546875,0.08203 0.09766,0.02344 0.492188,0.128907 0.527344,0.128907 0.03125,0 0.0625,0 0.08984,0 0,0.01953 0,0.03906 0,0.05859 0.04297,0 0.08203,0 0.121093,0 0.01172,0 0.378907,0.183594 0.449219,0.210938 0.222657,0.08594 0.398438,0.02734 0.605469,0.08203 0.242188,0.0625 0.949219,0.09766 1.257812,0.09375 0.02734,0.01953 0.05469,0.03906 0.08594,0.0625 0.808594,0 3.449219,0.425781 4.285156,0.984375 0.234375,0 1.535156,0.578125 1.816406,0.691406 0.226563,0.08984 0.511719,0.394531 0.71875,0.539063 0.371094,0.261718 0.539063,0.05078 1.027344,0.05078 0.105469,-0.07031 0.632813,-0.226563 0.820313,-0.320313 0.199219,-0.09375 0.539062,-0.328124 0.6875,-0.476562 0.320312,-0.324219 0.769531,-0.941406 0.769531,-1.558594 0,-0.132812 0.06641,-0.804687 -0.05859,-0.804687 0,-0.378907 -0.160156,-0.476563 -0.179687,-0.535157 -0.07422,-0.07422 -0.01953,-0.02344 -0.08984,-0.121093 -0.05078,-0.242188 -0.910156,-1.144531 -1.113281,-1.304688 -0.234375,-0.183593 -0.441406,-0.363281 -0.707032,-0.519531 -0.04687,-0.02734 -0.847656,-0.476562 -0.847656,-0.199219 0,0.02734 0,0.05859 0,0.08594 0,0.195312 0.08984,0.308593 0.08984,0.359375 0,0.08984 0,0.175781 0,0.265625 -0.07031,0.01172 -0.140625,0.01953 -0.207031,0.03125 -0.01953,-0.222657 -0.78125,-0.851563 -0.980469,-1.023438 -0.144531,-0.128906 -0.339844,-0.242187 -0.457031,-0.347656 -0.06641,-0.0625 -0.414063,-0.296875 -0.484375,-0.324219 -0.0625,-0.02344 -0.527344,-0.238281 -0.542969,-0.261718 -0.04687,-0.06641 -0.05469,-0.164063 -0.136719,-0.253907 -0.05859,-0.07031 -0.140625,-0.128906 -0.21875,-0.171875 -0.148437,-0.08594 -0.40625,-0.144531 -0.644531,-0.160156 -0.414063,-0.02344 -1,0.101562 -1.484375,0.09766 -0.02734,0.01953 -0.05859,0.03906 -0.08594,0.05859 -0.121093,0.01172 -0.238281,0.02344 -0.359374,0.03516 -0.261719,0 -0.519532,0.0039 -0.78125,0.0039 -0.148438,-0.01172 -0.296876,-0.02344 -0.449219,-0.03516 -0.02734,-0.07422 -0.335938,-0.195312 -0.414063,-0.269531 -0.144523,-0.13671 -0.23046,-0.203116 -0.433586,-0.285147 -0.207031,-0.08984 -0.199218,-0.148438 -0.492187,-0.226563 -0.109375,-0.02734 -0.472656,-0.09766 -0.515625,-0.203125 -0.21875,0 -0.21875,-0.05859 -0.390625,-0.05859 -0.289063,0 -0.578125,0 -0.867187,0 -0.1875,0 -0.3125,0.08984 -0.601563,0.08984 -0.238281,0 -0.433594,0.0039 -0.652344,0.03516 -0.199219,0.03125 -0.410156,0.08594 -0.578125,0.109374 -0.304687,0.04688 -0.273437,0.179688 -0.503906,0.183594 -0.04297,0.07422 -0.417969,0.324219 -0.515625,0.414063 -0.167969,0.15625 -0.382813,0.238281 -0.582031,0.371093 -0.316406,0.210938 -0.835938,0.578126 -1.050782,0.863282 -0.07812,0.109375 -0.117187,0.132812 -0.203124,0.246094 -0.0625,0.07422 -0.15625,0.222656 -0.203126,0.273437 -0.15625,0.160156 -0.214843,0.457031 -0.328124,0.628906 -0.183594,0.402344 -0.59375,1.027344 -0.59375,1.464844 0,0.210937 -0.160157,0.394531 -0.242188,0.59375 -0.05859,0.199219 -0.117188,0.398437 -0.179688,0.597656 -0.02734,0.109375 -0.05859,0.21875 -0.08984,0.328125 0,0.06641 0,0.136719 0,0.207032 -0.08203,0.753906 -0.160157,1.507812 -0.238281,2.265624 -0.01953,0 -0.03906,0 -0.05859,0 0,0.05859 0,0.117188 0,0.179688 0,0.570312 -0.175782,1.753906 -0.265625,2.328125 -0.05859,0.394531 -0.121094,0.78125 -0.152344,1.15625 -0.03125,0.339844 -0.183594,0.832031 -0.183594,1.132813 0,0.652343 0.05469,1.164062 0.152344,1.847656 0,0.04687 0,0.09766 0,0.148437 0.0625,0.02344 0.273437,0.589844 0.320313,0.695313 0.125,0.269531 0.25,0.421875 0.398437,0.644531 0.261719,0.398437 0.671875,0.746094 1.070313,1.019531 0.113281,0.07422 0.539062,0.367188 0.648437,0.398438 0.191406,0.05469 0.203125,0.05859 0.359375,0.152344 0.117188,0.06641 0.28125,0.08203 0.402344,0.132812 0.316406,0.125 1.292968,0.375 1.714844,0.382812 0.03125,-0.08203 0.351562,-0.167968 0.441406,-0.246093 0.136718,-0.117188 0.261718,-0.171875 0.515625,-0.171875 0.527343,0.0039 0.863281,-0.08984 1.316406,-0.08984 0.140625,0 0.28125,0 0.421875,0 0.08203,0 0.08203,0.01563 0.148438,0.03125 0,0.03906 0,0.07813 0,0.121094 0,0.08203 -0.09375,0.132812 -0.148438,0.175781 -0.214844,0.02344 -0.496094,0.171875 -0.546875,0.355469 0.0039,-0.01172 0.01172,-0.02344 0.01563,-0.03516 0.265625,0.128906 0.527344,0.261718 0.789062,0.390624 z M 35.800781,16.335938 c 0,0.148437 -1.109375,3.441406 -1.191406,3.578124 -0.01172,0.148438 -0.02734,0.296876 -0.03906,0.445313 -0.472656,0.316406 -0.792968,1.246094 -0.976562,1.890625 -0.08984,0.320312 -0.730469,2.007812 -0.730469,2.132812 0,0.07031 0,0.140626 0,0.207032 0,0.324218 1.167969,0.125 1.167969,0.390625 0,0.02734 0,0.05859 0,0.08594 -0.125,0.03125 -0.253906,0.04687 -0.265625,0.167969 0.148437,0.02344 0.296875,0.04687 0.445313,0.07031 0,0.05078 0,0.101562 0,0.152343 -0.121094,0.0078 -0.06641,0.02734 -0.179688,0.02734 -0.476562,0 -0.675781,-0.05859 -0.984375,0.210937 -0.128906,0.109376 -0.210937,0.167969 -0.324219,0.304688 -0.109375,0.125 -0.167968,0.324219 -0.25,0.378906 0,0.175782 -0.164062,0.617188 -0.179687,0.894532 -0.01953,0.390624 -0.08594,0.539062 -0.01172,0.964843 0.07031,0.394531 0.07422,0.550781 0.21875,0.855469 0.04297,0.101562 0.125,0.273438 0.191406,0.347656 0.07813,0.08984 0.289063,0.15625 0.320313,0.246094 0.109375,0 0.222656,0 0.332031,0 0.289062,0 0.75,-0.320312 0.953125,-0.453125 0.148437,-0.09766 0.246094,-0.21875 0.371094,-0.34375 0.449219,-0.453125 1.070312,-1.691406 1.070312,-2.214844 0,-0.07031 -0.296875,-0.378906 -0.367187,-0.4375 -0.121094,-0.105469 -0.40625,-0.203125 -0.410156,-0.394531 0.03516,-0.01172 0.08203,-0.03125 0.08984,-0.03125 0.324219,0 0.542969,0.328125 0.660157,0.328125 0.414062,0 0.75,-0.609375 0.933593,-0.886719 0.148438,-0.222656 0.5625,-0.96875 0.589844,-1.28125 0.128906,-0.464844 0.257813,-0.933594 0.386719,-1.402344 0.04297,-0.160156 0.08594,-0.320312 0.125,-0.480468 -0.179688,-0.273438 -0.847656,-0.464844 -1.199219,-0.597656 -0.21875,-0.08203 -0.402344,-0.167969 -0.675781,-0.222657 -0.214844,-0.03906 -0.609375,-0.09375 -0.609375,-0.3125 0,-0.261719 0.253906,-0.210937 0.417969,-0.210937 0.07031,0 0.140624,0 0.210937,0 0.08203,-0.304688 0.839844,-0.175782 1.195313,-0.175782 0.04687,0.105469 0.390624,0.195313 0.523437,0.226563 0.238281,0.05078 0.378906,0.160156 0.585937,0.160156 0.0625,0 0.183594,-0.171875 0.242188,-0.210937 0,-0.300782 0.242188,-1.390625 0.386719,-1.488282 0,-0.199218 0.652343,-1.636718 0.742187,-1.941406 0.167969,-0.546875 0.578125,-1.503906 0.578125,-2.140625 0,-0.742187 -0.71875,-1.429687 -1.4375,-1.429687 -0.101562,0 -0.203125,0 -0.300781,0 -0.316406,0 -0.785156,0.179687 -0.988281,0.296875 -0.53125,0.308593 -0.324219,0.226562 -0.683594,0.632812 -0.09766,0.113281 -0.429687,0.636719 -0.5,0.78125 -0.07031,0.136719 -0.359375,0.851563 -0.433594,0.878907 z m -8.03125,-2.917969 c -0.1875,0.277343 -0.300781,2.390625 -0.289062,2.964843 0.06641,0.05469 0.132812,0.109376 0.199219,0.164063 0.03125,0 0.05859,0 0.08984,0 0.06641,0 0.06641,0.02344 0.121094,0.05859 0.179687,0.0078 0.359375,0.01953 0.539063,0.03125 0,0.417969 -0.515626,0.28125 -0.628907,0.773437 -0.1875,0.01563 -0.667969,0.371094 -0.722656,0.535156 -0.109375,0.351563 -0.207031,0.574219 -0.207031,1.042969 0,0.859375 -0.128906,1.550781 -0.117188,2.414063 0,0.304687 -0.160156,1.226562 0.01953,1.667968 0.05859,0.144532 0.15625,0.238282 0.308593,0.238282 0.04687,0 0.09766,0 0.148438,0 0,0.03125 0,0.0625 0,0.08984 0,0.148437 -0.519531,0.390624 -0.640625,0.644531 -0.08984,0.191406 -0.257813,0.773437 -0.257813,1.023437 -0.0078,0.300782 -0.01563,0.597656 -0.02344,0.898438 0.04687,0.375 0.09375,0.753906 0.144531,1.128906 0.132813,0.199219 0.191406,0.351562 0.402344,0.492188 0.144531,0.09375 0.453125,0.222656 0.675781,0.222656 0.07031,0 0.136719,0 0.207031,0 0.929688,0 1.769531,-1.683594 1.769531,-2.652344 0.01953,0 0.03516,0 0.05469,0 0.01172,-0.167969 0.02344,-0.335938 0.03516,-0.503906 0,-0.03125 0,-0.0625 0,-0.08984 0,-0.511719 -0.03906,-0.773438 -0.570312,-0.832031 -0.08203,-0.01172 -0.429688,0.01563 -0.535156,0.02734 -0.308594,0.03516 -0.640626,0.148438 -0.992188,0.148438 -0.05078,0 -0.08984,-0.01953 -0.08984,-0.05859 0,-0.207031 0.453125,-0.398437 0.636719,-0.441406 0.542969,-0.132812 0.871094,-0.246094 1.429687,-0.246094 0.01953,0.05078 0.160157,0.121094 0.210938,0.121094 0.367188,0 0.05469,-0.328125 -0.148438,-0.328125 -0.269531,0 -0.542968,-0.0039 -0.8125,-0.0039 -0.226562,0.03125 -0.457031,0.0625 -0.6875,0.09375 -0.06641,0.0078 -0.08203,-0.02344 -0.179687,-0.03125 0,-0.03906 0,-0.07813 0,-0.117188 0.167969,-0.04687 0.398437,-0.328125 0.75,-0.328125 0.519531,0 1.199219,0.265625 1.199219,-0.328125 0,-0.07422 0.363281,-0.886719 0.40625,-1.113281 0.07422,-0.375 0.28125,-0.902344 0.277344,-1.273438 0.01953,-0.03125 0.04297,-0.05859 0.0625,-0.08594 0,-0.441406 0.113281,-0.792969 0.01562,-1.234375 -0.148437,-0.664062 -0.503906,-0.683594 -0.554687,-0.816406 -0.117187,-0.01172 -0.238281,-0.02344 -0.359375,-0.03516 -0.566406,-0.06641 -1.3125,0.148437 -1.820312,0.148437 -0.01172,-0.0625 -0.02344,-0.121094 -0.03516,-0.179687 0.316407,-0.167969 0.476563,-0.207032 0.957031,-0.207032 0.175782,0 1.050782,0.136719 1.050782,0.02734 0,-0.199219 -0.910156,-0.277344 -1.140625,-0.296875 0,-0.03125 0,-0.05859 0,-0.08984 0,-0.144531 0.511719,-0.148437 0.628906,-0.148437 0.191406,0 0.394531,0.04687 0.511719,0.121094 0.214844,0.132812 0.199218,0.113281 0.476562,0.175781 0.109375,-0.199219 0.351563,-0.46875 0.417969,-0.714844 0.07422,-0.269531 0.214844,-0.503906 0.289063,-0.84375 0.136718,-0.585937 0.28125,-1.324219 0.28125,-2.015625 0,-0.03906 0,-0.07813 0,-0.121094 0,-0.398437 -0.07422,-0.964844 -0.148438,-1.308594 C 31.039062,11.84375 30.527344,11.5 30.496094,11.390625 c -0.195313,-0.0039 -0.398438,-0.238281 -0.628906,-0.238281 -0.238282,0 -0.480469,0 -0.71875,0 -0.109376,0 -0.523438,0.230468 -0.605469,0.292968 -0.117188,0.09375 -0.320313,0.378907 -0.398438,0.527344 -0.144531,0.265625 -0.375,1.058594 -0.375,1.445313 z m 17.886719,4.828125 c -0.05078,0 -0.101562,0 -0.148438,0 -0.492187,0 -1.109374,0.410156 -1.378906,0.65625 -0.136718,0.128906 -0.742187,0.96875 -0.859375,1.171875 -0.07422,0.125 -0.324219,0.5 -0.417969,0.597656 -0.05859,0.05859 -0.308593,0.523437 -0.378906,0.636719 -0.125,0.203125 -0.621094,1.183594 -0.621094,1.433594 -0.148437,0.101562 -0.609374,0.875 -0.628906,1.105468 0.07031,0 0.703125,0.15625 0.796875,0.1875 0.0078,0.0039 0.324219,0.152344 0.347657,0.164063 0.128906,0.06641 0.226562,0.195312 0.292968,0.214843 0,0.02734 0,0.05859 0,0.08594 -0.453125,0.03906 -0.617187,-0.207031 -0.957031,-0.207031 0.05859,0.261719 0.386719,0.363281 0.386719,0.566406 0,0.03125 0,0.05859 0,0.08984 -0.04687,0 -0.09766,0 -0.148438,0 -0.34375,0 -0.863281,-0.449219 -1.140625,-0.449219 -0.113281,0 -1.042969,1.402344 -1.1875,1.589844 -0.195312,0.253906 -1.035156,1.460937 -1.054687,1.746094 0.128906,0.05859 0.257812,0.121093 0.386718,0.183593 0,0.05859 0,0.117188 0,0.175781 -0.105468,0.02734 -0.101562,0.0625 -0.210937,0.0625 -0.02734,0 -0.05859,0 -0.08984,0 -0.46875,0 -0.527343,-0.292968 -0.539062,0.296876 -0.488281,0.03906 -1.128907,1.25 -1.347657,1.609374 C 36.578125,30.453125 36.25,30.90625 36.25,31.355469 c 0,0.03906 0,0.07813 0,0.117187 0,0.476563 0.484375,0.984375 0.957031,0.984375 0.07031,0.0039 0.140625,0.0078 0.210938,0.01172 0.167969,-0.02344 0.339843,-0.04687 0.507812,-0.07031 0.04297,-0.105469 0.148438,-0.06641 0.269531,-0.148438 0.101563,-0.06641 0.164063,-0.109375 0.257813,-0.191406 0.09766,-0.07813 0.449219,-0.332032 0.460937,-0.433594 0.179688,-0.01563 0.503907,-0.34375 0.632813,-0.449219 0.01172,-0.0078 0.21875,-0.238281 0.253906,-0.277343 0.06641,-0.07031 0.132813,-0.285157 0.132813,-0.40625 0,-0.03906 0,-0.08203 0,-0.121094 0,-0.132813 -0.08594,-0.164063 -0.08984,-0.355469 -0.179688,-0.04687 -0.160156,-0.324219 -0.292969,-0.417969 -0.01172,-0.128906 -0.02344,-0.257812 -0.03516,-0.386718 -0.08984,-0.136719 -0.480469,-0.441407 -0.480469,-0.566407 0,-0.07031 0.01953,-0.08984 0.08984,-0.08984 0.05859,0 0.121094,0 0.179688,0 0.339843,0 0.523437,0.34375 0.785156,0.441406 0.332031,0.121094 0.585937,0.542968 0.710937,0.542968 0.179688,0 0.59375,-0.40625 0.722657,-0.507812 0.234374,-0.1875 0.367187,-0.449219 0.554687,-0.695312 C 42.25,28.113281 42.929688,27 42.929688,26.707031 c 0,-0.07422 -0.410157,-0.527343 -0.417969,-0.894531 0.355469,0.03125 0.445312,0.566406 0.597656,0.566406 0.05859,0 0.121094,-0.05469 0.121094,-0.08984 0,-0.410156 -0.527344,-0.679687 -0.601563,-0.953124 0.03906,-0.01953 0.03516,-0.03125 0.08984,-0.03125 0.121094,0 0.65625,0.367187 0.691406,0.449218 0.02734,0 0.05859,0 0.08984,0 0.06641,0 0.121094,0.08984 0.359375,0.08984 0.01953,-0.05078 0.148437,-0.160156 0.214844,-0.265625 0.08203,-0.132813 0.144531,-0.175781 0.144531,-0.359375 0.140625,-0.210938 0.167969,-0.53125 0.273438,-0.710938 0.04687,-0.08203 0.125,-0.257812 0.167968,-0.3125 0.08594,-0.121093 0.07422,-0.230468 0.152344,-0.355468 0.195312,-0.308594 0.417969,-1.066406 0.679688,-1.289063 0.183593,-0.152343 0.328124,-0.01953 0.601562,-0.386719 0.125,-0.167968 0.273438,-0.417968 0.382812,-0.601562 0.125,-0.222656 0.234376,-0.40625 0.34375,-0.640625 0.07813,-0.171875 0.199219,-0.628906 0.265626,-0.742187 0.02344,-0.15625 0.04687,-0.316407 0.07031,-0.476563 0,-0.0078 0,-0.01953 0,-0.02734 0,-0.355469 -0.132812,-0.769531 -0.308594,-0.949219 -0.171875,-0.175781 -0.453125,-0.480468 -0.773437,-0.480468 -0.02734,0 -0.05859,0 -0.08984,0 0,-0.01953 0,-0.04297 0,-0.0625 -0.109375,0 -0.21875,0 -0.328125,0 0,0.01953 0,0.04297 0,0.0625 z m 0.269531,23.539062 c -0.132812,0 -0.875,0.476563 -0.960937,0.5625 -0.03125,0.02734 -0.08984,0.136719 -0.167969,0.21875 -0.07422,0.07031 -0.132813,0.117188 -0.214844,0.175782 -0.636719,0.484374 -0.238281,-0.06641 -0.632812,-0.06641 -0.183594,0 -0.394531,0.328125 -0.492188,0.464844 -0.07813,0.113281 -0.46875,0.335937 -0.648437,0.339844 0.0078,-0.203125 0.0625,-0.08984 0.0625,-0.207031 0,-0.01953 0,-0.03906 0,-0.05859 0,-0.05859 -0.05469,-0.121094 -0.08984,-0.121094 -0.414062,0 -0.660156,0.867188 -0.867188,0.816406 -0.429687,-0.0625 -0.859374,-0.128906 -1.285156,-0.191406 -0.0039,0.01172 -0.0039,0.01953 -0.0078,0.03125 -0.01953,-0.0078 -0.03906,-0.01953 -0.0625,-0.02734 -0.507813,0.05859 -1.015625,0.117188 -1.523438,0.175782 -0.351562,0.234374 -0.957031,0.878906 -0.957031,1.429687 -0.105469,0.15625 -0.121094,0.339844 -0.121094,0.597656 0,0.230469 0.08984,0.375 0.08984,0.625 0.175781,0.117188 0.02344,0.191407 0.183594,0.261719 0.07813,0.03516 0.261719,0.132812 0.324219,0.132812 0.121093,-0.01172 0.242187,-0.02344 0.359374,-0.03516 0.382813,-0.257812 0.847657,-0.417968 1.398438,-0.519531 0.261719,-0.04687 0.589844,-0.09375 0.824219,-0.132813 0.171875,-0.02344 0.742187,-0.152343 0.804687,-0.152343 0.05859,0 0.171875,0.02734 0.191406,-0.03516 0.5,-0.1875 0.386719,-0.195312 0.664063,-0.605468 0.109375,-0.160156 0.109375,-0.359375 0.28125,-0.375 0.01563,0.06641 0.03125,0.07031 0.03125,0.148437 0,0.01172 -0.0039,0.01953 -0.0039,0.03125 -0.04687,0.386719 -0.09766,0.773438 -0.144531,1.164063 -0.01563,0.09375 0.01953,0.105468 0.03125,0.203125 0.02734,0.01172 0.05859,0.02344 0.08594,0.03516 0.203125,-0.04687 0.429687,-0.164063 0.71875,-0.144531 0.652344,0.02734 1.300781,0.05469 1.949219,0.08203 0.363281,0 0.632812,0.0625 1.046875,0.0625 0.394531,0 0.921875,-0.238281 1.292969,-0.234375 0.03125,-0.02344 0.05859,-0.04297 0.08594,-0.06641 0.410156,0 1.285156,-0.503906 1.535156,-0.707032 0.386719,-0.316406 0.773438,-0.808593 0.773438,-1.496093 0,-0.90625 -0.441407,-1.515625 -1.015625,-1.851563 -0.359375,-0.214844 -0.480469,-0.351562 -0.960938,-0.472656 -0.367187,-0.09375 -0.699218,-0.269531 -1.199218,-0.269531 -0.140626,0 -0.28125,-0.0039 -0.421876,-0.0078 -0.320312,0.07422 -0.636718,0.144532 -0.957031,0.21875 z M 18.929688,16.726562 v 0.566407 c 0,0.570312 0.433593,0.652343 0.902343,0.652343 0.199219,0 0.597657,-0.113281 0.597657,0.121094 -0.09375,0.136719 -0.03516,0.101563 -0.285157,0.160156 -0.207031,0.05078 -0.375,0.07813 -0.585937,0.07813 -0.06641,0 -0.328125,-0.164063 -0.328125,0 0,0.179687 0.04687,0.476562 0.238281,0.476562 0.121094,0 0.351562,-0.238281 0.453125,-0.238281 0.105469,0 0.117187,0.02344 0.117187,0.117187 0,0.128906 -0.148437,0.144532 -0.25,0.199219 -0.457031,0.238281 -0.394531,1.15625 -0.46875,1.621094 v 0.386719 c 0,0.527343 0.175782,1.285156 0.382813,1.613281 0.226563,0.363281 0.476563,1.007812 1.027344,1.007812 0.296875,0 0.535156,-0.148437 0.65625,-0.148437 0.625,0 0.02734,0.386718 -0.207031,0.386718 -0.191407,0 -0.539063,0.203126 -0.539063,0.417969 0,0.25 0.320313,2.265625 0.382813,2.417969 0.03516,0.08203 0.136718,0.433594 0.15625,0.53125 0.05078,0.230469 0.101562,0.332031 0.183593,0.53125 0.07422,0.167969 0.128907,0.285156 0.3125,0.375 0.175781,0.08203 0.308594,0.167969 0.550781,0.167969 h 0.121094 c 0.199219,0 0.710938,-0.386719 0.785156,-0.53125 0.136719,-0.277344 0.261719,-0.675781 0.261719,-1.078125 0.0039,-0.464844 0.05078,-0.871094 0.0039,-1.285156 -0.02734,-0.226563 -0.02344,-0.375 -0.07031,-0.585938 -0.08984,-0.445312 -0.199219,-0.808594 -0.292969,-1.257812 h -0.05859 c 0,-0.308594 -0.167968,-0.457032 -0.265624,-0.628907 -0.15625,-0.273437 0.02734,-0.5 0.02734,-0.742187 0,-0.257813 -0.08594,-0.894532 -0.136719,-1.148438 -0.07422,-0.386718 -0.167968,-0.660156 -0.273437,-1.007812 -0.09766,-0.320313 -0.238281,-0.613282 -0.359375,-0.925782 -0.0625,-0.164062 -0.125,-0.308593 -0.183594,-0.441406 -0.08594,-0.199218 -0.03516,-0.339844 -0.07813,-0.578125 -0.07031,-0.371093 -0.02344,-0.882812 -0.05078,-1.230469 -0.03125,-0.4375 -0.05859,-0.828124 -0.08594,-1.195312 -0.05859,-0.664062 -0.605468,-1.277344 -1.320312,-1.277344 -1.042969,0 -1.320312,1.40625 -1.320312,2.472656 z m 14.144531,21.542969 v 0.02734 c 0,0.117187 0.05469,0.0078 0.05859,0.210937 0.144532,0.03516 0.183594,0.207032 0.457032,0.289063 0.203125,0.0625 0.464844,0.01953 0.710937,0.03516 0.496094,0.03906 0.726563,0.300781 1.230469,0.300781 h 0.835938 c 0.148437,0 0.222656,-0.04297 0.292968,-0.125 0.02734,-0.03125 0.128906,-0.269531 0.128906,-0.292968 V 38.59375 c 0,-0.101562 -0.0625,-0.04297 -0.0625,-0.148438 v -0.08984 c -0.121093,-0.02734 -0.136718,-0.08594 -0.207031,-0.08594 -0.214843,0 -0.402343,0.117188 -0.449219,0.117188 h -0.242187 c -0.335937,0 -0.585937,-0.234375 -0.839844,-0.214844 l -0.421875,0.03125 -0.117187,0.09375 c -0.203125,0 -0.230469,0.05859 -0.359375,0.05859 -0.132813,0 -0.53125,-0.121094 -0.566406,-0.207031 h -0.332032 c -0.07031,0 -0.117187,0.05078 -0.117187,0.121093 z m -1.351563,-2.921875 0.0039,0.08594 0.265626,0.03516 h 0.121093 c 0.507813,0 0.621094,-0.441406 0.902344,-0.449219 l -0.03125,0.269531 -0.0078,0.117188 0.03516,0.476562 c 0.117187,0.175782 0.34375,0.835938 0.570312,0.835938 h 0.08984 c 0.07031,0 0.08984,-0.01953 0.08984,-0.08984 v -0.08984 c 0,-0.546874 -0.769531,-1.015624 -0.480469,-1.578124 0,-0.5 0.292969,-0.738282 0.300781,-1.101563 -0.03125,0.01953 -0.285156,0.40625 -0.351562,0.484375 -0.132813,0.15625 -0.273438,0.277344 -0.425781,0.410156 -0.222657,0.191406 -0.695313,0.585938 -1.082032,0.59375 z m -3.535156,-1.339844 0.09375,0.683594 0.148438,0.296875 c 0.09375,0.0078 0.105468,0.03125 0.207031,0.03125 0.125,0 0.183593,-0.199219 0.183593,-0.328125 v -0.386718 c 0,-0.117188 -0.148437,-0.300782 -0.152343,-0.566407 -0.0039,-0.246093 0.01953,-0.480469 -0.03125,-0.683593 -0.253907,0.01953 -0.496094,0.636718 -0.449219,0.953124 z m -3.382812,-1.164062 -0.0078,0.480469 0.03516,0.382812 c 0.15625,0.105469 0.03516,0.117188 0.269531,0.242188 0.179688,-0.04297 0.242188,-0.08203 0.242188,-0.300781 v -0.207032 c 0,-0.144531 -0.101562,-0.425781 -0.113281,-0.574218 -0.01172,-0.148438 0.08203,-0.359376 0.08203,-0.589844 0.160156,-0.0625 0.01563,-0.3125 -0.292969,0.03906 -0.06641,0.07031 -0.214843,0.390625 -0.214843,0.527344 z m 0,0" id="path2" /> </g></svg>
