<svg width="64" height="64" viewBox="0 0 64 64" version="1.1" id="svg39" sodipodi:docname="tromspeed.svg" inkscape:version="1.2.2 (b0a8486541, 2022-12-01)" xmlns:inkscape="http://www.inkscape.org/namespaces/inkscape" xmlns:sodipodi="http://sodipodi.sourceforge.net/DTD/sodipodi-0.dtd" xmlns="http://www.w3.org/2000/svg" xmlns:svg="http://www.w3.org/2000/svg"> <defs id="defs43"> <filter style="color-interpolation-filters:sRGB;" inkscape:label="Diffuse Light" id="filter213" x="-0.25175106" y="-0.29052968" width="1.5035021" height="1.5810594"> <feGaussianBlur in="SourceGraphic" stdDeviation="3.45666" result="blur" id="feGaussianBlur203" /> <feDiffuseLighting diffuseConstant="1" surfaceScale="10" lighting-color="rgb(255,255,255)" result="diffuse" id="feDiffuseLighting207"> <feDistantLight elevation="8" azimuth="245" id="feDistantLight205" /> </feDiffuseLighting> <feComposite in="diffuse" in2="diffuse" operator="arithmetic" k1="1" result="composite1" id="feComposite209" /> <feComposite in="composite1" in2="SourceGraphic" k1="1" operator="arithmetic" k3="1" result="composite2" id="feComposite211" /> </filter> </defs> <sodipodi:namedview id="namedview41" pagecolor="#ffffff" bordercolor="#000000" borderopacity="0.25" inkscape:showpageshadow="2" inkscape:pageopacity="0.0" inkscape:pagecheckerboard="0" inkscape:deskcolor="#d1d1d1" showgrid="false" inkscape:zoom="3.6875" inkscape:cx="32" inkscape:cy="32.135593" inkscape:window-width="1432" inkscape:window-height="844" inkscape:window-x="0" inkscape:window-y="0" inkscape:window-maximized="1" inkscape:current-layer="svg39" /> <g id="surface1" style="fill:#d2b48c;filter:url(#filter213)" transform="matrix(1.8741265,0,0,1.8797193,-27.088887,-23.143987)"> <path style="fill:#d2b48c;fill-opacity:1;fill-rule:nonzero;stroke:none" d="m 48.066406,33.964844 -2.539062,-0.335938 c 0.167968,-1.199218 0.167968,-2.425781 0,-3.625 l 2.539062,-0.332031 c 0.164063,1.421875 0.164063,2.871094 0,4.292969 z m 0,0" id="path2" /> <path style="fill:#d2b48c;fill-opacity:1;fill-rule:nonzero;stroke:none" d="m 46.335938,24.207031 c 0.667968,1.28125 1.171874,2.648438 1.476562,4.042969 l -2.507812,0.554688 c -0.25,-1.167969 -0.667969,-2.3125 -1.226563,-3.402344 z m 0,0" id="path4" /> <path style="fill:#d2b48c;fill-opacity:1;fill-rule:nonzero;stroke:none" d="m 46.335938,39.429688 -2.285157,-1.171876 c 0.554688,-1.085937 0.972657,-2.230468 1.253907,-3.402343 l 2.507812,0.558593 c -0.304688,1.367188 -0.808594,2.734376 -1.476562,4.015626 z m 0,0" id="path6" /> <path style="fill:#d2b48c;fill-opacity:1;fill-rule:nonzero;stroke:none" d="m 45.609375,22.976562 -2.144531,1.367188 c -0.640625,-1.003906 -1.421875,-1.949219 -2.34375,-2.789062 l 1.730468,-1.894532 c 1.085938,1.003906 2.007813,2.117188 2.757813,3.316406 z m 0,0" id="path8" /> <path style="fill:#d2b48c;fill-opacity:1;fill-rule:nonzero;stroke:none" d="m 41.761719,18.738281 -1.558594,2.035157 c -0.976563,-0.75 -2.039063,-1.363282 -3.152344,-1.8125 l 0.976563,-2.367188 c 1.308594,0.554688 2.5625,1.253906 3.734375,2.144531 z m 0,0" id="path10" /> <path style="fill:#d2b48c;fill-opacity:1;fill-rule:nonzero;stroke:none" d="m 36.546875,41.96875 h 1.925781 v 1.921875 h -1.925781 z m 0,0" id="path12" /> <path style="fill:#d2b48c;fill-opacity:1;fill-rule:nonzero;stroke:none" d="M 32.699219,41.96875 H 34.625 v 1.921875 h -1.925781 z m 0,0" id="path14" /> <path style="fill:#d2b48c;fill-opacity:1;fill-rule:nonzero;stroke:none" d="m 32.449219,15.367188 c 1.421875,0.05469 2.871093,0.304687 4.238281,0.75 l -0.78125,2.457031 c -1.085938,-0.335938 -2.230469,-0.558594 -3.375,-0.617188 l -0.164062,-1.085937 z m 0,0" id="path16" /> <path style="fill:#d2b48c;fill-opacity:1;fill-rule:nonzero;stroke:none" d="m 31.722656,31.035156 c 0.585938,0 1.089844,0.476563 1.089844,1.089844 0,0.585938 -0.476562,1.085938 -1.089844,1.085938 -0.582031,0 -1.085937,-0.472657 -1.085937,-1.085938 0.02734,-0.613281 0.503906,-1.089844 1.085937,-1.089844 z m 0,0" id="path18" /> <path style="fill:#d2b48c;fill-opacity:1;fill-rule:nonzero;stroke:none" d="m 34.148438,31.902344 c 0,1.921875 -1.085938,3.484375 -2.425782,3.484375 -1.335937,0 -2.425781,-1.5625 -2.425781,-3.484375 l 0.195313,-1.421875 2.203124,-15.03125 2.203126,15.03125 z M 32.8125,32.097656 c 0,-0.585937 -0.476562,-1.089844 -1.089844,-1.089844 -0.582031,0 -1.085937,0.476563 -1.085937,1.089844 0,0.585938 0.472656,1.085938 1.085937,1.085938 0.613282,0 1.089844,-0.472656 1.089844,-1.085938 z m 0,0" id="path20" /> <path style="fill:#d2b48c;fill-opacity:1;fill-rule:nonzero;stroke:none" d="M 26.761719,16.089844 C 28.128906,15.671875 29.550781,15.421875 31,15.335938 l 0.05469,1.535156 -0.140626,1.03125 c -1.140624,0.05469 -2.285156,0.28125 -3.371093,0.613281 z m 0,0" id="path22" /> <path style="fill:#d2b48c;fill-opacity:1;fill-rule:nonzero;stroke:none" d="M 28.824219,41.96875 H 30.75 v 1.921875 h -1.925781 z m 0,0" id="path24" /> <path style="fill:#d2b48c;fill-opacity:1;fill-rule:nonzero;stroke:none" d="m 24.976562,41.96875 h 1.921876 v 1.921875 h -1.921876 z m 0,0" id="path26" /> <path style="fill:#d2b48c;fill-opacity:1;fill-rule:nonzero;stroke:none" d="m 21.6875,18.738281 c 1.167969,-0.890625 2.425781,-1.617187 3.734375,-2.144531 l 0.976563,2.367188 c -1.117188,0.449218 -2.175782,1.0625 -3.152344,1.8125 z m 0,0" id="path28" /> <path style="fill:#d2b48c;fill-opacity:1;fill-rule:nonzero;stroke:none" d="m 20.597656,19.6875 1.730469,1.894531 c -0.308594,0.28125 -0.585937,0.558594 -0.867187,0.867188 -0.554688,0.613281 -1.058594,1.253906 -1.476563,1.921875 l -2.175781,-1.363282 c 0.503906,-0.808593 1.089844,-1.5625 1.757812,-2.289062 0.335938,-0.390625 0.667969,-0.722656 1.03125,-1.03125 z m 0,0" id="path30" /> <path style="fill:#d2b48c;fill-opacity:1;fill-rule:nonzero;stroke:none" d="m 19.371094,38.257812 -2.285156,1.171876 c -0.671876,-1.28125 -1.171876,-2.648438 -1.480469,-4.042969 l 2.511719,-0.558594 C 18.394531,36 18.8125,37.171875 19.371094,38.257812 Z m 0,0" id="path32" /> <path style="fill:#d2b48c;fill-opacity:1;fill-rule:nonzero;stroke:none" d="m 17.921875,33.628906 -2.539063,0.335938 c -0.195312,-1.421875 -0.195312,-2.871094 0,-4.292969 l 2.539063,0.332031 c -0.167969,1.199219 -0.167969,2.425782 0,3.625 z m 0,0" id="path34" /> <path style="fill:#d2b48c;fill-opacity:1;fill-rule:nonzero;stroke:none" d="m 15.636719,28.25 c 0.304687,-1.394531 0.808593,-2.761719 1.476562,-4.042969 L 19.398438,25.375 c -0.558594,1.089844 -0.976563,2.230469 -1.253907,3.402344 z m 0,0" id="path36" /> </g></svg>
