<?xml version="1.0" encoding="UTF-8" standalone="no"?><svg width="64" height="64" viewBox="0 0 64 64" version="1.1" id="svg57" sodipodi:docname="tromvideo.svg" inkscape:version="1.2.2 (b0a8486541, 2022-12-01)" xmlns:inkscape="http://www.inkscape.org/namespaces/inkscape" xmlns:sodipodi="http://sodipodi.sourceforge.net/DTD/sodipodi-0.dtd" xmlns="http://www.w3.org/2000/svg" xmlns:svg="http://www.w3.org/2000/svg"> <defs id="defs61"> <filter style="color-interpolation-filters:sRGB;" inkscape:label="Diffuse Light" id="filter231" x="-0.051388424" y="-0.051392722" width="1.1027768" height="1.1027854"> <feGaussianBlur in="SourceGraphic" stdDeviation="1" result="blur" id="feGaussianBlur221" /> <feDiffuseLighting diffuseConstant="1" surfaceScale="10" lighting-color="rgb(255,255,255)" result="diffuse" id="feDiffuseLighting225"> <feDistantLight elevation="8" azimuth="235" id="feDistantLight223" /> </feDiffuseLighting> <feComposite in="diffuse" in2="diffuse" operator="arithmetic" k1="1" result="composite1" id="feComposite227" /> <feComposite in="composite1" in2="SourceGraphic" k1="1" operator="arithmetic" k3="1" result="composite2" id="feComposite229" /> </filter> </defs> <sodipodi:namedview id="namedview59" pagecolor="#ffffff" bordercolor="#000000" borderopacity="0.25" inkscape:showpageshadow="2" inkscape:pageopacity="0.0" inkscape:pagecheckerboard="0" inkscape:deskcolor="#d1d1d1" showgrid="false" inkscape:zoom="3.6875" inkscape:cx="32" inkscape:cy="32.135593" inkscape:window-width="1432" inkscape:window-height="844" inkscape:window-x="0" inkscape:window-y="0" inkscape:window-maximized="1" inkscape:current-layer="svg57" /> <g id="surface1" transform="matrix(1.2758345,0,0,1.2751701,-9.3694301,-9.9776122)" style="filter:url(#filter231)"> <path style="fill:#cf856e;fill-opacity:1;fill-rule:nonzero;stroke:none" d="m 45.5,32.625 c 0,7.503906 -6.082031,13.585938 -13.585938,13.585938 -7.503906,0 -13.585937,-6.082032 -13.585937,-13.585938 0,-7.503906 6.082031,-13.585938 13.585937,-13.585938 C 39.417969,19.039062 45.5,25.121094 45.5,32.625 Z m 0,0" id="path50" /> <path style="fill:#ff6145;fill-opacity:1;fill-rule:nonzero;stroke:none" d="M 31.914062,9.273438 C 19.019531,9.273438 8.5625,19.726562 8.5625,32.625 c 0,12.894531 10.457031,23.351562 23.351562,23.347656 C 44.8125,55.976562 55.265625,45.519531 55.265625,32.625 55.265625,19.726562 44.808594,9.273438 31.914062,9.273438 Z m 0.01953,3.539062 c 0.01172,0 0.01953,0 0.03125,0 3.25,0 5.882812,2.632812 5.882812,5.882812 -1.355468,8.65625 -11.574218,6.328126 -11.761718,0 0,-3.238281 2.613281,-5.863281 5.847656,-5.882812 z M 20.304688,33.773438 c 0.01172,0 0.01953,0 0.03125,0 3.25,0 5.882812,2.632812 5.882812,5.882812 0,3.246094 -2.632812,5.878906 -5.882812,5.878906 -3.246094,0 -5.878907,-2.632812 -5.878907,-5.878906 0,-3.234375 2.613281,-5.863281 5.847657,-5.882812 z m 23.164062,0 c 0.01172,0 0.01953,0 0.03125,0 3.246094,0 5.878906,2.632812 5.882812,5.882812 -0.0039,3.246094 -2.636718,5.878906 -5.882812,5.878906 -3.246094,0 -5.878906,-2.632812 -5.878906,-5.878906 0,-3.234375 2.613281,-5.863281 5.847656,-5.882812 z m 0,0" id="path52" /> <path style="fill:#e89c85;fill-opacity:0.992157;fill-rule:nonzero;stroke:none" d="m 37.898438,32.625 c 0,3.304688 -2.679688,5.980469 -5.984376,5.980469 -3.304687,0 -5.980468,-2.675781 -5.980468,-5.980469 0,-3.304688 2.675781,-5.984375 5.980468,-5.984375 3.304688,0 5.984376,2.679687 5.984376,5.984375 z m 0,0" id="path54" /> </g></svg>
