<?xml version="1.0" encoding="UTF-8" standalone="no"?><svg width="64" height="64" viewBox="0 0 64 64" version="1.1" id="svg29" sodipodi:docname="trompaste.svg" inkscape:version="1.2.2 (b0a8486541, 2022-12-01)" xmlns:inkscape="http://www.inkscape.org/namespaces/inkscape" xmlns:sodipodi="http://sodipodi.sourceforge.net/DTD/sodipodi-0.dtd" xmlns="http://www.w3.org/2000/svg" xmlns:svg="http://www.w3.org/2000/svg"> <defs id="defs33"> <filter style="color-interpolation-filters:sRGB;" inkscape:label="Diffuse Light" id="filter282" x="-0.070378006" y="-0.064503937" width="1.140756" height="1.1290079"> <feGaussianBlur in="SourceGraphic" stdDeviation="1" result="blur" id="feGaussianBlur272" /> <feDiffuseLighting diffuseConstant="1" surfaceScale="10" lighting-color="rgb(255,255,255)" result="diffuse" id="feDiffuseLighting276"> <feDistantLight elevation="8" azimuth="235" id="feDistantLight274" /> </feDiffuseLighting> <feComposite in="diffuse" in2="diffuse" operator="arithmetic" k1="1" result="composite1" id="feComposite278" /> <feComposite in="composite1" in2="SourceGraphic" k1="1" operator="arithmetic" k3="1" result="composite2" id="feComposite280" /> </filter> </defs> <sodipodi:namedview id="namedview31" pagecolor="#ffffff" bordercolor="#000000" borderopacity="0.25" inkscape:showpageshadow="2" inkscape:pageopacity="0.0" inkscape:pagecheckerboard="0" inkscape:deskcolor="#d1d1d1" showgrid="false" inkscape:zoom="3.6875" inkscape:cx="32" inkscape:cy="32.135593" inkscape:window-width="1432" inkscape:window-height="844" inkscape:window-x="0" inkscape:window-y="0" inkscape:window-maximized="1" inkscape:current-layer="svg29" /> <g id="surface1" style="fill:#9400d3;filter:url(#filter282)" transform="matrix(1.3981648,0,0,1.6756933,-13.32139,-21.743676)"> <path style="fill:#9400d3;fill-opacity:1;fill-rule:nonzero;stroke:none" d="m 14.972656,13.75 h 9.300782 v 2.070312 h -7.234376 v 27.902344 h 7.234376 v 2.066406 h -9.300782 z m 0,0" id="path2" /> <path style="fill:#9400d3;fill-opacity:1;fill-rule:nonzero;stroke:none" d="m 24.273438,18.917969 v 32.039062 h 2.066406 V 18.917969 Z m 0,0" id="path4" /> <path style="fill:#9400d3;fill-opacity:1;fill-rule:nonzero;stroke:none" d="m 26.339844,18.917969 h 20.667968 v 2.066406 H 26.339844 Z m 0,0" id="path6" /> <path style="fill:#9400d3;fill-opacity:1;fill-rule:nonzero;stroke:none" d="m 47.007812,18.917969 h 2.066407 v 31.003906 h -2.066407 z m 0,0" id="path8" /> <path style="fill:#9400d3;fill-opacity:1;fill-rule:nonzero;stroke:none" d="M 26.339844,50.957031 H 49.074219 V 48.886719 H 26.339844 Z m 0,0" id="path10" /> <path style="fill:#9400d3;fill-opacity:1;fill-rule:nonzero;stroke:none" d="m 24.273438,13.75 h 16.535156 v 5.167969 h -2.066406 v -3.097657 h -14.46875 z m 0,0" id="path12" /> <path style="fill:#9400d3;fill-opacity:1;fill-rule:nonzero;stroke:none" d="m 28.40625,24.085938 v 1.035156 h 6.199219 v -1.035156 z m 0,0" id="path14" /> <path style="fill:#9400d3;fill-opacity:1;fill-rule:nonzero;stroke:none" d="m 37.707031,24.085938 v 1.035156 h 3.101563 v -1.035156 z m 0,0" id="path16" /> <path style="fill:#9400d3;fill-opacity:1;fill-rule:nonzero;stroke:none" d="m 28.40625,27.1875 v 1.03125 H 38.742188 V 27.1875 Z m 0,0" id="path18" /> <path style="fill:#9400d3;fill-opacity:1;fill-rule:nonzero;stroke:none" d="m 41.839844,27.1875 v 1.03125 H 43.90625 V 27.1875 Z m 0,0" id="path20" /> <path style="fill:#9400d3;fill-opacity:1;fill-rule:nonzero;stroke:none" d="m 28.40625,30.285156 v 1.035156 h 3.101562 v -1.035156 z m 0,0" id="path22" /> <path style="fill:#9400d3;fill-opacity:1;fill-rule:nonzero;stroke:none" d="m 34.605469,30.285156 v 1.035156 h 2.070312 v -1.035156 z m 0,0" id="path24" /> <path style="fill:#9400d3;fill-opacity:1;fill-rule:nonzero;stroke:none" d="m 39.773438,30.285156 v 1.035156 h 4.132812 v -1.035156 z m 0,0" id="path26" /> </g></svg>
