<svg width="64" height="64" viewBox="0 0 64 64" version="1.1" xmlns:inkscape="http://www.inkscape.org/namespaces/inkscape"><defs><linearGradient id="linear0" gradientUnits="userSpaceOnUse" x1="0" y1="0" x2="0" y2="1" gradientTransform="matrix(56,0,0,35.898438,4,14.050781)"><stop offset="0" style="stop-color:rgb(0%,73.333335%,100%);stop-opacity:1;"/><stop offset="1" style="stop-color:rgb(0%,52.156866%,70.980394%);stop-opacity:1;"/></linearGradient><filter style="color-interpolation-filters:sRGB;" inkscape:label="Diffuse Light" id="filter184" x="-0.0375" y="-0.0375" width="1.075" height="1.075"><feGaussianBlur in="SourceGraphic" stdDeviation="1" result="blur" id="feGaussianBlur174" /><feDiffuseLighting diffuseConstant="1" surfaceScale="10" lighting-color="rgb(255,255,255)" result="diffuse" id="feDiffuseLighting178"><feDistantLight elevation="8" azimuth="235" id="feDistantLight176" /></feDiffuseLighting><feComposite in="diffuse" in2="diffuse" operator="arithmetic" k1="1" result="composite1" id="feComposite180" /><feComposite in="composite1" in2="SourceGraphic" k1="1" operator="arithmetic" k3="1" result="composite2" id="feComposite182" /></filter></defs><g id="surface1" style="filter:url(#filter184)"><path style=" stroke:none;fill-rule:nonzero;fill:url(#linear0);" d="M 34.957031 3.179688 C 32.507812 3.179688 30.503906 5.539062 30.503906 8.453125 C 30.503906 10.328125 31.347656 12.066406 32.714844 13.015625 C 32.699219 23.191406 32.46875 34.820312 28.28125 34.820312 C 23.964844 34.820312 17.796875 20.898438 16.195312 14.332031 C 16.808594 13.40625 17.144531 12.265625 17.144531 11.089844 C 17.144531 8.1875 15.152344 5.816406 12.691406 5.816406 C 10.242188 5.816406 8.238281 8.175781 8.238281 11.089844 C 8.238281 13.988281 10.230469 16.363281 12.691406 16.363281 C 14.714844 24.511719 21.59375 34.820312 21.59375 45.367188 C 21.59375 48.003906 21.59375 50.640625 19.371094 50.640625 C 17.144531 50.640625 12.691406 48.003906 12.691406 48.003906 C 12.691406 45.105469 10.699219 42.730469 8.238281 42.730469 C 5.789062 42.730469 3.785156 45.089844 3.785156 48.003906 C 3.785156 50.90625 5.824219 52.726562 8.238281 53.277344 C 19.234375 55.785156 28.273438 61.214844 34.953125 61.1875 C 41.632812 61.175781 43.011719 59.964844 48.621094 49.035156 C 52.363281 41.730469 55.191406 37.113281 57.238281 34.820312 C 59.6875 34.816406 61.691406 32.457031 61.691406 29.546875 C 61.691406 26.648438 59.699219 24.273438 57.238281 24.273438 C 54.789062 24.273438 52.785156 26.632812 52.785156 29.546875 C 52.785156 29.953125 52.828125 30.355469 52.90625 30.753906 C 50.101562 36.183594 45.472656 40.085938 41.664062 40.085938 C 39.4375 40.085938 37.210938 37.449219 37.210938 24.265625 L 37.210938 13.007812 C 38.589844 12.066406 39.4375 10.316406 39.4375 8.445312 C 39.441406 5.542969 37.445312 3.171875 34.984375 3.171875 Z M 34.957031 3.179688 "/></g></svg>
