<svg width="64" height="64" viewBox="0 0 64 64" version="1.1" xmlns:inkscape="http://www.inkscape.org/namespaces/inkscape"><defs><linearGradient id="linear0" gradientUnits="userSpaceOnUse" x1="0" y1="0" x2="0" y2="1" gradientTransform="matrix(56,0,0,35.898438,4,14.050781)"><stop offset="0" style="stop-color:rgb(0%,96.078432%,86.274511%);stop-opacity:1;"/><stop offset="1" style="stop-color:rgb(0%,54.901963%,49.411765%);stop-opacity:1;"/></linearGradient><filter style="color-interpolation-filters:sRGB;" inkscape:label="Diffuse Light" id="filter184" x="-0.0375" y="-0.0375" width="1.075" height="1.075"><feGaussianBlur in="SourceGraphic" stdDeviation="1" result="blur" id="feGaussianBlur174" /><feDiffuseLighting diffuseConstant="1" surfaceScale="10" lighting-color="rgb(255,255,255)" result="diffuse" id="feDiffuseLighting178"><feDistantLight elevation="8" azimuth="235" id="feDistantLight176" /></feDiffuseLighting><feComposite in="diffuse" in2="diffuse" operator="arithmetic" k1="1" result="composite1" id="feComposite180" /><feComposite in="composite1" in2="SourceGraphic" k1="1" operator="arithmetic" k3="1" result="composite2" id="feComposite182" /></filter></defs><g id="surface1" style="filter:url(#filter184)"><path style=" stroke:none;fill-rule:nonzero;fill:url(#linear0);" d="M 40.480469 2.480469 C 36.582031 2.480469 33.4375 5.738281 33.4375 9.777344 L 33.4375 35.308594 C 30.855469 32.910156 27.523438 31.589844 24.046875 31.5625 C 16.277344 31.5625 9.964844 38.105469 9.964844 46.152344 C 9.964844 54.203125 16.277344 60.742188 24.046875 60.742188 C 31.820312 60.742188 38.132812 54.203125 38.132812 46.152344 L 38.132812 9.679688 C 38.132812 8.332031 39.179688 7.246094 40.480469 7.246094 L 49.871094 7.246094 C 51.164062 7.246094 52.21875 6.160156 52.21875 4.816406 C 52.21875 3.472656 51.164062 2.382812 49.871094 2.382812 Z M 24.046875 36.523438 C 29.238281 36.523438 33.4375 40.878906 33.4375 46.25 C 33.4375 51.625 29.238281 55.976562 24.046875 55.976562 C 18.859375 55.976562 14.660156 51.625 14.660156 46.25 C 14.660156 40.878906 18.859375 36.523438 24.046875 36.523438 Z M 24.046875 36.523438 "/></g></svg>
