<svg width="64" height="64" viewBox="0 0 64 64" version="1.1" xmlns:inkscape="http://www.inkscape.org/namespaces/inkscape"><defs><linearGradient id="linear0" gradientUnits="userSpaceOnUse" x1="0" y1="0" x2="0" y2="1" gradientTransform="matrix(55.992188,0,0,56,4.003906,4)"><stop offset="0" style="stop-color:rgb(100%,63.137257%,63.137257%);stop-opacity:1;"/><stop offset="1" style="stop-color:rgb(100%,27.843139%,27.843139%);stop-opacity:1;"/></linearGradient><linearGradient id="linear1" gradientUnits="userSpaceOnUse" x1="0" y1="0" x2="0" y2="1" gradientTransform="matrix(55.992188,0,0,56,4.003906,4)"><stop offset="0" style="stop-color:rgb(100%,63.137257%,63.137257%);stop-opacity:1;"/><stop offset="1" style="stop-color:rgb(100%,27.843139%,27.843139%);stop-opacity:1;"/></linearGradient><filter style="color-interpolation-filters:sRGB;" inkscape:label="Diffuse Light" id="filter184" x="-0.0375" y="-0.0375" width="1.075" height="1.075"><feGaussianBlur in="SourceGraphic" stdDeviation="1" result="blur" id="feGaussianBlur174" /><feDiffuseLighting diffuseConstant="1" surfaceScale="10" lighting-color="rgb(255,255,255)" result="diffuse" id="feDiffuseLighting178"><feDistantLight elevation="8" azimuth="235" id="feDistantLight176" /></feDiffuseLighting><feComposite in="diffuse" in2="diffuse" operator="arithmetic" k1="1" result="composite1" id="feComposite180" /><feComposite in="composite1" in2="SourceGraphic" k1="1" operator="arithmetic" k3="1" result="composite2" id="feComposite182" /></filter></defs><g id="surface1" style="filter:url(#filter184)"><path style=" stroke:none;fill-rule:nonzero;fill:url(#linear0);" d="M 37.292969 47.542969 C 36.019531 47.859375 34.328125 48.199219 32.222656 48.558594 C 30.152344 48.914062 27.746094 49.089844 25.003906 49.089844 C 22.617188 49.089844 20.605469 48.753906 18.976562 48.082031 C 17.347656 47.371094 16.035156 46.378906 15.042969 45.105469 C 14.046875 43.839844 13.332031 42.359375 12.894531 40.65625 C 12.457031 38.914062 12.242188 36.992188 12.242188 34.894531 L 12.242188 17.546875 L 17.925781 17.546875 L 17.925781 33.707031 C 17.925781 37.464844 18.386719 40.164062 19.578125 41.789062 C 20.773438 43.410156 22.777344 44.21875 25.605469 44.21875 C 26.199219 44.21875 26.8125 44.203125 27.449219 44.164062 C 28.085938 44.125 28.683594 44.082031 29.238281 44.042969 C 29.796875 43.964844 30.296875 43.90625 30.734375 43.867188 C 31.210938 43.789062 30.988281 43.710938 31.1875 43.632812 L 31.1875 17.554688 L 36.871094 17.554688 L 36.871094 47.550781 "/><path style=" stroke:none;fill-rule:nonzero;fill:url(#linear1);" d="M 46.351562 7.050781 L 50.136719 7.050781 L 50.136719 56.113281 L 46.351562 56.113281 Z M 46.351562 7.050781 "/></g></svg>
