<svg width="64" height="64" viewBox="0 0 64 64" version="1.1" xmlns:inkscape="http://www.inkscape.org/namespaces/inkscape"><defs><linearGradient id="linear0" gradientUnits="userSpaceOnUse" x1="0" y1="0" x2="0" y2="1" gradientTransform="matrix(52,0,0,64,6,0)"><stop offset="0" style="stop-color:rgb(0%,78.823531%,36.862746%);stop-opacity:1;"/><stop offset="1" style="stop-color:rgb(0%,54.11765%,25.098041%);stop-opacity:1;"/></linearGradient><filter style="color-interpolation-filters:sRGB;" inkscape:label="Diffuse Light" id="filter184" x="-0.0375" y="-0.0375" width="1.075" height="1.075"><feGaussianBlur in="SourceGraphic" stdDeviation="1" result="blur" id="feGaussianBlur174" /><feDiffuseLighting diffuseConstant="1" surfaceScale="10" lighting-color="rgb(255,255,255)" result="diffuse" id="feDiffuseLighting178"><feDistantLight elevation="8" azimuth="235" id="feDistantLight176" /></feDiffuseLighting><feComposite in="diffuse" in2="diffuse" operator="arithmetic" k1="1" result="composite1" id="feComposite180" /><feComposite in="composite1" in2="SourceGraphic" k1="1" operator="arithmetic" k3="1" result="composite2" id="feComposite182" /></filter></defs><g id="surface1" style="filter:url(#filter184)"><path style=" stroke:none;fill-rule:nonzero;fill:url(#linear0);" d="M 32 0 C 19.5625 0 6 11.625 6 28.445312 C 6 45.269531 17.988281 64 32 64 C 46.011719 64 58 45.269531 58 28.445312 C 58 11.625 44.4375 0 32 0 Z M 16.964844 19.652344 C 19.066406 19.625 21.351562 20.035156 23.445312 21.347656 C 29.519531 25.164062 29.691406 32.96875 29.691406 32.96875 C 29.691406 32.96875 22.265625 34.527344 16.015625 31.402344 C 9.773438 28.285156 9.605469 21.347656 9.605469 21.347656 C 9.605469 21.347656 12.949219 19.703125 16.964844 19.652344 Z M 47.035156 19.652344 C 51.050781 19.703125 54.394531 21.347656 54.394531 21.347656 C 54.394531 21.347656 54.226562 28.285156 47.984375 31.402344 C 41.734375 34.527344 34.308594 32.96875 34.308594 32.96875 C 34.308594 32.96875 34.476562 25.164062 40.550781 21.347656 C 42.644531 20.035156 44.933594 19.625 47.035156 19.652344 Z M 47.035156 19.652344 "/></g></svg>
