<svg width="64" height="64" viewBox="0 0 64 64" version="1.1" xmlns:inkscape="http://www.inkscape.org/namespaces/inkscape"><defs><linearGradient id="linear0" gradientUnits="userSpaceOnUse" x1="0" y1="0" x2="0" y2="1" gradientTransform="matrix(56,0,0,35.898438,4,14.050781)"><stop offset="0" style="stop-color:rgb(61.176473%,69.803923%,85.09804%);stop-opacity:1;"/><stop offset="1" style="stop-color:rgb(44.313726%,52.156866%,65.882355%);stop-opacity:1;"/></linearGradient><filter style="color-interpolation-filters:sRGB;" inkscape:label="Diffuse Light" id="filter184" x="-0.0375" y="-0.0375" width="1.075" height="1.075"><feGaussianBlur in="SourceGraphic" stdDeviation="1" result="blur" id="feGaussianBlur174" /><feDiffuseLighting diffuseConstant="1" surfaceScale="10" lighting-color="rgb(255,255,255)" result="diffuse" id="feDiffuseLighting178"><feDistantLight elevation="8" azimuth="235" id="feDistantLight176" /></feDiffuseLighting><feComposite in="diffuse" in2="diffuse" operator="arithmetic" k1="1" result="composite1" id="feComposite180" /><feComposite in="composite1" in2="SourceGraphic" k1="1" operator="arithmetic" k3="1" result="composite2" id="feComposite182" /></filter></defs><g id="surface1" style="filter:url(#filter184)"><path style=" stroke:none;fill-rule:nonzero;fill:url(#linear0);" d="M 32.335938 3.671875 C 24.558594 3.671875 18.253906 9.964844 18.253906 17.726562 C 18.253906 25.488281 24.558594 31.777344 32.335938 31.777344 C 40.113281 31.777344 46.417969 25.488281 46.417969 17.726562 C 46.417969 9.964844 40.113281 3.671875 32.335938 3.671875 Z M 7.695312 28.265625 C 5.75 28.265625 4.171875 29.839844 4.171875 31.777344 C 4.171875 47.308594 16.777344 59.886719 32.335938 59.886719 C 47.898438 59.886719 60.5 47.308594 60.5 31.777344 C 60.5 29.839844 58.925781 28.265625 56.980469 28.265625 C 55.039062 28.265625 53.460938 30.023438 53.460938 31.777344 L 53.460938 40.5625 C 53.460938 45.410156 49.515625 49.347656 44.660156 49.347656 C 42.949219 49.347656 41.277344 48.847656 39.835938 47.914062 C 37.441406 48.84375 34.90625 49.328125 32.335938 49.347656 C 29.765625 49.328125 27.234375 48.839844 24.839844 47.914062 C 23.410156 48.847656 21.738281 49.347656 20.015625 49.347656 C 15.15625 49.347656 11.214844 45.410156 11.214844 40.5625 L 11.214844 31.777344 C 11.214844 30.023438 9.636719 28.265625 7.695312 28.265625 Z M 7.695312 28.265625 "/></g></svg>
