<svg width="64" height="64" viewBox="0 0 64 64" version="1.1" xmlns:inkscape="http://www.inkscape.org/namespaces/inkscape"><defs><linearGradient id="linear0" gradientUnits="userSpaceOnUse" x1="0" y1="0" x2="0" y2="1" gradientTransform="matrix(64,0,0,55.460937,0,4.269531)"><stop offset="0" style="stop-color:rgb(87.058824%,86.666667%,56.470591%);stop-opacity:1;"/><stop offset="1" style="stop-color:rgb(67.843139%,67.450982%,38.039216%);stop-opacity:1;"/></linearGradient><filter style="color-interpolation-filters:sRGB;" inkscape:label="Diffuse Light" id="filter184" x="-0.0375" y="-0.0375" width="1.075" height="1.075"><feGaussianBlur in="SourceGraphic" stdDeviation="1" result="blur" id="feGaussianBlur174" /><feDiffuseLighting diffuseConstant="1" surfaceScale="10" lighting-color="rgb(255,255,255)" result="diffuse" id="feDiffuseLighting178"><feDistantLight elevation="8" azimuth="235" id="feDistantLight176" /></feDiffuseLighting><feComposite in="diffuse" in2="diffuse" operator="arithmetic" k1="1" result="composite1" id="feComposite180" /><feComposite in="composite1" in2="SourceGraphic" k1="1" operator="arithmetic" k3="1" result="composite2" id="feComposite182" /></filter></defs><g id="surface1" style="filter:url(#filter184)"><path style=" stroke:none;fill-rule:evenodd;fill:url(#linear0);" d="M 58.988281 25.601562 C 56.097656 13.375 45.105469 4.269531 32 4.269531 C 18.894531 4.269531 7.902344 13.375 5.011719 25.601562 L 0 25.601562 L 0 38.398438 L 5.011719 38.398438 C 7.902344 50.625 18.894531 59.730469 32 59.730469 C 45.105469 59.730469 56.097656 50.625 58.988281 38.398438 L 64 38.398438 L 64 25.601562 Z M 16.175781 25.601562 C 18.707031 19.347656 24.84375 14.933594 32 14.933594 C 39.15625 14.933594 45.292969 19.347656 47.824219 25.601562 Z M 47.824219 38.398438 C 45.292969 44.652344 39.15625 49.066406 32 49.066406 C 24.84375 49.066406 18.707031 44.652344 16.175781 38.398438 Z M 47.824219 38.398438 "/></g></svg>
