<svg width="64" height="64" viewBox="0 0 64 64" version="1.1" xmlns:inkscape="http://www.inkscape.org/namespaces/inkscape"><defs><linearGradient id="linear0" gradientUnits="userSpaceOnUse" x1="0" y1="0" x2="0" y2="1" gradientTransform="matrix(56,0,0,35.898438,4,14.050781)"><stop offset="0" style="stop-color:rgb(0%,78.823531%,36.862746%);stop-opacity:1;"/><stop offset="1" style="stop-color:rgb(0%,54.11765%,25.098041%);stop-opacity:1;"/></linearGradient><linearGradient id="linear1" gradientUnits="userSpaceOnUse" x1="0" y1="0" x2="0" y2="1" gradientTransform="matrix(56,0,0,35.898438,4,14.050781)"><stop offset="0" style="stop-color:rgb(0%,78.823531%,36.862746%);stop-opacity:1;"/><stop offset="1" style="stop-color:rgb(0%,54.11765%,25.098041%);stop-opacity:1;"/></linearGradient><linearGradient id="linear2" gradientUnits="userSpaceOnUse" x1="0" y1="0" x2="0" y2="1" gradientTransform="matrix(56,0,0,35.898438,4,14.050781)"><stop offset="0" style="stop-color:rgb(0%,78.823531%,36.862746%);stop-opacity:1;"/><stop offset="1" style="stop-color:rgb(0%,54.11765%,25.098041%);stop-opacity:1;"/></linearGradient><linearGradient id="linear3" gradientUnits="userSpaceOnUse" x1="0" y1="0" x2="0" y2="1" gradientTransform="matrix(56,0,0,35.898438,4,14.050781)"><stop offset="0" style="stop-color:rgb(0%,78.823531%,36.862746%);stop-opacity:1;"/><stop offset="1" style="stop-color:rgb(0%,54.11765%,25.098041%);stop-opacity:1;"/></linearGradient><linearGradient id="linear4" gradientUnits="userSpaceOnUse" x1="0" y1="0" x2="0" y2="1" gradientTransform="matrix(56,0,0,35.898438,4,14.050781)"><stop offset="0" style="stop-color:rgb(0%,78.823531%,36.862746%);stop-opacity:1;"/><stop offset="1" style="stop-color:rgb(0%,54.11765%,25.098041%);stop-opacity:1;"/></linearGradient><linearGradient id="linear5" gradientUnits="userSpaceOnUse" x1="0" y1="0" x2="0" y2="1" gradientTransform="matrix(56,0,0,35.898438,4,14.050781)"><stop offset="0" style="stop-color:rgb(0%,78.823531%,36.862746%);stop-opacity:1;"/><stop offset="1" style="stop-color:rgb(0%,54.11765%,25.098041%);stop-opacity:1;"/></linearGradient><filter style="color-interpolation-filters:sRGB;" inkscape:label="Diffuse Light" id="filter184" x="-0.0375" y="-0.0375" width="1.075" height="1.075"><feGaussianBlur in="SourceGraphic" stdDeviation="1" result="blur" id="feGaussianBlur174" /><feDiffuseLighting diffuseConstant="1" surfaceScale="10" lighting-color="rgb(255,255,255)" result="diffuse" id="feDiffuseLighting178"><feDistantLight elevation="8" azimuth="235" id="feDistantLight176" /></feDiffuseLighting><feComposite in="diffuse" in2="diffuse" operator="arithmetic" k1="1" result="composite1" id="feComposite180" /><feComposite in="composite1" in2="SourceGraphic" k1="1" operator="arithmetic" k3="1" result="composite2" id="feComposite182" /></filter></defs><g id="surface1" style="filter:url(#filter184)"><path style=" stroke:none;fill-rule:nonzero;fill:url(#linear0);" d="M 32.292969 10.140625 L 42.269531 3.660156 L 52.238281 10.140625 L 52.238281 20.949219 L 48.253906 25.269531 L 42.269531 27.429688 L 32.292969 20.949219 L 30.300781 15.003906 Z M 32.292969 10.140625 "/><path style=" stroke:none;fill-rule:nonzero;fill:url(#linear1);" d="M 42.269531 27.429688 L 52.238281 20.949219 L 62.214844 27.429688 L 62.214844 38.234375 L 52.238281 44.71875 L 46.253906 44.71875 L 42.269531 38.234375 Z M 42.269531 27.429688 "/><path style=" stroke:none;fill-rule:nonzero;fill:url(#linear2);" d="M 32.292969 44.71875 L 42.269531 38.234375 L 52.238281 44.71875 L 52.238281 55.519531 L 42.269531 62 L 32.292969 55.519531 L 30.300781 49.035156 Z M 32.292969 44.71875 "/><path style=" stroke:none;fill-rule:nonzero;fill:url(#linear3);" d="M 12.347656 44.71875 L 16.332031 40.394531 L 22.316406 38.234375 L 32.292969 44.71875 L 32.292969 55.519531 L 22.316406 62 L 12.347656 55.519531 Z M 12.347656 44.71875 "/><path style=" stroke:none;fill-rule:nonzero;fill:url(#linear4);" d="M 2.371094 27.429688 L 12.347656 20.949219 L 18.332031 23.105469 L 22.316406 27.429688 L 22.316406 38.234375 L 12.347656 44.71875 L 2.371094 38.234375 Z M 2.371094 27.429688 "/><path style=" stroke:none;fill-rule:nonzero;fill:url(#linear5);" d="M 12.347656 10.140625 L 22.316406 3.660156 L 32.292969 10.140625 L 32.292969 20.949219 L 22.316406 27.429688 L 12.347656 20.949219 Z M 12.347656 10.140625 "/></g></svg>
