<svg width="64" height="64" viewBox="0 0 64 64" version="1.1" xmlns:inkscape="http://www.inkscape.org/namespaces/inkscape"><defs><linearGradient id="linear0" gradientUnits="userSpaceOnUse" x1="0" y1="0" x2="0" y2="1" gradientTransform="matrix(56,0,0,35.898438,4,14.050781)"><stop offset="0" style="stop-color:rgb(82.352942%,61.176473%,100%);stop-opacity:1;"/><stop offset="1" style="stop-color:rgb(66.666669%,0%,100%);stop-opacity:1;"/></linearGradient><filter style="color-interpolation-filters:sRGB;" inkscape:label="Diffuse Light" id="filter184" x="-0.0375" y="-0.0375" width="1.075" height="1.075"><feGaussianBlur in="SourceGraphic" stdDeviation="1" result="blur" id="feGaussianBlur174" /><feDiffuseLighting diffuseConstant="1" surfaceScale="10" lighting-color="rgb(255,255,255)" result="diffuse" id="feDiffuseLighting178"><feDistantLight elevation="8" azimuth="235" id="feDistantLight176" /></feDiffuseLighting><feComposite in="diffuse" in2="diffuse" operator="arithmetic" k1="1" result="composite1" id="feComposite180" /><feComposite in="composite1" in2="SourceGraphic" k1="1" operator="arithmetic" k3="1" result="composite2" id="feComposite182" /></filter></defs><g id="surface1" style="filter:url(#filter184)"><path style=" stroke:none;fill-rule:nonzero;fill:url(#linear0);" d="M 49.527344 4.324219 L 13.125 19.671875 L 4.335938 41.53125 C 4.335938 46.667969 9.164062 50.832031 15.105469 50.832031 C 21.050781 50.832031 25.875 46.667969 25.875 41.53125 L 17.992188 21.929688 L 29.625 17.230469 L 30.203125 53.273438 L 19.433594 56.761719 L 19.433594 59.085938 C 19.433594 59.730469 19.914062 60.25 20.507812 60.25 L 44.203125 60.25 C 44.800781 60.25 45.28125 59.730469 45.28125 59.085938 L 45.28125 56.761719 C 45.28125 56.117188 44.785156 55.738281 44.203125 55.597656 L 34.511719 53.273438 L 34.511719 17.695312 C 35.621094 17.003906 36.386719 15.808594 36.601562 14.441406 L 45.582031 10.8125 L 38.820312 27.648438 C 38.820312 32.785156 43.644531 36.949219 49.589844 36.949219 C 55.535156 36.949219 60.359375 32.785156 60.359375 27.648438 L 51.570312 5.789062 C 51.230469 4.941406 50.453125 4.390625 49.59375 4.390625 Z M 49.527344 12.488281 L 55.601562 27.578125 L 43.453125 27.578125 Z M 15.0625 26.4375 L 21.136719 41.53125 L 8.988281 41.53125 Z M 15.0625 26.4375 "/></g></svg>
