<svg width="64" height="64" viewBox="0 0 64 64" version="1.1" xmlns:inkscape="http://www.inkscape.org/namespaces/inkscape"><defs><linearGradient id="linear0" gradientUnits="userSpaceOnUse" x1="0" y1="0" x2="0" y2="1" gradientTransform="matrix(56,0,0,35.898438,4,14.050781)"><stop offset="0" style="stop-color:rgb(0%,78.823531%,36.862746%);stop-opacity:1;"/><stop offset="1" style="stop-color:rgb(0%,54.11765%,25.098041%);stop-opacity:1;"/></linearGradient><filter style="color-interpolation-filters:sRGB;" inkscape:label="Diffuse Light" id="filter184" x="-0.0375" y="-0.0375" width="1.075" height="1.075"><feGaussianBlur in="SourceGraphic" stdDeviation="1" result="blur" id="feGaussianBlur174" /><feDiffuseLighting diffuseConstant="1" surfaceScale="10" lighting-color="rgb(255,255,255)" result="diffuse" id="feDiffuseLighting178"><feDistantLight elevation="8" azimuth="235" id="feDistantLight176" /></feDiffuseLighting><feComposite in="diffuse" in2="diffuse" operator="arithmetic" k1="1" result="composite1" id="feComposite180" /><feComposite in="composite1" in2="SourceGraphic" k1="1" operator="arithmetic" k3="1" result="composite2" id="feComposite182" /></filter></defs><g id="surface1" style="filter:url(#filter184)"><path style=" stroke:none;fill-rule:nonzero;fill:url(#linear0);" d="M 25.570312 3.953125 L 25.570312 10.949219 L 60.03125 10.949219 L 60.03125 3.953125 Z M 4.890625 8.617188 L 4.890625 55.253906 L 9.488281 55.253906 C 11.785156 43.59375 18.675781 36.597656 30.164062 31.933594 C 18.675781 27.269531 11.785156 17.941406 9.488281 8.617188 Z M 37.058594 20.507812 L 37.058594 27.503906 L 60.03125 27.503906 L 60.03125 20.507812 Z M 37.058594 36.597656 L 37.058594 43.59375 L 60.03125 43.59375 L 60.03125 36.597656 Z M 25.570312 52.921875 L 25.570312 59.917969 L 60.03125 59.917969 L 60.03125 52.921875 Z M 25.570312 52.921875 "/></g></svg>
