<svg width="64" height="64" viewBox="0 0 64 64" version="1.1" xmlns:inkscape="http://www.inkscape.org/namespaces/inkscape"><defs><linearGradient id="linear0" gradientUnits="userSpaceOnUse" x1="0" y1="0" x2="0" y2="1" gradientTransform="matrix(64,0,0,37.570312,0,13.214844)"><stop offset="0" style="stop-color:rgb(0%,96.078432%,86.274511%);stop-opacity:1;"/><stop offset="1" style="stop-color:rgb(0%,54.901963%,49.411765%);stop-opacity:1;"/></linearGradient><filter style="color-interpolation-filters:sRGB;" inkscape:label="Diffuse Light" id="filter184" x="-0.0375" y="-0.0375" width="1.075" height="1.075"><feGaussianBlur in="SourceGraphic" stdDeviation="1" result="blur" id="feGaussianBlur174" /><feDiffuseLighting diffuseConstant="1" surfaceScale="10" lighting-color="rgb(255,255,255)" result="diffuse" id="feDiffuseLighting178"><feDistantLight elevation="8" azimuth="235" id="feDistantLight176" /></feDiffuseLighting><feComposite in="diffuse" in2="diffuse" operator="arithmetic" k1="1" result="composite1" id="feComposite180" /><feComposite in="composite1" in2="SourceGraphic" k1="1" operator="arithmetic" k3="1" result="composite2" id="feComposite182" /></filter></defs><g id="surface1" style="filter:url(#filter184)"><path style=" stroke:none;fill-rule:evenodd;fill:url(#linear0);" d="M 0 13.214844 L 0 21.5625 L 8.347656 21.5625 L 8.347656 13.214844 Z M 55.652344 13.214844 L 55.652344 21.5625 L 64 21.5625 L 64 13.214844 Z M 20.867188 27.132812 L 20.867188 31.304688 L 41.738281 31.304688 L 41.738281 27.132812 Z M 41.738281 31.304688 L 41.738281 35.480469 L 47.304688 35.480469 L 47.304688 39.652344 L 15.445312 39.652344 L 15.445312 35.480469 L 20.867188 35.480469 L 20.867188 31.304688 L 11.132812 31.304688 L 11.132812 39.652344 L 6.957031 39.652344 L 6.957031 49.390625 L 11.132812 49.390625 L 11.132812 43.828125 L 47.304688 43.828125 L 47.304688 50.785156 L 51.757812 50.785156 L 51.757812 31.304688 Z M 41.738281 31.304688 "/></g></svg>
