<svg width="64" height="64" viewBox="0 0 64 64" version="1.1" xmlns:inkscape="http://www.inkscape.org/namespaces/inkscape"><defs><linearGradient id="linear0" gradientUnits="userSpaceOnUse" x1="0" y1="0" x2="0" y2="1" gradientTransform="matrix(48,0,0,48,8,8)"><stop offset="0" style="stop-color:rgb(92.941177%,83.529413%,72.549021%);stop-opacity:1;"/><stop offset="1" style="stop-color:rgb(81.960785%,71.372551%,59.215689%);stop-opacity:1;"/></linearGradient><filter style="color-interpolation-filters:sRGB;" inkscape:label="Diffuse Light" id="filter184" x="-0.0375" y="-0.0375" width="1.075" height="1.075"><feGaussianBlur in="SourceGraphic" stdDeviation="1" result="blur" id="feGaussianBlur174" /><feDiffuseLighting diffuseConstant="1" surfaceScale="10" lighting-color="rgb(255,255,255)" result="diffuse" id="feDiffuseLighting178"><feDistantLight elevation="8" azimuth="235" id="feDistantLight176" /></feDiffuseLighting><feComposite in="diffuse" in2="diffuse" operator="arithmetic" k1="1" result="composite1" id="feComposite180" /><feComposite in="composite1" in2="SourceGraphic" k1="1" operator="arithmetic" k3="1" result="composite2" id="feComposite182" /></filter></defs><g id="surface1" style="filter:url(#filter184)"><path style=" stroke:none;fill-rule:nonzero;fill:url(#linear0);" d="M 32 8 C 20.292969 8.003906 10.296875 16.457031 8.34375 28 L 12.40625 28 C 14.308594 18.691406 22.496094 12 32 12 C 39.9375 12.015625 47.113281 16.726562 50.289062 24 L 36 24 L 36 28 L 56 28 L 56 8 L 52 8 L 52 18.796875 C 47.566406 12.070312 40.054688 8.015625 32 8 M 8 36 L 8 56 L 12 56 L 12 45.203125 C 16.433594 51.929688 23.945312 55.984375 32 56 C 43.707031 55.996094 53.703125 47.542969 55.65625 36 L 51.59375 36 C 49.691406 45.308594 41.503906 52 32 52 C 24.0625 51.984375 16.886719 47.273438 13.710938 40 L 28 40 L 28 36 Z M 8 36 "/></g></svg>
