<svg width="64" height="64" viewBox="0 0 64 64" version="1.1" xmlns:inkscape="http://www.inkscape.org/namespaces/inkscape"><defs><linearGradient id="linear0" gradientUnits="userSpaceOnUse" x1="0" y1="0" x2="0" y2="1" gradientTransform="matrix(56,0,0,35.898438,4,14.050781)"><stop offset="0" style="stop-color:rgb(100%,73.333335%,0%);stop-opacity:1;"/><stop offset="1" style="stop-color:rgb(70.19608%,51.372552%,0%);stop-opacity:1;"/></linearGradient><filter style="color-interpolation-filters:sRGB;" inkscape:label="Diffuse Light" id="filter184" x="-0.0375" y="-0.0375" width="1.075" height="1.075"><feGaussianBlur in="SourceGraphic" stdDeviation="1" result="blur" id="feGaussianBlur174" /><feDiffuseLighting diffuseConstant="1" surfaceScale="10" lighting-color="rgb(255,255,255)" result="diffuse" id="feDiffuseLighting178"><feDistantLight elevation="8" azimuth="235" id="feDistantLight176" /></feDiffuseLighting><feComposite in="diffuse" in2="diffuse" operator="arithmetic" k1="1" result="composite1" id="feComposite180" /><feComposite in="composite1" in2="SourceGraphic" k1="1" operator="arithmetic" k3="1" result="composite2" id="feComposite182" /></filter></defs><g id="surface1" style="filter:url(#filter184)"><path style=" stroke:none;fill-rule:nonzero;fill:url(#linear0);" d="M 20.570312 4.488281 L 4.597656 20.945312 L 4.597656 32.699219 L 6.878906 32.699219 L 27.414062 11.539062 L 27.414062 6.839844 L 25.132812 4.488281 Z M 29.695312 4.488281 L 29.695312 18.59375 L 11.445312 37.402344 L 6.878906 37.402344 L 6.878906 46.804688 L 18.289062 58.558594 L 27.414062 58.558594 L 27.414062 53.855469 L 45.667969 35.050781 L 59.359375 35.050781 L 59.359375 13.890625 L 50.230469 4.488281 Z M 52.511719 37.402344 L 31.976562 58.558594 L 31.976562 60.910156 L 43.386719 60.910156 L 59.359375 44.453125 L 59.359375 39.75 L 57.078125 37.402344 Z M 52.511719 37.402344 "/></g></svg>
