<svg width="64" height="64" viewBox="0 0 64 64" version="1.1" xmlns:inkscape="http://www.inkscape.org/namespaces/inkscape"><defs><linearGradient id="linear0" gradientUnits="userSpaceOnUse" x1="0" y1="0" x2="0" y2="1" gradientTransform="matrix(56,0,0,35.898438,4,14.050781)"><stop offset="0" style="stop-color:rgb(87.058824%,86.666667%,56.470591%);stop-opacity:1;"/><stop offset="1" style="stop-color:rgb(67.843139%,67.450982%,38.039216%);stop-opacity:1;"/></linearGradient><filter style="color-interpolation-filters:sRGB;" inkscape:label="Diffuse Light" id="filter184" x="-0.0375" y="-0.0375" width="1.075" height="1.075"><feGaussianBlur in="SourceGraphic" stdDeviation="1" result="blur" id="feGaussianBlur174" /><feDiffuseLighting diffuseConstant="1" surfaceScale="10" lighting-color="rgb(255,255,255)" result="diffuse" id="feDiffuseLighting178"><feDistantLight elevation="8" azimuth="235" id="feDistantLight176" /></feDiffuseLighting><feComposite in="diffuse" in2="diffuse" operator="arithmetic" k1="1" result="composite1" id="feComposite180" /><feComposite in="composite1" in2="SourceGraphic" k1="1" operator="arithmetic" k3="1" result="composite2" id="feComposite182" /></filter></defs><g id="surface1" style="filter:url(#filter184)"><path style=" stroke:none;fill-rule:nonzero;fill:url(#linear0);" d="M 3.820312 9.679688 C 3.820312 7.542969 6.175781 7.542969 8.53125 7.542969 C 13.246094 7.542969 17.957031 7.542969 17.957031 11.816406 C 17.957031 18.226562 25.027344 35.316406 28.5625 41.722656 C 36.808594 24.632812 46.234375 16.089844 46.234375 5.40625 C 50.945312 5.40625 60.371094 9.679688 60.371094 12.882812 C 60.371094 15.234375 55.660156 18.226562 50.945312 26.769531 C 46.398438 35.015625 40.15625 43.859375 36.808594 54.542969 C 36.808594 54.542969 32.097656 58.8125 27.382812 58.8125 C 22.671875 58.8125 20.3125 50.269531 15.601562 49.199219 L 17.957031 45.996094 C 13.246094 33.179688 10.890625 22.496094 3.820312 9.679688 Z M 3.820312 9.679688 "/></g></svg>
