<svg width="64" height="64" viewBox="0 0 64 64" version="1.1" xmlns:inkscape="http://www.inkscape.org/namespaces/inkscape"><defs><linearGradient id="linear0" gradientUnits="userSpaceOnUse" x1="0" y1="0" x2="0" y2="1" gradientTransform="matrix(56,0,0,35.898438,4,14.050781)"><stop offset="0" style="stop-color:rgb(100%,73.333335%,0%);stop-opacity:1;"/><stop offset="1" style="stop-color:rgb(70.19608%,51.372552%,0%);stop-opacity:1;"/></linearGradient><filter style="color-interpolation-filters:sRGB;" inkscape:label="Diffuse Light" id="filter184" x="-0.0375" y="-0.0375" width="1.075" height="1.075"><feGaussianBlur in="SourceGraphic" stdDeviation="1" result="blur" id="feGaussianBlur174" /><feDiffuseLighting diffuseConstant="1" surfaceScale="10" lighting-color="rgb(255,255,255)" result="diffuse" id="feDiffuseLighting178"><feDistantLight elevation="8" azimuth="235" id="feDistantLight176" /></feDiffuseLighting><feComposite in="diffuse" in2="diffuse" operator="arithmetic" k1="1" result="composite1" id="feComposite180" /><feComposite in="composite1" in2="SourceGraphic" k1="1" operator="arithmetic" k3="1" result="composite2" id="feComposite182" /></filter></defs><g id="surface1" style="filter:url(#filter184)"><path style=" stroke:none;fill-rule:nonzero;fill:url(#linear0);" d="M 3.046875 4.175781 L 11.03125 19.839844 C 10.054688 22.269531 9.542969 24.859375 9.523438 27.472656 C 9.53125 36.96875 15.984375 45.296875 25.3125 47.847656 L 31.113281 59.234375 L 36.914062 47.847656 C 46.242188 45.296875 52.695312 36.96875 52.703125 27.472656 C 52.699219 24.839844 52.199219 22.234375 51.222656 19.785156 L 59.179688 4.175781 L 41.90625 4.175781 L 39.886719 8.128906 C 37.125 6.921875 34.136719 6.296875 31.113281 6.292969 C 28.089844 6.300781 25.097656 6.929688 22.339844 8.140625 L 20.316406 4.175781 Z M 3.046875 4.175781 "/></g></svg>
