<svg width="64" height="64" viewBox="0 0 64 64" version="1.1" xmlns:inkscape="http://www.inkscape.org/namespaces/inkscape"><defs><linearGradient id="linear0" gradientUnits="userSpaceOnUse" x1="0" y1="0" x2="0" y2="1" gradientTransform="matrix(56,0,0,35.898438,4,14.050781)"><stop offset="0" style="stop-color:rgb(0%,78.823531%,36.862746%);stop-opacity:1;"/><stop offset="1" style="stop-color:rgb(0%,54.11765%,25.098041%);stop-opacity:1;"/></linearGradient><filter style="color-interpolation-filters:sRGB;" inkscape:label="Diffuse Light" id="filter184" x="-0.0375" y="-0.0375" width="1.075" height="1.075"><feGaussianBlur in="SourceGraphic" stdDeviation="1" result="blur" id="feGaussianBlur174" /><feDiffuseLighting diffuseConstant="1" surfaceScale="10" lighting-color="rgb(255,255,255)" result="diffuse" id="feDiffuseLighting178"><feDistantLight elevation="8" azimuth="235" id="feDistantLight176" /></feDiffuseLighting><feComposite in="diffuse" in2="diffuse" operator="arithmetic" k1="1" result="composite1" id="feComposite180" /><feComposite in="composite1" in2="SourceGraphic" k1="1" operator="arithmetic" k3="1" result="composite2" id="feComposite182" /></filter></defs><g id="surface1" style="filter:url(#filter184)"><path style=" stroke:none;fill-rule:nonzero;fill:url(#linear0);" d="M 33.292969 2.660156 C 17.570312 2.660156 4.820312 15.90625 4.820312 32.242188 C 4.820312 48.582031 17.570312 61.828125 33.292969 61.828125 C 49.019531 61.828125 61.765625 48.582031 61.765625 32.242188 C 61.765625 15.90625 49.019531 2.660156 33.292969 2.660156 Z M 33.292969 6.605469 C 46.921875 6.605469 57.96875 18.082031 57.96875 32.242188 C 57.96875 46.40625 46.921875 57.882812 33.292969 57.882812 C 19.664062 57.882812 8.617188 46.40625 8.617188 32.242188 C 8.617188 18.082031 19.664062 6.605469 33.292969 6.605469 Z M 33.292969 22.382812 C 22.855469 22.382812 11.941406 30.273438 10.515625 32.242188 C 11.941406 34.214844 20.957031 42.105469 33.292969 42.105469 C 45.632812 42.105469 54.648438 34.214844 56.070312 32.242188 C 54.648438 30.273438 43.734375 22.382812 33.292969 22.382812 Z M 33.292969 26.328125 C 36.4375 26.328125 38.988281 28.976562 38.988281 32.242188 C 38.988281 35.511719 36.4375 38.160156 33.292969 38.160156 C 30.148438 38.160156 27.597656 35.511719 27.597656 32.242188 C 27.597656 28.976562 30.148438 26.328125 33.292969 26.328125 Z M 33.292969 26.328125 "/></g></svg>
