<svg width="64" height="64" viewBox="0 0 64 64" version="1.1" xmlns:inkscape="http://www.inkscape.org/namespaces/inkscape"><defs><linearGradient id="linear0" gradientUnits="userSpaceOnUse" x1="0" y1="0" x2="0" y2="1" gradientTransform="matrix(64,0,0,64,0,0)"><stop offset="0" style="stop-color:rgb(75.686276%,77.64706%,83.92157%);stop-opacity:1;"/><stop offset="1" style="stop-color:rgb(43.529412%,45.09804%,50.196081%);stop-opacity:1;"/></linearGradient><filter style="color-interpolation-filters:sRGB;" inkscape:label="Diffuse Light" id="filter184" x="-0.0375" y="-0.0375" width="1.075" height="1.075"><feGaussianBlur in="SourceGraphic" stdDeviation="1" result="blur" id="feGaussianBlur174" /><feDiffuseLighting diffuseConstant="1" surfaceScale="10" lighting-color="rgb(255,255,255)" result="diffuse" id="feDiffuseLighting178"><feDistantLight elevation="8" azimuth="235" id="feDistantLight176" /></feDiffuseLighting><feComposite in="diffuse" in2="diffuse" operator="arithmetic" k1="1" result="composite1" id="feComposite180" /><feComposite in="composite1" in2="SourceGraphic" k1="1" operator="arithmetic" k3="1" result="composite2" id="feComposite182" /></filter></defs><g id="surface1" style="filter:url(#filter184)"><path style=" stroke:none;fill-rule:nonzero;fill:url(#linear0);" d="M 40.992188 0 L 40.152344 0.910156 L 40.152344 4.261719 L 40.886719 5.066406 L 44.792969 5.066406 L 44.792969 8.296875 L 18.972656 36.617188 L 18.972656 5.109375 L 23.261719 5.109375 L 24.140625 4.15625 L 24.140625 0.769531 L 23.332031 0.0820312 L 0.734375 0.0820312 L 0 0.890625 L 0 4.355469 L 0.742188 5.160156 L 4.675781 5.160156 L 4.675781 63.195312 L 5.410156 64 L 9.871094 64 L 64 3.585938 L 64 0.925781 L 63.160156 0.015625 L 40.992188 0.015625 M 40.984375 0.00390625 "/></g></svg>
