<svg width="64" height="64" viewBox="0 0 64 64" version="1.1" xmlns:inkscape="http://www.inkscape.org/namespaces/inkscape"><defs><linearGradient id="linear0" gradientUnits="userSpaceOnUse" x1="0" y1="0" x2="0" y2="1" gradientTransform="matrix(56,0,0,35.898438,4,14.050781)"><stop offset="0" style="stop-color:rgb(92.941177%,83.529413%,72.549021%);stop-opacity:1;"/><stop offset="1" style="stop-color:rgb(81.960785%,71.372551%,59.215689%);stop-opacity:1;"/></linearGradient><filter style="color-interpolation-filters:sRGB;" inkscape:label="Diffuse Light" id="filter184" x="-0.0375" y="-0.0375" width="1.075" height="1.075"><feGaussianBlur in="SourceGraphic" stdDeviation="1" result="blur" id="feGaussianBlur174" /><feDiffuseLighting diffuseConstant="1" surfaceScale="10" lighting-color="rgb(255,255,255)" result="diffuse" id="feDiffuseLighting178"><feDistantLight elevation="8" azimuth="235" id="feDistantLight176" /></feDiffuseLighting><feComposite in="diffuse" in2="diffuse" operator="arithmetic" k1="1" result="composite1" id="feComposite180" /><feComposite in="composite1" in2="SourceGraphic" k1="1" operator="arithmetic" k3="1" result="composite2" id="feComposite182" /></filter></defs><g id="surface1" style="filter:url(#filter184)"><path style=" stroke:none;fill-rule:nonzero;fill:url(#linear0);" d="M 34.125 3.335938 C 26.476562 3.402344 19.234375 6.875 14.289062 12.847656 C 16.136719 13.132812 17.851562 13.320312 19.347656 13.445312 C 23.445312 9.613281 28.796875 7.484375 34.347656 7.476562 C 39.914062 7.472656 45.277344 9.601562 49.386719 13.445312 C 50.980469 13.335938 52.683594 13.171875 54.488281 12.914062 C 49.484375 6.832031 42.113281 3.316406 34.347656 3.320312 C 34.273438 3.320312 34.203125 3.320312 34.128906 3.320312 Z M 8.011719 13.695312 C 26.230469 36.496094 34.328125 61.367188 34.328125 61.367188 C 34.328125 61.367188 42.421875 36.496094 60.640625 13.695312 C 54.566406 15.769531 44.445312 15.769531 44.445312 15.769531 L 34.328125 32.351562 L 24.207031 15.769531 C 24.207031 15.769531 16.109375 15.769531 8.011719 13.695312 Z M 10.097656 19.789062 C 8.722656 23.109375 8.015625 26.675781 8.011719 30.277344 C 7.972656 43.667969 17.542969 55.058594 30.480469 57.015625 C 29.949219 55.675781 29.320312 54.152344 28.550781 52.371094 C 18.828125 49.710938 12.058594 40.707031 12.035156 30.402344 C 12.035156 28.226562 12.339844 26.0625 12.9375 23.976562 C 12.015625 22.625 11.054688 21.261719 10.066406 19.914062 Z M 58.476562 19.789062 C 57.480469 21.148438 56.519531 22.503906 55.601562 23.851562 C 56.199219 25.9375 56.503906 28.101562 56.503906 30.277344 C 56.480469 40.582031 49.710938 49.585938 39.988281 52.246094 C 39.222656 54.015625 38.589844 55.542969 38.058594 56.871094 C 50.996094 54.914062 60.566406 43.523438 60.527344 30.132812 C 60.523438 26.53125 59.816406 22.964844 58.441406 19.644531 Z M 58.476562 19.789062 "/></g></svg>
