<svg width="64" height="64" viewBox="0 0 64 64" version="1.1" xmlns:inkscape="http://www.inkscape.org/namespaces/inkscape"><defs><linearGradient id="linear0" gradientUnits="userSpaceOnUse" x1="0" y1="0" x2="0" y2="1" gradientTransform="matrix(56,0,0,35.898438,4,14.050781)"><stop offset="0" style="stop-color:rgb(81.960785%,70.980394%,59.215689%);stop-opacity:1;"/><stop offset="1" style="stop-color:rgb(65.098041%,53.725493%,41.568628%);stop-opacity:1;"/></linearGradient><filter style="color-interpolation-filters:sRGB;" inkscape:label="Diffuse Light" id="filter184" x="-0.0375" y="-0.0375" width="1.075" height="1.075"><feGaussianBlur in="SourceGraphic" stdDeviation="1" result="blur" id="feGaussianBlur174" /><feDiffuseLighting diffuseConstant="1" surfaceScale="10" lighting-color="rgb(255,255,255)" result="diffuse" id="feDiffuseLighting178"><feDistantLight elevation="8" azimuth="235" id="feDistantLight176" /></feDiffuseLighting><feComposite in="diffuse" in2="diffuse" operator="arithmetic" k1="1" result="composite1" id="feComposite180" /><feComposite in="composite1" in2="SourceGraphic" k1="1" operator="arithmetic" k3="1" result="composite2" id="feComposite182" /></filter></defs><g id="surface1" style="filter:url(#filter184)"><path style=" stroke:none;fill-rule:nonzero;fill:url(#linear0);" d="M 14.746094 17.828125 C 13.378906 17.828125 12.273438 19.03125 12.273438 20.523438 L 12.273438 44.777344 C 12.273438 46.269531 13.378906 47.472656 14.746094 47.472656 L 49.371094 47.472656 C 50.742188 47.472656 51.84375 46.269531 51.84375 44.777344 L 51.84375 20.523438 C 51.84375 19.03125 50.742188 17.828125 49.371094 17.828125 Z M 4.855469 20.523438 L 4.855469 21.871094 L 6.09375 23.21875 L 7.328125 21.871094 L 7.328125 20.523438 Z M 58.027344 20.523438 C 57.34375 20.523438 56.789062 21.125 56.789062 21.871094 C 56.789062 22.613281 57.34375 23.21875 58.027344 23.21875 C 58.710938 23.21875 59.261719 22.613281 59.261719 21.871094 C 59.261719 21.125 58.710938 20.523438 58.027344 20.523438 Z M 2.382812 23.21875 L 2.382812 25.914062 L 3.621094 25.914062 L 4.855469 24.566406 L 3.621094 23.21875 Z M 8.566406 23.21875 L 7.328125 24.566406 L 8.566406 25.914062 L 9.800781 25.914062 L 9.800781 23.21875 Z M 55.554688 23.21875 C 54.871094 23.21875 54.316406 23.820312 54.316406 24.566406 C 54.316406 25.308594 54.871094 25.914062 55.554688 25.914062 C 56.234375 25.914062 56.789062 25.308594 56.789062 24.566406 C 56.789062 23.820312 56.234375 23.21875 55.554688 23.21875 Z M 60.5 23.21875 C 59.816406 23.21875 59.261719 23.820312 59.261719 24.566406 C 59.261719 25.308594 59.816406 25.914062 60.5 25.914062 C 61.183594 25.914062 61.738281 25.308594 61.738281 24.566406 C 61.738281 23.820312 61.183594 23.21875 60.5 23.21875 Z M 6.09375 25.914062 L 4.855469 27.261719 L 4.855469 28.605469 L 7.328125 28.605469 L 7.328125 27.261719 Z M 58.027344 25.914062 C 57.34375 25.914062 56.789062 26.515625 56.789062 27.261719 C 56.789062 28.003906 57.34375 28.605469 58.027344 28.605469 C 58.710938 28.605469 59.261719 28.003906 59.261719 27.261719 C 59.261719 26.515625 58.710938 25.914062 58.027344 25.914062 Z M 6.09375 33.996094 C 4.042969 33.996094 2.382812 35.808594 2.382812 38.039062 C 2.382812 40.269531 4.042969 42.082031 6.09375 42.082031 C 8.140625 42.082031 9.800781 40.269531 9.800781 38.039062 C 9.800781 35.808594 8.140625 33.996094 6.09375 33.996094 Z M 58.027344 33.996094 C 55.980469 33.996094 54.316406 35.808594 54.316406 38.039062 C 54.316406 40.269531 55.980469 42.082031 58.027344 42.082031 C 60.074219 42.082031 61.738281 40.269531 61.738281 38.039062 C 61.738281 35.808594 60.074219 33.996094 58.027344 33.996094 Z M 58.027344 33.996094 "/></g></svg>
