<svg width="64" height="64" viewBox="0 0 64 64" version="1.1" xmlns:inkscape="http://www.inkscape.org/namespaces/inkscape"><defs><linearGradient id="linear0" gradientUnits="userSpaceOnUse" x1="0" y1="0" x2="0" y2="1" gradientTransform="matrix(60,0,0,56.46875,2,3.53125)"><stop offset="0" style="stop-color:rgb(100%,63.137257%,63.137257%);stop-opacity:1;"/><stop offset="1" style="stop-color:rgb(100%,27.843139%,27.843139%);stop-opacity:1;"/></linearGradient><filter style="color-interpolation-filters:sRGB;" inkscape:label="Diffuse Light" id="filter184" x="-0.0375" y="-0.0375" width="1.075" height="1.075"><feGaussianBlur in="SourceGraphic" stdDeviation="1" result="blur" id="feGaussianBlur174" /><feDiffuseLighting diffuseConstant="1" surfaceScale="10" lighting-color="rgb(255,255,255)" result="diffuse" id="feDiffuseLighting178"><feDistantLight elevation="8" azimuth="235" id="feDistantLight176" /></feDiffuseLighting><feComposite in="diffuse" in2="diffuse" operator="arithmetic" k1="1" result="composite1" id="feComposite180" /><feComposite in="composite1" in2="SourceGraphic" k1="1" operator="arithmetic" k3="1" result="composite2" id="feComposite182" /></filter></defs><g id="surface1" style="filter:url(#filter184)"><path style=" stroke:none;fill-rule:nonzero;fill:url(#linear0);" d="M 54.941406 3.53125 C 51.042969 3.53125 47.882812 6.691406 47.882812 10.589844 C 47.886719 11.535156 48.078125 12.464844 48.449219 13.332031 C 48.503906 13.539062 48.546875 13.773438 48.613281 13.949219 C 50.089844 19.640625 48.585938 24.089844 45.226562 28.140625 C 40.519531 32.878906 33.757812 32.964844 29.085938 28.332031 L 14.816406 5.773438 C 13.371094 4.210938 11.355469 3.652344 9.515625 3.640625 C 5.554688 3.578125 2.8125 6.738281 2.160156 10.128906 C 1.679688 12.84375 1.460938 12.371094 14.25 35.613281 C 22.324219 50.28125 26.160156 57.046875 26.789062 57.710938 C 29.019531 60.066406 32.199219 60.648438 35.171875 59.25 C 35.953125 58.882812 36.832031 58.21875 37.398438 57.582031 C 38.503906 56.332031 61.035156 14.910156 61.40625 13.484375 C 61.851562 12.539062 61.945312 11.535156 62 10.589844 C 62 6.691406 58.839844 3.53125 54.941406 3.53125 Z M 54.941406 3.53125 "/></g></svg>
