<svg width="64" height="64" viewBox="0 0 64 64" version="1.1" xmlns:inkscape="http://www.inkscape.org/namespaces/inkscape"><defs><linearGradient id="linear0" gradientUnits="userSpaceOnUse" x1="0" y1="0" x2="0" y2="1" gradientTransform="matrix(53.335938,0,0,17.332031,5.332031,42.667969)"><stop offset="0" style="stop-color:rgb(0%,96.078432%,86.274511%);stop-opacity:1;"/><stop offset="1" style="stop-color:rgb(0%,54.901963%,49.411765%);stop-opacity:1;"/></linearGradient><linearGradient id="linear1" gradientUnits="userSpaceOnUse" x1="0" y1="0" x2="0" y2="1" gradientTransform="matrix(64,0,0,64,0,0)"><stop offset="0" style="stop-color:rgb(0%,96.078432%,86.274511%);stop-opacity:1;"/><stop offset="1" style="stop-color:rgb(0%,54.901963%,49.411765%);stop-opacity:1;"/></linearGradient><filter style="color-interpolation-filters:sRGB;" inkscape:label="Diffuse Light" id="filter184" x="-0.0375" y="-0.0375" width="1.075" height="1.075"><feGaussianBlur in="SourceGraphic" stdDeviation="1" result="blur" id="feGaussianBlur174" /><feDiffuseLighting diffuseConstant="1" surfaceScale="10" lighting-color="rgb(255,255,255)" result="diffuse" id="feDiffuseLighting178"><feDistantLight elevation="8" azimuth="235" id="feDistantLight176" /></feDiffuseLighting><feComposite in="diffuse" in2="diffuse" operator="arithmetic" k1="1" result="composite1" id="feComposite180" /><feComposite in="composite1" in2="SourceGraphic" k1="1" operator="arithmetic" k3="1" result="composite2" id="feComposite182" /></filter></defs><g id="surface1" style="filter:url(#filter184)"><path style=" stroke:none;fill-rule:nonzero;fill:url(#linear0);" d="M 28 42.667969 L 28 52 L 5.332031 52 L 5.332031 60 L 58.667969 60 L 58.667969 52 L 36 52 L 36 42.667969 Z M 28 42.667969 "/><path style=" stroke:none;fill-rule:evenodd;fill:url(#linear1);" d="M 21.332031 10.667969 L 42.667969 10.667969 L 42.667969 32 L 21.332031 32 Z M 15.121094 0 C 12.652344 0 10.667969 1.988281 10.667969 4.453125 L 10.667969 38.210938 C 10.667969 40.679688 12.652344 42.667969 15.121094 42.667969 L 48.878906 42.667969 C 51.347656 42.667969 53.335938 40.679688 53.335938 38.210938 L 53.335938 4.453125 C 53.335938 1.988281 51.347656 0 48.878906 0 Z M 0 56 C 0 51.585938 3.585938 48 8 48 C 12.414062 48 16 51.585938 16 56 C 16 60.414062 12.414062 64 8 64 C 3.585938 64 0 60.414062 0 56 Z M 24 56 C 24 51.585938 27.585938 48 32 48 C 36.414062 48 40 51.585938 40 56 C 40 60.414062 36.414062 64 32 64 C 27.585938 64 24 60.414062 24 56 Z M 48 56 C 48 51.585938 51.585938 48 56 48 C 60.414062 48 64 51.585938 64 56 C 64 60.414062 60.414062 64 56 64 C 51.585938 64 48 60.414062 48 56 Z M 48 56 "/></g></svg>
