<svg width="64" height="64" viewBox="0 0 64 64" version="1.1" xmlns:inkscape="http://www.inkscape.org/namespaces/inkscape"><defs><linearGradient id="linear0" gradientUnits="userSpaceOnUse" x1="0" y1="0" x2="0" y2="1" gradientTransform="matrix(64,0,0,51.546875,0,6.226562)"><stop offset="0" style="stop-color:rgb(100%,56.862748%,82.745099%);stop-opacity:1;"/><stop offset="1" style="stop-color:rgb(100%,0%,60.000002%);stop-opacity:1;"/></linearGradient><filter style="color-interpolation-filters:sRGB;" inkscape:label="Diffuse Light" id="filter184" x="-0.0375" y="-0.0375" width="1.075" height="1.075"><feGaussianBlur in="SourceGraphic" stdDeviation="1" result="blur" id="feGaussianBlur174" /><feDiffuseLighting diffuseConstant="1" surfaceScale="10" lighting-color="rgb(255,255,255)" result="diffuse" id="feDiffuseLighting178"><feDistantLight elevation="8" azimuth="235" id="feDistantLight176" /></feDiffuseLighting><feComposite in="diffuse" in2="diffuse" operator="arithmetic" k1="1" result="composite1" id="feComposite180" /><feComposite in="composite1" in2="SourceGraphic" k1="1" operator="arithmetic" k3="1" result="composite2" id="feComposite182" /></filter></defs><g id="surface1" style="filter:url(#filter184)"><path style=" stroke:none;fill-rule:nonzero;fill:url(#linear0);" d="M 0 6.226562 L 14.511719 54.355469 C 14.523438 54.382812 14.539062 54.390625 14.554688 54.421875 C 15.066406 56.34375 16.816406 57.773438 18.902344 57.773438 C 20.882812 57.773438 22.542969 56.492188 23.148438 54.714844 C 23.164062 54.6875 23.195312 54.652344 23.207031 54.628906 L 37.800781 6.226562 L 32.933594 6.226562 L 18.902344 53.128906 L 4.871094 6.226562 Z M 52.722656 6.226562 C 46.496094 6.226562 41.449219 11.277344 41.449219 17.503906 L 41.449219 28.78125 L 46.28125 28.78125 L 46.28125 17.503906 C 46.28125 13.886719 49.109375 11.058594 52.722656 11.058594 C 56.339844 11.058594 59.167969 13.886719 59.167969 17.503906 L 59.167969 28.78125 L 64 28.78125 L 64 17.503906 C 64 11.277344 58.953125 6.226562 52.722656 6.226562 Z M 52.722656 35.21875 C 46.496094 35.21875 41.449219 40.273438 41.449219 46.496094 C 41.449219 52.722656 46.496094 57.773438 52.722656 57.773438 L 64 57.773438 L 64 52.941406 L 52.722656 52.941406 C 49.109375 52.941406 46.28125 50.113281 46.28125 46.496094 C 46.28125 42.878906 49.109375 40.054688 52.722656 40.054688 L 64 40.054688 L 64 35.21875 Z M 52.722656 35.21875 "/></g></svg>
