<svg width="64" height="64" viewBox="0 0 64 64" version="1.1" xmlns:inkscape="http://www.inkscape.org/namespaces/inkscape"><defs><linearGradient id="linear0" gradientUnits="userSpaceOnUse" x1="0" y1="0" x2="0" y2="1" gradientTransform="matrix(56,0,0,35.898438,4,14.050781)"><stop offset="0" style="stop-color:rgb(0%,73.333335%,100%);stop-opacity:1;"/><stop offset="1" style="stop-color:rgb(0%,52.156866%,70.980394%);stop-opacity:1;"/></linearGradient><linearGradient id="linear1" gradientUnits="userSpaceOnUse" x1="0" y1="0" x2="0" y2="1" gradientTransform="matrix(56,0,0,35.898438,4,14.050781)"><stop offset="0" style="stop-color:rgb(0%,73.333335%,100%);stop-opacity:1;"/><stop offset="1" style="stop-color:rgb(0%,52.156866%,70.980394%);stop-opacity:1;"/></linearGradient><linearGradient id="linear2" gradientUnits="userSpaceOnUse" x1="0" y1="0" x2="0" y2="1" gradientTransform="matrix(56,0,0,35.898438,4,14.050781)"><stop offset="0" style="stop-color:rgb(0%,73.333335%,100%);stop-opacity:1;"/><stop offset="1" style="stop-color:rgb(0%,52.156866%,70.980394%);stop-opacity:1;"/></linearGradient><filter style="color-interpolation-filters:sRGB;" inkscape:label="Diffuse Light" id="filter184" x="-0.0375" y="-0.0375" width="1.075" height="1.075"><feGaussianBlur in="SourceGraphic" stdDeviation="1" result="blur" id="feGaussianBlur174" /><feDiffuseLighting diffuseConstant="1" surfaceScale="10" lighting-color="rgb(255,255,255)" result="diffuse" id="feDiffuseLighting178"><feDistantLight elevation="8" azimuth="235" id="feDistantLight176" /></feDiffuseLighting><feComposite in="diffuse" in2="diffuse" operator="arithmetic" k1="1" result="composite1" id="feComposite180" /><feComposite in="composite1" in2="SourceGraphic" k1="1" operator="arithmetic" k3="1" result="composite2" id="feComposite182" /></filter></defs><g id="surface1" style="filter:url(#filter184)"><path style=" stroke:none;fill-rule:nonzero;fill:url(#linear0);" d="M 18.347656 15.746094 L 4.765625 27.601562 L 59.101562 27.601562 L 45.515625 15.746094 Z M 2.5 30.988281 L 2.5 46.230469 L 61.363281 46.230469 L 61.363281 30.988281 Z M 2.5 30.988281 "/><path style=" stroke:none;fill-rule:nonzero;fill:url(#linear1);" d="M 50.363281 37.453125 C 50.363281 38.558594 49.46875 39.453125 48.363281 39.453125 C 47.257812 39.453125 46.363281 38.558594 46.363281 37.453125 C 46.363281 36.347656 47.257812 35.453125 48.363281 35.453125 C 49.46875 35.453125 50.363281 36.347656 50.363281 37.453125 Z M 50.363281 37.453125 "/><path style=" stroke:none;fill-rule:nonzero;fill:url(#linear2);" d="M 41.636719 37.773438 C 41.636719 38.878906 40.738281 39.773438 39.636719 39.773438 C 38.53125 39.773438 37.636719 38.878906 37.636719 37.773438 C 37.636719 36.667969 38.53125 35.773438 39.636719 35.773438 C 40.738281 35.773438 41.636719 36.667969 41.636719 37.773438 Z M 41.636719 37.773438 "/></g></svg>
