<svg width="64" height="64" viewBox="0 0 64 64" version="1.1" xmlns:inkscape="http://www.inkscape.org/namespaces/inkscape"><defs><linearGradient id="linear0" gradientUnits="userSpaceOnUse" x1="0" y1="0" x2="0" y2="1" gradientTransform="matrix(56,0,0,35.898438,4,14.050781)"><stop offset="0" style="stop-color:rgb(81.960785%,70.980394%,59.215689%);stop-opacity:1;"/><stop offset="1" style="stop-color:rgb(65.098041%,53.725493%,41.568628%);stop-opacity:1;"/></linearGradient><filter style="color-interpolation-filters:sRGB;" inkscape:label="Diffuse Light" id="filter184" x="-0.0375" y="-0.0375" width="1.075" height="1.075"><feGaussianBlur in="SourceGraphic" stdDeviation="1" result="blur" id="feGaussianBlur174" /><feDiffuseLighting diffuseConstant="1" surfaceScale="10" lighting-color="rgb(255,255,255)" result="diffuse" id="feDiffuseLighting178"><feDistantLight elevation="8" azimuth="235" id="feDistantLight176" /></feDiffuseLighting><feComposite in="diffuse" in2="diffuse" operator="arithmetic" k1="1" result="composite1" id="feComposite180" /><feComposite in="composite1" in2="SourceGraphic" k1="1" operator="arithmetic" k3="1" result="composite2" id="feComposite182" /></filter></defs><g id="surface1" style="filter:url(#filter184)"><path style=" stroke:none;fill-rule:nonzero;fill:url(#linear0);" d="M 5.167969 5.558594 L 5.167969 57.765625 L 58.578125 57.765625 L 58.578125 5.558594 Z M 8.503906 17.988281 L 15.179688 17.988281 L 15.179688 22.960938 L 18.519531 30.417969 L 21.855469 30.417969 L 25.195312 22.960938 L 25.195312 17.988281 L 31.871094 17.988281 L 31.871094 24.203125 L 21.855469 45.335938 L 18.519531 45.335938 L 8.503906 24.203125 Z M 41.886719 17.988281 L 55.238281 17.988281 L 55.238281 22.960938 L 45.222656 22.960938 L 41.886719 25.445312 L 41.886719 27.933594 L 55.238281 32.902344 L 55.238281 40.933594 L 48.5625 45.335938 L 35.210938 45.335938 L 35.210938 40.363281 L 45.222656 40.363281 L 48.5625 37.875 L 48.5625 35.390625 L 35.210938 30.417969 L 35.210938 22.960938 Z M 41.886719 17.988281 "/></g></svg>
