<?xml version="1.0" encoding="UTF-8" standalone="no"?><svg width="64" height="64" viewBox="0 0 64 64" version="1.1" id="svg756" sodipodi:docname="vsls-launcher.svg" inkscape:version="1.2.2 (b0a8486541, 2022-12-01)" xmlns:inkscape="http://www.inkscape.org/namespaces/inkscape" xmlns:sodipodi="http://sodipodi.sourceforge.net/DTD/sodipodi-0.dtd" xmlns:xlink="http://www.w3.org/1999/xlink" xmlns="http://www.w3.org/2000/svg" xmlns:svg="http://www.w3.org/2000/svg"> <sodipodi:namedview id="namedview758" pagecolor="#ffffff" bordercolor="#000000" borderopacity="0.25" inkscape:showpageshadow="2" inkscape:pageopacity="0.0" inkscape:pagecheckerboard="0" inkscape:deskcolor="#d1d1d1" showgrid="false" inkscape:zoom="3.6875" inkscape:cx="32" inkscape:cy="32.135593" inkscape:window-width="1432" inkscape:window-height="844" inkscape:window-x="0" inkscape:window-y="0" inkscape:window-maximized="1" inkscape:current-layer="svg756" /> <defs id="defs747"> <filter id="alpha" filterUnits="objectBoundingBox" x="0" y="0" width="1" height="1"> <feColorMatrix type="matrix" in="SourceGraphic" values="0 0 0 0 1 0 0 0 0 1 0 0 0 0 1 0 0 0 1 0" id="feColorMatrix718" /> </filter> <mask id="mask0"> <g filter="url(#alpha)" id="g723"> <rect x="0" y="0" width="64" height="64" style="fill:rgb(0%,0%,0%);fill-opacity:0.6;stroke:none;" id="rect721" /> </g> </mask> <linearGradient id="linear0" gradientUnits="userSpaceOnUse" x1="0" y1="0" x2="0" y2="1" gradientTransform="matrix(59.203125,0,0,54.800781,0,7.953125)"> <stop offset="0" style="stop-color:#ff91d3;stop-opacity:1;" id="stop726" /> <stop offset="1" style="stop-color:#ff0099;stop-opacity:1;" id="stop728" /> </linearGradient> <clipPath id="clip1"> <rect x="0" y="0" width="64" height="64" id="rect731" /> </clipPath> <g id="surface5" clip-path="url(#clip1)"> <path style=" stroke:none;fill-rule:nonzero;fill:url(#linear0);" d="M 8.910156 7.953125 C 3.972656 7.953125 0 11.925781 0 16.863281 L 0 53.84375 C 0 58.777344 3.972656 62.753906 8.910156 62.753906 L 37.6875 62.753906 C 35.5625 60.148438 34.40625 56.941406 34.40625 53.644531 C 34.40625 45.4375 41.410156 38.785156 50.054688 38.785156 C 53.339844 38.78125 56.539062 39.765625 59.203125 41.585938 L 59.203125 16.863281 C 59.203125 11.925781 55.230469 7.953125 50.292969 7.953125 Z M 8.910156 7.953125 " id="path734" /> </g> <linearGradient id="linear1" gradientUnits="userSpaceOnUse" x1="0" y1="0" x2="0" y2="1" gradientTransform="matrix(51.621094,0,0,59.621094,12.378906,1.203125)"> <stop offset="0" style="stop-color:#ff91d3;stop-opacity:1;" id="stop737" /> <stop offset="1" style="stop-color:#ff0099;stop-opacity:1;" id="stop739" /> </linearGradient> <linearGradient id="linear2" gradientUnits="userSpaceOnUse" x1="0" y1="0" x2="0" y2="1" gradientTransform="matrix(18.304688,0,0,18.304688,40.902344,44.492187)"> <stop offset="0" style="stop-color:#ff91d3;stop-opacity:1;" id="stop742" /> <stop offset="1" style="stop-color:#ff0099;stop-opacity:1;" id="stop744" /> </linearGradient> <filter style="color-interpolation-filters:sRGB;" inkscape:label="Diffuse Light" id="filter1895" x="-0.037499664" y="-0.038965088" width="1.0749993" height="1.0779302"> <feGaussianBlur in="SourceGraphic" stdDeviation="1" result="blur" id="feGaussianBlur1885" /> <feDiffuseLighting diffuseConstant="1" surfaceScale="10" lighting-color="rgb(255,255,255)" result="diffuse" id="feDiffuseLighting1889"> <feDistantLight elevation="8" azimuth="235" id="feDistantLight1887" /> </feDiffuseLighting> <feComposite in="diffuse" in2="diffuse" operator="arithmetic" k1="1" result="composite1" id="feComposite1891" /> <feComposite in="composite1" in2="SourceGraphic" k1="1" operator="arithmetic" k3="1" result="composite2" id="feComposite1893" /> </filter> </defs> <g id="surface1" style="filter:url(#filter1895)"> <use xlink:href="#surface5" mask="url(#mask0)" id="use749" /> <path style=" stroke:none;fill-rule:nonzero;fill:url(#linear1);" d="M 13.21875 60.824219 C 13.21875 60.824219 4.992188 20.535156 40.066406 8.582031 L 40.207031 2.585938 C 40.230469 1.507812 41.402344 0.855469 42.332031 1.398438 L 63.304688 13.703125 C 64.175781 14.210938 64.242188 15.449219 63.429688 16.050781 L 43.792969 30.578125 C 42.816406 31.300781 41.4375 30.585938 41.464844 29.371094 L 41.585938 23.566406 C 20.625 25.035156 13.21875 60.824219 13.21875 60.824219 Z M 13.21875 60.824219 " id="path751" /> <path style=" stroke:none;fill-rule:nonzero;fill:url(#linear2);" d="M 59.207031 53.644531 C 59.207031 58.699219 55.109375 62.796875 50.054688 62.796875 C 45 62.796875 40.902344 58.699219 40.902344 53.644531 C 40.902344 48.589844 45 44.492188 50.054688 44.492188 C 55.109375 44.492188 59.207031 48.589844 59.207031 53.644531 Z M 59.207031 53.644531 " id="path753" /> </g></svg>
