<svg width="64" height="64" viewBox="0 0 64 64" version="1.1" xmlns:inkscape="http://www.inkscape.org/namespaces/inkscape"><defs><linearGradient id="linear0" gradientUnits="userSpaceOnUse" x1="0" y1="0" x2="0" y2="1" gradientTransform="matrix(66.192603,0,0,63.24317,-1.364214,0.307767)"><stop offset="0" style="stop-color:rgb(82.352942%,61.176473%,100%);stop-opacity:1;"/><stop offset="1" style="stop-color:rgb(66.666669%,0%,100%);stop-opacity:1;"/></linearGradient><filter style="color-interpolation-filters:sRGB;" inkscape:label="Diffuse Light" id="filter184" x="-0.0375" y="-0.0375" width="1.075" height="1.075"><feGaussianBlur in="SourceGraphic" stdDeviation="1" result="blur" id="feGaussianBlur174" /><feDiffuseLighting diffuseConstant="1" surfaceScale="10" lighting-color="rgb(255,255,255)" result="diffuse" id="feDiffuseLighting178"><feDistantLight elevation="8" azimuth="235" id="feDistantLight176" /></feDiffuseLighting><feComposite in="diffuse" in2="diffuse" operator="arithmetic" k1="1" result="composite1" id="feComposite180" /><feComposite in="composite1" in2="SourceGraphic" k1="1" operator="arithmetic" k3="1" result="composite2" id="feComposite182" /></filter></defs><g id="surface1" style="filter:url(#filter184)"><path style=" stroke:none;fill-rule:nonzero;fill:url(#linear0);" d="M 48.925781 2.320312 L 26.949219 8.851562 L 30.332031 20.015625 C 36.042969 19.1875 41.597656 22.28125 43.851562 27.539062 L 55.515625 24.066406 Z M 23.417969 9.894531 L 1.441406 16.425781 L 8.042969 38.183594 L 19.699219 34.714844 C 19.234375 32.214844 19.542969 29.628906 20.59375 27.304688 L 25.246094 30.035156 C 24.890625 31.046875 24.765625 32.121094 24.875 33.179688 L 30.015625 31.652344 L 28.367188 26.21875 C 27.921875 26.484375 27.507812 26.796875 27.128906 27.15625 L 22.445312 24.398438 C 23.632812 22.980469 25.121094 21.839844 26.800781 21.058594 Z M 31.914062 25.164062 C 31.90625 25.164062 31.902344 25.164062 31.898438 25.164062 L 33.546875 30.601562 L 38.691406 29.070312 C 37.378906 26.582031 34.742188 25.0625 31.914062 25.164062 Z M 56.3125 26.691406 L 44.65625 30.15625 C 45.703125 35.78125 42.789062 41.390625 37.558594 43.820312 L 40.949219 54.972656 L 62.917969 48.445312 Z M 39.488281 31.695312 L 34.34375 33.222656 L 35.988281 38.65625 C 38.414062 37.199219 39.773438 34.496094 39.488281 31.699219 Z M 30.808594 34.277344 L 25.664062 35.808594 C 26.976562 38.304688 29.621094 39.824219 32.457031 39.71875 Z M 20.503906 37.335938 L 8.839844 40.808594 L 15.4375 62.558594 L 37.40625 56.023438 L 34.023438 44.859375 C 28.3125 45.6875 22.757812 42.597656 20.503906 37.335938 Z M 20.503906 37.335938 "/></g></svg>
