<svg width="64" height="64" viewBox="0 0 64 64" version="1.1" xmlns:inkscape="http://www.inkscape.org/namespaces/inkscape"><defs><linearGradient id="linear0" gradientUnits="userSpaceOnUse" x1="0" y1="0" x2="0" y2="1" gradientTransform="matrix(59.75,0,0,64,2.125,0)"><stop offset="0" style="stop-color:rgb(0%,96.078432%,86.274511%);stop-opacity:1;"/><stop offset="1" style="stop-color:rgb(0%,54.901963%,49.411765%);stop-opacity:1;"/></linearGradient><filter style="color-interpolation-filters:sRGB;" inkscape:label="Diffuse Light" id="filter184" x="-0.0375" y="-0.0375" width="1.075" height="1.075"><feGaussianBlur in="SourceGraphic" stdDeviation="1" result="blur" id="feGaussianBlur174" /><feDiffuseLighting diffuseConstant="1" surfaceScale="10" lighting-color="rgb(255,255,255)" result="diffuse" id="feDiffuseLighting178"><feDistantLight elevation="8" azimuth="235" id="feDistantLight176" /></feDiffuseLighting><feComposite in="diffuse" in2="diffuse" operator="arithmetic" k1="1" result="composite1" id="feComposite180" /><feComposite in="composite1" in2="SourceGraphic" k1="1" operator="arithmetic" k3="1" result="composite2" id="feComposite182" /></filter></defs><g id="surface1" style="filter:url(#filter184)"><path style=" stroke:none;fill-rule:nonzero;fill:url(#linear0);" d="M 28.679688 0 L 26.703125 0.625 L 2.125 8.300781 L 2.125 23.078125 L 15.125 31.210938 L 2.125 37.714844 L 2.125 52.378906 L 26.019531 62.832031 L 28.679688 64 L 28.679688 49.507812 L 17.769531 44.730469 L 28.679688 39.273438 L 28.679688 24.023438 L 17.890625 17.28125 L 28.679688 13.90625 Z M 35.320312 0 L 35.320312 13.90625 L 46.109375 17.28125 L 35.320312 24.023438 L 35.320312 39.273438 L 46.230469 44.730469 L 35.320312 49.507812 L 35.320312 64 L 37.980469 62.832031 L 61.875 52.378906 L 61.875 37.714844 L 48.875 31.210938 L 61.875 23.078125 L 61.875 8.300781 L 37.296875 0.625 Z M 35.320312 0 "/></g></svg>
