<svg width="64" height="64" viewBox="0 0 64 64" version="1.1" xmlns:inkscape="http://www.inkscape.org/namespaces/inkscape"><defs><linearGradient id="linear0" gradientUnits="userSpaceOnUse" x1="0" y1="0" x2="0" y2="1" gradientTransform="matrix(56,0,0,35.898438,4,14.050781)"><stop offset="0" style="stop-color:rgb(87.058824%,86.666667%,56.470591%);stop-opacity:1;"/><stop offset="1" style="stop-color:rgb(67.843139%,67.450982%,38.039216%);stop-opacity:1;"/></linearGradient><filter style="color-interpolation-filters:sRGB;" inkscape:label="Diffuse Light" id="filter184" x="-0.0375" y="-0.0375" width="1.075" height="1.075"><feGaussianBlur in="SourceGraphic" stdDeviation="1" result="blur" id="feGaussianBlur174" /><feDiffuseLighting diffuseConstant="1" surfaceScale="10" lighting-color="rgb(255,255,255)" result="diffuse" id="feDiffuseLighting178"><feDistantLight elevation="8" azimuth="235" id="feDistantLight176" /></feDiffuseLighting><feComposite in="diffuse" in2="diffuse" operator="arithmetic" k1="1" result="composite1" id="feComposite180" /><feComposite in="composite1" in2="SourceGraphic" k1="1" operator="arithmetic" k3="1" result="composite2" id="feComposite182" /></filter></defs><g id="surface1" style="filter:url(#filter184)"><path style=" stroke:none;fill-rule:nonzero;fill:url(#linear0);" d="M 7.617188 4.296875 C 7.160156 4.332031 6.710938 4.453125 6.300781 4.660156 C 4.578125 5.53125 3.878906 7.648438 4.738281 9.390625 L 29.195312 58.828125 C 29.789062 60.023438 30.996094 60.773438 32.316406 60.773438 C 33.636719 60.773438 34.84375 60.023438 35.4375 58.828125 L 59.894531 9.390625 C 60.753906 7.648438 60.054688 5.53125 58.328125 4.660156 C 56.605469 3.792969 54.507812 4.5 53.648438 6.242188 L 45.308594 23.121094 L 19.453125 23.121094 L 11.113281 6.242188 C 10.699219 5.402344 9.972656 4.765625 9.09375 4.46875 C 8.660156 4.320312 8.199219 4.261719 7.742188 4.296875 Z M 7.617188 4.296875 "/></g></svg>
