<svg width="64" height="64" viewBox="0 0 64 64" version="1.1" xmlns:inkscape="http://www.inkscape.org/namespaces/inkscape"><defs><linearGradient id="linear0" gradientUnits="userSpaceOnUse" x1="0" y1="0" x2="0" y2="1" gradientTransform="matrix(56,0,0,35.898438,4,14.050781)"><stop offset="0" style="stop-color:rgb(0%,78.823531%,36.862746%);stop-opacity:1;"/><stop offset="1" style="stop-color:rgb(0%,54.11765%,25.098041%);stop-opacity:1;"/></linearGradient><filter style="color-interpolation-filters:sRGB;" inkscape:label="Diffuse Light" id="filter184" x="-0.0375" y="-0.0375" width="1.075" height="1.075"><feGaussianBlur in="SourceGraphic" stdDeviation="1" result="blur" id="feGaussianBlur174" /><feDiffuseLighting diffuseConstant="1" surfaceScale="10" lighting-color="rgb(255,255,255)" result="diffuse" id="feDiffuseLighting178"><feDistantLight elevation="8" azimuth="235" id="feDistantLight176" /></feDiffuseLighting><feComposite in="diffuse" in2="diffuse" operator="arithmetic" k1="1" result="composite1" id="feComposite180" /><feComposite in="composite1" in2="SourceGraphic" k1="1" operator="arithmetic" k3="1" result="composite2" id="feComposite182" /></filter></defs><g id="surface1" style="filter:url(#filter184)"><path style=" stroke:none;fill-rule:nonzero;fill:url(#linear0);" d="M 39.328125 2.457031 C 36.558594 2.457031 34.335938 4.664062 34.335938 7.390625 C 34.335938 10.117188 36.570312 12.324219 39.328125 12.324219 C 42.082031 12.324219 44.316406 10.117188 44.316406 7.390625 C 44.316406 4.664062 42.082031 2.457031 39.328125 2.457031 Z M 34.335938 12.324219 C 31.566406 12.324219 29.347656 14.53125 29.347656 17.253906 C 29.347656 19.980469 31.582031 22.1875 34.335938 22.1875 C 37.09375 22.1875 39.328125 19.980469 39.328125 17.253906 C 39.328125 14.53125 37.09375 12.324219 34.335938 12.324219 Z M 26.851562 22.1875 C 24.082031 22.1875 21.863281 24.394531 21.863281 27.121094 C 21.863281 29.847656 24.09375 32.054688 26.851562 32.054688 C 29.609375 32.054688 31.84375 29.847656 31.84375 27.121094 C 31.84375 24.394531 29.609375 22.1875 26.851562 22.1875 Z M 41.820312 22.1875 C 39.050781 22.1875 36.832031 24.394531 36.832031 27.121094 C 36.832031 29.847656 39.066406 32.054688 41.820312 32.054688 C 44.578125 32.054688 46.8125 29.847656 46.8125 27.121094 C 46.8125 24.394531 44.578125 22.1875 41.820312 22.1875 Z M 21.863281 32.054688 C 19.09375 32.054688 16.871094 34.261719 16.871094 36.984375 C 16.871094 39.710938 19.105469 41.917969 21.863281 41.917969 C 24.617188 41.917969 26.851562 39.710938 26.851562 36.984375 C 26.851562 34.261719 24.617188 32.054688 21.863281 32.054688 Z M 34.335938 32.054688 C 31.566406 32.054688 29.347656 34.261719 29.347656 36.984375 C 29.347656 39.710938 31.582031 41.917969 34.335938 41.917969 C 37.09375 41.917969 39.328125 39.710938 39.328125 36.984375 C 39.328125 34.261719 37.09375 32.054688 34.335938 32.054688 Z M 46.8125 32.054688 C 44.042969 32.054688 41.820312 34.261719 41.820312 36.984375 C 41.820312 39.710938 44.054688 41.917969 46.8125 41.917969 C 49.570312 41.917969 51.800781 39.710938 51.800781 36.984375 C 51.800781 34.261719 49.570312 32.054688 46.8125 32.054688 Z M 26.851562 41.917969 C 24.082031 41.917969 21.863281 44.125 21.863281 46.851562 C 21.863281 49.574219 24.09375 51.785156 26.851562 51.785156 C 29.609375 51.785156 31.84375 49.574219 31.84375 46.851562 C 31.84375 44.125 29.609375 41.917969 26.851562 41.917969 Z M 41.820312 41.917969 C 39.050781 41.917969 36.832031 44.125 36.832031 46.851562 C 36.832031 49.574219 39.066406 51.785156 41.820312 51.785156 C 44.578125 51.785156 46.8125 49.574219 46.8125 46.851562 C 46.8125 44.125 44.578125 41.917969 41.820312 41.917969 Z M 34.335938 51.785156 C 31.566406 51.785156 29.347656 53.992188 29.347656 56.714844 C 29.347656 59.441406 31.582031 61.648438 34.335938 61.648438 C 37.09375 61.648438 39.328125 59.441406 39.328125 56.714844 C 39.328125 53.992188 37.09375 51.785156 34.335938 51.785156 Z M 34.335938 51.785156 "/></g></svg>
