<svg width="64" height="64" viewBox="0 0 64 64" version="1.1" xmlns:inkscape="http://www.inkscape.org/namespaces/inkscape"><defs><linearGradient id="linear0" gradientUnits="userSpaceOnUse" x1="0" y1="0" x2="0" y2="1" gradientTransform="matrix(56,0,0,35.898438,4,14.050781)"><stop offset="0" style="stop-color:rgb(0%,73.333335%,100%);stop-opacity:1;"/><stop offset="1" style="stop-color:rgb(0%,52.156866%,70.980394%);stop-opacity:1;"/></linearGradient><filter style="color-interpolation-filters:sRGB;" inkscape:label="Diffuse Light" id="filter184" x="-0.0375" y="-0.0375" width="1.075" height="1.075"><feGaussianBlur in="SourceGraphic" stdDeviation="1" result="blur" id="feGaussianBlur174" /><feDiffuseLighting diffuseConstant="1" surfaceScale="10" lighting-color="rgb(255,255,255)" result="diffuse" id="feDiffuseLighting178"><feDistantLight elevation="8" azimuth="235" id="feDistantLight176" /></feDiffuseLighting><feComposite in="diffuse" in2="diffuse" operator="arithmetic" k1="1" result="composite1" id="feComposite180" /><feComposite in="composite1" in2="SourceGraphic" k1="1" operator="arithmetic" k3="1" result="composite2" id="feComposite182" /></filter></defs><g id="surface1" style="filter:url(#filter184)"><path style=" stroke:none;fill-rule:nonzero;fill:url(#linear0);" d="M 35.050781 3.179688 L 9.167969 18.519531 L 9.167969 45.367188 L 35.050781 60.707031 L 60.929688 45.367188 L 60.929688 18.519531 Z M 35.050781 7.671875 L 56.949219 20.4375 L 56.949219 43.449219 L 35.050781 56.214844 L 13.148438 43.449219 L 13.148438 20.4375 Z M 33.058594 24.273438 L 25.09375 39.613281 L 29.078125 39.613281 L 37.039062 24.273438 Z M 41.023438 24.273438 L 37.039062 31.941406 L 41.023438 31.941406 L 45.003906 24.273438 Z M 48.984375 24.273438 L 41.023438 39.613281 L 45.003906 39.613281 L 52.96875 24.273438 Z M 21.113281 31.941406 L 17.132812 39.613281 L 21.113281 39.613281 L 25.09375 31.941406 Z M 21.113281 31.941406 "/></g></svg>
