<svg width="64" height="64" viewBox="0 0 64 64" version="1.1" xmlns:inkscape="http://www.inkscape.org/namespaces/inkscape"><defs><linearGradient id="linear0" gradientUnits="userSpaceOnUse" x1="0" y1="0" x2="0" y2="1" gradientTransform="matrix(56,0,0,35.898438,4,14.050781)"><stop offset="0" style="stop-color:rgb(61.176473%,69.803923%,85.09804%);stop-opacity:1;"/><stop offset="1" style="stop-color:rgb(44.313726%,52.156866%,65.882355%);stop-opacity:1;"/></linearGradient><filter style="color-interpolation-filters:sRGB;" inkscape:label="Diffuse Light" id="filter184" x="-0.0375" y="-0.0375" width="1.075" height="1.075"><feGaussianBlur in="SourceGraphic" stdDeviation="1" result="blur" id="feGaussianBlur174" /><feDiffuseLighting diffuseConstant="1" surfaceScale="10" lighting-color="rgb(255,255,255)" result="diffuse" id="feDiffuseLighting178"><feDistantLight elevation="8" azimuth="235" id="feDistantLight176" /></feDiffuseLighting><feComposite in="diffuse" in2="diffuse" operator="arithmetic" k1="1" result="composite1" id="feComposite180" /><feComposite in="composite1" in2="SourceGraphic" k1="1" operator="arithmetic" k3="1" result="composite2" id="feComposite182" /></filter></defs><g id="surface1" style="filter:url(#filter184)"><path style=" stroke:none;fill-rule:nonzero;fill:url(#linear0);" d="M 31.753906 3.515625 L 31.753906 43.726562 C 31.753906 47.890625 27.851562 51.265625 23.042969 51.265625 C 18.230469 51.265625 14.328125 47.890625 14.328125 43.726562 C 14.328125 39.5625 18.230469 36.1875 23.042969 36.1875 C 24.03125 36.191406 25.011719 36.339844 25.945312 36.628906 L 25.945312 26.320312 C 24.984375 26.199219 24.011719 26.136719 23.042969 26.132812 C 11.816406 26.132812 2.714844 34.011719 2.714844 43.726562 C 2.714844 53.441406 11.816406 61.320312 23.042969 61.320312 C 34.269531 61.320312 43.367188 53.441406 43.367188 43.726562 L 43.367188 18.59375 C 46.273438 26.132812 60.792969 26.132812 60.792969 26.132812 L 60.792969 16.082031 C 60.792969 16.082031 43.367188 16.082031 43.367188 3.515625 Z M 31.753906 3.515625 "/></g></svg>
