<svg width="64" height="64" viewBox="0 0 64 64" version="1.1" xmlns:inkscape="http://www.inkscape.org/namespaces/inkscape"><defs><linearGradient id="linear0" gradientUnits="userSpaceOnUse" x1="0" y1="0" x2="0" y2="1" gradientTransform="matrix(64,0,0,54.476562,0,4.761719)"><stop offset="0" style="stop-color:rgb(75.686276%,77.64706%,83.92157%);stop-opacity:1;"/><stop offset="1" style="stop-color:rgb(43.529412%,45.09804%,50.196081%);stop-opacity:1;"/></linearGradient><filter style="color-interpolation-filters:sRGB;" inkscape:label="Diffuse Light" id="filter184" x="-0.0375" y="-0.0375" width="1.075" height="1.075"><feGaussianBlur in="SourceGraphic" stdDeviation="1" result="blur" id="feGaussianBlur174" /><feDiffuseLighting diffuseConstant="1" surfaceScale="10" lighting-color="rgb(255,255,255)" result="diffuse" id="feDiffuseLighting178"><feDistantLight elevation="8" azimuth="235" id="feDistantLight176" /></feDiffuseLighting><feComposite in="diffuse" in2="diffuse" operator="arithmetic" k1="1" result="composite1" id="feComposite180" /><feComposite in="composite1" in2="SourceGraphic" k1="1" operator="arithmetic" k3="1" result="composite2" id="feComposite182" /></filter></defs><g id="surface1" style="filter:url(#filter184)"><path style=" stroke:none;fill-rule:nonzero;fill:url(#linear0);" d="M 55.042969 8.058594 C 55.363281 6.894531 56.15625 5.910156 57.207031 5.335938 C 58.273438 4.742188 59.523438 4.609375 60.679688 4.941406 C 61.855469 5.261719 62.84375 6.046875 63.425781 7.09375 C 64.019531 8.152344 64.15625 9.390625 63.820312 10.542969 L 50.929688 55.421875 C 49.539062 60.257812 46.574219 60.535156 44.316406 56.039062 L 32 31.574219 L 19.683594 56.039062 C 17.425781 60.535156 14.460938 60.257812 13.070312 55.421875 L 0.179688 10.542969 C -0.15625 9.390625 -0.0195312 8.152344 0.574219 7.09375 C 1.15625 6.046875 2.144531 5.261719 3.320312 4.941406 C 4.476562 4.609375 5.726562 4.742188 6.792969 5.335938 C 7.84375 5.910156 8.636719 6.894531 8.957031 8.058594 L 17.933594 39.222656 L 27.902344 19.398438 C 30.164062 14.902344 33.835938 14.902344 36.097656 19.398438 L 46.066406 39.222656 Z M 55.042969 8.058594 "/></g></svg>
