<svg width="64" height="64" viewBox="0 0 64 64" version="1.1" xmlns:inkscape="http://www.inkscape.org/namespaces/inkscape"><defs><linearGradient id="linear0" gradientUnits="userSpaceOnUse" x1="0" y1="0" x2="0" y2="1" gradientTransform="matrix(64,0,0,62.679687,0,0.660156)"><stop offset="0" style="stop-color:rgb(100%,63.137257%,63.137257%);stop-opacity:1;"/><stop offset="1" style="stop-color:rgb(100%,27.843139%,27.843139%);stop-opacity:1;"/></linearGradient><filter style="color-interpolation-filters:sRGB;" inkscape:label="Diffuse Light" id="filter184" x="-0.0375" y="-0.0375" width="1.075" height="1.075"><feGaussianBlur in="SourceGraphic" stdDeviation="1" result="blur" id="feGaussianBlur174" /><feDiffuseLighting diffuseConstant="1" surfaceScale="10" lighting-color="rgb(255,255,255)" result="diffuse" id="feDiffuseLighting178"><feDistantLight elevation="8" azimuth="235" id="feDistantLight176" /></feDiffuseLighting><feComposite in="diffuse" in2="diffuse" operator="arithmetic" k1="1" result="composite1" id="feComposite180" /><feComposite in="composite1" in2="SourceGraphic" k1="1" operator="arithmetic" k3="1" result="composite2" id="feComposite182" /></filter></defs><g id="surface1" style="filter:url(#filter184)"><path style=" stroke:none;fill-rule:nonzero;fill:url(#linear0);" d="M 40.875 32.21875 C 44.226562 34.988281 47.207031 38.402344 49.164062 42.0625 C 60.171875 27.933594 60.894531 16.296875 51.320312 7.132812 L 46.433594 7.703125 L 55.203125 1.667969 C 70.609375 14.882812 64.546875 32.71875 46.574219 48.53125 C 44.34375 44.519531 42.101562 41.367188 39.847656 39.101562 C 39.929688 44.21875 39.652344 48.925781 41.117188 56.867188 C 43.890625 55.734375 48.015625 55.457031 53.476562 56.007812 C 57.316406 50.34375 60.386719 46.898438 62.679688 45.65625 C 59.664062 52.210938 59.234375 56.914062 60.234375 59.457031 C 59.269531 61.289062 57.597656 62.492188 56.351562 63.339844 L 54.050781 59.886719 C 43.414062 59.828125 34.941406 59.878906 28.609375 60.03125 L 28.753906 58.597656 L 34.070312 57.445312 C 32.414062 49.390625 33.097656 44.996094 33.929688 44.21875 C 33.683594 42.910156 33.464844 41.671875 33.285156 40.496094 L 27.742188 47.667969 C 15.046875 40.355469 8.871094 29.914062 9.199219 16.332031 C 4.570312 16.46875 1.507812 15.324219 0 12.878906 C 3.191406 14.402344 6.40625 14.070312 9.632812 11.871094 L 15.097656 0.660156 C 20.832031 2.691406 25.003906 6.050781 27.601562 10.722656 C 25.300781 15.277344 21.09375 17.441406 14.953125 17.191406 C 15.683594 27.695312 19.425781 36.664062 26.164062 44.074219 L 32.796875 34.027344 C 32.894531 32.167969 33.296875 30.585938 34.136719 29.28125 C 33.191406 21.835938 31.160156 17.953125 28.03125 17.625 L 27.3125 15.613281 L 46.863281 15.757812 L 46.71875 17.480469 C 42 16.632812 40.175781 21.542969 39.816406 29.722656 C 40.359375 30.527344 40.710938 31.359375 40.875 32.21875 Z M 40.875 32.21875 "/></g></svg>
