<svg width="64" height="64" viewBox="0 0 64 64" version="1.1" xmlns:inkscape="http://www.inkscape.org/namespaces/inkscape"><defs><linearGradient id="linear0" gradientUnits="userSpaceOnUse" x1="0" y1="0" x2="0" y2="1" gradientTransform="matrix(64,0,0,49.773438,0,7.113281)"><stop offset="0" style="stop-color:rgb(100%,73.333335%,0%);stop-opacity:1;"/><stop offset="1" style="stop-color:rgb(70.19608%,51.372552%,0%);stop-opacity:1;"/></linearGradient><filter style="color-interpolation-filters:sRGB;" inkscape:label="Diffuse Light" id="filter184" x="-0.0375" y="-0.0375" width="1.075" height="1.075"><feGaussianBlur in="SourceGraphic" stdDeviation="1" result="blur" id="feGaussianBlur174" /><feDiffuseLighting diffuseConstant="1" surfaceScale="10" lighting-color="rgb(255,255,255)" result="diffuse" id="feDiffuseLighting178"><feDistantLight elevation="8" azimuth="235" id="feDistantLight176" /></feDiffuseLighting><feComposite in="diffuse" in2="diffuse" operator="arithmetic" k1="1" result="composite1" id="feComposite180" /><feComposite in="composite1" in2="SourceGraphic" k1="1" operator="arithmetic" k3="1" result="composite2" id="feComposite182" /></filter></defs><g id="surface1" style="filter:url(#filter184)"><path style=" stroke:none;fill-rule:nonzero;fill:url(#linear0);" d="M 7.113281 7.113281 C 3.171875 7.113281 0 10.285156 0 14.222656 L 32 32 L 64 14.222656 C 64 10.285156 60.828125 7.113281 56.886719 7.113281 Z M 7.113281 10.667969 L 56.886719 10.667969 C 58.234375 10.667969 59.152344 11.464844 59.757812 12.507812 L 32 27.929688 L 4.242188 12.507812 C 4.847656 11.464844 5.765625 10.664062 7.109375 10.664062 Z M 0 17.777344 L 0 49.777344 C 0 53.714844 3.171875 56.886719 7.113281 56.886719 L 56.886719 56.886719 C 60.828125 56.886719 64 53.714844 64 49.777344 L 64 17.777344 L 32 35.554688 Z M 3.554688 23.828125 L 30.273438 38.667969 C 31.34375 39.265625 32.65625 39.265625 33.726562 38.667969 L 60.445312 23.828125 L 60.445312 49.777344 C 60.445312 51.808594 58.914062 53.332031 56.886719 53.332031 L 7.109375 53.332031 C 5.074219 53.332031 3.550781 51.808594 3.550781 49.777344 L 3.550781 23.828125 Z M 3.554688 23.828125 "/></g></svg>
