<svg width="64" height="64" viewBox="0 0 64 64" version="1.1" xmlns:inkscape="http://www.inkscape.org/namespaces/inkscape"><defs><linearGradient id="linear0" gradientUnits="userSpaceOnUse" x1="0" y1="0" x2="0" y2="1" gradientTransform="matrix(64,0,0,57.182067,0,4.707824)"><stop offset="0" style="stop-color:rgb(82.352942%,61.176473%,100%);stop-opacity:1;"/><stop offset="1" style="stop-color:rgb(66.666669%,0%,100%);stop-opacity:1;"/></linearGradient><filter style="color-interpolation-filters:sRGB;" inkscape:label="Diffuse Light" id="filter184" x="-0.0375" y="-0.0375" width="1.075" height="1.075"><feGaussianBlur in="SourceGraphic" stdDeviation="1" result="blur" id="feGaussianBlur174" /><feDiffuseLighting diffuseConstant="1" surfaceScale="10" lighting-color="rgb(255,255,255)" result="diffuse" id="feDiffuseLighting178"><feDistantLight elevation="8" azimuth="235" id="feDistantLight176" /></feDiffuseLighting><feComposite in="diffuse" in2="diffuse" operator="arithmetic" k1="1" result="composite1" id="feComposite180" /><feComposite in="composite1" in2="SourceGraphic" k1="1" operator="arithmetic" k3="1" result="composite2" id="feComposite182" /></filter></defs><g id="surface1" style="filter:url(#filter184)"><path style=" stroke:none;fill-rule:nonzero;fill:url(#linear0);" d="M 29.910156 4.707031 L 29.910156 21.125 L 34.089844 21.125 L 34.089844 10.609375 L 35.65625 9.335938 Z M 22.691406 11.925781 L 22.441406 17.289062 L 16.9375 17.285156 L 20.015625 16.007812 L 0 16.007812 L 11.171875 17.289062 L 7.289062 21.125 L 26.777344 21.125 L 26.777344 14.121094 Z M 41.308594 11.925781 L 37.222656 14.121094 L 37.222656 21.125 L 56.710938 21.125 L 52.828125 17.289062 L 64 16.007812 L 43.984375 16.007812 L 47.0625 17.285156 L 41.558594 17.289062 Z M 18.171875 23.683594 L 22.601562 27.996094 L 22.601562 61.851562 L 29.910156 56.386719 L 29.910156 61.890625 L 41.398438 51.488281 L 41.398438 28.109375 L 45.890625 23.683594 L 37.222656 23.683594 L 37.222656 49.144531 L 34.132812 51.796875 L 34.046875 23.683594 L 29.910156 23.683594 L 29.910156 49.199219 L 26.828125 51.796875 L 26.726562 23.683594 Z M 18.171875 23.683594 "/></g></svg>
