<svg xmlns="http://www.w3.org/2000/svg" xmlns:xlink="http://www.w3.org/1999/xlink" width="64" height="64" viewBox="0 0 64 64" version="1.1">
<g id="surface1">
<path style=" stroke:none;fill-rule:nonzero;fill:rgb(88.235295%,72.156864%,61.56863%);fill-opacity:1;" d="M 6.039062 65.171875 C 6.261719 64.714844 8.574219 60.546875 8.574219 60.546875 L 13.195312 57.746094 L 19.011719 57.417969 L 22.964844 59.308594 L 27.585938 55.140625 L 30.121094 53.769531 L 30.71875 52.078125 L 30.941406 48.296875 L 27.660156 45.429688 L 29.078125 42.367188 L 27.214844 39.242188 L 27.214844 38.066406 L 25.871094 36.4375 L 24.679688 36.570312 L 23.558594 37.613281 L 19.757812 34.875 L 18.714844 30.445312 L 20.578125 27.96875 L 30.867188 4.511719 L 58.003906 14.613281 L 57.855469 36.179688 C 57.855469 36.179688 54.5 43.539062 54.875 43.539062 C 55.246094 43.539062 59.644531 43.996094 59.644531 43.996094 L 61.660156 45.496094 L 63.375 48.363281 L 63.296875 51.816406 L 62.179688 54.550781 L 63.148438 57.941406 L 59.945312 66.28125 Z M 6.039062 65.171875 "/>
<path style=" stroke:none;fill-rule:nonzero;fill:rgb(100%,100%,100%);fill-opacity:1;" d="M 42.425781 40.457031 C 41.847656 39.65625 42.941406 38.808594 44.910156 38.539062 C 46.878906 38.273438 49.019531 38.679688 49.765625 39.460938 C 50.515625 40.242188 49.601562 41.121094 47.699219 41.457031 C 45.796875 41.789062 43.578125 41.460938 42.664062 40.707031 "/>
<path style=" stroke:none;fill-rule:nonzero;fill:rgb(92.54902%,34.117648%,34.117648%);fill-opacity:1;" d="M 24 38.414062 C 23.75 37.59375 24.222656 36.730469 25.074219 36.457031 C 25.925781 36.183594 26.851562 36.597656 27.175781 37.394531 C 27.5 38.191406 27.105469 39.09375 26.28125 39.433594 C 25.457031 39.773438 24.496094 39.4375 24.101562 38.667969 "/>
<path style=" stroke:none;fill-rule:nonzero;fill:rgb(81.568629%,26.274511%,12.156863%);fill-opacity:1;" d="M 42.570312 0.796875 L 35.339844 1.515625 L 23.632812 6.53125 L 18.566406 12.332031 C 18.566406 12.332031 15.285156 20.800781 14.984375 21.191406 C 14.6875 21.582031 13.347656 37.613281 13.347656 37.613281 L 5.070312 41.78125 L 4.921875 44.972656 L 0.820312 49.144531 L 1.417969 55.464844 L 2.460938 56.570312 L 4.621094 57.550781 C 4.621094 57.550781 5.515625 59.894531 5.515625 60.15625 C 5.515625 60.417969 7.753906 60.871094 8.277344 60.871094 L 11.707031 58.460938 L 17.371094 57.222656 L 23.410156 59.179688 L 27.4375 55.335938 L 29.597656 54.292969 L 31.238281 51.683594 L 30.492188 48.425781 C 30.492188 48.425781 27.960938 45.691406 27.511719 45.363281 C 27.0625 45.039062 29.300781 42.695312 29.300781 42.695312 L 27.957031 40.414062 L 25.050781 39.632812 L 23.707031 37.742188 C 23.707031 37.742188 21.695312 36.632812 21.175781 36.375 C 20.652344 36.113281 18.789062 32.726562 18.789062 32.726562 L 20.277344 28.882812 L 21.992188 27.902344 L 25.050781 30.25 L 26.691406 24.320312 C 26.691406 24.320312 30.792969 16.957031 30.941406 16.695312 C 31.089844 16.4375 32.65625 13.179688 32.65625 13.179688 L 34.074219 12.265625 L 35.636719 14.023438 L 37.578125 13.046875 L 38.769531 11.679688 L 43.464844 16.632812 L 46.671875 17.023438 L 49.953125 16.4375 L 49.355469 25.625 L 52.710938 30.25 L 58.003906 29.921875 L 59.71875 27.839844 L 58.15625 26.796875 L 56.886719 24.972656 L 58.898438 18 L 60.09375 11.222656 L 58.003906 6.792969 L 54.574219 4.578125 L 49.503906 3.664062 Z M 57.265625 43.605469 L 54.523438 43.632812 C 54.523438 43.632812 50.480469 48.035156 50.273438 48.097656 C 50.070312 48.15625 46.503906 49.652344 46.503906 49.652344 L 46.230469 54.835938 L 47.257812 57.441406 C 47.257812 57.441406 49.28125 57.980469 49.828125 57.980469 C 50.378906 57.980469 57.199219 57.679688 57.644531 57.441406 C 58.089844 57.203125 62.476562 54.175781 62.507812 53.878906 C 62.542969 53.578125 63.539062 50.34375 63.503906 50.042969 C 63.46875 49.742188 61.550781 45.011719 61.550781 45.011719 Z M 57.265625 43.605469 "/>
<path style=" stroke:none;fill-rule:nonzero;fill:rgb(0%,0%,0%);fill-opacity:1;" d="M 39.683594 0 C 38.691406 0.015625 37.714844 0.144531 36.0625 0.4375 C 34.324219 0.75 32.105469 1.332031 31.128906 1.730469 C 29.191406 2.53125 25.863281 4.339844 24.925781 5.101562 C 24.601562 5.367188 23.804688 5.980469 23.15625 6.464844 C 20.503906 8.453125 18.011719 11.851562 16.105469 16.089844 C 14.898438 18.761719 14.300781 21.933594 13.851562 28.019531 C 13.523438 32.460938 13 36.546875 12.65625 37.355469 C 12.476562 37.777344 12.078125 37.949219 10.996094 38.082031 C 9.023438 38.472656 7.746094 39.191406 6.726562 40.21875 C 6.347656 40.609375 5.839844 40.929688 5.601562 40.929688 C 4.964844 40.929688 4.394531 42.066406 4.433594 43.25 C 4.484375 44.804688 4.449219 44.929688 3.96875 44.929688 C 3.257812 44.929688 1.347656 46.597656 0.636719 47.839844 C -0.140625 49.199219 -0.214844 51.257812 0.460938 52.796875 C 0.710938 53.367188 1.035156 54.34375 1.1875 54.972656 C 1.5 56.28125 2.121094 56.988281 3.367188 57.453125 C 4.035156 57.699219 4.351562 58.070312 4.695312 59.027344 C 5.066406 60.046875 5.355469 60.367188 6.253906 60.75 L 7.355469 61.222656 L 6.84375 62.042969 C 6.5625 62.492188 6.265625 63.265625 6.183594 63.761719 L 6.144531 64 L 7.113281 64 C 7.421875 63.171875 9.359375 60.785156 10.199219 60.261719 C 10.667969 59.96875 11.851562 59.386719 12.824219 58.972656 C 14.304688 58.339844 14.960938 58.214844 16.8125 58.214844 L 16.8125 58.21875 C 18.710938 58.21875 19.222656 58.320312 20.417969 58.945312 C 21.996094 59.769531 24.316406 61.917969 25.324219 63.484375 L 25.65625 64 L 26.640625 64 C 26.332031 63.117188 25.015625 60.964844 24.46875 60.453125 C 24.15625 60.15625 23.894531 59.863281 23.894531 59.800781 C 23.894531 59.742188 24.683594 58.988281 25.640625 58.132812 C 26.601562 57.273438 27.464844 56.359375 27.558594 56.097656 C 27.652344 55.839844 28.164062 55.417969 28.691406 55.160156 C 29.21875 54.902344 30.097656 54.214844 30.636719 53.628906 C 31.617188 52.566406 31.621094 52.550781 31.484375 50.289062 C 31.371094 48.382812 31.222656 47.847656 30.570312 46.988281 C 30.140625 46.421875 29.628906 45.957031 29.429688 45.957031 C 28.394531 45.945312 28.28125 45.523438 29.042969 44.542969 C 30.144531 43.125 30.0625 41.914062 28.769531 40.429688 C 28.050781 39.613281 27.734375 38.976562 27.734375 38.367188 C 27.734375 37.878906 27.535156 37.308594 27.292969 37.097656 C 27.046875 36.882812 26.847656 36.59375 26.847656 36.453125 C 26.847656 36.019531 25.175781 35.839844 24.511719 36.203125 C 24.171875 36.386719 23.894531 36.625 23.894531 36.734375 C 23.894531 37.289062 22.730469 36.796875 21.652344 35.785156 C 19.351562 33.625 19.0625 29.789062 21.136719 28.960938 C 22.1875 28.542969 22.570312 28.601562 23.546875 29.320312 C 24.796875 30.238281 25.261719 30.152344 24.574219 29.125 C 24.261719 28.664062 23.917969 28.054688 23.804688 27.769531 C 23.640625 27.351562 23.714844 27.378906 24.207031 27.902344 C 24.539062 28.253906 25.015625 28.761719 25.261719 29.023438 C 26.082031 29.894531 26.027344 29.246094 25.175781 28.035156 C 24.714844 27.375 24.125 26.480469 23.867188 26.039062 C 23.574219 25.546875 23.316406 25.355469 23.191406 25.535156 C 23.078125 25.695312 23.132812 26.074219 23.320312 26.375 C 23.8125 27.179688 23.253906 27.585938 22.277344 27.128906 C 21.625 26.824219 21.394531 26.84375 20.4375 27.28125 C 18.898438 27.992188 18.1875 29.171875 18.214844 30.960938 C 18.230469 31.761719 18.453125 32.929688 18.714844 33.558594 C 19.421875 35.277344 21.335938 37.351562 22.574219 37.742188 C 23.441406 38.015625 23.675781 38.253906 23.925781 39.113281 C 24.410156 40.773438 24.867188 41.15625 26.148438 40.972656 C 27.03125 40.847656 27.34375 40.925781 27.78125 41.367188 C 28.488281 42.078125 28.472656 42.917969 27.742188 43.316406 C 26.925781 43.761719 26.027344 45.425781 26.105469 46.347656 C 26.21875 47.671875 27.042969 49.058594 27.71875 49.058594 C 28.433594 49.058594 28.503906 48.660156 27.882812 48.117188 C 27.636719 47.902344 27.4375 47.445312 27.4375 47.101562 C 27.4375 46.535156 27.5 46.503906 28.042969 46.796875 C 28.375 46.976562 28.929688 47.617188 29.277344 48.21875 C 29.621094 48.820312 30.015625 49.316406 30.148438 49.316406 C 30.28125 49.316406 30.390625 49.910156 30.390625 50.632812 C 30.390625 52.058594 29.597656 53.625 28.597656 54.167969 C 28.070312 54.457031 28.027344 54.398438 28.007812 53.378906 C 27.996094 52.777344 27.886719 52.054688 27.761719 51.777344 C 27.570312 51.351562 27.507812 51.40625 27.339844 52.132812 C 27.230469 52.605469 27.144531 53.34375 27.144531 53.773438 C 27.144531 55.429688 24.332031 58.34375 22.734375 58.34375 C 22.3125 58.34375 21.5 58.066406 20.929688 57.730469 C 19.148438 56.671875 17.175781 56.214844 15.1875 56.402344 C 12.863281 56.621094 11.1875 57.347656 9.199219 59.003906 C 7.730469 60.230469 7.5 60.332031 6.773438 60.113281 C 6.007812 59.878906 5.296875 58.976562 5.296875 58.234375 C 5.296875 57.898438 6.96875 57.054688 7.628906 57.054688 C 7.808594 57.054688 7.953125 56.945312 7.953125 56.8125 C 7.953125 56.667969 7.097656 56.632812 5.859375 56.722656 C 4.6875 56.808594 3.679688 56.769531 3.570312 56.636719 C 3.464844 56.503906 3.011719 56.195312 2.566406 55.945312 C 2.121094 55.699219 1.753906 55.3125 1.753906 55.09375 C 1.753906 54.761719 1.933594 54.789062 2.808594 55.261719 C 3.511719 55.640625 3.960938 55.746094 4.160156 55.574219 C 4.355469 55.402344 4.113281 55.128906 3.433594 54.761719 C 2.019531 54 1.796875 53.710938 1.46875 52.207031 C 0.878906 49.488281 2.402344 47.191406 5.832031 45.617188 C 7.84375 44.691406 8.785156 44.023438 8.464844 43.742188 C 8.375 43.660156 8.054688 43.707031 7.757812 43.839844 C 7.460938 43.972656 6.769531 44.15625 6.226562 44.246094 C 5.265625 44.40625 5.238281 44.390625 5.425781 43.703125 C 5.808594 42.289062 7.609375 40.839844 9.871094 40.117188 C 10.359375 39.960938 11.011719 39.742188 11.324219 39.628906 C 11.796875 39.457031 11.859375 39.511719 11.71875 39.984375 C 11.449219 40.890625 11.984375 40.867188 12.605469 39.945312 C 13.65625 38.386719 14.261719 36.332031 14.59375 33.191406 C 14.683594 32.339844 14.820312 31.234375 14.898438 30.738281 C 14.976562 30.242188 15.171875 28.136719 15.332031 26.058594 C 15.777344 20.3125 16.4375 18.082031 18.910156 13.96875 C 20.921875 10.625 21.589844 9.808594 23.796875 7.980469 C 27.980469 4.511719 32.945312 2.667969 39.609375 2.101562 C 40.296875 2.042969 40.957031 2.019531 41.589844 2.027344 C 43.496094 2.054688 45.175781 2.386719 46.742188 3.039062 C 48 3.566406 48.078125 3.792969 47.070312 4.011719 C 45.527344 4.351562 46.441406 4.601562 49.210938 4.601562 C 52.628906 4.601562 54.0625 4.910156 55.964844 6.058594 C 59.332031 8.085938 60.179688 12.757812 58.105469 17.847656 C 56.789062 21.074219 56.113281 23.261719 56.09375 24.363281 C 56.070312 25.617188 57.074219 27.335938 58.007812 27.644531 C 58.699219 27.875 59.042969 28.675781 58.453125 28.675781 C 58.296875 28.675781 57.679688 28.964844 57.082031 29.320312 C 54.855469 30.640625 52.179688 29.8125 50.75 27.363281 C 50.011719 26.097656 49.886719 23.207031 50.433594 20.191406 C 50.9375 17.449219 50.75 16.1875 49.699219 15.234375 C 48.238281 13.898438 45.765625 13.980469 45.152344 15.382812 C 44.546875 16.777344 45.925781 18.050781 47.015625 17.097656 C 47.496094 16.679688 47.734375 16.640625 48.472656 16.867188 L 49.359375 17.136719 L 49.167969 18.84375 C 48.714844 22.84375 48.476562 23.960938 47.847656 24.976562 C 47.078125 26.226562 47.195312 27.503906 48.164062 28.410156 C 48.980469 29.175781 49.167969 28.875 48.566406 27.769531 C 48.21875 27.128906 48.132812 26.589844 48.28125 26.019531 C 48.492188 25.210938 48.511719 25.230469 49.058594 26.828125 C 50.089844 29.835938 53.121094 31.640625 55.980469 30.949219 C 56.550781 30.8125 57.085938 30.761719 57.167969 30.832031 C 57.5625 31.175781 56.59375 37.257812 55.902344 38.792969 C 54.015625 42.964844 49.726562 48.246094 47.875 48.675781 C 46.476562 48.996094 44.1875 48.902344 42.003906 48.433594 C 40.105469 48.027344 39.003906 47.542969 34.542969 45.160156 C 34.117188 44.929688 33.351562 44.378906 32.839844 43.933594 C 31.871094 43.085938 31.277344 42.898438 31.277344 43.445312 C 31.277344 43.898438 36.277344 48.105469 37.820312 48.949219 C 38.527344 49.335938 39.171875 49.746094 39.257812 49.859375 C 39.542969 50.238281 43.347656 51.636719 44.089844 51.636719 C 45.511719 51.636719 45.640625 51.804688 45.503906 53.460938 C 45.402344 54.6875 45.539062 55.398438 46.171875 56.910156 C 46.605469 57.957031 47.21875 59.015625 47.535156 59.265625 C 48.179688 59.773438 48.300781 59.40625 47.773438 58.546875 C 47.484375 58.070312 47.507812 58.035156 47.996094 58.230469 C 48.511719 58.4375 49.476562 58.464844 51.941406 58.335938 C 52.511719 58.304688 53.53125 58.367188 54.210938 58.472656 C 55.183594 58.625 55.71875 58.550781 56.738281 58.117188 C 57.453125 57.816406 58.246094 57.570312 58.503906 57.570312 C 58.765625 57.570312 59.648438 57.105469 60.46875 56.539062 C 61.292969 55.972656 62.035156 55.507812 62.121094 55.507812 C 62.429688 55.507812 62.265625 57.894531 61.820312 59.839844 C 61.328125 61.996094 60.84375 63.359375 60.347656 64 L 61.425781 64 C 61.539062 63.5625 61.929688 62.457031 62.390625 61.277344 C 63.703125 57.945312 63.792969 57.410156 63.328125 55.660156 C 62.972656 54.320312 62.988281 54.066406 63.523438 52.847656 C 63.992188 51.777344 64.078125 51.144531 63.941406 49.703125 C 63.5625 45.722656 61.710938 43.414062 58.417969 42.820312 L 56.660156 42.503906 L 56.851562 41.585938 C 56.953125 41.082031 57.160156 40.464844 57.3125 40.210938 C 57.753906 39.464844 58.359375 35.980469 58.585938 32.875 L 58.796875 29.984375 L 59.78125 29.476562 C 61.171875 28.757812 62.863281 26.246094 62.792969 24.996094 C 62.761719 24.40625 62.75 24.410156 61.621094 25.378906 C 61.089844 25.839844 60.484375 26.183594 60.285156 26.144531 C 60.082031 26.105469 59.914062 26.167969 59.914062 26.289062 C 59.914062 26.410156 59.460938 26.460938 58.910156 26.402344 C 58.109375 26.324219 57.875 26.167969 57.761719 25.640625 C 57.613281 24.960938 58.246094 23.132812 59.257812 21.320312 C 61.726562 16.90625 62.015625 11.890625 60 8.363281 C 58.171875 5.152344 54.542969 3.121094 51 3.324219 C 49.433594 3.410156 49.261719 3.363281 48.511719 2.628906 C 47.257812 1.398438 44.421875 0.355469 41.628906 0.0976562 C 40.878906 0.0273438 40.277344 -0.0078125 39.683594 0 Z M 47.699219 5.597656 C 47.378906 5.601562 46.972656 5.628906 46.480469 5.671875 C 44.453125 5.863281 44.304688 6.382812 46.296875 6.3125 C 47.25 6.28125 47.5 6.34375 47.253906 6.558594 C 47.074219 6.714844 46.925781 6.941406 46.925781 7.054688 C 46.925781 7.332031 47.855469 7.308594 48.390625 7.011719 C 48.761719 6.808594 48.75 6.746094 48.308594 6.597656 C 47.828125 6.4375 47.824219 6.402344 48.289062 6.109375 C 48.851562 5.75 48.660156 5.578125 47.699219 5.597656 Z M 36.054688 7 C 35.738281 7 35.253906 7.414062 34.871094 8.007812 C 34.515625 8.558594 34.027344 9.078125 33.785156 9.160156 C 33.46875 9.265625 33.34375 9.703125 33.34375 10.714844 C 33.34375 12.238281 33.542969 12.9375 33.980469 12.9375 C 34.136719 12.9375 34.167969 12.535156 34.054688 11.996094 C 33.910156 11.324219 33.949219 11.105469 34.1875 11.238281 C 34.375 11.335938 34.523438 11.648438 34.523438 11.929688 C 34.523438 12.207031 34.71875 12.839844 34.953125 13.332031 C 35.554688 14.589844 35.792969 14.445312 35.5625 12.960938 C 35.160156 10.414062 35.289062 8.820312 35.960938 8.023438 C 36.730469 7.117188 36.738281 7 36.054688 7 Z M 38.460938 8.058594 C 38.339844 8.023438 37.945312 8.375 37.433594 9.066406 C 36.679688 10.082031 36.546875 11.339844 37.050781 12.722656 C 37.144531 12.980469 37.394531 13.195312 37.605469 13.195312 C 37.894531 13.195312 37.953125 12.769531 37.84375 11.4375 C 37.738281 10.117188 37.820312 9.472656 38.1875 8.855469 C 38.488281 8.34375 38.558594 8.085938 38.460938 8.058594 Z M 39.460938 8.347656 C 39.414062 8.347656 39.34375 8.371094 39.242188 8.421875 C 38.652344 8.742188 38.101562 10.34375 38.269531 11.253906 C 38.519531 12.589844 38.972656 12.359375 38.914062 10.929688 C 38.886719 10.25 39.015625 9.445312 39.203125 9.136719 C 39.519531 8.625 39.605469 8.359375 39.460938 8.347656 Z M 42.753906 9.582031 C 42.652344 9.582031 42.398438 9.9375 42.195312 10.367188 C 41.625 11.570312 41.976562 15.011719 42.785156 16.15625 C 43.636719 17.355469 44.066406 17.320312 43.464844 16.097656 C 43.128906 15.417969 42.980469 14.304688 42.960938 12.355469 C 42.949219 10.832031 42.855469 9.582031 42.753906 9.582031 Z M 44.25 10.101562 C 44.09375 10.109375 43.878906 10.285156 43.65625 10.648438 C 43.238281 11.328125 43.164062 13.324219 43.515625 14.355469 C 43.753906 15.050781 43.800781 14.957031 44 13.394531 C 44.117188 12.441406 44.304688 11.308594 44.414062 10.878906 C 44.542969 10.363281 44.449219 10.09375 44.25 10.101562 Z M 32.628906 10.808594 C 32.582031 10.804688 32.519531 10.914062 32.429688 11.113281 C 32.269531 11.460938 32.222656 12.070312 32.324219 12.46875 C 32.601562 13.574219 32.753906 13.339844 32.734375 11.839844 C 32.726562 11.121094 32.703125 10.8125 32.628906 10.808594 Z M 31.042969 11.234375 C 31.035156 11.234375 31.023438 11.234375 31.015625 11.242188 C 30.542969 11.496094 30.367188 13.582031 30.703125 14.949219 C 30.882812 15.6875 31.167969 16.289062 31.339844 16.289062 C 31.523438 16.289062 31.574219 15.972656 31.460938 15.484375 C 31.359375 15.039062 31.277344 13.871094 31.277344 12.890625 C 31.277344 11.964844 31.171875 11.257812 31.042969 11.234375 Z M 50.789062 11.277344 C 50.757812 11.273438 50.730469 11.277344 50.707031 11.289062 C 50.539062 11.378906 50.875 11.84375 51.472656 12.351562 C 52.054688 12.847656 52.535156 13.355469 52.535156 13.480469 C 52.535156 13.605469 52.667969 13.710938 52.828125 13.710938 C 53.351562 13.710938 53.148438 13.3125 52.066406 12.207031 C 51.558594 11.6875 51.027344 11.304688 50.789062 11.277344 Z M 53.058594 11.644531 C 52.734375 11.644531 52.761719 11.765625 53.328125 12.796875 C 53.808594 13.683594 54.304688 14.003906 54.304688 13.425781 C 54.304688 13.027344 53.339844 11.644531 53.058594 11.644531 Z M 54.554688 11.644531 C 54.167969 11.644531 54.253906 12.019531 54.949219 13.367188 C 55.523438 14.476562 55.605469 14.542969 55.714844 13.972656 C 55.84375 13.320312 55.007812 11.644531 54.554688 11.644531 Z M 29.773438 13.085938 C 29.761719 13.089844 29.75 13.09375 29.738281 13.097656 C 29.449219 13.253906 29.648438 15.609375 29.996094 16.097656 C 30.347656 16.597656 30.441406 15.984375 30.246094 14.5 C 30.128906 13.605469 29.945312 13.070312 29.773438 13.085938 Z M 28.664062 13.832031 C 28.636719 13.835938 28.613281 13.84375 28.582031 13.859375 C 28.175781 14.078125 28.402344 16.332031 28.941406 17.449219 C 29.285156 18.160156 29.324219 18.179688 29.429688 17.65625 C 29.492188 17.347656 29.402344 16.859375 29.230469 16.578125 C 29.054688 16.296875 28.914062 15.527344 28.914062 14.871094 C 28.914062 14.15625 28.835938 13.824219 28.664062 13.832031 Z M 27.144531 15.257812 C 26.375 15.257812 27.53125 19.988281 28.417969 20.46875 C 28.96875 20.765625 28.945312 20.585938 28.175781 18.609375 C 27.769531 17.570312 27.4375 16.386719 27.4375 15.988281 C 27.4375 15.585938 27.304688 15.257812 27.144531 15.257812 Z M 38.484375 15.90625 C 37.996094 15.90625 37.53125 15.960938 37.160156 16.074219 C 35.746094 16.753906 33.410156 18.445312 33.34375 20.042969 C 33.34375 20.558594 33.582031 20.515625 34.644531 19.820312 C 35.488281 19.269531 37.132812 18.578125 37.6875 18.542969 C 37.8125 18.535156 38.367188 18.441406 38.914062 18.332031 C 39.507812 18.214844 40.199219 18.25 40.621094 18.417969 C 41.671875 18.835938 42.105469 18.363281 41.613281 17.328125 C 41.402344 16.886719 41.019531 16.433594 40.757812 16.3125 C 40.164062 16.046875 39.292969 15.902344 38.484375 15.90625 Z M 26.277344 18.007812 C 26.257812 18.003906 26.238281 18.011719 26.21875 18.027344 C 25.847656 18.351562 26.734375 21.078125 27.511719 22 C 28.390625 23.042969 28.617188 22.308594 27.777344 21.125 C 27.453125 20.664062 27.027344 19.730469 26.832031 19.046875 C 26.65625 18.4375 26.425781 18.019531 26.277344 18.007812 Z M 24.960938 18.660156 C 24.914062 18.667969 24.847656 18.707031 24.769531 18.78125 C 24.550781 18.96875 24.597656 19.394531 24.910156 20.183594 C 25.511719 21.695312 25.515625 22.222656 24.914062 21.5625 C 24.488281 21.09375 24.46875 21.117188 24.648438 21.964844 C 24.835938 22.859375 25.601562 24.210938 26.324219 24.929688 C 26.53125 25.132812 26.800781 25.304688 26.921875 25.3125 C 27.359375 25.332031 27.128906 24.78125 26.257812 23.730469 C 25.769531 23.144531 25.371094 22.5625 25.371094 22.445312 C 25.371094 21.96875 25.847656 22.277344 26.527344 23.191406 C 27.714844 24.789062 27.558594 23.679688 26.277344 21.386719 C 25.617188 20.207031 25.078125 19.074219 25.078125 18.875 C 25.078125 18.714844 25.039062 18.644531 24.960938 18.660156 Z M 37.125 20.4375 C 36.972656 20.453125 36.886719 20.574219 36.886719 20.796875 C 36.886719 21.007812 36.710938 21.117188 36.492188 21.042969 C 35.960938 20.867188 33.425781 23.378906 33.1875 24.316406 C 33.085938 24.730469 32.886719 25.003906 32.746094 24.929688 C 32.417969 24.753906 31.957031 26.785156 32.113281 27.726562 C 32.238281 28.457031 32.691406 28.722656 34.96875 29.390625 C 36.214844 29.757812 37.527344 29.757812 38.40625 29.394531 C 39.089844 29.113281 39.148438 28.96875 39.03125 27.910156 C 38.882812 26.609375 38.203125 25.582031 37.230469 25.195312 C 36.386719 24.859375 36.421875 24.3125 37.339844 23.449219 C 38.394531 22.453125 39.667969 22.496094 40.933594 23.566406 C 41.714844 24.226562 41.90625 24.296875 41.90625 23.925781 C 41.90625 23.007812 40.949219 22.027344 39.71875 21.6875 C 39.054688 21.503906 38.273438 21.144531 37.980469 20.886719 C 37.664062 20.601562 37.390625 20.453125 37.195312 20.4375 C 37.171875 20.433594 37.148438 20.433594 37.125 20.4375 Z M 53.417969 21.964844 C 53.097656 21.964844 53.015625 23.484375 53.304688 24.136719 C 53.605469 24.828125 53.714844 24.597656 53.714844 23.257812 C 53.714844 22.546875 53.582031 21.964844 53.417969 21.964844 Z M 51.671875 22.472656 C 51.609375 22.464844 51.539062 22.492188 51.464844 22.558594 C 51.363281 22.644531 51.382812 22.925781 51.507812 23.179688 C 51.730469 23.621094 51.746094 23.621094 51.867188 23.171875 C 51.96875 22.789062 51.859375 22.488281 51.671875 22.472656 Z M 24.152344 23.257812 C 23.53125 23.257812 25.238281 26.628906 26.207031 27.316406 C 26.96875 27.859375 26.957031 27.460938 26.175781 26.300781 C 25.769531 25.691406 25.449219 25.132812 25.464844 25.0625 C 25.515625 24.835938 24.367188 23.257812 24.152344 23.257812 Z M 21.53125 31.0625 C 21.210938 31.058594 21.285156 31.316406 21.800781 31.804688 C 22.21875 32.195312 22.324219 32.472656 22.125 32.644531 C 21.699219 33.019531 21.761719 34.238281 22.222656 34.570312 C 22.4375 34.726562 23.136719 34.957031 23.773438 35.078125 C 25.253906 35.359375 25.414062 35.222656 24.449219 34.5 C 23.691406 33.929688 23.6875 33.902344 24.203125 33.304688 C 24.746094 32.675781 24.542969 31.769531 23.855469 31.769531 C 23.683594 31.769531 23.085938 31.582031 22.527344 31.351562 C 22.0625 31.15625 21.726562 31.0625 21.53125 31.0625 Z M 50.910156 32.617188 C 50.691406 32.617188 50.164062 32.828125 49.636719 33.136719 C 49.039062 33.488281 48.214844 33.84375 47.808594 33.929688 C 47.402344 34.015625 46.871094 34.207031 46.628906 34.355469 C 46.25 34.582031 46.285156 34.691406 46.882812 35.128906 C 48.421875 36.257812 50.882812 35.421875 51.113281 33.695312 C 51.183594 33.1875 51.125 32.710938 50.984375 32.632812 C 50.964844 32.625 50.941406 32.617188 50.910156 32.617188 Z M 41.808594 35.488281 C 41.691406 35.484375 41.609375 35.582031 41.609375 35.75 C 41.609375 35.972656 41.253906 36.214844 40.796875 36.304688 C 39.140625 36.628906 38.9375 36.726562 38.203125 37.566406 C 37.25 38.660156 37.015625 39.554688 37.714844 39.453125 C 37.988281 39.414062 38.347656 39.234375 38.511719 39.054688 C 38.90625 38.613281 39.96875 39.257812 40.597656 40.320312 C 41.101562 41.171875 42.871094 43.269531 43.636719 43.921875 C 44.070312 44.292969 44.1875 44.292969 44.816406 43.9375 C 45.445312 43.578125 45.535156 43.582031 45.789062 43.976562 C 46.316406 44.800781 49.042969 44.425781 50.363281 43.34375 C 50.988281 42.832031 51.542969 40.976562 51.40625 39.855469 C 51.359375 39.488281 51.640625 39.109375 52.230469 38.742188 C 53.238281 38.113281 53.371094 37.578125 52.605469 37.222656 C 52.039062 36.957031 51.265625 37.011719 48.398438 37.519531 C 47.34375 37.703125 46.082031 37.777344 45.59375 37.683594 C 45.109375 37.585938 44.085938 37.492188 43.324219 37.476562 L 41.941406 37.445312 L 42.105469 36.578125 C 42.199219 36.066406 42.128906 35.632812 41.9375 35.527344 C 41.890625 35.503906 41.847656 35.492188 41.808594 35.488281 Z M 25.398438 36.972656 C 26.074219 37.003906 26.847656 37.605469 26.847656 38.433594 C 26.847656 38.894531 26.675781 38.996094 25.886719 38.996094 C 24.738281 38.996094 24.15625 38.363281 24.519531 37.507812 C 24.664062 37.164062 24.945312 37 25.265625 36.976562 C 25.308594 36.972656 25.355469 36.972656 25.398438 36.972656 Z M 17.191406 37.566406 C 17.039062 37.582031 16.84375 38.09375 16.746094 38.992188 C 16.664062 39.707031 16.382812 40.5 16.117188 40.761719 C 15.847656 41.019531 15.71875 41.308594 15.828125 41.402344 C 15.933594 41.5 16.269531 41.382812 16.566406 41.148438 C 16.917969 40.871094 17.105469 40.828125 17.105469 41.035156 C 17.105469 41.578125 17.6875 41.058594 18.144531 40.105469 C 18.648438 39.046875 18.710938 38.21875 18.285156 38.21875 C 18.125 38.21875 17.992188 38.445312 17.992188 38.722656 C 17.992188 38.996094 17.859375 39.292969 17.695312 39.382812 C 17.519531 39.476562 17.402344 39.121094 17.402344 38.480469 C 17.402344 37.839844 17.308594 37.554688 17.191406 37.566406 Z M 21.847656 39.175781 C 21.695312 39.191406 21.515625 39.597656 21.402344 40.386719 C 21.28125 41.234375 20.925781 42.105469 20.484375 42.625 C 20.085938 43.097656 19.761719 43.574219 19.761719 43.6875 C 19.761719 44.042969 20.238281 43.917969 20.714844 43.445312 C 21.558594 42.605469 22.125 41.347656 22.125 40.3125 C 22.125 39.535156 22 39.160156 21.847656 39.175781 Z M 19.53125 39.265625 C 19.3125 39.296875 18.882812 39.8125 18.378906 40.734375 C 17.929688 41.550781 17.519531 42.296875 17.464844 42.394531 C 17.410156 42.488281 17.644531 42.503906 17.988281 42.425781 C 18.667969 42.269531 19.285156 41.378906 19.601562 40.089844 C 19.75 39.503906 19.703125 39.238281 19.53125 39.265625 Z M 42.726562 39.546875 C 42.882812 39.554688 43.191406 39.605469 43.675781 39.683594 C 44.40625 39.800781 46.035156 39.871094 47.292969 39.835938 C 48.550781 39.804688 49.582031 39.832031 49.582031 39.898438 C 49.582031 39.964844 49.101562 40.195312 48.511719 40.410156 C 46.78125 41.042969 44.488281 40.828125 43.03125 39.902344 C 42.613281 39.636719 42.464844 39.535156 42.726562 39.546875 Z M 22.679688 42.382812 C 22.628906 42.363281 22.511719 42.433594 22.304688 42.582031 C 22.042969 42.773438 21.828125 43.039062 21.828125 43.175781 C 21.828125 43.617188 22.5625 43.222656 22.675781 42.722656 C 22.722656 42.511719 22.734375 42.402344 22.679688 42.382812 Z M 13.347656 42.992188 L 12.441406 44.066406 C 11.941406 44.652344 11.394531 45.210938 11.222656 45.304688 C 11.046875 45.398438 10.90625 45.65625 10.90625 45.875 C 10.90625 46.238281 10.976562 46.238281 11.617188 45.871094 C 12.246094 45.511719 12.371094 45.507812 12.695312 45.851562 C 12.898438 46.0625 13.050781 46.582031 13.039062 47 C 13.011719 47.839844 13.292969 47.972656 13.851562 47.386719 C 14.335938 46.875 14.6875 44.277344 14.316406 43.949219 C 14.242188 43.886719 13.96875 44.023438 13.703125 44.253906 C 13.03125 44.839844 12.964844 44.785156 13.167969 43.832031 Z M 56.589844 44.148438 C 57.1875 44.160156 58.863281 44.570312 59.792969 44.972656 C 61.410156 45.671875 62.464844 47.140625 62.71875 49.054688 C 63.023438 51.335938 62.363281 52.988281 60.476562 54.667969 C 59.640625 55.414062 58.832031 56.023438 58.683594 56.023438 C 58.53125 56.023438 58.496094 55.597656 58.605469 55.054688 L 58.800781 54.089844 L 57.828125 55.171875 C 56.703125 56.425781 54.4375 57.417969 53.273438 57.160156 C 52.867188 57.070312 52.207031 56.664062 51.8125 56.253906 C 51.417969 55.84375 51.003906 55.507812 50.894531 55.507812 C 50.675781 55.507812 50.84375 56.382812 51.203125 57.132812 C 51.40625 57.550781 51.273438 57.59375 49.988281 57.542969 C 48.230469 57.472656 47.761719 57.347656 47.324219 56.828125 C 46.78125 56.183594 46.601562 53.207031 47.003906 51.527344 C 47.351562 50.054688 47.410156 49.988281 48.589844 49.644531 C 49.988281 49.238281 52.601562 47.171875 53.898438 45.445312 C 54.378906 44.804688 54.886719 44.285156 55.03125 44.285156 C 55.171875 44.285156 55.472656 44.75 55.691406 45.316406 C 56.144531 46.472656 56.867188 47.417969 57.125 47.191406 C 57.222656 47.109375 57.089844 46.429688 56.835938 45.679688 C 56.578125 44.933594 56.371094 44.269531 56.371094 44.207031 C 56.371094 44.164062 56.453125 44.144531 56.589844 44.148438 Z M 17.617188 47.011719 C 17.597656 47.011719 17.578125 47.011719 17.550781 47.015625 C 17.371094 47.039062 17.054688 47.195312 16.597656 47.507812 C 14.945312 48.644531 14.363281 50.015625 15.050781 51.136719 C 15.433594 51.765625 16.070312 51.808594 15.777344 51.183594 C 15.253906 50.078125 15.332031 49.851562 16.683594 48.523438 C 17.601562 47.617188 17.90625 47.039062 17.617188 47.011719 Z M 7.0625 47.519531 C 6.617188 47.578125 5.472656 48.441406 4.988281 49.136719 C 4.324219 50.085938 4.253906 51.054688 4.78125 52.0625 C 5.144531 52.765625 5.152344 52.757812 5.332031 51.484375 C 5.4375 50.71875 5.878906 49.683594 6.421875 48.925781 C 6.917969 48.222656 7.273438 47.601562 7.207031 47.542969 C 7.175781 47.515625 7.125 47.507812 7.0625 47.519531 Z M 7.976562 48.539062 C 6.769531 48.539062 5.582031 50.796875 6.007812 52.28125 C 6.28125 53.238281 6.773438 53.066406 6.773438 52.011719 C 6.773438 51.027344 7.335938 49.867188 8.082031 49.328125 C 8.707031 48.875 8.664062 48.539062 7.976562 48.539062 Z M 25.828125 48.554688 C 25.554688 48.558594 25.632812 48.855469 26.15625 49.359375 C 26.636719 49.820312 27.746094 50.019531 27.722656 49.636719 C 27.714844 49.53125 27.25 49.1875 26.6875 48.875 C 26.285156 48.652344 25.992188 48.550781 25.828125 48.554688 Z M 17.769531 49.074219 C 17.707031 49.070312 17.617188 49.082031 17.503906 49.101562 C 16.890625 49.203125 16.339844 50.347656 16.609375 50.960938 C 16.894531 51.609375 17.402344 51.453125 17.402344 50.714844 C 17.402344 50.351562 17.542969 49.820312 17.722656 49.53125 C 17.921875 49.203125 17.957031 49.082031 17.769531 49.074219 Z M 54.453125 50.300781 C 54.277344 50.308594 53.8125 50.507812 53.058594 50.898438 C 51.714844 51.589844 51.308594 51.675781 49.90625 51.574219 L 48.296875 51.457031 L 49.105469 52.0625 C 50.484375 53.101562 52.070312 52.824219 53.753906 51.25 C 54.441406 50.605469 54.683594 50.292969 54.453125 50.300781 Z M 8.570312 50.597656 C 8.3125 50.59375 7.949219 50.757812 7.839844 51.011719 C 7.597656 51.558594 7.609375 52.539062 7.859375 52.757812 C 8.03125 52.910156 8.824219 51.324219 8.835938 50.796875 C 8.839844 50.660156 8.722656 50.597656 8.570312 50.597656 Z M 53.117188 52.488281 C 52.984375 52.484375 52.820312 52.535156 52.589844 52.640625 C 52.257812 52.796875 51.707031 52.925781 51.371094 52.925781 C 50.566406 52.925781 50.601562 53.085938 51.574219 53.835938 C 52.570312 54.601562 53.6875 54.644531 54.542969 53.949219 C 55.464844 53.199219 55.402344 52.613281 54.421875 52.828125 C 53.9375 52.933594 53.566406 52.878906 53.425781 52.675781 C 53.339844 52.558594 53.246094 52.496094 53.117188 52.488281 Z M 10.671875 52.519531 C 10.625 52.527344 10.566406 52.539062 10.503906 52.5625 C 9.621094 52.859375 9.136719 54.632812 9.785156 55.199219 C 10.300781 55.648438 10.402344 55.582031 10.210938 54.917969 C 10.117188 54.589844 10.234375 54 10.472656 53.597656 C 10.945312 52.800781 11.011719 52.472656 10.671875 52.519531 Z M 10.949219 53.828125 C 10.742188 53.832031 10.609375 54.175781 10.792969 54.589844 C 10.90625 54.851562 11.175781 54.949219 11.507812 54.859375 C 11.800781 54.777344 12.121094 54.832031 12.226562 54.980469 C 12.457031 55.308594 12.972656 55.335938 12.972656 55.023438 C 12.972656 54.660156 12.140625 54.15625 11.824219 54.328125 C 11.664062 54.414062 11.410156 54.292969 11.261719 54.058594 C 11.15625 53.898438 11.046875 53.828125 10.949219 53.828125 Z M 42.675781 57.320312 C 42.566406 57.328125 42.496094 57.445312 42.496094 57.683594 C 42.496094 58.203125 43.007812 59.320312 43.449219 59.769531 C 44.023438 60.347656 45.28125 60.136719 45.394531 59.441406 C 45.472656 58.953125 45.351562 58.859375 44.617188 58.859375 C 43.929688 58.859375 43.671875 58.699219 43.382812 58.085938 C 43.140625 57.582031 42.855469 57.300781 42.675781 57.320312 Z M 42.675781 57.320312 "/>
</g>
</svg>
