<svg width="64" height="64" viewBox="0 0 64 64" version="1.1" xmlns:inkscape="http://www.inkscape.org/namespaces/inkscape"><defs><linearGradient id="linear0" gradientUnits="userSpaceOnUse" x1="0" y1="0" x2="0" y2="1" gradientTransform="matrix(56,0,0,35.898438,4,14.050781)"><stop offset="0" style="stop-color:rgb(0%,96.078432%,86.274511%);stop-opacity:1;"/><stop offset="1" style="stop-color:rgb(0%,54.901963%,49.411765%);stop-opacity:1;"/></linearGradient><linearGradient id="linear1" gradientUnits="userSpaceOnUse" x1="0" y1="0" x2="0" y2="1" gradientTransform="matrix(56,0,0,35.898438,4,14.050781)"><stop offset="0" style="stop-color:rgb(0%,96.078432%,86.274511%);stop-opacity:1;"/><stop offset="1" style="stop-color:rgb(0%,54.901963%,49.411765%);stop-opacity:1;"/></linearGradient><linearGradient id="linear2" gradientUnits="userSpaceOnUse" x1="0" y1="0" x2="0" y2="1" gradientTransform="matrix(56,0,0,35.898438,4,14.050781)"><stop offset="0" style="stop-color:rgb(0%,96.078432%,86.274511%);stop-opacity:1;"/><stop offset="1" style="stop-color:rgb(0%,54.901963%,49.411765%);stop-opacity:1;"/></linearGradient><linearGradient id="linear3" gradientUnits="userSpaceOnUse" x1="0" y1="0" x2="0" y2="1" gradientTransform="matrix(56,0,0,35.898438,4,14.050781)"><stop offset="0" style="stop-color:rgb(0%,96.078432%,86.274511%);stop-opacity:1;"/><stop offset="1" style="stop-color:rgb(0%,54.901963%,49.411765%);stop-opacity:1;"/></linearGradient><linearGradient id="linear4" gradientUnits="userSpaceOnUse" x1="0" y1="0" x2="0" y2="1" gradientTransform="matrix(56,0,0,35.898438,4,14.050781)"><stop offset="0" style="stop-color:rgb(0%,96.078432%,86.274511%);stop-opacity:1;"/><stop offset="1" style="stop-color:rgb(0%,54.901963%,49.411765%);stop-opacity:1;"/></linearGradient><filter style="color-interpolation-filters:sRGB;" inkscape:label="Diffuse Light" id="filter184" x="-0.0375" y="-0.0375" width="1.075" height="1.075"><feGaussianBlur in="SourceGraphic" stdDeviation="1" result="blur" id="feGaussianBlur174" /><feDiffuseLighting diffuseConstant="1" surfaceScale="10" lighting-color="rgb(255,255,255)" result="diffuse" id="feDiffuseLighting178"><feDistantLight elevation="8" azimuth="235" id="feDistantLight176" /></feDiffuseLighting><feComposite in="diffuse" in2="diffuse" operator="arithmetic" k1="1" result="composite1" id="feComposite180" /><feComposite in="composite1" in2="SourceGraphic" k1="1" operator="arithmetic" k3="1" result="composite2" id="feComposite182" /></filter></defs><g id="surface1" style="filter:url(#filter184)"><path style=" stroke:none;fill-rule:nonzero;fill:url(#linear0);" d="M 23.539062 12.179688 L 12.082031 21.644531 L 23.539062 31.671875 L 23.539062 26.101562 L 52.183594 26.101562 L 52.183594 17.746094 L 23.539062 17.746094 Z M 46.457031 28.890625 L 46.457031 34.453125 L 17.808594 34.453125 L 17.808594 42.808594 L 46.457031 42.808594 L 46.457031 48.382812 L 57.914062 38.355469 Z M 46.457031 28.890625 "/><path style=" stroke:none;fill-rule:nonzero;fill:url(#linear1);" d="M 29.269531 9.390625 L 34.996094 9.390625 L 34.996094 59.519531 L 32.132812 56.738281 L 29.269531 59.519531 Z M 29.269531 9.390625 "/><path style=" stroke:none;fill-rule:nonzero;fill:url(#linear2);" d="M 3.488281 9.390625 L 3.488281 12.179688 L 23.539062 12.179688 L 23.539062 9.390625 Z M 40.726562 9.390625 L 40.726562 12.179688 L 60.777344 12.179688 L 60.777344 9.390625 Z M 3.488281 14.960938 L 3.488281 17.746094 L 23.539062 17.746094 L 23.539062 14.960938 Z M 40.726562 14.960938 L 40.726562 17.746094 L 60.777344 17.746094 L 60.777344 14.960938 Z M 3.488281 20.535156 L 3.488281 23.316406 L 23.539062 23.316406 L 23.539062 20.535156 Z M 40.726562 20.535156 L 40.726562 23.316406 L 60.777344 23.316406 L 60.777344 20.535156 Z M 3.488281 26.101562 L 3.488281 28.890625 L 23.539062 28.890625 L 23.539062 26.101562 Z M 40.726562 26.101562 L 40.726562 28.890625 L 60.777344 28.890625 L 60.777344 26.101562 Z M 3.488281 31.671875 L 3.488281 34.453125 L 23.539062 34.453125 L 23.539062 31.671875 Z M 40.726562 31.671875 L 40.726562 34.453125 L 60.777344 34.453125 L 60.777344 31.671875 Z M 3.488281 37.246094 L 3.488281 40.027344 L 23.539062 40.027344 L 23.539062 37.246094 Z M 40.726562 37.246094 L 40.726562 40.027344 L 60.777344 40.027344 L 60.777344 37.246094 Z M 3.488281 42.808594 L 3.488281 45.601562 L 23.539062 45.601562 L 23.539062 42.808594 Z M 40.726562 42.808594 L 40.726562 45.601562 L 60.777344 45.601562 L 60.777344 42.808594 Z M 40.726562 42.808594 "/><path style=" stroke:none;fill-rule:nonzero;fill:url(#linear3);" d="M 29.269531 3.824219 L 29.269531 51.164062 L 32.132812 53.953125 L 34.996094 51.164062 L 34.996094 3.824219 L 32.132812 6.609375 Z M 29.269531 3.824219 "/><path style=" stroke:none;fill-rule:nonzero;fill:url(#linear4);" d="M 20.675781 9.390625 L 9.214844 18.863281 L 20.675781 28.890625 L 20.675781 23.316406 L 49.320312 23.316406 L 49.320312 14.960938 L 20.675781 14.960938 Z M 43.589844 26.101562 L 43.589844 31.671875 L 14.945312 31.671875 L 14.945312 40.027344 L 43.589844 40.027344 L 43.589844 45.601562 L 55.050781 35.574219 Z M 43.589844 26.101562 "/></g></svg>
