<svg width="64" height="64" viewBox="0 0 64 64" version="1.1" xmlns:inkscape="http://www.inkscape.org/namespaces/inkscape"><defs><linearGradient id="linear0" gradientUnits="userSpaceOnUse" x1="0" y1="0" x2="0" y2="1" gradientTransform="matrix(55.992188,0,0,56,4.003906,4)"><stop offset="0" style="stop-color:rgb(87.058824%,86.666667%,56.470591%);stop-opacity:1;"/><stop offset="1" style="stop-color:rgb(67.843139%,67.450982%,38.039216%);stop-opacity:1;"/></linearGradient><filter style="color-interpolation-filters:sRGB;" inkscape:label="Diffuse Light" id="filter184" x="-0.0375" y="-0.0375" width="1.075" height="1.075"><feGaussianBlur in="SourceGraphic" stdDeviation="1" result="blur" id="feGaussianBlur174" /><feDiffuseLighting diffuseConstant="1" surfaceScale="10" lighting-color="rgb(255,255,255)" result="diffuse" id="feDiffuseLighting178"><feDistantLight elevation="8" azimuth="235" id="feDistantLight176" /></feDiffuseLighting><feComposite in="diffuse" in2="diffuse" operator="arithmetic" k1="1" result="composite1" id="feComposite180" /><feComposite in="composite1" in2="SourceGraphic" k1="1" operator="arithmetic" k3="1" result="composite2" id="feComposite182" /></filter></defs><g id="surface1" style="filter:url(#filter184)"><path style=" stroke:none;fill-rule:nonzero;fill:url(#linear0);" d="M 16.722656 6.355469 C 14.855469 6.332031 13.121094 7.3125 12.179688 8.917969 C 11.242188 10.523438 11.242188 12.507812 12.179688 14.117188 C 13.121094 15.722656 14.855469 16.699219 16.722656 16.675781 L 45.691406 16.675781 C 45.691406 16.675781 47.933594 16.75 49.90625 17.570312 C 51.882812 18.390625 52.925781 18.734375 52.925781 21.824219 C 52.925781 24.910156 51.882812 25.257812 49.90625 26.078125 C 47.933594 26.890625 45.691406 26.964844 45.691406 26.964844 L 16.722656 26.964844 C 13.859375 26.964844 11.539062 29.277344 11.539062 32.128906 L 11.539062 52.734375 C 11.515625 54.589844 12.496094 56.320312 14.109375 57.253906 C 15.722656 58.1875 17.714844 58.1875 19.328125 57.253906 C 20.941406 56.320312 21.925781 54.589844 21.902344 52.734375 L 21.902344 37.285156 L 45.691406 37.285156 C 45.691406 37.285156 49.660156 37.359375 53.890625 35.601562 C 58.128906 33.847656 63.289062 29.039062 63.289062 21.824219 C 63.289062 14.609375 58.128906 9.800781 53.890625 8.042969 C 49.65625 6.28125 45.691406 6.355469 45.691406 6.355469 Z M 16.722656 6.355469 "/></g></svg>
