<svg width="64" height="64" viewBox="0 0 64 64" version="1.1" xmlns:inkscape="http://www.inkscape.org/namespaces/inkscape"><defs><linearGradient id="linear0" gradientUnits="userSpaceOnUse" x1="0" y1="0" x2="0" y2="1" gradientTransform="matrix(55.992188,0,0,56,4.003906,4)"><stop offset="0" style="stop-color:rgb(92.941177%,83.529413%,72.549021%);stop-opacity:1;"/><stop offset="1" style="stop-color:rgb(81.960785%,71.372551%,59.215689%);stop-opacity:1;"/></linearGradient><linearGradient id="linear1" gradientUnits="userSpaceOnUse" x1="0" y1="0" x2="0" y2="1" gradientTransform="matrix(55.992188,0,0,56,4.003906,4)"><stop offset="0" style="stop-color:rgb(92.941177%,83.529413%,72.549021%);stop-opacity:1;"/><stop offset="1" style="stop-color:rgb(81.960785%,71.372551%,59.215689%);stop-opacity:1;"/></linearGradient><linearGradient id="linear2" gradientUnits="userSpaceOnUse" x1="0" y1="0" x2="0" y2="1" gradientTransform="matrix(55.992188,0,0,56,4.003906,4)"><stop offset="0" style="stop-color:rgb(92.941177%,83.529413%,72.549021%);stop-opacity:1;"/><stop offset="1" style="stop-color:rgb(81.960785%,71.372551%,59.215689%);stop-opacity:1;"/></linearGradient><filter style="color-interpolation-filters:sRGB;" inkscape:label="Diffuse Light" id="filter184" x="-0.0375" y="-0.0375" width="1.075" height="1.075"><feGaussianBlur in="SourceGraphic" stdDeviation="1" result="blur" id="feGaussianBlur174" /><feDiffuseLighting diffuseConstant="1" surfaceScale="10" lighting-color="rgb(255,255,255)" result="diffuse" id="feDiffuseLighting178"><feDistantLight elevation="8" azimuth="235" id="feDistantLight176" /></feDiffuseLighting><feComposite in="diffuse" in2="diffuse" operator="arithmetic" k1="1" result="composite1" id="feComposite180" /><feComposite in="composite1" in2="SourceGraphic" k1="1" operator="arithmetic" k3="1" result="composite2" id="feComposite182" /></filter></defs><g id="surface1" style="filter:url(#filter184)"><path style=" stroke:none;fill-rule:nonzero;fill:url(#linear0);" d="M 6.613281 10.078125 L 21.09375 10.078125 L 21.09375 36.855469 L 6.613281 36.855469 Z M 23.164062 22.441406 L 43.84375 22.441406 L 43.84375 45.097656 L 23.164062 45.097656 Z M 23.164062 47.15625 L 56.253906 47.15625 L 56.253906 55.394531 L 23.164062 55.394531 Z M 23.164062 10.078125 L 43.84375 10.078125 L 43.84375 20.375 L 23.164062 20.375 Z M 45.914062 22.441406 L 56.253906 22.441406 L 56.253906 45.097656 L 45.914062 45.097656 Z M 45.914062 22.441406 "/><path style=" stroke:none;fill-rule:evenodd;fill:url(#linear1);" d="M 6.613281 38.914062 L 21.09375 38.914062 L 21.09375 55.394531 L 6.613281 55.394531 Z M 6.613281 38.914062 "/><path style=" stroke:none;fill-rule:nonzero;fill:url(#linear2);" d="M 45.914062 10.078125 L 56.253906 10.078125 L 56.253906 20.375 L 45.914062 20.375 Z M 45.914062 10.078125 "/></g></svg>
