<svg width="64" height="64" viewBox="0 0 64 64" version="1.1" xmlns:inkscape="http://www.inkscape.org/namespaces/inkscape"><defs><linearGradient id="linear0" gradientUnits="userSpaceOnUse" x1="0" y1="0" x2="0" y2="1" gradientTransform="matrix(55.992188,0,0,56,4.003906,4)"><stop offset="0" style="stop-color:rgb(0%,78.823531%,36.862746%);stop-opacity:1;"/><stop offset="1" style="stop-color:rgb(0%,54.11765%,25.098041%);stop-opacity:1;"/></linearGradient><filter style="color-interpolation-filters:sRGB;" inkscape:label="Diffuse Light" id="filter184" x="-0.0375" y="-0.0375" width="1.075" height="1.075"><feGaussianBlur in="SourceGraphic" stdDeviation="1" result="blur" id="feGaussianBlur174" /><feDiffuseLighting diffuseConstant="1" surfaceScale="10" lighting-color="rgb(255,255,255)" result="diffuse" id="feDiffuseLighting178"><feDistantLight elevation="8" azimuth="235" id="feDistantLight176" /></feDiffuseLighting><feComposite in="diffuse" in2="diffuse" operator="arithmetic" k1="1" result="composite1" id="feComposite180" /><feComposite in="composite1" in2="SourceGraphic" k1="1" operator="arithmetic" k3="1" result="composite2" id="feComposite182" /></filter></defs><g id="surface1" style="filter:url(#filter184)"><path style=" stroke:none;fill-rule:nonzero;fill:url(#linear0);" d="M 52.921875 6.199219 L 11.191406 6.199219 C 8.3125 6.199219 5.972656 8.523438 5.972656 11.394531 L 5.972656 45.15625 C 5.972656 48.03125 8.3125 50.355469 11.191406 50.355469 L 24.230469 50.355469 L 22.445312 55.683594 C 21.992188 57.046875 22.792969 58.148438 24.230469 58.148438 L 39.882812 58.148438 C 41.320312 58.148438 42.121094 57.046875 41.664062 55.683594 L 39.882812 50.355469 L 52.921875 50.355469 C 55.800781 50.355469 58.140625 48.03125 58.140625 45.15625 L 58.140625 11.394531 C 58.140625 8.523438 55.800781 6.199219 52.921875 6.199219 M 52.921875 39.964844 L 11.191406 39.964844 L 11.191406 11.394531 L 52.921875 11.394531 Z M 52.921875 39.964844 "/></g></svg>
