<svg width="64" height="64" viewBox="0 0 64 64" version="1.1" xmlns:inkscape="http://www.inkscape.org/namespaces/inkscape"><defs><linearGradient id="linear0" gradientUnits="userSpaceOnUse" x1="0" y1="0" x2="0" y2="1" gradientTransform="matrix(65.38168,0,0,73.405779,-0.449628,-4.681561)"><stop offset="0" style="stop-color:rgb(0%,96.078432%,86.274511%);stop-opacity:1;"/><stop offset="1" style="stop-color:rgb(0%,54.901963%,49.411765%);stop-opacity:1;"/></linearGradient><filter style="color-interpolation-filters:sRGB;" inkscape:label="Diffuse Light" id="filter184" x="-0.0375" y="-0.0375" width="1.075" height="1.075"><feGaussianBlur in="SourceGraphic" stdDeviation="1" result="blur" id="feGaussianBlur174" /><feDiffuseLighting diffuseConstant="1" surfaceScale="10" lighting-color="rgb(255,255,255)" result="diffuse" id="feDiffuseLighting178"><feDistantLight elevation="8" azimuth="235" id="feDistantLight176" /></feDiffuseLighting><feComposite in="diffuse" in2="diffuse" operator="arithmetic" k1="1" result="composite1" id="feComposite180" /><feComposite in="composite1" in2="SourceGraphic" k1="1" operator="arithmetic" k3="1" result="composite2" id="feComposite182" /></filter></defs><g id="surface1" style="filter:url(#filter184)"><path style=" stroke:none;fill-rule:nonzero;fill:url(#linear0);" d="M 32.304688 1.492188 C 15.609375 1.492188 2.066406 14.78125 2.066406 31.1875 C 2.066406 41.078125 7.023438 49.789062 14.589844 55.1875 C 14.3125 56.328125 13.960938 57.527344 13.40625 58.765625 C 11.519531 63.015625 9.625 63.015625 9.625 63.015625 C 9.625 63.015625 15.296875 63.015625 19.078125 60.886719 C 19.871094 60.4375 20.570312 59.707031 21.207031 58.832031 C 24.648438 60.171875 28.382812 60.886719 32.304688 60.886719 C 49.003906 60.886719 62.546875 47.59375 62.546875 31.1875 C 62.546875 14.78125 49.003906 1.492188 32.304688 1.492188 M 21.96875 12.097656 L 32.304688 23.765625 L 42.636719 12.097656 L 49.3125 19.589844 L 38.976562 31.1875 L 49.3125 42.855469 L 42.636719 50.285156 L 32.304688 38.683594 L 21.96875 50.285156 L 15.296875 42.855469 L 25.628906 31.1875 L 15.296875 19.589844 Z M 21.96875 12.097656 "/></g></svg>
