<svg width="64" height="64" viewBox="0 0 64 64" version="1.1" xmlns:inkscape="http://www.inkscape.org/namespaces/inkscape"><defs><linearGradient id="linear0" gradientUnits="userSpaceOnUse" x1="0" y1="0" x2="0" y2="1" gradientTransform="matrix(70.62251,0,0,69.779054,-4.348318,1.037807)"><stop offset="0" style="stop-color:rgb(0%,73.333335%,100%);stop-opacity:1;"/><stop offset="1" style="stop-color:rgb(0%,52.156866%,70.980394%);stop-opacity:1;"/></linearGradient><filter style="color-interpolation-filters:sRGB;" inkscape:label="Diffuse Light" id="filter184" x="-0.0375" y="-0.0375" width="1.075" height="1.075"><feGaussianBlur in="SourceGraphic" stdDeviation="1" result="blur" id="feGaussianBlur174" /><feDiffuseLighting diffuseConstant="1" surfaceScale="10" lighting-color="rgb(255,255,255)" result="diffuse" id="feDiffuseLighting178"><feDistantLight elevation="8" azimuth="235" id="feDistantLight176" /></feDiffuseLighting><feComposite in="diffuse" in2="diffuse" operator="arithmetic" k1="1" result="composite1" id="feComposite180" /><feComposite in="composite1" in2="SourceGraphic" k1="1" operator="arithmetic" k3="1" result="composite2" id="feComposite182" /></filter></defs><g id="surface1" style="filter:url(#filter184)"><path style=" stroke:none;fill-rule:nonzero;fill:url(#linear0);" d="M 31.03125 1.519531 C 25.453125 21.0625 10.226562 32.609375 10.226562 43.394531 C 10.226562 54.191406 19.542969 62.9375 31.03125 62.9375 C 42.523438 62.9375 51.84375 54.191406 51.84375 43.394531 C 51.84375 32.597656 36.613281 21.0625 31.03125 1.519531 M 45.339844 33.425781 C 47.621094 36.308594 48.863281 39.800781 48.867188 43.394531 C 48.867188 52.640625 40.878906 60.144531 31.03125 60.144531 C 27.214844 60.136719 23.5 58.972656 20.433594 56.835938 C 21.957031 57.171875 23.519531 57.347656 25.089844 57.355469 C 36.578125 57.355469 45.894531 48.601562 45.894531 37.8125 C 45.890625 36.332031 45.703125 34.863281 45.339844 33.425781 "/></g></svg>
