<svg width="64" height="64" viewBox="0 0 64 64" version="1.1" xmlns:inkscape="http://www.inkscape.org/namespaces/inkscape"><defs><linearGradient id="linear0" gradientUnits="userSpaceOnUse" x1="0" y1="0" x2="0" y2="1" gradientTransform="matrix(64,0,0,58.445312,0,2.777344)"><stop offset="0" style="stop-color:rgb(0%,96.078432%,86.274511%);stop-opacity:1;"/><stop offset="1" style="stop-color:rgb(0%,54.901963%,49.411765%);stop-opacity:1;"/></linearGradient><filter style="color-interpolation-filters:sRGB;" inkscape:label="Diffuse Light" id="filter184" x="-0.0375" y="-0.0375" width="1.075" height="1.075"><feGaussianBlur in="SourceGraphic" stdDeviation="1" result="blur" id="feGaussianBlur174" /><feDiffuseLighting diffuseConstant="1" surfaceScale="10" lighting-color="rgb(255,255,255)" result="diffuse" id="feDiffuseLighting178"><feDistantLight elevation="8" azimuth="235" id="feDistantLight176" /></feDiffuseLighting><feComposite in="diffuse" in2="diffuse" operator="arithmetic" k1="1" result="composite1" id="feComposite180" /><feComposite in="composite1" in2="SourceGraphic" k1="1" operator="arithmetic" k3="1" result="composite2" id="feComposite182" /></filter></defs><g id="surface1" style="filter:url(#filter184)"><path style=" stroke:none;fill-rule:nonzero;fill:url(#linear0);" d="M 37.183594 2.777344 C 27.925781 2.777344 19.765625 7.46875 14.945312 14.601562 L 14.890625 14.742188 L 12.609375 14.742188 C 10.484375 14.742188 8.761719 16.46875 8.761719 18.59375 C 2.242188 20.195312 0 24.359375 0 24.359375 L 13.824219 24.359375 C 30.605469 29.023438 23.425781 41.414062 16.238281 45.625 C 8.761719 50.003906 5.023438 40.496094 5.023438 40.496094 C 2.242188 50.859375 8.65625 61.222656 8.65625 61.222656 L 57.636719 46.945312 C 61.605469 42.269531 64 36.210938 64 29.597656 C 64 14.789062 51.992188 2.78125 37.183594 2.78125 Z M 36.496094 35.179688 C 37.117188 35.179688 37.710938 35.429688 38.148438 35.863281 C 38.589844 36.304688 38.832031 36.894531 38.832031 37.515625 C 38.832031 38.136719 38.589844 38.726562 38.148438 39.167969 C 37.710938 39.605469 37.117188 39.851562 36.496094 39.851562 C 35.207031 39.851562 34.164062 38.804688 34.164062 37.515625 C 34.164062 36.894531 34.40625 36.304688 34.847656 35.863281 C 35.285156 35.429688 35.878906 35.179688 36.496094 35.179688 Z M 36.496094 35.179688 "/></g></svg>
