<svg width="64" height="64" viewBox="0 0 64 64" version="1.1" xmlns:inkscape="http://www.inkscape.org/namespaces/inkscape"><defs><linearGradient id="linear0" gradientUnits="userSpaceOnUse" x1="0" y1="0" x2="0" y2="1" gradientTransform="matrix(64,0,0,48,0,8)"><stop offset="0" style="stop-color:rgb(100%,56.862748%,82.745099%);stop-opacity:1;"/><stop offset="1" style="stop-color:rgb(100%,0%,60.000002%);stop-opacity:1;"/></linearGradient><filter style="color-interpolation-filters:sRGB;" inkscape:label="Diffuse Light" id="filter184" x="-0.0375" y="-0.0375" width="1.075" height="1.075"><feGaussianBlur in="SourceGraphic" stdDeviation="1" result="blur" id="feGaussianBlur174" /><feDiffuseLighting diffuseConstant="1" surfaceScale="10" lighting-color="rgb(255,255,255)" result="diffuse" id="feDiffuseLighting178"><feDistantLight elevation="8" azimuth="235" id="feDistantLight176" /></feDiffuseLighting><feComposite in="diffuse" in2="diffuse" operator="arithmetic" k1="1" result="composite1" id="feComposite180" /><feComposite in="composite1" in2="SourceGraphic" k1="1" operator="arithmetic" k3="1" result="composite2" id="feComposite182" /></filter></defs><g id="surface1" style="filter:url(#filter184)"><path style=" stroke:none;fill-rule:evenodd;fill:url(#linear0);" d="M 42.808594 8 L 33.402344 19.367188 C 28.226562 25.617188 23.992188 30.859375 23.992188 31.011719 C 23.992188 31.164062 28.421875 36.847656 33.828125 43.644531 L 43.660156 56 L 53.960938 56 C 62.160156 56 64.207031 55.929688 63.984375 55.632812 C 63.429688 54.894531 45.230469 31.984375 44.824219 31.503906 C 44.441406 31.054688 45.265625 29.960938 53.496094 20.019531 C 58.5 13.976562 62.777344 8.796875 62.996094 8.515625 C 63.371094 8.027344 62.851562 8 53.105469 8 Z M 2.664062 8 C 2.664062 8 20.0625 30.992188 19.710938 30.910156 C 19.753906 31.023438 15.722656 36.214844 10.761719 42.453125 C 5.796875 48.6875 1.339844 54.289062 0.863281 54.890625 L 0 56 L 20.632812 56 L 25.460938 49.949219 C 28.808594 45.753906 30.203125 43.792969 30.015625 43.542969 C 29.867188 43.351562 27.570312 40.445312 24.90625 37.089844 L 20.0625 30.996094 L 25.132812 24.878906 C 27.925781 21.515625 30.179688 18.742188 30.148438 18.710938 Z M 2.664062 8 "/></g></svg>
