<svg width="64" height="64" viewBox="0 0 64 64" version="1.1" xmlns:inkscape="http://www.inkscape.org/namespaces/inkscape"><defs><linearGradient id="linear0" gradientUnits="userSpaceOnUse" x1="0" y1="0" x2="0" y2="1" gradientTransform="matrix(57.140625,0,0,64,3.429688,0)"><stop offset="0" style="stop-color:rgb(87.058824%,86.666667%,56.470591%);stop-opacity:1;"/><stop offset="1" style="stop-color:rgb(67.843139%,67.450982%,38.039216%);stop-opacity:1;"/></linearGradient><filter style="color-interpolation-filters:sRGB;" inkscape:label="Diffuse Light" id="filter184" x="-0.0375" y="-0.0375" width="1.075" height="1.075"><feGaussianBlur in="SourceGraphic" stdDeviation="1" result="blur" id="feGaussianBlur174" /><feDiffuseLighting diffuseConstant="1" surfaceScale="10" lighting-color="rgb(255,255,255)" result="diffuse" id="feDiffuseLighting178"><feDistantLight elevation="8" azimuth="235" id="feDistantLight176" /></feDiffuseLighting><feComposite in="diffuse" in2="diffuse" operator="arithmetic" k1="1" result="composite1" id="feComposite180" /><feComposite in="composite1" in2="SourceGraphic" k1="1" operator="arithmetic" k3="1" result="composite2" id="feComposite182" /></filter></defs><g id="surface1" style="filter:url(#filter184)"><path style=" stroke:none;fill-rule:evenodd;fill:url(#linear0);" d="M 3.4375 19.820312 L 3.4375 32 C 3.4375 34.703125 3.21875 39.359375 5.003906 41.523438 C 7.964844 46.488281 14.308594 57.222656 16.742188 62.140625 C 17.539062 63.613281 19.304688 64 21.53125 64 L 42.46875 64 C 44.695312 64 46.460938 63.613281 47.257812 62.140625 C 49.691406 57.222656 56.035156 46.488281 58.996094 41.523438 C 60.78125 39.359375 60.5625 34.703125 60.5625 32 L 60.5625 19.820312 C 60.5625 9.601562 47.867188 0 32 0 C 16.132812 0 3.4375 9.601562 3.4375 19.820312 Z M 10.285156 27.429688 L 10.285156 30.855469 C 15.015625 30.117188 17.199219 36.214844 19.148438 39.617188 C 20.976562 42.792969 23.277344 51.429688 23.277344 51.429688 C 25.027344 45.390625 24.0625 34.285156 32 34.285156 C 39.9375 34.285156 38.972656 45.390625 40.722656 51.429688 C 40.722656 51.429688 43.023438 42.792969 44.851562 39.617188 C 46.800781 36.214844 48.984375 30.117188 53.714844 30.855469 L 53.714844 27.429688 Z M 10.285156 27.429688 "/></g></svg>
