<svg width="64" height="64" viewBox="0 0 64 64" version="1.1" xmlns:inkscape="http://www.inkscape.org/namespaces/inkscape"><defs><linearGradient id="linear0" gradientUnits="userSpaceOnUse" x1="0" y1="0" x2="0" y2="1" gradientTransform="matrix(56,0,0,35.898438,4,14.050781)"><stop offset="0" style="stop-color:rgb(41.960785%,64.313728%,100%);stop-opacity:1;"/><stop offset="1" style="stop-color:rgb(0%,43.137255%,100%);stop-opacity:1;"/></linearGradient><filter style="color-interpolation-filters:sRGB;" inkscape:label="Diffuse Light" id="filter184" x="-0.0375" y="-0.0375" width="1.075" height="1.075"><feGaussianBlur in="SourceGraphic" stdDeviation="1" result="blur" id="feGaussianBlur174" /><feDiffuseLighting diffuseConstant="1" surfaceScale="10" lighting-color="rgb(255,255,255)" result="diffuse" id="feDiffuseLighting178"><feDistantLight elevation="8" azimuth="235" id="feDistantLight176" /></feDiffuseLighting><feComposite in="diffuse" in2="diffuse" operator="arithmetic" k1="1" result="composite1" id="feComposite180" /><feComposite in="composite1" in2="SourceGraphic" k1="1" operator="arithmetic" k3="1" result="composite2" id="feComposite182" /></filter></defs><g id="surface1" style="filter:url(#filter184)"><path style=" stroke:none;fill-rule:nonzero;fill:url(#linear0);" d="M 2.28125 3.1875 L 2.28125 16.957031 L 45.714844 16.957031 L 45.714844 19.253906 C 45.714844 21.796875 43.5625 23.84375 40.886719 23.84375 L 40.886719 37.609375 C 51.582031 37.609375 60.191406 29.421875 60.191406 19.253906 L 60.191406 3.1875 Z M 21.582031 23.84375 C 10.890625 23.84375 2.28125 32.03125 2.28125 42.199219 L 2.28125 58.261719 L 60.191406 58.261719 L 60.191406 44.496094 L 16.757812 44.496094 L 16.757812 42.199219 C 16.757812 39.65625 18.910156 37.609375 21.582031 37.609375 Z M 31.113281 23.84375 C 27.164062 23.90625 23.996094 26.96875 23.996094 30.726562 C 23.996094 34.527344 27.238281 37.609375 31.234375 37.609375 C 35.234375 37.609375 38.472656 34.527344 38.472656 30.726562 C 38.472656 26.925781 35.234375 23.84375 31.234375 23.84375 C 31.195312 23.84375 31.152344 23.84375 31.113281 23.84375 Z M 31.113281 23.84375 "/></g></svg>
