<svg width="64px" height="64px" viewBox="0 0 64 64" version="1.1" id="svg12" inkscape:version="1.2.2 (b0a8486541, 2022-12-01)" xmlns:inkscape="http://www.inkscape.org/namespaces/inkscape" xmlns:sodipodi="http://sodipodi.sourceforge.net/DTD/sodipodi-0.dtd" xmlns="http://www.w3.org/2000/svg" xmlns:svg="http://www.w3.org/2000/svg"> <sodipodi:namedview id="namedview14" pagecolor="#ffffff" bordercolor="#000000" borderopacity="0.25" inkscape:showpageshadow="2" inkscape:pageopacity="0.0" inkscape:pagecheckerboard="0" inkscape:deskcolor="#d1d1d1" showgrid="false" inkscape:zoom="3.6875" inkscape:cx="32" inkscape:cy="32.135593" inkscape:window-width="1432" inkscape:window-height="844" inkscape:window-x="0" inkscape:window-y="0" inkscape:window-maximized="1" inkscape:current-layer="svg12" /> <defs id="defs7"> <linearGradient id="linear0" gradientUnits="userSpaceOnUse" x1="0" y1="0" x2="0" y2="1" gradientTransform="matrix(64,0,0,56,0,4)"> <stop offset="0" style="stop-color:#ff6666;stop-opacity:1;" id="stop2" /> <stop offset="1" style="stop-color:#a10000;stop-opacity:1;" id="stop4" /> </linearGradient> <filter style="color-interpolation-filters:sRGB;" inkscape:label="Diffuse Light" id="filter184" x="-0.11210663" y="-0.12812186" width="1.2242133" height="1.2562437"> <feGaussianBlur in="SourceGraphic" stdDeviation="2.98951" result="blur" id="feGaussianBlur174" /> <feDiffuseLighting diffuseConstant="1" surfaceScale="10" lighting-color="rgb(255,255,255)" result="diffuse" id="feDiffuseLighting178"> <feDistantLight elevation="38" azimuth="235" id="feDistantLight176" /> </feDiffuseLighting> <feComposite in="diffuse" in2="diffuse" operator="arithmetic" k1="1" result="composite1" id="feComposite180" /> <feComposite in="composite1" in2="SourceGraphic" k1="1" operator="arithmetic" k3="1" result="composite2" id="feComposite182" /> </filter> </defs> <g id="surface1" style="filter:url(#filter184)">
<path style=" stroke:none;fill-rule:evenodd;fill:url(#linear0);" d="M 13.472656 57.628906 L 6.003906 57.628906 L 8.058594 44.230469 L 0 44.230469 L 1.097656 36.980469 L 9.152344 36.980469 L 10.839844 25.777344 L 2.78125 25.777344 L 3.878906 18.527344 L 12.011719 18.527344 L 13.839844 6.371094 L 21.234375 6.371094 L 19.40625 18.527344 L 28.925781 18.527344 L 30.828125 6.371094 L 38.222656 6.371094 L 36.324219 18.527344 L 44.375 18.527344 L 43.347656 25.777344 L 35.222656 25.777344 L 33.535156 36.980469 L 41.59375 36.980469 L 40.496094 44.230469 L 32.4375 44.230469 L 30.390625 57.628906 L 22.996094 57.628906 L 25.042969 44.230469 L 15.527344 44.230469 Z M 18.308594 25.777344 L 16.625 36.980469 L 26.140625 36.980469 L 27.828125 25.777344 Z M 60.191406 43.496094 L 55.796875 43.496094 L 53.675781 21.894531 L 53.675781 5.488281 L 62.246094 5.488281 L 62.246094 21.894531 Z M 57.996094 58.511719 C 56.285156 58.511719 54.871094 57.949219 53.75 56.824219 C 52.625 55.703125 52.0625 54.332031 52.0625 52.722656 C 52.0625 51.113281 52.625 49.734375 53.75 48.582031 C 54.871094 47.4375 56.285156 46.863281 57.996094 46.863281 C 59.65625 46.863281 61.074219 47.4375 62.246094 48.582031 C 63.417969 49.734375 64 51.113281 64 52.722656 C 64 54.285156 63.417969 55.640625 62.246094 56.785156 C 61.074219 57.933594 59.65625 58.511719 57.996094 58.511719 Z M 57.996094 58.511719 "/>
</g>
</svg>
