<svg width="64px" height="64px" viewBox="0 0 64 64" version="1.1" id="svg12" inkscape:version="1.2.2 (b0a8486541, 2022-12-01)" xmlns:inkscape="http://www.inkscape.org/namespaces/inkscape" xmlns:sodipodi="http://sodipodi.sourceforge.net/DTD/sodipodi-0.dtd" xmlns="http://www.w3.org/2000/svg" xmlns:svg="http://www.w3.org/2000/svg"> <sodipodi:namedview id="namedview14" pagecolor="#ffffff" bordercolor="#000000" borderopacity="0.25" inkscape:showpageshadow="2" inkscape:pageopacity="0.0" inkscape:pagecheckerboard="0" inkscape:deskcolor="#d1d1d1" showgrid="false" inkscape:zoom="3.6875" inkscape:cx="32" inkscape:cy="32.135593" inkscape:window-width="1432" inkscape:window-height="844" inkscape:window-x="0" inkscape:window-y="0" inkscape:window-maximized="1" inkscape:current-layer="svg12" /> <defs id="defs7"> <linearGradient id="linear0" gradientUnits="userSpaceOnUse" x1="0" y1="0" x2="0" y2="1" gradientTransform="matrix(64,0,0,56,0,4)"> <stop offset="0" style="stop-color:#9c856e;stop-opacity:1;" id="stop2" /> <stop offset="1" style="stop-color:#6e5a46;stop-opacity:1;" id="stop4" /> </linearGradient> <filter style="color-interpolation-filters:sRGB;" inkscape:label="Diffuse Light" id="filter184" x="-0.11210663" y="-0.12812186" width="1.2242133" height="1.2562437"> <feGaussianBlur in="SourceGraphic" stdDeviation="2.98951" result="blur" id="feGaussianBlur174" /> <feDiffuseLighting diffuseConstant="1" surfaceScale="10" lighting-color="rgb(255,255,255)" result="diffuse" id="feDiffuseLighting178"> <feDistantLight elevation="38" azimuth="235" id="feDistantLight176" /> </feDiffuseLighting> <feComposite in="diffuse" in2="diffuse" operator="arithmetic" k1="1" result="composite1" id="feComposite180" /> <feComposite in="composite1" in2="SourceGraphic" k1="1" operator="arithmetic" k3="1" result="composite2" id="feComposite182" /> </filter> </defs> <g id="surface1" style="filter:url(#filter184)">
<path style=" stroke:none;fill-rule:nonzero;fill:url(#linear0);" d="M 44 64 L 42.082031 60.3125 C 40.324219 56.875 38.816406 53.308594 37.578125 49.644531 C 36.988281 47.980469 36.480469 46.28125 36.046875 44.5625 L 36 44.339844 L 36 4 C 36 4 36 0 40 0 L 48 0 C 48 0 52 0 52 4 L 52 44.339844 L 51.953125 44.5625 C 51.839844 45.050781 51.40625 46.75 50.421875 49.644531 C 49.183594 53.308594 47.675781 56.875 45.917969 60.3125 Z M 43.160156 51.828125 L 44.828125 51.828125 C 45.386719 50.566406 46.003906 49.230469 46.339844 48.253906 C 47.234375 45.613281 48.003906 43.972656 48 44 L 40 44 C 39.988281 43.964844 40.753906 45.613281 41.65625 48.253906 C 41.988281 49.234375 42.609375 50.566406 43.160156 51.828125 Z M 40 12 L 48 12 L 48 4 L 40 4 Z M 40 12 "/>
<path style=" stroke:none;fill-rule:nonzero;fill:url(#linear0);" d="M 12 0 L 12 60 L 32 60 L 32 0 Z M 16 4 L 28 4 L 28 8 L 24 8 L 24 12 L 28 12 L 28 16 L 24 16 L 24 20 L 28 20 L 28 24 L 24 24 L 24 28 L 28 28 L 28 32 L 24 32 L 24 36 L 28 36 L 28 40 L 24 40 L 24 44 L 28 44 L 28 48 L 24 48 L 24 52 L 28 52 L 28 56 L 16 56 Z M 16 4 "/>
</g>
</svg>
