<svg width="64px" height="64px" viewBox="0 0 64 64" version="1.1" id="svg12" inkscape:version="1.2.2 (b0a8486541, 2022-12-01)" xmlns:inkscape="http://www.inkscape.org/namespaces/inkscape" xmlns:sodipodi="http://sodipodi.sourceforge.net/DTD/sodipodi-0.dtd" xmlns="http://www.w3.org/2000/svg" xmlns:svg="http://www.w3.org/2000/svg"> <sodipodi:namedview id="namedview14" pagecolor="#ffffff" bordercolor="#000000" borderopacity="0.25" inkscape:showpageshadow="2" inkscape:pageopacity="0.0" inkscape:pagecheckerboard="0" inkscape:deskcolor="#d1d1d1" showgrid="false" inkscape:zoom="3.6875" inkscape:cx="32" inkscape:cy="32.135593" inkscape:window-width="1432" inkscape:window-height="844" inkscape:window-x="0" inkscape:window-y="0" inkscape:window-maximized="1" inkscape:current-layer="svg12" /> <defs id="defs7"> <linearGradient id="linear0" gradientUnits="userSpaceOnUse" x1="0" y1="0" x2="0" y2="1" gradientTransform="matrix(64,0,0,56,0,4)"> <stop offset="0" style="stop-color:#9c856e;stop-opacity:1;" id="stop2" /> <stop offset="1" style="stop-color:#6e5a46;stop-opacity:1;" id="stop4" /> </linearGradient> <filter style="color-interpolation-filters:sRGB;" inkscape:label="Diffuse Light" id="filter184" x="-0.11210663" y="-0.12812186" width="1.2242133" height="1.2562437"> <feGaussianBlur in="SourceGraphic" stdDeviation="2.98951" result="blur" id="feGaussianBlur174" /> <feDiffuseLighting diffuseConstant="1" surfaceScale="10" lighting-color="rgb(255,255,255)" result="diffuse" id="feDiffuseLighting178"> <feDistantLight elevation="38" azimuth="235" id="feDistantLight176" /> </feDiffuseLighting> <feComposite in="diffuse" in2="diffuse" operator="arithmetic" k1="1" result="composite1" id="feComposite180" /> <feComposite in="composite1" in2="SourceGraphic" k1="1" operator="arithmetic" k3="1" result="composite2" id="feComposite182" /> </filter> </defs> <g id="surface1" style="filter:url(#filter184)">
<path style=" stroke:none;fill-rule:nonzero;fill:url(#linear0);" d="M 15.96875 4 C 10.941406 4.058594 7.261719 3.886719 4.25 5.546875 C 2.746094 6.375 1.546875 7.777344 0.890625 9.53125 C 0.234375 11.285156 0 13.371094 0 16 L 0 48 C 0 50.628906 0.234375 52.714844 0.890625 54.46875 C 1.546875 56.222656 2.746094 57.628906 4.25 58.457031 C 7.261719 60.121094 10.941406 59.941406 15.972656 60 L 48.058594 60 C 53.089844 59.941406 56.769531 60.121094 59.78125 58.457031 C 61.285156 57.628906 62.484375 56.222656 63.140625 54.46875 C 63.765625 52.714844 64 50.628906 64 48 L 64 24 C 64 21.371094 63.765625 19.285156 63.109375 17.53125 C 63.03125 17.3125 62.917969 17.113281 62.8125 16.917969 C 62.769531 16.839844 62.738281 16.761719 62.703125 16.6875 C 62.015625 15.332031 61.003906 14.230469 59.75 13.542969 C 56.738281 11.878906 53.058594 12.058594 48.027344 12 L 35.855469 12 L 27.765625 4 Z M 15.96875 8 L 26.125 8 L 34.214844 16 L 48 16 C 53.128906 16.058594 56.125 16.105469 57.816406 17.042969 C 58.292969 17.296875 58.765625 17.777344 59.140625 18.503906 C 59.078125 18.386719 59.140625 18.550781 59.265625 18.765625 C 59.300781 18.832031 59.265625 18.777344 59.300781 18.8125 L 59.300781 18.824219 C 59.347656 18.90625 59.40625 19.03125 59.375 18.9375 C 59.777344 20.003906 60.011719 21.605469 60.011719 24 L 60.011719 36 L 4 36 L 4 16 C 4 13.605469 4.234375 12.003906 4.628906 10.9375 C 4.980469 10.019531 5.550781 9.390625 6.175781 9.046875 C 7.875 8.113281 10.875 8.058594 15.972656 8 Z M 15.96875 8 "/>
</g>
</svg>
