<svg width="64px" height="64px" viewBox="0 0 64 64" version="1.1" id="svg12" inkscape:version="1.2.2 (b0a8486541, 2022-12-01)" xmlns:inkscape="http://www.inkscape.org/namespaces/inkscape" xmlns:sodipodi="http://sodipodi.sourceforge.net/DTD/sodipodi-0.dtd" xmlns="http://www.w3.org/2000/svg" xmlns:svg="http://www.w3.org/2000/svg"> <sodipodi:namedview id="namedview14" pagecolor="#ffffff" bordercolor="#000000" borderopacity="0.25" inkscape:showpageshadow="2" inkscape:pageopacity="0.0" inkscape:pagecheckerboard="0" inkscape:deskcolor="#d1d1d1" showgrid="false" inkscape:zoom="3.6875" inkscape:cx="32" inkscape:cy="32.135593" inkscape:window-width="1432" inkscape:window-height="844" inkscape:window-x="0" inkscape:window-y="0" inkscape:window-maximized="1" inkscape:current-layer="svg12" /> <defs id="defs7"> <linearGradient id="linear0" gradientUnits="userSpaceOnUse" x1="0" y1="0" x2="0" y2="1" gradientTransform="matrix(64,0,0,56,0,4)"> <stop offset="0" style="stop-color:#777777;stop-opacity:1;" id="stop2" /> <stop offset="1" style="stop-color:#444444;stop-opacity:1;" id="stop4" /> </linearGradient> <filter style="color-interpolation-filters:sRGB;" inkscape:label="Diffuse Light" id="filter184" x="-0.11210663" y="-0.12812186" width="1.2242133" height="1.2562437"> <feGaussianBlur in="SourceGraphic" stdDeviation="2.98951" result="blur" id="feGaussianBlur174" /> <feDiffuseLighting diffuseConstant="1" surfaceScale="10" lighting-color="rgb(255,255,255)" result="diffuse" id="feDiffuseLighting178"> <feDistantLight elevation="38" azimuth="235" id="feDistantLight176" /> </feDiffuseLighting> <feComposite in="diffuse" in2="diffuse" operator="arithmetic" k1="1" result="composite1" id="feComposite180" /> <feComposite in="composite1" in2="SourceGraphic" k1="1" operator="arithmetic" k3="1" result="composite2" id="feComposite182" /> </filter> </defs> <g id="surface1" style="filter:url(#filter184)">
<path style=" stroke:none;fill-rule:evenodd;fill:url(#linear0);fill-opacity:1;" d="M 0 0 L 64 0 L 64 64 L 0 64 Z M 59.796875 47.425781 L 47.121094 47.425781 L 47.121094 30.390625 C 47.121094 25.160156 45.378906 23.148438 41.957031 23.148438 C 37.800781 23.148438 36.125 26.097656 36.125 30.324219 L 36.125 40.851562 L 40.148438 40.851562 L 40.148438 47.425781 L 27.472656 47.425781 L 27.472656 30.390625 C 27.472656 25.160156 25.726562 23.148438 22.308594 23.148438 C 18.148438 23.148438 16.472656 26.097656 16.472656 30.324219 L 16.472656 40.851562 L 22.242188 40.851562 L 22.242188 47.425781 L 3.796875 47.425781 L 3.796875 40.851562 L 7.820312 40.851562 L 7.820312 23.75 L 3.796875 23.75 L 3.796875 17.179688 L 16.472656 17.179688 L 16.472656 21.738281 C 18.285156 18.519531 21.4375 16.574219 25.660156 16.574219 C 30.019531 16.574219 34.042969 18.652344 35.519531 23.078125 C 37.195312 19.054688 40.617188 16.574219 45.378906 16.574219 C 50.8125 16.574219 55.773438 19.859375 55.773438 27.039062 L 55.773438 40.851562 L 59.796875 40.851562 Z M 59.796875 47.425781 "/>
</g>
</svg>
