<svg width="64px" height="64px" viewBox="0 0 64 64" version="1.1" id="svg12" inkscape:version="1.2.2 (b0a8486541, 2022-12-01)" xmlns:inkscape="http://www.inkscape.org/namespaces/inkscape" xmlns:sodipodi="http://sodipodi.sourceforge.net/DTD/sodipodi-0.dtd" xmlns="http://www.w3.org/2000/svg" xmlns:svg="http://www.w3.org/2000/svg"> <sodipodi:namedview id="namedview14" pagecolor="#ffffff" bordercolor="#000000" borderopacity="0.25" inkscape:showpageshadow="2" inkscape:pageopacity="0.0" inkscape:pagecheckerboard="0" inkscape:deskcolor="#d1d1d1" showgrid="false" inkscape:zoom="3.6875" inkscape:cx="32" inkscape:cy="32.135593" inkscape:window-width="1432" inkscape:window-height="844" inkscape:window-x="0" inkscape:window-y="0" inkscape:window-maximized="1" inkscape:current-layer="svg12" /> <defs id="defs7"> <linearGradient id="linear0" gradientUnits="userSpaceOnUse" x1="0" y1="0" x2="0" y2="1" gradientTransform="matrix(64,0,0,56,0,4)"> <stop offset="0" style="stop-color:#545863;stop-opacity:1;" id="stop2" /> <stop offset="1" style="stop-color:#2d3038;stop-opacity:1;" id="stop4" /> </linearGradient> <filter style="color-interpolation-filters:sRGB;" inkscape:label="Diffuse Light" id="filter184" x="-0.11210663" y="-0.12812186" width="1.2242133" height="1.2562437"> <feGaussianBlur in="SourceGraphic" stdDeviation="2.98951" result="blur" id="feGaussianBlur174" /> <feDiffuseLighting diffuseConstant="1" surfaceScale="10" lighting-color="rgb(255,255,255)" result="diffuse" id="feDiffuseLighting178"> <feDistantLight elevation="38" azimuth="235" id="feDistantLight176" /> </feDiffuseLighting> <feComposite in="diffuse" in2="diffuse" operator="arithmetic" k1="1" result="composite1" id="feComposite180" /> <feComposite in="composite1" in2="SourceGraphic" k1="1" operator="arithmetic" k3="1" result="composite2" id="feComposite182" /> </filter> </defs> <g id="surface1" style="filter:url(#filter184)">
<path style=" stroke:none;fill-rule:nonzero;fill:url(#linear0);" d="M 30 4 C 22.089844 4 14.921875 7.078125 9.5625 12.074219 L 5.457031 7.96875 C 4.519531 10.582031 3.65625 13.230469 2.875 15.902344 C 2.097656 18.582031 1.390625 21.28125 0.75 24 C 3.425781 23.402344 6.128906 22.699219 8.871094 21.90625 C 11.628906 21.09375 14.265625 20.222656 16.769531 19.285156 L 12.402344 14.90625 C 17.183594 10.46875 23.472656 8 30 8 C 44.375 8 56 19.625 56 34 C 56 48.375 44.375 60 30 60 C 16.417969 60.003906 5.125 49.542969 4.097656 36 L 0.0976562 36 C 1.128906 51.753906 14.214844 64.003906 30 64 C 46.589844 64 60 50.589844 60 34 C 60 17.410156 46.589844 4 30 4 Z M 28 16 L 28 36.828125 L 37.582031 46.417969 L 40.417969 43.582031 L 32 35.171875 L 32 16 Z M 52.402344 59.878906 L 52.511719 60.027344 L 52.453125 59.9375 L 52.402344 59.886719 Z M 3.5625 59.902344 C 3.546875 59.921875 3.519531 59.9375 3.511719 59.953125 L 3.453125 60.042969 Z M 3.5625 59.902344 "/>
</g>
</svg>
