<?xml version="1.0" encoding="UTF-8" standalone="no"?>
<svg
   width="64px"
   height="64px"
   viewBox="0 0 64 64"
   version="1.1"
   id="svg214"
   sodipodi:docname="application-msonenote.svg"
   inkscape:version="1.2.2 (b0a8486541, 2022-12-01)"
   xmlns:inkscape="http://www.inkscape.org/namespaces/inkscape"
   xmlns:sodipodi="http://sodipodi.sourceforge.net/DTD/sodipodi-0.dtd"
   xmlns:xlink="http://www.w3.org/1999/xlink"
   xmlns="http://www.w3.org/2000/svg"
   xmlns:svg="http://www.w3.org/2000/svg">
  <sodipodi:namedview
     id="namedview216"
     pagecolor="#ffffff"
     bordercolor="#000000"
     borderopacity="0.25"
     inkscape:showpageshadow="2"
     inkscape:pageopacity="0.0"
     inkscape:pagecheckerboard="0"
     inkscape:deskcolor="#d1d1d1"
     showgrid="false"
     inkscape:zoom="3.6875"
     inkscape:cx="32"
     inkscape:cy="32.135593"
     inkscape:window-width="1432"
     inkscape:window-height="844"
     inkscape:window-x="0"
     inkscape:window-y="0"
     inkscape:window-maximized="1"
     inkscape:current-layer="svg214" />
  <defs
     id="defs205">
    <filter
       id="alpha"
       filterUnits="objectBoundingBox"
       x="0"
       y="0"
       width="1"
       height="1">
      <feColorMatrix
         type="matrix"
         in="SourceGraphic"
         values="0 0 0 0 1 0 0 0 0 1 0 0 0 0 1 0 0 0 1 0"
         id="feColorMatrix175" />
    </filter>
    <mask
       id="mask0">
      <g
         filter="url(#alpha)"
         id="g180">
        <rect
           x="0"
           y="0"
           width="64"
           height="64"
           style="fill:rgb(0%,0%,0%);fill-opacity:0.15;stroke:none;"
           id="rect178" />
      </g>
    </mask>
    <linearGradient
       id="linear0"
       gradientUnits="userSpaceOnUse"
       x1="49.570999"
       y1="52.714001"
       x2="51.714001"
       y2="54.856998"
       gradientTransform="matrix(2.3333,0,0,2.3333,-68.667,-72.000999)">
      <stop
         offset="0"
         style="stop-color:rgb(0%,0%,0%);stop-opacity:1;"
         id="stop183" />
      <stop
         offset="1"
         style="stop-color:rgb(0%,0%,0%);stop-opacity:0;"
         id="stop185" />
    </linearGradient>
    <clipPath
       id="clip1">
      <rect
         x="0"
         y="0"
         width="64"
         height="64"
         id="rect188" />
    </clipPath>
    <g
       id="surface5"
       clip-path="url(#clip1)">
      <path
         style=" stroke:none;fill-rule:evenodd;fill:url(#linear0);"
         d="M 56 46 L 42 60 L 51 60 C 53.769531 60 56 57.769531 56 55 Z M 56 46 "
         id="path191" />
    </g>
    <mask
       id="mask1">
      <g
         filter="url(#alpha)"
         id="g196">
        <rect
           x="0"
           y="0"
           width="64"
           height="64"
           style="fill:rgb(0%,0%,0%);fill-opacity:0.75;stroke:none;"
           id="rect194" />
      </g>
    </mask>
    <clipPath
       id="clip2">
      <rect
         x="0"
         y="0"
         width="64"
         height="64"
         id="rect199" />
    </clipPath>
    <g
       id="surface8"
       clip-path="url(#clip2)">
      <path
         style=" stroke:none;fill-rule:nonzero;fill:rgb(100%,100%,100%);fill-opacity:1;"
         d="M 22 21 C 21.445312 21 21 21.445312 21 22 L 21 42 C 21 42.554688 21.445312 43 22 43 L 40 43 C 40.554688 43 41 42.554688 41 42 L 41 41 L 42 41 C 42.554688 41 43 40.554688 43 40 L 43 36 C 43 35.8125 42.9375 35.648438 42.847656 35.5 C 42.9375 35.351562 43 35.1875 43 35 L 43 31 C 43 30.8125 42.9375 30.648438 42.847656 30.5 C 42.9375 30.351562 43 30.1875 43 30 L 43 26 C 43 25.445312 42.554688 25 42 25 L 41 25 L 41 22 C 41 21.445312 40.554688 21 40 21 Z M 23 24 L 30 24 L 30 25 L 23 25 Z M 32 24 L 39 24 L 39 25 L 32 25 Z M 41 26 L 42 26 L 42 30 L 41 30 Z M 23 27 L 30 27 L 30 28 L 23 28 Z M 32 27 L 39 27 L 39 28 L 32 28 Z M 23 30 L 30 30 L 30 31 L 23 31 Z M 32 30 L 39 30 L 39 31 L 32 31 Z M 41 31 L 42 31 L 42 35 L 41 35 Z M 23 33 L 30 33 L 30 34 L 23 34 Z M 32 33 L 39 33 L 39 34 L 32 34 Z M 23 36 L 30 36 L 30 37 L 23 37 Z M 32 36 L 39 36 L 39 37 L 32 37 Z M 41 36 L 42 36 L 42 40 L 41 40 Z M 23 39 L 30 39 L 30 40 L 23 40 Z M 32 39 L 39 39 L 39 40 L 32 40 Z M 32 39 "
         id="path202" />
    </g>
    <filter
       style="color-interpolation-filters:sRGB;"
       inkscape:label="Diffuse Light"
       id="filter1255"
       x="-0.05"
       y="-0.042857143"
       width="1.1"
       height="1.0857143">
      <feGaussianBlur
         in="SourceGraphic"
         stdDeviation="1"
         result="blur"
         id="feGaussianBlur1245" />
      <feDiffuseLighting
         diffuseConstant="1"
         surfaceScale="10"
         lighting-color="rgb(255,255,255)"
         result="diffuse"
         id="feDiffuseLighting1249">
        <feDistantLight
           elevation="8"
           azimuth="235"
           id="feDistantLight1247" />
      </feDiffuseLighting>
      <feComposite
         in="diffuse"
         in2="diffuse"
         operator="arithmetic"
         k1="1"
         result="composite1"
         id="feComposite1251" />
      <feComposite
         in="composite1"
         in2="SourceGraphic"
         k1="1"
         operator="arithmetic"
         k3="1"
         result="composite2"
         id="feComposite1253" />
    </filter>
  </defs>
  <g
     id="surface1"
     style="filter:url(#filter1255)">
    <path
       style=" stroke:none;fill-rule:nonzero;fill:rgb(60.000002%,29.411766%,56.862748%);fill-opacity:1;"
       d="M 13 4 L 51 4 C 53.761719 4 56 6.238281 56 9 L 56 55 C 56 57.761719 53.761719 60 51 60 L 13 60 C 10.238281 60 8 57.761719 8 55 L 8 9 C 8 6.238281 10.238281 4 13 4 Z M 13 4 "
       id="path207" />
    <use
       xlink:href="#surface5"
       mask="url(#mask0)"
       id="use209" />
    <use
       xlink:href="#surface8"
       mask="url(#mask1)"
       id="use211" />
  </g>
</svg>
