<?xml version="1.0" encoding="UTF-8" standalone="no"?>
<svg
   width="64px"
   height="64px"
   viewBox="0 0 64 64"
   version="1.1"
   id="svg410"
   sodipodi:docname="application-x-gcstar.svg"
   inkscape:version="1.2.2 (b0a8486541, 2022-12-01)"
   xmlns:inkscape="http://www.inkscape.org/namespaces/inkscape"
   xmlns:sodipodi="http://sodipodi.sourceforge.net/DTD/sodipodi-0.dtd"
   xmlns="http://www.w3.org/2000/svg"
   xmlns:svg="http://www.w3.org/2000/svg">
  <sodipodi:namedview
     id="namedview412"
     pagecolor="#ffffff"
     bordercolor="#000000"
     borderopacity="0.25"
     inkscape:showpageshadow="2"
     inkscape:pageopacity="0.0"
     inkscape:pagecheckerboard="0"
     inkscape:deskcolor="#d1d1d1"
     showgrid="false"
     inkscape:zoom="3.6875"
     inkscape:cx="32"
     inkscape:cy="32.135593"
     inkscape:window-width="1432"
     inkscape:window-height="844"
     inkscape:window-x="0"
     inkscape:window-y="0"
     inkscape:window-maximized="1"
     inkscape:current-layer="svg410" />
  <defs
     id="defs405">
    <linearGradient
       id="linear0"
       gradientUnits="userSpaceOnUse"
       x1="0"
       y1="0"
       x2="0"
       y2="1"
       gradientTransform="matrix(64,0,0,64,0,0)">
      <stop
         offset="0"
         style="stop-color:#f8c3c3;stop-opacity:1;"
         id="stop400" />
      <stop
         offset="1"
         style="stop-color:#c60606;stop-opacity:1;"
         id="stop402" />
    </linearGradient>
    <filter
       style="color-interpolation-filters:sRGB;"
       inkscape:label="Diffuse Light"
       id="filter996"
       x="-0.0375"
       y="-0.0375"
       width="1.075"
       height="1.075">
      <feGaussianBlur
         in="SourceGraphic"
         stdDeviation="1"
         result="blur"
         id="feGaussianBlur986" />
      <feDiffuseLighting
         diffuseConstant="1"
         surfaceScale="10"
         lighting-color="rgb(255,255,255)"
         result="diffuse"
         id="feDiffuseLighting990">
        <feDistantLight
           elevation="8"
           azimuth="235"
           id="feDistantLight988" />
      </feDiffuseLighting>
      <feComposite
         in="diffuse"
         in2="diffuse"
         operator="arithmetic"
         k1="1"
         result="composite1"
         id="feComposite992" />
      <feComposite
         in="composite1"
         in2="SourceGraphic"
         k1="1"
         operator="arithmetic"
         k3="1"
         result="composite2"
         id="feComposite994" />
    </filter>
  </defs>
  <g
     id="surface1"
     style="filter:url(#filter996)">
    <path
       style=" stroke:none;fill-rule:nonzero;fill:url(#linear0);"
       d="M 32 0 C 14.34375 0 0 14.34375 0 32 C 0 49.65625 14.34375 64 32 64 C 49.65625 64 64 49.65625 64 32 C 64 14.34375 49.65625 0 32 0 Z M 15.628906 21.761719 C 19.371094 21.660156 23.082031 24.207031 24.625 28.28125 C 26.527344 33.296875 24.433594 38.753906 19.949219 40.453125 C 15.464844 42.152344 10.28125 39.453125 8.378906 34.4375 C 6.480469 29.421875 8.578125 23.964844 13.0625 22.265625 C 13.902344 21.949219 14.765625 21.785156 15.628906 21.761719 Z M 48.921875 21.761719 C 49.785156 21.785156 50.652344 21.949219 51.488281 22.265625 C 55.972656 23.964844 58.074219 29.421875 56.171875 34.4375 C 54.269531 39.453125 49.089844 42.152344 44.605469 40.453125 C 40.125 38.753906 38.019531 33.296875 39.921875 28.28125 C 41.46875 24.207031 45.183594 21.660156 48.921875 21.761719 Z M 48.921875 21.761719 "
       id="path407" />
  </g>
</svg>
