<?xml version="1.0" encoding="UTF-8" standalone="no"?>
<svg
   width="64px"
   height="64px"
   viewBox="0 0 64 64"
   version="1.1"
   id="svg175"
   sodipodi:docname="application-x-skg.svg"
   inkscape:version="1.2.2 (b0a8486541, 2022-12-01)"
   xmlns:inkscape="http://www.inkscape.org/namespaces/inkscape"
   xmlns:sodipodi="http://sodipodi.sourceforge.net/DTD/sodipodi-0.dtd"
   xmlns:xlink="http://www.w3.org/1999/xlink"
   xmlns="http://www.w3.org/2000/svg"
   xmlns:svg="http://www.w3.org/2000/svg">
  <sodipodi:namedview
     id="namedview177"
     pagecolor="#ffffff"
     bordercolor="#000000"
     borderopacity="0.25"
     inkscape:showpageshadow="2"
     inkscape:pageopacity="0.0"
     inkscape:pagecheckerboard="0"
     inkscape:deskcolor="#d1d1d1"
     showgrid="false"
     inkscape:zoom="3.6875"
     inkscape:cx="32"
     inkscape:cy="32.135593"
     inkscape:window-width="1432"
     inkscape:window-height="844"
     inkscape:window-x="0"
     inkscape:window-y="0"
     inkscape:window-maximized="1"
     inkscape:current-layer="svg175" />
  <defs
     id="defs166">
    <filter
       id="alpha"
       filterUnits="objectBoundingBox"
       x="0"
       y="0"
       width="1"
       height="1">
      <feColorMatrix
         type="matrix"
         in="SourceGraphic"
         values="0 0 0 0 1 0 0 0 0 1 0 0 0 0 1 0 0 0 1 0"
         id="feColorMatrix147" />
    </filter>
    <mask
       id="mask0">
      <g
         filter="url(#alpha)"
         id="g152">
        <rect
           x="0"
           y="0"
           width="64"
           height="64"
           style="fill:rgb(0%,0%,0%);fill-opacity:0.15;stroke:none;"
           id="rect150" />
      </g>
    </mask>
    <linearGradient
       id="linear0"
       gradientUnits="userSpaceOnUse"
       x1="49.570999"
       y1="52.714001"
       x2="51.714001"
       y2="54.856998"
       gradientTransform="matrix(2.3333,0,0,2.3333,-68.667,-72.000999)">
      <stop
         offset="0"
         style="stop-color:rgb(0%,0%,0%);stop-opacity:1;"
         id="stop155" />
      <stop
         offset="1"
         style="stop-color:rgb(0%,0%,0%);stop-opacity:0;"
         id="stop157" />
    </linearGradient>
    <clipPath
       id="clip1">
      <rect
         x="0"
         y="0"
         width="64"
         height="64"
         id="rect160" />
    </clipPath>
    <g
       id="surface5"
       clip-path="url(#clip1)">
      <path
         style=" stroke:none;fill-rule:evenodd;fill:url(#linear0);"
         d="M 56 46 L 42 60 L 51 60 C 53.769531 60 56 57.769531 56 55 Z M 56 46 "
         id="path163" />
    </g>
    <filter
       style="color-interpolation-filters:sRGB;"
       inkscape:label="Diffuse Light"
       id="filter1346"
       x="-0.05"
       y="-0.042857143"
       width="1.1"
       height="1.0857143">
      <feGaussianBlur
         in="SourceGraphic"
         stdDeviation="1"
         result="blur"
         id="feGaussianBlur1336" />
      <feDiffuseLighting
         diffuseConstant="1"
         surfaceScale="10"
         lighting-color="rgb(255,255,255)"
         result="diffuse"
         id="feDiffuseLighting1340">
        <feDistantLight
           elevation="8"
           azimuth="235"
           id="feDistantLight1338" />
      </feDiffuseLighting>
      <feComposite
         in="diffuse"
         in2="diffuse"
         operator="arithmetic"
         k1="1"
         result="composite1"
         id="feComposite1342" />
      <feComposite
         in="composite1"
         in2="SourceGraphic"
         k1="1"
         operator="arithmetic"
         k3="1"
         result="composite2"
         id="feComposite1344" />
    </filter>
  </defs>
  <g
     id="surface1"
     style="filter:url(#filter1346)">
    <path
       style=" stroke:none;fill-rule:nonzero;fill:rgb(96.078432%,59.607846%,4.705882%);fill-opacity:1;"
       d="M 13 4 L 51 4 C 53.761719 4 56 6.238281 56 9 L 56 55 C 56 57.761719 53.761719 60 51 60 L 13 60 C 10.238281 60 8 57.761719 8 55 L 8 9 C 8 6.238281 10.238281 4 13 4 Z M 13 4 "
       id="path168" />
    <use
       xlink:href="#surface5"
       mask="url(#mask0)"
       id="use170" />
    <path
       style=" stroke:none;fill-rule:nonzero;fill:rgb(99.215686%,86.666667%,63.921571%);fill-opacity:1;"
       d="M 22 27 L 22 28 L 21 28 L 21 40 L 22 40 L 22 41 L 42 41 L 42 40 L 43 40 L 43 28 L 42 28 L 42 27 Z M 23 28 L 41 28 C 41 28.550781 41.449219 29 42 29 L 42 39 C 41.449219 39 41 39.449219 41 40 L 23 40 C 23 39.449219 22.550781 39 22 39 L 22 29 C 22.550781 29 23 28.550781 23 28 M 32 30 C 29.789062 30 28 31.789062 28 34 C 28 36.210938 29.789062 38 32 38 C 34.210938 38 36 36.210938 36 34 C 36 31.789062 34.210938 30 32 30 M 32 31 C 33.65625 31 35 32.34375 35 34 C 35 35.65625 33.65625 37 32 37 C 30.34375 37 29 35.65625 29 34 C 29 32.34375 30.34375 31 32 31 "
       id="path172" />
  </g>
</svg>
