<?xml version="1.0" encoding="UTF-8" standalone="no"?>
<svg
   width="64px"
   height="64px"
   viewBox="0 0 64 64"
   version="1.1"
   id="svg143"
   sodipodi:docname="application-x-scilab.svg"
   inkscape:version="1.2.2 (b0a8486541, 2022-12-01)"
   xmlns:inkscape="http://www.inkscape.org/namespaces/inkscape"
   xmlns:sodipodi="http://sodipodi.sourceforge.net/DTD/sodipodi-0.dtd"
   xmlns="http://www.w3.org/2000/svg"
   xmlns:svg="http://www.w3.org/2000/svg">
  <sodipodi:namedview
     id="namedview145"
     pagecolor="#ffffff"
     bordercolor="#000000"
     borderopacity="0.25"
     inkscape:showpageshadow="2"
     inkscape:pageopacity="0.0"
     inkscape:pagecheckerboard="0"
     inkscape:deskcolor="#d1d1d1"
     showgrid="false"
     inkscape:zoom="3.6875"
     inkscape:cx="32"
     inkscape:cy="32.135593"
     inkscape:window-width="1432"
     inkscape:window-height="844"
     inkscape:window-x="0"
     inkscape:window-y="0"
     inkscape:window-maximized="1"
     inkscape:current-layer="svg143" />
  <defs
     id="defs138">
    <linearGradient
       id="linear0"
       gradientUnits="userSpaceOnUse"
       x1="0"
       y1="0"
       x2="0"
       y2="1"
       gradientTransform="matrix(64,0,0,61.989583,0,1.005208)">
      <stop
         offset="0"
         style="stop-color:#fcd7fb;stop-opacity:1;"
         id="stop133" />
      <stop
         offset="1"
         style="stop-color:#ce13b8;stop-opacity:1;"
         id="stop135" />
    </linearGradient>
    <filter
       style="color-interpolation-filters:sRGB;"
       inkscape:label="Diffuse Light"
       id="filter1383"
       x="-0.0375"
       y="-0.038714555"
       width="1.075"
       height="1.0774291">
      <feGaussianBlur
         in="SourceGraphic"
         stdDeviation="1"
         result="blur"
         id="feGaussianBlur1373" />
      <feDiffuseLighting
         diffuseConstant="1"
         surfaceScale="10"
         lighting-color="rgb(255,255,255)"
         result="diffuse"
         id="feDiffuseLighting1377">
        <feDistantLight
           elevation="8"
           azimuth="235"
           id="feDistantLight1375" />
      </feDiffuseLighting>
      <feComposite
         in="diffuse"
         in2="diffuse"
         operator="arithmetic"
         k1="1"
         result="composite1"
         id="feComposite1379" />
      <feComposite
         in="composite1"
         in2="SourceGraphic"
         k1="1"
         operator="arithmetic"
         k3="1"
         result="composite2"
         id="feComposite1381" />
    </filter>
  </defs>
  <g
     id="surface1"
     style="filter:url(#filter1383)">
    <path
       style=" stroke:none;fill-rule:evenodd;fill:url(#linear0);"
       d="M 41.328125 7.75 C 41.328125 11.472656 38.308594 14.488281 34.582031 14.488281 C 30.859375 14.488281 27.84375 11.472656 27.84375 7.75 C 27.84375 4.027344 30.859375 1.003906 34.582031 1.003906 C 38.308594 1.003906 41.328125 4.027344 41.328125 7.75 Z M 27.265625 23.917969 C 27.265625 27.640625 24.25 30.660156 20.527344 30.660156 C 16.800781 30.660156 13.785156 27.640625 13.785156 23.917969 C 13.785156 20.191406 16.800781 17.175781 20.527344 17.175781 C 24.25 17.175781 27.265625 20.191406 27.265625 23.917969 Z M 13.484375 40.082031 C 13.484375 43.808594 10.464844 46.828125 6.738281 46.828125 C 3.015625 46.828125 0 43.808594 0 40.082031 C 0 36.359375 3.015625 33.34375 6.738281 33.34375 C 10.464844 33.34375 13.484375 36.359375 13.484375 40.082031 Z M 35.550781 40.082031 C 35.550781 43.808594 32.535156 46.828125 28.8125 46.828125 C 25.089844 46.828125 22.066406 43.808594 22.066406 40.082031 C 22.066406 36.359375 25.089844 33.34375 28.8125 33.34375 C 32.535156 33.34375 35.550781 36.359375 35.550781 40.082031 Z M 50.183594 23.917969 C 50.183594 27.640625 47.160156 30.660156 43.4375 30.660156 C 39.714844 30.660156 36.699219 27.640625 36.699219 23.917969 C 36.699219 20.191406 39.714844 17.175781 43.4375 17.175781 C 47.160156 17.175781 50.183594 20.191406 50.183594 23.917969 Z M 57.628906 40.082031 C 57.628906 43.808594 54.609375 46.828125 50.886719 46.828125 C 47.160156 46.828125 44.144531 43.808594 44.144531 40.082031 C 44.144531 36.359375 47.160156 33.34375 50.886719 33.34375 C 54.609375 33.34375 57.628906 36.359375 57.628906 40.082031 Z M 64 56.25 C 64 59.972656 60.984375 62.996094 57.261719 62.996094 C 53.535156 62.996094 50.515625 59.972656 50.515625 56.25 C 50.515625 52.527344 53.535156 49.511719 57.261719 49.511719 C 60.984375 49.511719 64 52.527344 64 56.25 Z M 43.609375 56.25 C 43.609375 59.972656 40.59375 62.996094 36.871094 62.996094 C 33.144531 62.996094 30.128906 59.972656 30.128906 56.25 C 30.128906 52.527344 33.144531 49.511719 36.871094 49.511719 C 40.59375 49.511719 43.609375 52.527344 43.609375 56.25 Z M 23.230469 56.25 C 23.230469 59.972656 20.207031 62.996094 16.484375 62.996094 C 12.761719 62.996094 9.746094 59.972656 9.746094 56.25 C 9.746094 52.527344 12.761719 49.511719 16.484375 49.511719 C 20.207031 49.511719 23.230469 52.527344 23.230469 56.25 Z M 23.230469 56.25 "
       id="path140" />
  </g>
</svg>
