<?xml version="1.0" encoding="UTF-8" standalone="no"?>
<svg
   width="64px"
   height="64px"
   viewBox="0 0 64 64"
   version="1.1"
   id="svg222"
   sodipodi:docname="mimetype-tag.svg"
   inkscape:version="1.2.2 (b0a8486541, 2022-12-01)"
   xmlns:inkscape="http://www.inkscape.org/namespaces/inkscape"
   xmlns:sodipodi="http://sodipodi.sourceforge.net/DTD/sodipodi-0.dtd"
   xmlns="http://www.w3.org/2000/svg"
   xmlns:svg="http://www.w3.org/2000/svg">
  <sodipodi:namedview
     id="namedview224"
     pagecolor="#ffffff"
     bordercolor="#000000"
     borderopacity="0.25"
     inkscape:showpageshadow="2"
     inkscape:pageopacity="0.0"
     inkscape:pagecheckerboard="0"
     inkscape:deskcolor="#d1d1d1"
     showgrid="false"
     inkscape:zoom="3.6875"
     inkscape:cx="32"
     inkscape:cy="32.135593"
     inkscape:window-width="1432"
     inkscape:window-height="844"
     inkscape:window-x="0"
     inkscape:window-y="0"
     inkscape:window-maximized="1"
     inkscape:current-layer="svg222" />
  <defs
     id="defs217">
    <linearGradient
       id="linear0"
       gradientUnits="userSpaceOnUse"
       x1="0"
       y1="0"
       x2="0"
       y2="1"
       gradientTransform="matrix(64,0,0,64,0,0)">
      <stop
         offset="0"
         style="stop-color:#58d2f0;stop-opacity:1;"
         id="stop212" />
      <stop
         offset="1"
         style="stop-color:#1b788f;stop-opacity:1;"
         id="stop214" />
    </linearGradient>
    <filter
       style="color-interpolation-filters:sRGB;"
       inkscape:label="Diffuse Light"
       id="filter1709"
       x="-0.0375"
       y="-0.037499962"
       width="1.075"
       height="1.0749999">
      <feGaussianBlur
         in="SourceGraphic"
         stdDeviation="1"
         result="blur"
         id="feGaussianBlur1699" />
      <feDiffuseLighting
         diffuseConstant="1"
         surfaceScale="10"
         lighting-color="rgb(255,255,255)"
         result="diffuse"
         id="feDiffuseLighting1703">
        <feDistantLight
           elevation="8"
           azimuth="235"
           id="feDistantLight1701" />
      </feDiffuseLighting>
      <feComposite
         in="diffuse"
         in2="diffuse"
         operator="arithmetic"
         k1="1"
         result="composite1"
         id="feComposite1705" />
      <feComposite
         in="composite1"
         in2="SourceGraphic"
         k1="1"
         operator="arithmetic"
         k3="1"
         result="composite2"
         id="feComposite1707" />
    </filter>
  </defs>
  <g
     id="surface1"
     style="filter:url(#filter1709)">
    <path
       style=" stroke:none;fill-rule:nonzero;fill:url(#linear0);"
       d="M 10.519531 0 C 10.519531 0 7.984375 -0.03125 5.375 1.277344 C 2.769531 2.578125 0 5.609375 0 10.519531 L 0 32.4375 L 31.5625 64 L 64 31.5625 L 32.4375 0 Z M 10.519531 4.207031 L 30.691406 4.207031 L 58.046875 31.5625 L 31.5625 58.046875 L 4.207031 30.691406 L 4.207031 10.519531 C 4.207031 7.015625 5.644531 5.839844 7.25 5.035156 C 8.855469 4.238281 10.519531 4.207031 10.519531 4.207031 Z M 14.730469 8.417969 C 11.269531 8.417969 8.417969 11.269531 8.417969 14.730469 C 8.417969 18.191406 11.269531 21.042969 14.730469 21.042969 C 18.191406 21.042969 21.042969 18.191406 21.042969 14.730469 C 21.042969 11.269531 18.191406 8.417969 14.730469 8.417969 Z M 14.730469 12.625 C 15.917969 12.625 16.832031 13.542969 16.832031 14.730469 C 16.832031 15.917969 15.917969 16.832031 14.730469 16.832031 C 13.542969 16.832031 12.625 15.917969 12.625 14.730469 C 12.625 13.542969 13.542969 12.625 14.730469 12.625 Z M 14.730469 12.625 "
       id="path219" />
  </g>
</svg>
