<?xml version="1.0" encoding="UTF-8" standalone="no"?>
<svg
   width="64px"
   height="64px"
   viewBox="0 0 64 64"
   version="1.1"
   id="svg384"
   sodipodi:docname="mimetype-ipynb.svg"
   inkscape:version="1.2.2 (b0a8486541, 2022-12-01)"
   xmlns:inkscape="http://www.inkscape.org/namespaces/inkscape"
   xmlns:sodipodi="http://sodipodi.sourceforge.net/DTD/sodipodi-0.dtd"
   xmlns="http://www.w3.org/2000/svg"
   xmlns:svg="http://www.w3.org/2000/svg">
  <sodipodi:namedview
     id="namedview386"
     pagecolor="#ffffff"
     bordercolor="#000000"
     borderopacity="0.25"
     inkscape:showpageshadow="2"
     inkscape:pageopacity="0.0"
     inkscape:pagecheckerboard="0"
     inkscape:deskcolor="#d1d1d1"
     showgrid="false"
     inkscape:zoom="3.6875"
     inkscape:cx="32"
     inkscape:cy="32.135593"
     inkscape:window-width="1432"
     inkscape:window-height="844"
     inkscape:window-x="0"
     inkscape:window-y="0"
     inkscape:window-maximized="1"
     inkscape:current-layer="svg384" />
  <defs
     id="defs379">
    <linearGradient
       id="linear0"
       gradientUnits="userSpaceOnUse"
       x1="0"
       y1="0"
       x2="0"
       y2="1"
       gradientTransform="matrix(49.010417,0,0,64,7.494792,0)">
      <stop
         offset="0"
         style="stop-color:#58d2f0;stop-opacity:1;"
         id="stop374" />
      <stop
         offset="1"
         style="stop-color:#1b788f;stop-opacity:1;"
         id="stop376" />
    </linearGradient>
    <filter
       style="color-interpolation-filters:sRGB;"
       inkscape:label="Diffuse Light"
       id="filter1027"
       x="-0.048971784"
       y="-0.0375"
       width="1.0979436"
       height="1.075">
      <feGaussianBlur
         in="SourceGraphic"
         stdDeviation="1"
         result="blur"
         id="feGaussianBlur1017" />
      <feDiffuseLighting
         diffuseConstant="1"
         surfaceScale="10"
         lighting-color="rgb(255,255,255)"
         result="diffuse"
         id="feDiffuseLighting1021">
        <feDistantLight
           elevation="8"
           azimuth="235"
           id="feDistantLight1019" />
      </feDiffuseLighting>
      <feComposite
         in="diffuse"
         in2="diffuse"
         operator="arithmetic"
         k1="1"
         result="composite1"
         id="feComposite1023" />
      <feComposite
         in="composite1"
         in2="SourceGraphic"
         k1="1"
         operator="arithmetic"
         k3="1"
         result="composite2"
         id="feComposite1025" />
    </filter>
  </defs>
  <g
     id="surface1"
     style="filter:url(#filter1027)">
    <path
       style=" stroke:none;fill-rule:evenodd;fill:url(#linear0);"
       d="M 46.605469 4.441406 C 46.605469 1.988281 48.59375 0 51.046875 0 C 53.5 0 55.496094 1.988281 55.496094 4.441406 C 55.496094 6.894531 53.5 8.890625 51.046875 8.890625 C 48.59375 8.890625 46.605469 6.894531 46.605469 4.441406 Z M 7.496094 59.558594 C 7.496094 57.105469 9.484375 55.109375 11.9375 55.109375 C 14.390625 55.109375 16.378906 57.105469 16.378906 59.558594 C 16.378906 62.011719 14.390625 64 11.9375 64 C 9.484375 64 7.496094 62.011719 7.496094 59.558594 Z M 7.496094 8.890625 C 7.496094 6.925781 9.089844 5.332031 11.046875 5.332031 C 13.011719 5.332031 14.605469 6.925781 14.605469 8.890625 C 14.605469 10.847656 13.011719 12.441406 11.046875 12.441406 C 9.089844 12.441406 7.496094 10.847656 7.496094 8.890625 Z M 32.378906 7.109375 C 20.96875 7.125 11.03125 14.894531 8.265625 25.96875 C 12.652344 20.972656 22.046875 17.785156 32.378906 17.777344 C 42.722656 17.785156 52.128906 20.984375 56.503906 25.980469 C 53.746094 14.902344 43.800781 7.125 32.378906 7.109375 Z M 8.253906 38.019531 C 11.019531 49.097656 20.964844 56.875 32.378906 56.890625 C 43.792969 56.875 53.734375 49.105469 56.5 38.03125 C 52.113281 43.027344 42.71875 46.214844 32.378906 46.222656 C 22.035156 46.214844 12.636719 43.015625 8.253906 38.019531 Z M 8.253906 38.019531 "
       id="path381" />
  </g>
</svg>
