<?xml version="1.0" encoding="UTF-8" standalone="no"?>
<svg
   width="64px"
   height="64px"
   viewBox="0 0 64 64"
   version="1.1"
   id="svg124"
   sodipodi:docname="mimetype-octave.svg"
   inkscape:version="1.2.2 (b0a8486541, 2022-12-01)"
   xmlns:inkscape="http://www.inkscape.org/namespaces/inkscape"
   xmlns:sodipodi="http://sodipodi.sourceforge.net/DTD/sodipodi-0.dtd"
   xmlns="http://www.w3.org/2000/svg"
   xmlns:svg="http://www.w3.org/2000/svg">
  <sodipodi:namedview
     id="namedview126"
     pagecolor="#ffffff"
     bordercolor="#000000"
     borderopacity="0.25"
     inkscape:showpageshadow="2"
     inkscape:pageopacity="0.0"
     inkscape:pagecheckerboard="0"
     inkscape:deskcolor="#d1d1d1"
     showgrid="false"
     inkscape:zoom="3.6875"
     inkscape:cx="32"
     inkscape:cy="32.135593"
     inkscape:window-width="1432"
     inkscape:window-height="844"
     inkscape:window-x="0"
     inkscape:window-y="0"
     inkscape:window-maximized="1"
     inkscape:current-layer="svg124" />
  <defs
     id="defs119">
    <linearGradient
       id="linear0"
       gradientUnits="userSpaceOnUse"
       x1="0"
       y1="0"
       x2="0"
       y2="1"
       gradientTransform="matrix(64,0,0,64,0,0)">
      <stop
         offset="0"
         style="stop-color:#cff3fe;stop-opacity:1;"
         id="stop114" />
      <stop
         offset="1"
         style="stop-color:#054cff;stop-opacity:1;"
         id="stop116" />
    </linearGradient>
    <filter
       style="color-interpolation-filters:sRGB;"
       inkscape:label="Diffuse Light"
       id="filter1001"
       x="-0.0375"
       y="-0.037499814"
       width="1.075"
       height="1.0749996">
      <feGaussianBlur
         in="SourceGraphic"
         stdDeviation="1"
         result="blur"
         id="feGaussianBlur991" />
      <feDiffuseLighting
         diffuseConstant="1"
         surfaceScale="10"
         lighting-color="rgb(255,255,255)"
         result="diffuse"
         id="feDiffuseLighting995">
        <feDistantLight
           elevation="8"
           azimuth="235"
           id="feDistantLight993" />
      </feDiffuseLighting>
      <feComposite
         in="diffuse"
         in2="diffuse"
         operator="arithmetic"
         k1="1"
         result="composite1"
         id="feComposite997" />
      <feComposite
         in="composite1"
         in2="SourceGraphic"
         k1="1"
         operator="arithmetic"
         k3="1"
         result="composite2"
         id="feComposite999" />
    </filter>
  </defs>
  <g
     id="surface1"
     style="filter:url(#filter1001)">
    <path
       style=" stroke:none;fill-rule:evenodd;fill:url(#linear0);"
       d="M 55.550781 59.441406 C 45.15625 67.707031 28.15625 64.535156 16.050781 51.527344 C 13.074219 48.324219 10.644531 44.796875 8.796875 41.140625 L 3.246094 41.140625 C 1.441406 41.140625 0 39.691406 0 37.90625 L 0 26.097656 C 0 24.3125 1.449219 22.863281 3.246094 22.863281 L 4.457031 22.863281 C 4.640625 16.636719 6.660156 10.910156 10.636719 6.644531 L 10.625 6.652344 C 19.828125 -3.246094 36.328125 -1.871094 49.050781 9.261719 C 49.21875 9.175781 49.410156 9.140625 49.613281 9.140625 L 55.519531 9.140625 C 56.417969 9.140625 57.140625 9.863281 57.140625 10.753906 L 57.140625 16.667969 C 57.140625 17.125 56.949219 17.535156 56.628906 17.816406 C 62.90625 26.96875 65.269531 37.652344 63.3125 46.515625 C 63.746094 46.925781 64 47.515625 64 48.160156 L 64 57.019531 C 64 58.359375 62.910156 59.441406 61.566406 59.441406 Z M 58.621094 45.738281 C 62.363281 37.894531 60.625 27.011719 54.167969 18.28125 L 49.613281 18.28125 C 48.71875 18.28125 48 17.558594 48 16.667969 L 48 11.847656 C 38.457031 4.203125 26.691406 3.636719 19.730469 11.128906 L 19.730469 11.140625 C 16.816406 14.277344 15.214844 18.390625 14.859375 22.863281 L 15.042969 22.863281 C 16.839844 22.863281 18.285156 24.3125 18.285156 26.097656 L 18.285156 37.90625 C 18.285156 38.050781 18.277344 38.191406 18.253906 38.328125 C 19.59375 41.019531 21.378906 43.597656 23.5625 45.941406 C 31.542969 54.535156 42.28125 57.433594 50.285156 53.910156 L 50.285156 48.160156 C 50.285156 46.824219 51.375 45.738281 52.71875 45.738281 Z M 58.621094 45.738281 "
       id="path121" />
  </g>
</svg>
