<?xml version="1.0" encoding="UTF-8" standalone="no"?>
<svg
   width="64px"
   height="64px"
   viewBox="0 0 64 64"
   version="1.1"
   id="svg139"
   sodipodi:docname="mimetype-education.svg"
   inkscape:version="1.2.2 (b0a8486541, 2022-12-01)"
   xmlns:inkscape="http://www.inkscape.org/namespaces/inkscape"
   xmlns:sodipodi="http://sodipodi.sourceforge.net/DTD/sodipodi-0.dtd"
   xmlns="http://www.w3.org/2000/svg"
   xmlns:svg="http://www.w3.org/2000/svg">
  <sodipodi:namedview
     id="namedview141"
     pagecolor="#ffffff"
     bordercolor="#000000"
     borderopacity="0.25"
     inkscape:showpageshadow="2"
     inkscape:pageopacity="0.0"
     inkscape:pagecheckerboard="0"
     inkscape:deskcolor="#d1d1d1"
     showgrid="false"
     inkscape:zoom="3.6875"
     inkscape:cx="32"
     inkscape:cy="32.135593"
     inkscape:window-width="1432"
     inkscape:window-height="844"
     inkscape:window-x="0"
     inkscape:window-y="0"
     inkscape:window-maximized="1"
     inkscape:current-layer="svg139" />
  <defs
     id="defs134">
    <linearGradient
       id="linear0"
       gradientUnits="userSpaceOnUse"
       x1="0"
       y1="0"
       x2="0"
       y2="1"
       gradientTransform="matrix(61.552083,0,0,64,1.223959,0)">
      <stop
         offset="0"
         style="stop-color:#58d2f0;stop-opacity:1;"
         id="stop129" />
      <stop
         offset="1"
         style="stop-color:#1b788f;stop-opacity:1;"
         id="stop131" />
    </linearGradient>
    <filter
       style="color-interpolation-filters:sRGB;"
       inkscape:label="Diffuse Light"
       id="filter1122"
       x="-0.038991975"
       y="-0.0374995"
       width="1.0779839"
       height="1.074999">
      <feGaussianBlur
         in="SourceGraphic"
         stdDeviation="1"
         result="blur"
         id="feGaussianBlur1112" />
      <feDiffuseLighting
         diffuseConstant="1"
         surfaceScale="10"
         lighting-color="rgb(255,255,255)"
         result="diffuse"
         id="feDiffuseLighting1116">
        <feDistantLight
           elevation="8"
           azimuth="235"
           id="feDistantLight1114" />
      </feDiffuseLighting>
      <feComposite
         in="diffuse"
         in2="diffuse"
         operator="arithmetic"
         k1="1"
         result="composite1"
         id="feComposite1118" />
      <feComposite
         in="composite1"
         in2="SourceGraphic"
         k1="1"
         operator="arithmetic"
         k3="1"
         result="composite2"
         id="feComposite1120" />
    </filter>
  </defs>
  <g
     id="surface1"
     style="filter:url(#filter1122)">
    <path
       style=" stroke:none;fill-rule:nonzero;fill:url(#linear0);"
       d="M 32.003906 0 C 31.578125 -0.0117188 31.152344 0.0976562 30.777344 0.308594 L 2.390625 17.535156 C 1.464844 18.125 1.027344 19.25 1.3125 20.308594 C 1.59375 21.386719 2.550781 22.15625 3.621094 22.15625 L 60.386719 22.15625 C 61.699219 22.15625 62.769531 21.058594 62.769531 19.691406 C 62.769531 18.65625 62.175781 17.75 61.3125 17.386719 L 33.160156 0.308594 C 32.8125 0.0976562 32.410156 -0.0117188 32.003906 0 Z M 32.003906 8.234375 C 34.933594 8.238281 37.308594 10.609375 37.3125 13.535156 C 37.308594 16.46875 34.933594 18.839844 32.003906 18.84375 C 29.078125 18.839844 26.703125 16.46875 26.699219 13.535156 C 26.703125 10.609375 29.078125 8.238281 32.003906 8.234375 Z M 3.699219 24.613281 L 3.699219 27.078125 C 3.699219 28.433594 4.808594 29.535156 6.160156 29.535156 L 6.160156 49.230469 L 13.546875 49.230469 L 13.546875 29.535156 C 14.894531 29.535156 16.003906 28.433594 16.003906 27.078125 L 16.003906 24.613281 Z M 18.46875 24.613281 L 18.46875 27.078125 C 18.46875 28.433594 19.574219 29.535156 20.925781 29.535156 L 20.925781 49.230469 L 28.3125 49.230469 L 28.3125 29.535156 C 29.667969 29.535156 30.777344 28.433594 30.777344 27.078125 L 30.777344 24.613281 Z M 33.234375 24.613281 L 33.234375 27.078125 C 33.234375 28.433594 34.34375 29.535156 35.699219 29.535156 L 35.699219 49.230469 L 43.082031 49.230469 L 43.082031 29.535156 C 44.4375 29.535156 45.546875 28.433594 45.546875 27.078125 L 45.546875 24.613281 Z M 48.003906 24.613281 L 48.003906 27.078125 C 48.003906 28.433594 49.113281 29.535156 50.46875 29.535156 L 50.46875 49.230469 L 57.855469 49.230469 L 57.855469 29.535156 C 59.203125 29.535156 60.3125 28.433594 60.3125 27.078125 L 60.3125 24.613281 Z M 6.160156 51.691406 L 6.160156 56.613281 L 3.699219 56.613281 C 2.34375 56.613281 1.238281 57.722656 1.238281 59.078125 L 1.238281 61.535156 C 1.238281 62.890625 2.34375 64 3.699219 64 L 60.3125 64 C 61.667969 64 62.777344 62.890625 62.777344 61.535156 L 62.777344 59.078125 C 62.777344 57.722656 61.667969 56.613281 60.3125 56.613281 L 57.855469 56.613281 L 57.855469 51.691406 Z M 6.160156 51.691406 "
       id="path136" />
  </g>
</svg>
