<?xml version="1.0" encoding="UTF-8" standalone="no"?>
<svg
   width="64px"
   height="64px"
   viewBox="0 0 64 64"
   version="1.1"
   id="svg243"
   sodipodi:docname="mimetype-presentation.svg"
   inkscape:version="1.2.2 (b0a8486541, 2022-12-01)"
   xmlns:inkscape="http://www.inkscape.org/namespaces/inkscape"
   xmlns:sodipodi="http://sodipodi.sourceforge.net/DTD/sodipodi-0.dtd"
   xmlns="http://www.w3.org/2000/svg"
   xmlns:svg="http://www.w3.org/2000/svg">
  <sodipodi:namedview
     id="namedview245"
     pagecolor="#ffffff"
     bordercolor="#000000"
     borderopacity="0.25"
     inkscape:showpageshadow="2"
     inkscape:pageopacity="0.0"
     inkscape:pagecheckerboard="0"
     inkscape:deskcolor="#d1d1d1"
     showgrid="false"
     inkscape:zoom="3.6875"
     inkscape:cx="32"
     inkscape:cy="32.135593"
     inkscape:window-width="1432"
     inkscape:window-height="844"
     inkscape:window-x="0"
     inkscape:window-y="0"
     inkscape:window-maximized="1"
     inkscape:current-layer="svg243" />
  <defs
     id="defs238">
    <linearGradient
       id="linear0"
       gradientUnits="userSpaceOnUse"
       x1="0"
       y1="0"
       x2="0"
       y2="1"
       gradientTransform="matrix(60,0,0,56.15625,0,8)">
      <stop
         offset="0"
         style="stop-color:#cff3fe;stop-opacity:1;"
         id="stop233" />
      <stop
         offset="1"
         style="stop-color:#054cff;stop-opacity:1;"
         id="stop235" />
    </linearGradient>
    <filter
       style="color-interpolation-filters:sRGB;"
       inkscape:label="Diffuse Light"
       id="filter789"
       x="-0.04"
       y="-0.042737277"
       width="1.08"
       height="1.0854746">
      <feGaussianBlur
         in="SourceGraphic"
         stdDeviation="1"
         result="blur"
         id="feGaussianBlur779" />
      <feDiffuseLighting
         diffuseConstant="1"
         surfaceScale="10"
         lighting-color="rgb(255,255,255)"
         result="diffuse"
         id="feDiffuseLighting783">
        <feDistantLight
           elevation="8"
           azimuth="235"
           id="feDistantLight781" />
      </feDiffuseLighting>
      <feComposite
         in="diffuse"
         in2="diffuse"
         operator="arithmetic"
         k1="1"
         result="composite1"
         id="feComposite785" />
      <feComposite
         in="composite1"
         in2="SourceGraphic"
         k1="1"
         operator="arithmetic"
         k3="1"
         result="composite2"
         id="feComposite787" />
    </filter>
  </defs>
  <g
     id="surface1"
     style="filter:url(#filter789)">
    <path
       style=" stroke:none;fill-rule:nonzero;fill:url(#linear0);"
       d="M 0 8 L 0 12 L 4 12 L 4 44.140625 C 4 46.324219 5.816406 48.140625 8 48.140625 L 28 48.140625 L 28 53 L 17.121094 60.375 C 16.078125 60.875 15.714844 62.425781 16.371094 63.375 C 17.027344 64.316406 18.53125 64.417969 19.371094 63.625 L 30 56.375 L 40.628906 63.625 C 41.46875 64.417969 42.980469 64.316406 43.628906 63.375 C 44.285156 62.425781 43.917969 60.875 42.886719 60.375 L 32 53 L 32 48.140625 L 52 48.140625 C 54.183594 48.140625 56 46.324219 56 44.140625 L 56 12 L 60 12 L 60 8 Z M 8 12 L 52 12 L 52 42 C 52 44 50 44 50 44 L 10 44 C 8 44 8 42 8 42 Z M 20 20 C 15.582031 20 12 23.582031 12 28 C 12 32.417969 15.582031 36 20 36 C 24.417969 36 28 32.417969 28 28 L 20 28 Z M 32 20 L 32 24 L 48 24 L 48 20 Z M 32 28 L 32 32 L 44 32 L 44 28 Z M 32 28 "
       id="path240" />
  </g>
</svg>
