<?xml version="1.0" encoding="UTF-8" standalone="no"?>
<svg
   width="64px"
   height="64px"
   viewBox="0 0 64 64"
   version="1.1"
   id="svg476"
   sodipodi:docname="mimetype-key.svg"
   inkscape:version="1.2.2 (b0a8486541, 2022-12-01)"
   xmlns:inkscape="http://www.inkscape.org/namespaces/inkscape"
   xmlns:sodipodi="http://sodipodi.sourceforge.net/DTD/sodipodi-0.dtd"
   xmlns="http://www.w3.org/2000/svg"
   xmlns:svg="http://www.w3.org/2000/svg">
  <sodipodi:namedview
     id="namedview478"
     pagecolor="#ffffff"
     bordercolor="#000000"
     borderopacity="0.25"
     inkscape:showpageshadow="2"
     inkscape:pageopacity="0.0"
     inkscape:pagecheckerboard="0"
     inkscape:deskcolor="#d1d1d1"
     showgrid="false"
     inkscape:zoom="3.6875"
     inkscape:cx="32"
     inkscape:cy="32.135593"
     inkscape:window-width="1432"
     inkscape:window-height="844"
     inkscape:window-x="0"
     inkscape:window-y="0"
     inkscape:window-maximized="1"
     inkscape:current-layer="svg476" />
  <defs
     id="defs471">
    <linearGradient
       id="linear0"
       gradientUnits="userSpaceOnUse"
       x1="0"
       y1="0"
       x2="0"
       y2="1"
       gradientTransform="matrix(64,0,0,59.427083,0,2.286459)">
      <stop
         offset="0"
         style="stop-color:#c5eeed;stop-opacity:1;"
         id="stop466" />
      <stop
         offset="1"
         style="stop-color:#0c7672;stop-opacity:1;"
         id="stop468" />
    </linearGradient>
    <filter
       style="color-interpolation-filters:sRGB;"
       inkscape:label="Diffuse Light"
       id="filter883"
       x="-0.0375"
       y="-0.040383857"
       width="1.075"
       height="1.0807677">
      <feGaussianBlur
         in="SourceGraphic"
         stdDeviation="1"
         result="blur"
         id="feGaussianBlur873" />
      <feDiffuseLighting
         diffuseConstant="1"
         surfaceScale="10"
         lighting-color="rgb(255,255,255)"
         result="diffuse"
         id="feDiffuseLighting877">
        <feDistantLight
           elevation="8"
           azimuth="235"
           id="feDistantLight875" />
      </feDiffuseLighting>
      <feComposite
         in="diffuse"
         in2="diffuse"
         operator="arithmetic"
         k1="1"
         result="composite1"
         id="feComposite879" />
      <feComposite
         in="composite1"
         in2="SourceGraphic"
         k1="1"
         operator="arithmetic"
         k3="1"
         result="composite2"
         id="feComposite881" />
    </filter>
  </defs>
  <g
     id="surface1"
     style="filter:url(#filter883)">
    <path
       style=" stroke:none;fill-rule:nonzero;fill:url(#linear0);"
       d="M 46.859375 2.285156 C 37.390625 2.285156 29.714844 9.410156 29.714844 18.203125 C 29.714844 20.949219 30.46875 23.542969 31.785156 25.796875 C 31.792969 25.800781 31.78125 25.824219 31.785156 25.832031 L 0 55.347656 L 0 61.714844 L 6.859375 61.714844 L 9.140625 59.59375 L 9.140625 55.347656 L 13.714844 55.347656 L 16 53.222656 L 20.574219 53.222656 L 22.859375 51.097656 L 22.859375 46.855469 L 25.140625 44.734375 L 29.714844 44.734375 L 29.714844 40.488281 L 38.640625 32.199219 C 38.652344 32.203125 38.671875 32.191406 38.675781 32.199219 C 41.109375 33.421875 43.902344 34.121094 46.859375 34.121094 C 56.324219 34.121094 64 26.996094 64 18.203125 L 64 18.140625 C 63.96875 9.363281 56.300781 2.285156 46.859375 2.285156 Z M 50.285156 10.777344 C 52.800781 10.777344 54.847656 12.683594 54.859375 15.019531 C 54.859375 17.363281 52.8125 19.261719 50.285156 19.261719 C 47.761719 19.261719 45.714844 17.363281 45.714844 15.019531 C 45.714844 12.671875 47.761719 10.777344 50.285156 10.777344 Z M 50.285156 10.777344 "
       id="path473" />
  </g>
</svg>
