<?xml version="1.0" encoding="UTF-8" standalone="no"?>
<svg
   width="64px"
   height="64px"
   viewBox="0 0 64 64"
   version="1.1"
   id="svg362"
   sodipodi:docname="mimetype-rss.svg"
   inkscape:version="1.2.2 (b0a8486541, 2022-12-01)"
   xmlns:inkscape="http://www.inkscape.org/namespaces/inkscape"
   xmlns:sodipodi="http://sodipodi.sourceforge.net/DTD/sodipodi-0.dtd"
   xmlns="http://www.w3.org/2000/svg"
   xmlns:svg="http://www.w3.org/2000/svg">
  <defs
     id="defs366">
    <filter
       style="color-interpolation-filters:sRGB;"
       inkscape:label="Diffuse Light"
       id="filter576"
       x="-0.0375"
       y="-0.0375"
       width="1.075"
       height="1.075">
      <feGaussianBlur
         in="SourceGraphic"
         stdDeviation="1"
         result="blur"
         id="feGaussianBlur566" />
      <feDiffuseLighting
         diffuseConstant="1"
         surfaceScale="10"
         lighting-color="rgb(255,255,255)"
         result="diffuse"
         id="feDiffuseLighting570">
        <feDistantLight
           elevation="8"
           azimuth="235"
           id="feDistantLight568" />
      </feDiffuseLighting>
      <feComposite
         in="diffuse"
         in2="diffuse"
         operator="arithmetic"
         k1="1"
         result="composite1"
         id="feComposite572" />
      <feComposite
         in="composite1"
         in2="SourceGraphic"
         k1="1"
         operator="arithmetic"
         k3="1"
         result="composite2"
         id="feComposite574" />
    </filter>
  </defs>
  <sodipodi:namedview
     id="namedview364"
     pagecolor="#ffffff"
     bordercolor="#000000"
     borderopacity="0.25"
     inkscape:showpageshadow="2"
     inkscape:pageopacity="0.0"
     inkscape:pagecheckerboard="0"
     inkscape:deskcolor="#d1d1d1"
     showgrid="false"
     inkscape:zoom="3.6875"
     inkscape:cx="32"
     inkscape:cy="32.135593"
     inkscape:window-width="1432"
     inkscape:window-height="844"
     inkscape:window-x="0"
     inkscape:window-y="0"
     inkscape:window-maximized="1"
     inkscape:current-layer="svg362" />
  <g
     id="surface1"
     style="filter:url(#filter576)">
    <path
       style=" stroke:none;fill-rule:nonzero;fill:rgb(57.647061%,58.431375%,59.215689%);fill-opacity:0.96;"
       d="M 0 0 L 0 9.464844 L 4.730469 9.464844 C 32.296875 9.464844 54.535156 31.707031 54.535156 59.269531 L 54.535156 64 L 64 64 L 64 59.269531 C 64 26.59375 37.40625 0 4.730469 0 Z M 0 22.859375 L 0 32.324219 L 4.730469 32.324219 C 8.269531 32.3125 11.78125 33.003906 15.050781 34.355469 C 18.328125 35.703125 21.300781 37.6875 23.808594 40.191406 C 26.3125 42.699219 28.296875 45.671875 29.644531 48.949219 C 30.996094 52.21875 31.6875 55.730469 31.675781 59.269531 L 31.675781 64 L 41.140625 64 L 41.140625 59.269531 C 41.140625 39.214844 24.785156 22.859375 4.730469 22.859375 Z M 9.140625 45.714844 C 4.09375 45.714844 0 49.808594 0 54.855469 C 0 59.90625 4.09375 64 9.140625 64 C 14.191406 64 18.285156 59.90625 18.285156 54.859375 C 18.285156 49.808594 14.191406 45.714844 9.140625 45.714844 Z M 9.140625 45.714844 "
       id="path359" />
  </g>
</svg>
