<?xml version="1.0" encoding="UTF-8" standalone="no"?>
<svg
   width="64px"
   height="64px"
   viewBox="0 0 64 64"
   version="1.1"
   id="svg427"
   sodipodi:docname="mimetype-wolfram-cdf.svg"
   inkscape:version="1.2.2 (b0a8486541, 2022-12-01)"
   xmlns:inkscape="http://www.inkscape.org/namespaces/inkscape"
   xmlns:sodipodi="http://sodipodi.sourceforge.net/DTD/sodipodi-0.dtd"
   xmlns="http://www.w3.org/2000/svg"
   xmlns:svg="http://www.w3.org/2000/svg">
  <sodipodi:namedview
     id="namedview429"
     pagecolor="#ffffff"
     bordercolor="#000000"
     borderopacity="0.25"
     inkscape:showpageshadow="2"
     inkscape:pageopacity="0.0"
     inkscape:pagecheckerboard="0"
     inkscape:deskcolor="#d1d1d1"
     showgrid="false"
     inkscape:zoom="3.6875"
     inkscape:cx="32"
     inkscape:cy="32.135593"
     inkscape:window-width="1432"
     inkscape:window-height="844"
     inkscape:window-x="0"
     inkscape:window-y="0"
     inkscape:window-maximized="1"
     inkscape:current-layer="svg427" />
  <defs
     id="defs422">
    <linearGradient
       id="linear0"
       gradientUnits="userSpaceOnUse"
       x1="0"
       y1="0"
       x2="0"
       y2="1"
       gradientTransform="matrix(59.729167,0,0,64,2.135416,0)">
      <stop
         offset="0"
         style="stop-color:#f8f1d0;stop-opacity:1;"
         id="stop417" />
      <stop
         offset="1"
         style="stop-color:#e18d0f;stop-opacity:1;"
         id="stop419" />
    </linearGradient>
    <filter
       style="color-interpolation-filters:sRGB;"
       inkscape:label="Diffuse Light"
       id="filter1322"
       x="-0.040183124"
       y="-0.0375"
       width="1.0803662"
       height="1.075">
      <feGaussianBlur
         in="SourceGraphic"
         stdDeviation="1"
         result="blur"
         id="feGaussianBlur1312" />
      <feDiffuseLighting
         diffuseConstant="1"
         surfaceScale="10"
         lighting-color="rgb(255,255,255)"
         result="diffuse"
         id="feDiffuseLighting1316">
        <feDistantLight
           elevation="8"
           azimuth="235"
           id="feDistantLight1314" />
      </feDiffuseLighting>
      <feComposite
         in="diffuse"
         in2="diffuse"
         operator="arithmetic"
         k1="1"
         result="composite1"
         id="feComposite1318" />
      <feComposite
         in="composite1"
         in2="SourceGraphic"
         k1="1"
         operator="arithmetic"
         k3="1"
         result="composite2"
         id="feComposite1320" />
    </filter>
  </defs>
  <g
     id="surface1"
     style="filter:url(#filter1322)">
    <path
       style=" stroke:none;fill-rule:nonzero;fill:url(#linear0);"
       d="M 27.691406 0 C 13.316406 0 2.136719 12.105469 2.136719 26.332031 C 2.136719 40.5625 12.234375 51.199219 26.609375 51.199219 C 44.730469 50.027344 48.332031 23.957031 32.527344 27.011719 C 32.332031 27.628906 36.957031 29.417969 37.285156 32.667969 C 37.9375 39.050781 32.890625 42.894531 26.589844 41.683594 C 21.984375 40.796875 16.421875 36.90625 15.34375 33.027344 C 14.34375 29.4375 14.839844 25.136719 15.902344 22.277344 C 20.90625 8.78125 38.574219 5.207031 44.800781 5.375 C 39.925781 1.707031 34.566406 0.00390625 27.691406 0 Z M 37.390625 12.800781 C 19.269531 13.972656 15.667969 40.042969 31.472656 36.988281 C 31.667969 36.371094 27.042969 34.582031 26.714844 31.332031 C 26.0625 24.949219 31.109375 21.105469 37.410156 22.316406 C 42.015625 23.203125 47.578125 27.09375 48.65625 30.972656 C 49.65625 34.5625 49.160156 38.863281 48.097656 41.722656 C 43.09375 55.21875 25.425781 58.792969 19.199219 58.625 C 24.074219 62.292969 29.433594 63.996094 36.308594 64 C 50.683594 64 61.871094 51.894531 61.863281 37.667969 C 61.863281 23.4375 51.765625 12.800781 37.390625 12.800781 Z M 37.390625 12.800781 "
       id="path424" />
  </g>
</svg>
