<?xml version="1.0" encoding="UTF-8" standalone="no"?>
<svg
   width="64px"
   height="64px"
   viewBox="0 0 64 64"
   version="1.1"
   id="svg208"
   sodipodi:docname="mimetype-php.svg"
   inkscape:version="1.2.2 (b0a8486541, 2022-12-01)"
   xmlns:inkscape="http://www.inkscape.org/namespaces/inkscape"
   xmlns:sodipodi="http://sodipodi.sourceforge.net/DTD/sodipodi-0.dtd"
   xmlns="http://www.w3.org/2000/svg"
   xmlns:svg="http://www.w3.org/2000/svg">
  <sodipodi:namedview
     id="namedview210"
     pagecolor="#ffffff"
     bordercolor="#000000"
     borderopacity="0.25"
     inkscape:showpageshadow="2"
     inkscape:pageopacity="0.0"
     inkscape:pagecheckerboard="0"
     inkscape:deskcolor="#d1d1d1"
     showgrid="false"
     inkscape:zoom="3.6875"
     inkscape:cx="32"
     inkscape:cy="32.135593"
     inkscape:window-width="1432"
     inkscape:window-height="844"
     inkscape:window-x="0"
     inkscape:window-y="0"
     inkscape:window-maximized="1"
     inkscape:current-layer="svg208" />
  <defs
     id="defs203">
    <linearGradient
       id="linear0"
       gradientUnits="userSpaceOnUse"
       x1="0"
       y1="0"
       x2="0"
       y2="1"
       gradientTransform="matrix(64,0,0,30.9375,0,16.531251)">
      <stop
         offset="0"
         style="stop-color:#f8c3c3;stop-opacity:1;"
         id="stop198" />
      <stop
         offset="1"
         style="stop-color:#c60606;stop-opacity:1;"
         id="stop200" />
    </linearGradient>
    <filter
       style="color-interpolation-filters:sRGB;"
       inkscape:label="Diffuse Light"
       id="filter845"
       x="-0.0375"
       y="-0.077575758"
       width="1.075"
       height="1.1551515">
      <feGaussianBlur
         in="SourceGraphic"
         stdDeviation="1"
         result="blur"
         id="feGaussianBlur835" />
      <feDiffuseLighting
         diffuseConstant="1"
         surfaceScale="10"
         lighting-color="rgb(255,255,255)"
         result="diffuse"
         id="feDiffuseLighting839">
        <feDistantLight
           elevation="8"
           azimuth="235"
           id="feDistantLight837" />
      </feDiffuseLighting>
      <feComposite
         in="diffuse"
         in2="diffuse"
         operator="arithmetic"
         k1="1"
         result="composite1"
         id="feComposite841" />
      <feComposite
         in="composite1"
         in2="SourceGraphic"
         k1="1"
         operator="arithmetic"
         k3="1"
         result="composite2"
         id="feComposite843" />
    </filter>
  </defs>
  <g
     id="surface1"
     style="filter:url(#filter845)">
    <path
       style=" stroke:none;fill-rule:nonzero;fill:url(#linear0);"
       d="M 16.078125 22.902344 L 4.855469 22.902344 L 0 47.46875 L 5.765625 47.46875 L 6.972656 41.097656 L 12.4375 41.097656 C 17.59375 41.40625 23.355469 37.15625 23.355469 29.875 C 23.355469 25.628906 20.925781 23.203125 16.078125 22.902344 Z M 11.828125 36.550781 L 8.1875 36.550781 L 9.707031 27.453125 L 13.644531 27.453125 C 15.769531 27.453125 17.285156 28.359375 17.285156 30.183594 C 16.984375 35.339844 14.5625 36.25 11.828125 36.550781 Z M 21.535156 41.097656 L 26.386719 16.53125 L 32.152344 16.53125 L 30.9375 22.902344 L 36.394531 22.902344 C 41.25 23.203125 43.074219 25.628906 42.464844 28.660156 L 40.339844 41.097656 L 34.269531 41.097656 L 36.394531 29.875 C 36.699219 28.359375 36.699219 27.453125 34.578125 27.453125 L 30.027344 27.453125 L 27.296875 41.097656 Z M 56.71875 22.902344 L 45.496094 22.902344 L 40.644531 47.46875 L 46.40625 47.46875 L 47.621094 41.097656 L 53.078125 41.097656 C 58.234375 41.40625 64 37.15625 64 29.875 C 64 25.628906 61.574219 23.203125 56.71875 22.902344 Z M 52.472656 36.550781 L 48.832031 36.550781 L 50.355469 27.453125 L 54.292969 27.453125 C 56.417969 27.453125 57.933594 28.359375 57.933594 30.183594 C 57.628906 35.339844 55.203125 36.25 52.472656 36.550781 Z M 52.472656 36.550781 "
       id="path205" />
  </g>
</svg>
