<?xml version="1.0" encoding="UTF-8" standalone="no"?>
<svg
   width="64px"
   height="64px"
   viewBox="0 0 64 64"
   version="1.1"
   id="svg420"
   sodipodi:docname="mimetype-gdnote.svg"
   inkscape:version="1.2.2 (b0a8486541, 2022-12-01)"
   xmlns:inkscape="http://www.inkscape.org/namespaces/inkscape"
   xmlns:sodipodi="http://sodipodi.sourceforge.net/DTD/sodipodi-0.dtd"
   xmlns="http://www.w3.org/2000/svg"
   xmlns:svg="http://www.w3.org/2000/svg">
  <sodipodi:namedview
     id="namedview422"
     pagecolor="#ffffff"
     bordercolor="#000000"
     borderopacity="0.25"
     inkscape:showpageshadow="2"
     inkscape:pageopacity="0.0"
     inkscape:pagecheckerboard="0"
     inkscape:deskcolor="#d1d1d1"
     showgrid="false"
     inkscape:zoom="3.6875"
     inkscape:cx="32"
     inkscape:cy="32.135593"
     inkscape:window-width="1432"
     inkscape:window-height="844"
     inkscape:window-x="0"
     inkscape:window-y="0"
     inkscape:window-maximized="1"
     inkscape:current-layer="svg420" />
  <defs
     id="defs415">
    <linearGradient
       id="linear0"
       gradientUnits="userSpaceOnUse"
       x1="0"
       y1="0"
       x2="0"
       y2="1"
       gradientTransform="matrix(46.932292,0,0,64,8.536459,0)">
      <stop
         offset="0"
         style="stop-color:#58d2f0;stop-opacity:1;"
         id="stop410" />
      <stop
         offset="1"
         style="stop-color:#1b788f;stop-opacity:1;"
         id="stop412" />
    </linearGradient>
    <filter
       style="color-interpolation-filters:sRGB;"
       inkscape:label="Diffuse Light"
       id="filter672"
       x="-0.051137963"
       y="-0.0375"
       width="1.1022759"
       height="1.075">
      <feGaussianBlur
         in="SourceGraphic"
         stdDeviation="1"
         result="blur"
         id="feGaussianBlur662" />
      <feDiffuseLighting
         diffuseConstant="1"
         surfaceScale="10"
         lighting-color="rgb(255,255,255)"
         result="diffuse"
         id="feDiffuseLighting666">
        <feDistantLight
           elevation="8"
           azimuth="235"
           id="feDistantLight664" />
      </feDiffuseLighting>
      <feComposite
         in="diffuse"
         in2="diffuse"
         operator="arithmetic"
         k1="1"
         result="composite1"
         id="feComposite668" />
      <feComposite
         in="composite1"
         in2="SourceGraphic"
         k1="1"
         operator="arithmetic"
         k3="1"
         result="composite2"
         id="feComposite670" />
    </filter>
  </defs>
  <g
     id="surface1"
     style="filter:url(#filter672)">
    <path
       style=" stroke:none;fill-rule:nonzero;fill:url(#linear0);"
       d="M 32.042969 0.00390625 C 24.484375 0.015625 17.09375 3.457031 12.542969 9.84375 C 5.464844 19.8125 8.03125 33.308594 18.128906 40.347656 L 18.128906 61.332031 L 21.59375 61.332031 L 21.59375 64 L 42.449219 64 L 42.449219 61.332031 L 45.875 61.332031 L 45.875 40.347656 C 48.042969 38.828125 49.953125 36.996094 51.464844 34.859375 C 58.6875 24.652344 55.875 10.753906 45.128906 3.84375 C 41.109375 1.261719 36.558594 0 32.015625 0 M 31.984375 4.0625 C 35.683594 4.0625 39.421875 5.082031 42.730469 7.207031 C 51.535156 12.875 53.847656 24.183594 47.902344 32.566406 C 46.527344 34.496094 44.785156 36.183594 42.746094 37.496094 L 42.402344 42.671875 L 21.546875 42.671875 L 21.238281 37.496094 C 12.410156 31.828125 10.109375 20.519531 16.078125 12.136719 C 19.796875 6.894531 25.832031 4.058594 31.984375 4.082031 M 21.558594 45.347656 L 42.410156 45.347656 L 42.410156 50.667969 L 21.558594 50.667969 M 21.558594 53.332031 L 42.410156 53.332031 L 42.410156 57.90625 L 21.558594 57.90625 "
       id="path417" />
  </g>
</svg>
