<?xml version="1.0" encoding="UTF-8" standalone="no"?>
<svg
   width="64px"
   height="64px"
   viewBox="0 0 64 64"
   version="1.1"
   id="svg278"
   sodipodi:docname="mimetype-crystal.svg"
   inkscape:version="1.2.2 (b0a8486541, 2022-12-01)"
   xmlns:inkscape="http://www.inkscape.org/namespaces/inkscape"
   xmlns:sodipodi="http://sodipodi.sourceforge.net/DTD/sodipodi-0.dtd"
   xmlns="http://www.w3.org/2000/svg"
   xmlns:svg="http://www.w3.org/2000/svg">
  <sodipodi:namedview
     id="namedview280"
     pagecolor="#ffffff"
     bordercolor="#000000"
     borderopacity="0.25"
     inkscape:showpageshadow="2"
     inkscape:pageopacity="0.0"
     inkscape:pagecheckerboard="0"
     inkscape:deskcolor="#d1d1d1"
     showgrid="false"
     inkscape:zoom="3.6875"
     inkscape:cx="32"
     inkscape:cy="32.135593"
     inkscape:window-width="1432"
     inkscape:window-height="844"
     inkscape:window-x="0"
     inkscape:window-y="0"
     inkscape:window-maximized="1"
     inkscape:current-layer="svg278" />
  <defs
     id="defs273">
    <linearGradient
       id="linear0"
       gradientUnits="userSpaceOnUse"
       x1="0"
       y1="0"
       x2="0"
       y2="1"
       gradientTransform="matrix(64,0,0,64,0,0)">
      <stop
         offset="0"
         style="stop-color:#cff3fe;stop-opacity:1;"
         id="stop268" />
      <stop
         offset="1"
         style="stop-color:#054cff;stop-opacity:1;"
         id="stop270" />
    </linearGradient>
    <filter
       style="color-interpolation-filters:sRGB;"
       inkscape:label="Diffuse Light"
       id="filter701"
       x="-0.037499855"
       y="-0.0375"
       width="1.0749997"
       height="1.075">
      <feGaussianBlur
         in="SourceGraphic"
         stdDeviation="1"
         result="blur"
         id="feGaussianBlur691" />
      <feDiffuseLighting
         diffuseConstant="1"
         surfaceScale="10"
         lighting-color="rgb(255,255,255)"
         result="diffuse"
         id="feDiffuseLighting695">
        <feDistantLight
           elevation="8"
           azimuth="235"
           id="feDistantLight693" />
      </feDiffuseLighting>
      <feComposite
         in="diffuse"
         in2="diffuse"
         operator="arithmetic"
         k1="1"
         result="composite1"
         id="feComposite697" />
      <feComposite
         in="composite1"
         in2="SourceGraphic"
         k1="1"
         operator="arithmetic"
         k3="1"
         result="composite2"
         id="feComposite699" />
    </filter>
  </defs>
  <g
     id="surface1"
     style="filter:url(#filter701)">
    <path
       style=" stroke:none;fill-rule:evenodd;fill:url(#linear0);"
       d="M 63.964844 40.371094 L 55.527344 8.746094 C 55.527344 8.652344 55.433594 8.558594 55.25 8.464844 L 23.636719 0 C 23.546875 0 23.359375 0 23.265625 0.09375 L 0.09375 23.253906 C 0 23.347656 0 23.441406 0 23.628906 L 8.4375 55.253906 C 8.4375 55.347656 8.527344 55.441406 8.714844 55.535156 L 40.324219 64 C 40.417969 64 40.605469 64 40.691406 63.90625 L 63.871094 40.746094 C 63.964844 40.558594 64.050781 40.464844 63.964844 40.371094 Z M 33 15.535156 L 24.65625 46.605469 C 24.65625 46.699219 24.5625 46.699219 24.472656 46.605469 L 1.855469 23.90625 C 1.761719 23.8125 1.855469 23.8125 1.855469 23.71875 L 32.90625 15.347656 C 32.90625 15.441406 33 15.441406 33 15.535156 Z M 33 15.535156 "
       id="path275" />
  </g>
</svg>
