<?xml version="1.0" encoding="UTF-8" standalone="no"?>
<svg
   width="64px"
   height="64px"
   viewBox="0 0 64 64"
   version="1.1"
   id="svg192"
   sodipodi:docname="mimetype-go.svg"
   inkscape:version="1.2.2 (b0a8486541, 2022-12-01)"
   xmlns:inkscape="http://www.inkscape.org/namespaces/inkscape"
   xmlns:sodipodi="http://sodipodi.sourceforge.net/DTD/sodipodi-0.dtd"
   xmlns="http://www.w3.org/2000/svg"
   xmlns:svg="http://www.w3.org/2000/svg">
  <sodipodi:namedview
     id="namedview194"
     pagecolor="#ffffff"
     bordercolor="#000000"
     borderopacity="0.25"
     inkscape:showpageshadow="2"
     inkscape:pageopacity="0.0"
     inkscape:pagecheckerboard="0"
     inkscape:deskcolor="#d1d1d1"
     showgrid="false"
     inkscape:zoom="3.6875"
     inkscape:cx="32"
     inkscape:cy="32.135593"
     inkscape:window-width="1432"
     inkscape:window-height="844"
     inkscape:window-x="0"
     inkscape:window-y="0"
     inkscape:window-maximized="1"
     inkscape:current-layer="svg192" />
  <defs
     id="defs179">
    <linearGradient
       id="linear0"
       gradientUnits="userSpaceOnUse"
       x1="0"
       y1="0"
       x2="0"
       y2="1"
       gradientTransform="matrix(27.427083,0,0,27.427083,0,4.572916)">
      <stop
         offset="0"
         style="stop-color:#f8f1d0;stop-opacity:1;"
         id="stop154" />
      <stop
         offset="1"
         style="stop-color:#e18d0f;stop-opacity:1;"
         id="stop156" />
    </linearGradient>
    <linearGradient
       id="linear1"
       gradientUnits="userSpaceOnUse"
       x1="0"
       y1="0"
       x2="0"
       y2="1"
       gradientTransform="matrix(27.427083,0,0,27.427083,36.572917,4.572917)">
      <stop
         offset="0"
         style="stop-color:#f8f1d0;stop-opacity:1;"
         id="stop159" />
      <stop
         offset="1"
         style="stop-color:#e18d0f;stop-opacity:1;"
         id="stop161" />
    </linearGradient>
    <linearGradient
       id="linear2"
       gradientUnits="userSpaceOnUse"
       x1="0"
       y1="0"
       x2="0"
       y2="1"
       gradientTransform="matrix(6.859374,0,0,16,25.140625,43.427083)">
      <stop
         offset="0"
         style="stop-color:#f8f1d0;stop-opacity:1;"
         id="stop164" />
      <stop
         offset="1"
         style="stop-color:#e18d0f;stop-opacity:1;"
         id="stop166" />
    </linearGradient>
    <linearGradient
       id="linear3"
       gradientUnits="userSpaceOnUse"
       x1="0"
       y1="0"
       x2="0"
       y2="1"
       gradientTransform="matrix(6.859374,0,0,16,32,43.427083)">
      <stop
         offset="0"
         style="stop-color:#f8f1d0;stop-opacity:1;"
         id="stop169" />
      <stop
         offset="1"
         style="stop-color:#e18d0f;stop-opacity:1;"
         id="stop171" />
    </linearGradient>
    <linearGradient
       id="linear4"
       gradientUnits="userSpaceOnUse"
       x1="0"
       y1="0"
       x2="0"
       y2="1"
       gradientTransform="matrix(27.427083,0,0,16,18.286458,32)">
      <stop
         offset="0"
         style="stop-color:#f8f1d0;stop-opacity:1;"
         id="stop174" />
      <stop
         offset="1"
         style="stop-color:#e18d0f;stop-opacity:1;"
         id="stop176" />
    </linearGradient>
    <filter
       style="color-interpolation-filters:sRGB;"
       inkscape:label="Diffuse Light"
       id="filter1300"
       x="-0.0375"
       y="-0.043754451"
       width="1.075"
       height="1.0875089">
      <feGaussianBlur
         in="SourceGraphic"
         stdDeviation="1"
         result="blur"
         id="feGaussianBlur1290" />
      <feDiffuseLighting
         diffuseConstant="1"
         surfaceScale="10"
         lighting-color="rgb(255,255,255)"
         result="diffuse"
         id="feDiffuseLighting1294">
        <feDistantLight
           elevation="8"
           azimuth="235"
           id="feDistantLight1292" />
      </feDiffuseLighting>
      <feComposite
         in="diffuse"
         in2="diffuse"
         operator="arithmetic"
         k1="1"
         result="composite1"
         id="feComposite1296" />
      <feComposite
         in="composite1"
         in2="SourceGraphic"
         k1="1"
         operator="arithmetic"
         k3="1"
         result="composite2"
         id="feComposite1298" />
    </filter>
  </defs>
  <g
     id="surface1"
     style="filter:url(#filter1300)">
    <path
       style=" stroke:none;fill-rule:nonzero;fill:url(#linear0);"
       d="M 13.714844 4.574219 C 6.140625 4.574219 0 10.707031 0 18.285156 C 0 25.859375 6.140625 32 13.714844 32 C 21.292969 32 27.425781 25.859375 27.425781 18.285156 C 27.425781 10.707031 21.292969 4.574219 13.714844 4.574219 Z M 9.140625 13.714844 C 11.667969 13.714844 13.714844 15.761719 13.714844 18.285156 C 13.714844 20.8125 11.667969 22.859375 9.140625 22.859375 C 6.613281 22.859375 4.574219 20.8125 4.574219 18.285156 C 4.574219 15.761719 6.613281 13.714844 9.140625 13.714844 Z M 9.140625 13.714844 "
       id="path181" />
    <path
       style=" stroke:none;fill-rule:nonzero;fill:url(#linear1);"
       d="M 50.285156 4.574219 C 42.707031 4.574219 36.574219 10.707031 36.574219 18.285156 C 36.574219 25.859375 42.707031 32 50.285156 32 C 57.859375 32 64 25.859375 64 18.285156 C 64 10.707031 57.859375 4.574219 50.285156 4.574219 Z M 45.714844 13.714844 C 48.238281 13.714844 50.285156 15.761719 50.285156 18.285156 C 50.285156 20.8125 48.238281 22.859375 45.714844 22.859375 C 43.1875 22.859375 41.140625 20.8125 41.140625 18.285156 C 41.140625 15.761719 43.1875 13.714844 45.714844 13.714844 Z M 45.714844 13.714844 "
       id="path183" />
    <path
       style=" stroke:none;fill-rule:nonzero;fill:url(#linear2);"
       d="M 28.574219 43.425781 C 30.464844 43.425781 32 44.964844 32 46.859375 L 32 56 C 32 57.890625 30.464844 59.425781 28.574219 59.425781 C 26.675781 59.425781 25.140625 57.890625 25.140625 56 L 25.140625 46.859375 C 25.140625 44.964844 26.675781 43.425781 28.574219 43.425781 Z M 28.574219 43.425781 "
       id="path185" />
    <path
       style=" stroke:none;fill-rule:nonzero;fill:url(#linear3);"
       d="M 35.425781 43.425781 C 37.324219 43.425781 38.859375 44.964844 38.859375 46.859375 L 38.859375 56 C 38.859375 57.890625 37.324219 59.425781 35.425781 59.425781 C 33.535156 59.425781 32 57.890625 32 56 L 32 46.859375 C 32 44.964844 33.535156 43.425781 35.425781 43.425781 Z M 35.425781 43.425781 "
       id="path187" />
    <path
       style=" stroke:none;fill-rule:nonzero;fill:url(#linear4);"
       d="M 32 32 C 28.214844 32 25.140625 34.046875 25.140625 36.574219 L 38.859375 36.574219 C 38.859375 34.046875 35.785156 32 32 32 Z M 38.859375 36.574219 C 38.859375 39.09375 35.785156 41.140625 32 41.140625 C 28.214844 41.140625 25.140625 39.09375 25.140625 36.574219 L 24 36.574219 C 20.824219 36.574219 18.285156 39.128906 18.285156 42.285156 C 18.285156 45.453125 20.824219 48 24 48 L 40 48 C 43.167969 48 45.714844 45.453125 45.714844 42.285156 C 45.714844 39.128906 43.167969 36.574219 40 36.574219 Z M 38.859375 36.574219 "
       id="path189" />
  </g>
</svg>
