<?xml version="1.0" encoding="UTF-8" standalone="no"?>
<svg
   width="64px"
   height="64px"
   viewBox="0 0 64 64"
   version="1.1"
   id="svg541"
   sodipodi:docname="mimetype-mail.svg"
   inkscape:version="1.2.2 (b0a8486541, 2022-12-01)"
   xmlns:inkscape="http://www.inkscape.org/namespaces/inkscape"
   xmlns:sodipodi="http://sodipodi.sourceforge.net/DTD/sodipodi-0.dtd"
   xmlns="http://www.w3.org/2000/svg"
   xmlns:svg="http://www.w3.org/2000/svg">
  <defs
     id="defs545">
    <filter
       style="color-interpolation-filters:sRGB;"
       inkscape:label="Diffuse Light"
       id="filter755"
       x="-0.041665537"
       y="-0.0375"
       width="1.0833311"
       height="1.075">
      <feGaussianBlur
         in="SourceGraphic"
         stdDeviation="1"
         result="blur"
         id="feGaussianBlur745" />
      <feDiffuseLighting
         diffuseConstant="1"
         surfaceScale="10"
         lighting-color="rgb(255,255,255)"
         result="diffuse"
         id="feDiffuseLighting749">
        <feDistantLight
           elevation="8"
           azimuth="235"
           id="feDistantLight747" />
      </feDiffuseLighting>
      <feComposite
         in="diffuse"
         in2="diffuse"
         operator="arithmetic"
         k1="1"
         result="composite1"
         id="feComposite751" />
      <feComposite
         in="composite1"
         in2="SourceGraphic"
         k1="1"
         operator="arithmetic"
         k3="1"
         result="composite2"
         id="feComposite753" />
    </filter>
  </defs>
  <sodipodi:namedview
     id="namedview543"
     pagecolor="#ffffff"
     bordercolor="#000000"
     borderopacity="0.25"
     inkscape:showpageshadow="2"
     inkscape:pageopacity="0.0"
     inkscape:pagecheckerboard="0"
     inkscape:deskcolor="#d1d1d1"
     showgrid="false"
     inkscape:zoom="3.6875"
     inkscape:cx="32"
     inkscape:cy="32.135593"
     inkscape:window-width="1432"
     inkscape:window-height="844"
     inkscape:window-x="0"
     inkscape:window-y="0"
     inkscape:window-maximized="1"
     inkscape:current-layer="svg541" />
  <g
     id="surface1"
     style="filter:url(#filter755)">
    <path
       style=" stroke:none;fill-rule:nonzero;fill:rgb(57.647061%,58.431375%,59.215689%);fill-opacity:1;"
       d="M 7.421875 26.75 L 3.953125 31.277344 L 9.65625 34.417969 L 9.65625 10.8125 L 54.34375 10.8125 L 54.34375 34.417969 L 60.046875 31.277344 L 56.578125 26.75 L 56.578125 9.671875 C 56.578125 9.050781 56.066406 8.535156 55.457031 8.535156 L 42.652344 8.535156 L 38.671875 3.328125 C 37.917969 2.355469 37.027344 1.59375 36.050781 1.050781 C 35.21875 0.578125 34.300781 0.269531 33.390625 0.125 C 32.921875 0.0429688 32.457031 0 31.988281 0 C 31.828125 0 31.6875 0 31.519531 0.0195312 C 30.265625 0.0820312 29.035156 0.4375 27.925781 1.050781 C 27.785156 1.136719 27.644531 1.21875 27.519531 1.300781 C 27.261719 1.46875 26.996094 1.671875 26.730469 1.878906 C 26.34375 2.191406 25.980469 2.542969 25.65625 2.9375 C 25.53125 3.058594 25.433594 3.203125 25.328125 3.328125 L 21.347656 8.535156 L 8.542969 8.535156 C 7.933594 8.535156 7.421875 9.050781 7.421875 9.671875 Z M 60.800781 33.691406 L 34.566406 48.144531 L 60.800781 62.59375 Z M 29.433594 48.144531 L 3.199219 33.691406 L 3.199219 62.59375 Z M 31.988281 49.550781 L 5.761719 64 L 58.238281 64 Z M 31.988281 49.550781 "
       id="path536" />
    <path
       style=" stroke:none;fill-rule:nonzero;fill:rgb(57.647061%,58.431375%,59.215689%);fill-opacity:1;"
       d="M 17.433594 17.65625 L 46.324219 17.65625 C 46.832031 17.65625 47.238281 17.238281 47.238281 16.722656 C 47.238281 16.207031 46.832031 15.792969 46.324219 15.792969 L 17.433594 15.792969 C 16.925781 15.792969 16.519531 16.207031 16.519531 16.722656 C 16.519531 17.238281 16.941406 17.65625 17.433594 17.65625 Z M 17.433594 23.980469 L 46.324219 23.980469 C 46.832031 23.980469 47.238281 23.566406 47.238281 23.046875 C 47.238281 22.53125 46.832031 22.121094 46.324219 22.121094 L 17.433594 22.121094 C 16.925781 22.121094 16.519531 22.53125 16.519531 23.046875 C 16.519531 23.566406 16.941406 23.980469 17.433594 23.980469 Z M 17.433594 30.328125 L 46.324219 30.328125 C 46.832031 30.328125 47.238281 29.910156 47.238281 29.394531 C 47.238281 28.878906 46.832031 28.464844 46.324219 28.464844 L 17.433594 28.464844 C 16.925781 28.464844 16.519531 28.878906 16.519531 29.394531 C 16.519531 29.910156 16.941406 30.328125 17.433594 30.328125 Z M 17.433594 36.671875 L 46.324219 36.671875 C 46.832031 36.671875 47.238281 36.261719 47.238281 35.738281 C 47.238281 35.222656 46.832031 34.8125 46.324219 34.8125 L 17.433594 34.8125 C 16.925781 34.8125 16.519531 35.222656 16.519531 35.738281 C 16.519531 36.261719 16.941406 36.671875 17.433594 36.671875 Z M 17.433594 36.671875 "
       id="path538" />
  </g>
</svg>
