<?xml version="1.0" encoding="UTF-8" standalone="no"?>
<svg
   width="64px"
   height="64px"
   viewBox="0 0 64 64"
   version="1.1"
   id="svg315"
   sodipodi:docname="mimetype-url.svg"
   inkscape:version="1.2.2 (b0a8486541, 2022-12-01)"
   xmlns:inkscape="http://www.inkscape.org/namespaces/inkscape"
   xmlns:sodipodi="http://sodipodi.sourceforge.net/DTD/sodipodi-0.dtd"
   xmlns="http://www.w3.org/2000/svg"
   xmlns:svg="http://www.w3.org/2000/svg">
  <sodipodi:namedview
     id="namedview317"
     pagecolor="#ffffff"
     bordercolor="#000000"
     borderopacity="0.25"
     inkscape:showpageshadow="2"
     inkscape:pageopacity="0.0"
     inkscape:pagecheckerboard="0"
     inkscape:deskcolor="#d1d1d1"
     showgrid="false"
     inkscape:zoom="3.6875"
     inkscape:cx="32"
     inkscape:cy="32.135593"
     inkscape:window-width="1432"
     inkscape:window-height="844"
     inkscape:window-x="0"
     inkscape:window-y="0"
     inkscape:window-maximized="1"
     inkscape:current-layer="svg315" />
  <defs
     id="defs310">
    <linearGradient
       id="linear0"
       gradientUnits="userSpaceOnUse"
       x1="0"
       y1="0"
       x2="0"
       y2="1"
       gradientTransform="matrix(64,0,0,64,0,0)">
      <stop
         offset="0"
         style="stop-color:#f8f1d0;stop-opacity:1;"
         id="stop305" />
      <stop
         offset="1"
         style="stop-color:#e18d0f;stop-opacity:1;"
         id="stop307" />
    </linearGradient>
    <filter
       style="color-interpolation-filters:sRGB;"
       inkscape:label="Diffuse Light"
       id="filter1530"
       x="-0.037500572"
       y="-0.037497711"
       width="1.0750011"
       height="1.0749954">
      <feGaussianBlur
         in="SourceGraphic"
         stdDeviation="1"
         result="blur"
         id="feGaussianBlur1520" />
      <feDiffuseLighting
         diffuseConstant="1"
         surfaceScale="10"
         lighting-color="rgb(255,255,255)"
         result="diffuse"
         id="feDiffuseLighting1524">
        <feDistantLight
           elevation="8"
           azimuth="235"
           id="feDistantLight1522" />
      </feDiffuseLighting>
      <feComposite
         in="diffuse"
         in2="diffuse"
         operator="arithmetic"
         k1="1"
         result="composite1"
         id="feComposite1526" />
      <feComposite
         in="composite1"
         in2="SourceGraphic"
         k1="1"
         operator="arithmetic"
         k3="1"
         result="composite2"
         id="feComposite1528" />
    </filter>
  </defs>
  <g
     id="surface1"
     style="filter:url(#filter1530)">
    <path
       style=" stroke:none;fill-rule:nonzero;fill:url(#linear0);"
       d="M 45.425781 18.578125 C 46.984375 20.136719 46.984375 22.65625 45.425781 24.214844 L 24.207031 45.425781 C 22.65625 46.984375 20.128906 46.984375 18.578125 45.425781 C 17.019531 43.871094 17.019531 41.347656 18.578125 39.792969 L 39.792969 18.578125 C 41.347656 17.019531 43.871094 17.019531 45.425781 18.578125 Z M 21.058594 54.277344 C 17.933594 57.394531 12.855469 57.394531 9.730469 54.277344 C 6.605469 51.152344 6.605469 46.074219 9.730469 42.949219 L 24.765625 27.925781 C 19.71875 26.699219 14.171875 28.058594 10.234375 32 L 4.511719 37.722656 C -1.503906 43.734375 -1.503906 53.480469 4.511719 59.496094 C 10.519531 65.503906 20.265625 65.503906 26.277344 59.496094 L 32.003906 53.765625 C 35.941406 49.828125 37.296875 44.285156 36.078125 39.238281 L 21.058594 54.269531 Z M 37.730469 4.503906 L 32 10.234375 C 28.0625 14.171875 26.699219 19.707031 27.921875 24.753906 L 42.949219 9.730469 C 46.066406 6.605469 51.152344 6.605469 54.277344 9.730469 C 57.394531 12.847656 57.394531 17.933594 54.277344 21.050781 L 39.246094 36.082031 C 44.292969 37.300781 49.828125 35.941406 53.765625 32 L 59.496094 26.277344 C 65.5 20.265625 65.5 10.519531 59.496094 4.503906 C 53.480469 -1.503906 43.734375 -1.503906 37.722656 4.503906 Z M 37.730469 4.503906 "
       id="path312" />
  </g>
</svg>
