<svg width="64px" height="64px" viewBox="0 0 64 64" version="1.1" id="svg12" inkscape:version="1.2.2 (b0a8486541, 2022-12-01)" xmlns:inkscape="http://www.inkscape.org/namespaces/inkscape" xmlns:sodipodi="http://sodipodi.sourceforge.net/DTD/sodipodi-0.dtd" xmlns="http://www.w3.org/2000/svg" xmlns:svg="http://www.w3.org/2000/svg"> <sodipodi:namedview id="namedview14" pagecolor="#ffffff" bordercolor="#000000" borderopacity="0.25" inkscape:showpageshadow="2" inkscape:pageopacity="0.0" inkscape:pagecheckerboard="0" inkscape:deskcolor="#d1d1d1" showgrid="false" inkscape:zoom="3.6875" inkscape:cx="32" inkscape:cy="32.135593" inkscape:window-width="1432" inkscape:window-height="844" inkscape:window-x="0" inkscape:window-y="0" inkscape:window-maximized="1" inkscape:current-layer="svg12" /> <defs id="defs7"> <linearGradient id="linear0" gradientUnits="userSpaceOnUse" x1="0" y1="0" x2="0" y2="1" gradientTransform="matrix(64,0,0,56,0,4)"> <stop offset="0" style="stop-color:#018080;stop-opacity:1;" id="stop2" /> <stop offset="1" style="stop-color:#004a4a;stop-opacity:1;" id="stop4" /> </linearGradient> <filter style="color-interpolation-filters:sRGB;" inkscape:label="Diffuse Light" id="filter184" x="-0.11210663" y="-0.12812186" width="1.2242133" height="1.2562437"> <feGaussianBlur in="SourceGraphic" stdDeviation="2.98951" result="blur" id="feGaussianBlur174" /> <feDiffuseLighting diffuseConstant="1" surfaceScale="10" lighting-color="rgb(255,255,255)" result="diffuse" id="feDiffuseLighting178"> <feDistantLight elevation="38" azimuth="235" id="feDistantLight176" /> </feDiffuseLighting> <feComposite in="diffuse" in2="diffuse" operator="arithmetic" k1="1" result="composite1" id="feComposite180" /> <feComposite in="composite1" in2="SourceGraphic" k1="1" operator="arithmetic" k3="1" result="composite2" id="feComposite182" /> </filter> </defs> <g id="surface1" style="filter:url(#filter184)">
<path style=" stroke:none;fill-rule:nonzero;fill:url(#linear0);" d="M 9.78125 12 C 7.699219 12 6.019531 12.191406 4.5625 12.765625 C 3.109375 13.339844 1.917969 14.40625 1.234375 15.703125 C -0.125 18.292969 0.0429688 21.3125 0 25.425781 L 0 38.574219 C 0.046875 42.6875 -0.125 45.707031 1.234375 48.296875 C 1.910156 49.59375 3.109375 50.660156 4.5625 51.234375 C 6.019531 51.808594 7.699219 52 9.78125 52 L 22.230469 52 C 24.308594 52 25.988281 51.808594 27.441406 51.234375 C 28.902344 50.660156 30.082031 49.59375 30.765625 48.296875 C 31.949219 46.042969 31.953125 43.332031 31.96875 39.988281 L 39.75 39.972656 L 42 38 L 44 40 L 46 38 L 48 40 L 50 38 L 54 42 L 64 32 L 56 24 L 31.96875 24.011719 C 31.96875 20.667969 31.925781 17.957031 30.765625 15.703125 C 30.089844 14.40625 28.890625 13.339844 27.4375 12.765625 C 25.980469 12.191406 24.308594 12 22.230469 12 Z M 9.78125 16 L 22.230469 16 C 24.03125 16 25.25 16.207031 25.96875 16.488281 C 26.6875 16.777344 26.941406 17.027344 27.230469 17.5625 C 27.785156 18.636719 27.953125 21.339844 28 25.472656 L 28 28.011719 L 54.34375 28 L 58.34375 32 L 54 36.34375 L 50 32.34375 L 48 34.34375 L 46 32.34375 L 44 34.34375 L 42.183594 32.527344 L 38.238281 35.972656 L 28 36 L 28 38.527344 C 27.957031 42.660156 27.785156 45.363281 27.230469 46.4375 C 26.949219 46.972656 26.6875 47.222656 25.96875 47.511719 C 25.25 47.792969 24.03125 48 22.230469 48 L 9.78125 48 C 7.972656 48 6.75 47.792969 6.03125 47.511719 C 5.3125 47.222656 5.0625 46.972656 4.78125 46.4375 C 4.21875 45.371094 4.046875 42.660156 4 38.546875 L 4 25.453125 C 4.046875 21.339844 4.21875 18.628906 4.78125 17.5625 C 5.0625 17.027344 5.3125 16.777344 6.03125 16.488281 C 6.75 16.207031 7.972656 16 9.78125 16 Z M 12 28 C 9.792969 28 8 29.792969 8 32 C 8 34.207031 9.792969 36 12 36 C 14.207031 36 16 34.207031 16 32 C 16 29.792969 14.207031 28 12 28 Z M 12 28 "/>
</g>
</svg>
