<svg width="64px" height="64px" viewBox="0 0 64 64" version="1.1" id="svg12" inkscape:version="1.2.2 (b0a8486541, 2022-12-01)" xmlns:inkscape="http://www.inkscape.org/namespaces/inkscape" xmlns:sodipodi="http://sodipodi.sourceforge.net/DTD/sodipodi-0.dtd" xmlns="http://www.w3.org/2000/svg" xmlns:svg="http://www.w3.org/2000/svg"> <sodipodi:namedview id="namedview14" pagecolor="#ffffff" bordercolor="#000000" borderopacity="0.25" inkscape:showpageshadow="2" inkscape:pageopacity="0.0" inkscape:pagecheckerboard="0" inkscape:deskcolor="#d1d1d1" showgrid="false" inkscape:zoom="3.6875" inkscape:cx="32" inkscape:cy="32.135593" inkscape:window-width="1432" inkscape:window-height="844" inkscape:window-x="0" inkscape:window-y="0" inkscape:window-maximized="1" inkscape:current-layer="svg12" /> <defs id="defs7"> <linearGradient id="linear0" gradientUnits="userSpaceOnUse" x1="0" y1="0" x2="0" y2="1" gradientTransform="matrix(64,0,0,56,0,4)"> <stop offset="0" style="stop-color:#018080;stop-opacity:1;" id="stop2" /> <stop offset="1" style="stop-color:#004a4a;stop-opacity:1;" id="stop4" /> </linearGradient> <filter style="color-interpolation-filters:sRGB;" inkscape:label="Diffuse Light" id="filter184" x="-0.11210663" y="-0.12812186" width="1.2242133" height="1.2562437"> <feGaussianBlur in="SourceGraphic" stdDeviation="2.98951" result="blur" id="feGaussianBlur174" /> <feDiffuseLighting diffuseConstant="1" surfaceScale="10" lighting-color="rgb(255,255,255)" result="diffuse" id="feDiffuseLighting178"> <feDistantLight elevation="38" azimuth="235" id="feDistantLight176" /> </feDiffuseLighting> <feComposite in="diffuse" in2="diffuse" operator="arithmetic" k1="1" result="composite1" id="feComposite180" /> <feComposite in="composite1" in2="SourceGraphic" k1="1" operator="arithmetic" k3="1" result="composite2" id="feComposite182" /> </filter> </defs> <g id="surface1" style="filter:url(#filter184)">
<path style=" stroke:none;fill-rule:nonzero;fill:url(#linear0);" d="M 16.191406 9.527344 C 15.128906 9.546875 14.09375 9.832031 13.171875 10.347656 C 9.28125 12.402344 5.699219 19.125 3.753906 27.84375 C 2.09375 35.25 1.488281 45.375 2.472656 49.449219 C 3.339844 52.953125 4.828125 54.5 7.472656 54.5 C 11.394531 54.433594 16.324219 50.0625 19.449219 44.167969 C 21.707031 40.90625 26.949219 39.421875 32 39.582031 C 37.046875 39.40625 42.292969 40.90625 44.550781 44.167969 C 47.675781 50.0625 52.605469 54.433594 56.527344 54.5 C 59.171875 54.5 60.660156 52.953125 61.527344 49.449219 C 62.511719 45.375 61.90625 35.25 60.25 27.84375 C 58.296875 19.125 54.71875 12.402344 50.832031 10.347656 C 48.691406 9.199219 46.933594 9.234375 45.371094 10.347656 C 43.390625 11.761719 39.265625 13.277344 32 13.28125 C 24.734375 13.285156 20.609375 11.761719 18.628906 10.347656 C 17.933594 9.808594 17.078125 9.519531 16.191406 9.527344 Z M 17.125 20.796875 L 20.84375 20.796875 L 20.84375 24.558594 L 24.5625 24.558594 L 24.5625 28.3125 L 20.84375 28.3125 L 20.84375 32.074219 L 17.125 32.074219 L 17.125 28.3125 L 13.40625 28.3125 L 13.40625 24.558594 L 17.125 24.558594 Z M 45.019531 20.796875 C 46.046875 20.796875 46.878906 21.640625 46.878906 22.675781 C 46.878906 23.714844 46.046875 24.558594 45.019531 24.558594 C 44.527344 24.550781 44.046875 24.355469 43.699219 24 C 43.355469 23.644531 43.15625 23.171875 43.160156 22.675781 C 43.160156 21.640625 43.988281 20.796875 45.019531 20.796875 Z M 41.300781 24.558594 C 42.328125 24.558594 43.160156 25.394531 43.160156 26.433594 C 43.160156 27.472656 42.328125 28.3125 41.300781 28.3125 C 40.800781 28.3125 40.328125 28.113281 39.980469 27.761719 C 39.628906 27.40625 39.4375 26.933594 39.4375 26.433594 C 39.4375 25.394531 40.269531 24.558594 41.300781 24.558594 Z M 48.738281 24.558594 C 49.765625 24.558594 50.597656 25.394531 50.597656 26.433594 C 50.597656 27.472656 49.765625 28.3125 48.738281 28.3125 C 48.246094 28.3125 47.765625 28.113281 47.421875 27.761719 C 47.074219 27.40625 46.875 26.933594 46.878906 26.433594 C 46.878906 25.394531 47.714844 24.558594 48.738281 24.558594 Z M 45.019531 28.3125 C 46.046875 28.3125 46.878906 29.15625 46.878906 30.191406 C 46.878906 31.230469 46.046875 32.074219 45.019531 32.074219 C 44.527344 32.066406 44.046875 31.871094 43.699219 31.515625 C 43.355469 31.160156 43.15625 30.6875 43.160156 30.191406 C 43.160156 29.15625 43.988281 28.3125 45.019531 28.3125 Z M 45.019531 28.3125 "/>
</g>
</svg>
