<svg width="64px" height="64px" viewBox="0 0 64 64" version="1.1" id="svg12" inkscape:version="1.2.2 (b0a8486541, 2022-12-01)" xmlns:inkscape="http://www.inkscape.org/namespaces/inkscape" xmlns:sodipodi="http://sodipodi.sourceforge.net/DTD/sodipodi-0.dtd" xmlns="http://www.w3.org/2000/svg" xmlns:svg="http://www.w3.org/2000/svg"> <sodipodi:namedview id="namedview14" pagecolor="#ffffff" bordercolor="#000000" borderopacity="0.25" inkscape:showpageshadow="2" inkscape:pageopacity="0.0" inkscape:pagecheckerboard="0" inkscape:deskcolor="#d1d1d1" showgrid="false" inkscape:zoom="3.6875" inkscape:cx="32" inkscape:cy="32.135593" inkscape:window-width="1432" inkscape:window-height="844" inkscape:window-x="0" inkscape:window-y="0" inkscape:window-maximized="1" inkscape:current-layer="svg12" /> <defs id="defs7"> <linearGradient id="linear0" gradientUnits="userSpaceOnUse" x1="0" y1="0" x2="0" y2="1" gradientTransform="matrix(64,0,0,56,0,4)"> <stop offset="0" style="stop-color:#018080;stop-opacity:1;" id="stop2" /> <stop offset="1" style="stop-color:#004a4a;stop-opacity:1;" id="stop4" /> </linearGradient> <filter style="color-interpolation-filters:sRGB;" inkscape:label="Diffuse Light" id="filter184" x="-0.11210663" y="-0.12812186" width="1.2242133" height="1.2562437"> <feGaussianBlur in="SourceGraphic" stdDeviation="2.98951" result="blur" id="feGaussianBlur174" /> <feDiffuseLighting diffuseConstant="1" surfaceScale="10" lighting-color="rgb(255,255,255)" result="diffuse" id="feDiffuseLighting178"> <feDistantLight elevation="38" azimuth="235" id="feDistantLight176" /> </feDiffuseLighting> <feComposite in="diffuse" in2="diffuse" operator="arithmetic" k1="1" result="composite1" id="feComposite180" /> <feComposite in="composite1" in2="SourceGraphic" k1="1" operator="arithmetic" k3="1" result="composite2" id="feComposite182" /> </filter> </defs> <g id="surface1" style="filter:url(#filter184)">
<path style=" stroke:none;fill-rule:nonzero;fill:url(#linear0);" d="M 32 0 C 14.328125 0 0 14.328125 0 32 C 0 49.671875 14.328125 64 32 64 C 49.671875 64 64 49.671875 64 32 C 64 14.328125 49.671875 0 32 0 Z M 48.613281 43.316406 C 48.613281 43.863281 48.167969 44.308594 47.621094 44.308594 L 43.4375 44.308594 C 42.890625 44.308594 42.449219 43.863281 42.449219 43.316406 L 42.449219 30.4375 C 42.449219 30.339844 42.324219 30.285156 42.234375 30.355469 L 33.378906 39.207031 C 32.621094 39.96875 31.363281 39.96875 30.597656 39.207031 L 21.75 30.355469 C 21.675781 30.285156 21.535156 30.339844 21.535156 30.4375 L 21.535156 43.316406 C 21.535156 43.863281 21.09375 44.308594 20.542969 44.308594 L 16.363281 44.308594 C 15.816406 44.308594 15.371094 43.863281 15.371094 43.316406 L 15.371094 20.683594 C 15.371094 20.136719 15.816406 19.691406 16.363281 19.691406 L 19.234375 19.691406 C 19.746094 19.691406 20.261719 19.90625 20.628906 20.277344 L 31.644531 31.292969 C 31.839844 31.488281 32.140625 31.488281 32.339844 31.292969 L 43.355469 20.277344 C 43.722656 19.90625 44.21875 19.691406 44.75 19.691406 L 47.621094 19.691406 C 48.167969 19.691406 48.613281 20.136719 48.613281 20.683594 Z M 48.613281 43.316406 "/>
</g>
</svg>
