<svg xmlns="http://www.w3.org/2000/svg" xmlns:xlink="http://www.w3.org/1999/xlink" width="22" height="22" viewBox="0 0 22 22" version="1.1">
<g id="surface1">
<path style=" stroke:none;fill-rule:evenodd;fill:#565656;fill-opacity:1;" d="M 10.160156 3.15625 C 8.160156 3.363281 6.34375 4.164062 4.925781 5.378906 C 3.035156 7.003906 1.835938 9.375 1.835938 12.007812 C 1.835938 16.910156 5.992188 20.898438 11.132812 20.898438 C 16.269531 20.898438 20.429688 16.910156 20.429688 12.007812 C 20.429688 11.355469 20.355469 10.722656 20.21875 10.117188 L 18.199219 10.535156 C 18.308594 11.011719 18.363281 11.5 18.363281 12.007812 C 18.363281 15.824219 15.125 18.921875 11.132812 18.921875 C 7.140625 18.921875 3.898438 15.824219 3.898438 12.007812 C 3.898438 9.855469 4.925781 7.929688 6.535156 6.664062 C 7.550781 5.863281 8.8125 5.320312 10.1875 5.148438 L 10.21875 7.085938 C 10.21875 7.085938 13.214844 5.863281 15.65625 4.128906 C 15.65625 4.128906 15.65625 4.128906 15.65625 4.121094 C 15.65625 4.121094 15.65625 4.121094 15.652344 4.121094 C 15.652344 4.121094 15.652344 4.117188 15.652344 4.117188 C 13.023438 2.394531 10.132812 1.316406 10.132812 1.316406 Z M 10.160156 3.15625 "/>
</g>
</svg>
