<?xml version="1.0" encoding="UTF-8" standalone="no"?>
<svg
   width="64px"
   height="64px"
   viewBox="0 0 64 64"
   version="1.1"
   id="svg110"
   sodipodi:docname="audio-speakers.svg"
   inkscape:version="1.2.2 (b0a8486541, 2022-12-01)"
   xmlns:inkscape="http://www.inkscape.org/namespaces/inkscape"
   xmlns:sodipodi="http://sodipodi.sourceforge.net/DTD/sodipodi-0.dtd"
   xmlns="http://www.w3.org/2000/svg"
   xmlns:svg="http://www.w3.org/2000/svg">
  <sodipodi:namedview
     id="namedview112"
     pagecolor="#ffffff"
     bordercolor="#000000"
     borderopacity="0.25"
     inkscape:showpageshadow="2"
     inkscape:pageopacity="0.0"
     inkscape:pagecheckerboard="0"
     inkscape:deskcolor="#d1d1d1"
     showgrid="false"
     inkscape:zoom="3.6875"
     inkscape:cx="32"
     inkscape:cy="32.135593"
     inkscape:window-width="1432"
     inkscape:window-height="844"
     inkscape:window-x="0"
     inkscape:window-y="0"
     inkscape:window-maximized="1"
     inkscape:current-layer="svg110" />
  <defs
     id="defs101">
    <linearGradient
       id="linear0"
       gradientUnits="userSpaceOnUse"
       x1="0"
       y1="0"
       x2="0"
       y2="1"
       gradientTransform="matrix(28,0,0,53.333333,4,5.333333)">
      <stop
         offset="0"
         style="stop-color:#c5eeed;stop-opacity:1;"
         id="stop86" />
      <stop
         offset="1"
         style="stop-color:#0c7672;stop-opacity:1;"
         id="stop88" />
    </linearGradient>
    <linearGradient
       id="linear1"
       gradientUnits="userSpaceOnUse"
       x1="0"
       y1="0"
       x2="0"
       y2="1"
       gradientTransform="matrix(8.927084,0,0,25.453125,39.270833,19.703125)">
      <stop
         offset="0"
         style="stop-color:#c5eeed;stop-opacity:1;"
         id="stop91" />
      <stop
         offset="1"
         style="stop-color:#0c7672;stop-opacity:1;"
         id="stop93" />
    </linearGradient>
    <linearGradient
       id="linear2"
       gradientUnits="userSpaceOnUse"
       x1="0"
       y1="0"
       x2="0"
       y2="1"
       gradientTransform="matrix(12.442708,0,0,42.421875,47.755208,11.218749)">
      <stop
         offset="0"
         style="stop-color:#c5eeed;stop-opacity:1;"
         id="stop96" />
      <stop
         offset="1"
         style="stop-color:#0c7672;stop-opacity:1;"
         id="stop98" />
    </linearGradient>
    <filter
       style="color-interpolation-filters:sRGB;"
       inkscape:label="Diffuse Light"
       id="filter992"
       x="-0.08541044"
       y="-0.089995605"
       width="1.1708209"
       height="1.1799912">
      <feGaussianBlur
         in="SourceGraphic"
         stdDeviation="2"
         result="blur"
         id="feGaussianBlur982" />
      <feDiffuseLighting
         diffuseConstant="1"
         surfaceScale="10"
         lighting-color="rgb(255,255,255)"
         result="diffuse"
         id="feDiffuseLighting986">
        <feDistantLight
           elevation="8"
           azimuth="235"
           id="feDistantLight984" />
      </feDiffuseLighting>
      <feComposite
         in="diffuse"
         in2="diffuse"
         operator="arithmetic"
         k1="1"
         result="composite1"
         id="feComposite988" />
      <feComposite
         in="composite1"
         in2="SourceGraphic"
         k1="1"
         operator="arithmetic"
         k3="1"
         result="composite2"
         id="feComposite990" />
    </filter>
  </defs>
  <g
     id="surface1"
     style="filter:url(#filter992)">
    <path
       style=" stroke:none;fill-rule:nonzero;fill:url(#linear0);"
       d="M 32 5.332031 L 18 20 L 7.484375 20 C 7.484375 20 4 23.574219 4 32.003906 C 4 40.441406 7.484375 44 7.484375 44 L 18 44 L 32 58.667969 Z M 28 15.3125 L 28 48.6875 L 19.707031 40 L 9.65625 40 C 9.527344 39.765625 9.574219 39.9375 9.390625 39.53125 C 8.738281 38.078125 8 35.671875 8 32.003906 C 8 28.34375 8.738281 25.925781 9.390625 24.46875 C 9.574219 24.0625 9.527344 24.234375 9.65625 24 L 19.707031 24 Z M 28 15.3125 "
       id="path103" />
    <path
       style=" stroke:none;fill-rule:nonzero;fill:url(#linear1);"
       d="M 42.097656 19.703125 L 39.269531 22.53125 L 40.683594 23.949219 C 42.933594 26.199219 44.199219 29.246094 44.199219 32.433594 C 44.199219 35.613281 42.933594 38.660156 40.683594 40.917969 L 39.269531 42.328125 L 42.097656 45.15625 L 43.511719 43.746094 C 46.511719 40.746094 48.199219 36.671875 48.199219 32.433594 C 48.199219 28.1875 46.511719 24.121094 43.511719 21.121094 Z M 42.097656 19.703125 "
       id="path105" />
    <path
       style=" stroke:none;fill-rule:nonzero;fill:url(#linear2);"
       d="M 50.582031 11.21875 L 47.753906 14.046875 L 49.167969 15.464844 C 53.667969 19.964844 56.199219 26.0625 56.199219 32.433594 C 56.199219 38.796875 53.667969 44.894531 49.167969 49.402344 L 47.753906 50.8125 L 50.582031 53.640625 L 51.996094 52.230469 C 57.246094 46.980469 60.199219 39.855469 60.199219 32.433594 C 60.199219 25.003906 57.246094 17.886719 51.996094 12.636719 Z M 50.582031 11.21875 "
       id="path107" />
  </g>
</svg>
