<?xml version="1.0" encoding="UTF-8" standalone="no"?>
<svg
   width="64px"
   height="64px"
   viewBox="0 0 64 64"
   version="1.1"
   id="svg82"
   sodipodi:docname="audio-input-microphone.svg"
   inkscape:version="1.2.2 (b0a8486541, 2022-12-01)"
   xmlns:inkscape="http://www.inkscape.org/namespaces/inkscape"
   xmlns:sodipodi="http://sodipodi.sourceforge.net/DTD/sodipodi-0.dtd"
   xmlns="http://www.w3.org/2000/svg"
   xmlns:svg="http://www.w3.org/2000/svg">
  <sodipodi:namedview
     id="namedview84"
     pagecolor="#ffffff"
     bordercolor="#000000"
     borderopacity="0.25"
     inkscape:showpageshadow="2"
     inkscape:pageopacity="0.0"
     inkscape:pagecheckerboard="0"
     inkscape:deskcolor="#d1d1d1"
     showgrid="false"
     inkscape:zoom="3.6875"
     inkscape:cx="32"
     inkscape:cy="32.135593"
     inkscape:window-width="1432"
     inkscape:window-height="844"
     inkscape:window-x="0"
     inkscape:window-y="0"
     inkscape:window-maximized="1"
     inkscape:current-layer="svg82" />
  <defs
     id="defs71">
    <linearGradient
       id="linear0"
       gradientUnits="userSpaceOnUse"
       x1="0"
       y1="0"
       x2="0"
       y2="1"
       gradientTransform="matrix(20,0,0,44.083333,20,0)">
      <stop
         offset="0"
         style="stop-color:#fcd7fb;stop-opacity:1;"
         id="stop51" />
      <stop
         offset="1"
         style="stop-color:#ce13b8;stop-opacity:1;"
         id="stop53" />
    </linearGradient>
    <linearGradient
       id="linear1"
       gradientUnits="userSpaceOnUse"
       x1="0"
       y1="0"
       x2="0"
       y2="1"
       gradientTransform="matrix(4,0,0,16,28,46.083333)">
      <stop
         offset="0"
         style="stop-color:#fcd7fb;stop-opacity:1;"
         id="stop56" />
      <stop
         offset="1"
         style="stop-color:#ce13b8;stop-opacity:1;"
         id="stop58" />
    </linearGradient>
    <linearGradient
       id="linear2"
       gradientUnits="userSpaceOnUse"
       x1="0"
       y1="0"
       x2="0"
       y2="1"
       gradientTransform="matrix(20,0,0,4,20,60.083333)">
      <stop
         offset="0"
         style="stop-color:#fcd7fb;stop-opacity:1;"
         id="stop61" />
      <stop
         offset="1"
         style="stop-color:#ce13b8;stop-opacity:1;"
         id="stop63" />
    </linearGradient>
    <linearGradient
       id="linear3"
       gradientUnits="userSpaceOnUse"
       x1="0"
       y1="0"
       x2="0"
       y2="1"
       gradientTransform="matrix(36,0,0,24,12,28.083333)">
      <stop
         offset="0"
         style="stop-color:#fcd7fb;stop-opacity:1;"
         id="stop66" />
      <stop
         offset="1"
         style="stop-color:#ce13b8;stop-opacity:1;"
         id="stop68" />
    </linearGradient>
    <filter
       style="color-interpolation-filters:sRGB;"
       inkscape:label="Diffuse Light"
       id="filter1026"
       x="-0.13333333"
       y="-0.074903993"
       width="1.2666667"
       height="1.149808">
      <feGaussianBlur
         in="SourceGraphic"
         stdDeviation="2"
         result="blur"
         id="feGaussianBlur1016" />
      <feDiffuseLighting
         diffuseConstant="1"
         surfaceScale="10"
         lighting-color="rgb(255,255,255)"
         result="diffuse"
         id="feDiffuseLighting1020">
        <feDistantLight
           elevation="8"
           azimuth="235"
           id="feDistantLight1018" />
      </feDiffuseLighting>
      <feComposite
         in="diffuse"
         in2="diffuse"
         operator="arithmetic"
         k1="1"
         result="composite1"
         id="feComposite1022" />
      <feComposite
         in="composite1"
         in2="SourceGraphic"
         k1="1"
         operator="arithmetic"
         k3="1"
         result="composite2"
         id="feComposite1024" />
    </filter>
  </defs>
  <g
     id="surface1"
     style="filter:url(#filter1026)">
    <path
       style=" stroke:none;fill-rule:nonzero;fill:url(#linear0);"
       d="M 30 0 C 24.355469 0 20 3.375 20 10.171875 L 20 33.90625 C 20 40.703125 24.355469 44.082031 30 44.082031 C 35.644531 44.082031 40 40.6875 40 33.90625 L 40 10.171875 C 40 3.390625 35.644531 0 30 0 Z M 30 4 C 32.019531 4 33.4375 4.566406 34.371094 5.441406 C 35.296875 6.324219 36 7.636719 36 10.171875 L 36 33.90625 C 36 36.441406 35.296875 37.753906 34.371094 38.636719 C 33.4375 39.511719 32.019531 40.082031 30 40.082031 C 27.972656 40.082031 26.5625 39.515625 25.628906 38.640625 C 24.703125 37.765625 24 36.449219 24 33.90625 L 24 10.171875 C 24 7.628906 24.703125 6.324219 25.628906 5.441406 C 26.5625 4.566406 27.972656 4 30 4 Z M 30 4 "
       id="path73" />
    <path
       style=" stroke:none;fill-rule:nonzero;fill:url(#linear1);"
       d="M 28 46.082031 L 32 46.082031 L 32 62.082031 L 28 62.082031 Z M 28 46.082031 "
       id="path75" />
    <path
       style=" stroke:none;fill-rule:nonzero;fill:url(#linear2);"
       d="M 30 60.082031 C 26.667969 60.082031 23.328125 60.722656 20 61.917969 L 20 64.082031 L 40 64.082031 L 40 61.917969 C 36.667969 60.75 33.332031 60.082031 30 60.082031 Z M 30 60.082031 "
       id="path77" />
    <path
       style=" stroke:none;fill-rule:nonzero;fill:url(#linear3);"
       d="M 12 28.082031 L 12 34.082031 C 12 44.058594 20.027344 52.082031 30 52.082031 C 39.972656 52.082031 48 44.058594 48 34.082031 L 48 28.082031 L 44 28.082031 L 44 34.082031 C 44 41.84375 37.753906 48.082031 30 48.082031 C 22.246094 48.082031 16 41.84375 16 34.082031 L 16 28.082031 Z M 12 28.082031 "
       id="path79" />
  </g>
</svg>
