<?xml version="1.0" encoding="UTF-8" standalone="no"?>
<svg
   width="64px"
   height="64px"
   viewBox="0 0 64 64"
   version="1.1"
   id="svg180"
   sodipodi:docname="camera-video.svg"
   inkscape:version="1.2.2 (b0a8486541, 2022-12-01)"
   xmlns:inkscape="http://www.inkscape.org/namespaces/inkscape"
   xmlns:sodipodi="http://sodipodi.sourceforge.net/DTD/sodipodi-0.dtd"
   xmlns="http://www.w3.org/2000/svg"
   xmlns:svg="http://www.w3.org/2000/svg">
  <sodipodi:namedview
     id="namedview182"
     pagecolor="#ffffff"
     bordercolor="#000000"
     borderopacity="0.25"
     inkscape:showpageshadow="2"
     inkscape:pageopacity="0.0"
     inkscape:pagecheckerboard="0"
     inkscape:deskcolor="#d1d1d1"
     showgrid="false"
     inkscape:zoom="3.6875"
     inkscape:cx="32"
     inkscape:cy="32.135593"
     inkscape:window-width="1432"
     inkscape:window-height="844"
     inkscape:window-x="0"
     inkscape:window-y="0"
     inkscape:window-maximized="1"
     inkscape:current-layer="svg180" />
  <defs
     id="defs173">
    <linearGradient
       id="linear0"
       gradientUnits="userSpaceOnUse"
       x1="0"
       y1="0"
       x2="0"
       y2="1"
       gradientTransform="matrix(48,0,0,40,0,12)">
      <stop
         offset="0"
         style="stop-color:#f8c3c3;stop-opacity:1;"
         id="stop163" />
      <stop
         offset="1"
         style="stop-color:#c60606;stop-opacity:1;"
         id="stop165" />
    </linearGradient>
    <linearGradient
       id="linear1"
       gradientUnits="userSpaceOnUse"
       x1="0"
       y1="0"
       x2="0"
       y2="1"
       gradientTransform="matrix(20,0,0,26.25,44,18.875)">
      <stop
         offset="0"
         style="stop-color:#f8c3c3;stop-opacity:1;"
         id="stop168" />
      <stop
         offset="1"
         style="stop-color:#c60606;stop-opacity:1;"
         id="stop170" />
    </linearGradient>
    <filter
       style="color-interpolation-filters:sRGB;"
       inkscape:label="Diffuse Light"
       id="filter880"
       x="-0.075"
       y="-0.12"
       width="1.15"
       height="1.24">
      <feGaussianBlur
         in="SourceGraphic"
         stdDeviation="2"
         result="blur"
         id="feGaussianBlur870" />
      <feDiffuseLighting
         diffuseConstant="1"
         surfaceScale="10"
         lighting-color="rgb(255,255,255)"
         result="diffuse"
         id="feDiffuseLighting874">
        <feDistantLight
           elevation="8"
           azimuth="235"
           id="feDistantLight872" />
      </feDiffuseLighting>
      <feComposite
         in="diffuse"
         in2="diffuse"
         operator="arithmetic"
         k1="1"
         result="composite1"
         id="feComposite876" />
      <feComposite
         in="composite1"
         in2="SourceGraphic"
         k1="1"
         operator="arithmetic"
         k3="1"
         result="composite2"
         id="feComposite878" />
    </filter>
  </defs>
  <g
     id="surface1"
     style="filter:url(#filter880)">
    <path
       style=" stroke:none;fill-rule:nonzero;fill:url(#linear0);"
       d="M 12 12 C 9.371094 12 7.285156 12.238281 5.53125 12.902344 C 3.777344 13.558594 2.371094 14.746094 1.542969 16.25 C -0.121094 19.261719 0.0585938 22.941406 0 27.980469 L 0 36.027344 C 0.0585938 41.058594 -0.121094 44.738281 1.542969 47.75 C 2.371094 49.253906 3.777344 50.441406 5.53125 51.105469 C 7.285156 51.761719 9.371094 52 12 52 L 36 52 C 38.628906 52 40.714844 51.761719 42.46875 51.105469 C 44.222656 50.441406 45.628906 49.253906 46.464844 47.75 C 48.125 44.738281 47.941406 41.058594 48 36.027344 L 48 27.972656 C 47.941406 22.941406 48.125 19.261719 46.464844 16.25 C 45.628906 14.746094 44.222656 13.558594 42.46875 12.894531 C 40.714844 12.238281 38.628906 12 36 12 Z M 12 16 L 36 16 C 38.371094 16 40.019531 16.25 41.0625 16.640625 C 42.105469 17.03125 42.546875 17.449219 42.953125 18.183594 C 43.761719 19.644531 43.941406 22.964844 44 28 L 44 35.980469 C 43.941406 41.03125 43.765625 44.34375 42.953125 45.8125 C 42.546875 46.546875 42.105469 46.96875 41.0625 47.359375 C 40.019531 47.75 38.371094 48 36 48 L 12 48 C 9.628906 48 7.980469 47.75 6.9375 47.359375 C 5.894531 46.96875 5.453125 46.546875 5.046875 45.8125 C 4.238281 44.347656 4.058594 41.035156 4 36 L 4 28 C 4.058594 22.964844 4.238281 19.644531 5.046875 18.183594 C 5.453125 17.449219 5.894531 17.03125 6.9375 16.640625 C 7.980469 16.25 9.628906 16 12 16 Z M 12 16 "
       id="path175" />
    <path
       style=" stroke:none;fill-rule:nonzero;fill:url(#linear1);"
       d="M 64 18.875 C 59.042969 21.222656 52.074219 25.042969 44 29.71875 L 44 34.292969 C 51.96875 38.921875 58.933594 42.722656 64 45.125 Z M 64 18.875 "
       id="path177" />
  </g>
</svg>
