<?xml version="1.0" encoding="UTF-8" standalone="no"?>
<svg
   width="64px"
   height="64px"
   viewBox="0 0 64 64"
   version="1.1"
   id="svg222"
   sodipodi:docname="computer-laptop.svg"
   inkscape:version="1.2.2 (b0a8486541, 2022-12-01)"
   xmlns:inkscape="http://www.inkscape.org/namespaces/inkscape"
   xmlns:sodipodi="http://sodipodi.sourceforge.net/DTD/sodipodi-0.dtd"
   xmlns="http://www.w3.org/2000/svg"
   xmlns:svg="http://www.w3.org/2000/svg">
  <sodipodi:namedview
     id="namedview224"
     pagecolor="#ffffff"
     bordercolor="#000000"
     borderopacity="0.25"
     inkscape:showpageshadow="2"
     inkscape:pageopacity="0.0"
     inkscape:pagecheckerboard="0"
     inkscape:deskcolor="#d1d1d1"
     showgrid="false"
     inkscape:zoom="3.6875"
     inkscape:cx="32"
     inkscape:cy="32.135593"
     inkscape:window-width="1432"
     inkscape:window-height="844"
     inkscape:window-x="0"
     inkscape:window-y="0"
     inkscape:window-maximized="1"
     inkscape:current-layer="svg222" />
  <defs
     id="defs217">
    <linearGradient
       id="linear0"
       gradientUnits="userSpaceOnUse"
       x1="0"
       y1="0"
       x2="0"
       y2="1"
       gradientTransform="matrix(64,0,0,45.333333,0,8)">
      <stop
         offset="0"
         style="stop-color:#cff3fe;stop-opacity:1;"
         id="stop212" />
      <stop
         offset="1"
         style="stop-color:#054cff;stop-opacity:1;"
         id="stop214" />
    </linearGradient>
    <filter
       style="color-interpolation-filters:sRGB;"
       inkscape:label="Diffuse Light"
       id="filter820"
       x="-0.075"
       y="-0.10588539"
       width="1.15"
       height="1.2117708">
      <feGaussianBlur
         in="SourceGraphic"
         stdDeviation="2"
         result="blur"
         id="feGaussianBlur810" />
      <feDiffuseLighting
         diffuseConstant="1"
         surfaceScale="10"
         lighting-color="rgb(255,255,255)"
         result="diffuse"
         id="feDiffuseLighting814">
        <feDistantLight
           elevation="8"
           azimuth="235"
           id="feDistantLight812" />
      </feDiffuseLighting>
      <feComposite
         in="diffuse"
         in2="diffuse"
         operator="arithmetic"
         k1="1"
         result="composite1"
         id="feComposite816" />
      <feComposite
         in="composite1"
         in2="SourceGraphic"
         k1="1"
         operator="arithmetic"
         k3="1"
         result="composite2"
         id="feComposite818" />
    </filter>
  </defs>
  <g
     id="surface1"
     style="filter:url(#filter820)">
    <path
       style=" stroke:none;fill-rule:nonzero;fill:url(#linear0);"
       d="M 53.332031 48 C 56.265625 48 58.640625 45.597656 58.640625 42.667969 L 58.667969 13.332031 C 58.667969 10.402344 56.265625 8 53.332031 8 L 10.667969 8 C 7.734375 8 5.332031 10.402344 5.332031 13.332031 L 5.332031 42.667969 C 5.332031 45.597656 7.734375 48 10.667969 48 L 0 48 C 0 50.933594 2.402344 53.332031 5.332031 53.332031 L 58.667969 53.332031 C 61.597656 53.332031 64 50.933594 64 48 Z M 10.667969 13.332031 L 53.332031 13.332031 L 53.332031 42.667969 L 10.667969 42.667969 Z M 32 50.667969 C 30.53125 50.667969 29.332031 49.46875 29.332031 48 C 29.332031 46.53125 30.53125 45.332031 32 45.332031 C 33.46875 45.332031 34.667969 46.53125 34.667969 48 C 34.667969 49.46875 33.46875 50.667969 32 50.667969 Z M 32 50.667969 "
       id="path219" />
  </g>
</svg>
