<?xml version="1.0" encoding="UTF-8" standalone="no"?>
<svg
   width="64px"
   height="64px"
   viewBox="0 0 64 64"
   version="1.1"
   id="svg236"
   sodipodi:docname="cpu.svg"
   inkscape:version="1.2.2 (b0a8486541, 2022-12-01)"
   xmlns:inkscape="http://www.inkscape.org/namespaces/inkscape"
   xmlns:sodipodi="http://sodipodi.sourceforge.net/DTD/sodipodi-0.dtd"
   xmlns="http://www.w3.org/2000/svg"
   xmlns:svg="http://www.w3.org/2000/svg">
  <sodipodi:namedview
     id="namedview238"
     pagecolor="#ffffff"
     bordercolor="#000000"
     borderopacity="0.25"
     inkscape:showpageshadow="2"
     inkscape:pageopacity="0.0"
     inkscape:pagecheckerboard="0"
     inkscape:deskcolor="#d1d1d1"
     showgrid="false"
     inkscape:zoom="3.6875"
     inkscape:cx="32"
     inkscape:cy="32.135593"
     inkscape:window-width="1432"
     inkscape:window-height="844"
     inkscape:window-x="0"
     inkscape:window-y="0"
     inkscape:window-maximized="1"
     inkscape:current-layer="svg236" />
  <defs
     id="defs231">
    <linearGradient
       id="linear0"
       gradientUnits="userSpaceOnUse"
       x1="0"
       y1="0"
       x2="0"
       y2="1"
       gradientTransform="matrix(64,0,0,64,0,0)">
      <stop
         offset="0"
         style="stop-color:#fcd7fb;stop-opacity:1;"
         id="stop226" />
      <stop
         offset="1"
         style="stop-color:#ce13b8;stop-opacity:1;"
         id="stop228" />
    </linearGradient>
    <filter
       style="color-interpolation-filters:sRGB;"
       inkscape:label="Diffuse Light"
       id="filter794"
       x="-0.075"
       y="-0.075"
       width="1.15"
       height="1.15">
      <feGaussianBlur
         in="SourceGraphic"
         stdDeviation="2"
         result="blur"
         id="feGaussianBlur784" />
      <feDiffuseLighting
         diffuseConstant="1"
         surfaceScale="10"
         lighting-color="rgb(255,255,255)"
         result="diffuse"
         id="feDiffuseLighting788">
        <feDistantLight
           elevation="8"
           azimuth="235"
           id="feDistantLight786" />
      </feDiffuseLighting>
      <feComposite
         in="diffuse"
         in2="diffuse"
         operator="arithmetic"
         k1="1"
         result="composite1"
         id="feComposite790" />
      <feComposite
         in="composite1"
         in2="SourceGraphic"
         k1="1"
         operator="arithmetic"
         k3="1"
         result="composite2"
         id="feComposite792" />
    </filter>
  </defs>
  <g
     id="surface1"
     style="filter:url(#filter794)">
    <path
       style=" stroke:none;fill-rule:nonzero;fill:url(#linear0);"
       d="M 57.597656 0 L 6.402344 0 C 2.863281 0 0 2.863281 0 6.402344 L 0 57.597656 C 0 61.136719 2.863281 64 6.402344 64 L 57.597656 64 C 61.136719 64 64 61.136719 64 57.597656 L 64 6.402344 C 64 2.863281 61.136719 0 57.597656 0 Z M 12.800781 16 C 11.042969 16 9.597656 14.5625 9.597656 12.800781 C 9.597656 11.042969 11.042969 9.597656 12.800781 9.597656 C 14.5625 9.597656 16 11.042969 16 12.800781 C 16 14.5625 14.5625 16 12.800781 16 Z M 12.800781 28.800781 C 11.042969 28.800781 9.597656 27.359375 9.597656 25.597656 C 9.597656 23.839844 11.042969 22.402344 12.800781 22.402344 C 14.5625 22.402344 16 23.839844 16 25.597656 C 16 27.359375 14.5625 28.800781 12.800781 28.800781 Z M 12.800781 41.597656 C 11.042969 41.597656 9.597656 40.160156 9.597656 38.402344 C 9.597656 36.640625 11.042969 35.199219 12.800781 35.199219 C 14.5625 35.199219 16 36.640625 16 38.402344 C 16 40.160156 14.5625 41.597656 12.800781 41.597656 Z M 51.199219 28.800781 C 49.4375 28.800781 48 27.359375 48 25.597656 C 48 23.839844 49.4375 22.402344 51.199219 22.402344 C 52.957031 22.402344 54.402344 23.839844 54.402344 25.597656 C 54.402344 27.359375 52.957031 28.800781 51.199219 28.800781 Z M 51.199219 41.597656 C 49.4375 41.597656 48 40.160156 48 38.402344 C 48 36.640625 49.4375 35.199219 51.199219 35.199219 C 52.957031 35.199219 54.402344 36.640625 54.402344 38.402344 C 54.402344 40.160156 52.957031 41.597656 51.199219 41.597656 Z M 25.597656 16 C 23.839844 16 22.402344 14.5625 22.402344 12.800781 C 22.402344 11.042969 23.839844 9.597656 25.597656 9.597656 C 27.359375 9.597656 28.800781 11.042969 28.800781 12.800781 C 28.800781 14.5625 27.359375 16 25.597656 16 Z M 38.402344 16 C 36.640625 16 35.199219 14.5625 35.199219 12.800781 C 35.199219 11.042969 36.640625 9.597656 38.402344 9.597656 C 40.160156 9.597656 41.597656 11.042969 41.597656 12.800781 C 41.597656 14.5625 40.160156 16 38.402344 16 Z M 51.199219 16 C 49.4375 16 48 14.5625 48 12.800781 C 48 11.042969 49.4375 9.597656 51.199219 9.597656 C 52.957031 9.597656 54.402344 11.042969 54.402344 12.800781 C 54.402344 14.5625 52.957031 16 51.199219 16 Z M 12.800781 54.402344 C 11.042969 54.402344 9.597656 52.957031 9.597656 51.199219 C 9.597656 49.4375 11.042969 48 12.800781 48 C 14.5625 48 16 49.4375 16 51.199219 C 16 52.957031 14.5625 54.402344 12.800781 54.402344 Z M 25.597656 54.402344 C 23.839844 54.402344 22.402344 52.957031 22.402344 51.199219 C 22.402344 49.4375 23.839844 48 25.597656 48 C 27.359375 48 28.800781 49.4375 28.800781 51.199219 C 28.800781 52.957031 27.359375 54.402344 25.597656 54.402344 Z M 38.402344 54.402344 C 36.640625 54.402344 35.199219 52.957031 35.199219 51.199219 C 35.199219 49.4375 36.640625 48 38.402344 48 C 40.160156 48 41.597656 49.4375 41.597656 51.199219 C 41.597656 52.957031 40.160156 54.402344 38.402344 54.402344 Z M 51.199219 54.402344 C 49.4375 54.402344 48 52.957031 48 51.199219 C 48 49.4375 49.4375 48 51.199219 48 C 52.957031 48 54.402344 49.4375 54.402344 51.199219 C 54.402344 52.957031 52.957031 54.402344 51.199219 54.402344 Z M 38.402344 38.402344 L 25.597656 38.402344 L 25.597656 25.597656 L 38.402344 25.597656 Z M 38.402344 38.402344 "
       id="path233" />
  </g>
</svg>
