<?xml version="1.0" encoding="UTF-8" standalone="no"?>
<svg
   width="64px"
   height="64px"
   viewBox="0 0 64 64"
   version="1.1"
   id="svg12"
   sodipodi:docname="hifi.svg"
   inkscape:version="1.2.2 (b0a8486541, 2022-12-01)"
   xmlns:inkscape="http://www.inkscape.org/namespaces/inkscape"
   xmlns:sodipodi="http://sodipodi.sourceforge.net/DTD/sodipodi-0.dtd"
   xmlns="http://www.w3.org/2000/svg"
   xmlns:svg="http://www.w3.org/2000/svg">
  <sodipodi:namedview
     id="namedview14"
     pagecolor="#ffffff"
     bordercolor="#000000"
     borderopacity="0.25"
     inkscape:showpageshadow="2"
     inkscape:pageopacity="0.0"
     inkscape:pagecheckerboard="0"
     inkscape:deskcolor="#d1d1d1"
     showgrid="false"
     inkscape:zoom="3.6875"
     inkscape:cx="32"
     inkscape:cy="32.135593"
     inkscape:window-width="1432"
     inkscape:window-height="844"
     inkscape:window-x="0"
     inkscape:window-y="0"
     inkscape:window-maximized="1"
     inkscape:current-layer="svg12" />
  <defs
     id="defs7">
    <linearGradient
       id="linear0"
       gradientUnits="userSpaceOnUse"
       x1="0"
       y1="0"
       x2="0"
       y2="1"
       gradientTransform="matrix(40,0,0,64,12,0)">
      <stop
         offset="0"
         style="stop-color:#c5eeed;stop-opacity:1;"
         id="stop2" />
      <stop
         offset="1"
         style="stop-color:#0c7672;stop-opacity:1;"
         id="stop4" />
    </linearGradient>
    <filter
       style="color-interpolation-filters:sRGB;"
       inkscape:label="Diffuse Light"
       id="filter1262"
       x="-0.06"
       y="-0.0375"
       width="1.12"
       height="1.075">
      <feGaussianBlur
         in="SourceGraphic"
         stdDeviation="1"
         result="blur"
         id="feGaussianBlur1252" />
      <feDiffuseLighting
         diffuseConstant="1"
         surfaceScale="10"
         lighting-color="rgb(255,255,255)"
         result="diffuse"
         id="feDiffuseLighting1256">
        <feDistantLight
           elevation="8"
           azimuth="235"
           id="feDistantLight1254" />
      </feDiffuseLighting>
      <feComposite
         in="diffuse"
         in2="diffuse"
         operator="arithmetic"
         k1="1"
         result="composite1"
         id="feComposite1258" />
      <feComposite
         in="composite1"
         in2="SourceGraphic"
         k1="1"
         operator="arithmetic"
         k3="1"
         result="composite2"
         id="feComposite1260" />
    </filter>
  </defs>
  <g
     id="surface1"
     style="filter:url(#filter1262)">
    <path
       style=" stroke:none;fill-rule:nonzero;fill:url(#linear0);"
       d="M 14.5 0 C 13.113281 0 12 1.066406 12 2.394531 L 12 45.605469 C 12 46.933594 13.113281 48 14.5 48 L 28 48 L 28 56 L 24 56 C 21.785156 56 20 57.785156 20 60 C 20 62.214844 21.785156 64 24 64 L 40 64 C 42.214844 64 44 62.214844 44 60 C 44 57.785156 42.214844 56 40 56 L 36 56 L 36 48 L 49.5 48 C 50.886719 48 52 46.933594 52 45.605469 L 52 2.394531 C 52 1.066406 50.886719 0 49.5 0 Z M 18 4 C 19.105469 4 20 4.894531 20 6 C 20 7.105469 19.105469 8 18 8 C 16.894531 8 16 7.105469 16 6 C 16 4.894531 16.894531 4 18 4 Z M 32 4 C 40.839844 4 48 11.160156 48 20 C 48 28.839844 40.839844 36 32 36 C 23.160156 36 16 28.839844 16 20 C 16 11.160156 23.160156 4 32 4 Z M 46 4 C 47.105469 4 48 4.894531 48 6 C 48 7.105469 47.105469 8 46 8 C 44.894531 8 44 7.105469 44 6 C 44 4.894531 44.894531 4 46 4 Z M 32 8 C 25.375 8 20 13.375 20 20 C 20 26.625 25.375 32 32 32 C 38.625 32 44 26.625 44 20 C 44 13.375 38.625 8 32 8 Z M 32 16 C 34.207031 16 36 17.792969 36 20 C 36 22.207031 34.207031 24 32 24 C 29.792969 24 28 22.207031 28 20 C 28 17.792969 29.792969 16 32 16 Z M 18 40 C 19.105469 40 20 40.894531 20 42 C 20 43.105469 19.105469 44 18 44 C 16.894531 44 16 43.105469 16 42 C 16 40.894531 16.894531 40 18 40 Z M 46 40 C 47.105469 40 48 40.894531 48 42 C 48 43.105469 47.105469 44 46 44 C 44.894531 44 44 43.105469 44 42 C 44 40.894531 44.894531 40 46 40 Z M 46 40 "
       id="path9" />
  </g>
</svg>
