<?xml version="1.0" encoding="UTF-8" standalone="no"?>
<svg
   width="64px"
   height="64px"
   viewBox="0 0 64 64"
   version="1.1"
   id="svg386"
   sodipodi:docname="media-memory-sd.svg"
   inkscape:version="1.2.2 (b0a8486541, 2022-12-01)"
   xmlns:inkscape="http://www.inkscape.org/namespaces/inkscape"
   xmlns:sodipodi="http://sodipodi.sourceforge.net/DTD/sodipodi-0.dtd"
   xmlns="http://www.w3.org/2000/svg"
   xmlns:svg="http://www.w3.org/2000/svg">
  <sodipodi:namedview
     id="namedview388"
     pagecolor="#ffffff"
     bordercolor="#000000"
     borderopacity="0.25"
     inkscape:showpageshadow="2"
     inkscape:pageopacity="0.0"
     inkscape:pagecheckerboard="0"
     inkscape:deskcolor="#d1d1d1"
     showgrid="false"
     inkscape:zoom="3.6875"
     inkscape:cx="32"
     inkscape:cy="32.135593"
     inkscape:window-width="1432"
     inkscape:window-height="844"
     inkscape:window-x="0"
     inkscape:window-y="0"
     inkscape:window-maximized="1"
     inkscape:current-layer="svg386" />
  <defs
     id="defs379">
    <linearGradient
       id="linear0"
       gradientUnits="userSpaceOnUse"
       x1="0"
       y1="0"
       x2="0"
       y2="1"
       gradientTransform="matrix(40,0,0,52,8,8)">
      <stop
         offset="0"
         style="stop-color:#fcd7fb;stop-opacity:1;"
         id="stop369" />
      <stop
         offset="1"
         style="stop-color:#ce13b8;stop-opacity:1;"
         id="stop371" />
    </linearGradient>
    <linearGradient
       id="linear1"
       gradientUnits="userSpaceOnUse"
       x1="0"
       y1="0"
       x2="0"
       y2="1"
       gradientTransform="matrix(20,0,0,8,16,16)">
      <stop
         offset="0"
         style="stop-color:#fcd7fb;stop-opacity:1;"
         id="stop374" />
      <stop
         offset="1"
         style="stop-color:#ce13b8;stop-opacity:1;"
         id="stop376" />
    </linearGradient>
    <filter
       style="color-interpolation-filters:sRGB;"
       inkscape:label="Diffuse Light"
       id="filter762"
       x="-0.12"
       y="-0.092307692"
       width="1.24"
       height="1.1846154">
      <feGaussianBlur
         in="SourceGraphic"
         stdDeviation="2"
         result="blur"
         id="feGaussianBlur752" />
      <feDiffuseLighting
         diffuseConstant="1"
         surfaceScale="10"
         lighting-color="rgb(255,255,255)"
         result="diffuse"
         id="feDiffuseLighting756">
        <feDistantLight
           elevation="8"
           azimuth="235"
           id="feDistantLight754" />
      </feDiffuseLighting>
      <feComposite
         in="diffuse"
         in2="diffuse"
         operator="arithmetic"
         k1="1"
         result="composite1"
         id="feComposite758" />
      <feComposite
         in="composite1"
         in2="SourceGraphic"
         k1="1"
         operator="arithmetic"
         k3="1"
         result="composite2"
         id="feComposite760" />
    </filter>
  </defs>
  <g
     id="surface1"
     transform="matrix(1.2072803,0,0,1.1477447,-6.4423398,-6.1223956)"
     style="filter:url(#filter762)">
    <path
       style="fill:url(#linear0);fill-rule:nonzero;stroke:none"
       d="M 20,8 C 17.371094,8 15.285156,8.238281 13.53125,8.902344 11.777344,9.558594 10.371094,10.746094 9.542969,12.25 7.878906,15.261719 8.058594,18.941406 8,23.980469 v 20.046875 c 0.058594,5.03125 -0.121094,8.710937 1.542969,11.722656 0.828125,1.503906 2.234375,2.691406 3.988281,3.355469 C 15.285156,59.761719 17.371094,60 20,60 h 16 c 2.628906,0 4.714844,-0.238281 6.46875,-0.894531 C 44.222656,58.441406 45.625,57.253906 46.453125,55.75 48.113281,52.738281 47.941406,49.058594 48,44.027344 V 29.390625 L 43.90625,23.25 c -0.03516,-4.566406 0.113281,-8.175781 -1.441406,-11 C 41.628906,10.746094 40.222656,9.558594 38.46875,8.894531 36.714844,8.238281 34.628906,8 32,8 Z m 0,4 h 12 c 2.371094,0 4.019531,0.25 5.0625,0.640625 1.042969,0.390625 1.484375,0.8125 1.890625,1.546875 0.808594,1.46875 0.988281,4.78125 1.046875,9.839844 l 0.01172,0.59375 L 44,30.609375 V 43.980469 C 43.941406,49.03125 43.765625,52.34375 42.953125,53.8125 42.546875,54.546875 42.105469,54.96875 41.0625,55.359375 40.019531,55.75 38.371094,56 36,56 H 20 C 17.628906,56 15.980469,55.75 14.9375,55.359375 13.894531,54.96875 13.453125,54.546875 13.046875,53.8125 12.238281,52.347656 12.058594,49.035156 12,44 V 24 c 0.05859,-5.03125 0.238281,-8.347656 1.046875,-9.8125 0.40625,-0.734375 0.847656,-1.15625 1.890625,-1.546875 C 15.980469,12.25 17.628906,12 20,12 Z m 0,0"
       id="path381" />
    <path
       style="fill:url(#linear1);fill-rule:nonzero;stroke:none"
       d="m 16,16 v 8 h 4 v -8 z m 8,0 v 8 h 4 v -8 z m 8,0 v 8 h 4 v -8 z m 0,0"
       id="path383" />
  </g>
</svg>
