<?xml version="1.0" encoding="UTF-8" standalone="no"?>
<svg
   width="64px"
   height="64px"
   viewBox="0 0 64 64"
   version="1.1"
   id="svg264"
   sodipodi:docname="multimedia-player-ipod-standard-color.svg"
   inkscape:version="1.2.2 (b0a8486541, 2022-12-01)"
   xmlns:inkscape="http://www.inkscape.org/namespaces/inkscape"
   xmlns:sodipodi="http://sodipodi.sourceforge.net/DTD/sodipodi-0.dtd"
   xmlns="http://www.w3.org/2000/svg"
   xmlns:svg="http://www.w3.org/2000/svg">
  <sodipodi:namedview
     id="namedview266"
     pagecolor="#ffffff"
     bordercolor="#000000"
     borderopacity="0.25"
     inkscape:showpageshadow="2"
     inkscape:pageopacity="0.0"
     inkscape:pagecheckerboard="0"
     inkscape:deskcolor="#d1d1d1"
     showgrid="false"
     inkscape:zoom="3.6875"
     inkscape:cx="32"
     inkscape:cy="32.135593"
     inkscape:window-width="1432"
     inkscape:window-height="844"
     inkscape:window-x="0"
     inkscape:window-y="0"
     inkscape:window-maximized="1"
     inkscape:current-layer="svg264" />
  <defs
     id="defs255">
    <linearGradient
       id="linear0"
       gradientUnits="userSpaceOnUse"
       x1="0"
       y1="0"
       x2="0"
       y2="1"
       gradientTransform="matrix(40.010417,0,0,60,7.994792,4)">
      <stop
         offset="0"
         style="stop-color:#d9f7d8;stop-opacity:1;"
         id="stop240" />
      <stop
         offset="1"
         style="stop-color:#1d5911;stop-opacity:1;"
         id="stop242" />
    </linearGradient>
    <linearGradient
       id="linear1"
       gradientUnits="userSpaceOnUse"
       x1="0"
       y1="0"
       x2="0"
       y2="1"
       gradientTransform="matrix(24,0,0,16,16,12)">
      <stop
         offset="0"
         style="stop-color:#d9f7d8;stop-opacity:1;"
         id="stop245" />
      <stop
         offset="1"
         style="stop-color:#1d5911;stop-opacity:1;"
         id="stop247" />
    </linearGradient>
    <linearGradient
       id="linear2"
       gradientUnits="userSpaceOnUse"
       x1="0"
       y1="0"
       x2="0"
       y2="1"
       gradientTransform="matrix(24,0,0,24,16,32)">
      <stop
         offset="0"
         style="stop-color:#d9f7d8;stop-opacity:1;"
         id="stop250" />
      <stop
         offset="1"
         style="stop-color:#1d5911;stop-opacity:1;"
         id="stop252" />
    </linearGradient>
    <filter
       style="color-interpolation-filters:sRGB;"
       inkscape:label="Diffuse Light"
       id="filter855"
       x="-0.059986607"
       y="-0.04"
       width="1.1199732"
       height="1.08">
      <feGaussianBlur
         in="SourceGraphic"
         stdDeviation="1"
         result="blur"
         id="feGaussianBlur845" />
      <feDiffuseLighting
         diffuseConstant="1"
         surfaceScale="10"
         lighting-color="rgb(255,255,255)"
         result="diffuse"
         id="feDiffuseLighting849">
        <feDistantLight
           elevation="8"
           azimuth="235"
           id="feDistantLight847" />
      </feDiffuseLighting>
      <feComposite
         in="diffuse"
         in2="diffuse"
         operator="arithmetic"
         k1="1"
         result="composite1"
         id="feComposite851" />
      <feComposite
         in="composite1"
         in2="SourceGraphic"
         k1="1"
         operator="arithmetic"
         k3="1"
         result="composite2"
         id="feComposite853" />
    </filter>
  </defs>
  <g
     id="surface1"
     style="filter:url(#filter855)">
    <path
       style=" stroke:none;fill-rule:nonzero;fill:url(#linear0);"
       d="M 18 4 C 15.832031 4 14.0625 4.253906 12.5625 4.921875 C 11.0625 5.589844 9.890625 6.75 9.214844 8.109375 C 7.855469 10.824219 8 14 8 18 L 8 50 C 8 54 7.855469 57.175781 9.214844 59.890625 C 9.890625 61.25 11.0625 62.410156 12.5625 63.078125 C 14.0625 63.746094 15.832031 64 18 64 L 38 64 C 40.167969 64 41.9375 63.746094 43.4375 63.078125 C 44.9375 62.410156 46.109375 61.25 46.792969 59.890625 C 48.144531 57.175781 48 54 48 50 L 48 18 C 48 14 48.144531 10.824219 46.792969 8.109375 C 46.109375 6.75 44.9375 5.589844 43.4375 4.921875 C 41.9375 4.253906 40.167969 4 38 4 Z M 18 8 L 38 8 C 39.832031 8 41.0625 8.246094 41.8125 8.578125 C 42.5625 8.910156 42.890625 9.25 43.214844 9.890625 C 43.855469 11.175781 44 14 44 18 L 44 50 C 44 54 43.855469 56.824219 43.214844 58.109375 C 42.890625 58.75 42.5625 59.089844 41.8125 59.421875 C 41.0625 59.753906 39.832031 60 38 60 L 18 60 C 16.167969 60 14.9375 59.753906 14.1875 59.421875 C 13.4375 59.089844 13.109375 58.75 12.792969 58.109375 C 12.144531 56.824219 12 54 12 50 L 12 18 C 12 14 12.144531 11.175781 12.792969 9.890625 C 13.109375 9.25 13.4375 8.910156 14.1875 8.578125 C 14.9375 8.246094 16.167969 8 18 8 Z M 18 8 "
       id="path257" />
    <path
       style=" stroke:none;fill-rule:evenodd;fill:url(#linear1);"
       d="M 16 12 L 16 28 L 40 28 L 40 12 Z M 16 12 "
       id="path259" />
    <path
       style=" stroke:none;fill-rule:nonzero;fill:url(#linear2);"
       d="M 28 32 C 21.394531 32 16 37.394531 16 44 C 16 50.605469 21.394531 56 28 56 C 34.605469 56 40 50.605469 40 44 C 40 37.394531 34.605469 32 28 32 Z M 28 36 C 32.441406 36 36 39.558594 36 44 C 36 48.441406 32.441406 52 28 52 C 23.558594 52 20 48.441406 20 44 C 20 39.558594 23.558594 36 28 36 Z M 28 36 "
       id="path261" />
  </g>
</svg>
