<?xml version="1.0" encoding="UTF-8" standalone="no"?>
<svg
   width="64px"
   height="64px"
   viewBox="0 0 64 64"
   version="1.1"
   id="svg321"
   sodipodi:docname="network-modem.svg"
   inkscape:version="1.2.2 (b0a8486541, 2022-12-01)"
   xmlns:inkscape="http://www.inkscape.org/namespaces/inkscape"
   xmlns:sodipodi="http://sodipodi.sourceforge.net/DTD/sodipodi-0.dtd"
   xmlns="http://www.w3.org/2000/svg"
   xmlns:svg="http://www.w3.org/2000/svg">
  <sodipodi:namedview
     id="namedview323"
     pagecolor="#ffffff"
     bordercolor="#000000"
     borderopacity="0.25"
     inkscape:showpageshadow="2"
     inkscape:pageopacity="0.0"
     inkscape:pagecheckerboard="0"
     inkscape:deskcolor="#d1d1d1"
     showgrid="false"
     inkscape:zoom="3.6875"
     inkscape:cx="32"
     inkscape:cy="32.135593"
     inkscape:window-width="1432"
     inkscape:window-height="844"
     inkscape:window-x="0"
     inkscape:window-y="0"
     inkscape:window-maximized="1"
     inkscape:current-layer="svg321" />
  <defs
     id="defs316">
    <linearGradient
       id="linear0"
       gradientUnits="userSpaceOnUse"
       x1="0"
       y1="0"
       x2="0"
       y2="1"
       gradientTransform="matrix(64,0,0,57.5,-0.125,6.5)">
      <stop
         offset="0"
         style="stop-color:#fcd7fb;stop-opacity:1;"
         id="stop311" />
      <stop
         offset="1"
         style="stop-color:#ce13b8;stop-opacity:1;"
         id="stop313" />
    </linearGradient>
    <filter
       style="color-interpolation-filters:sRGB;"
       inkscape:label="Diffuse Light"
       id="filter768"
       x="-0.0375"
       y="-0.04173913"
       width="1.075"
       height="1.0834783">
      <feGaussianBlur
         in="SourceGraphic"
         stdDeviation="1"
         result="blur"
         id="feGaussianBlur758" />
      <feDiffuseLighting
         diffuseConstant="1"
         surfaceScale="10"
         lighting-color="rgb(255,255,255)"
         result="diffuse"
         id="feDiffuseLighting762">
        <feDistantLight
           elevation="8"
           azimuth="235"
           id="feDistantLight760" />
      </feDiffuseLighting>
      <feComposite
         in="diffuse"
         in2="diffuse"
         operator="arithmetic"
         k1="1"
         result="composite1"
         id="feComposite764" />
      <feComposite
         in="composite1"
         in2="SourceGraphic"
         k1="1"
         operator="arithmetic"
         k3="1"
         result="composite2"
         id="feComposite766" />
    </filter>
  </defs>
  <g
     id="surface1"
     style="filter:url(#filter768)">
    <path
       style=" stroke:none;fill-rule:evenodd;fill:url(#linear0);"
       d="M 57.5 44.160156 C 61.136719 44.917969 63.875 48.140625 63.875 52 L 63.875 56 C 63.875 60.417969 60.292969 64 55.875 64 L 7.875 64 C 3.457031 64 -0.125 60.417969 -0.125 56 L -0.125 52 C -0.125 47.582031 3.457031 44 7.875 44 L 36.375 44 L 36.375 11.171875 C 36.375 8.59375 38.421875 6.5 40.9375 6.5 C 43.457031 6.5 45.5 8.59375 45.5 11.171875 L 45.5 44 L 48.375 44 L 48.375 11.171875 C 48.375 8.59375 50.421875 6.5 52.9375 6.5 C 55.457031 6.5 57.5 8.59375 57.5 11.171875 Z M 6.5 54.5 C 6.5 51.1875 9.1875 48.5 12.5 48.5 C 15.8125 48.5 18.5 51.1875 18.5 54.5 C 18.5 57.8125 15.8125 60.5 12.5 60.5 C 9.1875 60.5 6.5 57.8125 6.5 54.5 Z M 22.5 54.5 C 22.5 51.1875 25.1875 48.5 28.5 48.5 C 31.8125 48.5 34.5 51.1875 34.5 54.5 C 34.5 57.8125 31.8125 60.5 28.5 60.5 C 25.1875 60.5 22.5 57.8125 22.5 54.5 Z M 22.5 54.5 "
       id="path318" />
  </g>
</svg>
