<?xml version="1.0" encoding="UTF-8" standalone="no"?>
<svg
   width="64px"
   height="64px"
   viewBox="0 0 64 64"
   version="1.1"
   id="svg416"
   sodipodi:docname="phone.svg"
   inkscape:version="1.2.2 (b0a8486541, 2022-12-01)"
   xmlns:inkscape="http://www.inkscape.org/namespaces/inkscape"
   xmlns:sodipodi="http://sodipodi.sourceforge.net/DTD/sodipodi-0.dtd"
   xmlns="http://www.w3.org/2000/svg"
   xmlns:svg="http://www.w3.org/2000/svg">
  <sodipodi:namedview
     id="namedview418"
     pagecolor="#ffffff"
     bordercolor="#000000"
     borderopacity="0.25"
     inkscape:showpageshadow="2"
     inkscape:pageopacity="0.0"
     inkscape:pagecheckerboard="0"
     inkscape:deskcolor="#d1d1d1"
     showgrid="false"
     inkscape:zoom="3.6875"
     inkscape:cx="32"
     inkscape:cy="32.135593"
     inkscape:window-width="1432"
     inkscape:window-height="844"
     inkscape:window-x="0"
     inkscape:window-y="0"
     inkscape:window-maximized="1"
     inkscape:current-layer="svg416" />
  <defs
     id="defs411">
    <linearGradient
       id="linear0"
       gradientUnits="userSpaceOnUse"
       x1="0"
       y1="0"
       x2="0"
       y2="1"
       gradientTransform="matrix(36.010417,0,0,61,15.994792,3)">
      <stop
         offset="0"
         style="stop-color:#d9f7d8;stop-opacity:1;"
         id="stop406" />
      <stop
         offset="1"
         style="stop-color:#1d5911;stop-opacity:1;"
         id="stop408" />
    </linearGradient>
    <filter
       style="color-interpolation-filters:sRGB;"
       inkscape:label="Diffuse Light"
       id="filter588"
       x="-0.066650132"
       y="-0.039344262"
       width="1.1333003"
       height="1.0786885">
      <feGaussianBlur
         in="SourceGraphic"
         stdDeviation="1"
         result="blur"
         id="feGaussianBlur578" />
      <feDiffuseLighting
         diffuseConstant="1"
         surfaceScale="10"
         lighting-color="rgb(255,255,255)"
         result="diffuse"
         id="feDiffuseLighting582">
        <feDistantLight
           elevation="8"
           azimuth="235"
           id="feDistantLight580" />
      </feDiffuseLighting>
      <feComposite
         in="diffuse"
         in2="diffuse"
         operator="arithmetic"
         k1="1"
         result="composite1"
         id="feComposite584" />
      <feComposite
         in="composite1"
         in2="SourceGraphic"
         k1="1"
         operator="arithmetic"
         k3="1"
         result="composite2"
         id="feComposite586" />
    </filter>
  </defs>
  <g
     id="surface1"
     style="filter:url(#filter588)">
    <path
       style=" stroke:none;fill-rule:nonzero;fill:url(#linear0);"
       d="M 20 3 L 16 4 L 16 50 C 16 54 15.855469 57.175781 17.214844 59.890625 C 17.890625 61.25 19.0625 62.410156 20.5625 63.078125 C 22.0625 63.746094 23.832031 64 26 64 L 42 64 C 44.167969 64 45.9375 63.746094 47.4375 63.078125 C 48.9375 62.410156 50.109375 61.25 50.792969 59.890625 C 52.144531 57.175781 52 54 52 50 L 52 26 C 52 22 52.144531 18.824219 50.792969 16.109375 C 50.109375 14.75 48.9375 13.589844 47.4375 12.921875 C 45.9375 12.253906 44.167969 12 42 12 L 20 12 Z M 20 16 L 42 16 C 43.832031 16 45.0625 16.246094 45.8125 16.578125 C 46.5625 16.910156 46.890625 17.25 47.214844 17.890625 C 47.855469 19.175781 48 22 48 26 L 48 50 C 48 54 47.855469 56.824219 47.214844 58.109375 C 46.890625 58.75 46.5625 59.089844 45.8125 59.421875 C 45.0625 59.753906 43.832031 60 42 60 L 26 60 C 24.167969 60 22.9375 59.753906 22.1875 59.421875 C 21.4375 59.089844 21.109375 58.75 20.792969 58.109375 C 20.144531 56.824219 20 54 20 50 Z M 24 20 L 24 32 L 44 32 L 44 20 Z M 24 36 L 24 40 L 28 40 L 28 36 Z M 32 36 L 32 40 L 36 40 L 36 36 Z M 40 36 L 40 40 L 44 40 L 44 36 Z M 24 44 L 24 48 L 28 48 L 28 44 Z M 32 44 L 32 48 L 36 48 L 36 44 Z M 40 44 L 40 48 L 44 48 L 44 44 Z M 24 52 L 24 56 L 28 56 L 28 52 Z M 32 52 L 32 56 L 36 56 L 36 52 Z M 40 52 L 40 56 L 44 56 L 44 52 Z M 40 52 "
       id="path413" />
  </g>
</svg>
