<?xml version="1.0" encoding="UTF-8" standalone="no"?>
<svg
   width="64px"
   height="64px"
   viewBox="0 0 64 64"
   version="1.1"
   id="svg54"
   sodipodi:docname="scanner.svg"
   inkscape:version="1.2.2 (b0a8486541, 2022-12-01)"
   xmlns:inkscape="http://www.inkscape.org/namespaces/inkscape"
   xmlns:sodipodi="http://sodipodi.sourceforge.net/DTD/sodipodi-0.dtd"
   xmlns="http://www.w3.org/2000/svg"
   xmlns:svg="http://www.w3.org/2000/svg">
  <sodipodi:namedview
     id="namedview56"
     pagecolor="#ffffff"
     bordercolor="#000000"
     borderopacity="0.25"
     inkscape:showpageshadow="2"
     inkscape:pageopacity="0.0"
     inkscape:pagecheckerboard="0"
     inkscape:deskcolor="#d1d1d1"
     showgrid="false"
     inkscape:zoom="3.6875"
     inkscape:cx="32"
     inkscape:cy="32.135593"
     inkscape:window-width="1432"
     inkscape:window-height="844"
     inkscape:window-x="0"
     inkscape:window-y="0"
     inkscape:window-maximized="1"
     inkscape:current-layer="svg54" />
  <defs
     id="defs49">
    <linearGradient
       id="linear0"
       gradientUnits="userSpaceOnUse"
       x1="0"
       y1="0"
       x2="0"
       y2="1"
       gradientTransform="matrix(51.197917,0,0,64,6.401041,0)">
      <stop
         offset="0"
         style="stop-color:#e3cfff;stop-opacity:1;"
         id="stop44" />
      <stop
         offset="1"
         style="stop-color:#7d05ff;stop-opacity:1;"
         id="stop46" />
    </linearGradient>
    <filter
       style="color-interpolation-filters:sRGB;"
       inkscape:label="Diffuse Light"
       id="filter652"
       x="-0.046879292"
       y="-0.0375"
       width="1.0937586"
       height="1.075">
      <feGaussianBlur
         in="SourceGraphic"
         stdDeviation="1"
         result="blur"
         id="feGaussianBlur642" />
      <feDiffuseLighting
         diffuseConstant="1"
         surfaceScale="10"
         lighting-color="rgb(255,255,255)"
         result="diffuse"
         id="feDiffuseLighting646">
        <feDistantLight
           elevation="8"
           azimuth="235"
           id="feDistantLight644" />
      </feDiffuseLighting>
      <feComposite
         in="diffuse"
         in2="diffuse"
         operator="arithmetic"
         k1="1"
         result="composite1"
         id="feComposite648" />
      <feComposite
         in="composite1"
         in2="SourceGraphic"
         k1="1"
         operator="arithmetic"
         k3="1"
         result="composite2"
         id="feComposite650" />
    </filter>
  </defs>
  <g
     id="surface1"
     style="filter:url(#filter652)">
    <path
       style=" stroke:none;fill-rule:nonzero;fill:url(#linear0);"
       d="M 13.402344 0 C 11.511719 0 9.722656 0.714844 8.5 2.097656 C 7.300781 3.464844 6.839844 5.339844 7.097656 7.097656 L 7.097656 7.199219 L 9.597656 25.597656 L 6.402344 54 L 6.402344 57.597656 C 6.402344 59.269531 6.988281 60.988281 8.199219 62.199219 C 9.410156 63.410156 11.128906 64 12.800781 64 L 51.199219 64 C 52.871094 64 54.589844 63.410156 55.800781 62.199219 C 57.011719 60.988281 57.597656 59.269531 57.597656 57.597656 L 57.597656 54 L 54.402344 25.597656 L 56.902344 7.199219 L 56.902344 7.097656 C 57.421875 3.5625 54.5625 0 50.902344 0 Z M 16 25.597656 L 48 25.597656 L 48 26 L 51.199219 54.402344 L 12.800781 54.402344 L 16 26 Z M 18.199219 35.199219 L 17.300781 41.597656 L 46.402344 41.597656 L 45.800781 35.199219 Z M 18.199219 35.199219 "
       id="path51" />
  </g>
</svg>
