<?xml version="1.0" encoding="UTF-8" standalone="no"?>
<svg
   width="64px"
   height="64px"
   viewBox="0 0 64 64"
   version="1.1"
   id="svg68"
   sodipodi:docname="smartphone.svg"
   inkscape:version="1.2.2 (b0a8486541, 2022-12-01)"
   xmlns:inkscape="http://www.inkscape.org/namespaces/inkscape"
   xmlns:sodipodi="http://sodipodi.sourceforge.net/DTD/sodipodi-0.dtd"
   xmlns="http://www.w3.org/2000/svg"
   xmlns:svg="http://www.w3.org/2000/svg">
  <sodipodi:namedview
     id="namedview70"
     pagecolor="#ffffff"
     bordercolor="#000000"
     borderopacity="0.25"
     inkscape:showpageshadow="2"
     inkscape:pageopacity="0.0"
     inkscape:pagecheckerboard="0"
     inkscape:deskcolor="#d1d1d1"
     showgrid="false"
     inkscape:zoom="3.6875"
     inkscape:cx="32"
     inkscape:cy="32.135593"
     inkscape:window-width="1432"
     inkscape:window-height="844"
     inkscape:window-x="0"
     inkscape:window-y="0"
     inkscape:window-maximized="1"
     inkscape:current-layer="svg68" />
  <defs
     id="defs63">
    <linearGradient
       id="linear0"
       gradientUnits="userSpaceOnUse"
       x1="0"
       y1="0"
       x2="0"
       y2="1"
       gradientTransform="matrix(40.010417,0,0,64,11.994792,0)">
      <stop
         offset="0"
         style="stop-color:#f8f1d0;stop-opacity:1;"
         id="stop58" />
      <stop
         offset="1"
         style="stop-color:#e18d0f;stop-opacity:1;"
         id="stop60" />
    </linearGradient>
    <filter
       style="color-interpolation-filters:sRGB;"
       inkscape:label="Diffuse Light"
       id="filter626"
       x="-0.059986607"
       y="-0.0375"
       width="1.1199732"
       height="1.075">
      <feGaussianBlur
         in="SourceGraphic"
         stdDeviation="1"
         result="blur"
         id="feGaussianBlur616" />
      <feDiffuseLighting
         diffuseConstant="1"
         surfaceScale="10"
         lighting-color="rgb(255,255,255)"
         result="diffuse"
         id="feDiffuseLighting620">
        <feDistantLight
           elevation="8"
           azimuth="235"
           id="feDistantLight618" />
      </feDiffuseLighting>
      <feComposite
         in="diffuse"
         in2="diffuse"
         operator="arithmetic"
         k1="1"
         result="composite1"
         id="feComposite622" />
      <feComposite
         in="composite1"
         in2="SourceGraphic"
         k1="1"
         operator="arithmetic"
         k3="1"
         result="composite2"
         id="feComposite624" />
    </filter>
  </defs>
  <g
     id="surface1"
     style="filter:url(#filter626)">
    <path
       style=" stroke:none;fill-rule:nonzero;fill:url(#linear0);"
       d="M 22 0 C 19.832031 0 18.0625 0.253906 16.5625 0.921875 C 15.0625 1.589844 13.890625 2.75 13.214844 4.109375 C 11.855469 6.824219 12 10 12 14 L 12 50 C 12 54 11.855469 57.183594 13.214844 59.902344 C 13.890625 61.253906 15.0625 62.410156 16.5625 63.078125 C 18.0625 63.746094 19.832031 64 22 64 L 42 64 C 44.167969 64 45.9375 63.746094 47.4375 63.078125 C 48.9375 62.410156 50.109375 61.253906 50.792969 59.902344 C 52.144531 57.183594 52 54 52 50 L 52 14 C 52 10 52.144531 6.824219 50.792969 4.109375 C 50.109375 2.75 48.9375 1.589844 47.4375 0.921875 C 45.9375 0.253906 44.167969 0 42 0 Z M 16.28125 8 L 47.71875 8 C 47.921875 9.496094 48 11.480469 48 14 L 48 50 C 48 52.519531 47.921875 54.503906 47.71875 56 L 16.28125 56 C 16.078125 54.503906 16 52.519531 16 50 L 16 14 C 16 11.480469 16.078125 9.496094 16.28125 8 Z M 16.28125 8 "
       id="path65" />
  </g>
</svg>
