<?xml version="1.0" encoding="UTF-8" standalone="no"?>
<svg
   width="64px"
   height="64px"
   viewBox="0 0 64 64"
   version="1.1"
   id="svg194"
   sodipodi:docname="video-display.svg"
   inkscape:version="1.2.2 (b0a8486541, 2022-12-01)"
   xmlns:inkscape="http://www.inkscape.org/namespaces/inkscape"
   xmlns:sodipodi="http://sodipodi.sourceforge.net/DTD/sodipodi-0.dtd"
   xmlns="http://www.w3.org/2000/svg"
   xmlns:svg="http://www.w3.org/2000/svg">
  <sodipodi:namedview
     id="namedview196"
     pagecolor="#ffffff"
     bordercolor="#000000"
     borderopacity="0.25"
     inkscape:showpageshadow="2"
     inkscape:pageopacity="0.0"
     inkscape:pagecheckerboard="0"
     inkscape:deskcolor="#d1d1d1"
     showgrid="false"
     inkscape:zoom="3.6875"
     inkscape:cx="32"
     inkscape:cy="32.135593"
     inkscape:window-width="1432"
     inkscape:window-height="844"
     inkscape:window-x="0"
     inkscape:window-y="0"
     inkscape:window-maximized="1"
     inkscape:current-layer="svg194" />
  <defs
     id="defs187">
    <linearGradient
       id="linear0"
       gradientUnits="userSpaceOnUse"
       x1="0"
       y1="0"
       x2="0"
       y2="1"
       gradientTransform="matrix(64,0,0,48,0,4)">
      <stop
         offset="0"
         style="stop-color:#fcd7fb;stop-opacity:1;"
         id="stop177" />
      <stop
         offset="1"
         style="stop-color:#ce13b8;stop-opacity:1;"
         id="stop179" />
    </linearGradient>
    <linearGradient
       id="linear1"
       gradientUnits="userSpaceOnUse"
       x1="0"
       y1="0"
       x2="0"
       y2="1"
       gradientTransform="matrix(32,0,0,16,16,48)">
      <stop
         offset="0"
         style="stop-color:#fcd7fb;stop-opacity:1;"
         id="stop182" />
      <stop
         offset="1"
         style="stop-color:#ce13b8;stop-opacity:1;"
         id="stop184" />
    </linearGradient>
    <filter
       style="color-interpolation-filters:sRGB;"
       inkscape:label="Diffuse Light"
       id="filter446"
       x="-0.0375"
       y="-0.04"
       width="1.075"
       height="1.08">
      <feGaussianBlur
         in="SourceGraphic"
         stdDeviation="1"
         result="blur"
         id="feGaussianBlur436" />
      <feDiffuseLighting
         diffuseConstant="1"
         surfaceScale="10"
         lighting-color="rgb(255,255,255)"
         result="diffuse"
         id="feDiffuseLighting440">
        <feDistantLight
           elevation="8"
           azimuth="235"
           id="feDistantLight438" />
      </feDiffuseLighting>
      <feComposite
         in="diffuse"
         in2="diffuse"
         operator="arithmetic"
         k1="1"
         result="composite1"
         id="feComposite442" />
      <feComposite
         in="composite1"
         in2="SourceGraphic"
         k1="1"
         operator="arithmetic"
         k3="1"
         result="composite2"
         id="feComposite444" />
    </filter>
  </defs>
  <g
     id="surface1"
     style="filter:url(#filter446)">
    <path
       style=" stroke:none;fill-rule:nonzero;fill:url(#linear0);"
       d="M 15.980469 4 C 10.941406 4.058594 7.261719 3.878906 4.25 5.542969 C 2.746094 6.371094 1.558594 7.777344 0.902344 9.53125 C 0.238281 11.285156 0 13.371094 0 16 L 0 40 C 0 42.628906 0.238281 44.714844 0.902344 46.46875 C 1.558594 48.222656 2.746094 49.628906 4.25 50.464844 C 7.261719 52.125 10.941406 51.941406 15.980469 52 L 48.027344 52 C 53.058594 51.941406 56.738281 52.125 59.75 50.464844 C 61.253906 49.628906 62.441406 48.222656 63.105469 46.46875 C 63.761719 44.714844 64 42.628906 64 40 L 64 16 C 64 13.371094 63.761719 11.285156 63.105469 9.53125 C 62.441406 7.777344 61.253906 6.371094 59.75 5.542969 C 56.738281 3.878906 53.058594 4.058594 48.027344 4 Z M 16 8 L 48 8 C 53.035156 8.058594 56.347656 8.238281 57.8125 9.046875 C 58.546875 9.453125 58.96875 9.894531 59.359375 10.9375 C 59.75 11.980469 60 13.628906 60 16 L 60 40 C 60 42.371094 59.75 44.019531 59.359375 45.0625 C 58.96875 46.105469 58.546875 46.546875 57.8125 46.953125 C 56.347656 47.761719 53.035156 47.941406 48 48 L 16 48 C 10.964844 47.941406 7.644531 47.761719 6.183594 46.953125 C 5.449219 46.546875 5.03125 46.105469 4.640625 45.0625 C 4.25 44.019531 4 42.371094 4 40 L 4 16 C 4 13.628906 4.25 11.980469 4.640625 10.9375 C 5.03125 9.894531 5.449219 9.453125 6.183594 9.046875 C 7.644531 8.238281 10.964844 8.058594 16 8 Z M 16 8 "
       id="path189" />
    <path
       style=" stroke:none;fill-rule:nonzero;fill:url(#linear1);"
       d="M 24 48 L 40 48 L 40 54 C 40 60 42 60 46 60 L 48 60 L 48 64 L 16 64 L 16 60 L 18 60 C 22 60 24 60 24 54 Z M 24 48 "
       id="path191" />
  </g>
</svg>
