
<svg xmlns="http://www.w3.org/2000/svg" xmlns:xlink="http://www.w3.org/1999/xlink" width="24px" height="24px" viewBox="0 0 24 24" version="1.1">
<defs>
<linearGradient id="linear0" gradientUnits="userSpaceOnUse" x1="17.499001" y1="11.999" x2="17.325001" y2="19.955999" >
<stop offset="0" style="stop-color:rgb(10.196079%,83.92157%,67.058825%);stop-opacity:1;"/>
<stop offset="1" style="stop-color:rgb(19.607843%,61.56863%,71.372551%);stop-opacity:1;"/>
</linearGradient>
</defs>
<g id="surface1">
<path style=" stroke:none;fill-rule:nonzero;fill:rgb(57.647061%,58.431375%,59.215689%);fill-opacity:1;" d="M 4 6.332031 L 7.382812 6.332031 C 7.890625 6.332031 8.339844 6.652344 8.507812 7.132812 L 12.828125 19.480469 L 11.632812 15.390625 L 17.378906 7.851562 L 19.859375 10.195312 L 15.214844 5 L 19.125 5 C 19.53125 5 19.859375 5.328125 19.859375 5.734375 L 19.859375 10.195312 L 12.828125 19.480469 L 9.421875 19.480469 C 8.957031 19.480469 8.539062 19.1875 8.382812 18.746094 Z M 4 6.332031 "/>
<path style=" stroke:none;fill-rule:nonzero;fill:url(#linear0);" d="M 17.53125 12.003906 C 17.421875 12.375 17.273438 12.738281 17.117188 13.09375 C 16.320312 14.859375 15.105469 16.050781 14.96875 17.171875 C 14.964844 17.191406 14.957031 17.207031 14.957031 17.222656 L 14.964844 17.226562 C 14.960938 17.265625 14.953125 17.304688 14.953125 17.34375 C 14.925781 18.738281 16.007812 19.894531 17.375 19.929688 C 18.738281 19.964844 19.867188 18.863281 19.894531 17.472656 C 19.894531 17.433594 19.886719 17.394531 19.886719 17.355469 L 19.894531 17.351562 C 19.894531 17.335938 19.886719 17.316406 19.882812 17.300781 C 19.789062 16.171875 18.625 14.917969 17.898438 13.117188 C 17.753906 12.75 17.625 12.382812 17.53125 12.003906 Z M 17.53125 12.003906 "/>
</g>
</svg>
