
<svg xmlns="http://www.w3.org/2000/svg" xmlns:xlink="http://www.w3.org/1999/xlink" width="24px" height="24px" viewBox="0 0 24 24" version="1.1">
<defs>
<linearGradient id="linear0" gradientUnits="userSpaceOnUse" x1="14.583" y1="19" x2="14.351" y2="13.165" >
<stop offset="0" style="stop-color:rgb(74.901962%,75.686276%,75.686276%);stop-opacity:1;"/>
<stop offset="1" style="stop-color:rgb(94.509804%,94.901961%,95.294118%);stop-opacity:1;"/>
</linearGradient>
<linearGradient id="linear1" gradientUnits="userSpaceOnUse" x1="16" y1="20" x2="16" y2="12" >
<stop offset="0" style="stop-color:rgb(100%,0%,33.725491%);stop-opacity:1;"/>
<stop offset="0.1" style="stop-color:rgb(100%,4.705882%,30.588236%);stop-opacity:1;"/>
<stop offset="0.2" style="stop-color:rgb(100%,9.411765%,27.058825%);stop-opacity:1;"/>
<stop offset="0.3" style="stop-color:rgb(100%,14.117648%,23.921569%);stop-opacity:1;"/>
<stop offset="0.4" style="stop-color:rgb(100%,18.82353%,20.392157%);stop-opacity:1;"/>
<stop offset="0.5" style="stop-color:rgb(100%,23.529412%,16.862746%);stop-opacity:1;"/>
<stop offset="0.6" style="stop-color:rgb(100%,28.235295%,13.725491%);stop-opacity:1;"/>
<stop offset="0.7" style="stop-color:rgb(100%,32.941177%,10.196079%);stop-opacity:1;"/>
<stop offset="0.8" style="stop-color:rgb(100%,37.64706%,7.058824%);stop-opacity:1;"/>
<stop offset="0.9" style="stop-color:rgb(100%,42.352942%,3.529412%);stop-opacity:1;"/>
<stop offset="1" style="stop-color:rgb(100%,47.450981%,0.392157%);stop-opacity:1;"/>
</linearGradient>
</defs>
<g id="surface1">
<path style=" stroke:none;fill-rule:nonzero;fill:rgb(57.647061%,58.431375%,59.215689%);fill-opacity:1;" d="M 4 6.34375 L 7.410156 6.34375 C 7.921875 6.34375 8.378906 6.667969 8.550781 7.152344 L 12.90625 19.609375 L 11.699219 15.480469 L 17.496094 7.875 L 20 10.242188 L 15.316406 5 L 19.257812 5 C 19.667969 5 20 5.332031 20 5.742188 L 20 10.242188 L 12.90625 19.609375 L 9.472656 19.609375 C 9 19.609375 8.578125 19.3125 8.421875 18.867188 Z M 4 6.34375 "/>
<path style=" stroke:none;fill-rule:nonzero;fill:url(#linear0);" d="M 14 13 L 18 13 L 18 19 L 14 19 Z M 14 13 "/>
<path style=" stroke:none;fill-rule:nonzero;fill:url(#linear1);" d="M 16 12 C 13.789062 12 12 13.789062 12 16 C 12 18.210938 13.789062 20 16 20 C 18.210938 20 20 18.210938 20 16 C 20 13.789062 18.210938 12 16 12 Z M 15.429688 13.714844 L 16.570312 13.714844 L 16.570312 16 L 18 16 L 16 18.855469 L 14 16 L 15.429688 16 Z M 15.429688 13.714844 "/>
</g>
</svg>
