<svg width="64px" height="64px" viewBox="0 0 64 64" version="1.1" id="svg12" inkscape:version="1.2.2 (b0a8486541, 2022-12-01)" xmlns:inkscape="http://www.inkscape.org/namespaces/inkscape" xmlns:sodipodi="http://sodipodi.sourceforge.net/DTD/sodipodi-0.dtd" xmlns="http://www.w3.org/2000/svg" xmlns:svg="http://www.w3.org/2000/svg"> <sodipodi:namedview id="namedview14" pagecolor="#ffffff" bordercolor="#000000" borderopacity="0.25" inkscape:showpageshadow="2" inkscape:pageopacity="0.0" inkscape:pagecheckerboard="0" inkscape:deskcolor="#d1d1d1" showgrid="false" inkscape:zoom="3.6875" inkscape:cx="32" inkscape:cy="32.135593" inkscape:window-width="1432" inkscape:window-height="844" inkscape:window-x="0" inkscape:window-y="0" inkscape:window-maximized="1" inkscape:current-layer="svg12" /> <defs id="defs7"> <linearGradient id="linear0" gradientUnits="userSpaceOnUse" x1="0" y1="0" x2="0" y2="1" gradientTransform="matrix(64,0,0,56,0,4)"> <stop offset="0" style="stop-color:#777777;stop-opacity:1;" id="stop2" /> <stop offset="1" style="stop-color:#444444;stop-opacity:1;" id="stop4" /> </linearGradient> <filter style="color-interpolation-filters:sRGB;" inkscape:label="Diffuse Light" id="filter184" x="-0.11210663" y="-0.12812186" width="1.2242133" height="1.2562437"> <feGaussianBlur in="SourceGraphic" stdDeviation="2.98951" result="blur" id="feGaussianBlur174" /> <feDiffuseLighting diffuseConstant="1" surfaceScale="10" lighting-color="rgb(255,255,255)" result="diffuse" id="feDiffuseLighting178"> <feDistantLight elevation="38" azimuth="235" id="feDistantLight176" /> </feDiffuseLighting> <feComposite in="diffuse" in2="diffuse" operator="arithmetic" k1="1" result="composite1" id="feComposite180" /> <feComposite in="composite1" in2="SourceGraphic" k1="1" operator="arithmetic" k3="1" result="composite2" id="feComposite182" /> </filter> </defs> <g id="surface1" style="filter:url(#filter184)">
<path style=" stroke:none;fill-rule:nonzero;fill:url(#linear0);" d="M 58.941406 29.503906 L 34.488281 5.058594 C 33.089844 3.644531 30.800781 3.644531 29.390625 5.058594 L 24.316406 10.136719 L 30.753906 16.578125 C 32.25 16.066406 33.96875 16.40625 35.160156 17.605469 C 36.359375 18.800781 36.699219 20.53125 36.183594 22.035156 L 42.386719 28.246094 C 43.890625 27.722656 45.625 28.0625 46.816406 29.261719 C 48.496094 30.9375 48.496094 33.652344 46.816406 35.332031 C 45.144531 37.011719 42.425781 37.011719 40.75 35.332031 C 39.488281 34.066406 39.183594 32.214844 39.816406 30.660156 L 34.027344 24.875 L 34.027344 40.109375 C 34.4375 40.3125 34.824219 40.578125 35.160156 40.921875 C 36.839844 42.59375 36.839844 45.3125 35.160156 46.988281 C 33.488281 48.667969 30.765625 48.667969 29.09375 46.988281 C 27.421875 45.316406 27.421875 42.597656 29.09375 40.921875 C 29.511719 40.511719 29.988281 40.191406 30.5 39.984375 L 30.5 24.609375 C 29.988281 24.402344 29.511719 24.089844 29.09375 23.671875 C 27.824219 22.40625 27.519531 20.535156 28.167969 18.980469 L 21.816406 12.628906 L 5.058594 29.390625 C 3.644531 30.800781 3.644531 33.089844 5.058594 34.496094 L 29.511719 58.941406 C 30.917969 60.355469 33.199219 60.355469 34.609375 58.941406 L 58.941406 34.609375 C 60.355469 33.199219 60.355469 30.910156 58.941406 29.503906 Z M 58.941406 29.503906 "/>
</g>
</svg>
