
<svg xmlns="http://www.w3.org/2000/svg" xmlns:xlink="http://www.w3.org/1999/xlink" width="22px" height="22px" viewBox="0 0 22 22" version="1.1">
<defs>
<linearGradient id="linear0" gradientUnits="userSpaceOnUse" x1="16.499001" y1="10.999" x2="16.325001" y2="18.955999" >
<stop offset="0" style="stop-color:rgb(10.196079%,83.92157%,67.058825%);stop-opacity:1;"/>
<stop offset="1" style="stop-color:rgb(19.607843%,61.56863%,71.372551%);stop-opacity:1;"/>
</linearGradient>
</defs>
<g id="surface1">
<path style=" stroke:none;fill-rule:nonzero;fill:rgb(57.647061%,58.431375%,59.215689%);fill-opacity:1;" d="M 3 5.332031 L 6.382812 5.332031 C 6.890625 5.332031 7.339844 5.652344 7.507812 6.132812 L 11.828125 18.480469 L 10.632812 14.390625 L 16.378906 6.851562 L 18.859375 9.195312 L 14.214844 4 L 18.125 4 C 18.53125 4 18.859375 4.328125 18.859375 4.734375 L 18.859375 9.195312 L 11.828125 18.480469 L 8.421875 18.480469 C 7.957031 18.480469 7.539062 18.1875 7.382812 17.746094 Z M 3 5.332031 "/>
<path style=" stroke:none;fill-rule:nonzero;fill:url(#linear0);" d="M 16.53125 11.003906 C 16.421875 11.375 16.273438 11.738281 16.117188 12.09375 C 15.320312 13.859375 14.105469 15.050781 13.96875 16.171875 C 13.964844 16.191406 13.957031 16.207031 13.957031 16.222656 L 13.964844 16.226562 C 13.960938 16.265625 13.953125 16.304688 13.953125 16.34375 C 13.925781 17.738281 15.007812 18.894531 16.375 18.929688 C 17.738281 18.964844 18.867188 17.863281 18.894531 16.472656 C 18.894531 16.433594 18.886719 16.394531 18.886719 16.355469 L 18.894531 16.351562 C 18.894531 16.335938 18.886719 16.316406 18.882812 16.300781 C 18.789062 15.171875 17.625 13.917969 16.898438 12.117188 C 16.753906 11.75 16.625 11.382812 16.53125 11.003906 Z M 16.53125 11.003906 "/>
</g>
</svg>
