<?xml version="1.0" encoding="UTF-8" standalone="no"?>
<svg
   width="64px"
   height="64px"
   viewBox="0 0 64 64"
   version="1.1"
   id="svg131"
   sodipodi:docname="battery.svg"
   inkscape:version="1.2.2 (b0a8486541, 2022-12-01)"
   xmlns:inkscape="http://www.inkscape.org/namespaces/inkscape"
   xmlns:sodipodi="http://sodipodi.sourceforge.net/DTD/sodipodi-0.dtd"
   xmlns="http://www.w3.org/2000/svg"
   xmlns:svg="http://www.w3.org/2000/svg">
  <sodipodi:namedview
     id="namedview133"
     pagecolor="#ffffff"
     bordercolor="#000000"
     borderopacity="0.25"
     inkscape:showpageshadow="2"
     inkscape:pageopacity="0.0"
     inkscape:pagecheckerboard="0"
     inkscape:deskcolor="#d1d1d1"
     showgrid="false"
     inkscape:zoom="3.6875"
     inkscape:cx="32"
     inkscape:cy="32.135593"
     inkscape:window-width="1432"
     inkscape:window-height="844"
     inkscape:window-x="0"
     inkscape:window-y="0"
     inkscape:window-maximized="1"
     inkscape:current-layer="svg131" />
  <defs
     id="defs124">
    <linearGradient
       id="linear0"
       gradientUnits="userSpaceOnUse"
       x1="0"
       y1="0"
       x2="0"
       y2="1"
       gradientTransform="matrix(24,0,0,40,20,12)">
      <stop
         offset="0"
         style="stop-color:#e3cfff;stop-opacity:1;"
         id="stop114" />
      <stop
         offset="1"
         style="stop-color:#7d05ff;stop-opacity:1;"
         id="stop116" />
    </linearGradient>
    <linearGradient
       id="linear1"
       gradientUnits="userSpaceOnUse"
       x1="0"
       y1="0"
       x2="0"
       y2="1"
       gradientTransform="matrix(40,0,0,60,12,0)">
      <stop
         offset="0"
         style="stop-color:#e3cfff;stop-opacity:1;"
         id="stop119" />
      <stop
         offset="1"
         style="stop-color:#7d05ff;stop-opacity:1;"
         id="stop121" />
    </linearGradient>
    <filter
       style="color-interpolation-filters:sRGB;"
       inkscape:label="Diffuse Light"
       id="filter962"
       x="-0.12"
       y="-0.08"
       width="1.24"
       height="1.16">
      <feGaussianBlur
         in="SourceGraphic"
         stdDeviation="2"
         result="blur"
         id="feGaussianBlur952" />
      <feDiffuseLighting
         diffuseConstant="1"
         surfaceScale="10"
         lighting-color="rgb(255,255,255)"
         result="diffuse"
         id="feDiffuseLighting956">
        <feDistantLight
           elevation="8"
           azimuth="235"
           id="feDistantLight954" />
      </feDiffuseLighting>
      <feComposite
         in="diffuse"
         in2="diffuse"
         operator="arithmetic"
         k1="1"
         result="composite1"
         id="feComposite958" />
      <feComposite
         in="composite1"
         in2="SourceGraphic"
         k1="1"
         operator="arithmetic"
         k3="1"
         result="composite2"
         id="feComposite960" />
    </filter>
  </defs>
  <g
     id="surface1"
     style="filter:url(#filter962)">
    <path
       style=" stroke:none;fill-rule:nonzero;fill:url(#linear0);"
       d="M 20 52 L 20 12 L 44 12 L 44 52 Z M 20 52 "
       id="path126" />
    <path
       style=" stroke:none;fill-rule:nonzero;fill:url(#linear1);"
       d="M 12 49.355469 C 12.042969 52.707031 11.9375 55.15625 13.046875 57.160156 C 13.597656 58.167969 14.542969 58.964844 15.714844 59.40625 C 16.878906 59.84375 18.269531 60 20.027344 60 L 44 60 C 45.75 60 47.144531 59.84375 48.3125 59.40625 C 49.484375 58.96875 50.417969 58.167969 50.96875 57.167969 C 52.078125 55.15625 51.957031 52.707031 52 49.355469 L 52 14.527344 C 51.957031 11.167969 52.078125 8.714844 50.96875 6.703125 C 50.378906 5.667969 49.4375 4.871094 48.3125 4.46875 C 47.144531 4.027344 45.75 4 44 4 L 40 4 L 40 0 L 24 0 L 24 4 L 20.027344 4 C 18.269531 4 16.878906 4.027344 15.714844 4.46875 C 14.542969 4.90625 13.597656 5.699219 13.046875 6.703125 C 11.9375 8.714844 12.042969 11.167969 12 14.527344 Z M 16 49.296875 L 16 14.53125 C 16.042969 11.121094 16.160156 9.339844 16.546875 8.628906 C 16.613281 8.519531 16.777344 8.339844 17.113281 8.214844 C 17.363281 8.121094 18.316406 8 20.027344 8 L 44 8 C 45.707031 8 46.65625 8.121094 46.90625 8.214844 C 47.25 8.339844 47.40625 8.519531 47.46875 8.628906 C 47.847656 9.324219 47.957031 11.105469 48 14.53125 L 48 49.355469 C 47.957031 52.765625 47.847656 54.542969 47.46875 55.234375 C 47.40625 55.355469 47.25 55.527344 46.90625 55.65625 C 46.417969 55.839844 45.511719 56 44 56 L 20.027344 56 C 18.511719 56 17.609375 55.839844 17.113281 55.65625 C 16.777344 55.527344 16.613281 55.347656 16.546875 55.234375 C 16.15625 54.527344 16.042969 52.753906 16 49.296875 Z M 16 49.296875 "
       id="path128" />
  </g>
</svg>
