<?xml version="1.0" encoding="UTF-8" standalone="no"?>
<svg
   width="64px"
   height="64px"
   viewBox="0 0 64 64"
   version="1.1"
   id="svg376"
   sodipodi:docname="drive-optical.svg"
   inkscape:version="1.2.2 (b0a8486541, 2022-12-01)"
   xmlns:inkscape="http://www.inkscape.org/namespaces/inkscape"
   xmlns:sodipodi="http://sodipodi.sourceforge.net/DTD/sodipodi-0.dtd"
   xmlns="http://www.w3.org/2000/svg"
   xmlns:svg="http://www.w3.org/2000/svg">
  <sodipodi:namedview
     id="namedview378"
     pagecolor="#ffffff"
     bordercolor="#000000"
     borderopacity="0.25"
     inkscape:showpageshadow="2"
     inkscape:pageopacity="0.0"
     inkscape:pagecheckerboard="0"
     inkscape:deskcolor="#d1d1d1"
     showgrid="false"
     inkscape:zoom="3.6875"
     inkscape:cx="32"
     inkscape:cy="32.135593"
     inkscape:window-width="1432"
     inkscape:window-height="844"
     inkscape:window-x="0"
     inkscape:window-y="0"
     inkscape:window-maximized="1"
     inkscape:current-layer="svg376" />
  <defs
     id="defs371">
    <linearGradient
       id="linear0"
       gradientUnits="userSpaceOnUse"
       x1="0"
       y1="0"
       x2="0"
       y2="1"
       gradientTransform="matrix(64,0,0,64,0,0)">
      <stop
         offset="0"
         style="stop-color:#cff3fe;stop-opacity:1;"
         id="stop366" />
      <stop
         offset="1"
         style="stop-color:#054cff;stop-opacity:1;"
         id="stop368" />
    </linearGradient>
    <filter
       style="color-interpolation-filters:sRGB;"
       inkscape:label="Diffuse Light"
       id="filter588"
       x="-0.075"
       y="-0.075"
       width="1.15"
       height="1.15">
      <feGaussianBlur
         in="SourceGraphic"
         stdDeviation="2"
         result="blur"
         id="feGaussianBlur578" />
      <feDiffuseLighting
         diffuseConstant="1"
         surfaceScale="10"
         lighting-color="rgb(255,255,255)"
         result="diffuse"
         id="feDiffuseLighting582">
        <feDistantLight
           elevation="8"
           azimuth="235"
           id="feDistantLight580" />
      </feDiffuseLighting>
      <feComposite
         in="diffuse"
         in2="diffuse"
         operator="arithmetic"
         k1="1"
         result="composite1"
         id="feComposite584" />
      <feComposite
         in="composite1"
         in2="SourceGraphic"
         k1="1"
         operator="arithmetic"
         k3="1"
         result="composite2"
         id="feComposite586" />
    </filter>
  </defs>
  <g
     id="surface1"
     style="filter:url(#filter588)">
    <path
       style=" stroke:none;fill-rule:nonzero;fill:url(#linear0);"
       d="M 15.980469 0 C 10.941406 0.0585938 7.261719 -0.121094 4.25 1.542969 C 2.746094 2.371094 1.558594 3.777344 0.902344 5.53125 C 0.238281 7.285156 0 9.371094 0 12 L 0 40 C 0 42.628906 0.238281 44.714844 0.902344 46.46875 C 1.558594 48.222656 2.746094 49.628906 4.25 50.464844 C 5.378906 51.082031 6.644531 51.394531 8 51.609375 L 8 47.5 C 7.25 47.359375 6.609375 47.191406 6.183594 46.953125 C 5.449219 46.546875 5.03125 46.105469 4.640625 45.0625 C 4.25 44.019531 4 42.371094 4 40 L 4 36 L 60 36 L 60 40 C 60 42.371094 59.75 44.019531 59.359375 45.0625 C 58.96875 46.105469 58.546875 46.546875 57.8125 46.953125 C 57.386719 47.191406 56.746094 47.359375 56 47.5 L 56 51.609375 C 57.355469 51.394531 58.621094 51.082031 59.75 50.464844 C 61.253906 49.628906 62.441406 48.222656 63.105469 46.46875 C 63.761719 44.714844 64 42.628906 64 40 L 64 12 C 64 9.371094 63.761719 7.285156 63.105469 5.53125 C 62.441406 3.777344 61.253906 2.371094 59.75 1.542969 C 56.738281 -0.121094 53.058594 0.0585938 48.027344 0 Z M 16 4 L 48 4 C 53.035156 4.058594 56.347656 4.238281 57.8125 5.046875 C 58.546875 5.453125 58.96875 5.894531 59.359375 6.9375 C 59.75 7.980469 60 9.628906 60 12 L 60 32 L 4 32 L 4 12 C 4 9.628906 4.25 7.980469 4.640625 6.9375 C 5.03125 5.894531 5.449219 5.453125 6.183594 5.046875 C 7.644531 4.238281 10.964844 4.058594 16 4 Z M 8 40 C 8 53.253906 18.746094 64 32 64 C 45.253906 64 56 53.253906 56 40 L 52 40 C 52 51.046875 43.046875 60 32 60 C 20.953125 60 12 51.046875 12 40 Z M 24 40 C 24 44.417969 27.582031 48 32 48 C 36.417969 48 40 44.417969 40 40 L 36 40 C 36 42.207031 34.207031 44 32 44 C 29.792969 44 28 42.207031 28 40 Z M 24 40 "
       id="path373" />
  </g>
</svg>
