<?xml version="1.0" encoding="UTF-8" standalone="no"?>
<svg
   width="64px"
   height="64px"
   viewBox="0 0 64 64"
   version="1.1"
   id="svg180"
   sodipodi:docname="input-touchpad.svg"
   inkscape:version="1.2.2 (b0a8486541, 2022-12-01)"
   xmlns:inkscape="http://www.inkscape.org/namespaces/inkscape"
   xmlns:sodipodi="http://sodipodi.sourceforge.net/DTD/sodipodi-0.dtd"
   xmlns="http://www.w3.org/2000/svg"
   xmlns:svg="http://www.w3.org/2000/svg">
  <sodipodi:namedview
     id="namedview182"
     pagecolor="#ffffff"
     bordercolor="#000000"
     borderopacity="0.25"
     inkscape:showpageshadow="2"
     inkscape:pageopacity="0.0"
     inkscape:pagecheckerboard="0"
     inkscape:deskcolor="#d1d1d1"
     showgrid="false"
     inkscape:zoom="3.6875"
     inkscape:cx="32"
     inkscape:cy="32.135593"
     inkscape:window-width="1432"
     inkscape:window-height="844"
     inkscape:window-x="0"
     inkscape:window-y="0"
     inkscape:window-maximized="1"
     inkscape:current-layer="svg180" />
  <defs
     id="defs171">
    <linearGradient
       id="linear0"
       gradientUnits="userSpaceOnUse"
       x1="0"
       y1="0"
       x2="0"
       y2="1"
       gradientTransform="matrix(60,0,0,56,0,4)">
      <stop
         offset="0"
         style="stop-color:#cff3fe;stop-opacity:1;"
         id="stop156" />
      <stop
         offset="1"
         style="stop-color:#054cff;stop-opacity:1;"
         id="stop158" />
    </linearGradient>
    <linearGradient
       id="linear1"
       gradientUnits="userSpaceOnUse"
       x1="0"
       y1="0"
       x2="0"
       y2="1"
       gradientTransform="matrix(56,0,0,4,2,44)">
      <stop
         offset="0"
         style="stop-color:#cff3fe;stop-opacity:1;"
         id="stop161" />
      <stop
         offset="1"
         style="stop-color:#054cff;stop-opacity:1;"
         id="stop163" />
    </linearGradient>
    <linearGradient
       id="linear2"
       gradientUnits="userSpaceOnUse"
       x1="0"
       y1="0"
       x2="0"
       y2="1"
       gradientTransform="matrix(4,0,0,12,28,46)">
      <stop
         offset="0"
         style="stop-color:#cff3fe;stop-opacity:1;"
         id="stop166" />
      <stop
         offset="1"
         style="stop-color:#054cff;stop-opacity:1;"
         id="stop168" />
    </linearGradient>
    <filter
       style="color-interpolation-filters:sRGB;"
       inkscape:label="Diffuse Light"
       id="filter1058"
       x="-0.04"
       y="-0.042857143"
       width="1.08"
       height="1.0857143">
      <feGaussianBlur
         in="SourceGraphic"
         stdDeviation="1"
         result="blur"
         id="feGaussianBlur1048" />
      <feDiffuseLighting
         diffuseConstant="1"
         surfaceScale="10"
         lighting-color="rgb(255,255,255)"
         result="diffuse"
         id="feDiffuseLighting1052">
        <feDistantLight
           elevation="8"
           azimuth="235"
           id="feDistantLight1050" />
      </feDiffuseLighting>
      <feComposite
         in="diffuse"
         in2="diffuse"
         operator="arithmetic"
         k1="1"
         result="composite1"
         id="feComposite1054" />
      <feComposite
         in="composite1"
         in2="SourceGraphic"
         k1="1"
         operator="arithmetic"
         k3="1"
         result="composite2"
         id="feComposite1056" />
    </filter>
  </defs>
  <g
     id="surface1"
     style="filter:url(#filter1058)">
    <path
       style=" stroke:none;fill-rule:nonzero;fill:url(#linear0);"
       d="M 15.980469 4 C 10.941406 4.058594 7.261719 3.878906 4.25 5.542969 C 2.746094 6.371094 1.558594 7.777344 0.902344 9.53125 C 0.238281 11.285156 0 13.371094 0 16 L 0 48 C 0 50.628906 0.238281 52.714844 0.902344 54.46875 C 1.558594 56.222656 2.746094 57.628906 4.25 58.464844 C 7.261719 60.125 10.941406 59.941406 15.980469 60 L 44.027344 60 C 49.058594 59.941406 52.738281 60.125 55.75 58.464844 C 57.253906 57.628906 58.441406 56.222656 59.105469 54.46875 C 59.761719 52.714844 60 50.628906 60 48 L 60 16 C 60 13.371094 59.761719 11.285156 59.105469 9.53125 C 58.441406 7.777344 57.253906 6.371094 55.75 5.542969 C 52.738281 3.878906 49.058594 4.058594 44.027344 4 Z M 16 8 L 44 8 C 49.035156 8.058594 52.347656 8.238281 53.8125 9.046875 C 54.546875 9.453125 54.96875 9.894531 55.359375 10.9375 C 55.75 11.980469 56 13.628906 56 16 L 56 48 C 56 50.371094 55.75 52.019531 55.359375 53.0625 C 54.96875 54.105469 54.546875 54.546875 53.8125 54.953125 C 52.347656 55.761719 49.035156 55.941406 44 56 L 16 56 C 10.964844 55.941406 7.644531 55.761719 6.183594 54.953125 C 5.449219 54.546875 5.03125 54.105469 4.640625 53.0625 C 4.25 52.019531 4 50.371094 4 48 L 4 16 C 4 13.628906 4.25 11.980469 4.640625 10.9375 C 5.03125 9.894531 5.449219 9.453125 6.183594 9.046875 C 7.644531 8.238281 10.964844 8.058594 16 8 Z M 16 8 "
       id="path173" />
    <path
       style=" stroke:none;fill-rule:evenodd;fill:url(#linear1);"
       d="M 2 44 L 2 48 L 58 48 L 58 44 Z M 2 44 "
       id="path175" />
    <path
       style=" stroke:none;fill-rule:evenodd;fill:url(#linear2);"
       d="M 28 46 L 28 58 L 32 58 L 32 46 Z M 28 46 "
       id="path177" />
  </g>
</svg>
