<?xml version="1.0" encoding="UTF-8" standalone="no"?>
<svg
   width="64px"
   height="64px"
   viewBox="0 0 64 64"
   version="1.1"
   id="svg96"
   sodipodi:docname="input-gaming.svg"
   inkscape:version="1.2.2 (b0a8486541, 2022-12-01)"
   xmlns:inkscape="http://www.inkscape.org/namespaces/inkscape"
   xmlns:sodipodi="http://sodipodi.sourceforge.net/DTD/sodipodi-0.dtd"
   xmlns="http://www.w3.org/2000/svg"
   xmlns:svg="http://www.w3.org/2000/svg">
  <sodipodi:namedview
     id="namedview98"
     pagecolor="#ffffff"
     bordercolor="#000000"
     borderopacity="0.25"
     inkscape:showpageshadow="2"
     inkscape:pageopacity="0.0"
     inkscape:pagecheckerboard="0"
     inkscape:deskcolor="#d1d1d1"
     showgrid="false"
     inkscape:zoom="3.6875"
     inkscape:cx="32"
     inkscape:cy="32.135593"
     inkscape:window-width="1432"
     inkscape:window-height="844"
     inkscape:window-x="0"
     inkscape:window-y="0"
     inkscape:window-maximized="1"
     inkscape:current-layer="svg96" />
  <defs
     id="defs91">
    <linearGradient
       id="linear0"
       gradientUnits="userSpaceOnUse"
       x1="0"
       y1="0"
       x2="0"
       y2="1"
       gradientTransform="matrix(60,0,0,47.994792,0.000000000000213163,8)">
      <stop
         offset="0"
         style="stop-color:#f8f1d0;stop-opacity:1;"
         id="stop86" />
      <stop
         offset="1"
         style="stop-color:#e18d0f;stop-opacity:1;"
         id="stop88" />
    </linearGradient>
    <filter
       style="color-interpolation-filters:sRGB;"
       inkscape:label="Diffuse Light"
       id="filter1178"
       x="-0.040000286"
       y="-0.050005335"
       width="1.0800006"
       height="1.1000107">
      <feGaussianBlur
         in="SourceGraphic"
         stdDeviation="1"
         result="blur"
         id="feGaussianBlur1168" />
      <feDiffuseLighting
         diffuseConstant="1"
         surfaceScale="10"
         lighting-color="rgb(255,255,255)"
         result="diffuse"
         id="feDiffuseLighting1172">
        <feDistantLight
           elevation="8"
           azimuth="235"
           id="feDistantLight1170" />
      </feDiffuseLighting>
      <feComposite
         in="diffuse"
         in2="diffuse"
         operator="arithmetic"
         k1="1"
         result="composite1"
         id="feComposite1174" />
      <feComposite
         in="composite1"
         in2="SourceGraphic"
         k1="1"
         operator="arithmetic"
         k3="1"
         result="composite2"
         id="feComposite1176" />
    </filter>
  </defs>
  <g
     id="surface1"
     style="filter:url(#filter1178)">
    <path
       style=" stroke:none;fill-rule:nonzero;fill:url(#linear0);"
       d="M 28 8 L 28 10 L 32 10 L 32 8 Z M 28 12 L 28 14 L 32 14 L 32 12 Z M 28 16 L 28 28 L 14 28 C 13.863281 27.996094 13.734375 28.011719 13.605469 28.03125 C 7.441406 28.207031 2.078125 32.394531 0.480469 38.375 C -1.160156 44.488281 1.519531 50.964844 7 54.125 C 12.433594 57.265625 19.300781 56.378906 23.78125 52 L 36.21875 52 C 40.699219 56.378906 47.566406 57.265625 53 54.125 C 58.480469 50.964844 61.160156 44.488281 59.527344 38.375 C 57.917969 32.386719 52.542969 28.199219 46.375 28.03125 C 46.25 28.003906 46.125 28 46 28 L 32 28 L 32 16 Z M 14 32 L 46 32 C 50.535156 32 54.488281 35.03125 55.667969 39.417969 C 56.839844 43.796875 54.925781 48.394531 51 50.667969 C 47.285156 52.808594 42.691406 52.3125 39.496094 49.546875 C 38.96875 49.027344 38.457031 47.984375 37.515625 48 L 22.484375 48 C 21.546875 47.988281 20.90625 49.074219 20.515625 49.542969 C 17.3125 52.3125 12.714844 52.808594 9 50.667969 C 5.074219 48.394531 3.171875 43.796875 4.34375 39.417969 C 5.515625 35.03125 9.464844 32 14 32 Z M 12 36 L 12 40 L 8 40 L 8 44 L 12 44 L 12 48 L 16 48 L 16 44 L 20 44 L 20 40 L 16 40 L 16 36 Z M 46 36 C 44.894531 36 44 36.894531 44 38 C 44 39.105469 44.894531 40 46 40 C 47.105469 40 48 39.105469 48 38 C 48 36.894531 47.105469 36 46 36 Z M 42 40 C 40.894531 40 40 40.894531 40 42 C 40 43.105469 40.894531 44 42 44 C 43.105469 44 44 43.105469 44 42 C 44 40.894531 43.105469 40 42 40 Z M 50 40 C 48.894531 40 48 40.894531 48 42 C 48 43.105469 48.894531 44 50 44 C 51.105469 44 52 43.105469 52 42 C 52 40.894531 51.105469 40 50 40 Z M 46 44 C 44.894531 44 44 44.894531 44 46 C 44 47.105469 44.894531 48 46 48 C 47.105469 48 48 47.105469 48 46 C 48 44.894531 47.105469 44 46 44 Z M 46 44 "
       id="path93" />
  </g>
</svg>
