<?xml version="1.0" encoding="UTF-8" standalone="no"?>
<svg
   width="64px"
   height="64px"
   viewBox="0 0 64 64"
   version="1.1"
   id="svg344"
   sodipodi:docname="media-flash-memory-stick.svg"
   inkscape:version="1.2.2 (b0a8486541, 2022-12-01)"
   xmlns:inkscape="http://www.inkscape.org/namespaces/inkscape"
   xmlns:sodipodi="http://sodipodi.sourceforge.net/DTD/sodipodi-0.dtd"
   xmlns="http://www.w3.org/2000/svg"
   xmlns:svg="http://www.w3.org/2000/svg">
  <sodipodi:namedview
     id="namedview346"
     pagecolor="#ffffff"
     bordercolor="#000000"
     borderopacity="0.25"
     inkscape:showpageshadow="2"
     inkscape:pageopacity="0.0"
     inkscape:pagecheckerboard="0"
     inkscape:deskcolor="#d1d1d1"
     showgrid="false"
     inkscape:zoom="3.6875"
     inkscape:cx="32"
     inkscape:cy="32.135593"
     inkscape:window-width="1432"
     inkscape:window-height="844"
     inkscape:window-x="0"
     inkscape:window-y="0"
     inkscape:window-maximized="1"
     inkscape:current-layer="svg344" />
  <defs
     id="defs339">
    <linearGradient
       id="linear0"
       gradientUnits="userSpaceOnUse"
       x1="0"
       y1="0"
       x2="0"
       y2="1"
       gradientTransform="matrix(44.864583,0,0,64,9.567708,0)">
      <stop
         offset="0"
         style="stop-color:#d9f7d8;stop-opacity:1;"
         id="stop334" />
      <stop
         offset="1"
         style="stop-color:#1d5911;stop-opacity:1;"
         id="stop336" />
    </linearGradient>
    <filter
       style="color-interpolation-filters:sRGB;"
       inkscape:label="Diffuse Light"
       id="filter834"
       x="-0.053491206"
       y="-0.0375"
       width="1.1069824"
       height="1.075">
      <feGaussianBlur
         in="SourceGraphic"
         stdDeviation="1"
         result="blur"
         id="feGaussianBlur824" />
      <feDiffuseLighting
         diffuseConstant="1"
         surfaceScale="10"
         lighting-color="rgb(255,255,255)"
         result="diffuse"
         id="feDiffuseLighting828">
        <feDistantLight
           elevation="8"
           azimuth="235"
           id="feDistantLight826" />
      </feDiffuseLighting>
      <feComposite
         in="diffuse"
         in2="diffuse"
         operator="arithmetic"
         k1="1"
         result="composite1"
         id="feComposite830" />
      <feComposite
         in="composite1"
         in2="SourceGraphic"
         k1="1"
         operator="arithmetic"
         k3="1"
         result="composite2"
         id="feComposite832" />
    </filter>
  </defs>
  <g
     id="surface1"
     style="filter:url(#filter834)">
    <path
       style=" stroke:none;fill-rule:nonzero;fill:url(#linear0);"
       d="M 16.644531 11.417969 L 20.878906 11.417969 L 20.878906 18.816406 L 16.644531 18.816406 Z M 23.800781 4.503906 L 28.199219 4.503906 L 28.199219 11.90625 L 23.800781 11.90625 Z M 35.707031 11.90625 L 31.074219 11.90625 L 31.074219 4.503906 L 35.707031 4.503906 Z M 43.097656 11.90625 L 38.582031 11.90625 L 38.582031 4.503906 L 43.09375 4.503906 L 43.09375 11.90625 Z M 50.488281 11.90625 L 45.972656 11.90625 L 45.972656 4.503906 L 50.488281 4.503906 Z M 11.457031 27.894531 L 9.566406 27.894531 L 9.566406 60.472656 C 9.566406 62.421875 11.003906 64 12.765625 64 L 51.234375 64 C 53 64 54.433594 62.421875 54.433594 60.472656 L 54.433594 32.199219 L 52.042969 32.199219 C 51.15625 32.199219 50.4375 31.410156 50.4375 30.4375 L 50.4375 19.53125 C 50.4375 18.5625 51.15625 17.769531 52.042969 17.769531 L 54.433594 17.769531 L 54.433594 3.527344 C 54.433594 1.578125 53 0 51.234375 0 L 25.230469 0 C 23.953125 0 22.722656 0.5625 21.816406 1.5625 L 10.957031 13.644531 C 10.066406 14.636719 9.566406 15.972656 9.566406 17.371094 L 9.566406 22.082031 L 11.457031 22.082031 C 12.339844 22.082031 12.125 23.230469 13.058594 23.84375 L 13.058594 26.128906 C 13.058594 27.109375 12.296875 26.636719 11.457031 27.894531 Z M 11.457031 27.894531 "
       id="path341" />
  </g>
</svg>
