<?xml version="1.0" encoding="UTF-8" standalone="no"?>
<svg
   width="64px"
   height="64px"
   viewBox="0 0 64 64"
   version="1.1"
   id="svg365"
   sodipodi:docname="media-floppy.svg"
   inkscape:version="1.2.2 (b0a8486541, 2022-12-01)"
   xmlns:inkscape="http://www.inkscape.org/namespaces/inkscape"
   xmlns:sodipodi="http://sodipodi.sourceforge.net/DTD/sodipodi-0.dtd"
   xmlns="http://www.w3.org/2000/svg"
   xmlns:svg="http://www.w3.org/2000/svg">
  <sodipodi:namedview
     id="namedview367"
     pagecolor="#ffffff"
     bordercolor="#000000"
     borderopacity="0.25"
     inkscape:showpageshadow="2"
     inkscape:pageopacity="0.0"
     inkscape:pagecheckerboard="0"
     inkscape:deskcolor="#d1d1d1"
     showgrid="false"
     inkscape:zoom="3.6875"
     inkscape:cx="32"
     inkscape:cy="32.135593"
     inkscape:window-width="1432"
     inkscape:window-height="844"
     inkscape:window-x="0"
     inkscape:window-y="0"
     inkscape:window-maximized="1"
     inkscape:current-layer="svg365" />
  <defs
     id="defs358">
    <linearGradient
       id="linear0"
       gradientUnits="userSpaceOnUse"
       x1="0"
       y1="0"
       x2="0"
       y2="1"
       gradientTransform="matrix(56,0,0,56,4,4)">
      <stop
         offset="0"
         style="stop-color:#cff3fe;stop-opacity:1;"
         id="stop348" />
      <stop
         offset="1"
         style="stop-color:#054cff;stop-opacity:1;"
         id="stop350" />
    </linearGradient>
    <linearGradient
       id="linear1"
       gradientUnits="userSpaceOnUse"
       x1="0"
       y1="0"
       x2="0"
       y2="1"
       gradientTransform="matrix(32,0,0,20,16,36)">
      <stop
         offset="0"
         style="stop-color:#cff3fe;stop-opacity:1;"
         id="stop353" />
      <stop
         offset="1"
         style="stop-color:#054cff;stop-opacity:1;"
         id="stop355" />
    </linearGradient>
    <filter
       style="color-interpolation-filters:sRGB;"
       inkscape:label="Diffuse Light"
       id="filter792"
       x="-0.085714286"
       y="-0.085714286"
       width="1.1714286"
       height="1.1714286">
      <feGaussianBlur
         in="SourceGraphic"
         stdDeviation="2"
         result="blur"
         id="feGaussianBlur782" />
      <feDiffuseLighting
         diffuseConstant="1"
         surfaceScale="10"
         lighting-color="rgb(255,255,255)"
         result="diffuse"
         id="feDiffuseLighting786">
        <feDistantLight
           elevation="8"
           azimuth="235"
           id="feDistantLight784" />
      </feDiffuseLighting>
      <feComposite
         in="diffuse"
         in2="diffuse"
         operator="arithmetic"
         k1="1"
         result="composite1"
         id="feComposite788" />
      <feComposite
         in="composite1"
         in2="SourceGraphic"
         k1="1"
         operator="arithmetic"
         k3="1"
         result="composite2"
         id="feComposite790" />
    </filter>
  </defs>
  <g
     id="surface1"
     style="filter:url(#filter792)">
    <path
       style=" stroke:none;fill-rule:nonzero;fill:url(#linear0);"
       d="M 19.980469 4 C 14.941406 4.058594 11.261719 3.878906 8.25 5.542969 C 6.746094 6.371094 5.558594 7.777344 4.902344 9.53125 C 4.238281 11.285156 4 13.371094 4 16 L 4 48.828125 L 15.171875 60 L 44.027344 60 C 49.058594 59.941406 52.738281 60.125 55.75 58.464844 C 57.253906 57.628906 58.441406 56.222656 59.105469 54.46875 C 59.761719 52.714844 60 50.628906 60 48 L 60 16 C 60 13.371094 59.761719 11.285156 59.105469 9.53125 C 58.441406 7.777344 57.253906 6.371094 55.75 5.542969 C 52.738281 3.878906 49.058594 4.058594 44.027344 4 Z M 20 8 L 44 8 C 49.035156 8.058594 52.359375 8.238281 53.824219 9.046875 C 54.550781 9.453125 54.96875 9.894531 55.359375 10.9375 C 55.75 11.980469 56 13.628906 56 16 L 56 48 C 56 50.371094 55.75 52.019531 55.359375 53.0625 C 54.96875 54.105469 54.550781 54.546875 53.824219 54.953125 C 52.355469 55.761719 49.03125 55.941406 43.980469 56 L 16.828125 56 L 8 47.171875 L 8 16 C 8 13.628906 8.25 11.980469 8.640625 10.9375 C 9.03125 9.894531 9.453125 9.453125 10.1875 9.046875 C 11.652344 8.238281 14.964844 8.058594 20 8 Z M 20 8 "
       id="path360" />
    <path
       style=" stroke:none;fill-rule:nonzero;fill:url(#linear1);"
       d="M 16 36 L 16 56 L 24 56 L 24 40 L 32 40 L 32 56 L 48 56 L 48 36 Z M 16 36 "
       id="path362" />
  </g>
</svg>
