<?xml version="1.0" encoding="UTF-8" standalone="no"?>
<svg
   width="64px"
   height="64px"
   viewBox="0 0 64 64"
   version="1.1"
   id="svg335"
   sodipodi:docname="network-server.svg"
   inkscape:version="1.2.2 (b0a8486541, 2022-12-01)"
   xmlns:inkscape="http://www.inkscape.org/namespaces/inkscape"
   xmlns:sodipodi="http://sodipodi.sourceforge.net/DTD/sodipodi-0.dtd"
   xmlns="http://www.w3.org/2000/svg"
   xmlns:svg="http://www.w3.org/2000/svg">
  <sodipodi:namedview
     id="namedview337"
     pagecolor="#ffffff"
     bordercolor="#000000"
     borderopacity="0.25"
     inkscape:showpageshadow="2"
     inkscape:pageopacity="0.0"
     inkscape:pagecheckerboard="0"
     inkscape:deskcolor="#d1d1d1"
     showgrid="false"
     inkscape:zoom="3.6875"
     inkscape:cx="32"
     inkscape:cy="32.135593"
     inkscape:window-width="1432"
     inkscape:window-height="844"
     inkscape:window-x="0"
     inkscape:window-y="0"
     inkscape:window-maximized="1"
     inkscape:current-layer="svg335" />
  <defs
     id="defs330">
    <linearGradient
       id="linear0"
       gradientUnits="userSpaceOnUse"
       x1="0"
       y1="0"
       x2="0"
       y2="1"
       gradientTransform="matrix(55.34375,0,0,64,4.328125,0)">
      <stop
         offset="0"
         style="stop-color:#c5eeed;stop-opacity:1;"
         id="stop325" />
      <stop
         offset="1"
         style="stop-color:#0c7672;stop-opacity:1;"
         id="stop327" />
    </linearGradient>
    <filter
       style="color-interpolation-filters:sRGB;"
       inkscape:label="Diffuse Light"
       id="filter742"
       x="-0.04336533"
       y="-0.0375"
       width="1.0867307"
       height="1.075">
      <feGaussianBlur
         in="SourceGraphic"
         stdDeviation="1"
         result="blur"
         id="feGaussianBlur732" />
      <feDiffuseLighting
         diffuseConstant="1"
         surfaceScale="10"
         lighting-color="rgb(255,255,255)"
         result="diffuse"
         id="feDiffuseLighting736">
        <feDistantLight
           elevation="8"
           azimuth="235"
           id="feDistantLight734" />
      </feDiffuseLighting>
      <feComposite
         in="diffuse"
         in2="diffuse"
         operator="arithmetic"
         k1="1"
         result="composite1"
         id="feComposite738" />
      <feComposite
         in="composite1"
         in2="SourceGraphic"
         k1="1"
         operator="arithmetic"
         k3="1"
         result="composite2"
         id="feComposite740" />
    </filter>
  </defs>
  <g
     id="surface1"
     style="filter:url(#filter742)">
    <path
       style=" stroke:none;fill-rule:evenodd;fill:url(#linear0);"
       d="M 16.433594 26.8125 C 19.199219 26.8125 21.625 29.234375 21.625 32 C 21.625 34.765625 19.199219 37.1875 16.433594 37.1875 C 13.667969 37.1875 11.246094 34.765625 11.246094 32 C 11.246094 29.234375 13.667969 26.8125 16.433594 26.8125 Z M 16.433594 3.457031 C 19.199219 3.457031 21.625 5.878906 21.625 8.644531 C 21.625 11.417969 19.199219 13.839844 16.433594 13.839844 C 13.667969 13.839844 11.246094 11.417969 11.246094 8.644531 C 11.246094 5.878906 13.667969 3.457031 16.433594 3.457031 Z M 7.785156 23.355469 C 5.703125 23.355469 4.328125 24.730469 4.328125 26.8125 L 4.328125 37.1875 C 4.328125 39.269531 5.703125 40.644531 7.785156 40.644531 L 56.214844 40.644531 C 58.296875 40.644531 59.671875 39.269531 59.671875 37.1875 L 59.671875 26.8125 C 59.671875 24.730469 58.296875 23.355469 56.214844 23.355469 Z M 7.785156 0 C 5.703125 0 4.328125 1.375 4.328125 3.457031 L 4.328125 13.839844 C 4.328125 15.921875 5.703125 17.296875 7.785156 17.296875 L 56.214844 17.296875 C 58.296875 17.296875 59.671875 15.921875 59.671875 13.839844 L 59.671875 3.457031 C 59.671875 1.375 58.296875 0 56.214844 0 Z M 16.433594 50.160156 C 19.199219 50.160156 21.625 52.582031 21.625 55.355469 C 21.625 58.121094 19.199219 60.542969 16.433594 60.542969 C 13.667969 60.542969 11.246094 58.121094 11.246094 55.355469 C 11.246094 52.582031 13.667969 50.160156 16.433594 50.160156 Z M 7.785156 46.703125 C 5.703125 46.703125 4.328125 48.078125 4.328125 50.160156 L 4.328125 60.542969 C 4.328125 62.625 5.703125 64 7.785156 64 L 56.214844 64 C 58.296875 64 59.671875 62.625 59.671875 60.542969 L 59.671875 50.160156 C 59.671875 48.078125 58.296875 46.703125 56.214844 46.703125 Z M 7.785156 46.703125 "
       id="path332" />
  </g>
</svg>
