<?xml version="1.0" encoding="UTF-8" standalone="no"?>
<svg
   width="64px"
   height="64px"
   viewBox="0 0 64 64"
   version="1.1"
   id="svg349"
   sodipodi:docname="network-vpn.svg"
   inkscape:version="1.2.2 (b0a8486541, 2022-12-01)"
   xmlns:inkscape="http://www.inkscape.org/namespaces/inkscape"
   xmlns:sodipodi="http://sodipodi.sourceforge.net/DTD/sodipodi-0.dtd"
   xmlns="http://www.w3.org/2000/svg"
   xmlns:svg="http://www.w3.org/2000/svg">
  <sodipodi:namedview
     id="namedview351"
     pagecolor="#ffffff"
     bordercolor="#000000"
     borderopacity="0.25"
     inkscape:showpageshadow="2"
     inkscape:pageopacity="0.0"
     inkscape:pagecheckerboard="0"
     inkscape:deskcolor="#d1d1d1"
     showgrid="false"
     inkscape:zoom="3.6875"
     inkscape:cx="32"
     inkscape:cy="32.135593"
     inkscape:window-width="1432"
     inkscape:window-height="844"
     inkscape:window-x="0"
     inkscape:window-y="0"
     inkscape:window-maximized="1"
     inkscape:current-layer="svg349" />
  <defs
     id="defs344">
    <linearGradient
       id="linear0"
       gradientUnits="userSpaceOnUse"
       x1="0"
       y1="0"
       x2="0"
       y2="1"
       gradientTransform="matrix(48,0,0,63.875,8,0.125)">
      <stop
         offset="0"
         style="stop-color:#e3cfff;stop-opacity:1;"
         id="stop339" />
      <stop
         offset="1"
         style="stop-color:#7d05ff;stop-opacity:1;"
         id="stop341" />
    </linearGradient>
    <filter
       style="color-interpolation-filters:sRGB;"
       inkscape:label="Diffuse Light"
       id="filter716"
       x="-0.05"
       y="-0.037573386"
       width="1.1"
       height="1.0751468">
      <feGaussianBlur
         in="SourceGraphic"
         stdDeviation="1"
         result="blur"
         id="feGaussianBlur706" />
      <feDiffuseLighting
         diffuseConstant="1"
         surfaceScale="10"
         lighting-color="rgb(255,255,255)"
         result="diffuse"
         id="feDiffuseLighting710">
        <feDistantLight
           elevation="8"
           azimuth="235"
           id="feDistantLight708" />
      </feDiffuseLighting>
      <feComposite
         in="diffuse"
         in2="diffuse"
         operator="arithmetic"
         k1="1"
         result="composite1"
         id="feComposite712" />
      <feComposite
         in="composite1"
         in2="SourceGraphic"
         k1="1"
         operator="arithmetic"
         k3="1"
         result="composite2"
         id="feComposite714" />
    </filter>
  </defs>
  <g
     id="surface1"
     style="filter:url(#filter716)">
    <path
       style=" stroke:none;fill-rule:evenodd;fill:url(#linear0);"
       d="M 17.25 32 L 12 32 C 9.792969 32 8 33.792969 8 36 L 8 60 C 8 62.207031 9.792969 64 12 64 L 52 64 C 54.207031 64 56 62.207031 56 60 L 56 36 C 56 33.792969 54.207031 32 52 32 L 47 32 L 47 15 C 47 6.792969 40.339844 0.125 32.125 0.125 C 23.917969 0.125 17.25 6.792969 17.25 15 Z M 22.578125 32 L 41.671875 32 L 41.671875 15.769531 C 41.671875 10.308594 37.394531 5.875 32.125 5.875 C 26.855469 5.875 22.578125 10.308594 22.578125 15.769531 Z M 22.578125 32 "
       id="path346" />
  </g>
</svg>
