<?xml version="1.0" encoding="UTF-8" standalone="no"?>
<svg
   width="64px"
   height="64px"
   viewBox="0 0 64 64"
   version="1.1"
   id="svg12"
   sodipodi:docname="phone-google-nexus-one.svg"
   inkscape:version="1.2.2 (b0a8486541, 2022-12-01)"
   xmlns:inkscape="http://www.inkscape.org/namespaces/inkscape"
   xmlns:sodipodi="http://sodipodi.sourceforge.net/DTD/sodipodi-0.dtd"
   xmlns="http://www.w3.org/2000/svg"
   xmlns:svg="http://www.w3.org/2000/svg">
  <sodipodi:namedview
     id="namedview14"
     pagecolor="#ffffff"
     bordercolor="#000000"
     borderopacity="0.25"
     inkscape:showpageshadow="2"
     inkscape:pageopacity="0.0"
     inkscape:pagecheckerboard="0"
     inkscape:deskcolor="#d1d1d1"
     showgrid="false"
     inkscape:zoom="3.6875"
     inkscape:cx="32"
     inkscape:cy="32.135593"
     inkscape:window-width="1432"
     inkscape:window-height="844"
     inkscape:window-x="0"
     inkscape:window-y="0"
     inkscape:window-maximized="1"
     inkscape:current-layer="svg12" />
  <defs
     id="defs7">
    <linearGradient
       id="linear0"
       gradientUnits="userSpaceOnUse"
       x1="0"
       y1="0"
       x2="0"
       y2="1"
       gradientTransform="matrix(32.046875,0,0,64,15.973958,0)">
      <stop
         offset="0"
         style="stop-color:#cff3fe;stop-opacity:1;"
         id="stop2" />
      <stop
         offset="1"
         style="stop-color:#054cff;stop-opacity:1;"
         id="stop4" />
    </linearGradient>
    <filter
       style="color-interpolation-filters:sRGB;"
       inkscape:label="Diffuse Light"
       id="filter730"
       x="-0.074890297"
       y="-0.037499562"
       width="1.1497806"
       height="1.0749991">
      <feGaussianBlur
         in="SourceGraphic"
         stdDeviation="1"
         result="blur"
         id="feGaussianBlur720" />
      <feDiffuseLighting
         diffuseConstant="1"
         surfaceScale="10"
         lighting-color="rgb(255,255,255)"
         result="diffuse"
         id="feDiffuseLighting724">
        <feDistantLight
           elevation="8"
           azimuth="235"
           id="feDistantLight722" />
      </feDiffuseLighting>
      <feComposite
         in="diffuse"
         in2="diffuse"
         operator="arithmetic"
         k1="1"
         result="composite1"
         id="feComposite726" />
      <feComposite
         in="composite1"
         in2="SourceGraphic"
         k1="1"
         operator="arithmetic"
         k3="1"
         result="composite2"
         id="feComposite728" />
    </filter>
  </defs>
  <g
     id="surface1"
     style="filter:url(#filter730)">
    <path
       style=" stroke:none;fill-rule:nonzero;fill:url(#linear0);"
       d="M 32.566406 0.03125 C 25.761719 -0.113281 16.121094 0.03125 16.121094 5.421875 C 16.121094 12.46875 16.082031 22.003906 16.046875 31.25 C 16.011719 39.949219 15.972656 48.394531 15.972656 54.269531 C 15.972656 63.890625 19.40625 63.910156 30.28125 63.980469 C 30.792969 63.980469 31.316406 63.980469 31.859375 63.984375 C 44.832031 64.089844 48.019531 63.988281 48.019531 54.269531 L 48.019531 5.421875 C 48.019531 0.324219 39.90625 0.171875 33.621094 0.0507812 C 33.261719 0.046875 32.910156 0.0351562 32.566406 0.03125 Z M 29.75 5.472656 L 34.1875 5.472656 C 40.097656 5.394531 47.3125 5.613281 47.3125 10.34375 C 47.3125 15.996094 47.25 20.074219 47.183594 27.09375 C 47.109375 34.433594 47.03125 39.535156 47.03125 45.984375 C 47.03125 53.003906 46.035156 53.859375 32.140625 53.859375 C 18.671875 53.859375 16.828125 52.4375 16.828125 45.984375 C 16.828125 40.863281 16.84375 36.46875 16.859375 29.421875 C 16.878906 21.828125 16.902344 16.738281 16.902344 10.34375 C 16.902344 5.625 23.546875 5.394531 29.75 5.472656 Z M 31.941406 56.019531 C 31.964844 56.019531 31.984375 56.019531 32 56.019531 C 33.65625 56.019531 35 57.363281 35 59.019531 C 35 60.683594 33.65625 62.019531 32 62.019531 C 30.34375 62.019531 29 60.683594 29 59.019531 C 29 57.386719 30.308594 56.050781 31.941406 56.019531 Z M 31.941406 56.019531 "
       id="path9" />
  </g>
</svg>
