<?xml version="1.0" encoding="UTF-8" standalone="no"?>
<svg
   width="64px"
   height="64px"
   viewBox="0 0 64 64"
   version="1.1"
   id="svg117"
   sodipodi:docname="tablet.svg"
   inkscape:version="1.2.2 (b0a8486541, 2022-12-01)"
   xmlns:inkscape="http://www.inkscape.org/namespaces/inkscape"
   xmlns:sodipodi="http://sodipodi.sourceforge.net/DTD/sodipodi-0.dtd"
   xmlns="http://www.w3.org/2000/svg"
   xmlns:svg="http://www.w3.org/2000/svg">
  <sodipodi:namedview
     id="namedview119"
     pagecolor="#ffffff"
     bordercolor="#000000"
     borderopacity="0.25"
     inkscape:showpageshadow="2"
     inkscape:pageopacity="0.0"
     inkscape:pagecheckerboard="0"
     inkscape:deskcolor="#d1d1d1"
     showgrid="false"
     inkscape:zoom="3.6875"
     inkscape:cx="32"
     inkscape:cy="32.135593"
     inkscape:window-width="1432"
     inkscape:window-height="844"
     inkscape:window-x="0"
     inkscape:window-y="0"
     inkscape:window-maximized="1"
     inkscape:current-layer="svg117" />
  <defs
     id="defs108">
    <linearGradient
       id="linear0"
       gradientUnits="userSpaceOnUse"
       x1="0"
       y1="0"
       x2="0"
       y2="1"
       gradientTransform="matrix(64,0,0,48,0,8)">
      <stop
         offset="0"
         style="stop-color:#f8c3c3;stop-opacity:1;"
         id="stop93" />
      <stop
         offset="1"
         style="stop-color:#c60606;stop-opacity:1;"
         id="stop95" />
    </linearGradient>
    <linearGradient
       id="linear1"
       gradientUnits="userSpaceOnUse"
       x1="0"
       y1="0"
       x2="0"
       y2="1"
       gradientTransform="matrix(6,0,0,44,2,10)">
      <stop
         offset="0"
         style="stop-color:#f8c3c3;stop-opacity:1;"
         id="stop98" />
      <stop
         offset="1"
         style="stop-color:#c60606;stop-opacity:1;"
         id="stop100" />
    </linearGradient>
    <linearGradient
       id="linear2"
       gradientUnits="userSpaceOnUse"
       x1="0"
       y1="0"
       x2="0"
       y2="1"
       gradientTransform="matrix(6,0,0,44,56,10)">
      <stop
         offset="0"
         style="stop-color:#f8c3c3;stop-opacity:1;"
         id="stop103" />
      <stop
         offset="1"
         style="stop-color:#c60606;stop-opacity:1;"
         id="stop105" />
    </linearGradient>
    <filter
       style="color-interpolation-filters:sRGB;"
       inkscape:label="Diffuse Light"
       id="filter562"
       x="-0.0375"
       y="-0.05"
       width="1.075"
       height="1.1">
      <feGaussianBlur
         in="SourceGraphic"
         stdDeviation="1"
         result="blur"
         id="feGaussianBlur552" />
      <feDiffuseLighting
         diffuseConstant="1"
         surfaceScale="10"
         lighting-color="rgb(255,255,255)"
         result="diffuse"
         id="feDiffuseLighting556">
        <feDistantLight
           elevation="8"
           azimuth="235"
           id="feDistantLight554" />
      </feDiffuseLighting>
      <feComposite
         in="diffuse"
         in2="diffuse"
         operator="arithmetic"
         k1="1"
         result="composite1"
         id="feComposite558" />
      <feComposite
         in="composite1"
         in2="SourceGraphic"
         k1="1"
         operator="arithmetic"
         k3="1"
         result="composite2"
         id="feComposite560" />
    </filter>
  </defs>
  <g
     id="surface1"
     style="filter:url(#filter562)">
    <path
       style=" stroke:none;fill-rule:nonzero;fill:url(#linear0);"
       d="M 15.980469 8 C 10.941406 8.058594 7.261719 7.878906 4.25 9.542969 C 2.746094 10.371094 1.558594 11.777344 0.902344 13.53125 C 0.238281 15.285156 0 17.371094 0 20 L 0 44 C 0 46.628906 0.238281 48.714844 0.902344 50.46875 C 1.558594 52.222656 2.746094 53.628906 4.25 54.464844 C 7.261719 56.125 10.941406 55.941406 15.980469 56 L 48.027344 56 C 53.058594 55.941406 56.738281 56.125 59.75 54.464844 C 61.253906 53.628906 62.441406 52.222656 63.105469 50.46875 C 63.761719 48.714844 64 46.628906 64 44 L 64 20 C 64 17.371094 63.761719 15.285156 63.105469 13.53125 C 62.441406 11.777344 61.253906 10.371094 59.75 9.542969 C 56.738281 7.878906 53.058594 8.058594 48.027344 8 Z M 16 12 L 48 12 C 53.035156 12.058594 56.347656 12.238281 57.8125 13.046875 C 58.546875 13.453125 58.96875 13.894531 59.359375 14.9375 C 59.75 15.980469 60 17.628906 60 20 L 60 44 C 60 46.371094 59.75 48.019531 59.359375 49.0625 C 58.96875 50.105469 58.546875 50.546875 57.8125 50.953125 C 56.347656 51.761719 53.035156 51.941406 48 52 L 16 52 C 10.964844 51.941406 7.644531 51.761719 6.183594 50.953125 C 5.449219 50.546875 5.03125 50.105469 4.640625 49.0625 C 4.25 48.019531 4 46.371094 4 44 L 4 20 C 4 17.628906 4.25 15.980469 4.640625 14.9375 C 5.03125 13.894531 5.449219 13.453125 6.183594 13.046875 C 7.644531 12.238281 10.964844 12.058594 16 12 Z M 16 12 "
       id="path110" />
    <path
       style=" stroke:none;fill-rule:nonzero;fill:url(#linear1);"
       d="M 2 14 L 6 10 L 8 10 L 8 54 L 6 54 L 2 50 Z M 2 14 "
       id="path112" />
    <path
       style=" stroke:none;fill-rule:nonzero;fill:url(#linear2);"
       d="M 62 14 L 58 10 L 56 10 L 56 54 L 58 54 L 62 50 Z M 62 14 "
       id="path114" />
  </g>
</svg>
