<?xml version="1.0" encoding="UTF-8" standalone="no"?>
<svg
   width="64px"
   height="64px"
   viewBox="0 0 64 64"
   version="1.1"
   id="svg208"
   sodipodi:docname="video-television.svg"
   inkscape:version="1.2.2 (b0a8486541, 2022-12-01)"
   xmlns:inkscape="http://www.inkscape.org/namespaces/inkscape"
   xmlns:sodipodi="http://sodipodi.sourceforge.net/DTD/sodipodi-0.dtd"
   xmlns="http://www.w3.org/2000/svg"
   xmlns:svg="http://www.w3.org/2000/svg">
  <sodipodi:namedview
     id="namedview210"
     pagecolor="#ffffff"
     bordercolor="#000000"
     borderopacity="0.25"
     inkscape:showpageshadow="2"
     inkscape:pageopacity="0.0"
     inkscape:pagecheckerboard="0"
     inkscape:deskcolor="#d1d1d1"
     showgrid="false"
     inkscape:zoom="3.6875"
     inkscape:cx="32"
     inkscape:cy="32.135593"
     inkscape:window-width="1432"
     inkscape:window-height="844"
     inkscape:window-x="0"
     inkscape:window-y="0"
     inkscape:window-maximized="1"
     inkscape:current-layer="svg208" />
  <defs
     id="defs203">
    <linearGradient
       id="linear0"
       gradientUnits="userSpaceOnUse"
       x1="0"
       y1="0"
       x2="0"
       y2="1"
       gradientTransform="matrix(63.96875,0,0,64,0.0156251,0)">
      <stop
         offset="0"
         style="stop-color:#c5eeed;stop-opacity:1;"
         id="stop198" />
      <stop
         offset="1"
         style="stop-color:#0c7672;stop-opacity:1;"
         id="stop200" />
    </linearGradient>
    <filter
       style="color-interpolation-filters:sRGB;"
       inkscape:label="Diffuse Light"
       id="filter420"
       x="-0.037518319"
       y="-0.037499293"
       width="1.0750366"
       height="1.0749986">
      <feGaussianBlur
         in="SourceGraphic"
         stdDeviation="1"
         result="blur"
         id="feGaussianBlur410" />
      <feDiffuseLighting
         diffuseConstant="1"
         surfaceScale="10"
         lighting-color="rgb(255,255,255)"
         result="diffuse"
         id="feDiffuseLighting414">
        <feDistantLight
           elevation="8"
           azimuth="235"
           id="feDistantLight412" />
      </feDiffuseLighting>
      <feComposite
         in="diffuse"
         in2="diffuse"
         operator="arithmetic"
         k1="1"
         result="composite1"
         id="feComposite416" />
      <feComposite
         in="composite1"
         in2="SourceGraphic"
         k1="1"
         operator="arithmetic"
         k3="1"
         result="composite2"
         id="feComposite418" />
    </filter>
  </defs>
  <g
     id="surface1"
     style="filter:url(#filter420)">
    <path
       style=" stroke:none;fill-rule:nonzero;fill:url(#linear0);"
       d="M 48.917969 0.03125 C 48.363281 0.09375 47.847656 0.339844 47.453125 0.722656 L 32 16.183594 L 23.925781 8.105469 C 23.457031 7.628906 22.824219 7.371094 22.160156 7.371094 C 21.496094 7.371094 20.859375 7.628906 20.390625 8.105469 C 19.921875 8.574219 19.65625 9.207031 19.65625 9.871094 C 19.65625 10.535156 19.921875 11.171875 20.390625 11.640625 L 28.464844 19.714844 L 7.394531 19.714844 C 3.316406 19.714844 0.015625 23.019531 0.015625 27.09375 L 0.015625 56.621094 C 0.015625 60.699219 3.316406 64 7.394531 64 L 56.605469 64 C 60.683594 64 63.984375 60.699219 63.984375 56.621094 L 63.984375 27.09375 C 63.984375 23.019531 60.683594 19.714844 56.605469 19.714844 L 35.535156 19.714844 L 50.988281 4.265625 C 51.785156 3.527344 52 2.355469 51.519531 1.378906 C 51.042969 0.40625 49.984375 -0.144531 48.917969 0.03125 Z M 25.847656 24.636719 C 44.160156 24.636719 46.761719 24.683594 46.761719 41.855469 C 46.761719 59.03125 43.984375 59.078125 25.847656 59.078125 C 7.628906 59.078125 4.9375 58.894531 4.9375 41.855469 C 4.9375 24.816406 7.628906 24.636719 25.847656 24.636719 Z M 55.371094 31.863281 C 57.503906 31.863281 59.214844 33.574219 59.214844 35.707031 C 59.214844 37.839844 57.503906 39.550781 55.371094 39.550781 C 54.355469 39.558594 53.371094 39.152344 52.644531 38.433594 C 51.925781 37.707031 51.527344 36.730469 51.527344 35.707031 C 51.527344 33.574219 53.238281 31.859375 55.371094 31.859375 Z M 55.371094 41.703125 C 57.503906 41.703125 59.214844 43.417969 59.214844 45.546875 C 59.214844 47.683594 57.503906 49.390625 55.371094 49.390625 C 54.355469 49.394531 53.371094 48.988281 52.644531 48.269531 C 51.925781 47.546875 51.527344 46.566406 51.527344 45.546875 C 51.527344 43.417969 53.238281 41.703125 55.371094 41.703125 Z M 55.371094 41.703125 "
       id="path205" />
  </g>
</svg>
