<svg xmlns="http://www.w3.org/2000/svg" xmlns:xlink="http://www.w3.org/1999/xlink" width="24" height="24" viewBox="0 0 24 24" version="1.1">
<g id="surface1">
<path style=" stroke:none;fill-rule:nonzero;fill:#565656;fill-opacity:1;" d="M 12.195312 1.363281 C 18.089844 1.363281 22.871094 6.136719 22.871094 12.019531 C 22.871094 17.90625 18.089844 22.679688 12.195312 22.679688 C 6.304688 22.679688 1.523438 17.90625 1.523438 12.019531 C 1.523438 6.136719 6.304688 1.363281 12.195312 1.363281 Z M 12.195312 3.730469 C 7.609375 3.730469 3.890625 7.441406 3.890625 12.019531 C 3.890625 16.601562 7.609375 20.3125 12.195312 20.3125 C 16.785156 20.3125 20.503906 16.601562 20.503906 12.019531 C 20.503906 7.441406 16.785156 3.730469 12.195312 3.730469 Z M 12.925781 8.46875 L 15.28125 10.292969 L 17.671875 12.019531 L 15.28125 13.75 L 12.925781 15.574219 L 12.960938 13.207031 L 6.296875 13.207031 L 7.617188 10.835938 L 12.957031 10.835938 Z M 12.925781 8.46875 "/>
</g>
</svg>
