<?xml version="1.0" encoding="UTF-8" standalone="no"?>
<svg
   width="24"
   height="24"
   viewBox="0 0 24 24"
   version="1.1"
   id="svg7"
   sodipodi:docname="jwm-logo.svg"
   inkscape:version="1.2.2 (b0a8486541, 2022-12-01)"
   xmlns:inkscape="http://www.inkscape.org/namespaces/inkscape"
   xmlns:sodipodi="http://sodipodi.sourceforge.net/DTD/sodipodi-0.dtd"
   xmlns="http://www.w3.org/2000/svg"
   xmlns:svg="http://www.w3.org/2000/svg">
  <defs
     id="defs11" />
  <sodipodi:namedview
     id="namedview9"
     pagecolor="#ffffff"
     bordercolor="#000000"
     borderopacity="0.25"
     inkscape:showpageshadow="2"
     inkscape:pageopacity="0.0"
     inkscape:pagecheckerboard="0"
     inkscape:deskcolor="#d1d1d1"
     showgrid="false"
     inkscape:zoom="9.8333333"
     inkscape:cx="12"
     inkscape:cy="12.050847"
     inkscape:window-width="1432"
     inkscape:window-height="844"
     inkscape:window-x="0"
     inkscape:window-y="0"
     inkscape:window-maximized="1"
     inkscape:current-layer="svg7" />
  <g
     id="surface1"
     style="fill:#cccccc">
    <path
       style="stroke:none;fill-rule:nonzero;fill:#cccccc;fill-opacity:1"
       d="M 3 15 C 3 16.378906 3.671875 17.5 4.5 17.5 C 5.328125 17.5 6 16.378906 6 15 L 6 0 L 10.5 12 L 12 0 L 16.5 12 L 18 0 L 21 0 L 18 24 L 13.5 12 L 12 24 L 9 18 C 9.828125 20.210938 8.710938 22.671875 6.5 23.5 C 4.289062 24.328125 1.828125 23.210938 1 21 "
       id="path2" />
    <path
       style="fill-rule:nonzero;fill:#cccccc;fill-opacity:1;stroke-width:1;stroke-linecap:butt;stroke-linejoin:miter;stroke:rgb(0%, 0%, 0%);stroke-opacity:1;stroke-miterlimit:4"
       d="M 24 0 L 36 0 L 48 48 L 36 48 Z M 48 0 L 60 0 L 72 48 L 60 48 Z M 72 0 L 84 0 L 96 48 L 84 48 Z M 72 0 "
       transform="matrix(0.25,0,0,0.5,0,0)"
       id="path4" />
  </g>
</svg>
