<svg xmlns="http://www.w3.org/2000/svg" xmlns:xlink="http://www.w3.org/1999/xlink" width="24" height="24" viewBox="0 0 24 24" version="1.1">
<g id="surface1">
<path style=" stroke:none;fill-rule:nonzero;fill:#aaaaaa;fill-opacity:1;" d="M 12.203125 1.550781 C 17.988281 1.550781 22.683594 6.320312 22.683594 12.203125 C 22.683594 18.082031 17.988281 22.855469 12.203125 22.855469 C 6.417969 22.855469 1.726562 18.082031 1.726562 12.203125 C 1.726562 6.320312 6.417969 1.550781 12.203125 1.550781 Z M 12.203125 3.914062 C 7.703125 3.914062 4.054688 7.625 4.054688 12.203125 C 4.054688 16.78125 7.703125 20.488281 12.203125 20.488281 C 16.707031 20.488281 20.355469 16.78125 20.355469 12.203125 C 20.355469 7.625 16.707031 3.914062 12.203125 3.914062 Z M 15.828125 13.386719 L 6.414062 13.386719 L 7.710938 11.015625 L 17.265625 11.015625 Z M 15.828125 13.386719 "/>
</g>
</svg>
