<svg width="64px" height="64px" viewBox="0 0 64 64" version="1.1" id="svg12" inkscape:version="1.2.2 (b0a8486541, 2022-12-01)" xmlns:inkscape="http://www.inkscape.org/namespaces/inkscape" xmlns:sodipodi="http://sodipodi.sourceforge.net/DTD/sodipodi-0.dtd" xmlns="http://www.w3.org/2000/svg" xmlns:svg="http://www.w3.org/2000/svg"> <sodipodi:namedview id="namedview14" pagecolor="#ffffff" bordercolor="#000000" borderopacity="0.25" inkscape:showpageshadow="2" inkscape:pageopacity="0.0" inkscape:pagecheckerboard="0" inkscape:deskcolor="#d1d1d1" showgrid="false" inkscape:zoom="3.6875" inkscape:cx="32" inkscape:cy="32.135593" inkscape:window-width="1432" inkscape:window-height="844" inkscape:window-x="0" inkscape:window-y="0" inkscape:window-maximized="1" inkscape:current-layer="svg12" /> <defs id="defs7"> <linearGradient id="linear0" gradientUnits="userSpaceOnUse" x1="0" y1="0" x2="0" y2="1" gradientTransform="matrix(64,0,0,56,0,4)"> <stop offset="0" style="stop-color:#008753;stop-opacity:1;" id="stop2" /> <stop offset="1" style="stop-color:#004f31;stop-opacity:1;" id="stop4" /> </linearGradient> <filter style="color-interpolation-filters:sRGB;" inkscape:label="Diffuse Light" id="filter184" x="-0.11210663" y="-0.12812186" width="1.2242133" height="1.2562437"> <feGaussianBlur in="SourceGraphic" stdDeviation="2.98951" result="blur" id="feGaussianBlur174" /> <feDiffuseLighting diffuseConstant="1" surfaceScale="10" lighting-color="rgb(255,255,255)" result="diffuse" id="feDiffuseLighting178"> <feDistantLight elevation="38" azimuth="235" id="feDistantLight176" /> </feDiffuseLighting> <feComposite in="diffuse" in2="diffuse" operator="arithmetic" k1="1" result="composite1" id="feComposite180" /> <feComposite in="composite1" in2="SourceGraphic" k1="1" operator="arithmetic" k3="1" result="composite2" id="feComposite182" /> </filter> </defs> <g id="surface1" style="filter:url(#filter184)">
<path style=" stroke:none;fill-rule:nonzero;fill:url(#linear0);" d="M 50.105469 2.667969 C 49.496094 2.660156 48.953125 3.050781 48.761719 3.628906 L 41.84375 25.015625 L 22.15625 25.015625 L 15.238281 3.628906 C 15.050781 3.066406 14.535156 2.683594 13.949219 2.667969 C 13.355469 2.65625 12.824219 3.015625 12.609375 3.574219 L 4.269531 25.910156 C 4.265625 25.910156 4.265625 25.917969 4.261719 25.921875 L 0.0898438 37.09375 C -0.128906 37.6875 0.0664062 38.347656 0.578125 38.714844 L 31.171875 61.058594 L 31.175781 61.066406 C 31.1875 61.066406 31.1875 61.066406 31.1875 61.074219 L 31.238281 61.105469 C 31.261719 61.113281 31.277344 61.128906 31.296875 61.140625 C 31.308594 61.140625 31.308594 61.144531 31.3125 61.144531 C 31.3125 61.144531 31.316406 61.152344 31.324219 61.152344 C 31.328125 61.15625 31.332031 61.167969 31.34375 61.167969 L 31.363281 61.183594 C 31.390625 61.191406 31.421875 61.207031 31.457031 61.21875 L 31.457031 61.222656 L 31.550781 61.253906 C 31.558594 61.253906 31.558594 61.253906 31.5625 61.261719 C 31.582031 61.265625 31.609375 61.277344 31.628906 61.285156 C 31.640625 61.285156 31.652344 61.292969 31.667969 61.292969 C 31.667969 61.296875 31.667969 61.296875 31.667969 61.292969 C 31.699219 61.300781 31.722656 61.308594 31.75 61.3125 L 31.859375 61.328125 C 31.917969 61.328125 31.972656 61.332031 32.027344 61.332031 C 32.082031 61.328125 32.128906 61.328125 32.183594 61.316406 C 32.203125 61.316406 32.21875 61.316406 32.238281 61.3125 L 32.25 61.3125 C 32.261719 61.308594 32.265625 61.308594 32.277344 61.308594 C 32.28125 61.308594 32.285156 61.300781 32.296875 61.300781 C 32.3125 61.296875 32.328125 61.296875 32.339844 61.292969 C 32.355469 61.285156 32.375 61.28125 32.390625 61.269531 C 32.402344 61.269531 32.40625 61.269531 32.410156 61.265625 L 32.433594 61.265625 C 32.480469 61.25 32.527344 61.230469 32.574219 61.207031 C 32.578125 61.207031 32.578125 61.207031 32.582031 61.203125 C 32.589844 61.203125 32.59375 61.203125 32.597656 61.199219 L 32.628906 61.183594 C 32.660156 61.167969 32.6875 61.152344 32.71875 61.128906 C 32.730469 61.125 32.734375 61.121094 32.738281 61.113281 C 32.746094 61.113281 32.75 61.109375 32.753906 61.109375 C 32.777344 61.09375 32.796875 61.082031 32.824219 61.066406 L 32.832031 61.050781 L 63.425781 38.71875 C 63.933594 38.34375 64.128906 37.6875 63.910156 37.097656 L 59.75 25.957031 C 59.746094 25.949219 59.738281 25.933594 59.738281 25.921875 L 51.390625 3.574219 C 51.1875 3.03125 50.675781 2.671875 50.105469 2.667969 Z M 8.441406 27.808594 L 20.136719 27.808594 L 28.28125 52.972656 Z M 43.863281 27.808594 L 55.5625 27.808594 L 35.71875 52.972656 Z M 6 29.21875 L 24.609375 52.816406 L 3.066406 37.089844 Z M 58 29.21875 L 60.933594 37.089844 L 39.390625 52.816406 Z M 58 29.21875 "/>
</g>
</svg>
