<?xml version="1.0" encoding="UTF-8" standalone="no"?>
<svg
   width="22"
   height="22"
   viewBox="0 0 22 22"
   version="1.1"
   id="svg7"
   sodipodi:docname="jwm-logo.svg"
   inkscape:version="1.2.2 (b0a8486541, 2022-12-01)"
   xmlns:inkscape="http://www.inkscape.org/namespaces/inkscape"
   xmlns:sodipodi="http://sodipodi.sourceforge.net/DTD/sodipodi-0.dtd"
   xmlns="http://www.w3.org/2000/svg"
   xmlns:svg="http://www.w3.org/2000/svg">
  <defs
     id="defs11" />
  <sodipodi:namedview
     id="namedview9"
     pagecolor="#ffffff"
     bordercolor="#000000"
     borderopacity="0.25"
     inkscape:showpageshadow="2"
     inkscape:pageopacity="0.0"
     inkscape:pagecheckerboard="0"
     inkscape:deskcolor="#d1d1d1"
     showgrid="false"
     inkscape:zoom="10.727273"
     inkscape:cx="11"
     inkscape:cy="11.04661"
     inkscape:window-width="1432"
     inkscape:window-height="844"
     inkscape:window-x="0"
     inkscape:window-y="0"
     inkscape:window-maximized="1"
     inkscape:current-layer="svg7" />
  <g
     id="surface1"
     style="fill:#cccccc">
    <path
       style="stroke:none;fill-rule:nonzero;fill:#cccccc;fill-opacity:1"
       d="M 2.75 13.75 C 2.75 15.015625 3.367188 16.042969 4.125 16.042969 C 4.882812 16.042969 5.5 15.015625 5.5 13.75 L 5.5 0 L 9.625 11 L 11 0 L 15.125 11 L 16.5 0 L 19.25 0 L 16.5 22 L 12.375 11 L 11 22 L 8.25 16.5 C 9.007812 18.523438 7.984375 20.78125 5.957031 21.542969 C 3.933594 22.300781 1.675781 21.273438 0.917969 19.25 "
       id="path2" />
    <path
       style="fill-rule:nonzero;fill:#cccccc;fill-opacity:1;stroke-width:1;stroke-linecap:butt;stroke-linejoin:miter;stroke:rgb(0%, 0%, 0%);stroke-opacity:1;stroke-miterlimit:4"
       d="M 24 0 L 36 0 L 48 48 L 36 48 Z M 48 0 L 60 0 L 72 48 L 60 48 Z M 72 0 L 84 0 L 96 48 L 84 48 Z M 72 0 "
       transform="matrix(0.229167,0,0,0.458333,0,0)"
       id="path4" />
  </g>
</svg>
