<svg xmlns="http://www.w3.org/2000/svg" xmlns:xlink="http://www.w3.org/1999/xlink" width="22" height="22" viewBox="0 0 22 22" version="1.1">
<g id="surface1">
<path style=" stroke:none;fill-rule:evenodd;fill:#aaaaaa;fill-opacity:1;" d="M 7.375 10.9375 L 7.375 20 L 4.59375 18.976562 L 4.636719 10.984375 L 1.972656 11.027344 C 1.972656 11.027344 3.472656 6.382812 5.867188 2.15625 C 5.875 2.15625 5.875 2.15625 5.875 2.15625 C 5.875 2.15625 5.875 2.148438 5.878906 2.148438 C 5.882812 2.148438 5.882812 2.148438 5.882812 2.148438 C 8.292969 6.074219 9.996094 10.890625 9.996094 10.890625 Z M 17.566406 11.0625 L 17.566406 2 L 14.789062 3.023438 L 14.828125 11.015625 L 12.167969 10.972656 C 12.167969 10.972656 13.667969 15.617188 16.0625 19.84375 C 16.0625 19.84375 16.066406 19.84375 16.066406 19.84375 C 16.066406 19.84375 16.066406 19.851562 16.066406 19.851562 C 16.070312 19.851562 16.070312 19.851562 16.074219 19.851562 C 18.488281 15.925781 20.1875 11.109375 20.1875 11.109375 Z M 17.566406 11.0625 "/>
</g>
</svg>
