<svg xmlns="http://www.w3.org/2000/svg" xmlns:xlink="http://www.w3.org/1999/xlink" width="22" height="22" viewBox="0 0 22 22" version="1.1">
<g id="surface1">
<path style=" stroke:none;fill-rule:nonzero;fill:#aaaaaa;fill-opacity:1;" d="M 11.179688 1.25 C 16.582031 1.25 20.964844 5.625 20.964844 11.019531 C 20.964844 16.414062 16.582031 20.789062 11.179688 20.789062 C 5.78125 20.789062 1.398438 16.414062 1.398438 11.019531 C 1.398438 5.625 5.78125 1.25 11.179688 1.25 Z M 11.179688 3.417969 C 6.976562 3.417969 3.566406 6.820312 3.566406 11.019531 C 3.566406 15.21875 6.976562 18.621094 11.179688 18.621094 C 15.386719 18.621094 18.796875 15.21875 18.796875 11.019531 C 18.796875 6.820312 15.386719 3.417969 11.179688 3.417969 Z M 11.847656 7.761719 L 14.007812 9.433594 L 16.199219 11.019531 L 14.007812 12.605469 L 11.847656 14.277344 L 11.882812 12.105469 L 5.773438 12.105469 L 6.984375 9.933594 L 11.878906 9.933594 Z M 11.847656 7.761719 "/>
</g>
</svg>
