<?xml version="1.0" encoding="UTF-8" standalone="no"?>
<svg
   width="64px"
   height="64px"
   viewBox="0 0 64 64"
   version="1.1"
   id="svg467"
   sodipodi:docname="application-x-kplato.svg"
   inkscape:version="1.2.2 (b0a8486541, 2022-12-01)"
   xmlns:inkscape="http://www.inkscape.org/namespaces/inkscape"
   xmlns:sodipodi="http://sodipodi.sourceforge.net/DTD/sodipodi-0.dtd"
   xmlns:xlink="http://www.w3.org/1999/xlink"
   xmlns="http://www.w3.org/2000/svg"
   xmlns:svg="http://www.w3.org/2000/svg">
  <sodipodi:namedview
     id="namedview469"
     pagecolor="#ffffff"
     bordercolor="#000000"
     borderopacity="0.25"
     inkscape:showpageshadow="2"
     inkscape:pageopacity="0.0"
     inkscape:pagecheckerboard="0"
     inkscape:deskcolor="#d1d1d1"
     showgrid="false"
     inkscape:zoom="3.6875"
     inkscape:cx="32"
     inkscape:cy="32.135593"
     inkscape:window-width="1432"
     inkscape:window-height="844"
     inkscape:window-x="0"
     inkscape:window-y="0"
     inkscape:window-maximized="1"
     inkscape:current-layer="svg467" />
  <defs
     id="defs458">
    <filter
       id="alpha"
       filterUnits="objectBoundingBox"
       x="0"
       y="0"
       width="1"
       height="1">
      <feColorMatrix
         type="matrix"
         in="SourceGraphic"
         values="0 0 0 0 1 0 0 0 0 1 0 0 0 0 1 0 0 0 1 0"
         id="feColorMatrix428" />
    </filter>
    <mask
       id="mask0">
      <g
         filter="url(#alpha)"
         id="g433">
        <rect
           x="0"
           y="0"
           width="64"
           height="64"
           style="fill:rgb(0%,0%,0%);fill-opacity:0.15;stroke:none;"
           id="rect431" />
      </g>
    </mask>
    <linearGradient
       id="linear0"
       gradientUnits="userSpaceOnUse"
       x1="49.570999"
       y1="52.714001"
       x2="51.714001"
       y2="54.856998"
       gradientTransform="matrix(2.3333,0,0,2.3333,-68.667,-72.000999)">
      <stop
         offset="0"
         style="stop-color:rgb(0%,0%,0%);stop-opacity:1;"
         id="stop436" />
      <stop
         offset="1"
         style="stop-color:rgb(0%,0%,0%);stop-opacity:0;"
         id="stop438" />
    </linearGradient>
    <clipPath
       id="clip1">
      <rect
         x="0"
         y="0"
         width="64"
         height="64"
         id="rect441" />
    </clipPath>
    <g
       id="surface5"
       clip-path="url(#clip1)">
      <path
         style=" stroke:none;fill-rule:evenodd;fill:url(#linear0);"
         d="M 56 46 L 42 60 L 51 60 C 53.769531 60 56 57.769531 56 55 Z M 56 46 "
         id="path444" />
    </g>
    <mask
       id="mask1">
      <g
         filter="url(#alpha)"
         id="g449">
        <rect
           x="0"
           y="0"
           width="64"
           height="64"
           style="fill:rgb(0%,0%,0%);fill-opacity:0.75;stroke:none;"
           id="rect447" />
      </g>
    </mask>
    <clipPath
       id="clip2">
      <rect
         x="0"
         y="0"
         width="64"
         height="64"
         id="rect452" />
    </clipPath>
    <g
       id="surface8"
       clip-path="url(#clip2)">
      <path
         style=" stroke:none;fill-rule:nonzero;fill:rgb(100%,100%,100%);fill-opacity:1;"
         d="M 24 22 C 23.449219 22 23 22.449219 23 23 L 21 23 L 21 44 L 43 44 L 43 23 L 41 23 C 41 22.449219 40.550781 22 40 22 L 35 22 C 34.449219 22 34 22.449219 34 23 L 31 23 C 31 22.449219 30.550781 22 30 22 Z M 24 23 L 30.449219 23 L 30.449219 24 L 24 24 Z M 35 23 L 40 23 L 40 24 L 35 24 Z M 22 27 L 42 27 L 42 43 L 22 43 Z M 24 29 L 24 34 L 25 34 L 25 32 L 31 32 L 31 34 L 32 34 L 32 29 L 31 29 L 31 31 L 25 31 L 25 29 Z M 32 36 L 32 41.25 L 33 41.25 L 33 39 L 39 39 L 39 41 L 40 41 L 40 36 L 39 36 L 39 38 L 33 38 L 33 36 Z M 32 36 "
         id="path455" />
    </g>
    <filter
       style="color-interpolation-filters:sRGB;"
       inkscape:label="Diffuse Light"
       id="filter926"
       x="-0.05"
       y="-0.042857143"
       width="1.1"
       height="1.0857143">
      <feGaussianBlur
         in="SourceGraphic"
         stdDeviation="1"
         result="blur"
         id="feGaussianBlur916" />
      <feDiffuseLighting
         diffuseConstant="1"
         surfaceScale="10"
         lighting-color="rgb(255,255,255)"
         result="diffuse"
         id="feDiffuseLighting920">
        <feDistantLight
           elevation="8"
           azimuth="235"
           id="feDistantLight918" />
      </feDiffuseLighting>
      <feComposite
         in="diffuse"
         in2="diffuse"
         operator="arithmetic"
         k1="1"
         result="composite1"
         id="feComposite922" />
      <feComposite
         in="composite1"
         in2="SourceGraphic"
         k1="1"
         operator="arithmetic"
         k3="1"
         result="composite2"
         id="feComposite924" />
    </filter>
  </defs>
  <g
     id="surface1"
     style="filter:url(#filter926)">
    <path
       style=" stroke:none;fill-rule:nonzero;fill:rgb(59.607846%,38.431373%,18.82353%);fill-opacity:1;"
       d="M 13 4 L 51 4 C 53.761719 4 56 6.238281 56 9 L 56 55 C 56 57.761719 53.761719 60 51 60 L 13 60 C 10.238281 60 8 57.761719 8 55 L 8 9 C 8 6.238281 10.238281 4 13 4 Z M 13 4 "
       id="path460" />
    <use
       xlink:href="#surface5"
       mask="url(#mask0)"
       id="use462" />
    <use
       xlink:href="#surface8"
       mask="url(#mask1)"
       id="use464" />
  </g>
</svg>
