<?xml version="1.0" encoding="UTF-8" standalone="no"?>
<svg
   width="64px"
   height="64px"
   viewBox="0 0 64 64"
   version="1.1"
   id="svg396"
   sodipodi:docname="application-x-gambas3.svg"
   inkscape:version="1.2.2 (b0a8486541, 2022-12-01)"
   xmlns:inkscape="http://www.inkscape.org/namespaces/inkscape"
   xmlns:sodipodi="http://sodipodi.sourceforge.net/DTD/sodipodi-0.dtd"
   xmlns="http://www.w3.org/2000/svg"
   xmlns:svg="http://www.w3.org/2000/svg">
  <sodipodi:namedview
     id="namedview398"
     pagecolor="#ffffff"
     bordercolor="#000000"
     borderopacity="0.25"
     inkscape:showpageshadow="2"
     inkscape:pageopacity="0.0"
     inkscape:pagecheckerboard="0"
     inkscape:deskcolor="#d1d1d1"
     showgrid="false"
     inkscape:zoom="3.6875"
     inkscape:cx="32"
     inkscape:cy="32.135593"
     inkscape:window-width="1432"
     inkscape:window-height="844"
     inkscape:window-x="0"
     inkscape:window-y="0"
     inkscape:window-maximized="1"
     inkscape:current-layer="svg396" />
  <defs
     id="defs389">
    <linearGradient
       id="linear0"
       gradientUnits="userSpaceOnUse"
       x1="0"
       y1="0"
       x2="0"
       y2="1"
       gradientTransform="matrix(64,0,0,57.145833,0,3.427083)">
      <stop
         offset="0"
         style="stop-color:#58d2f0;stop-opacity:1;"
         id="stop379" />
      <stop
         offset="1"
         style="stop-color:#1b788f;stop-opacity:1;"
         id="stop381" />
    </linearGradient>
    <linearGradient
       id="linear1"
       gradientUnits="userSpaceOnUse"
       x1="0"
       y1="0"
       x2="0"
       y2="1"
       gradientTransform="matrix(9.786459,0,0,9.703126,22.854167,14.296875)">
      <stop
         offset="0"
         style="stop-color:#58d2f0;stop-opacity:1;"
         id="stop384" />
      <stop
         offset="1"
         style="stop-color:#1b788f;stop-opacity:1;"
         id="stop386" />
    </linearGradient>
    <filter
       style="color-interpolation-filters:sRGB;"
       inkscape:label="Diffuse Light"
       id="filter1022"
       x="-0.0375"
       y="-0.041995898"
       width="1.075"
       height="1.0839918">
      <feGaussianBlur
         in="SourceGraphic"
         stdDeviation="1"
         result="blur"
         id="feGaussianBlur1012" />
      <feDiffuseLighting
         diffuseConstant="1"
         surfaceScale="10"
         lighting-color="rgb(255,255,255)"
         result="diffuse"
         id="feDiffuseLighting1016">
        <feDistantLight
           elevation="8"
           azimuth="235"
           id="feDistantLight1014" />
      </feDiffuseLighting>
      <feComposite
         in="diffuse"
         in2="diffuse"
         operator="arithmetic"
         k1="1"
         result="composite1"
         id="feComposite1018" />
      <feComposite
         in="composite1"
         in2="SourceGraphic"
         k1="1"
         operator="arithmetic"
         k3="1"
         result="composite2"
         id="feComposite1020" />
    </filter>
  </defs>
  <g
     id="surface1"
     style="filter:url(#filter1022)">
    <path
       style=" stroke:none;fill-rule:nonzero;fill:url(#linear0);"
       d="M 64 3.425781 C 57.140625 10.285156 52.574219 17.140625 41.375 20.375 C 39.988281 11.921875 32.636719 5.714844 24 5.714844 C 14.28125 5.714844 6.402344 13.53125 6.402344 23.175781 C 6.410156 23.90625 6.464844 24.636719 6.5625 25.359375 C 2.589844 27.609375 0 31.65625 0 38.347656 C 0 49.550781 10.917969 60.574219 23.363281 60.574219 C 47.972656 60.574219 64 35.175781 64 3.425781 Z M 24 13.589844 C 29.300781 13.589844 33.597656 17.847656 33.597656 23.109375 C 33.597656 28.371094 29.300781 32.636719 24 32.636719 C 18.699219 32.636719 14.402344 28.375 14.402344 23.109375 C 14.402344 17.847656 18.699219 13.589844 24 13.589844 Z M 47.363281 36.933594 C 47.363281 38.699219 36.265625 52.636719 25.597656 52.636719 C 15.816406 52.636719 10.238281 46.074219 10.238281 39.25 C 20.90625 49.628906 38.402344 42.785156 47.363281 36.933594 Z M 47.363281 36.933594 "
       id="path391" />
    <path
       style=" stroke:none;fill-rule:nonzero;fill:url(#linear1);"
       d="M 32.640625 19.144531 C 32.640625 21.828125 30.449219 24 27.75 24 C 25.046875 24 22.855469 21.828125 22.855469 19.144531 C 22.855469 16.46875 25.046875 14.296875 27.75 14.296875 C 30.449219 14.296875 32.640625 16.46875 32.640625 19.144531 Z M 32.640625 19.144531 "
       id="path393" />
  </g>
</svg>
