<?xml version="1.0" encoding="UTF-8" standalone="no"?>
<svg
   width="64px"
   height="64px"
   viewBox="0 0 64 64"
   version="1.1"
   id="svg40"
   sodipodi:docname="mimetype-c.svg"
   inkscape:version="1.2.2 (b0a8486541, 2022-12-01)"
   xmlns:inkscape="http://www.inkscape.org/namespaces/inkscape"
   xmlns:sodipodi="http://sodipodi.sourceforge.net/DTD/sodipodi-0.dtd"
   xmlns="http://www.w3.org/2000/svg"
   xmlns:svg="http://www.w3.org/2000/svg">
  <sodipodi:namedview
     id="namedview42"
     pagecolor="#ffffff"
     bordercolor="#000000"
     borderopacity="0.25"
     inkscape:showpageshadow="2"
     inkscape:pageopacity="0.0"
     inkscape:pagecheckerboard="0"
     inkscape:deskcolor="#d1d1d1"
     showgrid="false"
     inkscape:zoom="3.6875"
     inkscape:cx="32"
     inkscape:cy="32.135593"
     inkscape:window-width="1432"
     inkscape:window-height="844"
     inkscape:window-x="0"
     inkscape:window-y="0"
     inkscape:window-maximized="1"
     inkscape:current-layer="svg40" />
  <defs
     id="defs35">
    <linearGradient
       id="linear0"
       gradientUnits="userSpaceOnUse"
       x1="0"
       y1="0"
       x2="0"
       y2="1"
       gradientTransform="matrix(52.239583,0,0,64,5.880208,0)">
      <stop
         offset="0"
         style="stop-color:#cff3fe;stop-opacity:1;"
         id="stop30" />
      <stop
         offset="1"
         style="stop-color:#054cff;stop-opacity:1;"
         id="stop32" />
    </linearGradient>
    <filter
       style="color-interpolation-filters:sRGB;"
       inkscape:label="Diffuse Light"
       id="filter1125"
       x="-0.045939883"
       y="-0.0375"
       width="1.0918798"
       height="1.075">
      <feGaussianBlur
         in="SourceGraphic"
         stdDeviation="1"
         result="blur"
         id="feGaussianBlur1115" />
      <feDiffuseLighting
         diffuseConstant="1"
         surfaceScale="10"
         lighting-color="rgb(255,255,255)"
         result="diffuse"
         id="feDiffuseLighting1119">
        <feDistantLight
           elevation="8"
           azimuth="235"
           id="feDistantLight1117" />
      </feDiffuseLighting>
      <feComposite
         in="diffuse"
         in2="diffuse"
         operator="arithmetic"
         k1="1"
         result="composite1"
         id="feComposite1121" />
      <feComposite
         in="composite1"
         in2="SourceGraphic"
         k1="1"
         operator="arithmetic"
         k3="1"
         result="composite2"
         id="feComposite1123" />
    </filter>
  </defs>
  <g
     id="surface1"
     style="filter:url(#filter1125)">
    <path
       style=" stroke:none;fill-rule:nonzero;fill:url(#linear0);"
       d="M 57.996094 42.066406 C 57.792969 46.402344 56.625 50.234375 54.488281 53.566406 C 52.347656 56.875 49.34375 59.4375 45.46875 61.265625 C 41.621094 63.089844 37.214844 64 32.253906 64 C 24.078125 64 17.636719 61.332031 12.933594 56.003906 C 8.230469 50.675781 5.878906 43.152344 5.878906 33.433594 L 5.878906 30.355469 C 5.878906 24.253906 6.933594 18.925781 9.042969 14.363281 C 11.183594 9.777344 14.246094 6.238281 18.234375 3.761719 C 22.222656 1.253906 26.84375 0 32.082031 0 C 39.640625 0 45.707031 1.996094 50.296875 5.984375 C 54.886719 9.949219 57.496094 15.421875 58.121094 22.402344 L 43.15625 22.402344 C 43.042969 18.609375 42.089844 15.890625 40.292969 14.234375 C 38.5 12.582031 35.761719 11.753906 32.082031 11.753906 C 28.355469 11.753906 25.613281 13.152344 23.875 15.949219 C 22.140625 18.738281 21.222656 23.199219 21.140625 29.328125 L 21.140625 33.730469 C 21.140625 40.375 21.96875 45.121094 23.621094 47.96875 C 25.300781 50.816406 28.183594 52.246094 32.253906 52.246094 C 35.703125 52.246094 38.34375 51.433594 40.167969 49.808594 C 41.988281 48.183594 42.957031 45.605469 43.074219 42.066406 Z M 57.996094 42.066406 "
       id="path37" />
  </g>
</svg>
