<?xml version="1.0" encoding="UTF-8" standalone="no"?>
<svg
   width="64px"
   height="64px"
   viewBox="0 0 64 64"
   version="1.1"
   id="svg313"
   sodipodi:docname="mimetype-r.svg"
   inkscape:version="1.2.2 (b0a8486541, 2022-12-01)"
   xmlns:inkscape="http://www.inkscape.org/namespaces/inkscape"
   xmlns:sodipodi="http://sodipodi.sourceforge.net/DTD/sodipodi-0.dtd"
   xmlns="http://www.w3.org/2000/svg"
   xmlns:svg="http://www.w3.org/2000/svg">
  <sodipodi:namedview
     id="namedview315"
     pagecolor="#ffffff"
     bordercolor="#000000"
     borderopacity="0.25"
     inkscape:showpageshadow="2"
     inkscape:pageopacity="0.0"
     inkscape:pagecheckerboard="0"
     inkscape:deskcolor="#d1d1d1"
     showgrid="false"
     inkscape:zoom="3.6875"
     inkscape:cx="32"
     inkscape:cy="32.135593"
     inkscape:window-width="1432"
     inkscape:window-height="844"
     inkscape:window-x="0"
     inkscape:window-y="0"
     inkscape:window-maximized="1"
     inkscape:current-layer="svg313" />
  <defs
     id="defs308">
    <linearGradient
       id="linear0"
       gradientUnits="userSpaceOnUse"
       x1="0"
       y1="0"
       x2="0"
       y2="1"
       gradientTransform="matrix(64,0,0,50.666667,0,6.666667)">
      <stop
         offset="0"
         style="stop-color:#58d2f0;stop-opacity:1;"
         id="stop303" />
      <stop
         offset="1"
         style="stop-color:#1b788f;stop-opacity:1;"
         id="stop305" />
    </linearGradient>
    <filter
       style="color-interpolation-filters:sRGB;"
       inkscape:label="Diffuse Light"
       id="filter659"
       x="-0.0375"
       y="-0.047370856"
       width="1.075"
       height="1.0947417">
      <feGaussianBlur
         in="SourceGraphic"
         stdDeviation="1"
         result="blur"
         id="feGaussianBlur649" />
      <feDiffuseLighting
         diffuseConstant="1"
         surfaceScale="10"
         lighting-color="rgb(255,255,255)"
         result="diffuse"
         id="feDiffuseLighting653">
        <feDistantLight
           elevation="8"
           azimuth="235"
           id="feDistantLight651" />
      </feDiffuseLighting>
      <feComposite
         in="diffuse"
         in2="diffuse"
         operator="arithmetic"
         k1="1"
         result="composite1"
         id="feComposite655" />
      <feComposite
         in="composite1"
         in2="SourceGraphic"
         k1="1"
         operator="arithmetic"
         k3="1"
         result="composite2"
         id="feComposite657" />
    </filter>
  </defs>
  <g
     id="surface1"
     style="filter:url(#filter659)">
    <path
       style=" stroke:none;fill-rule:evenodd;fill:url(#linear0);"
       d="M 32 6.667969 C 14.324219 6.667969 0 16.21875 0 28 C 0 37.285156 9.578125 45.160156 22 48.09375 L 22 41.027344 C 15.550781 38.125 10.667969 33.378906 10.667969 28 C 10.667969 19.167969 22.011719 12 36 12 C 49.988281 12 61.332031 19.167969 61.332031 28 C 61.332031 34.910156 54.769531 41.1875 45.050781 43.421875 C 45.832031 44.707031 46.613281 45.996094 47.390625 47.246094 C 57.503906 43.660156 64 36.171875 64 28 C 64 16.21875 49.675781 6.667969 32 6.667969 Z M 32 25.34375 L 37.324219 25.34375 C 40.269531 25.34375 42.65625 27.730469 42.65625 30.667969 C 42.65625 33.625 40.261719 36 37.324219 36 L 32 36 L 32 25.332031 Z M 24 17.34375 L 24 57.332031 L 32 57.332031 L 32 44 L 34.667969 44 L 42.667969 57.332031 L 50.667969 57.332031 L 42.667969 44 L 42.082031 43.082031 C 47.082031 41.167969 50.65625 36.355469 50.65625 30.667969 C 50.65625 23.3125 44.6875 17.34375 37.324219 17.34375 Z M 24 17.34375 "
       id="path310" />
  </g>
</svg>
