<?xml version="1.0" encoding="UTF-8" standalone="no"?>
<svg
   width="64px"
   height="64px"
   viewBox="0 0 64 64"
   version="1.1"
   id="svg236"
   sodipodi:docname="mimetype-tex.svg"
   inkscape:version="1.2.2 (b0a8486541, 2022-12-01)"
   xmlns:inkscape="http://www.inkscape.org/namespaces/inkscape"
   xmlns:sodipodi="http://sodipodi.sourceforge.net/DTD/sodipodi-0.dtd"
   xmlns="http://www.w3.org/2000/svg"
   xmlns:svg="http://www.w3.org/2000/svg">
  <sodipodi:namedview
     id="namedview238"
     pagecolor="#ffffff"
     bordercolor="#000000"
     borderopacity="0.25"
     inkscape:showpageshadow="2"
     inkscape:pageopacity="0.0"
     inkscape:pagecheckerboard="0"
     inkscape:deskcolor="#d1d1d1"
     showgrid="false"
     inkscape:zoom="3.6875"
     inkscape:cx="32"
     inkscape:cy="32.135593"
     inkscape:window-width="1432"
     inkscape:window-height="844"
     inkscape:window-x="0"
     inkscape:window-y="0"
     inkscape:window-maximized="1"
     inkscape:current-layer="svg236" />
  <defs
     id="defs231">
    <linearGradient
       id="linear0"
       gradientUnits="userSpaceOnUse"
       x1="0"
       y1="0"
       x2="0"
       y2="1"
       gradientTransform="matrix(64,0,0,33.96875,0,15.015625)">
      <stop
         offset="0"
         style="stop-color:#f8c3c3;stop-opacity:1;"
         id="stop226" />
      <stop
         offset="1"
         style="stop-color:#c60606;stop-opacity:1;"
         id="stop228" />
    </linearGradient>
    <filter
       style="color-interpolation-filters:sRGB;"
       inkscape:label="Diffuse Light"
       id="filter1683"
       x="-0.0375"
       y="-0.070653174"
       width="1.075"
       height="1.1413063">
      <feGaussianBlur
         in="SourceGraphic"
         stdDeviation="1"
         result="blur"
         id="feGaussianBlur1673" />
      <feDiffuseLighting
         diffuseConstant="1"
         surfaceScale="10"
         lighting-color="rgb(255,255,255)"
         result="diffuse"
         id="feDiffuseLighting1677">
        <feDistantLight
           elevation="8"
           azimuth="235"
           id="feDistantLight1675" />
      </feDiffuseLighting>
      <feComposite
         in="diffuse"
         in2="diffuse"
         operator="arithmetic"
         k1="1"
         result="composite1"
         id="feComposite1679" />
      <feComposite
         in="composite1"
         in2="SourceGraphic"
         k1="1"
         operator="arithmetic"
         k3="1"
         result="composite2"
         id="feComposite1681" />
    </filter>
  </defs>
  <g
     id="surface1"
     style="filter:url(#filter1683)">
    <path
       style=" stroke:none;fill-rule:nonzero;fill:url(#linear0);"
       d="M 39.269531 15.015625 L 39.269531 16.125 L 40.015625 16.125 C 41.984375 16.125 42.660156 16.378906 43.34375 17.378906 L 49.933594 27.375 L 44.011719 36.035156 C 43.511719 36.753906 42.449219 38.40625 38.828125 38.40625 L 38.828125 39.519531 L 42.828125 39.371094 C 44.152344 39.371094 46.125 39.410156 47.417969 39.519531 L 47.417969 38.40625 C 45.765625 38.371094 45.121094 37.347656 45.121094 36.703125 C 45.121094 36.378906 45.238281 36.285156 45.488281 35.890625 L 50.597656 28.339844 L 56.222656 36.925781 C 56.296875 37.074219 56.449219 37.1875 56.449219 37.296875 C 56.449219 37.730469 55.621094 38.371094 54.078125 38.40625 L 54.078125 39.519531 C 55.332031 39.410156 57.972656 39.371094 59.332031 39.371094 L 64 39.519531 L 64 38.40625 L 63.332031 38.40625 C 61.46875 38.40625 60.683594 38.1875 59.925781 37.074219 L 52.375 25.671875 L 57.265625 18.496094 C 58.050781 17.34375 59.328125 16.160156 62.519531 16.125 L 62.519531 15.015625 L 58.519531 15.160156 C 57.089844 15.160156 55.363281 15.121094 53.933594 15.015625 L 53.933594 16.125 C 55.363281 16.160156 56.152344 16.925781 56.152344 17.753906 C 56.152344 18.109375 56.109375 18.246094 55.855469 18.640625 L 51.707031 24.636719 L 47.121094 17.753906 C 47.046875 17.644531 46.894531 17.378906 46.894531 17.234375 C 46.894531 16.800781 47.652344 16.160156 49.191406 16.125 L 49.191406 15.015625 C 47.9375 15.121094 45.296875 15.160156 43.9375 15.160156 Z M 0.667969 15.015625 L 0 23.082031 L 0.890625 23.082031 C 1.390625 17.3125 1.917969 16.125 7.328125 16.125 C 7.972656 16.125 8.894531 16.125 9.253906 16.199219 C 10.003906 16.34375 10.066406 16.707031 10.066406 17.53125 L 10.066406 36.824219 C 10.066406 38.042969 10.058594 38.671875 6.292969 38.597656 L 4.8125 38.597656 L 4.8125 39.707031 C 6.28125 39.605469 9.972656 39.5625 11.625 39.5625 C 13.269531 39.5625 16.964844 39.597656 18.433594 39.707031 L 18.433594 38.597656 L 16.953125 38.597656 C 13.191406 38.597656 13.25 38.042969 13.25 36.824219 L 13.25 17.53125 C 13.25 16.8125 13.199219 16.34375 13.84375 16.199219 C 14.238281 16.125 15.234375 16.125 15.917969 16.125 C 21.328125 16.125 21.855469 17.3125 22.359375 23.082031 L 23.246094 23.082031 L 22.578125 15.015625 Z M 19.890625 24.453125 L 19.890625 25.5625 L 20.78125 25.5625 C 23.542969 25.5625 23.59375 25.902344 23.59375 27.191406 L 23.59375 46.171875 C 23.59375 47.464844 23.542969 47.875 20.78125 47.875 L 19.890625 47.875 L 19.890625 48.984375 L 40.546875 48.984375 L 42.105469 39.734375 L 41.140625 39.734375 C 40.246094 45.25 39.457031 47.875 33.292969 47.875 L 28.550781 47.875 C 26.871094 47.875 26.777344 47.578125 26.777344 46.394531 L 26.777344 36.753906 L 29.957031 36.753906 C 33.4375 36.753906 33.886719 37.933594 33.886719 40.972656 L 34.769531 40.972656 L 34.769531 31.425781 L 33.886719 31.425781 C 33.886719 34.511719 33.4375 35.644531 29.957031 35.644531 L 26.777344 35.644531 L 26.777344 26.96875 C 26.777344 25.785156 26.871094 25.5625 28.550781 25.5625 L 33.144531 25.5625 C 38.625 25.5625 39.605469 27.46875 40.175781 32.449219 L 41.066406 32.449219 L 40.03125 24.453125 Z M 19.890625 24.453125 "
       id="path233" />
  </g>
</svg>
