<?xml version="1.0" encoding="UTF-8" standalone="no"?>
<svg
   width="64px"
   height="64px"
   viewBox="0 0 64 64"
   version="1.1"
   id="svg194"
   sodipodi:docname="mimetype-subtitle.svg"
   inkscape:version="1.2.2 (b0a8486541, 2022-12-01)"
   xmlns:inkscape="http://www.inkscape.org/namespaces/inkscape"
   xmlns:sodipodi="http://sodipodi.sourceforge.net/DTD/sodipodi-0.dtd"
   xmlns="http://www.w3.org/2000/svg"
   xmlns:svg="http://www.w3.org/2000/svg">
  <sodipodi:namedview
     id="namedview196"
     pagecolor="#ffffff"
     bordercolor="#000000"
     borderopacity="0.25"
     inkscape:showpageshadow="2"
     inkscape:pageopacity="0.0"
     inkscape:pagecheckerboard="0"
     inkscape:deskcolor="#d1d1d1"
     showgrid="false"
     inkscape:zoom="3.6875"
     inkscape:cx="32"
     inkscape:cy="32.135593"
     inkscape:window-width="1432"
     inkscape:window-height="844"
     inkscape:window-x="0"
     inkscape:window-y="0"
     inkscape:window-maximized="1"
     inkscape:current-layer="svg194" />
  <defs
     id="defs189">
    <linearGradient
       id="linear0"
       gradientUnits="userSpaceOnUse"
       x1="0"
       y1="0"
       x2="0"
       y2="1"
       gradientTransform="matrix(63.96875,0,0,56,0,4)">
      <stop
         offset="0"
         style="stop-color:#e3cfff;stop-opacity:1;"
         id="stop184" />
      <stop
         offset="1"
         style="stop-color:#7d05ff;stop-opacity:1;"
         id="stop186" />
    </linearGradient>
    <filter
       style="color-interpolation-filters:sRGB;"
       inkscape:label="Diffuse Light"
       id="filter1761"
       x="-0.037518319"
       y="-0.042857143"
       width="1.0750366"
       height="1.0857143">
      <feGaussianBlur
         in="SourceGraphic"
         stdDeviation="1"
         result="blur"
         id="feGaussianBlur1751" />
      <feDiffuseLighting
         diffuseConstant="1"
         surfaceScale="10"
         lighting-color="rgb(255,255,255)"
         result="diffuse"
         id="feDiffuseLighting1755">
        <feDistantLight
           elevation="8"
           azimuth="235"
           id="feDistantLight1753" />
      </feDiffuseLighting>
      <feComposite
         in="diffuse"
         in2="diffuse"
         operator="arithmetic"
         k1="1"
         result="composite1"
         id="feComposite1757" />
      <feComposite
         in="composite1"
         in2="SourceGraphic"
         k1="1"
         operator="arithmetic"
         k3="1"
         result="composite2"
         id="feComposite1759" />
    </filter>
  </defs>
  <g
     id="surface1"
     style="filter:url(#filter1761)">
    <path
       style=" stroke:none;fill-rule:nonzero;fill:url(#linear0);"
       d="M 35.96875 4 L 24.765625 12 L 15.972656 12 C 10.941406 12.0625 7.261719 11.878906 4.25 13.535156 C 2.691406 14.425781 1.503906 15.84375 0.902344 17.53125 C 0.246094 19.28125 0 21.371094 0 24 L 0 48 C 0 50.628906 0.246094 52.71875 0.902344 54.46875 C 1.503906 56.15625 2.691406 57.574219 4.25 58.457031 C 7.261719 60.125 10.941406 59.9375 15.972656 60 L 47.996094 60 C 53.027344 59.9375 56.707031 60.121094 59.71875 58.457031 C 61.277344 57.574219 62.464844 56.15625 63.066406 54.46875 C 63.730469 52.71875 63.96875 50.628906 63.96875 48 L 63.96875 24 C 63.96875 21.371094 63.730469 19.28125 63.066406 17.53125 C 62.410156 15.777344 61.230469 14.371094 59.71875 13.535156 C 56.707031 11.875 53.027344 12.0625 47.996094 12 L 47.171875 12 Z M 15.953125 16 L 47.96875 16 C 53 16.0625 56.324219 16.238281 57.792969 17.046875 C 58.519531 17.449219 58.9375 17.894531 59.328125 18.9375 C 59.71875 19.980469 59.96875 21.628906 59.96875 24 L 59.96875 48 C 59.96875 50.371094 59.714844 52.019531 59.328125 53.0625 C 58.9375 54.105469 58.519531 54.546875 57.792969 54.953125 C 56.324219 55.761719 53 55.9375 47.96875 56 L 15.953125 56 C 10.917969 55.9375 7.597656 55.761719 6.128906 54.953125 C 5.402344 54.550781 4.980469 54.105469 4.59375 53.0625 C 4.207031 52.019531 3.953125 50.371094 3.953125 48 L 3.953125 24 C 3.953125 21.628906 4.207031 19.980469 4.59375 18.9375 C 4.984375 17.894531 5.40625 17.453125 6.140625 17.046875 C 7.605469 16.238281 10.917969 16.0625 15.953125 16 Z M 15.953125 16 "
       id="path191" />
  </g>
</svg>
