<?xml version="1.0" encoding="UTF-8" standalone="no"?>
<svg
   width="64px"
   height="64px"
   viewBox="0 0 64 64"
   version="1.1"
   id="svg229"
   sodipodi:docname="mimetype-coreldraw.svg"
   inkscape:version="1.2.2 (b0a8486541, 2022-12-01)"
   xmlns:inkscape="http://www.inkscape.org/namespaces/inkscape"
   xmlns:sodipodi="http://sodipodi.sourceforge.net/DTD/sodipodi-0.dtd"
   xmlns="http://www.w3.org/2000/svg"
   xmlns:svg="http://www.w3.org/2000/svg">
  <sodipodi:namedview
     id="namedview231"
     pagecolor="#ffffff"
     bordercolor="#000000"
     borderopacity="0.25"
     inkscape:showpageshadow="2"
     inkscape:pageopacity="0.0"
     inkscape:pagecheckerboard="0"
     inkscape:deskcolor="#d1d1d1"
     showgrid="false"
     inkscape:zoom="3.6875"
     inkscape:cx="32"
     inkscape:cy="32.135593"
     inkscape:window-width="1432"
     inkscape:window-height="844"
     inkscape:window-x="0"
     inkscape:window-y="0"
     inkscape:window-maximized="1"
     inkscape:current-layer="svg229" />
  <defs
     id="defs224">
    <linearGradient
       id="linear0"
       gradientUnits="userSpaceOnUse"
       x1="0"
       y1="0"
       x2="0"
       y2="1"
       gradientTransform="matrix(48,0,0,64.005208,8,-0.00520833)">
      <stop
         offset="0"
         style="stop-color:#58d2f0;stop-opacity:1;"
         id="stop219" />
      <stop
         offset="1"
         style="stop-color:#1b788f;stop-opacity:1;"
         id="stop221" />
    </linearGradient>
    <filter
       style="color-interpolation-filters:sRGB;"
       inkscape:label="Diffuse Light"
       id="filter783"
       x="-0.049999267"
       y="-0.037497711"
       width="1.0999985"
       height="1.0749954">
      <feGaussianBlur
         in="SourceGraphic"
         stdDeviation="1"
         result="blur"
         id="feGaussianBlur773" />
      <feDiffuseLighting
         diffuseConstant="1"
         surfaceScale="10"
         lighting-color="rgb(255,255,255)"
         result="diffuse"
         id="feDiffuseLighting777">
        <feDistantLight
           elevation="8"
           azimuth="235"
           id="feDistantLight775" />
      </feDiffuseLighting>
      <feComposite
         in="diffuse"
         in2="diffuse"
         operator="arithmetic"
         k1="1"
         result="composite1"
         id="feComposite779" />
      <feComposite
         in="composite1"
         in2="SourceGraphic"
         k1="1"
         operator="arithmetic"
         k3="1"
         result="composite2"
         id="feComposite781" />
    </filter>
  </defs>
  <g
     id="surface1"
     style="filter:url(#filter783)">
    <path
       style=" stroke:none;fill-rule:nonzero;fill:url(#linear0);"
       d="M 30.421875 0.03125 C 27.371094 4.230469 25.011719 10.175781 25.03125 18.8125 C 25.058594 30.082031 27.640625 43.484375 30.972656 55.296875 L 33.027344 55.296875 C 36.359375 43.480469 38.9375 30.078125 38.96875 18.8125 C 38.988281 10.175781 36.636719 4.230469 33.578125 0.03125 C 32.527344 -0.015625 31.472656 -0.015625 30.421875 0.03125 Z M 28.378906 0.171875 C 27.214844 0.28125 26.03125 0.453125 24.871094 0.683594 C 18.339844 3.324219 13.113281 8.78125 13.160156 18.222656 C 13.214844 28.421875 21.699219 44.328125 29.535156 55.296875 L 30.316406 55.296875 C 24.355469 44.191406 19.265625 30.503906 19.21875 19.71875 C 19.171875 9.933594 23.097656 3.71875 28.378906 0.171875 Z M 35.621094 0.171875 C 40.902344 3.71875 44.828125 9.933594 44.78125 19.71875 C 44.734375 30.503906 39.644531 44.191406 33.683594 55.296875 L 34.464844 55.296875 C 42.308594 44.328125 50.785156 28.421875 50.832031 18.222656 C 50.886719 8.78125 45.660156 3.324219 39.128906 0.683594 C 37.96875 0.453125 36.785156 0.28125 35.621094 0.171875 Z M 18.6875 2.566406 C 12.59375 5.238281 7.953125 10.167969 8 18.171875 C 8.074219 30.511719 19.65625 46.800781 28.847656 55.296875 L 29.003906 55.296875 C 20.234375 45.863281 10.265625 30.113281 10.203125 17.96875 C 10.167969 10.527344 13.714844 5.589844 18.6875 2.566406 Z M 45.3125 2.566406 C 50.285156 5.589844 53.832031 10.527344 53.796875 17.96875 C 53.734375 30.113281 43.769531 45.863281 34.996094 55.296875 L 35.140625 55.296875 C 44.339844 46.792969 55.925781 30.5 56 18.171875 C 56.046875 10.167969 51.40625 5.238281 45.3125 2.566406 Z M 29.972656 57.980469 C 29.246094 57.980469 28.652344 58.59375 28.652344 59.332031 L 28.652344 62.640625 C 28.652344 63.390625 29.246094 64 29.972656 64 L 34.015625 64 C 34.75 64 35.34375 63.386719 35.34375 62.640625 L 35.34375 59.332031 C 35.34375 58.582031 34.75 57.980469 34.015625 57.980469 Z M 29.972656 57.980469 "
       id="path226" />
  </g>
</svg>
