<?xml version="1.0" encoding="UTF-8" standalone="no"?>
<svg
   width="64px"
   height="64px"
   viewBox="0 0 64 64"
   version="1.1"
   id="svg96"
   sodipodi:docname="mimetype-nim.svg"
   inkscape:version="1.2.2 (b0a8486541, 2022-12-01)"
   xmlns:inkscape="http://www.inkscape.org/namespaces/inkscape"
   xmlns:sodipodi="http://sodipodi.sourceforge.net/DTD/sodipodi-0.dtd"
   xmlns="http://www.w3.org/2000/svg"
   xmlns:svg="http://www.w3.org/2000/svg">
  <sodipodi:namedview
     id="namedview98"
     pagecolor="#ffffff"
     bordercolor="#000000"
     borderopacity="0.25"
     inkscape:showpageshadow="2"
     inkscape:pageopacity="0.0"
     inkscape:pagecheckerboard="0"
     inkscape:deskcolor="#d1d1d1"
     showgrid="false"
     inkscape:zoom="3.6875"
     inkscape:cx="32"
     inkscape:cy="32.135593"
     inkscape:window-width="1432"
     inkscape:window-height="844"
     inkscape:window-x="0"
     inkscape:window-y="0"
     inkscape:window-maximized="1"
     inkscape:current-layer="svg96" />
  <defs
     id="defs91">
    <linearGradient
       id="linear0"
       gradientUnits="userSpaceOnUse"
       x1="0"
       y1="0"
       x2="0"
       y2="1"
       gradientTransform="matrix(64,0,0,43.864583,0,10.067708)">
      <stop
         offset="0"
         style="stop-color:#f8c3c3;stop-opacity:1;"
         id="stop86" />
      <stop
         offset="1"
         style="stop-color:#c60606;stop-opacity:1;"
         id="stop88" />
    </linearGradient>
    <filter
       style="color-interpolation-filters:sRGB;"
       inkscape:label="Diffuse Light"
       id="filter1053"
       x="-0.0375"
       y="-0.054713112"
       width="1.075"
       height="1.1094262">
      <feGaussianBlur
         in="SourceGraphic"
         stdDeviation="1"
         result="blur"
         id="feGaussianBlur1043" />
      <feDiffuseLighting
         diffuseConstant="1"
         surfaceScale="10"
         lighting-color="rgb(255,255,255)"
         result="diffuse"
         id="feDiffuseLighting1047">
        <feDistantLight
           elevation="8"
           azimuth="235"
           id="feDistantLight1045" />
      </feDiffuseLighting>
      <feComposite
         in="diffuse"
         in2="diffuse"
         operator="arithmetic"
         k1="1"
         result="composite1"
         id="feComposite1049" />
      <feComposite
         in="composite1"
         in2="SourceGraphic"
         k1="1"
         operator="arithmetic"
         k3="1"
         result="composite2"
         id="feComposite1051" />
    </filter>
  </defs>
  <g
     id="surface1"
     style="filter:url(#filter1053)">
    <path
       style=" stroke:none;fill-rule:evenodd;fill:url(#linear0);"
       d="M 32.253906 10.066406 C 32.253906 10.066406 29.800781 12.003906 27.300781 13.933594 C 24.730469 13.847656 19.6875 14.421875 16.953125 15.417969 C 14.433594 13.824219 12.222656 12.0625 12.222656 12.0625 C 12.222656 12.0625 10.332031 15.3125 9.140625 17.222656 C 7.378906 18.160156 5.609375 19.214844 4.03125 20.609375 C 2.199219 19.878906 0.0664062 18.996094 0 18.964844 C 2.433594 23.863281 4.0625 28.777344 8.511719 31.722656 C 15.582031 20.550781 48.464844 21.578125 55.683594 31.660156 C 60.347656 29.230469 62.167969 23.988281 64 19.15625 C 63.796875 19.21875 61.300781 20.058594 59.683594 20.671875 C 58.714844 19.621094 56.4375 18.003906 55.140625 17.222656 C 53.917969 14.972656 52.125 11.9375 52.125 11.9375 C 52.125 11.9375 50.011719 13.511719 47.558594 15.230469 C 44.238281 14.613281 40.230469 13.875 36.859375 14.058594 C 34.5625 12.171875 32.253906 10.066406 32.253906 10.066406 Z M 2.511719 29.378906 C 2.511719 29.378906 5.957031 37.722656 8.347656 43.515625 C 18.484375 56.890625 44.371094 57.816406 55.65625 43.777344 C 58.324219 37.753906 61.925781 29.300781 61.925781 29.300781 C 59.03125 33.589844 54.324219 36.550781 51.421875 38.144531 C 49.359375 39.277344 44.597656 39.957031 44.597656 39.957031 L 32.109375 33.484375 L 19.546875 39.828125 C 19.546875 39.828125 14.855469 39.074219 12.730469 38.078125 C 8.4375 35.792969 5.550781 33.082031 2.511719 29.378906 Z M 2.511719 29.378906 "
       id="path93" />
  </g>
</svg>
