<?xml version="1.0" encoding="UTF-8" standalone="no"?>
<svg
   width="64px"
   height="64px"
   viewBox="0 0 64 64"
   version="1.1"
   id="svg341"
   sodipodi:docname="mimetype-database.svg"
   inkscape:version="1.2.2 (b0a8486541, 2022-12-01)"
   xmlns:inkscape="http://www.inkscape.org/namespaces/inkscape"
   xmlns:sodipodi="http://sodipodi.sourceforge.net/DTD/sodipodi-0.dtd"
   xmlns="http://www.w3.org/2000/svg"
   xmlns:svg="http://www.w3.org/2000/svg">
  <sodipodi:namedview
     id="namedview343"
     pagecolor="#ffffff"
     bordercolor="#000000"
     borderopacity="0.25"
     inkscape:showpageshadow="2"
     inkscape:pageopacity="0.0"
     inkscape:pagecheckerboard="0"
     inkscape:deskcolor="#d1d1d1"
     showgrid="false"
     inkscape:zoom="3.6875"
     inkscape:cx="32"
     inkscape:cy="32.135593"
     inkscape:window-width="1432"
     inkscape:window-height="844"
     inkscape:window-x="0"
     inkscape:window-y="0"
     inkscape:window-maximized="1"
     inkscape:current-layer="svg341" />
  <defs
     id="defs336">
    <linearGradient
       id="linear0"
       gradientUnits="userSpaceOnUse"
       x1="0"
       y1="0"
       x2="0"
       y2="1"
       gradientTransform="matrix(59.708333,0,0,64,2.145833,0)">
      <stop
         offset="0"
         style="stop-color:#f8f1d0;stop-opacity:1;"
         id="stop331" />
      <stop
         offset="1"
         style="stop-color:#e18d0f;stop-opacity:1;"
         id="stop333" />
    </linearGradient>
    <filter
       style="color-interpolation-filters:sRGB;"
       inkscape:label="Diffuse Light"
       id="filter593"
       x="-0.040193641"
       y="-0.037499428"
       width="1.0803873"
       height="1.0749989">
      <feGaussianBlur
         in="SourceGraphic"
         stdDeviation="1"
         result="blur"
         id="feGaussianBlur583" />
      <feDiffuseLighting
         diffuseConstant="1"
         surfaceScale="10"
         lighting-color="rgb(255,255,255)"
         result="diffuse"
         id="feDiffuseLighting587">
        <feDistantLight
           elevation="8"
           azimuth="235"
           id="feDistantLight585" />
      </feDiffuseLighting>
      <feComposite
         in="diffuse"
         in2="diffuse"
         operator="arithmetic"
         k1="1"
         result="composite1"
         id="feComposite589" />
      <feComposite
         in="composite1"
         in2="SourceGraphic"
         k1="1"
         operator="arithmetic"
         k3="1"
         result="composite2"
         id="feComposite591" />
    </filter>
  </defs>
  <g
     id="surface1"
     style="filter:url(#filter593)">
    <path
       style=" stroke:none;fill-rule:nonzero;fill:url(#linear0);"
       d="M 32 0 C 24.089844 0 16.921875 1.207031 11.5625 3.269531 C 8.878906 4.300781 6.644531 5.535156 4.972656 7.058594 C 3.449219 8.449219 2.402344 10.191406 2.222656 12.128906 L 2.144531 12.128906 L 2.144531 51.324219 C 2.144531 54.136719 4.042969 56.5 6.746094 58.300781 C 9.453125 60.105469 13.136719 61.511719 17.621094 62.503906 C 26.582031 64.5 37.40625 64.5 46.371094 62.503906 C 50.855469 61.511719 54.542969 60.105469 57.246094 58.300781 C 59.953125 56.5 61.84375 54.136719 61.84375 51.324219 L 61.84375 12.734375 C 61.84375 12.714844 61.855469 12.691406 61.855469 12.667969 C 61.855469 12.644531 61.84375 12.625 61.84375 12.605469 L 61.84375 12.128906 L 61.777344 12.128906 C 61.597656 10.191406 60.550781 8.449219 59.027344 7.058594 C 57.355469 5.535156 55.121094 4.300781 52.4375 3.269531 C 47.078125 1.207031 39.910156 0 32 0 Z M 32 3.859375 C 39.511719 3.859375 46.300781 5.058594 51.046875 6.878906 C 53.417969 7.792969 55.269531 8.871094 56.421875 9.917969 C 57.578125 10.96875 57.984375 11.863281 57.984375 12.667969 C 57.984375 13.472656 57.578125 14.371094 56.421875 15.421875 C 55.269531 16.46875 53.417969 17.546875 51.046875 18.457031 C 46.300781 20.28125 39.511719 21.480469 32 21.480469 C 24.488281 21.480469 17.699219 20.28125 12.953125 18.457031 C 10.582031 17.546875 8.730469 16.46875 7.578125 15.421875 C 6.421875 14.371094 6.015625 13.472656 6.015625 12.667969 C 6.015625 11.863281 6.421875 10.96875 7.578125 9.917969 C 8.730469 8.871094 10.582031 7.792969 12.953125 6.878906 C 17.699219 5.058594 24.488281 3.859375 32 3.859375 Z M 6.003906 19.019531 C 7.542969 20.1875 9.359375 21.21875 11.5625 22.066406 C 16.921875 24.128906 24.089844 25.339844 32 25.339844 C 39.910156 25.339844 47.078125 24.128906 52.4375 22.066406 C 54.640625 21.21875 56.449219 20.1875 57.984375 19.019531 L 57.984375 25.558594 C 57.984375 26.582031 57.21875 27.90625 55.105469 29.316406 C 52.988281 30.722656 49.6875 32.042969 45.53125 32.964844 C 37.222656 34.8125 26.765625 34.8125 18.457031 32.964844 C 14.300781 32.042969 11.011719 30.722656 8.894531 29.316406 C 6.78125 27.90625 6.003906 26.582031 6.003906 25.558594 Z M 6.003906 31.949219 C 6.261719 32.140625 6.480469 32.347656 6.746094 32.53125 C 9.453125 34.332031 13.136719 35.746094 17.621094 36.738281 C 26.582031 38.730469 37.40625 38.730469 46.371094 36.738281 C 50.855469 35.746094 54.542969 34.332031 57.246094 32.53125 C 57.515625 32.347656 57.734375 32.140625 57.984375 31.949219 L 57.984375 38.4375 C 57.984375 39.457031 57.21875 40.785156 55.105469 42.191406 C 52.988281 43.605469 49.6875 44.925781 45.53125 45.855469 C 37.222656 47.699219 26.765625 47.699219 18.457031 45.855469 C 14.300781 44.925781 11.011719 43.605469 8.894531 42.191406 C 6.78125 40.785156 6.003906 39.457031 6.003906 38.4375 Z M 6.003906 44.839844 C 6.261719 45.027344 6.480469 45.238281 6.746094 45.417969 C 9.453125 47.21875 13.136719 48.628906 17.621094 49.628906 C 26.582031 51.621094 37.40625 51.621094 46.371094 49.628906 C 50.855469 48.628906 54.542969 47.21875 57.246094 45.417969 C 57.515625 45.238281 57.734375 45.027344 57.984375 44.839844 L 57.984375 51.324219 C 57.984375 52.347656 57.21875 53.671875 55.105469 55.082031 C 52.988281 56.488281 49.6875 57.816406 45.53125 58.738281 C 37.222656 60.582031 26.765625 60.582031 18.457031 58.738281 C 14.300781 57.816406 11.011719 56.488281 8.894531 55.082031 C 6.78125 53.671875 6.003906 52.347656 6.003906 51.324219 Z M 6.003906 44.839844 "
       id="path338" />
  </g>
</svg>
