<?xml version="1.0" encoding="UTF-8" standalone="no"?>
<svg
   width="64px"
   height="64px"
   viewBox="0 0 64 64"
   version="1.1"
   id="svg476"
   sodipodi:docname="mimetype-word.svg"
   inkscape:version="1.2.2 (b0a8486541, 2022-12-01)"
   xmlns:inkscape="http://www.inkscape.org/namespaces/inkscape"
   xmlns:sodipodi="http://sodipodi.sourceforge.net/DTD/sodipodi-0.dtd"
   xmlns="http://www.w3.org/2000/svg"
   xmlns:svg="http://www.w3.org/2000/svg">
  <sodipodi:namedview
     id="namedview478"
     pagecolor="#ffffff"
     bordercolor="#000000"
     borderopacity="0.25"
     inkscape:showpageshadow="2"
     inkscape:pageopacity="0.0"
     inkscape:pagecheckerboard="0"
     inkscape:deskcolor="#d1d1d1"
     showgrid="false"
     inkscape:zoom="3.6875"
     inkscape:cx="32"
     inkscape:cy="32.135593"
     inkscape:window-width="1432"
     inkscape:window-height="844"
     inkscape:window-x="0"
     inkscape:window-y="0"
     inkscape:window-maximized="1"
     inkscape:current-layer="svg476" />
  <defs
     id="defs469">
    <linearGradient
       id="linear0"
       gradientUnits="userSpaceOnUse"
       x1="0"
       y1="0"
       x2="0"
       y2="1"
       gradientTransform="matrix(35.557292,0,0,62.223958,2,0.578125)">
      <stop
         offset="0"
         style="stop-color:#d9f7d8;stop-opacity:1;"
         id="stop459" />
      <stop
         offset="1"
         style="stop-color:#1d5911;stop-opacity:1;"
         id="stop461" />
    </linearGradient>
    <linearGradient
       id="linear1"
       gradientUnits="userSpaceOnUse"
       x1="0"
       y1="0"
       x2="0"
       y2="1"
       gradientTransform="matrix(22.223958,0,0,44.442708,39.776042,9.468749)">
      <stop
         offset="0"
         style="stop-color:#d9f7d8;stop-opacity:1;"
         id="stop464" />
      <stop
         offset="1"
         style="stop-color:#1d5911;stop-opacity:1;"
         id="stop466" />
    </linearGradient>
    <filter
       style="color-interpolation-filters:sRGB;"
       inkscape:label="Diffuse Light"
       id="filter1240"
       x="-0.040000289"
       y="-0.03857116"
       width="1.0800006"
       height="1.0771423">
      <feGaussianBlur
         in="SourceGraphic"
         stdDeviation="1"
         result="blur"
         id="feGaussianBlur1230" />
      <feDiffuseLighting
         diffuseConstant="1"
         surfaceScale="10"
         lighting-color="rgb(255,255,255)"
         result="diffuse"
         id="feDiffuseLighting1234">
        <feDistantLight
           elevation="8"
           azimuth="235"
           id="feDistantLight1232" />
      </feDiffuseLighting>
      <feComposite
         in="diffuse"
         in2="diffuse"
         operator="arithmetic"
         k1="1"
         result="composite1"
         id="feComposite1236" />
      <feComposite
         in="composite1"
         in2="SourceGraphic"
         k1="1"
         operator="arithmetic"
         k3="1"
         result="composite2"
         id="feComposite1238" />
    </filter>
  </defs>
  <g
     id="surface1"
     style="filter:url(#filter1240)">
    <path
       style=" stroke:none;fill-rule:nonzero;fill:url(#linear0);"
       d="M 34.515625 0.578125 C 23.683594 2.511719 12.839844 5.066406 2.003906 6.964844 C 2.003906 23.449219 1.996094 39.9375 2.003906 56.433594 C 12.78125 58.316406 23.566406 60.832031 34.328125 62.800781 L 37.558594 62.800781 L 37.558594 0.578125 Z M 30.328125 20.734375 L 25.332031 41.6875 L 21.234375 41.363281 C 20.296875 36.6875 19.203125 32.035156 18.359375 27.332031 C 17.53125 31.902344 16.457031 36.425781 15.511719 40.964844 C 14.152344 40.886719 12.792969 40.808594 11.425781 40.714844 C 10.25 34.496094 8.875 28.316406 7.777344 22.082031 C 8.984375 22.019531 10.203125 21.980469 11.410156 21.933594 C 12.140625 26.433594 12.964844 30.917969 13.605469 35.425781 C 14.597656 30.800781 15.621094 26.175781 16.609375 21.558594 C 17.949219 21.480469 19.292969 21.421875 20.636719 21.347656 C 21.578125 26.121094 22.535156 30.886719 23.558594 35.636719 C 24.355469 30.730469 25.238281 25.839844 26.09375 20.941406 C 27.503906 20.894531 28.921875 20.816406 30.328125 20.730469 Z M 30.328125 20.734375 "
       id="path471" />
    <path
       style=" stroke:none;fill-rule:nonzero;fill:url(#linear1);"
       d="M 39.777344 9.46875 L 62 9.46875 L 62 53.910156 L 39.777344 53.910156 L 39.777344 49.46875 L 57.558594 49.46875 L 57.558594 47.246094 L 39.777344 47.246094 L 39.777344 42.800781 L 57.558594 42.800781 L 57.558594 40.578125 L 39.777344 40.578125 L 39.777344 36.136719 L 57.558594 36.136719 L 57.558594 33.910156 L 39.777344 33.910156 L 39.777344 29.46875 L 57.558594 29.46875 L 57.558594 27.246094 L 39.777344 27.246094 L 39.777344 22.808594 L 57.558594 22.808594 L 57.558594 20.578125 L 39.777344 20.578125 L 39.777344 16.136719 L 57.558594 16.136719 L 57.558594 13.910156 L 39.777344 13.910156 Z M 39.777344 9.46875 "
       id="path473" />
  </g>
</svg>
