<?xml version="1.0" encoding="UTF-8" standalone="no"?>
<svg
   width="64px"
   height="64px"
   viewBox="0 0 64 64"
   version="1.1"
   id="svg357"
   sodipodi:docname="mimetype-vector.svg"
   inkscape:version="1.2.2 (b0a8486541, 2022-12-01)"
   xmlns:inkscape="http://www.inkscape.org/namespaces/inkscape"
   xmlns:sodipodi="http://sodipodi.sourceforge.net/DTD/sodipodi-0.dtd"
   xmlns="http://www.w3.org/2000/svg"
   xmlns:svg="http://www.w3.org/2000/svg">
  <sodipodi:namedview
     id="namedview359"
     pagecolor="#ffffff"
     bordercolor="#000000"
     borderopacity="0.25"
     inkscape:showpageshadow="2"
     inkscape:pageopacity="0.0"
     inkscape:pagecheckerboard="0"
     inkscape:deskcolor="#d1d1d1"
     showgrid="false"
     inkscape:zoom="3.6875"
     inkscape:cx="32"
     inkscape:cy="32.135593"
     inkscape:window-width="1432"
     inkscape:window-height="844"
     inkscape:window-x="0"
     inkscape:window-y="0"
     inkscape:window-maximized="1"
     inkscape:current-layer="svg357" />
  <defs
     id="defs352">
    <linearGradient
       id="linear0"
       gradientUnits="userSpaceOnUse"
       x1="0"
       y1="0"
       x2="0"
       y2="1"
       gradientTransform="matrix(56,0,0,56,4,4)">
      <stop
         offset="0"
         style="stop-color:#d9f7d8;stop-opacity:1;"
         id="stop347" />
      <stop
         offset="1"
         style="stop-color:#1d5911;stop-opacity:1;"
         id="stop349" />
    </linearGradient>
    <filter
       style="color-interpolation-filters:sRGB;"
       inkscape:label="Diffuse Light"
       id="filter1452"
       x="-0.042857143"
       y="-0.042857143"
       width="1.0857143"
       height="1.0857143">
      <feGaussianBlur
         in="SourceGraphic"
         stdDeviation="1"
         result="blur"
         id="feGaussianBlur1442" />
      <feDiffuseLighting
         diffuseConstant="1"
         surfaceScale="10"
         lighting-color="rgb(255,255,255)"
         result="diffuse"
         id="feDiffuseLighting1446">
        <feDistantLight
           elevation="8"
           azimuth="235"
           id="feDistantLight1444" />
      </feDiffuseLighting>
      <feComposite
         in="diffuse"
         in2="diffuse"
         operator="arithmetic"
         k1="1"
         result="composite1"
         id="feComposite1448" />
      <feComposite
         in="composite1"
         in2="SourceGraphic"
         k1="1"
         operator="arithmetic"
         k3="1"
         result="composite2"
         id="feComposite1450" />
    </filter>
  </defs>
  <g
     id="surface1"
     style="filter:url(#filter1452)">
    <path
       style=" stroke:none;fill-rule:nonzero;fill:url(#linear0);"
       d="M 50 4 C 45.25 4 41.15625 7.34375 40.203125 12 L 8 12 L 8 16 C 15.421875 19.832031 20.660156 25.917969 21.425781 29.207031 C 22.265625 32.78125 21.332031 36.859375 18.839844 41.25 C 17.355469 40.425781 15.691406 40 14 40 C 8.480469 40 4 44.480469 4 50 C 4 55.519531 8.480469 60 14 60 C 18.75 60 22.847656 56.65625 23.796875 52 L 36 52 L 36 60 L 56 60 L 56 40 L 36 40 L 36 48 L 23.78125 48 C 23.488281 46.5625 22.886719 45.203125 22.011719 44.027344 C 25.417969 38.640625 26.84375 33.527344 25.703125 28.5625 C 24.527344 23.449219 20.964844 19.457031 15.875 16 L 40.21875 16 C 41.167969 20.652344 45.253906 23.988281 50 24 C 55.519531 24 60 19.519531 60 14 C 60 8.480469 55.519531 4 50 4 Z M 50 4 "
       id="path354" />
  </g>
</svg>
