<?xml version="1.0" encoding="UTF-8" standalone="no"?>
<svg
   width="64px"
   height="64px"
   viewBox="0 0 64 64"
   version="1.1"
   id="svg12"
   sodipodi:docname="mimetype-bluetooth.svg"
   inkscape:version="1.2.2 (b0a8486541, 2022-12-01)"
   xmlns:inkscape="http://www.inkscape.org/namespaces/inkscape"
   xmlns:sodipodi="http://sodipodi.sourceforge.net/DTD/sodipodi-0.dtd"
   xmlns="http://www.w3.org/2000/svg"
   xmlns:svg="http://www.w3.org/2000/svg">
  <sodipodi:namedview
     id="namedview14"
     pagecolor="#ffffff"
     bordercolor="#000000"
     borderopacity="0.25"
     inkscape:showpageshadow="2"
     inkscape:pageopacity="0.0"
     inkscape:pagecheckerboard="0"
     inkscape:deskcolor="#d1d1d1"
     showgrid="false"
     inkscape:zoom="3.6875"
     inkscape:cx="32"
     inkscape:cy="32.135593"
     inkscape:window-width="1432"
     inkscape:window-height="844"
     inkscape:window-x="0"
     inkscape:window-y="0"
     inkscape:window-maximized="0"
     inkscape:current-layer="svg12" />
  <defs
     id="defs7">
    <linearGradient
       id="linear0"
       gradientUnits="userSpaceOnUse"
       x1="0"
       y1="0"
       x2="0"
       y2="1"
       gradientTransform="matrix(44,0,0,64,10,0)">
      <stop
         offset="0"
         style="stop-color:#f8c3c3;stop-opacity:1;"
         id="stop2" />
      <stop
         offset="1"
         style="stop-color:#c60606;stop-opacity:1;"
         id="stop4" />
    </linearGradient>
    <filter
       style="color-interpolation-filters:sRGB;"
       inkscape:label="Diffuse Light"
       id="filter1177"
       x="-0.054545455"
       y="-0.0375"
       width="1.1090909"
       height="1.075">
      <feGaussianBlur
         in="SourceGraphic"
         stdDeviation="1"
         result="blur"
         id="feGaussianBlur1167" />
      <feDiffuseLighting
         diffuseConstant="1"
         surfaceScale="10"
         lighting-color="rgb(255,255,255)"
         result="diffuse"
         id="feDiffuseLighting1171">
        <feDistantLight
           elevation="8"
           azimuth="235"
           id="feDistantLight1169" />
      </feDiffuseLighting>
      <feComposite
         in="diffuse"
         in2="diffuse"
         operator="arithmetic"
         k1="1"
         result="composite1"
         id="feComposite1173" />
      <feComposite
         in="composite1"
         in2="SourceGraphic"
         k1="1"
         operator="arithmetic"
         k3="1"
         result="composite2"
         id="feComposite1175" />
    </filter>
  </defs>
  <g
     id="surface1"
     style="filter:url(#filter1177)">
    <path
       style=" stroke:none;fill-rule:nonzero;fill:url(#linear0);"
       d="M 20.652344 0 C 17.292969 0.0429688 14.84375 -0.078125 12.832031 1.03125 C 11.832031 1.582031 11.03125 2.515625 10.59375 3.6875 C 10.15625 4.859375 10 6.246094 10 8 L 10 56 C 10 57.753906 10.15625 59.140625 10.59375 60.3125 C 11.03125 61.484375 11.832031 62.421875 12.832031 62.972656 C 14.84375 64.082031 17.292969 63.964844 20.652344 64 L 43.355469 64 C 46.707031 63.957031 49.15625 64.082031 51.167969 62.972656 C 52.167969 62.421875 52.96875 61.484375 53.40625 60.3125 C 53.84375 59.140625 54 57.753906 54 56 L 54 8 C 54 6.246094 53.84375 4.859375 53.40625 3.6875 C 52.96875 2.515625 52.167969 1.582031 51.167969 1.03125 C 49.15625 -0.078125 46.707031 0.0351562 43.347656 0 Z M 30 5.207031 L 46.957031 22.167969 L 35.203125 32.042969 L 46.957031 41.917969 L 30 58.871094 L 30 36.417969 L 20.292969 44.574219 L 17.707031 41.503906 L 28.984375 32.042969 L 17.707031 22.574219 L 20.292969 19.503906 L 30 27.667969 Z M 34 14.871094 L 34 27.828125 L 41.042969 21.90625 Z M 34 36.25 L 34 49.207031 L 41.042969 42.171875 Z M 34 36.25 "
       id="path9" />
  </g>
</svg>
