<?xml version="1.0" encoding="UTF-8" standalone="no"?>
<svg
   width="64px"
   height="64px"
   viewBox="0 0 64 64"
   version="1.1"
   id="svg462"
   sodipodi:docname="mimetype-kdenlive.svg"
   inkscape:version="1.2.2 (b0a8486541, 2022-12-01)"
   xmlns:inkscape="http://www.inkscape.org/namespaces/inkscape"
   xmlns:sodipodi="http://sodipodi.sourceforge.net/DTD/sodipodi-0.dtd"
   xmlns="http://www.w3.org/2000/svg"
   xmlns:svg="http://www.w3.org/2000/svg">
  <sodipodi:namedview
     id="namedview464"
     pagecolor="#ffffff"
     bordercolor="#000000"
     borderopacity="0.25"
     inkscape:showpageshadow="2"
     inkscape:pageopacity="0.0"
     inkscape:pagecheckerboard="0"
     inkscape:deskcolor="#d1d1d1"
     showgrid="false"
     inkscape:zoom="3.6875"
     inkscape:cx="32"
     inkscape:cy="32.135593"
     inkscape:window-width="1432"
     inkscape:window-height="844"
     inkscape:window-x="0"
     inkscape:window-y="0"
     inkscape:window-maximized="0"
     inkscape:current-layer="svg462" />
  <defs
     id="defs457">
    <linearGradient
       id="linear0"
       gradientUnits="userSpaceOnUse"
       x1="0"
       y1="0"
       x2="0"
       y2="1"
       gradientTransform="matrix(61.536458,0,0,64,1.234375,0)">
      <stop
         offset="0"
         style="stop-color:#fcd7fb;stop-opacity:1;"
         id="stop452" />
      <stop
         offset="1"
         style="stop-color:#ce13b8;stop-opacity:1;"
         id="stop454" />
    </linearGradient>
    <filter
       style="color-interpolation-filters:sRGB;"
       inkscape:label="Diffuse Light"
       id="filter909"
       x="-0.039002095"
       y="-0.0375"
       width="1.0780042"
       height="1.075">
      <feGaussianBlur
         in="SourceGraphic"
         stdDeviation="1"
         result="blur"
         id="feGaussianBlur899" />
      <feDiffuseLighting
         diffuseConstant="1"
         surfaceScale="10"
         lighting-color="rgb(255,255,255)"
         result="diffuse"
         id="feDiffuseLighting903">
        <feDistantLight
           elevation="8"
           azimuth="235"
           id="feDistantLight901" />
      </feDiffuseLighting>
      <feComposite
         in="diffuse"
         in2="diffuse"
         operator="arithmetic"
         k1="1"
         result="composite1"
         id="feComposite905" />
      <feComposite
         in="composite1"
         in2="SourceGraphic"
         k1="1"
         operator="arithmetic"
         k3="1"
         result="composite2"
         id="feComposite907" />
    </filter>
  </defs>
  <g
     id="surface1"
     style="filter:url(#filter909)">
    <path
       style=" stroke:none;fill-rule:nonzero;fill:url(#linear0);"
       d="M 23.378906 0 L 28.308594 7.378906 L 30.78125 11.089844 L 30.871094 64 L 35.691406 64 L 35.691406 11.078125 L 38.15625 7.378906 L 43.078125 0 Z M 20.921875 12.308594 L 20.921875 16 L 25.84375 16 L 25.84375 12.308594 Z M 42.53125 18.953125 C 41.625 19 40.644531 19.800781 40.644531 20.6875 L 40.621094 46.753906 C 40.621094 47.9375 42.355469 48.964844 43.34375 48.265625 L 62.019531 35.183594 C 63.019531 34.488281 63.019531 32.863281 62.019531 32.171875 L 43.375 19.183594 C 43.125 19.003906 42.832031 18.9375 42.53125 18.953125 Z M 16 19.691406 L 16 23.378906 L 25.84375 23.378906 L 25.84375 19.691406 Z M 6.15625 27.078125 L 6.15625 30.765625 L 25.84375 30.765625 L 25.84375 27.078125 Z M 1.234375 34.464844 L 1.234375 38.15625 L 25.84375 38.15625 L 25.84375 34.464844 Z M 6.15625 41.84375 L 6.15625 45.542969 L 25.84375 45.542969 L 25.84375 41.84375 Z M 16 49.234375 L 16 52.921875 L 25.84375 52.921875 L 25.84375 49.234375 Z M 16 49.234375 "
       id="path459" />
  </g>
</svg>
