<?xml version="1.0" encoding="UTF-8" standalone="no"?>
<svg
   width="64px"
   height="64px"
   viewBox="0 0 64 64"
   version="1.1"
   id="svg490"
   sodipodi:docname="mimetype-krita.svg"
   inkscape:version="1.2.2 (b0a8486541, 2022-12-01)"
   xmlns:inkscape="http://www.inkscape.org/namespaces/inkscape"
   xmlns:sodipodi="http://sodipodi.sourceforge.net/DTD/sodipodi-0.dtd"
   xmlns="http://www.w3.org/2000/svg"
   xmlns:svg="http://www.w3.org/2000/svg">
  <sodipodi:namedview
     id="namedview492"
     pagecolor="#ffffff"
     bordercolor="#000000"
     borderopacity="0.25"
     inkscape:showpageshadow="2"
     inkscape:pageopacity="0.0"
     inkscape:pagecheckerboard="0"
     inkscape:deskcolor="#d1d1d1"
     showgrid="false"
     inkscape:zoom="3.6875"
     inkscape:cx="32"
     inkscape:cy="32.135593"
     inkscape:window-width="1432"
     inkscape:window-height="844"
     inkscape:window-x="0"
     inkscape:window-y="0"
     inkscape:window-maximized="1"
     inkscape:current-layer="svg490" />
  <defs
     id="defs485">
    <linearGradient
       id="linear0"
       gradientUnits="userSpaceOnUse"
       x1="0"
       y1="0"
       x2="0"
       y2="1"
       gradientTransform="matrix(64,0,0,64.005208,0,0)">
      <stop
         offset="0"
         style="stop-color:#e3cfff;stop-opacity:1;"
         id="stop480" />
      <stop
         offset="1"
         style="stop-color:#7d05ff;stop-opacity:1;"
         id="stop482" />
    </linearGradient>
    <filter
       style="color-interpolation-filters:sRGB;"
       inkscape:label="Diffuse Light"
       id="filter857"
       x="-0.0375"
       y="-0.037497252"
       width="1.075"
       height="1.0749945">
      <feGaussianBlur
         in="SourceGraphic"
         stdDeviation="1"
         result="blur"
         id="feGaussianBlur847" />
      <feDiffuseLighting
         diffuseConstant="1"
         surfaceScale="10"
         lighting-color="rgb(255,255,255)"
         result="diffuse"
         id="feDiffuseLighting851">
        <feDistantLight
           elevation="8"
           azimuth="235"
           id="feDistantLight849" />
      </feDiffuseLighting>
      <feComposite
         in="diffuse"
         in2="diffuse"
         operator="arithmetic"
         k1="1"
         result="composite1"
         id="feComposite853" />
      <feComposite
         in="composite1"
         in2="SourceGraphic"
         k1="1"
         operator="arithmetic"
         k3="1"
         result="composite2"
         id="feComposite855" />
    </filter>
  </defs>
  <g
     id="surface1"
     style="filter:url(#filter857)">
    <path
       style=" stroke:none;fill-rule:nonzero;fill:url(#linear0);"
       d="M 60.40625 0 C 59.441406 0 58.503906 0.332031 57.703125 1 L 32.800781 21.699219 C 32.5 21.894531 32.277344 22.121094 32 22.394531 L 16 35.199219 L 28.800781 48 L 41.605469 31.996094 L 63.003906 6.296875 C 64.332031 4.707031 64.332031 2.324219 63.003906 0.996094 C 62.300781 0.339844 61.371094 -0.0195312 60.40625 0 Z M 35.203125 25.597656 L 38.402344 28.800781 L 28.800781 40 L 24 35.203125 Z M 35.203125 26.902344 L 35.105469 27.097656 C 35.152344 27.0625 35.152344 26.949219 35.203125 26.902344 Z M 12.800781 38.402344 L 1.902344 44.097656 C 0.839844 44.640625 0 45.4375 0 46.5 C 0 47.5625 0.0351562 49.113281 0.300781 50.703125 L 11.203125 43.800781 L 0.5 51.800781 C 1.027344 54.191406 2.410156 56.777344 4.800781 58.90625 C 6.125 60.222656 7.472656 61.105469 8.800781 61.902344 L 13.699219 57.902344 L 10.605469 62.703125 C 13.265625 64.027344 15.902344 64.003906 17.5 64.003906 C 18.5625 64.003906 19.5 63.238281 19.902344 62.402344 L 25.605469 51.203125 Z M 12.800781 38.402344 "
       id="path487" />
  </g>
</svg>
