<?xml version="1.0" encoding="UTF-8" standalone="no"?>
<svg
   width="64px"
   height="64px"
   viewBox="0 0 64 64"
   version="1.1"
   id="svg392"
   sodipodi:docname="mimetype-gdform.svg"
   inkscape:version="1.2.2 (b0a8486541, 2022-12-01)"
   xmlns:inkscape="http://www.inkscape.org/namespaces/inkscape"
   xmlns:sodipodi="http://sodipodi.sourceforge.net/DTD/sodipodi-0.dtd"
   xmlns="http://www.w3.org/2000/svg"
   xmlns:svg="http://www.w3.org/2000/svg">
  <sodipodi:namedview
     id="namedview394"
     pagecolor="#ffffff"
     bordercolor="#000000"
     borderopacity="0.25"
     inkscape:showpageshadow="2"
     inkscape:pageopacity="0.0"
     inkscape:pagecheckerboard="0"
     inkscape:deskcolor="#d1d1d1"
     showgrid="false"
     inkscape:zoom="3.6875"
     inkscape:cx="32"
     inkscape:cy="32.135593"
     inkscape:window-width="1432"
     inkscape:window-height="844"
     inkscape:window-x="0"
     inkscape:window-y="0"
     inkscape:window-maximized="1"
     inkscape:current-layer="svg392" />
  <defs
     id="defs387">
    <linearGradient
       id="linear0"
       gradientUnits="userSpaceOnUse"
       x1="0"
       y1="0"
       x2="0"
       y2="1"
       gradientTransform="matrix(64,0,0,50.28125,0,6.859374)">
      <stop
         offset="0"
         style="stop-color:#e3cfff;stop-opacity:1;"
         id="stop382" />
      <stop
         offset="1"
         style="stop-color:#7d05ff;stop-opacity:1;"
         id="stop384" />
    </linearGradient>
    <filter
       style="color-interpolation-filters:sRGB;"
       inkscape:label="Diffuse Light"
       id="filter724"
       x="-0.0375"
       y="-0.04773151"
       width="1.075"
       height="1.095463">
      <feGaussianBlur
         in="SourceGraphic"
         stdDeviation="1"
         result="blur"
         id="feGaussianBlur714" />
      <feDiffuseLighting
         diffuseConstant="1"
         surfaceScale="10"
         lighting-color="rgb(255,255,255)"
         result="diffuse"
         id="feDiffuseLighting718">
        <feDistantLight
           elevation="8"
           azimuth="235"
           id="feDistantLight716" />
      </feDiffuseLighting>
      <feComposite
         in="diffuse"
         in2="diffuse"
         operator="arithmetic"
         k1="1"
         result="composite1"
         id="feComposite720" />
      <feComposite
         in="composite1"
         in2="SourceGraphic"
         k1="1"
         operator="arithmetic"
         k3="1"
         result="composite2"
         id="feComposite722" />
    </filter>
  </defs>
  <g
     id="surface1"
     style="filter:url(#filter724)">
    <path
       style=" stroke:none;fill-rule:evenodd;fill:url(#linear0);"
       d="M 13.714844 52.574219 L 13.714844 57.140625 L 64 57.140625 L 64 52.574219 Z M 13.714844 6.859375 L 13.714844 11.425781 L 64 11.425781 L 64 6.859375 Z M 13.714844 25.140625 L 13.714844 29.714844 L 64 29.714844 L 64 25.140625 Z M 13.714844 34.285156 L 13.714844 38.859375 L 64 38.859375 L 64 34.285156 Z M 13.714844 43.425781 L 13.714844 48 L 64 48 L 64 43.425781 Z M 13.714844 16 L 13.714844 20.574219 L 64 20.574219 L 64 16 Z M 0 6.859375 L 9.140625 6.859375 L 9.140625 11.425781 L 0 11.425781 Z M 0 16 L 9.140625 16 L 9.140625 20.574219 L 0 20.574219 Z M 0 25.140625 L 9.140625 25.140625 L 9.140625 29.714844 L 0 29.714844 Z M 0 34.285156 L 9.140625 34.285156 L 9.140625 38.859375 L 0 38.859375 Z M 0 43.425781 L 9.140625 43.425781 L 9.140625 48 L 0 48 Z M 0 52.574219 L 9.140625 52.574219 L 9.140625 57.140625 L 0 57.140625 Z M 0 52.574219 "
       id="path389" />
  </g>
</svg>
