<?xml version="1.0" encoding="UTF-8" standalone="no"?>
<svg
   width="64px"
   height="64px"
   viewBox="0 0 64 64"
   version="1.1"
   id="svg272"
   sodipodi:docname="mimetype-fictionbook.svg"
   inkscape:version="1.2.2 (b0a8486541, 2022-12-01)"
   xmlns:inkscape="http://www.inkscape.org/namespaces/inkscape"
   xmlns:sodipodi="http://sodipodi.sourceforge.net/DTD/sodipodi-0.dtd"
   xmlns="http://www.w3.org/2000/svg"
   xmlns:svg="http://www.w3.org/2000/svg">
  <sodipodi:namedview
     id="namedview274"
     pagecolor="#ffffff"
     bordercolor="#000000"
     borderopacity="0.25"
     inkscape:showpageshadow="2"
     inkscape:pageopacity="0.0"
     inkscape:pagecheckerboard="0"
     inkscape:deskcolor="#d1d1d1"
     showgrid="false"
     inkscape:zoom="3.6875"
     inkscape:cx="32"
     inkscape:cy="32.135593"
     inkscape:window-width="1432"
     inkscape:window-height="844"
     inkscape:window-x="0"
     inkscape:window-y="0"
     inkscape:window-maximized="1"
     inkscape:current-layer="svg272" />
  <defs
     id="defs263">
    <linearGradient
       id="linear0"
       gradientUnits="userSpaceOnUse"
       x1="0"
       y1="0"
       x2="0"
       y2="1"
       gradientTransform="matrix(56,0,0,64,4,0)">
      <stop
         offset="0"
         style="stop-color:#f8f1d0;stop-opacity:1;"
         id="stop248" />
      <stop
         offset="1"
         style="stop-color:#e18d0f;stop-opacity:1;"
         id="stop250" />
    </linearGradient>
    <linearGradient
       id="linear1"
       gradientUnits="userSpaceOnUse"
       x1="0"
       y1="0"
       x2="0"
       y2="1"
       gradientTransform="matrix(25.046875,0,0,39.609375,11.765625,8)">
      <stop
         offset="0"
         style="stop-color:#f8f1d0;stop-opacity:1;"
         id="stop253" />
      <stop
         offset="1"
         style="stop-color:#e18d0f;stop-opacity:1;"
         id="stop255" />
    </linearGradient>
    <linearGradient
       id="linear2"
       gradientUnits="userSpaceOnUse"
       x1="0"
       y1="0"
       x2="0"
       y2="1"
       gradientTransform="matrix(8.645833,0,0,15.5,20.156251,12.906251)">
      <stop
         offset="0"
         style="stop-color:#f8f1d0;stop-opacity:1;"
         id="stop258" />
      <stop
         offset="1"
         style="stop-color:#e18d0f;stop-opacity:1;"
         id="stop260" />
    </linearGradient>
    <filter
       style="color-interpolation-filters:sRGB;"
       inkscape:label="Diffuse Light"
       id="filter920"
       x="-0.042857143"
       y="-0.0375"
       width="1.0857143"
       height="1.075">
      <feGaussianBlur
         in="SourceGraphic"
         stdDeviation="1"
         result="blur"
         id="feGaussianBlur910" />
      <feDiffuseLighting
         diffuseConstant="1"
         surfaceScale="10"
         lighting-color="rgb(255,255,255)"
         result="diffuse"
         id="feDiffuseLighting914">
        <feDistantLight
           elevation="8"
           azimuth="235"
           id="feDistantLight912" />
      </feDiffuseLighting>
      <feComposite
         in="diffuse"
         in2="diffuse"
         operator="arithmetic"
         k1="1"
         result="composite1"
         id="feComposite916" />
      <feComposite
         in="composite1"
         in2="SourceGraphic"
         k1="1"
         operator="arithmetic"
         k3="1"
         result="composite2"
         id="feComposite918" />
    </filter>
  </defs>
  <g
     id="surface1"
     style="filter:url(#filter920)">
    <path
       style=" stroke:none;fill-rule:nonzero;fill:url(#linear0);"
       d="M 4 0 L 4 64 L 43 64 L 60 47 L 60 0 Z M 8 4 L 56 4 L 56 44 L 40 44 L 40 60 L 8 60 Z M 8 4 "
       id="path265" />
    <path
       style=" stroke:none;fill-rule:evenodd;fill:url(#linear1);"
       d="M 11.980469 44.746094 C 11.902344 45.671875 11.828125 46.625 11.765625 47.609375 C 12.050781 47.261719 12.34375 46.910156 12.625 46.574219 C 12.953125 46.175781 13.277344 45.785156 13.59375 45.402344 C 22.644531 34.527344 28.546875 28.035156 34.214844 39.359375 C 35.082031 41.09375 35.941406 43.246094 36.8125 45.859375 C 36.527344 43.472656 36.191406 41.128906 35.816406 38.84375 C 33.855469 26.921875 30.605469 16.582031 25.269531 9.410156 C 24.910156 8.925781 24.542969 8.453125 24.160156 8 C 23.859375 8.527344 23.566406 9.042969 23.28125 9.546875 C 15.902344 22.625 13.152344 31.003906 11.980469 44.746094 Z M 13.863281 42.484375 C 15.453125 40.605469 16.953125 38.875 18.378906 37.390625 C 20.746094 34.933594 23.109375 32.921875 25.511719 32.128906 C 26.761719 31.71875 28.058594 31.625 29.355469 31.996094 C 30.640625 32.359375 31.792969 33.140625 32.828125 34.253906 C 33.027344 34.46875 33.222656 34.699219 33.417969 34.9375 C 31.5 25.265625 28.621094 17 24.371094 11 C 20.800781 17.378906 18.394531 22.582031 16.738281 27.863281 C 15.324219 32.375 14.441406 36.984375 13.863281 42.484375 Z M 13.863281 42.484375 "
       id="path267" />
    <path
       style=" stroke:none;fill-rule:nonzero;fill:url(#linear2);"
       d="M 24.285156 12.90625 L 23.15625 22.9375 L 23.109375 22.9375 L 20.234375 24.027344 L 20.15625 24.050781 L 20.234375 24.09375 L 22.828125 25.5 L 22.855469 25.503906 L 22.859375 25.5 L 22.871094 25.5 L 22.542969 28.386719 L 22.621094 28.40625 L 24.328125 25.71875 L 26.125 28.40625 L 26.203125 28.386719 L 25.859375 25.515625 L 25.957031 25.515625 L 25.96875 25.511719 L 28.71875 24.09375 L 28.800781 24.058594 L 28.707031 24.027344 L 25.628906 22.9375 L 25.558594 22.9375 L 24.371094 12.90625 Z M 24.285156 12.90625 "
       id="path269" />
  </g>
</svg>
