<?xml version="1.0" encoding="UTF-8" standalone="no"?>
<svg
   width="64px"
   height="64px"
   viewBox="0 0 64 64"
   version="1.1"
   id="svg248"
   sodipodi:docname="mimetype-help.svg"
   inkscape:version="1.2.2 (b0a8486541, 2022-12-01)"
   xmlns:inkscape="http://www.inkscape.org/namespaces/inkscape"
   xmlns:sodipodi="http://sodipodi.sourceforge.net/DTD/sodipodi-0.dtd"
   xmlns="http://www.w3.org/2000/svg"
   xmlns:svg="http://www.w3.org/2000/svg">
  <defs
     id="defs252">
    <filter
       style="color-interpolation-filters:sRGB;"
       inkscape:label="Diffuse Light"
       id="filter1213"
       x="-0.061935484"
       y="-0.0375"
       width="1.123871"
       height="1.075">
      <feGaussianBlur
         in="SourceGraphic"
         stdDeviation="1"
         result="blur"
         id="feGaussianBlur1203" />
      <feDiffuseLighting
         diffuseConstant="1"
         surfaceScale="10"
         lighting-color="rgb(255,255,255)"
         result="diffuse"
         id="feDiffuseLighting1207">
        <feDistantLight
           elevation="8"
           azimuth="235"
           id="feDistantLight1205" />
      </feDiffuseLighting>
      <feComposite
         in="diffuse"
         in2="diffuse"
         operator="arithmetic"
         k1="1"
         result="composite1"
         id="feComposite1209" />
      <feComposite
         in="composite1"
         in2="SourceGraphic"
         k1="1"
         operator="arithmetic"
         k3="1"
         result="composite2"
         id="feComposite1211" />
    </filter>
  </defs>
  <sodipodi:namedview
     id="namedview250"
     pagecolor="#ffffff"
     bordercolor="#000000"
     borderopacity="0.25"
     inkscape:showpageshadow="2"
     inkscape:pageopacity="0.0"
     inkscape:pagecheckerboard="0"
     inkscape:deskcolor="#d1d1d1"
     showgrid="false"
     inkscape:zoom="3.6875"
     inkscape:cx="32"
     inkscape:cy="32.135593"
     inkscape:window-width="1432"
     inkscape:window-height="844"
     inkscape:window-x="0"
     inkscape:window-y="0"
     inkscape:window-maximized="1"
     inkscape:current-layer="svg248" />
  <g
     id="surface1"
     style="filter:url(#filter1213)">
    <path
       style=" stroke:none;fill-rule:evenodd;fill:rgb(57.647061%,58.431375%,59.215689%);fill-opacity:1;"
       d="M 35.484375 46.964844 L 27.71875 46.964844 L 27.71875 45.019531 C 27.71875 41.902344 28.261719 39.167969 29.355469 36.8125 C 30.441406 34.457031 31.765625 32.558594 33.324219 31.121094 C 34.886719 29.675781 36.441406 28.308594 38.003906 27.011719 C 39.5625 25.71875 40.886719 24.21875 41.972656 22.511719 C 43.0625 20.800781 43.609375 18.890625 43.609375 16.769531 C 43.609375 14.003906 42.636719 11.714844 40.691406 9.886719 C 38.753906 8.0625 36.074219 7.152344 32.660156 7.152344 C 28.71875 7.152344 25.644531 8.238281 23.4375 10.417969 C 21.230469 12.59375 20.125 15.503906 20.125 19.15625 L 12.625 19.15625 C 12.625 13.449219 14.464844 8.828125 18.140625 5.296875 C 21.816406 1.765625 26.660156 0 32.660156 0 C 38.546875 0 43.136719 1.589844 46.433594 4.765625 C 49.730469 7.941406 51.375 11.972656 51.375 16.859375 C 51.375 19.625 50.832031 22.066406 49.746094 24.1875 C 48.65625 26.308594 47.328125 28.058594 45.769531 29.4375 C 44.214844 30.824219 42.652344 32.175781 41.09375 33.5 C 39.53125 34.824219 38.207031 36.457031 37.121094 38.402344 C 36.03125 40.34375 35.484375 42.578125 35.484375 45.109375 Z M 35.796875 62.191406 C 34.589844 63.394531 33.136719 64 31.425781 64 C 29.71875 64 28.277344 63.394531 27.097656 62.191406 C 25.921875 60.984375 25.332031 59.589844 25.332031 57.996094 C 25.332031 56.347656 25.921875 54.921875 27.097656 53.714844 C 28.277344 52.511719 29.71875 51.90625 31.425781 51.90625 C 33.136719 51.90625 34.589844 52.527344 35.796875 53.761719 C 37 54.996094 37.605469 56.40625 37.605469 57.996094 C 37.605469 59.589844 37 60.984375 35.796875 62.191406 Z M 35.796875 62.191406 "
       id="path245" />
  </g>
</svg>
