<?xml version="1.0" encoding="UTF-8" standalone="no"?>
<svg
   width="64px"
   height="64px"
   viewBox="0 0 64 64"
   version="1.1"
   id="svg292"
   sodipodi:docname="mimetype-illustrator.svg"
   inkscape:version="1.2.2 (b0a8486541, 2022-12-01)"
   xmlns:inkscape="http://www.inkscape.org/namespaces/inkscape"
   xmlns:sodipodi="http://sodipodi.sourceforge.net/DTD/sodipodi-0.dtd"
   xmlns="http://www.w3.org/2000/svg"
   xmlns:svg="http://www.w3.org/2000/svg">
  <sodipodi:namedview
     id="namedview294"
     pagecolor="#ffffff"
     bordercolor="#000000"
     borderopacity="0.25"
     inkscape:showpageshadow="2"
     inkscape:pageopacity="0.0"
     inkscape:pagecheckerboard="0"
     inkscape:deskcolor="#d1d1d1"
     showgrid="false"
     inkscape:zoom="3.6875"
     inkscape:cx="32"
     inkscape:cy="32.135593"
     inkscape:window-width="1432"
     inkscape:window-height="844"
     inkscape:window-x="0"
     inkscape:window-y="0"
     inkscape:window-maximized="1"
     inkscape:current-layer="svg292" />
  <defs
     id="defs287">
    <linearGradient
       id="linear0"
       gradientUnits="userSpaceOnUse"
       x1="0"
       y1="0"
       x2="0"
       y2="1"
       gradientTransform="matrix(60,0,0,53.036458,2,6.963541)">
      <stop
         offset="0"
         style="stop-color:#fcd7fb;stop-opacity:1;"
         id="stop282" />
      <stop
         offset="1"
         style="stop-color:#ce13b8;stop-opacity:1;"
         id="stop284" />
    </linearGradient>
    <filter
       style="color-interpolation-filters:sRGB;"
       inkscape:label="Diffuse Light"
       id="filter1153"
       x="-0.04"
       y="-0.045253002"
       width="1.08"
       height="1.090506">
      <feGaussianBlur
         in="SourceGraphic"
         stdDeviation="1"
         result="blur"
         id="feGaussianBlur1143" />
      <feDiffuseLighting
         diffuseConstant="1"
         surfaceScale="10"
         lighting-color="rgb(255,255,255)"
         result="diffuse"
         id="feDiffuseLighting1147">
        <feDistantLight
           elevation="8"
           azimuth="235"
           id="feDistantLight1145" />
      </feDiffuseLighting>
      <feComposite
         in="diffuse"
         in2="diffuse"
         operator="arithmetic"
         k1="1"
         result="composite1"
         id="feComposite1149" />
      <feComposite
         in="composite1"
         in2="SourceGraphic"
         k1="1"
         operator="arithmetic"
         k3="1"
         result="composite2"
         id="feComposite1151" />
    </filter>
  </defs>
  <g
     id="surface1"
     style="filter:url(#filter1153)">
    <path
       style=" stroke:none;fill-rule:nonzero;fill:url(#linear0);"
       d="M 56.699219 6.964844 C 55.972656 6.964844 55.234375 7.0625 54.574219 7.222656 C 53.9375 7.390625 53.40625 7.660156 52.917969 8.089844 C 52.449219 8.488281 52.066406 9.058594 51.792969 9.746094 C 51.515625 10.40625 51.390625 11.25 51.390625 12.265625 C 51.390625 13.261719 51.511719 14.097656 51.792969 14.785156 C 52.066406 15.46875 52.449219 16.015625 52.917969 16.441406 C 53.40625 16.84375 53.9375 17.113281 54.574219 17.300781 C 55.234375 17.46875 55.972656 17.566406 56.699219 17.566406 C 57.421875 17.566406 58.113281 17.46875 58.75 17.300781 C 59.390625 17.113281 59.941406 16.84375 60.410156 16.441406 C 60.902344 16.015625 61.261719 15.46875 61.535156 14.785156 C 61.832031 14.097656 62 13.261719 62 12.265625 C 62 11.25 61.832031 10.40625 61.535156 9.746094 C 61.261719 9.058594 60.902344 8.488281 60.410156 8.089844 C 59.941406 7.660156 59.390625 7.390625 58.75 7.222656 C 58.113281 7.0625 57.421875 6.964844 56.699219 6.964844 Z M 17.84375 11.203125 L 2 60 L 12.472656 60 L 16.71875 47.269531 L 32.03125 47.269531 L 36.011719 60 L 46.421875 60 L 30.511719 11.203125 Z M 24.207031 17.902344 C 24.324219 18.675781 24.542969 19.640625 24.808594 20.75 C 25.074219 21.863281 25.378906 23.019531 25.667969 24.128906 C 25.980469 25.21875 26.265625 26.203125 26.53125 27.113281 C 26.796875 28.027344 26.996094 28.640625 27.125 29.035156 L 30.246094 38.785156 L 18.308594 38.785156 L 21.425781 29.035156 C 21.488281 28.792969 21.625 28.421875 21.753906 27.910156 C 21.910156 27.402344 22.042969 26.855469 22.21875 26.1875 C 22.402344 25.519531 22.621094 24.824219 22.816406 24.066406 C 23.015625 23.3125 23.171875 22.546875 23.347656 21.8125 C 23.546875 21.058594 23.746094 20.359375 23.878906 19.691406 C 24.035156 19.027344 24.121094 18.390625 24.207031 17.902344 Z M 51.328125 21.8125 L 51.328125 60 L 61.933594 60 L 61.933594 21.8125 Z M 51.328125 21.8125 "
       id="path289" />
  </g>
</svg>
