<?xml version="1.0" encoding="UTF-8" standalone="no"?>
<svg
   width="64px"
   height="64px"
   viewBox="0 0 64 64"
   version="1.1"
   id="svg412"
   sodipodi:docname="mimetype-javascript.svg"
   inkscape:version="1.2.2 (b0a8486541, 2022-12-01)"
   xmlns:inkscape="http://www.inkscape.org/namespaces/inkscape"
   xmlns:sodipodi="http://sodipodi.sourceforge.net/DTD/sodipodi-0.dtd"
   xmlns="http://www.w3.org/2000/svg"
   xmlns:svg="http://www.w3.org/2000/svg">
  <sodipodi:namedview
     id="namedview414"
     pagecolor="#ffffff"
     bordercolor="#000000"
     borderopacity="0.25"
     inkscape:showpageshadow="2"
     inkscape:pageopacity="0.0"
     inkscape:pagecheckerboard="0"
     inkscape:deskcolor="#d1d1d1"
     showgrid="false"
     inkscape:zoom="3.6875"
     inkscape:cx="32"
     inkscape:cy="32.135593"
     inkscape:window-width="1432"
     inkscape:window-height="844"
     inkscape:window-x="0"
     inkscape:window-y="0"
     inkscape:window-maximized="1"
     inkscape:current-layer="svg412" />
  <defs
     id="defs407">
    <linearGradient
       id="linear0"
       gradientUnits="userSpaceOnUse"
       x1="0"
       y1="0"
       x2="0"
       y2="1"
       gradientTransform="matrix(60,0,0,42.598958,2,11.401042)">
      <stop
         offset="0"
         style="stop-color:#d9f7d8;stop-opacity:1;"
         id="stop402" />
      <stop
         offset="1"
         style="stop-color:#1d5911;stop-opacity:1;"
         id="stop404" />
    </linearGradient>
    <filter
       style="color-interpolation-filters:sRGB;"
       inkscape:label="Diffuse Light"
       id="filter975"
       x="-0.04"
       y="-0.056341128"
       width="1.08"
       height="1.1126823">
      <feGaussianBlur
         in="SourceGraphic"
         stdDeviation="1"
         result="blur"
         id="feGaussianBlur965" />
      <feDiffuseLighting
         diffuseConstant="1"
         surfaceScale="10"
         lighting-color="rgb(255,255,255)"
         result="diffuse"
         id="feDiffuseLighting969">
        <feDistantLight
           elevation="8"
           azimuth="235"
           id="feDistantLight967" />
      </feDiffuseLighting>
      <feComposite
         in="diffuse"
         in2="diffuse"
         operator="arithmetic"
         k1="1"
         result="composite1"
         id="feComposite971" />
      <feComposite
         in="composite1"
         in2="SourceGraphic"
         k1="1"
         operator="arithmetic"
         k3="1"
         result="composite2"
         id="feComposite973" />
    </filter>
  </defs>
  <g
     id="surface1"
     style="filter:url(#filter975)">
    <path
       style=" stroke:none;fill-rule:nonzero;fill:url(#linear0);"
       d="M 39.1875 41.214844 C 41.019531 44.207031 43.40625 46.40625 47.625 46.40625 C 51.171875 46.40625 53.433594 44.636719 53.433594 42.1875 C 53.433594 39.253906 51.109375 38.214844 47.207031 36.511719 L 45.066406 35.589844 C 38.894531 32.957031 34.792969 29.667969 34.792969 22.699219 C 34.792969 16.285156 39.683594 11.402344 47.324219 11.402344 C 52.761719 11.402344 56.671875 13.292969 59.488281 18.25 L 52.828125 22.527344 C 51.359375 19.894531 49.78125 18.859375 47.324219 18.859375 C 44.816406 18.859375 43.230469 20.449219 43.230469 22.527344 C 43.230469 25.09375 44.816406 26.128906 48.488281 27.722656 L 50.625 28.640625 C 57.894531 31.753906 62 34.933594 62 42.078125 C 62 49.78125 55.949219 54 47.824219 54 C 39.878906 54 34.746094 50.214844 32.234375 45.25 Z M 8.964844 41.953125 C 10.308594 44.339844 11.53125 46.355469 14.46875 46.355469 C 17.28125 46.355469 19.050781 45.253906 19.050781 40.980469 L 19.050781 11.886719 L 27.609375 11.886719 L 27.609375 41.09375 C 27.609375 49.953125 22.417969 53.984375 14.832031 53.984375 C 7.984375 53.984375 4.015625 50.4375 2 46.171875 Z M 8.964844 41.953125 "
       id="path409" />
  </g>
</svg>
