<?xml version="1.0" encoding="UTF-8" standalone="no"?>
<svg
   width="64px"
   height="64px"
   viewBox="0 0 64 64"
   version="1.1"
   id="svg370"
   sodipodi:docname="mimetype-iptables.svg"
   inkscape:version="1.2.2 (b0a8486541, 2022-12-01)"
   xmlns:inkscape="http://www.inkscape.org/namespaces/inkscape"
   xmlns:sodipodi="http://sodipodi.sourceforge.net/DTD/sodipodi-0.dtd"
   xmlns="http://www.w3.org/2000/svg"
   xmlns:svg="http://www.w3.org/2000/svg">
  <sodipodi:namedview
     id="namedview372"
     pagecolor="#ffffff"
     bordercolor="#000000"
     borderopacity="0.25"
     inkscape:showpageshadow="2"
     inkscape:pageopacity="0.0"
     inkscape:pagecheckerboard="0"
     inkscape:deskcolor="#d1d1d1"
     showgrid="false"
     inkscape:zoom="3.6875"
     inkscape:cx="32"
     inkscape:cy="32.135593"
     inkscape:window-width="1432"
     inkscape:window-height="844"
     inkscape:window-x="0"
     inkscape:window-y="0"
     inkscape:window-maximized="1"
     inkscape:current-layer="svg370" />
  <defs
     id="defs365">
    <linearGradient
       id="linear0"
       gradientUnits="userSpaceOnUse"
       x1="0"
       y1="0"
       x2="0"
       y2="1"
       gradientTransform="matrix(54.864583,0,0,64,4.567708,0)">
      <stop
         offset="0"
         style="stop-color:#f8f1d0;stop-opacity:1;"
         id="stop360" />
      <stop
         offset="1"
         style="stop-color:#e18d0f;stop-opacity:1;"
         id="stop362" />
    </linearGradient>
    <filter
       style="color-interpolation-filters:sRGB;"
       inkscape:label="Diffuse Light"
       id="filter1053"
       x="-0.043744355"
       y="-0.0375"
       width="1.0874887"
       height="1.075">
      <feGaussianBlur
         in="SourceGraphic"
         stdDeviation="1"
         result="blur"
         id="feGaussianBlur1043" />
      <feDiffuseLighting
         diffuseConstant="1"
         surfaceScale="10"
         lighting-color="rgb(255,255,255)"
         result="diffuse"
         id="feDiffuseLighting1047">
        <feDistantLight
           elevation="8"
           azimuth="235"
           id="feDistantLight1045" />
      </feDiffuseLighting>
      <feComposite
         in="diffuse"
         in2="diffuse"
         operator="arithmetic"
         k1="1"
         result="composite1"
         id="feComposite1049" />
      <feComposite
         in="composite1"
         in2="SourceGraphic"
         k1="1"
         operator="arithmetic"
         k3="1"
         result="composite2"
         id="feComposite1051" />
    </filter>
  </defs>
  <g
     id="surface1"
     style="filter:url(#filter1053)">
    <path
       style=" stroke:none;fill-rule:nonzero;fill:url(#linear0);"
       d="M 22.933594 0 C 21.609375 1.894531 20.542969 8.390625 24.359375 11.605469 C 28.863281 15.453125 29.828125 20.074219 29.828125 27.074219 C 29.828125 36.921875 22.058594 44.800781 27.515625 54.152344 C 12.253906 40.6875 27.636719 20.488281 16.019531 12.308594 C 20.613281 24.609375 4.527344 31.996094 4.566406 43.9375 C 4.53125 56.609375 13.734375 63.996094 24.765625 63.96875 C 16.894531 60.542969 13.3125 50.207031 13.730469 44.308594 C 19.261719 57.730469 27.511719 64 41.316406 64 C 36 56.5625 35.128906 55.625 34.824219 50.894531 C 34.855469 46.53125 36.496094 45.558594 39.371094 40.097656 C 46.597656 27.953125 43.292969 15.699219 33.453125 9.972656 C 31.449219 8.90625 30.910156 8.609375 27.265625 7.082031 C 25.167969 6.03125 23.074219 3.753906 22.925781 0.00390625 M 47.582031 20.566406 C 54.875 30.558594 46.574219 38.671875 42.761719 44.792969 C 39.640625 49.59375 42.644531 57.550781 45.917969 64 C 46.203125 58.546875 49.597656 54.785156 52.34375 52.847656 C 60.753906 46.066406 61.027344 37.203125 56.5625 29.316406 C 53.761719 24.996094 51.28125 23.589844 47.582031 20.574219 "
       id="path367" />
  </g>
</svg>
