<?xml version="1.0" encoding="UTF-8" standalone="no"?>
<svg
   width="64px"
   height="64px"
   viewBox="0 0 64 64"
   version="1.1"
   id="svg125"
   sodipodi:docname="mimetype-dsrc.svg"
   inkscape:version="1.2.2 (b0a8486541, 2022-12-01)"
   xmlns:inkscape="http://www.inkscape.org/namespaces/inkscape"
   xmlns:sodipodi="http://sodipodi.sourceforge.net/DTD/sodipodi-0.dtd"
   xmlns="http://www.w3.org/2000/svg"
   xmlns:svg="http://www.w3.org/2000/svg">
  <sodipodi:namedview
     id="namedview127"
     pagecolor="#ffffff"
     bordercolor="#000000"
     borderopacity="0.25"
     inkscape:showpageshadow="2"
     inkscape:pageopacity="0.0"
     inkscape:pagecheckerboard="0"
     inkscape:deskcolor="#d1d1d1"
     showgrid="false"
     inkscape:zoom="3.6875"
     inkscape:cx="32"
     inkscape:cy="32.135593"
     inkscape:window-width="1432"
     inkscape:window-height="844"
     inkscape:window-x="0"
     inkscape:window-y="0"
     inkscape:window-maximized="1"
     inkscape:current-layer="svg125" />
  <defs
     id="defs120">
    <linearGradient
       id="linear0"
       gradientUnits="userSpaceOnUse"
       x1="0"
       y1="0"
       x2="0"
       y2="1"
       gradientTransform="matrix(45.53125,0,0,64,9.234374,0)">
      <stop
         offset="0"
         style="stop-color:#f8f1d0;stop-opacity:1;"
         id="stop115" />
      <stop
         offset="1"
         style="stop-color:#e18d0f;stop-opacity:1;"
         id="stop117" />
    </linearGradient>
    <filter
       style="color-interpolation-filters:sRGB;"
       inkscape:label="Diffuse Light"
       id="filter1148"
       x="-0.05271105"
       y="-0.0375"
       width="1.1054221"
       height="1.075">
      <feGaussianBlur
         in="SourceGraphic"
         stdDeviation="1"
         result="blur"
         id="feGaussianBlur1138" />
      <feDiffuseLighting
         diffuseConstant="1"
         surfaceScale="10"
         lighting-color="rgb(255,255,255)"
         result="diffuse"
         id="feDiffuseLighting1142">
        <feDistantLight
           elevation="8"
           azimuth="235"
           id="feDistantLight1140" />
      </feDiffuseLighting>
      <feComposite
         in="diffuse"
         in2="diffuse"
         operator="arithmetic"
         k1="1"
         result="composite1"
         id="feComposite1144" />
      <feComposite
         in="composite1"
         in2="SourceGraphic"
         k1="1"
         operator="arithmetic"
         k3="1"
         result="composite2"
         id="feComposite1146" />
    </filter>
  </defs>
  <g
     id="surface1"
     style="filter:url(#filter1148)">
    <path
       style=" stroke:none;fill-rule:evenodd;fill:url(#linear0);"
       d="M 24.957031 64 L 9.234375 64 L 9.234375 0 L 25.328125 0 C 29.46875 0 33.21875 0.609375 36.574219 1.828125 C 39.921875 3.046875 42.714844 4.660156 44.9375 6.671875 C 47.160156 8.6875 49.019531 11.078125 50.515625 13.847656 C 52.003906 16.625 53.089844 19.519531 53.761719 22.535156 C 54.433594 25.550781 54.765625 28.707031 54.765625 32 C 54.765625 35.046875 54.464844 38.035156 53.847656 40.957031 C 53.238281 43.886719 52.203125 46.765625 50.746094 49.597656 C 49.28125 52.433594 47.4375 54.902344 45.214844 57.003906 C 42.984375 59.109375 40.136719 60.800781 36.660156 62.078125 C 33.1875 63.359375 29.285156 64 24.957031 64 Z M 20.113281 10.238281 L 20.113281 53.761719 L 26.058594 53.761719 C 29.167969 53.761719 31.894531 53.121094 34.238281 51.839844 C 36.589844 50.5625 38.402344 48.839844 39.683594 46.671875 C 40.957031 44.511719 41.90625 42.191406 42.515625 39.722656 C 43.125 37.253906 43.425781 34.683594 43.425781 32 C 43.425781 26.027344 42.058594 20.90625 39.3125 16.640625 C 36.574219 12.375 32.488281 10.238281 27.0625 10.238281 Z M 20.113281 10.238281 "
       id="path122" />
  </g>
</svg>
