<?xml version="1.0" encoding="UTF-8" standalone="no"?>
<svg
   width="64px"
   height="64px"
   viewBox="0 0 64 64"
   version="1.1"
   id="svg12"
   sodipodi:docname="mimetype-dia.svg"
   inkscape:version="1.2.2 (b0a8486541, 2022-12-01)"
   xmlns:inkscape="http://www.inkscape.org/namespaces/inkscape"
   xmlns:sodipodi="http://sodipodi.sourceforge.net/DTD/sodipodi-0.dtd"
   xmlns="http://www.w3.org/2000/svg"
   xmlns:svg="http://www.w3.org/2000/svg">
  <sodipodi:namedview
     id="namedview14"
     pagecolor="#ffffff"
     bordercolor="#000000"
     borderopacity="0.25"
     inkscape:showpageshadow="2"
     inkscape:pageopacity="0.0"
     inkscape:pagecheckerboard="0"
     inkscape:deskcolor="#d1d1d1"
     showgrid="false"
     inkscape:zoom="3.6875"
     inkscape:cx="32"
     inkscape:cy="32.135593"
     inkscape:window-width="1432"
     inkscape:window-height="844"
     inkscape:window-x="0"
     inkscape:window-y="0"
     inkscape:window-maximized="1"
     inkscape:current-layer="svg12" />
  <defs
     id="defs7">
    <linearGradient
       id="linear0"
       gradientUnits="userSpaceOnUse"
       x1="0"
       y1="0"
       x2="0"
       y2="1"
       gradientTransform="matrix(53.041667,0,0,64,5.1875,0)">
      <stop
         offset="0"
         style="stop-color:#d9f7d8;stop-opacity:1;"
         id="stop2" />
      <stop
         offset="1"
         style="stop-color:#1d5911;stop-opacity:1;"
         id="stop4" />
    </linearGradient>
    <filter
       style="color-interpolation-filters:sRGB;"
       inkscape:label="Diffuse Light"
       id="filter1304"
       x="-0.045246336"
       y="-0.0375"
       width="1.0904927"
       height="1.075">
      <feGaussianBlur
         in="SourceGraphic"
         stdDeviation="1"
         result="blur"
         id="feGaussianBlur1294" />
      <feDiffuseLighting
         diffuseConstant="1"
         surfaceScale="10"
         lighting-color="rgb(255,255,255)"
         result="diffuse"
         id="feDiffuseLighting1298">
        <feDistantLight
           elevation="8"
           azimuth="235"
           id="feDistantLight1296" />
      </feDiffuseLighting>
      <feComposite
         in="diffuse"
         in2="diffuse"
         operator="arithmetic"
         k1="1"
         result="composite1"
         id="feComposite1300" />
      <feComposite
         in="composite1"
         in2="SourceGraphic"
         k1="1"
         operator="arithmetic"
         k3="1"
         result="composite2"
         id="feComposite1302" />
    </filter>
  </defs>
  <g
     id="surface1"
     style="filter:url(#filter1304)">
    <path
       style=" stroke:none;fill-rule:nonzero;fill:url(#linear0);"
       d="M 16.15625 0 L 16.15625 5.484375 L 18 5.484375 L 18 9.140625 L 14.34375 9.140625 L 14.34375 14.65625 L 18 14.65625 L 18 31.078125 L 5.1875 31.078125 L 5.1875 32.90625 L 18 32.90625 L 18 47.515625 L 14.34375 47.515625 L 14.34375 53.03125 L 18 53.03125 L 18 56.6875 L 15.253906 56.6875 L 18.910156 64 L 22.566406 56.6875 L 19.828125 56.6875 L 19.828125 53.03125 L 36.285156 53.03125 C 48.449219 53.03125 58.230469 43.246094 58.230469 31.089844 C 58.230469 18.925781 48.449219 9.140625 36.285156 9.140625 L 19.828125 9.140625 L 19.828125 5.484375 L 21.640625 5.484375 L 21.640625 0 Z M 19.828125 14.65625 L 36.285156 14.65625 C 45.484375 14.65625 52.707031 21.890625 52.707031 31.089844 C 52.707031 40.28125 45.484375 47.515625 36.285156 47.515625 L 19.828125 47.515625 L 19.828125 32.90625 L 25.3125 32.90625 L 21.65625 40.230469 L 39.941406 40.230469 L 36.28125 32.90625 L 41.769531 32.90625 L 41.769531 35.65625 L 49.082031 32 L 41.769531 28.34375 L 41.769531 31.078125 L 35.371094 31.078125 L 30.796875 21.941406 L 26.234375 31.078125 L 19.828125 31.078125 Z M 19.828125 14.65625 "
       id="path9" />
  </g>
</svg>
