<?xml version="1.0" encoding="UTF-8" standalone="no"?>
<svg
   width="64px"
   height="64px"
   viewBox="0 0 64 64"
   version="1.1"
   id="svg448"
   sodipodi:docname="mimetype-gdsite.svg"
   inkscape:version="1.2.2 (b0a8486541, 2022-12-01)"
   xmlns:inkscape="http://www.inkscape.org/namespaces/inkscape"
   xmlns:sodipodi="http://sodipodi.sourceforge.net/DTD/sodipodi-0.dtd"
   xmlns="http://www.w3.org/2000/svg"
   xmlns:svg="http://www.w3.org/2000/svg">
  <sodipodi:namedview
     id="namedview450"
     pagecolor="#ffffff"
     bordercolor="#000000"
     borderopacity="0.25"
     inkscape:showpageshadow="2"
     inkscape:pageopacity="0.0"
     inkscape:pagecheckerboard="0"
     inkscape:deskcolor="#d1d1d1"
     showgrid="false"
     inkscape:zoom="3.6875"
     inkscape:cx="32"
     inkscape:cy="32.135593"
     inkscape:window-width="1432"
     inkscape:window-height="844"
     inkscape:window-x="0"
     inkscape:window-y="0"
     inkscape:window-maximized="1"
     inkscape:current-layer="svg448" />
  <defs
     id="defs443">
    <linearGradient
       id="linear0"
       gradientUnits="userSpaceOnUse"
       x1="0"
       y1="0"
       x2="0"
       y2="1"
       gradientTransform="matrix(64,0,0,64,0,0)">
      <stop
         offset="0"
         style="stop-color:#d9f7d8;stop-opacity:1;"
         id="stop438" />
      <stop
         offset="1"
         style="stop-color:#1d5911;stop-opacity:1;"
         id="stop440" />
    </linearGradient>
    <filter
       style="color-interpolation-filters:sRGB;"
       inkscape:label="Diffuse Light"
       id="filter620"
       x="-0.0375"
       y="-0.0375"
       width="1.075"
       height="1.075">
      <feGaussianBlur
         in="SourceGraphic"
         stdDeviation="1"
         result="blur"
         id="feGaussianBlur610" />
      <feDiffuseLighting
         diffuseConstant="1"
         surfaceScale="10"
         lighting-color="rgb(255,255,255)"
         result="diffuse"
         id="feDiffuseLighting614">
        <feDistantLight
           elevation="8"
           azimuth="235"
           id="feDistantLight612" />
      </feDiffuseLighting>
      <feComposite
         in="diffuse"
         in2="diffuse"
         operator="arithmetic"
         k1="1"
         result="composite1"
         id="feComposite616" />
      <feComposite
         in="composite1"
         in2="SourceGraphic"
         k1="1"
         operator="arithmetic"
         k3="1"
         result="composite2"
         id="feComposite618" />
    </filter>
  </defs>
  <g
     id="surface1"
     style="filter:url(#filter620)">
    <path
       style=" stroke:none;fill-rule:nonzero;fill:url(#linear0);"
       d="M 3.9375 0 C 1.761719 0 0 2.015625 0 4.5 L 0 15.1875 C 0 17.671875 1.761719 19.691406 3.9375 19.691406 L 60.0625 19.691406 C 62.238281 19.691406 64 17.671875 64 15.1875 L 64 4.5 C 64 2.015625 62.238281 0 60.0625 0 Z M 3.9375 27.078125 C 1.761719 27.078125 0 28.839844 0 31.015625 L 0 60.0625 C 0 62.238281 1.761719 64 3.9375 64 L 32.984375 64 C 35.160156 64 36.921875 62.238281 36.921875 60.0625 L 36.921875 31.015625 C 36.921875 28.839844 35.160156 27.078125 32.984375 27.078125 Z M 48.25 27.078125 C 46.074219 27.078125 44.308594 28.839844 44.308594 31.015625 L 44.308594 60.0625 C 44.308594 62.238281 46.074219 64 48.25 64 L 60.0625 64 C 62.238281 64 64 62.238281 64 60.0625 L 64 31.015625 C 64 28.839844 62.238281 27.078125 60.0625 27.078125 Z M 48.25 27.078125 "
       id="path445" />
  </g>
</svg>
