<?xml version="1.0" encoding="UTF-8" standalone="no"?>
<svg
   width="64px"
   height="64px"
   viewBox="0 0 64 64"
   version="1.1"
   id="svg250"
   sodipodi:docname="mimetype-theme.svg"
   inkscape:version="1.2.2 (b0a8486541, 2022-12-01)"
   xmlns:inkscape="http://www.inkscape.org/namespaces/inkscape"
   xmlns:sodipodi="http://sodipodi.sourceforge.net/DTD/sodipodi-0.dtd"
   xmlns="http://www.w3.org/2000/svg"
   xmlns:svg="http://www.w3.org/2000/svg">
  <sodipodi:namedview
     id="namedview252"
     pagecolor="#ffffff"
     bordercolor="#000000"
     borderopacity="0.25"
     inkscape:showpageshadow="2"
     inkscape:pageopacity="0.0"
     inkscape:pagecheckerboard="0"
     inkscape:deskcolor="#d1d1d1"
     showgrid="false"
     inkscape:zoom="3.6875"
     inkscape:cx="32"
     inkscape:cy="32.135593"
     inkscape:window-width="1432"
     inkscape:window-height="844"
     inkscape:window-x="0"
     inkscape:window-y="0"
     inkscape:window-maximized="1"
     inkscape:current-layer="svg250" />
  <defs
     id="defs245">
    <linearGradient
       id="linear0"
       gradientUnits="userSpaceOnUse"
       x1="0"
       y1="0"
       x2="0"
       y2="1"
       gradientTransform="matrix(60.65625,0,0,64,1.671875,0)">
      <stop
         offset="0"
         style="stop-color:#d9f7d8;stop-opacity:1;"
         id="stop240" />
      <stop
         offset="1"
         style="stop-color:#1d5911;stop-opacity:1;"
         id="stop242" />
    </linearGradient>
    <filter
       style="color-interpolation-filters:sRGB;"
       inkscape:label="Diffuse Light"
       id="filter1657"
       x="-0.039567233"
       y="-0.0375"
       width="1.0791345"
       height="1.075">
      <feGaussianBlur
         in="SourceGraphic"
         stdDeviation="1"
         result="blur"
         id="feGaussianBlur1647" />
      <feDiffuseLighting
         diffuseConstant="1"
         surfaceScale="10"
         lighting-color="rgb(255,255,255)"
         result="diffuse"
         id="feDiffuseLighting1651">
        <feDistantLight
           elevation="8"
           azimuth="235"
           id="feDistantLight1649" />
      </feDiffuseLighting>
      <feComposite
         in="diffuse"
         in2="diffuse"
         operator="arithmetic"
         k1="1"
         result="composite1"
         id="feComposite1653" />
      <feComposite
         in="composite1"
         in2="SourceGraphic"
         k1="1"
         operator="arithmetic"
         k3="1"
         result="composite2"
         id="feComposite1655" />
    </filter>
  </defs>
  <g
     id="surface1"
     style="filter:url(#filter1657)">
    <path
       style=" stroke:none;fill-rule:nonzero;fill:url(#linear0);"
       d="M 58.785156 8.46875 L 55.433594 8.46875 L 55.433594 3.378906 C 55.433594 1.453125 53.933594 0 51.941406 0 L 5.214844 0 C 3.230469 0 1.671875 1.484375 1.671875 3.378906 L 1.671875 15.734375 C 1.671875 17.699219 3.261719 19.296875 5.214844 19.296875 L 51.941406 19.296875 C 53.871094 19.296875 55.433594 17.699219 55.433594 15.734375 L 55.433594 11.621094 L 58.785156 11.621094 C 58.972656 11.621094 59.09375 11.636719 59.160156 11.652344 C 59.171875 11.699219 59.175781 11.761719 59.175781 11.855469 L 59.175781 24.925781 C 59.175781 25.515625 58.941406 25.996094 58.785156 25.996094 L 31.59375 25.996094 C 29.128906 25.996094 27.277344 27.511719 27.277344 29.519531 L 27.277344 31.503906 L 26.308594 31.503906 C 25.808594 31.503906 25.359375 31.828125 25.191406 32.300781 L 22.21875 40.890625 C 22.175781 41.011719 22.15625 41.144531 22.15625 41.277344 L 22.15625 62.816406 C 22.15625 63.46875 22.683594 64 23.332031 64 L 34.953125 64 C 35.605469 64 36.136719 63.46875 36.136719 62.816406 L 36.136719 41.277344 C 36.136719 41.144531 36.113281 41.019531 36.074219 40.902344 L 33.207031 32.316406 C 33.046875 31.832031 32.597656 31.503906 32.089844 31.503906 L 30.421875 31.503906 L 30.421875 29.527344 C 30.472656 29.421875 30.921875 29.144531 31.59375 29.144531 L 58.785156 29.144531 C 60.839844 29.144531 62.328125 27.371094 62.328125 24.925781 L 62.328125 11.855469 C 62.328125 9.734375 61.003906 8.46875 58.785156 8.46875 Z M 58.785156 8.46875 "
       id="path247" />
  </g>
</svg>
