<?xml version="1.0" encoding="UTF-8" standalone="no"?>
<svg
   width="64px"
   height="64px"
   viewBox="0 0 64 64"
   version="1.1"
   id="svg378"
   sodipodi:docname="mimetype-ruby.svg"
   inkscape:version="1.2.2 (b0a8486541, 2022-12-01)"
   xmlns:inkscape="http://www.inkscape.org/namespaces/inkscape"
   xmlns:sodipodi="http://sodipodi.sourceforge.net/DTD/sodipodi-0.dtd"
   xmlns="http://www.w3.org/2000/svg"
   xmlns:svg="http://www.w3.org/2000/svg">
  <sodipodi:namedview
     id="namedview380"
     pagecolor="#ffffff"
     bordercolor="#000000"
     borderopacity="0.25"
     inkscape:showpageshadow="2"
     inkscape:pageopacity="0.0"
     inkscape:pagecheckerboard="0"
     inkscape:deskcolor="#d1d1d1"
     showgrid="false"
     inkscape:zoom="3.6875"
     inkscape:cx="32"
     inkscape:cy="32.135593"
     inkscape:window-width="1432"
     inkscape:window-height="844"
     inkscape:window-x="0"
     inkscape:window-y="0"
     inkscape:window-maximized="1"
     inkscape:current-layer="svg378" />
  <defs
     id="defs373">
    <linearGradient
       id="linear0"
       gradientUnits="userSpaceOnUse"
       x1="0"
       y1="0"
       x2="0"
       y2="1"
       gradientTransform="matrix(64,0,0,51.682292,0,6.317708)">
      <stop
         offset="0"
         style="stop-color:#fcd7fb;stop-opacity:1;"
         id="stop368" />
      <stop
         offset="1"
         style="stop-color:#ce13b8;stop-opacity:1;"
         id="stop370" />
    </linearGradient>
    <filter
       style="color-interpolation-filters:sRGB;"
       inkscape:label="Diffuse Light"
       id="filter550"
       x="-0.0375"
       y="-0.046436399"
       width="1.075"
       height="1.0928728">
      <feGaussianBlur
         in="SourceGraphic"
         stdDeviation="1"
         result="blur"
         id="feGaussianBlur540" />
      <feDiffuseLighting
         diffuseConstant="1"
         surfaceScale="10"
         lighting-color="rgb(255,255,255)"
         result="diffuse"
         id="feDiffuseLighting544">
        <feDistantLight
           elevation="8"
           azimuth="235"
           id="feDistantLight542" />
      </feDiffuseLighting>
      <feComposite
         in="diffuse"
         in2="diffuse"
         operator="arithmetic"
         k1="1"
         result="composite1"
         id="feComposite546" />
      <feComposite
         in="composite1"
         in2="SourceGraphic"
         k1="1"
         operator="arithmetic"
         k3="1"
         result="composite2"
         id="feComposite548" />
    </filter>
  </defs>
  <g
     id="surface1"
     style="filter:url(#filter550)">
    <path
       style=" stroke:none;fill-rule:evenodd;fill:url(#linear0);"
       d="M 47.035156 6.316406 L 47.578125 7.042969 L 44.941406 17.1875 L 43.941406 17.355469 L 37.558594 7.207031 L 38.015625 6.316406 Z M 25.984375 6.316406 L 26.425781 7.230469 L 18.917969 17.941406 L 17.917969 17.683594 L 16.40625 6.972656 L 16.964844 6.316406 Z M 52.722656 6.519531 L 64 21.175781 L 63.566406 22.105469 L 47.78125 22.105469 L 47.25 21.359375 L 51.761719 6.703125 Z M 32.433594 6.519531 L 43.707031 21.175781 L 43.277344 22.105469 L 20.722656 22.105469 L 20.292969 21.175781 L 31.566406 6.519531 Z M 11.277344 6.519531 L 12.238281 6.703125 L 16.75 21.359375 L 16.21875 22.105469 L 0.433594 22.105469 L 0 21.175781 Z M 63.566406 24.359375 L 63.980469 25.308594 L 34.667969 58 L 33.734375 57.394531 L 47.265625 24.699219 L 47.78125 24.359375 Z M 43.277344 24.359375 L 43.792969 25.140625 L 32.519531 53.324219 L 31.480469 53.324219 L 20.207031 25.140625 L 20.722656 24.359375 Z M 16.21875 24.359375 L 16.734375 24.699219 L 30.265625 57.394531 L 29.332031 58 L 0.0195312 25.308594 L 0.433594 24.359375 Z M 16.21875 24.359375 "
       id="path375" />
  </g>
</svg>
