<?xml version="1.0" encoding="UTF-8" standalone="no"?>
<svg
   width="64px"
   height="64px"
   viewBox="0 0 64 64"
   version="1.1"
   id="svg167"
   sodipodi:docname="mimetype-eps.svg"
   inkscape:version="1.2.2 (b0a8486541, 2022-12-01)"
   xmlns:inkscape="http://www.inkscape.org/namespaces/inkscape"
   xmlns:sodipodi="http://sodipodi.sourceforge.net/DTD/sodipodi-0.dtd"
   xmlns="http://www.w3.org/2000/svg"
   xmlns:svg="http://www.w3.org/2000/svg">
  <sodipodi:namedview
     id="namedview169"
     pagecolor="#ffffff"
     bordercolor="#000000"
     borderopacity="0.25"
     inkscape:showpageshadow="2"
     inkscape:pageopacity="0.0"
     inkscape:pagecheckerboard="0"
     inkscape:deskcolor="#d1d1d1"
     showgrid="false"
     inkscape:zoom="3.6875"
     inkscape:cx="32"
     inkscape:cy="32.135593"
     inkscape:window-width="1432"
     inkscape:window-height="844"
     inkscape:window-x="0"
     inkscape:window-y="0"
     inkscape:window-maximized="1"
     inkscape:current-layer="svg167" />
  <defs
     id="defs162">
    <linearGradient
       id="linear0"
       gradientUnits="userSpaceOnUse"
       x1="0"
       y1="0"
       x2="0"
       y2="1"
       gradientTransform="matrix(60,0,0,55.338542,2,2.661459)">
      <stop
         offset="0"
         style="stop-color:#d9f7d8;stop-opacity:1;"
         id="stop157" />
      <stop
         offset="1"
         style="stop-color:#1d5911;stop-opacity:1;"
         id="stop159" />
    </linearGradient>
    <filter
       style="color-interpolation-filters:sRGB;"
       inkscape:label="Diffuse Light"
       id="filter1070"
       x="-0.04"
       y="-0.043368391"
       width="1.08"
       height="1.0867368">
      <feGaussianBlur
         in="SourceGraphic"
         stdDeviation="1"
         result="blur"
         id="feGaussianBlur1060" />
      <feDiffuseLighting
         diffuseConstant="1"
         surfaceScale="10"
         lighting-color="rgb(255,255,255)"
         result="diffuse"
         id="feDiffuseLighting1064">
        <feDistantLight
           elevation="8"
           azimuth="235"
           id="feDistantLight1062" />
      </feDiffuseLighting>
      <feComposite
         in="diffuse"
         in2="diffuse"
         operator="arithmetic"
         k1="1"
         result="composite1"
         id="feComposite1066" />
      <feComposite
         in="composite1"
         in2="SourceGraphic"
         k1="1"
         operator="arithmetic"
         k3="1"
         result="composite2"
         id="feComposite1068" />
    </filter>
  </defs>
  <g
     id="surface1"
     style="filter:url(#filter1070)">
    <path
       style=" stroke:none;fill-rule:evenodd;fill:url(#linear0);"
       d="M 36.628906 2.660156 L 13.785156 29.714844 C 19.734375 30.667969 29.78125 38.1875 28.265625 48.175781 C 31.355469 40.769531 25.6875 31.734375 20.238281 28.082031 L 40.167969 4.285156 C 39.097656 3.5 38.253906 3.109375 36.628906 2.660156 Z M 28.949219 4.546875 C 28.058594 4.546875 27.390625 4.683594 27.425781 4.683594 L 20.128906 13.042969 C 16.03125 13.265625 12.046875 13.546875 8.171875 13.941406 C 5.421875 14.222656 3.234375 16.410156 2.84375 19.328125 C 2.28125 24.4375 2 29.828125 2 35.378906 C 2 40.9375 2.28125 46.328125 2.84375 51.488281 C 3.234375 54.746094 5.421875 56.375 8.171875 56.878906 C 15.808594 58.113281 26.863281 56.9375 26.863281 46.4375 C 26.863281 36.621094 10.753906 32.40625 5.253906 35.105469 L 30.683594 4.734375 C 30.09375 4.582031 29.480469 4.546875 28.949219 4.546875 Z M 45.722656 13.15625 C 45.722656 13.15625 31.410156 44.921875 30.011719 48.175781 C 27.875 53.003906 24.957031 56.542969 20.746094 57.777344 C 24.453125 57.941406 28.15625 58 31.972656 58 C 40.332031 58 48.308594 57.609375 55.769531 56.875 C 58.519531 56.59375 60.765625 54.347656 61.105469 51.488281 C 61.71875 46.324219 62 40.9375 62 35.378906 C 62 29.824219 61.71875 24.4375 61.105469 19.328125 C 60.765625 16.410156 58.519531 14.21875 55.769531 13.9375 C 52.515625 13.605469 49.144531 13.324219 45.722656 13.152344 Z M 45.722656 13.15625 "
       id="path164" />
  </g>
</svg>
