<svg width="64px" height="64px" viewBox="0 0 64 64" version="1.1" id="svg12" inkscape:version="1.2.2 (b0a8486541, 2022-12-01)" xmlns:inkscape="http://www.inkscape.org/namespaces/inkscape" xmlns:sodipodi="http://sodipodi.sourceforge.net/DTD/sodipodi-0.dtd" xmlns="http://www.w3.org/2000/svg" xmlns:svg="http://www.w3.org/2000/svg"> <sodipodi:namedview id="namedview14" pagecolor="#ffffff" bordercolor="#000000" borderopacity="0.25" inkscape:showpageshadow="2" inkscape:pageopacity="0.0" inkscape:pagecheckerboard="0" inkscape:deskcolor="#d1d1d1" showgrid="false" inkscape:zoom="3.6875" inkscape:cx="32" inkscape:cy="32.135593" inkscape:window-width="1432" inkscape:window-height="844" inkscape:window-x="0" inkscape:window-y="0" inkscape:window-maximized="1" inkscape:current-layer="svg12" /> <defs id="defs7"> <linearGradient id="linear0" gradientUnits="userSpaceOnUse" x1="0" y1="0" x2="0" y2="1" gradientTransform="matrix(64,0,0,56,0,4)"> <stop offset="0" style="stop-color:#3c75fa;stop-opacity:1;" id="stop2" /> <stop offset="1" style="stop-color:#0037b8;stop-opacity:1;" id="stop4" /> </linearGradient> <filter style="color-interpolation-filters:sRGB;" inkscape:label="Diffuse Light" id="filter184" x="-0.11210663" y="-0.12812186" width="1.2242133" height="1.2562437"> <feGaussianBlur in="SourceGraphic" stdDeviation="2.98951" result="blur" id="feGaussianBlur174" /> <feDiffuseLighting diffuseConstant="1" surfaceScale="10" lighting-color="rgb(255,255,255)" result="diffuse" id="feDiffuseLighting178"> <feDistantLight elevation="38" azimuth="235" id="feDistantLight176" /> </feDiffuseLighting> <feComposite in="diffuse" in2="diffuse" operator="arithmetic" k1="1" result="composite1" id="feComposite180" /> <feComposite in="composite1" in2="SourceGraphic" k1="1" operator="arithmetic" k3="1" result="composite2" id="feComposite182" /> </filter> </defs> <g id="surface1" style="filter:url(#filter184)">
<path style=" stroke:none;fill-rule:nonzero;fill:url(#linear0);" d="M 15.972656 8 C 10.941406 8.058594 7.261719 7.875 4.25 9.542969 C 2.746094 10.371094 1.546875 11.777344 0.890625 13.53125 C 0.234375 15.285156 0 17.371094 0 20 L 0 48 C 0 50.628906 0.234375 52.714844 0.890625 54.46875 C 1.546875 56.222656 2.746094 57.628906 4.25 58.457031 C 7.261719 60.121094 10.941406 59.941406 15.972656 60 L 48.027344 60 C 53.058594 59.941406 56.738281 60.125 59.75 58.457031 C 61.253906 57.628906 62.441406 56.222656 63.105469 54.46875 C 63.761719 52.714844 64 50.628906 64 48 L 64 20 C 64 17.371094 63.761719 15.285156 63.097656 13.53125 C 62.441406 11.777344 61.253906 10.371094 59.75 9.542969 C 56.738281 7.878906 53.058594 8.058594 48.027344 8 Z M 16 12 L 48 12 C 53.035156 12.058594 56.347656 12.230469 57.8125 13.042969 C 58.546875 13.441406 58.96875 13.894531 59.359375 14.9375 C 59.75 15.980469 60 17.628906 60 20 L 60 48 C 60 50.371094 59.75 52.019531 59.359375 53.0625 C 58.96875 54.105469 58.546875 54.558594 57.8125 54.957031 C 56.347656 55.769531 53.035156 55.941406 48 56 L 16 56 Z M 7.332031 12 L 8.667969 12 C 11.332031 12 12 12.800781 12 16 C 12 19.199219 11.332031 20 8.667969 20 L 7.332031 20 C 4.667969 20 4 19.199219 4 16 C 4 12.800781 4.667969 12 7.332031 12 Z M 7.332031 24 L 8.667969 24 C 11.332031 24 12 24.800781 12 28 C 12 31.199219 11.332031 32 8.667969 32 L 7.332031 32 C 4.667969 32 4 31.199219 4 28 C 4 24.800781 4.667969 24 7.332031 24 Z M 7.332031 36 L 8.667969 36 C 11.332031 36 12 36.800781 12 40 C 12 43.199219 11.332031 44 8.667969 44 L 7.332031 44 C 4.667969 44 4 43.199219 4 40 C 4 36.800781 4.667969 36 7.332031 36 Z M 7.332031 48 L 8.667969 48 C 11.332031 48 12 48.800781 12 52 C 12 55.199219 11.332031 56 8.667969 56 L 7.332031 56 C 4.667969 56 4 55.199219 4 52 C 4 48.800781 4.667969 48 7.332031 48 Z M 7.332031 48 "/>
</g>
</svg>
