<svg width="64px" height="64px" viewBox="0 0 64 64" version="1.1" id="svg12" inkscape:version="1.2.2 (b0a8486541, 2022-12-01)" xmlns:inkscape="http://www.inkscape.org/namespaces/inkscape" xmlns:sodipodi="http://sodipodi.sourceforge.net/DTD/sodipodi-0.dtd" xmlns="http://www.w3.org/2000/svg" xmlns:svg="http://www.w3.org/2000/svg"> <sodipodi:namedview id="namedview14" pagecolor="#ffffff" bordercolor="#000000" borderopacity="0.25" inkscape:showpageshadow="2" inkscape:pageopacity="0.0" inkscape:pagecheckerboard="0" inkscape:deskcolor="#d1d1d1" showgrid="false" inkscape:zoom="3.6875" inkscape:cx="32" inkscape:cy="32.135593" inkscape:window-width="1432" inkscape:window-height="844" inkscape:window-x="0" inkscape:window-y="0" inkscape:window-maximized="1" inkscape:current-layer="svg12" /> <defs id="defs7"> <linearGradient id="linear0" gradientUnits="userSpaceOnUse" x1="0" y1="0" x2="0" y2="1" gradientTransform="matrix(64,0,0,56,0,4)"> <stop offset="0" style="stop-color:#276170;stop-opacity:1;" id="stop2" /> <stop offset="1" style="stop-color:#11343d;stop-opacity:1;" id="stop4" /> </linearGradient> <filter style="color-interpolation-filters:sRGB;" inkscape:label="Diffuse Light" id="filter184" x="-0.11210663" y="-0.12812186" width="1.2242133" height="1.2562437"> <feGaussianBlur in="SourceGraphic" stdDeviation="2.98951" result="blur" id="feGaussianBlur174" /> <feDiffuseLighting diffuseConstant="1" surfaceScale="10" lighting-color="rgb(255,255,255)" result="diffuse" id="feDiffuseLighting178"> <feDistantLight elevation="38" azimuth="235" id="feDistantLight176" /> </feDiffuseLighting> <feComposite in="diffuse" in2="diffuse" operator="arithmetic" k1="1" result="composite1" id="feComposite180" /> <feComposite in="composite1" in2="SourceGraphic" k1="1" operator="arithmetic" k3="1" result="composite2" id="feComposite182" /> </filter> </defs> <g id="surface1" style="filter:url(#filter184)">
<path style=" stroke:none;fill-rule:nonzero;fill:url(#linear0);" d="M 44.734375 0 C 41.5625 0.113281 37.714844 1.855469 35.4375 4.199219 C 33.390625 6.277344 31.59375 9.589844 32.074219 12.769531 C 35.613281 13.015625 39.246094 11.1875 41.449219 8.84375 C 43.652344 6.496094 45.144531 3.25 44.734375 0 Z M 42.636719 12.832031 C 38.425781 13.167969 34.582031 15.933594 32.40625 15.933594 C 29.933594 15.933594 26.109375 12.925781 22.046875 13.011719 C 16.714844 13.09375 11.785156 16.328125 9.03125 21.457031 C 3.488281 31.785156 7.609375 47.078125 13.011719 55.449219 C 15.652344 59.546875 18.886719 64 22.949219 64 C 27.011719 64 28.4375 61.222656 33.25 61.222656 C 38.0625 61.222656 39.375 64 43.625 64 C 47.875 64 50.613281 59.734375 53.238281 55.625 C 56.265625 50.871094 57.527344 46.261719 57.597656 46.027344 C 57.503906 45.972656 49.246094 42.59375 49.160156 32.386719 C 49.078125 23.839844 55.671875 19.734375 55.957031 19.535156 C 52.265625 13.734375 46.511719 12.9375 44.457031 12.847656 C 43.847656 12.78125 43.238281 12.785156 42.636719 12.839844 Z M 42.636719 12.832031 "/>
</g>
</svg>
