<svg width="64px" height="64px" viewBox="0 0 64 64" version="1.1" id="svg12" inkscape:version="1.2.2 (b0a8486541, 2022-12-01)" xmlns:inkscape="http://www.inkscape.org/namespaces/inkscape" xmlns:sodipodi="http://sodipodi.sourceforge.net/DTD/sodipodi-0.dtd" xmlns="http://www.w3.org/2000/svg" xmlns:svg="http://www.w3.org/2000/svg"> <sodipodi:namedview id="namedview14" pagecolor="#ffffff" bordercolor="#000000" borderopacity="0.25" inkscape:showpageshadow="2" inkscape:pageopacity="0.0" inkscape:pagecheckerboard="0" inkscape:deskcolor="#d1d1d1" showgrid="false" inkscape:zoom="3.6875" inkscape:cx="32" inkscape:cy="32.135593" inkscape:window-width="1432" inkscape:window-height="844" inkscape:window-x="0" inkscape:window-y="0" inkscape:window-maximized="1" inkscape:current-layer="svg12" /> <defs id="defs7"> <linearGradient id="linear0" gradientUnits="userSpaceOnUse" x1="0" y1="0" x2="0" y2="1" gradientTransform="matrix(64,0,0,56,0,4)"> <stop offset="0" style="stop-color:#276170;stop-opacity:1;" id="stop2" /> <stop offset="1" style="stop-color:#11343d;stop-opacity:1;" id="stop4" /> </linearGradient> <filter style="color-interpolation-filters:sRGB;" inkscape:label="Diffuse Light" id="filter184" x="-0.11210663" y="-0.12812186" width="1.2242133" height="1.2562437"> <feGaussianBlur in="SourceGraphic" stdDeviation="2.98951" result="blur" id="feGaussianBlur174" /> <feDiffuseLighting diffuseConstant="1" surfaceScale="10" lighting-color="rgb(255,255,255)" result="diffuse" id="feDiffuseLighting178"> <feDistantLight elevation="38" azimuth="235" id="feDistantLight176" /> </feDiffuseLighting> <feComposite in="diffuse" in2="diffuse" operator="arithmetic" k1="1" result="composite1" id="feComposite180" /> <feComposite in="composite1" in2="SourceGraphic" k1="1" operator="arithmetic" k3="1" result="composite2" id="feComposite182" /> </filter> </defs> <g id="surface1" style="filter:url(#filter184)">
<path style=" stroke:none;fill-rule:nonzero;fill:url(#linear0);" d="M 0 38.222656 L 12.03125 45.171875 C 12.011719 45.449219 12 45.722656 12 46 C 12 52.628906 17.371094 58 24 58 C 30.628906 58 36 52.628906 36 46 C 35.988281 45.453125 35.949219 44.90625 35.871094 44.371094 L 50.421875 33.972656 C 57.980469 33.75 63.988281 27.5625 64 20 C 64 12.265625 57.734375 6 50 6 C 42.265625 6 35.996094 12.265625 36 20.058594 L 26.714844 34.328125 C 25.824219 34.113281 24.910156 34.003906 24 34 C 22.1875 34.003906 20.402344 34.421875 18.769531 35.214844 L 0 24.375 M 50 10 C 55.527344 10 60 14.472656 60 20 C 60 25.527344 55.527344 30 50 30 C 44.472656 30 40 25.527344 40 20 C 40 14.472656 44.472656 10 50 10 Z M 50 14 C 46.6875 14 44 16.6875 44 20 C 44 23.3125 46.6875 26 50 26 C 53.3125 26 56 23.3125 56 20 C 56 16.6875 53.3125 14 50 14 Z M 24 38 C 28.421875 38 32 41.578125 32 46 C 32 50.421875 28.421875 54 24 54 C 20.183594 53.996094 16.90625 51.296875 16.160156 47.558594 L 18.984375 49.1875 C 21.863281 50.847656 25.515625 49.871094 27.183594 46.988281 C 28.839844 44.113281 27.863281 40.457031 24.984375 38.796875 L 23.628906 38.015625 C 23.753906 38.011719 23.875 38.003906 24 38 Z M 24 38 "/>
</g>
</svg>
