<svg width="64px" height="64px" viewBox="0 0 64 64" version="1.1" id="svg12" inkscape:version="1.2.2 (b0a8486541, 2022-12-01)" xmlns:inkscape="http://www.inkscape.org/namespaces/inkscape" xmlns:sodipodi="http://sodipodi.sourceforge.net/DTD/sodipodi-0.dtd" xmlns="http://www.w3.org/2000/svg" xmlns:svg="http://www.w3.org/2000/svg"> <sodipodi:namedview id="namedview14" pagecolor="#ffffff" bordercolor="#000000" borderopacity="0.25" inkscape:showpageshadow="2" inkscape:pageopacity="0.0" inkscape:pagecheckerboard="0" inkscape:deskcolor="#d1d1d1" showgrid="false" inkscape:zoom="3.6875" inkscape:cx="32" inkscape:cy="32.135593" inkscape:window-width="1432" inkscape:window-height="844" inkscape:window-x="0" inkscape:window-y="0" inkscape:window-maximized="1" inkscape:current-layer="svg12" /> <defs id="defs7"> <linearGradient id="linear0" gradientUnits="userSpaceOnUse" x1="0" y1="0" x2="0" y2="1" gradientTransform="matrix(64,0,0,56,0,4)"> <stop offset="0" style="stop-color:#3c75fa;stop-opacity:1;" id="stop2" /> <stop offset="1" style="stop-color:#0037b8;stop-opacity:1;" id="stop4" /> </linearGradient> <filter style="color-interpolation-filters:sRGB;" inkscape:label="Diffuse Light" id="filter184" x="-0.11210663" y="-0.12812186" width="1.2242133" height="1.2562437"> <feGaussianBlur in="SourceGraphic" stdDeviation="2.98951" result="blur" id="feGaussianBlur174" /> <feDiffuseLighting diffuseConstant="1" surfaceScale="10" lighting-color="rgb(255,255,255)" result="diffuse" id="feDiffuseLighting178"> <feDistantLight elevation="38" azimuth="235" id="feDistantLight176" /> </feDiffuseLighting> <feComposite in="diffuse" in2="diffuse" operator="arithmetic" k1="1" result="composite1" id="feComposite180" /> <feComposite in="composite1" in2="SourceGraphic" k1="1" operator="arithmetic" k3="1" result="composite2" id="feComposite182" /> </filter> </defs> <g id="surface1" style="filter:url(#filter184)">
<path style=" stroke:none;fill-rule:nonzero;fill:url(#linear0);" d="M 4 8 L 4 60 L 8 60 L 8 56 L 12 56 L 12 60 L 56 60 L 56 56 L 60 56 L 60 60 L 64 60 L 64 8 L 60 8 L 60 12 L 56 12 L 56 8 L 12 8 L 12 12 L 8 12 L 8 8 Z M 16 12 L 52 12 L 52 32 L 16 32 Z M 8 16 L 12 16 L 12 20 L 8 20 Z M 56 16 L 60 16 L 60 20 L 56 20 Z M 8 24 L 12 24 L 12 28 L 8 28 Z M 56 24 L 60 24 L 60 28 L 56 28 Z M 8 32 L 12 32 L 12 36 L 8 36 Z M 56 32 L 60 32 L 60 36 L 56 36 Z M 16 36 L 52 36 L 52 56 L 16 56 Z M 8 40 L 12 40 L 12 44 L 8 44 Z M 56 40 L 60 40 L 60 44 L 56 44 Z M 8 48 L 12 48 L 12 52 L 8 52 Z M 56 48 L 60 48 L 60 52 L 56 52 Z M 56 48 "/>
</g>
</svg>
