<svg xmlns="http://www.w3.org/2000/svg" xmlns:xlink="http://www.w3.org/1999/xlink" width="22" height="22" viewBox="0 0 22 22" version="1.1">
<g id="surface1">
<path style=" stroke:none;fill-rule:evenodd;fill:#aaaaaa;fill-opacity:1;" d="M 11.109375 3.683594 C 6.949219 3.683594 3.582031 7.042969 3.582031 11.191406 C 3.582031 15.332031 6.949219 18.691406 11.109375 18.691406 C 15.269531 18.691406 18.636719 15.332031 18.636719 11.191406 C 18.636719 7.042969 15.269531 3.683594 11.109375 3.683594 Z M 11.109375 1.542969 C 16.453125 1.542969 20.785156 5.863281 20.785156 11.191406 C 20.785156 16.515625 16.453125 20.832031 11.109375 20.832031 C 5.765625 20.832031 1.433594 16.515625 1.433594 11.191406 C 1.433594 5.863281 5.765625 1.542969 11.109375 1.542969 Z M 6.855469 11.191406 C 6.855469 8.84375 8.757812 6.949219 11.109375 6.949219 C 13.460938 6.949219 15.359375 8.84375 15.359375 11.191406 C 15.359375 13.53125 13.460938 15.425781 11.109375 15.425781 C 8.757812 15.425781 6.855469 13.53125 6.855469 11.191406 Z M 6.855469 11.191406 "/>
</g>
</svg>
