<svg xmlns="http://www.w3.org/2000/svg" xmlns:xlink="http://www.w3.org/1999/xlink" width="22" height="22" viewBox="0 0 22 22" version="1.1">
<g id="surface1">
<path style=" stroke:none;fill-rule:evenodd;fill:#aaaaaa;fill-opacity:1;" d="M 1.433594 11.082031 C 1.421875 12.105469 1.574219 13.121094 1.886719 14.089844 C 3.175781 18.066406 6.933594 20.757812 11.171875 20.757812 C 15.417969 20.757812 19.175781 18.066406 20.460938 14.089844 C 21.738281 10.117188 20.234375 5.796875 16.757812 3.414062 L 15.167969 5.648438 C 17.652344 7.347656 18.722656 10.433594 17.808594 13.265625 C 16.894531 16.105469 14.203125 18.03125 11.171875 18.023438 C 8.140625 18.03125 5.453125 16.105469 4.535156 13.265625 C 3.621094 10.433594 4.695312 7.347656 7.179688 5.648438 L 5.589844 3.414062 C 3.03125 5.164062 1.484375 8.019531 1.433594 11.082031 Z M 9.785156 1.632812 L 9.785156 11.195312 L 12.570312 11.195312 L 12.570312 1.289062 Z M 9.785156 1.632812 "/>
</g>
</svg>
