<svg xmlns="http://www.w3.org/2000/svg" xmlns:xlink="http://www.w3.org/1999/xlink" width="22" height="22" viewBox="0 0 22 22" version="1.1">
<g id="surface1">
<path style=" stroke:none;fill-rule:nonzero;fill:#aaaaaa;fill-opacity:1;" d="M 11.1875 1.421875 C 16.488281 1.421875 20.792969 5.792969 20.792969 11.1875 C 20.792969 16.574219 16.488281 20.949219 11.1875 20.949219 C 5.882812 20.949219 1.582031 16.574219 1.582031 11.1875 C 1.582031 5.792969 5.882812 1.421875 11.1875 1.421875 Z M 11.1875 3.585938 C 7.0625 3.585938 3.71875 6.988281 3.71875 11.1875 C 3.71875 15.382812 7.0625 18.78125 11.1875 18.78125 C 15.316406 18.78125 18.660156 15.382812 18.660156 11.1875 C 18.660156 6.988281 15.316406 3.585938 11.1875 3.585938 Z M 14.507812 12.269531 L 5.878906 12.269531 L 7.070312 10.097656 L 15.828125 10.097656 Z M 14.507812 12.269531 "/>
</g>
</svg>
