<svg xmlns="http://www.w3.org/2000/svg" xmlns:xlink="http://www.w3.org/1999/xlink" width="24" height="24" viewBox="0 0 24 24" version="1.1">
<g id="surface1">
<path style=" stroke:none;fill-rule:evenodd;fill:#aaaaaa;fill-opacity:1;" d="M 8.046875 11.929688 L 8.046875 21.820312 L 5.011719 20.703125 L 5.058594 11.984375 L 2.152344 12.03125 C 2.152344 12.03125 3.789062 6.960938 6.402344 2.351562 C 6.410156 2.351562 6.410156 2.351562 6.410156 2.351562 C 6.410156 2.351562 6.410156 2.34375 6.414062 2.34375 C 6.417969 2.34375 6.417969 2.34375 6.417969 2.34375 C 9.046875 6.625 10.90625 11.882812 10.90625 11.882812 Z M 19.164062 12.070312 L 19.164062 2.179688 L 16.132812 3.296875 L 16.175781 12.015625 L 13.273438 11.96875 C 13.273438 11.96875 14.910156 17.039062 17.523438 21.648438 C 17.523438 21.648438 17.527344 21.648438 17.527344 21.648438 C 17.527344 21.648438 17.527344 21.65625 17.527344 21.65625 C 17.53125 21.65625 17.53125 21.65625 17.535156 21.65625 C 20.167969 17.375 22.023438 12.117188 22.023438 12.117188 Z M 19.164062 12.070312 "/>
</g>
</svg>
