<svg xmlns="http://www.w3.org/2000/svg" xmlns:xlink="http://www.w3.org/1999/xlink" width="24" height="24" viewBox="0 0 24 24" version="1.1">
<g id="surface1">
<path style=" stroke:none;fill-rule:evenodd;fill:#aaaaaa;fill-opacity:1;" d="M 12.121094 4.019531 C 7.582031 4.019531 3.90625 7.683594 3.90625 12.207031 C 3.90625 16.726562 7.582031 20.390625 12.121094 20.390625 C 16.65625 20.390625 20.332031 16.726562 20.332031 12.207031 C 20.332031 7.683594 16.65625 4.019531 12.121094 4.019531 Z M 12.121094 1.683594 C 17.949219 1.683594 22.675781 6.394531 22.675781 12.207031 C 22.675781 18.015625 17.949219 22.726562 12.121094 22.726562 C 6.289062 22.726562 1.5625 18.015625 1.5625 12.207031 C 1.5625 6.394531 6.289062 1.683594 12.121094 1.683594 Z M 7.480469 12.207031 C 7.480469 9.648438 9.554688 7.582031 12.121094 7.582031 C 14.683594 7.582031 16.757812 9.648438 16.757812 12.207031 C 16.757812 14.761719 14.683594 16.828125 12.121094 16.828125 C 9.554688 16.828125 7.480469 14.761719 7.480469 12.207031 Z M 7.480469 12.207031 "/>
</g>
</svg>
