<svg width="64px" height="64px" viewBox="0 0 64 64" version="1.1" id="svg12" inkscape:version="1.2.2 (b0a8486541, 2022-12-01)" xmlns:inkscape="http://www.inkscape.org/namespaces/inkscape" xmlns:sodipodi="http://sodipodi.sourceforge.net/DTD/sodipodi-0.dtd" xmlns="http://www.w3.org/2000/svg" xmlns:svg="http://www.w3.org/2000/svg"> <sodipodi:namedview id="namedview14" pagecolor="#ffffff" bordercolor="#000000" borderopacity="0.25" inkscape:showpageshadow="2" inkscape:pageopacity="0.0" inkscape:pagecheckerboard="0" inkscape:deskcolor="#d1d1d1" showgrid="false" inkscape:zoom="3.6875" inkscape:cx="32" inkscape:cy="32.135593" inkscape:window-width="1432" inkscape:window-height="844" inkscape:window-x="0" inkscape:window-y="0" inkscape:window-maximized="1" inkscape:current-layer="svg12" /> <defs id="defs7"> <linearGradient id="linear0" gradientUnits="userSpaceOnUse" x1="0" y1="0" x2="0" y2="1" gradientTransform="matrix(64,0,0,56,0,4)"> <stop offset="0" style="stop-color:#ff6666;stop-opacity:1;" id="stop2" /> <stop offset="1" style="stop-color:#a10000;stop-opacity:1;" id="stop4" /> </linearGradient> <filter style="color-interpolation-filters:sRGB;" inkscape:label="Diffuse Light" id="filter184" x="-0.11210663" y="-0.12812186" width="1.2242133" height="1.2562437"> <feGaussianBlur in="SourceGraphic" stdDeviation="2.98951" result="blur" id="feGaussianBlur174" /> <feDiffuseLighting diffuseConstant="1" surfaceScale="10" lighting-color="rgb(255,255,255)" result="diffuse" id="feDiffuseLighting178"> <feDistantLight elevation="38" azimuth="235" id="feDistantLight176" /> </feDiffuseLighting> <feComposite in="diffuse" in2="diffuse" operator="arithmetic" k1="1" result="composite1" id="feComposite180" /> <feComposite in="composite1" in2="SourceGraphic" k1="1" operator="arithmetic" k3="1" result="composite2" id="feComposite182" /> </filter> </defs> <g id="surface1" style="filter:url(#filter184)">
<path style=" stroke:none;fill-rule:evenodd;fill:url(#linear0);fill-opacity:1;" d="M 32 0 L 32 4.925781 L 36.925781 4.925781 L 36.925781 0 Z M 32 4.925781 L 27.074219 4.925781 L 27.074219 9.847656 L 32 9.847656 Z M 32 9.847656 L 32 14.769531 L 36.925781 14.769531 L 36.925781 9.847656 Z M 32 14.769531 L 27.074219 14.769531 L 27.074219 19.691406 L 32 19.691406 Z M 32 19.691406 L 32 24.617188 C 34.714844 24.617188 36.925781 22.152344 36.925781 19.691406 Z M 32 29.539062 C 34.714844 29.539062 36.925781 31.507812 36.925781 34.460938 C 36.925781 36.925781 34.714844 39.382812 32 39.382812 C 29.285156 39.382812 27.074219 36.925781 27.074219 34.460938 C 27.074219 31.507812 29.285156 29.539062 32 29.539062 Z M 32 44.308594 C 34.714844 44.308594 36.925781 46.277344 36.925781 49.230469 L 36.925781 54.152344 C 36.925781 56.617188 34.714844 59.074219 32 59.074219 C 29.285156 59.074219 27.074219 56.617188 27.074219 54.152344 L 27.074219 49.230469 C 27.074219 46.277344 29.285156 44.308594 32 44.308594 Z M 32 24.617188 C 26.558594 24.617188 22.152344 29.046875 22.152344 34.460938 L 22.152344 54.152344 C 22.152344 59.566406 26.558594 64 32 64 C 37.441406 64 41.847656 59.566406 41.847656 54.152344 L 41.847656 34.460938 C 41.847656 29.046875 37.441406 24.617188 32 24.617188 Z M 32 24.617188 "/>
</g>
</svg>
