<svg xmlns="http://www.w3.org/2000/svg" xmlns:xlink="http://www.w3.org/1999/xlink" width="24" height="24" viewBox="0 0 24 24" version="1.1">
<g id="surface1">
<path style=" stroke:none;fill-rule:evenodd;fill:#565656;fill-opacity:1;" d="M 11.082031 3.445312 C 8.902344 3.667969 6.921875 4.542969 5.375 5.867188 C 3.3125 7.640625 2.003906 10.226562 2.003906 13.097656 C 2.003906 18.449219 6.539062 22.796875 12.144531 22.796875 C 17.75 22.796875 22.285156 18.449219 22.285156 13.097656 C 22.285156 12.386719 22.207031 11.699219 22.058594 11.039062 L 19.855469 11.492188 C 19.972656 12.011719 20.03125 12.546875 20.03125 13.097656 C 20.03125 17.261719 16.5 20.640625 12.144531 20.640625 C 7.789062 20.640625 4.253906 17.261719 4.253906 13.097656 C 4.253906 10.75 5.375 8.652344 7.128906 7.269531 C 8.238281 6.394531 9.613281 5.804688 11.113281 5.617188 L 11.148438 7.730469 C 11.148438 7.730469 14.417969 6.394531 17.078125 4.503906 C 17.078125 4.503906 17.078125 4.503906 17.078125 4.496094 C 17.078125 4.496094 17.078125 4.496094 17.074219 4.496094 C 17.074219 4.496094 17.074219 4.492188 17.074219 4.492188 C 14.207031 2.613281 11.054688 1.4375 11.054688 1.4375 Z M 11.082031 3.445312 "/>
</g>
</svg>
