<svg xmlns="http://www.w3.org/2000/svg" xmlns:xlink="http://www.w3.org/1999/xlink" width="24" height="24" viewBox="0 0 24 24" version="1.1">
<g id="surface1">
<path style=" stroke:none;fill-rule:evenodd;fill:#565656;fill-opacity:1;" d="M 1.5625 12.089844 C 1.550781 13.207031 1.71875 14.3125 2.058594 15.371094 C 3.464844 19.707031 7.5625 22.644531 12.1875 22.644531 C 16.820312 22.644531 20.917969 19.707031 22.320312 15.371094 C 23.714844 11.039062 22.074219 6.324219 18.28125 3.722656 L 16.546875 6.164062 C 19.257812 8.015625 20.425781 11.382812 19.425781 14.472656 C 18.429688 17.570312 15.496094 19.671875 12.1875 19.664062 C 8.878906 19.671875 5.949219 17.570312 4.949219 14.472656 C 3.949219 11.382812 5.121094 8.015625 7.832031 6.164062 L 6.097656 3.722656 C 3.304688 5.632812 1.621094 8.75 1.5625 12.089844 Z M 10.675781 1.78125 L 10.675781 12.210938 L 13.710938 12.210938 L 13.710938 1.40625 Z M 10.675781 1.78125 "/>
</g>
</svg>
