<svg width="64px" height="64px" viewBox="0 0 64 64" version="1.1" id="svg12" inkscape:version="1.2.2 (b0a8486541, 2022-12-01)" xmlns:inkscape="http://www.inkscape.org/namespaces/inkscape" xmlns:sodipodi="http://sodipodi.sourceforge.net/DTD/sodipodi-0.dtd" xmlns="http://www.w3.org/2000/svg" xmlns:svg="http://www.w3.org/2000/svg"> <sodipodi:namedview id="namedview14" pagecolor="#ffffff" bordercolor="#000000" borderopacity="0.25" inkscape:showpageshadow="2" inkscape:pageopacity="0.0" inkscape:pagecheckerboard="0" inkscape:deskcolor="#d1d1d1" showgrid="false" inkscape:zoom="3.6875" inkscape:cx="32" inkscape:cy="32.135593" inkscape:window-width="1432" inkscape:window-height="844" inkscape:window-x="0" inkscape:window-y="0" inkscape:window-maximized="1" inkscape:current-layer="svg12" /> <defs id="defs7"> <linearGradient id="linear0" gradientUnits="userSpaceOnUse" x1="0" y1="0" x2="0" y2="1" gradientTransform="matrix(64,0,0,56,0,4)"> <stop offset="0" style="stop-color:#02a3a3;stop-opacity:1;" id="stop2" /> <stop offset="1" style="stop-color:#007575;stop-opacity:1;" id="stop4" /> </linearGradient> <filter style="color-interpolation-filters:sRGB;" inkscape:label="Diffuse Light" id="filter184" x="-0.11210663" y="-0.12812186" width="1.2242133" height="1.2562437"> <feGaussianBlur in="SourceGraphic" stdDeviation="2.98951" result="blur" id="feGaussianBlur174" /> <feDiffuseLighting diffuseConstant="1" surfaceScale="10" lighting-color="rgb(255,255,255)" result="diffuse" id="feDiffuseLighting178"> <feDistantLight elevation="38" azimuth="235" id="feDistantLight176" /> </feDiffuseLighting> <feComposite in="diffuse" in2="diffuse" operator="arithmetic" k1="1" result="composite1" id="feComposite180" /> <feComposite in="composite1" in2="SourceGraphic" k1="1" operator="arithmetic" k3="1" result="composite2" id="feComposite182" /> </filter> </defs> <g id="surface1" style="filter:url(#filter184)">
<path style=" stroke:none;fill-rule:evenodd;fill:url(#linear0);fill-opacity:1;" d="M 33.09375 6.761719 L 36.453125 0 L 46.0625 0 L 46.0625 10.324219 C 47.890625 11.339844 49.621094 12.566406 51.199219 13.984375 C 56.234375 18.503906 59.484375 24.675781 60.363281 31.386719 C 61.238281 38.097656 59.683594 44.894531 55.972656 50.558594 C 52.265625 56.21875 46.65625 60.363281 40.152344 62.238281 C 33.652344 64.113281 26.699219 63.605469 20.542969 60.792969 L 23.332031 54.675781 C 28.027344 56.816406 33.332031 57.214844 38.285156 55.78125 C 43.246094 54.347656 47.519531 51.1875 50.347656 46.875 C 53.175781 42.558594 54.363281 37.375 53.699219 32.261719 C 53.027344 27.140625 50.550781 22.4375 46.707031 18.988281 C 46.496094 18.800781 46.28125 18.613281 46.0625 18.433594 L 46.0625 35.246094 L 36.453125 28.753906 L 36.453125 19.863281 L 29.53125 35.050781 L 36.941406 35.050781 L 36.941406 31.394531 L 48.917969 39.660156 L 36.941406 47.921875 L 36.941406 44.265625 L 25.328125 44.265625 L 16.332031 64 L 4.652344 64 L 29.675781 13.636719 C 25.628906 14.128906 21.78125 15.765625 18.597656 18.386719 C 14.613281 21.660156 11.933594 26.253906 11.046875 31.339844 C 10.433594 34.859375 10.703125 38.453125 11.808594 41.800781 L 7.980469 49.519531 C 4.519531 43.703125 3.253906 36.84375 4.421875 30.175781 C 5.589844 23.515625 9.105469 17.484375 14.328125 13.1875 C 19.550781 8.890625 26.144531 6.609375 32.910156 6.753906 C 32.972656 6.761719 33.03125 6.761719 33.09375 6.761719 Z M 46.0625 49.457031 L 37.878906 49.457031 L 46.0625 43.941406 Z M 46.0625 49.457031 "/>
</g>
</svg>
