<svg width="64px" height="64px" viewBox="0 0 64 64" version="1.1" id="svg12" inkscape:version="1.2.2 (b0a8486541, 2022-12-01)" xmlns:inkscape="http://www.inkscape.org/namespaces/inkscape" xmlns:sodipodi="http://sodipodi.sourceforge.net/DTD/sodipodi-0.dtd" xmlns="http://www.w3.org/2000/svg" xmlns:svg="http://www.w3.org/2000/svg"> <sodipodi:namedview id="namedview14" pagecolor="#ffffff" bordercolor="#000000" borderopacity="0.25" inkscape:showpageshadow="2" inkscape:pageopacity="0.0" inkscape:pagecheckerboard="0" inkscape:deskcolor="#d1d1d1" showgrid="false" inkscape:zoom="3.6875" inkscape:cx="32" inkscape:cy="32.135593" inkscape:window-width="1432" inkscape:window-height="844" inkscape:window-x="0" inkscape:window-y="0" inkscape:window-maximized="1" inkscape:current-layer="svg12" /> <defs id="defs7"> <linearGradient id="linear0" gradientUnits="userSpaceOnUse" x1="0" y1="0" x2="0" y2="1" gradientTransform="matrix(64,0,0,56,0,4)"> <stop offset="0" style="stop-color:#9c856e;stop-opacity:1;" id="stop2" /> <stop offset="1" style="stop-color:#6e5a46;stop-opacity:1;" id="stop4" /> </linearGradient> <filter style="color-interpolation-filters:sRGB;" inkscape:label="Diffuse Light" id="filter184" x="-0.11210663" y="-0.12812186" width="1.2242133" height="1.2562437"> <feGaussianBlur in="SourceGraphic" stdDeviation="2.98951" result="blur" id="feGaussianBlur174" /> <feDiffuseLighting diffuseConstant="1" surfaceScale="10" lighting-color="rgb(255,255,255)" result="diffuse" id="feDiffuseLighting178"> <feDistantLight elevation="38" azimuth="235" id="feDistantLight176" /> </feDiffuseLighting> <feComposite in="diffuse" in2="diffuse" operator="arithmetic" k1="1" result="composite1" id="feComposite180" /> <feComposite in="composite1" in2="SourceGraphic" k1="1" operator="arithmetic" k3="1" result="composite2" id="feComposite182" /> </filter> </defs> <g id="surface1" style="filter:url(#filter184)">
<path style=" stroke:none;fill-rule:nonzero;fill:url(#linear0);" d="M 60 10 C 60 4.5 55.5 0 50 0 C 44.5 0 40 4.5 40 10 C 40 15.5 44.5 20 50 20 C 55.5 20 60 15.5 60 10 Z M 60 50 C 60 44.5 55.5 40 50 40 C 44.5 40 40 44.5 40 50 C 40 55.5 44.5 60 50 60 C 55.5 60 60 55.5 60 50 Z M 56 10 C 56 13.339844 53.339844 16 50 16 C 46.660156 16 44 13.339844 44 10 C 44 6.660156 46.660156 4 50 4 C 53.339844 4 56 6.660156 56 10 Z M 56 50 C 56 53.339844 53.339844 56 50 56 C 46.660156 56 44 53.339844 44 50 C 44 46.660156 46.660156 44 50 44 C 53.339844 44 56 46.660156 56 50 Z M 38.9375 18.4375 C 38.121094 17.375 37.449219 16.21875 36.964844 14.953125 L 21.546875 23.527344 C 19.707031 21.386719 17.019531 20 14 20 C 8.5 20 4 24.5 4 30 C 4 35.5 8.5 40 14 40 C 17.019531 40 19.707031 38.613281 21.546875 36.472656 L 36.964844 45.046875 C 37.449219 43.78125 38.121094 42.625 38.9375 41.5625 L 23.496094 32.984375 C 23.792969 32.035156 24 31.046875 24 30 C 24 28.953125 23.792969 27.964844 23.496094 27.015625 Z M 20 30 C 20 33.339844 17.339844 36 14 36 C 10.660156 36 8 33.339844 8 30 C 8 26.660156 10.660156 24 14 24 C 17.339844 24 20 26.660156 20 30 Z M 20 30 "/>
</g>
</svg>
