<svg width="64px" height="64px" viewBox="0 0 64 64" version="1.1" id="svg12" inkscape:version="1.2.2 (b0a8486541, 2022-12-01)" xmlns:inkscape="http://www.inkscape.org/namespaces/inkscape" xmlns:sodipodi="http://sodipodi.sourceforge.net/DTD/sodipodi-0.dtd" xmlns="http://www.w3.org/2000/svg" xmlns:svg="http://www.w3.org/2000/svg"> <sodipodi:namedview id="namedview14" pagecolor="#ffffff" bordercolor="#000000" borderopacity="0.25" inkscape:showpageshadow="2" inkscape:pageopacity="0.0" inkscape:pagecheckerboard="0" inkscape:deskcolor="#d1d1d1" showgrid="false" inkscape:zoom="3.6875" inkscape:cx="32" inkscape:cy="32.135593" inkscape:window-width="1432" inkscape:window-height="844" inkscape:window-x="0" inkscape:window-y="0" inkscape:window-maximized="1" inkscape:current-layer="svg12" /> <defs id="defs7"> <linearGradient id="linear0" gradientUnits="userSpaceOnUse" x1="0" y1="0" x2="0" y2="1" gradientTransform="matrix(64,0,0,56,0,4)"> <stop offset="0" style="stop-color:#4e9dff;stop-opacity:1;" id="stop2" /> <stop offset="1" style="stop-color:#0072ff;stop-opacity:1;" id="stop4" /> </linearGradient> <filter style="color-interpolation-filters:sRGB;" inkscape:label="Diffuse Light" id="filter184" x="-0.11210663" y="-0.12812186" width="1.2242133" height="1.2562437"> <feGaussianBlur in="SourceGraphic" stdDeviation="2.98951" result="blur" id="feGaussianBlur174" /> <feDiffuseLighting diffuseConstant="1" surfaceScale="10" lighting-color="rgb(255,255,255)" result="diffuse" id="feDiffuseLighting178"> <feDistantLight elevation="38" azimuth="235" id="feDistantLight176" /> </feDiffuseLighting> <feComposite in="diffuse" in2="diffuse" operator="arithmetic" k1="1" result="composite1" id="feComposite180" /> <feComposite in="composite1" in2="SourceGraphic" k1="1" operator="arithmetic" k3="1" result="composite2" id="feComposite182" /> </filter> </defs> <g id="surface1" style="filter:url(#filter184)">
<path style=" stroke:none;fill-rule:nonzero;fill:url(#linear0);" d="M 18.636719 10.667969 C 17.472656 10.683594 16.453125 11.453125 16.113281 12.5625 L 8.6875 37.339844 L 0 37.339844 L 0 42.667969 L 10.667969 42.667969 C 11.84375 42.667969 12.878906 41.902344 13.21875 40.777344 L 18.625 22.75 L 26.9375 51.40625 C 27.261719 52.515625 28.253906 53.285156 29.40625 53.328125 C 30.558594 53.371094 31.597656 52.667969 32 51.589844 L 37.707031 36.042969 L 40.28125 41.191406 C 40.734375 42.09375 41.65625 42.667969 42.667969 42.667969 L 64 42.667969 L 64 37.339844 L 44.3125 37.339844 L 39.71875 28.144531 C 39.246094 27.199219 38.25 26.625 37.1875 26.683594 C 36.128906 26.738281 35.199219 27.421875 34.832031 28.421875 L 29.792969 42.128906 L 21.230469 12.59375 C 20.894531 11.441406 19.839844 10.65625 18.636719 10.667969 Z M 18.636719 10.667969 "/>
</g>
</svg>
