
<svg xmlns="http://www.w3.org/2000/svg" xmlns:xlink="http://www.w3.org/1999/xlink" width="22px" height="22px" viewBox="0 0 22 22" version="1.1">
<g id="surface1">
<path style=" stroke:none;fill-rule:nonzero;fill:#aaaaaa;fill-opacity:1;" d="M 11.609375 3.777344 C 11.425781 3.777344 11.269531 3.859375 11.042969 4.078125 C 10.871094 4.242188 9.179688 6.101562 7.289062 8.210938 C 3.441406 12.496094 3.421875 12.523438 3.167969 13.914062 C 3.050781 14.546875 3.046875 14.757812 3.125 15.261719 C 3.265625 16.1875 3.65625 16.859375 4.378906 17.417969 C 4.675781 17.652344 5.28125 17.855469 8.941406 18.949219 C 11.261719 19.644531 13.253906 20.21875 13.371094 20.222656 C 13.488281 20.226562 13.640625 20.207031 13.707031 20.183594 C 13.847656 20.128906 20.605469 12.019531 20.777344 11.703125 C 20.867188 11.535156 20.867188 11.425781 20.785156 11.078125 C 20.691406 10.683594 20.699219 10.375 20.832031 9.671875 C 20.878906 9.410156 20.855469 9.347656 20.640625 9.132812 C 19.964844 8.453125 19.277344 9.300781 19.367188 10.710938 L 19.40625 11.304688 L 17.4375 13.671875 C 16.359375 14.972656 14.957031 16.660156 14.324219 17.417969 C 13.695312 18.179688 13.136719 18.785156 13.089844 18.769531 C 13.039062 18.75 11.277344 18.222656 9.171875 17.597656 C 6.648438 16.851562 5.269531 16.40625 5.128906 16.289062 C 4.632812 15.886719 4.355469 15.164062 4.4375 14.480469 C 4.519531 13.796875 4.820312 13.441406 5.3125 13.441406 C 5.410156 13.441406 7.144531 13.914062 9.167969 14.492188 C 11.765625 15.234375 12.914062 15.527344 13.0625 15.488281 C 13.328125 15.421875 13.269531 15.488281 17.382812 10.742188 C 19.296875 8.535156 20.886719 6.640625 20.914062 6.53125 C 20.976562 6.285156 20.835938 5.921875 20.632812 5.796875 C 20.441406 5.675781 11.949219 3.777344 11.609375 3.777344 Z M 12.609375 5.757812 L 13.503906 6 L 12.792969 9.539062 L 12.039062 9.332031 L 12.179688 8.691406 L 11.007812 8.375 L 10.496094 8.914062 L 9.738281 8.710938 Z M 12.640625 6.640625 L 11.527344 7.824219 L 12.324219 8.039062 Z M 14.484375 7.273438 C 14.65625 7.273438 14.820312 7.285156 14.984375 7.304688 C 15.148438 7.324219 15.304688 7.355469 15.457031 7.394531 C 15.847656 7.503906 16.085938 7.667969 16.164062 7.886719 C 16.242188 8.109375 16.175781 8.414062 15.960938 8.804688 L 15.195312 10.191406 L 14.492188 10 L 14.691406 9.640625 C 14.515625 9.761719 14.347656 9.839844 14.195312 9.878906 C 14.039062 9.914062 13.878906 9.90625 13.710938 9.863281 C 13.484375 9.800781 13.34375 9.675781 13.28125 9.492188 C 13.222656 9.304688 13.257812 9.09375 13.386719 8.859375 C 13.542969 8.574219 13.75 8.390625 13.996094 8.304688 C 14.246094 8.21875 14.5625 8.226562 14.9375 8.328125 L 15.351562 8.441406 L 15.382812 8.382812 C 15.453125 8.257812 15.457031 8.15625 15.402344 8.074219 C 15.347656 7.996094 15.226562 7.929688 15.042969 7.878906 C 14.894531 7.835938 14.746094 7.816406 14.597656 7.816406 C 14.449219 7.8125 14.304688 7.832031 14.15625 7.867188 Z M 14.527344 8.773438 C 14.464844 8.773438 14.410156 8.78125 14.355469 8.800781 C 14.253906 8.835938 14.171875 8.90625 14.113281 9.011719 C 14.058594 9.113281 14.046875 9.195312 14.074219 9.269531 C 14.101562 9.339844 14.167969 9.390625 14.273438 9.417969 C 14.40625 9.453125 14.546875 9.433594 14.691406 9.351562 C 14.839844 9.273438 14.957031 9.152344 15.046875 8.992188 L 15.09375 8.90625 L 14.730469 8.804688 C 14.660156 8.785156 14.589844 8.777344 14.527344 8.773438 Z M 14.527344 8.773438 "/>
</g>
</svg>
