
<svg xmlns="http://www.w3.org/2000/svg" xmlns:xlink="http://www.w3.org/1999/xlink" width="22px" height="22px" viewBox="0 0 22 22" version="1.1">
<defs>
<linearGradient id="linear0" gradientUnits="userSpaceOnUse" x1="13.583" y1="18" x2="13.351" y2="12.165" >
<stop offset="0" style="stop-color:rgb(74.901962%,75.686276%,75.686276%);stop-opacity:1;"/>
<stop offset="1" style="stop-color:rgb(94.509804%,94.901961%,95.294118%);stop-opacity:1;"/>
</linearGradient>
<linearGradient id="linear1" gradientUnits="userSpaceOnUse" x1="15" y1="19" x2="15" y2="11" >
<stop offset="0" style="stop-color:rgb(100%,0%,33.725491%);stop-opacity:1;"/>
<stop offset="0.1" style="stop-color:rgb(100%,4.705882%,30.588236%);stop-opacity:1;"/>
<stop offset="0.2" style="stop-color:rgb(100%,9.411765%,27.058825%);stop-opacity:1;"/>
<stop offset="0.3" style="stop-color:rgb(100%,14.117648%,23.921569%);stop-opacity:1;"/>
<stop offset="0.4" style="stop-color:rgb(100%,18.82353%,20.392157%);stop-opacity:1;"/>
<stop offset="0.5" style="stop-color:rgb(100%,23.529412%,16.862746%);stop-opacity:1;"/>
<stop offset="0.6" style="stop-color:rgb(100%,28.235295%,13.725491%);stop-opacity:1;"/>
<stop offset="0.7" style="stop-color:rgb(100%,32.941177%,10.196079%);stop-opacity:1;"/>
<stop offset="0.8" style="stop-color:rgb(100%,37.64706%,7.058824%);stop-opacity:1;"/>
<stop offset="0.9" style="stop-color:rgb(100%,42.352942%,3.529412%);stop-opacity:1;"/>
<stop offset="1" style="stop-color:rgb(100%,47.450981%,0.392157%);stop-opacity:1;"/>
</linearGradient>
</defs>
<g id="surface1">
<path style=" stroke:none;fill-rule:nonzero;fill:rgb(57.647061%,58.431375%,59.215689%);fill-opacity:1;" d="M 3 5.34375 L 6.410156 5.34375 C 6.921875 5.34375 7.378906 5.667969 7.550781 6.152344 L 11.90625 18.609375 L 10.699219 14.480469 L 16.496094 6.875 L 19 9.242188 L 14.316406 4 L 18.257812 4 C 18.667969 4 19 4.332031 19 4.742188 L 19 9.242188 L 11.90625 18.609375 L 8.472656 18.609375 C 8 18.609375 7.578125 18.3125 7.421875 17.867188 Z M 3 5.34375 "/>
<path style=" stroke:none;fill-rule:nonzero;fill:url(#linear0);" d="M 13 12 L 17 12 L 17 18 L 13 18 Z M 13 12 "/>
<path style=" stroke:none;fill-rule:nonzero;fill:url(#linear1);" d="M 15 11 C 12.789062 11 11 12.789062 11 15 C 11 17.210938 12.789062 19 15 19 C 17.210938 19 19 17.210938 19 15 C 19 12.789062 17.210938 11 15 11 Z M 14.429688 12.714844 L 15.570312 12.714844 L 15.570312 15 L 17 15 L 15 17.855469 L 13 15 L 14.429688 15 Z M 14.429688 12.714844 "/>
</g>
</svg>
