<svg width="64" height="64" viewBox="0 0 64 64" version="1.1" xmlns:inkscape="http://www.inkscape.org/namespaces/inkscape"><defs><linearGradient id="linear0" gradientUnits="userSpaceOnUse" x1="0" y1="0" x2="0" y2="1" gradientTransform="matrix(83.424183,0,0,82.636497,-9.652824,-9.920059)"><stop offset="0" style="stop-color:rgb(0%,78.823531%,36.862746%);stop-opacity:1;"/><stop offset="1" style="stop-color:rgb(0%,54.11765%,25.098041%);stop-opacity:1;"/></linearGradient><linearGradient id="linear1" gradientUnits="userSpaceOnUse" x1="0" y1="0" x2="0" y2="1" gradientTransform="matrix(83.424183,0,0,82.636497,-9.652824,-9.920059)"><stop offset="0" style="stop-color:rgb(0%,78.823531%,36.862746%);stop-opacity:1;"/><stop offset="1" style="stop-color:rgb(0%,54.11765%,25.098041%);stop-opacity:1;"/></linearGradient><linearGradient id="linear2" gradientUnits="userSpaceOnUse" x1="0" y1="0" x2="0" y2="1" gradientTransform="matrix(83.424183,0,0,82.636497,-9.652824,-9.920059)"><stop offset="0" style="stop-color:rgb(0%,78.823531%,36.862746%);stop-opacity:1;"/><stop offset="1" style="stop-color:rgb(0%,54.11765%,25.098041%);stop-opacity:1;"/></linearGradient><linearGradient id="linear3" gradientUnits="userSpaceOnUse" x1="0" y1="0" x2="0" y2="1" gradientTransform="matrix(83.424183,0,0,82.636497,-9.652824,-9.920059)"><stop offset="0" style="stop-color:rgb(0%,78.823531%,36.862746%);stop-opacity:1;"/><stop offset="1" style="stop-color:rgb(0%,54.11765%,25.098041%);stop-opacity:1;"/></linearGradient><linearGradient id="linear4" gradientUnits="userSpaceOnUse" x1="0" y1="0" x2="0" y2="1" gradientTransform="matrix(83.424183,0,0,82.636497,-9.652824,-9.920059)"><stop offset="0" style="stop-color:rgb(0%,78.823531%,36.862746%);stop-opacity:1;"/><stop offset="1" style="stop-color:rgb(0%,54.11765%,25.098041%);stop-opacity:1;"/></linearGradient><linearGradient id="linear5" gradientUnits="userSpaceOnUse" x1="0" y1="0" x2="0" y2="1" gradientTransform="matrix(83.424183,0,0,82.636497,-9.652824,-9.920059)"><stop offset="0" style="stop-color:rgb(0%,78.823531%,36.862746%);stop-opacity:1;"/><stop offset="1" style="stop-color:rgb(0%,54.11765%,25.098041%);stop-opacity:1;"/></linearGradient><linearGradient id="linear6" gradientUnits="userSpaceOnUse" x1="0" y1="0" x2="0" y2="1" gradientTransform="matrix(83.424183,0,0,82.636497,-9.652824,-9.920059)"><stop offset="0" style="stop-color:rgb(0%,78.823531%,36.862746%);stop-opacity:1;"/><stop offset="1" style="stop-color:rgb(0%,54.11765%,25.098041%);stop-opacity:1;"/></linearGradient><linearGradient id="linear7" gradientUnits="userSpaceOnUse" x1="0" y1="0" x2="0" y2="1" gradientTransform="matrix(83.424183,0,0,82.636497,-9.652824,-9.920059)"><stop offset="0" style="stop-color:rgb(0%,78.823531%,36.862746%);stop-opacity:1;"/><stop offset="1" style="stop-color:rgb(0%,54.11765%,25.098041%);stop-opacity:1;"/></linearGradient><filter style="color-interpolation-filters:sRGB;" inkscape:label="Diffuse Light" id="filter184" x="-0.0375" y="-0.0375" width="1.075" height="1.075"><feGaussianBlur in="SourceGraphic" stdDeviation="1" result="blur" id="feGaussianBlur174" /><feDiffuseLighting diffuseConstant="1" surfaceScale="10" lighting-color="rgb(255,255,255)" result="diffuse" id="feDiffuseLighting178"><feDistantLight elevation="8" azimuth="235" id="feDistantLight176" /></feDiffuseLighting><feComposite in="diffuse" in2="diffuse" operator="arithmetic" k1="1" result="composite1" id="feComposite180" /><feComposite in="composite1" in2="SourceGraphic" k1="1" operator="arithmetic" k3="1" result="composite2" id="feComposite182" /></filter></defs><g id="surface1" style="filter:url(#filter184)"><path style=" stroke:none;fill-rule:evenodd;fill:url(#linear0);" d="M 44.378906 5.113281 L 34.054688 23.445312 L 39.035156 26.394531 L 49.367188 8.0625 Z M 44.378906 5.113281 "/><path style=" stroke:none;fill-rule:evenodd;fill:url(#linear1);" d="M 24.847656 39.773438 L 14.675781 57.828125 L 19.660156 60.785156 L 29.832031 42.730469 Z M 24.847656 39.773438 "/><path style=" stroke:none;fill-rule:evenodd;fill:url(#linear2);" d="M 15.433594 21.070312 L 3.804688 41.726562 L 15.433594 62.386719 L 38.691406 62.386719 L 50.320312 41.726562 L 38.691406 21.070312 Z M 18.753906 26.972656 L 35.371094 26.972656 L 43.675781 41.726562 L 35.371094 56.484375 L 18.753906 56.484375 L 10.445312 41.726562 Z M 18.753906 26.972656 "/><path style=" stroke:none;fill-rule:evenodd;fill:url(#linear3);" d="M 25.425781 3.359375 L 13.796875 24.019531 L 25.425781 44.679688 L 48.6875 44.679688 L 60.316406 24.019531 L 48.691406 3.359375 Z M 28.75 9.261719 L 45.371094 9.261719 L 53.671875 24.019531 L 45.363281 38.777344 L 28.753906 38.777344 L 20.441406 24.019531 Z M 28.75 9.261719 "/><path style=" stroke:none;fill-rule:evenodd;fill:url(#linear4);" d="M 24.847656 38.296875 L 14.675781 56.351562 L 19.660156 59.308594 L 29.832031 41.253906 Z M 24.847656 38.296875 "/><path style=" stroke:none;fill-rule:evenodd;fill:url(#linear5);" d="M 44.378906 3.636719 L 34.054688 21.96875 L 39.035156 24.917969 L 49.367188 6.589844 Z M 44.378906 3.636719 "/><path style=" stroke:none;fill-rule:evenodd;fill:url(#linear6);" d="M 15.433594 19.59375 L 3.804688 40.253906 L 15.433594 60.910156 L 38.691406 60.910156 L 50.320312 40.253906 L 38.691406 19.59375 Z M 18.753906 25.496094 L 35.371094 25.496094 L 43.675781 40.253906 L 35.371094 55.007812 L 18.753906 55.007812 L 10.445312 40.253906 Z M 18.753906 25.496094 "/><path style=" stroke:none;fill-rule:evenodd;fill:url(#linear7);" d="M 25.425781 1.886719 L 13.796875 22.542969 L 25.425781 43.203125 L 48.6875 43.203125 L 60.316406 22.542969 L 48.691406 1.886719 Z M 28.75 7.789062 L 45.371094 7.789062 L 53.671875 22.542969 L 45.363281 37.300781 L 28.753906 37.300781 L 20.441406 22.542969 Z M 28.75 7.789062 "/></g></svg>
