<svg width="64" height="64" viewBox="0 0 64 64" version="1.1" xmlns:inkscape="http://www.inkscape.org/namespaces/inkscape"><defs><linearGradient id="linear0" gradientUnits="userSpaceOnUse" x1="0" y1="0" x2="0" y2="1" gradientTransform="matrix(66.671103,0,0,71.741922,-1.768112,-2.365448)"><stop offset="0" style="stop-color:rgb(82.352942%,61.176473%,100%);stop-opacity:1;"/><stop offset="1" style="stop-color:rgb(66.666669%,0%,100%);stop-opacity:1;"/></linearGradient><filter style="color-interpolation-filters:sRGB;" inkscape:label="Diffuse Light" id="filter184" x="-0.0375" y="-0.0375" width="1.075" height="1.075"><feGaussianBlur in="SourceGraphic" stdDeviation="1" result="blur" id="feGaussianBlur174" /><feDiffuseLighting diffuseConstant="1" surfaceScale="10" lighting-color="rgb(255,255,255)" result="diffuse" id="feDiffuseLighting178"><feDistantLight elevation="8" azimuth="235" id="feDistantLight176" /></feDiffuseLighting><feComposite in="diffuse" in2="diffuse" operator="arithmetic" k1="1" result="composite1" id="feComposite180" /><feComposite in="composite1" in2="SourceGraphic" k1="1" operator="arithmetic" k3="1" result="composite2" id="feComposite182" /></filter></defs><g id="surface1" style="filter:url(#filter184)"><path style=" stroke:none;fill-rule:evenodd;fill:url(#linear0);" d="M 17.894531 3.898438 C 15.175781 3.898438 15.175781 7.503906 15.175781 7.503906 L 15.175781 11.105469 C 15.175781 11.105469 15.175781 21.910156 8.382812 21.910156 C 4.355469 21.910156 2.742188 18.121094 2.074219 15.03125 C 1.761719 17.300781 1.601562 19.601562 1.59375 21.910156 C 1.59375 43.792969 14.972656 61.535156 31.476562 61.535156 C 47.980469 61.535156 61.363281 43.792969 61.363281 21.910156 C 61.351562 18.921875 61.085938 15.949219 60.566406 13.042969 C 58.660156 13.671875 58.644531 16.503906 58.644531 16.503906 L 58.644531 29.117188 C 58.644531 29.117188 58.644531 32.71875 55.929688 32.71875 C 53.214844 32.71875 53.214844 29.117188 53.214844 29.117188 L 53.214844 18.308594 C 53.214844 18.308594 53.214844 14.710938 50.496094 14.710938 C 47.777344 14.710938 47.777344 18.308594 47.777344 18.308594 L 47.777344 32.71875 C 47.777344 32.71875 47.777344 38.121094 42.34375 38.121094 C 36.914062 38.121094 36.914062 30.917969 36.914062 30.917969 L 36.914062 11.105469 C 36.914062 11.105469 36.914062 3.898438 31.476562 3.898438 C 26.042969 3.898438 26.042969 11.105469 26.042969 11.105469 L 26.042969 41.722656 C 26.042969 41.722656 26.042969 45.324219 23.328125 45.324219 C 20.609375 45.324219 20.609375 41.722656 20.609375 41.722656 L 20.609375 7.503906 C 20.609375 7.503906 20.609375 3.898438 17.894531 3.898438 Z M 17.894531 3.898438 "/></g></svg>
