<svg width="64" height="64" viewBox="0 0 64 64" version="1.1" xmlns:inkscape="http://www.inkscape.org/namespaces/inkscape"><defs><linearGradient id="linear0" gradientUnits="userSpaceOnUse" x1="0" y1="0" x2="0" y2="1" gradientTransform="matrix(63.283819,0,0,62.884777,1.235024,0.842612)"><stop offset="0" style="stop-color:rgb(100%,63.137257%,63.137257%);stop-opacity:1;"/><stop offset="1" style="stop-color:rgb(100%,27.843139%,27.843139%);stop-opacity:1;"/></linearGradient><linearGradient id="linear1" gradientUnits="userSpaceOnUse" x1="0" y1="0" x2="0" y2="1" gradientTransform="matrix(63.283819,0,0,62.884777,1.235024,0.842612)"><stop offset="0" style="stop-color:rgb(100%,63.137257%,63.137257%);stop-opacity:1;"/><stop offset="1" style="stop-color:rgb(100%,27.843139%,27.843139%);stop-opacity:1;"/></linearGradient><linearGradient id="linear2" gradientUnits="userSpaceOnUse" x1="0" y1="0" x2="0" y2="1" gradientTransform="matrix(63.283819,0,0,62.884777,1.235024,0.842612)"><stop offset="0" style="stop-color:rgb(100%,63.137257%,63.137257%);stop-opacity:1;"/><stop offset="1" style="stop-color:rgb(100%,27.843139%,27.843139%);stop-opacity:1;"/></linearGradient><filter style="color-interpolation-filters:sRGB;" inkscape:label="Diffuse Light" id="filter184" x="-0.0375" y="-0.0375" width="1.075" height="1.075"><feGaussianBlur in="SourceGraphic" stdDeviation="1" result="blur" id="feGaussianBlur174" /><feDiffuseLighting diffuseConstant="1" surfaceScale="10" lighting-color="rgb(255,255,255)" result="diffuse" id="feDiffuseLighting178"><feDistantLight elevation="8" azimuth="235" id="feDistantLight176" /></feDiffuseLighting><feComposite in="diffuse" in2="diffuse" operator="arithmetic" k1="1" result="composite1" id="feComposite180" /><feComposite in="composite1" in2="SourceGraphic" k1="1" operator="arithmetic" k3="1" result="composite2" id="feComposite182" /></filter></defs><g id="surface1" style="filter:url(#filter184)"><path style=" stroke:none;fill-rule:evenodd;fill:url(#linear0);" d="M 62.347656 24.425781 C 62.347656 34.347656 54.527344 42.390625 44.882812 42.390625 C 35.238281 42.390625 27.417969 34.347656 27.417969 24.425781 C 27.417969 14.503906 35.238281 6.457031 44.882812 6.457031 C 54.527344 6.457031 62.347656 14.503906 62.347656 24.425781 Z M 62.347656 24.425781 "/><path style=" stroke:none;fill-rule:evenodd;fill:url(#linear1);" d="M 44.882812 5.335938 C 35.238281 5.335938 27.417969 13.378906 27.417969 23.300781 C 27.421875 23.519531 27.433594 23.734375 27.441406 23.949219 C 27.691406 14.226562 35.421875 6.464844 44.882812 6.457031 C 54.277344 6.464844 61.984375 14.117188 62.328125 23.773438 C 62.335938 23.617188 62.34375 23.460938 62.347656 23.300781 C 62.347656 13.378906 54.527344 5.335938 44.882812 5.335938 Z M 44.882812 5.335938 "/><path style=" stroke:none;fill-rule:evenodd;fill:rgb(100%,63.137257%,63.137257%);fill-opacity:1;" d="M 62.347656 23.300781 C 62.347656 33.222656 54.527344 41.269531 44.882812 41.269531 C 35.238281 41.269531 27.417969 33.222656 27.417969 23.300781 C 27.417969 13.378906 35.238281 5.335938 44.882812 5.335938 C 54.527344 5.335938 62.347656 13.378906 62.347656 23.300781 Z M 62.347656 23.300781 "/><path style=" stroke:none;fill-rule:evenodd;fill:rgb(100%,63.137257%,63.137257%);fill-opacity:1;" d="M 36.15625 24.542969 C 36.15625 34.464844 28.335938 42.511719 18.691406 42.511719 C 9.046875 42.511719 1.226562 34.464844 1.226562 24.542969 C 1.226562 14.621094 9.046875 6.574219 18.691406 6.574219 C 28.335938 6.574219 36.15625 14.621094 36.15625 24.542969 Z M 36.15625 24.542969 "/><path style=" stroke:none;fill-rule:evenodd;fill:url(#linear2);" d="M 50.191406 38.515625 C 50.191406 48.4375 42.371094 56.480469 32.726562 56.480469 C 23.078125 56.480469 15.261719 48.4375 15.261719 38.515625 C 15.261719 28.589844 23.078125 20.546875 32.726562 20.546875 C 42.371094 20.546875 50.191406 28.589844 50.191406 38.515625 Z M 50.191406 38.515625 "/></g></svg>
