<svg width="64" height="64" viewBox="0 0 64 64" version="1.1" xmlns:inkscape="http://www.inkscape.org/namespaces/inkscape"><defs><linearGradient id="linear0" gradientUnits="userSpaceOnUse" x1="0" y1="0" x2="0" y2="1" gradientTransform="matrix(76.927643,0,0,75.270288,-5.531484,-7.473884)"><stop offset="0" style="stop-color:rgb(87.058824%,86.666667%,56.470591%);stop-opacity:1;"/><stop offset="1" style="stop-color:rgb(67.843139%,67.450982%,38.039216%);stop-opacity:1;"/></linearGradient><linearGradient id="linear1" gradientUnits="userSpaceOnUse" x1="0" y1="0" x2="0" y2="1" gradientTransform="matrix(76.927643,0,0,75.270288,-5.531484,-7.473884)"><stop offset="0" style="stop-color:rgb(87.058824%,86.666667%,56.470591%);stop-opacity:1;"/><stop offset="1" style="stop-color:rgb(67.843139%,67.450982%,38.039216%);stop-opacity:1;"/></linearGradient><filter style="color-interpolation-filters:sRGB;" inkscape:label="Diffuse Light" id="filter184" x="-0.0375" y="-0.0375" width="1.075" height="1.075"><feGaussianBlur in="SourceGraphic" stdDeviation="1" result="blur" id="feGaussianBlur174" /><feDiffuseLighting diffuseConstant="1" surfaceScale="10" lighting-color="rgb(255,255,255)" result="diffuse" id="feDiffuseLighting178"><feDistantLight elevation="8" azimuth="235" id="feDistantLight176" /></feDiffuseLighting><feComposite in="diffuse" in2="diffuse" operator="arithmetic" k1="1" result="composite1" id="feComposite180" /><feComposite in="composite1" in2="SourceGraphic" k1="1" operator="arithmetic" k3="1" result="composite2" id="feComposite182" /></filter></defs><g id="surface1" style="filter:url(#filter184)"><path style=" stroke:none;fill-rule:evenodd;fill:url(#linear0);" d="M 55.488281 3.277344 C 58.421875 3.277344 60.796875 5.683594 60.796875 8.65625 C 60.796875 11.628906 58.421875 14.03125 55.488281 14.03125 C 52.554688 14.03125 50.183594 11.628906 50.183594 8.65625 C 50.183594 5.683594 52.554688 3.277344 55.488281 3.277344 Z M 55.488281 3.277344 "/><path style=" stroke:none;fill-rule:evenodd;fill:url(#linear1);" d="M 27.910156 15.390625 C 40.371094 15.390625 50.464844 25.621094 50.464844 38.242188 C 50.464844 50.859375 40.371094 61.089844 27.910156 61.089844 C 15.453125 61.089844 5.351562 50.859375 5.351562 38.242188 C 5.351562 25.621094 15.453125 15.390625 27.910156 15.390625 Z M 27.910156 15.390625 "/></g></svg>
