<svg width="64" height="64" viewBox="0 0 64 64" version="1.1" xmlns:inkscape="http://www.inkscape.org/namespaces/inkscape"><defs><linearGradient id="linear0" gradientUnits="userSpaceOnUse" x1="0" y1="0" x2="0" y2="1" gradientTransform="matrix(59.578006,0,0,60.395288,2.211235,2.105584)"><stop offset="0" style="stop-color:rgb(0%,73.333335%,100%);stop-opacity:1;"/><stop offset="1" style="stop-color:rgb(0%,52.156866%,70.980394%);stop-opacity:1;"/></linearGradient><filter style="color-interpolation-filters:sRGB;" inkscape:label="Diffuse Light" id="filter184" x="-0.0375" y="-0.0375" width="1.075" height="1.075"><feGaussianBlur in="SourceGraphic" stdDeviation="1" result="blur" id="feGaussianBlur174" /><feDiffuseLighting diffuseConstant="1" surfaceScale="10" lighting-color="rgb(255,255,255)" result="diffuse" id="feDiffuseLighting178"><feDistantLight elevation="8" azimuth="235" id="feDistantLight176" /></feDiffuseLighting><feComposite in="diffuse" in2="diffuse" operator="arithmetic" k1="1" result="composite1" id="feComposite180" /><feComposite in="composite1" in2="SourceGraphic" k1="1" operator="arithmetic" k3="1" result="composite2" id="feComposite182" /></filter></defs><g id="surface1" style="filter:url(#filter184)"><path style=" stroke:none;fill-rule:nonzero;fill:url(#linear0);" d="M 27.417969 2.105469 L 2.210938 42.753906 L 2.210938 53.207031 L 27.417969 53.207031 L 27.417969 62.5 L 38.875 62.5 L 38.875 41.597656 L 43.457031 41.597656 C 54.914062 41.597656 61.789062 32.304688 61.789062 21.851562 C 61.789062 11.398438 54.914062 2.105469 43.457031 2.105469 Z M 38.875 13.71875 L 42.3125 13.71875 C 48.039062 13.71875 50.332031 18.363281 50.332031 21.851562 C 50.332031 25.335938 48.039062 29.980469 42.3125 29.980469 L 38.875 29.980469 M 27.417969 22.785156 L 27.417969 41.597656 L 15.960938 41.597656 "/></g></svg>
