<svg width="64" height="64" viewBox="0 0 64 64" version="1.1" xmlns:inkscape="http://www.inkscape.org/namespaces/inkscape"><defs><linearGradient id="linear0" gradientUnits="userSpaceOnUse" x1="0" y1="0" x2="0" y2="1" gradientTransform="matrix(59.19293,0,0,59.467836,2.387513,1.748833)"><stop offset="0" style="stop-color:rgb(0%,78.823531%,36.862746%);stop-opacity:1;"/><stop offset="1" style="stop-color:rgb(0%,54.11765%,25.098041%);stop-opacity:1;"/></linearGradient><filter style="color-interpolation-filters:sRGB;" inkscape:label="Diffuse Light" id="filter184" x="-0.0375" y="-0.0375" width="1.075" height="1.075"><feGaussianBlur in="SourceGraphic" stdDeviation="1" result="blur" id="feGaussianBlur174" /><feDiffuseLighting diffuseConstant="1" surfaceScale="10" lighting-color="rgb(255,255,255)" result="diffuse" id="feDiffuseLighting178"><feDistantLight elevation="8" azimuth="235" id="feDistantLight176" /></feDiffuseLighting><feComposite in="diffuse" in2="diffuse" operator="arithmetic" k1="1" result="composite1" id="feComposite180" /><feComposite in="composite1" in2="SourceGraphic" k1="1" operator="arithmetic" k3="1" result="composite2" id="feComposite182" /></filter></defs><g id="surface1" style="filter:url(#filter184)"><path style=" stroke:none;fill-rule:nonzero;fill:url(#linear0);" d="M 46.941406 1.75 L 45.371094 3.703125 L 39.996094 10.59375 L 34.992188 10.59375 L 34.992188 13.570312 L 23.140625 13.570312 L 23.140625 19.523438 L 34.992188 19.523438 L 34.992188 22.503906 L 39.996094 22.503906 L 45.371094 29.386719 L 46.941406 31.339844 L 49.074219 30.226562 L 61.582031 23.621094 L 58.796875 18.40625 L 48.519531 23.808594 L 42.957031 16.550781 L 48.515625 9.285156 L 58.800781 14.6875 L 61.582031 9.476562 L 49.074219 2.863281 Z M 11.277344 7.609375 C 6.238281 7.609375 2.386719 11.484375 2.386719 16.550781 C 2.386719 20.335938 4.550781 23.5 7.761719 24.824219 L 14.796875 46.328125 L 27.304688 46.328125 L 19.058594 20.921875 C 19.765625 19.628906 20.175781 18.164062 20.175781 16.550781 C 20.175781 11.484375 16.320312 7.609375 11.277344 7.609375 Z M 11.277344 13.570312 C 13.066406 13.570312 14.242188 14.753906 14.242188 16.550781 C 14.242188 18.339844 13.066406 19.523438 11.277344 19.523438 C 9.492188 19.523438 8.316406 18.339844 8.316406 16.550781 C 8.316406 14.753906 9.492188 13.570312 11.277344 13.570312 Z M 8.316406 49.308594 C 5.050781 49.308594 2.386719 51.980469 2.386719 55.261719 L 2.386719 61.214844 L 52.777344 61.214844 L 52.777344 55.261719 C 52.777344 51.980469 50.117188 49.308594 46.847656 49.308594 Z M 8.316406 49.308594 "/></g></svg>
