<svg width="64" height="64" viewBox="0 0 64 64" version="1.1" xmlns:inkscape="http://www.inkscape.org/namespaces/inkscape"><defs><linearGradient id="linear0" gradientUnits="userSpaceOnUse" x1="0" y1="0" x2="0" y2="1" gradientTransform="matrix(71.996434,0,0,54.268919,-4.286108,4.829492)"><stop offset="0" style="stop-color:rgb(81.960785%,70.980394%,59.215689%);stop-opacity:1;"/><stop offset="1" style="stop-color:rgb(65.098041%,53.725493%,41.568628%);stop-opacity:1;"/></linearGradient><filter style="color-interpolation-filters:sRGB;" inkscape:label="Diffuse Light" id="filter184" x="-0.0375" y="-0.0375" width="1.075" height="1.075"><feGaussianBlur in="SourceGraphic" stdDeviation="1" result="blur" id="feGaussianBlur174" /><feDiffuseLighting diffuseConstant="1" surfaceScale="10" lighting-color="rgb(255,255,255)" result="diffuse" id="feDiffuseLighting178"><feDistantLight elevation="8" azimuth="235" id="feDistantLight176" /></feDiffuseLighting><feComposite in="diffuse" in2="diffuse" operator="arithmetic" k1="1" result="composite1" id="feComposite180" /><feComposite in="composite1" in2="SourceGraphic" k1="1" operator="arithmetic" k3="1" result="composite2" id="feComposite182" /></filter></defs><g id="surface1" style="filter:url(#filter184)"><path style=" stroke:none;fill-rule:nonzero;fill:url(#linear0);" d="M 6.34375 7.445312 L 1.695312 14.78125 L 1.695312 29.441406 L 6.34375 29.441406 L 1.695312 36.769531 L 1.695312 51.433594 L 6.34375 51.433594 L 6.34375 58.761719 L 22.621094 58.761719 L 22.621094 51.433594 L 27.277344 51.433594 L 27.277344 36.769531 L 22.621094 36.769531 L 22.621094 29.441406 L 27.277344 29.441406 L 27.277344 14.78125 L 22.621094 14.78125 L 22.621094 7.445312 Z M 45.882812 7.445312 L 36.578125 33.105469 L 36.578125 51.433594 L 41.230469 51.433594 L 41.230469 58.761719 L 57.511719 58.761719 L 57.511719 51.433594 L 62.160156 51.433594 L 62.160156 36.769531 L 57.511719 36.769531 L 57.511719 29.441406 L 45.882812 29.441406 L 45.882812 22.109375 L 50.535156 22.109375 L 50.535156 14.78125 L 57.511719 14.78125 L 57.511719 7.445312 Z M 10.996094 14.78125 L 17.972656 14.78125 L 17.972656 29.441406 L 10.996094 29.441406 Z M 10.996094 36.769531 L 17.972656 36.769531 L 17.972656 51.433594 L 10.996094 51.433594 Z M 45.882812 36.769531 L 52.859375 36.769531 L 52.859375 51.433594 L 45.882812 51.433594 Z M 45.882812 36.769531 "/></g></svg>
