<svg width="64" height="64" viewBox="0 0 64 64" version="1.1" xmlns:inkscape="http://www.inkscape.org/namespaces/inkscape"><defs><linearGradient id="linear0" gradientUnits="userSpaceOnUse" x1="0" y1="0" x2="0" y2="1" gradientTransform="matrix(56,0,0,63.734375,4,0.132812)"><stop offset="0" style="stop-color:rgb(100%,63.137257%,63.137257%);stop-opacity:1;"/><stop offset="1" style="stop-color:rgb(100%,27.843139%,27.843139%);stop-opacity:1;"/></linearGradient><filter style="color-interpolation-filters:sRGB;" inkscape:label="Diffuse Light" id="filter184" x="-0.0375" y="-0.0375" width="1.075" height="1.075"><feGaussianBlur in="SourceGraphic" stdDeviation="1" result="blur" id="feGaussianBlur174" /><feDiffuseLighting diffuseConstant="1" surfaceScale="10" lighting-color="rgb(255,255,255)" result="diffuse" id="feDiffuseLighting178"><feDistantLight elevation="8" azimuth="235" id="feDistantLight176" /></feDiffuseLighting><feComposite in="diffuse" in2="diffuse" operator="arithmetic" k1="1" result="composite1" id="feComposite180" /><feComposite in="composite1" in2="SourceGraphic" k1="1" operator="arithmetic" k3="1" result="composite2" id="feComposite182" /></filter></defs><g id="surface1" style="filter:url(#filter184)"><path style=" stroke:none;fill-rule:nonzero;fill:url(#linear0);" d="M 4.097656 16.070312 C 13.410156 10.746094 22.726562 5.433594 32.046875 0.132812 C 41.363281 5.4375 50.691406 10.726562 59.996094 16.054688 C 59.984375 26.695312 59.980469 37.335938 60 47.980469 C 50.699219 53.3125 41.359375 58.566406 32.042969 63.867188 C 22.703125 58.523438 13.3125 53.261719 4 47.867188 C 7.714844 45.769531 11.425781 43.667969 15.148438 41.578125 C 20.78125 44.800781 26.425781 48 32.042969 51.238281 C 37.648438 47.976562 43.328125 44.835938 48.910156 41.539062 C 48.863281 37.28125 48.90625 33.023438 48.886719 28.765625 C 43.28125 31.992188 37.660156 35.210938 32.042969 38.429688 C 22.71875 33.167969 13.425781 27.851562 4.101562 22.585938 C 4.101562 20.410156 4.105469 18.238281 4.097656 16.070312 Z M 20.648438 19.265625 C 24.429688 21.46875 28.246094 23.613281 32.042969 25.796875 C 35.859375 23.625 39.675781 21.449219 43.5 19.28125 C 39.675781 17.121094 35.863281 14.933594 32.042969 12.769531 C 28.242188 14.929688 24.457031 17.121094 20.648438 19.265625 Z M 20.648438 19.265625 "/></g></svg>
