<svg width="64" height="64" viewBox="0 0 64 64" version="1.1" xmlns:inkscape="http://www.inkscape.org/namespaces/inkscape"><defs><linearGradient id="linear0" gradientUnits="userSpaceOnUse" x1="0" y1="0" x2="0" y2="1" gradientTransform="matrix(61.283352,0,0,32.371334,1.625712,14.71328)"><stop offset="0" style="stop-color:rgb(100%,63.137257%,63.137257%);stop-opacity:1;"/><stop offset="1" style="stop-color:rgb(100%,27.843139%,27.843139%);stop-opacity:1;"/></linearGradient><filter style="color-interpolation-filters:sRGB;" inkscape:label="Diffuse Light" id="filter184" x="-0.0375" y="-0.0375" width="1.075" height="1.075"><feGaussianBlur in="SourceGraphic" stdDeviation="1" result="blur" id="feGaussianBlur174" /><feDiffuseLighting diffuseConstant="1" surfaceScale="10" lighting-color="rgb(255,255,255)" result="diffuse" id="feDiffuseLighting178"><feDistantLight elevation="8" azimuth="235" id="feDistantLight176" /></feDiffuseLighting><feComposite in="diffuse" in2="diffuse" operator="arithmetic" k1="1" result="composite1" id="feComposite180" /><feComposite in="composite1" in2="SourceGraphic" k1="1" operator="arithmetic" k3="1" result="composite2" id="feComposite182" /></filter></defs><g id="surface1" style="filter:url(#filter184)"><path style=" stroke:none;fill-rule:nonzero;fill:url(#linear0);" d="M 62.910156 38.257812 L 56.851562 41.515625 L 56.851562 20.28125 L 62.910156 23.539062 Z M 54.628906 16.375 L 54.628906 47.085938 L 51.566406 47.085938 L 51.566406 14.714844 L 54.628906 14.714844 Z M 44.378906 47.085938 L 44.378906 14.714844 L 49.34375 14.714844 L 49.34375 47.085938 Z M 1.625 23.539062 L 7.671875 20.28125 L 7.671875 41.515625 L 1.625 38.257812 Z M 9.890625 45.425781 L 9.890625 14.714844 L 13.445312 14.714844 L 13.445312 47.085938 L 9.890625 47.085938 Z M 20.632812 47.085938 L 15.664062 47.085938 L 15.664062 14.714844 L 20.632812 14.714844 Z M 22.851562 28.847656 L 42.160156 28.847656 L 42.160156 32.949219 L 22.851562 32.949219 Z M 22.851562 28.847656 "/></g></svg>
