<svg width="64" height="64" viewBox="0 0 64 64" version="1.1" xmlns:inkscape="http://www.inkscape.org/namespaces/inkscape"><defs><linearGradient id="linear0" gradientUnits="userSpaceOnUse" x1="0" y1="0" x2="0" y2="1" gradientTransform="matrix(60.756638,0,0,60.935543,2.224361,1.773703)"><stop offset="0" style="stop-color:rgb(0%,78.823531%,36.862746%);stop-opacity:1;"/><stop offset="1" style="stop-color:rgb(0%,54.11765%,25.098041%);stop-opacity:1;"/></linearGradient><filter style="color-interpolation-filters:sRGB;" inkscape:label="Diffuse Light" id="filter184" x="-0.0375" y="-0.0375" width="1.075" height="1.075"><feGaussianBlur in="SourceGraphic" stdDeviation="1" result="blur" id="feGaussianBlur174" /><feDiffuseLighting diffuseConstant="1" surfaceScale="10" lighting-color="rgb(255,255,255)" result="diffuse" id="feDiffuseLighting178"><feDistantLight elevation="8" azimuth="235" id="feDistantLight176" /></feDiffuseLighting><feComposite in="diffuse" in2="diffuse" operator="arithmetic" k1="1" result="composite1" id="feComposite180" /><feComposite in="composite1" in2="SourceGraphic" k1="1" operator="arithmetic" k3="1" result="composite2" id="feComposite182" /></filter></defs><g id="surface1" style="filter:url(#filter184)"><path style=" stroke:none;fill-rule:nonzero;fill:url(#linear0);" d="M 44.195312 15.941406 C 45.707031 18.4375 46.625 21.417969 46.625 24.625 C 46.625 24.683594 46.625 24.746094 46.609375 24.796875 C 49.8125 25.390625 52.648438 27.15625 54.628906 29.773438 C 59.320312 30.296875 62.980469 34.609375 62.980469 39.855469 C 62.980469 45.074219 59.351562 49.375 54.6875 49.9375 C 54.324219 50.332031 53.941406 50.71875 53.542969 51.082031 C 53.597656 51.5625 53.632812 52.054688 53.632812 52.550781 C 53.632812 58.15625 49.445312 62.710938 44.285156 62.710938 C 39.121094 62.710938 34.9375 58.15625 34.9375 52.550781 C 34.9375 52.105469 34.96875 51.664062 35.023438 51.230469 C 34.042969 50.386719 33.214844 49.371094 32.523438 48.246094 C 31.878906 49.320312 31.082031 50.261719 30.175781 51.082031 C 30.234375 51.5625 30.265625 52.054688 30.265625 52.550781 C 30.265625 58.15625 26.074219 62.710938 20.917969 62.710938 C 15.753906 62.710938 11.574219 58.15625 11.574219 52.550781 C 11.574219 52.054688 11.601562 51.566406 11.664062 51.082031 C 11.265625 50.71875 10.882812 50.332031 10.515625 49.9375 C 5.84375 49.375 2.222656 45.070312 2.222656 39.855469 C 2.222656 34.609375 5.878906 30.296875 10.578125 29.773438 C 12.550781 27.15625 15.390625 25.390625 18.597656 24.796875 C 18.578125 24.742188 18.578125 24.683594 18.578125 24.625 C 18.578125 21.410156 19.5 18.433594 21.011719 15.941406 C 20.949219 15.460938 20.917969 14.964844 20.917969 14.472656 C 20.917969 7.460938 26.148438 1.773438 32.601562 1.773438 C 39.058594 1.773438 44.285156 7.460938 44.285156 14.472656 C 44.285156 14.964844 44.257812 15.460938 44.195312 15.941406 Z M 44.195312 15.941406 "/></g></svg>
