<svg width="64" height="64" viewBox="0 0 64 64" version="1.1" xmlns:inkscape="http://www.inkscape.org/namespaces/inkscape"><defs><linearGradient id="linear0" gradientUnits="userSpaceOnUse" x1="0" y1="0" x2="0" y2="1" gradientTransform="matrix(56,0,0,35.898438,4,14.050781)"><stop offset="0" style="stop-color:rgb(0%,73.333335%,100%);stop-opacity:1;"/><stop offset="1" style="stop-color:rgb(0%,52.156866%,70.980394%);stop-opacity:1;"/></linearGradient><linearGradient id="linear1" gradientUnits="userSpaceOnUse" x1="0" y1="0" x2="0" y2="1" gradientTransform="matrix(56,0,0,35.898438,4,14.050781)"><stop offset="0" style="stop-color:rgb(0%,73.333335%,100%);stop-opacity:1;"/><stop offset="1" style="stop-color:rgb(0%,52.156866%,70.980394%);stop-opacity:1;"/></linearGradient><filter style="color-interpolation-filters:sRGB;" inkscape:label="Diffuse Light" id="filter184" x="-0.0375" y="-0.0375" width="1.075" height="1.075"><feGaussianBlur in="SourceGraphic" stdDeviation="1" result="blur" id="feGaussianBlur174" /><feDiffuseLighting diffuseConstant="1" surfaceScale="10" lighting-color="rgb(255,255,255)" result="diffuse" id="feDiffuseLighting178"><feDistantLight elevation="8" azimuth="235" id="feDistantLight176" /></feDiffuseLighting><feComposite in="diffuse" in2="diffuse" operator="arithmetic" k1="1" result="composite1" id="feComposite180" /><feComposite in="composite1" in2="SourceGraphic" k1="1" operator="arithmetic" k3="1" result="composite2" id="feComposite182" /></filter></defs><g id="surface1" style="filter:url(#filter184)"><path style=" stroke:none;fill-rule:nonzero;fill:url(#linear0);" d="M 17.667969 13.074219 L 7.773438 48.136719 L 13.59375 48.136719 L 16.246094 38.207031 L 26.046875 38.207031 L 28.839844 48.136719 L 34.882812 48.136719 L 24.855469 13.074219 M 19.546875 24.730469 C 20.089844 22.652344 20.558594 20.203125 21.011719 18.167969 L 21.105469 18.167969 C 21.554688 20.199219 22.066406 22.585938 22.660156 24.730469 L 25.085938 33.363281 L 17.167969 33.363281 "/><path style=" stroke:none;fill-rule:nonzero;fill:url(#linear1);" d="M 41.921875 20.886719 L 41.777344 20.886719 L 41.496094 16.148438 L 36.347656 16.148438 C 36.496094 18.871094 36.539062 21.921875 36.539062 25.554688 L 36.539062 47.742188 L 42.441406 47.742188 L 42.441406 29.1875 C 42.441406 28.285156 42.488281 27.308594 42.679688 26.601562 C 43.300781 24.199219 44.917969 21.925781 47.25 21.925781 C 50.4375 21.925781 51.675781 25.363281 51.675781 29.902344 L 51.675781 47.742188 L 57.535156 47.742188 L 57.535156 28.992188 C 57.535156 19.007812 53.34375 15.445312 49.300781 15.445312 C 45.449219 15.445312 42.917969 18.425781 41.921875 20.886719 "/></g></svg>
