<svg width="64" height="64" viewBox="0 0 64 64" version="1.1" xmlns:inkscape="http://www.inkscape.org/namespaces/inkscape"><defs><linearGradient id="linear0" gradientUnits="userSpaceOnUse" x1="0" y1="0" x2="0" y2="1" gradientTransform="matrix(56,0,0,35.898438,4,14.050781)"><stop offset="0" style="stop-color:rgb(75.686276%,77.64706%,83.92157%);stop-opacity:1;"/><stop offset="1" style="stop-color:rgb(43.529412%,45.09804%,50.196081%);stop-opacity:1;"/></linearGradient><filter style="color-interpolation-filters:sRGB;" inkscape:label="Diffuse Light" id="filter184" x="-0.0375" y="-0.0375" width="1.075" height="1.075"><feGaussianBlur in="SourceGraphic" stdDeviation="1" result="blur" id="feGaussianBlur174" /><feDiffuseLighting diffuseConstant="1" surfaceScale="10" lighting-color="rgb(255,255,255)" result="diffuse" id="feDiffuseLighting178"><feDistantLight elevation="8" azimuth="235" id="feDistantLight176" /></feDiffuseLighting><feComposite in="diffuse" in2="diffuse" operator="arithmetic" k1="1" result="composite1" id="feComposite180" /><feComposite in="composite1" in2="SourceGraphic" k1="1" operator="arithmetic" k3="1" result="composite2" id="feComposite182" /></filter></defs><g id="surface1" style="filter:url(#filter184)"><path style=" stroke:none;fill-rule:nonzero;fill:url(#linear0);" d="M 8.808594 9.140625 L 17.5 31.824219 L 8.808594 54.117188 L 14.984375 54.046875 L 20.5 39.652344 L 26.019531 54.046875 L 32.191406 54.117188 L 23.503906 31.824219 L 32.191406 9.140625 L 26.347656 9.140625 L 20.5 24.132812 L 14.65625 9.140625 Z M 50.277344 9.84375 L 50.277344 27.0625 L 50.1875 27.0625 C 49.210938 24.824219 47.0625 23.066406 44.074219 23.066406 C 38.863281 23.066406 34.308594 29.125 34.355469 39.289062 C 34.355469 48.648438 38.457031 54.820312 43.628906 54.820312 C 46.796875 54.820312 49.429688 52.703125 50.726562 49.339844 L 50.816406 49.339844 L 51.035156 54.144531 L 55.941406 54.144531 C 55.851562 52.078125 55.757812 48.71875 55.757812 45.59375 L 55.757812 9.84375 Z M 45.417969 29 C 47.910156 29 49.652344 31.429688 50.144531 34.429688 C 50.238281 35.050781 50.28125 35.800781 50.28125 36.421875 L 50.28125 40.976562 C 50.28125 41.796875 50.234375 42.535156 50.101562 43.226562 C 49.570312 46.53125 47.617188 48.648438 45.378906 48.648438 C 41.898438 48.648438 39.933594 44.59375 39.933594 39.042969 L 39.929688 39.042969 C 39.929688 33.363281 41.894531 29 45.417969 29 Z M 45.417969 29 "/></g></svg>
