<svg width="64" height="64" viewBox="0 0 64 64" version="1.1" xmlns:inkscape="http://www.inkscape.org/namespaces/inkscape"><defs><linearGradient id="linear0" gradientUnits="userSpaceOnUse" x1="0" y1="0" x2="0" y2="1" gradientTransform="matrix(64,0,0,64,0,0)"><stop offset="0" style="stop-color:rgb(82.352942%,61.176473%,100%);stop-opacity:1;"/><stop offset="1" style="stop-color:rgb(66.666669%,0%,100%);stop-opacity:1;"/></linearGradient><filter style="color-interpolation-filters:sRGB;" inkscape:label="Diffuse Light" id="filter184" x="-0.0375" y="-0.0375" width="1.075" height="1.075"><feGaussianBlur in="SourceGraphic" stdDeviation="1" result="blur" id="feGaussianBlur174" /><feDiffuseLighting diffuseConstant="1" surfaceScale="10" lighting-color="rgb(255,255,255)" result="diffuse" id="feDiffuseLighting178"><feDistantLight elevation="8" azimuth="235" id="feDistantLight176" /></feDiffuseLighting><feComposite in="diffuse" in2="diffuse" operator="arithmetic" k1="1" result="composite1" id="feComposite180" /><feComposite in="composite1" in2="SourceGraphic" k1="1" operator="arithmetic" k3="1" result="composite2" id="feComposite182" /></filter></defs><g id="surface1" style="filter:url(#filter184)"><path style=" stroke:none;fill-rule:nonzero;fill:url(#linear0);" d="M 56.886719 0 L 7.113281 0 C 3.183594 0 0 3.183594 0 7.113281 L 0 56.886719 C 0 60.816406 3.183594 64 7.113281 64 L 56.886719 64 C 60.816406 64 64 60.816406 64 56.886719 L 64 7.113281 C 64 3.183594 60.816406 0 56.886719 0 Z M 34.472656 46.890625 L 17.601562 46.890625 L 17.601562 16.550781 L 23.726562 16.550781 L 23.726562 41.804688 L 34.476562 41.804688 Z M 48.847656 30.027344 C 48.195312 29.957031 47.542969 29.898438 46.890625 29.859375 C 44.625 29.859375 43.902344 31.292969 43.628906 31.984375 L 43.628906 46.886719 L 37.707031 46.886719 L 37.707031 24.34375 L 43.265625 24.34375 L 43.433594 26.777344 C 43.875 25.871094 45.066406 23.933594 47.292969 23.933594 C 48.265625 23.933594 48.707031 24.113281 48.914062 24.195312 Z M 48.847656 30.027344 "/></g></svg>
