<svg width="64" height="64" viewBox="0 0 64 64" version="1.1" xmlns:inkscape="http://www.inkscape.org/namespaces/inkscape"><defs><linearGradient id="linear0" gradientUnits="userSpaceOnUse" x1="0" y1="0" x2="0" y2="1" gradientTransform="matrix(56,0,0,35.898438,4,14.050781)"><stop offset="0" style="stop-color:rgb(0%,73.333335%,100%);stop-opacity:1;"/><stop offset="1" style="stop-color:rgb(0%,52.156866%,70.980394%);stop-opacity:1;"/></linearGradient><filter style="color-interpolation-filters:sRGB;" inkscape:label="Diffuse Light" id="filter184" x="-0.0375" y="-0.0375" width="1.075" height="1.075"><feGaussianBlur in="SourceGraphic" stdDeviation="1" result="blur" id="feGaussianBlur174" /><feDiffuseLighting diffuseConstant="1" surfaceScale="10" lighting-color="rgb(255,255,255)" result="diffuse" id="feDiffuseLighting178"><feDistantLight elevation="8" azimuth="235" id="feDistantLight176" /></feDiffuseLighting><feComposite in="diffuse" in2="diffuse" operator="arithmetic" k1="1" result="composite1" id="feComposite180" /><feComposite in="composite1" in2="SourceGraphic" k1="1" operator="arithmetic" k3="1" result="composite2" id="feComposite182" /></filter></defs><g id="surface1" style="filter:url(#filter184)"><path style=" stroke:none;fill-rule:nonzero;fill:url(#linear0);" d="M 10.03125 11.371094 L 10.03125 54.296875 L 17.078125 54.296875 L 17.078125 36.085938 L 31.277344 36.085938 L 31.277344 29.648438 L 17.078125 29.648438 L 17.078125 17.808594 L 32.3125 17.808594 L 32.3125 11.371094 Z M 47.136719 23.253906 C 40.816406 23.253906 36.847656 27.421875 36.847656 32.765625 C 36.796875 36.320312 39.027344 39.550781 44.34375 41.609375 C 47.703125 42.90625 48.816406 43.964844 48.816406 46.023438 C 48.816406 48.011719 47.476562 49.378906 44.453125 49.378906 C 41.992188 49.378906 39.027344 48.257812 37.460938 47.207031 L 36.125 52.742188 C 38.132812 53.984375 41.097656 54.929688 44.40625 54.929688 C 51.621094 54.929688 55.480469 50.882812 55.480469 45.402344 C 55.421875 40.921875 53.128906 38.125 48.203125 36.136719 C 44.734375 34.773438 43.449219 33.835938 43.449219 31.910156 C 43.449219 30.054688 44.792969 28.746094 47.25 28.746094 C 49.664062 28.746094 51.84375 29.757812 53.007812 30.480469 L 54.355469 25.054688 C 52.789062 24.136719 50.164062 23.253906 47.136719 23.253906 Z M 47.136719 23.253906 "/></g></svg>
