<svg width="64" height="64" viewBox="0 0 64 64" version="1.1" xmlns:inkscape="http://www.inkscape.org/namespaces/inkscape"><defs><linearGradient id="linear0" gradientUnits="userSpaceOnUse" x1="0" y1="0" x2="0" y2="1" gradientTransform="matrix(56,0,0,35.898438,4,14.050781)"><stop offset="0" style="stop-color:rgb(81.960785%,70.980394%,59.215689%);stop-opacity:1;"/><stop offset="1" style="stop-color:rgb(65.098041%,53.725493%,41.568628%);stop-opacity:1;"/></linearGradient><filter style="color-interpolation-filters:sRGB;" inkscape:label="Diffuse Light" id="filter184" x="-0.0375" y="-0.0375" width="1.075" height="1.075"><feGaussianBlur in="SourceGraphic" stdDeviation="1" result="blur" id="feGaussianBlur174" /><feDiffuseLighting diffuseConstant="1" surfaceScale="10" lighting-color="rgb(255,255,255)" result="diffuse" id="feDiffuseLighting178"><feDistantLight elevation="8" azimuth="235" id="feDistantLight176" /></feDiffuseLighting><feComposite in="diffuse" in2="diffuse" operator="arithmetic" k1="1" result="composite1" id="feComposite180" /><feComposite in="composite1" in2="SourceGraphic" k1="1" operator="arithmetic" k3="1" result="composite2" id="feComposite182" /></filter></defs><g id="surface1" style="filter:url(#filter184)"><path style=" stroke:none;fill-rule:nonzero;fill:url(#linear0);" d="M 14.289062 11.828125 L 10.726562 52.75 L 15 52.75 L 18.046875 24.90625 L 21.78125 52.808594 L 25.464844 52.808594 L 28.820312 24.90625 L 31.785156 52.75 L 36.238281 52.75 L 32.992188 11.828125 L 27.089844 11.828125 L 23.59375 38.03125 L 20.160156 11.828125 Z M 38.300781 21.335938 L 38.300781 39.8125 C 38.300781 50.082031 41.515625 53.511719 45.050781 53.511719 C 48.503906 53.511719 50.40625 50.28125 51.242188 48.019531 L 51.320312 48.019531 L 51.558594 52.796875 L 55.847656 52.796875 C 55.769531 50.210938 55.6875 47.109375 55.6875 43.359375 L 55.6875 21.335938 L 50.804688 21.335938 L 50.804688 40.328125 C 50.804688 41.230469 50.679688 42.074219 50.523438 42.789062 C 50.011719 44.789062 48.738281 47.050781 46.792969 47.050781 C 44.210938 47.050781 43.183594 43.6875 43.183594 38.453125 L 43.183594 21.335938 Z M 38.300781 21.335938 "/></g></svg>
