<svg width="64" height="64" viewBox="0 0 64 64" version="1.1" xmlns:inkscape="http://www.inkscape.org/namespaces/inkscape"><defs><linearGradient id="linear0" gradientUnits="userSpaceOnUse" x1="0" y1="0" x2="0" y2="1" gradientTransform="matrix(73.813806,0,0,75.706353,-7.067546,-4.988329)"><stop offset="0" style="stop-color:rgb(82.352942%,61.176473%,100%);stop-opacity:1;"/><stop offset="1" style="stop-color:rgb(66.666669%,0%,100%);stop-opacity:1;"/></linearGradient><filter style="color-interpolation-filters:sRGB;" inkscape:label="Diffuse Light" id="filter184" x="-0.0375" y="-0.0375" width="1.075" height="1.075"><feGaussianBlur in="SourceGraphic" stdDeviation="1" result="blur" id="feGaussianBlur174" /><feDiffuseLighting diffuseConstant="1" surfaceScale="10" lighting-color="rgb(255,255,255)" result="diffuse" id="feDiffuseLighting178"><feDistantLight elevation="8" azimuth="235" id="feDistantLight176" /></feDiffuseLighting><feComposite in="diffuse" in2="diffuse" operator="arithmetic" k1="1" result="composite1" id="feComposite180" /><feComposite in="composite1" in2="SourceGraphic" k1="1" operator="arithmetic" k3="1" result="composite2" id="feComposite182" /></filter></defs><g id="surface1" style="filter:url(#filter184)"><path style=" stroke:none;fill-rule:nonzero;fill:url(#linear0);" d="M 1.730469 12.480469 L 1.730469 60.128906 L 8.777344 60.128906 L 8.777344 48.21875 L 13.464844 48.21875 L 13.464844 60.128906 L 20.507812 60.128906 L 20.507812 12.480469 C 20.507812 8.082031 18.414062 4.542969 15.8125 4.542969 Z M 22.859375 12.480469 L 22.859375 52.1875 C 22.859375 56.589844 24.949219 60.128906 27.554688 60.128906 L 36.941406 60.128906 C 39.539062 60.128906 41.636719 56.589844 41.636719 52.1875 L 41.636719 28.363281 L 39.289062 28.363281 L 32.242188 48.21875 L 29.894531 44.25 L 29.894531 20.421875 C 29.894531 18.226562 30.945312 16.453125 32.242188 16.453125 C 33.546875 16.453125 34.589844 18.226562 34.589844 20.421875 L 41.636719 20.421875 L 41.636719 12.480469 C 41.636719 8.082031 39.539062 4.542969 36.941406 4.542969 Z M 43.984375 4.542969 L 43.984375 60.128906 L 51.023438 60.128906 L 51.023438 48.21875 L 53.371094 40.277344 L 55.71875 60.128906 L 62.761719 60.128906 L 58.066406 28.363281 L 62.761719 4.542969 L 55.71875 4.542969 L 51.023438 28.363281 L 51.023438 4.542969 Z M 8.777344 16.453125 L 13.464844 16.453125 L 13.464844 36.308594 L 8.777344 36.308594 Z M 8.777344 16.453125 "/></g></svg>
