<svg width="64" height="64" viewBox="0 0 64 64" version="1.1" xmlns:inkscape="http://www.inkscape.org/namespaces/inkscape"><defs><linearGradient id="linear0" gradientUnits="userSpaceOnUse" x1="0" y1="0" x2="0" y2="1" gradientTransform="matrix(74.178213,0,0,73.054658,-6.150537,-4.803522)"><stop offset="0" style="stop-color:rgb(0%,96.078432%,86.274511%);stop-opacity:1;"/><stop offset="1" style="stop-color:rgb(0%,54.901963%,49.411765%);stop-opacity:1;"/></linearGradient><filter style="color-interpolation-filters:sRGB;" inkscape:label="Diffuse Light" id="filter184" x="-0.0375" y="-0.0375" width="1.075" height="1.075"><feGaussianBlur in="SourceGraphic" stdDeviation="1" result="blur" id="feGaussianBlur174" /><feDiffuseLighting diffuseConstant="1" surfaceScale="10" lighting-color="rgb(255,255,255)" result="diffuse" id="feDiffuseLighting178"><feDistantLight elevation="8" azimuth="235" id="feDistantLight176" /></feDiffuseLighting><feComposite in="diffuse" in2="diffuse" operator="arithmetic" k1="1" result="composite1" id="feComposite180" /><feComposite in="composite1" in2="SourceGraphic" k1="1" operator="arithmetic" k3="1" result="composite2" id="feComposite182" /></filter></defs><g id="surface1" style="filter:url(#filter184)"><path style=" stroke:none;fill-rule:nonzero;fill:url(#linear0);" d="M 7.5625 2.464844 L 7.5625 8.5 L 2.328125 8.5 L 2.328125 35.664062 L 7.5625 35.664062 L 7.5625 50.757812 L 10.175781 50.757812 L 10.175781 62.832031 L 15.410156 62.832031 L 15.410156 35.664062 L 25.871094 35.664062 L 25.871094 62.832031 L 31.105469 62.832031 L 31.105469 56.796875 L 41.570312 56.796875 L 41.570312 50.757812 L 46.804688 50.757812 L 46.804688 62.832031 L 52.035156 62.832031 L 52.035156 50.757812 L 57.265625 50.757812 L 57.265625 44.722656 L 62.496094 44.722656 L 62.496094 11.519531 L 57.265625 11.519531 L 57.265625 2.464844 L 46.804688 2.464844 L 46.804688 8.5 L 41.570312 8.5 L 41.570312 38.683594 L 36.335938 38.683594 L 36.335938 26.613281 L 31.105469 26.613281 L 31.105469 17.558594 L 25.871094 17.558594 L 25.871094 8.5 L 20.640625 8.5 L 20.640625 2.464844 Z M 15.410156 17.558594 L 20.640625 17.558594 L 20.640625 23.59375 L 25.871094 23.59375 L 25.871094 29.632812 L 15.410156 29.632812 Z M 15.410156 17.558594 "/></g></svg>
