<svg width="64" height="64" viewBox="0 0 64 64" version="1.1" xmlns:inkscape="http://www.inkscape.org/namespaces/inkscape"><defs><linearGradient id="linear0" gradientUnits="userSpaceOnUse" x1="0" y1="0" x2="0" y2="1" gradientTransform="matrix(60.71928,0,0,60.474238,1.913682,2.188104)"><stop offset="0" style="stop-color:rgb(61.176473%,69.803923%,85.09804%);stop-opacity:1;"/><stop offset="1" style="stop-color:rgb(44.313726%,52.156866%,65.882355%);stop-opacity:1;"/></linearGradient><filter style="color-interpolation-filters:sRGB;" inkscape:label="Diffuse Light" id="filter184" x="-0.0375" y="-0.0375" width="1.075" height="1.075"><feGaussianBlur in="SourceGraphic" stdDeviation="1" result="blur" id="feGaussianBlur174" /><feDiffuseLighting diffuseConstant="1" surfaceScale="10" lighting-color="rgb(255,255,255)" result="diffuse" id="feDiffuseLighting178"><feDistantLight elevation="8" azimuth="235" id="feDistantLight176" /></feDiffuseLighting><feComposite in="diffuse" in2="diffuse" operator="arithmetic" k1="1" result="composite1" id="feComposite180" /><feComposite in="composite1" in2="SourceGraphic" k1="1" operator="arithmetic" k3="1" result="composite2" id="feComposite182" /></filter></defs><g id="surface1" style="filter:url(#filter184)"><path style=" stroke:none;fill-rule:evenodd;fill:url(#linear0);" d="M 45.859375 43.957031 L 44.90625 42.511719 C 41.664062 37.597656 37.058594 34.769531 32.273438 34.769531 C 27.488281 34.769531 22.878906 37.597656 19.640625 42.511719 L 18.6875 43.957031 L 11.378906 33.90625 L 12.273438 32.59375 C 17.527344 24.859375 24.628906 20.589844 32.273438 20.589844 C 39.914062 20.589844 47.019531 24.859375 52.269531 32.59375 L 53.164062 33.90625 Z M 32.273438 62.664062 L 21.15625 47.371094 L 21.980469 46.058594 C 24.601562 41.890625 28.347656 39.503906 32.273438 39.503906 C 36.195312 39.503906 39.945312 41.890625 42.5625 46.058594 L 43.382812 47.371094 Z M 55.652344 30.484375 L 54.695312 29.089844 C 48.78125 20.5 40.820312 15.757812 32.273438 15.757812 C 23.730469 15.757812 15.769531 20.492188 9.851562 29.089844 L 8.894531 30.484375 L 1.914062 20.878906 L 2.828125 19.554688 C 10.605469 8.355469 21.0625 2.1875 32.273438 2.1875 C 43.480469 2.1875 53.9375 8.355469 61.71875 19.554688 L 62.632812 20.878906 Z M 55.652344 30.484375 "/></g></svg>
