<?xml version="1.0" encoding="UTF-8" standalone="no"?><svg width="64" height="64" viewBox="0 0 64 64" version="1.1" id="svg345" sodipodi:docname="akira.svg" inkscape:version="1.2.2 (b0a8486541, 2022-12-01)" xmlns:inkscape="http://www.inkscape.org/namespaces/inkscape" xmlns:sodipodi="http://sodipodi.sourceforge.net/DTD/sodipodi-0.dtd" xmlns:xlink="http://www.w3.org/1999/xlink" xmlns="http://www.w3.org/2000/svg" xmlns:svg="http://www.w3.org/2000/svg"> <sodipodi:namedview id="namedview347" pagecolor="#ffffff" bordercolor="#000000" borderopacity="0.25" inkscape:showpageshadow="2" inkscape:pageopacity="0.0" inkscape:pagecheckerboard="0" inkscape:deskcolor="#d1d1d1" showgrid="false" inkscape:zoom="3.6875" inkscape:cx="32" inkscape:cy="32.135593" inkscape:window-width="1432" inkscape:window-height="844" inkscape:window-x="0" inkscape:window-y="0" inkscape:window-maximized="1" inkscape:current-layer="svg345" /> <defs id="defs336"> <filter id="alpha" filterUnits="objectBoundingBox" x="0" y="0" width="1" height="1"> <feColorMatrix type="matrix" in="SourceGraphic" values="0 0 0 0 1 0 0 0 0 1 0 0 0 0 1 0 0 0 1 0" id="feColorMatrix307" /> </filter> <mask id="mask0"> <g filter="url(#alpha)" id="g312"> <rect x="0" y="0" width="64" height="64" style="fill:rgb(0%,0%,0%);fill-opacity:0.6;stroke:none;" id="rect310" /> </g> </mask> <linearGradient id="linear0" gradientUnits="userSpaceOnUse" x1="0" y1="0" x2="0" y2="1" gradientTransform="matrix(57.097656,0,0,60.253906,5.75,0)"> <stop offset="0" style="stop-color:#ffbb00;stop-opacity:1;" id="stop315" /> <stop offset="1" style="stop-color:#b38300;stop-opacity:1;" id="stop317" /> </linearGradient> <clipPath id="clip1"> <rect x="0" y="0" width="64" height="64" id="rect320" /> </clipPath> <g id="surface5" clip-path="url(#clip1)"> <path style=" stroke:none;fill-rule:evenodd;fill:url(#linear0);" d="M 33.421875 2.589844 C 32.554688 1.882812 30.1875 0 30.1875 0 L 18.125 29.75 C 17.25 29.753906 16.6875 29.953125 16.6875 30.359375 C 16.6875 30.769531 15.167969 34.363281 15.167969 34.363281 L 16.761719 33.105469 L 5.75 60.253906 L 27.332031 38.726562 L 62.519531 59.996094 C 62.859375 60.21875 62.910156 60.128906 62.78125 59.835938 C 55.621094 42.03125 38.515625 0 38.515625 0 C 38.515625 0 36.730469 1.6875 36.015625 2.589844 Z M 33.421875 2.589844 " id="path323" /> </g> <linearGradient id="linear1" gradientUnits="userSpaceOnUse" x1="0" y1="0" x2="0" y2="1" gradientTransform="matrix(51.957031,0,0,31.855469,4,30.316406)"> <stop offset="0" style="stop-color:#ffbb00;stop-opacity:1;" id="stop326" /> <stop offset="1" style="stop-color:#b38300;stop-opacity:1;" id="stop328" /> </linearGradient> <linearGradient id="linear2" gradientUnits="userSpaceOnUse" x1="0" y1="0" x2="0" y2="1" gradientTransform="matrix(8.328125,0,0,5.484375,30.1875,0)"> <stop offset="0" style="stop-color:#ffbb00;stop-opacity:1;" id="stop331" /> <stop offset="1" style="stop-color:#b38300;stop-opacity:1;" id="stop333" /> </linearGradient> <filter style="color-interpolation-filters:sRGB;" inkscape:label="Diffuse Light" id="filter2034" x="-0.040784219" y="-0.038603114" width="1.0815684" height="1.0772062"> <feGaussianBlur in="SourceGraphic" stdDeviation="1" result="blur" id="feGaussianBlur2024" /> <feDiffuseLighting diffuseConstant="1" surfaceScale="10" lighting-color="rgb(255,255,255)" result="diffuse" id="feDiffuseLighting2028"> <feDistantLight elevation="8" azimuth="235" id="feDistantLight2026" /> </feDiffuseLighting> <feComposite in="diffuse" in2="diffuse" operator="arithmetic" k1="1" result="composite1" id="feComposite2030" /> <feComposite in="composite1" in2="SourceGraphic" k1="1" operator="arithmetic" k3="1" result="composite2" id="feComposite2032" /> </filter> </defs> <g id="surface1" transform="translate(-0.5147643,0.62607587)" style="filter:url(#filter2034)"> <use xlink:href="#surface5" mask="url(#mask0)" id="use338" /> <path style="fill:url(#linear1);fill-rule:evenodd;stroke:none" d="m 18.289062,31.109375 h 37.488282 c 0.246094,0 0.234375,0.07813 -0.0039,0.226563 L 4.304688,62.074219 C 3.996094,62.257812 3.921875,62.179688 4.082031,61.847656 l 12.625,-31.53125 c 0,0 -0.117187,0.71875 1.582031,0.792969 z m 0,0" id="path340" /> <path style="fill:url(#linear2);fill-rule:evenodd;stroke:none" d="M 38.515625,0 H 30.1875 l 4.113281,5.484375 z m 0,0" id="path342" /> </g></svg>
