<svg width="64" height="64" viewBox="0 0 64 64" version="1.1" xmlns:inkscape="http://www.inkscape.org/namespaces/inkscape"><defs><linearGradient id="linear0" gradientUnits="userSpaceOnUse" x1="0" y1="0" x2="0" y2="1" gradientTransform="matrix(70.114305,0,0,71.510402,-2.596986,-1.052806)"><stop offset="0" style="stop-color:rgb(61.176473%,69.803923%,85.09804%);stop-opacity:1;"/><stop offset="1" style="stop-color:rgb(44.313726%,52.156866%,65.882355%);stop-opacity:1;"/></linearGradient><linearGradient id="linear1" gradientUnits="userSpaceOnUse" x1="0" y1="0" x2="0" y2="1" gradientTransform="matrix(70.114305,0,0,71.510402,-2.596986,-1.052806)"><stop offset="0" style="stop-color:rgb(61.176473%,69.803923%,85.09804%);stop-opacity:1;"/><stop offset="1" style="stop-color:rgb(44.313726%,52.156866%,65.882355%);stop-opacity:1;"/></linearGradient><filter style="color-interpolation-filters:sRGB;" inkscape:label="Diffuse Light" id="filter184" x="-0.0375" y="-0.0375" width="1.075" height="1.075"><feGaussianBlur in="SourceGraphic" stdDeviation="1" result="blur" id="feGaussianBlur174" /><feDiffuseLighting diffuseConstant="1" surfaceScale="10" lighting-color="rgb(255,255,255)" result="diffuse" id="feDiffuseLighting178"><feDistantLight elevation="8" azimuth="235" id="feDistantLight176" /></feDiffuseLighting><feComposite in="diffuse" in2="diffuse" operator="arithmetic" k1="1" result="composite1" id="feComposite180" /><feComposite in="composite1" in2="SourceGraphic" k1="1" operator="arithmetic" k3="1" result="composite2" id="feComposite182" /></filter></defs><g id="surface1" style="filter:url(#filter184)"><path style=" stroke:none;fill-rule:nonzero;fill:url(#linear0);" d="M 8.082031 1.117188 L 8.082031 41.421875 L 56.921875 41.421875 L 56.921875 1.117188 Z M 30.976562 10.421875 L 34.03125 10.421875 L 34.03125 25.917969 L 40.898438 18.941406 L 43.191406 21.269531 L 32.503906 32.125 L 21.820312 21.269531 L 24.109375 18.941406 L 30.976562 25.917969 Z M 30.976562 10.421875 "/><path style=" stroke:none;fill-rule:nonzero;fill:url(#linear1);" d="M 1.980469 41.15625 L 1.980469 62.855469 L 63.03125 62.855469 L 63.03125 41.15625 Z M 11.132812 47.351562 C 13.125 47.351562 14.796875 48.660156 15.429688 50.460938 L 28.214844 50.460938 C 28.84375 48.660156 30.507812 47.351562 32.503906 47.351562 C 34.5 47.351562 36.175781 48.65625 36.804688 50.460938 L 49.585938 50.460938 C 50.210938 48.660156 51.878906 47.351562 53.871094 47.351562 C 56.410156 47.351562 58.453125 49.433594 58.453125 52 C 58.453125 54.582031 56.410156 56.65625 53.871094 56.65625 C 51.878906 56.65625 50.210938 55.351562 49.585938 53.558594 L 36.8125 53.558594 C 36.175781 55.363281 34.5 56.65625 32.503906 56.65625 C 30.507812 56.65625 28.84375 55.351562 28.214844 53.558594 L 15.429688 53.558594 C 14.796875 55.351562 13.125 56.65625 11.132812 56.65625 C 8.597656 56.65625 6.554688 54.582031 6.554688 52 C 6.554688 49.433594 8.597656 47.355469 11.132812 47.355469 Z M 11.132812 47.351562 "/></g></svg>
