<svg width="64" height="64" viewBox="0 0 64 64" version="1.1" xmlns:inkscape="http://www.inkscape.org/namespaces/inkscape"><defs><linearGradient id="linear0" gradientUnits="userSpaceOnUse" x1="0" y1="0" x2="0" y2="1" gradientTransform="matrix(61.52781,0,0,46.801385,1.607388,9.664749)"><stop offset="0" style="stop-color:rgb(92.941177%,83.529413%,72.549021%);stop-opacity:1;"/><stop offset="1" style="stop-color:rgb(81.960785%,71.372551%,59.215689%);stop-opacity:1;"/></linearGradient><filter style="color-interpolation-filters:sRGB;" inkscape:label="Diffuse Light" id="filter184" x="-0.0375" y="-0.0375" width="1.075" height="1.075"><feGaussianBlur in="SourceGraphic" stdDeviation="1" result="blur" id="feGaussianBlur174" /><feDiffuseLighting diffuseConstant="1" surfaceScale="10" lighting-color="rgb(255,255,255)" result="diffuse" id="feDiffuseLighting178"><feDistantLight elevation="8" azimuth="235" id="feDistantLight176" /></feDiffuseLighting><feComposite in="diffuse" in2="diffuse" operator="arithmetic" k1="1" result="composite1" id="feComposite180" /><feComposite in="composite1" in2="SourceGraphic" k1="1" operator="arithmetic" k3="1" result="composite2" id="feComposite182" /></filter></defs><g id="surface1" style="filter:url(#filter184)"><path style=" stroke:none;fill-rule:nonzero;fill:url(#linear0);" d="M 25.921875 9.675781 C 17.585938 9.664062 11.496094 17.5625 7.601562 26.761719 C 2.53125 38.753906 -2.820312 56.464844 7.503906 56.464844 C 18.378906 56.464844 27.414062 49.007812 33.800781 43.375 C 36.113281 48.597656 39.492188 56.464844 44.203125 56.464844 C 48.910156 56.464844 53.207031 54.175781 55.308594 52.132812 L 63.136719 38.664062 L 62.285156 37.453125 C 52.378906 43.523438 49.003906 47.695312 43.429688 34.597656 L 50.460938 26.609375 L 60.777344 10.828125 L 60.019531 9.664062 L 41.457031 29.753906 C 38.449219 22.0625 32.273438 9.6875 25.910156 9.675781 M 18.964844 19.613281 C 24.859375 19.613281 28.324219 30.355469 31.796875 38.3125 C 26.675781 41.910156 19.984375 46.347656 15.089844 45.109375 C 9.277344 43.636719 7.796875 36.125 10.140625 30.480469 C 12.210938 25.191406 14.757812 19.617188 18.953125 19.617188 "/></g></svg>
