<svg width="64" height="64" viewBox="0 0 64 64" version="1.1" xmlns:inkscape="http://www.inkscape.org/namespaces/inkscape"><defs><linearGradient id="linear0" gradientUnits="userSpaceOnUse" x1="0" y1="0" x2="0" y2="1" gradientTransform="matrix(54.929688,0,0,64,4.539062,0)"><stop offset="0" style="stop-color:rgb(87.058824%,86.666667%,56.470591%);stop-opacity:1;"/><stop offset="1" style="stop-color:rgb(67.843139%,67.450982%,38.039216%);stop-opacity:1;"/></linearGradient><filter style="color-interpolation-filters:sRGB;" inkscape:label="Diffuse Light" id="filter184" x="-0.0375" y="-0.0375" width="1.075" height="1.075"><feGaussianBlur in="SourceGraphic" stdDeviation="1" result="blur" id="feGaussianBlur174" /><feDiffuseLighting diffuseConstant="1" surfaceScale="10" lighting-color="rgb(255,255,255)" result="diffuse" id="feDiffuseLighting178"><feDistantLight elevation="8" azimuth="235" id="feDistantLight176" /></feDiffuseLighting><feComposite in="diffuse" in2="diffuse" operator="arithmetic" k1="1" result="composite1" id="feComposite180" /><feComposite in="composite1" in2="SourceGraphic" k1="1" operator="arithmetic" k3="1" result="composite2" id="feComposite182" /></filter></defs><g id="surface1" style="filter:url(#filter184)"><path style=" stroke:none;fill-rule:nonzero;fill:url(#linear0);" d="M 20.515625 0 C 18.222656 0 18.21875 2.296875 18.21875 2.296875 C 18.21875 2.296875 18.222656 4.585938 20.515625 4.585938 L 22.8125 4.585938 L 22.890625 17.789062 C 22.890625 18.667969 22.636719 19.527344 22.164062 20.265625 C 21.558594 21.21875 21.089844 21.949219 20.257812 23.375 C 19.03125 25.484375 17.507812 28.179688 15.851562 31.140625 C 12.460938 37.226562 9.101562 43.324219 5.765625 49.4375 C 3.996094 52.6875 4.007812 57.125 6.695312 60.476562 L 6.796875 60.601562 C 8.734375 63.183594 11.9375 64 15.140625 64 L 48.859375 64 C 52.070312 64 55.28125 63.191406 57.21875 60.601562 L 57.320312 60.476562 C 60 57.132812 60.011719 52.6875 58.234375 49.4375 L 58.132812 49.257812 C 52.980469 38.761719 46.988281 30.316406 41.804688 19.9375 C 41.484375 19.296875 41.320312 18.589844 41.320312 17.875 L 41.164062 4.585938 L 43.460938 4.585938 C 45.753906 4.585938 45.757812 2.296875 45.757812 2.296875 C 45.757812 2.296875 45.753906 0 43.460938 0 Z M 27.484375 4.804688 L 36.726562 4.804688 L 36.726562 19.0625 C 36.726562 19.761719 36.886719 20.449219 37.195312 21.078125 C 42.707031 32.351562 49.007812 41.011719 54.109375 51.445312 C 54.136719 51.507812 54.164062 51.566406 54.195312 51.625 C 55.296875 53.644531 55.367188 55.6875 53.742188 57.664062 L 53.578125 57.867188 C 52.917969 58.78125 51.335938 59.414062 48.851562 59.414062 L 15.140625 59.414062 C 12.664062 59.414062 11.078125 58.78125 10.414062 57.867188 C 10.367188 57.796875 10.316406 57.730469 10.265625 57.664062 C 8.640625 55.6875 8.695312 53.648438 9.796875 51.632812 C 13.125 45.535156 16.476562 39.453125 19.859375 33.382812 C 21.507812 30.441406 23.015625 27.753906 24.226562 25.671875 C 25.433594 23.589844 26.476562 21.933594 26.601562 21.765625 C 27.175781 20.980469 27.484375 20.035156 27.484375 19.0625 Z M 23.8125 36.71875 L 13.632812 55.0625 L 50.34375 55.0625 L 40.164062 36.71875 Z M 23.8125 36.71875 "/></g></svg>
