<svg width="64" height="64" viewBox="0 0 64 64" version="1.1" xmlns:inkscape="http://www.inkscape.org/namespaces/inkscape"><defs><linearGradient id="linear0" gradientUnits="userSpaceOnUse" x1="0" y1="0" x2="0" y2="1" gradientTransform="matrix(60.496011,0,0,60.665514,2.0313,2.000157)"><stop offset="0" style="stop-color:rgb(100%,73.333335%,0%);stop-opacity:1;"/><stop offset="1" style="stop-color:rgb(70.19608%,51.372552%,0%);stop-opacity:1;"/></linearGradient><filter style="color-interpolation-filters:sRGB;" inkscape:label="Diffuse Light" id="filter184" x="-0.0375" y="-0.0375" width="1.075" height="1.075"><feGaussianBlur in="SourceGraphic" stdDeviation="1" result="blur" id="feGaussianBlur174" /><feDiffuseLighting diffuseConstant="1" surfaceScale="10" lighting-color="rgb(255,255,255)" result="diffuse" id="feDiffuseLighting178"><feDistantLight elevation="8" azimuth="235" id="feDistantLight176" /></feDiffuseLighting><feComposite in="diffuse" in2="diffuse" operator="arithmetic" k1="1" result="composite1" id="feComposite180" /><feComposite in="composite1" in2="SourceGraphic" k1="1" operator="arithmetic" k3="1" result="composite2" id="feComposite182" /></filter></defs><g id="surface1" style="filter:url(#filter184)"><path style=" stroke:none;fill-rule:evenodd;fill:url(#linear0);" d="M 2.03125 2 L 2.03125 13.03125 C 29.363281 13.03125 51.527344 35.257812 51.527344 62.664062 L 62.527344 62.664062 C 62.527344 29.175781 35.425781 2 2.03125 2 Z M 2.03125 24.070312 L 2.03125 35.101562 C 17.191406 35.101562 29.519531 47.460938 29.519531 62.664062 L 40.519531 62.664062 C 40.519531 41.339844 23.300781 24.070312 2.03125 24.070312 Z M 2.03125 54.167969 C 2.03125 49.476562 5.828125 45.667969 10.503906 45.667969 C 15.183594 45.667969 18.984375 49.476562 18.984375 54.167969 C 18.984375 58.855469 15.183594 62.664062 10.503906 62.664062 C 5.828125 62.664062 2.03125 58.855469 2.03125 54.167969 Z M 2.03125 54.167969 "/></g></svg>
