<svg width="64" height="64" viewBox="0 0 64 64" version="1.1" xmlns:inkscape="http://www.inkscape.org/namespaces/inkscape"><defs><linearGradient id="linear0" gradientUnits="userSpaceOnUse" x1="0" y1="0" x2="0" y2="1" gradientTransform="matrix(69.614864,0,0,46.402792,-4.638765,9.767675)"><stop offset="0" style="stop-color:rgb(100%,63.137257%,63.137257%);stop-opacity:1;"/><stop offset="1" style="stop-color:rgb(100%,27.843139%,27.843139%);stop-opacity:1;"/></linearGradient><filter style="color-interpolation-filters:sRGB;" inkscape:label="Diffuse Light" id="filter184" x="-0.0375" y="-0.0375" width="1.075" height="1.075"><feGaussianBlur in="SourceGraphic" stdDeviation="1" result="blur" id="feGaussianBlur174" /><feDiffuseLighting diffuseConstant="1" surfaceScale="10" lighting-color="rgb(255,255,255)" result="diffuse" id="feDiffuseLighting178"><feDistantLight elevation="8" azimuth="235" id="feDistantLight176" /></feDiffuseLighting><feComposite in="diffuse" in2="diffuse" operator="arithmetic" k1="1" result="composite1" id="feComposite180" /><feComposite in="composite1" in2="SourceGraphic" k1="1" operator="arithmetic" k3="1" result="composite2" id="feComposite182" /></filter></defs><g id="surface1" style="filter:url(#filter184)"><path style=" stroke:none;fill-rule:nonzero;fill:url(#linear0);" d="M 32.089844 1.988281 C 25.578125 1.988281 20.292969 7.917969 20.292969 15.226562 C 20.292969 19.859375 19.851562 24.757812 17.933594 28.464844 C 16.007812 32.171875 12.621094 34.660156 7.28125 38.183594 C 1.6875 41.917969 -0.269531 49.941406 2.984375 56.265625 C 6.242188 62.597656 13.371094 64.53125 19.113281 61.089844 C 23.238281 58.621094 27.652344 57.5625 32.066406 57.5625 C 36.480469 57.585938 40.917969 58.691406 45.027344 61.089844 C 50.8125 64.453125 57.894531 62.59375 61.148438 56.265625 C 64.40625 49.941406 62.460938 41.917969 56.855469 38.183594 C 51.542969 34.636719 48.144531 32.144531 46.207031 28.464844 C 44.273438 24.785156 43.847656 19.859375 43.847656 15.226562 C 43.847656 7.917969 38.558594 1.988281 32.046875 1.988281 Z M 32.089844 1.988281 "/></g></svg>
