<svg width="64" height="64" viewBox="0 0 64 64" version="1.1" xmlns:inkscape="http://www.inkscape.org/namespaces/inkscape"><defs><linearGradient id="linear0" gradientUnits="userSpaceOnUse" x1="0" y1="0" x2="0" y2="1" gradientTransform="matrix(76.1001,0,0,72.03497,-5.348984,-4.318298)"><stop offset="0" style="stop-color:rgb(41.960785%,64.313728%,100%);stop-opacity:1;"/><stop offset="1" style="stop-color:rgb(0%,43.137255%,100%);stop-opacity:1;"/></linearGradient><filter style="color-interpolation-filters:sRGB;" inkscape:label="Diffuse Light" id="filter184" x="-0.0375" y="-0.0375" width="1.075" height="1.075"><feGaussianBlur in="SourceGraphic" stdDeviation="1" result="blur" id="feGaussianBlur174" /><feDiffuseLighting diffuseConstant="1" surfaceScale="10" lighting-color="rgb(255,255,255)" result="diffuse" id="feDiffuseLighting178"><feDistantLight elevation="8" azimuth="235" id="feDistantLight176" /></feDiffuseLighting><feComposite in="diffuse" in2="diffuse" operator="arithmetic" k1="1" result="composite1" id="feComposite180" /><feComposite in="composite1" in2="SourceGraphic" k1="1" operator="arithmetic" k3="1" result="composite2" id="feComposite182" /></filter></defs><g id="surface1" style="filter:url(#filter184)"><path style=" stroke:none;fill-rule:nonzero;fill:url(#linear0);" d="M 20.785156 1.839844 C 20.074219 1.839844 19.503906 2.429688 19.503906 3.167969 C 19.503906 3.902344 20.074219 4.496094 20.785156 4.496094 L 29.71875 4.496094 L 22.058594 17.777344 L 19.503906 17.777344 L 16.953125 26.632812 L 1.636719 28.402344 L 1.636719 41.6875 L 6.738281 44.34375 L 24.609375 39.03125 L 26.96875 50.066406 L 11.84375 52.3125 L 11.84375 60.28125 L 14.398438 62.9375 L 27.164062 62.9375 L 29.257812 60.761719 L 29.71875 62.9375 L 34.824219 62.9375 L 35.285156 60.761719 L 37.378906 62.9375 L 50.140625 62.9375 L 52.691406 60.28125 L 52.691406 52.3125 L 37.570312 50.066406 L 39.929688 39.03125 L 57.796875 44.34375 L 62.90625 41.6875 L 62.90625 28.402344 L 47.585938 26.632812 L 47.585938 23.089844 L 45.03125 23.089844 L 45.03125 17.777344 L 42.484375 17.777344 L 39.929688 20.433594 L 37.378906 7.152344 L 34.824219 7.152344 L 34.824219 4.496094 L 43.757812 4.496094 C 44.464844 4.496094 45.03125 3.902344 45.03125 3.167969 C 45.03125 2.429688 44.464844 1.839844 43.757812 1.839844 Z M 20.785156 1.839844 "/></g></svg>
