<?xml version="1.0" encoding="UTF-8" standalone="no"?><svg width="64" height="64" viewBox="0 0 64 64" version="1.1" id="svg99" sodipodi:docname="alva.svg" inkscape:version="1.2.2 (b0a8486541, 2022-12-01)" xmlns:inkscape="http://www.inkscape.org/namespaces/inkscape" xmlns:sodipodi="http://sodipodi.sourceforge.net/DTD/sodipodi-0.dtd" xmlns:xlink="http://www.w3.org/1999/xlink" xmlns="http://www.w3.org/2000/svg" xmlns:svg="http://www.w3.org/2000/svg"> <sodipodi:namedview id="namedview101" pagecolor="#ffffff" bordercolor="#000000" borderopacity="0.25" inkscape:showpageshadow="2" inkscape:pageopacity="0.0" inkscape:pagecheckerboard="0" inkscape:deskcolor="#d1d1d1" showgrid="false" inkscape:zoom="3.6875" inkscape:cx="32" inkscape:cy="32.135593" inkscape:window-width="1432" inkscape:window-height="844" inkscape:window-x="0" inkscape:window-y="0" inkscape:window-maximized="1" inkscape:current-layer="svg99" /> <defs id="defs90"> <filter id="alpha" filterUnits="objectBoundingBox" x="0" y="0" width="1" height="1"> <feColorMatrix type="matrix" in="SourceGraphic" values="0 0 0 0 1 0 0 0 0 1 0 0 0 0 1 0 0 0 1 0" id="feColorMatrix50" /> </filter> <mask id="mask0"> <g filter="url(#alpha)" id="g55"> <rect x="0" y="0" width="64" height="64" style="fill:rgb(0%,0%,0%);fill-opacity:0.6;stroke:none;" id="rect53" /> </g> </mask> <linearGradient id="linear0" gradientUnits="userSpaceOnUse" x1="0" y1="0" x2="0" y2="1" gradientTransform="matrix(26.539062,0,0,37.464844,27.609375,26.535156)"> <stop offset="0" style="stop-color:#c1c6d6;stop-opacity:1;" id="stop58" /> <stop offset="1" style="stop-color:#6f7380;stop-opacity:1;" id="stop60" /> </linearGradient> <clipPath id="clip1"> <rect x="0" y="0" width="64" height="64" id="rect63" /> </clipPath> <g id="surface5" clip-path="url(#clip1)"> <path style=" stroke:none;fill-rule:evenodd;fill:url(#linear0);" d="M 53.039062 26.535156 C 53.933594 26.535156 54.460938 27.585938 53.941406 28.335938 L 29.617188 63.519531 C 28.980469 64.421875 27.609375 63.972656 27.609375 62.859375 L 27.609375 27.671875 C 27.609375 27.050781 28.109375 26.535156 28.714844 26.535156 Z M 53.039062 26.535156 " id="path66" /> </g> <linearGradient id="linear1" gradientUnits="userSpaceOnUse" x1="0" y1="0" x2="0" y2="1" gradientTransform="matrix(26.539062,0,0,37.464844,12,0)"> <stop offset="0" style="stop-color:#c1c6d6;stop-opacity:1;" id="stop69" /> <stop offset="1" style="stop-color:#6f7380;stop-opacity:1;" id="stop71" /> </linearGradient> <mask id="mask1"> <g filter="url(#alpha)" id="g76"> <rect x="0" y="0" width="64" height="64" style="fill:rgb(0%,0%,0%);fill-opacity:0.8;stroke:none;" id="rect74" /> </g> </mask> <linearGradient id="linear2" gradientUnits="userSpaceOnUse" x1="0" y1="0" x2="0" y2="1" gradientTransform="matrix(10.929688,0,0,10.929688,27.609375,26.535156)"> <stop offset="0" style="stop-color:#c1c6d6;stop-opacity:1;" id="stop79" /> <stop offset="1" style="stop-color:#6f7380;stop-opacity:1;" id="stop81" /> </linearGradient> <clipPath id="clip2"> <rect x="0" y="0" width="64" height="64" id="rect84" /> </clipPath> <g id="surface8" clip-path="url(#clip2)"> <path style=" stroke:none;fill-rule:evenodd;fill:url(#linear2);" d="M 33.855469 26.535156 L 33.855469 32.78125 L 27.609375 32.78125 L 27.609375 37.464844 L 37.429688 37.464844 C 38.035156 37.464844 38.539062 36.945312 38.539062 36.328125 L 38.539062 26.535156 Z M 33.855469 26.535156 " id="path87" /> </g> <filter style="color-interpolation-filters:sRGB;" inkscape:label="Diffuse Light" id="filter1984" x="-0.056942775" y="-0.037499485" width="1.1138855" height="1.0749852"> <feGaussianBlur in="SourceGraphic" stdDeviation="1" result="blur" id="feGaussianBlur1974" /> <feDiffuseLighting diffuseConstant="1" surfaceScale="10" lighting-color="rgb(255,255,255)" result="diffuse" id="feDiffuseLighting1978"> <feDistantLight elevation="8" azimuth="235" id="feDistantLight1976" /> </feDiffuseLighting> <feComposite in="diffuse" in2="diffuse" operator="arithmetic" k1="1" result="composite1" id="feComposite1980" /> <feComposite in="composite1" in2="SourceGraphic" k1="1" operator="arithmetic" k3="1" result="composite2" id="feComposite1982" /> </filter> </defs> <g id="surface1" transform="matrix(1.2627726,0,0,1,-8.6474702,0)" style="filter:url(#filter1984)"> <use xlink:href="#surface5" mask="url(#mask0)" id="use92" /> <path style="fill:url(#linear1);fill-rule:nonzero;stroke:none" d="M 36.921875,0.128906 C 37.074219,0.046875 37.246094,0 37.421875,0 c 0.5625,0 1.117187,0.441406 1.117187,1.144531 V 26.691406 H 33.855469 V 12.605469 L 19.902344,32.78125 H 27.6875 v 4.683594 H 13.101562 c -0.890624,0 -1.421874,-1.050782 -0.890624,-1.800782 L 36.542969,0.480469 c 0.09375,-0.144531 0.226562,-0.265625 0.378906,-0.351563 z m 0,0" id="path94" /> <use xlink:href="#surface8" mask="url(#mask1)" id="use96" /> </g></svg>
