<svg width="64" height="64" viewBox="0 0 64 64" version="1.1" xmlns:inkscape="http://www.inkscape.org/namespaces/inkscape"><defs><linearGradient id="linear0" gradientUnits="userSpaceOnUse" x1="0" y1="0" x2="0" y2="1" gradientTransform="matrix(58.066406,0,0,60,3.199219,2)"><stop offset="0" style="stop-color:rgb(82.352942%,61.176473%,100%);stop-opacity:1;"/><stop offset="1" style="stop-color:rgb(66.666669%,0%,100%);stop-opacity:1;"/></linearGradient><filter style="color-interpolation-filters:sRGB;" inkscape:label="Diffuse Light" id="filter184" x="-0.0375" y="-0.0375" width="1.075" height="1.075"><feGaussianBlur in="SourceGraphic" stdDeviation="1" result="blur" id="feGaussianBlur174" /><feDiffuseLighting diffuseConstant="1" surfaceScale="10" lighting-color="rgb(255,255,255)" result="diffuse" id="feDiffuseLighting178"><feDistantLight elevation="8" azimuth="235" id="feDistantLight176" /></feDiffuseLighting><feComposite in="diffuse" in2="diffuse" operator="arithmetic" k1="1" result="composite1" id="feComposite180" /><feComposite in="composite1" in2="SourceGraphic" k1="1" operator="arithmetic" k3="1" result="composite2" id="feComposite182" /></filter></defs><g id="surface1" style="filter:url(#filter184)"><path style=" stroke:none;fill-rule:nonzero;fill:url(#linear0);" d="M 53.46875 2 C 51.996094 2 49.136719 5.496094 48.0625 6.046875 C 46.988281 6.601562 38.5 12.851562 37.695312 13.957031 C 36.890625 15.058594 35.816406 15.519531 34.65625 15.429688 C 33.492188 15.335938 29.824219 15.296875 28.570312 16.035156 C 27.320312 16.769531 21.605469 22.789062 20.175781 23.523438 C 18.746094 24.257812 16.882812 24.636719 15.988281 24.726562 C 15.09375 24.820312 12.132812 28.210938 11.328125 28.855469 C 10.523438 29.5 4.167969 32.332031 3.273438 32.882812 C 2.378906 33.433594 9.792969 41.164062 10.867188 41.347656 C 11.941406 41.53125 8.085938 43.96875 8.0625 45.71875 C 8.042969 47.460938 9.910156 52.660156 20.738281 58.773438 C 30.101562 64.058594 39.992188 61.511719 43.722656 60.433594 C 45.203125 60.007812 44.660156 55.101562 44.933594 52.496094 C 45.113281 50.839844 45.738281 36.949219 48.0625 33.273438 C 50.386719 29.59375 57.027344 25.175781 59.351562 24.71875 C 61.675781 24.257812 61.230469 23.335938 61.230469 22.507812 C 61.230469 21.683594 60.871094 19.84375 60.246094 19.566406 C 59.621094 19.289062 57.179688 20.949219 56.375 21.132812 C 55.570312 21.316406 51.726562 21.59375 51.191406 20.671875 C 50.65625 19.753906 55.527344 10.371094 56.152344 9.265625 C 56.777344 8.164062 57.046875 6.691406 55.882812 5.128906 C 54.722656 3.566406 53.917969 2 53.46875 2 Z M 33.101562 21.355469 C 33.707031 21.34375 34.121094 21.40625 34.121094 21.40625 C 34.457031 22.171875 32.878906 24.570312 31.40625 24.898438 C 29.9375 25.226562 26.542969 30.027344 26.429688 28.9375 C 26.316406 27.84375 27.789062 24.246094 29.484375 22.609375 C 30.546875 21.585938 32.089844 21.371094 33.101562 21.355469 Z M 33.101562 21.355469 "/></g></svg>
