<svg width="64" height="64" viewBox="0 0 64 64" version="1.1" xmlns:inkscape="http://www.inkscape.org/namespaces/inkscape"><defs><linearGradient id="linear0" gradientUnits="userSpaceOnUse" x1="0" y1="0" x2="0" y2="1" gradientTransform="matrix(63.984375,0,0,59.71875,0,2.140625)"><stop offset="0" style="stop-color:rgb(0%,73.333335%,100%);stop-opacity:1;"/><stop offset="1" style="stop-color:rgb(0%,52.156866%,70.980394%);stop-opacity:1;"/></linearGradient><filter style="color-interpolation-filters:sRGB;" inkscape:label="Diffuse Light" id="filter184" x="-0.0375" y="-0.0375" width="1.075" height="1.075"><feGaussianBlur in="SourceGraphic" stdDeviation="1" result="blur" id="feGaussianBlur174" /><feDiffuseLighting diffuseConstant="1" surfaceScale="10" lighting-color="rgb(255,255,255)" result="diffuse" id="feDiffuseLighting178"><feDistantLight elevation="8" azimuth="235" id="feDistantLight176" /></feDiffuseLighting><feComposite in="diffuse" in2="diffuse" operator="arithmetic" k1="1" result="composite1" id="feComposite180" /><feComposite in="composite1" in2="SourceGraphic" k1="1" operator="arithmetic" k3="1" result="composite2" id="feComposite182" /></filter></defs><g id="surface1" style="filter:url(#filter184)"><path style=" stroke:none;fill-rule:evenodd;fill:url(#linear0);" d="M 37.097656 13.53125 C 32.535156 13.484375 27.820312 14.660156 23.476562 17.195312 C 15.679688 21.730469 11.058594 29.480469 10.429688 37.394531 C 10.507812 38.289062 10.640625 39.179688 10.828125 40.0625 C 10.890625 40.359375 11.042969 40.625 11.265625 40.824219 C 18.730469 47.640625 30.601562 48.9375 40.539062 43.148438 C 48.332031 38.609375 52.957031 30.859375 53.585938 22.949219 C 53.503906 22.050781 53.371094 21.160156 53.1875 20.277344 C 53.125 19.984375 52.972656 19.71875 52.746094 19.515625 C 48.546875 15.679688 42.953125 13.597656 37.097656 13.53125 Z M 41.847656 2.140625 C 61.214844 2.140625 63.984375 4.902344 63.984375 24.253906 L 63.984375 39.746094 C 63.984375 59.101562 61.214844 61.859375 41.847656 61.859375 L 22.136719 61.859375 C 2.769531 61.859375 0 59.101562 0 39.746094 L 0 24.253906 C 0 4.902344 2.769531 2.140625 22.136719 2.140625 Z M 20.613281 38.683594 C 16.984375 32.394531 19.140625 24.34375 25.429688 20.710938 C 31.714844 17.078125 39.769531 19.238281 43.398438 25.527344 C 47.03125 31.816406 44.871094 39.867188 38.585938 43.5 C 32.296875 47.128906 24.242188 44.972656 20.613281 38.683594 Z M 20.613281 38.683594 "/></g></svg>
