<svg width="64" height="64" viewBox="0 0 64 64" version="1.1" xmlns:inkscape="http://www.inkscape.org/namespaces/inkscape"><defs><linearGradient id="linear0" gradientUnits="userSpaceOnUse" x1="0" y1="0" x2="0" y2="1" gradientTransform="matrix(67.98964,0,0,41.825778,-1.050439,10.324583)"><stop offset="0" style="stop-color:rgb(87.058824%,86.666667%,56.470591%);stop-opacity:1;"/><stop offset="1" style="stop-color:rgb(67.843139%,67.450982%,38.039216%);stop-opacity:1;"/></linearGradient><filter style="color-interpolation-filters:sRGB;" inkscape:label="Diffuse Light" id="filter184" x="-0.0375" y="-0.0375" width="1.075" height="1.075"><feGaussianBlur in="SourceGraphic" stdDeviation="1" result="blur" id="feGaussianBlur174" /><feDiffuseLighting diffuseConstant="1" surfaceScale="10" lighting-color="rgb(255,255,255)" result="diffuse" id="feDiffuseLighting178"><feDistantLight elevation="8" azimuth="235" id="feDistantLight176" /></feDiffuseLighting><feComposite in="diffuse" in2="diffuse" operator="arithmetic" k1="1" result="composite1" id="feComposite180" /><feComposite in="composite1" in2="SourceGraphic" k1="1" operator="arithmetic" k3="1" result="composite2" id="feComposite182" /></filter></defs><g id="surface1" style="filter:url(#filter184)"><path style=" stroke:none;fill-rule:nonzero;fill:url(#linear0);" d="M 32.882812 2.0625 C 24.238281 2.179688 15.8125 5.910156 10.003906 12.617188 L 9.964844 12.617188 L 24.378906 29.210938 L 34.605469 2.164062 C 34.027344 2.140625 33.445312 2.132812 32.875 2.136719 Z M 38.628906 3.339844 L 31.324219 24.082031 L 60.070312 19.28125 C 55.816406 11.171875 47.964844 5.191406 38.613281 3.441406 Z M 6.847656 15.441406 C 1.886719 23.167969 0.589844 32.890625 3.75 41.878906 L 25.414062 37.828125 Z M 3.75 41.878906 L 3.734375 41.878906 L 3.753906 41.882812 C 3.753906 41.882812 3.75 41.878906 3.75 41.878906 Z M 61.042969 23.351562 C 61.042969 23.355469 61.042969 23.355469 61.050781 23.359375 L 61.066406 23.355469 Z M 61.050781 23.359375 L 39.386719 27.40625 L 58.007812 49.773438 C 62.988281 42.046875 64.265625 32.324219 61.105469 23.335938 Z M 40.394531 35.949219 L 30.175781 62.992188 C 39.421875 63.386719 48.574219 59.617188 54.875 52.460938 L 54.902344 52.460938 Z M 33.496094 41.148438 L 4.746094 45.953125 C 9.019531 54.085938 16.890625 60.042969 26.207031 61.792969 Z M 33.496094 41.148438 "/></g></svg>
