<svg width="64" height="64" viewBox="0 0 64 64" version="1.1" xmlns:inkscape="http://www.inkscape.org/namespaces/inkscape"><defs><linearGradient id="linear0" gradientUnits="userSpaceOnUse" x1="0" y1="0" x2="0" y2="1" gradientTransform="matrix(106.3223,0,0,67.798791,-19.954098,-1.680627)"><stop offset="0" style="stop-color:rgb(87.058824%,86.666667%,56.470591%);stop-opacity:1;"/><stop offset="1" style="stop-color:rgb(67.843139%,67.450982%,38.039216%);stop-opacity:1;"/></linearGradient><filter style="color-interpolation-filters:sRGB;" inkscape:label="Diffuse Light" id="filter184" x="-0.0375" y="-0.0375" width="1.075" height="1.075"><feGaussianBlur in="SourceGraphic" stdDeviation="1" result="blur" id="feGaussianBlur174" /><feDiffuseLighting diffuseConstant="1" surfaceScale="10" lighting-color="rgb(255,255,255)" result="diffuse" id="feDiffuseLighting178"><feDistantLight elevation="8" azimuth="235" id="feDistantLight176" /></feDiffuseLighting><feComposite in="diffuse" in2="diffuse" operator="arithmetic" k1="1" result="composite1" id="feComposite180" /><feComposite in="composite1" in2="SourceGraphic" k1="1" operator="arithmetic" k3="1" result="composite2" id="feComposite182" /></filter></defs><g id="surface1" style="filter:url(#filter184)"><path style=" stroke:none;fill-rule:nonzero;fill:url(#linear0);" d="M 22.25 2.285156 C 11.03125 2.285156 1.996094 11.277344 1.996094 22.433594 L 1.996094 62.726562 L 42.507812 62.726562 C 53.71875 62.726562 62.753906 53.738281 62.753906 42.574219 L 62.753906 2.285156 Z M 22.25 2.285156 "/><path style=" stroke:none;fill-rule:nonzero;fill:rgb(67.843139%,67.450982%,38.039216%);fill-opacity:1;" d="M 22.078125 12.554688 C 16.480469 12.554688 11.953125 17.058594 11.953125 22.621094 L 22.078125 22.621094 Z M 27.140625 12.554688 L 27.140625 22.621094 L 37.265625 22.621094 L 37.265625 12.554688 Z M 42.328125 12.554688 L 42.328125 22.621094 L 52.453125 22.621094 L 52.453125 12.554688 Z M 11.953125 27.660156 L 11.953125 37.730469 L 22.078125 37.730469 L 22.078125 27.660156 Z M 27.140625 27.660156 L 27.140625 37.730469 L 37.265625 37.730469 L 37.265625 27.660156 Z M 42.328125 27.660156 L 42.328125 37.730469 L 52.453125 37.730469 L 52.453125 27.660156 Z M 11.953125 42.769531 L 11.953125 52.835938 L 22.078125 52.835938 L 22.078125 42.769531 Z M 27.140625 42.769531 L 27.140625 52.835938 L 37.265625 52.835938 L 37.265625 42.769531 Z M 42.328125 42.769531 L 42.328125 52.835938 C 47.921875 52.835938 52.453125 48.332031 52.453125 42.769531 Z M 42.328125 42.769531 "/></g></svg>
