<svg width="64" height="64" viewBox="0 0 64 64" version="1.1" xmlns:inkscape="http://www.inkscape.org/namespaces/inkscape"><defs><linearGradient id="linear0" gradientUnits="userSpaceOnUse" x1="0" y1="0" x2="0" y2="1" gradientTransform="matrix(60,0,0,64,2,0)"><stop offset="0" style="stop-color:rgb(75.686276%,77.64706%,83.92157%);stop-opacity:1;"/><stop offset="1" style="stop-color:rgb(43.529412%,45.09804%,50.196081%);stop-opacity:1;"/></linearGradient><filter style="color-interpolation-filters:sRGB;" inkscape:label="Diffuse Light" id="filter184" x="-0.0375" y="-0.0375" width="1.075" height="1.075"><feGaussianBlur in="SourceGraphic" stdDeviation="1" result="blur" id="feGaussianBlur174" /><feDiffuseLighting diffuseConstant="1" surfaceScale="10" lighting-color="rgb(255,255,255)" result="diffuse" id="feDiffuseLighting178"><feDistantLight elevation="8" azimuth="235" id="feDistantLight176" /></feDiffuseLighting><feComposite in="diffuse" in2="diffuse" operator="arithmetic" k1="1" result="composite1" id="feComposite180" /><feComposite in="composite1" in2="SourceGraphic" k1="1" operator="arithmetic" k3="1" result="composite2" id="feComposite182" /></filter></defs><g id="surface1" style="filter:url(#filter184)"><path style=" stroke:none;fill-rule:evenodd;fill:url(#linear0);" d="M 2 22.125 L 8.515625 22.027344 C 10.441406 28.957031 12.859375 35.492188 15.765625 41.617188 C 17.535156 36.460938 20.796875 29.769531 25.535156 21.527344 L 32.363281 22.027344 C 28.453125 27.714844 26.75 32.363281 24.800781 36.71875 C 20.128906 47.148438 18.390625 51.210938 28.371094 64 L 20.804688 63.898438 C 12.980469 52.117188 6.714844 38.199219 2 22.125 Z M 62 41.875 L 55.484375 41.972656 C 53.558594 35.042969 51.140625 28.507812 48.234375 22.382812 C 46.464844 27.535156 43.203125 34.230469 38.464844 42.472656 L 31.636719 41.972656 C 35.546875 36.285156 37.25 31.636719 39.199219 27.28125 C 43.871094 16.847656 45.609375 12.789062 35.628906 0 L 43.195312 0.09375 C 51.019531 11.882812 57.285156 25.800781 62 41.875 Z M 62 41.875 "/></g></svg>
