<svg width="64" height="64" viewBox="0 0 64 64" version="1.1" xmlns:inkscape="http://www.inkscape.org/namespaces/inkscape"><defs><linearGradient id="linear0" gradientUnits="userSpaceOnUse" x1="0" y1="0" x2="0" y2="1" gradientTransform="matrix(64,0,0,64,0,0)"><stop offset="0" style="stop-color:rgb(61.176473%,69.803923%,85.09804%);stop-opacity:1;"/><stop offset="1" style="stop-color:rgb(44.313726%,52.156866%,65.882355%);stop-opacity:1;"/></linearGradient><filter style="color-interpolation-filters:sRGB;" inkscape:label="Diffuse Light" id="filter184" x="-0.0375" y="-0.0375" width="1.075" height="1.075"><feGaussianBlur in="SourceGraphic" stdDeviation="1" result="blur" id="feGaussianBlur174" /><feDiffuseLighting diffuseConstant="1" surfaceScale="10" lighting-color="rgb(255,255,255)" result="diffuse" id="feDiffuseLighting178"><feDistantLight elevation="8" azimuth="235" id="feDistantLight176" /></feDiffuseLighting><feComposite in="diffuse" in2="diffuse" operator="arithmetic" k1="1" result="composite1" id="feComposite180" /><feComposite in="composite1" in2="SourceGraphic" k1="1" operator="arithmetic" k3="1" result="composite2" id="feComposite182" /></filter></defs><g id="surface1" style="filter:url(#filter184)"><path style=" stroke:none;fill-rule:nonzero;fill:url(#linear0);" d="M 32 0 C 14.347656 0 0 14.363281 0 32 L 7.113281 32 C 7.113281 18.277344 18.277344 7.113281 32 7.113281 C 38.863281 7.113281 45.054688 9.933594 49.554688 14.449219 L 39.113281 24.886719 L 64 24.886719 L 64 0 L 54.554688 9.445312 C 48.761719 3.636719 40.832031 0 32 0 Z M 56.886719 32 C 56.886719 45.722656 45.722656 56.886719 32 56.886719 C 25.402344 56.882812 19.078125 54.242188 14.445312 49.550781 L 24.886719 39.113281 L 0 39.113281 L 0 64 L 9.445312 54.554688 C 15.238281 60.363281 23.167969 64 32 64 C 49.652344 64 64 49.652344 64 32 Z M 56.886719 32 "/></g></svg>
