<svg width="64" height="64" viewBox="0 0 64 64" version="1.1" xmlns:inkscape="http://www.inkscape.org/namespaces/inkscape"><defs><linearGradient id="linear0" gradientUnits="userSpaceOnUse" x1="0" y1="0" x2="0" y2="1" gradientTransform="matrix(56,0,0,56,4,4)"><stop offset="0" style="stop-color:rgb(100%,56.862748%,82.745099%);stop-opacity:1;"/><stop offset="1" style="stop-color:rgb(100%,0%,60.000002%);stop-opacity:1;"/></linearGradient><filter style="color-interpolation-filters:sRGB;" inkscape:label="Diffuse Light" id="filter184" x="-0.0375" y="-0.0375" width="1.075" height="1.075"><feGaussianBlur in="SourceGraphic" stdDeviation="1" result="blur" id="feGaussianBlur174" /><feDiffuseLighting diffuseConstant="1" surfaceScale="10" lighting-color="rgb(255,255,255)" result="diffuse" id="feDiffuseLighting178"><feDistantLight elevation="8" azimuth="235" id="feDistantLight176" /></feDiffuseLighting><feComposite in="diffuse" in2="diffuse" operator="arithmetic" k1="1" result="composite1" id="feComposite180" /><feComposite in="composite1" in2="SourceGraphic" k1="1" operator="arithmetic" k3="1" result="composite2" id="feComposite182" /></filter></defs><g id="surface1" style="filter:url(#filter184)"><path style=" stroke:none;fill-rule:evenodd;fill:url(#linear0);" d="M 29.199219 20.800781 L 29.199219 40.835938 L 20.101562 31.828125 L 16.164062 35.765625 L 32 51.601562 L 47.835938 35.765625 L 43.898438 31.828125 L 34.800781 40.835938 L 34.800781 20.800781 Z M 29.199219 12.398438 L 34.800781 12.398438 L 34.800781 18 L 29.199219 18 Z M 29.199219 4 L 34.800781 4 L 34.800781 9.601562 L 29.199219 9.601562 Z M 4 37.601562 L 4 54.398438 C 4 57.460938 6.539062 60 9.601562 60 L 54.398438 60 C 57.460938 60 60 57.460938 60 54.398438 L 60 37.601562 L 54.398438 37.601562 L 54.398438 54.398438 L 9.601562 54.398438 L 9.601562 37.601562 Z M 4 37.601562 "/></g></svg>
