<svg width="64" height="64" viewBox="0 0 64 64" version="1.1" xmlns:inkscape="http://www.inkscape.org/namespaces/inkscape"><defs><linearGradient id="linear0" gradientUnits="userSpaceOnUse" x1="0" y1="0" x2="0" y2="1" gradientTransform="matrix(55.992188,0,0,58.359867,3.732719,16.140892)"><stop offset="0" style="stop-color:rgb(0%,73.333335%,100%);stop-opacity:1;"/><stop offset="1" style="stop-color:rgb(0%,52.156866%,70.980394%);stop-opacity:1;"/></linearGradient><filter style="color-interpolation-filters:sRGB;" inkscape:label="Diffuse Light" id="filter184" x="-0.0375" y="-0.0375" width="1.075" height="1.075"><feGaussianBlur in="SourceGraphic" stdDeviation="1" result="blur" id="feGaussianBlur174" /><feDiffuseLighting diffuseConstant="1" surfaceScale="10" lighting-color="rgb(255,255,255)" result="diffuse" id="feDiffuseLighting178"><feDistantLight elevation="8" azimuth="235" id="feDistantLight176" /></feDiffuseLighting><feComposite in="diffuse" in2="diffuse" operator="arithmetic" k1="1" result="composite1" id="feComposite180" /><feComposite in="composite1" in2="SourceGraphic" k1="1" operator="arithmetic" k3="1" result="composite2" id="feComposite182" /></filter></defs><g id="surface1" style="filter:url(#filter184)"><path style=" stroke:none;fill-rule:nonzero;fill:url(#linear0);" d="M 31.847656 1.859375 L 31.847656 6.089844 L 35.984375 6.089844 L 35.984375 1.859375 Z M 27.71875 6.105469 L 27.71875 10.355469 L 31.847656 10.355469 L 31.847656 6.105469 Z M 31.847656 10.355469 L 31.847656 14.605469 L 35.984375 14.605469 L 35.984375 10.355469 Z M 27.71875 14.621094 L 27.71875 18.855469 L 31.847656 18.855469 L 31.847656 14.621094 Z M 31.847656 18.871094 L 31.847656 23.105469 L 35.984375 23.105469 L 35.984375 18.871094 Z M 27.71875 23.121094 L 27.71875 27.371094 L 31.847656 27.371094 L 31.847656 23.121094 Z M 31.847656 27.371094 L 31.847656 31.621094 L 35.984375 31.621094 L 35.984375 27.371094 Z M 27.71875 31.636719 L 27.71875 35.886719 L 31.847656 35.886719 L 31.847656 31.636719 Z M 27.976562 36.554688 C 27.140625 36.554688 26.472656 37.269531 26.472656 38.136719 L 26.472656 45.089844 C 24.097656 46.835938 22.542969 49.695312 22.542969 52.9375 C 22.542969 58.238281 26.675781 62.527344 31.773438 62.527344 C 36.878906 62.527344 41.03125 58.238281 41.03125 52.9375 C 41.03125 49.707031 39.476562 46.835938 37.101562 45.089844 L 37.101562 38.136719 C 37.101562 37.269531 36.433594 36.554688 35.597656 36.554688 Z M 31.773438 47.664062 C 34.574219 47.664062 36.847656 50.035156 36.847656 52.9375 C 36.847656 55.84375 34.574219 58.199219 31.773438 58.199219 C 28.976562 58.199219 26.710938 55.84375 26.710938 52.9375 C 26.710938 50.035156 28.976562 47.664062 31.773438 47.664062 Z M 31.773438 47.664062 "/></g></svg>
