<svg width="64" height="64" viewBox="0 0 64 64" version="1.1" xmlns:inkscape="http://www.inkscape.org/namespaces/inkscape"><defs><linearGradient id="linear0" gradientUnits="userSpaceOnUse" x1="0" y1="0" x2="0" y2="1" gradientTransform="matrix(97.308295,0,0,62.326815,-18.951253,0.703832)"><stop offset="0" style="stop-color:rgb(92.941177%,83.529413%,72.549021%);stop-opacity:1;"/><stop offset="1" style="stop-color:rgb(81.960785%,71.372551%,59.215689%);stop-opacity:1;"/></linearGradient><filter style="color-interpolation-filters:sRGB;" inkscape:label="Diffuse Light" id="filter184" x="-0.0375" y="-0.0375" width="1.075" height="1.075"><feGaussianBlur in="SourceGraphic" stdDeviation="1" result="blur" id="feGaussianBlur174" /><feDiffuseLighting diffuseConstant="1" surfaceScale="10" lighting-color="rgb(255,255,255)" result="diffuse" id="feDiffuseLighting178"><feDistantLight elevation="8" azimuth="235" id="feDistantLight176" /></feDiffuseLighting><feComposite in="diffuse" in2="diffuse" operator="arithmetic" k1="1" result="composite1" id="feComposite180" /><feComposite in="composite1" in2="SourceGraphic" k1="1" operator="arithmetic" k3="1" result="composite2" id="feComposite182" /></filter></defs><g id="surface1" style="filter:url(#filter184)"><path style=" stroke:none;fill-rule:nonzero;fill:url(#linear0);" d="M 28.671875 32.898438 L 20.832031 58.34375 C 20.574219 58.730469 20.4375 59.179688 20.4375 59.644531 C 20.4375 60.921875 21.476562 61.960938 22.753906 61.960938 C 23.371094 61.960938 23.953125 61.714844 24.386719 61.28125 L 26.03125 59.644531 L 59.820312 59.644531 L 59.820312 25.878906 L 61.460938 24.246094 C 61.882812 23.824219 62.140625 23.246094 62.140625 22.601562 C 62.140625 21.328125 61.101562 20.289062 59.820312 20.289062 C 59.390625 20.289062 59.003906 20.441406 58.660156 20.648438 L 33.050781 28.515625 Z M 28.671875 32.898438 "/><path style=" stroke:none;fill-rule:nonzero;fill:rgb(81.960785%,71.372551%,59.215689%);fill-opacity:1;" d="M 30.734375 26.203125 L 6.535156 1.777344 L 1.902344 6.402344 L 26.355469 30.585938 L 29.703125 29.554688 Z M 30.734375 26.203125 "/></g></svg>
