<svg width="64" height="64" viewBox="0 0 64 64" version="1.1" xmlns:inkscape="http://www.inkscape.org/namespaces/inkscape"><defs><linearGradient id="linear0" gradientUnits="userSpaceOnUse" x1="0" y1="0" x2="0" y2="1" gradientTransform="matrix(76.65088,0,0,45.863315,-7.572281,8.732984)"><stop offset="0" style="stop-color:rgb(75.686276%,77.64706%,83.92157%);stop-opacity:1;"/><stop offset="1" style="stop-color:rgb(43.529412%,45.09804%,50.196081%);stop-opacity:1;"/></linearGradient><filter style="color-interpolation-filters:sRGB;" inkscape:label="Diffuse Light" id="filter184" x="-0.0375" y="-0.0375" width="1.075" height="1.075"><feGaussianBlur in="SourceGraphic" stdDeviation="1" result="blur" id="feGaussianBlur174" /><feDiffuseLighting diffuseConstant="1" surfaceScale="10" lighting-color="rgb(255,255,255)" result="diffuse" id="feDiffuseLighting178"><feDistantLight elevation="8" azimuth="235" id="feDistantLight176" /></feDiffuseLighting><feComposite in="diffuse" in2="diffuse" operator="arithmetic" k1="1" result="composite1" id="feComposite180" /><feComposite in="composite1" in2="SourceGraphic" k1="1" operator="arithmetic" k3="1" result="composite2" id="feComposite182" /></filter></defs><g id="surface1" style="filter:url(#filter184)"><path style=" stroke:none;fill-rule:nonzero;fill:url(#linear0);" d="M 19.566406 2.089844 C 19.566406 2.089844 2.523438 32.375 1.914062 32.144531 C 1.960938 43.515625 7.285156 54.386719 17.042969 62.195312 L 19.59375 62.195312 C 14.703125 55.265625 11.925781 45.457031 12.003906 36.769531 C 12.003906 20.886719 17.042969 11.339844 29.65625 6.710938 L 29.65625 15.960938 L 19.566406 15.960938 L 17.042969 22.894531 L 22.089844 20.585938 L 29.65625 20.585938 L 29.65625 52.949219 L 24.609375 57.574219 L 52.355469 57.574219 L 54.871094 59.886719 L 62.4375 46.015625 L 59.917969 46.015625 L 49.832031 52.949219 L 42.265625 52.949219 L 39.742188 48.328125 L 39.742188 6.710938 L 42.265625 2.089844 Z M 19.566406 2.089844 "/></g></svg>
