<svg width="64" height="64" viewBox="0 0 64 64" version="1.1" xmlns:inkscape="http://www.inkscape.org/namespaces/inkscape"><defs><linearGradient id="linear0" gradientUnits="userSpaceOnUse" x1="0" y1="0" x2="0" y2="1" gradientTransform="matrix(60.508821,0,0,61.401198,1.786464,1.49467)"><stop offset="0" style="stop-color:rgb(82.352942%,61.176473%,100%);stop-opacity:1;"/><stop offset="1" style="stop-color:rgb(66.666669%,0%,100%);stop-opacity:1;"/></linearGradient><filter style="color-interpolation-filters:sRGB;" inkscape:label="Diffuse Light" id="filter184" x="-0.0375" y="-0.0375" width="1.075" height="1.075"><feGaussianBlur in="SourceGraphic" stdDeviation="1" result="blur" id="feGaussianBlur174" /><feDiffuseLighting diffuseConstant="1" surfaceScale="10" lighting-color="rgb(255,255,255)" result="diffuse" id="feDiffuseLighting178"><feDistantLight elevation="8" azimuth="235" id="feDistantLight176" /></feDiffuseLighting><feComposite in="diffuse" in2="diffuse" operator="arithmetic" k1="1" result="composite1" id="feComposite180" /><feComposite in="composite1" in2="SourceGraphic" k1="1" operator="arithmetic" k3="1" result="composite2" id="feComposite182" /></filter></defs><g id="surface1" style="filter:url(#filter184)"><path style=" stroke:none;fill-rule:evenodd;fill:url(#linear0);" d="M 58.738281 1.496094 L 41.941406 18.515625 C 36.410156 14.613281 28.75 15.132812 23.789062 20.128906 L 43.1875 41.265625 C 43.421875 41.070312 43.632812 40.859375 43.855469 40.644531 C 48.832031 35.628906 49.382812 27.800781 45.507812 22.148438 L 62.296875 5.109375 L 58.738281 1.5 M 20.894531 23.125 C 20.675781 23.320312 20.453125 23.523438 20.234375 23.738281 C 15.25 28.753906 14.703125 36.582031 18.578125 42.238281 L 1.785156 59.277344 L 5.351562 62.894531 L 22.132812 45.847656 C 27.671875 49.757812 35.328125 49.246094 40.292969 44.25 Z M 20.894531 23.125 "/></g></svg>
