<svg width="64" height="64" viewBox="0 0 64 64" version="1.1" xmlns:inkscape="http://www.inkscape.org/namespaces/inkscape"><defs><linearGradient id="linear0" gradientUnits="userSpaceOnUse" x1="0" y1="0" x2="0" y2="1" gradientTransform="matrix(61.53125,0,0,56,1.234375,4)"><stop offset="0" style="stop-color:rgb(100%,63.137257%,63.137257%);stop-opacity:1;"/><stop offset="1" style="stop-color:rgb(100%,27.843139%,27.843139%);stop-opacity:1;"/></linearGradient><filter style="color-interpolation-filters:sRGB;" inkscape:label="Diffuse Light" id="filter184" x="-0.0375" y="-0.0375" width="1.075" height="1.075"><feGaussianBlur in="SourceGraphic" stdDeviation="1" result="blur" id="feGaussianBlur174" /><feDiffuseLighting diffuseConstant="1" surfaceScale="10" lighting-color="rgb(255,255,255)" result="diffuse" id="feDiffuseLighting178"><feDistantLight elevation="8" azimuth="235" id="feDistantLight176" /></feDiffuseLighting><feComposite in="diffuse" in2="diffuse" operator="arithmetic" k1="1" result="composite1" id="feComposite180" /><feComposite in="composite1" in2="SourceGraphic" k1="1" operator="arithmetic" k3="1" result="composite2" id="feComposite182" /></filter></defs><g id="surface1" style="filter:url(#filter184)"><path style=" stroke:none;fill-rule:evenodd;fill:url(#linear0);" d="M 2.546875 16.734375 L 28.832031 4.605469 C 30.578125 3.800781 33.421875 3.800781 35.167969 4.605469 L 61.457031 16.734375 C 63.203125 17.542969 63.203125 18.855469 61.457031 19.660156 L 35.167969 31.792969 C 33.421875 32.601562 30.578125 32.601562 28.832031 31.792969 L 2.546875 19.660156 C 0.796875 18.855469 0.796875 17.542969 2.546875 16.734375 Z M 11.953125 26.328125 L 3.539062 30.210938 C 1.230469 31.277344 1.230469 32.992188 3.539062 34.054688 L 27.835938 45.269531 C 30.144531 46.332031 33.855469 46.332031 36.164062 45.269531 L 60.460938 34.054688 C 62.769531 32.992188 62.769531 31.277344 60.460938 30.210938 L 52.046875 26.328125 L 36.164062 33.65625 C 33.855469 34.722656 30.144531 34.722656 27.835938 33.65625 Z M 11.953125 40.261719 L 3.539062 44.144531 C 1.230469 45.207031 1.230469 46.925781 3.539062 47.988281 L 27.835938 59.199219 C 30.144531 60.269531 33.855469 60.269531 36.164062 59.199219 L 60.460938 47.988281 C 62.769531 46.925781 62.769531 45.207031 60.460938 44.144531 L 52.046875 40.261719 L 36.164062 47.589844 C 33.855469 48.65625 30.144531 48.65625 27.835938 47.589844 Z M 11.953125 40.261719 "/></g></svg>
