<svg width="64" height="64" viewBox="0 0 64 64" version="1.1" xmlns:inkscape="http://www.inkscape.org/namespaces/inkscape"><defs><linearGradient id="linear0" gradientUnits="userSpaceOnUse" x1="0" y1="0" x2="0" y2="1" gradientTransform="matrix(64,0,0,29.539062,0,17.230469)"><stop offset="0" style="stop-color:rgb(0%,96.078432%,86.274511%);stop-opacity:1;"/><stop offset="1" style="stop-color:rgb(0%,54.901963%,49.411765%);stop-opacity:1;"/></linearGradient><filter style="color-interpolation-filters:sRGB;" inkscape:label="Diffuse Light" id="filter184" x="-0.0375" y="-0.0375" width="1.075" height="1.075"><feGaussianBlur in="SourceGraphic" stdDeviation="1" result="blur" id="feGaussianBlur174" /><feDiffuseLighting diffuseConstant="1" surfaceScale="10" lighting-color="rgb(255,255,255)" result="diffuse" id="feDiffuseLighting178"><feDistantLight elevation="8" azimuth="235" id="feDistantLight176" /></feDiffuseLighting><feComposite in="diffuse" in2="diffuse" operator="arithmetic" k1="1" result="composite1" id="feComposite180" /><feComposite in="composite1" in2="SourceGraphic" k1="1" operator="arithmetic" k3="1" result="composite2" id="feComposite182" /></filter></defs><g id="surface1" style="filter:url(#filter184)"><path style=" stroke:none;fill-rule:evenodd;fill:url(#linear0);" d="M 0 17.230469 L 0 46.769531 L 2.460938 46.769531 L 2.460938 34.460938 L 7.382812 34.460938 L 7.382812 46.769531 L 9.847656 46.769531 L 9.847656 17.230469 Z M 14.769531 17.230469 L 14.769531 32 L 22.152344 32 L 22.152344 44.308594 L 14.769531 44.308594 L 14.769531 46.769531 L 24.617188 46.769531 L 24.617188 29.539062 L 17.230469 29.539062 L 17.230469 19.691406 L 24.617188 19.691406 L 24.617188 17.230469 Z M 29.539062 17.230469 L 29.539062 46.769531 L 39.382812 46.769531 L 39.382812 44.308594 L 32 44.308594 L 32 19.691406 L 39.382812 19.691406 L 39.382812 17.230469 Z M 44.308594 17.230469 L 44.308594 19.691406 L 46.769531 19.691406 L 46.769531 44.308594 L 44.308594 44.308594 L 44.308594 46.769531 L 51.691406 46.769531 L 51.691406 44.308594 L 49.230469 44.308594 L 49.230469 19.691406 L 51.691406 19.691406 L 51.691406 17.230469 Z M 56.617188 17.230469 L 56.617188 19.691406 L 59.074219 19.691406 L 59.074219 44.308594 L 56.617188 44.308594 L 56.617188 46.769531 L 64 46.769531 L 64 44.308594 L 61.539062 44.308594 L 61.539062 19.691406 L 64 19.691406 L 64 17.230469 Z M 2.460938 19.691406 L 7.382812 19.691406 L 7.382812 32 L 2.460938 32 Z M 2.460938 19.691406 "/></g></svg>
