<svg width="64" height="64" viewBox="0 0 64 64" version="1.1" xmlns:inkscape="http://www.inkscape.org/namespaces/inkscape"><defs><linearGradient id="linear0" gradientUnits="userSpaceOnUse" x1="0" y1="0" x2="0" y2="1" gradientTransform="matrix(31.886719,0,0,60,0,2)"><stop offset="0" style="stop-color:rgb(100%,56.862748%,82.745099%);stop-opacity:1;"/><stop offset="1" style="stop-color:rgb(100%,0%,60.000002%);stop-opacity:1;"/></linearGradient><linearGradient id="linear1" gradientUnits="userSpaceOnUse" x1="0" y1="0" x2="0" y2="1" gradientTransform="matrix(10.171875,0,0,28.632813,40.164062,18.167969)"><stop offset="0" style="stop-color:rgb(100%,56.862748%,82.745099%);stop-opacity:1;"/><stop offset="1" style="stop-color:rgb(100%,0%,60.000002%);stop-opacity:1;"/></linearGradient><linearGradient id="linear2" gradientUnits="userSpaceOnUse" x1="0" y1="0" x2="0" y2="1" gradientTransform="matrix(14.171875,0,0,47.726562,49.828125,8.621094)"><stop offset="0" style="stop-color:rgb(100%,56.862748%,82.745099%);stop-opacity:1;"/><stop offset="1" style="stop-color:rgb(100%,0%,60.000002%);stop-opacity:1;"/></linearGradient><filter style="color-interpolation-filters:sRGB;" inkscape:label="Diffuse Light" id="filter184" x="-0.0375" y="-0.0375" width="1.075" height="1.075"><feGaussianBlur in="SourceGraphic" stdDeviation="1" result="blur" id="feGaussianBlur174" /><feDiffuseLighting diffuseConstant="1" surfaceScale="10" lighting-color="rgb(255,255,255)" result="diffuse" id="feDiffuseLighting178"><feDistantLight elevation="8" azimuth="235" id="feDistantLight176" /></feDiffuseLighting><feComposite in="diffuse" in2="diffuse" operator="arithmetic" k1="1" result="composite1" id="feComposite180" /><feComposite in="composite1" in2="SourceGraphic" k1="1" operator="arithmetic" k3="1" result="composite2" id="feComposite182" /></filter></defs><g id="surface1" style="filter:url(#filter184)"><path style=" stroke:none;fill-rule:nonzero;fill:url(#linear0);" d="M 31.886719 2 L 15.945312 18.5 L 3.964844 18.5 C 3.964844 18.5 0 22.519531 0 32.007812 C 0 41.492188 3.964844 45.5 3.964844 45.5 L 15.945312 45.5 L 31.886719 62 Z M 31.886719 2 "/><path style=" stroke:none;fill-rule:nonzero;fill:url(#linear1);" d="M 43.386719 18.167969 L 40.164062 21.347656 L 41.773438 22.9375 C 44.339844 25.472656 45.777344 28.902344 45.777344 32.484375 C 45.777344 36.066406 44.339844 39.496094 41.773438 42.027344 L 40.164062 43.621094 L 43.386719 46.800781 L 44.996094 45.210938 C 48.414062 41.835938 50.335938 37.257812 50.335938 32.484375 C 50.335938 27.710938 48.414062 23.132812 44.996094 19.757812 Z M 43.386719 18.167969 "/><path style=" stroke:none;fill-rule:nonzero;fill:url(#linear2);" d="M 53.046875 8.621094 L 49.828125 11.804688 L 51.4375 13.394531 C 56.5625 18.457031 59.445312 25.324219 59.445312 32.484375 C 59.445312 39.644531 56.5625 46.511719 51.4375 51.574219 L 49.828125 53.164062 L 53.046875 56.347656 L 54.65625 54.753906 C 60.636719 48.847656 64 40.835938 64 32.484375 C 64 24.128906 60.636719 16.121094 54.65625 10.210938 Z M 53.046875 8.621094 "/></g></svg>
