<svg width="64" height="64" viewBox="0 0 64 64" version="1.1" xmlns:inkscape="http://www.inkscape.org/namespaces/inkscape"><defs><linearGradient id="linear0" gradientUnits="userSpaceOnUse" x1="0" y1="0" x2="0" y2="1" gradientTransform="matrix(55.992188,0,0,56,4.003906,4)"><stop offset="0" style="stop-color:rgb(87.058824%,86.666667%,56.470591%);stop-opacity:1;"/><stop offset="1" style="stop-color:rgb(67.843139%,67.450982%,38.039216%);stop-opacity:1;"/></linearGradient><filter style="color-interpolation-filters:sRGB;" inkscape:label="Diffuse Light" id="filter184" x="-0.0375" y="-0.0375" width="1.075" height="1.075"><feGaussianBlur in="SourceGraphic" stdDeviation="1" result="blur" id="feGaussianBlur174" /><feDiffuseLighting diffuseConstant="1" surfaceScale="10" lighting-color="rgb(255,255,255)" result="diffuse" id="feDiffuseLighting178"><feDistantLight elevation="8" azimuth="235" id="feDistantLight176" /></feDiffuseLighting><feComposite in="diffuse" in2="diffuse" operator="arithmetic" k1="1" result="composite1" id="feComposite180" /><feComposite in="composite1" in2="SourceGraphic" k1="1" operator="arithmetic" k3="1" result="composite2" id="feComposite182" /></filter></defs><g id="surface1" style="filter:url(#filter184)"><path style=" stroke:none;fill-rule:nonzero;fill:url(#linear0);" d="M 31.742188 5.632812 C 22.71875 5.9375 13.871094 13.164062 10.601562 25.957031 C 10.589844 25.992188 10.605469 26.027344 10.601562 26.058594 C 9.679688 26.6875 9.027344 27.675781 9.027344 28.875 L 9.027344 49.828125 C 9.027344 51.757812 10.542969 53.269531 12.484375 53.269531 C 14.421875 53.269531 16.042969 51.757812 16.042969 49.828125 L 16.042969 28.875 C 16.042969 27.773438 15.472656 26.800781 14.683594 26.167969 C 17.875 17.773438 25.105469 11.875 32.898438 12.089844 C 40.210938 12.289062 45.96875 18.71875 48.492188 25.332031 L 49.011719 26.476562 C 48.441406 27.101562 48.179688 27.960938 48.179688 28.875 L 48.179688 49.828125 C 48.179688 51.757812 49.6875 53.269531 51.632812 53.269531 C 53.574219 53.269531 55.191406 51.757812 55.191406 49.828125 L 55.191406 28.875 C 55.191406 27.878906 54.710938 27.011719 54.039062 26.375 C 54.027344 26.34375 54.046875 26.304688 54.039062 26.269531 C 50.023438 11.90625 40.769531 5.320312 31.742188 5.632812 M 8.300781 25.4375 C 4.230469 25.539062 0.976562 31.742188 0.976562 39.40625 C 0.976562 47.070312 4.230469 53.160156 8.300781 53.269531 M 55.816406 25.4375 L 55.816406 53.269531 C 59.890625 53.167969 63.144531 47.070312 63.144531 39.40625 C 63.144531 31.742188 59.890625 25.539062 55.816406 25.4375 "/></g></svg>
