<svg width="64" height="64" viewBox="0 0 64 64" version="1.1" xmlns:inkscape="http://www.inkscape.org/namespaces/inkscape"><defs><linearGradient id="linear0" gradientUnits="userSpaceOnUse" x1="0" y1="0" x2="0" y2="1" gradientTransform="matrix(43.078125,0,0,56,10.460938,4)"><stop offset="0" style="stop-color:rgb(61.176473%,69.803923%,85.09804%);stop-opacity:1;"/><stop offset="1" style="stop-color:rgb(44.313726%,52.156866%,65.882355%);stop-opacity:1;"/></linearGradient><filter style="color-interpolation-filters:sRGB;" inkscape:label="Diffuse Light" id="filter184" x="-0.0375" y="-0.0375" width="1.075" height="1.075"><feGaussianBlur in="SourceGraphic" stdDeviation="1" result="blur" id="feGaussianBlur174" /><feDiffuseLighting diffuseConstant="1" surfaceScale="10" lighting-color="rgb(255,255,255)" result="diffuse" id="feDiffuseLighting178"><feDistantLight elevation="8" azimuth="235" id="feDistantLight176" /></feDiffuseLighting><feComposite in="diffuse" in2="diffuse" operator="arithmetic" k1="1" result="composite1" id="feComposite180" /><feComposite in="composite1" in2="SourceGraphic" k1="1" operator="arithmetic" k3="1" result="composite2" id="feComposite182" /></filter></defs><g id="surface1" style="filter:url(#filter184)"><path style=" stroke:none;fill-rule:evenodd;fill:url(#linear0);" d="M 36.972656 24.460938 L 36.183594 26.835938 C 36.183594 26.835938 42.769531 29.023438 42.769531 35.769531 C 42.769531 42.515625 36.183594 44.703125 36.183594 44.703125 L 36.972656 47.074219 C 36.972656 47.074219 44.925781 44.199219 44.925781 35.769531 C 44.925781 27.332031 36.972656 24.460938 36.972656 24.460938 Z M 36.070312 29.175781 L 35.609375 30.554688 C 35.609375 30.554688 39 31.835938 39 35.773438 C 39 39.699219 35.609375 40.980469 35.609375 40.980469 L 36.070312 42.367188 C 36.070312 42.367188 40.617188 40.6875 40.617188 35.773438 C 40.617188 30.847656 36.070312 29.175781 36.070312 29.175781 Z M 23.382812 32 L 23.382812 40.617188 L 26.347656 40.617188 L 34.152344 49.230469 L 34.152344 23.382812 L 26.347656 32 M 14.769531 4 C 12.617188 4 10.460938 4.5625 10.460938 6.152344 L 10.460938 55.691406 C 10.460938 58.511719 14.769531 60 16.925781 60 L 50.988281 59.996094 C 52.929688 59.996094 53.539062 59.320312 53.539062 57.839844 L 53.539062 11.535156 C 53.539062 9.769531 52.378906 8.316406 50.597656 8.316406 L 19.074219 8.316406 L 14.769531 6.140625 L 49.230469 6.152344 C 50.644531 6.152344 47.570312 4 46.160156 4 Z M 19.074219 12.617188 L 49.230469 12.617188 L 49.230469 55.691406 L 19.074219 55.691406 Z M 19.074219 12.617188 "/></g></svg>
