<svg width="64" height="64" viewBox="0 0 64 64" version="1.1" xmlns:inkscape="http://www.inkscape.org/namespaces/inkscape"><defs><linearGradient id="linear0" gradientUnits="userSpaceOnUse" x1="0" y1="0" x2="0" y2="1" gradientTransform="matrix(77.16704,0,0,47.19221,-4.472927,11.231312)"><stop offset="0" style="stop-color:rgb(100%,56.862748%,82.745099%);stop-opacity:1;"/><stop offset="1" style="stop-color:rgb(100%,0%,60.000002%);stop-opacity:1;"/></linearGradient><filter style="color-interpolation-filters:sRGB;" inkscape:label="Diffuse Light" id="filter184" x="-0.0375" y="-0.0375" width="1.075" height="1.075"><feGaussianBlur in="SourceGraphic" stdDeviation="1" result="blur" id="feGaussianBlur174" /><feDiffuseLighting diffuseConstant="1" surfaceScale="10" lighting-color="rgb(255,255,255)" result="diffuse" id="feDiffuseLighting178"><feDistantLight elevation="8" azimuth="235" id="feDistantLight176" /></feDiffuseLighting><feComposite in="diffuse" in2="diffuse" operator="arithmetic" k1="1" result="composite1" id="feComposite180" /><feComposite in="composite1" in2="SourceGraphic" k1="1" operator="arithmetic" k3="1" result="composite2" id="feComposite182" /></filter></defs><g id="surface1" style="filter:url(#filter184)"><path style=" stroke:none;fill-rule:nonzero;fill:url(#linear0);" d="M 5.941406 9.191406 L 58.925781 9.191406 C 60.953125 9.191406 62.597656 10.765625 62.597656 12.699219 L 62.597656 51.214844 C 62.597656 53.148438 60.953125 54.722656 58.925781 54.722656 L 5.941406 54.722656 C 3.914062 54.722656 2.265625 53.148438 2.265625 51.214844 L 2.265625 12.699219 C 2.265625 10.765625 3.914062 9.191406 5.941406 9.191406 Z M 5.941406 9.191406 "/><path style=" stroke:none;fill-rule:nonzero;fill:rgb(100%,56.862748%,82.745099%);fill-opacity:1;" d="M 9.210938 13.980469 C 9.210938 14.949219 8.386719 15.734375 7.367188 15.734375 C 6.355469 15.734375 5.535156 14.949219 5.535156 13.980469 C 5.535156 13.011719 6.355469 12.226562 7.367188 12.226562 C 8.386719 12.226562 9.210938 13.011719 9.210938 13.980469 Z M 9.210938 13.980469 "/><path style=" stroke:none;fill-rule:nonzero;fill:rgb(100%,56.862748%,82.745099%);fill-opacity:1;" d="M 21.25 27.816406 C 18.203125 27.816406 15.738281 30.167969 15.738281 33.078125 C 15.738281 35.976562 18.203125 38.335938 21.25 38.335938 C 24.292969 38.335938 26.761719 35.976562 26.761719 33.078125 C 26.761719 30.167969 24.292969 27.816406 21.25 27.816406 Z M 46.96875 27.816406 C 43.929688 27.816406 41.457031 30.167969 41.457031 33.078125 C 41.457031 35.976562 43.929688 38.335938 46.96875 38.335938 C 50.015625 38.335938 52.480469 35.976562 52.480469 33.078125 C 52.480469 30.167969 50.015625 27.816406 46.96875 27.816406 Z M 46.96875 27.816406 "/></g></svg>
