<svg width="64" height="64" viewBox="0 0 64 64" version="1.1" xmlns:inkscape="http://www.inkscape.org/namespaces/inkscape"><defs><linearGradient id="linear0" gradientUnits="userSpaceOnUse" x1="0" y1="0" x2="0" y2="1" gradientTransform="matrix(56,0,0,35.898438,4,14.050781)"><stop offset="0" style="stop-color:rgb(41.960785%,64.313728%,100%);stop-opacity:1;"/><stop offset="1" style="stop-color:rgb(0%,43.137255%,100%);stop-opacity:1;"/></linearGradient><linearGradient id="linear1" gradientUnits="userSpaceOnUse" x1="0" y1="0" x2="0" y2="1" gradientTransform="matrix(56,0,0,35.898438,4,14.050781)"><stop offset="0" style="stop-color:rgb(41.960785%,64.313728%,100%);stop-opacity:1;"/><stop offset="1" style="stop-color:rgb(0%,43.137255%,100%);stop-opacity:1;"/></linearGradient><filter style="color-interpolation-filters:sRGB;" inkscape:label="Diffuse Light" id="filter184" x="-0.0375" y="-0.0375" width="1.075" height="1.075"><feGaussianBlur in="SourceGraphic" stdDeviation="1" result="blur" id="feGaussianBlur174" /><feDiffuseLighting diffuseConstant="1" surfaceScale="10" lighting-color="rgb(255,255,255)" result="diffuse" id="feDiffuseLighting178"><feDistantLight elevation="8" azimuth="235" id="feDistantLight176" /></feDiffuseLighting><feComposite in="diffuse" in2="diffuse" operator="arithmetic" k1="1" result="composite1" id="feComposite180" /><feComposite in="composite1" in2="SourceGraphic" k1="1" operator="arithmetic" k3="1" result="composite2" id="feComposite182" /></filter></defs><g id="surface1" style="filter:url(#filter184)"><path style=" stroke:none;fill-rule:nonzero;fill:url(#linear0);" d="M 12.96875 12.78125 L 50.648438 12.78125 C 51.382812 12.78125 51.980469 13.378906 51.980469 14.113281 L 51.980469 52.03125 C 51.980469 52.765625 51.382812 53.363281 50.648438 53.363281 L 12.96875 53.363281 C 12.234375 53.363281 11.636719 52.765625 11.636719 52.03125 L 11.636719 14.113281 C 11.636719 13.378906 12.234375 12.78125 12.96875 12.78125 Z M 12.96875 12.78125 "/><path style=" stroke:none;fill-rule:nonzero;fill:url(#linear1);" d="M 31.972656 4.015625 L 31.972656 11.261719 L 53.75 11.261719 L 53.75 32.992188 L 61.007812 32.992188 L 61.007812 8.847656 C 61.007812 6.171875 58.851562 4.015625 56.167969 4.015625 Z M 2.933594 32.992188 L 2.933594 57.136719 C 2.933594 59.8125 5.09375 61.964844 7.773438 61.964844 L 31.972656 61.964844 L 31.972656 54.722656 L 10.195312 54.722656 L 10.195312 32.992188 Z M 2.933594 32.992188 "/></g></svg>
