<svg width="64" height="64" viewBox="0 0 64 64" version="1.1" xmlns:inkscape="http://www.inkscape.org/namespaces/inkscape"><defs><linearGradient id="linear0" gradientUnits="userSpaceOnUse" x1="0" y1="0" x2="0" y2="1" gradientTransform="matrix(64,0,0,47.242188,0,8.378906)"><stop offset="0" style="stop-color:rgb(61.176473%,69.803923%,85.09804%);stop-opacity:1;"/><stop offset="1" style="stop-color:rgb(44.313726%,52.156866%,65.882355%);stop-opacity:1;"/></linearGradient><filter style="color-interpolation-filters:sRGB;" inkscape:label="Diffuse Light" id="filter184" x="-0.0375" y="-0.0375" width="1.075" height="1.075"><feGaussianBlur in="SourceGraphic" stdDeviation="1" result="blur" id="feGaussianBlur174" /><feDiffuseLighting diffuseConstant="1" surfaceScale="10" lighting-color="rgb(255,255,255)" result="diffuse" id="feDiffuseLighting178"><feDistantLight elevation="8" azimuth="235" id="feDistantLight176" /></feDiffuseLighting><feComposite in="diffuse" in2="diffuse" operator="arithmetic" k1="1" result="composite1" id="feComposite180" /><feComposite in="composite1" in2="SourceGraphic" k1="1" operator="arithmetic" k3="1" result="composite2" id="feComposite182" /></filter></defs><g id="surface1" style="filter:url(#filter184)"><path style=" stroke:none;fill-rule:nonzero;fill:url(#linear0);" d="M 13.714844 8.378906 L 13.714844 14.476562 L 22.855469 14.476562 L 22.855469 8.378906 Z M 41.144531 8.378906 L 41.144531 14.476562 L 50.285156 14.476562 L 50.285156 8.378906 Z M 0 14.476562 L 0 20.570312 L 9.144531 20.570312 L 9.144531 14.476562 Z M 54.855469 14.476562 L 54.855469 20.570312 L 64 20.570312 L 64 14.476562 Z M 27.429688 17.523438 L 27.429688 23.621094 L 36.570312 23.621094 L 36.570312 17.523438 Z M 13.714844 19.046875 L 13.714844 25.144531 L 22.855469 25.144531 L 22.855469 19.046875 Z M 41.144531 19.046875 L 41.144531 25.144531 L 50.285156 25.144531 L 50.285156 19.046875 Z M 0 25.144531 L 0 31.238281 L 9.144531 31.238281 L 9.144531 25.144531 Z M 54.855469 25.144531 L 54.855469 31.238281 L 64 31.238281 L 64 25.144531 Z M 27.429688 28.191406 L 27.429688 34.285156 L 36.570312 34.285156 L 36.570312 28.191406 Z M 13.714844 29.714844 L 13.714844 35.808594 L 22.855469 35.808594 L 22.855469 29.714844 Z M 41.144531 29.714844 L 41.144531 35.808594 L 50.285156 35.808594 L 50.285156 29.714844 Z M 0 35.808594 L 0 41.902344 L 9.144531 41.902344 L 9.144531 35.808594 Z M 54.855469 35.808594 L 54.855469 41.902344 L 64 41.902344 L 64 35.808594 Z M 27.429688 38.855469 L 27.429688 44.953125 L 36.570312 44.953125 L 36.570312 38.855469 Z M 13.714844 40.378906 L 13.714844 46.476562 L 22.855469 46.476562 L 22.855469 40.378906 Z M 41.144531 40.378906 L 41.144531 46.476562 L 50.285156 46.476562 L 50.285156 40.378906 Z M 27.429688 49.523438 L 27.429688 55.621094 L 36.570312 55.621094 L 36.570312 49.523438 Z M 27.429688 49.523438 "/></g></svg>
