<svg width="64" height="64" viewBox="0 0 64 64" version="1.1" xmlns:inkscape="http://www.inkscape.org/namespaces/inkscape"><defs><linearGradient id="linear0" gradientUnits="userSpaceOnUse" x1="0" y1="0" x2="0" y2="1" gradientTransform="matrix(120.230195,0,0,67.755171,-30.775917,-3.734706)"><stop offset="0" style="stop-color:rgb(100%,63.137257%,63.137257%);stop-opacity:1;"/><stop offset="1" style="stop-color:rgb(100%,27.843139%,27.843139%);stop-opacity:1;"/></linearGradient><filter style="color-interpolation-filters:sRGB;" inkscape:label="Diffuse Light" id="filter184" x="-0.0375" y="-0.0375" width="1.075" height="1.075"><feGaussianBlur in="SourceGraphic" stdDeviation="1" result="blur" id="feGaussianBlur174" /><feDiffuseLighting diffuseConstant="1" surfaceScale="10" lighting-color="rgb(255,255,255)" result="diffuse" id="feDiffuseLighting178"><feDistantLight elevation="8" azimuth="235" id="feDistantLight176" /></feDiffuseLighting><feComposite in="diffuse" in2="diffuse" operator="arithmetic" k1="1" result="composite1" id="feComposite180" /><feComposite in="composite1" in2="SourceGraphic" k1="1" operator="arithmetic" k3="1" result="composite2" id="feComposite182" /></filter></defs><g id="surface1" style="filter:url(#filter184)"><path style=" stroke:none;fill-rule:nonzero;fill:url(#linear0);" d="M 45.03125 2.457031 C 44.957031 2.46875 44.871094 2.472656 44.792969 2.484375 C 44.792969 2.484375 42.347656 2.945312 38.546875 4.671875 C 37.921875 4.949219 37.398438 5.214844 36.859375 5.484375 C 35.324219 5.148438 33.765625 4.976562 32.195312 4.976562 C 19.550781 4.976562 9.300781 15.679688 9.300781 28.882812 C 9.3125 38.710938 15.082031 47.527344 23.847656 51.121094 C 24.390625 53.261719 27.089844 62.855469 32.195312 62.855469 C 37.300781 62.855469 39.988281 53.328125 40.550781 51.140625 C 49.324219 47.550781 55.101562 38.726562 55.101562 28.882812 C 55.097656 19.039062 49.296875 10.207031 40.511719 6.628906 C 43.613281 5.300781 45.375 4.949219 45.375 4.949219 C 46.113281 4.828125 46.605469 4.21875 46.515625 3.5625 C 46.433594 2.914062 45.777344 2.429688 45.03125 2.457031 Z M 45.03125 2.457031 "/><path style=" stroke:none;fill-rule:nonzero;fill:rgb(70.19608%,70.19608%,70.19608%);fill-opacity:1;" d="M 17.894531 15.046875 C 14.730469 15.046875 12.164062 17.300781 12.164062 20.078125 C 12.164062 22.855469 14.730469 25.109375 17.894531 25.109375 C 21.054688 25.109375 23.613281 22.855469 23.613281 20.078125 C 23.613281 17.300781 21.054688 15.046875 17.894531 15.046875 Z M 40.789062 15.046875 C 37.625 15.046875 35.070312 17.300781 35.070312 20.078125 C 35.070312 22.855469 37.625 25.109375 40.789062 25.109375 C 43.949219 25.109375 46.515625 22.855469 46.515625 20.078125 C 46.515625 17.300781 43.949219 15.046875 40.789062 15.046875 Z M 40.789062 15.046875 "/><path style=" stroke:none;fill-rule:nonzero;fill:rgb(70.19608%,70.19608%,70.19608%);fill-opacity:1;" d="M 15.019531 40.207031 C 15.019531 40.207031 20.75 45.242188 29.339844 45.242188 C 37.925781 45.242188 43.652344 40.207031 43.652344 40.207031 C 43.652344 40.207031 35.070312 42.726562 29.339844 42.726562 C 23.613281 42.726562 15.019531 40.207031 15.019531 40.207031 Z M 15.019531 40.207031 "/></g></svg>
