<svg width="64" height="64" viewBox="0 0 64 64" version="1.1" xmlns:inkscape="http://www.inkscape.org/namespaces/inkscape"><defs><linearGradient id="linear0" gradientUnits="userSpaceOnUse" x1="0" y1="0" x2="0" y2="1" gradientTransform="matrix(71.954871,0,0,58.352862,-3.102179,1.514287)"><stop offset="0" style="stop-color:rgb(100%,73.333335%,0%);stop-opacity:1;"/><stop offset="1" style="stop-color:rgb(70.19608%,51.372552%,0%);stop-opacity:1;"/></linearGradient><filter style="color-interpolation-filters:sRGB;" inkscape:label="Diffuse Light" id="filter184" x="-0.0375" y="-0.0375" width="1.075" height="1.075"><feGaussianBlur in="SourceGraphic" stdDeviation="1" result="blur" id="feGaussianBlur174" /><feDiffuseLighting diffuseConstant="1" surfaceScale="10" lighting-color="rgb(255,255,255)" result="diffuse" id="feDiffuseLighting178"><feDistantLight elevation="8" azimuth="235" id="feDistantLight176" /></feDiffuseLighting><feComposite in="diffuse" in2="diffuse" operator="arithmetic" k1="1" result="composite1" id="feComposite180" /><feComposite in="composite1" in2="SourceGraphic" k1="1" operator="arithmetic" k3="1" result="composite2" id="feComposite182" /></filter></defs><g id="surface1" style="filter:url(#filter184)"><path style=" stroke:none;fill-rule:nonzero;fill:url(#linear0);" d="M 25.09375 2.261719 L 25.09375 30.4375 L 29.492188 30.4375 L 30.953125 48.050781 L 32.417969 30.4375 L 36.816406 30.4375 L 36.816406 2.261719 Z M 51.933594 5.789062 L 41.742188 30.46875 L 34.472656 44.527344 L 43.828125 33.597656 L 46.945312 38.277344 L 60.25 18.285156 Z M 7.503906 28.085938 L 1.660156 47.816406 L 23.066406 62.132812 L 25.101562 55.277344 L 38.902344 60.65625 L 27.007812 48.835938 L 28.914062 42.40625 Z M 43.847656 41.003906 L 43.847656 47.605469 L 32.128906 49.808594 L 43.847656 52.011719 L 43.847656 58.617188 L 62.59375 58.617188 L 62.59375 41.003906 Z M 43.847656 41.003906 "/></g></svg>
