<svg width="64" height="64" viewBox="0 0 64 64" version="1.1" xmlns:inkscape="http://www.inkscape.org/namespaces/inkscape"><defs><linearGradient id="linear0" gradientUnits="userSpaceOnUse" x1="0" y1="0" x2="0" y2="1" gradientTransform="matrix(70.927849,0,0,72.122285,-0.222398,-1.549927)"><stop offset="0" style="stop-color:rgb(61.176473%,69.803923%,85.09804%);stop-opacity:1;"/><stop offset="1" style="stop-color:rgb(44.313726%,52.156866%,65.882355%);stop-opacity:1;"/></linearGradient><linearGradient id="linear1" gradientUnits="userSpaceOnUse" x1="0" y1="0" x2="0" y2="1" gradientTransform="matrix(70.927849,0,0,72.122285,-0.222398,-1.549927)"><stop offset="0" style="stop-color:rgb(61.176473%,69.803923%,85.09804%);stop-opacity:1;"/><stop offset="1" style="stop-color:rgb(44.313726%,52.156866%,65.882355%);stop-opacity:1;"/></linearGradient><filter style="color-interpolation-filters:sRGB;" inkscape:label="Diffuse Light" id="filter184" x="-0.0375" y="-0.0375" width="1.075" height="1.075"><feGaussianBlur in="SourceGraphic" stdDeviation="1" result="blur" id="feGaussianBlur174" /><feDiffuseLighting diffuseConstant="1" surfaceScale="10" lighting-color="rgb(255,255,255)" result="diffuse" id="feDiffuseLighting178"><feDistantLight elevation="8" azimuth="235" id="feDistantLight176" /></feDiffuseLighting><feComposite in="diffuse" in2="diffuse" operator="arithmetic" k1="1" result="composite1" id="feComposite180" /><feComposite in="composite1" in2="SourceGraphic" k1="1" operator="arithmetic" k3="1" result="composite2" id="feComposite182" /></filter></defs><g id="surface1" style="filter:url(#filter184)"><path style=" stroke:none;fill-rule:evenodd;fill:url(#linear0);" d="M 30.199219 2.3125 C 14.621094 2.3125 2 15.855469 2 32.554688 C 2 49.226562 14.574219 62.753906 30.109375 62.804688 C 30.140625 62.804688 30.167969 62.804688 30.199219 62.804688 L 61.253906 62.804688 L 61.253906 62.667969 L 61.269531 62.667969 L 61.269531 25.738281 L 48.324219 25.738281 L 38.429688 39.609375 L 31.726562 39.609375 L 31.726562 2.359375 C 31.21875 2.328125 30.714844 2.3125 30.199219 2.3125 "/><path style=" stroke:none;fill-rule:evenodd;fill:url(#linear1);" d="M 54.679688 13.777344 C 54.679688 18.679688 50.757812 22.660156 45.910156 22.660156 C 41.066406 22.660156 37.148438 18.679688 37.148438 13.777344 C 37.148438 8.878906 41.066406 4.898438 45.910156 4.898438 C 50.75 4.898438 54.679688 8.878906 54.679688 13.777344 "/></g></svg>
