<svg width="64" height="64" viewBox="0 0 64 64" version="1.1" xmlns:inkscape="http://www.inkscape.org/namespaces/inkscape"><defs><linearGradient id="linear0" gradientUnits="userSpaceOnUse" x1="0" y1="0" x2="0" y2="1" gradientTransform="matrix(64,0,0,48,0,8)"><stop offset="0" style="stop-color:rgb(41.960785%,64.313728%,100%);stop-opacity:1;"/><stop offset="1" style="stop-color:rgb(0%,43.137255%,100%);stop-opacity:1;"/></linearGradient><filter style="color-interpolation-filters:sRGB;" inkscape:label="Diffuse Light" id="filter184" x="-0.0375" y="-0.0375" width="1.075" height="1.075"><feGaussianBlur in="SourceGraphic" stdDeviation="1" result="blur" id="feGaussianBlur174" /><feDiffuseLighting diffuseConstant="1" surfaceScale="10" lighting-color="rgb(255,255,255)" result="diffuse" id="feDiffuseLighting178"><feDistantLight elevation="8" azimuth="235" id="feDistantLight176" /></feDiffuseLighting><feComposite in="diffuse" in2="diffuse" operator="arithmetic" k1="1" result="composite1" id="feComposite180" /><feComposite in="composite1" in2="SourceGraphic" k1="1" operator="arithmetic" k3="1" result="composite2" id="feComposite182" /></filter></defs><g id="surface1" style="filter:url(#filter184)"><path style=" stroke:none;fill-rule:nonzero;fill:url(#linear0);" d="M 41.140625 8 L 41.140625 12 L 0 12 L 0 20 L 41.140625 20 L 41.140625 24 L 50.289062 24 L 50.289062 8 Z M 54.859375 12 L 54.859375 20 L 64 20 L 64 12 Z M 13.710938 24 L 13.710938 28 L 0 28 L 0 36 L 13.710938 36 L 13.710938 40 L 22.859375 40 L 22.859375 24 Z M 27.429688 28 L 27.429688 36 L 64 36 L 64 28 Z M 32 40 L 32 44 L 0 44 L 0 52 L 32 52 L 32 56 L 41.140625 56 L 41.140625 40 Z M 45.710938 44 L 45.710938 52 L 64 52 L 64 44 Z M 45.710938 44 "/></g></svg>
