<svg width="64" height="64" viewBox="0 0 64 64" version="1.1" xmlns:inkscape="http://www.inkscape.org/namespaces/inkscape"><defs><linearGradient id="linear0" gradientUnits="userSpaceOnUse" x1="0" y1="0" x2="0" y2="1" gradientTransform="matrix(74.807106,0,0,40.845126,2.579508,13.955633)"><stop offset="0" style="stop-color:rgb(92.941177%,83.529413%,72.549021%);stop-opacity:1;"/><stop offset="1" style="stop-color:rgb(81.960785%,71.372551%,59.215689%);stop-opacity:1;"/></linearGradient><linearGradient id="linear1" gradientUnits="userSpaceOnUse" x1="0" y1="0" x2="0" y2="1" gradientTransform="matrix(74.807106,0,0,40.845126,2.579508,13.955633)"><stop offset="0" style="stop-color:rgb(92.941177%,83.529413%,72.549021%);stop-opacity:1;"/><stop offset="1" style="stop-color:rgb(81.960785%,71.372551%,59.215689%);stop-opacity:1;"/></linearGradient><filter style="color-interpolation-filters:sRGB;" inkscape:label="Diffuse Light" id="filter184" x="-0.0375" y="-0.0375" width="1.075" height="1.075"><feGaussianBlur in="SourceGraphic" stdDeviation="1" result="blur" id="feGaussianBlur174" /><feDiffuseLighting diffuseConstant="1" surfaceScale="10" lighting-color="rgb(255,255,255)" result="diffuse" id="feDiffuseLighting178"><feDistantLight elevation="8" azimuth="235" id="feDistantLight176" /></feDiffuseLighting><feComposite in="diffuse" in2="diffuse" operator="arithmetic" k1="1" result="composite1" id="feComposite180" /><feComposite in="composite1" in2="SourceGraphic" k1="1" operator="arithmetic" k3="1" result="composite2" id="feComposite182" /></filter></defs><g id="surface1" style="filter:url(#filter184)"><path style=" stroke:none;fill-rule:nonzero;fill:url(#linear0);" d="M 32.480469 1.96875 C 20.800781 1.96875 9.675781 5.613281 1.78125 11.988281 L 32.480469 15.992188 L 63.175781 11.988281 C 55.390625 5.613281 44.265625 1.96875 32.480469 1.96875 Z M 1.78125 52.039062 C 9.566406 58.410156 20.691406 62.058594 32.480469 62.058594 C 44.265625 62.058594 55.28125 58.410156 63.175781 52.039062 L 32.480469 50.039062 Z M 1.78125 52.039062 "/><path style=" stroke:none;fill-rule:nonzero;fill:url(#linear1);" d="M 19.261719 21.359375 C 17.378906 21.359375 15.859375 22.382812 15.859375 23.648438 L 15.859375 41.96875 C 15.859375 43.234375 17.378906 44.257812 19.261719 44.257812 C 21.144531 44.257812 22.660156 43.234375 22.660156 41.96875 L 22.660156 23.648438 C 22.660156 22.382812 21.144531 21.359375 19.261719 21.359375 Z M 29.457031 21.359375 C 27.585938 21.359375 26.0625 22.386719 26.0625 23.648438 C 26.0625 24.914062 27.585938 25.9375 29.457031 25.9375 L 39.214844 25.9375 L 35.375 29.054688 C 34.171875 30.027344 34.363281 31.457031 35.804688 32.285156 C 36.417969 32.617188 37.191406 32.824219 37.984375 32.8125 C 40.796875 32.8125 43.082031 34.351562 43.082031 36.25 C 43.082031 38.144531 40.796875 39.683594 37.984375 39.683594 C 35.171875 39.683594 32.886719 38.144531 32.886719 36.25 C 32.886719 34.984375 31.363281 33.960938 29.484375 33.960938 C 27.609375 33.960938 26.085938 34.984375 26.085938 36.25 C 26.085938 40.667969 31.425781 44.261719 37.984375 44.261719 C 44.542969 44.261719 49.882812 40.667969 49.882812 36.25 C 49.882812 33.386719 47.605469 30.730469 43.902344 29.3125 L 49.066406 25.121094 C 50.910156 23.632812 49.339844 21.363281 46.453125 21.363281 Z M 29.457031 21.359375 "/></g></svg>
