<svg width="64" height="64" viewBox="0 0 64 64" version="1.1" xmlns:inkscape="http://www.inkscape.org/namespaces/inkscape"><defs><linearGradient id="linear0" gradientUnits="userSpaceOnUse" x1="0" y1="0" x2="0" y2="1" gradientTransform="matrix(66.134424,0,0,78.797096,-0.616399,-6.712063)"><stop offset="0" style="stop-color:rgb(100%,56.862748%,82.745099%);stop-opacity:1;"/><stop offset="1" style="stop-color:rgb(100%,0%,60.000002%);stop-opacity:1;"/></linearGradient><filter style="color-interpolation-filters:sRGB;" inkscape:label="Diffuse Light" id="filter184" x="-0.0375" y="-0.0375" width="1.075" height="1.075"><feGaussianBlur in="SourceGraphic" stdDeviation="1" result="blur" id="feGaussianBlur174" /><feDiffuseLighting diffuseConstant="1" surfaceScale="10" lighting-color="rgb(255,255,255)" result="diffuse" id="feDiffuseLighting178"><feDistantLight elevation="8" azimuth="235" id="feDistantLight176" /></feDiffuseLighting><feComposite in="diffuse" in2="diffuse" operator="arithmetic" k1="1" result="composite1" id="feComposite180" /><feComposite in="composite1" in2="SourceGraphic" k1="1" operator="arithmetic" k3="1" result="composite2" id="feComposite182" /></filter></defs><g id="surface1" style="filter:url(#filter184)"><path style=" stroke:none;fill-rule:nonzero;fill:url(#linear0);" d="M 15.734375 32.3125 L 8.933594 39.085938 L 2.089844 32.3125 L 8.933594 25.535156 Z M 32.296875 15.910156 L 44.003906 27.496094 L 50.84375 20.722656 L 39.140625 9.183594 L 32.296875 2.410156 L 25.453125 9.183594 L 13.796875 20.726562 L 20.640625 27.503906 Z M 55.660156 25.539062 L 48.859375 32.3125 L 55.707031 39.085938 L 62.5 32.3125 Z M 32.296875 48.707031 L 20.589844 37.125 L 13.796875 43.898438 L 25.5 55.484375 L 32.296875 62.210938 L 39.140625 55.433594 L 50.84375 43.847656 L 44.003906 37.125 Z M 32.296875 39.082031 L 39.140625 32.3125 L 32.296875 25.535156 L 25.453125 32.3125 Z M 32.296875 39.082031 "/></g></svg>
