<svg width="64" height="64" viewBox="0 0 64 64" version="1.1" xmlns:inkscape="http://www.inkscape.org/namespaces/inkscape"><defs><linearGradient id="linear0" gradientUnits="userSpaceOnUse" x1="0" y1="0" x2="0" y2="1" gradientTransform="matrix(55.992188,0,0,76.360573,4.003906,-5.960895)"><stop offset="0" style="stop-color:rgb(87.058824%,86.666667%,56.470591%);stop-opacity:1;"/><stop offset="1" style="stop-color:rgb(67.843139%,67.450982%,38.039216%);stop-opacity:1;"/></linearGradient><filter style="color-interpolation-filters:sRGB;" inkscape:label="Diffuse Light" id="filter184" x="-0.0375" y="-0.0375" width="1.075" height="1.075"><feGaussianBlur in="SourceGraphic" stdDeviation="1" result="blur" id="feGaussianBlur174" /><feDiffuseLighting diffuseConstant="1" surfaceScale="10" lighting-color="rgb(255,255,255)" result="diffuse" id="feDiffuseLighting178"><feDistantLight elevation="8" azimuth="235" id="feDistantLight176" /></feDiffuseLighting><feComposite in="diffuse" in2="diffuse" operator="arithmetic" k1="1" result="composite1" id="feComposite180" /><feComposite in="composite1" in2="SourceGraphic" k1="1" operator="arithmetic" k3="1" result="composite2" id="feComposite182" /></filter></defs><g id="surface1" style="filter:url(#filter184)"><path style=" stroke:none;fill-rule:nonzero;fill:url(#linear0);" d="M 32.054688 62.839844 C 47.121094 62.839844 59.339844 51.777344 59.339844 38.136719 C 59.339844 24.507812 47.121094 13.449219 32.054688 13.449219 C 24.457031 13.449219 17.585938 16.257812 12.640625 20.792969 L 12.640625 2.054688 L 4.773438 2.054688 L 4.773438 38.269531 C 4.835938 51.84375 17.03125 62.847656 32.050781 62.847656 Z M 32.054688 19.511719 C 42.585938 19.511719 51.121094 27.851562 51.121094 38.136719 C 51.121094 48.433594 42.585938 56.78125 32.054688 56.78125 C 21.527344 56.78125 12.992188 48.433594 12.992188 38.136719 C 12.992188 27.851562 21.527344 19.511719 32.054688 19.511719 "/></g></svg>
