<svg width="64" height="64" viewBox="0 0 64 64" version="1.1" xmlns:inkscape="http://www.inkscape.org/namespaces/inkscape"><defs><linearGradient id="linear0" gradientUnits="userSpaceOnUse" x1="0" y1="0" x2="0" y2="1" gradientTransform="matrix(75.363808,0,0,54.249447,-5.940453,3.701954)"><stop offset="0" style="stop-color:rgb(0%,78.823531%,36.862746%);stop-opacity:1;"/><stop offset="1" style="stop-color:rgb(0%,54.11765%,25.098041%);stop-opacity:1;"/></linearGradient><filter style="color-interpolation-filters:sRGB;" inkscape:label="Diffuse Light" id="filter184" x="-0.0375" y="-0.0375" width="1.075" height="1.075"><feGaussianBlur in="SourceGraphic" stdDeviation="1" result="blur" id="feGaussianBlur174" /><feDiffuseLighting diffuseConstant="1" surfaceScale="10" lighting-color="rgb(255,255,255)" result="diffuse" id="feDiffuseLighting178"><feDistantLight elevation="8" azimuth="235" id="feDistantLight176" /></feDiffuseLighting><feComposite in="diffuse" in2="diffuse" operator="arithmetic" k1="1" result="composite1" id="feComposite180" /><feComposite in="composite1" in2="SourceGraphic" k1="1" operator="arithmetic" k3="1" result="composite2" id="feComposite182" /></filter></defs><g id="surface1" style="filter:url(#filter184)"><path style=" stroke:none;fill-rule:nonzero;fill:url(#linear0);" d="M 59.945312 1.648438 C 59.945312 1.648438 55.308594 7.691406 55.308594 16.765625 C 55.308594 28.867188 62.261719 28.867188 62.261719 43.984375 C 62.261719 51.546875 57.625 59.109375 52.996094 62.128906 C 52.996094 62.128906 57.625 56.082031 57.625 47.007812 C 57.625 34.910156 50.675781 34.910156 50.675781 19.792969 C 50.675781 12.230469 55.308594 4.671875 59.945312 1.648438 Z M 43.726562 1.648438 C 43.726562 1.648438 39.089844 7.691406 39.089844 16.765625 C 39.089844 28.867188 46.039062 28.867188 46.039062 43.984375 C 46.039062 51.546875 41.410156 59.109375 36.773438 62.128906 C 36.773438 62.128906 41.410156 56.082031 41.410156 47.007812 C 41.410156 34.910156 34.460938 34.910156 34.460938 19.792969 C 34.460938 12.230469 39.089844 4.671875 43.726562 1.648438 Z M 27.503906 1.648438 C 27.503906 1.648438 22.871094 7.691406 22.871094 16.765625 C 22.871094 28.867188 29.824219 28.867188 29.824219 43.984375 C 29.824219 51.546875 25.1875 59.109375 20.554688 62.128906 C 20.554688 62.128906 25.1875 56.082031 25.1875 47.007812 C 25.1875 34.910156 18.234375 34.910156 18.234375 19.792969 C 18.234375 12.230469 22.871094 4.671875 27.503906 1.648438 Z M 11.285156 1.648438 C 11.285156 1.648438 6.648438 7.691406 6.648438 16.765625 C 6.648438 28.867188 13.605469 28.867188 13.605469 43.984375 C 13.605469 51.546875 8.96875 59.109375 4.332031 62.128906 C 4.332031 62.128906 8.96875 56.082031 8.96875 47.007812 C 8.96875 34.910156 2.019531 34.910156 2.019531 19.792969 C 2.019531 12.230469 6.648438 4.671875 11.285156 1.648438 Z M 11.285156 1.648438 "/></g></svg>
