<?xml version="1.0" encoding="UTF-8" standalone="no"?><svg width="64" height="64" viewBox="0 0 64 64" version="1.1" id="svg302" sodipodi:docname="blender.svg" inkscape:version="1.2.2 (b0a8486541, 2022-12-01)" xmlns:inkscape="http://www.inkscape.org/namespaces/inkscape" xmlns:sodipodi="http://sodipodi.sourceforge.net/DTD/sodipodi-0.dtd" xmlns:xlink="http://www.w3.org/1999/xlink" xmlns="http://www.w3.org/2000/svg" xmlns:svg="http://www.w3.org/2000/svg"> <sodipodi:namedview id="namedview304" pagecolor="#ffffff" bordercolor="#000000" borderopacity="0.25" inkscape:showpageshadow="2" inkscape:pageopacity="0.0" inkscape:pagecheckerboard="0" inkscape:deskcolor="#d1d1d1" showgrid="false" inkscape:zoom="3.6875" inkscape:cx="32" inkscape:cy="32.135593" inkscape:window-width="1432" inkscape:window-height="844" inkscape:window-x="0" inkscape:window-y="0" inkscape:window-maximized="1" inkscape:current-layer="svg302" /> <defs id="defs295"> <linearGradient id="linear0" gradientUnits="userSpaceOnUse" x1="0" y1="0" x2="0" y2="1" gradientTransform="matrix(57.949219,0,0,57.945312,2.050781,2.054688)"> <stop offset="0" style="stop-color:#ff91d3;stop-opacity:1;" id="stop271" /> <stop offset="1" style="stop-color:#ff0099;stop-opacity:1;" id="stop273" /> </linearGradient> <filter id="alpha" filterUnits="objectBoundingBox" x="0" y="0" width="1" height="1"> <feColorMatrix type="matrix" in="SourceGraphic" values="0 0 0 0 1 0 0 0 0 1 0 0 0 0 1 0 0 0 1 0" id="feColorMatrix276" /> </filter> <mask id="mask0"> <g filter="url(#alpha)" id="g281"> <rect x="0" y="0" width="64" height="64" style="fill:rgb(0%,0%,0%);fill-opacity:0.6;stroke:none;" id="rect279" /> </g> </mask> <linearGradient id="linear1" gradientUnits="userSpaceOnUse" x1="0" y1="0" x2="0" y2="1" gradientTransform="matrix(16,0,0,16,32,32)"> <stop offset="0" style="stop-color:#ff91d3;stop-opacity:1;" id="stop284" /> <stop offset="1" style="stop-color:#ff0099;stop-opacity:1;" id="stop286" /> </linearGradient> <clipPath id="clip1"> <rect x="0" y="0" width="64" height="64" id="rect289" /> </clipPath> <g id="surface5" clip-path="url(#clip1)"> <path style=" stroke:none;fill-rule:nonzero;fill:url(#linear1);" d="M 48 40 C 48 44.417969 44.417969 48 40 48 C 35.582031 48 32 44.417969 32 40 C 32 35.582031 35.582031 32 40 32 C 44.417969 32 48 35.582031 48 40 Z M 48 40 " id="path292" /> </g> <filter style="color-interpolation-filters:sRGB;" inkscape:label="Diffuse Light" id="filter1834" x="-0.041416269" y="-0.041418364" width="1.0828325" height="1.0828367"> <feGaussianBlur in="SourceGraphic" stdDeviation="1" result="blur" id="feGaussianBlur1824" /> <feDiffuseLighting diffuseConstant="1" surfaceScale="10" lighting-color="rgb(255,255,255)" result="diffuse" id="feDiffuseLighting1828"> <feDistantLight elevation="8" azimuth="235" id="feDistantLight1826" /> </feDiffuseLighting> <feComposite in="diffuse" in2="diffuse" operator="arithmetic" k1="1" result="composite1" id="feComposite1830" /> <feComposite in="composite1" in2="SourceGraphic" k1="1" operator="arithmetic" k3="1" result="composite2" id="feComposite1832" /> </filter> </defs> <g id="surface1" transform="matrix(1.0431922,0,0,1.0416565,-0.08861996,-0.08559107)" style="filter:url(#filter1834)"> <path style="fill:url(#linear0);fill-rule:nonzero;stroke:none" d="m 28.6875,2.054688 c -1.023438,0 -2.042969,0.394531 -2.828125,1.179687 -1.566406,1.566406 -1.566406,4.089844 0,5.65625 L 36.96875,20 H 8 c -2.214844,0 -4,1.785156 -4,4 0,2.214844 1.785156,4 4,4 5.101562,-0.01172 9.089844,-0.0039 15.71875,0 L 3.226562,48.484375 c -1.566406,1.566406 -1.566406,4.089844 0,5.65625 1.566407,1.566406 4.097657,1.566406 5.664063,0 C 12.558594,50.453125 15.472656,47.550781 20.21875,42.8125 21.617188,52.664062 30.046875,59.988281 40,60 51.046875,60 60,51.046875 60,40 59.996094,34.699219 57.882812,29.613281 54.132812,25.867188 l 0.0078,-0.0078 c 0,0 -15.296875,-15.257813 -22.625,-22.625 C 30.734375,2.449219 29.710938,2.054688 28.6875,2.054688 Z M 40,28 c 6.628906,0 12,5.371094 12,12 0,6.628906 -5.371094,12 -12,12 -6.628906,0 -12,-5.371094 -12,-12 0,-6.628906 5.371094,-12 12,-12 z m 0,0" id="path297" /> <use xlink:href="#surface5" mask="url(#mask0)" id="use299" /> </g></svg>
