<?xml version="1.0" encoding="UTF-8" standalone="no"?><svg width="64" height="64" viewBox="0 0 64 64" version="1.1" id="svg260" sodipodi:docname="blinken.svg" inkscape:version="1.2.2 (b0a8486541, 2022-12-01)" xmlns:inkscape="http://www.inkscape.org/namespaces/inkscape" xmlns:sodipodi="http://sodipodi.sourceforge.net/DTD/sodipodi-0.dtd" xmlns:xlink="http://www.w3.org/1999/xlink" xmlns="http://www.w3.org/2000/svg" xmlns:svg="http://www.w3.org/2000/svg"> <sodipodi:namedview id="namedview262" pagecolor="#ffffff" bordercolor="#000000" borderopacity="0.25" inkscape:showpageshadow="2" inkscape:pageopacity="0.0" inkscape:pagecheckerboard="0" inkscape:deskcolor="#d1d1d1" showgrid="false" inkscape:zoom="3.6875" inkscape:cx="32" inkscape:cy="32.135593" inkscape:window-width="1432" inkscape:window-height="844" inkscape:window-x="0" inkscape:window-y="0" inkscape:window-maximized="1" inkscape:current-layer="svg260" /> <defs id="defs249"> <linearGradient id="linear0" gradientUnits="userSpaceOnUse" x1="0" y1="0" x2="0" y2="1" gradientTransform="matrix(32,0,0,32,0,0)"> <stop offset="0" style="stop-color:#6ba4ff;stop-opacity:1;" id="stop204" /> <stop offset="1" style="stop-color:#006eff;stop-opacity:1;" id="stop206" /> </linearGradient> <filter id="alpha" filterUnits="objectBoundingBox" x="0" y="0" width="1" height="1"> <feColorMatrix type="matrix" in="SourceGraphic" values="0 0 0 0 1 0 0 0 0 1 0 0 0 0 1 0 0 0 1 0" id="feColorMatrix209" /> </filter> <mask id="mask0"> <g filter="url(#alpha)" id="g214"> <rect x="0" y="0" width="64" height="64" style="fill:rgb(0%,0%,0%);fill-opacity:0.6;stroke:none;" id="rect212" /> </g> </mask> <linearGradient id="linear1" gradientUnits="userSpaceOnUse" x1="0" y1="0" x2="0" y2="1" gradientTransform="matrix(32,0,0,32,32,0)"> <stop offset="0" style="stop-color:#6ba4ff;stop-opacity:1;" id="stop217" /> <stop offset="1" style="stop-color:#006eff;stop-opacity:1;" id="stop219" /> </linearGradient> <clipPath id="clip1"> <rect x="0" y="0" width="64" height="64" id="rect222" /> </clipPath> <g id="surface5" clip-path="url(#clip1)"> <path style=" stroke:none;fill-rule:nonzero;fill:url(#linear1);" d="M 48 32 L 64 32 C 64 14.273438 49.726562 0 32 0 L 32 16 C 40.832031 16 48 23.167969 48 32 Z M 48 32 " id="path225" /> </g> <mask id="mask1"> <g filter="url(#alpha)" id="g230"> <rect x="0" y="0" width="64" height="64" style="fill:rgb(0%,0%,0%);fill-opacity:0.6;stroke:none;" id="rect228" /> </g> </mask> <linearGradient id="linear2" gradientUnits="userSpaceOnUse" x1="0" y1="0" x2="0" y2="1" gradientTransform="matrix(32,0,0,32,0,32)"> <stop offset="0" style="stop-color:#6ba4ff;stop-opacity:1;" id="stop233" /> <stop offset="1" style="stop-color:#006eff;stop-opacity:1;" id="stop235" /> </linearGradient> <clipPath id="clip2"> <rect x="0" y="0" width="64" height="64" id="rect238" /> </clipPath> <g id="surface8" clip-path="url(#clip2)"> <path style=" stroke:none;fill-rule:nonzero;fill:url(#linear2);" d="M 16 32 L 0 32 C 0 49.726562 14.273438 64 32 64 L 32 48 C 23.167969 48 16 40.832031 16 32 Z M 16 32 " id="path241" /> </g> <linearGradient id="linear3" gradientUnits="userSpaceOnUse" x1="0" y1="0" x2="0" y2="1" gradientTransform="matrix(32,0,0,32,32,32)"> <stop offset="0" style="stop-color:#6ba4ff;stop-opacity:1;" id="stop244" /> <stop offset="1" style="stop-color:#006eff;stop-opacity:1;" id="stop246" /> </linearGradient> <filter style="color-interpolation-filters:sRGB;" inkscape:label="Diffuse Light" id="filter1780" x="-0.0375" y="-0.0375" width="1.075" height="1.075"> <feGaussianBlur in="SourceGraphic" stdDeviation="1" result="blur" id="feGaussianBlur1770" /> <feDiffuseLighting diffuseConstant="1" surfaceScale="10" lighting-color="rgb(255,255,255)" result="diffuse" id="feDiffuseLighting1774"> <feDistantLight elevation="8" azimuth="235" id="feDistantLight1772" /> </feDiffuseLighting> <feComposite in="diffuse" in2="diffuse" operator="arithmetic" k1="1" result="composite1" id="feComposite1776" /> <feComposite in="composite1" in2="SourceGraphic" k1="1" operator="arithmetic" k3="1" result="composite2" id="feComposite1778" /> </filter> </defs> <g id="surface1" style="filter:url(#filter1780)"> <path style=" stroke:none;fill-rule:nonzero;fill:url(#linear0);" d="M 16 32 L 0 32 C 0 14.273438 14.273438 0 32 0 L 32 16 C 23.167969 16 16 23.167969 16 32 Z M 16 32 " id="path251" /> <use xlink:href="#surface5" mask="url(#mask0)" id="use253" /> <use xlink:href="#surface8" mask="url(#mask1)" id="use255" /> <path style=" stroke:none;fill-rule:nonzero;fill:url(#linear3);" d="M 48 32 L 64 32 C 64 49.726562 49.726562 64 32 64 L 32 48 C 40.832031 48 48 40.832031 48 32 Z M 48 32 " id="path257" /> </g></svg>
