<?xml version="1.0" encoding="UTF-8" standalone="no"?><svg width="64" height="64" viewBox="0 0 64 64" version="1.1" id="svg21" sodipodi:docname="blockout2.svg" inkscape:version="1.2.2 (b0a8486541, 2022-12-01)" xmlns:inkscape="http://www.inkscape.org/namespaces/inkscape" xmlns:sodipodi="http://sodipodi.sourceforge.net/DTD/sodipodi-0.dtd" xmlns="http://www.w3.org/2000/svg" xmlns:svg="http://www.w3.org/2000/svg"> <defs id="defs25"> <filter style="color-interpolation-filters:sRGB;" inkscape:label="Diffuse Light" id="filter208" x="-0.077575758" y="-0.087322339" width="1.1551515" height="1.1746447"> <feGaussianBlur in="SourceGraphic" stdDeviation="1" result="blur" id="feGaussianBlur198" /> <feDiffuseLighting diffuseConstant="1" surfaceScale="10" lighting-color="rgb(255,255,255)" result="diffuse" id="feDiffuseLighting202"> <feDistantLight elevation="8" azimuth="235" id="feDistantLight200" /> </feDiffuseLighting> <feComposite in="diffuse" in2="diffuse" operator="arithmetic" k1="1" result="composite1" id="feComposite204" /> <feComposite in="composite1" in2="SourceGraphic" k1="1" operator="arithmetic" k3="1" result="composite2" id="feComposite206" /> </filter> </defs> <sodipodi:namedview id="namedview23" pagecolor="#ffffff" bordercolor="#000000" borderopacity="0.25" inkscape:showpageshadow="2" inkscape:pageopacity="0.0" inkscape:pagecheckerboard="0" inkscape:deskcolor="#d1d1d1" showgrid="false" inkscape:zoom="3.6875" inkscape:cx="32" inkscape:cy="32.135593" inkscape:window-width="1432" inkscape:window-height="844" inkscape:window-x="0" inkscape:window-y="0" inkscape:window-maximized="1" inkscape:current-layer="svg21" /> <g id="surface1" transform="matrix(1.9343509,0,0,2.0624397,-29.441255,-34.331005)" style="fill:#778899;filter:url(#filter208)"> <path style="fill:#778899;fill-opacity:1;fill-rule:evenodd;stroke:none" d="m 16.53125,35.429688 h 10.3125 v 10.3125 h -10.3125 z m 0,0" id="path2" /> <path style="fill:#778899;fill-opacity:1;fill-rule:evenodd;stroke:none" d="M 32,32 H 21.6875 l -5.15625,3.429688 h 10.3125 z m 0,0" id="path4" /> <path style="fill:#778899;fill-opacity:1;fill-rule:evenodd;stroke:none" d="m 32,32 -5.15625,3.429688 v 10.3125 L 32,42.3125 Z m 0,0" id="path6" /> <path style="fill:#778899;fill-opacity:1;fill-rule:evenodd;stroke:none" d="m 32,31.988281 h 10.3125 v 10.3125 H 32 Z m 0,0" id="path8" /> <path style="fill:#778899;fill-opacity:1;fill-rule:evenodd;stroke:none" d="M 47.46875,28.558594 H 37.15625 L 32,31.988281 h 10.3125 z m 0,0" id="path10" /> <path style="fill:#778899;fill-opacity:1;fill-rule:evenodd;stroke:none" d="m 47.46875,28.558594 -5.15625,3.429687 v 10.3125 l 5.15625,-3.429687 z m 0,0" id="path12" /> <path style="fill:#778899;fill-opacity:1;fill-rule:evenodd;stroke:none" d="M 21.6875,21.6875 H 32 V 32 H 21.6875 Z m 0,0" id="path14" /> <path style="fill:#778899;fill-opacity:1;fill-rule:evenodd;stroke:none" d="M 37.15625,18.257812 H 26.84375 L 21.6875,21.6875 H 32 Z m 0,0" id="path16" /> <path style="fill:#778899;fill-opacity:1;fill-rule:evenodd;stroke:none" d="M 37.15625,18.257812 32,21.6875 V 32 l 5.15625,-3.429688 z m 0,0" id="path18" /> </g></svg>
