<svg width="64" height="64" viewBox="0 0 64 64" version="1.1" xmlns:inkscape="http://www.inkscape.org/namespaces/inkscape"><defs><linearGradient id="linear0" gradientUnits="userSpaceOnUse" x1="0" y1="0" x2="0" y2="1" gradientTransform="matrix(51.275862,0,0,51.367087,6.757778,5.855231)"><stop offset="0" style="stop-color:rgb(82.352942%,61.176473%,100%);stop-opacity:1;"/><stop offset="1" style="stop-color:rgb(66.666669%,0%,100%);stop-opacity:1;"/></linearGradient><filter style="color-interpolation-filters:sRGB;" inkscape:label="Diffuse Light" id="filter184" x="-0.0375" y="-0.0375" width="1.075" height="1.075"><feGaussianBlur in="SourceGraphic" stdDeviation="1" result="blur" id="feGaussianBlur174" /><feDiffuseLighting diffuseConstant="1" surfaceScale="10" lighting-color="rgb(255,255,255)" result="diffuse" id="feDiffuseLighting178"><feDistantLight elevation="8" azimuth="235" id="feDistantLight176" /></feDiffuseLighting><feComposite in="diffuse" in2="diffuse" operator="arithmetic" k1="1" result="composite1" id="feComposite180" /><feComposite in="composite1" in2="SourceGraphic" k1="1" operator="arithmetic" k3="1" result="composite2" id="feComposite182" /></filter></defs><g id="surface1" style="filter:url(#filter184)"><path style=" stroke:none;fill-rule:evenodd;fill:rgb(14.901961%,13.725491%,15.686275%);fill-opacity:0.603922;" d="M 63.714844 31.695312 C 63.714844 48.921875 49.714844 62.882812 32.445312 62.882812 C 15.183594 62.882812 1.183594 48.921875 1.183594 31.695312 C 1.183594 14.476562 15.183594 0.515625 32.445312 0.515625 C 49.714844 0.515625 63.714844 14.476562 63.714844 31.695312 Z M 63.714844 31.695312 "/><path style=" stroke:none;fill-rule:nonzero;fill:url(#linear0);" d="M 50.078125 21.796875 C 50.078125 18.570312 48.890625 16.15625 46.46875 14.542969 C 44.042969 12.933594 40.492188 12.128906 35.699219 12.128906 L 12.449219 12.128906 L 12.449219 15.292969 L 17.453125 15.292969 L 17.453125 48.101562 L 12.449219 48.101562 L 12.449219 51.269531 L 34.253906 51.269531 C 40.492188 51.269531 45.070312 50.355469 48.027344 48.53125 C 50.988281 46.707031 52.441406 43.804688 52.441406 39.941406 C 52.441406 37.09375 51.367188 34.785156 49.265625 33.070312 C 47.167969 31.347656 44.152344 30.277344 40.222656 29.898438 C 45.664062 29.308594 50.070312 27.214844 50.070312 21.796875 M 31.023438 28.449219 L 27.574219 28.449219 L 27.574219 15.292969 L 31.023438 15.292969 C 36.511719 15.292969 39.902344 16.691406 39.902344 21.796875 C 39.902344 26.785156 36.40625 28.449219 31.023438 28.449219 M 41.195312 39.941406 C 41.195312 45.898438 37.585938 48.101562 31.34375 48.101562 L 27.574219 48.101562 L 27.574219 31.621094 L 31.34375 31.621094 C 37.53125 31.621094 41.195312 33.980469 41.195312 39.941406 "/></g></svg>
