<svg width="64" height="64" viewBox="0 0 64 64" version="1.1" xmlns:inkscape="http://www.inkscape.org/namespaces/inkscape"><defs><linearGradient id="linear0" gradientUnits="userSpaceOnUse" x1="0" y1="0" x2="0" y2="1" gradientTransform="matrix(60.936989,0,0,54.101562,1.713056,5.160156)"><stop offset="0" style="stop-color:rgb(100%,56.862748%,82.745099%);stop-opacity:1;"/><stop offset="1" style="stop-color:rgb(100%,0%,60.000002%);stop-opacity:1;"/></linearGradient><filter style="color-interpolation-filters:sRGB;" inkscape:label="Diffuse Light" id="filter184" x="-0.0375" y="-0.0375" width="1.075" height="1.075"><feGaussianBlur in="SourceGraphic" stdDeviation="1" result="blur" id="feGaussianBlur174" /><feDiffuseLighting diffuseConstant="1" surfaceScale="10" lighting-color="rgb(255,255,255)" result="diffuse" id="feDiffuseLighting178"><feDistantLight elevation="8" azimuth="235" id="feDistantLight176" /></feDiffuseLighting><feComposite in="diffuse" in2="diffuse" operator="arithmetic" k1="1" result="composite1" id="feComposite180" /><feComposite in="composite1" in2="SourceGraphic" k1="1" operator="arithmetic" k3="1" result="composite2" id="feComposite182" /></filter></defs><g id="surface1" style="filter:url(#filter184)"><path style=" stroke:none;fill-rule:evenodd;fill:url(#linear0);" d="M 53.226562 17.101562 L 53.226562 11.527344 C 53.226562 8.011719 50.507812 5.160156 47.164062 5.160156 L 7.773438 5.160156 C 4.429688 5.160156 1.714844 8.011719 1.714844 11.527344 L 1.714844 52.894531 C 1.714844 56.40625 4.429688 59.261719 7.773438 59.261719 L 47.164062 59.261719 C 50.507812 59.261719 53.226562 56.40625 53.226562 52.894531 L 53.226562 47.320312 L 62.648438 55.101562 L 62.648438 9.324219 Z M 31.855469 28.902344 L 19.402344 28.902344 L 19.402344 20.644531 L 31.855469 20.644531 C 33.613281 20.644531 35.132812 22.945312 35.132812 24.777344 C 35.132812 26.605469 33.613281 28.925781 31.855469 28.902344 Z M 19.402344 35.097656 L 19.402344 43.355469 L 31.855469 43.355469 C 33.613281 43.375 35.132812 41.054688 35.132812 39.222656 C 35.132812 37.394531 33.613281 35.097656 31.855469 35.097656 Z M 38.109375 32 C 39.941406 33.859375 41.03125 36.515625 41.03125 39.222656 C 41.03125 44.488281 36.921875 49.546875 31.855469 49.546875 L 13.507812 49.546875 L 13.507812 14.453125 L 31.855469 14.453125 C 36.921875 14.453125 41.03125 19.511719 41.03125 24.777344 C 41.03125 27.484375 39.941406 30.140625 38.109375 32 Z M 38.109375 32 "/></g></svg>
