<svg width="64" height="64" viewBox="0 0 64 64" version="1.1" xmlns:inkscape="http://www.inkscape.org/namespaces/inkscape"><defs><linearGradient id="linear0" gradientUnits="userSpaceOnUse" x1="0" y1="0" x2="0" y2="1" gradientTransform="matrix(44,0,0,64,10,0)"><stop offset="0" style="stop-color:rgb(75.686276%,77.64706%,83.92157%);stop-opacity:1;"/><stop offset="1" style="stop-color:rgb(43.529412%,45.09804%,50.196081%);stop-opacity:1;"/></linearGradient><filter style="color-interpolation-filters:sRGB;" inkscape:label="Diffuse Light" id="filter184" x="-0.0375" y="-0.0375" width="1.075" height="1.075"><feGaussianBlur in="SourceGraphic" stdDeviation="1" result="blur" id="feGaussianBlur174" /><feDiffuseLighting diffuseConstant="1" surfaceScale="10" lighting-color="rgb(255,255,255)" result="diffuse" id="feDiffuseLighting178"><feDistantLight elevation="8" azimuth="235" id="feDistantLight176" /></feDiffuseLighting><feComposite in="diffuse" in2="diffuse" operator="arithmetic" k1="1" result="composite1" id="feComposite180" /><feComposite in="composite1" in2="SourceGraphic" k1="1" operator="arithmetic" k3="1" result="composite2" id="feComposite182" /></filter></defs><g id="surface1" style="filter:url(#filter184)"><path style=" stroke:none;fill-rule:nonzero;fill:url(#linear0);" d="M 20.648438 0 C 17.292969 0.0390625 14.84375 -0.078125 12.835938 1.03125 C 11.832031 1.585938 11.03125 2.519531 10.59375 3.6875 C 10.15625 4.855469 10 6.246094 10 8 L 10 56 C 10 57.753906 10.15625 59.144531 10.59375 60.3125 C 11.03125 61.480469 11.832031 62.421875 12.835938 62.976562 C 14.84375 64.085938 17.292969 63.960938 20.648438 64 L 43.351562 64 C 46.707031 63.960938 49.15625 64.085938 51.164062 62.976562 C 52.167969 62.421875 52.96875 61.480469 53.40625 60.3125 C 53.84375 59.144531 54 57.753906 54 56 L 54 8 C 54 6.246094 53.84375 4.855469 53.40625 3.6875 C 52.96875 2.519531 52.167969 1.585938 51.164062 1.03125 C 49.15625 -0.078125 46.707031 0.0390625 43.351562 0 Z M 30 5.210938 L 46.960938 22.164062 L 35.203125 32.039062 L 46.960938 41.914062 L 30 58.867188 L 30 36.414062 L 20.289062 44.570312 L 17.710938 41.507812 L 28.984375 32.039062 L 17.710938 22.570312 L 20.289062 19.507812 L 30 27.664062 Z M 34 14.867188 L 34 27.828125 L 41.039062 21.90625 Z M 34 36.25 L 34 49.210938 L 41.039062 42.171875 Z M 34 36.25 "/></g></svg>
