<svg width="64" height="64" viewBox="0 0 64 64" version="1.1" xmlns:inkscape="http://www.inkscape.org/namespaces/inkscape"><defs><linearGradient id="linear0" gradientUnits="userSpaceOnUse" x1="0" y1="0" x2="0" y2="1" gradientTransform="matrix(84.843698,0,0,60.412649,-10.065112,3.071834)"><stop offset="0" style="stop-color:rgb(0%,96.078432%,86.274511%);stop-opacity:1;"/><stop offset="1" style="stop-color:rgb(0%,54.901963%,49.411765%);stop-opacity:1;"/></linearGradient><linearGradient id="linear1" gradientUnits="userSpaceOnUse" x1="0" y1="0" x2="0" y2="1" gradientTransform="matrix(84.843698,0,0,60.412649,-10.065112,3.071834)"><stop offset="0" style="stop-color:rgb(0%,96.078432%,86.274511%);stop-opacity:1;"/><stop offset="1" style="stop-color:rgb(0%,54.901963%,49.411765%);stop-opacity:1;"/></linearGradient><linearGradient id="linear2" gradientUnits="userSpaceOnUse" x1="0" y1="0" x2="0" y2="1" gradientTransform="matrix(84.843698,0,0,60.412649,-10.065112,3.071834)"><stop offset="0" style="stop-color:rgb(0%,96.078432%,86.274511%);stop-opacity:1;"/><stop offset="1" style="stop-color:rgb(0%,54.901963%,49.411765%);stop-opacity:1;"/></linearGradient><linearGradient id="linear3" gradientUnits="userSpaceOnUse" x1="0" y1="0" x2="0" y2="1" gradientTransform="matrix(84.843698,0,0,60.412649,-10.065112,3.071834)"><stop offset="0" style="stop-color:rgb(0%,96.078432%,86.274511%);stop-opacity:1;"/><stop offset="1" style="stop-color:rgb(0%,54.901963%,49.411765%);stop-opacity:1;"/></linearGradient><linearGradient id="linear4" gradientUnits="userSpaceOnUse" x1="0" y1="0" x2="0" y2="1" gradientTransform="matrix(84.843698,0,0,60.412649,-10.065112,3.071834)"><stop offset="0" style="stop-color:rgb(0%,96.078432%,86.274511%);stop-opacity:1;"/><stop offset="1" style="stop-color:rgb(0%,54.901963%,49.411765%);stop-opacity:1;"/></linearGradient><linearGradient id="linear5" gradientUnits="userSpaceOnUse" x1="0" y1="0" x2="0" y2="1" gradientTransform="matrix(84.843698,0,0,60.412649,-10.065112,3.071834)"><stop offset="0" style="stop-color:rgb(0%,96.078432%,86.274511%);stop-opacity:1;"/><stop offset="1" style="stop-color:rgb(0%,54.901963%,49.411765%);stop-opacity:1;"/></linearGradient><filter style="color-interpolation-filters:sRGB;" inkscape:label="Diffuse Light" id="filter184" x="-0.0375" y="-0.0375" width="1.075" height="1.075"><feGaussianBlur in="SourceGraphic" stdDeviation="1" result="blur" id="feGaussianBlur174" /><feDiffuseLighting diffuseConstant="1" surfaceScale="10" lighting-color="rgb(255,255,255)" result="diffuse" id="feDiffuseLighting178"><feDistantLight elevation="8" azimuth="235" id="feDistantLight176" /></feDiffuseLighting><feComposite in="diffuse" in2="diffuse" operator="arithmetic" k1="1" result="composite1" id="feComposite180" /><feComposite in="composite1" in2="SourceGraphic" k1="1" operator="arithmetic" k3="1" result="composite2" id="feComposite182" /></filter></defs><g id="surface1" style="filter:url(#filter184)"><path style=" stroke:none;fill-rule:nonzero;fill:url(#linear0);" d="M 32.355469 8.59375 L 42.460938 1.863281 L 52.554688 8.59375 L 52.554688 19.816406 L 48.519531 24.304688 L 42.460938 26.546875 L 32.355469 19.816406 L 30.339844 13.648438 Z M 32.355469 8.59375 "/><path style=" stroke:none;fill-rule:nonzero;fill:url(#linear1);" d="M 42.460938 26.546875 L 52.554688 19.816406 L 62.65625 26.546875 L 62.65625 37.769531 L 52.554688 44.5 L 46.496094 44.5 L 42.460938 37.769531 Z M 42.460938 26.546875 "/><path style=" stroke:none;fill-rule:nonzero;fill:url(#linear2);" d="M 32.355469 44.5 L 42.460938 37.769531 L 52.554688 44.5 L 52.554688 55.714844 L 42.460938 62.445312 L 32.355469 55.714844 L 30.339844 48.984375 Z M 32.355469 44.5 "/><path style=" stroke:none;fill-rule:nonzero;fill:url(#linear3);" d="M 12.15625 44.5 L 16.195312 40.007812 L 22.253906 37.769531 L 32.355469 44.5 L 32.355469 55.714844 L 22.253906 62.445312 L 12.15625 55.714844 Z M 12.15625 44.5 "/><path style=" stroke:none;fill-rule:nonzero;fill:url(#linear4);" d="M 2.054688 26.546875 L 12.15625 19.816406 L 18.21875 22.058594 L 22.253906 26.546875 L 22.253906 37.769531 L 12.15625 44.5 L 2.054688 37.769531 Z M 2.054688 26.546875 "/><path style=" stroke:none;fill-rule:nonzero;fill:url(#linear5);" d="M 12.15625 8.59375 L 22.253906 1.863281 L 32.355469 8.59375 L 32.355469 19.816406 L 22.253906 26.546875 L 12.15625 19.816406 Z M 12.15625 8.59375 "/></g></svg>
