<svg width="64" height="64" viewBox="0 0 64 64" version="1.1" xmlns:inkscape="http://www.inkscape.org/namespaces/inkscape"><defs><linearGradient id="linear0" gradientUnits="userSpaceOnUse" x1="0" y1="0" x2="0" y2="1" gradientTransform="matrix(64,0,0,64,0,0)"><stop offset="0" style="stop-color:rgb(87.058824%,86.666667%,56.470591%);stop-opacity:1;"/><stop offset="1" style="stop-color:rgb(67.843139%,67.450982%,38.039216%);stop-opacity:1;"/></linearGradient><filter style="color-interpolation-filters:sRGB;" inkscape:label="Diffuse Light" id="filter184" x="-0.0375" y="-0.0375" width="1.075" height="1.075"><feGaussianBlur in="SourceGraphic" stdDeviation="1" result="blur" id="feGaussianBlur174" /><feDiffuseLighting diffuseConstant="1" surfaceScale="10" lighting-color="rgb(255,255,255)" result="diffuse" id="feDiffuseLighting178"><feDistantLight elevation="8" azimuth="235" id="feDistantLight176" /></feDiffuseLighting><feComposite in="diffuse" in2="diffuse" operator="arithmetic" k1="1" result="composite1" id="feComposite180" /><feComposite in="composite1" in2="SourceGraphic" k1="1" operator="arithmetic" k3="1" result="composite2" id="feComposite182" /></filter></defs><g id="surface1" style="filter:url(#filter184)"><path style=" stroke:none;fill-rule:nonzero;fill:url(#linear0);" d="M 32 0 C 28.363281 0.0117188 24.757812 0.644531 21.332031 1.867188 L 21.332031 42.667969 C 21.332031 44.636719 19.746094 46.222656 17.777344 46.222656 C 15.808594 46.222656 14.222656 44.636719 14.222656 42.667969 L 14.222656 5.425781 C 5.34375 11.355469 0.0078125 21.324219 0 32 C 0 49.671875 14.328125 64 32 64 C 49.671875 64 64 49.671875 64 32 C 64 14.328125 49.671875 0 32 0 Z M 30.019531 17.777344 C 30.28125 17.78125 30.535156 17.851562 30.765625 17.988281 L 41.652344 24.292969 L 52.539062 30.601562 C 53.03125 30.882812 53.335938 31.421875 53.335938 32 C 53.335938 32.578125 53.03125 33.113281 52.539062 33.394531 L 41.652344 39.707031 L 30.765625 46.011719 C 30.28125 46.292969 29.691406 46.285156 29.214844 46 C 28.738281 45.710938 28.445312 45.1875 28.445312 44.617188 L 28.445312 19.378906 C 28.445312 18.953125 28.613281 18.539062 28.90625 18.238281 C 29.203125 17.941406 29.605469 17.773438 30.019531 17.777344 Z M 30.019531 17.777344 "/></g></svg>
