<svg width="64" height="64" viewBox="0 0 64 64" version="1.1" xmlns:inkscape="http://www.inkscape.org/namespaces/inkscape"><defs><linearGradient id="linear0" gradientUnits="userSpaceOnUse" x1="0" y1="0" x2="0" y2="1" gradientTransform="matrix(64,0,0,64,0,0)"><stop offset="0" style="stop-color:rgb(100%,73.333335%,0%);stop-opacity:1;"/><stop offset="1" style="stop-color:rgb(70.19608%,51.372552%,0%);stop-opacity:1;"/></linearGradient><filter style="color-interpolation-filters:sRGB;" inkscape:label="Diffuse Light" id="filter184" x="-0.0375" y="-0.0375" width="1.075" height="1.075"><feGaussianBlur in="SourceGraphic" stdDeviation="1" result="blur" id="feGaussianBlur174" /><feDiffuseLighting diffuseConstant="1" surfaceScale="10" lighting-color="rgb(255,255,255)" result="diffuse" id="feDiffuseLighting178"><feDistantLight elevation="8" azimuth="235" id="feDistantLight176" /></feDiffuseLighting><feComposite in="diffuse" in2="diffuse" operator="arithmetic" k1="1" result="composite1" id="feComposite180" /><feComposite in="composite1" in2="SourceGraphic" k1="1" operator="arithmetic" k3="1" result="composite2" id="feComposite182" /></filter></defs><g id="surface1" style="filter:url(#filter184)"><path style=" stroke:none;fill-rule:nonzero;fill:url(#linear0);" d="M 64 0 L 0 20.480469 L 23.691406 30.332031 L 32 32 L 33.785156 40.519531 L 43.519531 64 Z M 20.589844 38.410156 C 20.320312 38.4375 19.976562 38.492188 19.660156 38.574219 C 17.230469 39.207031 13.703125 41.816406 11.8125 44.378906 C 9.667969 47.285156 8.527344 50.6875 8.53125 54.160156 C 8.535156 55.128906 8.574219 55.292969 8.863281 55.414062 C 9.1875 55.554688 11.933594 55.386719 13.042969 55.164062 C 16.257812 54.507812 18.988281 53.003906 21.433594 50.554688 C 22.96875 49.015625 23.878906 47.742188 24.773438 45.886719 C 25.355469 44.671875 25.746094 43.195312 25.542969 42.992188 C 25.503906 42.953125 25.183594 43.140625 24.832031 43.414062 C 22.183594 45.117188 20.066406 46.34375 17.066406 46.933594 C 17.84375 43.980469 18.675781 41.730469 20.222656 39.613281 C 20.671875 39.007812 21.039062 38.488281 21.039062 38.460938 C 21.039062 38.398438 20.855469 38.386719 20.589844 38.410156 Z M 20.589844 38.410156 "/></g></svg>
