<svg width="64" height="64" viewBox="0 0 64 64" version="1.1" xmlns:inkscape="http://www.inkscape.org/namespaces/inkscape"><defs><linearGradient id="linear0" gradientUnits="userSpaceOnUse" x1="0" y1="0" x2="0" y2="1" gradientTransform="matrix(69.561545,0,0,43.852249,-2.779119,10.239748)"><stop offset="0" style="stop-color:rgb(100%,63.137257%,63.137257%);stop-opacity:1;"/><stop offset="1" style="stop-color:rgb(100%,27.843139%,27.843139%);stop-opacity:1;"/></linearGradient><filter style="color-interpolation-filters:sRGB;" inkscape:label="Diffuse Light" id="filter184" x="-0.0375" y="-0.0375" width="1.075" height="1.075"><feGaussianBlur in="SourceGraphic" stdDeviation="1" result="blur" id="feGaussianBlur174" /><feDiffuseLighting diffuseConstant="1" surfaceScale="10" lighting-color="rgb(255,255,255)" result="diffuse" id="feDiffuseLighting178"><feDistantLight elevation="8" azimuth="235" id="feDistantLight176" /></feDiffuseLighting><feComposite in="diffuse" in2="diffuse" operator="arithmetic" k1="1" result="composite1" id="feComposite180" /><feComposite in="composite1" in2="SourceGraphic" k1="1" operator="arithmetic" k3="1" result="composite2" id="feComposite182" /></filter></defs><g id="surface1" style="filter:url(#filter184)"><path style=" stroke:none;fill-rule:nonzero;fill:url(#linear0);" d="M 30.023438 1.484375 L 15.617188 27.675781 L 1.214844 36.40625 L 17.671875 38.59375 L 5.339844 56.054688 L 23.855469 49.507812 L 25.902344 62.605469 L 36.1875 51.6875 L 52.644531 62.605469 L 46.472656 42.960938 L 62.929688 40.773438 L 48.527344 32.042969 L 58.816406 27.675781 L 50.585938 23.320312 L 60.871094 3.675781 L 38.242188 14.578125 M 29.0625 16.761719 L 35.101562 16.761719 L 35.101562 36.40625 L 27.964844 35.25 L 27.964844 17.921875 C 27.964844 17.28125 28.453125 16.761719 29.0625 16.761719 M 29.0625 38.59375 L 35.101562 38.59375 L 36.195312 46.167969 L 27.964844 46.167969 L 27.964844 39.753906 C 27.964844 39.113281 28.453125 38.59375 29.0625 38.59375 "/></g></svg>
