<svg width="64" height="64" viewBox="0 0 64 64" version="1.1" xmlns:inkscape="http://www.inkscape.org/namespaces/inkscape"><defs><linearGradient id="linear0" gradientUnits="userSpaceOnUse" x1="0" y1="0" x2="0" y2="1" gradientTransform="matrix(61.601637,0,0,43.820599,2.617611,10.740337)"><stop offset="0" style="stop-color:rgb(100%,63.137257%,63.137257%);stop-opacity:1;"/><stop offset="1" style="stop-color:rgb(100%,27.843139%,27.843139%);stop-opacity:1;"/></linearGradient><filter style="color-interpolation-filters:sRGB;" inkscape:label="Diffuse Light" id="filter184" x="-0.0375" y="-0.0375" width="1.075" height="1.075"><feGaussianBlur in="SourceGraphic" stdDeviation="1" result="blur" id="feGaussianBlur174" /><feDiffuseLighting diffuseConstant="1" surfaceScale="10" lighting-color="rgb(255,255,255)" result="diffuse" id="feDiffuseLighting178"><feDistantLight elevation="8" azimuth="235" id="feDistantLight176" /></feDiffuseLighting><feComposite in="diffuse" in2="diffuse" operator="arithmetic" k1="1" result="composite1" id="feComposite180" /><feComposite in="composite1" in2="SourceGraphic" k1="1" operator="arithmetic" k3="1" result="composite2" id="feComposite182" /></filter></defs><g id="surface1" style="filter:url(#filter184)"><path style=" stroke:none;fill-rule:nonzero;fill:url(#linear0);" d="M 17.472656 2.410156 L 1.628906 44.613281 L 8.941406 53.65625 L 16.253906 50.640625 L 23.566406 35.570312 L 21.128906 23.515625 L 24.492188 17.300781 L 23.578125 23.515625 L 26.015625 34.0625 L 43.078125 17.484375 L 52.828125 17.484375 L 55.269531 14.46875 L 47.957031 5.429688 L 35.765625 2.410156 L 23.578125 2.410156 L 28.457031 5.429688 L 26.015625 6.933594 Z M 45.507812 20.496094 L 40.628906 23.515625 L 47.941406 26.527344 L 50.378906 41.601562 L 62.570312 35.570312 L 57.691406 20.496094 Z M 38.191406 26.527344 L 21.128906 47.628906 L 18.691406 59.6875 L 30.878906 59.6875 L 38.191406 56.667969 L 47.941406 44.613281 L 47.941406 41.601562 L 45.453125 29.570312 Z M 62.570312 38.582031 L 51.597656 44.613281 L 43.066406 56.667969 L 47.941406 62.699219 L 60.128906 56.667969 L 62.570312 47.628906 Z M 62.570312 38.582031 "/></g></svg>
