<svg width="64" height="64" viewBox="0 0 64 64" version="1.1" xmlns:inkscape="http://www.inkscape.org/namespaces/inkscape"><defs><linearGradient id="linear0" gradientUnits="userSpaceOnUse" x1="0" y1="0" x2="0" y2="1" gradientTransform="matrix(48.382812,0,0,64,7.808594,0)"><stop offset="0" style="stop-color:rgb(100%,63.137257%,63.137257%);stop-opacity:1;"/><stop offset="1" style="stop-color:rgb(100%,27.843139%,27.843139%);stop-opacity:1;"/></linearGradient><filter style="color-interpolation-filters:sRGB;" inkscape:label="Diffuse Light" id="filter184" x="-0.0375" y="-0.0375" width="1.075" height="1.075"><feGaussianBlur in="SourceGraphic" stdDeviation="1" result="blur" id="feGaussianBlur174" /><feDiffuseLighting diffuseConstant="1" surfaceScale="10" lighting-color="rgb(255,255,255)" result="diffuse" id="feDiffuseLighting178"><feDistantLight elevation="8" azimuth="235" id="feDistantLight176" /></feDiffuseLighting><feComposite in="diffuse" in2="diffuse" operator="arithmetic" k1="1" result="composite1" id="feComposite180" /><feComposite in="composite1" in2="SourceGraphic" k1="1" operator="arithmetic" k3="1" result="composite2" id="feComposite182" /></filter></defs><g id="surface1" style="filter:url(#filter184)"><path style=" stroke:none;fill-rule:nonzero;fill:url(#linear0);" d="M 32.296875 11.699219 L 32.296875 19.160156 L 37.351562 13.683594 L 37.351562 0 L 27.351562 0 L 27.351562 9.265625 L 7.808594 29.265625 L 7.808594 31.265625 L 27.351562 31.265625 L 27.351562 42.949219 L 32.296875 42.949219 L 32.296875 37.894531 L 45.605469 37.894531 L 32.296875 53.984375 L 32.296875 46 L 27.351562 52.210938 L 27.351562 64 L 37.351562 64 L 37.351562 55.367188 L 56.191406 32.949219 L 37.351562 32.949219 L 37.351562 20.84375 L 32.296875 20.84375 L 32.296875 26.105469 L 18.015625 26.105469 Z M 32.296875 11.699219 "/></g></svg>
