<svg width="64" height="64" viewBox="0 0 64 64" version="1.1" xmlns:inkscape="http://www.inkscape.org/namespaces/inkscape"><defs><linearGradient id="linear0" gradientUnits="userSpaceOnUse" x1="0" y1="0" x2="0" y2="1" gradientTransform="matrix(54.859375,0,0,64,4.570312,0)"><stop offset="0" style="stop-color:rgb(92.941177%,83.529413%,72.549021%);stop-opacity:1;"/><stop offset="1" style="stop-color:rgb(81.960785%,71.372551%,59.215689%);stop-opacity:1;"/></linearGradient><filter style="color-interpolation-filters:sRGB;" inkscape:label="Diffuse Light" id="filter184" x="-0.0375" y="-0.0375" width="1.075" height="1.075"><feGaussianBlur in="SourceGraphic" stdDeviation="1" result="blur" id="feGaussianBlur174" /><feDiffuseLighting diffuseConstant="1" surfaceScale="10" lighting-color="rgb(255,255,255)" result="diffuse" id="feDiffuseLighting178"><feDistantLight elevation="8" azimuth="235" id="feDistantLight176" /></feDiffuseLighting><feComposite in="diffuse" in2="diffuse" operator="arithmetic" k1="1" result="composite1" id="feComposite180" /><feComposite in="composite1" in2="SourceGraphic" k1="1" operator="arithmetic" k3="1" result="composite2" id="feComposite182" /></filter></defs><g id="surface1" style="filter:url(#filter184)"><path style=" stroke:none;fill-rule:evenodd;fill:url(#linear0);" d="M 36.570312 19.035156 C 36.570312 25.765625 30.945312 25.128906 24 25.128906 C 17.054688 25.128906 11.429688 25.765625 11.429688 19.035156 C 11.429688 12.3125 17.054688 6.855469 24 6.855469 C 30.945312 6.855469 36.570312 12.3125 36.570312 19.035156 Z M 25.621094 64 L 41.621094 64 C 51.449219 64 59.429688 56.019531 59.429688 46.191406 L 59.429688 42.953125 C 59.429688 33.730469 52.40625 26.140625 43.429688 25.230469 L 43.429688 17.808594 C 43.429688 7.980469 35.449219 0 25.621094 0 L 22.378906 0 C 12.550781 0 4.570312 7.980469 4.570312 17.808594 L 4.570312 46.191406 C 4.570312 56.019531 12.550781 64 22.378906 64 Z M 20.570312 48 C 20.570312 49.890625 22.109375 51.429688 24 51.429688 C 25.890625 51.429688 27.429688 49.890625 27.429688 48 L 27.429688 43.023438 C 28.140625 42.214844 28.570312 41.160156 28.570312 40 C 28.570312 37.476562 26.523438 35.429688 24 35.429688 C 21.476562 35.429688 19.429688 37.476562 19.429688 40 C 19.429688 41.160156 19.859375 42.214844 20.570312 43.023438 Z M 20.570312 48 "/></g></svg>
