<svg xmlns="http://www.w3.org/2000/svg" xmlns:xlink="http://www.w3.org/1999/xlink" width="64" height="64" viewBox="0 0 64 64" version="1.1"><defs><filter id="alpha" filterUnits="objectBoundingBox" x="0%" y="0%" width="100%" height="100%"> <feColorMatrix type="matrix" in="SourceGraphic" values="0 0 0 0 1 0 0 0 0 1 0 0 0 0 1 0 0 0 1 0"/></filter><mask id="mask0"><rect x="0" y="0" width="64" height="64" style="fill:rgb(0%,0%,0%);fill-opacity:0.99;stroke:none;"/></mask><clipPath id="clip1"> <rect x="0" y="0" width="64" height="64"/></clipPath><path style=" stroke:none;fill-rule:nonzero;fill:rgb(64.705884%,81.960785%,78.039217%);fill-opacity:1;" d="M 62.9375 32.625 C 62.9375 49.757812 49.046875 63.648438 31.914062 63.648438 C 14.78125 63.648438 0.890625 49.757812 0.890625 32.625 C 0.890625 15.492188 14.78125 1.601562 31.914062 1.601562 C 49.046875 1.601562 62.9375 15.492188 62.9375 32.625 Z M 62.9375 32.625 "/></defs><use xlink:href="#surface5" mask="url(#mask0)"/><path style=" stroke:none;fill-rule:nonzero;fill:rgb(42.352942%,63.137257%,24.313726%);fill-opacity:1;" d="M 55.398438 27.089844 C 55.089844 26.238281 55.042969 25.296875 55.40625 24.46875 C 55.664062 23.882812 56.070312 23.3125 56.703125 23.09375 C 56.703125 23.09375 55.355469 19.632812 51.03125 23.285156 C 51.03125 23.285156 43.300781 27.820312 49.09375 38.035156 C 49.09375 38.035156 52.195312 41.753906 48.445312 50.140625 C 48.351562 50.378906 47.882812 51.566406 47.035156 53.707031 C 54.945312 42.359375 57.730469 33.488281 55.398438 27.089844 Z M 55.398438 27.089844 "/><path style=" stroke:none;fill-rule:nonzero;fill:rgb(65.882355%,90.588236%,44.313726%);fill-opacity:1;" d="M 48.445312 50.140625 C 52.195312 41.753906 49.09375 38.035156 49.09375 38.035156 C 43.300781 27.820312 51.03125 23.285156 51.03125 23.285156 C 51.703125 22.71875 52.292969 22.339844 52.828125 22.078125 C 49.21875 16.738281 43.421875 12.90625 36.519531 12 C 35.140625 11.820312 33.777344 11.769531 32.4375 11.828125 C 31.585938 9 29.742188 7.535156 29.742188 7.535156 C 27.882812 7.292969 26.796875 11.726562 26.589844 12.835938 C 23.890625 13.667969 21.382812 14.976562 19.183594 16.679688 C 18.027344 17.484375 16.9375 18.382812 15.941406 19.378906 C 16.023438 19.402344 16.109375 19.421875 16.191406 19.445312 C 8.898438 17.375 7.386719 20.257812 7.113281 21.089844 C 7.074219 21.210938 7.054688 21.339844 7.054688 21.46875 C 7.03125 23.550781 8.300781 24.839844 9.152344 25.46875 C 9.585938 25.789062 9.734375 26.355469 9.558594 26.867188 C 2.300781 47.625 26.171875 66.796875 44.796875 55.484375 C 44.914062 55.414062 45.007812 55.320312 45.089844 55.222656 C 45.695312 54.875 47.128906 53.636719 47.035156 53.707031 C 47.316406 52.996094 48.304688 50.5 48.445312 50.140625 Z M 48.445312 50.140625 "/><path style=" stroke:none;fill-rule:nonzero;fill:rgb(43.137255%,58.823532%,29.019609%);fill-opacity:1;" d="M 9.558594 26.867188 C 9.738281 26.359375 9.589844 25.789062 9.152344 25.46875 C 8.300781 24.839844 7.03125 23.554688 7.054688 21.472656 C 7.054688 21.34375 7.074219 21.214844 7.117188 21.09375 C 7.394531 20.246094 8.941406 17.253906 16.585938 19.554688 C 16.621094 19.5625 16.648438 19.574219 16.683594 19.585938 C 17.296875 19.816406 23.429688 22.34375 24.410156 31.5625 C 24.410156 31.5625 24.34375 35.511719 28.457031 36.945312 C 28.636719 37.007812 28.828125 36.988281 29.019531 37 C 31.761719 37.191406 37.976562 36.273438 37.011719 43.171875 C 37.011719 43.171875 33.714844 52.214844 44.269531 53.207031 C 44.5 53.230469 44.730469 53.316406 44.914062 53.460938 C 45.59375 53.992188 45.527344 55.039062 44.796875 55.484375 C 26.171875 66.796875 2.300781 47.625 9.558594 26.867188 Z M 9.558594 26.867188 "/><path style=" stroke:none;fill-rule:nonzero;fill:rgb(38.82353%,37.254903%,37.254903%);fill-opacity:1;" d="M 32.578125 14.375 C 33.71875 14.445312 34.84375 14.667969 35.929688 15.027344 C 37.214844 15.453125 35.601562 14.917969 35.929688 15.027344 C 40.164062 16.433594 44.027344 18.769531 47.242188 21.859375 C 47.789062 22.390625 49.164062 23.707031 51.359375 25.824219 L 42.65625 27.789062 C 42.332031 27.351562 42.132812 27.082031 42.050781 26.972656 C 39.890625 24.066406 37.027344 21.761719 33.726562 20.269531 C 33.378906 20.109375 34.730469 20.722656 33.726562 20.269531 C 32.574219 19.746094 31.378906 19.324219 30.15625 19.007812 C 28.738281 18.640625 25.195312 17.71875 19.53125 16.246094 C 20.324219 15.609375 20.824219 15.210938 21.019531 15.050781 C 22.066406 14.21875 23.382812 13.800781 24.71875 13.882812 C 26.632812 14.003906 30.589844 14.25 32.578125 14.375 Z M 32.578125 14.375 "/><path style=" stroke:none;fill-rule:nonzero;fill:rgb(53.333336%,70.19608%,38.82353%);fill-opacity:1;" d="M 16.890625 19.515625 C 17.476562 19.8125 23.3125 23.003906 23.285156 32.269531 C 23.285156 32.269531 22.789062 36.1875 26.730469 38.0625 C 26.902344 38.144531 27.097656 38.144531 27.28125 38.179688 C 29.992188 38.667969 36.285156 38.441406 34.574219 45.1875 C 34.574219 45.1875 31.0625 52.539062 41.46875 54.6875 C 41.699219 54.734375 44.714844 55.097656 44.882812 55.265625 C 44.894531 55.277344 46.390625 54.277344 46.402344 54.289062 C 54.910156 41.621094 38.996094 39.410156 38.996094 39.410156 C 38.996094 39.410156 26.191406 35.675781 31.410156 23.199219 C 36.632812 10.726562 32.304688 10.574219 32.304688 10.574219 C 30.03125 10.019531 27.375 14.335938 27.375 14.335938 C 23.273438 14.929688 19.398438 16.65625 16.175781 19.226562 C 16.382812 19.3125 16.582031 19.382812 16.800781 19.476562 C 16.832031 19.488281 16.859375 19.5 16.890625 19.515625 Z M 16.890625 19.515625 "/><path style=" stroke:none;fill-rule:nonzero;fill:rgb(38.82353%,37.254903%,37.254903%);fill-opacity:1;" d="M 58.632812 35.375 C 58.632812 41.234375 53.792969 45.992188 47.824219 45.992188 C 41.859375 45.992188 37.015625 41.234375 37.015625 35.375 C 37.015625 29.515625 41.859375 24.753906 47.824219 24.753906 C 53.792969 24.753906 58.632812 29.515625 58.632812 35.375 Z M 58.632812 35.375 "/><path style=" stroke:none;fill-rule:nonzero;fill:rgb(50.196081%,50.196081%,50.196081%);fill-opacity:1;" d="M 54.222656 35.753906 C 54.222656 38.671875 51.714844 41.039062 48.621094 41.039062 C 45.53125 41.039062 43.019531 38.671875 43.019531 35.753906 C 43.019531 32.839844 45.53125 30.46875 48.621094 30.46875 C 51.714844 30.46875 54.222656 32.839844 54.222656 35.753906 Z M 54.222656 35.753906 "/></svg>
