<?xml version="1.0" encoding="UTF-8" standalone="no"?><svg width="64" height="64" viewBox="0 0 64 64" version="1.1" id="svg19" sodipodi:docname="calf_plugin.svg" inkscape:version="1.2.2 (b0a8486541, 2022-12-01)" xmlns:inkscape="http://www.inkscape.org/namespaces/inkscape" xmlns:sodipodi="http://sodipodi.sourceforge.net/DTD/sodipodi-0.dtd" xmlns:xlink="http://www.w3.org/1999/xlink" xmlns="http://www.w3.org/2000/svg" xmlns:svg="http://www.w3.org/2000/svg"> <sodipodi:namedview id="namedview21" pagecolor="#ffffff" bordercolor="#000000" borderopacity="0.25" inkscape:showpageshadow="2" inkscape:pageopacity="0.0" inkscape:pagecheckerboard="0" inkscape:deskcolor="#d1d1d1" showgrid="false" inkscape:zoom="3.6875" inkscape:cx="32" inkscape:cy="32.135593" inkscape:window-width="1432" inkscape:window-height="844" inkscape:window-x="0" inkscape:window-y="0" inkscape:window-maximized="1" inkscape:current-layer="svg19" /> <defs id="defs13"> <filter id="alpha" filterUnits="objectBoundingBox" x="0%" y="0%" width="100%" height="100%"> <feColorMatrix type="matrix" in="SourceGraphic" values="0 0 0 0 1 0 0 0 0 1 0 0 0 0 1 0 0 0 1 0" id="feColorMatrix2" /> </filter> <mask id="mask0"> <rect x="0" y="0" width="64" height="64" style="fill:rgb(0%,0%,0%);fill-opacity:0.99;stroke:none;" id="rect5" /> </mask> <clipPath id="clip1"> <rect x="0" y="0" width="64" height="64" id="rect8" /> </clipPath> <path style=" stroke:none;fill-rule:nonzero;fill:rgb(51.372552%,68.235296%,63.529414%);fill-opacity:1;" d="M 62.9375 32.625 C 62.9375 49.757812 49.046875 63.648438 31.914062 63.648438 C 14.78125 63.648438 0.890625 49.757812 0.890625 32.625 C 0.890625 15.492188 14.78125 1.601562 31.914062 1.601562 C 49.046875 1.601562 62.9375 15.492188 62.9375 32.625 Z M 62.9375 32.625 " id="path11" /> <filter style="color-interpolation-filters:sRGB;" inkscape:label="Diffuse Light" id="filter191" x="-0.038998214" y="-0.038799457" width="1.0779964" height="1.0775989"> <feGaussianBlur in="SourceGraphic" stdDeviation="1" result="blur" id="feGaussianBlur181" /> <feDiffuseLighting diffuseConstant="1" surfaceScale="10" lighting-color="rgb(255,255,255)" result="diffuse" id="feDiffuseLighting185"> <feDistantLight elevation="8" azimuth="235" id="feDistantLight183" /> </feDiffuseLighting> <feComposite in="diffuse" in2="diffuse" operator="arithmetic" k1="1" result="composite1" id="feComposite187" /> <feComposite in="composite1" in2="SourceGraphic" k1="1" operator="arithmetic" k3="1" result="composite2" id="feComposite189" /> </filter> </defs> <use xlink:href="#surface5" mask="url(#mask0)" id="use15" /> <path style="fill:#deb887;fill-opacity:1;fill-rule:nonzero;stroke:none;stroke-width:1.72149;filter:url(#filter191)" d="m 45.258037,1.499512 c -3.806797,7.5586838 -8.333171,11.073083 -12.644833,11.073083 -4.311661,0 -8.652339,-3.4832293 -12.157376,-11.0185354 l -2.118112,1.7688867 c 2.100703,4.5118341 4.596011,7.8625907 7.30023,9.9743467 H 22.21415 c -1.021336,0 -1.955626,0.91172 -2.245779,2.228645 C 18.13461,11.294632 15.935257,8.6374041 13.323887,7.7490628 9.9175006,6.5957789 6.1861429,8.5594786 2.2342689,12.915464 l -0.638334,0.709113 0.365592,0.989641 c 2.0310647,5.524855 4.5495866,9.070424 7.7992911,10.247084 3.011779,1.083152 6.441378,0.06234 10.399054,-2.672811 l 1.032942,20.408447 c -2.553339,1.885776 -4.28845,5.532646 -4.28845,9.709404 0,6.093702 3.69654,11.049706 8.228716,11.049706 h 14.919628 c 4.537978,0 8.234518,-4.956004 8.234518,-11.049706 0,-4.3404 -1.880185,-8.104156 -4.601814,-9.912007 l 1.25926,-19.948694 c 3.800994,2.548135 7.102925,3.467643 10.021858,2.415661 3.249704,-1.17666 5.768226,-4.722229 7.799291,-10.247084 l 0.371394,-0.989641 -0.638334,-0.709113 C 58.547007,8.5594786 54.815651,6.5957789 51.409264,7.7490628 48.925561,8.5984423 46.813253,11.037481 45.03752,14.918125 44.631309,13.936276 43.830488,13.297293 42.977441,13.297293 h -3.284523 c 2.768053,-2.096171 5.373619,-5.4313428 7.631003,-9.9197991 z m -33.80273,8.743138 c 0.470046,-0.0078 0.922684,0.07013 1.352109,0.210396 2.292203,0.779246 4.40451,3.86506 6.27309,9.195102 -3.58628,2.431247 -6.511015,3.335172 -8.780005,2.516965 -2.2805962,-0.826002 -4.1897973,-3.436476 -5.94812,-7.745705 2.6926124,-2.735154 5.0718596,-4.161172 7.102926,-4.176758 z m 41.816734,0 c 2.031066,0.01559 4.416116,1.441604 7.108729,4.176758 -1.758322,4.309229 -3.673328,6.919703 -5.948121,7.745705 -2.268989,0.818207 -5.193723,-0.08572 -8.780005,-2.516965 1.868581,-5.330042 3.975084,-8.415856 6.267287,-9.195102 0.429427,-0.140265 0.882063,-0.218188 1.35211,-0.210396 z m -30.622663,6.748269 h 19.881228 l -1.537807,24.328056 c -0.30756,-0.04675 -0.620924,-0.07014 -0.940091,-0.07014 H 25.13308 c -0.423621,0 -0.835638,0.05455 -1.247654,0.132469 z m 18.1113,28.013891 c -0.232122,-0.03896 -0.464244,-0.06233 -0.70797,-0.06233 H 25.13308 c -0.359787,0 -0.713774,0.04675 -1.056152,0.140263 l -2.663598,1.800058 c -1.085169,1.332509 -1.758323,3.257247 -1.758323,5.423552 0,4.106625 2.419869,7.35608 5.478073,7.35608 h 14.919628 c 3.064007,0 5.478073,-3.249455 5.478073,-7.35608 0,-2.392286 -0.818231,-4.488457 -3.441205,-6.561252 -2.489508,6.545666 -17.513587,9.249649 -18.012648,-0.662358" id="path17" /></svg>
