<svg width="64" height="64" viewBox="0 0 64 64" version="1.1" xmlns:inkscape="http://www.inkscape.org/namespaces/inkscape"><defs><linearGradient id="linear0" gradientUnits="userSpaceOnUse" x1="0" y1="0" x2="0" y2="1" gradientTransform="matrix(61.888729,0,0,69.82069,0.979986,-1.556581)"><stop offset="0" style="stop-color:rgb(82.352942%,61.176473%,100%);stop-opacity:1;"/><stop offset="1" style="stop-color:rgb(66.666669%,0%,100%);stop-opacity:1;"/></linearGradient><filter style="color-interpolation-filters:sRGB;" inkscape:label="Diffuse Light" id="filter184" x="-0.0375" y="-0.0375" width="1.075" height="1.075"><feGaussianBlur in="SourceGraphic" stdDeviation="1" result="blur" id="feGaussianBlur174" /><feDiffuseLighting diffuseConstant="1" surfaceScale="10" lighting-color="rgb(255,255,255)" result="diffuse" id="feDiffuseLighting178"><feDistantLight elevation="8" azimuth="235" id="feDistantLight176" /></feDiffuseLighting><feComposite in="diffuse" in2="diffuse" operator="arithmetic" k1="1" result="composite1" id="feComposite180" /><feComposite in="composite1" in2="SourceGraphic" k1="1" operator="arithmetic" k3="1" result="composite2" id="feComposite182" /></filter></defs><g id="surface1" style="filter:url(#filter184)"><path style=" stroke:none;fill-rule:nonzero;fill:url(#linear0);" d="M 1.328125 5.835938 L 3.691406 15.773438 L 3.691406 10.828125 L 39.066406 11.542969 L 39.066406 16.484375 L 41.417969 6.648438 Z M 17.835938 23.472656 L 20.199219 33.402344 L 20.199219 28.460938 L 55.578125 29.175781 L 55.578125 34.117188 L 57.929688 24.277344 Z M 20.199219 35.875 C 18.894531 35.851562 17.835938 36.890625 17.835938 38.203125 L 17.835938 38.398438 C 17.835938 39.710938 18.894531 40.796875 20.199219 40.820312 L 36.707031 41.15625 C 38.011719 41.179688 39.0625 40.144531 39.0625 38.824219 L 39.0625 38.632812 C 39.0625 37.3125 38.011719 36.238281 36.707031 36.210938 Z M 55.578125 36.585938 C 54.269531 36.558594 53.210938 37.363281 53.210938 38.394531 L 53.210938 39.632812 C 53.210938 40.65625 54.269531 41.5 55.578125 41.53125 L 60.292969 41.628906 C 61.59375 41.652344 62.644531 40.84375 62.644531 39.828125 L 62.644531 38.585938 C 62.644531 37.5625 61.59375 36.710938 60.292969 36.683594 Z M 1.328125 50.320312 L 3.695312 60.257812 L 3.695312 55.3125 L 39.066406 56.03125 L 39.066406 60.96875 L 41.417969 51.136719 Z M 55.578125 51.417969 L 50.855469 56.269531 L 55.578125 61.300781 L 60.292969 56.457031 Z M 55.578125 51.417969 "/></g></svg>
