<svg width="64" height="64" viewBox="0 0 64 64" version="1.1" xmlns:inkscape="http://www.inkscape.org/namespaces/inkscape"><defs><linearGradient id="linear0" gradientUnits="userSpaceOnUse" x1="0" y1="0" x2="0" y2="1" gradientTransform="matrix(86.288947,0,0,66.842084,-11.207314,-1.489797)"><stop offset="0" style="stop-color:rgb(87.058824%,86.666667%,56.470591%);stop-opacity:1;"/><stop offset="1" style="stop-color:rgb(67.843139%,67.450982%,38.039216%);stop-opacity:1;"/></linearGradient><filter style="color-interpolation-filters:sRGB;" inkscape:label="Diffuse Light" id="filter184" x="-0.0375" y="-0.0375" width="1.075" height="1.075"><feGaussianBlur in="SourceGraphic" stdDeviation="1" result="blur" id="feGaussianBlur174" /><feDiffuseLighting diffuseConstant="1" surfaceScale="10" lighting-color="rgb(255,255,255)" result="diffuse" id="feDiffuseLighting178"><feDistantLight elevation="8" azimuth="235" id="feDistantLight176" /></feDiffuseLighting><feComposite in="diffuse" in2="diffuse" operator="arithmetic" k1="1" result="composite1" id="feComposite180" /><feComposite in="composite1" in2="SourceGraphic" k1="1" operator="arithmetic" k3="1" result="composite2" id="feComposite182" /></filter></defs><g id="surface1" style="filter:url(#filter184)"><path style=" stroke:none;fill-rule:nonzero;fill:url(#linear0);" d="M 37.054688 1.667969 C 31.691406 1.5625 26.40625 2.726562 24.765625 8.582031 L 27.675781 8.617188 C 27.675781 4.757812 35.453125 4.621094 38.59375 6.257812 C 33.90625 17.46875 12.847656 56.445312 7.359375 56.371094 L 4.457031 56.332031 L 1.546875 60.460938 L 7.359375 60.546875 C 12.058594 60.609375 20.132812 48.519531 27.488281 35.765625 L 42.996094 35.976562 C 44.628906 46.707031 46.503906 56.816406 47.984375 59.015625 C 50.863281 63.332031 56.683594 63.320312 62.488281 61.304688 L 62.488281 52.953125 C 62.488281 55.042969 59.519531 56.539062 56.683594 54.960938 C 53.410156 53.136719 47.984375 4.726562 47.984375 2.640625 C 45.441406 2.597656 41.230469 1.753906 37.054688 1.667969 Z M 39.960938 12.96875 C 40.515625 17.78125 41.316406 24.570312 42.359375 31.796875 L 29.84375 31.617188 C 33.84375 24.488281 37.414062 17.738281 39.960938 12.96875 Z M 39.960938 12.96875 "/></g></svg>
