<svg width="64" height="64" viewBox="0 0 64 64" version="1.1" xmlns:inkscape="http://www.inkscape.org/namespaces/inkscape"><defs><linearGradient id="linear0" gradientUnits="userSpaceOnUse" x1="0" y1="0" x2="0" y2="1" gradientTransform="matrix(72.668634,0,0,73.876003,-4.565059,-5.276732)"><stop offset="0" style="stop-color:rgb(41.960785%,64.313728%,100%);stop-opacity:1;"/><stop offset="1" style="stop-color:rgb(0%,43.137255%,100%);stop-opacity:1;"/></linearGradient><filter style="color-interpolation-filters:sRGB;" inkscape:label="Diffuse Light" id="filter184" x="-0.0375" y="-0.0375" width="1.075" height="1.075"><feGaussianBlur in="SourceGraphic" stdDeviation="1" result="blur" id="feGaussianBlur174" /><feDiffuseLighting diffuseConstant="1" surfaceScale="10" lighting-color="rgb(255,255,255)" result="diffuse" id="feDiffuseLighting178"><feDistantLight elevation="8" azimuth="235" id="feDistantLight176" /></feDiffuseLighting><feComposite in="diffuse" in2="diffuse" operator="arithmetic" k1="1" result="composite1" id="feComposite180" /><feComposite in="composite1" in2="SourceGraphic" k1="1" operator="arithmetic" k3="1" result="composite2" id="feComposite182" /></filter></defs><g id="surface1" style="filter:url(#filter184)"><path style=" stroke:none;fill-rule:nonzero;fill:url(#linear0);" d="M 1.179688 1.125 L 1.179688 21.636719 L 30.714844 21.636719 L 30.714844 1.125 Z M 50.386719 3.875 C 43.890625 3.875 38.625 9.207031 38.625 15.785156 C 38.625 22.355469 43.890625 27.683594 50.386719 27.683594 C 56.878906 27.683594 62.140625 22.355469 62.140625 15.785156 C 62.140625 9.207031 56.878906 3.875 50.386719 3.875 Z M 1.722656 28.914062 L 1.722656 62.65625 L 31.253906 62.65625 L 31.253906 28.914062 Z M 39.34375 36.292969 L 39.34375 56.980469 L 62.5 56.980469 L 62.5 36.292969 Z M 39.34375 36.292969 "/></g></svg>
