<svg width="64" height="64" viewBox="0 0 64 64" version="1.1" xmlns:inkscape="http://www.inkscape.org/namespaces/inkscape"><defs><linearGradient id="linear0" gradientUnits="userSpaceOnUse" x1="0" y1="0" x2="0" y2="1" gradientTransform="matrix(72.102458,0,0,73.930644,-3.842903,-4.621953)"><stop offset="0" style="stop-color:rgb(92.941177%,83.529413%,72.549021%);stop-opacity:1;"/><stop offset="1" style="stop-color:rgb(81.960785%,71.372551%,59.215689%);stop-opacity:1;"/></linearGradient><filter style="color-interpolation-filters:sRGB;" inkscape:label="Diffuse Light" id="filter184" x="-0.0375" y="-0.0375" width="1.075" height="1.075"><feGaussianBlur in="SourceGraphic" stdDeviation="1" result="blur" id="feGaussianBlur174" /><feDiffuseLighting diffuseConstant="1" surfaceScale="10" lighting-color="rgb(255,255,255)" result="diffuse" id="feDiffuseLighting178"><feDistantLight elevation="8" azimuth="235" id="feDistantLight176" /></feDiffuseLighting><feComposite in="diffuse" in2="diffuse" operator="arithmetic" k1="1" result="composite1" id="feComposite180" /><feComposite in="composite1" in2="SourceGraphic" k1="1" operator="arithmetic" k3="1" result="composite2" id="feComposite182" /></filter></defs><g id="surface1" style="filter:url(#filter184)"><path style=" stroke:none;fill-rule:nonzero;fill:url(#linear0);" d="M 61.855469 4.238281 L 51.882812 2.285156 C 53.515625 4.140625 54.574219 6.140625 55.351562 8.824219 C 56.605469 13.054688 56.554688 18.375 55.308594 24.261719 C 53.707031 31.503906 50.570312 38.765625 42.988281 52.410156 C 41.960938 47.972656 41.277344 44.984375 40.964844 43.921875 L 37.53125 30.335938 C 36.363281 25.714844 34.96875 20.011719 33.402344 13.371094 C 32.851562 10.859375 32.304688 8.375 31.660156 5.871094 L 26.761719 8.121094 C 24.566406 15.65625 15.230469 40.585938 10.949219 50.445312 C 9.699219 42.636719 7.1875 21.445312 6.078125 9.875 C 7.890625 9.1875 8.84375 8.503906 10.152344 6.753906 C 6.683594 6.816406 4.335938 6.859375 1.960938 6.902344 L 5.328125 62.863281 L 10.78125 60.964844 C 18.847656 40.472656 21.027344 34.871094 26.992188 18.34375 C 30.203125 29.898438 36.257812 53.972656 37.976562 62.742188 L 43.511719 60.695312 C 45.292969 55.664062 45.941406 54.007812 49.824219 46.359375 C 61.035156 24.523438 64.25 13.519531 61.855469 4.238281 Z M 61.855469 4.238281 "/></g></svg>
