<svg width="64" height="64" viewBox="0 0 64 64" version="1.1" xmlns:inkscape="http://www.inkscape.org/namespaces/inkscape"><defs><linearGradient id="linear0" gradientUnits="userSpaceOnUse" x1="0" y1="0" x2="0" y2="1" gradientTransform="matrix(56,0,0,64,4,0)"><stop offset="0" style="stop-color:rgb(75.686276%,77.64706%,83.92157%);stop-opacity:1;"/><stop offset="1" style="stop-color:rgb(43.529412%,45.09804%,50.196081%);stop-opacity:1;"/></linearGradient><filter style="color-interpolation-filters:sRGB;" inkscape:label="Diffuse Light" id="filter184" x="-0.0375" y="-0.0375" width="1.075" height="1.075"><feGaussianBlur in="SourceGraphic" stdDeviation="1" result="blur" id="feGaussianBlur174" /><feDiffuseLighting diffuseConstant="1" surfaceScale="10" lighting-color="rgb(255,255,255)" result="diffuse" id="feDiffuseLighting178"><feDistantLight elevation="8" azimuth="235" id="feDistantLight176" /></feDiffuseLighting><feComposite in="diffuse" in2="diffuse" operator="arithmetic" k1="1" result="composite1" id="feComposite180" /><feComposite in="composite1" in2="SourceGraphic" k1="1" operator="arithmetic" k3="1" result="composite2" id="feComposite182" /></filter></defs><g id="surface1" style="filter:url(#filter184)"><path style=" stroke:none;fill-rule:nonzero;fill:url(#linear0);" d="M 32 64 C 16.542969 64 4 59.859375 4 54.828125 L 4 45.65625 C 4 44.867188 4.402344 44.082031 5.003906 43.390625 C 8.113281 47.335938 18.953125 50.292969 32 50.292969 C 45.046875 50.292969 55.886719 47.335938 58.996094 43.390625 C 59.597656 44.082031 60 44.867188 60 45.65625 L 60 54.828125 C 60 59.859375 47.457031 64 32 64 Z M 32 45.65625 C 16.542969 45.65625 4 41.515625 4 36.488281 L 4 27.316406 C 4 26.824219 4.199219 26.328125 4.402344 25.933594 L 5.003906 25.046875 C 8.113281 28.992188 18.953125 31.949219 32 31.949219 C 45.046875 31.949219 55.886719 28.992188 58.996094 25.046875 L 59.597656 25.933594 C 59.800781 26.429688 60 26.921875 60 27.316406 L 60 36.488281 C 60 41.613281 47.457031 45.65625 32 45.65625 Z M 32 27.414062 C 16.542969 27.414062 4 23.273438 4 18.242188 L 4 9.171875 C 4 4.140625 16.542969 0 32 0 C 47.457031 0 60 4.140625 60 9.171875 L 60 18.242188 C 60 23.273438 47.457031 27.414062 32 27.414062 Z M 32 4.4375 C 21.664062 4.4375 13.332031 6.507812 13.332031 8.972656 C 13.332031 11.4375 21.664062 13.511719 32 13.511719 C 42.335938 13.511719 50.667969 11.4375 50.667969 8.972656 C 50.667969 6.507812 42.335938 4.4375 32 4.4375 Z M 32 4.4375 "/></g></svg>
