<svg width="64" height="64" viewBox="0 0 64 64" version="1.1" xmlns:inkscape="http://www.inkscape.org/namespaces/inkscape"><defs><linearGradient id="linear0" gradientUnits="userSpaceOnUse" x1="0" y1="0" x2="0" y2="1" gradientTransform="matrix(96.007095,0,0,71.550621,-16.948893,-4.645763)"><stop offset="0" style="stop-color:rgb(61.176473%,69.803923%,85.09804%);stop-opacity:1;"/><stop offset="1" style="stop-color:rgb(44.313726%,52.156866%,65.882355%);stop-opacity:1;"/></linearGradient><filter style="color-interpolation-filters:sRGB;" inkscape:label="Diffuse Light" id="filter184" x="-0.0375" y="-0.0375" width="1.075" height="1.075"><feGaussianBlur in="SourceGraphic" stdDeviation="1" result="blur" id="feGaussianBlur174" /><feDiffuseLighting diffuseConstant="1" surfaceScale="10" lighting-color="rgb(255,255,255)" result="diffuse" id="feDiffuseLighting178"><feDistantLight elevation="8" azimuth="235" id="feDistantLight176" /></feDiffuseLighting><feComposite in="diffuse" in2="diffuse" operator="arithmetic" k1="1" result="composite1" id="feComposite180" /><feComposite in="composite1" in2="SourceGraphic" k1="1" operator="arithmetic" k3="1" result="composite2" id="feComposite182" /></filter></defs><g id="surface1" style="filter:url(#filter184)"><path style=" stroke:none;fill-rule:nonzero;fill:url(#linear0);" d="M 2.363281 2.398438 L 2.363281 44.917969 L 20.199219 44.917969 L 2.363281 60.863281 L 61.800781 60.863281 L 61.800781 7.710938 L 48.085938 19.980469 L 48.085938 2.398438 Z M 6.9375 10.371094 L 43.511719 10.371094 L 43.511719 24.066406 L 38.027344 28.972656 L 18.371094 28.972656 L 18.371094 31.628906 L 35.058594 31.628906 L 26.140625 39.601562 L 6.9375 39.601562 Z M 12.652344 15.683594 C 10.761719 15.683594 9.222656 17.464844 9.222656 19.667969 C 9.222656 21.871094 10.761719 23.65625 12.652344 23.65625 C 14.546875 23.65625 16.082031 21.871094 16.082031 19.667969 C 16.082031 17.464844 14.546875 15.683594 12.652344 15.683594 Z M 12.652344 18.34375 C 13.289062 18.34375 13.796875 18.9375 13.796875 19.667969 C 13.796875 20.410156 13.289062 21 12.652344 21 C 12.023438 21 11.511719 20.410156 11.511719 19.667969 C 11.511719 18.9375 12.023438 18.34375 12.652344 18.34375 Z M 18.371094 18.34375 L 18.371094 21 L 38.945312 21 L 38.945312 18.34375 Z M 12.652344 26.316406 C 10.761719 26.316406 9.222656 28.101562 9.222656 30.304688 C 9.222656 32.5 10.761719 34.289062 12.652344 34.289062 C 14.546875 34.289062 16.082031 32.5 16.082031 30.304688 C 16.082031 28.101562 14.546875 26.316406 12.652344 26.316406 Z M 12.652344 28.972656 C 13.289062 28.972656 13.796875 29.566406 13.796875 30.304688 C 13.796875 31.035156 13.289062 31.628906 12.652344 31.628906 C 12.023438 31.628906 11.511719 31.035156 11.511719 30.304688 C 11.511719 29.566406 12.023438 28.972656 12.652344 28.972656 Z M 52.660156 30.304688 L 52.660156 50.234375 L 29.796875 50.234375 L 35.890625 44.917969 L 48.085938 44.917969 L 48.085938 34.289062 Z M 52.660156 30.304688 "/></g></svg>
