<svg width="64" height="64" viewBox="0 0 64 64" version="1.1" xmlns:inkscape="http://www.inkscape.org/namespaces/inkscape"><defs><linearGradient id="linear0" gradientUnits="userSpaceOnUse" x1="0" y1="0" x2="0" y2="1" gradientTransform="matrix(89.709825,0,0,41.936021,-14.644312,11.058235)"><stop offset="0" style="stop-color:rgb(0%,78.823531%,36.862746%);stop-opacity:1;"/><stop offset="1" style="stop-color:rgb(0%,54.11765%,25.098041%);stop-opacity:1;"/></linearGradient><filter style="color-interpolation-filters:sRGB;" inkscape:label="Diffuse Light" id="filter184" x="-0.0375" y="-0.0375" width="1.075" height="1.075"><feGaussianBlur in="SourceGraphic" stdDeviation="1" result="blur" id="feGaussianBlur174" /><feDiffuseLighting diffuseConstant="1" surfaceScale="10" lighting-color="rgb(255,255,255)" result="diffuse" id="feDiffuseLighting178"><feDistantLight elevation="8" azimuth="235" id="feDistantLight176" /></feDiffuseLighting><feComposite in="diffuse" in2="diffuse" operator="arithmetic" k1="1" result="composite1" id="feComposite180" /><feComposite in="composite1" in2="SourceGraphic" k1="1" operator="arithmetic" k3="1" result="composite2" id="feComposite182" /></filter></defs><g id="surface1" style="filter:url(#filter184)"><path style=" stroke:none;fill-rule:nonzero;fill:url(#linear0);" d="M 32.589844 1.863281 C 30.855469 1.863281 29.453125 2.839844 29.453125 4.050781 L 29.453125 10.609375 C 20.0625 10.609375 7.535156 18.261719 7.535156 32.480469 C 7.535156 46.691406 20.0625 54.347656 29.453125 54.347656 L 29.453125 60.914062 C 29.453125 62.117188 30.855469 63.097656 32.589844 63.097656 C 34.320312 63.097656 35.714844 62.117188 35.714844 60.914062 L 35.714844 54.347656 C 48.242188 54.316406 57.617188 47.789062 57.640625 39.039062 C 57.644531 37.808594 56.253906 36.835938 54.511719 36.855469 C 52.761719 36.875 51.375 37.835938 51.375 39.039062 C 51.394531 45.597656 45.101562 50.003906 35.714844 49.972656 L 35.714844 14.980469 C 41.929688 15.011719 46.1875 16.554688 48.871094 19.359375 C 44.964844 19.710938 41.980469 21.941406 41.980469 24.828125 C 41.980469 27.710938 45.484375 30.292969 49.808594 30.292969 C 54.136719 30.292969 57.640625 27.84375 57.640625 24.828125 C 57.640625 14.980469 45.109375 10.609375 35.714844 10.609375 L 35.714844 4.050781 C 35.714844 2.839844 34.320312 1.863281 32.589844 1.863281 Z M 29.453125 16.078125 L 29.453125 48.882812 C 26.324219 47.789062 23.195312 45.121094 23.195312 32.480469 C 23.195312 19.839844 26.324219 17.175781 29.453125 16.078125 Z M 29.453125 16.078125 "/></g></svg>
