<svg width="64" height="64" viewBox="0 0 64 64" version="1.1" xmlns:inkscape="http://www.inkscape.org/namespaces/inkscape"><defs><linearGradient id="linear0" gradientUnits="userSpaceOnUse" x1="0" y1="0" x2="0" y2="1" gradientTransform="matrix(107.800523,0,0,68.101637,-22.836975,-3.735419)"><stop offset="0" style="stop-color:rgb(0%,73.333335%,100%);stop-opacity:1;"/><stop offset="1" style="stop-color:rgb(0%,52.156866%,70.980394%);stop-opacity:1;"/></linearGradient><filter style="color-interpolation-filters:sRGB;" inkscape:label="Diffuse Light" id="filter184" x="-0.0375" y="-0.0375" width="1.075" height="1.075"><feGaussianBlur in="SourceGraphic" stdDeviation="1" result="blur" id="feGaussianBlur174" /><feDiffuseLighting diffuseConstant="1" surfaceScale="10" lighting-color="rgb(255,255,255)" result="diffuse" id="feDiffuseLighting178"><feDistantLight elevation="8" azimuth="235" id="feDistantLight176" /></feDiffuseLighting><feComposite in="diffuse" in2="diffuse" operator="arithmetic" k1="1" result="composite1" id="feComposite180" /><feComposite in="composite1" in2="SourceGraphic" k1="1" operator="arithmetic" k3="1" result="composite2" id="feComposite182" /></filter></defs><g id="surface1" style="filter:url(#filter184)"><path style=" stroke:none;fill-rule:nonzero;fill:url(#linear0);" d="M 17.226562 2.144531 L 48.03125 2.144531 C 56.546875 2.144531 63.429688 8.921875 63.429688 17.320312 L 63.429688 47.671875 C 63.429688 56.070312 56.546875 62.847656 48.03125 62.847656 L 17.226562 62.847656 C 8.710938 62.847656 1.828125 56.070312 1.828125 47.671875 L 1.828125 17.320312 C 1.828125 8.921875 8.710938 2.144531 17.226562 2.144531 Z M 17.226562 2.144531 "/><path style=" stroke:none;fill-rule:nonzero;fill:rgb(97.254902%,97.254902%,97.254902%);fill-opacity:1;" d="M 31.777344 10.269531 C 20.40625 10.269531 11.242188 19.175781 11.242188 30.257812 L 11.242188 35.820312 C 11.242188 46.898438 20.40625 55.800781 31.777344 55.800781 C 43.148438 55.800781 52.3125 49.019531 52.3125 40.625 L 44.613281 40.625 C 44.613281 46.242188 38.886719 50.738281 31.777344 50.738281 C 24.664062 50.738281 18.941406 43.964844 18.941406 35.558594 L 18.941406 30.507812 C 18.941406 22.105469 24.664062 15.328125 31.777344 15.328125 C 38.886719 15.328125 44.613281 19.828125 44.613281 25.445312 L 52.3125 25.445312 C 52.3125 17.050781 43.148438 10.269531 31.777344 10.269531 Z M 31.777344 10.269531 "/></g></svg>
