<svg width="64" height="64" viewBox="0 0 64 64" version="1.1" xmlns:inkscape="http://www.inkscape.org/namespaces/inkscape"><defs><linearGradient id="linear0" gradientUnits="userSpaceOnUse" x1="0" y1="0" x2="0" y2="1" gradientTransform="matrix(106.793301,0,0,67.556305,-23.681989,-3.816721)"><stop offset="0" style="stop-color:rgb(100%,56.862748%,82.745099%);stop-opacity:1;"/><stop offset="1" style="stop-color:rgb(100%,0%,60.000002%);stop-opacity:1;"/></linearGradient><filter style="color-interpolation-filters:sRGB;" inkscape:label="Diffuse Light" id="filter184" x="-0.0375" y="-0.0375" width="1.075" height="1.075"><feGaussianBlur in="SourceGraphic" stdDeviation="1" result="blur" id="feGaussianBlur174" /><feDiffuseLighting diffuseConstant="1" surfaceScale="10" lighting-color="rgb(255,255,255)" result="diffuse" id="feDiffuseLighting178"><feDistantLight elevation="8" azimuth="235" id="feDistantLight176" /></feDiffuseLighting><feComposite in="diffuse" in2="diffuse" operator="arithmetic" k1="1" result="composite1" id="feComposite180" /><feComposite in="composite1" in2="SourceGraphic" k1="1" operator="arithmetic" k3="1" result="composite2" id="feComposite182" /></filter></defs><g id="surface1" style="filter:url(#filter184)"><path style=" stroke:none;fill-rule:nonzero;fill:url(#linear0);" d="M 32.253906 2.359375 C 15.40625 2.359375 1.742188 15.839844 1.742188 32.46875 C 1.746094 39.773438 4.4375 46.828125 9.328125 52.316406 C 8.992188 56.484375 6.628906 57.738281 4.292969 60.070312 C 9.328125 60.070312 13.269531 58.96875 15.347656 57.511719 C 20.359375 60.816406 26.234375 62.570312 32.253906 62.578125 C 49.101562 62.578125 62.765625 49.09375 62.765625 32.46875 C 62.765625 15.839844 49.101562 2.359375 32.253906 2.359375 Z M 32.253906 2.359375 "/><path style=" stroke:none;fill-rule:nonzero;fill:rgb(86.274511%,86.274511%,86.274511%);fill-opacity:1;" d="M 17 24.941406 C 14.1875 24.941406 11.921875 27.191406 11.921875 29.957031 C 11.921875 32.734375 14.1875 34.980469 17 34.980469 C 19.808594 34.980469 22.085938 32.734375 22.085938 29.957031 C 22.085938 27.191406 19.808594 24.941406 17 24.941406 Z M 42.433594 24.941406 C 39.625 24.941406 37.34375 27.191406 37.34375 29.957031 C 37.34375 32.734375 39.625 34.980469 42.433594 34.980469 C 45.238281 34.980469 47.511719 32.734375 47.511719 29.957031 C 47.511719 27.191406 45.238281 24.941406 42.433594 24.941406 Z M 42.433594 24.941406 "/></g></svg>
