<svg width="64" height="64" viewBox="0 0 64 64" version="1.1" xmlns:inkscape="http://www.inkscape.org/namespaces/inkscape"><defs><linearGradient id="linear0" gradientUnits="userSpaceOnUse" x1="0" y1="0" x2="0" y2="1" gradientTransform="matrix(56,0,0,35.898438,4,14.050781)"><stop offset="0" style="stop-color:rgb(100%,63.137257%,63.137257%);stop-opacity:1;"/><stop offset="1" style="stop-color:rgb(100%,27.843139%,27.843139%);stop-opacity:1;"/></linearGradient><filter style="color-interpolation-filters:sRGB;" inkscape:label="Diffuse Light" id="filter184" x="-0.0375" y="-0.0375" width="1.075" height="1.075"><feGaussianBlur in="SourceGraphic" stdDeviation="1" result="blur" id="feGaussianBlur174" /><feDiffuseLighting diffuseConstant="1" surfaceScale="10" lighting-color="rgb(255,255,255)" result="diffuse" id="feDiffuseLighting178"><feDistantLight elevation="8" azimuth="235" id="feDistantLight176" /></feDiffuseLighting><feComposite in="diffuse" in2="diffuse" operator="arithmetic" k1="1" result="composite1" id="feComposite180" /><feComposite in="composite1" in2="SourceGraphic" k1="1" operator="arithmetic" k3="1" result="composite2" id="feComposite182" /></filter></defs><g id="surface1" style="filter:url(#filter184)"><path style=" stroke:none;fill-rule:nonzero;fill:url(#linear0);" d="M 23.34375 14.746094 L 19.34375 22.746094 L 3.476562 22.746094 C 2.507812 25.761719 2.011719 28.90625 2.011719 32.082031 C 2.023438 35.253906 2.527344 38.402344 3.503906 41.414062 L 28.703125 41.414062 L 32.703125 48.082031 L 36.703125 41.414062 L 61.902344 41.414062 C 62.875 38.402344 63.371094 35.253906 63.371094 32.082031 C 63.359375 28.90625 62.855469 25.761719 61.878906 22.746094 L 46.011719 22.746094 L 42.011719 14.746094 L 38.011719 22.746094 L 27.34375 22.746094 Z M 23.34375 14.746094 "/><path style=" stroke:none;fill-rule:nonzero;fill:rgb(86.666667%,86.666667%,86.666667%);fill-opacity:1;" d="M 24 29.332031 L 24 34.667969 L 28 34.667969 L 28 29.332031 Z M 36 29.332031 L 36 34.667969 L 40 34.667969 L 40 29.332031 Z M 36 29.332031 "/></g></svg>
