<svg xmlns="http://www.w3.org/2000/svg" xmlns:xlink="http://www.w3.org/1999/xlink" width="64" height="64" viewBox="0 0 64 64" version="1.1"><defs><filter id="alpha" filterUnits="objectBoundingBox" x="0%" y="0%" width="100%" height="100%"> <feColorMatrix type="matrix" in="SourceGraphic" values="0 0 0 0 1 0 0 0 0 1 0 0 0 0 1 0 0 0 1 0"/></filter><mask id="mask0"><rect x="0" y="0" width="64" height="64" style="fill:rgb(0%,0%,0%);fill-opacity:0.99;stroke:none;"/></mask><clipPath id="clip1"> <rect x="0" y="0" width="64" height="64"/></clipPath></defs><use xlink:href="#surface5" mask="url(#mask0)"/><path style=" stroke:none;fill-rule:nonzero;fill:rgb(100%,100%,100%);fill-opacity:1;" d="M 15.742188 14 L 19.742188 14 C 20.847656 14 21.742188 14.894531 21.742188 16 L 21.742188 44 C 21.742188 45.105469 20.847656 46 19.742188 46 L 15.742188 46 C 14.636719 46 13.742188 45.105469 13.742188 44 L 13.742188 16 C 13.742188 14.894531 14.636719 14 15.742188 14 Z M 15.742188 14 "/><path style=" stroke:none;fill-rule:nonzero;fill:rgb(100%,100%,100%);fill-opacity:1;" d="M 25.742188 14 L 29.742188 14 C 30.847656 14 31.742188 14.894531 31.742188 16 L 31.742188 44 C 31.742188 45.105469 30.847656 46 29.742188 46 L 25.742188 46 C 24.636719 46 23.742188 45.105469 23.742188 44 L 23.742188 16 C 23.742188 14.894531 24.636719 14 25.742188 14 Z M 25.742188 14 "/><path style="fill:none;stroke-width:1;stroke-linecap:butt;stroke-linejoin:miter;stroke:rgb(43.529412%,56.862748%,48.627451%);stroke-opacity:1;stroke-miterlimit:4;" d="M 7.5 30 L 25.5 30 " transform="matrix(1.333333,0,0,1.333333,0,0)"/><path style="fill:none;stroke-width:1;stroke-linecap:butt;stroke-linejoin:miter;stroke:rgb(43.529412%,56.862748%,48.627451%);stroke-opacity:1;stroke-miterlimit:4;" d="M 9 15 L 25.5 15 " transform="matrix(1.333333,0,0,1.333333,0,0)"/><path style=" stroke:none;fill-rule:nonzero;fill:rgb(100%,100%,100%);fill-opacity:0.607843;" d="M 32.707031 17.625 L 36.234375 15.742188 C 37.210938 15.222656 38.421875 15.589844 38.941406 16.566406 L 52.117188 41.269531 C 52.636719 42.246094 52.269531 43.457031 51.292969 43.976562 L 47.765625 45.859375 C 46.789062 46.378906 45.578125 46.011719 45.058594 45.035156 L 31.882812 20.328125 C 31.363281 19.355469 31.730469 18.144531 32.707031 17.625 Z M 32.707031 17.625 "/><path style="fill-rule:evenodd;fill:rgb(43.529412%,56.862748%,48.627451%);fill-opacity:1;stroke-width:1;stroke-linecap:butt;stroke-linejoin:miter;stroke:rgb(43.529412%,56.862748%,48.627451%);stroke-opacity:1;stroke-miterlimit:4;" d="M 24 18 L 33 13.5 " transform="matrix(1.333333,0,0,1.333333,0,0)"/><path style="fill-rule:evenodd;fill:rgb(43.529412%,56.862748%,48.627451%);fill-opacity:1;stroke-width:1;stroke-linecap:butt;stroke-linejoin:miter;stroke:rgb(43.529412%,56.862748%,48.627451%);stroke-opacity:1;stroke-miterlimit:4;" d="M 31.5 31.5 L 40.5 27 " transform="matrix(1.333333,0,0,1.333333,0,0)"/></svg>
