<svg width="64" height="64" viewBox="0 0 64 64" version="1.1" xmlns:inkscape="http://www.inkscape.org/namespaces/inkscape"><defs><linearGradient id="linear0" gradientUnits="userSpaceOnUse" x1="0" y1="0" x2="0" y2="1" gradientTransform="matrix(72.46256,0,0,45.741133,-3.098818,8.472907)"><stop offset="0" style="stop-color:rgb(61.176473%,69.803923%,85.09804%);stop-opacity:1;"/><stop offset="1" style="stop-color:rgb(44.313726%,52.156866%,65.882355%);stop-opacity:1;"/></linearGradient><filter style="color-interpolation-filters:sRGB;" inkscape:label="Diffuse Light" id="filter184" x="-0.0375" y="-0.0375" width="1.075" height="1.075"><feGaussianBlur in="SourceGraphic" stdDeviation="1" result="blur" id="feGaussianBlur174" /><feDiffuseLighting diffuseConstant="1" surfaceScale="10" lighting-color="rgb(255,255,255)" result="diffuse" id="feDiffuseLighting178"><feDistantLight elevation="8" azimuth="235" id="feDistantLight176" /></feDiffuseLighting><feComposite in="diffuse" in2="diffuse" operator="arithmetic" k1="1" result="composite1" id="feComposite180" /><feComposite in="composite1" in2="SourceGraphic" k1="1" operator="arithmetic" k3="1" result="composite2" id="feComposite182" /></filter></defs><g id="surface1" style="filter:url(#filter184)"><path style=" stroke:none;fill-rule:nonzero;fill:url(#linear0);" d="M 1.71875 62.675781 L 1.71875 60.136719 C 7.382812 60.136719 13.050781 58.863281 13.050781 55.066406 L 13.050781 9.402344 C 13.050781 5.496094 7.382812 4.328125 1.71875 4.328125 L 1.71875 1.792969 L 57.496094 1.792969 L 58.359375 17.015625 L 55.53125 17.015625 C 55.53125 14.476562 53.988281 6.867188 47.03125 6.867188 L 24.378906 6.867188 L 24.378906 29.695312 L 44.195312 29.695312 C 48.609375 29.695312 49.863281 27.15625 49.863281 22.085938 L 52.695312 22.085938 L 52.695312 42.382812 L 49.863281 42.382812 C 49.863281 37.304688 48.316406 34.773438 44.195312 34.773438 L 24.378906 34.773438 L 24.378906 52.527344 C 24.378906 55.066406 27.207031 57.605469 30.039062 57.605469 L 47.03125 57.605469 C 52.695312 57.605469 58.105469 55.378906 59.652344 47.453125 L 62.824219 47.453125 L 61.195312 62.675781 Z M 1.71875 62.675781 "/></g></svg>
