<svg width="64" height="64" viewBox="0 0 64 64" version="1.1" xmlns:inkscape="http://www.inkscape.org/namespaces/inkscape"><defs><linearGradient id="linear0" gradientUnits="userSpaceOnUse" x1="0" y1="0" x2="0" y2="1" gradientTransform="matrix(72.437539,0,0,46.40952,-5.471218,8.173806)"><stop offset="0" style="stop-color:rgb(75.686276%,77.64706%,83.92157%);stop-opacity:1;"/><stop offset="1" style="stop-color:rgb(43.529412%,45.09804%,50.196081%);stop-opacity:1;"/></linearGradient><filter style="color-interpolation-filters:sRGB;" inkscape:label="Diffuse Light" id="filter184" x="-0.0375" y="-0.0375" width="1.075" height="1.075"><feGaussianBlur in="SourceGraphic" stdDeviation="1" result="blur" id="feGaussianBlur174" /><feDiffuseLighting diffuseConstant="1" surfaceScale="10" lighting-color="rgb(255,255,255)" result="diffuse" id="feDiffuseLighting178"><feDistantLight elevation="8" azimuth="235" id="feDistantLight176" /></feDiffuseLighting><feComposite in="diffuse" in2="diffuse" operator="arithmetic" k1="1" result="composite1" id="feComposite180" /><feComposite in="composite1" in2="SourceGraphic" k1="1" operator="arithmetic" k3="1" result="composite2" id="feComposite182" /></filter></defs><g id="surface1" style="filter:url(#filter184)"><path style=" stroke:none;fill-rule:nonzero;fill:url(#linear0);" d="M 8.375 1.9375 C 3.660156 1.9375 1.300781 6.507812 1.300781 10.996094 C 1.300781 23.078125 12.285156 62.328125 20.171875 62.328125 C 27.25 62.328125 29.609375 54.3125 31.96875 41.191406 C 34.328125 54.3125 36.691406 62.328125 43.765625 62.328125 C 51.65625 62.328125 62.640625 23.078125 62.640625 10.996094 C 62.640625 6.507812 60.28125 1.9375 55.5625 1.9375 C 49.664062 1.9375 47.007812 17.035156 43.765625 26.097656 C 41.402344 17.035156 38.234375 1.9375 31.96875 1.9375 C 25.699219 1.9375 22.53125 17.035156 20.171875 26.097656 C 16.929688 17.035156 14.273438 1.9375 8.375 1.9375 Z M 8.375 1.9375 "/></g></svg>
