<svg width="64" height="64" viewBox="0 0 64 64" version="1.1" xmlns:inkscape="http://www.inkscape.org/namespaces/inkscape"><defs><linearGradient id="linear0" gradientUnits="userSpaceOnUse" x1="0" y1="0" x2="0" y2="1" gradientTransform="matrix(69.014127,0,0,71.163218,-2.781058,-2.714241)"><stop offset="0" style="stop-color:rgb(0%,96.078432%,86.274511%);stop-opacity:1;"/><stop offset="1" style="stop-color:rgb(0%,54.901963%,49.411765%);stop-opacity:1;"/></linearGradient><filter style="color-interpolation-filters:sRGB;" inkscape:label="Diffuse Light" id="filter184" x="-0.0375" y="-0.0375" width="1.075" height="1.075"><feGaussianBlur in="SourceGraphic" stdDeviation="1" result="blur" id="feGaussianBlur174" /><feDiffuseLighting diffuseConstant="1" surfaceScale="10" lighting-color="rgb(255,255,255)" result="diffuse" id="feDiffuseLighting178"><feDistantLight elevation="8" azimuth="235" id="feDistantLight176" /></feDiffuseLighting><feComposite in="diffuse" in2="diffuse" operator="arithmetic" k1="1" result="composite1" id="feComposite180" /><feComposite in="composite1" in2="SourceGraphic" k1="1" operator="arithmetic" k3="1" result="composite2" id="feComposite182" /></filter></defs><g id="surface1" style="filter:url(#filter184)"><path style=" stroke:none;fill-rule:nonzero;fill:url(#linear0);" d="M 49.476562 2.074219 L 45.273438 10.519531 L 36.152344 11.964844 L 42.660156 18.679688 L 41.183594 28.039062 L 49.414062 23.753906 L 57.625 28.085938 L 56.195312 18.71875 L 62.746094 12.054688 L 53.632812 10.550781 L 49.476562 2.085938 M 13.882812 2.777344 C 7.261719 2.777344 1.882812 8.28125 1.882812 15.078125 C 1.882812 21.882812 7.261719 27.398438 13.882812 27.398438 C 20.511719 27.398438 25.882812 21.882812 25.882812 15.078125 C 25.882812 8.28125 20.511719 2.777344 13.882812 2.777344 M 38.496094 37.964844 C 37.917969 37.964844 37.449219 38.445312 37.449219 39.039062 L 37.449219 61.523438 C 37.449219 62.121094 37.917969 62.597656 38.496094 62.597656 L 60.398438 62.597656 C 60.976562 62.597656 61.4375 62.121094 61.4375 61.523438 L 61.4375 39.039062 C 61.4375 38.445312 60.976562 37.964844 60.398438 37.964844 Z M 13.886719 39.554688 L 7.789062 50.15625 L 1.894531 60.882812 L 13.882812 61.007812 L 25.882812 60.882812 L 19.988281 50.15625 L 13.882812 39.554688 "/></g></svg>
