<svg width="64" height="64" viewBox="0 0 64 64" version="1.1" xmlns:inkscape="http://www.inkscape.org/namespaces/inkscape"><defs><linearGradient id="linear0" gradientUnits="userSpaceOnUse" x1="0" y1="0" x2="0" y2="1" gradientTransform="matrix(67.916945,0,0,67.644699,-1.984984,-1.730278)"><stop offset="0" style="stop-color:rgb(82.352942%,61.176473%,100%);stop-opacity:1;"/><stop offset="1" style="stop-color:rgb(66.666669%,0%,100%);stop-opacity:1;"/></linearGradient><filter style="color-interpolation-filters:sRGB;" inkscape:label="Diffuse Light" id="filter184" x="-0.0375" y="-0.0375" width="1.075" height="1.075"><feGaussianBlur in="SourceGraphic" stdDeviation="1" result="blur" id="feGaussianBlur174" /><feDiffuseLighting diffuseConstant="1" surfaceScale="10" lighting-color="rgb(255,255,255)" result="diffuse" id="feDiffuseLighting178"><feDistantLight elevation="8" azimuth="235" id="feDistantLight176" /></feDiffuseLighting><feComposite in="diffuse" in2="diffuse" operator="arithmetic" k1="1" result="composite1" id="feComposite180" /><feComposite in="composite1" in2="SourceGraphic" k1="1" operator="arithmetic" k3="1" result="composite2" id="feComposite182" /></filter></defs><g id="surface1" style="filter:url(#filter184)"><path style=" stroke:none;fill-rule:nonzero;fill:url(#linear0);" d="M 32.039062 1.769531 C 15.039062 1.769531 1.257812 15.441406 1.257812 32.300781 C 1.257812 49.160156 15.039062 62.828125 32.039062 62.828125 L 32.039062 53.4375 C 20.269531 53.4375 10.726562 43.976562 10.726562 32.300781 C 10.726562 20.625 20.269531 11.164062 32.039062 11.164062 C 43.8125 11.164062 53.351562 20.625 53.351562 32.300781 L 62.824219 32.300781 C 62.824219 15.441406 49.039062 1.769531 32.039062 1.769531 M 32.039062 15.859375 C 22.886719 15.859375 15.460938 23.222656 15.460938 32.300781 C 15.460938 41.378906 22.886719 48.742188 32.039062 48.742188 L 32.039062 41.695312 C 26.804688 41.695312 22.566406 37.496094 22.566406 32.300781 C 22.566406 27.109375 26.804688 22.910156 32.039062 22.910156 C 37.277344 22.910156 41.511719 27.109375 41.511719 32.300781 L 48.625 32.300781 C 48.625 23.222656 41.195312 15.859375 32.039062 15.859375 Z M 32.039062 15.859375 "/></g></svg>
