<svg width="64" height="64" viewBox="0 0 64 64" version="1.1" xmlns:inkscape="http://www.inkscape.org/namespaces/inkscape"><defs><linearGradient id="linear0" gradientUnits="userSpaceOnUse" x1="0" y1="0" x2="0" y2="1" gradientTransform="matrix(62.599216,0,0,39.717193,1.236054,11.675767)"><stop offset="0" style="stop-color:rgb(100%,63.137257%,63.137257%);stop-opacity:1;"/><stop offset="1" style="stop-color:rgb(100%,27.843139%,27.843139%);stop-opacity:1;"/></linearGradient><filter style="color-interpolation-filters:sRGB;" inkscape:label="Diffuse Light" id="filter184" x="-0.0375" y="-0.0375" width="1.075" height="1.075"><feGaussianBlur in="SourceGraphic" stdDeviation="1" result="blur" id="feGaussianBlur174" /><feDiffuseLighting diffuseConstant="1" surfaceScale="10" lighting-color="rgb(255,255,255)" result="diffuse" id="feDiffuseLighting178"><feDistantLight elevation="8" azimuth="235" id="feDistantLight176" /></feDiffuseLighting><feComposite in="diffuse" in2="diffuse" operator="arithmetic" k1="1" result="composite1" id="feComposite180" /><feComposite in="composite1" in2="SourceGraphic" k1="1" operator="arithmetic" k3="1" result="composite2" id="feComposite182" /></filter></defs><g id="surface1" style="filter:url(#filter184)"><path style=" stroke:none;fill-rule:nonzero;fill:url(#linear0);" d="M 33.082031 1.472656 C 32.515625 1.472656 32.054688 1.921875 32.054688 2.484375 L 32.054688 30.796875 C 32.054688 22.417969 25.1875 15.628906 16.710938 15.628906 C 8.234375 15.628906 1.363281 22.417969 1.363281 30.796875 C 1.363281 31.355469 1.820312 31.804688 2.390625 31.804688 L 31.035156 31.804688 C 22.558594 31.804688 15.6875 38.601562 15.6875 46.976562 C 15.6875 55.355469 22.558594 62.144531 31.035156 62.144531 C 31.601562 62.144531 32.054688 61.695312 32.054688 61.132812 L 32.054688 32.816406 C 32.054688 41.199219 38.929688 47.988281 47.402344 47.988281 C 55.878906 47.988281 62.753906 41.199219 62.753906 32.816406 C 62.753906 32.261719 62.292969 31.804688 61.726562 31.804688 L 33.082031 31.804688 C 41.558594 31.804688 48.425781 25.015625 48.425781 16.640625 C 48.425781 8.261719 41.558594 1.472656 33.082031 1.472656 Z M 33.082031 1.472656 "/></g></svg>
