<svg width="64" height="64" viewBox="0 0 64 64" version="1.1" xmlns:inkscape="http://www.inkscape.org/namespaces/inkscape"><defs><linearGradient id="linear0" gradientUnits="userSpaceOnUse" x1="0" y1="0" x2="0" y2="1" gradientTransform="matrix(67.692257,0,0,41.545159,-1.820151,10.330522)"><stop offset="0" style="stop-color:rgb(100%,56.862748%,82.745099%);stop-opacity:1;"/><stop offset="1" style="stop-color:rgb(100%,0%,60.000002%);stop-opacity:1;"/></linearGradient><filter style="color-interpolation-filters:sRGB;" inkscape:label="Diffuse Light" id="filter184" x="-0.0375" y="-0.0375" width="1.075" height="1.075"><feGaussianBlur in="SourceGraphic" stdDeviation="1" result="blur" id="feGaussianBlur174" /><feDiffuseLighting diffuseConstant="1" surfaceScale="10" lighting-color="rgb(255,255,255)" result="diffuse" id="feDiffuseLighting178"><feDistantLight elevation="8" azimuth="235" id="feDistantLight176" /></feDiffuseLighting><feComposite in="diffuse" in2="diffuse" operator="arithmetic" k1="1" result="composite1" id="feComposite180" /><feComposite in="composite1" in2="SourceGraphic" k1="1" operator="arithmetic" k3="1" result="composite2" id="feComposite182" /></filter></defs><g id="surface1" style="filter:url(#filter184)"><path style=" stroke:none;fill-rule:nonzero;fill:url(#linear0);" d="M 1.316406 2.101562 L 1.316406 12.203125 L 10.480469 12.203125 L 10.480469 2.101562 Z M 12.769531 2.101562 L 12.769531 12.203125 L 21.933594 12.203125 L 21.933594 2.101562 Z M 24.226562 2.101562 L 24.226562 12.203125 L 33.386719 12.203125 L 33.386719 2.101562 Z M 35.679688 2.101562 L 35.679688 12.203125 L 44.839844 12.203125 L 44.839844 2.101562 Z M 47.136719 2.101562 L 47.136719 12.203125 L 56.296875 12.203125 L 56.296875 9.675781 L 60.882812 9.675781 L 60.882812 12.203125 L 63.171875 12.203125 L 63.171875 2.101562 L 60.882812 2.101562 L 60.882812 4.625 L 56.296875 4.625 L 56.296875 2.101562 Z M 1.316406 14.726562 L 1.316406 24.824219 L 10.480469 24.824219 L 10.480469 14.726562 Z M 1.316406 27.347656 L 1.316406 37.445312 L 10.480469 37.445312 L 10.480469 27.347656 Z M 12.769531 27.347656 L 12.769531 37.445312 L 21.933594 37.445312 L 21.933594 27.347656 Z M 24.226562 27.347656 L 24.226562 37.445312 L 33.386719 37.445312 L 33.386719 27.347656 Z M 35.679688 27.347656 L 35.679688 37.445312 L 44.839844 37.445312 L 44.839844 27.347656 Z M 47.136719 27.347656 L 47.136719 37.445312 L 56.296875 37.445312 L 56.296875 27.347656 Z M 47.136719 39.96875 L 47.136719 50.066406 L 56.296875 50.066406 L 56.296875 39.96875 Z M 1.316406 52.59375 L 1.316406 62.6875 L 10.480469 62.6875 L 10.480469 52.59375 Z M 12.769531 52.59375 L 12.769531 62.6875 L 21.933594 62.6875 L 21.933594 52.59375 Z M 24.226562 52.59375 L 24.226562 62.6875 L 33.386719 62.6875 L 33.386719 52.59375 Z M 35.679688 52.59375 L 35.679688 62.6875 L 44.839844 62.6875 L 44.839844 52.59375 Z M 47.136719 52.59375 L 47.136719 62.6875 L 56.296875 62.6875 L 56.296875 52.59375 Z M 47.136719 52.59375 "/></g></svg>
