<svg width="64" height="64" viewBox="0 0 64 64" version="1.1" xmlns:inkscape="http://www.inkscape.org/namespaces/inkscape"><defs><linearGradient id="linear0" gradientUnits="userSpaceOnUse" x1="0" y1="0" x2="0" y2="1" gradientTransform="matrix(56,0,0,35.898438,4,14.050781)"><stop offset="0" style="stop-color:rgb(61.176473%,69.803923%,85.09804%);stop-opacity:1;"/><stop offset="1" style="stop-color:rgb(44.313726%,52.156866%,65.882355%);stop-opacity:1;"/></linearGradient><filter style="color-interpolation-filters:sRGB;" inkscape:label="Diffuse Light" id="filter184" x="-0.0375" y="-0.0375" width="1.075" height="1.075"><feGaussianBlur in="SourceGraphic" stdDeviation="1" result="blur" id="feGaussianBlur174" /><feDiffuseLighting diffuseConstant="1" surfaceScale="10" lighting-color="rgb(255,255,255)" result="diffuse" id="feDiffuseLighting178"><feDistantLight elevation="8" azimuth="235" id="feDistantLight176" /></feDiffuseLighting><feComposite in="diffuse" in2="diffuse" operator="arithmetic" k1="1" result="composite1" id="feComposite180" /><feComposite in="composite1" in2="SourceGraphic" k1="1" operator="arithmetic" k3="1" result="composite2" id="feComposite182" /></filter></defs><g id="surface1" style="filter:url(#filter184)"><path style=" stroke:none;fill-rule:nonzero;fill:url(#linear0);" d="M 1.332031 32 C 1.332031 33.359375 1.410156 34.691406 1.585938 36 L 62.417969 36 C 62.589844 34.6875 62.667969 33.359375 62.667969 32 Z M 2.085938 38.707031 C 2.28125 39.59375 2.519531 40.476562 2.792969 41.332031 C 2.519531 40.476562 2.289062 39.597656 2.085938 38.707031 Z M 2.792969 41.332031 C 3.234375 42.714844 3.792969 44.042969 4.417969 45.332031 L 59.589844 45.332031 C 60.214844 44.042969 60.773438 42.714844 61.214844 41.332031 Z M 61.210938 41.332031 C 61.484375 40.476562 61.71875 39.59375 61.917969 38.707031 C 61.714844 39.597656 61.484375 40.476562 61.210938 41.332031 Z M 7.664062 50.664062 C 8.765625 52.097656 9.996094 53.449219 11.328125 54.664062 L 52.664062 54.664062 C 53.996094 53.449219 55.226562 52.097656 56.328125 50.664062 Z M 7.664062 50.664062 "/></g></svg>
