<svg width="64" height="64" viewBox="0 0 64 64" version="1.1" xmlns:inkscape="http://www.inkscape.org/namespaces/inkscape"><defs><linearGradient id="linear0" gradientUnits="userSpaceOnUse" x1="0" y1="0" x2="0" y2="1" gradientTransform="matrix(69.500736,0,0,46.51419,-3.796966,5.766513)"><stop offset="0" style="stop-color:rgb(0%,96.078432%,86.274511%);stop-opacity:1;"/><stop offset="1" style="stop-color:rgb(0%,54.901963%,49.411765%);stop-opacity:1;"/></linearGradient><filter style="color-interpolation-filters:sRGB;" inkscape:label="Diffuse Light" id="filter184" x="-0.0375" y="-0.0375" width="1.075" height="1.075"><feGaussianBlur in="SourceGraphic" stdDeviation="1" result="blur" id="feGaussianBlur174" /><feDiffuseLighting diffuseConstant="1" surfaceScale="10" lighting-color="rgb(255,255,255)" result="diffuse" id="feDiffuseLighting178"><feDistantLight elevation="8" azimuth="235" id="feDistantLight176" /></feDiffuseLighting><feComposite in="diffuse" in2="diffuse" operator="arithmetic" k1="1" result="composite1" id="feComposite180" /><feComposite in="composite1" in2="SourceGraphic" k1="1" operator="arithmetic" k3="1" result="composite2" id="feComposite182" /></filter></defs><g id="surface1" style="filter:url(#filter184)"><path style=" stroke:none;fill-rule:nonzero;fill:url(#linear0);" d="M 17 2.078125 L 17 17.167969 L 6.277344 17.167969 C 3.789062 17.167969 1.773438 19.164062 1.773438 21.628906 L 1.773438 57.984375 C 1.773438 60.449219 3.789062 62.433594 6.277344 62.433594 L 58.183594 62.433594 C 60.671875 62.433594 62.679688 60.449219 62.679688 57.984375 L 62.679688 21.628906 C 62.679688 19.164062 60.671875 17.167969 58.183594 17.167969 L 47.449219 17.167969 L 47.449219 2.078125 Z M 22.078125 7.109375 L 42.386719 7.109375 L 42.386719 17.167969 L 22.078125 17.167969 Z M 22.078125 7.109375 "/></g></svg>
