<svg width="64" height="64" viewBox="0 0 64 64" version="1.1" xmlns:inkscape="http://www.inkscape.org/namespaces/inkscape"><defs><linearGradient id="linear0" gradientUnits="userSpaceOnUse" x1="0" y1="0" x2="0" y2="1" gradientTransform="matrix(64.923509,0,0,39.95082,-0.66793,13.562075)"><stop offset="0" style="stop-color:rgb(82.352942%,61.176473%,100%);stop-opacity:1;"/><stop offset="1" style="stop-color:rgb(66.666669%,0%,100%);stop-opacity:1;"/></linearGradient><linearGradient id="linear1" gradientUnits="userSpaceOnUse" x1="0" y1="0" x2="0" y2="1" gradientTransform="matrix(64.923509,0,0,39.95082,-0.66793,13.562075)"><stop offset="0" style="stop-color:rgb(82.352942%,61.176473%,100%);stop-opacity:1;"/><stop offset="1" style="stop-color:rgb(66.666669%,0%,100%);stop-opacity:1;"/></linearGradient><filter style="color-interpolation-filters:sRGB;" inkscape:label="Diffuse Light" id="filter184" x="-0.0375" y="-0.0375" width="1.075" height="1.075"><feGaussianBlur in="SourceGraphic" stdDeviation="1" result="blur" id="feGaussianBlur174" /><feDiffuseLighting diffuseConstant="1" surfaceScale="10" lighting-color="rgb(255,255,255)" result="diffuse" id="feDiffuseLighting178"><feDistantLight elevation="8" azimuth="235" id="feDistantLight176" /></feDiffuseLighting><feComposite in="diffuse" in2="diffuse" operator="arithmetic" k1="1" result="composite1" id="feComposite180" /><feComposite in="composite1" in2="SourceGraphic" k1="1" operator="arithmetic" k3="1" result="composite2" id="feComposite182" /></filter></defs><g id="surface1" style="filter:url(#filter184)"><path style=" stroke:none;fill-rule:nonzero;fill:url(#linear0);" d="M 31.621094 2.710938 C 15.1875 2.710938 1.53125 16.03125 1.53125 32.777344 C 1.53125 49.527344 15.1875 62.847656 31.621094 62.847656 C 48.050781 62.847656 61.707031 49.527344 61.707031 32.777344 C 61.707031 16.019531 48.066406 2.710938 31.621094 2.710938 M 31.621094 7.789062 C 45.894531 7.789062 57.164062 19.128906 57.164062 32.789062 C 57.164062 46.441406 45.890625 57.777344 31.621094 57.777344 C 17.332031 57.777344 6.070312 46.445312 6.070312 32.789062 C 6.070312 19.136719 17.34375 7.789062 31.621094 7.789062 "/><path style=" stroke:none;fill-rule:nonzero;fill:url(#linear1);" d="M 19.804688 29.449219 L 29.375 41.765625 C 31.828125 44.929688 35.367188 44.554688 36.5625 41.765625 C 41.085938 31.265625 53.886719 12.253906 61.789062 6.15625 C 64.308594 4.210938 60.394531 0.730469 57.632812 2.238281 C 51.707031 4.972656 34.660156 28.5 32.449219 35.148438 L 25.199219 25.429688 C 22.5625 21.71875 17.316406 25.878906 19.804688 29.449219 "/></g></svg>
