<svg width="64" height="64" viewBox="0 0 64 64" version="1.1" xmlns:inkscape="http://www.inkscape.org/namespaces/inkscape"><defs><linearGradient id="linear0" gradientUnits="userSpaceOnUse" x1="0" y1="0" x2="0" y2="1" gradientTransform="matrix(72.985122,0,0,42.170653,-3.320678,9.836195)"><stop offset="0" style="stop-color:rgb(75.686276%,77.64706%,83.92157%);stop-opacity:1;"/><stop offset="1" style="stop-color:rgb(43.529412%,45.09804%,50.196081%);stop-opacity:1;"/></linearGradient><filter style="color-interpolation-filters:sRGB;" inkscape:label="Diffuse Light" id="filter184" x="-0.0375" y="-0.0375" width="1.075" height="1.075"><feGaussianBlur in="SourceGraphic" stdDeviation="1" result="blur" id="feGaussianBlur174" /><feDiffuseLighting diffuseConstant="1" surfaceScale="10" lighting-color="rgb(255,255,255)" result="diffuse" id="feDiffuseLighting178"><feDistantLight elevation="8" azimuth="235" id="feDistantLight176" /></feDiffuseLighting><feComposite in="diffuse" in2="diffuse" operator="arithmetic" k1="1" result="composite1" id="feComposite180" /><feComposite in="composite1" in2="SourceGraphic" k1="1" operator="arithmetic" k3="1" result="composite2" id="feComposite182" /></filter></defs><g id="surface1" style="filter:url(#filter184)"><path style=" stroke:none;fill-rule:nonzero;fill:url(#linear0);" d="M 35.621094 2.09375 C 27.644531 2.09375 21.15625 9.832031 21.15625 19.359375 L 1.929688 34.660156 C 6.800781 49.902344 18.457031 60.550781 32.050781 62.199219 C 36.996094 55.089844 40.558594 45.050781 40.488281 36.621094 C 40.488281 26.546875 45.453125 13.542969 54.945312 13.605469 L 62.179688 13.605469 C 59.019531 9.804688 54.609375 7.847656 50.128906 7.847656 C 50.34375 7.820312 47.828125 7.839844 46.4375 7.847656 C 43.714844 4.222656 39.835938 2.09375 35.667969 2.09375 Z M 40.441406 7.847656 C 41.769531 7.847656 42.851562 9.132812 42.851562 10.726562 C 42.851562 12.3125 41.769531 13.605469 40.441406 13.605469 C 39.109375 13.605469 38.027344 12.3125 38.027344 10.726562 C 38.027344 9.132812 39.109375 7.847656 40.441406 7.847656 Z M 40.441406 7.847656 "/></g></svg>
