<svg width="64" height="64" viewBox="0 0 64 64" version="1.1" xmlns:inkscape="http://www.inkscape.org/namespaces/inkscape"><defs><linearGradient id="linear0" gradientUnits="userSpaceOnUse" x1="0" y1="0" x2="0" y2="1" gradientTransform="matrix(85.0933,0,0,60.851311,-14.394266,-0.178179)"><stop offset="0" style="stop-color:rgb(0%,96.078432%,86.274511%);stop-opacity:1;"/><stop offset="1" style="stop-color:rgb(0%,54.901963%,49.411765%);stop-opacity:1;"/></linearGradient><filter style="color-interpolation-filters:sRGB;" inkscape:label="Diffuse Light" id="filter184" x="-0.0375" y="-0.0375" width="1.075" height="1.075"><feGaussianBlur in="SourceGraphic" stdDeviation="1" result="blur" id="feGaussianBlur174" /><feDiffuseLighting diffuseConstant="1" surfaceScale="10" lighting-color="rgb(255,255,255)" result="diffuse" id="feDiffuseLighting178"><feDistantLight elevation="8" azimuth="235" id="feDistantLight176" /></feDiffuseLighting><feComposite in="diffuse" in2="diffuse" operator="arithmetic" k1="1" result="composite1" id="feComposite180" /><feComposite in="composite1" in2="SourceGraphic" k1="1" operator="arithmetic" k3="1" result="composite2" id="feComposite182" /></filter></defs><g id="surface1" style="filter:url(#filter184)"><path style=" stroke:none;fill-rule:nonzero;fill:url(#linear0);" d="M 13.972656 3.125 C 11.722656 3.125 9.917969 5.140625 9.917969 7.648438 L 9.917969 57.367188 C 9.917969 59.878906 11.722656 61.890625 13.972656 61.890625 L 46.386719 61.890625 C 48.636719 61.890625 50.441406 59.871094 50.441406 57.367188 L 50.441406 18.945312 L 36.253906 3.125 Z M 13.972656 3.125 "/><path style=" stroke:none;fill-rule:nonzero;fill:rgb(0%,96.078432%,86.274511%);fill-opacity:1;" d="M 21.476562 27.246094 C 18.109375 27.246094 15.398438 30.28125 15.398438 34.027344 C 15.398438 37.351562 17.5625 40.179688 20.5 40.714844 L 17.421875 47.589844 L 21.476562 47.589844 C 21.476562 47.589844 25.160156 40.515625 26.941406 37.015625 C 27.398438 36.109375 27.558594 35.066406 27.558594 34.027344 C 27.558594 30.28125 24.847656 27.246094 21.480469 27.246094 Z M 37.679688 27.246094 C 34.320312 27.246094 31.601562 30.28125 31.601562 34.027344 C 31.605469 37.351562 33.773438 40.179688 36.707031 40.714844 L 33.632812 47.589844 L 37.679688 47.589844 C 37.679688 47.589844 41.371094 40.515625 43.152344 37.015625 C 43.601562 36.109375 43.761719 35.066406 43.769531 34.027344 C 43.769531 30.28125 41.054688 27.246094 37.691406 27.246094 Z M 37.679688 27.246094 "/></g></svg>
