<svg width="64" height="64" viewBox="0 0 64 64" version="1.1" xmlns:inkscape="http://www.inkscape.org/namespaces/inkscape"><defs><linearGradient id="linear0" gradientUnits="userSpaceOnUse" x1="0" y1="0" x2="0" y2="1" gradientTransform="matrix(77.705804,0,0,87.174911,-6.157766,-8.64406)"><stop offset="0" style="stop-color:rgb(82.352942%,61.176473%,100%);stop-opacity:1;"/><stop offset="1" style="stop-color:rgb(66.666669%,0%,100%);stop-opacity:1;"/></linearGradient><linearGradient id="linear1" gradientUnits="userSpaceOnUse" x1="0" y1="0" x2="0" y2="1" gradientTransform="matrix(77.705804,0,0,87.174911,-6.157766,-8.64406)"><stop offset="0" style="stop-color:rgb(82.352942%,61.176473%,100%);stop-opacity:1;"/><stop offset="1" style="stop-color:rgb(66.666669%,0%,100%);stop-opacity:1;"/></linearGradient><linearGradient id="linear2" gradientUnits="userSpaceOnUse" x1="0" y1="0" x2="0" y2="1" gradientTransform="matrix(77.705804,0,0,87.174911,-6.157766,-8.64406)"><stop offset="0" style="stop-color:rgb(82.352942%,61.176473%,100%);stop-opacity:1;"/><stop offset="1" style="stop-color:rgb(66.666669%,0%,100%);stop-opacity:1;"/></linearGradient><filter style="color-interpolation-filters:sRGB;" inkscape:label="Diffuse Light" id="filter184" x="-0.0375" y="-0.0375" width="1.075" height="1.075"><feGaussianBlur in="SourceGraphic" stdDeviation="1" result="blur" id="feGaussianBlur174" /><feDiffuseLighting diffuseConstant="1" surfaceScale="10" lighting-color="rgb(255,255,255)" result="diffuse" id="feDiffuseLighting178"><feDistantLight elevation="8" azimuth="235" id="feDistantLight176" /></feDiffuseLighting><feComposite in="diffuse" in2="diffuse" operator="arithmetic" k1="1" result="composite1" id="feComposite180" /><feComposite in="composite1" in2="SourceGraphic" k1="1" operator="arithmetic" k3="1" result="composite2" id="feComposite182" /></filter></defs><g id="surface1" style="filter:url(#filter184)"><path style=" stroke:none;fill-rule:nonzero;fill:url(#linear0);" d="M 56.089844 53.726562 C 56.089844 58.847656 45.160156 62.996094 31.691406 62.996094 C 18.222656 62.996094 7.296875 58.847656 7.296875 53.726562 C 7.296875 48.601562 18.222656 44.457031 31.691406 44.457031 C 45.160156 44.457031 56.089844 48.601562 56.089844 53.726562 Z M 56.089844 53.726562 "/><path style=" stroke:none;fill-rule:nonzero;fill:url(#linear1);" d="M 42.78125 5.816406 L 56.089844 5.816406 L 56.089844 53.726562 L 42.78125 53.726562 Z M 42.78125 5.816406 "/><path style=" stroke:none;fill-rule:nonzero;fill:url(#linear2);" d="M 56.089844 5.816406 C 56.089844 8.382812 53.113281 10.453125 49.425781 10.453125 C 45.757812 10.453125 42.78125 8.382812 42.78125 5.816406 C 42.78125 3.257812 45.757812 1.179688 49.425781 1.179688 C 53.113281 1.179688 56.089844 3.257812 56.089844 5.816406 Z M 56.089844 5.816406 "/></g></svg>
