<svg width="64" height="64" viewBox="0 0 64 64" version="1.1" xmlns:inkscape="http://www.inkscape.org/namespaces/inkscape"><defs><linearGradient id="linear0" gradientUnits="userSpaceOnUse" x1="0" y1="0" x2="0" y2="1" gradientTransform="matrix(66.303781,0,0,46.684631,-1.1922,7.77798)"><stop offset="0" style="stop-color:rgb(87.058824%,86.666667%,56.470591%);stop-opacity:1;"/><stop offset="1" style="stop-color:rgb(67.843139%,67.450982%,38.039216%);stop-opacity:1;"/></linearGradient><filter style="color-interpolation-filters:sRGB;" inkscape:label="Diffuse Light" id="filter184" x="-0.0375" y="-0.0375" width="1.075" height="1.075"><feGaussianBlur in="SourceGraphic" stdDeviation="1" result="blur" id="feGaussianBlur174" /><feDiffuseLighting diffuseConstant="1" surfaceScale="10" lighting-color="rgb(255,255,255)" result="diffuse" id="feDiffuseLighting178"><feDistantLight elevation="8" azimuth="235" id="feDistantLight176" /></feDiffuseLighting><feComposite in="diffuse" in2="diffuse" operator="arithmetic" k1="1" result="composite1" id="feComposite180" /><feComposite in="composite1" in2="SourceGraphic" k1="1" operator="arithmetic" k3="1" result="composite2" id="feComposite182" /></filter></defs><g id="surface1" style="filter:url(#filter184)"><path style=" stroke:none;fill-rule:nonzero;fill:url(#linear0);" d="M 1.125 0.949219 L 1.125 29.105469 L 29.382812 29.105469 L 29.382812 0.949219 Z M 35.035156 0.949219 L 35.035156 29.105469 L 63.292969 29.105469 L 63.292969 0.949219 Z M 6.777344 6.578125 L 23.730469 6.578125 L 23.730469 23.46875 L 6.777344 23.46875 Z M 40.6875 6.578125 L 57.640625 6.578125 L 57.640625 23.46875 L 40.6875 23.46875 Z M 1.125 34.730469 L 1.125 62.886719 L 29.382812 62.886719 L 29.382812 34.730469 Z M 35.035156 34.730469 L 35.035156 40.367188 L 40.6875 40.367188 L 40.6875 34.730469 Z M 40.6875 40.367188 L 40.6875 45.996094 L 46.339844 45.996094 L 46.339844 40.367188 Z M 46.339844 40.367188 L 51.992188 40.367188 L 51.992188 34.730469 L 46.339844 34.730469 Z M 51.992188 40.367188 L 51.992188 45.996094 L 57.640625 45.996094 L 57.640625 40.367188 Z M 57.640625 40.367188 L 63.292969 40.367188 L 63.292969 34.730469 L 57.640625 34.730469 Z M 57.640625 45.996094 L 57.640625 51.621094 L 63.292969 51.621094 L 63.292969 45.996094 Z M 57.640625 51.621094 L 51.992188 51.621094 L 51.992188 57.257812 L 57.640625 57.257812 Z M 57.640625 57.257812 L 57.640625 62.886719 L 63.292969 62.886719 L 63.292969 57.257812 Z M 51.992188 57.257812 L 46.339844 57.257812 L 46.339844 62.886719 L 51.992188 62.886719 Z M 46.339844 57.257812 L 46.339844 51.621094 L 40.6875 51.621094 L 40.6875 57.257812 Z M 40.6875 57.257812 L 35.035156 57.257812 L 35.035156 62.886719 L 40.6875 62.886719 Z M 40.6875 51.621094 L 40.6875 45.996094 L 35.035156 45.996094 L 35.035156 51.621094 Z M 46.339844 51.621094 L 51.992188 51.621094 L 51.992188 45.996094 L 46.339844 45.996094 Z M 6.777344 40.367188 L 23.730469 40.367188 L 23.730469 57.257812 L 6.777344 57.257812 Z M 6.777344 40.367188 "/></g></svg>
