<svg width="64" height="64" viewBox="0 0 64 64" version="1.1" xmlns:inkscape="http://www.inkscape.org/namespaces/inkscape"><defs><linearGradient id="linear0" gradientUnits="userSpaceOnUse" x1="0" y1="0" x2="0" y2="1" gradientTransform="matrix(28.648438,0,0,28.648438,35.355469,33.296875)"><stop offset="0" style="stop-color:rgb(92.941177%,83.529413%,72.549021%);stop-opacity:1;"/><stop offset="1" style="stop-color:rgb(81.960785%,71.372551%,59.215689%);stop-opacity:1;"/></linearGradient><filter style="color-interpolation-filters:sRGB;" inkscape:label="Diffuse Light" id="filter184" x="-0.0375" y="-0.0375" width="1.075" height="1.075"><feGaussianBlur in="SourceGraphic" stdDeviation="1" result="blur" id="feGaussianBlur174" /><feDiffuseLighting diffuseConstant="1" surfaceScale="10" lighting-color="rgb(255,255,255)" result="diffuse" id="feDiffuseLighting178"><feDistantLight elevation="8" azimuth="235" id="feDistantLight176" /></feDiffuseLighting><feComposite in="diffuse" in2="diffuse" operator="arithmetic" k1="1" result="composite1" id="feComposite180" /><feComposite in="composite1" in2="SourceGraphic" k1="1" operator="arithmetic" k3="1" result="composite2" id="feComposite182" /></filter></defs><g id="surface1" style="filter:url(#filter184)"><path style=" stroke:none;fill-rule:nonzero;fill:url(#linear0);" d="M 56.515625 35.039062 C 63.464844 38.816406 66.039062 47.507812 62.261719 54.457031 C 58.488281 61.410156 49.792969 63.980469 42.84375 60.207031 C 35.894531 56.429688 33.320312 47.734375 37.097656 40.785156 C 40.871094 33.835938 49.566406 31.261719 56.515625 35.039062 Z M 56.515625 35.039062 "/><path style=" stroke:none;fill-rule:nonzero;fill:rgb(53.333336%,53.333336%,53.333336%);fill-opacity:1;" d="M 21.15625 35.050781 C 28.105469 38.828125 30.679688 47.519531 26.902344 54.472656 C 23.128906 61.421875 14.433594 63.992188 7.484375 60.21875 C 0.535156 56.441406 -2.039062 47.746094 1.738281 40.796875 C 5.511719 33.847656 14.207031 31.273438 21.15625 35.050781 Z M 21.15625 35.050781 "/><path style=" stroke:none;fill-rule:nonzero;fill:rgb(61.176473%,61.176473%,61.176473%);fill-opacity:1;" d="M 39.109375 3.78125 C 46.058594 7.558594 48.632812 16.253906 44.855469 23.203125 C 41.082031 30.152344 32.386719 32.726562 25.4375 28.949219 C 18.488281 25.171875 15.914062 16.480469 19.691406 9.527344 C 23.464844 2.578125 32.160156 0.0078125 39.109375 3.78125 Z M 39.109375 3.78125 "/></g></svg>
