<svg width="64" height="64" viewBox="0 0 64 64" version="1.1" xmlns:inkscape="http://www.inkscape.org/namespaces/inkscape"><defs><linearGradient id="linear0" gradientUnits="userSpaceOnUse" x1="0" y1="0" x2="0" y2="1" gradientTransform="matrix(72.046422,0,0,47.87474,-4.053153,8.393282)"><stop offset="0" style="stop-color:rgb(100%,56.862748%,82.745099%);stop-opacity:1;"/><stop offset="1" style="stop-color:rgb(100%,0%,60.000002%);stop-opacity:1;"/></linearGradient><filter style="color-interpolation-filters:sRGB;" inkscape:label="Diffuse Light" id="filter184" x="-0.0375" y="-0.0375" width="1.075" height="1.075"><feGaussianBlur in="SourceGraphic" stdDeviation="1" result="blur" id="feGaussianBlur174" /><feDiffuseLighting diffuseConstant="1" surfaceScale="10" lighting-color="rgb(255,255,255)" result="diffuse" id="feDiffuseLighting178"><feDistantLight elevation="8" azimuth="235" id="feDistantLight176" /></feDiffuseLighting><feComposite in="diffuse" in2="diffuse" operator="arithmetic" k1="1" result="composite1" id="feComposite180" /><feComposite in="composite1" in2="SourceGraphic" k1="1" operator="arithmetic" k3="1" result="composite2" id="feComposite182" /></filter></defs><g id="surface1" style="filter:url(#filter184)"><path style=" stroke:none;fill-rule:nonzero;fill:url(#linear0);" d="M 0.8125 1.015625 L 0.8125 63.613281 L 63.171875 63.613281 L 63.171875 1.015625 Z M 6.007812 6.230469 L 57.976562 6.230469 L 57.976562 58.398438 L 6.007812 58.398438 Z M 31.996094 16.664062 C 21.601562 16.664062 19.003906 27.101562 19.003906 32.316406 C 19.003906 37.53125 21.601562 47.964844 31.996094 47.964844 C 39.789062 47.964844 42.386719 45.355469 42.386719 45.355469 C 42.386719 45.355469 42.386719 42.75 39.789062 40.140625 C 39.789062 40.140625 38.144531 41.53125 34.59375 41.363281 C 26.796875 40.992188 26.796875 32.316406 26.796875 32.316406 C 26.796875 32.316406 26.804688 23.625 34.59375 23.261719 C 38.152344 23.09375 39.789062 24.484375 39.789062 24.484375 C 42.386719 21.875 42.386719 19.269531 42.386719 19.269531 C 42.386719 19.269531 39.789062 16.660156 31.996094 16.660156 Z M 31.996094 16.664062 "/></g></svg>
