<svg width="64" height="64" viewBox="0 0 64 64" version="1.1" xmlns:inkscape="http://www.inkscape.org/namespaces/inkscape"><defs><linearGradient id="linear0" gradientUnits="userSpaceOnUse" x1="0" y1="0" x2="0" y2="1" gradientTransform="matrix(64,0,0,64,0,0)"><stop offset="0" style="stop-color:rgb(75.686276%,77.64706%,83.92157%);stop-opacity:1;"/><stop offset="1" style="stop-color:rgb(43.529412%,45.09804%,50.196081%);stop-opacity:1;"/></linearGradient><filter style="color-interpolation-filters:sRGB;" inkscape:label="Diffuse Light" id="filter184" x="-0.0375" y="-0.0375" width="1.075" height="1.075"><feGaussianBlur in="SourceGraphic" stdDeviation="1" result="blur" id="feGaussianBlur174" /><feDiffuseLighting diffuseConstant="1" surfaceScale="10" lighting-color="rgb(255,255,255)" result="diffuse" id="feDiffuseLighting178"><feDistantLight elevation="8" azimuth="235" id="feDistantLight176" /></feDiffuseLighting><feComposite in="diffuse" in2="diffuse" operator="arithmetic" k1="1" result="composite1" id="feComposite180" /><feComposite in="composite1" in2="SourceGraphic" k1="1" operator="arithmetic" k3="1" result="composite2" id="feComposite182" /></filter></defs><g id="surface1" style="filter:url(#filter184)"><path style=" stroke:none;fill-rule:nonzero;fill:url(#linear0);" d="M 58.871094 23.039062 L 64 9.601562 C 64 4.160156 59.839844 0 54.398438 0 L 9.601562 0 C 4.160156 0 0 4.160156 0 9.601562 L 4.160156 21.128906 C 1.601562 23.035156 0 25.929688 0 29.4375 L 0 64 L 64 64 L 64 32 C 64 28.472656 62.070312 25.273438 58.871094 23.039062 Z M 6.398438 32 L 6.398438 29.441406 C 6.398438 26.238281 11.199219 23.671875 15.359375 24.960938 L 18.558594 25.929688 L 19.527344 22.726562 C 20.160156 20.800781 22.726562 19.199219 25.601562 19.199219 C 27.839844 19.199219 30.070312 20.160156 31.039062 21.761719 L 32.640625 23.671875 L 35.199219 22.726562 C 39.039062 20.800781 43.839844 22.726562 44.800781 25.601562 L 45.761719 28.800781 L 48.960938 27.839844 C 52.800781 26.238281 57.601562 28.800781 57.601562 32 Z M 35.199219 41.601562 C 35.199219 43.527344 33.929688 44.800781 32 44.800781 C 30.070312 44.800781 28.800781 43.527344 28.800781 41.601562 C 28.800781 39.671875 30.070312 38.398438 32 38.398438 C 33.929688 38.398438 35.199219 39.671875 35.199219 41.601562 Z M 58.238281 9.601562 L 53.441406 21.128906 C 52.800781 21.128906 51.839844 20.800781 51.199219 20.800781 L 49.273438 20.800781 C 47.035156 17.601562 42.871094 15.359375 38.398438 15.359375 C 37.128906 15.359375 35.839844 15.671875 34.558594 16 C 32.328125 14.070312 29.128906 12.800781 25.601562 12.800781 C 21.128906 12.800781 16.960938 15.039062 14.726562 18.238281 L 12.800781 18.238281 C 11.527344 18.238281 10.558594 18.558594 9.273438 18.558594 L 5.765625 9.601562 Z M 12.800781 57.601562 C 12.800781 54.070312 9.929688 51.199219 6.398438 51.199219 L 6.398438 38.398438 L 22.398438 38.398438 L 22.398438 44.800781 C 22.398438 48.328125 25.273438 51.199219 28.800781 51.199219 L 35.199219 51.199219 C 38.726562 51.199219 41.601562 48.328125 41.601562 44.800781 L 41.601562 38.398438 L 57.601562 38.398438 L 57.601562 51.199219 C 54.070312 51.199219 51.199219 54.070312 51.199219 57.601562 Z M 12.800781 57.601562 "/></g></svg>
