<svg width="64" height="64" viewBox="0 0 64 64" version="1.1" xmlns:inkscape="http://www.inkscape.org/namespaces/inkscape"><defs><linearGradient id="linear0" gradientUnits="userSpaceOnUse" x1="0" y1="0" x2="0" y2="1" gradientTransform="matrix(64,0,0,57.804688,0,3.097656)"><stop offset="0" style="stop-color:rgb(82.352942%,61.176473%,100%);stop-opacity:1;"/><stop offset="1" style="stop-color:rgb(66.666669%,0%,100%);stop-opacity:1;"/></linearGradient><filter style="color-interpolation-filters:sRGB;" inkscape:label="Diffuse Light" id="filter184" x="-0.0375" y="-0.0375" width="1.075" height="1.075"><feGaussianBlur in="SourceGraphic" stdDeviation="1" result="blur" id="feGaussianBlur174" /><feDiffuseLighting diffuseConstant="1" surfaceScale="10" lighting-color="rgb(255,255,255)" result="diffuse" id="feDiffuseLighting178"><feDistantLight elevation="8" azimuth="235" id="feDistantLight176" /></feDiffuseLighting><feComposite in="diffuse" in2="diffuse" operator="arithmetic" k1="1" result="composite1" id="feComposite180" /><feComposite in="composite1" in2="SourceGraphic" k1="1" operator="arithmetic" k3="1" result="composite2" id="feComposite182" /></filter></defs><g id="surface1" style="filter:url(#filter184)"><path style=" stroke:none;fill-rule:evenodd;fill:url(#linear0);" d="M 28.902344 3.097656 C 12.941406 3.097656 0 16.035156 0 32 C 0 47.964844 12.941406 60.902344 28.902344 60.902344 C 38.933594 60.886719 48.234375 55.675781 53.488281 47.128906 L 30.347656 32.261719 L 53.527344 16.910156 C 48.28125 8.335938 38.957031 3.109375 28.902344 3.097656 Z M 51.613281 32 C 51.613281 28.578125 54.386719 25.808594 57.808594 25.808594 C 61.222656 25.808594 64 28.578125 64 32 C 64 35.421875 61.222656 38.191406 57.808594 38.191406 C 54.386719 38.191406 51.613281 35.421875 51.613281 32 Z M 51.613281 32 "/></g></svg>
