<svg xmlns="http://www.w3.org/2000/svg" xmlns:xlink="http://www.w3.org/1999/xlink" width="64" height="64" viewBox="0 0 64 64" version="1.1"><defs><filter id="alpha" filterUnits="objectBoundingBox" x="0%" y="0%" width="100%" height="100%"> <feColorMatrix type="matrix" in="SourceGraphic" values="0 0 0 0 1 0 0 0 0 1 0 0 0 0 1 0 0 0 1 0"/></filter><mask id="mask0"><rect x="0" y="0" width="64" height="64" style="fill:rgb(0%,0%,0%);fill-opacity:0.99;stroke:none;"/></mask><clipPath id="clip1"> <rect x="0" y="0" width="64" height="64"/></clipPath><path style=" stroke:none;fill-rule:nonzero;fill:rgb(51.764709%,70.19608%,52.549022%);fill-opacity:1;" d="M 62.9375 32.625 C 62.9375 49.757812 49.046875 63.648438 31.914062 63.648438 C 14.78125 63.648438 0.890625 49.757812 0.890625 32.625 C 0.890625 15.492188 14.78125 1.601562 31.914062 1.601562 C 49.046875 1.601562 62.9375 15.492188 62.9375 32.625 Z M 62.9375 32.625 "/></defs><use xlink:href="#surface5" mask="url(#mask0)"/><path style=" stroke:none;fill-rule:nonzero;fill:rgb(100%,100%,100%);fill-opacity:1;" d="M 18.140625 42.175781 L 18.140625 40.648438 L 10.492188 40.648438 L 10.492188 34.472656 L 9.992188 34.140625 C 8.433594 33.109375 8.734375 30.667969 10.492188 30.082031 C 11.109375 29.878906 11.734375 29.925781 12.351562 30.222656 C 13.863281 30.957031 13.945312 33.265625 12.488281 34.171875 L 12.019531 34.460938 L 12.019531 39.117188 L 18.140625 39.117188 L 18.140625 36.058594 L 23.492188 36.058594 L 23.492188 29.117188 L 22.992188 28.789062 C 21.433594 27.757812 21.734375 25.3125 23.492188 24.730469 C 24.109375 24.523438 24.734375 24.574219 25.351562 24.871094 C 26.863281 25.605469 26.945312 27.914062 25.492188 28.816406 L 25.023438 29.109375 L 25.023438 36.058594 L 31.140625 36.058594 L 31.136719 31.015625 L 31.136719 25.972656 L 30.753906 25.796875 C 30.542969 25.699219 30.261719 25.472656 30.125 25.296875 C 28.863281 23.640625 30.113281 21.34375 32.160156 21.558594 C 33.664062 21.710938 34.546875 23.152344 34.042969 24.632812 C 33.867188 25.144531 33.285156 25.792969 32.910156 25.886719 L 32.671875 25.945312 L 32.671875 36.058594 L 38.789062 36.058594 L 38.789062 29.117188 L 38.289062 28.789062 C 36.730469 27.757812 37.03125 25.3125 38.789062 24.730469 C 39.40625 24.523438 40.03125 24.574219 40.648438 24.871094 C 42.160156 25.605469 42.242188 27.914062 40.785156 28.816406 L 40.316406 29.109375 L 40.316406 36.058594 L 45.671875 36.058594 L 45.671875 39.117188 L 51.789062 39.117188 L 51.789062 34.359375 L 51.546875 34.296875 C 50.933594 34.144531 50.261719 33.066406 50.261719 32.234375 C 50.261719 30.996094 51.316406 29.941406 52.554688 29.941406 C 53.792969 29.941406 54.847656 30.996094 54.847656 32.234375 C 54.847656 33.066406 54.175781 34.144531 53.5625 34.296875 L 53.320312 34.359375 L 53.320312 40.648438 L 45.671875 40.648438 L 45.671875 43.707031 L 18.140625 43.707031 Z M 44.140625 39.882812 L 44.140625 37.589844 L 19.667969 37.589844 L 19.667969 42.175781 L 44.140625 42.175781 Z M 21.433594 40.414062 C 20.960938 39.9375 21.296875 39.117188 21.964844 39.117188 C 22.148438 39.117188 22.34375 39.203125 22.492188 39.351562 C 22.640625 39.5 22.726562 39.695312 22.726562 39.882812 C 22.726562 40.070312 22.640625 40.265625 22.492188 40.414062 C 22.34375 40.558594 22.148438 40.648438 21.964844 40.648438 C 21.777344 40.648438 21.582031 40.558594 21.433594 40.414062 Z M 24.492188 40.414062 C 24.019531 39.9375 24.355469 39.117188 25.023438 39.117188 C 25.207031 39.117188 25.40625 39.203125 25.550781 39.351562 C 25.699219 39.5 25.789062 39.695312 25.789062 39.882812 C 25.789062 40.070312 25.699219 40.265625 25.550781 40.414062 C 25.40625 40.558594 25.207031 40.648438 25.023438 40.648438 C 24.835938 40.648438 24.640625 40.558594 24.492188 40.414062 Z M 27.550781 40.414062 C 27.078125 39.9375 27.414062 39.117188 28.082031 39.117188 C 28.269531 39.117188 28.464844 39.203125 28.613281 39.351562 C 28.757812 39.5 28.847656 39.695312 28.847656 39.882812 C 28.847656 40.070312 28.757812 40.265625 28.613281 40.414062 C 28.464844 40.558594 28.269531 40.648438 28.082031 40.648438 C 27.894531 40.648438 27.699219 40.558594 27.550781 40.414062 Z M 11.785156 32.765625 C 12.261719 32.289062 11.925781 31.46875 11.257812 31.46875 C 10.863281 31.46875 10.492188 31.839844 10.492188 32.234375 C 10.492188 32.628906 10.863281 33 11.257812 33 C 11.441406 33 11.636719 32.914062 11.785156 32.765625 Z M 53.085938 32.765625 C 53.558594 32.289062 53.222656 31.46875 52.554688 31.46875 C 52.160156 31.46875 51.789062 31.839844 51.789062 32.234375 C 51.789062 32.628906 52.160156 33 52.554688 33 C 52.742188 33 52.9375 32.914062 53.085938 32.765625 Z M 24.789062 27.410156 C 25.261719 26.9375 24.925781 26.117188 24.257812 26.117188 C 24.070312 26.117188 23.875 26.203125 23.726562 26.351562 C 23.578125 26.5 23.492188 26.695312 23.492188 26.882812 C 23.492188 27.066406 23.578125 27.261719 23.726562 27.410156 C 23.875 27.558594 24.070312 27.644531 24.257812 27.644531 C 24.445312 27.644531 24.640625 27.558594 24.789062 27.410156 Z M 40.082031 27.410156 C 40.558594 26.9375 40.222656 26.117188 39.554688 26.117188 C 39.160156 26.117188 38.789062 26.488281 38.789062 26.882812 C 38.789062 27.273438 39.160156 27.644531 39.554688 27.644531 C 39.738281 27.644531 39.9375 27.558594 40.082031 27.410156 Z M 32.4375 24.351562 C 32.910156 23.878906 32.574219 23.058594 31.90625 23.058594 C 31.71875 23.058594 31.523438 23.144531 31.375 23.292969 C 30.902344 23.765625 31.238281 24.585938 31.90625 24.585938 C 32.09375 24.585938 32.289062 24.5 32.4375 24.351562 Z M 32.4375 24.351562 "/></svg>
