<svg width="64" height="64" viewBox="0 0 64 64" version="1.1" xmlns:inkscape="http://www.inkscape.org/namespaces/inkscape"><defs><linearGradient id="linear0" gradientUnits="userSpaceOnUse" x1="0" y1="0" x2="0" y2="1" gradientTransform="matrix(64,0,0,51.203125,0,6.398438)"><stop offset="0" style="stop-color:rgb(100%,63.137257%,63.137257%);stop-opacity:1;"/><stop offset="1" style="stop-color:rgb(100%,27.843139%,27.843139%);stop-opacity:1;"/></linearGradient><filter style="color-interpolation-filters:sRGB;" inkscape:label="Diffuse Light" id="filter184" x="-0.0375" y="-0.0375" width="1.075" height="1.075"><feGaussianBlur in="SourceGraphic" stdDeviation="1" result="blur" id="feGaussianBlur174" /><feDiffuseLighting diffuseConstant="1" surfaceScale="10" lighting-color="rgb(255,255,255)" result="diffuse" id="feDiffuseLighting178"><feDistantLight elevation="8" azimuth="235" id="feDistantLight176" /></feDiffuseLighting><feComposite in="diffuse" in2="diffuse" operator="arithmetic" k1="1" result="composite1" id="feComposite180" /><feComposite in="composite1" in2="SourceGraphic" k1="1" operator="arithmetic" k3="1" result="composite2" id="feComposite182" /></filter></defs><g id="surface1" style="filter:url(#filter184)"><path style=" stroke:none;fill-rule:evenodd;fill:url(#linear0);" d="M 48 37.132812 C 47.324219 38.632812 47 39.304688 46.128906 40.628906 C 44.914062 42.476562 43.203125 44.785156 41.078125 44.800781 C 39.191406 44.816406 38.707031 43.570312 36.148438 43.59375 C 33.59375 43.605469 33.050781 44.824219 31.167969 44.804688 C 28.0625 44.804688 22.621094 38.070312 22.621094 32.003906 C 22.621094 25.335938 27.265625 22.46875 30.320312 22.46875 C 32.566406 22.46875 34.261719 23.980469 36.117188 23.980469 C 37.921875 23.980469 39.015625 22.390625 41.625 22.390625 C 43.589844 22.390625 46.863281 24.199219 47.996094 26.136719 C 42 27.800781 43 35.863281 48 37.132812 Z M 40.035156 20.3125 C 41.046875 19.191406 41.820312 17.613281 41.542969 16 C 39.761719 16.160156 38.09375 16.933594 36.8125 18.183594 C 35.789062 19.257812 34.941406 20.847656 35.273438 22.386719 C 37.074219 22.4375 38.953125 21.511719 40.035156 20.3125 Z M 6.398438 35.199219 C 4.632812 35.199219 3.199219 33.769531 3.199219 32 C 3.199219 30.230469 4.632812 28.800781 6.398438 28.800781 C 8.167969 28.800781 9.601562 30.230469 9.601562 32 C 9.601562 33.769531 8.167969 35.199219 6.398438 35.199219 Z M 57.601562 51.199219 L 12.800781 51.199219 L 12.800781 12.800781 L 57.601562 12.800781 Z M 57.601562 6.398438 L 6.398438 6.398438 C 2.871094 6.398438 0 9.273438 0 12.800781 L 0 51.199219 C 0 54.726562 2.871094 57.601562 6.398438 57.601562 L 57.601562 57.601562 C 61.128906 57.601562 64 54.726562 64 51.199219 L 64 12.800781 C 64 9.273438 61.128906 6.398438 57.601562 6.398438 Z M 57.601562 6.398438 "/></g></svg>
