<svg width="64" height="64" viewBox="0 0 64 64" version="1.1" xmlns:inkscape="http://www.inkscape.org/namespaces/inkscape"><defs><linearGradient id="linear0" gradientUnits="userSpaceOnUse" x1="0" y1="0" x2="0" y2="1" gradientTransform="matrix(65.014178,0,0,42.189833,-2.462363,10.198048)"><stop offset="0" style="stop-color:rgb(0%,78.823531%,36.862746%);stop-opacity:1;"/><stop offset="1" style="stop-color:rgb(0%,54.11765%,25.098041%);stop-opacity:1;"/></linearGradient><filter style="color-interpolation-filters:sRGB;" inkscape:label="Diffuse Light" id="filter184" x="-0.0375" y="-0.0375" width="1.075" height="1.075"><feGaussianBlur in="SourceGraphic" stdDeviation="1" result="blur" id="feGaussianBlur174" /><feDiffuseLighting diffuseConstant="1" surfaceScale="10" lighting-color="rgb(255,255,255)" result="diffuse" id="feDiffuseLighting178"><feDistantLight elevation="8" azimuth="235" id="feDistantLight176" /></feDiffuseLighting><feComposite in="diffuse" in2="diffuse" operator="arithmetic" k1="1" result="composite1" id="feComposite180" /><feComposite in="composite1" in2="SourceGraphic" k1="1" operator="arithmetic" k3="1" result="composite2" id="feComposite182" /></filter></defs><g id="surface1" style="filter:url(#filter184)"><path style=" stroke:none;fill-rule:nonzero;fill:url(#linear0);" d="M 24.667969 1.121094 C 23.109375 1.121094 21.851562 2.546875 21.851562 4.304688 L 21.851562 19.007812 L 4.191406 19.007812 C 2.628906 19.007812 1.363281 20.425781 1.363281 22.183594 L 1.363281 41.378906 C 1.363281 43.132812 2.644531 44.558594 4.191406 44.558594 L 21.851562 44.558594 L 21.851562 59.273438 C 21.851562 61.023438 23.109375 62.449219 24.667969 62.449219 L 44.59375 62.449219 C 46.152344 62.449219 47.414062 61.023438 47.414062 59.273438 L 47.414062 47.109375 L 59.921875 47.109375 C 61.480469 47.109375 62.738281 45.691406 62.738281 43.9375 L 62.738281 24.738281 C 62.738281 22.984375 61.476562 21.566406 59.921875 21.566406 L 47.414062 21.566406 L 47.414062 4.304688 C 47.414062 2.550781 46.148438 1.121094 44.59375 1.121094 Z M 26.941406 26.675781 L 37.15625 26.675781 L 37.15625 36.898438 L 26.941406 36.898438 Z M 26.941406 26.675781 "/></g></svg>
