<svg width="64" height="64" viewBox="0 0 64 64" version="1.1" xmlns:inkscape="http://www.inkscape.org/namespaces/inkscape"><defs><linearGradient id="linear0" gradientUnits="userSpaceOnUse" x1="0" y1="0" x2="0" y2="1" gradientTransform="matrix(68.854914,0,0,44.263939,-2.470189,7.088286)"><stop offset="0" style="stop-color:rgb(92.941177%,83.529413%,72.549021%);stop-opacity:1;"/><stop offset="1" style="stop-color:rgb(81.960785%,71.372551%,59.215689%);stop-opacity:1;"/></linearGradient><filter style="color-interpolation-filters:sRGB;" inkscape:label="Diffuse Light" id="filter184" x="-0.0375" y="-0.0375" width="1.075" height="1.075"><feGaussianBlur in="SourceGraphic" stdDeviation="1" result="blur" id="feGaussianBlur174" /><feDiffuseLighting diffuseConstant="1" surfaceScale="10" lighting-color="rgb(255,255,255)" result="diffuse" id="feDiffuseLighting178"><feDistantLight elevation="8" azimuth="235" id="feDistantLight176" /></feDiffuseLighting><feComposite in="diffuse" in2="diffuse" operator="arithmetic" k1="1" result="composite1" id="feComposite180" /><feComposite in="composite1" in2="SourceGraphic" k1="1" operator="arithmetic" k3="1" result="composite2" id="feComposite182" /></filter></defs><g id="surface1" style="filter:url(#filter184)"><path style=" stroke:none;fill-rule:nonzero;fill:url(#linear0);" d="M 14.074219 1.507812 L 1.277344 14.253906 L 1.277344 49.957031 L 14.074219 62.703125 L 44.789062 62.703125 L 55.03125 52.507812 C 59.273438 52.507812 62.707031 49.078125 62.707031 44.855469 C 62.707031 40.628906 59.273438 37.207031 55.03125 37.207031 C 50.789062 37.207031 47.351562 40.628906 47.351562 44.855469 L 39.671875 52.507812 L 19.191406 52.507812 L 11.515625 44.855469 L 11.515625 19.355469 L 19.191406 11.703125 L 39.671875 11.703125 L 47.351562 19.355469 C 47.351562 23.582031 50.789062 27.003906 55.03125 27.003906 C 59.273438 27.003906 62.707031 23.582031 62.707031 19.355469 C 62.707031 15.132812 59.273438 11.703125 55.03125 11.703125 L 44.789062 1.507812 Z M 55.03125 16.804688 C 56.441406 16.804688 57.589844 17.945312 57.589844 19.355469 C 57.589844 20.761719 56.441406 21.902344 55.03125 21.902344 C 53.613281 21.902344 52.46875 20.761719 52.46875 19.355469 C 52.46875 17.945312 53.613281 16.804688 55.03125 16.804688 Z M 55.03125 42.308594 C 56.441406 42.308594 57.589844 43.449219 57.589844 44.855469 C 57.589844 46.265625 56.441406 47.40625 55.03125 47.40625 C 53.613281 47.40625 52.46875 46.265625 52.46875 44.855469 C 52.46875 43.449219 53.613281 42.308594 55.03125 42.308594 Z M 55.03125 42.308594 "/></g></svg>
