<svg width="64" height="64" viewBox="0 0 64 64" version="1.1" xmlns:inkscape="http://www.inkscape.org/namespaces/inkscape"><defs><linearGradient id="linear0" gradientUnits="userSpaceOnUse" x1="0" y1="0" x2="0" y2="1" gradientTransform="matrix(74.449568,0,0,41.081646,-5.978316,9.357093)"><stop offset="0" style="stop-color:rgb(100%,63.137257%,63.137257%);stop-opacity:1;"/><stop offset="1" style="stop-color:rgb(100%,27.843139%,27.843139%);stop-opacity:1;"/></linearGradient><filter style="color-interpolation-filters:sRGB;" inkscape:label="Diffuse Light" id="filter184" x="-0.0375" y="-0.0375" width="1.075" height="1.075"><feGaussianBlur in="SourceGraphic" stdDeviation="1" result="blur" id="feGaussianBlur174" /><feDiffuseLighting diffuseConstant="1" surfaceScale="10" lighting-color="rgb(255,255,255)" result="diffuse" id="feDiffuseLighting178"><feDistantLight elevation="8" azimuth="235" id="feDistantLight176" /></feDiffuseLighting><feComposite in="diffuse" in2="diffuse" operator="arithmetic" k1="1" result="composite1" id="feComposite180" /><feComposite in="composite1" in2="SourceGraphic" k1="1" operator="arithmetic" k3="1" result="composite2" id="feComposite182" /></filter></defs><g id="surface1" style="filter:url(#filter184)"><path style=" stroke:none;fill-rule:nonzero;fill:url(#linear0);" d="M 33.976562 0.882812 C 23.164062 0.882812 14.460938 6.253906 14.460938 12.9375 L 14.460938 51.519531 C 14.460938 58.199219 23.164062 63.578125 33.976562 63.578125 C 44.796875 63.578125 53.5 58.199219 53.5 51.519531 L 53.5 44.28125 C 53.5 42.949219 51.757812 41.875 49.59375 41.875 L 41.789062 41.875 C 39.625 41.875 37.882812 42.949219 37.882812 44.28125 L 37.882812 51.519531 C 37.882812 52.855469 36.144531 53.929688 33.976562 53.929688 C 31.816406 53.929688 30.078125 52.855469 30.078125 51.519531 L 30.078125 12.9375 C 30.078125 11.601562 31.816406 10.523438 33.976562 10.523438 C 36.144531 10.523438 37.882812 11.601562 37.882812 12.9375 L 37.882812 20.171875 C 37.882812 21.507812 39.625 22.582031 41.789062 22.582031 L 49.59375 22.582031 C 51.757812 22.582031 53.5 21.507812 53.5 20.171875 L 53.5 12.9375 C 53.5 6.257812 44.796875 0.882812 33.976562 0.882812 Z M 33.976562 0.882812 "/></g></svg>
