<svg width="64" height="64" viewBox="0 0 64 64" version="1.1" xmlns:inkscape="http://www.inkscape.org/namespaces/inkscape"><defs><linearGradient id="linear0" gradientUnits="userSpaceOnUse" x1="0" y1="0" x2="0" y2="1" gradientTransform="matrix(44.155981,0,0,44.807733,-13.404989,-12.548431)"><stop offset="0" style="stop-color:rgb(81.960785%,70.980394%,59.215689%);stop-opacity:1;"/><stop offset="1" style="stop-color:rgb(65.098041%,53.725493%,41.568628%);stop-opacity:1;"/></linearGradient><filter style="color-interpolation-filters:sRGB;" inkscape:label="Diffuse Light" id="filter184" x="-0.0375" y="-0.0375" width="1.075" height="1.075"><feGaussianBlur in="SourceGraphic" stdDeviation="1" result="blur" id="feGaussianBlur174" /><feDiffuseLighting diffuseConstant="1" surfaceScale="10" lighting-color="rgb(255,255,255)" result="diffuse" id="feDiffuseLighting178"><feDistantLight elevation="8" azimuth="235" id="feDistantLight176" /></feDiffuseLighting><feComposite in="diffuse" in2="diffuse" operator="arithmetic" k1="1" result="composite1" id="feComposite180" /><feComposite in="composite1" in2="SourceGraphic" k1="1" operator="arithmetic" k3="1" result="composite2" id="feComposite182" /></filter></defs><g id="surface1" style="filter:url(#filter184)"><path style=" stroke:none;fill-rule:evenodd;fill:url(#linear0);" d="M 32.761719 1.277344 C 27.859375 1.277344 23.882812 5.078125 23.882812 9.746094 C 23.882812 11.335938 24.347656 12.808594 25.152344 14.078125 C 21.054688 16.277344 15.496094 21.269531 15.261719 26.636719 C 14.992188 32.78125 15.261719 40.972656 12.574219 45.582031 C 9.878906 50.1875 3.695312 49.675781 3.695312 49.675781 L 3.695312 57.855469 L 26.597656 57.855469 C 26.800781 60.863281 29.410156 63.238281 32.625 63.238281 C 35.835938 63.238281 38.445312 60.863281 38.648438 57.855469 L 60.75 57.855469 L 60.75 49.675781 C 60.75 49.675781 54.542969 50.1875 51.851562 45.582031 C 49.160156 40.972656 49.429688 32.78125 49.160156 26.636719 C 48.941406 21.605469 44.039062 16.917969 40.054688 14.535156 C 41.050781 13.171875 41.640625 11.535156 41.640625 9.746094 C 41.640625 5.078125 37.664062 1.277344 32.761719 1.277344 Z M 32.347656 8.191406 C 33.761719 8.191406 34.902344 9.179688 34.902344 10.378906 C 34.902344 11.582031 33.761719 12.546875 32.347656 12.546875 C 30.9375 12.546875 29.796875 11.582031 29.796875 10.378906 C 29.796875 9.179688 30.9375 8.191406 32.347656 8.191406 Z M 32.347656 8.191406 "/></g></svg>
