<svg width="64" height="64" viewBox="0 0 64 64" version="1.1" xmlns:inkscape="http://www.inkscape.org/namespaces/inkscape"><defs><linearGradient id="linear0" gradientUnits="userSpaceOnUse" x1="0" y1="0" x2="0" y2="1" gradientTransform="matrix(57.121955,0,0,37.048833,4.047661,14.156682)"><stop offset="0" style="stop-color:rgb(61.176473%,69.803923%,85.09804%);stop-opacity:1;"/><stop offset="1" style="stop-color:rgb(44.313726%,52.156866%,65.882355%);stop-opacity:1;"/></linearGradient><filter style="color-interpolation-filters:sRGB;" inkscape:label="Diffuse Light" id="filter184" x="-0.0375" y="-0.0375" width="1.075" height="1.075"><feGaussianBlur in="SourceGraphic" stdDeviation="1" result="blur" id="feGaussianBlur174" /><feDiffuseLighting diffuseConstant="1" surfaceScale="10" lighting-color="rgb(255,255,255)" result="diffuse" id="feDiffuseLighting178"><feDistantLight elevation="8" azimuth="235" id="feDistantLight176" /></feDiffuseLighting><feComposite in="diffuse" in2="diffuse" operator="arithmetic" k1="1" result="composite1" id="feComposite180" /><feComposite in="composite1" in2="SourceGraphic" k1="1" operator="arithmetic" k3="1" result="composite2" id="feComposite182" /></filter></defs><g id="surface1" style="filter:url(#filter184)"><path style=" stroke:none;fill-rule:nonzero;fill:url(#linear0);" d="M 17.992188 10.746094 L 1.621094 30.164062 L 17.992188 49.589844 L 22.089844 44.734375 L 9.804688 30.164062 L 22.089844 15.601562 Z M 46.648438 10.746094 L 42.558594 15.601562 L 54.839844 30.164062 L 42.558594 44.734375 L 46.648438 49.589844 L 63.027344 30.164062 Z M 20.042969 27.738281 L 20.042969 32.597656 L 24.132812 32.597656 L 24.132812 27.738281 Z M 30.273438 27.738281 L 30.273438 32.597656 L 34.371094 32.597656 L 34.371094 27.738281 Z M 40.511719 27.738281 L 40.511719 32.597656 L 44.601562 32.597656 L 44.601562 27.738281 Z M 40.511719 27.738281 "/></g></svg>
