<svg width="64" height="64" viewBox="0 0 64 64" version="1.1" xmlns:inkscape="http://www.inkscape.org/namespaces/inkscape"><defs><linearGradient id="linear0" gradientUnits="userSpaceOnUse" x1="0" y1="0" x2="0" y2="1" gradientTransform="matrix(56.921875,0,0,64,3.539062,0)"><stop offset="0" style="stop-color:rgb(100%,73.333335%,0%);stop-opacity:1;"/><stop offset="1" style="stop-color:rgb(70.19608%,51.372552%,0%);stop-opacity:1;"/></linearGradient><filter style="color-interpolation-filters:sRGB;" inkscape:label="Diffuse Light" id="filter184" x="-0.0375" y="-0.0375" width="1.075" height="1.075"><feGaussianBlur in="SourceGraphic" stdDeviation="1" result="blur" id="feGaussianBlur174" /><feDiffuseLighting diffuseConstant="1" surfaceScale="10" lighting-color="rgb(255,255,255)" result="diffuse" id="feDiffuseLighting178"><feDistantLight elevation="8" azimuth="235" id="feDistantLight176" /></feDiffuseLighting><feComposite in="diffuse" in2="diffuse" operator="arithmetic" k1="1" result="composite1" id="feComposite180" /><feComposite in="composite1" in2="SourceGraphic" k1="1" operator="arithmetic" k3="1" result="composite2" id="feComposite182" /></filter></defs><g id="surface1" style="filter:url(#filter184)"><path style=" stroke:none;fill-rule:evenodd;fill:url(#linear0);" d="M 7.816406 0 L 29.195312 0 C 31.550781 0 33.46875 1.914062 33.46875 4.277344 L 33.46875 25.652344 C 33.46875 28.011719 31.550781 29.929688 29.195312 29.929688 L 7.816406 29.929688 C 5.457031 29.929688 3.539062 28.011719 3.539062 25.652344 L 3.539062 4.277344 C 3.539062 1.914062 5.457031 0 7.816406 0 Z M 34.804688 34.070312 L 56.183594 34.070312 C 58.542969 34.070312 60.460938 35.988281 60.460938 38.347656 L 60.460938 59.722656 C 60.460938 62.085938 58.542969 64 56.183594 64 L 34.804688 64 C 32.449219 64 30.53125 62.085938 30.53125 59.722656 L 30.53125 38.347656 C 30.53125 35.988281 32.449219 34.070312 34.804688 34.070312 Z M 34.804688 34.070312 "/></g></svg>
