<svg width="64" height="64" viewBox="0 0 64 64" version="1.1" xmlns:inkscape="http://www.inkscape.org/namespaces/inkscape"><defs><linearGradient id="linear0" gradientUnits="userSpaceOnUse" x1="0" y1="0" x2="0" y2="1" gradientTransform="matrix(64,0,0,64,0,0)"><stop offset="0" style="stop-color:rgb(100%,56.862748%,82.745099%);stop-opacity:1;"/><stop offset="1" style="stop-color:rgb(100%,0%,60.000002%);stop-opacity:1;"/></linearGradient><filter style="color-interpolation-filters:sRGB;" inkscape:label="Diffuse Light" id="filter184" x="-0.0375" y="-0.0375" width="1.075" height="1.075"><feGaussianBlur in="SourceGraphic" stdDeviation="1" result="blur" id="feGaussianBlur174" /><feDiffuseLighting diffuseConstant="1" surfaceScale="10" lighting-color="rgb(255,255,255)" result="diffuse" id="feDiffuseLighting178"><feDistantLight elevation="8" azimuth="235" id="feDistantLight176" /></feDiffuseLighting><feComposite in="diffuse" in2="diffuse" operator="arithmetic" k1="1" result="composite1" id="feComposite180" /><feComposite in="composite1" in2="SourceGraphic" k1="1" operator="arithmetic" k3="1" result="composite2" id="feComposite182" /></filter></defs><g id="surface1" style="filter:url(#filter184)"><path style=" stroke:none;fill-rule:nonzero;fill:url(#linear0);" d="M 0 11.433594 L 5.542969 33.285156 L 26.222656 27.429688 L 18.730469 22.859375 C 23.507812 14.113281 34.089844 11.117188 42.367188 16.167969 C 50.640625 21.214844 53.476562 32.398438 48.699219 41.140625 C 43.921875 49.886719 33.339844 52.882812 25.0625 47.832031 C 22.425781 46.21875 20.238281 43.890625 18.722656 41.09375 L 5.957031 44.707031 C 8.53125 51.007812 12.957031 56.269531 18.574219 59.707031 C 33.058594 68.542969 51.578125 63.300781 59.9375 47.996094 C 68.300781 32.695312 63.335938 13.125 48.855469 4.292969 C 34.371094 -4.542969 15.855469 0.699219 7.492188 16.003906 Z M 0 11.433594 "/></g></svg>
