<svg width="64" height="64" viewBox="0 0 64 64" version="1.1" xmlns:inkscape="http://www.inkscape.org/namespaces/inkscape"><defs><linearGradient id="linear0" gradientUnits="userSpaceOnUse" x1="0" y1="0" x2="0" y2="1" gradientTransform="matrix(71.158629,0,0,76.348269,-3.339866,-6.263513)"><stop offset="0" style="stop-color:rgb(0%,73.333335%,100%);stop-opacity:1;"/><stop offset="1" style="stop-color:rgb(0%,52.156866%,70.980394%);stop-opacity:1;"/></linearGradient><linearGradient id="linear1" gradientUnits="userSpaceOnUse" x1="0" y1="0" x2="0" y2="1" gradientTransform="matrix(71.158629,0,0,76.348269,-3.339866,-6.263513)"><stop offset="0" style="stop-color:rgb(0%,73.333335%,100%);stop-opacity:1;"/><stop offset="1" style="stop-color:rgb(0%,52.156866%,70.980394%);stop-opacity:1;"/></linearGradient><linearGradient id="linear2" gradientUnits="userSpaceOnUse" x1="0" y1="0" x2="0" y2="1" gradientTransform="matrix(71.158629,0,0,76.348269,-3.339866,-6.263513)"><stop offset="0" style="stop-color:rgb(0%,73.333335%,100%);stop-opacity:1;"/><stop offset="1" style="stop-color:rgb(0%,52.156866%,70.980394%);stop-opacity:1;"/></linearGradient><filter style="color-interpolation-filters:sRGB;" inkscape:label="Diffuse Light" id="filter184" x="-0.0375" y="-0.0375" width="1.075" height="1.075"><feGaussianBlur in="SourceGraphic" stdDeviation="1" result="blur" id="feGaussianBlur174" /><feDiffuseLighting diffuseConstant="1" surfaceScale="10" lighting-color="rgb(255,255,255)" result="diffuse" id="feDiffuseLighting178"><feDistantLight elevation="8" azimuth="235" id="feDistantLight176" /></feDiffuseLighting><feComposite in="diffuse" in2="diffuse" operator="arithmetic" k1="1" result="composite1" id="feComposite180" /><feComposite in="composite1" in2="SourceGraphic" k1="1" operator="arithmetic" k3="1" result="composite2" id="feComposite182" /></filter></defs><g id="surface1" style="filter:url(#filter184)"><path style=" stroke:none;fill-rule:nonzero;fill:url(#linear0);" d="M 1.976562 49.457031 L 1.976562 62.449219 L 62.644531 62.449219 L 62.644531 49.457031 Z M 13.378906 52.355469 C 15.351562 52.355469 16.945312 54.066406 16.945312 56.175781 C 16.945312 58.277344 15.351562 59.980469 13.378906 59.980469 C 11.410156 59.980469 9.816406 58.277344 9.816406 56.175781 C 9.816406 54.066406 11.410156 52.355469 13.378906 52.355469 M 26.003906 52.355469 C 27.976562 52.355469 29.574219 54.066406 29.574219 56.175781 C 29.574219 58.277344 27.976562 59.980469 26.003906 59.980469 C 24.035156 59.980469 22.441406 58.277344 22.441406 56.175781 C 22.441406 54.066406 24.035156 52.355469 26.003906 52.355469 M 38.625 52.355469 C 40.59375 52.355469 42.191406 54.066406 42.191406 56.175781 C 42.191406 58.277344 40.59375 59.980469 38.625 59.980469 C 36.65625 59.980469 35.058594 58.277344 35.058594 56.175781 C 35.058594 54.066406 36.65625 52.355469 38.625 52.355469 M 51.242188 52.355469 C 53.214844 52.355469 54.8125 54.066406 54.8125 56.175781 C 54.8125 58.277344 53.214844 59.980469 51.242188 59.980469 C 49.273438 59.980469 47.679688 58.277344 47.679688 56.175781 C 47.679688 54.066406 49.273438 52.355469 51.242188 52.355469 "/><path style=" stroke:none;fill-rule:nonzero;fill:url(#linear1);" d="M 9.550781 9.355469 L 9.550781 40.25 L 57.476562 40.25 L 57.476562 9.355469 Z M 9.550781 9.355469 "/><path style=" stroke:none;fill-rule:nonzero;fill:url(#linear2);" d="M 9.550781 1.847656 L 57.476562 1.847656 L 57.476562 6.117188 L 9.550781 6.117188 Z M 9.550781 1.847656 "/></g></svg>
