<svg width="64" height="64" viewBox="0 0 64 64" version="1.1" xmlns:inkscape="http://www.inkscape.org/namespaces/inkscape"><defs><linearGradient id="linear0" gradientUnits="userSpaceOnUse" x1="0" y1="0" x2="0" y2="1" gradientTransform="matrix(66.925191,0,0,67.926268,-1.2755,-2.004817)"><stop offset="0" style="stop-color:rgb(61.176473%,69.803923%,85.09804%);stop-opacity:1;"/><stop offset="1" style="stop-color:rgb(44.313726%,52.156866%,65.882355%);stop-opacity:1;"/></linearGradient><linearGradient id="linear1" gradientUnits="userSpaceOnUse" x1="0" y1="0" x2="0" y2="1" gradientTransform="matrix(66.925191,0,0,67.926268,-1.2755,-2.004817)"><stop offset="0" style="stop-color:rgb(61.176473%,69.803923%,85.09804%);stop-opacity:1;"/><stop offset="1" style="stop-color:rgb(44.313726%,52.156866%,65.882355%);stop-opacity:1;"/></linearGradient><linearGradient id="linear2" gradientUnits="userSpaceOnUse" x1="0" y1="0" x2="0" y2="1" gradientTransform="matrix(66.925191,0,0,67.926268,-1.2755,-2.004817)"><stop offset="0" style="stop-color:rgb(61.176473%,69.803923%,85.09804%);stop-opacity:1;"/><stop offset="1" style="stop-color:rgb(44.313726%,52.156866%,65.882355%);stop-opacity:1;"/></linearGradient><linearGradient id="linear3" gradientUnits="userSpaceOnUse" x1="0" y1="0" x2="0" y2="1" gradientTransform="matrix(66.925191,0,0,67.926268,-1.2755,-2.004817)"><stop offset="0" style="stop-color:rgb(61.176473%,69.803923%,85.09804%);stop-opacity:1;"/><stop offset="1" style="stop-color:rgb(44.313726%,52.156866%,65.882355%);stop-opacity:1;"/></linearGradient><linearGradient id="linear4" gradientUnits="userSpaceOnUse" x1="0" y1="0" x2="0" y2="1" gradientTransform="matrix(66.925191,0,0,67.926268,-1.2755,-2.004817)"><stop offset="0" style="stop-color:rgb(61.176473%,69.803923%,85.09804%);stop-opacity:1;"/><stop offset="1" style="stop-color:rgb(44.313726%,52.156866%,65.882355%);stop-opacity:1;"/></linearGradient><filter style="color-interpolation-filters:sRGB;" inkscape:label="Diffuse Light" id="filter184" x="-0.0375" y="-0.0375" width="1.075" height="1.075"><feGaussianBlur in="SourceGraphic" stdDeviation="1" result="blur" id="feGaussianBlur174" /><feDiffuseLighting diffuseConstant="1" surfaceScale="10" lighting-color="rgb(255,255,255)" result="diffuse" id="feDiffuseLighting178"><feDistantLight elevation="8" azimuth="235" id="feDistantLight176" /></feDiffuseLighting><feComposite in="diffuse" in2="diffuse" operator="arithmetic" k1="1" result="composite1" id="feComposite180" /><feComposite in="composite1" in2="SourceGraphic" k1="1" operator="arithmetic" k3="1" result="composite2" id="feComposite182" /></filter></defs><g id="surface1" style="filter:url(#filter184)"><path style=" stroke:none;fill-rule:nonzero;fill:url(#linear0);" d="M 17.117188 5.394531 L 47.390625 5.394531 L 47.390625 13.042969 L 51.179688 13.042969 L 51.179688 5.394531 C 51.179688 3.28125 49.492188 1.566406 47.390625 1.566406 L 17.117188 1.566406 C 15.027344 1.566406 13.328125 3.28125 13.328125 5.394531 L 13.328125 13.042969 L 17.117188 13.042969 Z M 17.117188 5.394531 "/><path style=" stroke:none;fill-rule:nonzero;fill:url(#linear1);" d="M 58.75 16.871094 L 5.761719 16.871094 C 3.667969 16.871094 1.972656 18.585938 1.972656 20.691406 L 1.972656 39.820312 C 1.972656 41.933594 3.667969 43.644531 5.761719 43.644531 L 13.328125 43.644531 L 13.328125 58.941406 C 13.328125 61.054688 15.027344 62.769531 17.117188 62.769531 L 47.398438 62.769531 C 49.492188 62.769531 51.179688 61.054688 51.179688 58.941406 L 51.179688 43.644531 L 58.75 43.644531 C 60.84375 43.644531 62.535156 41.933594 62.535156 39.820312 L 62.535156 20.691406 C 62.535156 18.585938 60.84375 16.871094 58.75 16.871094 M 47.390625 58.941406 L 17.117188 58.941406 L 17.117188 32.167969 L 47.390625 32.167969 Z M 54.96875 28.347656 C 52.871094 28.347656 51.179688 26.632812 51.179688 24.519531 C 51.179688 22.40625 52.875 20.691406 54.96875 20.691406 C 57.058594 20.691406 58.75 22.40625 58.75 24.519531 C 58.75 26.632812 57.058594 28.347656 54.96875 28.347656 "/><path style=" stroke:none;fill-rule:nonzero;fill:url(#linear2);" d="M 20.898438 35.996094 L 36.042969 35.996094 L 36.042969 39.820312 L 20.898438 39.820312 Z M 20.898438 35.996094 "/><path style=" stroke:none;fill-rule:nonzero;fill:url(#linear3);" d="M 20.898438 43.644531 L 43.613281 43.644531 L 43.613281 47.472656 L 20.898438 47.472656 Z M 20.898438 43.644531 "/><path style=" stroke:none;fill-rule:nonzero;fill:url(#linear4);" d="M 20.898438 51.292969 L 43.613281 51.292969 L 43.613281 55.125 L 20.898438 55.125 Z M 20.898438 51.292969 "/></g></svg>
