<svg width="64" height="64" viewBox="0 0 64 64" version="1.1" xmlns:inkscape="http://www.inkscape.org/namespaces/inkscape"><defs><linearGradient id="linear0" gradientUnits="userSpaceOnUse" x1="0" y1="0" x2="0" y2="1" gradientTransform="matrix(71.735934,0,0,51.142827,-4.011147,4.970706)"><stop offset="0" style="stop-color:rgb(0%,96.078432%,86.274511%);stop-opacity:1;"/><stop offset="1" style="stop-color:rgb(0%,54.901963%,49.411765%);stop-opacity:1;"/></linearGradient><filter style="color-interpolation-filters:sRGB;" inkscape:label="Diffuse Light" id="filter184" x="-0.0375" y="-0.0375" width="1.075" height="1.075"><feGaussianBlur in="SourceGraphic" stdDeviation="1" result="blur" id="feGaussianBlur174" /><feDiffuseLighting diffuseConstant="1" surfaceScale="10" lighting-color="rgb(255,255,255)" result="diffuse" id="feDiffuseLighting178"><feDistantLight elevation="8" azimuth="235" id="feDistantLight176" /></feDiffuseLighting><feComposite in="diffuse" in2="diffuse" operator="arithmetic" k1="1" result="composite1" id="feComposite180" /><feComposite in="composite1" in2="SourceGraphic" k1="1" operator="arithmetic" k3="1" result="composite2" id="feComposite182" /></filter></defs><g id="surface1" style="filter:url(#filter184)"><path style=" stroke:none;fill-rule:nonzero;fill:url(#linear0);" d="M 44.238281 1.253906 C 40.03125 1.253906 35.480469 14.421875 29.949219 27.777344 C 24.464844 20.359375 23.746094 16.636719 18.679688 16.636719 C 12.15625 16.636719 12.871094 22.789062 1.257812 35.09375 C 11.226562 45.496094 13.710938 62.785156 18.679688 62.785156 C 22.769531 62.785156 25.160156 51.1875 31.367188 41.28125 C 37.292969 49.433594 40.167969 53.558594 44.238281 53.558594 C 49.207031 53.558594 52.367188 47.402344 61.660156 35.09375 C 54.691406 19.710938 49.207031 1.253906 44.238281 1.253906 Z M 44.238281 1.253906 "/></g></svg>
