<svg width="64" height="64" viewBox="0 0 64 64" version="1.1" xmlns:inkscape="http://www.inkscape.org/namespaces/inkscape"><defs><linearGradient id="linear0" gradientUnits="userSpaceOnUse" x1="0" y1="0" x2="0" y2="1" gradientTransform="matrix(72.112732,0,0,44.531733,-4.281929,8.417388)"><stop offset="0" style="stop-color:rgb(82.352942%,61.176473%,100%);stop-opacity:1;"/><stop offset="1" style="stop-color:rgb(66.666669%,0%,100%);stop-opacity:1;"/></linearGradient><filter style="color-interpolation-filters:sRGB;" inkscape:label="Diffuse Light" id="filter184" x="-0.0375" y="-0.0375" width="1.075" height="1.075"><feGaussianBlur in="SourceGraphic" stdDeviation="1" result="blur" id="feGaussianBlur174" /><feDiffuseLighting diffuseConstant="1" surfaceScale="10" lighting-color="rgb(255,255,255)" result="diffuse" id="feDiffuseLighting178"><feDistantLight elevation="8" azimuth="235" id="feDistantLight176" /></feDiffuseLighting><feComposite in="diffuse" in2="diffuse" operator="arithmetic" k1="1" result="composite1" id="feComposite180" /><feComposite in="composite1" in2="SourceGraphic" k1="1" operator="arithmetic" k3="1" result="composite2" id="feComposite182" /></filter></defs><g id="surface1" style="filter:url(#filter184)"><path style=" stroke:none;fill-rule:nonzero;fill:url(#linear0);" d="M 5.476562 16.34375 C 5.476562 23.753906 13.1875 29.316406 20.902344 29.316406 C 33.636719 29.316406 59.476562 21.453125 59.476562 9.664062 C 59.476562 6.910156 57.9375 5.734375 55.621094 5.734375 C 40.191406 5.734375 20.902344 29.316406 20.902344 45.039062 C 20.902344 47.96875 22.832031 52.902344 26.6875 52.902344 C 38.261719 52.902344 44.046875 47.003906 44.046875 41.105469 C 44.046875 38.359375 42.011719 37.175781 40.191406 37.175781 C 33.636719 37.175781 28.621094 45.039062 28.621094 62.726562 C 23.519531 49.566406 28.621094 33.246094 40.191406 33.246094 C 45.59375 33.246094 47.90625 37.175781 47.90625 41.105469 C 47.90625 48.972656 38.261719 56.832031 24.761719 56.832031 C 19.304688 56.832031 13.1875 53.6875 13.1875 47.003906 C 13.1875 27.347656 40.191406 1.796875 55.621094 1.796875 C 61.789062 1.796875 63.332031 5.957031 63.332031 9.664062 C 63.332031 21.453125 37.488281 33.246094 20.902344 33.246094 C 13.1875 33.246094 1.617188 27.347656 1.617188 15.558594 C 1.617188 5.734375 10.105469 1.796875 17.046875 1.796875 C 22.832031 1.796875 36.539062 2.679688 44.046875 19.488281 C 35.578125 7.859375 27.847656 5.734375 20.132812 5.734375 C 13.1875 5.734375 5.476562 7.695312 5.476562 16.34375 Z M 5.476562 16.34375 "/></g></svg>
