<svg xmlns="http://www.w3.org/2000/svg" xmlns:xlink="http://www.w3.org/1999/xlink" width="64" height="64" viewBox="0 0 64 64" version="1.1"><g id="surface1"><path style=" stroke:none;fill-rule:nonzero;fill:rgb(38.039216%,38.039216%,38.039216%);fill-opacity:1;" d="M 34.664062 5.488281 L 18.28125 63.34375 L 59.246094 63.34375 C 61.191406 63.34375 62.757812 61.308594 62.757812 58.777344 L 62.757812 11.582031 Z M 34.664062 5.488281 "/><path style=" stroke:none;fill-rule:nonzero;fill:rgb(29.803923%,29.803923%,29.803923%);fill-opacity:1;" d="M 46.371094 2.445312 L 41.6875 5.488281 L 39.347656 11.582031 L 62.757812 11.582031 L 62.757812 7.015625 C 62.757812 4.480469 61.191406 2.445312 59.246094 2.445312 Z M 46.371094 2.445312 "/><path style=" stroke:none;fill-rule:nonzero;fill:rgb(80.000001%,80.000001%,80.000001%);fill-opacity:1;" d="M 5.40625 2.445312 C 3.457031 2.445312 1.894531 4.480469 1.894531 7.015625 L 1.894531 11.582031 L 22.964844 17.667969 L 42.160156 11.582031 L 46.371094 2.445312 Z M 5.40625 2.445312 "/><path style=" stroke:none;fill-rule:nonzero;fill:rgb(97.254902%,97.254902%,97.254902%);fill-opacity:1;" d="M 1.894531 11.582031 L 1.894531 58.777344 C 1.894531 61.308594 3.457031 63.34375 5.40625 63.34375 L 18.28125 63.34375 L 42.160156 11.582031 Z M 1.894531 11.582031 "/></g></svg>
