<svg width="64" height="64" viewBox="0 0 64 64" version="1.1" xmlns:inkscape="http://www.inkscape.org/namespaces/inkscape"><defs><linearGradient id="linear0" gradientUnits="userSpaceOnUse" x1="0" y1="0" x2="0" y2="1" gradientTransform="matrix(57.603742,0,0,58.163801,3.782883,2.894069)"><stop offset="0" style="stop-color:rgb(100%,56.862748%,82.745099%);stop-opacity:1;"/><stop offset="1" style="stop-color:rgb(100%,0%,60.000002%);stop-opacity:1;"/></linearGradient><filter style="color-interpolation-filters:sRGB;" inkscape:label="Diffuse Light" id="filter184" x="-0.0375" y="-0.0375" width="1.075" height="1.075"><feGaussianBlur in="SourceGraphic" stdDeviation="1" result="blur" id="feGaussianBlur174" /><feDiffuseLighting diffuseConstant="1" surfaceScale="10" lighting-color="rgb(255,255,255)" result="diffuse" id="feDiffuseLighting178"><feDistantLight elevation="8" azimuth="235" id="feDistantLight176" /></feDiffuseLighting><feComposite in="diffuse" in2="diffuse" operator="arithmetic" k1="1" result="composite1" id="feComposite180" /><feComposite in="composite1" in2="SourceGraphic" k1="1" operator="arithmetic" k3="1" result="composite2" id="feComposite182" /></filter></defs><g id="surface1" style="filter:url(#filter184)"><path style=" stroke:none;fill-rule:nonzero;fill:url(#linear0);" d="M 32.640625 1.457031 C 23.429688 1.457031 15.167969 5.5625 9.570312 12.054688 L 24.164062 29.421875 L 33.890625 1.492188 C 33.476562 1.46875 33.0625 1.457031 32.640625 1.457031 M 38.878906 2.105469 L 31.527344 23.242188 L 59.953125 18.414062 C 55.832031 10.15625 48.121094 4.03125 38.878906 2.105469 M 6.96875 15.527344 C 3.898438 20.320312 2.109375 26.027344 2.109375 32.15625 C 2.109375 35.445312 2.625 38.617188 3.578125 41.582031 L 25.707031 37.832031 L 6.96875 15.53125 M 61.78125 22.945312 L 39.667969 26.699219 L 58.191406 48.980469 C 61.347656 44.144531 63.179688 38.371094 63.179688 32.15625 C 63.179688 28.949219 62.6875 25.855469 61.78125 22.945312 M 32.640625 27.414062 C 30.039062 27.414062 27.933594 29.539062 27.933594 32.15625 C 27.933594 34.777344 30.039062 36.898438 32.640625 36.898438 C 35.25 36.898438 37.359375 34.777344 37.359375 32.15625 C 37.359375 29.539062 35.25 27.414062 32.640625 27.414062 M 41.082031 34.738281 L 41.042969 34.835938 L 41.109375 34.863281 L 39.230469 39.855469 C 38.378906 42.226562 41.226562 34.695312 41.15625 34.875 L 30.605469 62.789062 C 31.28125 62.832031 31.957031 62.851562 32.648438 62.851562 C 41.839844 62.851562 50.082031 58.769531 55.679688 52.3125 L 41.082031 34.738281 M 34.324219 41.082031 L 5.382812 45.988281 C 9.503906 54.1875 17.183594 60.277344 26.378906 62.207031 L 34.324219 41.082031 "/></g></svg>
