<svg xmlns="http://www.w3.org/2000/svg" xmlns:xlink="http://www.w3.org/1999/xlink" width="64" height="64" viewBox="0 0 64 64" version="1.1"><g id="surface1"><path style=" stroke:none;fill-rule:nonzero;fill:rgb(0%,63.137257%,87.058824%);fill-opacity:1;" d="M 45.78125 14.75 L 54.28125 54.769531 L 62.488281 50.347656 L 62.488281 27.488281 L 51.210938 17.277344 Z M 45.78125 14.75 "/><path style=" stroke:none;fill-rule:nonzero;fill:rgb(27.058825%,74.901962%,72.156864%);fill-opacity:1;" d="M 29.8125 45.265625 L 14.730469 46.539062 L 17.375 51.867188 L 28.308594 63.050781 L 51.230469 63.039062 L 54.28125 54.761719 Z M 29.8125 45.265625 "/><path style=" stroke:none;fill-rule:nonzero;fill:rgb(0%,43.137255%,72.156864%);fill-opacity:1;" d="M 30.289062 13.445312 L 14.730469 14.785156 L 2.167969 34.28125 L 3.015625 37.109375 L 11.101562 45.140625 L 14.730469 46.539062 L 54.273438 54.761719 L 57.363281 46.480469 L 45.78125 14.75 Z M 30.289062 13.445312 "/><path style=" stroke:none;fill-rule:nonzero;fill:rgb(0%,69.01961%,65.882355%);fill-opacity:1;" d="M 34.839844 2.089844 L 14.730469 14.785156 L 45.78125 14.75 L 44.929688 10.996094 L 37.703125 3.550781 Z M 14.730469 14.785156 L 14.730469 46.539062 L 30.78125 52.378906 L 44.890625 57.96875 L 54.28125 54.761719 C 40.773438 40.855469 29.40625 29.601562 14.730469 14.785156 Z M 14.730469 14.785156 "/></g></svg>
