<svg width="64" height="64" viewBox="0 0 64 64" version="1.1" xmlns:inkscape="http://www.inkscape.org/namespaces/inkscape"><defs><linearGradient id="linear0" gradientUnits="userSpaceOnUse" x1="0" y1="0" x2="0" y2="1" gradientTransform="matrix(56.203125,0,0,64,3.898438,0)"><stop offset="0" style="stop-color:rgb(41.960785%,64.313728%,100%);stop-opacity:1;"/><stop offset="1" style="stop-color:rgb(0%,43.137255%,100%);stop-opacity:1;"/></linearGradient><filter style="color-interpolation-filters:sRGB;" inkscape:label="Diffuse Light" id="filter184" x="-0.0375" y="-0.0375" width="1.075" height="1.075"><feGaussianBlur in="SourceGraphic" stdDeviation="1" result="blur" id="feGaussianBlur174" /><feDiffuseLighting diffuseConstant="1" surfaceScale="10" lighting-color="rgb(255,255,255)" result="diffuse" id="feDiffuseLighting178"><feDistantLight elevation="8" azimuth="235" id="feDistantLight176" /></feDiffuseLighting><feComposite in="diffuse" in2="diffuse" operator="arithmetic" k1="1" result="composite1" id="feComposite180" /><feComposite in="composite1" in2="SourceGraphic" k1="1" operator="arithmetic" k3="1" result="composite2" id="feComposite182" /></filter></defs><g id="surface1" style="filter:url(#filter184)"><path style=" stroke:none;fill-rule:nonzero;fill:url(#linear0);" d="M 32 0.00390625 C 16.476562 0.00390625 3.898438 5.597656 3.898438 12.507812 C 3.898438 19.421875 16.476562 25.015625 32 25.015625 C 47.523438 25.015625 60.101562 19.421875 60.101562 12.507812 C 60.101562 5.597656 47.523438 0 32 0 Z M 3.898438 15.921875 L 3.898438 25.503906 C 3.898438 32.414062 16.476562 38.011719 32 38.011719 C 47.523438 38.011719 60.101562 32.414062 60.101562 25.503906 L 60.101562 15.921875 C 60.101562 22.832031 47.523438 28.429688 32 28.429688 C 16.476562 28.429688 3.898438 22.832031 3.898438 15.921875 Z M 3.898438 28.914062 L 3.898438 38.496094 C 3.898438 45.410156 16.476562 51.003906 32 51.003906 C 47.523438 51.003906 60.101562 45.410156 60.101562 38.496094 L 60.101562 28.910156 C 60.101562 35.824219 47.523438 41.421875 32 41.421875 C 16.476562 41.421875 3.898438 35.828125 3.898438 28.910156 Z M 3.898438 41.90625 L 3.898438 51.492188 C 3.898438 58.402344 16.476562 64 32 64 C 47.523438 64 60.101562 58.402344 60.101562 51.492188 L 60.101562 41.90625 C 60.101562 48.820312 47.523438 54.414062 32 54.414062 C 16.476562 54.414062 3.898438 48.824219 3.898438 41.90625 Z M 3.898438 41.90625 "/></g></svg>
