<?xml version="1.0" encoding="UTF-8" standalone="no"?><svg width="64" height="64" viewBox="0 0 64 64" version="1.1" id="svg455" sodipodi:docname="date-countdown.svg" inkscape:version="1.2.2 (b0a8486541, 2022-12-01)" xmlns:inkscape="http://www.inkscape.org/namespaces/inkscape" xmlns:sodipodi="http://sodipodi.sourceforge.net/DTD/sodipodi-0.dtd" xmlns:xlink="http://www.w3.org/1999/xlink" xmlns="http://www.w3.org/2000/svg" xmlns:svg="http://www.w3.org/2000/svg"> <sodipodi:namedview id="namedview457" pagecolor="#ffffff" bordercolor="#000000" borderopacity="0.25" inkscape:showpageshadow="2" inkscape:pageopacity="0.0" inkscape:pagecheckerboard="0" inkscape:deskcolor="#d1d1d1" showgrid="false" inkscape:zoom="3.6875" inkscape:cx="32" inkscape:cy="32.135593" inkscape:window-width="1432" inkscape:window-height="844" inkscape:window-x="0" inkscape:window-y="0" inkscape:window-maximized="1" inkscape:current-layer="svg455" /> <defs id="defs448"> <linearGradient id="linear0" gradientUnits="userSpaceOnUse" x1="0" y1="0" x2="0" y2="1" gradientTransform="matrix(64,0,0,64,0,0)"> <stop offset="0" style="stop-color:#c1c6d6;stop-opacity:1;" id="stop424" /> <stop offset="1" style="stop-color:#6f7380;stop-opacity:1;" id="stop426" /> </linearGradient> <filter id="alpha" filterUnits="objectBoundingBox" x="0" y="0" width="1" height="1"> <feColorMatrix type="matrix" in="SourceGraphic" values="0 0 0 0 1 0 0 0 0 1 0 0 0 0 1 0 0 0 1 0" id="feColorMatrix429" /> </filter> <mask id="mask0"> <g filter="url(#alpha)" id="g434"> <rect x="0" y="0" width="64" height="64" style="fill:rgb(0%,0%,0%);fill-opacity:0.65;stroke:none;" id="rect432" /> </g> </mask> <linearGradient id="linear1" gradientUnits="userSpaceOnUse" x1="0" y1="0" x2="0" y2="1" gradientTransform="matrix(45.710938,0,0,45.710938,9.144531,9.144531)"> <stop offset="0" style="stop-color:#c1c6d6;stop-opacity:1;" id="stop437" /> <stop offset="1" style="stop-color:#6f7380;stop-opacity:1;" id="stop439" /> </linearGradient> <clipPath id="clip1"> <rect x="0" y="0" width="64" height="64" id="rect442" /> </clipPath> <g id="surface5" clip-path="url(#clip1)"> <path style=" stroke:none;fill-rule:nonzero;fill:url(#linear1);" d="M 54.855469 32 C 54.855469 44.621094 44.621094 54.855469 32 54.855469 C 19.378906 54.855469 9.144531 44.621094 9.144531 32 C 9.144531 19.378906 19.378906 9.144531 32 9.144531 C 44.621094 9.144531 54.855469 19.378906 54.855469 32 Z M 54.855469 32 " id="path445" /> </g> <filter style="color-interpolation-filters:sRGB;" inkscape:label="Diffuse Light" id="filter1608" x="-0.0375" y="-0.0375" width="1.075" height="1.075"> <feGaussianBlur in="SourceGraphic" stdDeviation="1" result="blur" id="feGaussianBlur1598" /> <feDiffuseLighting diffuseConstant="1" surfaceScale="10" lighting-color="rgb(255,255,255)" result="diffuse" id="feDiffuseLighting1602"> <feDistantLight elevation="8" azimuth="235" id="feDistantLight1600" /> </feDiffuseLighting> <feComposite in="diffuse" in2="diffuse" operator="arithmetic" k1="1" result="composite1" id="feComposite1604" /> <feComposite in="composite1" in2="SourceGraphic" k1="1" operator="arithmetic" k3="1" result="composite2" id="feComposite1606" /> </filter> </defs> <g id="surface1" style="filter:url(#filter1608)"> <path style=" stroke:none;fill-rule:nonzero;fill:url(#linear0);" d="M 32 9.144531 C 29.476562 9.144531 27.429688 7.097656 27.429688 4.570312 C 27.429688 2.046875 29.476562 0 32 0 C 49.671875 0 64 14.328125 64 32 C 64 49.671875 49.671875 64 32 64 C 14.488281 63.992188 0.234375 49.902344 0.0195312 32.394531 C 0.0078125 32.265625 0 32.132812 0 32 C 0 29.476562 2.046875 27.429688 4.570312 27.429688 C 7.097656 27.429688 9.144531 29.476562 9.144531 32 C 9.144531 44.617188 19.382812 54.855469 32 54.855469 C 44.617188 54.855469 54.855469 44.617188 54.855469 32 C 54.855469 19.382812 44.617188 9.144531 32 9.144531 Z M 32 9.144531 " id="path450" /> <use xlink:href="#surface5" mask="url(#mask0)" id="use452" /> </g></svg>
