<svg width="64" height="64" viewBox="0 0 64 64" version="1.1" xmlns:inkscape="http://www.inkscape.org/namespaces/inkscape"><defs><linearGradient id="linear0" gradientUnits="userSpaceOnUse" x1="0" y1="0" x2="0" y2="1" gradientTransform="matrix(61.432374,0,0,38.080077,1.078564,12.524995)"><stop offset="0" style="stop-color:rgb(92.941177%,83.529413%,72.549021%);stop-opacity:1;"/><stop offset="1" style="stop-color:rgb(81.960785%,71.372551%,59.215689%);stop-opacity:1;"/></linearGradient><filter style="color-interpolation-filters:sRGB;" inkscape:label="Diffuse Light" id="filter184" x="-0.0375" y="-0.0375" width="1.075" height="1.075"><feGaussianBlur in="SourceGraphic" stdDeviation="1" result="blur" id="feGaussianBlur174" /><feDiffuseLighting diffuseConstant="1" surfaceScale="10" lighting-color="rgb(255,255,255)" result="diffuse" id="feDiffuseLighting178"><feDistantLight elevation="8" azimuth="235" id="feDistantLight176" /></feDiffuseLighting><feComposite in="diffuse" in2="diffuse" operator="arithmetic" k1="1" result="composite1" id="feComposite180" /><feComposite in="composite1" in2="SourceGraphic" k1="1" operator="arithmetic" k3="1" result="composite2" id="feComposite182" /></filter></defs><g id="surface1" style="filter:url(#filter184)"><path style=" stroke:none;fill-rule:nonzero;fill:url(#linear0);" d="M 31.988281 0.742188 C 18.734375 0.742188 7.984375 6.597656 7.984375 13.820312 L 7.984375 50.449219 C 7.984375 57.671875 18.734375 63.523438 31.988281 63.523438 C 45.242188 63.523438 55.988281 57.671875 55.988281 50.449219 L 55.988281 13.820312 C 55.988281 6.597656 45.242188 0.742188 31.988281 0.742188 Z M 31.988281 5.972656 C 41.929688 5.972656 49.988281 9.488281 49.988281 13.820312 C 49.988281 18.15625 41.929688 21.671875 31.988281 21.671875 C 22.046875 21.671875 13.984375 18.15625 13.984375 13.820312 C 13.984375 9.488281 22.046875 5.972656 31.988281 5.972656 Z M 13.984375 22.429688 C 18.527344 25.261719 25.085938 26.890625 31.988281 26.902344 C 38.875 26.902344 45.429688 25.292969 49.988281 22.480469 L 49.988281 32.132812 C 49.988281 36.46875 41.929688 39.980469 31.988281 39.980469 C 22.046875 39.980469 13.984375 36.46875 13.984375 32.132812 Z M 13.984375 40.792969 C 18.535156 43.613281 25.09375 45.234375 31.988281 45.238281 C 38.875 45.242188 45.429688 43.632812 49.988281 40.816406 L 49.988281 50.472656 C 49.988281 54.808594 41.929688 58.320312 31.988281 58.320312 C 22.046875 58.320312 13.984375 54.808594 13.984375 50.472656 Z M 13.984375 40.792969 "/></g></svg>
