<svg width="64" height="64" viewBox="0 0 64 64" version="1.1" xmlns:inkscape="http://www.inkscape.org/namespaces/inkscape"><defs><linearGradient id="linear0" gradientUnits="userSpaceOnUse" x1="0" y1="0" x2="0" y2="1" gradientTransform="matrix(71.135682,0,0,80.442462,-4.642034,-5.009384)"><stop offset="0" style="stop-color:rgb(61.176473%,69.803923%,85.09804%);stop-opacity:1;"/><stop offset="1" style="stop-color:rgb(44.313726%,52.156866%,65.882355%);stop-opacity:1;"/></linearGradient><linearGradient id="linear1" gradientUnits="userSpaceOnUse" x1="0" y1="0" x2="0" y2="1" gradientTransform="matrix(71.135682,0,0,80.442462,-4.642034,-5.009384)"><stop offset="0" style="stop-color:rgb(61.176473%,69.803923%,85.09804%);stop-opacity:1;"/><stop offset="1" style="stop-color:rgb(44.313726%,52.156866%,65.882355%);stop-opacity:1;"/></linearGradient><filter style="color-interpolation-filters:sRGB;" inkscape:label="Diffuse Light" id="filter184" x="-0.0375" y="-0.0375" width="1.075" height="1.075"><feGaussianBlur in="SourceGraphic" stdDeviation="1" result="blur" id="feGaussianBlur174" /><feDiffuseLighting diffuseConstant="1" surfaceScale="10" lighting-color="rgb(255,255,255)" result="diffuse" id="feDiffuseLighting178"><feDistantLight elevation="8" azimuth="235" id="feDistantLight176" /></feDiffuseLighting><feComposite in="diffuse" in2="diffuse" operator="arithmetic" k1="1" result="composite1" id="feComposite180" /><feComposite in="composite1" in2="SourceGraphic" k1="1" operator="arithmetic" k3="1" result="composite2" id="feComposite182" /></filter></defs><g id="surface1" style="filter:url(#filter184)"><path style=" stroke:none;fill-rule:nonzero;fill:url(#linear0);" d="M 4.375 1.285156 C 3.09375 1.285156 1.828125 2.996094 1.828125 4.703125 L 1.816406 4.703125 L 1.816406 14.972656 L 7.015625 16.695312 L 6.921875 11.542969 L 35.042969 11.542969 L 35.042969 18.382812 L 35.050781 18.382812 L 35.058594 8.125 L 32.5 1.285156 Z M 4.375 1.285156 "/><path style=" stroke:none;fill-rule:nonzero;fill:url(#linear1);" d="M 63.183594 11.773438 L 63.183594 62.871094 L 1.816406 62.871094 L 1.816406 14.972656 L 34.269531 23.75 L 35.050781 8.132812 L 60.621094 8.132812 C 61.90625 8.132812 63.183594 9.960938 63.183594 11.78125 Z M 63.183594 11.773438 "/></g></svg>
