<svg width="64" height="64" viewBox="0 0 64 64" version="1.1" xmlns:inkscape="http://www.inkscape.org/namespaces/inkscape"><defs><linearGradient id="linear0" gradientUnits="userSpaceOnUse" x1="0" y1="0" x2="0" y2="1" gradientTransform="matrix(70.089067,0,0,43.318083,-4.411367,9.003943)"><stop offset="0" style="stop-color:rgb(75.686276%,77.64706%,83.92157%);stop-opacity:1;"/><stop offset="1" style="stop-color:rgb(43.529412%,45.09804%,50.196081%);stop-opacity:1;"/></linearGradient><filter style="color-interpolation-filters:sRGB;" inkscape:label="Diffuse Light" id="filter184" x="-0.0375" y="-0.0375" width="1.075" height="1.075"><feGaussianBlur in="SourceGraphic" stdDeviation="1" result="blur" id="feGaussianBlur174" /><feDiffuseLighting diffuseConstant="1" surfaceScale="10" lighting-color="rgb(255,255,255)" result="diffuse" id="feDiffuseLighting178"><feDistantLight elevation="8" azimuth="235" id="feDistantLight176" /></feDiffuseLighting><feComposite in="diffuse" in2="diffuse" operator="arithmetic" k1="1" result="composite1" id="feComposite180" /><feComposite in="composite1" in2="SourceGraphic" k1="1" operator="arithmetic" k3="1" result="composite2" id="feComposite182" /></filter></defs><g id="surface1" style="filter:url(#filter184)"><path style=" stroke:none;fill-rule:nonzero;fill:url(#linear0);" d="M 1.738281 1.816406 L 1.738281 9.394531 L 7.203125 9.394531 L 7.203125 54.882812 L 1.738281 54.882812 L 1.738281 62.460938 L 29.070312 62.460938 L 29.070312 1.816406 Z M 31.800781 1.816406 L 31.800781 9.394531 L 34.535156 9.394531 C 36.046875 9.394531 37.265625 10.527344 37.265625 11.921875 L 37.265625 52.355469 C 37.265625 53.75 36.046875 54.882812 34.535156 54.882812 L 31.800781 54.882812 L 31.800781 62.460938 L 42.734375 62.460938 C 50.933594 62.460938 61.863281 49.828125 61.863281 32.136719 C 61.863281 14.449219 50.933594 1.816406 40 1.816406 Z M 31.800781 1.816406 "/></g></svg>
