<svg width="64" height="64" viewBox="0 0 64 64" version="1.1" xmlns:inkscape="http://www.inkscape.org/namespaces/inkscape"><defs><linearGradient id="linear0" gradientUnits="userSpaceOnUse" x1="0" y1="0" x2="0" y2="1" gradientTransform="matrix(64,0,0,64,0,0)"><stop offset="0" style="stop-color:rgb(81.960785%,70.980394%,59.215689%);stop-opacity:1;"/><stop offset="1" style="stop-color:rgb(65.098041%,53.725493%,41.568628%);stop-opacity:1;"/></linearGradient><filter style="color-interpolation-filters:sRGB;" inkscape:label="Diffuse Light" id="filter184" x="-0.0375" y="-0.0375" width="1.075" height="1.075"><feGaussianBlur in="SourceGraphic" stdDeviation="1" result="blur" id="feGaussianBlur174" /><feDiffuseLighting diffuseConstant="1" surfaceScale="10" lighting-color="rgb(255,255,255)" result="diffuse" id="feDiffuseLighting178"><feDistantLight elevation="8" azimuth="235" id="feDistantLight176" /></feDiffuseLighting><feComposite in="diffuse" in2="diffuse" operator="arithmetic" k1="1" result="composite1" id="feComposite180" /><feComposite in="composite1" in2="SourceGraphic" k1="1" operator="arithmetic" k3="1" result="composite2" id="feComposite182" /></filter></defs><g id="surface1" style="filter:url(#filter184)"><path style=" stroke:none;fill-rule:nonzero;fill:url(#linear0);" d="M 32 0 L 3.199219 17.300781 C 1.273438 18.574219 0 20.464844 0 22.699219 L 0 57.601562 C 0 61.128906 2.871094 64 6.398438 64 L 57.601562 64 C 61.128906 64 64 61.128906 64 57.601562 L 64 22.699219 C 64 20.460938 62.726562 18.265625 60.800781 17.300781 Z M 32 7.398438 L 57.398438 22.601562 L 32 41.601562 L 6.601562 22.601562 Z M 32 16 L 22.398438 25.601562 L 28.800781 25.601562 L 28.800781 32.601562 L 32 35.199219 L 35.199219 32.601562 L 35.199219 25.601562 L 41.601562 25.601562 Z M 32 16 "/></g></svg>
