<svg width="64" height="64" viewBox="0 0 64 64" version="1.1" xmlns:inkscape="http://www.inkscape.org/namespaces/inkscape"><defs><linearGradient id="linear0" gradientUnits="userSpaceOnUse" x1="0" y1="0" x2="0" y2="1" gradientTransform="matrix(64,0,0,42.664062,0,10.667969)"><stop offset="0" style="stop-color:rgb(0%,96.078432%,86.274511%);stop-opacity:1;"/><stop offset="1" style="stop-color:rgb(0%,54.901963%,49.411765%);stop-opacity:1;"/></linearGradient><filter style="color-interpolation-filters:sRGB;" inkscape:label="Diffuse Light" id="filter184" x="-0.0375" y="-0.0375" width="1.075" height="1.075"><feGaussianBlur in="SourceGraphic" stdDeviation="1" result="blur" id="feGaussianBlur174" /><feDiffuseLighting diffuseConstant="1" surfaceScale="10" lighting-color="rgb(255,255,255)" result="diffuse" id="feDiffuseLighting178"><feDistantLight elevation="8" azimuth="235" id="feDistantLight176" /></feDiffuseLighting><feComposite in="diffuse" in2="diffuse" operator="arithmetic" k1="1" result="composite1" id="feComposite180" /><feComposite in="composite1" in2="SourceGraphic" k1="1" operator="arithmetic" k3="1" result="composite2" id="feComposite182" /></filter></defs><g id="surface1" style="filter:url(#filter184)"><path style=" stroke:none;fill-rule:nonzero;fill:url(#linear0);" d="M 6.398438 10.667969 L 6.398438 23.46875 L 0 23.46875 L 0 53.332031 L 64 53.332031 L 64 23.46875 L 57.601562 23.46875 L 57.601562 10.667969 L 53.332031 10.667969 L 53.332031 23.46875 L 49.066406 23.46875 L 49.066406 10.667969 L 40.53125 10.667969 L 40.53125 23.46875 L 36.269531 23.46875 L 36.269531 10.667969 L 32 10.667969 L 32 23.46875 L 27.730469 23.46875 L 27.730469 10.667969 L 14.933594 10.667969 L 14.933594 23.46875 L 10.667969 23.46875 L 10.667969 10.667969 Z M 4.269531 27.730469 L 59.730469 27.730469 L 59.730469 49.066406 L 4.269531 49.066406 Z M 6.398438 29.867188 L 6.398438 44.800781 L 10.667969 44.800781 L 10.667969 29.867188 Z M 14.933594 29.867188 L 14.933594 44.800781 L 27.730469 44.800781 L 27.730469 29.867188 Z M 32 29.867188 L 32 44.800781 L 36.269531 44.800781 L 36.269531 29.867188 Z M 40.53125 29.867188 L 40.53125 44.800781 L 49.066406 44.800781 L 49.066406 29.867188 Z M 53.332031 29.867188 L 53.332031 44.800781 L 57.601562 44.800781 L 57.601562 29.867188 Z M 53.332031 29.867188 "/></g></svg>
