<svg width="64" height="64" viewBox="0 0 64 64" version="1.1" xmlns:inkscape="http://www.inkscape.org/namespaces/inkscape"><defs><linearGradient id="linear0" gradientUnits="userSpaceOnUse" x1="0" y1="0" x2="0" y2="1" gradientTransform="matrix(52.570312,0,0,64,5.714844,0)"><stop offset="0" style="stop-color:rgb(61.176473%,69.803923%,85.09804%);stop-opacity:1;"/><stop offset="1" style="stop-color:rgb(44.313726%,52.156866%,65.882355%);stop-opacity:1;"/></linearGradient><filter style="color-interpolation-filters:sRGB;" inkscape:label="Diffuse Light" id="filter184" x="-0.0375" y="-0.0375" width="1.075" height="1.075"><feGaussianBlur in="SourceGraphic" stdDeviation="1" result="blur" id="feGaussianBlur174" /><feDiffuseLighting diffuseConstant="1" surfaceScale="10" lighting-color="rgb(255,255,255)" result="diffuse" id="feDiffuseLighting178"><feDistantLight elevation="8" azimuth="235" id="feDistantLight176" /></feDiffuseLighting><feComposite in="diffuse" in2="diffuse" operator="arithmetic" k1="1" result="composite1" id="feComposite180" /><feComposite in="composite1" in2="SourceGraphic" k1="1" operator="arithmetic" k3="1" result="composite2" id="feComposite182" /></filter></defs><g id="surface1" style="filter:url(#filter184)"><path style=" stroke:none;fill-rule:evenodd;fill:url(#linear0);" d="M 8.117188 0 C 6.785156 0 5.714844 1.070312 5.714844 2.398438 L 5.714844 10.171875 C 5.714844 11.5 6.785156 12.570312 8.117188 12.570312 L 11.429688 12.570312 L 11.429688 51.429688 L 8.117188 51.429688 C 6.785156 51.429688 5.714844 52.5 5.714844 53.828125 L 5.714844 61.601562 C 5.714844 62.929688 6.785156 64 8.117188 64 L 26.285156 64 C 43.960938 64 58.285156 49.671875 58.285156 32 C 58.285156 14.328125 43.960938 0 26.285156 0 Z M 24 12.570312 L 26.285156 12.570312 C 37.164062 12.570312 45.714844 21.121094 45.714844 32 C 45.714844 42.878906 37.164062 51.429688 26.285156 51.429688 L 24 51.429688 Z M 24 12.570312 "/></g></svg>
