<svg width="64" height="64" viewBox="0 0 64 64" version="1.1" xmlns:inkscape="http://www.inkscape.org/namespaces/inkscape"><defs><linearGradient id="linear0" gradientUnits="userSpaceOnUse" x1="0" y1="0" x2="0" y2="1" gradientTransform="matrix(65.98109,0,0,41.184309,0.23086,12.037928)"><stop offset="0" style="stop-color:rgb(0%,96.078432%,86.274511%);stop-opacity:1;"/><stop offset="1" style="stop-color:rgb(0%,54.901963%,49.411765%);stop-opacity:1;"/></linearGradient><filter style="color-interpolation-filters:sRGB;" inkscape:label="Diffuse Light" id="filter184" x="-0.0375" y="-0.0375" width="1.075" height="1.075"><feGaussianBlur in="SourceGraphic" stdDeviation="1" result="blur" id="feGaussianBlur174" /><feDiffuseLighting diffuseConstant="1" surfaceScale="10" lighting-color="rgb(255,255,255)" result="diffuse" id="feDiffuseLighting178"><feDistantLight elevation="8" azimuth="235" id="feDistantLight176" /></feDiffuseLighting><feComposite in="diffuse" in2="diffuse" operator="arithmetic" k1="1" result="composite1" id="feComposite180" /><feComposite in="composite1" in2="SourceGraphic" k1="1" operator="arithmetic" k3="1" result="composite2" id="feComposite182" /></filter></defs><g id="surface1" style="filter:url(#filter184)"><path style=" stroke:none;fill-rule:nonzero;fill:url(#linear0);" d="M 13.871094 1.339844 L 13.871094 8.742188 L 26.753906 8.742188 L 26.753906 38.355469 L 37.066406 38.355469 L 37.066406 8.742188 L 49.945312 8.742188 L 49.945312 1.339844 Z M 11.871094 10.734375 L 8.222656 14.230469 L 12.574219 21.167969 C 10.929688 23.542969 9.777344 26.199219 9.183594 28.992188 L 0.984375 30.953125 L 0.984375 35.886719 L 9.183594 37.851562 C 9.777344 40.644531 10.929688 43.296875 12.574219 45.671875 L 8.222656 52.613281 L 11.871094 56.105469 L 19.109375 51.941406 C 21.59375 53.511719 24.367188 54.613281 27.285156 55.179688 L 29.332031 63.03125 L 34.488281 63.03125 L 36.535156 55.179688 C 39.453125 54.613281 42.226562 53.511719 44.710938 51.941406 L 51.949219 56.105469 L 55.597656 52.613281 L 51.246094 45.671875 C 52.890625 43.296875 54.042969 40.644531 54.636719 37.851562 L 62.832031 35.886719 L 62.832031 30.953125 L 54.636719 28.992188 C 54.042969 26.199219 52.890625 23.542969 51.246094 21.167969 L 55.597656 14.230469 L 51.949219 10.734375 L 44.710938 14.898438 C 43.125 13.898438 41.417969 13.109375 39.640625 12.507812 L 39.640625 17.832031 C 45.726562 20.605469 49.945312 26.535156 49.945312 33.417969 C 49.945312 42.960938 41.875 50.695312 31.910156 50.695312 C 21.949219 50.695312 13.871094 42.960938 13.871094 33.417969 C 13.871094 26.535156 18.09375 20.605469 24.175781 17.832031 L 24.175781 12.507812 C 22.402344 13.109375 20.695312 13.898438 19.109375 14.898438 Z M 11.871094 10.734375 "/></g></svg>
