<svg width="64" height="64" viewBox="0 0 64 64" version="1.1" xmlns:inkscape="http://www.inkscape.org/namespaces/inkscape"><defs><linearGradient id="linear0" gradientUnits="userSpaceOnUse" x1="0" y1="0" x2="0" y2="1" gradientTransform="matrix(71.757692,0,0,71.760614,-2.394244,-5.45015)"><stop offset="0" style="stop-color:rgb(0%,78.823531%,36.862746%);stop-opacity:1;"/><stop offset="1" style="stop-color:rgb(0%,54.11765%,25.098041%);stop-opacity:1;"/></linearGradient><filter style="color-interpolation-filters:sRGB;" inkscape:label="Diffuse Light" id="filter184" x="-0.0375" y="-0.0375" width="1.075" height="1.075"><feGaussianBlur in="SourceGraphic" stdDeviation="1" result="blur" id="feGaussianBlur174" /><feDiffuseLighting diffuseConstant="1" surfaceScale="10" lighting-color="rgb(255,255,255)" result="diffuse" id="feDiffuseLighting178"><feDistantLight elevation="8" azimuth="235" id="feDistantLight176" /></feDiffuseLighting><feComposite in="diffuse" in2="diffuse" operator="arithmetic" k1="1" result="composite1" id="feComposite180" /><feComposite in="composite1" in2="SourceGraphic" k1="1" operator="arithmetic" k3="1" result="composite2" id="feComposite182" /></filter></defs><g id="surface1" style="filter:url(#filter184)"><path style=" stroke:none;fill-rule:nonzero;fill:url(#linear0);" d="M 32.042969 1.519531 C 15.1875 1.519531 1.519531 15.121094 1.519531 31.90625 C 1.519531 48.695312 15.1875 62.300781 32.042969 62.300781 C 48.898438 62.300781 62.558594 48.691406 62.558594 31.90625 C 62.558594 31.652344 62.53125 31.40625 62.523438 31.152344 C 62.53125 31.019531 62.558594 30.902344 62.558594 30.761719 L 62.558594 6.628906 C 62.558594 3.800781 60.273438 1.519531 57.429688 1.519531 L 33.195312 1.519531 C 33.058594 1.519531 32.929688 1.546875 32.808594 1.558594 C 32.542969 1.558594 32.296875 1.519531 32.042969 1.519531 "/></g></svg>
