<svg width="64" height="64" viewBox="0 0 64 64" version="1.1" xmlns:inkscape="http://www.inkscape.org/namespaces/inkscape"><defs><linearGradient id="linear0" gradientUnits="userSpaceOnUse" x1="0" y1="0" x2="0" y2="1" gradientTransform="matrix(63.953125,0,0,64,0.0234375,0)"><stop offset="0" style="stop-color:rgb(100%,63.137257%,63.137257%);stop-opacity:1;"/><stop offset="1" style="stop-color:rgb(100%,27.843139%,27.843139%);stop-opacity:1;"/></linearGradient><filter style="color-interpolation-filters:sRGB;" inkscape:label="Diffuse Light" id="filter184" x="-0.0375" y="-0.0375" width="1.075" height="1.075"><feGaussianBlur in="SourceGraphic" stdDeviation="1" result="blur" id="feGaussianBlur174" /><feDiffuseLighting diffuseConstant="1" surfaceScale="10" lighting-color="rgb(255,255,255)" result="diffuse" id="feDiffuseLighting178"><feDistantLight elevation="8" azimuth="235" id="feDistantLight176" /></feDiffuseLighting><feComposite in="diffuse" in2="diffuse" operator="arithmetic" k1="1" result="composite1" id="feComposite180" /><feComposite in="composite1" in2="SourceGraphic" k1="1" operator="arithmetic" k3="1" result="composite2" id="feComposite182" /></filter></defs><g id="surface1" style="filter:url(#filter184)"><path style=" stroke:none;fill-rule:evenodd;fill:url(#linear0);" d="M 5.695312 1.210938 C 7.222656 2.28125 9.824219 3.878906 11.675781 5.328125 C 13.09375 6.648438 13.320312 7.296875 13.320312 9.398438 L 13.320312 33.652344 C 13.320312 40.109375 14.070312 44.796875 11.902344 49.683594 C 9.507812 55.085938 4.449219 56.730469 0.953125 61.519531 C -2.378906 65.640625 4.132812 63.671875 6.6875 62.382812 C 12.160156 59.613281 16.519531 58.0625 23.078125 57.347656 C 31.347656 57.183594 36.558594 57.539062 44.074219 57.371094 C 57.675781 57.371094 63.976562 44.105469 63.976562 27.003906 C 63.976562 12.601562 57.675781 0 42.800781 0.0664062 C 30.074219 0.0117188 11.488281 0 5.609375 0 C 3.929688 0 4.636719 0.472656 5.695312 1.210938 Z M 26.910156 8.820312 C 31.699219 8.832031 41.519531 8.964844 43.445312 9.898438 C 51.851562 14.625 53.113281 20.289062 52.9375 28.359375 C 53.167969 35.660156 50.480469 43.535156 43.445312 47.273438 C 40.875 48.515625 24.707031 48.515625 24.707031 48.515625 L 24.28125 8.828125 C 24.28125 8.828125 25.320312 8.820312 26.910156 8.820312 Z M 26.910156 8.820312 "/></g></svg>
