<svg width="64" height="64" viewBox="0 0 64 64" version="1.1" xmlns:inkscape="http://www.inkscape.org/namespaces/inkscape"><defs><linearGradient id="linear0" gradientUnits="userSpaceOnUse" x1="0" y1="0" x2="0" y2="1" gradientTransform="matrix(65.005533,0,0,42.851069,-2.090384,8.552519)"><stop offset="0" style="stop-color:rgb(61.176473%,69.803923%,85.09804%);stop-opacity:1;"/><stop offset="1" style="stop-color:rgb(44.313726%,52.156866%,65.882355%);stop-opacity:1;"/></linearGradient><filter style="color-interpolation-filters:sRGB;" inkscape:label="Diffuse Light" id="filter184" x="-0.0375" y="-0.0375" width="1.075" height="1.075"><feGaussianBlur in="SourceGraphic" stdDeviation="1" result="blur" id="feGaussianBlur174" /><feDiffuseLighting diffuseConstant="1" surfaceScale="10" lighting-color="rgb(255,255,255)" result="diffuse" id="feDiffuseLighting178"><feDistantLight elevation="8" azimuth="235" id="feDistantLight176" /></feDiffuseLighting><feComposite in="diffuse" in2="diffuse" operator="arithmetic" k1="1" result="composite1" id="feComposite180" /><feComposite in="composite1" in2="SourceGraphic" k1="1" operator="arithmetic" k3="1" result="composite2" id="feComposite182" /></filter></defs><g id="surface1" style="filter:url(#filter184)"><path style=" stroke:none;fill-rule:nonzero;fill:url(#linear0);" d="M 15.246094 0.871094 C 13.441406 0.871094 11.988281 2.972656 11.988281 5.578125 C 11.988281 8.183594 13.441406 10.28125 15.246094 10.28125 L 21.746094 10.28125 C 23.550781 10.28125 25 12.378906 25 14.988281 C 25 17.59375 23.550781 19.6875 21.746094 19.6875 L 10.90625 19.6875 C 9.105469 19.6875 7.652344 21.785156 7.652344 24.390625 C 7.652344 27 9.105469 29.097656 10.90625 29.097656 L 15.300781 29.097656 C 17.066406 29.097656 18.496094 31.15625 18.496094 33.722656 L 18.496094 33.878906 C 18.496094 36.441406 17.066406 38.507812 15.300781 38.507812 L 15.246094 38.507812 C 13.441406 38.507812 11.988281 40.605469 11.988281 43.210938 C 11.988281 45.8125 13.441406 47.910156 15.246094 47.910156 L 18.496094 47.910156 L 18.496094 60.453125 C 18.496094 60.453125 18.496094 63.59375 20.664062 63.59375 L 44.515625 63.59375 C 59.691406 63.59375 59.691406 41.640625 59.691406 41.640625 L 59.691406 22.824219 C 59.691406 22.824219 59.691406 0.871094 44.515625 0.871094 Z M 35.839844 19.6875 L 40.179688 19.6875 C 42.347656 19.6875 44.515625 22.824219 44.515625 25.964844 L 44.515625 38.507812 C 44.515625 41.640625 42.347656 44.777344 40.179688 44.777344 L 35.839844 44.777344 Z M 35.839844 19.6875 "/></g></svg>
