<svg width="64" height="64" viewBox="0 0 64 64" version="1.1" xmlns:inkscape="http://www.inkscape.org/namespaces/inkscape"><defs><linearGradient id="linear0" gradientUnits="userSpaceOnUse" x1="0" y1="0" x2="0" y2="1" gradientTransform="matrix(64,0,0,39.617188,0,12.191406)"><stop offset="0" style="stop-color:rgb(41.960785%,64.313728%,100%);stop-opacity:1;"/><stop offset="1" style="stop-color:rgb(0%,43.137255%,100%);stop-opacity:1;"/></linearGradient><filter style="color-interpolation-filters:sRGB;" inkscape:label="Diffuse Light" id="filter184" x="-0.0375" y="-0.0375" width="1.075" height="1.075"><feGaussianBlur in="SourceGraphic" stdDeviation="1" result="blur" id="feGaussianBlur174" /><feDiffuseLighting diffuseConstant="1" surfaceScale="10" lighting-color="rgb(255,255,255)" result="diffuse" id="feDiffuseLighting178"><feDistantLight elevation="8" azimuth="235" id="feDistantLight176" /></feDiffuseLighting><feComposite in="diffuse" in2="diffuse" operator="arithmetic" k1="1" result="composite1" id="feComposite180" /><feComposite in="composite1" in2="SourceGraphic" k1="1" operator="arithmetic" k3="1" result="composite2" id="feComposite182" /></filter></defs><g id="surface1" style="filter:url(#filter184)"><path style=" stroke:none;fill-rule:evenodd;fill:url(#linear0);" d="M 0.00390625 12.191406 L 0.00390625 21.332031 L 32.652344 21.332031 C 35.0625 21.332031 36.566406 22.628906 36.566406 24.660156 L 36.566406 39.335938 C 36.566406 41.371094 35.0625 42.632812 32.652344 42.664062 L 9.183594 42.664062 L 9.183594 25.15625 L 0 25.15625 L 0 51.808594 L 39.179688 51.808594 C 42.800781 51.808594 45.710938 48.863281 45.710938 45.203125 L 45.710938 18.792969 C 45.710938 15.136719 42.800781 12.191406 39.179688 12.191406 Z M 54.855469 12.191406 L 54.855469 21.332031 L 64 21.332031 L 64 12.191406 Z M 54.855469 24.378906 L 54.855469 51.808594 L 64 51.808594 L 64 24.378906 Z M 54.855469 24.378906 "/></g></svg>
