<svg xmlns="http://www.w3.org/2000/svg" xmlns:xlink="http://www.w3.org/1999/xlink" width="64" height="64" viewBox="0 0 64 64" version="1.1"><g id="surface1"><path style=" stroke:none;fill-rule:nonzero;fill:rgb(29.803923%,29.803923%,29.803923%);fill-opacity:1;" d="M 6.125 1.410156 L 58.015625 1.410156 C 60.882812 1.410156 63.207031 3.691406 63.207031 6.5 L 63.207031 57.367188 C 63.207031 60.175781 60.882812 62.457031 58.015625 62.457031 L 6.125 62.457031 C 3.261719 62.457031 0.933594 60.175781 0.933594 57.367188 L 0.933594 6.5 C 0.933594 3.691406 3.261719 1.410156 6.125 1.410156 Z M 6.125 1.410156 "/><path style=" stroke:none;fill-rule:nonzero;fill:rgb(49.803922%,49.803922%,49.803922%);fill-opacity:1;" d="M 8.71875 6.5 L 19.09375 6.5 C 20.53125 6.5 21.695312 7.632812 21.695312 9.042969 L 21.695312 19.214844 C 21.695312 20.621094 20.53125 21.761719 19.09375 21.761719 L 8.71875 21.761719 C 7.28125 21.761719 6.125 20.621094 6.125 19.214844 L 6.125 9.042969 C 6.125 7.632812 7.28125 6.5 8.71875 6.5 Z M 8.71875 6.5 "/><path style=" stroke:none;fill-rule:nonzero;fill:rgb(74.117649%,74.117649%,74.117649%);fill-opacity:1;" d="M 26.878906 6.5 L 37.261719 6.5 C 38.691406 6.5 39.855469 7.632812 39.855469 9.042969 L 39.855469 19.214844 C 39.855469 20.621094 38.691406 21.761719 37.261719 21.761719 L 26.878906 21.761719 C 25.449219 21.761719 24.289062 20.621094 24.289062 19.214844 L 24.289062 9.042969 C 24.289062 7.632812 25.449219 6.5 26.878906 6.5 Z M 26.878906 6.5 "/><path style=" stroke:none;fill-rule:nonzero;fill:rgb(97.254902%,97.254902%,97.254902%);fill-opacity:1;" d="M 45.046875 6.5 L 55.425781 6.5 C 56.859375 6.5 58.015625 7.632812 58.015625 9.042969 L 58.015625 19.214844 C 58.015625 20.621094 56.859375 21.761719 55.425781 21.761719 L 45.046875 21.761719 C 43.609375 21.761719 42.449219 20.621094 42.449219 19.214844 L 42.449219 9.042969 C 42.449219 7.632812 43.609375 6.5 45.046875 6.5 Z M 45.046875 6.5 "/><path style=" stroke:none;fill-rule:nonzero;fill:rgb(90.196079%,54.11765%,96.078432%);fill-opacity:1;" d="M 8.71875 24.304688 L 19.09375 24.304688 C 20.53125 24.304688 21.695312 25.445312 21.695312 26.84375 L 21.695312 37.023438 C 21.695312 38.425781 20.53125 39.566406 19.09375 39.566406 L 8.71875 39.566406 C 7.28125 39.566406 6.125 38.425781 6.125 37.023438 L 6.125 26.84375 C 6.125 25.445312 7.28125 24.304688 8.71875 24.304688 Z M 8.71875 24.304688 "/><path style=" stroke:none;fill-rule:nonzero;fill:rgb(50.980395%,89.019608%,98.039216%);fill-opacity:1;" d="M 26.878906 24.304688 L 37.261719 24.304688 C 38.691406 24.304688 39.855469 25.445312 39.855469 26.84375 L 39.855469 37.023438 C 39.855469 38.425781 38.691406 39.566406 37.261719 39.566406 L 26.878906 39.566406 C 25.449219 39.566406 24.289062 38.425781 24.289062 37.023438 L 24.289062 26.84375 C 24.289062 25.445312 25.449219 24.304688 26.878906 24.304688 Z M 26.878906 24.304688 "/><path style=" stroke:none;fill-rule:nonzero;fill:rgb(98.039216%,98.039216%,52.156866%);fill-opacity:1;" d="M 45.046875 24.304688 L 55.425781 24.304688 C 56.859375 24.304688 58.015625 25.445312 58.015625 26.84375 L 58.015625 37.023438 C 58.015625 38.425781 56.859375 39.566406 55.425781 39.566406 L 45.046875 39.566406 C 43.609375 39.566406 42.449219 38.425781 42.449219 37.023438 L 42.449219 26.84375 C 42.449219 25.445312 43.609375 24.304688 45.046875 24.304688 Z M 45.046875 24.304688 "/><path style=" stroke:none;fill-rule:nonzero;fill:rgb(45.09804%,61.960787%,96.078432%);fill-opacity:1;" d="M 8.71875 42.105469 L 19.09375 42.105469 C 20.53125 42.105469 21.695312 43.246094 21.695312 44.65625 L 21.695312 54.828125 C 21.695312 56.234375 20.53125 57.367188 19.09375 57.367188 L 8.71875 57.367188 C 7.28125 57.367188 6.125 56.234375 6.125 54.828125 L 6.125 44.65625 C 6.125 43.246094 7.28125 42.105469 8.71875 42.105469 Z M 8.71875 42.105469 "/><path style=" stroke:none;fill-rule:nonzero;fill:rgb(97.254902%,47.843137%,47.843137%);fill-opacity:1;" d="M 26.878906 42.105469 L 37.261719 42.105469 C 38.691406 42.105469 39.855469 43.246094 39.855469 44.65625 L 39.855469 54.828125 C 39.855469 56.234375 38.691406 57.367188 37.261719 57.367188 L 26.878906 57.367188 C 25.449219 57.367188 24.289062 56.234375 24.289062 54.828125 L 24.289062 44.65625 C 24.289062 43.246094 25.449219 42.105469 26.878906 42.105469 Z M 26.878906 42.105469 "/><path style=" stroke:none;fill-rule:nonzero;fill:rgb(58.039218%,94.117647%,40.000001%);fill-opacity:1;" d="M 45.046875 42.105469 L 55.425781 42.105469 C 56.859375 42.105469 58.015625 43.246094 58.015625 44.65625 L 58.015625 54.828125 C 58.015625 56.234375 56.859375 57.367188 55.425781 57.367188 L 45.046875 57.367188 C 43.609375 57.367188 42.449219 56.234375 42.449219 54.828125 L 42.449219 44.65625 C 42.449219 43.246094 43.609375 42.105469 45.046875 42.105469 Z M 45.046875 42.105469 "/></g></svg>
