<svg width="64" height="64" viewBox="0 0 64 64" version="1.1" xmlns:inkscape="http://www.inkscape.org/namespaces/inkscape"><defs><linearGradient id="linear0" gradientUnits="userSpaceOnUse" x1="0" y1="0" x2="0" y2="1" gradientTransform="matrix(60.506732,0,0,41.359012,-0.711634,11.084375)"><stop offset="0" style="stop-color:rgb(100%,56.862748%,82.745099%);stop-opacity:1;"/><stop offset="1" style="stop-color:rgb(100%,0%,60.000002%);stop-opacity:1;"/></linearGradient><filter style="color-interpolation-filters:sRGB;" inkscape:label="Diffuse Light" id="filter184" x="-0.0375" y="-0.0375" width="1.075" height="1.075"><feGaussianBlur in="SourceGraphic" stdDeviation="1" result="blur" id="feGaussianBlur174" /><feDiffuseLighting diffuseConstant="1" surfaceScale="10" lighting-color="rgb(255,255,255)" result="diffuse" id="feDiffuseLighting178"><feDistantLight elevation="8" azimuth="235" id="feDistantLight176" /></feDiffuseLighting><feComposite in="diffuse" in2="diffuse" operator="arithmetic" k1="1" result="composite1" id="feComposite180" /><feComposite in="composite1" in2="SourceGraphic" k1="1" operator="arithmetic" k3="1" result="composite2" id="feComposite182" /></filter></defs><g id="surface1" style="filter:url(#filter184)"><path style=" stroke:none;fill-rule:nonzero;fill:url(#linear0);" d="M 32.023438 1.597656 C 26.714844 1.617188 21.5 3.027344 16.90625 5.6875 L 25.050781 15.1875 C 27.257812 14.253906 29.625 13.761719 32.023438 13.742188 C 39.746094 13.75 46.632812 18.613281 49.207031 25.894531 L 14.761719 25.894531 C 15.082031 25.007812 15.480469 24.148438 15.933594 23.324219 L 7.730469 13.742188 C 3.746094 18.988281 1.574219 25.386719 1.546875 31.972656 C 1.546875 48.753906 15.15625 62.351562 31.941406 62.351562 C 35.296875 62.351562 38.019531 59.636719 38.019531 56.277344 C 38.019531 52.921875 35.296875 50.203125 31.941406 50.203125 C 24.21875 50.199219 17.335938 45.328125 14.761719 38.050781 L 56.300781 38.050781 C 59.664062 38.050781 62.378906 35.332031 62.378906 31.972656 C 62.378906 15.191406 48.769531 1.589844 31.980469 1.589844 Z M 32.023438 1.597656 "/></g></svg>
