<svg width="64" height="64" viewBox="0 0 64 64" version="1.1" xmlns:inkscape="http://www.inkscape.org/namespaces/inkscape"><defs><linearGradient id="linear0" gradientUnits="userSpaceOnUse" x1="0" y1="0" x2="0" y2="1" gradientTransform="matrix(68.118121,0,0,47.002884,-0.619846,10.275788)"><stop offset="0" style="stop-color:rgb(100%,73.333335%,0%);stop-opacity:1;"/><stop offset="1" style="stop-color:rgb(70.19608%,51.372552%,0%);stop-opacity:1;"/></linearGradient><filter style="color-interpolation-filters:sRGB;" inkscape:label="Diffuse Light" id="filter184" x="-0.0375" y="-0.0375" width="1.075" height="1.075"><feGaussianBlur in="SourceGraphic" stdDeviation="1" result="blur" id="feGaussianBlur174" /><feDiffuseLighting diffuseConstant="1" surfaceScale="10" lighting-color="rgb(255,255,255)" result="diffuse" id="feDiffuseLighting178"><feDistantLight elevation="8" azimuth="235" id="feDistantLight176" /></feDiffuseLighting><feComposite in="diffuse" in2="diffuse" operator="arithmetic" k1="1" result="composite1" id="feComposite180" /><feComposite in="composite1" in2="SourceGraphic" k1="1" operator="arithmetic" k3="1" result="composite2" id="feComposite182" /></filter></defs><g id="surface1" style="filter:url(#filter184)"><path style=" stroke:none;fill-rule:nonzero;fill:url(#linear0);" d="M 47.554688 1.539062 L 47.554688 42.496094 L 62.867188 42.496094 L 62.867188 1.539062 Z M 9.277344 9.222656 L 9.277344 14.34375 L 29.691406 14.34375 L 29.691406 22.019531 L 9.277344 22.019531 L 9.277344 39.941406 L 39.902344 39.941406 L 39.902344 9.222656 Z M 14.378906 27.136719 L 29.691406 27.136719 L 29.691406 34.820312 L 14.378906 34.820312 Z M 1.621094 47.617188 L 1.621094 62.976562 L 42.453125 62.976562 L 42.453125 47.617188 Z M 47.554688 47.617188 L 47.554688 62.976562 L 62.867188 62.976562 L 62.867188 47.617188 Z M 47.554688 47.617188 "/></g></svg>
