<svg width="64" height="64" viewBox="0 0 64 64" version="1.1" xmlns:inkscape="http://www.inkscape.org/namespaces/inkscape"><defs><linearGradient id="linear0" gradientUnits="userSpaceOnUse" x1="0" y1="0" x2="0" y2="1" gradientTransform="matrix(71.200695,0,0,43.113595,-1.547059,9.339519)"><stop offset="0" style="stop-color:rgb(81.960785%,70.980394%,59.215689%);stop-opacity:1;"/><stop offset="1" style="stop-color:rgb(65.098041%,53.725493%,41.568628%);stop-opacity:1;"/></linearGradient><filter style="color-interpolation-filters:sRGB;" inkscape:label="Diffuse Light" id="filter184" x="-0.0375" y="-0.0375" width="1.075" height="1.075"><feGaussianBlur in="SourceGraphic" stdDeviation="1" result="blur" id="feGaussianBlur174" /><feDiffuseLighting diffuseConstant="1" surfaceScale="10" lighting-color="rgb(255,255,255)" result="diffuse" id="feDiffuseLighting178"><feDistantLight elevation="8" azimuth="235" id="feDistantLight176" /></feDiffuseLighting><feComposite in="diffuse" in2="diffuse" operator="arithmetic" k1="1" result="composite1" id="feComposite180" /><feComposite in="composite1" in2="SourceGraphic" k1="1" operator="arithmetic" k3="1" result="composite2" id="feComposite182" /></filter></defs><g id="surface1" style="filter:url(#filter184)"><path style=" stroke:none;fill-rule:nonzero;fill:url(#linear0);" d="M 25.277344 1.5 C 21.332031 2.636719 17.332031 6.238281 17.332031 10.976562 C 17.332031 14.71875 19.351562 17.398438 25.277344 20.453125 C 25.289062 20.453125 25.292969 20.449219 25.300781 20.449219 C 31.183594 28.8125 28.003906 36.394531 27.929688 41.777344 C 27.929688 51.253906 19.984375 52.4375 14.683594 53.621094 C 9.382812 54.808594 1.4375 53.621094 1.4375 58.359375 C 1.4375 60.730469 4.085938 63.097656 9.382812 63.097656 L 19.984375 63.097656 L 12.03125 58.359375 L 9.382812 60.730469 C 6.738281 60.730469 4.085938 60.730469 4.085938 58.359375 C 4.085938 56.558594 8.035156 56.847656 12.085938 56.445312 C 16.140625 56.042969 25.277344 55.992188 30.578125 48.886719 C 30.578125 51.257812 27.929688 55.996094 27.929688 55.996094 L 27.929688 58.363281 C 40.191406 61.441406 49.996094 62.9375 54.417969 58.363281 C 56.515625 58.820312 59.453125 59.199219 62.367188 57.621094 L 62.367188 55.996094 C 62.066406 54.464844 54.417969 53.625 54.417969 53.625 L 46.46875 53.625 C 43.824219 53.625 46.46875 48.886719 46.46875 48.886719 L 46.425781 48.867188 C 48.082031 47.886719 49.125 46.355469 49.125 44.152344 C 49.125 37.042969 43.828125 34.671875 43.828125 32.304688 C 43.828125 29.933594 44.546875 30.601562 51.773438 27.566406 C 57.074219 25.195312 54.425781 20.457031 51.773438 18.089844 C 51.773438 16.488281 51.4375 14.625 50.625 12.851562 C 54.417969 7.167969 48.226562 3.777344 43.816406 1.5 L 44.738281 7.308594 L 27.992188 10.246094 C 24.46875 9.222656 22.617188 8.414062 22.617188 6.242188 C 22.617188 3.5625 25.261719 1.5 25.261719 1.5 Z M 25.277344 1.5 "/></g></svg>
