<svg width="64" height="64" viewBox="0 0 64 64" version="1.1" xmlns:inkscape="http://www.inkscape.org/namespaces/inkscape"><defs><linearGradient id="linear0" gradientUnits="userSpaceOnUse" x1="0" y1="0" x2="0" y2="1" gradientTransform="matrix(76.202966,0,0,42.743985,-4.67212,9.816854)"><stop offset="0" style="stop-color:rgb(100%,63.137257%,63.137257%);stop-opacity:1;"/><stop offset="1" style="stop-color:rgb(100%,27.843139%,27.843139%);stop-opacity:1;"/></linearGradient><filter style="color-interpolation-filters:sRGB;" inkscape:label="Diffuse Light" id="filter184" x="-0.0375" y="-0.0375" width="1.075" height="1.075"><feGaussianBlur in="SourceGraphic" stdDeviation="1" result="blur" id="feGaussianBlur174" /><feDiffuseLighting diffuseConstant="1" surfaceScale="10" lighting-color="rgb(255,255,255)" result="diffuse" id="feDiffuseLighting178"><feDistantLight elevation="8" azimuth="235" id="feDistantLight176" /></feDiffuseLighting><feComposite in="diffuse" in2="diffuse" operator="arithmetic" k1="1" result="composite1" id="feComposite180" /><feComposite in="composite1" in2="SourceGraphic" k1="1" operator="arithmetic" k3="1" result="composite2" id="feComposite182" /></filter></defs><g id="surface1" style="filter:url(#filter184)"><path style=" stroke:none;fill-rule:nonzero;fill:url(#linear0);" d="M 11.246094 1.378906 L 11.246094 26.960938 L 1.609375 26.960938 L 1.609375 55.097656 L 11.246094 62.769531 L 11.246094 34.636719 L 62.648438 34.636719 L 53.011719 26.960938 L 53.011719 32.078125 L 14.457031 32.078125 L 14.457031 3.9375 L 53.011719 3.9375 L 49.800781 1.378906 Z M 24.09375 11.613281 L 24.09375 16.726562 L 30.523438 16.726562 L 30.523438 11.613281 Z M 36.949219 11.613281 L 36.949219 16.726562 L 43.375 16.726562 L 43.375 11.613281 Z M 24.09375 21.84375 C 24.09375 24.671875 28.410156 26.960938 33.738281 26.960938 C 39.058594 26.960938 43.375 24.671875 43.375 21.84375 Z M 36.949219 37.195312 C 33.398438 37.195312 30.390625 39.488281 30.523438 42.308594 L 30.523438 44.867188 L 27.3125 44.867188 L 27.3125 57.652344 L 46.585938 57.652344 L 46.585938 44.867188 L 43.375 44.867188 L 43.375 42.308594 C 43.375 39.480469 40.5 37.195312 36.949219 37.195312 Z M 36.949219 39.75 C 38.722656 39.75 40.164062 40.894531 40.164062 42.308594 L 40.164062 44.867188 L 33.738281 44.867188 L 33.738281 42.308594 C 33.738281 40.894531 35.171875 39.75 36.949219 39.75 Z M 36.949219 39.75 "/></g></svg>
