<svg width="64" height="64" viewBox="0 0 64 64" version="1.1" xmlns:inkscape="http://www.inkscape.org/namespaces/inkscape"><defs><linearGradient id="linear0" gradientUnits="userSpaceOnUse" x1="0" y1="0" x2="0" y2="1" gradientTransform="matrix(55.992188,0,0,59.765767,4.003906,4.206728)"><stop offset="0" style="stop-color:rgb(92.941177%,83.529413%,72.549021%);stop-opacity:1;"/><stop offset="1" style="stop-color:rgb(81.960785%,71.372551%,59.215689%);stop-opacity:1;"/></linearGradient><filter style="color-interpolation-filters:sRGB;" inkscape:label="Diffuse Light" id="filter184" x="-0.0375" y="-0.0375" width="1.075" height="1.075"><feGaussianBlur in="SourceGraphic" stdDeviation="1" result="blur" id="feGaussianBlur174" /><feDiffuseLighting diffuseConstant="1" surfaceScale="10" lighting-color="rgb(255,255,255)" result="diffuse" id="feDiffuseLighting178"><feDistantLight elevation="8" azimuth="235" id="feDistantLight176" /></feDiffuseLighting><feComposite in="diffuse" in2="diffuse" operator="arithmetic" k1="1" result="composite1" id="feComposite180" /><feComposite in="composite1" in2="SourceGraphic" k1="1" operator="arithmetic" k3="1" result="composite2" id="feComposite182" /></filter></defs><g id="surface1" style="filter:url(#filter184)"><path style=" stroke:none;fill-rule:nonzero;fill:url(#linear0);" d="M 32.363281 0.925781 C 20.222656 0.925781 2.644531 28.691406 2.644531 44.121094 C 2.644531 62.628906 23.445312 62.628906 32.363281 62.628906 C 41.277344 62.628906 62.085938 62.628906 62.085938 44.121094 C 62.085938 28.691406 44.503906 0.925781 32.363281 0.925781 Z M 32.78125 16.210938 L 34.441406 16.210938 C 28.375 32.527344 19.238281 36.734375 15.085938 40.296875 C 13.960938 36.308594 14.484375 29.890625 16.1875 26.789062 C 21.914062 24.859375 27.757812 21.339844 32.78125 16.210938 Z M 37.757812 16.796875 C 41.621094 25.980469 42.097656 39.386719 36.097656 54.40625 C 30.703125 55.152344 26.019531 54.632812 22.828125 51.46875 C 31.261719 43.214844 34.769531 30.253906 37.757812 16.796875 Z M 42.734375 19.144531 C 54.335938 29.46875 50.761719 38.335938 48.265625 46.761719 C 47.945312 37.75 47.226562 28.152344 42.734375 19.144531 Z M 42.734375 19.144531 "/></g></svg>
