<svg width="64" height="64" viewBox="0 0 64 64" version="1.1" xmlns:inkscape="http://www.inkscape.org/namespaces/inkscape"><defs><linearGradient id="linear0" gradientUnits="userSpaceOnUse" x1="0" y1="0" x2="0" y2="1" gradientTransform="matrix(67.905766,0,0,46.743037,-2.77796,8.146038)"><stop offset="0" style="stop-color:rgb(81.960785%,70.980394%,59.215689%);stop-opacity:1;"/><stop offset="1" style="stop-color:rgb(65.098041%,53.725493%,41.568628%);stop-opacity:1;"/></linearGradient><filter style="color-interpolation-filters:sRGB;" inkscape:label="Diffuse Light" id="filter184" x="-0.0375" y="-0.0375" width="1.075" height="1.075"><feGaussianBlur in="SourceGraphic" stdDeviation="1" result="blur" id="feGaussianBlur174" /><feDiffuseLighting diffuseConstant="1" surfaceScale="10" lighting-color="rgb(255,255,255)" result="diffuse" id="feDiffuseLighting178"><feDistantLight elevation="8" azimuth="235" id="feDistantLight176" /></feDiffuseLighting><feComposite in="diffuse" in2="diffuse" operator="arithmetic" k1="1" result="composite1" id="feComposite180" /><feComposite in="composite1" in2="SourceGraphic" k1="1" operator="arithmetic" k3="1" result="composite2" id="feComposite182" /></filter></defs><g id="surface1" style="filter:url(#filter184)"><path style=" stroke:none;fill-rule:nonzero;fill:url(#linear0);" d="M 9.394531 4.53125 C 8.441406 4.53125 7.480469 4.429688 7.042969 5.097656 C 3 11.265625 1.195312 19.179688 1.195312 27.070312 C 1.195312 40.898438 7.429688 53.621094 17.390625 60.136719 C 23.273438 53.773438 36.578125 39.570312 42.199219 39.570312 C 46.152344 39.570312 52.015625 46.53125 57.941406 47.035156 C 61.035156 41.050781 62.699219 34.132812 62.699219 27.046875 C 62.699219 25.375 62.585938 23.714844 62.390625 22.0625 C 54.355469 22.246094 48.285156 29.550781 44.25 29.550781 C 38.09375 29.550781 15.546875 4.5 9.394531 4.5 Z M 9.394531 4.53125 "/></g></svg>
