<svg width="64" height="64" viewBox="0 0 64 64" version="1.1" xmlns:inkscape="http://www.inkscape.org/namespaces/inkscape"><defs><linearGradient id="linear0" gradientUnits="userSpaceOnUse" x1="0" y1="0" x2="0" y2="1" gradientTransform="matrix(60.833542,0,0,43.422312,-0.645669,7.631009)"><stop offset="0" style="stop-color:rgb(100%,63.137257%,63.137257%);stop-opacity:1;"/><stop offset="1" style="stop-color:rgb(100%,27.843139%,27.843139%);stop-opacity:1;"/></linearGradient><filter style="color-interpolation-filters:sRGB;" inkscape:label="Diffuse Light" id="filter184" x="-0.0375" y="-0.0375" width="1.075" height="1.075"><feGaussianBlur in="SourceGraphic" stdDeviation="1" result="blur" id="feGaussianBlur174" /><feDiffuseLighting diffuseConstant="1" surfaceScale="10" lighting-color="rgb(255,255,255)" result="diffuse" id="feDiffuseLighting178"><feDistantLight elevation="8" azimuth="235" id="feDistantLight176" /></feDiffuseLighting><feComposite in="diffuse" in2="diffuse" operator="arithmetic" k1="1" result="composite1" id="feComposite180" /><feComposite in="composite1" in2="SourceGraphic" k1="1" operator="arithmetic" k3="1" result="composite2" id="feComposite182" /></filter></defs><g id="surface1" style="filter:url(#filter184)"><path style=" stroke:none;fill-rule:nonzero;fill:url(#linear0);" d="M 3.246094 7.941406 L 0.945312 9.234375 C 3.15625 14.386719 5.367188 22.121094 14.203125 22.121094 L 16.410156 22.121094 C 19.964844 22.121094 23.898438 44.449219 27.652344 55.636719 L 27.65625 55.636719 C 27.652344 55.636719 36.292969 55.644531 36.292969 55.644531 C 40.046875 44.480469 43.980469 22.132812 47.539062 22.132812 L 49.746094 22.132812 C 58.582031 22.132812 60.789062 14.398438 63 9.242188 L 60.703125 7.953125 C 58.574219 11.175781 56.371094 15.6875 51.957031 15.6875 L 45.328125 14.398438 L 31.984375 42.242188 L 25.273438 22.132812 C 24.15625 18.753906 23.0625 14.398438 18.644531 14.398438 L 12.015625 15.6875 C 7.597656 15.6875 5.394531 11.175781 3.269531 7.953125 Z M 3.246094 7.941406 "/></g></svg>
