<svg width="64" height="64" viewBox="0 0 64 64" version="1.1" xmlns:inkscape="http://www.inkscape.org/namespaces/inkscape"><defs><linearGradient id="linear0" gradientUnits="userSpaceOnUse" x1="0" y1="0" x2="0" y2="1" gradientTransform="matrix(63.643139,0,0,58.753378,-2.763024,-1.502152)"><stop offset="0" style="stop-color:rgb(0%,96.078432%,86.274511%);stop-opacity:1;"/><stop offset="1" style="stop-color:rgb(0%,54.901963%,49.411765%);stop-opacity:1;"/></linearGradient><filter style="color-interpolation-filters:sRGB;" inkscape:label="Diffuse Light" id="filter184" x="-0.0375" y="-0.0375" width="1.075" height="1.075"><feGaussianBlur in="SourceGraphic" stdDeviation="1" result="blur" id="feGaussianBlur174" /><feDiffuseLighting diffuseConstant="1" surfaceScale="10" lighting-color="rgb(255,255,255)" result="diffuse" id="feDiffuseLighting178"><feDistantLight elevation="8" azimuth="235" id="feDistantLight176" /></feDiffuseLighting><feComposite in="diffuse" in2="diffuse" operator="arithmetic" k1="1" result="composite1" id="feComposite180" /><feComposite in="composite1" in2="SourceGraphic" k1="1" operator="arithmetic" k3="1" result="composite2" id="feComposite182" /></filter></defs><g id="surface1" style="filter:url(#filter184)"><path style=" stroke:none;fill-rule:nonzero;fill:url(#linear0);" d="M 25.582031 2.027344 L 1.117188 57.300781 C 2.085938 60.089844 5.023438 62.722656 7.125 62.722656 C 9.4375 62.722656 10.414062 61.183594 10.703125 60.554688 L 25.582031 28.039062 L 39.441406 60.554688 C 39.71875 61.203125 40.730469 62.722656 43.042969 62.722656 C 45.140625 62.722656 47.945312 59.851562 49.023438 57.300781 L 40.042969 36.710938 L 41.816406 32.375 L 53.8125 60.554688 C 54.085938 61.203125 55.074219 62.722656 57.386719 62.722656 C 59.484375 62.722656 62.425781 59.730469 63.394531 57.300781 L 41.816406 7.230469 L 34.480469 23.707031 Z M 21.132812 42.347656 L 14.460938 57.300781 C 15.507812 60.070312 18.183594 62.722656 21.132812 62.722656 Z M 21.132812 42.347656 "/></g></svg>
