<svg width="64" height="64" viewBox="0 0 64 64" version="1.1" xmlns:inkscape="http://www.inkscape.org/namespaces/inkscape"><defs><linearGradient id="linear0" gradientUnits="userSpaceOnUse" x1="0" y1="0" x2="0" y2="1" gradientTransform="matrix(67.301794,0,0,39.341412,-3.967666,10.620407)"><stop offset="0" style="stop-color:rgb(100%,73.333335%,0%);stop-opacity:1;"/><stop offset="1" style="stop-color:rgb(70.19608%,51.372552%,0%);stop-opacity:1;"/></linearGradient><linearGradient id="linear1" gradientUnits="userSpaceOnUse" x1="0" y1="0" x2="0" y2="1" gradientTransform="matrix(67.301794,0,0,39.341412,-3.967666,10.620407)"><stop offset="0" style="stop-color:rgb(100%,73.333335%,0%);stop-opacity:1;"/><stop offset="1" style="stop-color:rgb(70.19608%,51.372552%,0%);stop-opacity:1;"/></linearGradient><filter style="color-interpolation-filters:sRGB;" inkscape:label="Diffuse Light" id="filter184" x="-0.0375" y="-0.0375" width="1.075" height="1.075"><feGaussianBlur in="SourceGraphic" stdDeviation="1" result="blur" id="feGaussianBlur174" /><feDiffuseLighting diffuseConstant="1" surfaceScale="10" lighting-color="rgb(255,255,255)" result="diffuse" id="feDiffuseLighting178"><feDistantLight elevation="8" azimuth="235" id="feDistantLight176" /></feDiffuseLighting><feComposite in="diffuse" in2="diffuse" operator="arithmetic" k1="1" result="composite1" id="feComposite180" /><feComposite in="composite1" in2="SourceGraphic" k1="1" operator="arithmetic" k3="1" result="composite2" id="feComposite182" /></filter></defs><g id="surface1" style="filter:url(#filter184)"><path style=" stroke:none;fill-rule:nonzero;fill:url(#linear0);" d="M 38.664062 1.164062 L 15.90625 7.761719 L 8.3125 31.9375 L 19.699219 38.53125 L 8.3125 36.335938 L 15.90625 51.722656 L 27.285156 51.722656 L 19.699219 56.117188 L 34.871094 51.722656 L 31.078125 58.3125 L 37.621094 52.628906 L 52.320312 62.710938 L 53.839844 61.832031 L 39.890625 51.898438 L 53.839844 53.917969 L 42.457031 49.523438 L 53.839844 47.324219 L 38.664062 47.324219 L 50.042969 42.929688 L 38.664062 38.53125 L 53.839844 12.15625 Z M 38.664062 1.164062 "/><path style=" stroke:none;fill-rule:nonzero;fill:url(#linear1);" d="M 29.683594 14.214844 L 26.476562 37.597656 L 37.695312 50.164062 L 37.054688 50.75 L 24.875 37.597656 L 28.878906 14.214844 Z M 29.683594 14.214844 "/></g></svg>
