<svg width="64" height="64" viewBox="0 0 64 64" version="1.1" xmlns:inkscape="http://www.inkscape.org/namespaces/inkscape"><defs><linearGradient id="linear0" gradientUnits="userSpaceOnUse" x1="0" y1="0" x2="0" y2="1" gradientTransform="matrix(58.538049,0,0,41.702993,2.778658,9.251102)"><stop offset="0" style="stop-color:rgb(81.960785%,70.980394%,59.215689%);stop-opacity:1;"/><stop offset="1" style="stop-color:rgb(65.098041%,53.725493%,41.568628%);stop-opacity:1;"/></linearGradient><filter style="color-interpolation-filters:sRGB;" inkscape:label="Diffuse Light" id="filter184" x="-0.0375" y="-0.0375" width="1.075" height="1.075"><feGaussianBlur in="SourceGraphic" stdDeviation="1" result="blur" id="feGaussianBlur174" /><feDiffuseLighting diffuseConstant="1" surfaceScale="10" lighting-color="rgb(255,255,255)" result="diffuse" id="feDiffuseLighting178"><feDistantLight elevation="8" azimuth="235" id="feDistantLight176" /></feDiffuseLighting><feComposite in="diffuse" in2="diffuse" operator="arithmetic" k1="1" result="composite1" id="feComposite180" /><feComposite in="composite1" in2="SourceGraphic" k1="1" operator="arithmetic" k3="1" result="composite2" id="feComposite182" /></filter></defs><g id="surface1" style="filter:url(#filter184)"><path style=" stroke:none;fill-rule:nonzero;fill:url(#linear0);" d="M 19.835938 9.476562 L 26.226562 28.082031 L 0.824219 28.082031 L 0.828125 34.285156 L 0.828125 34.292969 C 0.886719 34.984375 0.960938 35.675781 1.046875 36.359375 L 26.289062 36.359375 L 19.898438 54.964844 L 42.269531 46.699219 L 40.671875 50.832031 L 53.453125 42.5625 L 27.886719 46.699219 L 32.679688 36.359375 L 51.855469 34.292969 L 50.253906 37.394531 L 63.039062 32.226562 L 50.253906 27.058594 L 51.855469 30.15625 L 32.679688 28.09375 L 27.886719 17.753906 L 53.453125 21.890625 L 40.671875 13.621094 L 42.269531 17.753906 Z M 19.835938 9.476562 "/></g></svg>
