<svg width="64" height="64" viewBox="0 0 64 64" version="1.1" xmlns:inkscape="http://www.inkscape.org/namespaces/inkscape"><defs><linearGradient id="linear0" gradientUnits="userSpaceOnUse" x1="0" y1="0" x2="0" y2="1" gradientTransform="matrix(58.855372,0,0,41.642931,1.566772,14.108832)"><stop offset="0" style="stop-color:rgb(81.960785%,70.980394%,59.215689%);stop-opacity:1;"/><stop offset="1" style="stop-color:rgb(65.098041%,53.725493%,41.568628%);stop-opacity:1;"/></linearGradient><filter style="color-interpolation-filters:sRGB;" inkscape:label="Diffuse Light" id="filter184" x="-0.0375" y="-0.0375" width="1.075" height="1.075"><feGaussianBlur in="SourceGraphic" stdDeviation="1" result="blur" id="feGaussianBlur174" /><feDiffuseLighting diffuseConstant="1" surfaceScale="10" lighting-color="rgb(255,255,255)" result="diffuse" id="feDiffuseLighting178"><feDistantLight elevation="8" azimuth="235" id="feDistantLight176" /></feDiffuseLighting><feComposite in="diffuse" in2="diffuse" operator="arithmetic" k1="1" result="composite1" id="feComposite180" /><feComposite in="composite1" in2="SourceGraphic" k1="1" operator="arithmetic" k3="1" result="composite2" id="feComposite182" /></filter></defs><g id="surface1" style="filter:url(#filter184)"><path style=" stroke:none;fill-rule:nonzero;fill:url(#linear0);" d="M 23.636719 11.085938 C 20.738281 11.085938 17.664062 16.378906 17.664062 20.347656 C 10.496094 24.3125 3.328125 29.605469 3.328125 40.1875 L 3.328125 44.6875 C 1.878906 46.574219 0.9375 48.125 0.9375 49.449219 C 0.9375 50.179688 1.472656 50.773438 2.132812 50.773438 C 3.328125 50.773438 8.105469 45.480469 10.496094 42.832031 C 12.886719 42.832031 15.273438 44.15625 20.054688 44.15625 C 20.054688 42.363281 15.273438 41.460938 15.273438 40.1875 C 20.054688 40.1875 22.441406 38.863281 24.832031 36.222656 C 27.710938 35.351562 29.609375 33.574219 34.394531 33.574219 C 39.171875 33.574219 50.402344 38.230469 50.402344 41.511719 C 48.804688 42.832031 48.714844 45.066406 48.730469 46.800781 C 48.742188 48.539062 50.09375 53.417969 53.507812 53.417969 C 52.316406 49.742188 56.5 48.125 54.703125 45.480469 C 56.734375 48.125 60.050781 45.480469 63.066406 48.125 C 63.066406 42.167969 57.125 38.746094 53.507812 40.1875 C 46.265625 31.140625 39.171875 19.023438 27.222656 19.023438 L 23.160156 19.023438 C 21.390625 13.734375 25.308594 11.085938 23.636719 11.085938 "/></g></svg>
