<svg width="64" height="64" viewBox="0 0 64 64" version="1.1" xmlns:inkscape="http://www.inkscape.org/namespaces/inkscape"><defs><linearGradient id="linear0" gradientUnits="userSpaceOnUse" x1="0" y1="0" x2="0" y2="1" gradientTransform="matrix(58.921238,0,0,66.301791,2.67936,-1.389679)"><stop offset="0" style="stop-color:rgb(87.058824%,86.666667%,56.470591%);stop-opacity:1;"/><stop offset="1" style="stop-color:rgb(67.843139%,67.450982%,38.039216%);stop-opacity:1;"/></linearGradient><linearGradient id="linear1" gradientUnits="userSpaceOnUse" x1="0" y1="0" x2="0" y2="1" gradientTransform="matrix(58.921238,0,0,66.301791,2.67936,-1.389679)"><stop offset="0" style="stop-color:rgb(87.058824%,86.666667%,56.470591%);stop-opacity:1;"/><stop offset="1" style="stop-color:rgb(67.843139%,67.450982%,38.039216%);stop-opacity:1;"/></linearGradient><linearGradient id="linear2" gradientUnits="userSpaceOnUse" x1="0" y1="0" x2="0" y2="1" gradientTransform="matrix(58.921238,0,0,66.301791,2.67936,-1.389679)"><stop offset="0" style="stop-color:rgb(87.058824%,86.666667%,56.470591%);stop-opacity:1;"/><stop offset="1" style="stop-color:rgb(67.843139%,67.450982%,38.039216%);stop-opacity:1;"/></linearGradient><filter style="color-interpolation-filters:sRGB;" inkscape:label="Diffuse Light" id="filter184" x="-0.0375" y="-0.0375" width="1.075" height="1.075"><feGaussianBlur in="SourceGraphic" stdDeviation="1" result="blur" id="feGaussianBlur174" /><feDiffuseLighting diffuseConstant="1" surfaceScale="10" lighting-color="rgb(255,255,255)" result="diffuse" id="feDiffuseLighting178"><feDistantLight elevation="8" azimuth="235" id="feDistantLight176" /></feDiffuseLighting><feComposite in="diffuse" in2="diffuse" operator="arithmetic" k1="1" result="composite1" id="feComposite180" /><feComposite in="composite1" in2="SourceGraphic" k1="1" operator="arithmetic" k3="1" result="composite2" id="feComposite182" /></filter></defs><g id="surface1" style="filter:url(#filter184)"><path style=" stroke:none;fill-rule:nonzero;fill:url(#linear0);" d="M 54.003906 32.472656 L 32.207031 12.464844 L 10.390625 32.484375 L 10.390625 61.085938 C 10.390625 61.824219 10.964844 62.410156 11.679688 62.410156 L 25.316406 62.410156 L 25.316406 40.484375 C 25.316406 39.738281 25.726562 39.136719 26.4375 39.140625 L 38.117188 39.316406 C 38.832031 39.332031 39.410156 39.828125 39.398438 40.570312 L 39.082031 62.410156 L 52.722656 62.410156 C 53.433594 62.410156 54.003906 61.824219 54.003906 61.085938 Z M 54.003906 32.472656 "/><path style=" stroke:none;fill-rule:nonzero;fill:url(#linear1);" d="M 32.078125 1.519531 L 1.140625 29.902344 L 4.398438 33.714844 L 32.207031 8.203125 L 60.003906 33.714844 L 63.257812 29.902344 L 32.324219 1.519531 L 32.207031 1.664062 Z M 32.078125 1.519531 "/><path style=" stroke:none;fill-rule:nonzero;fill:url(#linear2);" d="M 54.503906 6.121094 L 46.667969 6.121094 L 46.734375 10.933594 L 54.503906 18.214844 Z M 54.503906 6.121094 "/></g></svg>
