<?xml version="1.0" encoding="UTF-8" standalone="no"?><svg width="64" height="64" viewBox="0 0 64 64" version="1.1" id="svg582" sodipodi:docname="dockstation.svg" inkscape:version="1.2.2 (b0a8486541, 2022-12-01)" xmlns:inkscape="http://www.inkscape.org/namespaces/inkscape" xmlns:sodipodi="http://sodipodi.sourceforge.net/DTD/sodipodi-0.dtd" xmlns:xlink="http://www.w3.org/1999/xlink" xmlns="http://www.w3.org/2000/svg" xmlns:svg="http://www.w3.org/2000/svg"> <sodipodi:namedview id="namedview584" pagecolor="#ffffff" bordercolor="#000000" borderopacity="0.25" inkscape:showpageshadow="2" inkscape:pageopacity="0.0" inkscape:pagecheckerboard="0" inkscape:deskcolor="#d1d1d1" showgrid="false" inkscape:zoom="3.6875" inkscape:cx="32" inkscape:cy="32.135593" inkscape:window-width="1432" inkscape:window-height="844" inkscape:window-x="0" inkscape:window-y="0" inkscape:window-maximized="1" inkscape:current-layer="svg582" /> <defs id="defs575"> <filter id="alpha" filterUnits="objectBoundingBox" x="0" y="0" width="1" height="1"> <feColorMatrix type="matrix" in="SourceGraphic" values="0 0 0 0 1 0 0 0 0 1 0 0 0 0 1 0 0 0 1 0" id="feColorMatrix551" /> </filter> <mask id="mask0"> <g filter="url(#alpha)" id="g556"> <rect x="0" y="0" width="64" height="64" style="fill:rgb(0%,0%,0%);fill-opacity:0.5;stroke:none;" id="rect554" /> </g> </mask> <linearGradient id="linear0" gradientUnits="userSpaceOnUse" x1="0" y1="0" x2="0" y2="1" gradientTransform="matrix(64,0,0,64,0,0)"> <stop offset="0" style="stop-color:#d1b597;stop-opacity:1;" id="stop559" /> <stop offset="1" style="stop-color:#a6896a;stop-opacity:1;" id="stop561" /> </linearGradient> <clipPath id="clip1"> <rect x="0" y="0" width="64" height="64" id="rect564" /> </clipPath> <g id="surface5" clip-path="url(#clip1)"> <path style=" stroke:none;fill-rule:nonzero;fill:url(#linear0);" d="M 0 32 C 0 14.328125 14.328125 0 32 0 C 49.671875 0 64 14.328125 64 32 C 64 49.671875 49.671875 64 32 64 C 14.328125 64 0 49.671875 0 32 Z M 0 32 " id="path567" /> </g> <linearGradient id="linear1" gradientUnits="userSpaceOnUse" x1="0" y1="0" x2="0" y2="1" gradientTransform="matrix(64,0,0,37.082031,0,26.917969)"> <stop offset="0" style="stop-color:#d1b597;stop-opacity:1;" id="stop570" /> <stop offset="1" style="stop-color:#a6896a;stop-opacity:1;" id="stop572" /> </linearGradient> <filter style="color-interpolation-filters:sRGB;" inkscape:label="Diffuse Light" id="filter1469" x="-0.0375" y="-0.0375" width="1.075" height="1.075"> <feGaussianBlur in="SourceGraphic" stdDeviation="1" result="blur" id="feGaussianBlur1459" /> <feDiffuseLighting diffuseConstant="1" surfaceScale="10" lighting-color="rgb(255,255,255)" result="diffuse" id="feDiffuseLighting1463"> <feDistantLight elevation="8" azimuth="235" id="feDistantLight1461" /> </feDiffuseLighting> <feComposite in="diffuse" in2="diffuse" operator="arithmetic" k1="1" result="composite1" id="feComposite1465" /> <feComposite in="composite1" in2="SourceGraphic" k1="1" operator="arithmetic" k3="1" result="composite2" id="feComposite1467" /> </filter> </defs> <g id="surface1" style="filter:url(#filter1469)"> <use xlink:href="#surface5" mask="url(#mask0)" id="use577" /> <path style=" stroke:none;fill-rule:evenodd;fill:url(#linear1);" d="M 32 64 C 14.328125 64 0 49.671875 0 32 C 12.535156 23.644531 22.886719 27.289062 33.339844 30.96875 C 42.894531 34.335938 52.535156 37.730469 64 32 C 64 49.671875 49.671875 64 32 64 Z M 16 44 C 18.210938 44 20 42.210938 20 40 C 20 37.789062 18.210938 36 16 36 C 13.789062 36 12 37.789062 12 40 C 12 42.210938 13.789062 44 16 44 Z M 32 56 C 32 58.210938 30.210938 60 28 60 C 25.789062 60 24 58.210938 24 56 C 24 53.789062 25.789062 52 28 52 C 30.210938 52 32 53.789062 32 56 Z M 46 52 C 49.3125 52 52 49.3125 52 46 C 52 42.6875 49.3125 40 46 40 C 42.6875 40 40 42.6875 40 46 C 40 49.3125 42.6875 52 46 52 Z M 46 52 " id="path579" /> </g></svg>
