<svg width="64" height="64" viewBox="0 0 64 64" version="1.1" xmlns:inkscape="http://www.inkscape.org/namespaces/inkscape"><defs><linearGradient id="linear0" gradientUnits="userSpaceOnUse" x1="0" y1="0" x2="0" y2="1" gradientTransform="matrix(66.72418,0,0,66.895937,-1.175186,1.060047)"><stop offset="0" style="stop-color:rgb(0%,78.823531%,36.862746%);stop-opacity:1;"/><stop offset="1" style="stop-color:rgb(0%,54.11765%,25.098041%);stop-opacity:1;"/></linearGradient><filter style="color-interpolation-filters:sRGB;" inkscape:label="Diffuse Light" id="filter184" x="-0.0375" y="-0.0375" width="1.075" height="1.075"><feGaussianBlur in="SourceGraphic" stdDeviation="1" result="blur" id="feGaussianBlur174" /><feDiffuseLighting diffuseConstant="1" surfaceScale="10" lighting-color="rgb(255,255,255)" result="diffuse" id="feDiffuseLighting178"><feDistantLight elevation="8" azimuth="235" id="feDistantLight176" /></feDiffuseLighting><feComposite in="diffuse" in2="diffuse" operator="arithmetic" k1="1" result="composite1" id="feComposite180" /><feComposite in="composite1" in2="SourceGraphic" k1="1" operator="arithmetic" k3="1" result="composite2" id="feComposite182" /></filter></defs><g id="surface1" style="filter:url(#filter184)"><path style=" stroke:none;fill-rule:nonzero;fill:url(#linear0);" d="M 27.171875 1.59375 C 25.4375 1.59375 25.734375 2.738281 25.734375 2.738281 L 25.734375 26.332031 L 18.160156 26.332031 C 15.949219 26.332031 17.992188 28.253906 17.992188 28.253906 L 31.421875 44.457031 C 31.421875 44.457031 32.523438 45.75 33.667969 44.59375 C 35.265625 43.003906 46.695312 27.859375 46.695312 27.859375 C 46.695312 27.859375 48.714844 25.84375 46.03125 25.84375 L 39.042969 25.84375 L 39.042969 2.5625 C 39.042969 2.5625 39.066406 1.59375 37.824219 1.59375 L 27.171875 1.59375 M 8.4375 47.765625 C 4.542969 47.765625 1.511719 50.925781 1.511719 54.804688 L 1.511719 55.851562 C 1.511719 59.742188 4.542969 62.777344 8.4375 62.777344 L 56.121094 62.777344 C 60.019531 62.777344 63.058594 59.742188 63.058594 55.851562 L 63.058594 54.804688 C 63.058594 50.925781 60.019531 47.765625 56.121094 47.765625 Z M 52.71875 50.449219 C 55.375 50.449219 57.550781 52.621094 57.550781 55.273438 C 57.550781 57.917969 55.375 60.089844 52.71875 60.089844 C 50.066406 60.089844 47.902344 57.917969 47.902344 55.273438 C 47.902344 52.621094 50.066406 50.449219 52.71875 50.449219 "/></g></svg>
