<svg width="64" height="64" viewBox="0 0 64 64" version="1.1" xmlns:inkscape="http://www.inkscape.org/namespaces/inkscape"><defs><linearGradient id="linear0" gradientUnits="userSpaceOnUse" x1="0" y1="0" x2="0" y2="1" gradientTransform="matrix(64,0,0,63.175781,0,0.410156)"><stop offset="0" style="stop-color:rgb(100%,63.137257%,63.137257%);stop-opacity:1;"/><stop offset="1" style="stop-color:rgb(100%,27.843139%,27.843139%);stop-opacity:1;"/></linearGradient><filter style="color-interpolation-filters:sRGB;" inkscape:label="Diffuse Light" id="filter184" x="-0.0375" y="-0.0375" width="1.075" height="1.075"><feGaussianBlur in="SourceGraphic" stdDeviation="1" result="blur" id="feGaussianBlur174" /><feDiffuseLighting diffuseConstant="1" surfaceScale="10" lighting-color="rgb(255,255,255)" result="diffuse" id="feDiffuseLighting178"><feDistantLight elevation="8" azimuth="235" id="feDistantLight176" /></feDiffuseLighting><feComposite in="diffuse" in2="diffuse" operator="arithmetic" k1="1" result="composite1" id="feComposite180" /><feComposite in="composite1" in2="SourceGraphic" k1="1" operator="arithmetic" k3="1" result="composite2" id="feComposite182" /></filter></defs><g id="surface1" style="filter:url(#filter184)"><path style=" stroke:none;fill-rule:nonzero;fill:url(#linear0);" d="M 60.265625 63.585938 C 65 33.175781 52.285156 23.230469 54.652344 19.15625 C 56.378906 16.199219 64 17.523438 64 17.523438 C 58.050781 12.550781 52.742188 12.332031 47.636719 13.628906 C 41.417969 4.222656 15.976562 -8.1875 5.527344 8.953125 C 5.527344 8.953125 -0.460938 10.929688 0.0273438 13.132812 C 0.507812 15.285156 9.496094 12.113281 22.25 18.140625 C 21.496094 26.941406 25.398438 32.566406 32.582031 35.945312 C 30.617188 32.441406 27.828125 29.207031 30.660156 23.507812 C 39.714844 29.433594 44.339844 37.070312 48.246094 44.730469 C 47.371094 36.808594 39.519531 17.132812 14.621094 11.402344 C 34.414062 -4.761719 63.089844 31.152344 60.265625 63.585938 Z M 60.265625 63.585938 "/></g></svg>
