<svg width="64" height="64" viewBox="0 0 64 64" version="1.1" xmlns:inkscape="http://www.inkscape.org/namespaces/inkscape"><defs><linearGradient id="linear0" gradientUnits="userSpaceOnUse" x1="0" y1="0" x2="0" y2="1" gradientTransform="matrix(63.777101,0,0,39.015183,0.113425,11.413424)"><stop offset="0" style="stop-color:rgb(61.176473%,69.803923%,85.09804%);stop-opacity:1;"/><stop offset="1" style="stop-color:rgb(44.313726%,52.156866%,65.882355%);stop-opacity:1;"/></linearGradient><filter style="color-interpolation-filters:sRGB;" inkscape:label="Diffuse Light" id="filter184" x="-0.0375" y="-0.0375" width="1.075" height="1.075"><feGaussianBlur in="SourceGraphic" stdDeviation="1" result="blur" id="feGaussianBlur174" /><feDiffuseLighting diffuseConstant="1" surfaceScale="10" lighting-color="rgb(255,255,255)" result="diffuse" id="feDiffuseLighting178"><feDistantLight elevation="8" azimuth="235" id="feDistantLight176" /></feDiffuseLighting><feComposite in="diffuse" in2="diffuse" operator="arithmetic" k1="1" result="composite1" id="feComposite180" /><feComposite in="composite1" in2="SourceGraphic" k1="1" operator="arithmetic" k3="1" result="composite2" id="feComposite182" /></filter></defs><g id="surface1" style="filter:url(#filter184)"><path style=" stroke:none;fill-rule:nonzero;fill:url(#linear0);" d="M 46.964844 1.808594 L 46.964844 10.496094 C 46.964844 14.453125 46.570312 18.074219 45.84375 21.34375 C 44.882812 20.121094 43.933594 19.03125 43.035156 18.136719 C 43.015625 18.121094 43.003906 18.109375 42.992188 18.089844 C 42.992188 18.089844 42.980469 18.089844 42.980469 18.089844 C 37.503906 12.105469 31.242188 7.601562 24.1875 7.601562 C 10.269531 7.601562 1.414062 18.621094 1.414062 32.214844 C 1.414062 51.035156 14.066406 56.828125 21.652344 56.828125 C 29.457031 56.828125 35.753906 53.378906 40.546875 48.324219 C 41.113281 50.167969 41.570312 52.050781 41.902344 53.929688 L 34.3125 62.617188 L 62.148438 62.617188 L 62.148438 27.871094 L 55.820312 38.007812 C 54.671875 35.382812 52.863281 31.980469 50.8125 28.628906 C 51.617188 25.304688 52.019531 22.070312 52.019531 19.183594 C 52.019531 11.5 49.648438 5.453125 46.964844 1.808594 Z M 19.128906 24.972656 C 25.316406 24.960938 31.496094 30.378906 35.949219 37.894531 C 32.015625 40.8125 27.171875 42.351562 21.652344 42.351562 C 16.597656 42.351562 11.535156 39.453125 11.535156 32.214844 C 11.984375 27.125 15.707031 24.980469 19.128906 24.972656 Z M 19.128906 24.972656 "/></g></svg>
