<svg width="64" height="64" viewBox="0 0 64 64" version="1.1" xmlns:inkscape="http://www.inkscape.org/namespaces/inkscape"><defs><linearGradient id="linear0" gradientUnits="userSpaceOnUse" x1="0" y1="0" x2="0" y2="1" gradientTransform="matrix(64.669404,0,0,44.365053,1.229813,7.927594)"><stop offset="0" style="stop-color:rgb(87.058824%,86.666667%,56.470591%);stop-opacity:1;"/><stop offset="1" style="stop-color:rgb(67.843139%,67.450982%,38.039216%);stop-opacity:1;"/></linearGradient><linearGradient id="linear1" gradientUnits="userSpaceOnUse" x1="0" y1="0" x2="0" y2="1" gradientTransform="matrix(64.669404,0,0,44.365053,1.229813,7.927594)"><stop offset="0" style="stop-color:rgb(87.058824%,86.666667%,56.470591%);stop-opacity:1;"/><stop offset="1" style="stop-color:rgb(67.843139%,67.450982%,38.039216%);stop-opacity:1;"/></linearGradient><filter style="color-interpolation-filters:sRGB;" inkscape:label="Diffuse Light" id="filter184" x="-0.0375" y="-0.0375" width="1.075" height="1.075"><feGaussianBlur in="SourceGraphic" stdDeviation="1" result="blur" id="feGaussianBlur174" /><feDiffuseLighting diffuseConstant="1" surfaceScale="10" lighting-color="rgb(255,255,255)" result="diffuse" id="feDiffuseLighting178"><feDistantLight elevation="8" azimuth="235" id="feDistantLight176" /></feDiffuseLighting><feComposite in="diffuse" in2="diffuse" operator="arithmetic" k1="1" result="composite1" id="feComposite180" /><feComposite in="composite1" in2="SourceGraphic" k1="1" operator="arithmetic" k3="1" result="composite2" id="feComposite182" /></filter></defs><g id="surface1" style="filter:url(#filter184)"><path style=" stroke:none;fill-rule:nonzero;fill:url(#linear0);" d="M 33.121094 4.617188 C 21.945312 4.628906 11.265625 8.914062 3.367188 16.488281 C 12.949219 14.144531 22.953125 12.683594 33.121094 12.683594 C 43.292969 12.683594 53.300781 14.136719 62.882812 16.472656 C 55.003906 8.863281 44.304688 4.601562 33.121094 4.601562 Z M 33.121094 4.617188 "/><path style=" stroke:none;fill-rule:nonzero;fill:url(#linear1);" d="M 32.277344 18.585938 C 22.226562 18.585938 11.875 21.285156 2.375 25.027344 C 2.003906 26.917969 1.816406 28.84375 1.816406 30.777344 C 1.816406 47.539062 15.457031 61.140625 32.265625 61.140625 C 49.074219 61.140625 62.71875 47.539062 62.71875 30.777344 C 62.710938 28.839844 62.519531 26.910156 62.144531 25.011719 C 52.644531 21.300781 42.351562 18.636719 32.304688 18.636719 Z M 32.25 24.660156 C 38.980469 24.660156 44.4375 30.09375 44.4375 36.804688 C 44.4375 43.515625 38.980469 48.953125 32.25 48.953125 C 25.527344 48.953125 20.070312 43.515625 20.070312 36.804688 C 20.070312 30.09375 25.527344 24.660156 32.25 24.660156 Z M 32.25 24.660156 "/></g></svg>
