<svg width="64" height="64" viewBox="0 0 64 64" version="1.1" xmlns:inkscape="http://www.inkscape.org/namespaces/inkscape"><defs><linearGradient id="linear0" gradientUnits="userSpaceOnUse" x1="0" y1="0" x2="0" y2="1" gradientTransform="matrix(71.964337,0,0,39.945252,-1.794127,12.292482)"><stop offset="0" style="stop-color:rgb(41.960785%,64.313728%,100%);stop-opacity:1;"/><stop offset="1" style="stop-color:rgb(0%,43.137255%,100%);stop-opacity:1;"/></linearGradient><filter style="color-interpolation-filters:sRGB;" inkscape:label="Diffuse Light" id="filter184" x="-0.0375" y="-0.0375" width="1.075" height="1.075"><feGaussianBlur in="SourceGraphic" stdDeviation="1" result="blur" id="feGaussianBlur174" /><feDiffuseLighting diffuseConstant="1" surfaceScale="10" lighting-color="rgb(255,255,255)" result="diffuse" id="feDiffuseLighting178"><feDistantLight elevation="8" azimuth="235" id="feDistantLight176" /></feDiffuseLighting><feComposite in="diffuse" in2="diffuse" operator="arithmetic" k1="1" result="composite1" id="feComposite180" /><feComposite in="composite1" in2="SourceGraphic" k1="1" operator="arithmetic" k3="1" result="composite2" id="feComposite182" /></filter></defs><g id="surface1" style="filter:url(#filter184)"><path style=" stroke:none;fill-rule:nonzero;fill:url(#linear0);" d="M 24.796875 1.855469 L 14.1875 29.875 L 4.355469 29.875 C 2.941406 29.875 1.796875 30.917969 1.796875 32.207031 L 1.796875 43.882812 C 1.796875 45.179688 2.941406 46.21875 4.355469 46.21875 L 7.980469 46.21875 L 1.796875 62.5625 L 17.128906 62.5625 L 22.496094 46.21875 L 42.425781 46.21875 L 47.792969 62.5625 L 63.121094 62.5625 L 56.941406 46.21875 L 60.566406 46.21875 C 61.984375 46.21875 63.121094 45.179688 63.121094 43.882812 L 63.121094 32.207031 C 63.121094 30.917969 61.984375 29.875 60.566406 29.875 L 50.734375 29.875 L 40.125 1.855469 Z M 32.460938 15.867188 L 37.058594 29.875 L 27.863281 29.875 Z M 32.460938 15.867188 "/></g></svg>
