<svg width="64" height="64" viewBox="0 0 64 64" version="1.1" xmlns:inkscape="http://www.inkscape.org/namespaces/inkscape"><defs><linearGradient id="linear0" gradientUnits="userSpaceOnUse" x1="0" y1="0" x2="0" y2="1" gradientTransform="matrix(64,0,0,59.429688,0,2.285156)"><stop offset="0" style="stop-color:rgb(75.686276%,77.64706%,83.92157%);stop-opacity:1;"/><stop offset="1" style="stop-color:rgb(43.529412%,45.09804%,50.196081%);stop-opacity:1;"/></linearGradient><filter style="color-interpolation-filters:sRGB;" inkscape:label="Diffuse Light" id="filter184" x="-0.0375" y="-0.0375" width="1.075" height="1.075"><feGaussianBlur in="SourceGraphic" stdDeviation="1" result="blur" id="feGaussianBlur174" /><feDiffuseLighting diffuseConstant="1" surfaceScale="10" lighting-color="rgb(255,255,255)" result="diffuse" id="feDiffuseLighting178"><feDistantLight elevation="8" azimuth="235" id="feDistantLight176" /></feDiffuseLighting><feComposite in="diffuse" in2="diffuse" operator="arithmetic" k1="1" result="composite1" id="feComposite180" /><feComposite in="composite1" in2="SourceGraphic" k1="1" operator="arithmetic" k3="1" result="composite2" id="feComposite182" /></filter></defs><g id="surface1" style="filter:url(#filter184)"><path style=" stroke:none;fill-rule:nonzero;fill:url(#linear0);" d="M 18.285156 2.285156 L 0 13.714844 L 13.714844 22.855469 L 32 11.429688 Z M 32 11.429688 L 50.285156 22.855469 L 64 13.714844 L 45.714844 2.285156 Z M 50.285156 22.855469 L 32 34.285156 L 45.714844 43.429688 L 64 32 Z M 32 34.285156 L 13.714844 22.855469 L 0 32 L 18.285156 43.429688 Z M 32 39.777344 L 18.367188 48.867188 L 13.714844 45.957031 L 13.714844 50.730469 L 32.035156 61.714844 L 50.285156 50.769531 L 50.285156 45.957031 L 45.632812 48.867188 Z M 32 39.777344 "/></g></svg>
