<svg width="64" height="64" viewBox="0 0 64 64" version="1.1" xmlns:inkscape="http://www.inkscape.org/namespaces/inkscape"><defs><linearGradient id="linear0" gradientUnits="userSpaceOnUse" x1="0" y1="0" x2="0" y2="1" gradientTransform="matrix(63.539659,0,0,41.929982,-0.263207,9.37631)"><stop offset="0" style="stop-color:rgb(0%,96.078432%,86.274511%);stop-opacity:1;"/><stop offset="1" style="stop-color:rgb(0%,54.901963%,49.411765%);stop-opacity:1;"/></linearGradient><filter style="color-interpolation-filters:sRGB;" inkscape:label="Diffuse Light" id="filter184" x="-0.0375" y="-0.0375" width="1.075" height="1.075"><feGaussianBlur in="SourceGraphic" stdDeviation="1" result="blur" id="feGaussianBlur174" /><feDiffuseLighting diffuseConstant="1" surfaceScale="10" lighting-color="rgb(255,255,255)" result="diffuse" id="feDiffuseLighting178"><feDistantLight elevation="8" azimuth="235" id="feDistantLight176" /></feDiffuseLighting><feComposite in="diffuse" in2="diffuse" operator="arithmetic" k1="1" result="composite1" id="feComposite180" /><feComposite in="composite1" in2="SourceGraphic" k1="1" operator="arithmetic" k3="1" result="composite2" id="feComposite182" /></filter></defs><g id="surface1" style="filter:url(#filter184)"><path style=" stroke:none;fill-rule:nonzero;fill:url(#linear0);" d="M 48.375 59.175781 L 37.496094 47.070312 L 36.929688 63.382812 L 31.480469 48.007812 L 24.753906 62.867188 L 25.550781 46.558594 L 13.699219 57.683594 L 20.628906 42.929688 L 5.449219 48.652344 L 17.460938 37.683594 L 1.269531 37.117188 L 16.539062 31.625 L 1.785156 24.847656 L 17.980469 25.652344 L 6.929688 13.710938 L 21.578125 20.695312 L 15.902344 5.398438 L 26.78125 17.503906 L 27.34375 1.191406 L 32.800781 16.570312 L 39.523438 1.710938 L 38.726562 18.023438 L 50.578125 6.894531 L 43.644531 21.648438 L 58.832031 15.929688 L 46.816406 26.890625 L 63.007812 27.460938 L 47.742188 32.957031 L 62.492188 39.730469 L 46.300781 38.929688 L 57.347656 50.867188 L 42.699219 43.882812 Z M 48.375 59.175781 "/></g></svg>
