<svg width="64" height="64" viewBox="0 0 64 64" version="1.1" xmlns:inkscape="http://www.inkscape.org/namespaces/inkscape"><defs><linearGradient id="linear0" gradientUnits="userSpaceOnUse" x1="0" y1="0" x2="0" y2="1" gradientTransform="matrix(19.203125,0,0,48,22.398437,0)"><stop offset="0" style="stop-color:rgb(81.960785%,70.980394%,59.215689%);stop-opacity:1;"/><stop offset="1" style="stop-color:rgb(65.098041%,53.725493%,41.568628%);stop-opacity:1;"/></linearGradient><linearGradient id="linear1" gradientUnits="userSpaceOnUse" x1="0" y1="0" x2="0" y2="1" gradientTransform="matrix(44.796875,0,0,38.398438,9.601562,25.601562)"><stop offset="0" style="stop-color:rgb(81.960785%,70.980394%,59.215689%);stop-opacity:1;"/><stop offset="1" style="stop-color:rgb(65.098041%,53.725493%,41.568628%);stop-opacity:1;"/></linearGradient><filter style="color-interpolation-filters:sRGB;" inkscape:label="Diffuse Light" id="filter184" x="-0.0375" y="-0.0375" width="1.075" height="1.075"><feGaussianBlur in="SourceGraphic" stdDeviation="1" result="blur" id="feGaussianBlur174" /><feDiffuseLighting diffuseConstant="1" surfaceScale="10" lighting-color="rgb(255,255,255)" result="diffuse" id="feDiffuseLighting178"><feDistantLight elevation="8" azimuth="235" id="feDistantLight176" /></feDiffuseLighting><feComposite in="diffuse" in2="diffuse" operator="arithmetic" k1="1" result="composite1" id="feComposite180" /><feComposite in="composite1" in2="SourceGraphic" k1="1" operator="arithmetic" k3="1" result="composite2" id="feComposite182" /></filter></defs><g id="surface1" style="filter:url(#filter184)"><path style=" stroke:none;fill-rule:nonzero;fill:url(#linear0);" d="M 32 0 C 32 0 28.800781 0 28.800781 3.199219 C 28.800781 6.398438 25.601562 6.398438 25.601562 6.398438 C 25.601562 6.398438 22.398438 6.402344 22.398438 3.199219 L 22.398438 48 L 41.601562 48 L 41.601562 3.199219 C 41.601562 6.398438 38.398438 6.398438 38.398438 6.398438 C 38.398438 6.398438 35.199219 6.398438 35.199219 3.199219 C 35.199219 0 32 0 32 0 Z M 32 0 "/><path style=" stroke:none;fill-rule:nonzero;fill:url(#linear1);" d="M 9.601562 38.398438 L 32 64 L 54.398438 38.398438 L 41.601562 38.402344 L 41.601562 28.800781 C 41.601562 32 38.398438 32 38.398438 32 C 38.398438 32 35.199219 32 35.199219 28.800781 C 35.199219 25.601562 32 25.601562 32 25.601562 C 32 25.601562 28.800781 25.601562 28.800781 28.800781 C 28.800781 32 25.601562 32 25.601562 32 C 25.601562 32 22.398438 32 22.398438 28.796875 L 22.398438 38.398438 Z M 9.601562 38.398438 "/></g></svg>
