<svg width="64" height="64" viewBox="0 0 64 64" version="1.1" xmlns:inkscape="http://www.inkscape.org/namespaces/inkscape"><defs><linearGradient id="linear0" gradientUnits="userSpaceOnUse" x1="0" y1="0" x2="0" y2="1" gradientTransform="matrix(86.784824,0,0,97.483533,-10.904637,-12.369738)"><stop offset="0" style="stop-color:rgb(41.960785%,64.313728%,100%);stop-opacity:1;"/><stop offset="1" style="stop-color:rgb(0%,43.137255%,100%);stop-opacity:1;"/></linearGradient><linearGradient id="linear1" gradientUnits="userSpaceOnUse" x1="0" y1="0" x2="0" y2="1" gradientTransform="matrix(86.784824,0,0,97.483533,-10.904637,-12.369738)"><stop offset="0" style="stop-color:rgb(41.960785%,64.313728%,100%);stop-opacity:1;"/><stop offset="1" style="stop-color:rgb(0%,43.137255%,100%);stop-opacity:1;"/></linearGradient><filter style="color-interpolation-filters:sRGB;" inkscape:label="Diffuse Light" id="filter184" x="-0.0375" y="-0.0375" width="1.075" height="1.075"><feGaussianBlur in="SourceGraphic" stdDeviation="1" result="blur" id="feGaussianBlur174" /><feDiffuseLighting diffuseConstant="1" surfaceScale="10" lighting-color="rgb(255,255,255)" result="diffuse" id="feDiffuseLighting178"><feDistantLight elevation="8" azimuth="235" id="feDistantLight176" /></feDiffuseLighting><feComposite in="diffuse" in2="diffuse" operator="arithmetic" k1="1" result="composite1" id="feComposite180" /><feComposite in="composite1" in2="SourceGraphic" k1="1" operator="arithmetic" k3="1" result="composite2" id="feComposite182" /></filter></defs><g id="surface1" style="filter:url(#filter184)"><path style=" stroke:none;fill-rule:nonzero;fill:url(#linear0);" d="M 21.027344 31.0625 C 21.027344 37.414062 16.605469 42.558594 11.152344 42.558594 C 5.703125 42.558594 1.277344 37.414062 1.277344 31.0625 C 1.277344 24.710938 5.703125 19.5625 11.152344 19.5625 C 16.605469 19.5625 21.027344 24.710938 21.027344 31.0625 Z M 21.027344 31.0625 "/><path style=" stroke:none;fill-rule:nonzero;fill:url(#linear1);" d="M 63.371094 31.0625 C 63.371094 37.414062 58.945312 42.558594 53.496094 42.558594 C 48.042969 42.558594 43.621094 37.414062 43.621094 31.0625 C 43.621094 24.710938 48.042969 19.578125 53.496094 19.578125 C 58.945312 19.578125 63.371094 24.710938 63.371094 31.0625 Z M 63.371094 31.0625 "/></g></svg>
