<svg width="64" height="64" viewBox="0 0 64 64" version="1.1" xmlns:inkscape="http://www.inkscape.org/namespaces/inkscape"><defs><linearGradient id="linear0" gradientUnits="userSpaceOnUse" x1="0" y1="0" x2="0" y2="1" gradientTransform="matrix(59.624454,0,0,59.155226,2.175501,1.952205)"><stop offset="0" style="stop-color:rgb(0%,96.078432%,86.274511%);stop-opacity:1;"/><stop offset="1" style="stop-color:rgb(0%,54.901963%,49.411765%);stop-opacity:1;"/></linearGradient><filter style="color-interpolation-filters:sRGB;" inkscape:label="Diffuse Light" id="filter184" x="-0.0375" y="-0.0375" width="1.075" height="1.075"><feGaussianBlur in="SourceGraphic" stdDeviation="1" result="blur" id="feGaussianBlur174" /><feDiffuseLighting diffuseConstant="1" surfaceScale="10" lighting-color="rgb(255,255,255)" result="diffuse" id="feDiffuseLighting178"><feDistantLight elevation="8" azimuth="235" id="feDistantLight176" /></feDiffuseLighting><feComposite in="diffuse" in2="diffuse" operator="arithmetic" k1="1" result="composite1" id="feComposite180" /><feComposite in="composite1" in2="SourceGraphic" k1="1" operator="arithmetic" k3="1" result="composite2" id="feComposite182" /></filter></defs><g id="surface1" style="filter:url(#filter184)"><path style=" stroke:none;fill-rule:evenodd;fill:url(#linear0);" d="M 32.046875 1.300781 C 15.042969 1.300781 1.261719 14.921875 1.261719 31.710938 C 1.261719 48.515625 15.050781 62.125 32.046875 62.125 C 49.050781 62.125 62.835938 48.503906 62.835938 31.710938 C 62.835938 30.964844 62.800781 30.226562 62.75 29.496094 C 61.261719 31.523438 59.570312 33.660156 57.71875 35.828125 C 55.507812 38.417969 53.304688 40.757812 51.222656 42.78125 L 45.144531 37.710938 C 46.816406 35.351562 48.792969 32.804688 51.003906 30.21875 C 54.363281 26.292969 57.722656 22.894531 60.625 20.378906 C 56.082031 9.199219 44.996094 1.300781 32.046875 1.300781 M 32.046875 22.902344 C 36.976562 22.902344 40.96875 26.84375 40.96875 31.710938 C 40.96875 36.582031 36.976562 40.523438 32.046875 40.523438 C 27.117188 40.523438 23.128906 36.582031 23.128906 31.710938 C 23.128906 26.84375 27.117188 22.902344 32.046875 22.902344 M 32.046875 24.6875 C 28.113281 24.6875 24.9375 27.835938 24.9375 31.710938 C 24.9375 35.59375 28.113281 38.738281 32.046875 38.738281 C 35.972656 38.738281 39.160156 35.59375 39.160156 31.710938 C 39.160156 27.835938 35.972656 24.6875 32.046875 24.6875 M 32.046875 27.101562 C 34.628906 27.101562 36.71875 29.160156 36.71875 31.710938 C 36.71875 34.265625 34.628906 36.328125 32.046875 36.328125 C 29.46875 36.328125 27.378906 34.265625 27.378906 31.71875 C 27.378906 29.167969 29.46875 27.105469 32.046875 27.105469 M 44.058594 39.289062 L 49.835938 44.105469 C 48.097656 45.730469 46.464844 47.089844 45.035156 48.117188 L 40.859375 44.636719 C 41.644531 43.074219 42.730469 41.257812 44.058594 39.289062 M 39.929688 45.742188 L 43.925781 49.078125 C 42.371094 54.671875 40.425781 55.261719 37.65625 54.324219 C 34.890625 53.386719 30.777344 59.046875 30.777344 59.046875 C 27.28125 48.132812 39.929688 45.742188 39.929688 45.742188 "/></g></svg>
