<svg width="64" height="64" viewBox="0 0 64 64" version="1.1" xmlns:inkscape="http://www.inkscape.org/namespaces/inkscape"><defs><linearGradient id="linear0" gradientUnits="userSpaceOnUse" x1="0" y1="0" x2="0" y2="1" gradientTransform="matrix(64.837272,0,0,40.201034,1.52716,9.178856)"><stop offset="0" style="stop-color:rgb(81.960785%,70.980394%,59.215689%);stop-opacity:1;"/><stop offset="1" style="stop-color:rgb(65.098041%,53.725493%,41.568628%);stop-opacity:1;"/></linearGradient><filter style="color-interpolation-filters:sRGB;" inkscape:label="Diffuse Light" id="filter184" x="-0.0375" y="-0.0375" width="1.075" height="1.075"><feGaussianBlur in="SourceGraphic" stdDeviation="1" result="blur" id="feGaussianBlur174" /><feDiffuseLighting diffuseConstant="1" surfaceScale="10" lighting-color="rgb(255,255,255)" result="diffuse" id="feDiffuseLighting178"><feDistantLight elevation="8" azimuth="235" id="feDistantLight176" /></feDiffuseLighting><feComposite in="diffuse" in2="diffuse" operator="arithmetic" k1="1" result="composite1" id="feComposite180" /><feComposite in="composite1" in2="SourceGraphic" k1="1" operator="arithmetic" k3="1" result="composite2" id="feComposite182" /></filter></defs><g id="surface1" style="filter:url(#filter184)"><path style=" stroke:none;fill-rule:nonzero;fill:url(#linear0);" d="M 20.699219 1.457031 C 15.3125 1.457031 10.976562 5.851562 10.976562 11.3125 L 10.976562 40.875 C 10.976562 49.992188 15.390625 51.398438 20.699219 53.195312 C 27.992188 55.65625 32.855469 55.65625 37.71875 63.046875 C 37.71875 63.046875 40.152344 58.121094 45.011719 53.933594 C 50.25 49.417969 54.738281 48.265625 54.738281 40.875 L 54.738281 11.3125 C 54.738281 5.851562 50.398438 1.457031 45.011719 1.457031 Z M 20.699219 6.382812 L 45.011719 6.382812 C 47.703125 6.382812 49.875 8.578125 49.875 11.3125 L 49.875 31.019531 L 15.835938 31.019531 L 15.835938 11.3125 C 15.835938 8.578125 18.007812 6.382812 20.699219 6.382812 Z M 23.132812 18.703125 C 21.789062 18.703125 20.699219 19.804688 20.699219 21.164062 C 20.699219 22.523438 21.789062 23.628906 23.132812 23.628906 C 24.476562 23.628906 25.566406 22.523438 25.566406 21.164062 C 25.566406 19.804688 24.476562 18.703125 23.132812 18.703125 Z M 42.578125 18.703125 C 41.238281 18.703125 40.152344 19.804688 40.152344 21.164062 C 40.152344 22.523438 41.238281 23.628906 42.578125 23.628906 C 43.921875 23.628906 45.011719 22.523438 45.011719 21.164062 C 45.011719 19.804688 43.921875 18.703125 42.578125 18.703125 Z M 20.699219 35.945312 L 45.011719 35.945312 C 45.011719 37.984375 43.3125 40.015625 40.6875 41.429688 C 38.863281 39.539062 35.949219 38.410156 32.855469 38.414062 C 29.765625 38.414062 26.867188 39.546875 25.046875 41.445312 C 22.414062 40.023438 20.699219 37.988281 20.699219 35.945312 Z M 20.699219 35.945312 "/></g></svg>
