<svg width="64" height="64" viewBox="0 0 64 64" version="1.1" xmlns:inkscape="http://www.inkscape.org/namespaces/inkscape"><defs><linearGradient id="linear0" gradientUnits="userSpaceOnUse" x1="0" y1="0" x2="0" y2="1" gradientTransform="matrix(63.898438,0,0,64,0.0507812,0)"><stop offset="0" style="stop-color:rgb(100%,63.137257%,63.137257%);stop-opacity:1;"/><stop offset="1" style="stop-color:rgb(100%,27.843139%,27.843139%);stop-opacity:1;"/></linearGradient><filter style="color-interpolation-filters:sRGB;" inkscape:label="Diffuse Light" id="filter184" x="-0.0375" y="-0.0375" width="1.075" height="1.075"><feGaussianBlur in="SourceGraphic" stdDeviation="1" result="blur" id="feGaussianBlur174" /><feDiffuseLighting diffuseConstant="1" surfaceScale="10" lighting-color="rgb(255,255,255)" result="diffuse" id="feDiffuseLighting178"><feDistantLight elevation="8" azimuth="235" id="feDistantLight176" /></feDiffuseLighting><feComposite in="diffuse" in2="diffuse" operator="arithmetic" k1="1" result="composite1" id="feComposite180" /><feComposite in="composite1" in2="SourceGraphic" k1="1" operator="arithmetic" k3="1" result="composite2" id="feComposite182" /></filter></defs><g id="surface1" style="filter:url(#filter184)"><path style=" stroke:none;fill-rule:nonzero;fill:url(#linear0);" d="M 31.949219 0 C 18.960938 0.0078125 7.269531 7.863281 2.351562 19.882812 L 23.589844 23.523438 L 22.875 27.734375 L 1.015625 23.984375 C 0.511719 25.910156 0.1875 27.878906 0.0507812 29.867188 L 23.417969 29.867188 L 23.417969 34.132812 L 0.0585938 34.132812 C 0.195312 36.117188 0.519531 38.085938 1.023438 40.007812 L 22.875 36.265625 L 23.589844 40.476562 L 2.398438 44.109375 C 7.308594 56.113281 18.980469 63.972656 31.949219 64 C 49.625 64 63.949219 49.671875 63.949219 32 C 63.949219 14.328125 49.625 0 31.949219 0 Z M 31.949219 0 "/></g></svg>
