<svg width="64" height="64" viewBox="0 0 64 64" version="1.1" xmlns:inkscape="http://www.inkscape.org/namespaces/inkscape"><defs><linearGradient id="linear0" gradientUnits="userSpaceOnUse" x1="0" y1="0" x2="0" y2="1" gradientTransform="matrix(64,0,0,24,0,20)"><stop offset="0" style="stop-color:rgb(100%,73.333335%,0%);stop-opacity:1;"/><stop offset="1" style="stop-color:rgb(70.19608%,51.372552%,0%);stop-opacity:1;"/></linearGradient><filter style="color-interpolation-filters:sRGB;" inkscape:label="Diffuse Light" id="filter184" x="-0.0375" y="-0.0375" width="1.075" height="1.075"><feGaussianBlur in="SourceGraphic" stdDeviation="1" result="blur" id="feGaussianBlur174" /><feDiffuseLighting diffuseConstant="1" surfaceScale="10" lighting-color="rgb(255,255,255)" result="diffuse" id="feDiffuseLighting178"><feDistantLight elevation="8" azimuth="235" id="feDistantLight176" /></feDiffuseLighting><feComposite in="diffuse" in2="diffuse" operator="arithmetic" k1="1" result="composite1" id="feComposite180" /><feComposite in="composite1" in2="SourceGraphic" k1="1" operator="arithmetic" k3="1" result="composite2" id="feComposite182" /></filter></defs><g id="surface1" style="filter:url(#filter184)"><path style=" stroke:none;fill-rule:evenodd;fill:url(#linear0);" d="M 46.667969 37.574219 C 46.667969 41.125 40.398438 44 32.667969 44 C 24.9375 44 18.667969 41.125 18.667969 37.574219 C 18.667969 34.027344 24.9375 37.574219 32.667969 37.574219 C 40.398438 37.574219 46.667969 34.027344 46.667969 37.574219 Z M 9.332031 26 C 9.332031 24.894531 10.226562 24 11.332031 24 C 12.4375 24 13.332031 24.894531 13.332031 26 C 13.332031 27.105469 12.4375 28 11.332031 28 C 10.226562 28 9.332031 27.105469 9.332031 26 Z M 0 28 C 0 23.585938 3.585938 20 8 20 C 12.414062 20 16 23.585938 16 28 C 16 32.414062 12.414062 36 8 36 C 3.585938 36 0 32.414062 0 28 Z M 57.332031 26 C 57.332031 24.894531 58.226562 24 59.332031 24 C 60.4375 24 61.332031 24.894531 61.332031 26 C 61.332031 27.105469 60.4375 28 59.332031 28 C 58.226562 28 57.332031 27.105469 57.332031 26 Z M 48 28 C 48 23.585938 51.585938 20 56 20 C 60.414062 20 64 23.585938 64 28 C 64 32.414062 60.414062 36 56 36 C 51.585938 36 48 32.414062 48 28 Z M 48 28 "/></g></svg>
