<svg width="64" height="64" viewBox="0 0 64 64" version="1.1" xmlns:inkscape="http://www.inkscape.org/namespaces/inkscape"><defs><linearGradient id="linear0" gradientUnits="userSpaceOnUse" x1="0" y1="0" x2="0" y2="1" gradientTransform="matrix(61.728134,0,0,61.791752,1.246226,1.325303)"><stop offset="0" style="stop-color:rgb(0%,96.078432%,86.274511%);stop-opacity:1;"/><stop offset="1" style="stop-color:rgb(0%,54.901963%,49.411765%);stop-opacity:1;"/></linearGradient><filter style="color-interpolation-filters:sRGB;" inkscape:label="Diffuse Light" id="filter184" x="-0.0375" y="-0.0375" width="1.075" height="1.075"><feGaussianBlur in="SourceGraphic" stdDeviation="1" result="blur" id="feGaussianBlur174" /><feDiffuseLighting diffuseConstant="1" surfaceScale="10" lighting-color="rgb(255,255,255)" result="diffuse" id="feDiffuseLighting178"><feDistantLight elevation="8" azimuth="235" id="feDistantLight176" /></feDiffuseLighting><feComposite in="diffuse" in2="diffuse" operator="arithmetic" k1="1" result="composite1" id="feComposite180" /><feComposite in="composite1" in2="SourceGraphic" k1="1" operator="arithmetic" k3="1" result="composite2" id="feComposite182" /></filter></defs><g id="surface1" style="filter:url(#filter184)"><path style=" stroke:none;fill-rule:evenodd;fill:url(#linear0);" d="M 26.597656 43.257812 L 13.402344 43.257812 L 13.402344 56.5 L 7.859375 56.5 L 7.859375 24.496094 L 13.339844 24.496094 L 13.339844 37.738281 L 26.597656 37.738281 L 26.597656 24.496094 L 32.109375 24.496094 L 32.109375 56.5 L 26.597656 56.5 Z M 62.972656 60.027344 L 62.972656 4.414062 C 62.972656 2.714844 61.585938 1.324219 59.890625 1.324219 L 4.332031 1.324219 C 2.632812 1.324219 1.246094 2.714844 1.246094 4.414062 L 1.246094 60.027344 C 1.246094 61.734375 2.632812 63.117188 4.332031 63.117188 L 59.890625 63.117188 C 61.585938 63.117188 62.972656 61.734375 62.972656 60.027344 Z M 55.257812 5.738281 L 55.257812 9.050781 L 51.949219 9.050781 L 51.949219 12.359375 L 55.257812 12.359375 L 55.257812 24.496094 L 58.566406 24.496094 L 58.566406 5.738281 Z M 55.257812 5.738281 "/></g></svg>
