<svg width="64" height="64" viewBox="0 0 64 64" version="1.1" xmlns:inkscape="http://www.inkscape.org/namespaces/inkscape"><defs><linearGradient id="linear0" gradientUnits="userSpaceOnUse" x1="0" y1="0" x2="0" y2="1" gradientTransform="matrix(62.913256,0,0,60.836232,1.670562,3.094737)"><stop offset="0" style="stop-color:rgb(82.352942%,61.176473%,100%);stop-opacity:1;"/><stop offset="1" style="stop-color:rgb(66.666669%,0%,100%);stop-opacity:1;"/></linearGradient><linearGradient id="linear1" gradientUnits="userSpaceOnUse" x1="0" y1="0" x2="0" y2="1" gradientTransform="matrix(62.913256,0,0,60.836232,1.670562,3.094737)"><stop offset="0" style="stop-color:rgb(82.352942%,61.176473%,100%);stop-opacity:1;"/><stop offset="1" style="stop-color:rgb(66.666669%,0%,100%);stop-opacity:1;"/></linearGradient><linearGradient id="linear2" gradientUnits="userSpaceOnUse" x1="0" y1="0" x2="0" y2="1" gradientTransform="matrix(62.913256,0,0,60.836232,1.670562,3.094737)"><stop offset="0" style="stop-color:rgb(82.352942%,61.176473%,100%);stop-opacity:1;"/><stop offset="1" style="stop-color:rgb(66.666669%,0%,100%);stop-opacity:1;"/></linearGradient><linearGradient id="linear3" gradientUnits="userSpaceOnUse" x1="0" y1="0" x2="0" y2="1" gradientTransform="matrix(62.913256,0,0,60.836232,1.670562,3.094737)"><stop offset="0" style="stop-color:rgb(82.352942%,61.176473%,100%);stop-opacity:1;"/><stop offset="1" style="stop-color:rgb(66.666669%,0%,100%);stop-opacity:1;"/></linearGradient><linearGradient id="linear4" gradientUnits="userSpaceOnUse" x1="0" y1="0" x2="0" y2="1" gradientTransform="matrix(62.913256,0,0,60.836232,1.670562,3.094737)"><stop offset="0" style="stop-color:rgb(82.352942%,61.176473%,100%);stop-opacity:1;"/><stop offset="1" style="stop-color:rgb(66.666669%,0%,100%);stop-opacity:1;"/></linearGradient><linearGradient id="linear5" gradientUnits="userSpaceOnUse" x1="0" y1="0" x2="0" y2="1" gradientTransform="matrix(62.913256,0,0,60.836232,1.670562,3.094737)"><stop offset="0" style="stop-color:rgb(82.352942%,61.176473%,100%);stop-opacity:1;"/><stop offset="1" style="stop-color:rgb(66.666669%,0%,100%);stop-opacity:1;"/></linearGradient><linearGradient id="linear6" gradientUnits="userSpaceOnUse" x1="0" y1="0" x2="0" y2="1" gradientTransform="matrix(62.913256,0,0,60.836232,1.670562,3.094737)"><stop offset="0" style="stop-color:rgb(82.352942%,61.176473%,100%);stop-opacity:1;"/><stop offset="1" style="stop-color:rgb(66.666669%,0%,100%);stop-opacity:1;"/></linearGradient><filter style="color-interpolation-filters:sRGB;" inkscape:label="Diffuse Light" id="filter184" x="-0.0375" y="-0.0375" width="1.075" height="1.075"><feGaussianBlur in="SourceGraphic" stdDeviation="1" result="blur" id="feGaussianBlur174" /><feDiffuseLighting diffuseConstant="1" surfaceScale="10" lighting-color="rgb(255,255,255)" result="diffuse" id="feDiffuseLighting178"><feDistantLight elevation="8" azimuth="235" id="feDistantLight176" /></feDiffuseLighting><feComposite in="diffuse" in2="diffuse" operator="arithmetic" k1="1" result="composite1" id="feComposite180" /><feComposite in="composite1" in2="SourceGraphic" k1="1" operator="arithmetic" k3="1" result="composite2" id="feComposite182" /></filter></defs><g id="surface1" style="filter:url(#filter184)"><path style=" stroke:none;fill-rule:evenodd;fill:url(#linear0);" d="M 11.433594 59.734375 L 31.808594 63.125 L 51.804688 60.929688 L 29.371094 58.542969 Z M 11.433594 59.734375 "/><path style=" stroke:none;fill-rule:evenodd;fill:url(#linear1);" d="M 11.433594 36.25 L 11.433594 59.734375 L 29.371094 58.542969 L 29.371094 38.292969 Z M 11.433594 36.25 "/><path style=" stroke:none;fill-rule:evenodd;fill:url(#linear2);" d="M 29.371094 38.292969 L 51.804688 34.1875 L 51.804688 60.929688 L 29.371094 58.542969 Z M 29.371094 38.292969 "/><path style=" stroke:none;fill-rule:evenodd;fill:url(#linear3);" d="M 11.433594 36.25 L 31.808594 30.429688 L 51.804688 34.1875 L 29.371094 38.292969 Z M 11.433594 36.25 "/><path style=" stroke:none;fill-rule:evenodd;fill:url(#linear4);" d="M 31.808594 30.429688 L 31.808594 63.125 L 51.804688 60.929688 L 51.804688 34.1875 Z M 31.808594 30.429688 "/><path style=" stroke:none;fill-rule:evenodd;fill:url(#linear5);" d="M 11.433594 36.25 L 31.808594 30.429688 L 31.808594 63.125 L 11.433594 59.734375 Z M 11.433594 36.25 "/><path style=" stroke:none;fill-rule:nonzero;fill:url(#linear6);" d="M 46.90625 14.9375 C 46.90625 22.445312 40.578125 28.539062 32.777344 28.539062 C 24.972656 28.539062 18.644531 22.445312 18.644531 14.9375 C 18.644531 7.421875 24.972656 1.328125 32.777344 1.328125 C 40.578125 1.328125 46.90625 7.421875 46.90625 14.9375 Z M 46.90625 14.9375 "/></g></svg>
