<svg width="64" height="64" viewBox="0 0 64 64" version="1.1" xmlns:inkscape="http://www.inkscape.org/namespaces/inkscape"><defs><linearGradient id="linear0" gradientUnits="userSpaceOnUse" x1="0" y1="0" x2="0" y2="1" gradientTransform="matrix(76.147667,0,0,78.066413,-1.531027,-3.144525)"><stop offset="0" style="stop-color:rgb(81.960785%,70.980394%,59.215689%);stop-opacity:1;"/><stop offset="1" style="stop-color:rgb(65.098041%,53.725493%,41.568628%);stop-opacity:1;"/></linearGradient><linearGradient id="linear1" gradientUnits="userSpaceOnUse" x1="0" y1="0" x2="0" y2="1" gradientTransform="matrix(76.147667,0,0,78.066413,-1.531027,-3.144525)"><stop offset="0" style="stop-color:rgb(81.960785%,70.980394%,59.215689%);stop-opacity:1;"/><stop offset="1" style="stop-color:rgb(65.098041%,53.725493%,41.568628%);stop-opacity:1;"/></linearGradient><linearGradient id="linear2" gradientUnits="userSpaceOnUse" x1="0" y1="0" x2="0" y2="1" gradientTransform="matrix(76.147667,0,0,78.066413,-1.531027,-3.144525)"><stop offset="0" style="stop-color:rgb(81.960785%,70.980394%,59.215689%);stop-opacity:1;"/><stop offset="1" style="stop-color:rgb(65.098041%,53.725493%,41.568628%);stop-opacity:1;"/></linearGradient><filter style="color-interpolation-filters:sRGB;" inkscape:label="Diffuse Light" id="filter184" x="-0.0375" y="-0.0375" width="1.075" height="1.075"><feGaussianBlur in="SourceGraphic" stdDeviation="1" result="blur" id="feGaussianBlur174" /><feDiffuseLighting diffuseConstant="1" surfaceScale="10" lighting-color="rgb(255,255,255)" result="diffuse" id="feDiffuseLighting178"><feDistantLight elevation="8" azimuth="235" id="feDistantLight176" /></feDiffuseLighting><feComposite in="diffuse" in2="diffuse" operator="arithmetic" k1="1" result="composite1" id="feComposite180" /><feComposite in="composite1" in2="SourceGraphic" k1="1" operator="arithmetic" k3="1" result="composite2" id="feComposite182" /></filter></defs><g id="surface1" style="filter:url(#filter184)"><path style=" stroke:none;fill-rule:nonzero;fill:url(#linear0);" d="M 21.871094 52.5625 C 21.871094 58.15625 17.429688 62.691406 11.941406 62.691406 C 6.457031 62.691406 2.019531 58.15625 2.019531 52.5625 C 2.019531 46.964844 6.457031 42.429688 11.941406 42.429688 C 17.429688 42.429688 21.871094 46.964844 21.871094 52.5625 Z M 21.871094 52.5625 "/><path style=" stroke:none;fill-rule:nonzero;fill:url(#linear1);" d="M 61.5625 44.960938 C 61.5625 50.558594 57.121094 55.089844 51.640625 55.089844 C 46.164062 55.089844 41.71875 50.558594 41.71875 44.960938 C 41.71875 39.367188 46.164062 34.828125 51.640625 34.828125 C 57.121094 34.828125 61.5625 39.367188 61.5625 44.960938 Z M 61.5625 44.960938 "/><path style=" stroke:none;fill-rule:nonzero;fill:url(#linear2);" d="M 16.910156 1.910156 L 16.910156 52.5625 L 21.871094 52.5625 L 21.871094 19.640625 L 56.609375 19.640625 L 56.609375 44.960938 L 61.5625 44.960938 L 61.5625 1.910156 Z M 21.871094 6.96875 L 56.609375 6.96875 L 56.609375 14.570312 L 21.871094 14.570312 Z M 21.871094 6.96875 "/></g></svg>
