<svg width="64" height="64" viewBox="0 0 64 64" version="1.1" xmlns:inkscape="http://www.inkscape.org/namespaces/inkscape"><defs><linearGradient id="linear0" gradientUnits="userSpaceOnUse" x1="0" y1="0" x2="0" y2="1" gradientTransform="matrix(58.854617,0,0,66.552358,2.697445,-1.427734)"><stop offset="0" style="stop-color:rgb(0%,73.333335%,100%);stop-opacity:1;"/><stop offset="1" style="stop-color:rgb(0%,52.156866%,70.980394%);stop-opacity:1;"/></linearGradient><filter style="color-interpolation-filters:sRGB;" inkscape:label="Diffuse Light" id="filter184" x="-0.0375" y="-0.0375" width="1.075" height="1.075"><feGaussianBlur in="SourceGraphic" stdDeviation="1" result="blur" id="feGaussianBlur174" /><feDiffuseLighting diffuseConstant="1" surfaceScale="10" lighting-color="rgb(255,255,255)" result="diffuse" id="feDiffuseLighting178"><feDistantLight elevation="8" azimuth="235" id="feDistantLight176" /></feDiffuseLighting><feComposite in="diffuse" in2="diffuse" operator="arithmetic" k1="1" result="composite1" id="feComposite180" /><feComposite in="composite1" in2="SourceGraphic" k1="1" operator="arithmetic" k3="1" result="composite2" id="feComposite182" /></filter></defs><g id="surface1" style="filter:url(#filter184)"><path style=" stroke:none;fill-rule:nonzero;fill:url(#linear0);" d="M 9.941406 1.425781 L 1.058594 17.636719 L 18.859375 17.636719 L 9.941406 1.425781 M 12.183594 1.425781 L 21.0625 17.636719 L 29.945312 1.425781 L 12.183594 1.425781 M 32.183594 1.425781 L 23.300781 17.636719 L 41.066406 17.636719 L 32.183594 1.425781 M 34.414062 1.425781 L 43.304688 17.636719 L 52.1875 1.425781 L 34.425781 1.425781 M 54.425781 1.425781 L 45.507812 17.636719 L 63.308594 17.636719 L 54.425781 1.425781 M 1.058594 20.117188 L 30.464844 62.683594 L 19.957031 20.117188 Z M 22.167969 20.117188 L 32.183594 62.683594 L 42.199219 20.117188 L 22.167969 20.117188 M 44.410156 20.117188 L 33.902344 62.683594 L 63.308594 20.117188 L 44.410156 20.117188 "/></g></svg>
