<svg width="64" height="64" viewBox="0 0 64 64" version="1.1" xmlns:inkscape="http://www.inkscape.org/namespaces/inkscape"><defs><linearGradient id="linear0" gradientUnits="userSpaceOnUse" x1="0" y1="0" x2="0" y2="1" gradientTransform="matrix(73.674511,0,0,100.082845,-4.441775,-18.157019)"><stop offset="0" style="stop-color:rgb(0%,78.823531%,36.862746%);stop-opacity:1;"/><stop offset="1" style="stop-color:rgb(0%,54.11765%,25.098041%);stop-opacity:1;"/></linearGradient><filter style="color-interpolation-filters:sRGB;" inkscape:label="Diffuse Light" id="filter184" x="-0.0375" y="-0.0375" width="1.075" height="1.075"><feGaussianBlur in="SourceGraphic" stdDeviation="1" result="blur" id="feGaussianBlur174" /><feDiffuseLighting diffuseConstant="1" surfaceScale="10" lighting-color="rgb(255,255,255)" result="diffuse" id="feDiffuseLighting178"><feDistantLight elevation="8" azimuth="235" id="feDistantLight176" /></feDiffuseLighting><feComposite in="diffuse" in2="diffuse" operator="arithmetic" k1="1" result="composite1" id="feComposite180" /><feComposite in="composite1" in2="SourceGraphic" k1="1" operator="arithmetic" k3="1" result="composite2" id="feComposite182" /></filter></defs><g id="surface1" style="filter:url(#filter184)"><path style=" stroke:none;fill-rule:evenodd;fill:url(#linear0);" d="M 8.0625 1.941406 L 8.0625 26.433594 L 18.609375 26.433594 L 18.609375 1.941406 Z M 43.132812 1.941406 L 43.132812 26.433594 L 53.675781 26.433594 L 53.675781 1.941406 L 43.132812 1.941406 M 2.609375 36.519531 C 2.601562 36.527344 2.59375 36.527344 2.589844 36.527344 C 2.589844 36.527344 2.589844 36.527344 2.578125 36.527344 C 2.328125 36.570312 2.101562 36.75 1.953125 37.035156 C 1.804688 37.308594 1.75 37.664062 1.808594 38.007812 C 3.007812 45.191406 6.761719 51.039062 11.808594 55.1875 C 16.851562 59.339844 23.207031 61.828125 29.78125 62.34375 C 42.921875 63.375 57.113281 56.382812 63.085938 38.214844 C 63.238281 37.71875 63.136719 37.148438 62.828125 36.804688 C 62.515625 36.472656 62.082031 36.449219 61.753906 36.765625 C 53.585938 44.605469 44.699219 50.152344 35.015625 50.972656 C 25.332031 51.800781 14.796875 47.949219 3.191406 36.765625 C 3.050781 36.617188 2.878906 36.539062 2.691406 36.527344 C 2.667969 36.527344 2.640625 36.519531 2.609375 36.519531 "/></g></svg>
