<svg width="64" height="64" viewBox="0 0 64 64" version="1.1" xmlns:inkscape="http://www.inkscape.org/namespaces/inkscape"><defs><linearGradient id="linear0" gradientUnits="userSpaceOnUse" x1="0" y1="0" x2="0" y2="1" gradientTransform="matrix(44,0,0,64,12,0)"><stop offset="0" style="stop-color:rgb(0%,96.078432%,86.274511%);stop-opacity:1;"/><stop offset="1" style="stop-color:rgb(0%,54.901963%,49.411765%);stop-opacity:1;"/></linearGradient><filter style="color-interpolation-filters:sRGB;" inkscape:label="Diffuse Light" id="filter184" x="-0.0375" y="-0.0375" width="1.075" height="1.075"><feGaussianBlur in="SourceGraphic" stdDeviation="1" result="blur" id="feGaussianBlur174" /><feDiffuseLighting diffuseConstant="1" surfaceScale="10" lighting-color="rgb(255,255,255)" result="diffuse" id="feDiffuseLighting178"><feDistantLight elevation="8" azimuth="235" id="feDistantLight176" /></feDiffuseLighting><feComposite in="diffuse" in2="diffuse" operator="arithmetic" k1="1" result="composite1" id="feComposite180" /><feComposite in="composite1" in2="SourceGraphic" k1="1" operator="arithmetic" k3="1" result="composite2" id="feComposite182" /></filter></defs><g id="surface1" style="filter:url(#filter184)"><path style=" stroke:none;fill-rule:nonzero;fill:url(#linear0);" d="M 34.039062 0 C 28.855469 -0.0078125 23.832031 1.664062 19.859375 4.71875 C 11.679688 11.007812 9.609375 21.773438 14.945312 30.25 C 18.011719 34.449219 24 38.570312 24 44 L 24.015625 44 C 24.015625 44 24.007812 48.328125 24.007812 52 L 24.007812 56 C 24.007812 57.519531 24.007812 59.148438 24.007812 59.789062 C 23.851562 61.921875 25.660156 63.933594 27.804688 63.984375 C 31.804688 63.996094 35.796875 63.988281 39.796875 63.992188 C 41.929688 64.148438 43.941406 62.347656 43.992188 60.203125 C 44.003906 57.539062 43.996094 46.664062 44 44 C 44 38.570312 49.988281 34.449219 53.054688 30.25 C 58.390625 21.773438 56.320312 11.007812 48.140625 4.71875 C 44.1875 1.679688 39.199219 0.0078125 34.039062 0 Z M 34 3.664062 C 43.941406 3.664062 52 11.050781 52 20.164062 C 51.984375 23.179688 51.070312 26.136719 49.351562 28.710938 C 47.308594 31.796875 39.796875 37.742188 40 44 L 28 44 C 28.207031 37.671875 20.488281 31.640625 18.546875 28.585938 C 16.886719 26.039062 16.007812 23.128906 16 20.164062 C 16 11.050781 24.058594 3.664062 34 3.664062 Z M 27.976562 22.007812 C 27.464844 22.007812 26.953125 22.203125 26.5625 22.59375 C 25.78125 23.375 25.78125 24.640625 26.5625 25.421875 C 27.292969 26.152344 30.898438 28.640625 32 28.320312 L 32 40 L 36 40 L 36 28.328125 C 37.152344 28.574219 40.667969 26.144531 41.390625 25.421875 C 42.171875 24.640625 42.171875 23.375 41.390625 22.59375 C 40.609375 21.8125 39.34375 21.8125 38.5625 22.59375 C 37.835938 23.320312 35.382812 26.867188 35.65625 28 L 32.296875 28 C 32.570312 26.867188 30.117188 23.320312 29.390625 22.59375 C 29 22.203125 28.488281 22.007812 27.976562 22.007812 Z M 28 48 L 40 48 L 40 60 L 28 60 L 28 56 L 34.007812 56 L 34.007812 52 L 28 52 Z M 28 48 "/></g></svg>
