<svg width="64" height="64" viewBox="0 0 64 64" version="1.1" xmlns:inkscape="http://www.inkscape.org/namespaces/inkscape"><defs><linearGradient id="linear0" gradientUnits="userSpaceOnUse" x1="0" y1="0" x2="0" y2="1" gradientTransform="matrix(63.723181,0,0,42.108948,1.73545,9.81752)"><stop offset="0" style="stop-color:rgb(75.686276%,77.64706%,83.92157%);stop-opacity:1;"/><stop offset="1" style="stop-color:rgb(43.529412%,45.09804%,50.196081%);stop-opacity:1;"/></linearGradient><linearGradient id="linear1" gradientUnits="userSpaceOnUse" x1="0" y1="0" x2="0" y2="1" gradientTransform="matrix(63.723181,0,0,42.108948,1.73545,9.81752)"><stop offset="0" style="stop-color:rgb(75.686276%,77.64706%,83.92157%);stop-opacity:1;"/><stop offset="1" style="stop-color:rgb(43.529412%,45.09804%,50.196081%);stop-opacity:1;"/></linearGradient><filter style="color-interpolation-filters:sRGB;" inkscape:label="Diffuse Light" id="filter184" x="-0.0375" y="-0.0375" width="1.075" height="1.075"><feGaussianBlur in="SourceGraphic" stdDeviation="1" result="blur" id="feGaussianBlur174" /><feDiffuseLighting diffuseConstant="1" surfaceScale="10" lighting-color="rgb(255,255,255)" result="diffuse" id="feDiffuseLighting178"><feDistantLight elevation="8" azimuth="235" id="feDistantLight176" /></feDiffuseLighting><feComposite in="diffuse" in2="diffuse" operator="arithmetic" k1="1" result="composite1" id="feComposite180" /><feComposite in="composite1" in2="SourceGraphic" k1="1" operator="arithmetic" k3="1" result="composite2" id="feComposite182" /></filter></defs><g id="surface1" style="filter:url(#filter184)"><path style=" stroke:none;fill-rule:nonzero;fill:url(#linear0);" d="M 32.152344 1.417969 C 25.402344 1.429688 19.175781 5.335938 15.855469 11.617188 C 7.71875 12.800781 1.648438 20.226562 1.648438 29.007812 C 1.648438 38.707031 9 46.566406 18.070312 46.566406 L 49.75 46.566406 C 56.898438 46.566406 62.652344 40.410156 62.652344 32.773438 C 62.652344 25.496094 57.441406 19.578125 50.777344 19.023438 C 49.613281 8.96875 41.625 1.410156 32.152344 1.417969 Z M 32.152344 1.417969 "/><path style=" stroke:none;fill-rule:nonzero;fill:url(#linear1);" d="M 38.117188 48.960938 L 44.390625 55.902344 L 44.390625 62.839844 L 59.019531 54.910156 Z M 8.851562 52.929688 L 8.851562 58.878906 L 15.125 58.878906 L 15.125 52.929688 Z M 19.304688 52.929688 L 19.304688 58.878906 L 25.574219 58.878906 L 25.574219 52.929688 Z M 29.757812 52.929688 L 29.757812 58.878906 L 36.027344 58.878906 L 36.027344 52.929688 Z M 29.757812 52.929688 "/></g></svg>
