<svg width="64" height="64" viewBox="0 0 64 64" version="1.1" xmlns:inkscape="http://www.inkscape.org/namespaces/inkscape"><defs><linearGradient id="linear0" gradientUnits="userSpaceOnUse" x1="0" y1="0" x2="0" y2="1" gradientTransform="matrix(71.472217,0,0,42.747828,-1.189129,9.701637)"><stop offset="0" style="stop-color:rgb(100%,63.137257%,63.137257%);stop-opacity:1;"/><stop offset="1" style="stop-color:rgb(100%,27.843139%,27.843139%);stop-opacity:1;"/></linearGradient><filter style="color-interpolation-filters:sRGB;" inkscape:label="Diffuse Light" id="filter184" x="-0.0375" y="-0.0375" width="1.075" height="1.075"><feGaussianBlur in="SourceGraphic" stdDeviation="1" result="blur" id="feGaussianBlur174" /><feDiffuseLighting diffuseConstant="1" surfaceScale="10" lighting-color="rgb(255,255,255)" result="diffuse" id="feDiffuseLighting178"><feDistantLight elevation="8" azimuth="235" id="feDistantLight176" /></feDiffuseLighting><feComposite in="diffuse" in2="diffuse" operator="arithmetic" k1="1" result="composite1" id="feComposite180" /><feComposite in="composite1" in2="SourceGraphic" k1="1" operator="arithmetic" k3="1" result="composite2" id="feComposite182" /></filter></defs><g id="surface1" style="filter:url(#filter184)"><path style=" stroke:none;fill-rule:nonzero;fill:url(#linear0);" d="M 39.65625 1.949219 C 19.246094 1.949219 1.382812 16.105469 1.382812 32.632812 C 1.382812 53.878906 14.140625 63.320312 32.003906 63.320312 C 44.761719 63.320312 62.621094 55.054688 62.621094 47.976562 C 62.621094 45.617188 60.074219 44.433594 57.519531 44.433594 C 47.316406 44.433594 47.316406 51.515625 34.558594 51.515625 C 24.347656 51.515625 17.96875 49.15625 14.140625 42.070312 C 42.210938 42.070312 62.621094 34.992188 62.621094 18.46875 C 62.621094 9.027344 52.414062 1.949219 39.65625 1.949219 Z M 32.003906 11.390625 C 39.050781 11.390625 44.761719 16.675781 44.761719 23.191406 C 44.761719 29.707031 39.050781 34.992188 32.003906 34.992188 C 24.960938 34.992188 19.246094 29.707031 19.246094 23.191406 C 19.246094 16.675781 24.960938 11.390625 32.003906 11.390625 Z M 32.003906 11.390625 "/></g></svg>
