<svg width="64" height="64" viewBox="0 0 64 64" version="1.1" xmlns:inkscape="http://www.inkscape.org/namespaces/inkscape"><defs><linearGradient id="linear0" gradientUnits="userSpaceOnUse" x1="0" y1="0" x2="0" y2="1" gradientTransform="matrix(58.395512,0,0,61.946758,2.104045,4.454204)"><stop offset="0" style="stop-color:rgb(0%,73.333335%,100%);stop-opacity:1;"/><stop offset="1" style="stop-color:rgb(0%,52.156866%,70.980394%);stop-opacity:1;"/></linearGradient><filter style="color-interpolation-filters:sRGB;" inkscape:label="Diffuse Light" id="filter184" x="-0.0375" y="-0.0375" width="1.075" height="1.075"><feGaussianBlur in="SourceGraphic" stdDeviation="1" result="blur" id="feGaussianBlur174" /><feDiffuseLighting diffuseConstant="1" surfaceScale="10" lighting-color="rgb(255,255,255)" result="diffuse" id="feDiffuseLighting178"><feDistantLight elevation="8" azimuth="235" id="feDistantLight176" /></feDiffuseLighting><feComposite in="diffuse" in2="diffuse" operator="arithmetic" k1="1" result="composite1" id="feComposite180" /><feComposite in="composite1" in2="SourceGraphic" k1="1" operator="arithmetic" k3="1" result="composite2" id="feComposite182" /></filter></defs><g id="surface1" style="filter:url(#filter184)"><path style=" stroke:none;fill-rule:nonzero;fill:url(#linear0);" d="M 32.226562 11.628906 C 8.398438 11.628906 1.257812 19.179688 1.257812 50.632812 C 1.257812 55.664062 17.925781 44.347656 22.695312 36.796875 L 41.753906 36.796875 C 46.519531 44.347656 63.195312 55.59375 63.195312 50.632812 C 63.195312 19.179688 56.050781 11.628906 32.226562 11.628906 Z M 17.925781 19.179688 L 20.3125 19.179688 L 20.3125 24.214844 L 25.078125 24.214844 L 25.078125 26.730469 L 20.3125 26.730469 L 20.3125 31.757812 L 17.925781 31.757812 L 17.925781 26.730469 L 13.164062 26.730469 L 13.164062 24.214844 L 17.925781 24.214844 Z M 41.753906 19.179688 C 43.070312 19.179688 44.132812 20.304688 44.132812 21.695312 C 44.132812 23.082031 43.070312 24.214844 41.753906 24.214844 C 40.441406 24.214844 39.371094 23.082031 39.371094 21.695312 C 39.371094 20.304688 40.441406 19.179688 41.753906 19.179688 Z M 48.90625 19.179688 C 50.21875 19.179688 51.285156 20.304688 51.285156 21.695312 C 51.285156 23.082031 50.21875 24.214844 48.90625 24.214844 C 47.589844 24.214844 46.523438 23.082031 46.523438 21.695312 C 46.523438 20.304688 47.589844 19.179688 48.90625 19.179688 Z M 41.753906 26.730469 C 43.070312 26.730469 44.132812 27.855469 44.132812 29.246094 C 44.132812 30.632812 43.070312 31.757812 41.753906 31.757812 C 40.441406 31.757812 39.371094 30.632812 39.371094 29.246094 C 39.371094 27.855469 40.441406 26.730469 41.753906 26.730469 Z M 48.90625 26.730469 C 50.21875 26.730469 51.285156 27.855469 51.285156 29.246094 C 51.285156 30.632812 50.21875 31.757812 48.90625 31.757812 C 47.589844 31.757812 46.523438 30.632812 46.523438 29.246094 C 46.523438 27.855469 47.589844 26.730469 48.90625 26.730469 Z M 48.90625 26.730469 "/></g></svg>
