<svg width="64" height="64" viewBox="0 0 64 64" version="1.1" xmlns:inkscape="http://www.inkscape.org/namespaces/inkscape"><defs><linearGradient id="linear0" gradientUnits="userSpaceOnUse" x1="0" y1="0" x2="0" y2="1" gradientTransform="matrix(64.688096,0,0,41.64463,-1.969142,7.345854)"><stop offset="0" style="stop-color:rgb(75.686276%,77.64706%,83.92157%);stop-opacity:1;"/><stop offset="1" style="stop-color:rgb(43.529412%,45.09804%,50.196081%);stop-opacity:1;"/></linearGradient><linearGradient id="linear1" gradientUnits="userSpaceOnUse" x1="0" y1="0" x2="0" y2="1" gradientTransform="matrix(64.688096,0,0,41.64463,-1.969142,7.345854)"><stop offset="0" style="stop-color:rgb(75.686276%,77.64706%,83.92157%);stop-opacity:1;"/><stop offset="1" style="stop-color:rgb(43.529412%,45.09804%,50.196081%);stop-opacity:1;"/></linearGradient><filter style="color-interpolation-filters:sRGB;" inkscape:label="Diffuse Light" id="filter184" x="-0.0375" y="-0.0375" width="1.075" height="1.075"><feGaussianBlur in="SourceGraphic" stdDeviation="1" result="blur" id="feGaussianBlur174" /><feDiffuseLighting diffuseConstant="1" surfaceScale="10" lighting-color="rgb(255,255,255)" result="diffuse" id="feDiffuseLighting178"><feDistantLight elevation="8" azimuth="235" id="feDistantLight176" /></feDiffuseLighting><feComposite in="diffuse" in2="diffuse" operator="arithmetic" k1="1" result="composite1" id="feComposite180" /><feComposite in="composite1" in2="SourceGraphic" k1="1" operator="arithmetic" k3="1" result="composite2" id="feComposite182" /></filter></defs><g id="surface1" style="filter:url(#filter184)"><path style=" stroke:none;fill-rule:nonzero;fill:url(#linear0);" d="M 38.640625 2.105469 C 38.472656 2.105469 38.304688 2.121094 38.136719 2.160156 C 37.460938 2.3125 36.996094 2.769531 36.996094 3.285156 L 36.996094 13.871094 L 4.792969 13.871094 C 3.015625 13.871094 1.578125 14.925781 1.578125 16.226562 L 1.578125 27.988281 C 1.578125 29.289062 3.015625 30.34375 4.792969 30.34375 L 59.535156 30.34375 C 62.105469 30.34375 63.652344 28.242188 62.214844 26.695312 L 39.933594 2.695312 C 39.632812 2.378906 39.148438 2.195312 38.636719 2.183594 Z M 38.640625 2.105469 "/><path style=" stroke:none;fill-rule:nonzero;fill:url(#linear1);" d="M 26.257812 62.933594 C 26.421875 62.933594 26.589844 62.921875 26.75 62.878906 C 27.40625 62.714844 27.855469 62.222656 27.855469 61.664062 L 27.855469 50.253906 L 59.085938 50.253906 C 60.808594 50.253906 62.210938 49.121094 62.210938 47.722656 L 62.210938 35.042969 C 62.210938 33.648438 60.808594 32.507812 59.085938 32.507812 L 5.996094 32.507812 C 3.5 32.507812 1.996094 34.773438 3.394531 36.4375 L 25.011719 62.300781 C 25.296875 62.644531 25.773438 62.84375 26.265625 62.851562 Z M 26.257812 62.933594 "/></g></svg>
