<svg width="64" height="64" viewBox="0 0 64 64" version="1.1" xmlns:inkscape="http://www.inkscape.org/namespaces/inkscape"><defs><linearGradient id="linear0" gradientUnits="userSpaceOnUse" x1="0" y1="0" x2="0" y2="1" gradientTransform="matrix(65.220011,0,0,41.171586,1.997867,7.832861)"><stop offset="0" style="stop-color:rgb(100%,63.137257%,63.137257%);stop-opacity:1;"/><stop offset="1" style="stop-color:rgb(100%,27.843139%,27.843139%);stop-opacity:1;"/></linearGradient><filter style="color-interpolation-filters:sRGB;" inkscape:label="Diffuse Light" id="filter184" x="-0.0375" y="-0.0375" width="1.075" height="1.075"><feGaussianBlur in="SourceGraphic" stdDeviation="1" result="blur" id="feGaussianBlur174" /><feDiffuseLighting diffuseConstant="1" surfaceScale="10" lighting-color="rgb(255,255,255)" result="diffuse" id="feDiffuseLighting178"><feDistantLight elevation="8" azimuth="235" id="feDistantLight176" /></feDiffuseLighting><feComposite in="diffuse" in2="diffuse" operator="arithmetic" k1="1" result="composite1" id="feComposite180" /><feComposite in="composite1" in2="SourceGraphic" k1="1" operator="arithmetic" k3="1" result="composite2" id="feComposite182" /></filter></defs><g id="surface1" style="filter:url(#filter184)"><path style=" stroke:none;fill-rule:nonzero;fill:url(#linear0);" d="M 32.496094 1.5625 C 17.65625 1.5625 5.628906 7.253906 5.628906 14.269531 L 5.628906 49.863281 C 5.628906 56.878906 17.65625 62.574219 32.496094 62.574219 C 47.335938 62.574219 59.367188 56.878906 59.367188 49.863281 L 59.367188 14.269531 C 59.367188 7.253906 47.335938 1.5625 32.496094 1.5625 Z M 32.496094 6.644531 C 43.625 6.644531 52.652344 10.058594 52.652344 14.269531 C 52.652344 18.488281 43.625 21.898438 32.496094 21.898438 C 21.371094 21.898438 12.347656 18.488281 12.347656 14.269531 C 12.347656 10.058594 21.371094 6.644531 32.496094 6.644531 Z M 12.347656 22.636719 C 17.429688 25.390625 24.773438 26.972656 32.496094 26.984375 C 40.207031 26.984375 47.546875 25.421875 52.652344 22.6875 L 52.652344 32.066406 C 52.652344 36.28125 43.625 39.695312 32.496094 39.695312 C 21.371094 39.695312 12.347656 36.28125 12.347656 32.066406 Z M 12.347656 40.484375 C 17.4375 43.226562 24.78125 44.796875 32.496094 44.800781 C 40.207031 44.808594 47.546875 43.238281 52.652344 40.503906 L 52.652344 49.886719 C 52.652344 54.097656 43.625 57.511719 32.496094 57.511719 C 21.371094 57.511719 12.347656 54.097656 12.347656 49.886719 Z M 12.347656 40.484375 "/></g></svg>
