<svg width="64" height="64" viewBox="0 0 64 64" version="1.1" xmlns:inkscape="http://www.inkscape.org/namespaces/inkscape"><defs><linearGradient id="linear0" gradientUnits="userSpaceOnUse" x1="0" y1="0" x2="0" y2="1" gradientTransform="matrix(71.480995,0,0,45.367004,-1.282244,8.161167)"><stop offset="0" style="stop-color:rgb(41.960785%,64.313728%,100%);stop-opacity:1;"/><stop offset="1" style="stop-color:rgb(0%,43.137255%,100%);stop-opacity:1;"/></linearGradient><filter style="color-interpolation-filters:sRGB;" inkscape:label="Diffuse Light" id="filter184" x="-0.0375" y="-0.0375" width="1.075" height="1.075"><feGaussianBlur in="SourceGraphic" stdDeviation="1" result="blur" id="feGaussianBlur174" /><feDiffuseLighting diffuseConstant="1" surfaceScale="10" lighting-color="rgb(255,255,255)" result="diffuse" id="feDiffuseLighting178"><feDistantLight elevation="8" azimuth="235" id="feDistantLight176" /></feDiffuseLighting><feComposite in="diffuse" in2="diffuse" operator="arithmetic" k1="1" result="composite1" id="feComposite180" /><feComposite in="composite1" in2="SourceGraphic" k1="1" operator="arithmetic" k3="1" result="composite2" id="feComposite182" /></filter></defs><g id="surface1" style="filter:url(#filter184)"><path style=" stroke:none;fill-rule:nonzero;fill:url(#linear0);" d="M 8.613281 0.945312 L 8.613281 63.308594 L 52.035156 63.308594 L 52.035156 51.3125 C 52.035156 46.519531 49.621094 44.117188 47.207031 44.117188 L 39.972656 51.3125 L 20.675781 51.3125 L 20.675781 44.117188 L 32.738281 44.117188 L 37.558594 39.320312 L 20.675781 39.320312 L 20.675781 34.523438 L 42.386719 34.523438 L 47.207031 29.730469 L 20.675781 29.730469 L 20.675781 24.929688 L 52.035156 24.929688 L 56.855469 20.132812 L 20.675781 20.132812 L 20.675781 12.933594 C 20.675781 8.957031 23.90625 5.742188 27.910156 5.742188 C 27.917969 3.34375 25.070312 1.019531 20.675781 0.945312 Z M 8.613281 0.945312 "/></g></svg>
