<svg width="64" height="64" viewBox="0 0 64 64" version="1.1" xmlns:inkscape="http://www.inkscape.org/namespaces/inkscape"><defs><linearGradient id="linear0" gradientUnits="userSpaceOnUse" x1="0" y1="0" x2="0" y2="1" gradientTransform="matrix(64,0,0,23.46875,0,20.265625)"><stop offset="0" style="stop-color:rgb(0%,73.333335%,100%);stop-opacity:1;"/><stop offset="1" style="stop-color:rgb(0%,52.156866%,70.980394%);stop-opacity:1;"/></linearGradient><filter style="color-interpolation-filters:sRGB;" inkscape:label="Diffuse Light" id="filter184" x="-0.0375" y="-0.0375" width="1.075" height="1.075"><feGaussianBlur in="SourceGraphic" stdDeviation="1" result="blur" id="feGaussianBlur174" /><feDiffuseLighting diffuseConstant="1" surfaceScale="10" lighting-color="rgb(255,255,255)" result="diffuse" id="feDiffuseLighting178"><feDistantLight elevation="8" azimuth="235" id="feDistantLight176" /></feDiffuseLighting><feComposite in="diffuse" in2="diffuse" operator="arithmetic" k1="1" result="composite1" id="feComposite180" /><feComposite in="composite1" in2="SourceGraphic" k1="1" operator="arithmetic" k3="1" result="composite2" id="feComposite182" /></filter></defs><g id="surface1" style="filter:url(#filter184)"><path style=" stroke:none;fill-rule:nonzero;fill:url(#linear0);" d="M 23.101562 20.265625 C 15.960938 20.265625 9.570312 22.269531 5.460938 24.90625 C 1.347656 27.542969 0 30.277344 0 32 C 0 33.722656 1.347656 36.457031 5.460938 39.09375 C 9.570312 41.730469 15.960938 43.734375 23.101562 43.734375 C 32.570312 43.734375 40.894531 39.558594 44.28125 35.921875 C 46.78125 33.230469 50.804688 32.644531 53.96875 34.5 L 58.847656 37.359375 C 58.847656 37.359375 58.847656 37.359375 58.851562 37.363281 L 64 40.382812 C 63.203125 37.832031 62.589844 35.105469 62.589844 32 C 62.589844 28.894531 63.203125 26.164062 64 23.613281 L 58.851562 26.632812 L 53.972656 29.496094 C 50.808594 31.355469 46.78125 30.769531 44.28125 28.078125 C 40.894531 24.441406 32.570312 20.265625 23.101562 20.265625 Z M 23.101562 20.265625 "/></g></svg>
