<svg width="64" height="64" viewBox="0 0 64 64" version="1.1" xmlns:inkscape="http://www.inkscape.org/namespaces/inkscape"><defs><linearGradient id="linear0" gradientUnits="userSpaceOnUse" x1="0" y1="0" x2="0" y2="1" gradientTransform="matrix(64,0,0,52.359375,0,5.820312)"><stop offset="0" style="stop-color:rgb(41.960785%,64.313728%,100%);stop-opacity:1;"/><stop offset="1" style="stop-color:rgb(0%,43.137255%,100%);stop-opacity:1;"/></linearGradient><filter style="color-interpolation-filters:sRGB;" inkscape:label="Diffuse Light" id="filter184" x="-0.0375" y="-0.0375" width="1.075" height="1.075"><feGaussianBlur in="SourceGraphic" stdDeviation="1" result="blur" id="feGaussianBlur174" /><feDiffuseLighting diffuseConstant="1" surfaceScale="10" lighting-color="rgb(255,255,255)" result="diffuse" id="feDiffuseLighting178"><feDistantLight elevation="8" azimuth="235" id="feDistantLight176" /></feDiffuseLighting><feComposite in="diffuse" in2="diffuse" operator="arithmetic" k1="1" result="composite1" id="feComposite180" /><feComposite in="composite1" in2="SourceGraphic" k1="1" operator="arithmetic" k3="1" result="composite2" id="feComposite182" /></filter></defs><g id="surface1" style="filter:url(#filter184)"><path style=" stroke:none;fill-rule:nonzero;fill:url(#linear0);" d="M 0 5.820312 L 0 58.179688 L 2.90625 58.179688 L 2.90625 5.820312 Z M 61.09375 5.820312 L 61.09375 58.179688 L 64 58.179688 L 64 5.820312 Z M 5.820312 11.636719 L 5.820312 52.363281 L 8.726562 52.363281 L 8.726562 11.636719 Z M 11.636719 11.636719 L 11.636719 52.363281 L 52.363281 52.363281 L 52.363281 11.636719 Z M 55.273438 11.636719 L 55.273438 52.363281 L 58.179688 52.363281 L 58.179688 11.636719 Z M 14.542969 14.542969 L 49.457031 14.542969 L 49.457031 49.457031 L 14.542969 49.457031 Z M 14.542969 14.542969 "/></g></svg>
