<svg width="64" height="64" viewBox="0 0 64 64" version="1.1" xmlns:inkscape="http://www.inkscape.org/namespaces/inkscape"><defs><linearGradient id="linear0" gradientUnits="userSpaceOnUse" x1="0" y1="0" x2="0" y2="1" gradientTransform="matrix(72.231566,0,0,41.337264,-4.686368,12.149438)"><stop offset="0" style="stop-color:rgb(100%,73.333335%,0%);stop-opacity:1;"/><stop offset="1" style="stop-color:rgb(70.19608%,51.372552%,0%);stop-opacity:1;"/></linearGradient><filter style="color-interpolation-filters:sRGB;" inkscape:label="Diffuse Light" id="filter184" x="-0.0375" y="-0.0375" width="1.075" height="1.075"><feGaussianBlur in="SourceGraphic" stdDeviation="1" result="blur" id="feGaussianBlur174" /><feDiffuseLighting diffuseConstant="1" surfaceScale="10" lighting-color="rgb(255,255,255)" result="diffuse" id="feDiffuseLighting178"><feDistantLight elevation="8" azimuth="235" id="feDistantLight176" /></feDiffuseLighting><feComposite in="diffuse" in2="diffuse" operator="arithmetic" k1="1" result="composite1" id="feComposite180" /><feComposite in="composite1" in2="SourceGraphic" k1="1" operator="arithmetic" k3="1" result="composite2" id="feComposite182" /></filter></defs><g id="surface1" style="filter:url(#filter184)"><path style=" stroke:none;fill-rule:nonzero;fill:url(#linear0);" d="M 22.066406 1.941406 C 18.863281 1.941406 16.261719 4.546875 16.261719 7.753906 C 16.261719 10.519531 18.203125 12.902344 20.902344 13.453125 L 20.902344 42.160156 L 11.347656 51.746094 C 10.394531 51.117188 9.285156 50.777344 8.148438 50.777344 C 4.941406 50.777344 2.347656 53.378906 2.347656 56.589844 C 2.347656 59.800781 4.941406 62.40625 8.148438 62.40625 C 11.351562 62.40625 13.945312 59.800781 13.945312 56.589844 C 13.941406 55.453125 13.609375 54.339844 12.980469 53.390625 L 22.546875 43.808594 L 51.195312 43.808594 C 51.746094 46.503906 54.117188 48.449219 56.867188 48.453125 C 60.074219 48.453125 62.667969 45.847656 62.667969 42.636719 C 62.667969 39.425781 60.074219 36.824219 56.867188 36.824219 C 54.113281 36.824219 51.734375 38.773438 51.183594 41.480469 L 23.226562 41.480469 L 23.226562 29.855469 L 37.273438 29.855469 C 37.847656 32.558594 40.328125 34.496094 43.203125 34.5 C 46.550781 34.5 49.265625 31.894531 49.265625 28.683594 C 49.265625 25.476562 46.550781 22.871094 43.203125 22.871094 C 40.324219 22.871094 37.84375 24.820312 37.269531 27.527344 L 23.226562 27.527344 L 23.226562 13.445312 C 25.921875 12.890625 27.863281 10.515625 27.867188 7.757812 C 27.867188 4.546875 25.265625 1.941406 22.066406 1.941406 Z M 22.066406 1.941406 "/></g></svg>
