<svg width="64" height="64" viewBox="0 0 64 64" version="1.1" xmlns:inkscape="http://www.inkscape.org/namespaces/inkscape"><defs><linearGradient id="linear0" gradientUnits="userSpaceOnUse" x1="0" y1="0" x2="0" y2="1" gradientTransform="matrix(70.657979,0,0,44.716647,-2.109537,7.609797)"><stop offset="0" style="stop-color:rgb(100%,63.137257%,63.137257%);stop-opacity:1;"/><stop offset="1" style="stop-color:rgb(100%,27.843139%,27.843139%);stop-opacity:1;"/></linearGradient><filter style="color-interpolation-filters:sRGB;" inkscape:label="Diffuse Light" id="filter184" x="-0.0375" y="-0.0375" width="1.075" height="1.075"><feGaussianBlur in="SourceGraphic" stdDeviation="1" result="blur" id="feGaussianBlur174" /><feDiffuseLighting diffuseConstant="1" surfaceScale="10" lighting-color="rgb(255,255,255)" result="diffuse" id="feDiffuseLighting178"><feDistantLight elevation="8" azimuth="235" id="feDistantLight176" /></feDiffuseLighting><feComposite in="diffuse" in2="diffuse" operator="arithmetic" k1="1" result="composite1" id="feComposite180" /><feComposite in="composite1" in2="SourceGraphic" k1="1" operator="arithmetic" k3="1" result="composite2" id="feComposite182" /></filter></defs><g id="surface1" style="filter:url(#filter184)"><path style=" stroke:none;fill-rule:nonzero;fill:url(#linear0);" d="M 26.402344 1.910156 L 26.402344 11.644531 L 36.195312 11.644531 L 36.195312 1.910156 Z M 53.324219 23.804688 L 53.324219 28.667969 L 58.21875 28.667969 L 58.21875 23.804688 Z M 58.21875 28.667969 L 58.21875 33.535156 L 63.113281 33.535156 L 63.113281 28.667969 Z M 58.21875 33.535156 L 53.324219 33.535156 L 53.324219 38.394531 L 58.21875 38.394531 Z M 53.324219 33.535156 L 53.324219 28.667969 L 48.429688 28.667969 L 48.429688 33.535156 Z M 6.828125 26.234375 L 1.933594 35.96875 L 11.71875 35.96875 Z M 26.402344 48.128906 L 26.402344 62.71875 L 31.300781 62.71875 L 31.300781 48.128906 Z M 33.746094 52.992188 L 33.746094 57.859375 L 38.640625 57.859375 L 38.640625 52.992188 Z M 33.746094 52.992188 "/></g></svg>
