<svg width="64" height="64" viewBox="0 0 64 64" version="1.1" xmlns:inkscape="http://www.inkscape.org/namespaces/inkscape"><defs><linearGradient id="linear0" gradientUnits="userSpaceOnUse" x1="0" y1="0" x2="0" y2="1" gradientTransform="matrix(67.631858,0,0,68.143155,-8.600221,-0.579895)"><stop offset="0" style="stop-color:rgb(0%,78.823531%,36.862746%);stop-opacity:1;"/><stop offset="1" style="stop-color:rgb(0%,54.11765%,25.098041%);stop-opacity:1;"/></linearGradient><filter style="color-interpolation-filters:sRGB;" inkscape:label="Diffuse Light" id="filter184" x="-0.0375" y="-0.0375" width="1.075" height="1.075"><feGaussianBlur in="SourceGraphic" stdDeviation="1" result="blur" id="feGaussianBlur174" /><feDiffuseLighting diffuseConstant="1" surfaceScale="10" lighting-color="rgb(255,255,255)" result="diffuse" id="feDiffuseLighting178"><feDistantLight elevation="8" azimuth="235" id="feDistantLight176" /></feDiffuseLighting><feComposite in="diffuse" in2="diffuse" operator="arithmetic" k1="1" result="composite1" id="feComposite180" /><feComposite in="composite1" in2="SourceGraphic" k1="1" operator="arithmetic" k3="1" result="composite2" id="feComposite182" /></filter></defs><g id="surface1" style="filter:url(#filter184)"><path style=" stroke:none;fill-rule:nonzero;fill:url(#linear0);" d="M 32.015625 1.964844 C 15.34375 1.964844 1.824219 15.515625 1.816406 32.238281 L 1.816406 57.855469 C 1.816406 60.457031 3.902344 62.5625 6.503906 62.5625 L 32.035156 62.5625 C 48.707031 62.558594 62.222656 48.988281 62.222656 32.253906 C 62.222656 15.519531 48.695312 1.964844 32.015625 1.964844 M 41.117188 8.589844 C 42.328125 8.589844 43.203125 8.738281 44.320312 9.03125 C 45.957031 9.464844 47.289062 10.8125 47.289062 12.378906 C 47.289062 14.269531 45.925781 15.644531 43.871094 15.644531 C 42.898438 15.644531 42.550781 15.457031 41.117188 15.457031 C 36.902344 15.457031 33.480469 18.886719 33.472656 23.121094 L 33.472656 29.746094 C 33.472656 30.34375 33.957031 30.824219 34.558594 30.824219 L 39.578125 30.824219 C 41.445312 30.824219 42.960938 32.332031 42.960938 34.210938 C 42.960938 36.097656 41.445312 37.597656 39.578125 37.597656 L 33.472656 37.597656 L 33.472656 45.328125 C 33.472656 53.351562 27 59.859375 19 59.859375 C 17.785156 59.859375 16.921875 59.714844 15.796875 59.421875 C 14.15625 58.992188 12.824219 57.644531 12.824219 56.074219 C 12.824219 54.183594 14.195312 52.8125 16.242188 52.8125 C 17.21875 52.8125 17.570312 52.988281 19 52.988281 C 23.21875 52.988281 26.636719 49.5625 26.640625 45.339844 L 26.640625 38.675781 C 26.640625 38.078125 26.15625 37.597656 25.554688 37.597656 L 20.535156 37.597656 C 18.671875 37.597656 17.15625 36.089844 17.15625 34.210938 C 17.15625 32.316406 18.675781 30.824219 20.574219 30.824219 L 26.640625 30.824219 L 26.640625 23.125 C 26.640625 15.101562 33.117188 8.589844 41.117188 8.589844 "/></g></svg>
