<svg width="64" height="64" viewBox="0 0 64 64" version="1.1" xmlns:inkscape="http://www.inkscape.org/namespaces/inkscape"><defs><linearGradient id="linear0" gradientUnits="userSpaceOnUse" x1="0" y1="0" x2="0" y2="1" gradientTransform="matrix(100.364845,0,0,63.211941,-20.206016,-0.695645)"><stop offset="0" style="stop-color:rgb(100%,73.333335%,0%);stop-opacity:1;"/><stop offset="1" style="stop-color:rgb(70.19608%,51.372552%,0%);stop-opacity:1;"/></linearGradient><filter style="color-interpolation-filters:sRGB;" inkscape:label="Diffuse Light" id="filter184" x="-0.0375" y="-0.0375" width="1.075" height="1.075"><feGaussianBlur in="SourceGraphic" stdDeviation="1" result="blur" id="feGaussianBlur174" /><feDiffuseLighting diffuseConstant="1" surfaceScale="10" lighting-color="rgb(255,255,255)" result="diffuse" id="feDiffuseLighting178"><feDistantLight elevation="8" azimuth="235" id="feDistantLight176" /></feDiffuseLighting><feComposite in="diffuse" in2="diffuse" operator="arithmetic" k1="1" result="composite1" id="feComposite180" /><feComposite in="composite1" in2="SourceGraphic" k1="1" operator="arithmetic" k3="1" result="composite2" id="feComposite182" /></filter></defs><g id="surface1" style="filter:url(#filter184)"><path style=" stroke:none;fill-rule:nonzero;fill:url(#linear0);" d="M 44.3125 14.476562 C 39.664062 14.476562 35.183594 16.15625 31.699219 19.175781 L 6.222656 19.175781 C 3.503906 19.175781 1.300781 21.34375 1.300781 24.011719 L 1.300781 42.515625 C 1.300781 45.183594 3.503906 47.371094 6.222656 47.371094 L 31.722656 47.371094 C 35.199219 50.375 39.675781 52.039062 44.3125 52.039062 C 54.875 52.046875 63.433594 43.628906 63.433594 33.253906 C 63.433594 22.882812 54.875 14.472656 44.3125 14.476562 Z M 44.3125 14.476562 "/><path style=" stroke:none;fill-rule:nonzero;fill:rgb(90.196079%,90.196079%,90.196079%);fill-opacity:1;" d="M 60.222656 33.992188 C 60.222656 41.769531 53.796875 48.078125 45.882812 48.078125 C 37.957031 48.078125 31.546875 41.769531 31.546875 33.992188 C 31.546875 26.210938 37.957031 19.90625 45.882812 19.90625 C 53.796875 19.90625 60.222656 26.210938 60.222656 33.992188 Z M 60.222656 33.992188 "/></g></svg>
