<svg width="64" height="64" viewBox="0 0 64 64" version="1.1" xmlns:inkscape="http://www.inkscape.org/namespaces/inkscape"><defs><linearGradient id="linear0" gradientUnits="userSpaceOnUse" x1="0" y1="0" x2="0" y2="1" gradientTransform="matrix(97.048713,0,0,112.859833,-15.777242,-30.411288)"><stop offset="0" style="stop-color:rgb(100%,56.862748%,82.745099%);stop-opacity:1;"/><stop offset="1" style="stop-color:rgb(100%,0%,60.000002%);stop-opacity:1;"/></linearGradient><filter style="color-interpolation-filters:sRGB;" inkscape:label="Diffuse Light" id="filter184" x="-0.0375" y="-0.0375" width="1.075" height="1.075"><feGaussianBlur in="SourceGraphic" stdDeviation="1" result="blur" id="feGaussianBlur174" /><feDiffuseLighting diffuseConstant="1" surfaceScale="10" lighting-color="rgb(255,255,255)" result="diffuse" id="feDiffuseLighting178"><feDistantLight elevation="8" azimuth="235" id="feDistantLight176" /></feDiffuseLighting><feComposite in="diffuse" in2="diffuse" operator="arithmetic" k1="1" result="composite1" id="feComposite180" /><feComposite in="composite1" in2="SourceGraphic" k1="1" operator="arithmetic" k3="1" result="composite2" id="feComposite182" /></filter></defs><g id="surface1" style="filter:url(#filter184)"><path style=" stroke:none;fill-rule:evenodd;fill:url(#linear0);" d="M 24.730469 8.542969 C 17.226562 8.542969 15.816406 21.5 8.015625 21.5 C 3.566406 21.5 3.566406 16.3125 1.335938 16.3125 C 1.335938 24.082031 9.136719 29.273438 15.816406 29.273438 C 26.960938 29.273438 25.847656 21.5 32.527344 21.5 C 39.214844 21.5 38.101562 29.273438 49.242188 29.273438 C 55.925781 29.273438 63.726562 24.082031 63.726562 16.3125 C 61.496094 16.3125 61.496094 21.5 57.042969 21.5 C 49.242188 21.5 47.835938 8.542969 40.328125 8.542969 C 36.984375 8.542969 36.984375 11.132812 32.527344 11.132812 C 28.078125 11.132812 28.078125 8.542969 24.730469 8.542969 Z M 32.527344 34.449219 C 30.179688 34.449219 25.847656 34.449219 25.847656 37.039062 C 25.847656 43.519531 30.304688 55.175781 32.527344 55.175781 C 34.757812 55.175781 39.214844 43.519531 39.214844 37.039062 C 39.214844 34.449219 34.882812 34.449219 32.527344 34.449219 Z M 32.527344 34.449219 "/></g></svg>
