<svg width="64" height="64" viewBox="0 0 64 64" version="1.1" xmlns:inkscape="http://www.inkscape.org/namespaces/inkscape"><defs><linearGradient id="linear0" gradientUnits="userSpaceOnUse" x1="0" y1="0" x2="0" y2="1" gradientTransform="matrix(21.332031,0,0,21.332031,12,42.667969)"><stop offset="0" style="stop-color:rgb(0%,96.078432%,86.274511%);stop-opacity:1;"/><stop offset="1" style="stop-color:rgb(0%,54.901963%,49.411765%);stop-opacity:1;"/></linearGradient><linearGradient id="linear1" gradientUnits="userSpaceOnUse" x1="0" y1="0" x2="0" y2="1" gradientTransform="matrix(21.332031,0,0,21.335938,12,21.332031)"><stop offset="0" style="stop-color:rgb(0%,96.078432%,86.274511%);stop-opacity:1;"/><stop offset="1" style="stop-color:rgb(0%,54.901963%,49.411765%);stop-opacity:1;"/></linearGradient><linearGradient id="linear2" gradientUnits="userSpaceOnUse" x1="0" y1="0" x2="0" y2="1" gradientTransform="matrix(21.332031,0,0,21.332031,12,0)"><stop offset="0" style="stop-color:rgb(0%,96.078432%,86.274511%);stop-opacity:1;"/><stop offset="1" style="stop-color:rgb(0%,54.901963%,49.411765%);stop-opacity:1;"/></linearGradient><linearGradient id="linear3" gradientUnits="userSpaceOnUse" x1="0" y1="0" x2="0" y2="1" gradientTransform="matrix(21.335938,0,0,21.332031,33.332031,0)"><stop offset="0" style="stop-color:rgb(0%,96.078432%,86.274511%);stop-opacity:1;"/><stop offset="1" style="stop-color:rgb(0%,54.901963%,49.411765%);stop-opacity:1;"/></linearGradient><linearGradient id="linear4" gradientUnits="userSpaceOnUse" x1="0" y1="0" x2="0" y2="1" gradientTransform="matrix(21.335938,0,0,21.335938,33.332031,21.332031)"><stop offset="0" style="stop-color:rgb(0%,96.078432%,86.274511%);stop-opacity:1;"/><stop offset="1" style="stop-color:rgb(0%,54.901963%,49.411765%);stop-opacity:1;"/></linearGradient><filter style="color-interpolation-filters:sRGB;" inkscape:label="Diffuse Light" id="filter184" x="-0.0375" y="-0.0375" width="1.075" height="1.075"><feGaussianBlur in="SourceGraphic" stdDeviation="1" result="blur" id="feGaussianBlur174" /><feDiffuseLighting diffuseConstant="1" surfaceScale="10" lighting-color="rgb(255,255,255)" result="diffuse" id="feDiffuseLighting178"><feDistantLight elevation="8" azimuth="235" id="feDistantLight176" /></feDiffuseLighting><feComposite in="diffuse" in2="diffuse" operator="arithmetic" k1="1" result="composite1" id="feComposite180" /><feComposite in="composite1" in2="SourceGraphic" k1="1" operator="arithmetic" k3="1" result="composite2" id="feComposite182" /></filter></defs><g id="surface1" style="filter:url(#filter184)"><path style=" stroke:none;fill-rule:nonzero;fill:url(#linear0);" d="M 22.667969 64 C 28.554688 64 33.332031 59.222656 33.332031 53.332031 L 33.332031 42.667969 L 22.667969 42.667969 C 16.777344 42.667969 12 47.445312 12 53.332031 C 12 59.222656 16.777344 64 22.667969 64 Z M 22.667969 64 "/><path style=" stroke:none;fill-rule:nonzero;fill:url(#linear1);" d="M 12 32 C 12 26.113281 16.777344 21.332031 22.667969 21.332031 L 33.332031 21.332031 L 33.332031 42.667969 L 22.667969 42.667969 C 16.777344 42.667969 12 37.886719 12 32 Z M 12 32 "/><path style=" stroke:none;fill-rule:nonzero;fill:url(#linear2);" d="M 12 10.667969 C 12 4.777344 16.777344 0 22.667969 0 L 33.332031 0 L 33.332031 21.332031 L 22.667969 21.332031 C 16.777344 21.332031 12 16.554688 12 10.667969 Z M 12 10.667969 "/><path style=" stroke:none;fill-rule:nonzero;fill:url(#linear3);" d="M 33.332031 0 L 44 0 C 49.886719 0 54.667969 4.777344 54.667969 10.667969 C 54.667969 16.554688 49.886719 21.332031 44 21.332031 L 33.332031 21.332031 Z M 33.332031 0 "/><path style=" stroke:none;fill-rule:nonzero;fill:url(#linear4);" d="M 54.667969 32 C 54.667969 37.886719 49.886719 42.667969 44 42.667969 C 38.113281 42.667969 33.332031 37.886719 33.332031 32 C 33.332031 26.113281 38.113281 21.332031 44 21.332031 C 49.886719 21.332031 54.667969 26.113281 54.667969 32 Z M 54.667969 32 "/></g></svg>
