<svg width="64" height="64" viewBox="0 0 64 64" version="1.1" xmlns:inkscape="http://www.inkscape.org/namespaces/inkscape"><defs><linearGradient id="linear0" gradientUnits="userSpaceOnUse" x1="0" y1="0" x2="0" y2="1" gradientTransform="matrix(80.880074,0,0,48.171068,-10.556419,7.67507)"><stop offset="0" style="stop-color:rgb(87.058824%,86.666667%,56.470591%);stop-opacity:1;"/><stop offset="1" style="stop-color:rgb(67.843139%,67.450982%,38.039216%);stop-opacity:1;"/></linearGradient><filter style="color-interpolation-filters:sRGB;" inkscape:label="Diffuse Light" id="filter184" x="-0.0375" y="-0.0375" width="1.075" height="1.075"><feGaussianBlur in="SourceGraphic" stdDeviation="1" result="blur" id="feGaussianBlur174" /><feDiffuseLighting diffuseConstant="1" surfaceScale="10" lighting-color="rgb(255,255,255)" result="diffuse" id="feDiffuseLighting178"><feDistantLight elevation="8" azimuth="235" id="feDistantLight176" /></feDiffuseLighting><feComposite in="diffuse" in2="diffuse" operator="arithmetic" k1="1" result="composite1" id="feComposite180" /><feComposite in="composite1" in2="SourceGraphic" k1="1" operator="arithmetic" k3="1" result="composite2" id="feComposite182" /></filter></defs><g id="surface1" style="filter:url(#filter184)"><path style=" stroke:none;fill-rule:nonzero;fill:url(#linear0);" d="M 24.105469 12.078125 L 24.105469 15.65625 L 18.328125 15.65625 L 18.328125 19.242188 L 14.476562 19.242188 L 14.476562 22.8125 L 4.851562 22.8125 L 4.851562 26.394531 L 0.996094 26.394531 L 0.996094 37.128906 L 4.851562 37.128906 L 4.851562 40.707031 L 8.699219 40.707031 L 8.699219 46.074219 L 12.554688 46.074219 L 12.554688 49.652344 L 20.253906 49.652344 L 20.253906 53.230469 L 37.582031 53.230469 L 37.582031 49.652344 L 54.917969 49.652344 L 54.917969 46.074219 L 58.765625 46.074219 L 58.765625 38.917969 L 62.621094 38.917969 L 62.621094 35.34375 L 58.765625 35.34375 L 58.765625 31.757812 L 54.917969 31.757812 L 54.917969 22.8125 L 51.070312 22.8125 L 51.070312 19.242188 L 47.214844 19.242188 L 47.214844 15.65625 L 43.359375 15.65625 L 43.359375 12.078125 Z M 24.105469 12.078125 "/><path style=" stroke:none;fill-rule:nonzero;fill:rgb(86.274511%,86.274511%,86.274511%);fill-opacity:1;" d="M 35.664062 13.871094 L 35.664062 17.445312 L 31.808594 17.445312 L 31.808594 26.394531 L 35.664062 26.394531 L 35.664062 29.972656 L 49.140625 29.972656 L 49.140625 21.027344 L 45.289062 21.027344 L 45.289062 28.179688 L 41.4375 28.179688 L 41.4375 21.027344 L 45.289062 21.027344 L 45.289062 17.445312 L 41.4375 17.445312 L 41.4375 13.871094 Z M 35.664062 13.871094 "/><path style=" stroke:none;fill-rule:nonzero;fill:rgb(86.274511%,86.274511%,86.274511%);fill-opacity:1;" d="M 2.921875 24.605469 L 2.921875 35.34375 L 6.773438 35.34375 L 6.773438 38.917969 L 16.40625 38.917969 L 16.40625 35.34375 L 20.253906 35.34375 L 20.253906 28.179688 L 16.40625 28.179688 L 16.40625 24.605469 Z M 2.921875 24.605469 "/></g></svg>
