<svg width="64" height="64" viewBox="0 0 64 64" version="1.1" xmlns:inkscape="http://www.inkscape.org/namespaces/inkscape"><defs><linearGradient id="linear0" gradientUnits="userSpaceOnUse" x1="0" y1="0" x2="0" y2="1" gradientTransform="matrix(28.797223,0,0,31.885038,1.309041,15.276259)"><stop offset="0" style="stop-color:rgb(100%,56.862748%,82.745099%);stop-opacity:1;"/><stop offset="1" style="stop-color:rgb(100%,0%,60.000002%);stop-opacity:1;"/></linearGradient><linearGradient id="linear1" gradientUnits="userSpaceOnUse" x1="0" y1="0" x2="0" y2="1" gradientTransform="matrix(28.797223,0,0,31.885038,34.424983,15.276259)"><stop offset="0" style="stop-color:rgb(100%,56.862748%,82.745099%);stop-opacity:1;"/><stop offset="1" style="stop-color:rgb(100%,0%,60.000002%);stop-opacity:1;"/></linearGradient><filter style="color-interpolation-filters:sRGB;" inkscape:label="Diffuse Light" id="filter184" x="-0.0375" y="-0.0375" width="1.075" height="1.075"><feGaussianBlur in="SourceGraphic" stdDeviation="1" result="blur" id="feGaussianBlur174" /><feDiffuseLighting diffuseConstant="1" surfaceScale="10" lighting-color="rgb(255,255,255)" result="diffuse" id="feDiffuseLighting178"><feDistantLight elevation="8" azimuth="235" id="feDistantLight176" /></feDiffuseLighting><feComposite in="diffuse" in2="diffuse" operator="arithmetic" k1="1" result="composite1" id="feComposite180" /><feComposite in="composite1" in2="SourceGraphic" k1="1" operator="arithmetic" k3="1" result="composite2" id="feComposite182" /></filter></defs><g id="surface1" style="filter:url(#filter184)"><path style=" stroke:none;fill-rule:nonzero;fill:url(#linear0);" d="M 30.105469 31.21875 C 30.105469 40.023438 23.660156 47.160156 15.707031 47.160156 C 7.757812 47.160156 1.308594 40.023438 1.308594 31.21875 C 1.308594 22.414062 7.757812 15.277344 15.707031 15.277344 C 23.660156 15.277344 30.105469 22.414062 30.105469 31.21875 Z M 30.105469 31.21875 "/><path style=" stroke:none;fill-rule:nonzero;fill:url(#linear1);" d="M 63.222656 31.21875 C 63.222656 40.023438 56.773438 47.160156 48.824219 47.160156 C 40.871094 47.160156 34.425781 40.023438 34.425781 31.21875 C 34.425781 22.414062 40.871094 15.277344 48.824219 15.277344 C 56.773438 15.277344 63.222656 22.414062 63.222656 31.21875 Z M 63.222656 31.21875 "/></g></svg>
