<svg width="64" height="64" viewBox="0 0 64 64" version="1.1" xmlns:inkscape="http://www.inkscape.org/namespaces/inkscape"><defs><linearGradient id="linear0" gradientUnits="userSpaceOnUse" x1="0" y1="0" x2="0" y2="1" gradientTransform="matrix(65.095205,0,0,66.672841,-0.537894,-1.772573)"><stop offset="0" style="stop-color:rgb(87.058824%,86.666667%,56.470591%);stop-opacity:1;"/><stop offset="1" style="stop-color:rgb(67.843139%,67.450982%,38.039216%);stop-opacity:1;"/></linearGradient><filter style="color-interpolation-filters:sRGB;" inkscape:label="Diffuse Light" id="filter184" x="-0.0375" y="-0.0375" width="1.075" height="1.075"><feGaussianBlur in="SourceGraphic" stdDeviation="1" result="blur" id="feGaussianBlur174" /><feDiffuseLighting diffuseConstant="1" surfaceScale="10" lighting-color="rgb(255,255,255)" result="diffuse" id="feDiffuseLighting178"><feDistantLight elevation="8" azimuth="235" id="feDistantLight176" /></feDiffuseLighting><feComposite in="diffuse" in2="diffuse" operator="arithmetic" k1="1" result="composite1" id="feComposite180" /><feComposite in="composite1" in2="SourceGraphic" k1="1" operator="arithmetic" k3="1" result="composite2" id="feComposite182" /></filter></defs><g id="surface1" style="filter:url(#filter184)"><path style=" stroke:none;fill-rule:evenodd;fill:url(#linear0);" d="M 62.246094 22.546875 C 56.597656 -1.578125 34.875 -1.378906 21.753906 4.917969 C 7.957031 11.960938 -2.042969 30.003906 3.414062 45.117188 C 11.835938 67.910156 43.066406 67.664062 54.570312 45.886719 C 57.796875 38.320312 56.492188 32.316406 51.859375 25.886719 L 50.867188 33.808594 L 46.761719 26.863281 C 46.761719 26.863281 44.488281 35.132812 41.640625 38.039062 C 37.683594 42.097656 31.625 39.097656 31.996094 40.503906 C 33.054688 44.542969 42.136719 47.449219 42.136719 47.449219 C 20.589844 57.234375 19.324219 39.84375 19.5625 35.835938 C 20.242188 24.308594 30.246094 15.785156 42.339844 16.425781 C 46.195312 16.726562 52.914062 21.3125 52.914062 21.3125 C 50.132812 14.90625 45.429688 12.113281 43.109375 10.910156 C 52.210938 7.871094 58.113281 17.015625 62.246094 22.546875 Z M 62.246094 22.546875 "/></g></svg>
