<svg width="64" height="64" viewBox="0 0 64 64" version="1.1" xmlns:inkscape="http://www.inkscape.org/namespaces/inkscape"><defs><linearGradient id="linear0" gradientUnits="userSpaceOnUse" x1="0" y1="0" x2="0" y2="1" gradientTransform="matrix(73.619391,0,0,70.944341,-8.481332,-0.682255)"><stop offset="0" style="stop-color:rgb(100%,63.137257%,63.137257%);stop-opacity:1;"/><stop offset="1" style="stop-color:rgb(100%,27.843139%,27.843139%);stop-opacity:1;"/></linearGradient><filter style="color-interpolation-filters:sRGB;" inkscape:label="Diffuse Light" id="filter184" x="-0.0375" y="-0.0375" width="1.075" height="1.075"><feGaussianBlur in="SourceGraphic" stdDeviation="1" result="blur" id="feGaussianBlur174" /><feDiffuseLighting diffuseConstant="1" surfaceScale="10" lighting-color="rgb(255,255,255)" result="diffuse" id="feDiffuseLighting178"><feDistantLight elevation="8" azimuth="235" id="feDistantLight176" /></feDiffuseLighting><feComposite in="diffuse" in2="diffuse" operator="arithmetic" k1="1" result="composite1" id="feComposite180" /><feComposite in="composite1" in2="SourceGraphic" k1="1" operator="arithmetic" k3="1" result="composite2" id="feComposite182" /></filter></defs><g id="surface1" style="filter:url(#filter184)"><path style=" stroke:none;fill-rule:nonzero;fill:url(#linear0);" d="M 21.355469 8.894531 L 21.355469 31.453125 L 31.996094 31.453125 C 35.933594 31.453125 38.980469 30.476562 41.144531 28.519531 C 43.289062 26.558594 44.367188 23.773438 44.367188 20.15625 C 44.367188 16.558594 43.289062 13.789062 41.144531 11.832031 C 38.980469 9.878906 35.933594 8.894531 31.996094 8.894531 Z M 12.882812 2.21875 L 31.996094 2.21875 C 39.011719 2.21875 44.304688 3.742188 47.882812 6.800781 C 51.492188 9.832031 53.289062 14.28125 53.289062 20.15625 C 53.289062 26.082031 51.492188 30.558594 47.882812 33.59375 C 44.304688 36.621094 39.011719 38.136719 31.996094 38.136719 L 21.355469 38.136719 L 21.355469 62.265625 L 12.882812 62.265625 Z M 12.882812 2.21875 "/></g></svg>
