<svg width="64" height="64" viewBox="0 0 64 64" version="1.1" xmlns:inkscape="http://www.inkscape.org/namespaces/inkscape"><defs><linearGradient id="linear0" gradientUnits="userSpaceOnUse" x1="0" y1="0" x2="0" y2="1" gradientTransform="matrix(69.889692,0,0,66.172543,-4.172033,-0.811436)"><stop offset="0" style="stop-color:rgb(0%,73.333335%,100%);stop-opacity:1;"/><stop offset="1" style="stop-color:rgb(0%,52.156866%,70.980394%);stop-opacity:1;"/></linearGradient><filter style="color-interpolation-filters:sRGB;" inkscape:label="Diffuse Light" id="filter184" x="-0.0375" y="-0.0375" width="1.075" height="1.075"><feGaussianBlur in="SourceGraphic" stdDeviation="1" result="blur" id="feGaussianBlur174" /><feDiffuseLighting diffuseConstant="1" surfaceScale="10" lighting-color="rgb(255,255,255)" result="diffuse" id="feDiffuseLighting178"><feDistantLight elevation="8" azimuth="235" id="feDistantLight176" /></feDiffuseLighting><feComposite in="diffuse" in2="diffuse" operator="arithmetic" k1="1" result="composite1" id="feComposite180" /><feComposite in="composite1" in2="SourceGraphic" k1="1" operator="arithmetic" k3="1" result="composite2" id="feComposite182" /></filter></defs><g id="surface1" style="filter:url(#filter184)"><path style=" stroke:none;fill-rule:nonzero;fill:url(#linear0);" d="M 43.453125 1.496094 C 41.703125 1.449219 39.953125 1.570312 38.226562 1.855469 C 36.074219 2.164062 34.03125 2.976562 32.292969 4.21875 C 30.445312 5.636719 29.0625 8.046875 29.0625 10.769531 L 29.0625 19.910156 L 19.308594 19.910156 C 18.109375 19.855469 16.972656 20.425781 16.355469 21.390625 C 15.742188 22.359375 15.742188 23.566406 16.355469 24.53125 C 16.972656 25.5 18.109375 26.066406 19.308594 26.011719 L 29.074219 26.011719 L 29.074219 32.367188 C 21.476562 33.816406 16.015625 40.074219 16.015625 47.339844 C 16.015625 55.777344 23.308594 62.621094 32.308594 62.628906 C 41.320312 62.628906 48.625 55.785156 48.625 47.339844 C 48.609375 40.089844 43.15625 33.847656 35.582031 32.394531 L 35.582031 26.019531 L 45.339844 26.019531 C 47.140625 26.019531 48.597656 24.648438 48.597656 22.964844 C 48.597656 21.28125 47.140625 19.910156 45.339844 19.910156 L 35.582031 19.910156 L 35.582031 10.769531 C 35.582031 9.667969 35.820312 9.414062 36.40625 8.964844 C 37.304688 8.382812 38.339844 8.003906 39.421875 7.851562 C 42.035156 7.394531 44.933594 7.699219 44.933594 7.699219 C 46.105469 7.871094 47.28125 7.433594 48.007812 6.550781 C 48.734375 5.671875 48.894531 4.492188 48.421875 3.472656 C 47.957031 2.453125 46.929688 1.75 45.75 1.644531 C 45.75 1.644531 44.839844 1.535156 43.453125 1.496094 Z M 31.625 38.191406 C 31.65625 38.191406 31.683594 38.191406 31.71875 38.191406 C 31.71875 38.191406 31.722656 38.191406 31.722656 38.191406 C 32.097656 38.253906 32.480469 38.253906 32.851562 38.191406 C 38.03125 38.460938 42.09375 42.476562 42.097656 47.339844 C 42.097656 52.40625 37.714844 56.511719 32.308594 56.511719 C 26.90625 56.511719 22.523438 52.40625 22.523438 47.339844 C 22.523438 42.527344 26.496094 38.527344 31.625 38.191406 Z M 31.625 38.191406 "/></g></svg>
