<svg width="64" height="64" viewBox="0 0 64 64" version="1.1" xmlns:inkscape="http://www.inkscape.org/namespaces/inkscape"><defs><linearGradient id="linear0" gradientUnits="userSpaceOnUse" x1="0" y1="0" x2="0" y2="1" gradientTransform="matrix(64,0,0,64,0,0)"><stop offset="0" style="stop-color:rgb(41.960785%,64.313728%,100%);stop-opacity:1;"/><stop offset="1" style="stop-color:rgb(0%,43.137255%,100%);stop-opacity:1;"/></linearGradient><filter style="color-interpolation-filters:sRGB;" inkscape:label="Diffuse Light" id="filter184" x="-0.0375" y="-0.0375" width="1.075" height="1.075"><feGaussianBlur in="SourceGraphic" stdDeviation="1" result="blur" id="feGaussianBlur174" /><feDiffuseLighting diffuseConstant="1" surfaceScale="10" lighting-color="rgb(255,255,255)" result="diffuse" id="feDiffuseLighting178"><feDistantLight elevation="8" azimuth="235" id="feDistantLight176" /></feDiffuseLighting><feComposite in="diffuse" in2="diffuse" operator="arithmetic" k1="1" result="composite1" id="feComposite180" /><feComposite in="composite1" in2="SourceGraphic" k1="1" operator="arithmetic" k3="1" result="composite2" id="feComposite182" /></filter></defs><g id="surface1" style="filter:url(#filter184)"><path style=" stroke:none;fill-rule:nonzero;fill:url(#linear0);" d="M 46.996094 0 C 42.714844 0 38.488281 1.679688 35.128906 5.039062 C 31.769531 8.398438 30.09375 12.769531 30.09375 16.796875 L 47.203125 33.90625 C 51.570312 33.90625 55.945312 32.230469 58.960938 28.871094 C 65.679688 22.152344 65.679688 11.757812 58.960938 5.039062 C 55.601562 1.679688 51.269531 0 46.992188 0 Z M 27.046875 22.152344 C 27.046875 22.152344 0.511719 54.695312 0.171875 54.695312 C -0.5 55.367188 0.84375 58.121094 3.53125 60.46875 C 6.21875 63.160156 8.527344 64.5 9.199219 63.828125 L 41.847656 36.953125 Z M 27.046875 22.152344 "/></g></svg>
