<svg width="64" height="64" viewBox="0 0 64 64" version="1.1" xmlns:inkscape="http://www.inkscape.org/namespaces/inkscape"><defs><linearGradient id="linear0" gradientUnits="userSpaceOnUse" x1="0" y1="0" x2="0" y2="1" gradientTransform="matrix(107.622784,0,0,68.386628,-24.146571,-4.394726)"><stop offset="0" style="stop-color:rgb(0%,78.823531%,36.862746%);stop-opacity:1;"/><stop offset="1" style="stop-color:rgb(0%,54.11765%,25.098041%);stop-opacity:1;"/></linearGradient><filter style="color-interpolation-filters:sRGB;" inkscape:label="Diffuse Light" id="filter184" x="-0.0375" y="-0.0375" width="1.075" height="1.075"><feGaussianBlur in="SourceGraphic" stdDeviation="1" result="blur" id="feGaussianBlur174" /><feDiffuseLighting diffuseConstant="1" surfaceScale="10" lighting-color="rgb(255,255,255)" result="diffuse" id="feDiffuseLighting178"><feDistantLight elevation="8" azimuth="235" id="feDistantLight176" /></feDiffuseLighting><feComposite in="diffuse" in2="diffuse" operator="arithmetic" k1="1" result="composite1" id="feComposite180" /><feComposite in="composite1" in2="SourceGraphic" k1="1" operator="arithmetic" k3="1" result="composite2" id="feComposite182" /></filter></defs><g id="surface1" style="filter:url(#filter184)"><path style=" stroke:none;fill-rule:nonzero;fill:url(#linear0);" d="M 36.066406 1.855469 C 32.480469 1.863281 29.125 4.066406 26.945312 7.824219 C 24.761719 5.613281 22.125 4.421875 19.417969 4.402344 C 12.34375 4.394531 6.601562 12.347656 6.601562 22.179688 C 6.601562 24.925781 7.058594 27.613281 7.949219 30.082031 C 3.765625 33.628906 1.484375 38.003906 1.484375 42.5 C 1.476562 53.722656 15.242188 62.816406 32.230469 62.816406 C 49.21875 62.816406 62.980469 53.722656 62.980469 42.5 C 62.980469 34.851562 56.472656 27.871094 46.199219 24.414062 C 47.132812 22.171875 47.613281 19.660156 47.613281 17.09375 C 47.613281 8.695312 42.464844 1.855469 36.085938 1.855469 Z M 36.066406 1.855469 "/></g></svg>
