<svg width="64" height="64" viewBox="0 0 64 64" version="1.1" xmlns:inkscape="http://www.inkscape.org/namespaces/inkscape"><defs><linearGradient id="linear0" gradientUnits="userSpaceOnUse" x1="0" y1="0" x2="0" y2="1" gradientTransform="matrix(76.522386,0,0,62.223266,-6.539176,2.902274)"><stop offset="0" style="stop-color:rgb(100%,73.333335%,0%);stop-opacity:1;"/><stop offset="1" style="stop-color:rgb(70.19608%,51.372552%,0%);stop-opacity:1;"/></linearGradient><filter style="color-interpolation-filters:sRGB;" inkscape:label="Diffuse Light" id="filter184" x="-0.0375" y="-0.0375" width="1.075" height="1.075"><feGaussianBlur in="SourceGraphic" stdDeviation="1" result="blur" id="feGaussianBlur174" /><feDiffuseLighting diffuseConstant="1" surfaceScale="10" lighting-color="rgb(255,255,255)" result="diffuse" id="feDiffuseLighting178"><feDistantLight elevation="8" azimuth="235" id="feDistantLight176" /></feDiffuseLighting><feComposite in="diffuse" in2="diffuse" operator="arithmetic" k1="1" result="composite1" id="feComposite180" /><feComposite in="composite1" in2="SourceGraphic" k1="1" operator="arithmetic" k3="1" result="composite2" id="feComposite182" /></filter></defs><g id="surface1" style="filter:url(#filter184)"><path style=" stroke:none;fill-rule:nonzero;fill:url(#linear0);" d="M 11.082031 2.070312 L 52.988281 2.070312 C 54.492188 2.070312 55.71875 3.625 55.71875 5.535156 L 55.71875 58.691406 C 55.71875 60.609375 54.492188 62.160156 52.988281 62.160156 L 11.082031 62.160156 C 9.570312 62.160156 8.347656 60.609375 8.347656 58.691406 L 8.347656 5.535156 C 8.347656 3.625 9.570312 2.070312 11.082031 2.070312 Z M 11.082031 2.070312 "/><path style=" stroke:none;fill-rule:nonzero;fill:rgb(100%,73.333335%,0%);fill-opacity:1;" d="M 15.515625 13.578125 L 15.515625 18.203125 L 39.199219 18.203125 L 39.199219 13.578125 Z M 15.515625 22.828125 L 15.515625 27.445312 L 46.492188 27.445312 L 46.492188 22.828125 Z M 19.164062 32.070312 L 19.164062 36.695312 L 35.558594 36.695312 L 35.558594 32.070312 Z M 41.027344 32.070312 L 41.027344 36.695312 L 50.132812 36.695312 L 50.132812 32.070312 Z M 15.515625 45.9375 L 15.515625 50.5625 L 42.847656 50.5625 L 42.847656 45.9375 Z M 15.515625 45.9375 "/></g></svg>
