<svg width="64" height="64" viewBox="0 0 64 64" version="1.1" xmlns:inkscape="http://www.inkscape.org/namespaces/inkscape"><defs><linearGradient id="linear0" gradientUnits="userSpaceOnUse" x1="0" y1="0" x2="0" y2="1" gradientTransform="matrix(42.664062,0,0,64,10.667969,0)"><stop offset="0" style="stop-color:rgb(100%,73.333335%,0%);stop-opacity:1;"/><stop offset="1" style="stop-color:rgb(70.19608%,51.372552%,0%);stop-opacity:1;"/></linearGradient><filter style="color-interpolation-filters:sRGB;" inkscape:label="Diffuse Light" id="filter184" x="-0.0375" y="-0.0375" width="1.075" height="1.075"><feGaussianBlur in="SourceGraphic" stdDeviation="1" result="blur" id="feGaussianBlur174" /><feDiffuseLighting diffuseConstant="1" surfaceScale="10" lighting-color="rgb(255,255,255)" result="diffuse" id="feDiffuseLighting178"><feDistantLight elevation="8" azimuth="235" id="feDistantLight176" /></feDiffuseLighting><feComposite in="diffuse" in2="diffuse" operator="arithmetic" k1="1" result="composite1" id="feComposite180" /><feComposite in="composite1" in2="SourceGraphic" k1="1" operator="arithmetic" k3="1" result="composite2" id="feComposite182" /></filter></defs><g id="surface1" style="filter:url(#filter184)"><path style=" stroke:none;fill-rule:nonzero;fill:url(#linear0);" d="M 30.222656 0 C 21.523438 0 10.667969 9.90625 10.667969 23.226562 C 10.667969 37.117188 19.035156 49.777344 30.640625 49.777344 C 36.367188 49.777344 38.847656 47.621094 42.667969 42.667969 C 40.796875 49.164062 37.65625 53.296875 32.628906 54.5 C 28.660156 55.453125 24.199219 53.269531 21.332031 49.777344 L 10.667969 49.777344 C 13.972656 58.792969 22.273438 64 32.257812 64 C 39.601562 64 45.402344 61.160156 49.222656 55.800781 C 52.085938 51.65625 53.332031 46.132812 53.332031 37.523438 L 53.332031 1.777344 L 42.667969 1.777344 L 42.667969 6.742188 C 42.667969 6.742188 38.925781 0 30.21875 0 Z M 31.800781 10.667969 C 38.257812 10.667969 42.667969 16.503906 42.667969 25.054688 C 42.667969 33.519531 38.386719 39.113281 31.933594 39.113281 C 25.476562 39.113281 21.335938 33.609375 21.335938 25.054688 C 21.335938 16.421875 25.480469 10.667969 31.800781 10.667969 Z M 31.800781 10.667969 "/></g></svg>
