<svg width="64" height="64" viewBox="0 0 64 64" version="1.1" xmlns:inkscape="http://www.inkscape.org/namespaces/inkscape"><defs><linearGradient id="linear0" gradientUnits="userSpaceOnUse" x1="0" y1="0" x2="0" y2="1" gradientTransform="matrix(64,0,0,63.992188,0,0.00390625)"><stop offset="0" style="stop-color:rgb(92.941177%,83.529413%,72.549021%);stop-opacity:1;"/><stop offset="1" style="stop-color:rgb(81.960785%,71.372551%,59.215689%);stop-opacity:1;"/></linearGradient><filter style="color-interpolation-filters:sRGB;" inkscape:label="Diffuse Light" id="filter184" x="-0.0375" y="-0.0375" width="1.075" height="1.075"><feGaussianBlur in="SourceGraphic" stdDeviation="1" result="blur" id="feGaussianBlur174" /><feDiffuseLighting diffuseConstant="1" surfaceScale="10" lighting-color="rgb(255,255,255)" result="diffuse" id="feDiffuseLighting178"><feDistantLight elevation="8" azimuth="235" id="feDistantLight176" /></feDiffuseLighting><feComposite in="diffuse" in2="diffuse" operator="arithmetic" k1="1" result="composite1" id="feComposite180" /><feComposite in="composite1" in2="SourceGraphic" k1="1" operator="arithmetic" k3="1" result="composite2" id="feComposite182" /></filter></defs><g id="surface1" style="filter:url(#filter184)"><path style=" stroke:none;fill-rule:nonzero;fill:url(#linear0);" d="M 63.152344 11.46875 L 62.445312 9.328125 L 51.140625 20.628906 L 45.59375 18.40625 L 43.375 12.855469 L 54.671875 1.550781 L 52.53125 0.84375 C 50.84375 0.289062 49.078125 0.00390625 47.304688 0.00390625 C 38.101562 0.00390625 30.609375 7.492188 30.609375 16.699219 C 30.609375 18.757812 30.984375 20.769531 31.734375 22.691406 L 1.984375 52.4375 C 0.707031 53.703125 -0.00390625 55.433594 0 57.230469 C 0 59.039062 0.707031 60.734375 1.984375 62.019531 C 3.253906 63.289062 4.976562 64 6.773438 63.996094 C 8.511719 63.996094 10.242188 63.339844 11.5625 62.019531 L 41.308594 32.277344 C 43.230469 33.019531 45.242188 33.394531 47.304688 33.394531 C 56.511719 33.394531 64 25.902344 64 16.699219 C 64 14.921875 63.710938 13.15625 63.152344 11.46875 Z M 63.152344 11.46875 "/></g></svg>
