<svg width="64" height="64" viewBox="0 0 64 64" version="1.1" xmlns:inkscape="http://www.inkscape.org/namespaces/inkscape"><defs><linearGradient id="linear0" gradientUnits="userSpaceOnUse" x1="0" y1="0" x2="0" y2="1" gradientTransform="matrix(66.822253,0,0,65.154315,-1.649058,-0.622589)"><stop offset="0" style="stop-color:rgb(87.058824%,86.666667%,56.470591%);stop-opacity:1;"/><stop offset="1" style="stop-color:rgb(67.843139%,67.450982%,38.039216%);stop-opacity:1;"/></linearGradient><filter style="color-interpolation-filters:sRGB;" inkscape:label="Diffuse Light" id="filter184" x="-0.0375" y="-0.0375" width="1.075" height="1.075"><feGaussianBlur in="SourceGraphic" stdDeviation="1" result="blur" id="feGaussianBlur174" /><feDiffuseLighting diffuseConstant="1" surfaceScale="10" lighting-color="rgb(255,255,255)" result="diffuse" id="feDiffuseLighting178"><feDistantLight elevation="8" azimuth="235" id="feDistantLight176" /></feDiffuseLighting><feComposite in="diffuse" in2="diffuse" operator="arithmetic" k1="1" result="composite1" id="feComposite180" /><feComposite in="composite1" in2="SourceGraphic" k1="1" operator="arithmetic" k3="1" result="composite2" id="feComposite182" /></filter></defs><g id="surface1" style="filter:url(#filter184)"><path style=" stroke:none;fill-rule:nonzero;fill:url(#linear0);" d="M 31.828125 1.757812 C 18.335938 1.757812 7.402344 5.261719 7.402344 9.59375 C 7.402344 13.917969 18.335938 17.429688 31.828125 17.429688 C 45.3125 17.429688 56.253906 13.917969 56.253906 9.59375 C 56.253906 5.261719 45.3125 1.757812 31.828125 1.757812 M 7.457031 12.230469 C 7.023438 12.988281 6.765625 13.785156 6.765625 14.601562 L 6.765625 22 C 6.765625 27.722656 17.996094 32.371094 31.828125 32.371094 C 45.667969 32.371094 56.894531 27.722656 56.894531 22 L 56.894531 14.601562 C 56.894531 13.785156 56.632812 12.988281 56.207031 12.230469 C 55.726562 16.414062 45.007812 19.773438 31.828125 19.773438 C 18.648438 19.773438 7.945312 16.414062 7.457031 12.230469 M 7.523438 27.03125 C 7.050781 27.828125 6.765625 28.667969 6.765625 29.519531 L 6.765625 36.921875 C 6.765625 42.644531 17.996094 47.269531 31.828125 47.269531 C 45.667969 47.269531 56.894531 42.640625 56.894531 36.921875 L 56.894531 29.519531 C 56.894531 28.667969 56.601562 27.828125 56.132812 27.03125 C 53.445312 31.558594 43.601562 34.914062 31.828125 34.914062 C 20.066406 34.914062 10.214844 31.558594 7.53125 27.03125 M 7.53125 42.332031 C 7.050781 43.117188 6.765625 43.949219 6.765625 44.800781 L 6.765625 52.21875 C 6.765625 57.9375 17.996094 62.5625 31.828125 62.5625 C 45.667969 62.5625 56.894531 57.929688 56.894531 52.21875 L 56.894531 44.800781 C 56.894531 43.949219 56.609375 43.117188 56.132812 42.332031 C 53.445312 46.847656 43.601562 50.199219 31.828125 50.199219 C 20.066406 50.199219 10.214844 46.847656 7.53125 42.332031 "/></g></svg>
