<svg width="64" height="64" viewBox="0 0 64 64" version="1.1" xmlns:inkscape="http://www.inkscape.org/namespaces/inkscape"><defs><linearGradient id="linear0" gradientUnits="userSpaceOnUse" x1="0" y1="0" x2="0" y2="1" gradientTransform="matrix(72.933002,0,0,72.730196,-5.081841,-4.077229)"><stop offset="0" style="stop-color:rgb(0%,73.333335%,100%);stop-opacity:1;"/><stop offset="1" style="stop-color:rgb(0%,52.156866%,70.980394%);stop-opacity:1;"/></linearGradient><filter style="color-interpolation-filters:sRGB;" inkscape:label="Diffuse Light" id="filter184" x="-0.0375" y="-0.0375" width="1.075" height="1.075"><feGaussianBlur in="SourceGraphic" stdDeviation="1" result="blur" id="feGaussianBlur174" /><feDiffuseLighting diffuseConstant="1" surfaceScale="10" lighting-color="rgb(255,255,255)" result="diffuse" id="feDiffuseLighting178"><feDistantLight elevation="8" azimuth="235" id="feDistantLight176" /></feDiffuseLighting><feComposite in="diffuse" in2="diffuse" operator="arithmetic" k1="1" result="composite1" id="feComposite180" /><feComposite in="composite1" in2="SourceGraphic" k1="1" operator="arithmetic" k3="1" result="composite2" id="feComposite182" /></filter></defs><g id="surface1" style="filter:url(#filter184)"><path style=" stroke:none;fill-rule:nonzero;fill:url(#linear0);" d="M 37.082031 1.933594 C 20.515625 1.933594 15.785156 11.117188 15.785156 24.257812 C 15.785156 37.398438 20.515625 46.578125 37.082031 46.578125 C 41.820312 46.578125 45.839844 45.183594 45.839844 45.183594 L 51.289062 24.257812 C 52.398438 19.984375 52.972656 18.675781 48.917969 18.675781 L 33.535156 18.675781 C 31.566406 18.675781 29.984375 20.542969 29.984375 22.863281 C 29.984375 25.179688 31.566406 27.046875 33.53125 27.046875 L 41.167969 27.046875 L 38.625 38.066406 C 38.625 38.066406 38.167969 38.207031 37.089844 38.207031 C 26.4375 38.207031 22.886719 33.691406 22.886719 24.257812 C 22.886719 14.820312 26.433594 10.304688 37.089844 10.304688 L 63.125 10.304688 L 60.753906 1.941406 L 37.089844 1.941406 Z M 1.582031 18.675781 L 1.582031 27.046875 C 1.582031 47.082031 13.417969 63.320312 37.082031 63.320312 C 51.285156 63.320312 58.386719 57.742188 63.121094 49.363281 L 53.417969 49.363281 C 49.871094 52.160156 46.550781 54.949219 37.082031 54.949219 C 20.515625 54.949219 8.679688 42.460938 8.679688 27.046875 L 8.679688 18.675781 Z M 1.582031 18.675781 "/></g></svg>
