<svg width="64" height="64" viewBox="0 0 64 64" version="1.1" xmlns:inkscape="http://www.inkscape.org/namespaces/inkscape"><defs><linearGradient id="linear0" gradientUnits="userSpaceOnUse" x1="0" y1="0" x2="0" y2="1" gradientTransform="matrix(64,0,0,36,0,14)"><stop offset="0" style="stop-color:rgb(82.352942%,61.176473%,100%);stop-opacity:1;"/><stop offset="1" style="stop-color:rgb(66.666669%,0%,100%);stop-opacity:1;"/></linearGradient><filter style="color-interpolation-filters:sRGB;" inkscape:label="Diffuse Light" id="filter184" x="-0.0375" y="-0.0375" width="1.075" height="1.075"><feGaussianBlur in="SourceGraphic" stdDeviation="1" result="blur" id="feGaussianBlur174" /><feDiffuseLighting diffuseConstant="1" surfaceScale="10" lighting-color="rgb(255,255,255)" result="diffuse" id="feDiffuseLighting178"><feDistantLight elevation="8" azimuth="235" id="feDistantLight176" /></feDiffuseLighting><feComposite in="diffuse" in2="diffuse" operator="arithmetic" k1="1" result="composite1" id="feComposite180" /><feComposite in="composite1" in2="SourceGraphic" k1="1" operator="arithmetic" k3="1" result="composite2" id="feComposite182" /></filter></defs><g id="surface1" style="filter:url(#filter184)"><path style=" stroke:none;fill-rule:nonzero;fill:url(#linear0);" d="M 9 14 C 6.789062 14 0.519531 23.980469 0.03125 27.640625 C 0.0117188 27.75 -0.00390625 27.867188 0 28 C -0.00390625 28.132812 0.0117188 28.25 0.03125 28.359375 C 0.515625 32.015625 6.789062 42 9 42 C 11.210938 42 17.484375 32.015625 17.96875 28.359375 C 17.988281 28.25 18.003906 28.132812 18 28 C 18.003906 27.867188 17.988281 27.75 17.96875 27.640625 C 17.480469 23.980469 11.210938 14 9 14 Z M 55 14 C 52.789062 14 46.519531 23.980469 46.03125 27.640625 C 46.011719 27.75 45.996094 27.867188 46 28 C 45.996094 28.132812 46.011719 28.25 46.03125 28.359375 C 46.515625 32.015625 52.789062 42 55 42 C 57.210938 42 63.484375 32.015625 63.96875 28.359375 C 63.988281 28.25 64.003906 28.132812 64 28 C 64.003906 27.867188 63.988281 27.75 63.96875 27.640625 C 63.480469 23.980469 57.210938 14 55 14 Z M 32 22 C 29.789062 22 23.519531 31.980469 23.03125 35.640625 C 23.011719 35.75 22.996094 35.867188 23 36 C 22.996094 36.132812 23.011719 36.25 23.03125 36.359375 C 23.515625 40.015625 29.789062 50 32 50 C 34.210938 50 40.484375 40.015625 40.96875 36.359375 C 40.988281 36.25 41.003906 36.132812 41 36 C 41.003906 35.867188 40.988281 35.75 40.96875 35.640625 C 40.480469 31.980469 34.210938 22 32 22 Z M 32 22 "/></g></svg>
