<svg width="64" height="64" viewBox="0 0 64 64" version="1.1" xmlns:inkscape="http://www.inkscape.org/namespaces/inkscape"><defs><linearGradient id="linear0" gradientUnits="userSpaceOnUse" x1="0" y1="0" x2="0" y2="1" gradientTransform="matrix(60.03125,0,0,63.746094,1.984375,0)"><stop offset="0" style="stop-color:rgb(41.960785%,64.313728%,100%);stop-opacity:1;"/><stop offset="1" style="stop-color:rgb(0%,43.137255%,100%);stop-opacity:1;"/></linearGradient><filter style="color-interpolation-filters:sRGB;" inkscape:label="Diffuse Light" id="filter184" x="-0.0375" y="-0.0375" width="1.075" height="1.075"><feGaussianBlur in="SourceGraphic" stdDeviation="1" result="blur" id="feGaussianBlur174" /><feDiffuseLighting diffuseConstant="1" surfaceScale="10" lighting-color="rgb(255,255,255)" result="diffuse" id="feDiffuseLighting178"><feDistantLight elevation="8" azimuth="235" id="feDistantLight176" /></feDiffuseLighting><feComposite in="diffuse" in2="diffuse" operator="arithmetic" k1="1" result="composite1" id="feComposite180" /><feComposite in="composite1" in2="SourceGraphic" k1="1" operator="arithmetic" k3="1" result="composite2" id="feComposite182" /></filter></defs><g id="surface1" style="filter:url(#filter184)"><path style=" stroke:none;fill-rule:nonzero;fill:url(#linear0);" d="M 36.128906 35.820312 L 28.234375 35.902344 L 32.480469 23.171875 L 62.015625 23.003906 L 49.125 63.746094 L 29.5 63.746094 L 32.480469 54.746094 C 15.589844 58.3125 2.09375 52.867188 2.007812 40.996094 C 1.265625 21.269531 17.964844 1.1875 41.644531 0 C 52.765625 0.328125 59.421875 5.027344 61.59375 14.09375 L 42.496094 20.964844 C 41.492188 16.84375 38.785156 15.179688 34.347656 15.957031 C 25.605469 18.503906 20.101562 29.308594 22.039062 35.902344 C 23 39.140625 25.890625 39.984375 28.828125 39.890625 C 31.808594 40.0625 34.246094 38.710938 36.128906 35.820312 Z M 36.128906 35.820312 "/></g></svg>
