<svg width="64" height="64" viewBox="0 0 64 64" version="1.1" xmlns:inkscape="http://www.inkscape.org/namespaces/inkscape"><defs><linearGradient id="linear0" gradientUnits="userSpaceOnUse" x1="0" y1="0" x2="0" y2="1" gradientTransform="matrix(56.944721,0,0,40.306419,8.479736,11.850578)"><stop offset="0" style="stop-color:rgb(92.941177%,83.529413%,72.549021%);stop-opacity:1;"/><stop offset="1" style="stop-color:rgb(81.960785%,71.372551%,59.215689%);stop-opacity:1;"/></linearGradient><filter style="color-interpolation-filters:sRGB;" inkscape:label="Diffuse Light" id="filter184" x="-0.0375" y="-0.0375" width="1.075" height="1.075"><feGaussianBlur in="SourceGraphic" stdDeviation="1" result="blur" id="feGaussianBlur174" /><feDiffuseLighting diffuseConstant="1" surfaceScale="10" lighting-color="rgb(255,255,255)" result="diffuse" id="feDiffuseLighting178"><feDistantLight elevation="8" azimuth="235" id="feDistantLight176" /></feDiffuseLighting><feComposite in="diffuse" in2="diffuse" operator="arithmetic" k1="1" result="composite1" id="feComposite180" /><feComposite in="composite1" in2="SourceGraphic" k1="1" operator="arithmetic" k3="1" result="composite2" id="feComposite182" /></filter></defs><g id="surface1" style="filter:url(#filter184)"><path style=" stroke:none;fill-rule:nonzero;fill:url(#linear0);" d="M 29.21875 1.238281 C 12.792969 1.238281 8.847656 7.128906 8.847656 17.617188 C 8.847656 24.640625 10.953125 27.8125 14.667969 29.320312 C 12.59375 32.363281 10.820312 34 10.753906 38.679688 C 10.855469 50.378906 40.859375 43.359375 40.859375 50.378906 C 40.859375 57.398438 21.5625 54.339844 11.757812 52.71875 L 8.847656 59.738281 C 14.785156 62.550781 23.761719 62.78125 32.128906 62.886719 C 46.679688 63.261719 54.242188 60.75 54.042969 50.378906 C 54.15625 44.867188 50.886719 38.679688 40.859375 38.679688 C 35.039062 38.679688 23.398438 38.019531 23.398438 35.679688 C 23.398438 34.945312 23.398438 33.535156 26.308594 32.902344 C 37.949219 33.222656 52.5 31.65625 52.5 17.617188 C 52.5 14.367188 52.566406 8.398438 49.589844 5.917969 L 55.410156 5.917969 L 55.410156 1.238281 Z M 30.671875 8.257812 C 36.300781 8.257812 40.859375 11.925781 40.859375 16.445312 C 40.859375 20.96875 36.300781 24.640625 30.671875 24.640625 C 25.046875 24.640625 20.488281 20.96875 20.488281 16.445312 C 20.488281 11.925781 25.046875 8.257812 30.671875 8.257812 Z M 30.671875 8.257812 "/></g></svg>
