<svg width="64" height="64" viewBox="0 0 64 64" version="1.1" xmlns:inkscape="http://www.inkscape.org/namespaces/inkscape"><defs><linearGradient id="linear0" gradientUnits="userSpaceOnUse" x1="0" y1="0" x2="0" y2="1" gradientTransform="matrix(66.240248,0,0,42.323848,0.360185,8.138402)"><stop offset="0" style="stop-color:rgb(82.352942%,61.176473%,100%);stop-opacity:1;"/><stop offset="1" style="stop-color:rgb(66.666669%,0%,100%);stop-opacity:1;"/></linearGradient><filter style="color-interpolation-filters:sRGB;" inkscape:label="Diffuse Light" id="filter184" x="-0.0375" y="-0.0375" width="1.075" height="1.075"><feGaussianBlur in="SourceGraphic" stdDeviation="1" result="blur" id="feGaussianBlur174" /><feDiffuseLighting diffuseConstant="1" surfaceScale="10" lighting-color="rgb(255,255,255)" result="diffuse" id="feDiffuseLighting178"><feDistantLight elevation="8" azimuth="235" id="feDistantLight176" /></feDiffuseLighting><feComposite in="diffuse" in2="diffuse" operator="arithmetic" k1="1" result="composite1" id="feComposite180" /><feComposite in="composite1" in2="SourceGraphic" k1="1" operator="arithmetic" k3="1" result="composite2" id="feComposite182" /></filter></defs><g id="surface1" style="filter:url(#filter184)"><path style=" stroke:none;fill-rule:nonzero;fill:url(#linear0);" d="M 14.851562 7.144531 L 12.660156 7.144531 C 11.445312 7.144531 10.464844 8.097656 10.464844 9.28125 L 10.464844 12.492188 C 10.464844 16.792969 3.890625 15.699219 3.890625 19.980469 L 3.890625 23.183594 C 3.890625 24.902344 4.945312 26.394531 6.085938 27.46875 L 6.085938 23.402344 C 7.503906 25.5625 9.304688 25.5625 10.464844 24.257812 C 9.15625 24.257812 8.273438 23.542969 8.273438 22.117188 C 9.679688 23.183594 11.125 23.351562 12.660156 22.117188 C 11.144531 21.398438 10.464844 21.0625 10.464844 19.980469 L 12.660156 19.980469 C 14.09375 19.980469 14.058594 18.855469 14.851562 16.769531 C 14.851562 19.316406 17.039062 19.980469 17.039062 22.117188 L 17.039062 28.535156 L 12.660156 28.535156 C 14.320312 31.679688 15.96875 32.8125 19.234375 32.8125 C 20.832031 32.8125 21.425781 30.671875 21.425781 30.671875 L 23.617188 19.980469 C 26.027344 19.980469 28 17.109375 28 13.558594 L 29.09375 11.421875 L 30.191406 13.558594 C 39.878906 13.558594 47.726562 21.21875 47.726562 30.671875 C 47.726562 41.371094 38.960938 49.929688 28 49.929688 C 14.851562 49.929688 8.273438 43.511719 8.273438 36.234375 C 8.273438 32.8125 8.738281 28.941406 12.660156 26.394531 C 8.273438 26.394531 1.699219 30.671875 1.699219 39.230469 C 1.699219 49.929688 12.660156 62.761719 30.191406 62.761719 C 48.339844 62.761719 63.066406 50.527344 63.066406 32.8125 C 63.066406 25.582031 60.460938 17.066406 52.109375 11.421875 L 47.726562 7.144531 L 36.765625 2.859375 L 28 2.859375 L 19.234375 2.007812 Z M 14.851562 7.144531 "/></g></svg>
