<svg width="64" height="64" viewBox="0 0 64 64" version="1.1" xmlns:inkscape="http://www.inkscape.org/namespaces/inkscape"><defs><linearGradient id="linear0" gradientUnits="userSpaceOnUse" x1="0" y1="0" x2="0" y2="1" gradientTransform="matrix(63.020862,0,0,41.002275,0.910414,13.298669)"><stop offset="0" style="stop-color:rgb(81.960785%,70.980394%,59.215689%);stop-opacity:1;"/><stop offset="1" style="stop-color:rgb(65.098041%,53.725493%,41.568628%);stop-opacity:1;"/></linearGradient><filter style="color-interpolation-filters:sRGB;" inkscape:label="Diffuse Light" id="filter184" x="-0.0375" y="-0.0375" width="1.075" height="1.075"><feGaussianBlur in="SourceGraphic" stdDeviation="1" result="blur" id="feGaussianBlur174" /><feDiffuseLighting diffuseConstant="1" surfaceScale="10" lighting-color="rgb(255,255,255)" result="diffuse" id="feDiffuseLighting178"><feDistantLight elevation="8" azimuth="235" id="feDistantLight176" /></feDiffuseLighting><feComposite in="diffuse" in2="diffuse" operator="arithmetic" k1="1" result="composite1" id="feComposite180" /><feComposite in="composite1" in2="SourceGraphic" k1="1" operator="arithmetic" k3="1" result="composite2" id="feComposite182" /></filter></defs><g id="surface1" style="filter:url(#filter184)"><path style=" stroke:none;fill-rule:nonzero;fill:url(#linear0);" d="M 32.171875 2.269531 C 15.632812 2.269531 2.230469 15.722656 2.230469 32.320312 C 2.230469 48.914062 15.632812 62.367188 32.171875 62.367188 C 36.636719 62.367188 40.964844 61.367188 44.882812 59.527344 C 45.988281 59.875 47.132812 60.050781 48.289062 60.054688 C 54.652344 60.054688 59.808594 54.882812 59.808594 48.5 C 59.808594 42.117188 54.652344 36.941406 48.289062 36.941406 C 42.21875 36.953125 37.199219 41.695312 36.820312 47.78125 C 35.332031 48.242188 33.757812 48.496094 32.171875 48.503906 C 23.253906 48.503906 16.046875 41.269531 16.046875 32.324219 C 16.046875 23.378906 23.253906 16.140625 32.171875 16.140625 C 41.082031 16.140625 48.289062 23.378906 48.289062 32.324219 C 53.425781 32.324219 58.265625 34.773438 61.300781 38.957031 C 61.816406 36.785156 62.089844 34.566406 62.121094 32.324219 C 62.121094 15.726562 48.710938 2.273438 32.179688 2.273438 Z M 32.171875 25.386719 C 28.355469 25.386719 25.261719 28.492188 25.261719 32.320312 C 25.261719 36.148438 28.355469 39.25 32.171875 39.25 C 35.984375 39.25 39.078125 36.148438 39.078125 32.320312 C 39.078125 28.492188 35.984375 25.386719 32.171875 25.386719 Z M 32.171875 25.386719 "/></g></svg>
