<?xml version="1.0" encoding="UTF-8" standalone="no"?><svg width="64" height="64" viewBox="0 0 64 64" version="1.1" id="svg13" sodipodi:docname="girens.svg" inkscape:version="1.2.2 (b0a8486541, 2022-12-01)" xmlns:inkscape="http://www.inkscape.org/namespaces/inkscape" xmlns:sodipodi="http://sodipodi.sourceforge.net/DTD/sodipodi-0.dtd" xmlns="http://www.w3.org/2000/svg" xmlns:svg="http://www.w3.org/2000/svg"> <defs id="defs17"> <filter style="color-interpolation-filters:sRGB;" inkscape:label="Diffuse Light" id="filter187" x="-0.075" y="-0.075" width="1.15" height="1.15"> <feGaussianBlur in="SourceGraphic" stdDeviation="1" result="blur" id="feGaussianBlur177" /> <feDiffuseLighting diffuseConstant="1" surfaceScale="10" lighting-color="rgb(255,255,255)" result="diffuse" id="feDiffuseLighting181"> <feDistantLight elevation="8" azimuth="235" id="feDistantLight179" /> </feDiffuseLighting> <feComposite in="diffuse" in2="diffuse" operator="arithmetic" k1="1" result="composite1" id="feComposite183" /> <feComposite in="composite1" in2="SourceGraphic" k1="1" operator="arithmetic" k3="1" result="composite2" id="feComposite185" /> </filter> </defs> <sodipodi:namedview id="namedview15" pagecolor="#ffffff" bordercolor="#000000" borderopacity="0.25" inkscape:showpageshadow="2" inkscape:pageopacity="0.0" inkscape:pagecheckerboard="0" inkscape:deskcolor="#d1d1d1" showgrid="false" inkscape:zoom="3.6875" inkscape:cx="32" inkscape:cy="32.135593" inkscape:window-width="1432" inkscape:window-height="844" inkscape:window-x="0" inkscape:window-y="0" inkscape:window-maximized="1" inkscape:current-layer="svg13" /> <g id="surface1" transform="matrix(1.8983982,0,0,1.9207938,-29.011437,-26.196231)" style="filter:url(#filter187)"> <path style="fill:#5c4c11;fill-opacity:1;fill-rule:nonzero;stroke:none" d="m 22.667969,41.332031 c -0.738281,0 -1.335938,0.597657 -1.335938,1.335938 v 2.664062 c 0,0.738281 0.597657,1.335938 1.335938,1.335938 C 23.40625,46.667969 24,46.070312 24,45.332031 v -2.664062 c 0,-0.738281 -0.59375,-1.335938 -1.332031,-1.335938 z m 18.664062,0 C 40.59375,41.332031 40,41.929688 40,42.667969 v 2.664062 c 0,0.738281 0.59375,1.335938 1.332031,1.335938 0.738281,0 1.335938,-0.597657 1.335938,-1.335938 v -2.664062 c 0,-0.738281 -0.597657,-1.335938 -1.335938,-1.335938 z m 0,0" id="path2" /> <path style="fill:#e1b817;fill-opacity:1;fill-rule:nonzero;stroke:none" d="M 21.332031,30.601562 C 21.296875,29.152344 20.113281,28 18.667969,28 17.195312,28 16,29.195312 16,30.667969 c 0,1.472656 1.195312,2.664062 2.667969,2.664062 V 44 c 0,0.738281 0.59375,1.332031 1.332031,1.332031 h 24 c 0.738281,0 1.332031,-0.59375 1.332031,-1.332031 V 33.332031 C 46.804688,33.332031 48,32.140625 48,30.667969 48,29.195312 46.804688,28 45.332031,28 c -1.472656,0 -2.664062,1.195312 -2.664062,2.667969 z m 0,0" id="path4" /> <path style="fill:#ebcc57;fill-opacity:1;fill-rule:nonzero;stroke:none" d="m 22.667969,33.332031 h 18.664062 c 0.738281,0 1.335938,0.597657 1.335938,1.335938 v 4 C 42.667969,39.402344 42.070312,40 41.332031,40 H 22.667969 c -0.738281,0 -1.335938,-0.597656 -1.335938,-1.332031 v -4 c 0,-0.738281 0.597657,-1.335938 1.335938,-1.335938 z m 0,0" id="path6" /> <path style="fill:#e6c235;fill-opacity:1;fill-rule:nonzero;stroke:none" d="m 32,14.667969 c -5.910156,0 -10.667969,4.160156 -10.667969,9.332031 v 10.632812 l 21.335938,0.06641 V 24 c 0,-5.171875 -4.757813,-9.332031 -10.667969,-9.332031 z m 0,0" id="path8" /> <path style="fill:#5c4c11;fill-opacity:1;fill-rule:nonzero;stroke:none" d="M 32,20 30.667969,21.332031 32,22.667969 33.332031,21.332031 Z M 28,24 26.667969,25.332031 28,26.667969 29.332031,25.332031 Z m 8,0 -1.332031,1.332031 L 36,26.667969 37.332031,25.332031 Z M 32,28 30.667969,29.332031 32,30.667969 33.332031,29.332031 Z m -13.332031,1.332031 c -0.738281,0 -1.335938,0.597657 -1.335938,1.335938 C 17.332031,31.402344 17.929688,32 18.667969,32 19.402344,32 20,31.402344 20,30.667969 20,29.929688 19.402344,29.332031 18.667969,29.332031 Z m 26.664062,0 C 44.597656,29.332031 44,29.929688 44,30.667969 44,31.402344 44.597656,32 45.332031,32 c 0.738281,0 1.335938,-0.597656 1.335938,-1.332031 0,-0.738281 -0.597657,-1.335938 -1.335938,-1.335938 z m 0,0" id="path10" /> </g></svg>
