<svg width="64" height="64" viewBox="0 0 64 64" version="1.1" xmlns:inkscape="http://www.inkscape.org/namespaces/inkscape"><defs><linearGradient id="linear0" gradientUnits="userSpaceOnUse" x1="0" y1="0" x2="0" y2="1" gradientTransform="matrix(64,0,0,64,0,0)"><stop offset="0" style="stop-color:rgb(75.686276%,77.64706%,83.92157%);stop-opacity:1;"/><stop offset="1" style="stop-color:rgb(43.529412%,45.09804%,50.196081%);stop-opacity:1;"/></linearGradient><filter style="color-interpolation-filters:sRGB;" inkscape:label="Diffuse Light" id="filter184" x="-0.0375" y="-0.0375" width="1.075" height="1.075"><feGaussianBlur in="SourceGraphic" stdDeviation="1" result="blur" id="feGaussianBlur174" /><feDiffuseLighting diffuseConstant="1" surfaceScale="10" lighting-color="rgb(255,255,255)" result="diffuse" id="feDiffuseLighting178"><feDistantLight elevation="8" azimuth="235" id="feDistantLight176" /></feDiffuseLighting><feComposite in="diffuse" in2="diffuse" operator="arithmetic" k1="1" result="composite1" id="feComposite180" /><feComposite in="composite1" in2="SourceGraphic" k1="1" operator="arithmetic" k3="1" result="composite2" id="feComposite182" /></filter></defs><g id="surface1" style="filter:url(#filter184)"><path style=" stroke:none;fill-rule:nonzero;fill:url(#linear0);" d="M 62.792969 29.148438 L 34.847656 1.207031 C 33.242188 -0.402344 30.628906 -0.402344 29.019531 1.207031 L 23.21875 7.011719 L 30.578125 14.371094 C 32.289062 13.792969 34.25 14.183594 35.613281 15.546875 C 36.984375 16.917969 37.367188 18.894531 36.777344 20.613281 L 43.871094 27.707031 C 45.589844 27.113281 47.566406 27.496094 48.9375 28.871094 C 50.855469 30.785156 50.855469 33.890625 48.9375 35.804688 C 47.023438 37.722656 43.917969 37.722656 42 35.804688 C 40.558594 34.363281 40.203125 32.246094 40.933594 30.472656 L 34.316406 23.855469 L 34.316406 41.265625 C 34.785156 41.5 35.226562 41.804688 35.613281 42.195312 C 37.527344 44.109375 37.527344 47.214844 35.613281 49.132812 C 33.699219 51.046875 30.59375 51.046875 28.679688 49.132812 C 26.765625 47.214844 26.765625 44.113281 28.679688 42.195312 C 29.152344 41.722656 29.699219 41.363281 30.285156 41.125 L 30.285156 23.550781 C 29.703125 23.3125 29.152344 22.957031 28.679688 22.480469 C 27.230469 21.03125 26.878906 18.902344 27.621094 17.117188 L 20.367188 9.859375 L 1.207031 29.019531 C -0.402344 30.632812 -0.402344 33.242188 1.207031 34.851562 L 29.152344 62.792969 C 30.761719 64.402344 33.371094 64.402344 34.980469 62.792969 L 62.792969 34.980469 C 64.402344 33.371094 64.402344 30.757812 62.792969 29.148438 "/></g></svg>
