<svg width="64" height="64" viewBox="0 0 64 64" version="1.1" xmlns:inkscape="http://www.inkscape.org/namespaces/inkscape"><defs><linearGradient id="linear0" gradientUnits="userSpaceOnUse" x1="0" y1="0" x2="0" y2="1" gradientTransform="matrix(65.142135,0,0,63.012664,-9.232379,0.787429)"><stop offset="0" style="stop-color:rgb(0%,96.078432%,86.274511%);stop-opacity:1;"/><stop offset="1" style="stop-color:rgb(0%,54.901963%,49.411765%);stop-opacity:1;"/></linearGradient><linearGradient id="linear1" gradientUnits="userSpaceOnUse" x1="0" y1="0" x2="0" y2="1" gradientTransform="matrix(65.142135,0,0,63.012664,-9.232379,0.787429)"><stop offset="0" style="stop-color:rgb(0%,96.078432%,86.274511%);stop-opacity:1;"/><stop offset="1" style="stop-color:rgb(0%,54.901963%,49.411765%);stop-opacity:1;"/></linearGradient><linearGradient id="linear2" gradientUnits="userSpaceOnUse" x1="0" y1="0" x2="0" y2="1" gradientTransform="matrix(65.142135,0,0,63.012664,-9.232379,0.787429)"><stop offset="0" style="stop-color:rgb(0%,96.078432%,86.274511%);stop-opacity:1;"/><stop offset="1" style="stop-color:rgb(0%,54.901963%,49.411765%);stop-opacity:1;"/></linearGradient><linearGradient id="linear3" gradientUnits="userSpaceOnUse" x1="0" y1="0" x2="0" y2="1" gradientTransform="matrix(65.142135,0,0,63.012664,-9.232379,0.787429)"><stop offset="0" style="stop-color:rgb(0%,96.078432%,86.274511%);stop-opacity:1;"/><stop offset="1" style="stop-color:rgb(0%,54.901963%,49.411765%);stop-opacity:1;"/></linearGradient><filter style="color-interpolation-filters:sRGB;" inkscape:label="Diffuse Light" id="filter184" x="-0.0375" y="-0.0375" width="1.075" height="1.075"><feGaussianBlur in="SourceGraphic" stdDeviation="1" result="blur" id="feGaussianBlur174" /><feDiffuseLighting diffuseConstant="1" surfaceScale="10" lighting-color="rgb(255,255,255)" result="diffuse" id="feDiffuseLighting178"><feDistantLight elevation="8" azimuth="235" id="feDistantLight176" /></feDiffuseLighting><feComposite in="diffuse" in2="diffuse" operator="arithmetic" k1="1" result="composite1" id="feComposite180" /><feComposite in="composite1" in2="SourceGraphic" k1="1" operator="arithmetic" k3="1" result="composite2" id="feComposite182" /></filter></defs><g id="surface1" style="filter:url(#filter184)"><path style=" stroke:none;fill-rule:nonzero;fill:url(#linear0);" d="M 15.765625 43.765625 C 10.3125 43.765625 5.902344 48.019531 5.902344 53.265625 C 5.902344 58.515625 10.3125 62.765625 15.765625 62.765625 C 21.210938 62.765625 25.628906 58.515625 25.628906 53.265625 C 25.628906 48.019531 21.210938 43.765625 15.765625 43.765625 Z M 15.765625 48.515625 C 18.488281 48.515625 20.695312 50.644531 20.695312 53.265625 C 20.695312 55.894531 18.488281 58.019531 15.765625 58.019531 C 13.035156 58.019531 10.832031 55.894531 10.832031 53.265625 C 10.832031 50.644531 13.035156 48.515625 15.765625 48.515625 Z M 15.765625 48.515625 "/><path style=" stroke:none;fill-rule:nonzero;fill:url(#linear1);" d="M 15.765625 1.007812 C 10.3125 1.007812 5.902344 5.265625 5.902344 10.511719 C 5.902344 15.757812 10.3125 20.015625 15.765625 20.015625 C 21.210938 20.015625 25.628906 15.757812 25.628906 10.511719 C 25.628906 5.265625 21.210938 1.007812 15.765625 1.007812 Z M 15.765625 5.761719 C 18.488281 5.761719 20.695312 7.886719 20.695312 10.511719 C 20.695312 13.136719 18.488281 15.261719 15.765625 15.261719 C 13.035156 15.261719 10.832031 13.136719 10.832031 10.511719 C 10.832031 7.886719 13.035156 5.761719 15.765625 5.761719 Z M 15.765625 5.761719 "/><path style=" stroke:none;fill-rule:nonzero;fill:url(#linear2);" d="M 10.832031 17.636719 L 10.832031 46.144531 L 20.695312 46.144531 L 20.695312 31.890625 C 22.253906 33.722656 24.296875 35.4375 26.191406 36.625 C 31.21875 39.792969 36.835938 41.390625 42.894531 41.390625 L 42.894531 31.890625 C 38.507812 31.890625 35.191406 30.945312 31.578125 28.671875 C 28.261719 26.585938 24.707031 23.164062 20.695312 18.328125 L 20.695312 17.636719 Z M 10.832031 17.636719 "/><path style=" stroke:none;fill-rule:nonzero;fill:url(#linear3);" d="M 50.289062 27.136719 C 44.84375 27.136719 40.421875 31.394531 40.421875 36.636719 C 40.421875 41.890625 44.84375 46.144531 50.289062 46.144531 C 55.738281 46.144531 60.160156 41.890625 60.160156 36.636719 C 60.160156 31.394531 55.738281 27.136719 50.289062 27.136719 Z M 50.289062 31.890625 C 53.015625 31.890625 55.222656 34.015625 55.222656 36.636719 C 55.222656 39.265625 53.015625 41.390625 50.289062 41.390625 C 47.566406 41.390625 45.355469 39.265625 45.355469 36.636719 C 45.355469 34.015625 47.566406 31.890625 50.289062 31.890625 Z M 50.289062 31.890625 "/></g></svg>
