<svg width="64" height="64" viewBox="0 0 64 64" version="1.1" xmlns:inkscape="http://www.inkscape.org/namespaces/inkscape"><defs><linearGradient id="linear0" gradientUnits="userSpaceOnUse" x1="0" y1="0" x2="0" y2="1" gradientTransform="matrix(67.625777,0,0,72.41382,-0.197029,-4.089794)"><stop offset="0" style="stop-color:rgb(81.960785%,70.980394%,59.215689%);stop-opacity:1;"/><stop offset="1" style="stop-color:rgb(65.098041%,53.725493%,41.568628%);stop-opacity:1;"/></linearGradient><filter style="color-interpolation-filters:sRGB;" inkscape:label="Diffuse Light" id="filter184" x="-0.0375" y="-0.0375" width="1.075" height="1.075"><feGaussianBlur in="SourceGraphic" stdDeviation="1" result="blur" id="feGaussianBlur174" /><feDiffuseLighting diffuseConstant="1" surfaceScale="10" lighting-color="rgb(255,255,255)" result="diffuse" id="feDiffuseLighting178"><feDistantLight elevation="8" azimuth="235" id="feDistantLight176" /></feDiffuseLighting><feComposite in="diffuse" in2="diffuse" operator="arithmetic" k1="1" result="composite1" id="feComposite180" /><feComposite in="composite1" in2="SourceGraphic" k1="1" operator="arithmetic" k3="1" result="composite2" id="feComposite182" /></filter></defs><g id="surface1" style="filter:url(#filter184)"><path style=" stroke:none;fill-rule:nonzero;fill:url(#linear0);" d="M 11.117188 39.214844 C 11.117188 43.703125 13.804688 47.511719 17.554688 48.933594 L 17.554688 63.28125 L 24.011719 63.28125 L 24.011719 48.933594 C 27.765625 47.511719 30.460938 43.703125 30.460938 39.214844 C 30.460938 37.480469 30.054688 35.859375 29.351562 34.429688 L 42.085938 20.84375 C 43.429688 21.601562 44.953125 22.023438 46.570312 22.023438 C 51.917969 22.023438 56.246094 17.40625 56.246094 11.710938 C 56.246094 6.011719 51.917969 1.402344 46.570312 1.402344 C 41.234375 1.402344 36.898438 6.011719 36.898438 11.710938 C 36.898438 13.4375 37.308594 15.074219 38.019531 16.507812 L 25.289062 30.078125 C 24.878906 29.847656 24.449219 29.65625 24.011719 29.496094 L 24.011719 21.4375 C 27.765625 20.019531 30.460938 16.199219 30.460938 11.710938 C 30.460938 6.011719 26.132812 1.402344 20.789062 1.402344 C 15.449219 1.402344 11.117188 6.011719 11.117188 11.710938 C 11.117188 16.199219 13.800781 20.023438 17.554688 21.4375 L 17.554688 29.496094 C 13.800781 30.914062 11.117188 34.722656 11.117188 39.214844 "/></g></svg>
