<svg width="64" height="64" viewBox="0 0 64 64" version="1.1" xmlns:inkscape="http://www.inkscape.org/namespaces/inkscape"><defs><linearGradient id="linear0" gradientUnits="userSpaceOnUse" x1="0" y1="0" x2="0" y2="1" gradientTransform="matrix(64,0,0,58.429687,0,2.785156)"><stop offset="0" style="stop-color:rgb(0%,73.333335%,100%);stop-opacity:1;"/><stop offset="1" style="stop-color:rgb(0%,52.156866%,70.980394%);stop-opacity:1;"/></linearGradient><filter style="color-interpolation-filters:sRGB;" inkscape:label="Diffuse Light" id="filter184" x="-0.0375" y="-0.0375" width="1.075" height="1.075"><feGaussianBlur in="SourceGraphic" stdDeviation="1" result="blur" id="feGaussianBlur174" /><feDiffuseLighting diffuseConstant="1" surfaceScale="10" lighting-color="rgb(255,255,255)" result="diffuse" id="feDiffuseLighting178"><feDistantLight elevation="8" azimuth="235" id="feDistantLight176" /></feDiffuseLighting><feComposite in="diffuse" in2="diffuse" operator="arithmetic" k1="1" result="composite1" id="feComposite180" /><feComposite in="composite1" in2="SourceGraphic" k1="1" operator="arithmetic" k3="1" result="composite2" id="feComposite182" /></filter></defs><g id="surface1" style="filter:url(#filter184)"><path style=" stroke:none;fill-rule:nonzero;fill:url(#linear0);" d="M 50.105469 2.785156 C 49.496094 2.777344 48.953125 3.167969 48.761719 3.742188 L 41.84375 25.042969 L 22.160156 25.042969 L 15.238281 3.742188 C 15.054688 3.183594 14.535156 2.800781 13.945312 2.785156 C 13.355469 2.773438 12.820312 3.132812 12.613281 3.683594 L 4.273438 25.9375 C 4.269531 25.9375 4.269531 25.941406 4.261719 25.945312 L 0.0898438 37.074219 C -0.132812 37.664062 0.0664062 38.324219 0.574219 38.6875 L 31.171875 60.941406 L 31.179688 60.953125 C 31.183594 60.953125 31.183594 60.953125 31.183594 60.957031 L 31.238281 60.988281 C 31.261719 61 31.277344 61.015625 31.300781 61.023438 C 31.304688 61.023438 31.304688 61.03125 31.3125 61.03125 C 31.3125 61.03125 31.316406 61.035156 31.320312 61.035156 C 31.328125 61.042969 31.332031 61.046875 31.34375 61.046875 L 31.363281 61.0625 C 31.390625 61.074219 31.425781 61.09375 31.457031 61.105469 L 31.457031 61.109375 L 31.546875 61.140625 C 31.554688 61.140625 31.554688 61.140625 31.558594 61.144531 C 31.585938 61.152344 31.609375 61.160156 31.632812 61.167969 C 31.640625 61.167969 31.652344 61.171875 31.667969 61.171875 C 31.667969 61.179688 31.667969 61.179688 31.667969 61.171875 C 31.695312 61.183594 31.722656 61.1875 31.746094 61.195312 L 31.859375 61.210938 C 31.914062 61.210938 31.972656 61.214844 32.027344 61.214844 C 32.085938 61.210938 32.132812 61.210938 32.179688 61.199219 C 32.203125 61.199219 32.214844 61.199219 32.238281 61.195312 L 32.253906 61.195312 C 32.261719 61.1875 32.269531 61.1875 32.28125 61.1875 C 32.285156 61.1875 32.289062 61.183594 32.300781 61.183594 C 32.3125 61.179688 32.328125 61.179688 32.335938 61.171875 C 32.355469 61.167969 32.375 61.164062 32.390625 61.15625 C 32.402344 61.15625 32.40625 61.15625 32.410156 61.152344 L 32.433594 61.152344 C 32.480469 61.136719 32.527344 61.117188 32.570312 61.09375 C 32.574219 61.09375 32.574219 61.09375 32.578125 61.085938 C 32.589844 61.085938 32.59375 61.085938 32.601562 61.078125 L 32.632812 61.0625 C 32.660156 61.046875 32.6875 61.03125 32.71875 61.015625 C 32.726562 61.011719 32.730469 61.003906 32.738281 61 C 32.742188 61 32.753906 60.992188 32.757812 60.992188 C 32.78125 60.976562 32.800781 60.96875 32.820312 60.953125 L 32.832031 60.9375 L 63.429688 38.691406 C 63.933594 38.320312 64.132812 37.664062 63.910156 37.074219 L 59.746094 25.984375 C 59.742188 25.972656 59.738281 25.960938 59.734375 25.945312 L 51.390625 3.683594 C 51.1875 3.148438 50.679688 2.792969 50.105469 2.785156 Z M 8.441406 27.828125 L 20.136719 27.828125 L 28.285156 52.890625 Z M 43.863281 27.828125 L 55.558594 27.828125 L 35.714844 52.890625 Z M 6 29.226562 L 24.609375 52.730469 L 3.066406 37.0625 Z M 58 29.226562 L 60.9375 37.0625 L 39.390625 52.730469 Z M 58 29.226562 "/></g></svg>
