<svg width="64" height="64" viewBox="0 0 64 64" version="1.1" xmlns:inkscape="http://www.inkscape.org/namespaces/inkscape"><defs><linearGradient id="linear0" gradientUnits="userSpaceOnUse" x1="0" y1="0" x2="0" y2="1" gradientTransform="matrix(60.625085,0,0,54.352352,1.564861,10.840334)"><stop offset="0" style="stop-color:rgb(100%,63.137257%,63.137257%);stop-opacity:1;"/><stop offset="1" style="stop-color:rgb(100%,27.843139%,27.843139%);stop-opacity:1;"/></linearGradient><linearGradient id="linear1" gradientUnits="userSpaceOnUse" x1="0" y1="0" x2="0" y2="1" gradientTransform="matrix(60.625085,0,0,54.352352,1.564861,10.840334)"><stop offset="0" style="stop-color:rgb(100%,63.137257%,63.137257%);stop-opacity:1;"/><stop offset="1" style="stop-color:rgb(100%,27.843139%,27.843139%);stop-opacity:1;"/></linearGradient><filter style="color-interpolation-filters:sRGB;" inkscape:label="Diffuse Light" id="filter184" x="-0.0375" y="-0.0375" width="1.075" height="1.075"><feGaussianBlur in="SourceGraphic" stdDeviation="1" result="blur" id="feGaussianBlur174" /><feDiffuseLighting diffuseConstant="1" surfaceScale="10" lighting-color="rgb(255,255,255)" result="diffuse" id="feDiffuseLighting178"><feDistantLight elevation="8" azimuth="235" id="feDistantLight176" /></feDiffuseLighting><feComposite in="diffuse" in2="diffuse" operator="arithmetic" k1="1" result="composite1" id="feComposite180" /><feComposite in="composite1" in2="SourceGraphic" k1="1" operator="arithmetic" k3="1" result="composite2" id="feComposite182" /></filter></defs><g id="surface1" style="filter:url(#filter184)"><path style=" stroke:none;fill-rule:nonzero;fill:url(#linear0);" d="M 23.605469 45.402344 L 21.273438 56.640625 L 16.898438 56.640625 L 19.226562 45.402344 L 10.957031 45.402344 L 8.695312 56.640625 L 4.226562 56.640625 L 6.550781 45.402344 L 1.746094 45.402344 L 1.746094 42.042969 L 7.316406 42.042969 L 8.941406 34.199219 L 1.746094 34.199219 L 1.746094 30.839844 L 9.644531 30.839844 L 11.878906 19.988281 L 16.289062 19.988281 L 14.019531 30.839844 L 22.289062 30.839844 L 24.550781 19.988281 L 28.929688 19.988281 L 26.667969 30.839844 L 31.441406 30.839844 L 31.441406 34.199219 L 25.988281 34.199219 L 24.429688 42.042969 L 31.441406 42.042969 L 31.441406 45.402344 Z M 13.320312 34.199219 L 11.695312 42.042969 L 19.957031 42.042969 L 21.613281 34.199219 Z M 0.917969 6.761719 "/><path style=" stroke:none;fill-rule:evenodd;fill:url(#linear1);" d="M 42.160156 17.304688 L 63.027344 17.304688 L 63.027344 57.265625 L 42.160156 57.265625 Z M 42.160156 17.304688 "/></g></svg>
