<svg width="64" height="64" viewBox="0 0 64 64" version="1.1" xmlns:inkscape="http://www.inkscape.org/namespaces/inkscape"><defs><linearGradient id="linear0" gradientUnits="userSpaceOnUse" x1="0" y1="0" x2="0" y2="1" gradientTransform="matrix(69.072529,0,0,45.859369,-1.712588,12.962051)"><stop offset="0" style="stop-color:rgb(87.058824%,86.666667%,56.470591%);stop-opacity:1;"/><stop offset="1" style="stop-color:rgb(67.843139%,67.450982%,38.039216%);stop-opacity:1;"/></linearGradient><linearGradient id="linear1" gradientUnits="userSpaceOnUse" x1="0" y1="0" x2="0" y2="1" gradientTransform="matrix(69.072529,0,0,45.859369,-1.712588,12.962051)"><stop offset="0" style="stop-color:rgb(87.058824%,86.666667%,56.470591%);stop-opacity:1;"/><stop offset="1" style="stop-color:rgb(67.843139%,67.450982%,38.039216%);stop-opacity:1;"/></linearGradient><filter style="color-interpolation-filters:sRGB;" inkscape:label="Diffuse Light" id="filter184" x="-0.0375" y="-0.0375" width="1.075" height="1.075"><feGaussianBlur in="SourceGraphic" stdDeviation="1" result="blur" id="feGaussianBlur174" /><feDiffuseLighting diffuseConstant="1" surfaceScale="10" lighting-color="rgb(255,255,255)" result="diffuse" id="feDiffuseLighting178"><feDistantLight elevation="8" azimuth="235" id="feDistantLight176" /></feDiffuseLighting><feComposite in="diffuse" in2="diffuse" operator="arithmetic" k1="1" result="composite1" id="feComposite180" /><feComposite in="composite1" in2="SourceGraphic" k1="1" operator="arithmetic" k3="1" result="composite2" id="feComposite182" /></filter></defs><g id="surface1" style="filter:url(#filter184)"><path style=" stroke:none;fill-rule:nonzero;fill:url(#linear0);" d="M 56.371094 43.894531 C 57.929688 43.894531 58.5 44.710938 58.5 46.964844 L 58.5 53.113281 L 32.9375 62.335938 L 7.378906 53.113281 L 7.378906 46.964844 C 7.378906 44.710938 7.953125 43.894531 9.507812 43.894531 "/><path style=" stroke:none;fill-rule:nonzero;fill:url(#linear1);" d="M 12.125 1.859375 C 9.300781 1.859375 7.027344 3.375 7.027344 5.257812 L 7.027344 8.65625 C 7.027344 10.535156 9.300781 12.054688 12.125 12.054688 L 52.910156 12.054688 C 55.738281 12.054688 58.011719 10.535156 58.011719 8.65625 L 58.011719 5.257812 C 58.011719 3.375 55.738281 1.859375 52.910156 1.859375 Z M 12.125 15.453125 C 9.300781 15.453125 7.027344 16.96875 7.027344 18.851562 L 7.027344 22.25 C 7.027344 24.136719 9.300781 25.648438 12.125 25.648438 L 52.910156 25.648438 C 55.738281 25.648438 58.011719 24.136719 58.011719 22.25 L 58.011719 18.851562 C 58.011719 16.96875 55.738281 15.453125 52.910156 15.453125 Z M 12.125 29.050781 C 9.300781 29.050781 7.027344 30.5625 7.027344 32.449219 L 7.027344 35.847656 C 7.027344 37.726562 9.300781 39.246094 12.125 39.246094 L 52.910156 39.246094 C 55.738281 39.246094 58.011719 37.726562 58.011719 35.847656 L 58.011719 32.449219 C 58.011719 30.5625 55.738281 29.050781 52.910156 29.050781 Z M 12.125 29.050781 "/></g></svg>
