<svg width="64" height="64" viewBox="0 0 64 64" version="1.1" xmlns:inkscape="http://www.inkscape.org/namespaces/inkscape"><defs><linearGradient id="linear0" gradientUnits="userSpaceOnUse" x1="0" y1="0" x2="0" y2="1" gradientTransform="matrix(65.901259,0,0,66.663248,-0.989698,-0.953721)"><stop offset="0" style="stop-color:rgb(75.686276%,77.64706%,83.92157%);stop-opacity:1;"/><stop offset="1" style="stop-color:rgb(43.529412%,45.09804%,50.196081%);stop-opacity:1;"/></linearGradient><filter style="color-interpolation-filters:sRGB;" inkscape:label="Diffuse Light" id="filter184" x="-0.0375" y="-0.0375" width="1.075" height="1.075"><feGaussianBlur in="SourceGraphic" stdDeviation="1" result="blur" id="feGaussianBlur174" /><feDiffuseLighting diffuseConstant="1" surfaceScale="10" lighting-color="rgb(255,255,255)" result="diffuse" id="feDiffuseLighting178"><feDistantLight elevation="8" azimuth="235" id="feDistantLight176" /></feDiffuseLighting><feComposite in="diffuse" in2="diffuse" operator="arithmetic" k1="1" result="composite1" id="feComposite180" /><feComposite in="composite1" in2="SourceGraphic" k1="1" operator="arithmetic" k3="1" result="composite2" id="feComposite182" /></filter></defs><g id="surface1" style="filter:url(#filter184)"><path style=" stroke:none;fill-rule:nonzero;fill:url(#linear0);" d="M 10.035156 1.953125 C 9.667969 1.972656 9.375 2.253906 9.285156 2.632812 C 9.167969 3.136719 9.515625 3.679688 10.035156 3.851562 L 46.128906 16.160156 L 13.183594 16.160156 C 8.085938 16.160156 3.980469 20.519531 3.980469 25.871094 L 3.980469 53.554688 C 3.980469 58.90625 8.085938 63.222656 13.183594 63.222656 L 50.875 63.222656 C 55.96875 63.222656 60.074219 58.90625 60.074219 53.554688 L 60.074219 25.871094 C 60.074219 22.425781 58.375 19.382812 55.804688 17.675781 C 55.675781 17.527344 55.480469 17.394531 55.289062 17.332031 L 55.144531 17.285156 C 54.261719 16.804688 53.292969 16.464844 52.277344 16.308594 L 10.460938 2 C 10.328125 1.953125 10.164062 1.949219 10.035156 1.953125 M 31.71875 24.414062 C 40.347656 24.414062 47.308594 31.332031 47.308594 39.929688 C 47.308594 48.53125 40.347656 55.453125 31.71875 55.453125 C 23.097656 55.453125 16.140625 48.53125 16.140625 39.929688 C 16.140625 31.332031 23.097656 24.414062 31.71875 24.414062 "/></g></svg>
