<svg width="64" height="64" viewBox="0 0 64 64" version="1.1" xmlns:inkscape="http://www.inkscape.org/namespaces/inkscape"><defs><linearGradient id="linear0" gradientUnits="userSpaceOnUse" x1="0" y1="0" x2="0" y2="1" gradientTransform="matrix(61.234375,0,0,64,1.382812,0)"><stop offset="0" style="stop-color:rgb(100%,63.137257%,63.137257%);stop-opacity:1;"/><stop offset="1" style="stop-color:rgb(100%,27.843139%,27.843139%);stop-opacity:1;"/></linearGradient><filter style="color-interpolation-filters:sRGB;" inkscape:label="Diffuse Light" id="filter184" x="-0.0375" y="-0.0375" width="1.075" height="1.075"><feGaussianBlur in="SourceGraphic" stdDeviation="1" result="blur" id="feGaussianBlur174" /><feDiffuseLighting diffuseConstant="1" surfaceScale="10" lighting-color="rgb(255,255,255)" result="diffuse" id="feDiffuseLighting178"><feDistantLight elevation="8" azimuth="235" id="feDistantLight176" /></feDiffuseLighting><feComposite in="diffuse" in2="diffuse" operator="arithmetic" k1="1" result="composite1" id="feComposite180" /><feComposite in="composite1" in2="SourceGraphic" k1="1" operator="arithmetic" k3="1" result="composite2" id="feComposite182" /></filter></defs><g id="surface1" style="filter:url(#filter184)"><path style=" stroke:none;fill-rule:evenodd;fill:url(#linear0);" d="M 32 0 C 17.460938 0 5.304688 9.625 1.382812 22.855469 L 62.617188 22.855469 C 58.695312 9.625 46.539062 0 32 0 Z M 1.382812 41.144531 C 5.308594 54.375 17.460938 64 32 64 C 46.539062 64 58.695312 54.375 62.617188 41.144531 Z M 25.144531 32 C 25.144531 28.214844 28.214844 25.144531 32 25.144531 C 35.785156 25.144531 38.855469 28.214844 38.855469 32 C 38.855469 35.785156 35.785156 38.855469 32 38.855469 C 28.214844 38.855469 25.144531 35.785156 25.144531 32 Z M 41.144531 32 C 41.144531 28.214844 44.214844 25.144531 48 25.144531 C 51.785156 25.144531 54.855469 28.214844 54.855469 32 C 54.855469 35.785156 51.785156 38.855469 48 38.855469 C 44.214844 38.855469 41.144531 35.785156 41.144531 32 Z M 9.140625 32 C 9.140625 28.214844 12.210938 25.144531 15.996094 25.144531 C 19.785156 25.144531 22.855469 28.214844 22.855469 32 C 22.855469 35.785156 19.785156 38.855469 15.996094 38.855469 C 12.210938 38.855469 9.140625 35.785156 9.140625 32 Z M 9.140625 32 "/></g></svg>
