<svg xmlns="http://www.w3.org/2000/svg" xmlns:xlink="http://www.w3.org/1999/xlink" width="64" height="64" viewBox="0 0 64 64" version="1.1"><g id="surface1"><path style=" stroke:none;fill-rule:nonzero;fill:rgb(69.01961%,60.000002%,89.019608%);fill-opacity:1;" d="M 32.421875 47.925781 L 32.421875 63.363281 C 40.835938 63.363281 47.660156 56.449219 47.660156 47.925781 Z M 32.421875 47.925781 "/><path style=" stroke:none;fill-rule:nonzero;fill:rgb(93.333334%,49.803922%,1.960784%);fill-opacity:1;" d="M 32.421875 32.488281 L 32.421875 17.050781 C 40.835938 17.050781 47.660156 23.964844 47.660156 32.488281 Z M 32.421875 32.488281 "/><path style=" stroke:none;fill-rule:nonzero;fill:rgb(92.156863%,43.921569%,20%);fill-opacity:1;" d="M 17.1875 63.363281 L 14.648438 55.644531 L 17.1875 47.925781 C 25.601562 47.925781 32.421875 54.839844 32.421875 63.363281 Z M 17.1875 63.363281 "/><path style=" stroke:none;fill-rule:nonzero;fill:rgb(95.294118%,45.09804%,36.078432%);fill-opacity:1;" d="M 17.1875 47.925781 L 17.1875 63.363281 C 8.769531 63.363281 1.949219 56.449219 1.949219 47.925781 L 9.566406 45.355469 Z M 17.1875 47.925781 "/><path style=" stroke:none;fill-rule:nonzero;fill:rgb(97.254902%,65.098041%,34.117648%);fill-opacity:1;" d="M 17.1875 47.925781 L 19.722656 40.207031 L 17.1875 32.488281 C 8.769531 32.488281 1.949219 39.402344 1.949219 47.925781 Z M 17.1875 47.925781 "/><path style=" stroke:none;fill-rule:nonzero;fill:rgb(96.078432%,60.000002%,27.058825%);fill-opacity:1;" d="M 17.1875 32.488281 L 17.1875 47.925781 C 25.601562 47.925781 32.421875 41.015625 32.421875 32.488281 Z M 17.1875 32.488281 "/><path style=" stroke:none;fill-rule:nonzero;fill:rgb(25.882354%,81.176472%,56.078434%);fill-opacity:1;" d="M 17.1875 17.050781 L 17.1875 32.488281 C 21.226562 32.480469 25.09375 30.855469 27.953125 27.960938 L 24.804688 19.621094 Z M 17.1875 17.050781 "/><path style=" stroke:none;fill-rule:nonzero;fill:rgb(34.901962%,61.960787%,90.196079%);fill-opacity:1;" d="M 17.1875 17.050781 L 27.953125 27.960938 C 30.808594 25.066406 32.414062 21.144531 32.421875 17.050781 Z M 17.1875 17.050781 "/><path style=" stroke:none;fill-rule:nonzero;fill:rgb(78.039217%,40.784314%,72.941178%);fill-opacity:1;" d="M 17.1875 1.617188 L 32.421875 1.617188 L 17.1875 17.050781 L 1.949219 17.050781 Z M 17.1875 1.617188 "/><path style=" stroke:none;fill-rule:nonzero;fill:rgb(61.960787%,43.921569%,29.019609%);fill-opacity:1;" d="M 47.660156 32.488281 L 62.894531 32.488281 L 62.894531 47.925781 L 47.660156 47.925781 Z M 47.660156 32.488281 "/></g></svg>
