<svg width="64" height="64" viewBox="0 0 64 64" version="1.1" xmlns:inkscape="http://www.inkscape.org/namespaces/inkscape"><defs><linearGradient id="linear0" gradientUnits="userSpaceOnUse" x1="0" y1="128" x2="128" y2="0" gradientTransform="matrix(0.60821,0,0,0.59178,-6.927803,-6.100751)"><stop offset="0" style="stop-color:rgb(0%,78.823531%,36.862746%);stop-opacity:1;"/><stop offset="1" style="stop-color:rgb(0%,54.11765%,25.098041%);stop-opacity:1;"/></linearGradient><filter style="color-interpolation-filters:sRGB;" inkscape:label="Diffuse Light" id="filter184" x="-0.0375" y="-0.0375" width="1.075" height="1.075"><feGaussianBlur in="SourceGraphic" stdDeviation="1" result="blur" id="feGaussianBlur174" /><feDiffuseLighting diffuseConstant="1" surfaceScale="10" lighting-color="rgb(255,255,255)" result="diffuse" id="feDiffuseLighting178"><feDistantLight elevation="8" azimuth="235" id="feDistantLight176" /></feDiffuseLighting><feComposite in="diffuse" in2="diffuse" operator="arithmetic" k1="1" result="composite1" id="feComposite180" /><feComposite in="composite1" in2="SourceGraphic" k1="1" operator="arithmetic" k3="1" result="composite2" id="feComposite182" /></filter></defs><g id="surface1" style="filter:url(#filter184)"><path style=" stroke:none;fill-rule:nonzero;fill:url(#linear0);" d="M 31.074219 1.414062 L 31.074219 10.621094 L 48.941406 10.621094 L 30.34375 28.730469 L 30.34375 31.632812 L 38.601562 31.632812 C 39.871094 31.632812 40.902344 32.640625 40.910156 33.878906 L 40.910156 37.011719 L 62.820312 37.011719 L 62.820312 28.417969 L 44.113281 28.417969 L 62.820312 10.226562 L 62.820312 1.414062 Z M 15.664062 33.878906 L 15.664062 40.523438 L 28.582031 40.523438 L 15.136719 53.597656 L 15.136719 59.570312 L 38.601562 59.570312 L 38.601562 53.375 L 25.085938 53.375 L 38.601562 40.226562 L 38.601562 33.878906 Z M 1.460938 48.503906 L 1.460938 52.015625 L 8.289062 52.015625 L 1.175781 58.945312 L 1.175781 62.132812 L 13.597656 62.132812 L 13.597656 58.828125 L 6.445312 58.828125 L 13.597656 51.871094 L 13.597656 48.503906 Z M 1.460938 48.503906 "/></g></svg>
