<svg width="64" height="64" viewBox="0 0 64 64" version="1.1" xmlns:inkscape="http://www.inkscape.org/namespaces/inkscape"><defs><linearGradient id="linear0" gradientUnits="userSpaceOnUse" x1="0" y1="0" x2="0" y2="1" gradientTransform="matrix(32.003906,0,0,32.003906,0,32)"><stop offset="0" style="stop-color:rgb(100%,73.333335%,0%);stop-opacity:1;"/><stop offset="1" style="stop-color:rgb(70.19608%,51.372552%,0%);stop-opacity:1;"/></linearGradient><linearGradient id="linear1" gradientUnits="userSpaceOnUse" x1="0" y1="0" x2="0" y2="1" gradientTransform="matrix(32.003906,0,0,32.003906,32,0)"><stop offset="0" style="stop-color:rgb(100%,73.333335%,0%);stop-opacity:1;"/><stop offset="1" style="stop-color:rgb(70.19608%,51.372552%,0%);stop-opacity:1;"/></linearGradient><linearGradient id="linear2" gradientUnits="userSpaceOnUse" x1="0" y1="0" x2="0" y2="1" gradientTransform="matrix(18.289062,0,0,18.285156,7.640625,7.601562)"><stop offset="0" style="stop-color:rgb(100%,73.333335%,0%);stop-opacity:1;"/><stop offset="1" style="stop-color:rgb(70.19608%,51.372552%,0%);stop-opacity:1;"/></linearGradient><linearGradient id="linear3" gradientUnits="userSpaceOnUse" x1="0" y1="0" x2="0" y2="1" gradientTransform="matrix(18.285156,0,0,18.289062,38.121094,38.078125)"><stop offset="0" style="stop-color:rgb(100%,73.333335%,0%);stop-opacity:1;"/><stop offset="1" style="stop-color:rgb(70.19608%,51.372552%,0%);stop-opacity:1;"/></linearGradient><filter style="color-interpolation-filters:sRGB;" inkscape:label="Diffuse Light" id="filter184" x="-0.0375" y="-0.0375" width="1.075" height="1.075"><feGaussianBlur in="SourceGraphic" stdDeviation="1" result="blur" id="feGaussianBlur174" /><feDiffuseLighting diffuseConstant="1" surfaceScale="10" lighting-color="rgb(255,255,255)" result="diffuse" id="feDiffuseLighting178"><feDistantLight elevation="8" azimuth="235" id="feDistantLight176" /></feDiffuseLighting><feComposite in="diffuse" in2="diffuse" operator="arithmetic" k1="1" result="composite1" id="feComposite180" /><feComposite in="composite1" in2="SourceGraphic" k1="1" operator="arithmetic" k3="1" result="composite2" id="feComposite182" /></filter></defs><g id="surface1" style="filter:url(#filter184)"><path style=" stroke:none;fill-rule:nonzero;fill:url(#linear0);" d="M 4.570312 32 L 27.433594 32 C 29.957031 32 32.003906 34.046875 32.003906 36.570312 L 32.003906 59.433594 C 32.003906 61.957031 29.957031 64.003906 27.433594 64.003906 L 4.570312 64.003906 C 2.046875 64.003906 0 61.957031 0 59.433594 L 0 36.570312 C 0 34.046875 2.046875 32 4.570312 32 Z M 4.570312 32 "/><path style=" stroke:none;fill-rule:nonzero;fill:url(#linear1);" d="M 36.570312 0 L 59.433594 0 C 61.957031 0 64.003906 2.046875 64.003906 4.570312 L 64.003906 27.433594 C 64.003906 29.957031 61.957031 32.003906 59.433594 32.003906 L 36.570312 32.003906 C 34.046875 32.003906 32 29.957031 32 27.433594 L 32 4.570312 C 32 2.046875 34.046875 0 36.570312 0 Z M 36.570312 0 "/><path style=" stroke:none;fill-rule:nonzero;fill:url(#linear2);" d="M 9.929688 7.601562 L 23.640625 7.601562 C 24.902344 7.601562 25.929688 8.625 25.929688 9.886719 L 25.929688 23.601562 C 25.929688 24.863281 24.902344 25.886719 23.640625 25.886719 L 9.929688 25.886719 C 8.664062 25.886719 7.640625 24.863281 7.640625 23.601562 L 7.640625 9.886719 C 7.640625 8.625 8.664062 7.601562 9.929688 7.601562 Z M 9.929688 7.601562 "/><path style=" stroke:none;fill-rule:nonzero;fill:url(#linear3);" d="M 40.40625 38.078125 L 54.121094 38.078125 C 55.382812 38.078125 56.40625 39.105469 56.40625 40.367188 L 56.40625 54.078125 C 56.40625 55.34375 55.382812 56.367188 54.121094 56.367188 L 40.40625 56.367188 C 39.144531 56.367188 38.121094 55.34375 38.121094 54.078125 L 38.121094 40.367188 C 38.121094 39.105469 39.144531 38.078125 40.40625 38.078125 Z M 40.40625 38.078125 "/></g></svg>
