<svg width="64" height="64" viewBox="0 0 64 64" version="1.1" xmlns:inkscape="http://www.inkscape.org/namespaces/inkscape"><defs><linearGradient id="linear0" gradientUnits="userSpaceOnUse" x1="0" y1="0" x2="0" y2="1" gradientTransform="matrix(62.737008,0,0,63.993494,0.636035,-0.180659)"><stop offset="0" style="stop-color:rgb(0%,96.078432%,86.274511%);stop-opacity:1;"/><stop offset="1" style="stop-color:rgb(0%,54.901963%,49.411765%);stop-opacity:1;"/></linearGradient><filter style="color-interpolation-filters:sRGB;" inkscape:label="Diffuse Light" id="filter184" x="-0.0375" y="-0.0375" width="1.075" height="1.075"><feGaussianBlur in="SourceGraphic" stdDeviation="1" result="blur" id="feGaussianBlur174" /><feDiffuseLighting diffuseConstant="1" surfaceScale="10" lighting-color="rgb(255,255,255)" result="diffuse" id="feDiffuseLighting178"><feDistantLight elevation="8" azimuth="235" id="feDistantLight176" /></feDiffuseLighting><feComposite in="diffuse" in2="diffuse" operator="arithmetic" k1="1" result="composite1" id="feComposite180" /><feComposite in="composite1" in2="SourceGraphic" k1="1" operator="arithmetic" k3="1" result="composite2" id="feComposite182" /></filter></defs><g id="surface1" style="filter:url(#filter184)"><path style=" stroke:none;fill-rule:nonzero;fill:url(#linear0);" d="M 3.035156 8.414062 L 3.035156 12.875 L 63.3125 12.875 L 63.3125 8.414062 Z M 20.078125 19.019531 L 20.078125 36.097656 L 36.898438 36.097656 C 36.898438 26.667969 29.375 19.019531 20.078125 19.019531 M 42.667969 19.082031 L 42.667969 23.550781 L 63.3125 23.550781 L 63.3125 19.082031 L 42.675781 19.082031 M 17.644531 21.457031 C 8.355469 21.457031 0.832031 29.09375 0.832031 38.535156 C 0.832031 47.96875 8.351562 55.617188 17.644531 55.617188 C 26.933594 55.617188 34.472656 47.976562 34.472656 38.535156 L 17.648438 38.535156 L 17.648438 21.457031 M 42.675781 29.753906 L 42.675781 34.21875 L 63.316406 34.21875 L 63.316406 29.753906 L 42.675781 29.753906 M 42.675781 40.421875 L 42.675781 44.882812 L 63.316406 44.882812 L 63.316406 40.421875 L 42.679688 40.421875 M 42.679688 51.085938 L 42.679688 55.550781 L 63.324219 55.550781 L 63.324219 51.085938 L 42.679688 51.085938 "/></g></svg>
