<svg width="64" height="64" viewBox="0 0 64 64" version="1.1" xmlns:inkscape="http://www.inkscape.org/namespaces/inkscape"><defs><linearGradient id="linear0" gradientUnits="userSpaceOnUse" x1="0" y1="0" x2="0" y2="1" gradientTransform="matrix(73.055965,0,0,63.426472,-4.267483,-1.119151)"><stop offset="0" style="stop-color:rgb(100%,56.862748%,82.745099%);stop-opacity:1;"/><stop offset="1" style="stop-color:rgb(100%,0%,60.000002%);stop-opacity:1;"/></linearGradient><linearGradient id="linear1" gradientUnits="userSpaceOnUse" x1="0" y1="0" x2="0" y2="1" gradientTransform="matrix(73.055965,0,0,63.426472,-4.267483,-1.119151)"><stop offset="0" style="stop-color:rgb(100%,56.862748%,82.745099%);stop-opacity:1;"/><stop offset="1" style="stop-color:rgb(100%,0%,60.000002%);stop-opacity:1;"/></linearGradient><linearGradient id="linear2" gradientUnits="userSpaceOnUse" x1="0" y1="0" x2="0" y2="1" gradientTransform="matrix(73.055965,0,0,63.426472,-4.267483,-1.119151)"><stop offset="0" style="stop-color:rgb(100%,56.862748%,82.745099%);stop-opacity:1;"/><stop offset="1" style="stop-color:rgb(100%,0%,60.000002%);stop-opacity:1;"/></linearGradient><linearGradient id="linear3" gradientUnits="userSpaceOnUse" x1="0" y1="0" x2="0" y2="1" gradientTransform="matrix(73.055965,0,0,63.426472,-4.267483,-1.119151)"><stop offset="0" style="stop-color:rgb(100%,56.862748%,82.745099%);stop-opacity:1;"/><stop offset="1" style="stop-color:rgb(100%,0%,60.000002%);stop-opacity:1;"/></linearGradient><filter style="color-interpolation-filters:sRGB;" inkscape:label="Diffuse Light" id="filter184" x="-0.0375" y="-0.0375" width="1.075" height="1.075"><feGaussianBlur in="SourceGraphic" stdDeviation="1" result="blur" id="feGaussianBlur174" /><feDiffuseLighting diffuseConstant="1" surfaceScale="10" lighting-color="rgb(255,255,255)" result="diffuse" id="feDiffuseLighting178"><feDistantLight elevation="8" azimuth="235" id="feDistantLight176" /></feDiffuseLighting><feComposite in="diffuse" in2="diffuse" operator="arithmetic" k1="1" result="composite1" id="feComposite180" /><feComposite in="composite1" in2="SourceGraphic" k1="1" operator="arithmetic" k3="1" result="composite2" id="feComposite182" /></filter></defs><g id="surface1" style="filter:url(#filter184)"><path style=" stroke:none;fill-rule:nonzero;fill:url(#linear0);" d="M 27.351562 29.582031 L 2.851562 10.863281 C 1.910156 10.144531 1.824219 8.910156 2.648438 8.101562 C 3.480469 7.285156 4.910156 7.210938 5.84375 7.929688 L 30.347656 26.648438 C 31.285156 27.363281 31.378906 28.597656 30.546875 29.410156 C 29.71875 30.222656 28.296875 30.296875 27.351562 29.582031 Z M 27.351562 29.582031 "/><path style=" stroke:none;fill-rule:nonzero;fill:url(#linear1);" d="M 29.578125 27.667969 L 58.171875 2.953125 C 59.136719 2.121094 60.699219 2.121094 61.667969 2.953125 C 62.632812 3.792969 62.632812 5.140625 61.667969 5.976562 L 33.074219 30.695312 C 32.101562 31.53125 30.542969 31.53125 29.578125 30.695312 C 28.605469 29.859375 28.605469 28.511719 29.578125 27.667969 Z M 29.578125 27.667969 "/><path style=" stroke:none;fill-rule:nonzero;fill:url(#linear2);" d="M 11.398438 61.363281 L 28.902344 33.5 C 29.222656 33 29.925781 32.839844 30.480469 33.132812 C 31.039062 33.429688 31.234375 34.070312 30.925781 34.570312 L 13.417969 62.429688 C 13.105469 62.929688 12.402344 63.089844 11.847656 62.796875 C 11.289062 62.503906 11.089844 61.863281 11.398438 61.363281 Z M 11.398438 61.363281 "/><path style=" stroke:none;fill-rule:nonzero;fill:url(#linear3);" d="M 36.578125 30.1875 C 36.578125 32.550781 34.367188 34.464844 31.628906 34.464844 C 28.898438 34.464844 26.679688 32.550781 26.679688 30.1875 C 26.679688 27.824219 28.898438 25.910156 31.628906 25.910156 C 34.367188 25.910156 36.578125 27.824219 36.578125 30.1875 "/></g></svg>
