<svg width="64" height="64" viewBox="0 0 64 64" version="1.1" xmlns:inkscape="http://www.inkscape.org/namespaces/inkscape"><defs><linearGradient id="linear0" gradientUnits="userSpaceOnUse" x1="0" y1="0" x2="0" y2="1" gradientTransform="matrix(69.57694,0,0,39.93318,1.274818,9.748979)"><stop offset="0" style="stop-color:rgb(82.352942%,61.176473%,100%);stop-opacity:1;"/><stop offset="1" style="stop-color:rgb(66.666669%,0%,100%);stop-opacity:1;"/></linearGradient><linearGradient id="linear1" gradientUnits="userSpaceOnUse" x1="0" y1="0" x2="0" y2="1" gradientTransform="matrix(69.57694,0,0,39.93318,1.274818,9.748979)"><stop offset="0" style="stop-color:rgb(82.352942%,61.176473%,100%);stop-opacity:1;"/><stop offset="1" style="stop-color:rgb(66.666669%,0%,100%);stop-opacity:1;"/></linearGradient><filter style="color-interpolation-filters:sRGB;" inkscape:label="Diffuse Light" id="filter184" x="-0.0375" y="-0.0375" width="1.075" height="1.075"><feGaussianBlur in="SourceGraphic" stdDeviation="1" result="blur" id="feGaussianBlur174" /><feDiffuseLighting diffuseConstant="1" surfaceScale="10" lighting-color="rgb(255,255,255)" result="diffuse" id="feDiffuseLighting178"><feDistantLight elevation="8" azimuth="235" id="feDistantLight176" /></feDiffuseLighting><feComposite in="diffuse" in2="diffuse" operator="arithmetic" k1="1" result="composite1" id="feComposite180" /><feComposite in="composite1" in2="SourceGraphic" k1="1" operator="arithmetic" k3="1" result="composite2" id="feComposite182" /></filter></defs><g id="surface1" style="filter:url(#filter184)"><path style=" stroke:none;fill-rule:nonzero;fill:url(#linear0);" d="M 56.613281 1.457031 C 50.09375 6.195312 45.75 15.667969 45.75 44.078125 L 50.09375 44.078125 L 50.09375 60.648438 C 50.09375 61.960938 52.269531 63.019531 52.269531 63.019531 L 54.4375 63.019531 C 54.4375 63.019531 56.613281 61.960938 56.613281 60.648438 Z M 6.652344 6.195312 L 6.652344 36.972656 L 43.578125 6.195312 Z M 21.859375 34.609375 L 19.683594 36.972656 L 15.339844 36.972656 L 17.886719 39.753906 C 11.257812 41.148438 6.652344 45.832031 6.652344 51.179688 C 6.652344 57.714844 13.457031 63.019531 21.859375 63.019531 C 30.253906 63.019531 37.0625 57.714844 37.0625 51.179688 C 37.0625 46.175781 33.019531 41.714844 26.96875 40.03125 L 28.371094 36.972656 L 26.203125 34.609375 L 26.203125 36.972656 L 24.027344 39.339844 L 24.027344 36.972656 Z M 21.859375 34.609375 "/><path style=" stroke:none;fill-rule:nonzero;fill:url(#linear1);" d="M 49.316406 35.648438 L 50.972656 34.164062 L 54.289062 35.648438 L 54.289062 37.132812 L 49.316406 37.132812 Z M 49.316406 35.648438 "/></g></svg>
