<svg width="64" height="64" viewBox="0 0 64 64" version="1.1" xmlns:inkscape="http://www.inkscape.org/namespaces/inkscape"><defs><linearGradient id="linear0" gradientUnits="userSpaceOnUse" x1="0" y1="0" x2="0" y2="1" gradientTransform="matrix(75.126072,0,0,47.798498,-5.762393,5.696107)"><stop offset="0" style="stop-color:rgb(100%,73.333335%,0%);stop-opacity:1;"/><stop offset="1" style="stop-color:rgb(70.19608%,51.372552%,0%);stop-opacity:1;"/></linearGradient><filter style="color-interpolation-filters:sRGB;" inkscape:label="Diffuse Light" id="filter184" x="-0.0375" y="-0.0375" width="1.075" height="1.075"><feGaussianBlur in="SourceGraphic" stdDeviation="1" result="blur" id="feGaussianBlur174" /><feDiffuseLighting diffuseConstant="1" surfaceScale="10" lighting-color="rgb(255,255,255)" result="diffuse" id="feDiffuseLighting178"><feDistantLight elevation="8" azimuth="235" id="feDistantLight176" /></feDiffuseLighting><feComposite in="diffuse" in2="diffuse" operator="arithmetic" k1="1" result="composite1" id="feComposite180" /><feComposite in="composite1" in2="SourceGraphic" k1="1" operator="arithmetic" k3="1" result="composite2" id="feComposite182" /></filter></defs><g id="surface1" style="filter:url(#filter184)"><path style=" stroke:none;fill-rule:nonzero;fill:url(#linear0);" d="M 11.925781 6.675781 C 6.285156 6.675781 1.746094 11.277344 1.746094 16.988281 L 1.746094 22.148438 L 9.382812 22.148438 L 9.382812 16.988281 C 9.382812 15.5625 10.515625 14.40625 11.925781 14.40625 L 17.011719 14.40625 L 17.011719 6.675781 Z M 22.101562 6.675781 L 22.101562 14.40625 L 29.730469 14.40625 L 29.730469 6.675781 Z M 1.746094 27.300781 L 1.746094 42.769531 L 9.382812 42.769531 L 9.382812 27.300781 Z M 34.820312 1.519531 L 34.820312 63.390625 L 62.796875 42.769531 L 62.796875 1.519531 Z M 1.746094 47.925781 L 1.746094 53.082031 C 1.746094 58.792969 6.285156 63.390625 11.925781 63.390625 L 17.011719 63.390625 L 17.011719 55.660156 L 11.925781 55.660156 C 10.515625 55.660156 9.382812 54.507812 9.382812 53.082031 L 9.382812 47.925781 Z M 22.101562 55.660156 L 22.101562 63.390625 L 29.730469 63.390625 L 29.730469 55.660156 Z M 22.101562 55.660156 "/></g></svg>
