<svg width="64" height="64" viewBox="0 0 64 64" version="1.1" xmlns:inkscape="http://www.inkscape.org/namespaces/inkscape"><defs><linearGradient id="linear0" gradientUnits="userSpaceOnUse" x1="0" y1="128" x2="128" y2="0" gradientTransform="matrix(0.542766,0,0,0.589406,-2.450448,-5.727038)"><stop offset="0" style="stop-color:rgb(100%,56.862748%,82.745099%);stop-opacity:1;"/><stop offset="1" style="stop-color:rgb(100%,0%,60.000002%);stop-opacity:1;"/></linearGradient><filter style="color-interpolation-filters:sRGB;" inkscape:label="Diffuse Light" id="filter184" x="-0.0375" y="-0.0375" width="1.075" height="1.075"><feGaussianBlur in="SourceGraphic" stdDeviation="1" result="blur" id="feGaussianBlur174" /><feDiffuseLighting diffuseConstant="1" surfaceScale="10" lighting-color="rgb(255,255,255)" result="diffuse" id="feDiffuseLighting178"><feDistantLight elevation="8" azimuth="235" id="feDistantLight176" /></feDiffuseLighting><feComposite in="diffuse" in2="diffuse" operator="arithmetic" k1="1" result="composite1" id="feComposite180" /><feComposite in="composite1" in2="SourceGraphic" k1="1" operator="arithmetic" k3="1" result="composite2" id="feComposite182" /></filter></defs><g id="surface1" style="filter:url(#filter184)"><path style=" stroke:none;fill-rule:nonzero;fill:url(#linear0);" d="M 9.183594 1.390625 C 5 1.390625 1.550781 5.132812 1.550781 9.679688 L 1.550781 54.308594 C 1.550781 58.855469 5 62.597656 9.183594 62.597656 L 55.390625 62.597656 C 59.570312 62.597656 63.023438 58.855469 63.023438 54.308594 L 63.023438 9.679688 C 63.023438 5.132812 59.570312 1.390625 55.390625 1.390625 Z M 9.183594 7.285156 L 55.390625 7.285156 C 56.660156 7.285156 57.59375 8.296875 57.59375 9.679688 L 57.59375 54.308594 C 57.59375 55.691406 56.660156 56.703125 55.390625 56.703125 L 9.183594 56.703125 C 7.914062 56.703125 6.976562 55.691406 6.976562 54.308594 L 6.976562 9.679688 C 6.976562 8.296875 7.914062 7.285156 9.183594 7.285156 Z M 11.714844 12.144531 L 11.714844 29.460938 L 29.914062 29.460938 L 29.914062 12.144531 Z M 34.660156 12.144531 L 34.660156 29.460938 L 52.859375 29.460938 L 52.859375 12.144531 Z M 13.84375 14.617188 L 27.589844 14.617188 L 27.589844 26.480469 L 13.84375 26.480469 Z M 14.722656 16.953125 L 14.722656 25.667969 L 26.6875 25.667969 L 26.6875 16.953125 Z M 11.714844 34.546875 L 11.714844 51.859375 L 29.914062 51.859375 L 29.914062 34.546875 Z M 34.660156 34.546875 L 34.660156 51.859375 L 52.859375 51.859375 L 52.859375 34.546875 Z M 34.660156 34.546875 "/></g></svg>
