<?xml version="1.0" encoding="UTF-8" standalone="no"?><svg width="64" height="64" viewBox="0 0 64 64" version="1.1" id="svg15" sodipodi:docname="gnubiff.svg" inkscape:version="1.2.2 (b0a8486541, 2022-12-01)" xmlns:inkscape="http://www.inkscape.org/namespaces/inkscape" xmlns:sodipodi="http://sodipodi.sourceforge.net/DTD/sodipodi-0.dtd" xmlns="http://www.w3.org/2000/svg" xmlns:svg="http://www.w3.org/2000/svg"> <defs id="defs19"> <filter style="color-interpolation-filters:sRGB;" inkscape:label="Diffuse Light" id="filter189" x="-0.16042573" y="-0.12962475" width="1.3208515" height="1.2592495"> <feGaussianBlur in="SourceGraphic" stdDeviation="3.45666" result="blur" id="feGaussianBlur179" /> <feDiffuseLighting diffuseConstant="1" surfaceScale="10" lighting-color="rgb(255,255,255)" result="diffuse" id="feDiffuseLighting183"> <feDistantLight elevation="8" azimuth="245" id="feDistantLight181" /> </feDiffuseLighting> <feComposite in="diffuse" in2="diffuse" operator="arithmetic" k1="1" result="composite1" id="feComposite185" /> <feComposite in="composite1" in2="SourceGraphic" k1="1" operator="arithmetic" k3="1" result="composite2" id="feComposite187" /> </filter> </defs> <sodipodi:namedview id="namedview17" pagecolor="#ffffff" bordercolor="#000000" borderopacity="0.25" inkscape:showpageshadow="2" inkscape:pageopacity="0.0" inkscape:pagecheckerboard="0" inkscape:deskcolor="#d1d1d1" showgrid="false" inkscape:zoom="3.6875" inkscape:cx="32" inkscape:cy="32.135593" inkscape:window-width="1432" inkscape:window-height="844" inkscape:window-x="0" inkscape:window-y="0" inkscape:window-maximized="1" inkscape:current-layer="svg15" /> <g id="surface1" style="filter:url(#filter189)"> <path style=" stroke:none;fill-rule:nonzero;fill:rgb(100%,73.333335%,0%);fill-opacity:1;" d="M 14.328125 41.722656 C 14.328125 37.878906 15.429688 34.308594 17.320312 31.339844 L 17.375 30.953125 C 17.375 30.953125 10.507812 33.761719 8.785156 40.210938 C 7.800781 43.898438 7.875 45.171875 7.875 45.171875 L 15.015625 47.652344 L 15.089844 47.148438 C 14.59375 45.429688 14.328125 43.609375 14.328125 41.722656 Z M 14.328125 41.722656 " id="path2" /> <path style=" stroke:none;fill-rule:nonzero;fill:rgb(100%,73.333335%,0%);fill-opacity:1;" d="M 55.214844 40.210938 C 53.492188 33.761719 46.625 30.953125 46.625 30.953125 L 46.679688 31.339844 C 48.570312 34.308594 49.671875 37.878906 49.671875 41.722656 C 49.671875 43.609375 49.40625 45.429688 48.910156 47.148438 L 48.984375 47.652344 L 56.125 45.171875 C 56.125 45.171875 56.199219 43.898438 55.214844 40.210938 Z M 55.214844 40.210938 " id="path4" /> <path style=" stroke:none;fill-rule:nonzero;fill:rgb(100%,73.333335%,0%);fill-opacity:1;" d="M 38.054688 21.898438 C 37.914062 21.910156 37.773438 21.914062 37.632812 21.914062 C 34.820312 21.914062 32.539062 19.636719 32.539062 16.824219 C 32.539062 16.769531 32.542969 16.71875 32.542969 16.664062 L 31.457031 16.664062 C 31.457031 16.71875 31.460938 16.769531 31.460938 16.824219 C 31.460938 19.636719 29.179688 21.914062 26.367188 21.914062 C 26.226562 21.914062 26.085938 21.910156 25.945312 21.898438 C 25.941406 21.917969 25.9375 21.9375 25.933594 21.957031 C 25.449219 24.296875 25.285156 24.78125 25.285156 24.78125 L 32 33.054688 L 38.714844 24.78125 C 38.714844 24.78125 38.550781 24.296875 38.066406 21.957031 C 38.0625 21.9375 38.058594 21.917969 38.054688 21.898438 Z M 38.054688 21.898438 " id="path6" /> <path style=" stroke:none;fill-rule:nonzero;fill:rgb(100%,73.333335%,0%);fill-opacity:1;" d="M 50.957031 62.265625 L 37.960938 62.265625 L 37.960938 61.832031 C 37.960938 58.246094 40.871094 55.335938 44.460938 55.335938 C 48.050781 55.335938 50.957031 58.246094 50.957031 61.832031 Z M 50.957031 62.265625 " id="path8" /> <path style=" stroke:none;fill-rule:nonzero;fill:rgb(100%,73.333335%,0%);fill-opacity:1;" d="M 26.367188 62.265625 L 13.367188 62.265625 L 13.367188 61.832031 C 13.367188 58.246094 16.277344 55.335938 19.867188 55.335938 C 23.457031 55.335938 26.367188 58.246094 26.367188 61.832031 Z M 26.367188 62.265625 " id="path10" /> <path style=" stroke:none;fill-rule:nonzero;fill:rgb(70.19608%,51.372552%,0%);fill-opacity:1;" d="M 56.890625 39.761719 C 55.113281 33.121094 48.695312 29.976562 47.472656 29.429688 C 47.347656 29.257812 47.222656 29.089844 47.09375 28.921875 C 49.234375 25.847656 50.398438 22.164062 50.398438 18.398438 C 50.398438 8.253906 42.144531 0 32 0 C 21.855469 0 13.601562 8.253906 13.601562 18.398438 C 13.601562 22.164062 14.765625 25.847656 16.90625 28.921875 C 16.777344 29.089844 16.652344 29.257812 16.527344 29.429688 C 15.304688 29.976562 8.886719 33.121094 7.109375 39.761719 C 6.101562 43.53125 6.132812 45.019531 6.148438 45.277344 C 6.1875 45.976562 6.648438 46.578125 7.308594 46.808594 L 13.921875 49.105469 C 14.605469 50.941406 15.535156 52.675781 16.695312 54.238281 C 13.726562 55.484375 11.636719 58.417969 11.636719 61.832031 L 11.636719 62.265625 C 11.636719 63.222656 12.410156 64 13.367188 64 L 26.367188 64 C 27.324219 64 28.097656 63.222656 28.097656 62.265625 L 28.097656 61.832031 C 28.097656 61.78125 28.09375 61.730469 28.09375 61.679688 C 29.160156 61.910156 30.246094 62.042969 31.34375 62.078125 C 31.558594 62.097656 31.777344 62.105469 32 62.105469 C 32.074219 62.105469 32.148438 62.097656 32.222656 62.089844 C 33.582031 62.074219 34.921875 61.914062 36.234375 61.605469 C 36.230469 61.679688 36.226562 61.757812 36.226562 61.832031 L 36.226562 62.265625 C 36.226562 63.222656 37.003906 64 37.960938 64 L 50.957031 64 C 51.914062 64 52.691406 63.222656 52.691406 62.265625 L 52.691406 61.832031 C 52.691406 57.292969 48.996094 53.601562 44.460938 53.601562 C 41.453125 53.601562 38.820312 55.222656 37.382812 57.632812 C 35.660156 58.289062 33.851562 58.625 32 58.625 C 31.84375 58.625 31.691406 58.621094 31.535156 58.617188 C 26.867188 58.164062 22.425781 50.988281 22.425781 43.675781 C 22.425781 38.054688 25.269531 34.136719 29.910156 33.230469 L 30.652344 34.148438 C 30.984375 34.550781 31.476562 34.789062 32 34.789062 C 32.523438 34.789062 33.015625 34.550781 33.34375 34.148438 L 34.085938 33.230469 C 38.730469 34.136719 41.574219 38.054688 41.574219 43.675781 C 41.574219 44.632812 42.347656 45.410156 43.304688 45.410156 C 44.261719 45.410156 45.039062 44.632812 45.039062 43.675781 C 45.039062 37.046875 41.761719 32.070312 36.476562 30.285156 L 40.058594 25.871094 C 40.441406 25.402344 40.5625 24.8125 40.359375 24.242188 C 40.332031 24.144531 40.164062 23.546875 39.765625 21.605469 L 39.75 21.535156 C 39.566406 20.683594 38.78125 20.097656 37.914062 20.167969 C 37.804688 20.179688 37.714844 20.183594 37.632812 20.183594 C 37.515625 20.183594 37.402344 20.175781 37.289062 20.164062 C 35.597656 19.992188 34.269531 18.558594 34.269531 16.820312 C 34.269531 14.96875 35.777344 13.460938 37.632812 13.460938 C 39.484375 13.460938 40.992188 14.96875 40.992188 16.820312 C 40.992188 17.777344 41.769531 18.554688 42.726562 18.554688 C 43.683594 18.554688 44.457031 17.777344 44.457031 16.820312 C 44.457031 13.058594 41.394531 9.996094 37.632812 9.996094 C 35.296875 9.996094 33.230469 11.175781 32 12.972656 C 30.769531 11.175781 28.703125 9.996094 26.367188 9.996094 C 22.601562 9.996094 19.539062 13.058594 19.539062 16.820312 C 19.539062 17.777344 20.316406 18.554688 21.273438 18.554688 C 22.230469 18.554688 23.007812 17.777344 23.007812 16.820312 C 23.007812 14.96875 24.515625 13.460938 26.367188 13.460938 C 28.21875 13.460938 29.726562 14.96875 29.726562 16.820312 C 29.726562 18.558594 28.402344 19.992188 26.710938 20.164062 C 26.597656 20.175781 26.484375 20.183594 26.367188 20.183594 C 26.285156 20.183594 26.191406 20.179688 26.085938 20.167969 C 25.214844 20.101562 24.429688 20.691406 24.246094 21.542969 L 24.234375 21.605469 C 23.832031 23.546875 23.667969 24.144531 23.636719 24.242188 C 23.433594 24.8125 23.558594 25.402344 23.941406 25.871094 L 27.519531 30.285156 C 22.234375 32.070312 18.960938 37.046875 18.960938 43.675781 C 18.960938 47.085938 19.816406 50.652344 21.308594 53.730469 C 21.105469 53.695312 20.90625 53.664062 20.703125 53.644531 C 18.125 50.894531 16.511719 47.265625 16.140625 43.425781 C 16.136719 43.359375 16.128906 43.289062 16.125 43.222656 C 16.113281 43.09375 16.105469 42.96875 16.097656 42.839844 C 16.085938 42.707031 16.082031 42.574219 16.074219 42.441406 C 16.074219 42.386719 16.070312 42.328125 16.070312 42.269531 C 16.0625 42.085938 16.058594 41.90625 16.058594 41.722656 C 16.058594 41.476562 16.066406 41.230469 16.074219 40.984375 C 16.078125 40.910156 16.082031 40.839844 16.085938 40.765625 C 16.097656 40.589844 16.109375 40.414062 16.121094 40.238281 C 16.128906 40.160156 16.136719 40.082031 16.144531 40.003906 C 16.160156 39.8125 16.183594 39.625 16.207031 39.433594 C 16.214844 39.382812 16.21875 39.328125 16.226562 39.277344 C 16.261719 39.03125 16.296875 38.789062 16.339844 38.546875 C 16.347656 38.511719 16.355469 38.472656 16.363281 38.4375 C 16.398438 38.234375 16.441406 38.03125 16.484375 37.832031 C 16.5 37.761719 16.519531 37.695312 16.535156 37.625 C 16.574219 37.453125 16.617188 37.277344 16.664062 37.105469 C 16.683594 37.039062 16.699219 36.96875 16.71875 36.902344 C 16.777344 36.703125 16.835938 36.5 16.898438 36.304688 C 16.910156 36.269531 16.917969 36.238281 16.929688 36.207031 C 17 35.980469 17.082031 35.757812 17.164062 35.535156 C 17.1875 35.464844 17.21875 35.394531 17.246094 35.324219 C 17.300781 35.171875 17.363281 35.023438 17.425781 34.875 C 17.460938 34.785156 17.5 34.699219 17.535156 34.613281 C 17.59375 34.480469 17.65625 34.347656 17.71875 34.214844 C 17.757812 34.128906 17.800781 34.039062 17.839844 33.953125 C 17.917969 33.796875 17.996094 33.644531 18.078125 33.492188 C 18.136719 33.378906 18.199219 33.265625 18.261719 33.152344 C 18.335938 33.015625 18.414062 32.878906 18.492188 32.746094 C 18.546875 32.652344 18.605469 32.5625 18.664062 32.46875 C 19.175781 31.640625 19.757812 30.855469 20.40625 30.121094 C 20.976562 29.484375 20.996094 28.53125 20.453125 27.871094 C 18.269531 25.210938 17.066406 21.847656 17.066406 18.398438 C 17.066406 10.164062 23.765625 3.464844 32 3.464844 C 40.234375 3.464844 46.933594 10.164062 46.933594 18.398438 C 46.933594 21.847656 45.730469 25.210938 43.546875 27.871094 C 43.003906 28.53125 43.023438 29.484375 43.589844 30.121094 C 44.242188 30.855469 44.824219 31.640625 45.335938 32.46875 C 45.394531 32.5625 45.449219 32.652344 45.507812 32.746094 C 45.585938 32.878906 45.660156 33.015625 45.738281 33.152344 C 45.800781 33.265625 45.863281 33.378906 45.921875 33.492188 C 46.003906 33.644531 46.082031 33.796875 46.160156 33.953125 C 46.199219 34.039062 46.242188 34.128906 46.28125 34.214844 C 46.34375 34.347656 46.402344 34.480469 46.460938 34.613281 C 46.5 34.699219 46.539062 34.785156 46.574219 34.875 C 46.636719 35.023438 46.695312 35.171875 46.753906 35.324219 C 46.78125 35.394531 46.808594 35.464844 46.835938 35.535156 C 46.917969 35.757812 46.996094 35.980469 47.070312 36.207031 C 47.082031 36.238281 47.089844 36.269531 47.101562 36.304688 C 47.164062 36.5 47.222656 36.703125 47.28125 36.902344 C 47.300781 36.96875 47.316406 37.039062 47.335938 37.105469 C 47.382812 37.277344 47.425781 37.453125 47.464844 37.625 C 47.480469 37.695312 47.496094 37.761719 47.511719 37.832031 C 47.558594 38.03125 47.597656 38.234375 47.636719 38.4375 C 47.644531 38.472656 47.652344 38.511719 47.65625 38.546875 C 47.703125 38.789062 47.738281 39.03125 47.773438 39.277344 C 47.78125 39.328125 47.785156 39.382812 47.792969 39.433594 C 47.816406 39.625 47.839844 39.8125 47.855469 40.003906 C 47.863281 40.082031 47.871094 40.160156 47.875 40.238281 C 47.890625 40.414062 47.902344 40.589844 47.910156 40.765625 C 47.914062 40.839844 47.921875 40.910156 47.921875 40.984375 C 47.933594 41.230469 47.941406 41.476562 47.941406 41.722656 C 47.941406 43.40625 47.707031 45.070312 47.246094 46.667969 C 47.179688 46.902344 47.160156 47.148438 47.195312 47.390625 L 47.265625 47.894531 C 47.339844 48.40625 47.636719 48.863281 48.078125 49.132812 C 48.355469 49.300781 48.667969 49.386719 48.984375 49.386719 C 49.175781 49.386719 49.367188 49.355469 49.550781 49.289062 L 56.691406 46.808594 C 57.351562 46.578125 57.808594 45.976562 57.851562 45.277344 C 57.867188 45.019531 57.898438 43.53125 56.890625 39.761719 Z M 44.460938 57.066406 C 46.636719 57.066406 48.476562 58.535156 49.046875 60.535156 L 39.875 60.535156 C 40.441406 58.535156 42.28125 57.066406 44.460938 57.066406 Z M 27.359375 23.578125 C 27.367188 23.574219 27.375 23.574219 27.382812 23.574219 C 27.457031 23.5625 27.527344 23.546875 27.601562 23.535156 C 27.644531 23.527344 27.6875 23.519531 27.730469 23.511719 C 27.824219 23.492188 27.914062 23.472656 28.007812 23.449219 C 28.027344 23.445312 28.050781 23.4375 28.070312 23.433594 C 28.183594 23.40625 28.292969 23.375 28.402344 23.339844 C 28.4375 23.328125 28.476562 23.3125 28.511719 23.300781 C 28.585938 23.277344 28.65625 23.253906 28.730469 23.226562 C 28.773438 23.210938 28.816406 23.191406 28.859375 23.175781 C 28.921875 23.152344 28.984375 23.125 29.046875 23.097656 C 29.09375 23.078125 29.140625 23.058594 29.183594 23.039062 C 29.242188 23.011719 29.300781 22.984375 29.359375 22.957031 C 29.40625 22.933594 29.449219 22.910156 29.496094 22.886719 C 29.550781 22.859375 29.605469 22.828125 29.660156 22.796875 C 29.707031 22.773438 29.753906 22.746094 29.796875 22.722656 C 29.851562 22.691406 29.902344 22.660156 29.957031 22.625 C 30 22.597656 30.042969 22.570312 30.089844 22.542969 C 30.140625 22.507812 30.191406 22.472656 30.238281 22.441406 C 30.28125 22.410156 30.324219 22.378906 30.367188 22.347656 C 30.417969 22.3125 30.464844 22.277344 30.515625 22.238281 C 30.554688 22.207031 30.597656 22.175781 30.636719 22.140625 C 30.683594 22.105469 30.730469 22.066406 30.777344 22.027344 C 30.816406 21.992188 30.859375 21.957031 30.898438 21.921875 C 30.941406 21.882812 30.988281 21.839844 31.03125 21.800781 C 31.070312 21.765625 31.105469 21.730469 31.144531 21.691406 C 31.1875 21.648438 31.230469 21.605469 31.273438 21.5625 C 31.308594 21.523438 31.34375 21.488281 31.378906 21.449219 C 31.421875 21.402344 31.464844 21.359375 31.503906 21.308594 C 31.539062 21.273438 31.570312 21.234375 31.601562 21.195312 C 31.644531 21.148438 31.683594 21.097656 31.722656 21.046875 C 31.753906 21.007812 31.785156 20.96875 31.8125 20.929688 C 31.855469 20.878906 31.890625 20.824219 31.929688 20.769531 C 31.953125 20.738281 31.976562 20.707031 32 20.675781 C 32.019531 20.707031 32.046875 20.738281 32.066406 20.769531 C 32.105469 20.824219 32.144531 20.878906 32.183594 20.929688 C 32.214844 20.96875 32.246094 21.007812 32.277344 21.046875 C 32.316406 21.097656 32.355469 21.148438 32.394531 21.195312 C 32.429688 21.234375 32.460938 21.273438 32.496094 21.308594 C 32.535156 21.359375 32.578125 21.402344 32.621094 21.449219 C 32.652344 21.488281 32.691406 21.523438 32.726562 21.5625 C 32.769531 21.605469 32.8125 21.648438 32.855469 21.691406 C 32.890625 21.730469 32.929688 21.765625 32.96875 21.800781 C 33.011719 21.839844 33.058594 21.882812 33.101562 21.921875 C 33.140625 21.957031 33.179688 21.992188 33.222656 22.027344 C 33.265625 22.066406 33.3125 22.105469 33.359375 22.140625 C 33.402344 22.175781 33.441406 22.207031 33.484375 22.238281 C 33.53125 22.277344 33.582031 22.3125 33.628906 22.347656 C 33.671875 22.378906 33.714844 22.410156 33.757812 22.441406 C 33.808594 22.472656 33.859375 22.507812 33.910156 22.542969 C 33.953125 22.570312 34 22.597656 34.042969 22.625 C 34.09375 22.660156 34.148438 22.691406 34.203125 22.722656 C 34.246094 22.746094 34.292969 22.773438 34.335938 22.796875 C 34.390625 22.828125 34.445312 22.859375 34.503906 22.886719 C 34.546875 22.910156 34.59375 22.933594 34.640625 22.957031 C 34.695312 22.984375 34.753906 23.011719 34.816406 23.039062 C 34.859375 23.058594 34.90625 23.078125 34.949219 23.097656 C 35.011719 23.125 35.074219 23.152344 35.140625 23.175781 C 35.183594 23.191406 35.226562 23.210938 35.269531 23.226562 C 35.339844 23.253906 35.414062 23.277344 35.488281 23.300781 C 35.523438 23.3125 35.558594 23.328125 35.597656 23.339844 C 35.707031 23.375 35.816406 23.40625 35.929688 23.433594 C 35.949219 23.4375 35.972656 23.445312 35.992188 23.449219 C 36.085938 23.472656 36.175781 23.492188 36.269531 23.511719 C 36.3125 23.519531 36.355469 23.527344 36.398438 23.535156 C 36.46875 23.546875 36.542969 23.5625 36.617188 23.574219 C 36.625 23.574219 36.632812 23.574219 36.640625 23.578125 C 36.707031 23.890625 36.765625 24.148438 36.816406 24.363281 L 32.035156 30.257812 L 32 30.304688 L 27.179688 24.363281 C 27.230469 24.148438 27.289062 23.890625 27.359375 23.578125 Z M 12.855469 45.066406 L 9.726562 43.980469 C 9.835938 43.269531 10.050781 42.191406 10.457031 40.65625 C 11.007812 38.609375 12.183594 36.96875 13.453125 35.710938 C 13.453125 35.71875 13.449219 35.722656 13.449219 35.726562 C 13.441406 35.753906 13.433594 35.78125 13.425781 35.808594 C 13.359375 36.042969 13.292969 36.277344 13.234375 36.515625 C 13.214844 36.59375 13.199219 36.671875 13.179688 36.75 C 13.136719 36.9375 13.09375 37.125 13.050781 37.3125 C 13.03125 37.40625 13.015625 37.496094 12.996094 37.589844 C 12.960938 37.765625 12.929688 37.941406 12.898438 38.117188 C 12.882812 38.21875 12.867188 38.316406 12.851562 38.417969 C 12.824219 38.589844 12.800781 38.761719 12.777344 38.933594 C 12.765625 39.035156 12.75 39.140625 12.738281 39.242188 C 12.71875 39.417969 12.703125 39.589844 12.6875 39.765625 C 12.675781 39.867188 12.667969 39.964844 12.660156 40.066406 C 12.644531 40.253906 12.632812 40.445312 12.625 40.632812 C 12.621094 40.722656 12.613281 40.808594 12.609375 40.894531 C 12.601562 41.167969 12.59375 41.445312 12.59375 41.722656 C 12.59375 41.96875 12.601562 42.210938 12.609375 42.453125 C 12.609375 42.523438 12.613281 42.589844 12.617188 42.65625 C 12.625 42.875 12.636719 43.09375 12.652344 43.3125 C 12.664062 43.421875 12.671875 43.53125 12.683594 43.640625 C 12.691406 43.742188 12.703125 43.84375 12.710938 43.949219 C 12.75 44.324219 12.796875 44.695312 12.855469 45.066406 Z M 15.28125 60.535156 C 15.847656 58.535156 17.691406 57.066406 19.867188 57.066406 C 19.914062 57.066406 19.960938 57.074219 20.003906 57.074219 C 20.191406 57.078125 20.375 57.09375 20.558594 57.121094 C 20.574219 57.125 20.589844 57.125 20.605469 57.128906 C 20.699219 57.140625 20.792969 57.160156 20.882812 57.179688 C 20.90625 57.1875 20.929688 57.191406 20.953125 57.195312 C 21.046875 57.21875 21.136719 57.242188 21.226562 57.269531 C 21.246094 57.277344 21.265625 57.28125 21.285156 57.289062 C 21.378906 57.316406 21.472656 57.347656 21.5625 57.382812 C 21.578125 57.390625 21.589844 57.394531 21.605469 57.398438 C 21.699219 57.4375 21.792969 57.476562 21.886719 57.519531 C 21.890625 57.523438 21.898438 57.527344 21.90625 57.53125 C 22.277344 57.707031 22.625 57.933594 22.941406 58.199219 C 22.96875 58.222656 22.996094 58.242188 23.023438 58.265625 C 23.070312 58.308594 23.113281 58.351562 23.160156 58.398438 C 23.203125 58.4375 23.246094 58.476562 23.289062 58.519531 C 23.324219 58.558594 23.363281 58.601562 23.398438 58.640625 C 23.445312 58.691406 23.488281 58.742188 23.535156 58.796875 C 23.566406 58.832031 23.597656 58.871094 23.625 58.910156 C 23.671875 58.96875 23.714844 59.027344 23.757812 59.085938 C 23.785156 59.125 23.8125 59.164062 23.839844 59.207031 C 23.878906 59.269531 23.917969 59.332031 23.957031 59.394531 C 23.980469 59.4375 24.007812 59.476562 24.03125 59.519531 C 24.066406 59.582031 24.097656 59.648438 24.132812 59.714844 C 24.15625 59.757812 24.175781 59.804688 24.199219 59.847656 C 24.300781 60.070312 24.386719 60.296875 24.453125 60.535156 Z M 51.144531 45.066406 C 51.320312 43.964844 51.40625 42.847656 51.40625 41.722656 C 51.40625 41.445312 51.398438 41.167969 51.390625 40.894531 C 51.386719 40.804688 51.378906 40.71875 51.375 40.632812 C 51.367188 40.441406 51.355469 40.253906 51.339844 40.066406 C 51.332031 39.964844 51.324219 39.863281 51.3125 39.761719 C 51.296875 39.585938 51.28125 39.414062 51.261719 39.238281 C 51.25 39.136719 51.234375 39.03125 51.222656 38.929688 C 51.199219 38.757812 51.175781 38.585938 51.148438 38.417969 C 51.132812 38.3125 51.117188 38.210938 51.097656 38.109375 C 51.070312 37.9375 51.035156 37.765625 51.003906 37.59375 C 50.984375 37.496094 50.964844 37.398438 50.945312 37.304688 C 50.90625 37.121094 50.863281 36.941406 50.820312 36.761719 C 50.800781 36.675781 50.78125 36.589844 50.761719 36.503906 C 50.707031 36.292969 50.648438 36.078125 50.589844 35.867188 C 50.574219 35.816406 50.5625 35.769531 50.546875 35.71875 C 50.546875 35.710938 50.542969 35.699219 50.539062 35.691406 C 51.808594 36.945312 52.988281 38.589844 53.539062 40.65625 C 53.949219 42.191406 54.164062 43.269531 54.273438 43.980469 Z M 51.144531 45.066406 " id="path12" /> </g></svg>
