<svg width="64" height="64" viewBox="0 0 64 64" version="1.1" xmlns:inkscape="http://www.inkscape.org/namespaces/inkscape"><defs><linearGradient id="linear0" gradientUnits="userSpaceOnUse" x1="0" y1="0" x2="0" y2="1" gradientTransform="matrix(60.25113,0,0,64.906138,2.342561,0.760143)"><stop offset="0" style="stop-color:rgb(87.058824%,86.666667%,56.470591%);stop-opacity:1;"/><stop offset="1" style="stop-color:rgb(67.843139%,67.450982%,38.039216%);stop-opacity:1;"/></linearGradient><filter style="color-interpolation-filters:sRGB;" inkscape:label="Diffuse Light" id="filter184" x="-0.0375" y="-0.0375" width="1.075" height="1.075"><feGaussianBlur in="SourceGraphic" stdDeviation="1" result="blur" id="feGaussianBlur174" /><feDiffuseLighting diffuseConstant="1" surfaceScale="10" lighting-color="rgb(255,255,255)" result="diffuse" id="feDiffuseLighting178"><feDistantLight elevation="8" azimuth="235" id="feDistantLight176" /></feDiffuseLighting><feComposite in="diffuse" in2="diffuse" operator="arithmetic" k1="1" result="composite1" id="feComposite180" /><feComposite in="composite1" in2="SourceGraphic" k1="1" operator="arithmetic" k3="1" result="composite2" id="feComposite182" /></filter></defs><g id="surface1" style="filter:url(#filter184)"><path style=" stroke:none;fill-rule:evenodd;fill:url(#linear0);" d="M 63.640625 41.246094 C 63.640625 48.535156 58.171875 54.445312 51.425781 54.445312 L 13.632812 54.445312 C 6.886719 54.445312 1.417969 48.535156 1.417969 41.246094 C 1.417969 34.667969 5.878906 29.210938 11.714844 28.210938 C 11.640625 27.75 11.597656 27.273438 11.597656 26.789062 C 11.597656 22.167969 15.0625 18.421875 19.335938 18.421875 C 21.242188 18.421875 22.988281 19.167969 24.339844 20.410156 C 26.742188 14.554688 29.820312 9.214844 38.460938 9.214844 C 48.941406 9.214844 53.910156 17.949219 53.910156 27.167969 C 53.910156 27.554688 53.898438 27.933594 53.875 28.316406 C 59.441406 29.542969 63.632812 34.859375 63.632812 41.246094 "/></g></svg>
