<svg width="64" height="64" viewBox="0 0 64 64" version="1.1" xmlns:inkscape="http://www.inkscape.org/namespaces/inkscape"><defs><linearGradient id="linear0" gradientUnits="userSpaceOnUse" x1="0" y1="0" x2="0" y2="1" gradientTransform="matrix(66.904402,0,0,41.507175,0.591111,9.352751)"><stop offset="0" style="stop-color:rgb(0%,78.823531%,36.862746%);stop-opacity:1;"/><stop offset="1" style="stop-color:rgb(0%,54.11765%,25.098041%);stop-opacity:1;"/></linearGradient><linearGradient id="linear1" gradientUnits="userSpaceOnUse" x1="0" y1="0" x2="0" y2="1" gradientTransform="matrix(66.904402,0,0,41.507175,0.591111,9.352751)"><stop offset="0" style="stop-color:rgb(0%,78.823531%,36.862746%);stop-opacity:1;"/><stop offset="1" style="stop-color:rgb(0%,54.11765%,25.098041%);stop-opacity:1;"/></linearGradient><filter style="color-interpolation-filters:sRGB;" inkscape:label="Diffuse Light" id="filter184" x="-0.0375" y="-0.0375" width="1.075" height="1.075"><feGaussianBlur in="SourceGraphic" stdDeviation="1" result="blur" id="feGaussianBlur174" /><feDiffuseLighting diffuseConstant="1" surfaceScale="10" lighting-color="rgb(255,255,255)" result="diffuse" id="feDiffuseLighting178"><feDistantLight elevation="8" azimuth="235" id="feDistantLight176" /></feDiffuseLighting><feComposite in="diffuse" in2="diffuse" operator="arithmetic" k1="1" result="composite1" id="feComposite180" /><feComposite in="composite1" in2="SourceGraphic" k1="1" operator="arithmetic" k3="1" result="composite2" id="feComposite182" /></filter></defs><g id="surface1" style="filter:url(#filter184)"><path style=" stroke:none;fill-rule:nonzero;fill:url(#linear0);" d="M 31.875 1.75 L 27.09375 6.921875 L 28.6875 26.570312 C 28.777344 27.707031 29.398438 28.636719 30.28125 28.636719 L 33.464844 28.636719 C 34.347656 28.636719 34.96875 27.707031 35.0625 26.570312 L 36.652344 6.921875 Z M 31.875 1.75 "/><path style=" stroke:none;fill-rule:nonzero;fill:url(#linear1);" d="M 22.417969 14.738281 C 16.945312 17.101562 14 21.859375 12.679688 28.847656 L 7.179688 58.066406 L 23.683594 63.378906 L 26.429688 44.785156 L 15.433594 39.46875 L 18.179688 32.828125 L 29.179688 38.140625 L 29.179688 50.097656 L 31.933594 52.753906 L 34.683594 50.097656 L 34.683594 38.140625 L 45.683594 32.828125 L 48.4375 39.46875 L 37.429688 44.785156 L 40.183594 63.378906 L 56.6875 58.066406 L 51.183594 28.847656 C 49.875 21.859375 46.925781 17.101562 41.449219 14.738281 L 40.171875 26.453125 C 39.890625 28.992188 37.691406 31.503906 34.695312 31.503906 L 29.195312 31.503906 C 26.199219 31.503906 24 29.003906 23.726562 26.453125 Z M 22.417969 14.738281 "/></g></svg>
