<svg width="64" height="64" viewBox="0 0 64 64" version="1.1" xmlns:inkscape="http://www.inkscape.org/namespaces/inkscape"><defs><linearGradient id="linear0" gradientUnits="userSpaceOnUse" x1="0" y1="0" x2="0" y2="1" gradientTransform="matrix(64,0,0,64,0,0)"><stop offset="0" style="stop-color:rgb(81.960785%,70.980394%,59.215689%);stop-opacity:1;"/><stop offset="1" style="stop-color:rgb(65.098041%,53.725493%,41.568628%);stop-opacity:1;"/></linearGradient><filter style="color-interpolation-filters:sRGB;" inkscape:label="Diffuse Light" id="filter184" x="-0.0375" y="-0.0375" width="1.075" height="1.075"><feGaussianBlur in="SourceGraphic" stdDeviation="1" result="blur" id="feGaussianBlur174" /><feDiffuseLighting diffuseConstant="1" surfaceScale="10" lighting-color="rgb(255,255,255)" result="diffuse" id="feDiffuseLighting178"><feDistantLight elevation="8" azimuth="235" id="feDistantLight176" /></feDiffuseLighting><feComposite in="diffuse" in2="diffuse" operator="arithmetic" k1="1" result="composite1" id="feComposite180" /><feComposite in="composite1" in2="SourceGraphic" k1="1" operator="arithmetic" k3="1" result="composite2" id="feComposite182" /></filter></defs><g id="surface1" style="filter:url(#filter184)"><path style=" stroke:none;fill-rule:nonzero;fill:url(#linear0);" d="M 31.945312 0 C 14.390625 0 0 14.390625 0 31.945312 C 0 49.5 14.390625 64 31.945312 64 C 49.5 64 64 49.5 64 31.945312 C 64 14.390625 49.5 0 31.945312 0 Z M 31.945312 18.3125 C 39.621094 18.3125 45.6875 24.269531 45.6875 31.945312 C 45.6875 39.621094 39.621094 45.6875 31.945312 45.6875 C 24.269531 45.6875 18.3125 39.621094 18.3125 31.945312 C 18.3125 24.269531 24.269531 18.3125 31.945312 18.3125 Z M 32.023438 22.890625 C 27.003906 22.890625 22.828125 26.988281 22.828125 32.007812 C 22.828125 37.027344 27.003906 41.132812 32.023438 41.132812 C 37.042969 41.132812 41.140625 37.027344 41.140625 32.007812 C 41.140625 26.988281 37.042969 22.890625 32.023438 22.890625 Z M 32.023438 27.453125 C 34.574219 27.453125 36.585938 29.457031 36.585938 32.007812 C 36.585938 34.558594 34.574219 36.570312 32.023438 36.570312 C 29.472656 36.570312 27.460938 34.558594 27.460938 32.007812 C 27.460938 29.457031 29.472656 27.453125 32.023438 27.453125 Z M 32.023438 27.453125 "/></g></svg>
