<svg width="64" height="64" viewBox="0 0 64 64" version="1.1" xmlns:inkscape="http://www.inkscape.org/namespaces/inkscape"><defs><linearGradient id="linear0" gradientUnits="userSpaceOnUse" x1="0" y1="0" x2="0" y2="1" gradientTransform="matrix(62.546875,0,0,64,0.726562,0)"><stop offset="0" style="stop-color:rgb(100%,56.862748%,82.745099%);stop-opacity:1;"/><stop offset="1" style="stop-color:rgb(100%,0%,60.000002%);stop-opacity:1;"/></linearGradient><filter style="color-interpolation-filters:sRGB;" inkscape:label="Diffuse Light" id="filter184" x="-0.0375" y="-0.0375" width="1.075" height="1.075"><feGaussianBlur in="SourceGraphic" stdDeviation="1" result="blur" id="feGaussianBlur174" /><feDiffuseLighting diffuseConstant="1" surfaceScale="10" lighting-color="rgb(255,255,255)" result="diffuse" id="feDiffuseLighting178"><feDistantLight elevation="8" azimuth="235" id="feDistantLight176" /></feDiffuseLighting><feComposite in="diffuse" in2="diffuse" operator="arithmetic" k1="1" result="composite1" id="feComposite180" /><feComposite in="composite1" in2="SourceGraphic" k1="1" operator="arithmetic" k3="1" result="composite2" id="feComposite182" /></filter></defs><g id="surface1" style="filter:url(#filter184)"><path style=" stroke:none;fill-rule:nonzero;fill:url(#linear0);" d="M 62.542969 26.179688 L 32.726562 26.179688 L 32.726562 38.542969 L 49.890625 38.542969 C 48.292969 46.398438 41.601562 50.90625 32.726562 50.90625 C 22.257812 50.90625 13.820312 42.472656 13.820312 32 C 13.820312 21.527344 22.257812 13.09375 32.726562 13.09375 C 37.234375 13.09375 41.308594 14.691406 44.507812 17.308594 L 53.820312 8 C 48.144531 3.054688 40.871094 0 32.726562 0 C 14.980469 0 0.726562 14.257812 0.726562 32 C 0.726562 49.742188 14.980469 64 32.726562 64 C 48.726562 64 63.273438 52.363281 63.273438 32 C 63.273438 30.109375 62.980469 28.070312 62.542969 26.179688 Z M 62.542969 26.179688 "/></g></svg>
