<svg width="64" height="64" viewBox="0 0 64 64" version="1.1" xmlns:inkscape="http://www.inkscape.org/namespaces/inkscape"><defs><linearGradient id="linear0" gradientUnits="userSpaceOnUse" x1="0" y1="0" x2="0" y2="1" gradientTransform="matrix(65.523325,0,0,66.213485,-0.626306,0.342842)"><stop offset="0" style="stop-color:rgb(100%,73.333335%,0%);stop-opacity:1;"/><stop offset="1" style="stop-color:rgb(70.19608%,51.372552%,0%);stop-opacity:1;"/></linearGradient><filter style="color-interpolation-filters:sRGB;" inkscape:label="Diffuse Light" id="filter184" x="-0.0375" y="-0.0375" width="1.075" height="1.075"><feGaussianBlur in="SourceGraphic" stdDeviation="1" result="blur" id="feGaussianBlur174" /><feDiffuseLighting diffuseConstant="1" surfaceScale="10" lighting-color="rgb(255,255,255)" result="diffuse" id="feDiffuseLighting178"><feDistantLight elevation="8" azimuth="235" id="feDistantLight176" /></feDiffuseLighting><feComposite in="diffuse" in2="diffuse" operator="arithmetic" k1="1" result="composite1" id="feComposite180" /><feComposite in="composite1" in2="SourceGraphic" k1="1" operator="arithmetic" k3="1" result="composite2" id="feComposite182" /></filter></defs><g id="surface1" style="filter:url(#filter184)"><path style=" stroke:none;fill-rule:nonzero;fill:url(#linear0);" d="M 1.09375 10.101562 L 1.09375 57.203125 L 63.300781 57.203125 L 63.300781 10.097656 L 1.09375 10.097656 M 6.246094 15.28125 L 18.082031 15.28125 L 18.082031 24.074219 L 6.246094 24.074219 Z M 23.234375 15.28125 L 58.15625 15.28125 L 58.15625 24.074219 L 23.234375 24.074219 Z M 6.246094 29.253906 L 18.082031 29.253906 L 18.082031 38.050781 L 6.246094 38.050781 Z M 23.234375 29.253906 L 58.15625 29.253906 L 58.15625 38.050781 L 23.234375 38.050781 Z M 6.246094 43.230469 L 18.082031 43.230469 L 18.082031 52.015625 L 6.246094 52.015625 Z M 23.234375 43.230469 L 58.15625 43.230469 L 58.15625 52.015625 L 23.234375 52.015625 Z M 23.234375 43.230469 "/></g></svg>
