<svg width="64" height="64" viewBox="0 0 64 64" version="1.1" xmlns:inkscape="http://www.inkscape.org/namespaces/inkscape"><defs><linearGradient id="linear0" gradientUnits="userSpaceOnUse" x1="0" y1="0" x2="0" y2="1" gradientTransform="matrix(77.292503,0,0,48.221694,-6.623734,7.299295)"><stop offset="0" style="stop-color:rgb(0%,73.333335%,100%);stop-opacity:1;"/><stop offset="1" style="stop-color:rgb(0%,52.156866%,70.980394%);stop-opacity:1;"/></linearGradient><filter style="color-interpolation-filters:sRGB;" inkscape:label="Diffuse Light" id="filter184" x="-0.0375" y="-0.0375" width="1.075" height="1.075"><feGaussianBlur in="SourceGraphic" stdDeviation="1" result="blur" id="feGaussianBlur174" /><feDiffuseLighting diffuseConstant="1" surfaceScale="10" lighting-color="rgb(255,255,255)" result="diffuse" id="feDiffuseLighting178"><feDistantLight elevation="8" azimuth="235" id="feDistantLight176" /></feDiffuseLighting><feComposite in="diffuse" in2="diffuse" operator="arithmetic" k1="1" result="composite1" id="feComposite180" /><feComposite in="composite1" in2="SourceGraphic" k1="1" operator="arithmetic" k3="1" result="composite2" id="feComposite182" /></filter></defs><g id="surface1" style="filter:url(#filter184)"><path style=" stroke:none;fill-rule:nonzero;fill:url(#linear0);" d="M 16.113281 15.347656 L 8.019531 15.347656 C 5.039062 15.347656 2.621094 17.816406 2.621094 20.859375 L 2.621094 60.21875 C 2.621094 61.003906 3.085938 61.71875 3.804688 62.015625 C 4.515625 62.316406 5.335938 62.152344 5.878906 61.597656 L 16.113281 51.148438 L 43.082031 51.148438 C 46.0625 51.148438 48.476562 48.683594 48.476562 45.640625 L 48.476562 37.382812 L 56.570312 37.382812 C 59.546875 37.382812 61.960938 34.914062 61.960938 31.871094 L 61.960938 7.085938 C 61.960938 4.046875 59.546875 1.578125 56.570312 1.578125 L 21.503906 1.578125 C 18.523438 1.578125 16.113281 4.046875 16.113281 7.085938 Z M 16.113281 15.347656 "/></g></svg>
