<svg width="64" height="64" viewBox="0 0 64 64" version="1.1" xmlns:inkscape="http://www.inkscape.org/namespaces/inkscape"><defs><linearGradient id="linear0" gradientUnits="userSpaceOnUse" x1="0" y1="0" x2="0" y2="1" gradientTransform="matrix(71.668283,0,0,82.205793,-3.184447,-9.153393)"><stop offset="0" style="stop-color:rgb(61.176473%,69.803923%,85.09804%);stop-opacity:1;"/><stop offset="1" style="stop-color:rgb(44.313726%,52.156866%,65.882355%);stop-opacity:1;"/></linearGradient><filter style="color-interpolation-filters:sRGB;" inkscape:label="Diffuse Light" id="filter184" x="-0.0375" y="-0.0375" width="1.075" height="1.075"><feGaussianBlur in="SourceGraphic" stdDeviation="1" result="blur" id="feGaussianBlur174" /><feDiffuseLighting diffuseConstant="1" surfaceScale="10" lighting-color="rgb(255,255,255)" result="diffuse" id="feDiffuseLighting178"><feDistantLight elevation="8" azimuth="235" id="feDistantLight176" /></feDiffuseLighting><feComposite in="diffuse" in2="diffuse" operator="arithmetic" k1="1" result="composite1" id="feComposite180" /><feComposite in="composite1" in2="SourceGraphic" k1="1" operator="arithmetic" k3="1" result="composite2" id="feComposite182" /></filter></defs><g id="surface1" style="filter:url(#filter184)"><path style=" stroke:none;fill-rule:nonzero;fill:url(#linear0);" d="M 7.644531 3.347656 C 4.492188 3.347656 1.933594 6.273438 1.933594 9.871094 C 1.933594 13.46875 4.492188 16.386719 7.644531 16.386719 C 10.800781 16.386719 13.355469 13.46875 13.355469 9.871094 C 13.355469 6.273438 10.800781 3.347656 7.644531 3.347656 M 18.136719 5.386719 L 18.136719 14.355469 L 63.503906 14.355469 L 63.503906 5.386719 Z M 7.644531 25.6875 C 4.492188 25.6875 1.933594 28.605469 1.933594 32.214844 C 1.933594 35.808594 4.492188 38.726562 7.644531 38.726562 C 10.800781 38.726562 13.355469 35.808594 13.355469 32.214844 C 13.355469 28.605469 10.800781 25.6875 7.644531 25.6875 M 18.136719 27.730469 L 18.136719 36.699219 L 63.503906 36.699219 L 63.503906 27.730469 Z M 7.644531 48.027344 C 4.492188 48.027344 1.933594 50.945312 1.933594 54.554688 C 1.933594 58.15625 4.492188 61.066406 7.644531 61.066406 C 10.800781 61.066406 13.355469 58.15625 13.355469 54.554688 C 13.355469 50.945312 10.800781 48.027344 7.644531 48.027344 M 18.136719 50.070312 L 18.136719 59.039062 L 63.503906 59.039062 L 63.503906 50.070312 Z M 18.136719 50.070312 "/></g></svg>
