<svg width="64" height="64" viewBox="0 0 64 64" version="1.1" xmlns:inkscape="http://www.inkscape.org/namespaces/inkscape"><defs><linearGradient id="linear0" gradientUnits="userSpaceOnUse" x1="0" y1="0" x2="0" y2="1" gradientTransform="matrix(74.574686,0,0,73.995098,-5.050711,-5.075949)"><stop offset="0" style="stop-color:rgb(100%,63.137257%,63.137257%);stop-opacity:1;"/><stop offset="1" style="stop-color:rgb(100%,27.843139%,27.843139%);stop-opacity:1;"/></linearGradient><filter style="color-interpolation-filters:sRGB;" inkscape:label="Diffuse Light" id="filter184" x="-0.0375" y="-0.0375" width="1.075" height="1.075"><feGaussianBlur in="SourceGraphic" stdDeviation="1" result="blur" id="feGaussianBlur174" /><feDiffuseLighting diffuseConstant="1" surfaceScale="10" lighting-color="rgb(255,255,255)" result="diffuse" id="feDiffuseLighting178"><feDistantLight elevation="8" azimuth="235" id="feDistantLight176" /></feDiffuseLighting><feComposite in="diffuse" in2="diffuse" operator="arithmetic" k1="1" result="composite1" id="feComposite180" /><feComposite in="composite1" in2="SourceGraphic" k1="1" operator="arithmetic" k3="1" result="composite2" id="feComposite182" /></filter></defs><g id="surface1" style="filter:url(#filter184)"><path style=" stroke:none;fill-rule:nonzero;fill:url(#linear0);" d="M 22.519531 1.742188 C 10.890625 1.742188 1.535156 10.988281 1.535156 22.472656 C 1.535156 33.960938 10.890625 43.203125 22.519531 43.203125 C 34.140625 43.203125 43.503906 33.960938 43.503906 22.472656 C 43.503906 10.988281 34.140625 1.742188 22.519531 1.742188 M 47.433594 21.09375 C 47.453125 21.550781 47.5 22.011719 47.5 22.472656 C 47.5 36.148438 36.355469 47.152344 22.519531 47.152344 C 22.050781 47.152344 21.585938 47.113281 21.125 47.085938 L 21.125 62.554688 L 63.089844 62.554688 L 63.089844 21.09375 L 47.433594 21.09375 "/></g></svg>
