<svg width="64" height="64" viewBox="0 0 64 64" version="1.1" xmlns:inkscape="http://www.inkscape.org/namespaces/inkscape"><defs><linearGradient id="linear0" gradientUnits="userSpaceOnUse" x1="0" y1="0" x2="0" y2="1" gradientTransform="matrix(62.31681,0,0,78.439405,0.934656,-7.415987)"><stop offset="0" style="stop-color:rgb(100%,56.862748%,82.745099%);stop-opacity:1;"/><stop offset="1" style="stop-color:rgb(100%,0%,60.000002%);stop-opacity:1;"/></linearGradient><filter style="color-interpolation-filters:sRGB;" inkscape:label="Diffuse Light" id="filter184" x="-0.0375" y="-0.0375" width="1.075" height="1.075"><feGaussianBlur in="SourceGraphic" stdDeviation="1" result="blur" id="feGaussianBlur174" /><feDiffuseLighting diffuseConstant="1" surfaceScale="10" lighting-color="rgb(255,255,255)" result="diffuse" id="feDiffuseLighting178"><feDistantLight elevation="8" azimuth="235" id="feDistantLight176" /></feDiffuseLighting><feComposite in="diffuse" in2="diffuse" operator="arithmetic" k1="1" result="composite1" id="feComposite180" /><feComposite in="composite1" in2="SourceGraphic" k1="1" operator="arithmetic" k3="1" result="composite2" id="feComposite182" /></filter></defs><g id="surface1" style="filter:url(#filter184)"><path style=" stroke:none;fill-rule:nonzero;fill:url(#linear0);" d="M 11.285156 1.261719 C 7.34375 1.261719 4.171875 5.238281 4.171875 10.175781 L 4.171875 53.910156 C 4.171875 58.855469 7.34375 62.828125 11.285156 62.828125 L 53.015625 62.828125 C 56.964844 62.828125 60.132812 58.855469 60.132812 53.910156 L 60.132812 10.179688 C 60.132812 5.238281 56.964844 1.261719 53.015625 1.261719 L 11.285156 1.261719 M 10.582031 7.292969 L 17.960938 7.292969 L 17.960938 14.671875 L 10.589844 14.671875 L 10.589844 7.292969 M 46.355469 7.292969 L 53.734375 7.292969 L 53.734375 14.671875 L 46.367188 14.671875 L 46.367188 7.292969 M 10.589844 17.820312 L 17.96875 17.820312 L 17.96875 25.210938 L 10.589844 25.210938 L 10.589844 17.820312 M 46.367188 17.820312 L 53.738281 17.820312 L 53.738281 25.210938 L 46.371094 25.210938 L 46.371094 17.820312 M 10.59375 28.347656 L 17.96875 28.347656 L 17.96875 35.738281 L 10.59375 35.738281 L 10.59375 28.347656 M 46.371094 28.347656 L 53.746094 28.347656 L 53.746094 35.738281 L 46.371094 35.738281 L 46.371094 28.347656 M 10.601562 38.871094 L 17.972656 38.871094 L 17.972656 46.277344 L 10.601562 46.277344 L 10.601562 38.871094 M 46.375 38.871094 L 53.746094 38.871094 L 53.746094 46.277344 L 46.375 46.277344 L 46.375 38.871094 M 10.609375 49.410156 L 17.976562 49.410156 L 17.976562 56.804688 L 10.609375 56.804688 L 10.609375 49.410156 M 46.382812 49.410156 L 53.753906 49.410156 L 53.753906 56.804688 L 46.382812 56.804688 L 46.382812 49.410156 "/></g></svg>
