<svg width="64" height="64" viewBox="0 0 64 64" version="1.1" xmlns:inkscape="http://www.inkscape.org/namespaces/inkscape"><defs><linearGradient id="linear0" gradientUnits="userSpaceOnUse" x1="0" y1="0" x2="0" y2="1" gradientTransform="matrix(68.33101,0,0,50.257345,-1.317865,6.281018)"><stop offset="0" style="stop-color:rgb(0%,78.823531%,36.862746%);stop-opacity:1;"/><stop offset="1" style="stop-color:rgb(0%,54.11765%,25.098041%);stop-opacity:1;"/></linearGradient><filter style="color-interpolation-filters:sRGB;" inkscape:label="Diffuse Light" id="filter184" x="-0.0375" y="-0.0375" width="1.075" height="1.075"><feGaussianBlur in="SourceGraphic" stdDeviation="1" result="blur" id="feGaussianBlur174" /><feDiffuseLighting diffuseConstant="1" surfaceScale="10" lighting-color="rgb(255,255,255)" result="diffuse" id="feDiffuseLighting178"><feDistantLight elevation="8" azimuth="235" id="feDistantLight176" /></feDiffuseLighting><feComposite in="diffuse" in2="diffuse" operator="arithmetic" k1="1" result="composite1" id="feComposite180" /><feComposite in="composite1" in2="SourceGraphic" k1="1" operator="arithmetic" k3="1" result="composite2" id="feComposite182" /></filter></defs><g id="surface1" style="filter:url(#filter184)"><path style=" stroke:none;fill-rule:nonzero;fill:url(#linear0);" d="M 4.214844 1.714844 C 2.789062 1.714844 1.640625 3.078125 1.640625 4.773438 L 1.640625 59.730469 C 1.640625 61.421875 2.789062 62.785156 4.214844 62.785156 L 60.773438 62.785156 C 62.199219 62.785156 63.34375 61.421875 63.34375 59.730469 L 63.34375 4.773438 C 63.34375 3.078125 62.199219 1.714844 60.773438 1.714844 Z M 11.929688 13.933594 L 27.351562 13.933594 L 27.351562 26.144531 L 11.929688 26.144531 Z M 37.636719 13.933594 L 53.0625 13.933594 L 53.0625 26.144531 L 37.636719 26.144531 Z M 11.929688 38.359375 L 27.351562 38.359375 L 27.351562 50.570312 L 11.929688 50.570312 Z M 37.636719 38.359375 L 53.0625 38.359375 L 53.0625 50.570312 L 37.636719 50.570312 Z M 37.636719 38.359375 "/></g></svg>
