<svg width="64" height="64" viewBox="0 0 64 64" version="1.1" xmlns:inkscape="http://www.inkscape.org/namespaces/inkscape"><defs><linearGradient id="linear0" gradientUnits="userSpaceOnUse" x1="0" y1="0" x2="0" y2="1" gradientTransform="matrix(63.011596,0,0,68.494946,0.935828,-1.678276)"><stop offset="0" style="stop-color:rgb(75.686276%,77.64706%,83.92157%);stop-opacity:1;"/><stop offset="1" style="stop-color:rgb(43.529412%,45.09804%,50.196081%);stop-opacity:1;"/></linearGradient><filter style="color-interpolation-filters:sRGB;" inkscape:label="Diffuse Light" id="filter184" x="-0.0375" y="-0.0375" width="1.075" height="1.075"><feGaussianBlur in="SourceGraphic" stdDeviation="1" result="blur" id="feGaussianBlur174" /><feDiffuseLighting diffuseConstant="1" surfaceScale="10" lighting-color="rgb(255,255,255)" result="diffuse" id="feDiffuseLighting178"><feDistantLight elevation="8" azimuth="235" id="feDistantLight176" /></feDiffuseLighting><feComposite in="diffuse" in2="diffuse" operator="arithmetic" k1="1" result="composite1" id="feComposite180" /><feComposite in="composite1" in2="SourceGraphic" k1="1" operator="arithmetic" k3="1" result="composite2" id="feComposite182" /></filter></defs><g id="surface1" style="filter:url(#filter184)"><path style=" stroke:none;fill-rule:nonzero;fill:url(#linear0);" d="M 7.414062 2.277344 C 4.320312 2.277344 1.828125 4.980469 1.828125 8.320312 L 1.828125 38.957031 C 1.828125 42.304688 4.320312 44.996094 7.414062 44.996094 L 17.710938 44.996094 L 17.710938 57.246094 C 17.710938 60.597656 20.207031 63.285156 23.292969 63.285156 L 57.59375 63.285156 C 60.691406 63.285156 63.183594 60.597656 63.183594 57.246094 L 63.183594 26.609375 C 63.183594 23.261719 60.691406 20.566406 57.59375 20.566406 L 47.292969 20.566406 L 47.292969 8.320312 C 47.292969 4.972656 44.796875 2.277344 41.707031 2.277344 L 7.414062 2.277344 M 5.378906 8.523438 L 43.746094 8.523438 L 43.746094 38.769531 L 5.378906 38.769531 Z M 47.292969 26.796875 L 59.625 26.796875 L 59.625 57.046875 L 21.261719 57.046875 L 21.261719 44.996094 L 41.710938 44.996094 C 44.808594 44.996094 47.300781 42.304688 47.300781 38.957031 L 47.300781 26.796875 "/></g></svg>
