<?xml version="1.0" encoding="UTF-8" standalone="no"?><svg width="64" height="64" viewBox="0 0 64 64" version="1.1" id="svg227" sodipodi:docname="goxel.svg" inkscape:version="1.2.2 (b0a8486541, 2022-12-01)" xmlns:inkscape="http://www.inkscape.org/namespaces/inkscape" xmlns:sodipodi="http://sodipodi.sourceforge.net/DTD/sodipodi-0.dtd" xmlns:xlink="http://www.w3.org/1999/xlink" xmlns="http://www.w3.org/2000/svg" xmlns:svg="http://www.w3.org/2000/svg"> <sodipodi:namedview id="namedview229" pagecolor="#ffffff" bordercolor="#000000" borderopacity="0.25" inkscape:showpageshadow="2" inkscape:pageopacity="0.0" inkscape:pagecheckerboard="0" inkscape:deskcolor="#d1d1d1" showgrid="false" inkscape:zoom="3.6875" inkscape:cx="32" inkscape:cy="32.135593" inkscape:window-width="1432" inkscape:window-height="844" inkscape:window-x="0" inkscape:window-y="0" inkscape:window-maximized="1" inkscape:current-layer="svg227" /> <defs id="defs218"> <linearGradient id="linear0" gradientUnits="userSpaceOnUse" x1="0" y1="0" x2="0" y2="1" gradientTransform="matrix(48,0,0,54.800781,16,9.199219)"> <stop offset="0" style="stop-color:#ff91d3;stop-opacity:1;" id="stop178" /> <stop offset="1" style="stop-color:#ff0099;stop-opacity:1;" id="stop180" /> </linearGradient> <filter id="alpha" filterUnits="objectBoundingBox" x="0" y="0" width="1" height="1"> <feColorMatrix type="matrix" in="SourceGraphic" values="0 0 0 0 1 0 0 0 0 1 0 0 0 0 1 0 0 0 1 0" id="feColorMatrix183" /> </filter> <mask id="mask0"> <g filter="url(#alpha)" id="g188"> <rect x="0" y="0" width="64" height="64" style="fill:rgb(0%,0%,0%);fill-opacity:0.4;stroke:none;" id="rect186" /> </g> </mask> <linearGradient id="linear1" gradientUnits="userSpaceOnUse" x1="0" y1="0" x2="0" y2="1" gradientTransform="matrix(64,0,0,64,0,0)"> <stop offset="0" style="stop-color:#ff91d3;stop-opacity:1;" id="stop191" /> <stop offset="1" style="stop-color:#ff0099;stop-opacity:1;" id="stop193" /> </linearGradient> <clipPath id="clip1"> <rect x="0" y="0" width="64" height="64" id="rect196" /> </clipPath> <g id="surface5" clip-path="url(#clip1)"> <path style=" stroke:none;fill-rule:nonzero;fill:url(#linear1);" d="M 48 27.199219 L 64 36.398438 L 64 54.800781 L 48 64 L 32 54.800781 L 16 64 L 0 54.800781 L 0 36.398438 L 16 27.199219 L 16 9.199219 L 32 0 L 48 9.199219 Z M 48 27.199219 " id="path199" /> </g> <mask id="mask1"> <g filter="url(#alpha)" id="g204"> <rect x="0" y="0" width="64" height="64" style="fill:rgb(0%,0%,0%);fill-opacity:0.5;stroke:none;" id="rect202" /> </g> </mask> <linearGradient id="linear2" gradientUnits="userSpaceOnUse" x1="0" y1="0" x2="0" y2="1" gradientTransform="matrix(63.9375,0,0,46.253906,0,0)"> <stop offset="0" style="stop-color:#ff91d3;stop-opacity:1;" id="stop207" /> <stop offset="1" style="stop-color:#ff0099;stop-opacity:1;" id="stop209" /> </linearGradient> <clipPath id="clip2"> <rect x="0" y="0" width="64" height="64" id="rect212" /> </clipPath> <g id="surface8" clip-path="url(#clip2)"> <path style=" stroke:none;fill-rule:evenodd;fill:url(#linear2);" d="M 48 27.199219 L 32 36.398438 L 48 45.800781 L 63.9375 36.5625 Z M 16 27.199219 L 0 36.398438 L 16 46.253906 L 32 36.398438 Z M 32 0 L 16 9.199219 L 32 18.398438 L 48 9.199219 Z M 32 0 " id="path215" /> </g> <filter style="color-interpolation-filters:sRGB;" inkscape:label="Diffuse Light" id="filter1805" x="-0.0375" y="-0.0375" width="1.075" height="1.075"> <feGaussianBlur in="SourceGraphic" stdDeviation="1" result="blur" id="feGaussianBlur1795" /> <feDiffuseLighting diffuseConstant="1" surfaceScale="10" lighting-color="rgb(255,255,255)" result="diffuse" id="feDiffuseLighting1799"> <feDistantLight elevation="8" azimuth="235" id="feDistantLight1797" /> </feDiffuseLighting> <feComposite in="diffuse" in2="diffuse" operator="arithmetic" k1="1" result="composite1" id="feComposite1801" /> <feComposite in="composite1" in2="SourceGraphic" k1="1" operator="arithmetic" k3="1" result="composite2" id="feComposite1803" /> </filter> </defs> <g id="surface1" style="filter:url(#filter1805)"> <path style=" stroke:none;fill-rule:nonzero;fill:url(#linear0);" d="M 48.125 27.375 L 64 36.398438 L 64 54.800781 L 48 64 L 48 45.800781 L 63.9375 36.5625 L 48.0625 27.4375 L 32 36.800781 L 32 54.800781 L 16 64 L 16 46.253906 L 32 36.398438 L 32 18.199219 L 48 9.199219 Z M 48.125 27.375 " id="path220" /> <use xlink:href="#surface5" mask="url(#mask0)" id="use222" /> <use xlink:href="#surface8" mask="url(#mask1)" id="use224" /> </g></svg>
