<svg width="64" height="64" viewBox="0 0 64 64" version="1.1" xmlns:inkscape="http://www.inkscape.org/namespaces/inkscape"><defs><linearGradient id="linear0" gradientUnits="userSpaceOnUse" x1="0" y1="0" x2="0" y2="1" gradientTransform="matrix(56,0,0,35.898438,4,14.050781)"><stop offset="0" style="stop-color:rgb(87.058824%,86.666667%,56.470591%);stop-opacity:1;"/><stop offset="1" style="stop-color:rgb(67.843139%,67.450982%,38.039216%);stop-opacity:1;"/></linearGradient><filter style="color-interpolation-filters:sRGB;" inkscape:label="Diffuse Light" id="filter184" x="-0.0375" y="-0.0375" width="1.075" height="1.075"><feGaussianBlur in="SourceGraphic" stdDeviation="1" result="blur" id="feGaussianBlur174" /><feDiffuseLighting diffuseConstant="1" surfaceScale="10" lighting-color="rgb(255,255,255)" result="diffuse" id="feDiffuseLighting178"><feDistantLight elevation="8" azimuth="235" id="feDistantLight176" /></feDiffuseLighting><feComposite in="diffuse" in2="diffuse" operator="arithmetic" k1="1" result="composite1" id="feComposite180" /><feComposite in="composite1" in2="SourceGraphic" k1="1" operator="arithmetic" k3="1" result="composite2" id="feComposite182" /></filter></defs><g id="surface1" style="filter:url(#filter184)"><path style=" stroke:none;fill-rule:nonzero;fill:url(#linear0);" d="M 2.941406 2.585938 L 2.941406 25.371094 L 5.871094 25.371094 L 5.871094 13.976562 L 17.613281 13.976562 L 17.613281 25.371094 L 20.542969 25.371094 L 20.542969 2.585938 L 17.613281 2.585938 L 17.613281 11.132812 L 5.871094 11.132812 L 5.871094 2.585938 Z M 2.941406 36.773438 L 2.941406 59.5625 L 14.675781 59.5625 L 14.675781 56.714844 L 5.871094 56.714844 L 5.871094 36.773438 Z M 19.074219 36.773438 C 18.265625 36.773438 17.613281 37.410156 17.613281 38.191406 C 17.613281 38.984375 18.265625 39.621094 19.074219 39.621094 C 19.890625 39.621094 20.542969 38.984375 20.542969 38.191406 C 20.542969 37.410156 19.890625 36.773438 19.074219 36.773438 Z M 32.277344 36.773438 L 32.277344 59.5625 L 39.617188 59.5625 C 43.675781 59.5625 46.949219 56.390625 46.949219 52.441406 C 46.949219 49.585938 45.238281 47.140625 42.753906 46.007812 C 43.546875 45.03125 44.019531 43.8125 44.019531 42.46875 C 44.019531 39.3125 41.398438 36.773438 38.148438 36.773438 Z M 35.21875 39.621094 L 38.148438 39.621094 C 39.773438 39.621094 41.078125 40.890625 41.078125 42.46875 C 41.078125 44.042969 39.773438 45.320312 38.148438 45.320312 L 35.21875 45.320312 Z M 17.613281 42.46875 L 17.613281 59.5625 L 20.542969 59.5625 L 20.542969 42.46875 Z M 55.75 45.320312 C 52.511719 45.320312 49.882812 48.511719 49.882812 52.441406 C 49.882812 56.371094 52.511719 59.5625 55.75 59.5625 C 58.683594 59.5625 59.78125 58.5 60.882812 56.714844 L 55.75 56.714844 C 54.515625 56.714844 53.40625 55.570312 52.992188 53.867188 L 61.484375 53.867188 C 61.570312 53.402344 61.621094 52.917969 61.621094 52.441406 C 61.621094 48.511719 58.992188 45.320312 55.75 45.320312 Z M 35.21875 48.167969 L 39.617188 48.167969 C 42.050781 48.167969 44.019531 50.070312 44.019531 52.441406 C 44.019531 54.8125 42.050781 56.714844 39.617188 56.714844 L 35.21875 56.714844 Z M 55.75 48.167969 C 57 48.167969 58.105469 49.3125 58.519531 51.015625 L 52.992188 51.015625 C 53.40625 49.3125 54.515625 48.167969 55.75 48.167969 Z M 55.75 48.167969 "/></g></svg>
