<svg width="64" height="64" viewBox="0 0 64 64" version="1.1" xmlns:inkscape="http://www.inkscape.org/namespaces/inkscape"><defs><linearGradient id="linear0" gradientUnits="userSpaceOnUse" x1="0" y1="0" x2="0" y2="1" gradientTransform="matrix(61.402981,0,0,39.372049,2.433947,9.394477)"><stop offset="0" style="stop-color:rgb(61.176473%,69.803923%,85.09804%);stop-opacity:1;"/><stop offset="1" style="stop-color:rgb(44.313726%,52.156866%,65.882355%);stop-opacity:1;"/></linearGradient><filter style="color-interpolation-filters:sRGB;" inkscape:label="Diffuse Light" id="filter184" x="-0.0375" y="-0.0375" width="1.075" height="1.075"><feGaussianBlur in="SourceGraphic" stdDeviation="1" result="blur" id="feGaussianBlur174" /><feDiffuseLighting diffuseConstant="1" surfaceScale="10" lighting-color="rgb(255,255,255)" result="diffuse" id="feDiffuseLighting178"><feDistantLight elevation="8" azimuth="235" id="feDistantLight176" /></feDiffuseLighting><feComposite in="diffuse" in2="diffuse" operator="arithmetic" k1="1" result="composite1" id="feComposite180" /><feComposite in="composite1" in2="SourceGraphic" k1="1" operator="arithmetic" k3="1" result="composite2" id="feComposite182" /></filter></defs><g id="surface1" style="filter:url(#filter184)"><path style=" stroke:none;fill-rule:nonzero;fill:url(#linear0);" d="M 48.839844 1.972656 C 46.21875 1.972656 44.097656 4.046875 44.097656 6.605469 C 44.101562 7.429688 44.332031 8.238281 44.765625 8.945312 L 39.640625 13.945312 C 36.515625 12.191406 32.660156 11.238281 28.683594 11.238281 C 18.863281 11.238281 10.902344 16.9375 10.902344 23.96875 C 10.914062 30.015625 16.859375 35.214844 25.128906 36.429688 L 25.128906 48.28125 L 36.984375 48.28125 C 43.554688 48.28125 48.839844 49.828125 48.839844 51.753906 C 48.839844 53.675781 43.554688 55.226562 36.984375 55.226562 L 24.488281 55.226562 C 23.644531 53.796875 22.082031 52.914062 20.382812 52.910156 C 17.765625 52.910156 15.644531 54.984375 15.644531 57.539062 C 15.644531 60.097656 17.765625 62.171875 20.382812 62.171875 C 22.082031 62.171875 23.644531 61.289062 24.488281 59.859375 L 36.984375 59.859375 C 46.1875 59.859375 53.582031 56.246094 53.582031 51.753906 C 53.582031 47.261719 46.1875 43.652344 36.984375 43.652344 L 29.871094 43.652344 L 29.871094 36.660156 C 39.203125 36.210938 46.457031 30.664062 46.46875 23.96875 C 46.46875 20.734375 44.746094 17.625 41.660156 15.265625 L 46.449219 10.589844 C 47.171875 11.007812 47.996094 11.230469 48.839844 11.238281 C 51.464844 11.238281 53.582031 9.167969 53.582031 6.609375 C 53.582031 4.050781 51.464844 1.976562 48.839844 1.976562 Z M 48.839844 4.292969 C 50.148438 4.292969 51.210938 5.328125 51.210938 6.605469 C 51.210938 7.886719 50.148438 8.917969 48.839844 8.917969 C 47.53125 8.917969 46.46875 7.886719 46.46875 6.605469 C 46.46875 5.328125 47.53125 4.292969 48.839844 4.292969 Z M 28.683594 15.867188 C 35.886719 15.867188 41.726562 19.496094 41.726562 23.96875 C 41.726562 28.445312 35.886719 32.074219 28.683594 32.074219 C 21.480469 32.074219 15.644531 28.445312 15.644531 23.96875 C 15.644531 19.496094 21.480469 15.867188 28.683594 15.867188 Z M 20.382812 55.226562 C 21.695312 55.226562 22.757812 56.265625 22.757812 57.539062 C 22.757812 58.820312 21.695312 59.859375 20.382812 59.859375 C 19.074219 59.859375 18.011719 58.820312 18.011719 57.539062 C 18.011719 56.265625 19.074219 55.226562 20.382812 55.226562 Z M 20.382812 55.226562 "/></g></svg>
