<svg width="64" height="64" viewBox="0 0 64 64" version="1.1" xmlns:inkscape="http://www.inkscape.org/namespaces/inkscape"><defs><linearGradient id="linear0" gradientUnits="userSpaceOnUse" x1="0" y1="0" x2="0" y2="1" gradientTransform="matrix(63.221026,0,0,39.744059,2.085303,11.196539)"><stop offset="0" style="stop-color:rgb(81.960785%,70.980394%,59.215689%);stop-opacity:1;"/><stop offset="1" style="stop-color:rgb(65.098041%,53.725493%,41.568628%);stop-opacity:1;"/></linearGradient><filter style="color-interpolation-filters:sRGB;" inkscape:label="Diffuse Light" id="filter184" x="-0.0375" y="-0.0375" width="1.075" height="1.075"><feGaussianBlur in="SourceGraphic" stdDeviation="1" result="blur" id="feGaussianBlur174" /><feDiffuseLighting diffuseConstant="1" surfaceScale="10" lighting-color="rgb(255,255,255)" result="diffuse" id="feDiffuseLighting178"><feDistantLight elevation="8" azimuth="235" id="feDistantLight176" /></feDiffuseLighting><feComposite in="diffuse" in2="diffuse" operator="arithmetic" k1="1" result="composite1" id="feComposite180" /><feComposite in="composite1" in2="SourceGraphic" k1="1" operator="arithmetic" k3="1" result="composite2" id="feComposite182" /></filter></defs><g id="surface1" style="filter:url(#filter184)"><path style=" stroke:none;fill-rule:nonzero;fill:url(#linear0);" d="M 14.542969 2.785156 L 8.414062 25.398438 L 28.046875 30.746094 C 28.609375 28.75 30.433594 27.367188 32.535156 27.367188 C 33.066406 27.367188 33.613281 27.503906 34.175781 27.660156 L 57.808594 34.113281 L 62.816406 15.613281 C 62.988281 14.988281 62.617188 14.359375 61.988281 14.195312 L 15.894531 1.984375 Z M 7.195312 29.839844 L 2.191406 48.363281 C 2.023438 48.984375 2.390625 49.613281 3.019531 49.777344 L 49.113281 61.984375 C 49.738281 62.15625 50.378906 61.785156 50.546875 61.167969 L 56.675781 38.550781 L 37.046875 33.210938 L 31.011719 36.332031 Z M 7.195312 29.839844 "/></g></svg>
