<svg width="64" height="64" viewBox="0 0 64 64" version="1.1" xmlns:inkscape="http://www.inkscape.org/namespaces/inkscape"><defs><linearGradient id="linear0" gradientUnits="userSpaceOnUse" x1="0" y1="0" x2="0" y2="1" gradientTransform="matrix(59.432495,0,0,42.23796,0.965508,8.826187)"><stop offset="0" style="stop-color:rgb(75.686276%,77.64706%,83.92157%);stop-opacity:1;"/><stop offset="1" style="stop-color:rgb(43.529412%,45.09804%,50.196081%);stop-opacity:1;"/></linearGradient><filter style="color-interpolation-filters:sRGB;" inkscape:label="Diffuse Light" id="filter184" x="-0.0375" y="-0.0375" width="1.075" height="1.075"><feGaussianBlur in="SourceGraphic" stdDeviation="1" result="blur" id="feGaussianBlur174" /><feDiffuseLighting diffuseConstant="1" surfaceScale="10" lighting-color="rgb(255,255,255)" result="diffuse" id="feDiffuseLighting178"><feDistantLight elevation="8" azimuth="235" id="feDistantLight176" /></feDiffuseLighting><feComposite in="diffuse" in2="diffuse" operator="arithmetic" k1="1" result="composite1" id="feComposite180" /><feComposite in="composite1" in2="SourceGraphic" k1="1" operator="arithmetic" k3="1" result="composite2" id="feComposite182" /></filter></defs><g id="surface1" style="filter:url(#filter184)"><path style=" stroke:none;fill-rule:nonzero;fill:url(#linear0);" d="M 18.652344 9.464844 C 14.507812 9.464844 9.328125 14.09375 9.328125 16.074219 C 9.328125 16.804688 9.792969 17.398438 10.363281 17.398438 C 25.902344 17.398438 21.757812 22.6875 32.117188 22.6875 C 38.953125 22.6875 48.6875 14.222656 48.6875 10.785156 C 48.6875 10.054688 48.429688 9.464844 47.855469 9.464844 C 45.789062 9.464844 40.402344 14.753906 34.1875 14.753906 C 30.042969 14.753906 23.828125 9.464844 18.652344 9.464844 Z M 33.152344 27.976562 C 29.007812 27.976562 23.828125 32.605469 23.828125 34.585938 C 23.828125 35.316406 24.292969 35.910156 24.867188 35.910156 C 40.402344 35.910156 36.257812 41.199219 46.617188 41.199219 C 53.453125 41.199219 63.1875 32.738281 63.1875 29.300781 C 63.1875 28.570312 62.929688 27.976562 62.359375 27.976562 C 60.285156 27.976562 54.902344 33.269531 48.6875 33.269531 C 44.542969 33.269531 38.332031 27.976562 33.152344 27.976562 Z M 10.363281 43.847656 C 6.222656 43.847656 1.042969 48.476562 1.042969 50.457031 C 1.042969 51.1875 1.507812 51.78125 2.078125 51.78125 C 17.613281 51.78125 13.472656 57.070312 23.828125 57.070312 C 30.664062 57.070312 40.402344 48.605469 40.402344 45.167969 C 40.402344 44.4375 40.144531 43.847656 39.574219 43.847656 C 37.5 43.847656 32.117188 49.132812 25.902344 49.132812 C 21.757812 49.132812 15.542969 43.847656 10.363281 43.847656 Z M 10.363281 43.847656 "/></g></svg>
