<svg width="64" height="64" viewBox="0 0 64 64" version="1.1" xmlns:inkscape="http://www.inkscape.org/namespaces/inkscape"><defs><linearGradient id="linear0" gradientUnits="userSpaceOnUse" x1="0" y1="0" x2="0" y2="1" gradientTransform="matrix(129.710258,0,0,62.839007,-32.93137,1.14129)"><stop offset="0" style="stop-color:rgb(100%,73.333335%,0%);stop-opacity:1;"/><stop offset="1" style="stop-color:rgb(70.19608%,51.372552%,0%);stop-opacity:1;"/></linearGradient><linearGradient id="linear1" gradientUnits="userSpaceOnUse" x1="0" y1="0" x2="0" y2="1" gradientTransform="matrix(129.710258,0,0,62.839007,-32.93137,1.14129)"><stop offset="0" style="stop-color:rgb(100%,73.333335%,0%);stop-opacity:1;"/><stop offset="1" style="stop-color:rgb(70.19608%,51.372552%,0%);stop-opacity:1;"/></linearGradient><linearGradient id="linear2" gradientUnits="userSpaceOnUse" x1="0" y1="0" x2="0" y2="1" gradientTransform="matrix(129.710258,0,0,62.839007,-32.93137,1.14129)"><stop offset="0" style="stop-color:rgb(100%,73.333335%,0%);stop-opacity:1;"/><stop offset="1" style="stop-color:rgb(70.19608%,51.372552%,0%);stop-opacity:1;"/></linearGradient><filter style="color-interpolation-filters:sRGB;" inkscape:label="Diffuse Light" id="filter184" x="-0.0375" y="-0.0375" width="1.075" height="1.075"><feGaussianBlur in="SourceGraphic" stdDeviation="1" result="blur" id="feGaussianBlur174" /><feDiffuseLighting diffuseConstant="1" surfaceScale="10" lighting-color="rgb(255,255,255)" result="diffuse" id="feDiffuseLighting178"><feDistantLight elevation="8" azimuth="235" id="feDistantLight176" /></feDiffuseLighting><feComposite in="diffuse" in2="diffuse" operator="arithmetic" k1="1" result="composite1" id="feComposite180" /><feComposite in="composite1" in2="SourceGraphic" k1="1" operator="arithmetic" k3="1" result="composite2" id="feComposite182" /></filter></defs><g id="surface1" style="filter:url(#filter184)"><path style=" stroke:none;fill-rule:nonzero;fill:url(#linear0);" d="M 7.214844 2.222656 L 7.214844 4.554688 L 10.308594 6.886719 L 22.660156 6.886719 L 25.742188 4.554688 L 25.742188 2.222656 Z M 28.839844 25.558594 L 25.742188 27.890625 L 25.742188 37.230469 L 28.839844 39.5625 L 35.007812 39.5625 L 38.101562 37.230469 L 38.101562 27.890625 L 35.007812 25.558594 Z M 41.1875 58.238281 L 38.101562 60.566406 L 38.101562 62.898438 L 56.632812 62.898438 L 56.632812 60.566406 L 53.539062 58.238281 Z M 41.1875 58.238281 "/><path style=" stroke:none;fill-rule:nonzero;fill:url(#linear1);" d="M 7.214844 2.222656 L 7.214844 4.554688 L 10.308594 6.886719 L 10.308594 9.222656 C 10.308594 14.398438 15.800781 18.558594 22.660156 18.558594 L 44.273438 18.558594 C 47.703125 18.558594 50.453125 20.636719 50.453125 23.226562 C 50.453125 25.8125 47.703125 27.890625 44.273438 27.890625 L 38.101562 27.890625 L 35.007812 25.558594 L 31.921875 25.558594 L 25.742188 32.5625 L 31.921875 39.5625 L 35.007812 39.5625 L 38.101562 37.230469 L 44.273438 37.230469 C 54.535156 37.230469 62.804688 30.972656 62.804688 23.226562 C 62.804688 15.472656 54.535156 9.222656 44.273438 9.222656 L 22.660156 9.222656 L 22.660156 6.886719 L 25.742188 4.554688 L 25.742188 2.222656 Z M 7.214844 2.222656 "/><path style=" stroke:none;fill-rule:nonzero;fill:url(#linear2);" d="M 56.632812 62.898438 L 56.632812 60.566406 L 53.539062 58.238281 L 53.539062 55.898438 C 53.539062 50.722656 48.046875 46.566406 41.1875 46.566406 L 19.574219 46.566406 C 16.144531 46.566406 13.394531 44.484375 13.394531 41.894531 C 13.394531 39.308594 16.144531 37.230469 19.574219 37.230469 L 25.742188 37.230469 L 28.839844 39.5625 L 31.921875 39.5625 L 31.921875 25.558594 L 28.839844 25.558594 L 25.742188 27.890625 L 19.574219 27.890625 C 9.3125 27.890625 1.042969 34.148438 1.042969 41.894531 C 1.042969 49.648438 9.3125 55.898438 19.574219 55.898438 L 41.1875 55.898438 L 41.1875 58.238281 L 38.101562 60.566406 L 38.101562 62.898438 Z M 56.632812 62.898438 "/></g></svg>
