<svg width="64" height="64" viewBox="0 0 64 64" version="1.1" xmlns:inkscape="http://www.inkscape.org/namespaces/inkscape"><defs><linearGradient id="linear0" gradientUnits="userSpaceOnUse" x1="0" y1="0" x2="0" y2="1" gradientTransform="matrix(76.043147,0,0,73.870536,-2.465111,-1.768735)"><stop offset="0" style="stop-color:rgb(100%,63.137257%,63.137257%);stop-opacity:1;"/><stop offset="1" style="stop-color:rgb(100%,27.843139%,27.843139%);stop-opacity:1;"/></linearGradient><filter style="color-interpolation-filters:sRGB;" inkscape:label="Diffuse Light" id="filter184" x="-0.0375" y="-0.0375" width="1.075" height="1.075"><feGaussianBlur in="SourceGraphic" stdDeviation="1" result="blur" id="feGaussianBlur174" /><feDiffuseLighting diffuseConstant="1" surfaceScale="10" lighting-color="rgb(255,255,255)" result="diffuse" id="feDiffuseLighting178"><feDistantLight elevation="8" azimuth="235" id="feDistantLight176" /></feDiffuseLighting><feComposite in="diffuse" in2="diffuse" operator="arithmetic" k1="1" result="composite1" id="feComposite180" /><feComposite in="composite1" in2="SourceGraphic" k1="1" operator="arithmetic" k3="1" result="composite2" id="feComposite182" /></filter></defs><g id="surface1" style="filter:url(#filter184)"><path style=" stroke:none;fill-rule:nonzero;fill:url(#linear0);" d="M 39.960938 1.453125 C 39.710938 1.484375 39.472656 1.566406 39.25 1.699219 L 20.058594 13 L 35.101562 13 L 38.175781 11.199219 L 39.242188 13 L 47.886719 13 L 41.847656 2.414062 C 41.457031 1.71875 40.6875 1.363281 39.949219 1.453125 M 13.667969 16.730469 L 3.25 22.871094 C 2.335938 23.398438 2.011719 24.59375 2.539062 25.519531 L 13.667969 45.003906 L 13.667969 29.726562 L 11.890625 26.597656 L 13.667969 25.519531 L 13.667969 16.734375 M 19.347656 16.859375 C 18.304688 16.859375 17.460938 17.714844 17.460938 18.78125 L 17.460938 61.125 C 17.460938 62.191406 18.304688 63.046875 19.347656 63.046875 L 61.03125 63.046875 C 62.085938 63.046875 62.925781 62.191406 62.925781 61.125 L 62.925781 18.78125 C 62.925781 17.714844 62.085938 16.859375 61.03125 16.859375 Z M 25.035156 24.558594 L 55.355469 24.558594 L 55.355469 51.5 L 25.035156 51.5 Z M 25.035156 24.558594 "/></g></svg>
