<svg width="64" height="64" viewBox="0 0 64 64" version="1.1" xmlns:inkscape="http://www.inkscape.org/namespaces/inkscape"><defs><linearGradient id="linear0" gradientUnits="userSpaceOnUse" x1="0" y1="0" x2="0" y2="1" gradientTransform="matrix(64,0,0,64,0,0)"><stop offset="0" style="stop-color:rgb(0%,73.333335%,100%);stop-opacity:1;"/><stop offset="1" style="stop-color:rgb(0%,52.156866%,70.980394%);stop-opacity:1;"/></linearGradient><filter style="color-interpolation-filters:sRGB;" inkscape:label="Diffuse Light" id="filter184" x="-0.0375" y="-0.0375" width="1.075" height="1.075"><feGaussianBlur in="SourceGraphic" stdDeviation="1" result="blur" id="feGaussianBlur174" /><feDiffuseLighting diffuseConstant="1" surfaceScale="10" lighting-color="rgb(255,255,255)" result="diffuse" id="feDiffuseLighting178"><feDistantLight elevation="8" azimuth="235" id="feDistantLight176" /></feDiffuseLighting><feComposite in="diffuse" in2="diffuse" operator="arithmetic" k1="1" result="composite1" id="feComposite180" /><feComposite in="composite1" in2="SourceGraphic" k1="1" operator="arithmetic" k3="1" result="composite2" id="feComposite182" /></filter></defs><g id="surface1" style="filter:url(#filter184)"><path style=" stroke:none;fill-rule:nonzero;fill:url(#linear0);" d="M 18.835938 0 L 18.835938 18.835938 L 0 18.835938 L 0 24.367188 L 18.835938 24.367188 L 18.835938 39.625 L 0 39.625 L 0 45.164062 L 18.835938 45.164062 L 18.835938 64 L 24.375 64 L 24.375 45.164062 L 39.632812 45.164062 L 39.632812 64 L 45.164062 64 L 45.164062 45.164062 L 64 45.164062 L 64 39.625 L 45.164062 39.625 L 45.164062 24.367188 L 64 24.367188 L 64 18.835938 L 45.164062 18.835938 L 45.164062 0 L 39.632812 0 L 39.632812 18.835938 L 24.375 18.835938 L 24.375 0 Z M 24.375 24.367188 L 39.632812 24.367188 L 39.632812 39.625 L 24.375 39.625 Z M 24.375 24.367188 "/></g></svg>
