<svg width="64" height="64" viewBox="0 0 64 64" version="1.1" xmlns:inkscape="http://www.inkscape.org/namespaces/inkscape"><defs><linearGradient id="linear0" gradientUnits="userSpaceOnUse" x1="0" y1="0" x2="0" y2="1" gradientTransform="matrix(72.877234,0,0,68.892138,-3.599601,-2.175134)"><stop offset="0" style="stop-color:rgb(41.960785%,64.313728%,100%);stop-opacity:1;"/><stop offset="1" style="stop-color:rgb(0%,43.137255%,100%);stop-opacity:1;"/></linearGradient><filter style="color-interpolation-filters:sRGB;" inkscape:label="Diffuse Light" id="filter184" x="-0.0375" y="-0.0375" width="1.075" height="1.075"><feGaussianBlur in="SourceGraphic" stdDeviation="1" result="blur" id="feGaussianBlur174" /><feDiffuseLighting diffuseConstant="1" surfaceScale="10" lighting-color="rgb(255,255,255)" result="diffuse" id="feDiffuseLighting178"><feDistantLight elevation="8" azimuth="235" id="feDistantLight176" /></feDiffuseLighting><feComposite in="diffuse" in2="diffuse" operator="arithmetic" k1="1" result="composite1" id="feComposite180" /><feComposite in="composite1" in2="SourceGraphic" k1="1" operator="arithmetic" k3="1" result="composite2" id="feComposite182" /></filter></defs><g id="surface1" style="filter:url(#filter184)"><path style=" stroke:none;fill-rule:nonzero;fill:url(#linear0);" d="M 10.9375 1.226562 C 9.335938 1.238281 7.625 2.03125 7.453125 3.917969 C 6.847656 12.28125 6.765625 21.089844 8.019531 28.605469 C 8.667969 32.324219 9.613281 35.914062 10.875 39.066406 C 12.09375 42.070312 13.542969 44.925781 15.085938 47.363281 C 17.234375 50.753906 19.761719 53.839844 22.59375 56.253906 C 25.207031 58.476562 28.144531 60.320312 32.152344 62.820312 C 36.160156 60.320312 39.09375 58.476562 41.707031 56.253906 C 44.539062 53.839844 47.074219 50.753906 49.226562 47.363281 C 50.761719 44.925781 52.210938 42.078125 53.425781 39.066406 C 54.6875 35.914062 55.632812 32.324219 56.292969 28.605469 C 57.53125 21.089844 57.4375 12.28125 56.832031 3.917969 C 56.660156 2.03125 54.957031 1.238281 53.347656 1.226562 L 10.929688 1.226562 "/></g></svg>
