<svg width="64" height="64" viewBox="0 0 64 64" version="1.1" xmlns:inkscape="http://www.inkscape.org/namespaces/inkscape"><defs><linearGradient id="linear0" gradientUnits="userSpaceOnUse" x1="0" y1="0" x2="0" y2="1" gradientTransform="matrix(61.836048,0,0,39.625926,1.39931,13.956156)"><stop offset="0" style="stop-color:rgb(100%,63.137257%,63.137257%);stop-opacity:1;"/><stop offset="1" style="stop-color:rgb(100%,27.843139%,27.843139%);stop-opacity:1;"/></linearGradient><linearGradient id="linear1" gradientUnits="userSpaceOnUse" x1="0" y1="0" x2="0" y2="1" gradientTransform="matrix(61.836048,0,0,39.625926,1.39931,13.956156)"><stop offset="0" style="stop-color:rgb(100%,63.137257%,63.137257%);stop-opacity:1;"/><stop offset="1" style="stop-color:rgb(100%,27.843139%,27.843139%);stop-opacity:1;"/></linearGradient><linearGradient id="linear2" gradientUnits="userSpaceOnUse" x1="0" y1="0" x2="0" y2="1" gradientTransform="matrix(61.836048,0,0,39.625926,1.39931,13.956156)"><stop offset="0" style="stop-color:rgb(100%,63.137257%,63.137257%);stop-opacity:1;"/><stop offset="1" style="stop-color:rgb(100%,27.843139%,27.843139%);stop-opacity:1;"/></linearGradient><filter style="color-interpolation-filters:sRGB;" inkscape:label="Diffuse Light" id="filter184" x="-0.0375" y="-0.0375" width="1.075" height="1.075"><feGaussianBlur in="SourceGraphic" stdDeviation="1" result="blur" id="feGaussianBlur174" /><feDiffuseLighting diffuseConstant="1" surfaceScale="10" lighting-color="rgb(255,255,255)" result="diffuse" id="feDiffuseLighting178"><feDistantLight elevation="8" azimuth="235" id="feDistantLight176" /></feDiffuseLighting><feComposite in="diffuse" in2="diffuse" operator="arithmetic" k1="1" result="composite1" id="feComposite180" /><feComposite in="composite1" in2="SourceGraphic" k1="1" operator="arithmetic" k3="1" result="composite2" id="feComposite182" /></filter></defs><g id="surface1" style="filter:url(#filter184)"><path style=" stroke:none;fill-rule:nonzero;fill:url(#linear0);" d="M 26.3125 20.617188 C 22.332031 24.957031 19.460938 32.628906 19.449219 40.0625 C 19.449219 52.828125 26.277344 63.1875 34.699219 63.1875 C 41.394531 63.1875 47.824219 55.855469 49.789062 46.152344 C 45.023438 39.535156 39.109375 31.988281 32.671875 25.484375 C 30.648438 23.4375 28.484375 21.863281 26.3125 20.617188 Z M 26.3125 20.617188 "/><path style=" stroke:none;fill-rule:nonzero;fill:url(#linear1);" d="M 1.664062 1.519531 C 1.664062 1.519531 19.203125 8.0625 34.699219 23.101562 C 47.40625 35.441406 62.652344 57.019531 62.652344 57.019531 L 57.566406 53.941406 L 60.117188 63.1875 C 60.117188 63.1875 47.40625 41.597656 32.15625 26.191406 C 22.398438 16.320312 9.289062 16.941406 9.289062 16.941406 C 9.289062 16.941406 6.746094 20.023438 6.746094 35.441406 C 6.746094 41.597656 9.289062 50.851562 9.289062 50.851562 C 9.289062 50.851562 4.203125 41.597656 4.203125 35.441406 L 4.203125 16.941406 L 1.664062 10.773438 L 6.746094 13.851562 Z M 1.664062 1.519531 "/><path style=" stroke:none;fill-rule:nonzero;fill:url(#linear2);" d="M 29.621094 32.351562 C 29.621094 35.757812 26.199219 38.519531 21.996094 38.519531 C 17.78125 38.519531 14.375 35.757812 14.375 32.351562 C 14.375 28.949219 17.78125 26.191406 21.996094 26.191406 C 26.199219 26.191406 29.621094 28.949219 29.621094 32.351562 Z M 29.621094 32.351562 "/></g></svg>
