<?xml version="1.0" encoding="UTF-8" standalone="no"?><svg width="64" height="64" viewBox="0 0 64 64" version="1.1" id="svg360" sodipodi:docname="hamster.svg" inkscape:version="1.2.2 (b0a8486541, 2022-12-01)" xmlns:inkscape="http://www.inkscape.org/namespaces/inkscape" xmlns:sodipodi="http://sodipodi.sourceforge.net/DTD/sodipodi-0.dtd" xmlns:xlink="http://www.w3.org/1999/xlink" xmlns="http://www.w3.org/2000/svg" xmlns:svg="http://www.w3.org/2000/svg"> <sodipodi:namedview id="namedview362" pagecolor="#ffffff" bordercolor="#000000" borderopacity="0.25" inkscape:showpageshadow="2" inkscape:pageopacity="0.0" inkscape:pagecheckerboard="0" inkscape:deskcolor="#d1d1d1" showgrid="false" inkscape:zoom="3.6875" inkscape:cx="32" inkscape:cy="32.135593" inkscape:window-width="1432" inkscape:window-height="844" inkscape:window-x="0" inkscape:window-y="0" inkscape:window-maximized="1" inkscape:current-layer="svg360" /> <defs id="defs353"> <filter id="alpha" filterUnits="objectBoundingBox" x="0" y="0" width="1" height="1"> <feColorMatrix type="matrix" in="SourceGraphic" values="0 0 0 0 1 0 0 0 0 1 0 0 0 0 1 0 0 0 1 0" id="feColorMatrix329" /> </filter> <mask id="mask0"> <g filter="url(#alpha)" id="g334"> <rect x="0" y="0" width="64" height="64" style="fill:rgb(0%,0%,0%);fill-opacity:0.6;stroke:none;" id="rect332" /> </g> </mask> <linearGradient id="linear0" gradientUnits="userSpaceOnUse" x1="0" y1="0" x2="0" y2="1" gradientTransform="matrix(17.074219,0,0,16.078125,23.644531,36.996094)"> <stop offset="0" style="stop-color:#9cb2d9;stop-opacity:1;" id="stop337" /> <stop offset="1" style="stop-color:#7185a8;stop-opacity:1;" id="stop339" /> </linearGradient> <clipPath id="clip1"> <rect x="0" y="0" width="64" height="64" id="rect342" /> </clipPath> <g id="surface5" clip-path="url(#clip1)"> <path style=" stroke:none;fill-rule:nonzero;fill:url(#linear0);" d="M 23.804688 40.351562 C 23.238281 42.957031 24.320312 46.101562 24.894531 48.574219 C 25.1875 49.847656 25.5625 51.414062 26.519531 52.210938 C 27.078125 52.695312 27.726562 52.851562 28.390625 52.894531 C 29.730469 52.960938 31.03125 53.292969 31.730469 51.527344 C 31.921875 51.054688 32.261719 50.265625 32.777344 50.730469 C 33.253906 51.171875 33.085938 51.9375 33.636719 52.363281 C 35.332031 53.644531 38.023438 53.226562 38.953125 50.878906 C 40.011719 48.199219 40.253906 45.460938 40.71875 42.632812 L 38.398438 38.910156 L 31.914062 36.996094 Z M 23.804688 40.351562 " id="path345" /> </g> <linearGradient id="linear1" gradientUnits="userSpaceOnUse" x1="0" y1="0" x2="0" y2="1" gradientTransform="matrix(64,0,0,32.25,0,10.925781)"> <stop offset="0" style="stop-color:#9cb2d9;stop-opacity:1;" id="stop348" /> <stop offset="1" style="stop-color:#7185a8;stop-opacity:1;" id="stop350" /> </linearGradient> <filter style="color-interpolation-filters:sRGB;" inkscape:label="Diffuse Light" id="filter1672" x="-0.037499921" y="-0.056939056" width="1.0749998" height="1.1138781"> <feGaussianBlur in="SourceGraphic" stdDeviation="1" result="blur" id="feGaussianBlur1662" /> <feDiffuseLighting diffuseConstant="1" surfaceScale="10" lighting-color="rgb(255,255,255)" result="diffuse" id="feDiffuseLighting1666"> <feDistantLight elevation="8" azimuth="235" id="feDistantLight1664" /> </feDiffuseLighting> <feComposite in="diffuse" in2="diffuse" operator="arithmetic" k1="1" result="composite1" id="feComposite1668" /> <feComposite in="composite1" in2="SourceGraphic" k1="1" operator="arithmetic" k3="1" result="composite2" id="feComposite1670" /> </filter> </defs> <g id="surface1" style="filter:url(#filter1672)"> <use xlink:href="#surface5" mask="url(#mask0)" id="use355" /> <path style=" stroke:none;fill-rule:nonzero;fill:url(#linear1);" d="M 6.074219 10.925781 C 2.746094 10.898438 0.0351562 14.363281 0 18.632812 C -0.015625 22.9375 2.679688 26.410156 6.007812 26.441406 C 9.320312 26.449219 12.050781 23.003906 12.058594 18.726562 C 12.082031 14.445312 9.386719 10.941406 6.074219 10.925781 Z M 57.925781 10.925781 C 54.605469 10.941406 51.917969 14.445312 51.941406 18.726562 C 51.949219 23.003906 54.671875 26.449219 57.992188 26.441406 C 61.320312 26.410156 64.015625 22.9375 64 18.632812 C 63.964844 14.363281 61.246094 10.898438 57.925781 10.925781 Z M 39.648438 24.851562 C 38.417969 24.632812 37.199219 25.652344 36.042969 25.925781 C 34.5 26.308594 32.582031 26.476562 31 26.476562 C 30.042969 26.484375 27.199219 25.535156 25.214844 25.515625 C 23.59375 25.507812 22.585938 26.136719 23.667969 28.433594 C 24.871094 30.984375 27.269531 32.75 29.925781 33.433594 C 29.945312 33.953125 29.839844 34.316406 29.757812 34.859375 C 29.699219 35.257812 29.699219 35.550781 29.574219 35.898438 C 29.375 36.472656 28.882812 37.132812 28.351562 37.507812 C 27.136719 38.375 25.773438 38.898438 24.332031 39.167969 C 22.785156 39.441406 21.113281 39.359375 19.648438 38.933594 C 18.644531 38.640625 17.539062 37.648438 16.507812 37.640625 C 15.558594 37.632812 15 38.460938 15.066406 39.332031 C 15.234375 41.390625 17.328125 42.074219 18.992188 42.601562 C 21.464844 43.375 24.246094 43.382812 26.699219 42.507812 C 28.191406 41.976562 29.75 41.28125 31.359375 41.007812 C 32.929688 40.742188 33.84375 41.425781 35.285156 41.824219 C 36.863281 42.273438 38.351562 42.917969 40 43.101562 C 41.699219 43.292969 43.445312 43.109375 45.082031 42.601562 C 46.40625 42.183594 49.339844 41.148438 48.933594 39.191406 C 48.882812 38.984375 48.816406 38.800781 48.742188 38.648438 C 47.96875 37.144531 45.730469 38.441406 44.558594 38.75 C 43.699219 38.964844 42.773438 38.898438 41.867188 38.898438 C 40.101562 38.898438 38.296875 38.808594 36.648438 38.117188 C 36.058594 37.867188 35.222656 37.472656 34.851562 36.910156 C 34.269531 36.050781 34.351562 34.730469 34.308594 33.484375 C 35.15625 33.28125 35.988281 32.988281 36.757812 32.507812 C 37.492188 32.050781 38.441406 31.515625 39.058594 30.917969 C 39.824219 30.183594 40.359375 28.925781 40.707031 27.941406 C 41.148438 26.734375 41.222656 25.125 39.648438 24.851562 Z M 39.648438 24.851562 " id="path357" /> </g></svg>
