<svg width="64" height="64" viewBox="0 0 64 64" version="1.1" xmlns:inkscape="http://www.inkscape.org/namespaces/inkscape"><defs><linearGradient id="linear0" gradientUnits="userSpaceOnUse" x1="0" y1="0" x2="0" y2="1" gradientTransform="matrix(64.975299,0,0,65.092438,-0.184844,-0.726781)"><stop offset="0" style="stop-color:rgb(100%,63.137257%,63.137257%);stop-opacity:1;"/><stop offset="1" style="stop-color:rgb(100%,27.843139%,27.843139%);stop-opacity:1;"/></linearGradient><filter style="color-interpolation-filters:sRGB;" inkscape:label="Diffuse Light" id="filter184" x="-0.0375" y="-0.0375" width="1.075" height="1.075"><feGaussianBlur in="SourceGraphic" stdDeviation="1" result="blur" id="feGaussianBlur174" /><feDiffuseLighting diffuseConstant="1" surfaceScale="10" lighting-color="rgb(255,255,255)" result="diffuse" id="feDiffuseLighting178"><feDistantLight elevation="8" azimuth="235" id="feDistantLight176" /></feDiffuseLighting><feComposite in="diffuse" in2="diffuse" operator="arithmetic" k1="1" result="composite1" id="feComposite180" /><feComposite in="composite1" in2="SourceGraphic" k1="1" operator="arithmetic" k3="1" result="composite2" id="feComposite182" /></filter></defs><g id="surface1" style="filter:url(#filter184)"><path style=" stroke:none;fill-rule:nonzero;fill:url(#linear0);" d="M 22.351562 2.039062 L 19.847656 17.027344 L 3.949219 17.027344 L 2.308594 27.023438 L 18.121094 27.023438 L 16.476562 37.019531 L 3.957031 37.019531 L 2.308594 47.007812 L 14.835938 47.007812 L 12.335938 62.003906 L 22.351562 62.003906 L 24.855469 47.007812 L 34.878906 47.007812 L 32.367188 62.003906 L 42.394531 62.003906 L 44.894531 47.007812 L 60.785156 47.007812 L 62.425781 37.019531 L 46.617188 37.019531 L 48.257812 27.023438 L 60.785156 27.023438 L 62.425781 17.027344 L 49.902344 17.027344 L 52.40625 2.039062 L 42.382812 2.039062 L 39.882812 17.027344 L 29.863281 17.027344 L 32.367188 2.039062 M 28.136719 27.023438 L 38.230469 27.023438 L 36.589844 37.019531 L 26.496094 37.019531 "/></g></svg>
