<svg width="64" height="64" viewBox="0 0 64 64" version="1.1" xmlns:inkscape="http://www.inkscape.org/namespaces/inkscape"><defs><linearGradient id="linear0" gradientUnits="userSpaceOnUse" x1="0" y1="0" x2="0" y2="1" gradientTransform="matrix(83.991729,0,0,51.672021,-12.922298,2.370027)"><stop offset="0" style="stop-color:rgb(87.058824%,86.666667%,56.470591%);stop-opacity:1;"/><stop offset="1" style="stop-color:rgb(67.843139%,67.450982%,38.039216%);stop-opacity:1;"/></linearGradient><filter style="color-interpolation-filters:sRGB;" inkscape:label="Diffuse Light" id="filter184" x="-0.0375" y="-0.0375" width="1.075" height="1.075"><feGaussianBlur in="SourceGraphic" stdDeviation="1" result="blur" id="feGaussianBlur174" /><feDiffuseLighting diffuseConstant="1" surfaceScale="10" lighting-color="rgb(255,255,255)" result="diffuse" id="feDiffuseLighting178"><feDistantLight elevation="8" azimuth="235" id="feDistantLight176" /></feDiffuseLighting><feComposite in="diffuse" in2="diffuse" operator="arithmetic" k1="1" result="composite1" id="feComposite180" /><feComposite in="composite1" in2="SourceGraphic" k1="1" operator="arithmetic" k3="1" result="composite2" id="feComposite182" /></filter></defs><g id="surface1" style="filter:url(#filter184)"><path style=" stroke:none;fill-rule:nonzero;fill:url(#linear0);" d="M 16.6875 1.8125 C 8.261719 1.8125 1.4375 8.730469 1.4375 17.257812 C 1.4375 25.789062 8.261719 32.699219 16.6875 32.699219 C 25.105469 32.699219 31.933594 25.789062 31.933594 17.257812 C 31.933594 8.730469 25.105469 1.8125 16.6875 1.8125 Z M 56.710938 9.535156 C 53.550781 9.535156 50.992188 12.125 50.992188 15.324219 C 50.992188 37.757812 36.925781 52.007812 14.777344 52.007812 C 11.621094 52.007812 9.058594 54.597656 9.058594 57.796875 C 9.058594 60.996094 11.621094 63.589844 14.777344 63.589844 C 42.1875 63.589844 62.425781 43.089844 62.425781 15.324219 C 62.425781 12.125 59.867188 9.535156 56.710938 9.535156 Z M 56.710938 9.535156 "/></g></svg>
