<svg xmlns="http://www.w3.org/2000/svg" xmlns:xlink="http://www.w3.org/1999/xlink" width="64" height="64" viewBox="0 0 64 64" version="1.1"><defs><filter id="alpha" filterUnits="objectBoundingBox" x="0%" y="0%" width="100%" height="100%"> <feColorMatrix type="matrix" in="SourceGraphic" values="0 0 0 0 1 0 0 0 0 1 0 0 0 0 1 0 0 0 1 0"/></filter><mask id="mask0"> <g filter="url(#alpha)"><rect x="0" y="0" width="64" height="64" style="fill:rgb(0%,0%,0%);fill-opacity:0.1;stroke:none;"/> </g></mask><clipPath id="clip1"> <rect x="0" y="0" width="64" height="64"/></clipPath><g id="surface8" clip-path="url(#clip1)"><path style=" stroke:none;fill-rule:nonzero;fill:rgb(11.764706%,56.470591%,100%);fill-opacity:1;" d="M 2.710938 2.980469 L 2.710938 15.5 L 15.082031 15.5 L 15.082031 2.980469 Z M 17.554688 2.980469 L 17.554688 15.5 L 29.925781 15.5 L 29.925781 2.980469 Z M 34.875 2.980469 L 34.875 15.5 L 47.246094 15.5 L 47.246094 2.980469 Z M 49.71875 2.980469 L 49.71875 15.5 L 62.089844 15.5 L 62.089844 2.980469 Z M 2.710938 18.003906 L 2.710938 30.523438 L 15.082031 30.523438 L 15.082031 18.003906 Z M 17.554688 18.003906 L 17.554688 30.523438 L 29.925781 30.523438 L 29.925781 18.003906 Z M 34.875 18.003906 L 34.875 30.523438 L 47.246094 30.523438 L 47.246094 18.003906 Z M 49.71875 18.003906 L 49.71875 30.523438 L 62.089844 30.523438 L 62.089844 18.003906 Z M 2.710938 35.53125 L 2.710938 48.050781 L 15.082031 48.050781 L 15.082031 35.53125 Z M 17.554688 35.53125 L 17.554688 48.050781 L 29.925781 48.050781 L 29.925781 35.53125 Z M 34.875 35.53125 L 34.875 48.050781 L 47.246094 48.050781 L 47.246094 35.53125 Z M 49.71875 35.53125 L 49.71875 48.050781 L 62.089844 48.050781 L 62.089844 35.53125 Z M 2.710938 50.554688 L 2.710938 63.074219 L 15.082031 63.074219 L 15.082031 50.554688 Z M 17.554688 50.554688 L 17.554688 63.074219 L 29.925781 63.074219 L 29.925781 50.554688 Z M 34.875 50.554688 L 34.875 63.074219 L 47.246094 63.074219 L 47.246094 50.554688 Z M 49.71875 50.554688 L 49.71875 63.074219 L 62.089844 63.074219 L 62.089844 50.554688 Z M 49.71875 50.554688 "/></g></defs><g id="surface1"><use xlink:href="#surface8" mask="url(#mask0)"/></g></svg>
