<svg width="64" height="64" viewBox="0 0 64 64" version="1.1" xmlns:inkscape="http://www.inkscape.org/namespaces/inkscape"><defs><linearGradient id="linear0" gradientUnits="userSpaceOnUse" x1="0" y1="0" x2="0" y2="1" gradientTransform="matrix(83.657884,0,0,82.967644,-9.90195,-9.529825)"><stop offset="0" style="stop-color:rgb(75.686276%,77.64706%,83.92157%);stop-opacity:1;"/><stop offset="1" style="stop-color:rgb(43.529412%,45.09804%,50.196081%);stop-opacity:1;"/></linearGradient><linearGradient id="linear1" gradientUnits="userSpaceOnUse" x1="0" y1="0" x2="0" y2="1" gradientTransform="matrix(83.657884,0,0,82.967644,-9.90195,-9.529825)"><stop offset="0" style="stop-color:rgb(75.686276%,77.64706%,83.92157%);stop-opacity:1;"/><stop offset="1" style="stop-color:rgb(43.529412%,45.09804%,50.196081%);stop-opacity:1;"/></linearGradient><linearGradient id="linear2" gradientUnits="userSpaceOnUse" x1="0" y1="0" x2="0" y2="1" gradientTransform="matrix(83.657884,0,0,82.967644,-9.90195,-9.529825)"><stop offset="0" style="stop-color:rgb(75.686276%,77.64706%,83.92157%);stop-opacity:1;"/><stop offset="1" style="stop-color:rgb(43.529412%,45.09804%,50.196081%);stop-opacity:1;"/></linearGradient><filter style="color-interpolation-filters:sRGB;" inkscape:label="Diffuse Light" id="filter184" x="-0.0375" y="-0.0375" width="1.075" height="1.075"><feGaussianBlur in="SourceGraphic" stdDeviation="1" result="blur" id="feGaussianBlur174" /><feDiffuseLighting diffuseConstant="1" surfaceScale="10" lighting-color="rgb(255,255,255)" result="diffuse" id="feDiffuseLighting178"><feDistantLight elevation="8" azimuth="235" id="feDistantLight176" /></feDiffuseLighting><feComposite in="diffuse" in2="diffuse" operator="arithmetic" k1="1" result="composite1" id="feComposite180" /><feComposite in="composite1" in2="SourceGraphic" k1="1" operator="arithmetic" k3="1" result="composite2" id="feComposite182" /></filter></defs><g id="surface1" style="filter:url(#filter184)"><path style=" stroke:none;fill-rule:nonzero;fill:url(#linear0);" d="M 51.933594 32.296875 C 51.933594 43.15625 43.058594 51.957031 32.113281 51.957031 C 21.171875 51.957031 12.296875 43.15625 12.296875 32.296875 C 12.296875 21.445312 21.171875 12.644531 32.113281 12.644531 C 43.058594 12.644531 51.933594 21.445312 51.933594 32.296875 Z M 51.933594 32.296875 "/><path style=" stroke:none;fill-rule:nonzero;fill:url(#linear1);" d="M 31.925781 62.296875 L 20.71875 42.492188 L 1.332031 31.953125 L 21.300781 20.84375 L 31.925781 1.617188 L 43.125 21.421875 L 62.519531 31.953125 L 42.550781 43.070312 Z M 31.925781 62.296875 "/><path style=" stroke:none;fill-rule:nonzero;fill:url(#linear2);" d="M 50.902344 13.097656 L 44.136719 32 L 50.902344 50.808594 L 31.84375 44.09375 L 12.878906 50.808594 L 19.648438 31.902344 L 12.878906 13.097656 L 31.941406 19.804688 Z M 50.902344 13.097656 "/></g></svg>
