<svg width="64" height="64" viewBox="0 0 64 64" version="1.1" xmlns:inkscape="http://www.inkscape.org/namespaces/inkscape"><defs><linearGradient id="linear0" gradientUnits="userSpaceOnUse" x1="0" y1="0" x2="0" y2="1" gradientTransform="matrix(70.109646,0,0,66.586744,-2.191555,-0.99363)"><stop offset="0" style="stop-color:rgb(82.352942%,61.176473%,100%);stop-opacity:1;"/><stop offset="1" style="stop-color:rgb(66.666669%,0%,100%);stop-opacity:1;"/></linearGradient><filter style="color-interpolation-filters:sRGB;" inkscape:label="Diffuse Light" id="filter184" x="-0.0375" y="-0.0375" width="1.075" height="1.075"><feGaussianBlur in="SourceGraphic" stdDeviation="1" result="blur" id="feGaussianBlur174" /><feDiffuseLighting diffuseConstant="1" surfaceScale="10" lighting-color="rgb(255,255,255)" result="diffuse" id="feDiffuseLighting178"><feDistantLight elevation="8" azimuth="235" id="feDistantLight176" /></feDiffuseLighting><feComposite in="diffuse" in2="diffuse" operator="arithmetic" k1="1" result="composite1" id="feComposite180" /><feComposite in="composite1" in2="SourceGraphic" k1="1" operator="arithmetic" k3="1" result="composite2" id="feComposite182" /></filter></defs><g id="surface1" style="filter:url(#filter184)"><path style=" stroke:none;fill-rule:nonzero;fill:url(#linear0);" d="M 41.691406 31.347656 C 41.515625 31.355469 37.25 31.714844 32.617188 32.371094 C 28.816406 32.90625 26.75 32.816406 25.363281 32.648438 C 22.464844 32.175781 20.503906 31.09375 19.820312 29.351562 C 17.464844 23.359375 31.097656 11.914062 50.285156 3.789062 C 52.296875 2.9375 54.285156 2.160156 56.242188 1.445312 C 52.828125 2.480469 49.296875 3.683594 45.699219 5.066406 C 24.152344 13.367188 8.691406 24.761719 11.175781 30.53125 C 12.429688 33.441406 18 34.351562 25.984375 33.492188 C 26 33.488281 26.015625 33.488281 26.03125 33.488281 C 30.671875 33.074219 36.234375 31.988281 39.675781 32.25 C 43.03125 32.640625 45.300781 33.761719 46.042969 35.65625 C 48.398438 41.648438 34.761719 53.09375 15.578125 61.21875 C 13.574219 62.074219 11.582031 62.851562 9.617188 63.558594 C 13.039062 62.535156 16.570312 61.320312 20.171875 59.941406 C 41.714844 51.648438 57.167969 40.25 54.6875 34.484375 C 53.535156 31.796875 48.695312 30.8125 41.691406 31.347656 "/></g></svg>
