<svg width="64" height="64" viewBox="0 0 64 64" version="1.1" xmlns:inkscape="http://www.inkscape.org/namespaces/inkscape"><defs><linearGradient id="linear0" gradientUnits="userSpaceOnUse" x1="0" y1="0" x2="0" y2="1" gradientTransform="matrix(77.365707,0,0,58.109127,-10.049047,-1.092001)"><stop offset="0" style="stop-color:rgb(0%,96.078432%,86.274511%);stop-opacity:1;"/><stop offset="1" style="stop-color:rgb(0%,54.901963%,49.411765%);stop-opacity:1;"/></linearGradient><linearGradient id="linear1" gradientUnits="userSpaceOnUse" x1="0" y1="0" x2="0" y2="1" gradientTransform="matrix(77.365707,0,0,58.109127,-10.049047,-1.092001)"><stop offset="0" style="stop-color:rgb(0%,96.078432%,86.274511%);stop-opacity:1;"/><stop offset="1" style="stop-color:rgb(0%,54.901963%,49.411765%);stop-opacity:1;"/></linearGradient><filter style="color-interpolation-filters:sRGB;" inkscape:label="Diffuse Light" id="filter184" x="-0.0375" y="-0.0375" width="1.075" height="1.075"><feGaussianBlur in="SourceGraphic" stdDeviation="1" result="blur" id="feGaussianBlur174" /><feDiffuseLighting diffuseConstant="1" surfaceScale="10" lighting-color="rgb(255,255,255)" result="diffuse" id="feDiffuseLighting178"><feDistantLight elevation="8" azimuth="235" id="feDistantLight176" /></feDiffuseLighting><feComposite in="diffuse" in2="diffuse" operator="arithmetic" k1="1" result="composite1" id="feComposite180" /><feComposite in="composite1" in2="SourceGraphic" k1="1" operator="arithmetic" k3="1" result="composite2" id="feComposite182" /></filter></defs><g id="surface1" style="filter:url(#filter184)"><path style=" stroke:none;fill-rule:nonzero;fill:url(#linear0);" d="M 34.023438 3.390625 C 32.183594 5.554688 32.183594 48.722656 34.023438 50.878906 C 37.710938 50.878906 39.550781 49.796875 39.550781 49.796875 L 39.550781 25.945312 C 46.917969 27.132812 50.601562 31.453125 50.601562 31.453125 L 50.601562 61.625 C 57.546875 55.519531 61.644531 45.9375 61.65625 35.765625 C 61.65625 17.882812 49.285156 3.390625 34.023438 3.390625 Z M 34.023438 3.390625 "/><path style=" stroke:none;fill-rule:nonzero;fill:url(#linear1);" d="M 31.765625 3.371094 C 16.503906 3.371094 4.132812 17.863281 4.132812 35.746094 C 4.144531 45.921875 8.238281 55.492188 15.183594 61.59375 L 15.183594 31.425781 C 15.183594 31.425781 18.867188 27.117188 26.238281 25.925781 L 26.238281 49.777344 C 26.238281 49.777344 28.078125 50.851562 31.765625 50.851562 Z M 31.765625 3.371094 "/></g></svg>
