<svg width="64" height="64" viewBox="0 0 64 64" version="1.1" xmlns:inkscape="http://www.inkscape.org/namespaces/inkscape"><defs><linearGradient id="linear0" gradientUnits="userSpaceOnUse" x1="0" y1="0" x2="0" y2="1" gradientTransform="matrix(74.976556,0,0,54.748964,-1.641332,7.529214)"><stop offset="0" style="stop-color:rgb(82.352942%,61.176473%,100%);stop-opacity:1;"/><stop offset="1" style="stop-color:rgb(66.666669%,0%,100%);stop-opacity:1;"/></linearGradient><filter style="color-interpolation-filters:sRGB;" inkscape:label="Diffuse Light" id="filter184" x="-0.0375" y="-0.0375" width="1.075" height="1.075"><feGaussianBlur in="SourceGraphic" stdDeviation="1" result="blur" id="feGaussianBlur174" /><feDiffuseLighting diffuseConstant="1" surfaceScale="10" lighting-color="rgb(255,255,255)" result="diffuse" id="feDiffuseLighting178"><feDistantLight elevation="8" azimuth="235" id="feDistantLight176" /></feDiffuseLighting><feComposite in="diffuse" in2="diffuse" operator="arithmetic" k1="1" result="composite1" id="feComposite180" /><feComposite in="composite1" in2="SourceGraphic" k1="1" operator="arithmetic" k3="1" result="composite2" id="feComposite182" /></filter></defs><g id="surface1" style="filter:url(#filter184)"><path style=" stroke:none;fill-rule:nonzero;fill:url(#linear0);" d="M 6.261719 1.785156 C 3.511719 1.785156 1.28125 4.554688 1.28125 7.957031 L 1.28125 56.691406 C 1.28125 60.097656 3.503906 62.863281 6.261719 62.863281 L 57.871094 62.863281 C 60.609375 62.863281 62.832031 60.105469 62.832031 56.691406 L 62.832031 7.957031 C 62.832031 4.5625 60.609375 1.785156 57.871094 1.785156 Z M 44.382812 5.597656 L 53.609375 5.597656 L 53.609375 20.867188 L 44.382812 20.867188 Z M 7.4375 5.585938 L 16.675781 5.585938 L 16.675781 20.851562 L 7.4375 20.851562 Z M 19.753906 5.585938 L 28.976562 5.585938 L 28.976562 20.851562 L 19.753906 20.851562 Z M 32.066406 5.597656 L 38.210938 5.597656 L 38.210938 17.050781 L 41.285156 17.050781 L 41.285156 20.851562 L 32.066406 20.851562 L 32.066406 17.050781 L 35.128906 17.050781 L 35.128906 9.417969 L 32.066406 9.417969 Z M 47.460938 9.417969 L 47.460938 17.050781 L 50.527344 17.050781 L 50.527344 9.417969 Z M 10.519531 9.398438 L 10.519531 17.039062 L 13.59375 17.039062 L 13.59375 9.398438 Z M 22.820312 9.398438 L 22.820312 17.039062 L 25.894531 17.039062 L 25.894531 9.398438 Z M 7.4375 24.667969 L 16.675781 24.667969 L 16.675781 39.933594 L 7.4375 39.933594 Z M 19.753906 24.667969 L 25.894531 24.667969 L 25.894531 36.113281 L 28.976562 36.113281 L 28.976562 39.933594 L 19.753906 39.933594 L 19.753906 36.113281 L 22.820312 36.113281 L 22.820312 28.5 L 19.753906 28.5 Z M 32.066406 24.667969 L 41.285156 24.667969 L 41.285156 39.933594 L 32.066406 39.933594 Z M 44.378906 24.667969 L 53.597656 24.667969 L 53.597656 39.933594 L 44.378906 39.933594 Z M 10.519531 28.480469 L 10.519531 36.101562 L 13.59375 36.101562 L 13.59375 28.480469 Z M 35.128906 28.480469 L 35.128906 36.101562 L 38.210938 36.101562 L 38.210938 28.480469 Z M 47.457031 28.480469 L 47.457031 36.101562 L 50.523438 36.101562 L 50.523438 28.480469 Z M 7.4375 43.75 L 13.59375 43.75 L 13.59375 55.195312 L 16.675781 55.195312 L 16.675781 59.011719 L 7.4375 59.011719 L 7.4375 55.195312 L 10.519531 55.195312 L 10.519531 47.582031 L 7.4375 47.582031 Z M 19.753906 43.75 L 28.976562 43.75 L 28.976562 59.011719 L 19.753906 59.011719 Z M 32.066406 43.75 L 38.210938 43.75 L 38.210938 55.195312 L 41.285156 55.195312 L 41.285156 59.011719 L 32.066406 59.011719 L 32.066406 55.195312 L 35.128906 55.195312 L 35.128906 47.582031 L 32.066406 47.582031 Z M 44.378906 43.75 L 50.523438 43.75 L 50.523438 55.195312 L 47.457031 55.195312 L 47.457031 47.582031 L 44.378906 47.582031 Z M 22.820312 47.5625 L 22.820312 55.183594 L 25.894531 55.183594 L 25.894531 47.5625 Z M 22.820312 47.5625 "/></g></svg>
