<svg width="64" height="64" viewBox="0 0 64 64" version="1.1" xmlns:inkscape="http://www.inkscape.org/namespaces/inkscape"><defs><linearGradient id="linear0" gradientUnits="userSpaceOnUse" x1="0" y1="0" x2="0" y2="1" gradientTransform="matrix(61.187449,0,0,39.508143,1.702613,10.600208)"><stop offset="0" style="stop-color:rgb(100%,63.137257%,63.137257%);stop-opacity:1;"/><stop offset="1" style="stop-color:rgb(100%,27.843139%,27.843139%);stop-opacity:1;"/></linearGradient><filter style="color-interpolation-filters:sRGB;" inkscape:label="Diffuse Light" id="filter184" x="-0.0375" y="-0.0375" width="1.075" height="1.075"><feGaussianBlur in="SourceGraphic" stdDeviation="1" result="blur" id="feGaussianBlur174" /><feDiffuseLighting diffuseConstant="1" surfaceScale="10" lighting-color="rgb(255,255,255)" result="diffuse" id="feDiffuseLighting178"><feDistantLight elevation="8" azimuth="235" id="feDistantLight176" /></feDiffuseLighting><feComposite in="diffuse" in2="diffuse" operator="arithmetic" k1="1" result="composite1" id="feComposite180" /><feComposite in="composite1" in2="SourceGraphic" k1="1" operator="arithmetic" k3="1" result="composite2" id="feComposite182" /></filter></defs><g id="surface1" style="filter:url(#filter184)"><path style=" stroke:none;fill-rule:nonzero;fill:url(#linear0);" d="M 32.03125 4.5 C 25.457031 4.5 20.78125 8.09375 19.550781 13.730469 C 8.761719 15.226562 1.210938 18.480469 1.210938 21.480469 C 1.210938 25.566406 15.003906 29.113281 32.03125 29.113281 C 49.0625 29.113281 62.855469 25.566406 62.855469 21.480469 C 62.855469 18.480469 55.304688 15.230469 44.515625 13.730469 C 43.269531 8.09375 38.609375 4.5 32.03125 4.5 Z M 21.757812 34.035156 L 16.625 58.644531 C 19.1875 59.464844 21.757812 60.0625 24.328125 60.457031 C 26.898438 60.851562 29.464844 61.03125 32.03125 61.019531 C 34.601562 61.011719 37.171875 60.804688 39.738281 60.40625 C 42.304688 60.003906 44.875 59.410156 47.445312 58.636719 L 42.304688 34.03125 Z M 21.757812 34.035156 "/></g></svg>
