<svg width="64" height="64" viewBox="0 0 64 64" version="1.1" xmlns:inkscape="http://www.inkscape.org/namespaces/inkscape"><defs><linearGradient id="linear0" gradientUnits="userSpaceOnUse" x1="0" y1="0" x2="0" y2="1" gradientTransform="matrix(51.515625,0,0,64,6.242188,0)"><stop offset="0" style="stop-color:rgb(41.960785%,64.313728%,100%);stop-opacity:1;"/><stop offset="1" style="stop-color:rgb(0%,43.137255%,100%);stop-opacity:1;"/></linearGradient><filter style="color-interpolation-filters:sRGB;" inkscape:label="Diffuse Light" id="filter184" x="-0.0375" y="-0.0375" width="1.075" height="1.075"><feGaussianBlur in="SourceGraphic" stdDeviation="1" result="blur" id="feGaussianBlur174" /><feDiffuseLighting diffuseConstant="1" surfaceScale="10" lighting-color="rgb(255,255,255)" result="diffuse" id="feDiffuseLighting178"><feDistantLight elevation="8" azimuth="235" id="feDistantLight176" /></feDiffuseLighting><feComposite in="diffuse" in2="diffuse" operator="arithmetic" k1="1" result="composite1" id="feComposite180" /><feComposite in="composite1" in2="SourceGraphic" k1="1" operator="arithmetic" k3="1" result="composite2" id="feComposite182" /></filter></defs><g id="surface1" style="filter:url(#filter184)"><path style=" stroke:none;fill-rule:nonzero;fill:url(#linear0);" d="M 22.640625 0.894531 L 16.566406 17.585938 L 16.5625 17.585938 L 6.242188 45.941406 L 13.113281 45.941406 L 21.890625 21.84375 L 27.054688 21.84375 L 18.277344 45.941406 L 25.148438 45.945312 L 33.328125 23.464844 C 34.503906 20.230469 32.652344 17.585938 29.214844 17.585938 L 23.4375 17.585938 L 29.824219 0.0429688 C 26.90625 0.0625 22.976562 0 22.976562 0 Z M 40.636719 17.585938 L 30.023438 46.753906 L 30.019531 46.753906 L 23.703125 63.980469 L 30.621094 64 L 37.191406 45.941406 L 46.308594 45.941406 C 47.910156 45.941406 49.667969 44.710938 50.214844 43.207031 L 57.402344 23.464844 C 58.578125 20.230469 56.726562 17.585938 53.289062 17.585938 Z M 45.980469 21.828125 L 51.144531 21.828125 L 43.914062 41.667969 L 38.753906 41.667969 Z M 45.980469 21.828125 "/></g></svg>
