<svg width="64" height="64" viewBox="0 0 64 64" version="1.1" xmlns:inkscape="http://www.inkscape.org/namespaces/inkscape"><defs><linearGradient id="linear0" gradientUnits="userSpaceOnUse" x1="0" y1="0" x2="0" y2="1" gradientTransform="matrix(58.598057,0,0,39.669785,2.445386,12.170908)"><stop offset="0" style="stop-color:rgb(75.686276%,77.64706%,83.92157%);stop-opacity:1;"/><stop offset="1" style="stop-color:rgb(43.529412%,45.09804%,50.196081%);stop-opacity:1;"/></linearGradient><filter style="color-interpolation-filters:sRGB;" inkscape:label="Diffuse Light" id="filter184" x="-0.0375" y="-0.0375" width="1.075" height="1.075"><feGaussianBlur in="SourceGraphic" stdDeviation="1" result="blur" id="feGaussianBlur174" /><feDiffuseLighting diffuseConstant="1" surfaceScale="10" lighting-color="rgb(255,255,255)" result="diffuse" id="feDiffuseLighting178"><feDistantLight elevation="8" azimuth="235" id="feDistantLight176" /></feDiffuseLighting><feComposite in="diffuse" in2="diffuse" operator="arithmetic" k1="1" result="composite1" id="feComposite180" /><feComposite in="composite1" in2="SourceGraphic" k1="1" operator="arithmetic" k3="1" result="composite2" id="feComposite182" /></filter></defs><g id="surface1" style="filter:url(#filter184)"><path style=" stroke:none;fill-rule:nonzero;fill:url(#linear0);" d="M 22.125 7.421875 L 22.125 57.898438 L 28.3125 57.898438 L 28.3125 36.867188 L 36.550781 36.867188 L 36.550781 57.898438 L 42.730469 57.898438 L 42.730469 7.421875 L 36.550781 7.421875 L 36.550781 28.453125 L 28.3125 28.453125 L 28.3125 7.421875 Z M 18.007812 15.835938 L 1.523438 28.453125 L 1.523438 36.867188 L 18.007812 49.484375 L 18.007812 41.074219 L 6.671875 32.660156 L 18.007812 24.25 Z M 46.855469 15.835938 L 46.855469 24.25 L 58.1875 32.660156 L 46.855469 41.074219 L 46.855469 49.484375 L 63.339844 36.867188 L 63.339844 28.453125 Z M 46.855469 15.835938 "/></g></svg>
