<?xml version="1.0" encoding="UTF-8" standalone="no"?><svg width="64" height="64" viewBox="0 0 64 64" version="1.1" id="svg494" sodipodi:docname="iagno.svg" inkscape:version="1.2.2 (b0a8486541, 2022-12-01)" xmlns:inkscape="http://www.inkscape.org/namespaces/inkscape" xmlns:sodipodi="http://sodipodi.sourceforge.net/DTD/sodipodi-0.dtd" xmlns:xlink="http://www.w3.org/1999/xlink" xmlns="http://www.w3.org/2000/svg" xmlns:svg="http://www.w3.org/2000/svg"> <sodipodi:namedview id="namedview496" pagecolor="#ffffff" bordercolor="#000000" borderopacity="0.25" inkscape:showpageshadow="2" inkscape:pageopacity="0.0" inkscape:pagecheckerboard="0" inkscape:deskcolor="#d1d1d1" showgrid="false" inkscape:zoom="3.6875" inkscape:cx="32" inkscape:cy="32.135593" inkscape:window-width="1432" inkscape:window-height="844" inkscape:window-x="0" inkscape:window-y="0" inkscape:window-maximized="1" inkscape:current-layer="svg494" /> <defs id="defs483"> <filter id="alpha" filterUnits="objectBoundingBox" x="0" y="0" width="1" height="1"> <feColorMatrix type="matrix" in="SourceGraphic" values="0 0 0 0 1 0 0 0 0 1 0 0 0 0 1 0 0 0 1 0" id="feColorMatrix438" /> </filter> <mask id="mask0"> <g filter="url(#alpha)" id="g443"> <rect x="0" y="0" width="64" height="64" style="fill:rgb(0%,0%,0%);fill-opacity:0.6;stroke:none;" id="rect441" /> </g> </mask> <linearGradient id="linear0" gradientUnits="userSpaceOnUse" x1="0" y1="0" x2="0" y2="1" gradientTransform="matrix(30.476562,0,0,30.476562,0.0078125,0.0429688)"> <stop offset="0" style="stop-color:#00c95e;stop-opacity:1;" id="stop446" /> <stop offset="1" style="stop-color:#008a40;stop-opacity:1;" id="stop448" /> </linearGradient> <clipPath id="clip1"> <rect x="0" y="0" width="64" height="64" id="rect451" /> </clipPath> <g id="surface5" clip-path="url(#clip1)"> <path style=" stroke:none;fill-rule:nonzero;fill:url(#linear0);" d="M 30.484375 15.285156 C 30.484375 23.699219 23.660156 30.519531 15.246094 30.519531 C 6.832031 30.519531 0.0078125 23.699219 0.0078125 15.285156 C 0.0078125 6.867188 6.828125 0.0429688 15.246094 0.0429688 C 23.664062 0.0429688 30.484375 6.867188 30.484375 15.285156 Z M 30.484375 15.285156 " id="path454" /> </g> <mask id="mask1"> <g filter="url(#alpha)" id="g459"> <rect x="0" y="0" width="64" height="64" style="fill:rgb(0%,0%,0%);fill-opacity:0.6;stroke:none;" id="rect457" /> </g> </mask> <linearGradient id="linear1" gradientUnits="userSpaceOnUse" x1="0" y1="0" x2="0" y2="1" gradientTransform="matrix(30.476562,0,0,30.476562,33.523438,33.519531)"> <stop offset="0" style="stop-color:#00c95e;stop-opacity:1;" id="stop462" /> <stop offset="1" style="stop-color:#008a40;stop-opacity:1;" id="stop464" /> </linearGradient> <clipPath id="clip2"> <rect x="0" y="0" width="64" height="64" id="rect467" /> </clipPath> <g id="surface8" clip-path="url(#clip2)"> <path style=" stroke:none;fill-rule:nonzero;fill:url(#linear1);" d="M 64 48.769531 C 63.996094 57.179688 57.171875 63.996094 48.761719 63.996094 C 40.347656 63.996094 33.527344 57.179688 33.523438 48.769531 C 33.515625 40.347656 40.339844 33.519531 48.761719 33.519531 C 57.179688 33.519531 64.003906 40.347656 64 48.769531 Z M 64 48.769531 " id="path470" /> </g> <linearGradient id="linear2" gradientUnits="userSpaceOnUse" x1="0" y1="0" x2="0" y2="1" gradientTransform="matrix(30.476562,0,0,30.476562,33.523438,0)"> <stop offset="0" style="stop-color:#00c95e;stop-opacity:1;" id="stop473" /> <stop offset="1" style="stop-color:#008a40;stop-opacity:1;" id="stop475" /> </linearGradient> <linearGradient id="linear3" gradientUnits="userSpaceOnUse" x1="0" y1="0" x2="0" y2="1" gradientTransform="matrix(30.476562,0,0,30.476562,0,33.523438)"> <stop offset="0" style="stop-color:#00c95e;stop-opacity:1;" id="stop478" /> <stop offset="1" style="stop-color:#008a40;stop-opacity:1;" id="stop480" /> </linearGradient> <filter style="color-interpolation-filters:sRGB;" inkscape:label="Diffuse Light" id="filter1529" x="-0.037499998" y="-0.0375" width="1.075" height="1.075"> <feGaussianBlur in="SourceGraphic" stdDeviation="1" result="blur" id="feGaussianBlur1519" /> <feDiffuseLighting diffuseConstant="1" surfaceScale="10" lighting-color="rgb(255,255,255)" result="diffuse" id="feDiffuseLighting1523"> <feDistantLight elevation="8" azimuth="235" id="feDistantLight1521" /> </feDiffuseLighting> <feComposite in="diffuse" in2="diffuse" operator="arithmetic" k1="1" result="composite1" id="feComposite1525" /> <feComposite in="composite1" in2="SourceGraphic" k1="1" operator="arithmetic" k3="1" result="composite2" id="feComposite1527" /> </filter> </defs> <g id="surface1" style="filter:url(#filter1529)"> <use xlink:href="#surface5" mask="url(#mask0)" id="use485" /> <use xlink:href="#surface8" mask="url(#mask1)" id="use487" /> <path style=" stroke:none;fill-rule:nonzero;fill:url(#linear2);" d="M 64 15.246094 C 63.996094 23.660156 57.171875 30.476562 48.761719 30.476562 C 40.347656 30.476562 33.527344 23.660156 33.523438 15.246094 C 33.515625 6.828125 40.339844 0 48.761719 0 C 57.179688 0 64.003906 6.828125 64 15.246094 Z M 64 15.246094 " id="path489" /> <path style=" stroke:none;fill-rule:nonzero;fill:url(#linear3);" d="M 30.476562 48.769531 C 30.472656 57.183594 23.652344 64 15.238281 64 C 6.824219 64 0.00390625 57.183594 0 48.769531 C -0.00390625 40.351562 6.820312 33.523438 15.238281 33.523438 C 23.65625 33.523438 30.480469 40.351562 30.476562 48.769531 Z M 30.476562 48.769531 " id="path491" /> </g></svg>
