<svg width="64" height="64" viewBox="0 0 64 64" version="1.1" xmlns:inkscape="http://www.inkscape.org/namespaces/inkscape"><defs><linearGradient id="linear0" gradientUnits="userSpaceOnUse" x1="0" y1="0" x2="0" y2="1" gradientTransform="matrix(63.089201,0,0,39.570242,1.657146,12.399176)"><stop offset="0" style="stop-color:rgb(75.686276%,77.64706%,83.92157%);stop-opacity:1;"/><stop offset="1" style="stop-color:rgb(43.529412%,45.09804%,50.196081%);stop-opacity:1;"/></linearGradient><filter style="color-interpolation-filters:sRGB;" inkscape:label="Diffuse Light" id="filter184" x="-0.0375" y="-0.0375" width="1.075" height="1.075"><feGaussianBlur in="SourceGraphic" stdDeviation="1" result="blur" id="feGaussianBlur174" /><feDiffuseLighting diffuseConstant="1" surfaceScale="10" lighting-color="rgb(255,255,255)" result="diffuse" id="feDiffuseLighting178"><feDistantLight elevation="8" azimuth="235" id="feDistantLight176" /></feDiffuseLighting><feComposite in="diffuse" in2="diffuse" operator="arithmetic" k1="1" result="composite1" id="feComposite180" /><feComposite in="composite1" in2="SourceGraphic" k1="1" operator="arithmetic" k3="1" result="composite2" id="feComposite182" /></filter></defs><g id="surface1" style="filter:url(#filter184)"><path style=" stroke:none;fill-rule:nonzero;fill:url(#linear0);" d="M 15.96875 1.367188 C 13.914062 1.367188 12.253906 2.957031 12.253906 4.929688 C 12.253906 6.90625 13.914062 8.492188 15.96875 8.492188 L 48.171875 8.492188 C 50.234375 8.492188 51.886719 6.90625 51.886719 4.929688 C 51.886719 2.957031 50.234375 1.367188 48.171875 1.367188 Z M 32.070312 15.617188 C 18.390625 15.617188 7.300781 26.246094 7.300781 39.363281 C 7.300781 52.476562 18.390625 63.109375 32.070312 63.109375 C 45.753906 63.109375 56.84375 52.476562 56.84375 39.363281 C 56.84375 26.246094 45.753906 15.617188 32.070312 15.617188 Z M 32.070312 25.113281 C 40.277344 25.113281 46.933594 31.496094 46.933594 39.363281 C 46.933594 47.234375 40.277344 53.609375 32.070312 53.609375 C 23.863281 53.609375 17.210938 47.234375 17.210938 39.363281 C 17.210938 31.496094 23.863281 25.113281 32.070312 25.113281 Z M 32.070312 25.113281 "/></g></svg>
