<svg width="64" height="64" viewBox="0 0 64 64" version="1.1" xmlns:inkscape="http://www.inkscape.org/namespaces/inkscape"><defs><linearGradient id="linear0" gradientUnits="userSpaceOnUse" x1="0" y1="0" x2="0" y2="1" gradientTransform="matrix(56,0,0,35.898438,4,14.050781)"><stop offset="0" style="stop-color:rgb(100%,73.333335%,0%);stop-opacity:1;"/><stop offset="1" style="stop-color:rgb(70.19608%,51.372552%,0%);stop-opacity:1;"/></linearGradient><filter style="color-interpolation-filters:sRGB;" inkscape:label="Diffuse Light" id="filter184" x="-0.0375" y="-0.0375" width="1.075" height="1.075"><feGaussianBlur in="SourceGraphic" stdDeviation="1" result="blur" id="feGaussianBlur174" /><feDiffuseLighting diffuseConstant="1" surfaceScale="10" lighting-color="rgb(255,255,255)" result="diffuse" id="feDiffuseLighting178"><feDistantLight elevation="8" azimuth="235" id="feDistantLight176" /></feDiffuseLighting><feComposite in="diffuse" in2="diffuse" operator="arithmetic" k1="1" result="composite1" id="feComposite180" /><feComposite in="composite1" in2="SourceGraphic" k1="1" operator="arithmetic" k3="1" result="composite2" id="feComposite182" /></filter></defs><g id="surface1" style="filter:url(#filter184)"><path style=" stroke:none;fill-rule:nonzero;fill:url(#linear0);" d="M 6.582031 18.261719 C 4.207031 18.261719 2.265625 20.644531 2.265625 23.582031 C 2.265625 33.863281 9.027344 42.199219 17.367188 42.199219 C 25.710938 42.199219 32.472656 33.863281 32.472656 23.582031 C 32.472656 20.65625 30.542969 18.261719 28.15625 18.261719 C 25.773438 18.261719 23.84375 20.644531 23.84375 23.582031 C 23.84375 27.988281 20.945312 31.5625 17.367188 31.5625 C 13.792969 31.5625 10.894531 27.988281 10.894531 23.582031 C 10.894531 20.65625 8.964844 18.261719 6.582031 18.261719 Z M 41.101562 18.261719 C 38.707031 18.261719 36.789062 20.636719 36.789062 23.582031 C 36.789062 26.53125 38.710938 28.902344 41.101562 28.902344 L 58.363281 28.902344 C 60.757812 28.902344 62.679688 26.53125 62.679688 23.582031 C 62.679688 20.636719 60.753906 18.261719 58.363281 18.261719 Z M 41.101562 18.261719 "/></g></svg>
