<svg width="64" height="64" viewBox="0 0 64 64" version="1.1" xmlns:inkscape="http://www.inkscape.org/namespaces/inkscape"><defs><linearGradient id="linear0" gradientUnits="userSpaceOnUse" x1="0" y1="0" x2="0" y2="1" gradientTransform="matrix(64,0,0,38.601562,0,12.699219)"><stop offset="0" style="stop-color:rgb(92.941177%,83.529413%,72.549021%);stop-opacity:1;"/><stop offset="1" style="stop-color:rgb(81.960785%,71.372551%,59.215689%);stop-opacity:1;"/></linearGradient><filter style="color-interpolation-filters:sRGB;" inkscape:label="Diffuse Light" id="filter184" x="-0.0375" y="-0.0375" width="1.075" height="1.075"><feGaussianBlur in="SourceGraphic" stdDeviation="1" result="blur" id="feGaussianBlur174" /><feDiffuseLighting diffuseConstant="1" surfaceScale="10" lighting-color="rgb(255,255,255)" result="diffuse" id="feDiffuseLighting178"><feDistantLight elevation="8" azimuth="235" id="feDistantLight176" /></feDiffuseLighting><feComposite in="diffuse" in2="diffuse" operator="arithmetic" k1="1" result="composite1" id="feComposite180" /><feComposite in="composite1" in2="SourceGraphic" k1="1" operator="arithmetic" k3="1" result="composite2" id="feComposite182" /></filter></defs><g id="surface1" style="filter:url(#filter184)"><path style=" stroke:none;fill-rule:evenodd;fill:url(#linear0);" d="M 1.960938 15.328125 L 3.789062 12.699219 C 5.617188 14.125 7.183594 15.820312 8.488281 17.792969 L 6.398438 20.257812 C 4.921875 18.394531 3.441406 16.75 1.960938 15.328125 Z M 0 25.511719 L 1.828125 22.882812 C 3.65625 24.089844 5.355469 25.785156 6.925781 27.976562 L 4.964844 30.601562 C 3.222656 28.523438 1.566406 26.828125 0 25.511719 Z M 5.746094 35.039062 L 8.226562 36.679688 C 6.574219 42.15625 4.964844 46.699219 3.394531 50.3125 L 0.914062 48.671875 C 2.65625 44.511719 4.269531 39.964844 5.746094 35.039062 Z M 17.238281 12.699219 L 17.238281 15.988281 L 22.855469 15.988281 L 22.855469 12.699219 L 25.601562 12.699219 L 25.601562 15.988281 L 30.433594 15.988281 L 30.433594 19.105469 L 25.601562 19.105469 L 25.601562 22.0625 L 22.855469 22.0625 L 22.855469 19.105469 L 17.238281 19.105469 L 17.238281 22.0625 L 14.496094 22.0625 L 14.496094 19.105469 L 9.796875 19.105469 L 9.796875 15.988281 L 14.496094 15.988281 L 14.496094 12.699219 Z M 10.710938 23.210938 L 29.519531 23.210938 L 29.519531 31.917969 L 21.421875 31.917969 L 21.421875 34.21875 L 29.519531 34.21875 L 29.519531 37.339844 L 21.421875 37.339844 L 21.421875 39.472656 L 31.214844 39.472656 L 31.214844 42.59375 L 22.335938 42.59375 C 23.382812 44.128906 24.535156 45.222656 25.796875 45.878906 C 27.058594 46.535156 29.082031 47.082031 31.867188 47.519531 L 30.691406 50.808594 C 25.730469 50.039062 22.203125 47.960938 20.117188 44.566406 C 18.722656 47.414062 15.324219 49.492188 9.929688 50.808594 L 8.753906 47.519531 C 13.625 46.535156 16.628906 44.894531 17.765625 42.59375 L 8.878906 42.59375 L 8.878906 39.472656 L 18.546875 39.472656 C 18.546875 39.253906 18.589844 38.925781 18.675781 38.488281 L 18.675781 37.339844 L 10.710938 37.339844 L 10.710938 34.21875 L 18.675781 34.21875 L 18.675781 31.917969 L 10.710938 31.917969 Z M 13.453125 29.125 L 18.675781 29.125 L 18.675781 26.003906 L 13.453125 26.003906 Z M 26.777344 26.003906 L 21.421875 26.003906 L 21.421875 29.125 L 26.777344 29.125 Z M 60.996094 24.363281 L 60.996094 19.433594 L 38.660156 19.433594 L 38.660156 24.363281 L 35.921875 24.363281 L 35.921875 16.316406 L 48.328125 16.316406 L 48.328125 12.699219 L 51.066406 12.699219 L 51.066406 16.316406 L 63.738281 16.316406 L 63.738281 24.363281 Z M 40.621094 26.660156 L 40.621094 23.542969 L 58.515625 23.542969 L 58.515625 26.660156 C 57.121094 27.757812 55.726562 28.960938 54.335938 30.273438 L 51.460938 33.070312 L 51.460938 34.875 L 64 34.875 L 64 37.996094 L 51.460938 37.996094 L 51.460938 47.191406 C 51.460938 48.507812 51.113281 49.519531 50.414062 50.230469 C 49.71875 50.941406 47.980469 51.300781 45.191406 51.300781 L 44.015625 47.847656 L 46.367188 47.847656 C 47.414062 47.847656 48.066406 47.765625 48.328125 47.601562 C 48.589844 47.4375 48.71875 46.863281 48.71875 45.878906 L 48.71875 37.996094 L 35.527344 37.996094 L 35.527344 34.875 L 48.71875 34.875 L 48.71875 31.425781 L 49.113281 31.425781 C 49.808594 30.660156 51.375 29.070312 53.8125 26.660156 Z M 40.621094 26.660156 "/></g></svg>
