<svg xmlns="http://www.w3.org/2000/svg" xmlns:xlink="http://www.w3.org/1999/xlink" width="64" height="64" viewBox="0 0 64 64" version="1.1"><defs><filter id="alpha" filterUnits="objectBoundingBox" x="0%" y="0%" width="100%" height="100%"> <feColorMatrix type="matrix" in="SourceGraphic" values="0 0 0 0 1 0 0 0 0 1 0 0 0 0 1 0 0 0 1 0"/></filter><mask id="mask0"><rect x="0" y="0" width="64" height="64" style="fill:rgb(0%,0%,0%);fill-opacity:0.99;stroke:none;"/></mask><clipPath id="clip1"> <rect x="0" y="0" width="64" height="64"/></clipPath><path style=" stroke:none;fill-rule:nonzero;fill:rgb(43.137255%,51.372552%,74.901962%);fill-opacity:1;" d="M 62.9375 32.625 C 62.9375 49.757812 49.046875 63.648438 31.914062 63.648438 C 14.78125 63.648438 0.890625 49.757812 0.890625 32.625 C 0.890625 15.492188 14.78125 1.601562 31.914062 1.601562 C 49.046875 1.601562 62.9375 15.492188 62.9375 32.625 Z M 62.9375 32.625 "/></defs><use xlink:href="#surface5" mask="url(#mask0)"/><path style=" stroke:none;fill-rule:nonzero;fill:rgb(100%,100%,100%);fill-opacity:1;" d="M 21.347656 9.054688 C 19.546875 9.054688 18.097656 10.503906 18.097656 12.304688 L 18.097656 52.945312 C 18.097656 54.746094 19.546875 56.195312 21.347656 56.195312 L 42.480469 56.195312 C 44.28125 56.195312 45.730469 54.746094 45.730469 52.945312 L 45.730469 12.304688 C 45.730469 10.503906 44.28125 9.054688 42.480469 9.054688 Z M 19.722656 12.304688 L 44.105469 12.304688 L 44.105469 48.066406 L 19.722656 48.066406 Z M 31.863281 16.28125 L 30.019531 20.347656 L 31.472656 20.347656 L 31.472656 35.796875 C 30.980469 35.035156 30.28125 34.398438 29.617188 33.832031 C 29.0625 33.359375 28.523438 32.929688 28.144531 32.535156 C 27.761719 32.136719 27.5625 31.789062 27.5625 31.5 C 27.554688 30.722656 27.574219 30.230469 27.585938 29.53125 C 28.65625 29.441406 29.496094 28.546875 29.496094 27.453125 C 29.496094 26.300781 28.5625 25.367188 27.410156 25.367188 C 26.257812 25.367188 25.316406 26.300781 25.316406 27.453125 C 25.316406 28.453125 26.019531 29.289062 26.957031 29.496094 C 26.945312 30.203125 26.921875 30.699219 26.929688 31.503906 C 26.933594 32.058594 27.261719 32.527344 27.6875 32.972656 C 28.113281 33.414062 28.660156 33.847656 29.207031 34.3125 C 30.277344 35.226562 31.308594 36.246094 31.472656 37.53125 L 31.472656 39.550781 C 30.378906 39.722656 29.539062 40.664062 29.539062 41.804688 C 29.539062 43.070312 30.5625 44.089844 31.824219 44.089844 C 33.089844 44.089844 34.105469 43.070312 34.105469 41.804688 C 34.105469 40.640625 33.234375 39.683594 32.105469 39.542969 L 32.105469 37.523438 L 32.113281 37.523438 C 32.113281 37.511719 32.109375 37.5 32.105469 37.488281 L 32.105469 34.457031 L 32.117188 34.457031 C 32.117188 33.136719 32.8125 32.355469 33.769531 31.582031 C 34.730469 30.808594 35.941406 30.097656 36.777344 28.96875 L 36.78125 28.960938 L 36.785156 28.957031 C 36.882812 28.8125 36.886719 28.707031 36.90625 28.566406 C 36.929688 28.425781 36.941406 28.261719 36.953125 28.078125 C 36.972656 27.707031 36.972656 27.257812 36.964844 26.816406 C 36.960938 26.371094 36.953125 25.933594 36.941406 25.589844 C 36.9375 25.433594 36.9375 25.414062 36.933594 25.304688 L 38.515625 25.304688 L 38.515625 21.84375 L 35.058594 21.84375 L 35.058594 25.304688 L 36.296875 25.304688 C 36.300781 25.410156 36.304688 25.449219 36.308594 25.609375 C 36.320312 25.949219 36.332031 26.382812 36.339844 26.820312 C 36.34375 27.257812 36.335938 27.699219 36.316406 28.042969 C 36.308594 28.21875 36.292969 28.367188 36.277344 28.472656 C 36.265625 28.550781 36.246094 28.609375 36.246094 28.617188 C 35.511719 29.597656 34.378906 30.28125 33.378906 31.089844 C 32.898438 31.472656 32.449219 31.898438 32.105469 32.40625 L 32.105469 20.347656 L 33.621094 20.347656 Z M 29.476562 49.691406 L 34.351562 49.691406 C 35.253906 49.691406 35.976562 50.417969 35.976562 51.316406 L 35.976562 52.945312 C 35.976562 53.84375 35.253906 54.570312 34.351562 54.570312 L 29.476562 54.570312 C 28.574219 54.570312 27.851562 53.84375 27.851562 52.945312 L 27.851562 51.316406 C 27.851562 50.417969 28.574219 49.691406 29.476562 49.691406 Z M 29.476562 49.691406 "/></svg>
