<svg width="64" height="64" viewBox="0 0 64 64" version="1.1" xmlns:inkscape="http://www.inkscape.org/namespaces/inkscape"><defs><linearGradient id="linear0" gradientUnits="userSpaceOnUse" x1="0" y1="0" x2="0" y2="1" gradientTransform="matrix(63.976562,0,0,64,0.0117188,0)"><stop offset="0" style="stop-color:rgb(100%,56.862748%,82.745099%);stop-opacity:1;"/><stop offset="1" style="stop-color:rgb(100%,0%,60.000002%);stop-opacity:1;"/></linearGradient><filter style="color-interpolation-filters:sRGB;" inkscape:label="Diffuse Light" id="filter184" x="-0.0375" y="-0.0375" width="1.075" height="1.075"><feGaussianBlur in="SourceGraphic" stdDeviation="1" result="blur" id="feGaussianBlur174" /><feDiffuseLighting diffuseConstant="1" surfaceScale="10" lighting-color="rgb(255,255,255)" result="diffuse" id="feDiffuseLighting178"><feDistantLight elevation="8" azimuth="235" id="feDistantLight176" /></feDiffuseLighting><feComposite in="diffuse" in2="diffuse" operator="arithmetic" k1="1" result="composite1" id="feComposite180" /><feComposite in="composite1" in2="SourceGraphic" k1="1" operator="arithmetic" k3="1" result="composite2" id="feComposite182" /></filter></defs><g id="surface1" style="filter:url(#filter184)"><path style=" stroke:none;fill-rule:nonzero;fill:url(#linear0);" d="M 63.902344 0 C 30.265625 11.335938 0.0117188 27.425781 0.0117188 27.425781 L 24.378906 39.597656 L 36.558594 63.957031 L 36.601562 64 C 36.601562 64 53.480469 32.136719 63.988281 0.0195312 C 63.984375 0.015625 63.980469 0.0117188 63.972656 0.0117188 C 63.96875 0.0078125 63.957031 0.0117188 63.945312 0.0117188 C 63.941406 0.0078125 63.929688 0.0117188 63.925781 0.0117188 C 63.925781 0.0078125 63.914062 0.00390625 63.910156 0.00390625 Z M 56.160156 7.824219 C 48.179688 29.660156 40.519531 46.34375 36.550781 54.179688 L 29.042969 39.15625 C 35.289062 32.421875 47.777344 16.222656 53.09375 10.910156 C 47.78125 16.222656 31.59375 28.699219 24.855469 34.953125 L 9.855469 27.460938 C 17.554688 23.558594 33.808594 16.105469 56.160156 7.824219 Z M 56.160156 7.824219 "/></g></svg>
