<?xml version="1.0" encoding="UTF-8" standalone="no"?><svg width="64" height="64" viewBox="0 0 64 64" version="1.1" id="svg529" sodipodi:docname="ignuit.svg" inkscape:version="1.2.2 (b0a8486541, 2022-12-01)" xmlns:inkscape="http://www.inkscape.org/namespaces/inkscape" xmlns:sodipodi="http://sodipodi.sourceforge.net/DTD/sodipodi-0.dtd" xmlns:xlink="http://www.w3.org/1999/xlink" xmlns="http://www.w3.org/2000/svg" xmlns:svg="http://www.w3.org/2000/svg"> <sodipodi:namedview id="namedview531" pagecolor="#ffffff" bordercolor="#000000" borderopacity="0.25" inkscape:showpageshadow="2" inkscape:pageopacity="0.0" inkscape:pagecheckerboard="0" inkscape:deskcolor="#d1d1d1" showgrid="false" inkscape:zoom="3.6875" inkscape:cx="32" inkscape:cy="32.135593" inkscape:window-width="1432" inkscape:window-height="844" inkscape:window-x="0" inkscape:window-y="0" inkscape:window-maximized="1" inkscape:current-layer="svg529" /> <defs id="defs522"> <filter id="alpha" filterUnits="objectBoundingBox" x="0" y="0" width="1" height="1"> <feColorMatrix type="matrix" in="SourceGraphic" values="0 0 0 0 1 0 0 0 0 1 0 0 0 0 1 0 0 0 1 0" id="feColorMatrix498" /> </filter> <mask id="mask0"> <g filter="url(#alpha)" id="g503"> <rect x="0" y="0" width="64" height="64" style="fill:rgb(0%,0%,0%);fill-opacity:0.6;stroke:none;" id="rect501" /> </g> </mask> <linearGradient id="linear0" gradientUnits="userSpaceOnUse" x1="0" y1="0" x2="0" y2="1" gradientTransform="matrix(41.078125,0,0,58.15625,22.921875,5.851562)"> <stop offset="0" style="stop-color:#9cb2d9;stop-opacity:1;" id="stop506" /> <stop offset="1" style="stop-color:#7185a8;stop-opacity:1;" id="stop508" /> </linearGradient> <clipPath id="clip1"> <rect x="0" y="0" width="64" height="64" id="rect511" /> </clipPath> <g id="surface5" clip-path="url(#clip1)"> <path style=" stroke:none;fill-rule:nonzero;fill:url(#linear0);" d="M 25.410156 60.972656 C 24.6875 60.90625 24.015625 60.554688 23.546875 59.992188 C 23.085938 59.433594 22.863281 58.703125 22.933594 57.980469 L 27.765625 8.332031 C 27.898438 6.921875 29.089844 5.84375 30.503906 5.851562 L 61.507812 8.929688 C 62.230469 8.996094 62.902344 9.347656 63.371094 9.90625 C 63.835938 10.472656 64.058594 11.195312 63.988281 11.925781 L 59.027344 61.527344 C 58.890625 62.941406 57.707031 64.015625 56.289062 64.007812 Z M 25.410156 60.972656 " id="path514" /> </g> <linearGradient id="linear1" gradientUnits="userSpaceOnUse" x1="0" y1="0" x2="0" y2="1" gradientTransform="matrix(47.394531,0,0,61.195312,0,-0.0078125)"> <stop offset="0" style="stop-color:#9cb2d9;stop-opacity:1;" id="stop517" /> <stop offset="1" style="stop-color:#7185a8;stop-opacity:1;" id="stop519" /> </linearGradient> <filter style="color-interpolation-filters:sRGB;" inkscape:label="Diffuse Light" id="filter1490" x="-0.037499337" y="-0.037490629" width="1.0749826" height="1.0748586"> <feGaussianBlur in="SourceGraphic" stdDeviation="1" result="blur" id="feGaussianBlur1480" /> <feDiffuseLighting diffuseConstant="1" surfaceScale="10" lighting-color="rgb(255,255,255)" result="diffuse" id="feDiffuseLighting1484"> <feDistantLight elevation="8" azimuth="235" id="feDistantLight1482" /> </feDiffuseLighting> <feComposite in="diffuse" in2="diffuse" operator="arithmetic" k1="1" result="composite1" id="feComposite1486" /> <feComposite in="composite1" in2="SourceGraphic" k1="1" operator="arithmetic" k3="1" result="composite2" id="feComposite1488" /> </filter> </defs> <g id="surface1" style="filter:url(#filter1490)"> <use xlink:href="#surface5" mask="url(#mask0)" id="use524" /> <path style=" stroke:none;fill-rule:nonzero;fill:url(#linear1);" d="M 14.636719 61.1875 C 13.375 61.183594 12.28125 60.316406 11.988281 59.09375 L 0.0546875 10.597656 C -0.238281 9.148438 0.671875 7.726562 2.109375 7.386719 L 32.042969 -0.0078125 L 32.683594 -0.0078125 C 33.949219 -0.0273438 35.058594 0.820312 35.375 2.042969 L 47.308594 50.453125 C 47.488281 51.160156 47.378906 51.910156 47 52.539062 C 46.625 53.167969 46.011719 53.617188 45.300781 53.789062 L 15.363281 61.1875 Z M 14.636719 61.1875 " id="path526" /> </g></svg>
