<svg width="64" height="64" viewBox="0 0 64 64" version="1.1" xmlns:inkscape="http://www.inkscape.org/namespaces/inkscape"><defs><linearGradient id="linear0" gradientUnits="userSpaceOnUse" x1="0" y1="0" x2="0" y2="1" gradientTransform="matrix(55.992188,0,0,56,5.010891,4.367154)"><stop offset="0" style="stop-color:rgb(0%,73.333335%,100%);stop-opacity:1;"/><stop offset="1" style="stop-color:rgb(0%,52.156866%,70.980394%);stop-opacity:1;"/></linearGradient><linearGradient id="linear1" gradientUnits="userSpaceOnUse" x1="0" y1="0" x2="0" y2="1" gradientTransform="matrix(55.992188,0,0,56,5.010891,4.367154)"><stop offset="0" style="stop-color:rgb(0%,73.333335%,100%);stop-opacity:1;"/><stop offset="1" style="stop-color:rgb(0%,52.156866%,70.980394%);stop-opacity:1;"/></linearGradient><linearGradient id="linear2" gradientUnits="userSpaceOnUse" x1="0" y1="0" x2="0" y2="1" gradientTransform="matrix(55.992188,0,0,56,5.010891,4.367154)"><stop offset="0" style="stop-color:rgb(0%,73.333335%,100%);stop-opacity:1;"/><stop offset="1" style="stop-color:rgb(0%,52.156866%,70.980394%);stop-opacity:1;"/></linearGradient><filter style="color-interpolation-filters:sRGB;" inkscape:label="Diffuse Light" id="filter184" x="-0.0375" y="-0.0375" width="1.075" height="1.075"><feGaussianBlur in="SourceGraphic" stdDeviation="1" result="blur" id="feGaussianBlur174" /><feDiffuseLighting diffuseConstant="1" surfaceScale="10" lighting-color="rgb(255,255,255)" result="diffuse" id="feDiffuseLighting178"><feDistantLight elevation="8" azimuth="235" id="feDistantLight176" /></feDiffuseLighting><feComposite in="diffuse" in2="diffuse" operator="arithmetic" k1="1" result="composite1" id="feComposite180" /><feComposite in="composite1" in2="SourceGraphic" k1="1" operator="arithmetic" k3="1" result="composite2" id="feComposite182" /></filter></defs><g id="surface1" style="filter:url(#filter184)"><path style=" stroke:none;fill-rule:evenodd;fill:url(#linear0);" d="M 18.582031 32.007812 C 18.582031 36.980469 14.535156 41.011719 9.542969 41.011719 C 4.542969 41.011719 0.496094 36.980469 0.496094 32.007812 C 0.496094 27.039062 4.542969 23.003906 9.542969 23.003906 C 14.535156 23.003906 18.582031 27.039062 18.582031 32.007812 "/><path style=" stroke:none;fill-rule:evenodd;fill:url(#linear1);" d="M 41.554688 32.007812 C 41.554688 36.980469 37.503906 41.011719 32.511719 41.011719 C 27.519531 41.011719 23.472656 36.980469 23.472656 32.007812 C 23.472656 27.039062 27.519531 23.003906 32.511719 23.003906 C 37.503906 23.003906 41.554688 27.039062 41.554688 32.007812 "/><path style=" stroke:none;fill-rule:evenodd;fill:url(#linear2);" d="M 64.28125 32.007812 C 64.28125 36.980469 60.230469 41.011719 55.242188 41.011719 C 50.242188 41.011719 46.195312 36.980469 46.195312 32.007812 C 46.195312 27.039062 50.242188 23.003906 55.242188 23.003906 C 60.230469 23.003906 64.28125 27.039062 64.28125 32.007812 "/></g></svg>
