<svg width="64" height="64" viewBox="0 0 64 64" version="1.1" xmlns:inkscape="http://www.inkscape.org/namespaces/inkscape"><defs><linearGradient id="linear0" gradientUnits="userSpaceOnUse" x1="0" y1="0" x2="0" y2="1" gradientTransform="matrix(61.732902,0,0,38.052389,3.804961,12.116838)"><stop offset="0" style="stop-color:rgb(81.960785%,70.980394%,59.215689%);stop-opacity:1;"/><stop offset="1" style="stop-color:rgb(65.098041%,53.725493%,41.568628%);stop-opacity:1;"/></linearGradient><filter style="color-interpolation-filters:sRGB;" inkscape:label="Diffuse Light" id="filter184" x="-0.0375" y="-0.0375" width="1.075" height="1.075"><feGaussianBlur in="SourceGraphic" stdDeviation="1" result="blur" id="feGaussianBlur174" /><feDiffuseLighting diffuseConstant="1" surfaceScale="10" lighting-color="rgb(255,255,255)" result="diffuse" id="feDiffuseLighting178"><feDistantLight elevation="8" azimuth="235" id="feDistantLight176" /></feDiffuseLighting><feComposite in="diffuse" in2="diffuse" operator="arithmetic" k1="1" result="composite1" id="feComposite180" /><feComposite in="composite1" in2="SourceGraphic" k1="1" operator="arithmetic" k3="1" result="composite2" id="feComposite182" /></filter></defs><g id="surface1" style="filter:url(#filter184)"><path style=" stroke:none;fill-rule:nonzero;fill:url(#linear0);" d="M 32.1875 1.105469 C 31.824219 1.125 31.476562 1.230469 31.171875 1.421875 L 6.121094 16.914062 C 5.511719 17.292969 5.140625 17.957031 5.136719 18.667969 L 5.136719 45.523438 C 5.140625 46.234375 5.511719 46.898438 6.121094 47.273438 L 31.171875 62.769531 C 31.847656 63.183594 32.703125 63.183594 33.378906 62.769531 L 58.429688 47.273438 C 59.039062 46.898438 59.410156 46.234375 59.410156 45.523438 L 59.410156 18.667969 C 59.410156 17.957031 59.039062 17.292969 58.429688 16.914062 L 33.378906 1.421875 C 33.023438 1.199219 32.609375 1.089844 32.1875 1.105469 Z M 15.574219 17.632812 L 51.0625 17.632812 L 43.753906 25.898438 L 15.574219 25.898438 Z M 30.183594 32.09375 L 34.363281 32.09375 C 35.519531 32.09375 36.449219 33.015625 36.449219 34.160156 L 36.449219 48.621094 C 36.449219 49.769531 35.519531 50.6875 34.363281 50.6875 L 30.183594 50.6875 C 29.03125 50.6875 28.101562 49.769531 28.101562 48.621094 L 28.101562 34.160156 C 28.101562 33.015625 29.03125 32.09375 30.183594 32.09375 Z M 30.183594 32.09375 "/></g></svg>
