<svg width="64" height="64" viewBox="0 0 64 64" version="1.1" xmlns:inkscape="http://www.inkscape.org/namespaces/inkscape"><defs><linearGradient id="linear0" gradientUnits="userSpaceOnUse" x1="0" y1="0" x2="0" y2="1" gradientTransform="matrix(56,0,0,35.898438,4,14.050781)"><stop offset="0" style="stop-color:rgb(100%,63.137257%,63.137257%);stop-opacity:1;"/><stop offset="1" style="stop-color:rgb(100%,27.843139%,27.843139%);stop-opacity:1;"/></linearGradient><filter style="color-interpolation-filters:sRGB;" inkscape:label="Diffuse Light" id="filter184" x="-0.0375" y="-0.0375" width="1.075" height="1.075"><feGaussianBlur in="SourceGraphic" stdDeviation="1" result="blur" id="feGaussianBlur174" /><feDiffuseLighting diffuseConstant="1" surfaceScale="10" lighting-color="rgb(255,255,255)" result="diffuse" id="feDiffuseLighting178"><feDistantLight elevation="8" azimuth="235" id="feDistantLight176" /></feDiffuseLighting><feComposite in="diffuse" in2="diffuse" operator="arithmetic" k1="1" result="composite1" id="feComposite180" /><feComposite in="composite1" in2="SourceGraphic" k1="1" operator="arithmetic" k3="1" result="composite2" id="feComposite182" /></filter></defs><g id="surface1" style="filter:url(#filter184)"><path style=" stroke:none;fill-rule:nonzero;fill:url(#linear0);" d="M 14.367188 5.789062 C 12.789062 5.789062 11.507812 6.789062 11.507812 8.015625 C 11.507812 9.246094 12.789062 10.242188 14.367188 10.242188 L 50.132812 10.242188 C 50.925781 10.242188 51.566406 10.738281 51.566406 11.355469 L 51.566406 16.921875 C 51.566406 18.148438 52.847656 19.144531 54.425781 19.144531 C 56.003906 19.144531 57.289062 18.148438 57.289062 16.921875 L 57.289062 10.242188 C 57.289062 7.773438 54.734375 5.789062 51.566406 5.789062 Z M 31.535156 19.144531 C 29.957031 19.144531 28.675781 20.144531 28.675781 21.371094 L 28.675781 34.726562 C 28.675781 35.957031 29.957031 36.953125 31.535156 36.953125 C 33.117188 36.953125 34.398438 35.957031 34.398438 34.726562 L 34.398438 21.371094 C 34.398438 20.144531 33.117188 19.144531 31.535156 19.144531 Z M 31.535156 41.40625 C 29.957031 41.40625 28.675781 42.402344 28.675781 43.632812 C 28.675781 44.859375 29.957031 45.859375 31.535156 45.859375 C 33.117188 45.859375 34.398438 44.859375 34.398438 43.632812 C 34.398438 42.402344 33.117188 41.40625 31.535156 41.40625 Z M 8.644531 45.859375 C 7.066406 45.859375 5.785156 46.855469 5.785156 48.082031 L 5.785156 54.761719 C 5.785156 57.230469 8.335938 59.214844 11.507812 59.214844 L 48.703125 59.214844 C 50.28125 59.214844 51.566406 58.214844 51.566406 56.988281 C 51.566406 55.757812 50.28125 54.761719 48.703125 54.761719 L 12.9375 54.761719 C 12.144531 54.761719 11.507812 54.265625 11.507812 53.648438 L 11.507812 48.082031 C 11.507812 46.855469 10.226562 45.859375 8.644531 45.859375 Z M 8.644531 45.859375 "/></g></svg>
