<svg xmlns="http://www.w3.org/2000/svg" xmlns:xlink="http://www.w3.org/1999/xlink" width="64" height="64" viewBox="0 0 64 64" version="1.1"><g id="surface1"><path style=" stroke:none;fill-rule:nonzero;fill:rgb(83.137256%,86.274511%,86.274511%);fill-opacity:1;" d="M 6.769531 2.058594 C 3.980469 2.058594 1.746094 4.292969 1.746094 7.078125 L 1.746094 17.105469 L 19.316406 19.609375 L 16.808594 2.058594 Z M 6.769531 2.058594 "/><path style=" stroke:none;fill-rule:nonzero;fill:rgb(72.156864%,78.039217%,79.215688%);fill-opacity:1;" d="M 16.808594 2.058594 L 31.871094 2.058594 L 34.378906 19.609375 L 16.808594 17.105469 Z M 16.808594 2.058594 "/><path style=" stroke:none;fill-rule:nonzero;fill:rgb(93.333334%,94.117647%,94.117647%);fill-opacity:1;" d="M 31.871094 2.058594 L 46.933594 2.058594 L 49.441406 19.609375 L 31.871094 17.105469 Z M 31.871094 2.058594 "/><path style=" stroke:none;fill-rule:nonzero;fill:rgb(56.078434%,61.176473%,63.137257%);fill-opacity:1;" d="M 46.933594 2.058594 L 46.933594 17.105469 L 54.464844 19.609375 L 61.996094 17.105469 L 61.996094 7.078125 C 61.996094 4.292969 59.761719 2.058594 56.972656 2.058594 Z M 46.933594 2.058594 "/><path style=" stroke:none;fill-rule:nonzero;fill:rgb(67.058825%,72.941178%,74.117649%);fill-opacity:1;" d="M 46.933594 17.105469 L 61.996094 17.105469 L 61.996094 32.148438 L 44.425781 34.65625 Z M 46.933594 17.105469 "/><path style=" stroke:none;fill-rule:nonzero;fill:rgb(41.960785%,47.843137%,49.019608%);fill-opacity:1;" d="M 31.871094 17.105469 L 46.933594 17.105469 L 46.933594 32.148438 L 29.363281 34.65625 Z M 31.871094 17.105469 "/><path style=" stroke:none;fill-rule:nonzero;fill:rgb(85.09804%,88.235295%,89.019608%);fill-opacity:1;" d="M 16.808594 17.105469 L 31.871094 17.105469 L 31.871094 32.148438 L 14.300781 34.65625 Z M 16.808594 17.105469 "/><path style=" stroke:none;fill-rule:nonzero;fill:rgb(56.078434%,61.176473%,63.137257%);fill-opacity:1;" d="M 1.746094 17.105469 L 16.808594 17.105469 L 16.808594 32.148438 L 9.277344 34.65625 L 1.746094 32.148438 Z M 1.746094 17.105469 "/><path style=" stroke:none;fill-rule:nonzero;fill:rgb(80.000001%,84.313726%,85.09804%);fill-opacity:1;" d="M 1.746094 32.148438 L 16.808594 32.148438 L 19.316406 49.699219 L 1.746094 47.195312 Z M 1.746094 32.148438 "/><path style=" stroke:none;fill-rule:nonzero;fill:rgb(67.058825%,70.980394%,72.156864%);fill-opacity:1;" d="M 16.808594 32.148438 L 31.871094 32.148438 L 34.378906 49.699219 L 16.808594 47.195312 Z M 16.808594 32.148438 "/><path style=" stroke:none;fill-rule:nonzero;fill:rgb(69.01961%,74.901962%,76.078433%);fill-opacity:1;" d="M 31.871094 32.148438 L 46.933594 32.148438 L 49.441406 49.699219 L 31.871094 47.195312 Z M 31.871094 32.148438 "/><path style=" stroke:none;fill-rule:nonzero;fill:rgb(78.039217%,83.137256%,85.09804%);fill-opacity:1;" d="M 46.933594 32.148438 L 61.996094 32.148438 L 61.996094 47.195312 L 54.464844 49.699219 L 46.933594 47.195312 Z M 46.933594 32.148438 "/><path style=" stroke:none;fill-rule:nonzero;fill:rgb(95.294118%,96.078432%,96.078432%);fill-opacity:1;" d="M 46.933594 47.195312 L 44.425781 54.71875 L 46.933594 62.242188 L 56.972656 62.242188 C 59.761719 62.242188 61.996094 60.007812 61.996094 57.222656 L 61.996094 47.195312 Z M 46.933594 47.195312 "/><path style=" stroke:none;fill-rule:nonzero;fill:rgb(52.156866%,58.039218%,59.215689%);fill-opacity:1;" d="M 31.871094 47.195312 L 46.933594 47.195312 L 46.933594 62.242188 L 31.871094 62.242188 L 29.363281 54.71875 Z M 31.871094 47.195312 "/><path style=" stroke:none;fill-rule:nonzero;fill:rgb(93.333334%,94.117647%,94.117647%);fill-opacity:1;" d="M 16.808594 47.195312 L 31.871094 47.195312 L 31.871094 62.242188 L 16.808594 62.242188 L 14.300781 54.71875 Z M 16.808594 47.195312 "/><path style=" stroke:none;fill-rule:nonzero;fill:rgb(72.156864%,78.039217%,79.215688%);fill-opacity:1;" d="M 1.746094 47.195312 L 1.746094 57.222656 C 1.746094 60.007812 3.980469 62.242188 6.769531 62.242188 L 16.808594 62.242188 L 16.808594 47.195312 Z M 1.746094 47.195312 "/></g></svg>
