<svg width="64" height="64" viewBox="0 0 64 64" version="1.1" xmlns:inkscape="http://www.inkscape.org/namespaces/inkscape"><defs><linearGradient id="linear0" gradientUnits="userSpaceOnUse" x1="0" y1="128" x2="128" y2="0" gradientTransform="matrix(0.712626,0,0,0.567892,-12.593891,-4.441002)"><stop offset="0" style="stop-color:rgb(82.352942%,61.176473%,100%);stop-opacity:1;"/><stop offset="1" style="stop-color:rgb(66.666669%,0%,100%);stop-opacity:1;"/></linearGradient><filter style="color-interpolation-filters:sRGB;" inkscape:label="Diffuse Light" id="filter184" x="-0.0375" y="-0.0375" width="1.075" height="1.075"><feGaussianBlur in="SourceGraphic" stdDeviation="1" result="blur" id="feGaussianBlur174" /><feDiffuseLighting diffuseConstant="1" surfaceScale="10" lighting-color="rgb(255,255,255)" result="diffuse" id="feDiffuseLighting178"><feDistantLight elevation="8" azimuth="235" id="feDistantLight176" /></feDiffuseLighting><feComposite in="diffuse" in2="diffuse" operator="arithmetic" k1="1" result="composite1" id="feComposite180" /><feComposite in="composite1" in2="SourceGraphic" k1="1" operator="arithmetic" k3="1" result="composite2" id="feComposite182" /></filter></defs><g id="surface1" style="filter:url(#filter184)"><path style=" stroke:none;fill-rule:nonzero;fill:url(#linear0);" d="M 17.628906 1.304688 C 14.480469 1.304688 11.933594 3.339844 11.933594 5.847656 C 11.933594 8.351562 14.480469 10.375 17.628906 10.375 C 17.707031 10.375 17.769531 10.378906 17.839844 10.375 L 21.992188 17.011719 L 15.042969 17.011719 C 13.507812 17.011719 12.265625 18.003906 12.265625 19.222656 L 12.265625 48.5625 C 12.265625 49.78125 13.507812 50.757812 15.042969 50.757812 L 18.582031 50.757812 L 18.582031 61.292969 C 18.582031 61.730469 18.734375 62.125 18.980469 62.339844 C 19.226562 62.554688 19.523438 62.554688 19.765625 62.339844 L 32.828125 50.757812 L 51.328125 50.757812 C 52.855469 50.757812 54.097656 49.78125 54.097656 48.5625 L 54.097656 19.222656 C 54.097656 18.003906 52.855469 17.011719 51.328125 17.011719 L 43.417969 17.011719 L 46.070312 14.210938 C 46.429688 14.273438 46.820312 14.308594 47.207031 14.308594 C 50.078125 14.308594 52.382812 12.453125 52.382812 10.175781 C 52.382812 7.886719 50.078125 6.050781 47.207031 6.050781 C 44.351562 6.050781 42.019531 7.886719 42.019531 10.175781 C 42.019531 11.152344 42.445312 12.0625 43.164062 12.773438 L 39.179688 17.011719 L 25.8125 17.011719 L 21.085938 9.445312 C 22.445312 8.613281 23.324219 7.320312 23.324219 5.847656 C 23.324219 3.339844 20.777344 1.304688 17.628906 1.304688 Z M 24.367188 24.394531 C 24.402344 24.390625 24.441406 24.390625 24.472656 24.394531 C 24.679688 24.375 24.882812 24.425781 25.070312 24.527344 L 40.242188 33.089844 C 40.550781 33.269531 40.738281 33.597656 40.738281 33.949219 C 40.738281 34.304688 40.550781 34.632812 40.242188 34.808594 L 25.070312 43.375 C 24.753906 43.558594 24.355469 43.558594 24.039062 43.378906 C 23.71875 43.207031 23.519531 42.871094 23.519531 42.511719 L 23.519531 25.390625 C 23.519531 24.898438 23.875 24.476562 24.367188 24.394531 Z M 24.367188 24.394531 "/></g></svg>
