<svg width="64" height="64" viewBox="0 0 64 64" version="1.1" xmlns:inkscape="http://www.inkscape.org/namespaces/inkscape"><defs><linearGradient id="linear0" gradientUnits="userSpaceOnUse" x1="0" y1="0" x2="0" y2="1" gradientTransform="matrix(64,0,0,38.425781,0,12.789063)"><stop offset="0" style="stop-color:rgb(87.058824%,86.666667%,56.470591%);stop-opacity:1;"/><stop offset="1" style="stop-color:rgb(67.843139%,67.450982%,38.039216%);stop-opacity:1;"/></linearGradient><filter style="color-interpolation-filters:sRGB;" inkscape:label="Diffuse Light" id="filter184" x="-0.0375" y="-0.0375" width="1.075" height="1.075"><feGaussianBlur in="SourceGraphic" stdDeviation="1" result="blur" id="feGaussianBlur174" /><feDiffuseLighting diffuseConstant="1" surfaceScale="10" lighting-color="rgb(255,255,255)" result="diffuse" id="feDiffuseLighting178"><feDistantLight elevation="8" azimuth="235" id="feDistantLight176" /></feDiffuseLighting><feComposite in="diffuse" in2="diffuse" operator="arithmetic" k1="1" result="composite1" id="feComposite180" /><feComposite in="composite1" in2="SourceGraphic" k1="1" operator="arithmetic" k3="1" result="composite2" id="feComposite182" /></filter></defs><g id="surface1" style="filter:url(#filter184)"><path style=" stroke:none;fill-rule:nonzero;fill:url(#linear0);" d="M 29.179688 12.800781 C 24.828125 12.671875 20.644531 13.566406 16.78125 14.476562 C 11.089844 15.816406 1.714844 19.972656 1.714844 19.972656 C -0.542969 20.953125 -0.578125 24.160156 1.660156 25.191406 C 4.878906 26.839844 9.761719 27.527344 10.441406 31.242188 C 11.445312 36.722656 5.6875 41.742188 2.640625 46.796875 C 0.8125 49.699219 4.699219 52.777344 7.085938 50.316406 C 7.085938 50.316406 21.839844 36.613281 41.109375 36.097656 C 44.695312 36 49.476562 37.59375 53.203125 39.316406 C 56.9375 41.042969 59.59375 42.351562 59.59375 42.351562 C 61.953125 43.890625 64.867188 40.785156 63.757812 38.1875 C 58.230469 25.277344 46.796875 14.65625 31.078125 12.925781 L 31.054688 12.921875 C 30.429688 12.855469 29.800781 12.820312 29.179688 12.800781 Z M 29.179688 12.800781 "/></g></svg>
