<svg width="64" height="64" viewBox="0 0 64 64" version="1.1" xmlns:inkscape="http://www.inkscape.org/namespaces/inkscape"><defs><linearGradient id="linear0" gradientUnits="userSpaceOnUse" x1="0" y1="0" x2="0" y2="1" gradientTransform="matrix(64,0,0,42.441406,0,10.777344)"><stop offset="0" style="stop-color:rgb(100%,73.333335%,0%);stop-opacity:1;"/><stop offset="1" style="stop-color:rgb(70.19608%,51.372552%,0%);stop-opacity:1;"/></linearGradient><filter style="color-interpolation-filters:sRGB;" inkscape:label="Diffuse Light" id="filter184" x="-0.0375" y="-0.0375" width="1.075" height="1.075"><feGaussianBlur in="SourceGraphic" stdDeviation="1" result="blur" id="feGaussianBlur174" /><feDiffuseLighting diffuseConstant="1" surfaceScale="10" lighting-color="rgb(255,255,255)" result="diffuse" id="feDiffuseLighting178"><feDistantLight elevation="8" azimuth="235" id="feDistantLight176" /></feDiffuseLighting><feComposite in="diffuse" in2="diffuse" operator="arithmetic" k1="1" result="composite1" id="feComposite180" /><feComposite in="composite1" in2="SourceGraphic" k1="1" operator="arithmetic" k3="1" result="composite2" id="feComposite182" /></filter></defs><g id="surface1" style="filter:url(#filter184)"><path style=" stroke:none;fill-rule:evenodd;fill:url(#linear0);" d="M 22.046875 15.820312 C 21.277344 13.304688 19.960938 11.566406 18.144531 10.988281 C 13.039062 9.355469 5.882812 17.449219 2.179688 29.042969 C -1.527344 40.640625 -0.390625 51.378906 4.710938 53.011719 C 8.859375 54.335938 14.363281 49.242188 18.269531 41.066406 L 45.730469 41.066406 C 49.636719 49.242188 55.140625 54.335938 59.289062 53.011719 C 64.390625 51.378906 65.527344 40.640625 61.820312 29.042969 C 58.117188 17.449219 50.960938 9.355469 45.855469 10.988281 C 44.039062 11.566406 42.722656 13.304688 41.953125 15.820312 Z M 34.273438 18.523438 L 34.273438 28.8125 L 38.128906 28.8125 L 31.699219 36.523438 L 25.273438 28.8125 L 29.128906 28.8125 L 29.128906 18.523438 Z M 23.984375 36.523438 L 39.410156 36.523438 L 39.410156 39.097656 L 23.984375 39.097656 Z M 23.984375 36.523438 "/></g></svg>
