<svg width="64" height="64" viewBox="0 0 64 64" version="1.1" xmlns:inkscape="http://www.inkscape.org/namespaces/inkscape"><defs><linearGradient id="linear0" gradientUnits="userSpaceOnUse" x1="0" y1="0" x2="0" y2="1" gradientTransform="matrix(76.824644,0,0,73.400378,-6.637955,-4.854588)"><stop offset="0" style="stop-color:rgb(0%,96.078432%,86.274511%);stop-opacity:1;"/><stop offset="1" style="stop-color:rgb(0%,54.901963%,49.411765%);stop-opacity:1;"/></linearGradient><filter style="color-interpolation-filters:sRGB;" inkscape:label="Diffuse Light" id="filter184" x="-0.0375" y="-0.0375" width="1.075" height="1.075"><feGaussianBlur in="SourceGraphic" stdDeviation="1" result="blur" id="feGaussianBlur174" /><feDiffuseLighting diffuseConstant="1" surfaceScale="10" lighting-color="rgb(255,255,255)" result="diffuse" id="feDiffuseLighting178"><feDistantLight elevation="8" azimuth="235" id="feDistantLight176" /></feDiffuseLighting><feComposite in="diffuse" in2="diffuse" operator="arithmetic" k1="1" result="composite1" id="feComposite180" /><feComposite in="composite1" in2="SourceGraphic" k1="1" operator="arithmetic" k3="1" result="composite2" id="feComposite182" /></filter></defs><g id="surface1" style="filter:url(#filter184)"><path style=" stroke:none;fill-rule:evenodd;fill:url(#linear0);" d="M 23.875 23.71875 L 23.875 53.335938 C 23.894531 56.039062 22.003906 59.09375 18.082031 61.007812 C 12.636719 63.671875 6.910156 62.375 4.816406 59.292969 C 2.71875 56.21875 4.253906 51.367188 9.699219 48.699219 C 13.359375 46.914062 17.148438 46.914062 19.875 48.039062 L 19.875 9.292969 L 59.792969 1.695312 L 59.792969 49.546875 C 59.816406 52.25 57.925781 55.296875 54.007812 57.214844 C 48.554688 59.878906 42.832031 58.582031 40.734375 55.503906 C 38.640625 52.429688 40.171875 47.574219 45.617188 44.902344 C 49.285156 43.121094 53.066406 43.121094 55.796875 44.246094 L 55.796875 17.648438 Z M 23.875 23.71875 "/></g></svg>
