<svg width="64" height="64" viewBox="0 0 64 64" version="1.1" xmlns:inkscape="http://www.inkscape.org/namespaces/inkscape"><defs><linearGradient id="linear0" gradientUnits="userSpaceOnUse" x1="0" y1="0" x2="0" y2="1" gradientTransform="matrix(64.381827,0,0,40.391609,0.0520592,10.060399)"><stop offset="0" style="stop-color:rgb(100%,63.137257%,63.137257%);stop-opacity:1;"/><stop offset="1" style="stop-color:rgb(100%,27.843139%,27.843139%);stop-opacity:1;"/></linearGradient><filter style="color-interpolation-filters:sRGB;" inkscape:label="Diffuse Light" id="filter184" x="-0.0375" y="-0.0375" width="1.075" height="1.075"><feGaussianBlur in="SourceGraphic" stdDeviation="1" result="blur" id="feGaussianBlur174" /><feDiffuseLighting diffuseConstant="1" surfaceScale="10" lighting-color="rgb(255,255,255)" result="diffuse" id="feDiffuseLighting178"><feDistantLight elevation="8" azimuth="235" id="feDistantLight176" /></feDiffuseLighting><feComposite in="diffuse" in2="diffuse" operator="arithmetic" k1="1" result="composite1" id="feComposite180" /><feComposite in="composite1" in2="SourceGraphic" k1="1" operator="arithmetic" k3="1" result="composite2" id="feComposite182" /></filter></defs><g id="surface1" style="filter:url(#filter184)"><path style=" stroke:none;fill-rule:nonzero;fill:url(#linear0);" d="M 1.492188 1.625 L 1.492188 36.90625 L 9.101562 36.90625 L 9.101562 46.984375 L 22.625 36.90625 L 47.152344 36.90625 L 47.152344 1.625 Z M 6.5625 6.667969 L 42.078125 6.667969 L 42.078125 31.863281 L 20.949219 31.863281 L 14.175781 36.90625 L 14.175781 31.863281 L 6.5625 31.863281 Z M 52.226562 21.785156 L 52.226562 26.824219 L 57.296875 26.824219 L 57.296875 46.984375 L 49.691406 46.984375 L 49.691406 52.027344 L 42.917969 46.984375 L 26.859375 46.984375 L 26.859375 41.941406 L 21.789062 41.941406 L 21.789062 52.027344 L 41.242188 52.027344 L 54.765625 62.105469 L 54.765625 52.027344 L 62.371094 52.027344 L 62.371094 21.785156 Z M 52.226562 21.785156 "/></g></svg>
