<svg xmlns="http://www.w3.org/2000/svg" xmlns:xlink="http://www.w3.org/1999/xlink" width="64" height="64" viewBox="0 0 64 64" version="1.1"><defs><filter id="alpha" filterUnits="objectBoundingBox" x="0%" y="0%" width="100%" height="100%"> <feColorMatrix type="matrix" in="SourceGraphic" values="0 0 0 0 1 0 0 0 0 1 0 0 0 0 1 0 0 0 1 0"/></filter><mask id="mask0"><rect x="0" y="0" width="64" height="64" style="fill:rgb(0%,0%,0%);fill-opacity:0.99;stroke:none;"/></mask><clipPath id="clip1"> <rect x="0" y="0" width="64" height="64"/></clipPath></defs><use xlink:href="#surface5" mask="url(#mask0)"/><path style=" stroke:none;fill-rule:nonzero;fill:rgb(100%,100%,100%);fill-opacity:1;" d="M 46.984375 10.425781 C 45.761719 10.425781 44.722656 11.300781 44.511719 12.503906 C 44.496094 12.59375 44.484375 12.683594 44.480469 12.773438 L 37.757812 15 C 37.324219 14.441406 36.703125 14.0625 36.015625 13.941406 C 35.851562 13.910156 35.683594 13.898438 35.515625 13.898438 C 34.132812 13.898438 32.953125 14.886719 32.714844 16.25 C 32.511719 17.410156 33.058594 18.574219 34.058594 19.179688 L 27.652344 53.320312 C 26.800781 53.371094 26.019531 53.800781 25.519531 54.484375 L 17.574219 49.9375 C 17.585938 49.890625 17.59375 49.847656 17.601562 49.800781 C 17.710938 49.195312 17.574219 48.585938 17.222656 48.089844 C 17.035156 47.824219 16.792969 47.601562 16.515625 47.4375 L 17.144531 41.832031 C 17.480469 41.769531 17.800781 41.628906 18.074219 41.429688 L 28.160156 46.324219 L 28.453125 44.652344 L 24.0625 42.191406 L 24.722656 38.492188 C 25.640625 38.378906 26.351562 37.589844 26.351562 36.640625 C 26.351562 35.613281 25.515625 34.777344 24.488281 34.777344 C 23.582031 34.777344 22.8125 35.425781 22.65625 36.339844 C 22.65625 36.339844 22.640625 36.460938 22.632812 36.546875 C 22.628906 36.578125 22.628906 36.609375 22.628906 36.640625 L 22.632812 36.707031 C 22.632812 36.714844 22.632812 36.726562 22.632812 36.734375 L 18.65625 38.355469 C 18.636719 38.328125 18.617188 38.300781 18.597656 38.273438 C 18.246094 37.769531 17.722656 37.433594 17.121094 37.328125 C 16.996094 37.308594 16.859375 37.296875 16.722656 37.296875 C 15.605469 37.296875 14.660156 38.089844 14.46875 39.1875 C 14.300781 40.128906 14.753906 41.082031 15.566406 41.558594 L 14.9375 47.15625 C 14 47.320312 13.261719 48.046875 13.097656 49.003906 C 12.988281 49.609375 13.121094 50.214844 13.472656 50.71875 C 13.824219 51.21875 14.351562 51.554688 14.953125 51.660156 C 15.53125 51.765625 16.175781 51.625 16.671875 51.269531 L 24.980469 56.007812 C 24.941406 56.648438 25.117188 57.273438 25.484375 57.796875 C 25.921875 58.421875 26.574219 58.839844 27.320312 58.96875 C 27.488281 59 27.652344 59.015625 27.820312 59.015625 C 29.203125 59.015625 30.378906 58.023438 30.621094 56.664062 C 30.632812 56.574219 30.644531 56.488281 30.652344 56.410156 L 37.855469 53.324219 C 38.226562 53.738281 38.722656 54.011719 39.277344 54.109375 C 39.421875 54.136719 39.566406 54.148438 39.714844 54.148438 C 40.9375 54.148438 41.976562 53.273438 42.191406 52.066406 C 42.304688 51.40625 42.15625 50.738281 41.773438 50.1875 C 41.628906 49.980469 41.457031 49.800781 41.265625 49.652344 L 47.59375 15.378906 C 48.554688 15.144531 49.289062 14.371094 49.464844 13.378906 C 49.703125 12.011719 48.789062 10.703125 47.421875 10.460938 C 47.28125 10.4375 47.128906 10.425781 46.988281 10.425781 Z M 46.984375 12.023438 C 47.039062 12.023438 47.09375 12.03125 47.148438 12.039062 C 47.296875 12.066406 47.4375 12.132812 47.578125 12.25 C 47.828125 12.464844 47.945312 12.78125 47.886719 13.101562 C 47.832031 13.417969 47.609375 13.6875 47.308594 13.800781 C 47.160156 13.855469 46.992188 13.871094 46.828125 13.84375 C 46.351562 13.757812 46.023438 13.316406 46.074219 12.839844 L 46.089844 12.777344 C 46.167969 12.339844 46.546875 12.023438 46.984375 12.023438 Z M 45.179688 14.679688 C 45.304688 14.808594 45.441406 14.921875 45.589844 15.023438 L 39.285156 49.15625 C 38.246094 49.332031 37.417969 50.132812 37.230469 51.199219 C 37.222656 51.261719 37.214844 51.328125 37.207031 51.394531 L 30.078125 54.453125 C 29.9375 54.265625 29.78125 54.101562 29.605469 53.957031 L 36.058594 19.53125 C 37.207031 19.3125 38.117188 18.40625 38.320312 17.242188 C 38.339844 17.144531 38.351562 17.046875 38.359375 16.945312 Z M 35.515625 15.496094 C 35.589844 15.496094 35.664062 15.503906 35.734375 15.519531 C 36.03125 15.570312 36.296875 15.730469 36.492188 15.976562 C 36.710938 16.253906 36.800781 16.589844 36.75 16.929688 L 36.742188 16.992188 C 36.648438 17.464844 36.289062 17.839844 35.8125 17.953125 C 35.609375 18.003906 35.460938 18.003906 35.304688 17.972656 C 35.132812 17.945312 34.972656 17.878906 34.828125 17.78125 C 34.417969 17.503906 34.207031 17.011719 34.292969 16.527344 C 34.398438 15.929688 34.914062 15.496094 35.515625 15.496094 Z M 24.488281 36.140625 C 24.765625 36.140625 24.992188 36.367188 24.992188 36.640625 C 24.992188 36.917969 24.765625 37.144531 24.488281 37.144531 C 24.214844 37.144531 23.988281 36.917969 23.988281 36.640625 C 23.988281 36.367188 24.214844 36.140625 24.488281 36.140625 Z M 23.089844 37.863281 C 23.148438 37.929688 23.222656 38 23.316406 38.082031 C 23.386719 38.140625 23.460938 38.191406 23.535156 38.234375 L 22.9375 41.558594 L 18.957031 40.085938 C 18.964844 40.050781 18.972656 40.015625 18.980469 39.980469 C 19.003906 39.832031 19.011719 39.679688 19.007812 39.519531 Z M 16.71875 38.894531 C 16.761719 38.894531 16.804688 38.898438 16.839844 38.90625 C 17.023438 38.9375 17.179688 39.039062 17.285156 39.191406 C 17.386719 39.335938 17.429688 39.507812 17.40625 39.675781 L 17.382812 39.746094 C 17.339844 39.933594 17.21875 40.085938 17.042969 40.179688 L 16.886719 40.242188 C 16.753906 40.28125 16.671875 40.277344 16.605469 40.265625 C 16.511719 40.25 16.417969 40.210938 16.335938 40.15625 C 16.109375 40.003906 15.996094 39.730469 16.042969 39.464844 C 16.101562 39.136719 16.386719 38.894531 16.71875 38.894531 Z M 15.347656 48.714844 C 15.386719 48.714844 15.425781 48.71875 15.46875 48.726562 C 15.5625 48.742188 15.652344 48.78125 15.738281 48.835938 C 15.8125 48.890625 15.871094 48.945312 15.914062 49.007812 C 16.015625 49.152344 16.058594 49.324219 16.03125 49.5 C 16.019531 49.53125 16.003906 49.5625 15.996094 49.589844 C 15.9375 49.792969 15.804688 49.949219 15.621094 50.027344 C 15.46875 50.097656 15.339844 50.101562 15.226562 50.082031 C 15.046875 50.054688 14.890625 49.953125 14.78125 49.796875 C 14.675781 49.648438 14.636719 49.46875 14.667969 49.28125 C 14.714844 49.023438 14.910156 48.816406 15.214844 48.738281 C 15.269531 48.726562 15.316406 48.714844 15.347656 48.714844 Z M 39.722656 50.703125 C 40.238281 50.703125 40.65625 51.121094 40.65625 51.636719 C 40.65625 52.152344 40.238281 52.570312 39.722656 52.570312 C 39.210938 52.570312 38.792969 52.152344 38.792969 51.636719 C 38.792969 51.121094 39.210938 50.703125 39.722656 50.703125 Z M 39.710938 50.714844 C 39.769531 50.714844 39.820312 50.722656 39.871094 50.726562 C 39.972656 50.746094 40.074219 50.785156 40.164062 50.835938 C 40.074219 50.785156 39.972656 50.746094 39.871094 50.726562 C 39.820312 50.71875 39.769531 50.714844 39.710938 50.714844 Z M 39.519531 50.738281 C 39.433594 50.757812 39.355469 50.785156 39.277344 50.824219 C 39.355469 50.785156 39.433594 50.757812 39.519531 50.738281 Z M 39.425781 52.5 C 39.46875 52.515625 39.507812 52.527344 39.550781 52.535156 C 39.597656 52.542969 39.648438 52.546875 39.703125 52.546875 C 39.648438 52.546875 39.597656 52.542969 39.550781 52.535156 C 39.507812 52.527344 39.46875 52.515625 39.425781 52.503906 Z M 27.8125 54.917969 C 27.886719 54.917969 27.960938 54.925781 28.03125 54.9375 C 28.308594 54.984375 28.558594 55.128906 28.75 55.351562 L 28.808594 55.417969 C 28.875 55.507812 28.925781 55.601562 28.96875 55.703125 C 29.046875 55.894531 29.074219 56.089844 29.058594 56.289062 L 29.039062 56.3125 L 29.039062 56.40625 C 28.90625 57.0625 28.277344 57.515625 27.597656 57.394531 C 27.269531 57.335938 26.984375 57.15625 26.792969 56.878906 C 26.664062 56.691406 26.585938 56.472656 26.574219 56.242188 C 26.570312 56.125 26.574219 56.03125 26.585938 55.949219 C 26.609375 55.816406 26.65625 55.6875 26.726562 55.558594 C 26.945312 55.164062 27.359375 54.917969 27.8125 54.917969 Z M 27.8125 54.917969 "/></svg>
