<svg width="64" height="64" viewBox="0 0 64 64" version="1.1" xmlns:inkscape="http://www.inkscape.org/namespaces/inkscape"><defs><linearGradient id="linear0" gradientUnits="userSpaceOnUse" x1="0" y1="0" x2="0" y2="1" gradientTransform="matrix(66.788525,0,0,40.259003,-0.206026,11.886914)"><stop offset="0" style="stop-color:rgb(41.960785%,64.313728%,100%);stop-opacity:1;"/><stop offset="1" style="stop-color:rgb(0%,43.137255%,100%);stop-opacity:1;"/></linearGradient><filter style="color-interpolation-filters:sRGB;" inkscape:label="Diffuse Light" id="filter184" x="-0.0375" y="-0.0375" width="1.075" height="1.075"><feGaussianBlur in="SourceGraphic" stdDeviation="1" result="blur" id="feGaussianBlur174" /><feDiffuseLighting diffuseConstant="1" surfaceScale="10" lighting-color="rgb(255,255,255)" result="diffuse" id="feDiffuseLighting178"><feDistantLight elevation="8" azimuth="235" id="feDistantLight176" /></feDiffuseLighting><feComposite in="diffuse" in2="diffuse" operator="arithmetic" k1="1" result="composite1" id="feComposite180" /><feComposite in="composite1" in2="SourceGraphic" k1="1" operator="arithmetic" k3="1" result="composite2" id="feComposite182" /></filter></defs><g id="surface1" style="filter:url(#filter184)"><path style=" stroke:none;fill-rule:nonzero;fill:url(#linear0);" d="M 1.195312 2.1875 L 15.34375 63.039062 L 24.777344 63.039062 L 10.628906 2.1875 Z M 34.214844 24.320312 L 34.214844 63.039062 L 43.648438 63.039062 L 43.648438 40.914062 C 43.648438 37.84375 45.753906 35.378906 48.367188 35.378906 C 50.980469 35.378906 53.085938 37.851562 53.085938 40.914062 L 53.085938 63.039062 L 62.519531 63.039062 L 62.519531 40.914062 C 62.519531 31.730469 56.199219 24.320312 48.367188 24.320312 C 46.707031 24.320312 45.132812 24.65625 43.648438 25.265625 L 43.648438 24.320312 Z M 34.214844 24.320312 "/></g></svg>
