<?xml version="1.0" encoding="UTF-8" standalone="no"?><svg width="64" height="64" viewBox="0 0 64 64" version="1.1" id="svg235" sodipodi:docname="jmol-icon.svg" inkscape:version="1.2.2 (b0a8486541, 2022-12-01)" xmlns:inkscape="http://www.inkscape.org/namespaces/inkscape" xmlns:sodipodi="http://sodipodi.sourceforge.net/DTD/sodipodi-0.dtd" xmlns:xlink="http://www.w3.org/1999/xlink" xmlns="http://www.w3.org/2000/svg" xmlns:svg="http://www.w3.org/2000/svg"> <sodipodi:namedview id="namedview237" pagecolor="#ffffff" bordercolor="#000000" borderopacity="0.25" inkscape:showpageshadow="2" inkscape:pageopacity="0.0" inkscape:pagecheckerboard="0" inkscape:deskcolor="#d1d1d1" showgrid="false" inkscape:zoom="3.6875" inkscape:cx="32" inkscape:cy="32.135593" inkscape:window-width="1432" inkscape:window-height="844" inkscape:window-x="0" inkscape:window-y="0" inkscape:window-maximized="1" inkscape:current-layer="svg235" /> <defs id="defs228"> <filter id="alpha" filterUnits="objectBoundingBox" x="0" y="0" width="1" height="1"> <feColorMatrix type="matrix" in="SourceGraphic" values="0 0 0 0 1 0 0 0 0 1 0 0 0 0 1 0 0 0 1 0" id="feColorMatrix204" /> </filter> <mask id="mask0"> <g filter="url(#alpha)" id="g209"> <rect x="0" y="0" width="64" height="64" style="fill:rgb(0%,0%,0%);fill-opacity:0.6;stroke:none;" id="rect207" /> </g> </mask> <linearGradient id="linear0" gradientUnits="userSpaceOnUse" x1="0" y1="0" x2="0" y2="1" gradientTransform="matrix(25.429688,0,0,25.425781,4.398438,4.542969)"> <stop offset="0" style="stop-color:#c1c6d6;stop-opacity:1;" id="stop212" /> <stop offset="1" style="stop-color:#6f7380;stop-opacity:1;" id="stop214" /> </linearGradient> <clipPath id="clip1"> <rect x="0" y="0" width="64" height="64" id="rect217" /> </clipPath> <g id="surface5" clip-path="url(#clip1)"> <path style=" stroke:none;fill-rule:nonzero;fill:url(#linear0);" d="M 4.410156 17.792969 C 4.117188 10.777344 9.5625 4.847656 16.578125 4.554688 C 23.59375 4.257812 29.519531 9.703125 29.816406 16.71875 C 30.113281 23.734375 24.664062 29.664062 17.648438 29.957031 C 10.632812 30.253906 4.707031 24.808594 4.410156 17.792969 Z M 4.410156 17.792969 " id="path220" /> </g> <linearGradient id="linear1" gradientUnits="userSpaceOnUse" x1="0" y1="0" x2="0" y2="1" gradientTransform="matrix(45.765625,0,0,45.765625,13.664062,12.234375)"> <stop offset="0" style="stop-color:#c1c6d6;stop-opacity:1;" id="stop223" /> <stop offset="1" style="stop-color:#6f7380;stop-opacity:1;" id="stop225" /> </linearGradient> <filter style="color-interpolation-filters:sRGB;" inkscape:label="Diffuse Light" id="filter1412" x="-0.043610836" y="-0.04489508" width="1.0872217" height="1.0897902"> <feGaussianBlur in="SourceGraphic" stdDeviation="1" result="blur" id="feGaussianBlur1402" /> <feDiffuseLighting diffuseConstant="1" surfaceScale="10" lighting-color="rgb(255,255,255)" result="diffuse" id="feDiffuseLighting1406"> <feDistantLight elevation="8" azimuth="235" id="feDistantLight1404" /> </feDiffuseLighting> <feComposite in="diffuse" in2="diffuse" operator="arithmetic" k1="1" result="composite1" id="feComposite1408" /> <feComposite in="composite1" in2="SourceGraphic" k1="1" operator="arithmetic" k3="1" result="composite2" id="feComposite1410" /> </filter> </defs> <g id="surface1" transform="matrix(1.1189166,0,0,1.1179149,-3.6480985,-2.4463437)" style="filter:url(#filter1412)"> <use xlink:href="#surface5" mask="url(#mask0)" id="use230" /> <path style="fill:url(#linear1);fill-rule:nonzero;stroke:none" d="m 35.582031,12.253906 c -12.625,0.53125 -22.429687,11.199219 -21.898437,23.828125 0.535156,12.625 11.203125,22.429688 23.828125,21.898438 12.628906,-0.535157 22.433593,-11.203125 21.898437,-23.828125 -0.109375,-2.578125 -0.65625,-5.027344 -1.539062,-7.304688 -1.6875,0.945313 -3.582032,1.566406 -5.648438,1.65625 -7.015625,0.292969 -12.945312,-5.15625 -13.242187,-12.171875 -0.05469,-1.359375 0.160156,-2.648437 0.5,-3.890625 -1.273438,-0.164062 -2.570313,-0.246094 -3.898438,-0.1875 z m 0,0" id="path232" /> </g></svg>
