<svg width="64" height="64" viewBox="0 0 64 64" version="1.1" xmlns:inkscape="http://www.inkscape.org/namespaces/inkscape"><defs><linearGradient id="linear0" gradientUnits="userSpaceOnUse" x1="0" y1="0" x2="0" y2="1" gradientTransform="matrix(64,0,0,64,0,0)"><stop offset="0" style="stop-color:rgb(0%,96.078432%,86.274511%);stop-opacity:1;"/><stop offset="1" style="stop-color:rgb(0%,54.901963%,49.411765%);stop-opacity:1;"/></linearGradient><filter style="color-interpolation-filters:sRGB;" inkscape:label="Diffuse Light" id="filter184" x="-0.0375" y="-0.0375" width="1.075" height="1.075"><feGaussianBlur in="SourceGraphic" stdDeviation="1" result="blur" id="feGaussianBlur174" /><feDiffuseLighting diffuseConstant="1" surfaceScale="10" lighting-color="rgb(255,255,255)" result="diffuse" id="feDiffuseLighting178"><feDistantLight elevation="8" azimuth="235" id="feDistantLight176" /></feDiffuseLighting><feComposite in="diffuse" in2="diffuse" operator="arithmetic" k1="1" result="composite1" id="feComposite180" /><feComposite in="composite1" in2="SourceGraphic" k1="1" operator="arithmetic" k3="1" result="composite2" id="feComposite182" /></filter></defs><g id="surface1" style="filter:url(#filter184)"><path style=" stroke:none;fill-rule:nonzero;fill:url(#linear0);" d="M 22.285156 63.863281 C 15.136719 63.203125 9.59375 60.898438 5.429688 56.851562 C 1.894531 53.410156 0.0078125 47.78125 0 43.625 C -0.0078125 40.710938 0.832031 38.382812 2.519531 36.621094 C 4.441406 34.617188 6.636719 33.703125 9.558594 33.683594 C 13.222656 33.664062 16.355469 34.941406 17.707031 37.777344 C 18.277344 38.972656 18.3125 39.175781 18.433594 42.214844 C 18.566406 45.660156 18.738281 48.214844 19.570312 49.851562 C 20.765625 52.199219 24.027344 53.683594 27.363281 54.011719 C 32.410156 54.503906 37.171875 51.640625 38.402344 46.84375 C 38.714844 45.621094 38.742188 44.0625 38.742188 28.171875 C 38.742188 11.171875 38.734375 12.359375 38.351562 11.691406 C 37.671875 10.523438 36.835938 10.226562 33.609375 10.152344 L 30.316406 10.152344 L 30.316406 0 L 64 0 L 64 10.152344 L 60.667969 10.152344 C 57.609375 10.273438 57.0625 10.414062 56.386719 11.140625 C 55.457031 12.148438 55.707031 10.253906 55.574219 28.75 C 55.445312 47.09375 55.4375 47.273438 54.5625 49.703125 C 52.382812 55.769531 46.402344 60.84375 38.90625 62.789062 C 35.074219 63.785156 26.539062 64.253906 22.285156 63.863281 Z M 22.285156 63.863281 "/></g></svg>
