<svg width="64" height="64" viewBox="0 0 64 64" version="1.1" xmlns:inkscape="http://www.inkscape.org/namespaces/inkscape"><defs><linearGradient id="linear0" gradientUnits="userSpaceOnUse" x1="0" y1="0" x2="0" y2="1" gradientTransform="matrix(65.624393,0,0,42.209471,1.291585,7.000397)"><stop offset="0" style="stop-color:rgb(75.686276%,77.64706%,83.92157%);stop-opacity:1;"/><stop offset="1" style="stop-color:rgb(43.529412%,45.09804%,50.196081%);stop-opacity:1;"/></linearGradient><filter style="color-interpolation-filters:sRGB;" inkscape:label="Diffuse Light" id="filter184" x="-0.0375" y="-0.0375" width="1.075" height="1.075"><feGaussianBlur in="SourceGraphic" stdDeviation="1" result="blur" id="feGaussianBlur174" /><feDiffuseLighting diffuseConstant="1" surfaceScale="10" lighting-color="rgb(255,255,255)" result="diffuse" id="feDiffuseLighting178"><feDistantLight elevation="8" azimuth="235" id="feDistantLight176" /></feDiffuseLighting><feComposite in="diffuse" in2="diffuse" operator="arithmetic" k1="1" result="composite1" id="feComposite180" /><feComposite in="composite1" in2="SourceGraphic" k1="1" operator="arithmetic" k3="1" result="composite2" id="feComposite182" /></filter></defs><g id="surface1" style="filter:url(#filter184)"><path style=" stroke:none;fill-rule:nonzero;fill:url(#linear0);" d="M 18.753906 1.171875 C 11.28125 1.171875 8.785156 6.328125 11.28125 8.910156 C 13.769531 11.488281 26.230469 3.75 21.25 19.226562 C 13.769531 21.808594 13.769531 29.546875 13.769531 29.546875 C 11.28125 29.546875 8.785156 32.125 8.785156 34.707031 C 8.785156 39.972656 15.453125 42.617188 23.324219 43.074219 C 23.484375 43.339844 23.707031 43.589844 23.894531 43.84375 C 16.289062 47.242188 16.265625 55.863281 16.265625 57.921875 C 16.265625 63.082031 21.25 63.082031 21.25 63.082031 L 51.15625 63.082031 C 51.15625 63.082031 56.140625 63.082031 56.140625 57.921875 C 56.140625 55.484375 56.121094 43.828125 43.46875 42.570312 C 46.601562 39.6875 48.660156 35.914062 48.660156 32.125 C 48.660156 29.546875 48.410156 23.90625 41.183594 19.226562 C 38.695312 8.910156 46.171875 16.648438 53.644531 11.488281 C 61.121094 6.328125 51.15625 1.171875 46.171875 1.171875 C 41.183594 1.171875 33.710938 8.910156 33.710938 19.226562 L 28.726562 19.226562 C 31.214844 8.910156 26.230469 1.171875 18.753906 1.171875 Z M 18.753906 1.171875 "/></g></svg>
