<svg width="64" height="64" viewBox="0 0 64 64" version="1.1" xmlns:inkscape="http://www.inkscape.org/namespaces/inkscape"><defs><linearGradient id="linear0" gradientUnits="userSpaceOnUse" x1="0" y1="0" x2="0" y2="1" gradientTransform="matrix(65.251353,0,0,41.397934,0.509145,9.968477)"><stop offset="0" style="stop-color:rgb(100%,63.137257%,63.137257%);stop-opacity:1;"/><stop offset="1" style="stop-color:rgb(100%,27.843139%,27.843139%);stop-opacity:1;"/></linearGradient><filter style="color-interpolation-filters:sRGB;" inkscape:label="Diffuse Light" id="filter184" x="-0.0375" y="-0.0375" width="1.075" height="1.075"><feGaussianBlur in="SourceGraphic" stdDeviation="1" result="blur" id="feGaussianBlur174" /><feDiffuseLighting diffuseConstant="1" surfaceScale="10" lighting-color="rgb(255,255,255)" result="diffuse" id="feDiffuseLighting178"><feDistantLight elevation="8" azimuth="235" id="feDistantLight176" /></feDiffuseLighting><feComposite in="diffuse" in2="diffuse" operator="arithmetic" k1="1" result="composite1" id="feComposite180" /><feComposite in="composite1" in2="SourceGraphic" k1="1" operator="arithmetic" k3="1" result="composite2" id="feComposite182" /></filter></defs><g id="surface1" style="filter:url(#filter184)"><path style=" stroke:none;fill-rule:nonzero;fill:url(#linear0);" d="M 12.667969 1.585938 L 12.667969 13.199219 L 1.4375 13.199219 L 1.4375 19.003906 L 14.777344 19.003906 C 11.703125 22.984375 9.859375 28.023438 9.859375 33.523438 C 9.859375 45.40625 18.433594 55.136719 29.507812 56.558594 L 29.507812 62.542969 L 35.109375 62.542969 L 35.109375 56.570312 C 46.21875 55.144531 54.773438 45.371094 54.773438 33.523438 C 54.773438 28.019531 52.929688 22.976562 49.851562 19.003906 L 63.195312 19.003906 L 63.195312 13.199219 L 51.964844 13.199219 L 51.964844 1.585938 Z M 18.542969 19.003906 L 46.089844 19.003906 C 49.714844 22.691406 51.964844 27.820312 51.964844 33.523438 C 51.964844 44.785156 43.207031 53.84375 32.316406 53.84375 C 21.429688 53.84375 12.667969 44.785156 12.667969 33.523438 C 12.667969 27.824219 14.914062 22.691406 18.542969 19.003906 Z M 18.542969 19.003906 "/></g></svg>
