<svg width="64" height="64" viewBox="0 0 64 64" version="1.1" xmlns:inkscape="http://www.inkscape.org/namespaces/inkscape"><defs><linearGradient id="linear0" gradientUnits="userSpaceOnUse" x1="0" y1="0" x2="0" y2="1" gradientTransform="matrix(24,0,0,61.768944,2,1.191332)"><stop offset="0" style="stop-color:rgb(81.960785%,70.980394%,59.215689%);stop-opacity:1;"/><stop offset="1" style="stop-color:rgb(65.098041%,53.725493%,41.568628%);stop-opacity:1;"/></linearGradient><linearGradient id="linear1" gradientUnits="userSpaceOnUse" x1="0" y1="0" x2="0" y2="1" gradientTransform="matrix(38.359375,0,0,45.267316,23.640625,1.191332)"><stop offset="0" style="stop-color:rgb(81.960785%,70.980394%,59.215689%);stop-opacity:1;"/><stop offset="1" style="stop-color:rgb(65.098041%,53.725493%,41.568628%);stop-opacity:1;"/></linearGradient><filter style="color-interpolation-filters:sRGB;" inkscape:label="Diffuse Light" id="filter184" x="-0.0375" y="-0.0375" width="1.075" height="1.075"><feGaussianBlur in="SourceGraphic" stdDeviation="1" result="blur" id="feGaussianBlur174" /><feDiffuseLighting diffuseConstant="1" surfaceScale="10" lighting-color="rgb(255,255,255)" result="diffuse" id="feDiffuseLighting178"><feDistantLight elevation="8" azimuth="235" id="feDistantLight176" /></feDiffuseLighting><feComposite in="diffuse" in2="diffuse" operator="arithmetic" k1="1" result="composite1" id="feComposite180" /><feComposite in="composite1" in2="SourceGraphic" k1="1" operator="arithmetic" k3="1" result="composite2" id="feComposite182" /></filter></defs><g id="surface1" style="filter:url(#filter184)"><path style=" stroke:none;fill-rule:nonzero;fill:url(#linear0);" d="M 13.734375 1.191406 L 14.265625 1.191406 C 20.746094 1.191406 26 6.351562 26 12.71875 L 26 51.429688 C 26 57.800781 20.746094 62.960938 14.265625 62.960938 L 13.734375 62.960938 C 7.253906 62.960938 2 57.800781 2 51.429688 L 2 12.71875 C 2 6.351562 7.253906 1.191406 13.734375 1.191406 Z M 13.734375 1.191406 "/><path style=" stroke:none;fill-rule:nonzero;fill:url(#linear1);" d="M 23.640625 1.191406 C 27.160156 3.933594 29.519531 8.101562 29.519531 12.773438 L 29.519531 16.632812 L 38 16.632812 C 37.71875 12.386719 43 8.914062 46 8.914062 C 48.71875 8.914062 50 8.949219 50 12.773438 L 50 16.632812 L 54.878906 16.632812 C 59.800781 14.320312 62 9.03125 62 6.246094 C 62 3.394531 52.480469 1.191406 47.238281 1.191406 Z M 30 20.492188 L 30 37.132812 C 41.078125 47.402344 54.519531 46.4375 54.519531 46.4375 C 54.519531 46.4375 55.921875 40.570312 46.878906 30.878906 L 37.398438 20.492188 L 30.238281 20.492188 C 30.160156 20.492188 30.078125 20.492188 30 20.492188 Z M 41.921875 30.261719 L 48.640625 36.976562 C 41.441406 37.59375 40.039062 33.660156 41.921875 30.261719 Z M 41.921875 30.261719 "/></g></svg>
