<svg width="64" height="64" viewBox="0 0 64 64" version="1.1" xmlns:inkscape="http://www.inkscape.org/namespaces/inkscape"><defs><linearGradient id="linear0" gradientUnits="userSpaceOnUse" x1="0" y1="0" x2="0" y2="1" gradientTransform="matrix(61.255234,0,0,61.123495,1.204929,1.191721)"><stop offset="0" style="stop-color:rgb(81.960785%,70.980394%,59.215689%);stop-opacity:1;"/><stop offset="1" style="stop-color:rgb(65.098041%,53.725493%,41.568628%);stop-opacity:1;"/></linearGradient><filter style="color-interpolation-filters:sRGB;" inkscape:label="Diffuse Light" id="filter184" x="-0.0375" y="-0.0375" width="1.075" height="1.075"><feGaussianBlur in="SourceGraphic" stdDeviation="1" result="blur" id="feGaussianBlur174" /><feDiffuseLighting diffuseConstant="1" surfaceScale="10" lighting-color="rgb(255,255,255)" result="diffuse" id="feDiffuseLighting178"><feDistantLight elevation="8" azimuth="235" id="feDistantLight176" /></feDiffuseLighting><feComposite in="diffuse" in2="diffuse" operator="arithmetic" k1="1" result="composite1" id="feComposite180" /><feComposite in="composite1" in2="SourceGraphic" k1="1" operator="arithmetic" k3="1" result="composite2" id="feComposite182" /></filter></defs><g id="surface1" style="filter:url(#filter184)"><path style=" stroke:none;fill-rule:nonzero;fill:url(#linear0);" d="M 8.863281 1.191406 C 4.632812 1.191406 1.203125 4.613281 1.203125 8.832031 C 1.203125 12.175781 3.320312 14.957031 6.308594 15.996094 L 6.308594 47.035156 L 1.203125 47.035156 L 1.203125 62.316406 L 16.519531 62.316406 L 16.519531 47.035156 L 11.414062 47.035156 L 11.414062 15.996094 C 13.617188 15.230469 15.273438 13.578125 16.039062 11.378906 L 47.144531 11.378906 L 47.144531 16.472656 L 62.460938 16.472656 L 62.460938 1.191406 L 47.144531 1.191406 L 47.144531 6.285156 L 16.039062 6.285156 C 15 3.300781 12.210938 1.191406 8.863281 1.191406 Z M 8.863281 6.285156 C 10.273438 6.285156 11.414062 7.425781 11.414062 8.832031 C 11.414062 10.238281 10.273438 11.378906 8.863281 11.378906 C 7.449219 11.378906 6.308594 10.238281 6.308594 8.832031 C 6.308594 7.425781 7.449219 6.285156 8.863281 6.285156 Z M 52.25 6.285156 L 57.355469 6.285156 L 57.355469 11.378906 L 52.25 11.378906 Z M 6.308594 52.128906 L 11.414062 52.128906 L 11.414062 57.222656 L 6.308594 57.222656 Z M 6.308594 52.128906 "/></g></svg>
