<svg width="64" height="64" viewBox="0 0 64 64" version="1.1" xmlns:inkscape="http://www.inkscape.org/namespaces/inkscape"><defs><linearGradient id="linear0" gradientUnits="userSpaceOnUse" x1="0" y1="0" x2="0" y2="1" gradientTransform="matrix(64,0,0,64,0,0)"><stop offset="0" style="stop-color:rgb(41.960785%,64.313728%,100%);stop-opacity:1;"/><stop offset="1" style="stop-color:rgb(0%,43.137255%,100%);stop-opacity:1;"/></linearGradient><linearGradient id="linear1" gradientUnits="userSpaceOnUse" x1="0" y1="0" x2="0" y2="1" gradientTransform="matrix(48,0,0,48,8,8)"><stop offset="0" style="stop-color:rgb(41.960785%,64.313728%,100%);stop-opacity:1;"/><stop offset="1" style="stop-color:rgb(0%,43.137255%,100%);stop-opacity:1;"/></linearGradient><linearGradient id="linear2" gradientUnits="userSpaceOnUse" x1="0" y1="0" x2="0" y2="1" gradientTransform="matrix(24,0,0,24,20,20)"><stop offset="0" style="stop-color:rgb(41.960785%,64.313728%,100%);stop-opacity:1;"/><stop offset="1" style="stop-color:rgb(0%,43.137255%,100%);stop-opacity:1;"/></linearGradient><filter style="color-interpolation-filters:sRGB;" inkscape:label="Diffuse Light" id="filter184" x="-0.0375" y="-0.0375" width="1.075" height="1.075"><feGaussianBlur in="SourceGraphic" stdDeviation="1" result="blur" id="feGaussianBlur174" /><feDiffuseLighting diffuseConstant="1" surfaceScale="10" lighting-color="rgb(255,255,255)" result="diffuse" id="feDiffuseLighting178"><feDistantLight elevation="8" azimuth="235" id="feDistantLight176" /></feDiffuseLighting><feComposite in="diffuse" in2="diffuse" operator="arithmetic" k1="1" result="composite1" id="feComposite180" /><feComposite in="composite1" in2="SourceGraphic" k1="1" operator="arithmetic" k3="1" result="composite2" id="feComposite182" /></filter></defs><g id="surface1" style="filter:url(#filter184)"><path style=" stroke:none;fill-rule:nonzero;fill:url(#linear0);" d="M 32 0 C 14.328125 0 0 14.328125 0 32 C 0 49.671875 14.328125 64 32 64 C 49.671875 64 64 49.671875 64 32 C 64 14.328125 49.671875 0 32 0 Z M 32 4 C 47.464844 4 60 16.535156 60 32 C 60 47.464844 47.464844 60 32 60 C 16.535156 60 4 47.464844 4 32 C 4 16.535156 16.535156 4 32 4 Z M 32 4 "/><path style=" stroke:none;fill-rule:nonzero;fill:url(#linear1);" d="M 32 8 C 18.746094 8 8 18.746094 8 32 C 8 45.253906 18.746094 56 32 56 C 45.253906 56 56 45.253906 56 32 C 56 18.746094 45.253906 8 32 8 Z M 32 11 C 43.597656 11 53 20.402344 53 32 C 53 43.597656 43.597656 53 32 53 C 20.402344 53 11 43.597656 11 32 C 11 20.402344 20.402344 11 32 11 Z M 32 11 "/><path style=" stroke:none;fill-rule:nonzero;fill:url(#linear2);" d="M 32 20 C 25.371094 20 20 25.371094 20 32 C 20 38.628906 25.371094 44 32 44 C 38.628906 44 44 38.628906 44 32 C 44 25.371094 38.628906 20 32 20 Z M 31.304688 31.988281 C 37.105469 31.988281 42.5 26.199219 42.5 32 C 42.5 37.796875 37.800781 42.5 32 42.5 C 26.199219 42.5 21.5 37.796875 21.5 32 C 21.5 26.199219 25.507812 31.988281 31.304688 31.988281 Z M 31.304688 31.988281 "/></g></svg>
