<svg width="64" height="64" viewBox="0 0 64 64" version="1.1" xmlns:inkscape="http://www.inkscape.org/namespaces/inkscape"><defs><linearGradient id="linear0" gradientUnits="userSpaceOnUse" x1="0" y1="0" x2="0" y2="1" gradientTransform="matrix(70.49928,0,0,70.438281,-7.244116,0.440497)"><stop offset="0" style="stop-color:rgb(100%,73.333335%,0%);stop-opacity:0.454902;"/><stop offset="1" style="stop-color:rgb(70.19608%,51.372552%,0%);stop-opacity:0.454902;"/></linearGradient><linearGradient id="linear1" gradientUnits="userSpaceOnUse" x1="0" y1="0" x2="0" y2="1" gradientTransform="matrix(70.49928,0,0,70.438281,-7.244116,0.440497)"><stop offset="0" style="stop-color:rgb(100%,73.333335%,0%);stop-opacity:1;"/><stop offset="1" style="stop-color:rgb(70.19608%,51.372552%,0%);stop-opacity:1;"/></linearGradient><filter style="color-interpolation-filters:sRGB;" inkscape:label="Diffuse Light" id="filter184" x="-0.0375" y="-0.0375" width="1.075" height="1.075"><feGaussianBlur in="SourceGraphic" stdDeviation="1" result="blur" id="feGaussianBlur174" /><feDiffuseLighting diffuseConstant="1" surfaceScale="10" lighting-color="rgb(255,255,255)" result="diffuse" id="feDiffuseLighting178"><feDistantLight elevation="8" azimuth="235" id="feDistantLight176" /></feDiffuseLighting><feComposite in="diffuse" in2="diffuse" operator="arithmetic" k1="1" result="composite1" id="feComposite180" /><feComposite in="composite1" in2="SourceGraphic" k1="1" operator="arithmetic" k3="1" result="composite2" id="feComposite182" /></filter></defs><g id="surface1" style="filter:url(#filter184)"><path style=" stroke:none;fill-rule:nonzero;fill:url(#linear0);" d="M 2.582031 61.320312 C 9.796875 68.394531 56.378906 36.269531 56.378906 36.269531 L 27.746094 7.785156 C 27.746094 7.785156 -4.628906 54.257812 2.582031 61.332031 Z M 2.582031 61.320312 "/><path style=" stroke:none;fill-rule:nonzero;fill:url(#linear1);" d="M 27.753906 7.785156 C 19.847656 15.652344 19.847656 28.421875 27.753906 36.289062 C 35.664062 44.164062 48.492188 44.164062 56.398438 36.289062 C 64.308594 28.421875 64.308594 15.652344 56.398438 7.785156 C 48.492188 -0.0898438 35.664062 -0.0898438 27.753906 7.785156 Z M 27.753906 7.785156 "/></g></svg>
