<svg width="64" height="64" viewBox="0 0 64 64" version="1.1" xmlns:inkscape="http://www.inkscape.org/namespaces/inkscape"><defs><linearGradient id="linear0" gradientUnits="userSpaceOnUse" x1="0" y1="0" x2="0" y2="1" gradientTransform="matrix(64,0,0,64,0,0)"><stop offset="0" style="stop-color:rgb(82.352942%,61.176473%,100%);stop-opacity:1;"/><stop offset="1" style="stop-color:rgb(66.666669%,0%,100%);stop-opacity:1;"/></linearGradient><filter style="color-interpolation-filters:sRGB;" inkscape:label="Diffuse Light" id="filter184" x="-0.0375" y="-0.0375" width="1.075" height="1.075"><feGaussianBlur in="SourceGraphic" stdDeviation="1" result="blur" id="feGaussianBlur174" /><feDiffuseLighting diffuseConstant="1" surfaceScale="10" lighting-color="rgb(255,255,255)" result="diffuse" id="feDiffuseLighting178"><feDistantLight elevation="8" azimuth="235" id="feDistantLight176" /></feDiffuseLighting><feComposite in="diffuse" in2="diffuse" operator="arithmetic" k1="1" result="composite1" id="feComposite180" /><feComposite in="composite1" in2="SourceGraphic" k1="1" operator="arithmetic" k3="1" result="composite2" id="feComposite182" /></filter></defs><g id="surface1" style="filter:url(#filter184)"><path style=" stroke:none;fill-rule:evenodd;fill:url(#linear0);" d="M 19.957031 52 L 59.957031 52 L 59.957031 64 L 19.957031 64 Z M 22 35.210938 C 22 29.691406 26.480469 25.210938 32 25.210938 C 37.519531 25.210938 42 29.691406 42 35.210938 C 42 40.730469 37.519531 45.210938 32 45.210938 C 26.480469 45.210938 22 40.730469 22 35.210938 Z M 0 0 L 15.207031 0 L 15.207031 15.207031 L 0 15.207031 Z M 29.789062 0 L 44.992188 0 L 44.992188 15.207031 L 29.789062 15.207031 Z M 48.792969 0 L 64 0 L 64 15.207031 L 48.792969 15.207031 Z M 48.792969 0 "/></g></svg>
