<svg width="64" height="64" viewBox="0 0 64 64" version="1.1" xmlns:inkscape="http://www.inkscape.org/namespaces/inkscape"><defs><linearGradient id="linear0" gradientUnits="userSpaceOnUse" x1="0" y1="0" x2="0" y2="1" gradientTransform="matrix(34.53125,0,0,64,14.734375,0)"><stop offset="0" style="stop-color:rgb(100%,63.137257%,63.137257%);stop-opacity:1;"/><stop offset="1" style="stop-color:rgb(100%,27.843139%,27.843139%);stop-opacity:1;"/></linearGradient><filter style="color-interpolation-filters:sRGB;" inkscape:label="Diffuse Light" id="filter184" x="-0.0375" y="-0.0375" width="1.075" height="1.075"><feGaussianBlur in="SourceGraphic" stdDeviation="1" result="blur" id="feGaussianBlur174" /><feDiffuseLighting diffuseConstant="1" surfaceScale="10" lighting-color="rgb(255,255,255)" result="diffuse" id="feDiffuseLighting178"><feDistantLight elevation="8" azimuth="235" id="feDistantLight176" /></feDiffuseLighting><feComposite in="diffuse" in2="diffuse" operator="arithmetic" k1="1" result="composite1" id="feComposite180" /><feComposite in="composite1" in2="SourceGraphic" k1="1" operator="arithmetic" k3="1" result="composite2" id="feComposite182" /></filter></defs><g id="surface1" style="filter:url(#filter184)"><path style=" stroke:none;fill-rule:evenodd;fill:url(#linear0);" d="M 37.308594 64 L 33.5 64 L 33.5 59.964844 L 22.945312 59.964844 L 22.945312 57.484375 L 33.269531 43.8125 L 37.308594 43.8125 L 37.308594 56.355469 L 39.757812 56.355469 L 39.757812 59.964844 L 37.308594 59.964844 Z M 28.019531 56.355469 L 33.5 56.355469 L 33.5 48.949219 Z M 49.265625 32.8125 L 14.734375 32.8125 L 14.734375 29.523438 L 49.265625 29.523438 Z M 33.976562 20.1875 L 30.085938 20.1875 L 30.085938 5.246094 L 26.996094 5.246094 L 26.996094 2.164062 C 29.09375 2.164062 30.378906 1.441406 30.859375 0 L 33.976562 0 Z M 33.976562 20.1875 "/></g></svg>
