<svg width="64" height="64" viewBox="0 0 64 64" version="1.1" xmlns:inkscape="http://www.inkscape.org/namespaces/inkscape"><defs><linearGradient id="linear0" gradientUnits="userSpaceOnUse" x1="0" y1="0" x2="0" y2="1" gradientTransform="matrix(64,0,0,56.691406,0,3.199219)"><stop offset="0" style="stop-color:rgb(0%,96.078432%,86.274511%);stop-opacity:1;"/><stop offset="1" style="stop-color:rgb(0%,54.901963%,49.411765%);stop-opacity:1;"/></linearGradient><filter style="color-interpolation-filters:sRGB;" inkscape:label="Diffuse Light" id="filter184" x="-0.0375" y="-0.0375" width="1.075" height="1.075"><feGaussianBlur in="SourceGraphic" stdDeviation="1" result="blur" id="feGaussianBlur174" /><feDiffuseLighting diffuseConstant="1" surfaceScale="10" lighting-color="rgb(255,255,255)" result="diffuse" id="feDiffuseLighting178"><feDistantLight elevation="8" azimuth="235" id="feDistantLight176" /></feDiffuseLighting><feComposite in="diffuse" in2="diffuse" operator="arithmetic" k1="1" result="composite1" id="feComposite180" /><feComposite in="composite1" in2="SourceGraphic" k1="1" operator="arithmetic" k3="1" result="composite2" id="feComposite182" /></filter></defs><g id="surface1" style="filter:url(#filter184)"><path style=" stroke:none;fill-rule:evenodd;fill:url(#linear0);" d="M 6.398438 28.800781 C 6.398438 16 12.800781 3.199219 32 3.199219 C 51.199219 3.199219 57.601562 16 57.601562 28.800781 L 57.601562 54.398438 C 40.570312 61.738281 23.46875 61.699219 6.398438 54.398438 L 6.398438 48 L 3.199219 48 C 1.28125 48 0 46.71875 0 44.800781 L 0 32 C 0 30.078125 1.28125 28.800781 3.199219 28.800781 Z M 50.667969 38.398438 C 51.019531 37.375 51.199219 36.304688 51.199219 35.199219 L 51.199219 28.800781 C 51.199219 23.039062 46.398438 16 32 16 C 17.601562 16 12.800781 22.71875 12.800781 28.800781 L 12.800781 35.199219 C 12.800781 42.238281 20.160156 48 32 48 C 37.429688 48 41.914062 46.789062 45.179688 44.800781 L 36.800781 44.800781 C 34.238281 44.800781 32 42.558594 32 40 C 32 37.441406 34.238281 35.199219 36.800781 35.199219 C 38.71875 35.199219 40.640625 36.480469 41.28125 38.398438 Z M 57.601562 48 L 60.800781 48 C 62.71875 48 64 46.71875 64 44.800781 L 64 32 C 64 30.078125 62.71875 28.800781 60.800781 28.800781 L 57.601562 28.800781 Z M 57.601562 48 "/></g></svg>
