<svg width="64" height="64" viewBox="0 0 64 64" version="1.1" xmlns:inkscape="http://www.inkscape.org/namespaces/inkscape"><defs><linearGradient id="linear0" gradientUnits="userSpaceOnUse" x1="0" y1="0" x2="0" y2="1" gradientTransform="matrix(63.715225,0,0,62.936607,0.246473,2.983766)"><stop offset="0" style="stop-color:rgb(82.352942%,61.176473%,100%);stop-opacity:1;"/><stop offset="1" style="stop-color:rgb(66.666669%,0%,100%);stop-opacity:1;"/></linearGradient><filter style="color-interpolation-filters:sRGB;" inkscape:label="Diffuse Light" id="filter184" x="-0.0375" y="-0.0375" width="1.075" height="1.075"><feGaussianBlur in="SourceGraphic" stdDeviation="1" result="blur" id="feGaussianBlur174" /><feDiffuseLighting diffuseConstant="1" surfaceScale="10" lighting-color="rgb(255,255,255)" result="diffuse" id="feDiffuseLighting178"><feDistantLight elevation="8" azimuth="235" id="feDistantLight176" /></feDiffuseLighting><feComposite in="diffuse" in2="diffuse" operator="arithmetic" k1="1" result="composite1" id="feComposite180" /><feComposite in="composite1" in2="SourceGraphic" k1="1" operator="arithmetic" k3="1" result="composite2" id="feComposite182" /></filter></defs><g id="surface1" style="filter:url(#filter184)"><path style=" stroke:none;fill-rule:nonzero;fill:url(#linear0);" d="M 32.167969 2.007812 C 27.59375 2.007812 23.859375 5.683594 23.859375 10.183594 C 23.859375 14.675781 27.59375 18.273438 32.167969 18.273438 C 36.746094 18.273438 40.480469 14.675781 40.480469 10.183594 C 40.480469 5.683594 36.746094 2.007812 32.167969 2.007812 M 32.167969 23.664062 C 27.59375 23.664062 23.859375 27.34375 23.859375 31.835938 C 23.859375 36.335938 27.59375 39.925781 32.167969 39.925781 C 36.746094 39.925781 40.480469 36.335938 40.480469 31.835938 C 40.480469 27.34375 36.746094 23.664062 32.167969 23.664062 M 10.148438 45.316406 C 5.574219 45.316406 1.84375 48.996094 1.84375 53.492188 C 1.84375 57.992188 5.574219 61.671875 10.148438 61.671875 C 14.71875 61.671875 18.367188 57.992188 18.367188 53.492188 C 18.367188 48.996094 14.71875 45.316406 10.148438 45.316406 M 32.167969 45.316406 C 27.59375 45.316406 23.859375 48.996094 23.859375 53.492188 C 23.859375 57.992188 27.59375 61.671875 32.167969 61.671875 C 36.746094 61.671875 40.480469 57.992188 40.480469 53.492188 C 40.480469 48.996094 36.746094 45.316406 32.167969 45.316406 M 54.1875 45.316406 C 49.617188 45.316406 45.964844 48.996094 45.964844 53.492188 C 45.964844 57.992188 49.617188 61.671875 54.1875 61.671875 C 58.761719 61.671875 62.496094 57.992188 62.496094 53.492188 C 62.496094 48.996094 58.761719 45.316406 54.1875 45.316406 "/></g></svg>
