<svg width="64" height="64" viewBox="0 0 64 64" version="1.1" xmlns:inkscape="http://www.inkscape.org/namespaces/inkscape"><defs><linearGradient id="linear0" gradientUnits="userSpaceOnUse" x1="0" y1="0" x2="0" y2="1" gradientTransform="matrix(64,0,0,61.085937,0,1.457031)"><stop offset="0" style="stop-color:rgb(100%,56.862748%,82.745099%);stop-opacity:1;"/><stop offset="1" style="stop-color:rgb(100%,0%,60.000002%);stop-opacity:1;"/></linearGradient><filter style="color-interpolation-filters:sRGB;" inkscape:label="Diffuse Light" id="filter184" x="-0.0375" y="-0.0375" width="1.075" height="1.075"><feGaussianBlur in="SourceGraphic" stdDeviation="1" result="blur" id="feGaussianBlur174" /><feDiffuseLighting diffuseConstant="1" surfaceScale="10" lighting-color="rgb(255,255,255)" result="diffuse" id="feDiffuseLighting178"><feDistantLight elevation="8" azimuth="235" id="feDistantLight176" /></feDiffuseLighting><feComposite in="diffuse" in2="diffuse" operator="arithmetic" k1="1" result="composite1" id="feComposite180" /><feComposite in="composite1" in2="SourceGraphic" k1="1" operator="arithmetic" k3="1" result="composite2" id="feComposite182" /></filter></defs><g id="surface1" style="filter:url(#filter184)"><path style=" stroke:none;fill-rule:evenodd;fill:url(#linear0);" d="M 0 1.457031 L 0 62.542969 L 11.636719 62.542969 L 11.636719 48 L 23.273438 62.542969 L 37.820312 62.542969 L 17.457031 32 L 37.820312 1.457031 L 23.273438 1.457031 L 11.636719 16 L 11.636719 1.457031 Z M 49.457031 21.820312 L 61.09375 21.820312 L 61.09375 62.542969 L 49.457031 62.542969 Z M 46.542969 10.183594 C 46.542969 5.363281 50.457031 1.457031 55.273438 1.457031 C 60.089844 1.457031 64 5.363281 64 10.183594 C 64 15 60.089844 18.90625 55.273438 18.90625 C 50.457031 18.90625 46.542969 15 46.542969 10.183594 Z M 46.542969 10.183594 "/></g></svg>
