<svg width="64" height="64" viewBox="0 0 64 64" version="1.1" xmlns:inkscape="http://www.inkscape.org/namespaces/inkscape"><defs><linearGradient id="linear0" gradientUnits="userSpaceOnUse" x1="0" y1="0" x2="0" y2="1" gradientTransform="matrix(107.491612,0,0,114.545921,-21.418549,-23.173278)"><stop offset="0" style="stop-color:rgb(61.176473%,69.803923%,85.09804%);stop-opacity:1;"/><stop offset="1" style="stop-color:rgb(44.313726%,52.156866%,65.882355%);stop-opacity:1;"/></linearGradient><linearGradient id="linear1" gradientUnits="userSpaceOnUse" x1="0" y1="0" x2="0" y2="1" gradientTransform="matrix(107.491612,0,0,114.545921,-21.418549,-23.173278)"><stop offset="0" style="stop-color:rgb(61.176473%,69.803923%,85.09804%);stop-opacity:1;"/><stop offset="1" style="stop-color:rgb(44.313726%,52.156866%,65.882355%);stop-opacity:1;"/></linearGradient><filter style="color-interpolation-filters:sRGB;" inkscape:label="Diffuse Light" id="filter184" x="-0.0375" y="-0.0375" width="1.075" height="1.075"><feGaussianBlur in="SourceGraphic" stdDeviation="1" result="blur" id="feGaussianBlur174" /><feDiffuseLighting diffuseConstant="1" surfaceScale="10" lighting-color="rgb(255,255,255)" result="diffuse" id="feDiffuseLighting178"><feDistantLight elevation="8" azimuth="235" id="feDistantLight176" /></feDiffuseLighting><feComposite in="diffuse" in2="diffuse" operator="arithmetic" k1="1" result="composite1" id="feComposite180" /><feComposite in="composite1" in2="SourceGraphic" k1="1" operator="arithmetic" k3="1" result="composite2" id="feComposite182" /></filter></defs><g id="surface1" style="filter:url(#filter184)"><path style=" stroke:none;fill-rule:nonzero;fill:url(#linear0);" d="M 1.015625 4.886719 L 1.015625 62.90625 L 14.660156 62.90625 L 14.660156 47.949219 L 19.175781 41.152344 L 30.460938 62.90625 L 46.753906 62.90625 L 29.378906 30.722656 L 46.363281 4.886719 L 30.460938 4.886719 L 15.34375 28.34375 L 14.660156 28.34375 L 14.660156 4.886719 Z M 63.039062 18.589844 L 49.601562 18.589844 L 49.601562 62.90625 L 63.039062 62.90625 Z M 63.039062 18.589844 "/><path style=" stroke:none;fill-rule:nonzero;fill:url(#linear1);" d="M 63.039062 8.617188 C 63.039062 12.902344 60.03125 16.375 56.320312 16.375 C 52.609375 16.375 49.601562 12.902344 49.601562 8.617188 C 49.601562 4.332031 52.609375 0.863281 56.320312 0.863281 C 60.03125 0.863281 63.039062 4.332031 63.039062 8.617188 Z M 63.039062 8.617188 "/></g></svg>
