<svg width="64" height="64" viewBox="0 0 64 64" version="1.1" xmlns:inkscape="http://www.inkscape.org/namespaces/inkscape"><defs><linearGradient id="linear0" gradientUnits="userSpaceOnUse" x1="0" y1="0" x2="0" y2="1" gradientTransform="matrix(61.866663,0,0,39.071551,1.770468,11.545351)"><stop offset="0" style="stop-color:rgb(100%,63.137257%,63.137257%);stop-opacity:1;"/><stop offset="1" style="stop-color:rgb(100%,27.843139%,27.843139%);stop-opacity:1;"/></linearGradient><linearGradient id="linear1" gradientUnits="userSpaceOnUse" x1="0" y1="0" x2="0" y2="1" gradientTransform="matrix(61.866663,0,0,39.071551,1.770468,11.545351)"><stop offset="0" style="stop-color:rgb(100%,63.137257%,63.137257%);stop-opacity:1;"/><stop offset="1" style="stop-color:rgb(100%,27.843139%,27.843139%);stop-opacity:1;"/></linearGradient><linearGradient id="linear2" gradientUnits="userSpaceOnUse" x1="0" y1="0" x2="0" y2="1" gradientTransform="matrix(61.866663,0,0,39.071551,1.770468,11.545351)"><stop offset="0" style="stop-color:rgb(100%,63.137257%,63.137257%);stop-opacity:1;"/><stop offset="1" style="stop-color:rgb(100%,27.843139%,27.843139%);stop-opacity:1;"/></linearGradient><filter style="color-interpolation-filters:sRGB;" inkscape:label="Diffuse Light" id="filter184" x="-0.0375" y="-0.0375" width="1.075" height="1.075"><feGaussianBlur in="SourceGraphic" stdDeviation="1" result="blur" id="feGaussianBlur174" /><feDiffuseLighting diffuseConstant="1" surfaceScale="10" lighting-color="rgb(255,255,255)" result="diffuse" id="feDiffuseLighting178"><feDistantLight elevation="8" azimuth="235" id="feDistantLight176" /></feDiffuseLighting><feComposite in="diffuse" in2="diffuse" operator="arithmetic" k1="1" result="composite1" id="feComposite180" /><feComposite in="composite1" in2="SourceGraphic" k1="1" operator="arithmetic" k3="1" result="composite2" id="feComposite182" /></filter></defs><g id="surface1" style="filter:url(#filter184)"><path style=" stroke:none;fill-rule:nonzero;fill:url(#linear0);" d="M 32 1.160156 C 14.945312 1.160156 1.125 15.054688 1.125 32.1875 C 1.125 49.324219 14.945312 63.214844 32 63.214844 C 49.054688 63.214844 62.882812 49.324219 62.882812 32.1875 C 62.882812 15.054688 49.054688 1.160156 32 1.160156 Z M 32 13.09375 C 42.496094 13.09375 51.003906 21.644531 51.003906 32.1875 C 51.003906 42.730469 42.496094 51.28125 32 51.28125 C 21.503906 51.28125 13 42.730469 13 32.1875 C 13 21.644531 21.503906 13.09375 32 13.09375 Z M 32 13.09375 "/><path style=" stroke:none;fill-rule:nonzero;fill:url(#linear1);" d="M 30.746094 32.636719 L 39.582031 32.636719 L 39.582031 35.535156 L 30.746094 35.535156 Z M 30.746094 32.636719 "/><path style=" stroke:none;fill-rule:nonzero;fill:url(#linear2);" d="M 21.152344 28.5625 L 26.308594 33.644531 L 21.152344 38.722656 L 18.941406 36.542969 L 21.890625 33.644531 L 18.941406 30.742188 Z M 21.152344 28.5625 "/></g></svg>
