<svg width="64" height="64" viewBox="0 0 64 64" version="1.1" xmlns:inkscape="http://www.inkscape.org/namespaces/inkscape"><defs><linearGradient id="linear0" gradientUnits="userSpaceOnUse" x1="0" y1="0" x2="0" y2="1" gradientTransform="matrix(61.811776,0,0,68.350329,2.811255,-6.597193)"><stop offset="0" style="stop-color:rgb(75.686276%,77.64706%,83.92157%);stop-opacity:1;"/><stop offset="1" style="stop-color:rgb(43.529412%,45.09804%,50.196081%);stop-opacity:1;"/></linearGradient><linearGradient id="linear1" gradientUnits="userSpaceOnUse" x1="0" y1="0" x2="0" y2="1" gradientTransform="matrix(61.811776,0,0,68.350329,2.811255,-6.597193)"><stop offset="0" style="stop-color:rgb(75.686276%,77.64706%,83.92157%);stop-opacity:1;"/><stop offset="1" style="stop-color:rgb(43.529412%,45.09804%,50.196081%);stop-opacity:1;"/></linearGradient><filter style="color-interpolation-filters:sRGB;" inkscape:label="Diffuse Light" id="filter184" x="-0.0375" y="-0.0375" width="1.075" height="1.075"><feGaussianBlur in="SourceGraphic" stdDeviation="1" result="blur" id="feGaussianBlur174" /><feDiffuseLighting diffuseConstant="1" surfaceScale="10" lighting-color="rgb(255,255,255)" result="diffuse" id="feDiffuseLighting178"><feDistantLight elevation="8" azimuth="235" id="feDistantLight176" /></feDiffuseLighting><feComposite in="diffuse" in2="diffuse" operator="arithmetic" k1="1" result="composite1" id="feComposite180" /><feComposite in="composite1" in2="SourceGraphic" k1="1" operator="arithmetic" k3="1" result="composite2" id="feComposite182" /></filter></defs><g id="surface1" style="filter:url(#filter184)"><path style=" stroke:none;fill-rule:nonzero;fill:url(#linear0);" d="M 20.59375 18.042969 L 25.371094 18.042969 C 27.785156 18.042969 29.742188 20.203125 29.742188 22.878906 L 29.742188 28.089844 C 29.742188 30.757812 27.785156 32.917969 25.371094 32.917969 L 20.59375 32.917969 C 18.179688 32.917969 16.226562 30.757812 16.226562 28.089844 L 16.226562 22.878906 C 16.226562 20.203125 18.179688 18.042969 20.59375 18.042969 Z M 20.59375 18.042969 "/><path style=" stroke:none;fill-rule:nonzero;fill:url(#linear1);" d="M 4.664062 37.171875 L 58.679688 37.171875 C 61.09375 37.171875 63.050781 39.335938 63.050781 42.011719 L 63.050781 47.222656 C 63.050781 49.890625 61.09375 52.050781 58.679688 52.050781 L 4.664062 52.050781 C 2.25 52.050781 0.292969 49.890625 0.292969 47.222656 L 0.292969 42.011719 C 0.292969 39.335938 2.25 37.171875 4.664062 37.171875 Z M 4.664062 37.171875 "/></g></svg>
