<svg width="64" height="64" viewBox="0 0 64 64" version="1.1" xmlns:inkscape="http://www.inkscape.org/namespaces/inkscape"><defs><linearGradient id="linear0" gradientUnits="userSpaceOnUse" x1="0" y1="0" x2="0" y2="1" gradientTransform="matrix(86.448375,0,0,86.345301,-10.877159,-11.284728)"><stop offset="0" style="stop-color:rgb(100%,63.137257%,63.137257%);stop-opacity:1;"/><stop offset="1" style="stop-color:rgb(100%,27.843139%,27.843139%);stop-opacity:1;"/></linearGradient><filter style="color-interpolation-filters:sRGB;" inkscape:label="Diffuse Light" id="filter184" x="-0.0375" y="-0.0375" width="1.075" height="1.075"><feGaussianBlur in="SourceGraphic" stdDeviation="1" result="blur" id="feGaussianBlur174" /><feDiffuseLighting diffuseConstant="1" surfaceScale="10" lighting-color="rgb(255,255,255)" result="diffuse" id="feDiffuseLighting178"><feDistantLight elevation="8" azimuth="235" id="feDistantLight176" /></feDiffuseLighting><feComposite in="diffuse" in2="diffuse" operator="arithmetic" k1="1" result="composite1" id="feComposite180" /><feComposite in="composite1" in2="SourceGraphic" k1="1" operator="arithmetic" k3="1" result="composite2" id="feComposite182" /></filter></defs><g id="surface1" style="filter:url(#filter184)"><path style=" stroke:none;fill-rule:nonzero;fill:url(#linear0);" d="M 2.464844 1.765625 C 2.136719 1.765625 1.878906 2.019531 1.878906 2.351562 L 1.878906 29.226562 L 29.488281 29.226562 C 29.476562 20.070312 29.488281 10.914062 29.488281 1.765625 L 2.464844 1.765625 M 35.378906 1.765625 L 35.378906 29.226562 C 44.582031 29.207031 53.792969 29.207031 62.992188 29.214844 L 62.992188 2.351562 C 62.992188 2.019531 62.738281 1.765625 62.40625 1.765625 L 35.378906 1.765625 M 29.488281 35.085938 C 20.292969 35.105469 11.082031 35.105469 1.878906 35.09375 L 1.878906 61.960938 C 1.878906 62.28125 2.136719 62.542969 2.464844 62.542969 L 29.488281 62.542969 L 29.488281 35.085938 M 35.378906 35.085938 C 35.398438 44.234375 35.386719 53.390625 35.378906 62.542969 L 62.40625 62.542969 C 62.738281 62.542969 62.992188 62.28125 62.992188 61.960938 L 62.992188 35.085938 L 35.378906 35.085938 "/></g></svg>
