<svg width="64" height="64" viewBox="0 0 64 64" version="1.1" xmlns:inkscape="http://www.inkscape.org/namespaces/inkscape"><defs><linearGradient id="linear0" gradientUnits="userSpaceOnUse" x1="0" y1="0" x2="0" y2="1" gradientTransform="matrix(65.770306,0,0,60.793548,-0.649971,4.314978)"><stop offset="0" style="stop-color:rgb(75.686276%,77.64706%,83.92157%);stop-opacity:1;"/><stop offset="1" style="stop-color:rgb(43.529412%,45.09804%,50.196081%);stop-opacity:1;"/></linearGradient><filter style="color-interpolation-filters:sRGB;" inkscape:label="Diffuse Light" id="filter184" x="-0.0375" y="-0.0375" width="1.075" height="1.075"><feGaussianBlur in="SourceGraphic" stdDeviation="1" result="blur" id="feGaussianBlur174" /><feDiffuseLighting diffuseConstant="1" surfaceScale="10" lighting-color="rgb(255,255,255)" result="diffuse" id="feDiffuseLighting178"><feDistantLight elevation="8" azimuth="235" id="feDistantLight176" /></feDiffuseLighting><feComposite in="diffuse" in2="diffuse" operator="arithmetic" k1="1" result="composite1" id="feComposite180" /><feComposite in="composite1" in2="SourceGraphic" k1="1" operator="arithmetic" k3="1" result="composite2" id="feComposite182" /></filter></defs><g id="surface1" style="filter:url(#filter184)"><path style=" stroke:none;fill-rule:nonzero;fill:url(#linear0);" d="M 31.667969 0.320312 C 25.140625 0.320312 13.394531 17.972656 13.394531 27.957031 L 13.394531 50.785156 C 13.394531 60.765625 20.820312 62.796875 31.667969 62.796875 C 42.511719 62.796875 49.945312 60.765625 49.945312 50.785156 L 49.945312 27.957031 C 49.945312 17.972656 38.199219 0.320312 31.667969 0.320312 Z M 31.667969 41.171875 C 34.558594 41.171875 36.890625 43.324219 36.890625 45.976562 C 36.890625 48.632812 34.558594 50.785156 31.667969 50.785156 C 28.785156 50.785156 26.449219 48.632812 26.449219 45.976562 C 26.449219 43.324219 28.785156 41.171875 31.667969 41.171875 Z M 31.667969 41.171875 "/></g></svg>
