<svg width="64" height="64" viewBox="0 0 64 64" version="1.1" xmlns:inkscape="http://www.inkscape.org/namespaces/inkscape"><defs><linearGradient id="linear0" gradientUnits="userSpaceOnUse" x1="0" y1="0" x2="0" y2="1" gradientTransform="matrix(64,0,0,64,0,0)"><stop offset="0" style="stop-color:rgb(92.941177%,83.529413%,72.549021%);stop-opacity:1;"/><stop offset="1" style="stop-color:rgb(81.960785%,71.372551%,59.215689%);stop-opacity:1;"/></linearGradient><filter style="color-interpolation-filters:sRGB;" inkscape:label="Diffuse Light" id="filter184" x="-0.0375" y="-0.0375" width="1.075" height="1.075"><feGaussianBlur in="SourceGraphic" stdDeviation="1" result="blur" id="feGaussianBlur174" /><feDiffuseLighting diffuseConstant="1" surfaceScale="10" lighting-color="rgb(255,255,255)" result="diffuse" id="feDiffuseLighting178"><feDistantLight elevation="8" azimuth="235" id="feDistantLight176" /></feDiffuseLighting><feComposite in="diffuse" in2="diffuse" operator="arithmetic" k1="1" result="composite1" id="feComposite180" /><feComposite in="composite1" in2="SourceGraphic" k1="1" operator="arithmetic" k3="1" result="composite2" id="feComposite182" /></filter></defs><g id="surface1" style="filter:url(#filter184)"><path style=" stroke:none;fill-rule:nonzero;fill:url(#linear0);" d="M 31.9375 0 C 30.898438 0.015625 29.90625 0.4375 29.171875 1.171875 L 20 10.34375 L 20 38.34375 L 46 12.34375 L 34.828125 1.171875 C 34.0625 0.40625 33.019531 -0.015625 31.9375 0 Z M 51.65625 18 L 37.65625 32 L 51.65625 46 L 62.828125 34.828125 C 64.390625 33.265625 64.390625 30.734375 62.828125 29.171875 Z M 12 18.34375 L 1.171875 29.171875 C -0.390625 30.734375 -0.390625 33.265625 1.171875 34.828125 L 12 45.65625 Z M 32 37.65625 L 18 51.65625 L 29.171875 62.828125 C 30.734375 64.390625 33.265625 64.390625 34.828125 62.828125 L 46 51.65625 Z M 32 37.65625 "/></g></svg>
