<svg width="64" height="64" viewBox="0 0 64 64" version="1.1" xmlns:inkscape="http://www.inkscape.org/namespaces/inkscape"><defs><linearGradient id="linear0" gradientUnits="userSpaceOnUse" x1="0" y1="0" x2="0" y2="1" gradientTransform="matrix(64,0,0,63.996094,0.03125,0.160156)"><stop offset="0" style="stop-color:rgb(100%,56.862748%,82.745099%);stop-opacity:1;"/><stop offset="1" style="stop-color:rgb(100%,0%,60.000002%);stop-opacity:1;"/></linearGradient><filter style="color-interpolation-filters:sRGB;" inkscape:label="Diffuse Light" id="filter184" x="-0.0375" y="-0.0375" width="1.075" height="1.075"><feGaussianBlur in="SourceGraphic" stdDeviation="1" result="blur" id="feGaussianBlur174" /><feDiffuseLighting diffuseConstant="1" surfaceScale="10" lighting-color="rgb(255,255,255)" result="diffuse" id="feDiffuseLighting178"><feDistantLight elevation="8" azimuth="235" id="feDistantLight176" /></feDiffuseLighting><feComposite in="diffuse" in2="diffuse" operator="arithmetic" k1="1" result="composite1" id="feComposite180" /><feComposite in="composite1" in2="SourceGraphic" k1="1" operator="arithmetic" k3="1" result="composite2" id="feComposite182" /></filter></defs><g id="surface1" style="filter:url(#filter184)"><path style=" stroke:none;fill-rule:nonzero;fill:url(#linear0);" d="M 32.84375 0.171875 C 21.105469 -0.152344 10.136719 5.992188 4.277344 16.167969 C -4.496094 31.433594 0.757812 51.042969 16.023438 59.867188 C 31.335938 68.6875 50.941406 63.476562 59.761719 48.210938 C 68.582031 32.945312 63.28125 13.335938 48.015625 4.464844 C 43.398438 1.785156 38.179688 0.308594 32.84375 0.171875 Z M 32.019531 4.742188 C 47.164062 4.742188 59.441406 17.019531 59.441406 32.167969 C 59.441406 47.3125 47.164062 59.589844 32.019531 59.589844 C 16.875 59.589844 4.597656 47.3125 4.597656 32.167969 C 4.597656 17.019531 16.875 4.742188 32.019531 4.742188 Z M 32.019531 4.742188 "/></g></svg>
