<svg width="64" height="64" viewBox="0 0 64 64" version="1.1" xmlns:inkscape="http://www.inkscape.org/namespaces/inkscape"><defs><linearGradient id="linear0" gradientUnits="userSpaceOnUse" x1="0" y1="0" x2="0" y2="1" gradientTransform="matrix(60.604053,0,0,63.335896,2.860639,3.371329)"><stop offset="0" style="stop-color:rgb(0%,96.078432%,86.274511%);stop-opacity:1;"/><stop offset="1" style="stop-color:rgb(0%,54.901963%,49.411765%);stop-opacity:1;"/></linearGradient><linearGradient id="linear1" gradientUnits="userSpaceOnUse" x1="0" y1="0" x2="0" y2="1" gradientTransform="matrix(60.604053,0,0,63.335896,2.860639,3.371329)"><stop offset="0" style="stop-color:rgb(0%,96.078432%,86.274511%);stop-opacity:1;"/><stop offset="1" style="stop-color:rgb(0%,54.901963%,49.411765%);stop-opacity:1;"/></linearGradient><linearGradient id="linear2" gradientUnits="userSpaceOnUse" x1="0" y1="0" x2="0" y2="1" gradientTransform="matrix(60.604053,0,0,63.335896,2.860639,3.371329)"><stop offset="0" style="stop-color:rgb(0%,96.078432%,86.274511%);stop-opacity:1;"/><stop offset="1" style="stop-color:rgb(0%,54.901963%,49.411765%);stop-opacity:1;"/></linearGradient><filter style="color-interpolation-filters:sRGB;" inkscape:label="Diffuse Light" id="filter184" x="-0.0375" y="-0.0375" width="1.075" height="1.075"><feGaussianBlur in="SourceGraphic" stdDeviation="1" result="blur" id="feGaussianBlur174" /><feDiffuseLighting diffuseConstant="1" surfaceScale="10" lighting-color="rgb(255,255,255)" result="diffuse" id="feDiffuseLighting178"><feDistantLight elevation="8" azimuth="235" id="feDistantLight176" /></feDiffuseLighting><feComposite in="diffuse" in2="diffuse" operator="arithmetic" k1="1" result="composite1" id="feComposite180" /><feComposite in="composite1" in2="SourceGraphic" k1="1" operator="arithmetic" k3="1" result="composite2" id="feComposite182" /></filter></defs><g id="surface1" style="filter:url(#filter184)"><path style=" stroke:none;fill-rule:evenodd;fill:url(#linear0);" d="M 51.410156 31.246094 C 51.410156 42.257812 42.832031 51.1875 32.246094 51.1875 C 21.664062 51.1875 13.078125 42.257812 13.078125 31.246094 C 13.078125 20.222656 21.664062 11.292969 32.246094 11.292969 C 42.832031 11.292969 51.410156 20.222656 51.410156 31.246094 Z M 51.410156 31.246094 "/><path style=" stroke:none;fill-rule:nonzero;fill:url(#linear1);" d="M 25.253906 18.464844 C 8.488281 28.65625 -1.960938 42.628906 1.914062 49.6875 C 5.777344 56.746094 22.503906 54.203125 39.261719 44.027344 C 56.027344 33.832031 66.480469 19.851562 62.609375 12.800781 C 58.738281 5.734375 42.011719 8.273438 25.253906 18.464844 Z M 27.832031 23.171875 C 38.660156 16.589844 49.160156 14.421875 51.300781 18.320312 C 53.425781 22.226562 46.394531 30.71875 35.578125 37.296875 C 24.757812 43.871094 14.253906 46.039062 12.117188 42.144531 C 9.976562 38.242188 17.015625 29.746094 27.832031 23.171875 Z M 27.832031 23.171875 "/><path style=" stroke:none;fill-rule:evenodd;fill:url(#linear2);" d="M 48.847656 21.265625 C 15.476562 41.214844 48.847656 21.265625 15.648438 41.214844 C 13 36.445312 12.464844 31.003906 13.738281 26.074219 C 23.414062 16.191406 27.679688 14.035156 37.214844 11.972656 C 39.582031 12.636719 41.828125 13.761719 43.8125 15.320312 C 45.800781 16.886719 47.523438 18.878906 48.847656 21.265625 Z M 48.847656 21.265625 "/></g></svg>
