<svg width="64" height="64" viewBox="0 0 64 64" version="1.1" xmlns:inkscape="http://www.inkscape.org/namespaces/inkscape"><defs><linearGradient id="linear0" gradientUnits="userSpaceOnUse" x1="0" y1="0" x2="0" y2="1" gradientTransform="matrix(64,0,0,64,0,0)"><stop offset="0" style="stop-color:rgb(82.352942%,61.176473%,100%);stop-opacity:1;"/><stop offset="1" style="stop-color:rgb(66.666669%,0%,100%);stop-opacity:1;"/></linearGradient><filter style="color-interpolation-filters:sRGB;" inkscape:label="Diffuse Light" id="filter184" x="-0.0375" y="-0.0375" width="1.075" height="1.075"><feGaussianBlur in="SourceGraphic" stdDeviation="1" result="blur" id="feGaussianBlur174" /><feDiffuseLighting diffuseConstant="1" surfaceScale="10" lighting-color="rgb(255,255,255)" result="diffuse" id="feDiffuseLighting178"><feDistantLight elevation="8" azimuth="235" id="feDistantLight176" /></feDiffuseLighting><feComposite in="diffuse" in2="diffuse" operator="arithmetic" k1="1" result="composite1" id="feComposite180" /><feComposite in="composite1" in2="SourceGraphic" k1="1" operator="arithmetic" k3="1" result="composite2" id="feComposite182" /></filter></defs><g id="surface1" style="filter:url(#filter184)"><path style=" stroke:none;fill-rule:nonzero;fill:url(#linear0);" d="M 23.566406 23.566406 C 23.359375 22.535156 23.273438 21.460938 23.273438 20.363281 C 23.273438 9.074219 32.347656 0 43.636719 0 L 64 0 L 64 20.363281 C 64 31.652344 54.925781 40.726562 43.636719 40.726562 C 42.539062 40.726562 41.464844 40.640625 40.433594 40.433594 C 40.640625 41.464844 40.726562 42.539062 40.726562 43.636719 C 40.726562 54.925781 31.652344 64 20.363281 64 L 0 64 L 0 43.636719 C 0 32.347656 9.074219 23.273438 20.363281 23.273438 C 21.460938 23.273438 22.535156 23.359375 23.566406 23.566406 Z M 23.566406 23.566406 "/></g></svg>
