<svg width="64" height="64" viewBox="0 0 64 64" version="1.1" xmlns:inkscape="http://www.inkscape.org/namespaces/inkscape"><defs><linearGradient id="linear0" gradientUnits="userSpaceOnUse" x1="0" y1="0" x2="0" y2="1" gradientTransform="matrix(59.913961,0,0,43.227218,1.97273,7.536698)"><stop offset="0" style="stop-color:rgb(0%,96.078432%,86.274511%);stop-opacity:1;"/><stop offset="1" style="stop-color:rgb(0%,54.901963%,49.411765%);stop-opacity:1;"/></linearGradient><filter style="color-interpolation-filters:sRGB;" inkscape:label="Diffuse Light" id="filter184" x="-0.0375" y="-0.0375" width="1.075" height="1.075"><feGaussianBlur in="SourceGraphic" stdDeviation="1" result="blur" id="feGaussianBlur174" /><feDiffuseLighting diffuseConstant="1" surfaceScale="10" lighting-color="rgb(255,255,255)" result="diffuse" id="feDiffuseLighting178"><feDistantLight elevation="8" azimuth="235" id="feDistantLight176" /></feDiffuseLighting><feComposite in="diffuse" in2="diffuse" operator="arithmetic" k1="1" result="composite1" id="feComposite180" /><feComposite in="composite1" in2="SourceGraphic" k1="1" operator="arithmetic" k3="1" result="composite2" id="feComposite182" /></filter></defs><g id="surface1" style="filter:url(#filter184)"><path style=" stroke:none;fill-rule:nonzero;fill:url(#linear0);" d="M 29.742188 20.382812 C 28.558594 29.023438 21.335938 35.445312 13.035156 35.445312 C 8.425781 35.445312 3.9375 32.710938 0.785156 29.167969 C 1.683594 39.445312 9.441406 48.003906 18.605469 48 C 23.726562 48 28.589844 45.429688 31.972656 41.09375 C 35.347656 45.429688 40.222656 48 45.335938 48 C 54.480469 48 62.242188 39.421875 63.15625 29.167969 C 60 32.6875 55.5 35.449219 50.90625 35.445312 C 42.609375 35.4375 35.386719 29.019531 34.199219 20.382812 L 31.972656 15.363281 Z M 29.742188 20.382812 "/></g></svg>
