<svg width="64" height="64" viewBox="0 0 64 64" version="1.1" xmlns:inkscape="http://www.inkscape.org/namespaces/inkscape"><defs><linearGradient id="linear0" gradientUnits="userSpaceOnUse" x1="0" y1="0" x2="0" y2="1" gradientTransform="matrix(54.992188,0,0,64,4.503906,0)"><stop offset="0" style="stop-color:rgb(100%,63.137257%,63.137257%);stop-opacity:1;"/><stop offset="1" style="stop-color:rgb(100%,27.843139%,27.843139%);stop-opacity:1;"/></linearGradient><filter style="color-interpolation-filters:sRGB;" inkscape:label="Diffuse Light" id="filter184" x="-0.0375" y="-0.0375" width="1.075" height="1.075"><feGaussianBlur in="SourceGraphic" stdDeviation="1" result="blur" id="feGaussianBlur174" /><feDiffuseLighting diffuseConstant="1" surfaceScale="10" lighting-color="rgb(255,255,255)" result="diffuse" id="feDiffuseLighting178"><feDistantLight elevation="8" azimuth="235" id="feDistantLight176" /></feDiffuseLighting><feComposite in="diffuse" in2="diffuse" operator="arithmetic" k1="1" result="composite1" id="feComposite180" /><feComposite in="composite1" in2="SourceGraphic" k1="1" operator="arithmetic" k3="1" result="composite2" id="feComposite182" /></filter></defs><g id="surface1" style="filter:url(#filter184)"><path style=" stroke:none;fill-rule:nonzero;fill:url(#linear0);" d="M 45.097656 0 L 27.800781 11.800781 L 40.898438 33.601562 L 59.496094 24 Z M 26.5 16.601562 L 15.300781 24.601562 L 23.597656 38.699219 L 36.101562 32.300781 Z M 13.496094 28.800781 L 4.503906 34.199219 L 10.199219 43.800781 L 19.300781 38.398438 Z M 32.601562 40 L 26.199219 43.800781 L 26.199219 44.800781 L 16.601562 60.800781 L 23 60.800781 L 26.199219 55.398438 L 26.199219 64 L 32.601562 64 L 32.601562 55.398438 L 35.800781 60.800781 L 42.199219 60.800781 L 32.601562 44.800781 Z M 32.601562 40 "/></g></svg>
