<svg width="64" height="64" viewBox="0 0 64 64" version="1.1" xmlns:inkscape="http://www.inkscape.org/namespaces/inkscape"><defs><linearGradient id="linear0" gradientUnits="userSpaceOnUse" x1="0" y1="0" x2="0" y2="1" gradientTransform="matrix(64,0,0,64,0,0)"><stop offset="0" style="stop-color:rgb(0%,78.823531%,36.862746%);stop-opacity:1;"/><stop offset="1" style="stop-color:rgb(0%,54.11765%,25.098041%);stop-opacity:1;"/></linearGradient><filter style="color-interpolation-filters:sRGB;" inkscape:label="Diffuse Light" id="filter184" x="-0.0375" y="-0.0375" width="1.075" height="1.075"><feGaussianBlur in="SourceGraphic" stdDeviation="1" result="blur" id="feGaussianBlur174" /><feDiffuseLighting diffuseConstant="1" surfaceScale="10" lighting-color="rgb(255,255,255)" result="diffuse" id="feDiffuseLighting178"><feDistantLight elevation="8" azimuth="235" id="feDistantLight176" /></feDiffuseLighting><feComposite in="diffuse" in2="diffuse" operator="arithmetic" k1="1" result="composite1" id="feComposite180" /><feComposite in="composite1" in2="SourceGraphic" k1="1" operator="arithmetic" k3="1" result="composite2" id="feComposite182" /></filter></defs><g id="surface1" style="filter:url(#filter184)"><path style=" stroke:none;fill-rule:nonzero;fill:url(#linear0);" d="M 32 0 C 14.324219 0 0 14.375 0 32.109375 C 0.0195312 43.574219 6.128906 54.160156 16.03125 59.882812 L 18.132812 45.421875 C 14.714844 41.839844 12.800781 37.070312 12.796875 32.109375 C 12.796875 21.464844 21.394531 12.835938 32 12.835938 C 42.605469 12.835938 51.203125 21.464844 51.203125 32.109375 C 51.195312 36.914062 49.398438 41.542969 46.164062 45.085938 L 48.273438 59.710938 C 58.007812 53.941406 63.984375 43.449219 64 32.109375 C 64 14.375 49.675781 0 32 0 Z M 32.132812 23.804688 C 26.878906 23.804688 22.617188 28.078125 22.617188 33.351562 C 22.617188 37.160156 24.875 40.605469 28.359375 42.117188 L 24.21875 64 L 40.335938 63.898438 L 35.890625 42.117188 C 39.378906 40.609375 41.644531 37.164062 41.648438 33.351562 C 41.648438 28.078125 37.386719 23.804688 32.132812 23.804688 Z M 32.132812 23.804688 "/></g></svg>
