<svg width="64" height="64" viewBox="0 0 64 64" version="1.1" xmlns:inkscape="http://www.inkscape.org/namespaces/inkscape"><defs><linearGradient id="linear0" gradientUnits="userSpaceOnUse" x1="0" y1="0" x2="0" y2="1" gradientTransform="matrix(72.739927,0,0,73.078422,-4.793738,-4.320831)"><stop offset="0" style="stop-color:rgb(82.352942%,61.176473%,100%);stop-opacity:1;"/><stop offset="1" style="stop-color:rgb(66.666669%,0%,100%);stop-opacity:1;"/></linearGradient><filter style="color-interpolation-filters:sRGB;" inkscape:label="Diffuse Light" id="filter184" x="-0.0375" y="-0.0375" width="1.075" height="1.075"><feGaussianBlur in="SourceGraphic" stdDeviation="1" result="blur" id="feGaussianBlur174" /><feDiffuseLighting diffuseConstant="1" surfaceScale="10" lighting-color="rgb(255,255,255)" result="diffuse" id="feDiffuseLighting178"><feDistantLight elevation="8" azimuth="235" id="feDistantLight176" /></feDiffuseLighting><feComposite in="diffuse" in2="diffuse" operator="arithmetic" k1="1" result="composite1" id="feComposite180" /><feComposite in="composite1" in2="SourceGraphic" k1="1" operator="arithmetic" k3="1" result="composite2" id="feComposite182" /></filter></defs><g id="surface1" style="filter:url(#filter184)"><path style=" stroke:none;fill-rule:nonzero;fill:url(#linear0);" d="M 61.484375 4.4375 L 51.421875 2.503906 C 53.074219 4.339844 54.136719 6.316406 54.925781 8.96875 C 56.1875 13.152344 56.136719 18.410156 54.878906 24.230469 C 53.265625 31.386719 50.097656 38.566406 42.453125 52.054688 C 41.414062 47.667969 40.726562 44.710938 40.410156 43.664062 L 36.945312 30.234375 C 35.769531 25.667969 34.363281 20.03125 32.777344 13.464844 C 32.226562 10.980469 31.671875 8.523438 31.023438 6.050781 L 26.082031 8.273438 C 23.867188 15.722656 14.449219 40.363281 10.128906 50.109375 C 8.867188 42.394531 6.335938 21.445312 5.214844 10.007812 C 7.046875 9.332031 8.003906 8.652344 9.324219 6.925781 C 5.828125 6.984375 3.457031 7.027344 1.0625 7.070312 L 4.457031 62.386719 L 9.957031 60.507812 C 18.097656 40.253906 20.296875 34.714844 26.3125 18.378906 C 29.550781 29.800781 35.660156 53.597656 37.398438 62.269531 L 42.980469 60.246094 C 44.773438 55.269531 45.429688 53.632812 49.347656 46.074219 C 60.660156 24.492188 63.902344 13.613281 61.484375 4.4375 Z M 61.484375 4.4375 "/></g></svg>
