<svg width="64" height="64" viewBox="0 0 64 64" version="1.1" xmlns:inkscape="http://www.inkscape.org/namespaces/inkscape"><defs><linearGradient id="linear0" gradientUnits="userSpaceOnUse" x1="0" y1="0" x2="0" y2="1" gradientTransform="matrix(66.529233,0,0,38.985758,3.511971,11.789896)"><stop offset="0" style="stop-color:rgb(92.941177%,83.529413%,72.549021%);stop-opacity:1;"/><stop offset="1" style="stop-color:rgb(81.960785%,71.372551%,59.215689%);stop-opacity:1;"/></linearGradient><filter style="color-interpolation-filters:sRGB;" inkscape:label="Diffuse Light" id="filter184" x="-0.0375" y="-0.0375" width="1.075" height="1.075"><feGaussianBlur in="SourceGraphic" stdDeviation="1" result="blur" id="feGaussianBlur174" /><feDiffuseLighting diffuseConstant="1" surfaceScale="10" lighting-color="rgb(255,255,255)" result="diffuse" id="feDiffuseLighting178"><feDistantLight elevation="8" azimuth="235" id="feDistantLight176" /></feDiffuseLighting><feComposite in="diffuse" in2="diffuse" operator="arithmetic" k1="1" result="composite1" id="feComposite180" /><feComposite in="composite1" in2="SourceGraphic" k1="1" operator="arithmetic" k3="1" result="composite2" id="feComposite182" /></filter></defs><g id="surface1" style="filter:url(#filter184)"><path style=" stroke:none;fill-rule:nonzero;fill:url(#linear0);" d="M 27.230469 1.164062 C 23.789062 1.164062 21.027344 3.253906 21.027344 5.859375 L 21.027344 43.417969 C 15.875 43.417969 11.714844 47.597656 11.714844 52.808594 C 11.714844 58.019531 15.875 62.199219 21.027344 62.199219 L 21.027344 57.503906 C 21.027344 54.898438 23.792969 52.808594 27.230469 52.808594 C 30.667969 52.808594 33.433594 54.902344 33.433594 57.503906 L 33.433594 62.199219 C 38.585938 62.199219 42.746094 58.019531 42.746094 52.808594 C 42.746094 47.597656 38.585938 43.417969 33.433594 43.417969 L 33.433594 24.640625 C 39.640625 30.292969 52.054688 29.332031 52.054688 37.082031 C 52.054688 40.132812 47.988281 43.417969 39.640625 45.765625 C 48.949219 45.765625 55.152344 41.070312 55.152344 36.378906 C 55.152344 33.582031 54.0625 31.421875 52.371094 29.589844 C 53.984375 28.222656 55.152344 26.328125 55.152344 23.464844 C 55.152344 13.605469 40.261719 10.902344 33.03125 4.261719 C 32.71875 3.609375 32.246094 3.019531 31.617188 2.542969 C 30.492188 1.695312 28.9375 1.171875 27.207031 1.171875 Z M 33.433594 11.726562 C 39.640625 17.597656 52.054688 17.597656 52.054688 24.640625 C 52.054688 26.335938 51.742188 27.476562 51.226562 28.464844 C 46.261719 24.144531 37.824219 21.703125 33.449219 16.421875 L 33.449219 11.726562 Z M 33.433594 11.726562 "/></g></svg>
