<svg xmlns="http://www.w3.org/2000/svg" xmlns:xlink="http://www.w3.org/1999/xlink" width="64" height="64" viewBox="0 0 64 64" version="1.1"><defs><filter id="alpha" filterUnits="objectBoundingBox" x="0%" y="0%" width="100%" height="100%"> <feColorMatrix type="matrix" in="SourceGraphic" values="0 0 0 0 1 0 0 0 0 1 0 0 0 0 1 0 0 0 1 0"/></filter><mask id="mask0"><rect x="0" y="0" width="64" height="64" style="fill:rgb(0%,0%,0%);fill-opacity:0.99;stroke:none;"/></mask><clipPath id="clip1"> <rect x="0" y="0" width="64" height="64"/></clipPath><path style=" stroke:none;fill-rule:nonzero;fill:rgb(75.686276%,62.7451%,56.078434%);fill-opacity:1;" d="M 62.9375 32.625 C 62.9375 49.757812 49.046875 63.648438 31.914062 63.648438 C 14.78125 63.648438 0.890625 49.757812 0.890625 32.625 C 0.890625 15.492188 14.78125 1.601562 31.914062 1.601562 C 49.046875 1.601562 62.9375 15.492188 62.9375 32.625 Z M 62.9375 32.625 "/><mask id="mask1"><rect x="0" y="0" width="64" height="64" style="fill:rgb(0%,0%,0%);fill-opacity:0.99;stroke:none;"/></mask><clipPath id="clip2"> <rect x="0" y="0" width="64" height="64"/></clipPath><path style=" stroke:none;fill-rule:nonzero;fill:rgb(100%,100%,100%);fill-opacity:0.321569;" d="M 58.980469 32.625 C 58.980469 47.574219 46.863281 59.691406 31.914062 59.691406 C 16.964844 59.691406 4.847656 47.574219 4.847656 32.625 C 4.847656 17.675781 16.964844 5.558594 31.914062 5.558594 C 46.863281 5.558594 58.980469 17.675781 58.980469 32.625 Z M 58.980469 32.625 "/></defs><use xlink:href="#surface5" mask="url(#mask0)"/><use xlink:href="#surface8" mask="url(#mask1)"/><path style=" stroke:none;fill-rule:nonzero;fill:rgb(100%,100%,100%);fill-opacity:1;" d="M 13.554688 25.675781 L 14.890625 25.773438 C 16.28125 24.203125 16.824219 19.5625 25 20.472656 C 24.703125 40.359375 15.984375 42.457031 16.527344 46.535156 C 16.726562 48.847656 18.558594 50.269531 20.542969 50.351562 C 26.800781 50.136719 26.519531 41.695312 28.46875 20.421875 L 36.546875 20.421875 C 36.117188 27.921875 34.945312 35.421875 34.8125 42.769531 C 34.914062 47.660156 37.886719 50.269531 41.800781 50.304688 C 48.242188 50.519531 50.273438 43 50.273438 39.796875 L 48.886719 39.796875 C 48.753906 42.441406 47.484375 44.339844 44.773438 44.457031 C 37.390625 44.554688 41.453125 31.472656 41.503906 20.519531 L 50.273438 20.570312 L 50.226562 14.96875 C 13.769531 14.792969 18.394531 14.078125 13.554688 25.675781 Z M 13.554688 25.675781 "/></svg>
