<svg width="64" height="64" viewBox="0 0 64 64" version="1.1" xmlns:inkscape="http://www.inkscape.org/namespaces/inkscape"><defs><linearGradient id="linear0" gradientUnits="userSpaceOnUse" x1="0" y1="0" x2="0" y2="1" gradientTransform="matrix(71.029076,0,0,67.827105,-2.116042,-0.842947)"><stop offset="0" style="stop-color:rgb(41.960785%,64.313728%,100%);stop-opacity:1;"/><stop offset="1" style="stop-color:rgb(0%,43.137255%,100%);stop-opacity:1;"/></linearGradient><linearGradient id="linear1" gradientUnits="userSpaceOnUse" x1="0" y1="0" x2="0" y2="1" gradientTransform="matrix(71.029076,0,0,67.827105,-2.116042,-0.842947)"><stop offset="0" style="stop-color:rgb(41.960785%,64.313728%,100%);stop-opacity:1;"/><stop offset="1" style="stop-color:rgb(0%,43.137255%,100%);stop-opacity:1;"/></linearGradient><filter style="color-interpolation-filters:sRGB;" inkscape:label="Diffuse Light" id="filter184" x="-0.0375" y="-0.0375" width="1.075" height="1.075"><feGaussianBlur in="SourceGraphic" stdDeviation="1" result="blur" id="feGaussianBlur174" /><feDiffuseLighting diffuseConstant="1" surfaceScale="10" lighting-color="rgb(255,255,255)" result="diffuse" id="feDiffuseLighting178"><feDistantLight elevation="8" azimuth="235" id="feDistantLight176" /></feDiffuseLighting><feComposite in="diffuse" in2="diffuse" operator="arithmetic" k1="1" result="composite1" id="feComposite180" /><feComposite in="composite1" in2="SourceGraphic" k1="1" operator="arithmetic" k3="1" result="composite2" id="feComposite182" /></filter></defs><g id="surface1" style="filter:url(#filter184)"><path style=" stroke:none;fill-rule:nonzero;fill:url(#linear0);" d="M 41.320312 40.382812 C 41.320312 52.085938 32.597656 61.566406 21.828125 61.566406 C 11.0625 61.566406 2.339844 52.085938 2.339844 40.382812 C 2.339844 28.6875 11.0625 19.207031 21.828125 19.207031 C 32.597656 19.207031 41.320312 28.6875 41.320312 40.382812 Z M 41.320312 40.382812 "/><path style=" stroke:none;fill-rule:nonzero;fill:url(#linear1);" d="M 62.882812 15.476562 C 62.882812 22.988281 57.28125 29.078125 50.363281 29.078125 C 43.453125 29.078125 37.847656 22.988281 37.847656 15.476562 C 37.847656 7.96875 43.453125 1.878906 50.363281 1.878906 C 57.28125 1.878906 62.882812 7.96875 62.882812 15.476562 Z M 62.882812 15.476562 "/></g></svg>
