<svg width="64" height="64" viewBox="0 0 64 64" version="1.1" xmlns:inkscape="http://www.inkscape.org/namespaces/inkscape"><defs><linearGradient id="linear0" gradientUnits="userSpaceOnUse" x1="0" y1="0" x2="0" y2="1" gradientTransform="matrix(63.296028,0,0,39.368454,3.545016,11.387286)"><stop offset="0" style="stop-color:rgb(100%,63.137257%,63.137257%);stop-opacity:1;"/><stop offset="1" style="stop-color:rgb(100%,27.843139%,27.843139%);stop-opacity:1;"/></linearGradient><filter style="color-interpolation-filters:sRGB;" inkscape:label="Diffuse Light" id="filter184" x="-0.0375" y="-0.0375" width="1.075" height="1.075"><feGaussianBlur in="SourceGraphic" stdDeviation="1" result="blur" id="feGaussianBlur174" /><feDiffuseLighting diffuseConstant="1" surfaceScale="10" lighting-color="rgb(255,255,255)" result="diffuse" id="feDiffuseLighting178"><feDistantLight elevation="8" azimuth="235" id="feDistantLight176" /></feDiffuseLighting><feComposite in="diffuse" in2="diffuse" operator="arithmetic" k1="1" result="composite1" id="feComposite180" /><feComposite in="composite1" in2="SourceGraphic" k1="1" operator="arithmetic" k3="1" result="composite2" id="feComposite182" /></filter></defs><g id="surface1" style="filter:url(#filter184)"><path style=" stroke:none;fill-rule:nonzero;fill:url(#linear0);" d="M 31.890625 0.839844 C 28.523438 0.839844 25.789062 2.824219 25.789062 5.269531 C 25.789062 5.960938 26.015625 6.636719 26.4375 7.253906 L 19.695312 9.691406 L 19.695312 14.121094 L 10.542969 16.335938 L 7.492188 24.089844 C 7.492188 31.046875 9.820312 56.214844 25.796875 61.53125 L 25.796875 61.820312 L 31.898438 62.929688 L 38 61.820312 L 38 61.554688 C 53.984375 56.414062 56.300781 31.203125 56.300781 24.113281 L 53.25 16.359375 L 44.097656 14.144531 L 44.097656 9.710938 L 37.359375 7.277344 C 37.785156 6.664062 38 5.980469 38 5.296875 C 38 2.84375 35.273438 0.863281 31.902344 0.863281 M 31.902344 3.078125 C 33.585938 3.078125 34.949219 4.070312 34.949219 5.296875 C 34.949219 5.636719 34.839844 5.976562 34.628906 6.285156 L 31.902344 5.296875 L 29.1875 6.285156 C 28.972656 5.976562 28.855469 5.636719 28.851562 5.296875 C 28.851562 4.070312 30.21875 3.078125 31.902344 3.078125 "/></g></svg>
