<svg width="64" height="64" viewBox="0 0 64 64" version="1.1" xmlns:inkscape="http://www.inkscape.org/namespaces/inkscape"><defs><linearGradient id="linear0" gradientUnits="userSpaceOnUse" x1="0" y1="0" x2="0" y2="1" gradientTransform="matrix(56,0,0,35.898438,4,14.050781)"><stop offset="0" style="stop-color:rgb(81.960785%,70.980394%,59.215689%);stop-opacity:1;"/><stop offset="1" style="stop-color:rgb(65.098041%,53.725493%,41.568628%);stop-opacity:1;"/></linearGradient><filter style="color-interpolation-filters:sRGB;" inkscape:label="Diffuse Light" id="filter184" x="-0.0375" y="-0.0375" width="1.075" height="1.075"><feGaussianBlur in="SourceGraphic" stdDeviation="1" result="blur" id="feGaussianBlur174" /><feDiffuseLighting diffuseConstant="1" surfaceScale="10" lighting-color="rgb(255,255,255)" result="diffuse" id="feDiffuseLighting178"><feDistantLight elevation="8" azimuth="235" id="feDistantLight176" /></feDiffuseLighting><feComposite in="diffuse" in2="diffuse" operator="arithmetic" k1="1" result="composite1" id="feComposite180" /><feComposite in="composite1" in2="SourceGraphic" k1="1" operator="arithmetic" k3="1" result="composite2" id="feComposite182" /></filter></defs><g id="surface1" style="filter:url(#filter184)"><path style=" stroke:none;fill-rule:nonzero;fill:url(#linear0);" d="M 32.996094 4.460938 C 16.738281 4.460938 3.496094 14.828125 3.496094 27.636719 C 3.496094 28.703125 4.441406 29.566406 5.601562 29.566406 C 6.765625 29.566406 7.710938 28.703125 7.710938 27.636719 C 7.710938 16.9375 18.988281 8.324219 32.996094 8.324219 C 47.003906 8.324219 58.277344 16.9375 58.277344 27.636719 C 58.277344 26.570312 59.265625 25.703125 60.386719 25.703125 C 61.507812 25.703125 62.371094 26.453125 62.480469 27.441406 C 62.34375 14.691406 49.253906 4.460938 32.996094 4.460938 Z M 35.101562 16.046875 L 22.460938 37.292969 L 30.886719 37.292969 L 30.886719 50.8125 L 43.53125 29.566406 L 35.101562 29.566406 Z M 60.386719 37.292969 C 59.222656 37.292969 58.277344 38.15625 58.277344 39.222656 C 58.277344 49.921875 47.003906 58.535156 32.996094 58.535156 C 18.988281 58.535156 7.710938 49.921875 7.710938 39.222656 C 7.710938 40.289062 6.765625 41.15625 5.601562 41.15625 C 4.523438 41.152344 3.617188 40.40625 3.507812 39.417969 C 3.644531 52.167969 16.738281 62.398438 32.996094 62.398438 C 49.25 62.398438 62.492188 51.96875 62.492188 39.222656 C 62.492188 38.15625 61.550781 37.292969 60.386719 37.292969 Z M 60.386719 37.292969 "/></g></svg>
