<svg width="64" height="64" viewBox="0 0 64 64" version="1.1" xmlns:inkscape="http://www.inkscape.org/namespaces/inkscape"><defs><linearGradient id="linear0" gradientUnits="userSpaceOnUse" x1="0" y1="0" x2="0" y2="1" gradientTransform="matrix(16,0,0,16,23.728814,11.762654)"><stop offset="0" style="stop-color:rgb(75.686276%,77.64706%,83.92157%);stop-opacity:1;"/><stop offset="1" style="stop-color:rgb(43.529412%,45.09804%,50.196081%);stop-opacity:1;"/></linearGradient><linearGradient id="linear1" gradientUnits="userSpaceOnUse" x1="0" y1="0" x2="0" y2="1" gradientTransform="matrix(16,0,0,16,-0.271186,35.762654)"><stop offset="0" style="stop-color:rgb(75.686276%,77.64706%,83.92157%);stop-opacity:1;"/><stop offset="1" style="stop-color:rgb(43.529412%,45.09804%,50.196081%);stop-opacity:1;"/></linearGradient><linearGradient id="linear2" gradientUnits="userSpaceOnUse" x1="0" y1="0" x2="0" y2="1" gradientTransform="matrix(16,0,0,16,47.728814,35.762654)"><stop offset="0" style="stop-color:rgb(75.686276%,77.64706%,83.92157%);stop-opacity:1;"/><stop offset="1" style="stop-color:rgb(43.529412%,45.09804%,50.196081%);stop-opacity:1;"/></linearGradient><filter style="color-interpolation-filters:sRGB;" inkscape:label="Diffuse Light" id="filter184" x="-0.0375" y="-0.0375" width="1.075" height="1.075"><feGaussianBlur in="SourceGraphic" stdDeviation="1" result="blur" id="feGaussianBlur174" /><feDiffuseLighting diffuseConstant="1" surfaceScale="10" lighting-color="rgb(255,255,255)" result="diffuse" id="feDiffuseLighting178"><feDistantLight elevation="8" azimuth="235" id="feDistantLight176" /></feDiffuseLighting><feComposite in="diffuse" in2="diffuse" operator="arithmetic" k1="1" result="composite1" id="feComposite180" /><feComposite in="composite1" in2="SourceGraphic" k1="1" operator="arithmetic" k3="1" result="composite2" id="feComposite182" /></filter></defs><g id="surface1" style="filter:url(#filter184)"><path style=" stroke:none;fill-rule:nonzero;fill:url(#linear0);" d="M 39.730469 19.761719 C 39.730469 24.179688 36.148438 27.761719 31.730469 27.761719 C 27.3125 27.761719 23.730469 24.179688 23.730469 19.761719 C 23.730469 15.34375 27.3125 11.761719 31.730469 11.761719 C 36.148438 11.761719 39.730469 15.34375 39.730469 19.761719 Z M 39.730469 19.761719 "/><path style=" stroke:none;fill-rule:nonzero;fill:url(#linear1);" d="M 15.730469 43.761719 C 15.730469 48.179688 12.148438 51.761719 7.730469 51.761719 C 3.3125 51.761719 -0.269531 48.179688 -0.269531 43.761719 C -0.269531 39.34375 3.3125 35.761719 7.730469 35.761719 C 12.148438 35.761719 15.730469 39.34375 15.730469 43.761719 Z M 15.730469 43.761719 "/><path style=" stroke:none;fill-rule:nonzero;fill:url(#linear2);" d="M 63.730469 43.761719 C 63.730469 48.179688 60.148438 51.761719 55.730469 51.761719 C 51.3125 51.761719 47.730469 48.179688 47.730469 43.761719 C 47.730469 39.34375 51.3125 35.761719 55.730469 35.761719 C 60.148438 35.761719 63.730469 39.34375 63.730469 43.761719 Z M 63.730469 43.761719 "/></g></svg>
