<svg width="64" height="64" viewBox="0 0 64 64" version="1.1" xmlns:inkscape="http://www.inkscape.org/namespaces/inkscape"><defs><linearGradient id="linear0" gradientUnits="userSpaceOnUse" x1="0" y1="0" x2="0" y2="1" gradientTransform="matrix(60.585283,0,0,62.252386,1.97437,1.315069)"><stop offset="0" style="stop-color:rgb(100%,73.333335%,0%);stop-opacity:1;"/><stop offset="1" style="stop-color:rgb(70.19608%,51.372552%,0%);stop-opacity:1;"/></linearGradient><filter style="color-interpolation-filters:sRGB;" inkscape:label="Diffuse Light" id="filter184" x="-0.0375" y="-0.0375" width="1.075" height="1.075"><feGaussianBlur in="SourceGraphic" stdDeviation="1" result="blur" id="feGaussianBlur174" /><feDiffuseLighting diffuseConstant="1" surfaceScale="10" lighting-color="rgb(255,255,255)" result="diffuse" id="feDiffuseLighting178"><feDistantLight elevation="8" azimuth="235" id="feDistantLight176" /></feDiffuseLighting><feComposite in="diffuse" in2="diffuse" operator="arithmetic" k1="1" result="composite1" id="feComposite180" /><feComposite in="composite1" in2="SourceGraphic" k1="1" operator="arithmetic" k3="1" result="composite2" id="feComposite182" /></filter></defs><g id="surface1" style="filter:url(#filter184)"><path style=" stroke:none;fill-rule:nonzero;fill:url(#linear0);" d="M 30.003906 2.257812 L 7.3125 15.382812 L 18.273438 21.722656 L 30.003906 14.964844 L 30.003906 2.257812 M 34.707031 2.257812 L 34.707031 14.953125 L 46.421875 21.746094 L 57.398438 15.402344 L 34.71875 2.257812 L 34.707031 2.257812 M 32.339844 17.394531 L 19.175781 25.015625 L 19.171875 40.25 L 32.320312 47.875 L 45.484375 40.261719 L 45.484375 25.019531 L 32.339844 17.394531 M 4.921875 19.488281 L 4.90625 45.753906 L 15.875 39.417969 L 15.875 25.832031 L 4.921875 19.488281 M 59.746094 19.503906 L 48.777344 25.847656 L 48.777344 39.429688 L 59.730469 45.773438 L 59.746094 19.503906 M 18.226562 43.515625 L 7.257812 49.871094 L 29.941406 63.015625 L 29.941406 50.320312 L 18.226562 43.515625 M 46.40625 43.527344 L 46.40625 43.535156 L 34.6875 50.300781 L 34.6875 63.011719 L 57.371094 49.882812 L 46.40625 43.527344 "/></g></svg>
