<svg width="64" height="64" viewBox="0 0 64 64" version="1.1" xmlns:inkscape="http://www.inkscape.org/namespaces/inkscape"><defs><linearGradient id="linear0" gradientUnits="userSpaceOnUse" x1="0" y1="0" x2="0" y2="1" gradientTransform="matrix(55.992188,0,0,56,4.003906,4)"><stop offset="0" style="stop-color:rgb(0%,96.078432%,86.274511%);stop-opacity:1;"/><stop offset="1" style="stop-color:rgb(0%,54.901963%,49.411765%);stop-opacity:1;"/></linearGradient><linearGradient id="linear1" gradientUnits="userSpaceOnUse" x1="0" y1="0" x2="0" y2="1" gradientTransform="matrix(55.992188,0,0,56,4.003906,4)"><stop offset="0" style="stop-color:rgb(0%,96.078432%,86.274511%);stop-opacity:1;"/><stop offset="1" style="stop-color:rgb(0%,54.901963%,49.411765%);stop-opacity:1;"/></linearGradient><linearGradient id="linear2" gradientUnits="userSpaceOnUse" x1="0" y1="0" x2="0" y2="1" gradientTransform="matrix(55.992188,0,0,56,4.003906,4)"><stop offset="0" style="stop-color:rgb(0%,96.078432%,86.274511%);stop-opacity:1;"/><stop offset="1" style="stop-color:rgb(0%,54.901963%,49.411765%);stop-opacity:1;"/></linearGradient><linearGradient id="linear3" gradientUnits="userSpaceOnUse" x1="0" y1="0" x2="0" y2="1" gradientTransform="matrix(55.992188,0,0,56,4.003906,4)"><stop offset="0" style="stop-color:rgb(0%,96.078432%,86.274511%);stop-opacity:1;"/><stop offset="1" style="stop-color:rgb(0%,54.901963%,49.411765%);stop-opacity:1;"/></linearGradient><filter style="color-interpolation-filters:sRGB;" inkscape:label="Diffuse Light" id="filter184" x="-0.0375" y="-0.0375" width="1.075" height="1.075"><feGaussianBlur in="SourceGraphic" stdDeviation="1" result="blur" id="feGaussianBlur174" /><feDiffuseLighting diffuseConstant="1" surfaceScale="10" lighting-color="rgb(255,255,255)" result="diffuse" id="feDiffuseLighting178"><feDistantLight elevation="8" azimuth="235" id="feDistantLight176" /></feDiffuseLighting><feComposite in="diffuse" in2="diffuse" operator="arithmetic" k1="1" result="composite1" id="feComposite180" /><feComposite in="composite1" in2="SourceGraphic" k1="1" operator="arithmetic" k3="1" result="composite2" id="feComposite182" /></filter></defs><g id="surface1" style="filter:url(#filter184)"><path style=" stroke:none;fill-rule:nonzero;fill:url(#linear0);" d="M 23.667969 24.953125 C 25.070312 26.742188 31.640625 41.550781 33.519531 46.171875 C 28.425781 46.171875 26.730469 46.171875 19.9375 46.171875 C 14.644531 41.84375 7.425781 34.230469 6.023438 32.445312 "/><path style=" stroke:none;fill-rule:nonzero;fill:url(#linear1);" d="M 18.714844 12.160156 C 21.53125 17.011719 19.863281 23.214844 14.992188 26.015625 C 10.117188 28.8125 3.886719 27.152344 1.078125 22.300781 C -1.738281 17.445312 -0.0703125 11.242188 4.800781 8.441406 C 9.675781 5.644531 15.90625 7.304688 18.714844 12.160156 Z M 18.714844 12.160156 "/><path style=" stroke:none;fill-rule:nonzero;fill:url(#linear2);" d="M 36.265625 46.078125 C 39.644531 42.730469 63.1875 18.984375 64.988281 20.980469 C 66.425781 23.210938 56.253906 37.699219 49.84375 46.078125 "/><path style=" stroke:none;fill-rule:evenodd;fill:url(#linear3);" d="M 13.570312 48.25 L 53.261719 48.25 C 53.902344 48.25 54.425781 48.773438 54.425781 49.417969 L 54.425781 53.851562 C 54.425781 54.496094 53.902344 55.015625 53.261719 55.015625 L 13.570312 55.015625 C 12.929688 55.015625 12.40625 54.496094 12.40625 53.851562 L 12.40625 49.417969 C 12.40625 48.773438 12.929688 48.25 13.570312 48.25 Z M 13.570312 48.25 "/></g></svg>
