<svg width="64" height="64" viewBox="0 0 64 64" version="1.1" xmlns:inkscape="http://www.inkscape.org/namespaces/inkscape"><defs><linearGradient id="linear0" gradientUnits="userSpaceOnUse" x1="0" y1="0" x2="0" y2="1" gradientTransform="matrix(59.207123,0,0,37.723297,2.560272,13.143309)"><stop offset="0" style="stop-color:rgb(75.686276%,77.64706%,83.92157%);stop-opacity:1;"/><stop offset="1" style="stop-color:rgb(43.529412%,45.09804%,50.196081%);stop-opacity:1;"/></linearGradient><filter style="color-interpolation-filters:sRGB;" inkscape:label="Diffuse Light" id="filter184" x="-0.0375" y="-0.0375" width="1.075" height="1.075"><feGaussianBlur in="SourceGraphic" stdDeviation="1" result="blur" id="feGaussianBlur174" /><feDiffuseLighting diffuseConstant="1" surfaceScale="10" lighting-color="rgb(255,255,255)" result="diffuse" id="feDiffuseLighting178"><feDistantLight elevation="8" azimuth="235" id="feDistantLight176" /></feDiffuseLighting><feComposite in="diffuse" in2="diffuse" operator="arithmetic" k1="1" result="composite1" id="feComposite180" /><feComposite in="composite1" in2="SourceGraphic" k1="1" operator="arithmetic" k3="1" result="composite2" id="feComposite182" /></filter></defs><g id="surface1" style="filter:url(#filter184)"><path style=" stroke:none;fill-rule:nonzero;fill:url(#linear0);" d="M 6.144531 1.75 C 3.296875 1.75 1.011719 4.035156 1.011719 6.875 L 1.011719 58.144531 C 1.011719 60.988281 3.300781 63.269531 6.144531 63.269531 L 57.457031 63.269531 C 60.300781 63.269531 62.585938 60.984375 62.585938 58.144531 L 62.585938 6.875 C 62.585938 4.03125 60.296875 1.75 57.457031 1.75 Z M 21.539062 17.128906 L 42.0625 17.128906 C 44.910156 17.128906 47.191406 19.414062 47.191406 22.257812 L 47.191406 42.765625 C 47.191406 45.609375 44.90625 47.890625 42.0625 47.890625 L 21.539062 47.890625 C 18.6875 47.890625 16.40625 45.605469 16.40625 42.765625 L 16.40625 22.257812 C 16.40625 19.410156 18.695312 17.128906 21.539062 17.128906 Z M 21.539062 17.128906 "/></g></svg>
