<svg width="64" height="64" viewBox="0 0 64 64" version="1.1" xmlns:inkscape="http://www.inkscape.org/namespaces/inkscape"><defs><linearGradient id="linear0" gradientUnits="userSpaceOnUse" x1="0" y1="0" x2="0" y2="1" gradientTransform="matrix(62.657471,0,0,63.4619,1.039256,0.971009)"><stop offset="0" style="stop-color:rgb(0%,78.823531%,36.862746%);stop-opacity:1;"/><stop offset="1" style="stop-color:rgb(0%,54.11765%,25.098041%);stop-opacity:1;"/></linearGradient><filter style="color-interpolation-filters:sRGB;" inkscape:label="Diffuse Light" id="filter184" x="-0.0375" y="-0.0375" width="1.075" height="1.075"><feGaussianBlur in="SourceGraphic" stdDeviation="1" result="blur" id="feGaussianBlur174" /><feDiffuseLighting diffuseConstant="1" surfaceScale="10" lighting-color="rgb(255,255,255)" result="diffuse" id="feDiffuseLighting178"><feDistantLight elevation="8" azimuth="235" id="feDistantLight176" /></feDiffuseLighting><feComposite in="diffuse" in2="diffuse" operator="arithmetic" k1="1" result="composite1" id="feComposite180" /><feComposite in="composite1" in2="SourceGraphic" k1="1" operator="arithmetic" k3="1" result="composite2" id="feComposite182" /></filter></defs><g id="surface1" style="filter:url(#filter184)"><path style=" stroke:none;fill-rule:nonzero;fill:url(#linear0);" d="M 31.824219 0.929688 C 14.652344 0.929688 0.722656 14.972656 0.722656 32.292969 C 0.722656 49.613281 14.652344 63.664062 31.824219 63.664062 C 49.003906 63.664062 62.925781 49.613281 62.925781 32.292969 C 62.925781 14.972656 49.003906 0.929688 31.824219 0.929688 Z M 31.824219 5.109375 C 46.71875 5.109375 58.785156 17.277344 58.785156 32.292969 C 58.769531 44.863281 50.210938 55.78125 38.085938 58.699219 C 38.050781 51.113281 42.199219 46.933594 42.199219 44.839844 L 42.199219 38.570312 C 42.199219 38.570312 48.417969 28.113281 52.5625 23.933594 C 52.5625 19.75 50.492188 21.015625 50.492188 21.015625 L 50.492188 19.75 L 48.417969 21.835938 C 48.417969 21.835938 50.492188 15.5625 46.34375 13.472656 C 42.199219 15.5625 38.050781 19.75 38.050781 19.75 L 33.90625 19.75 L 27.683594 23.933594 C 23.535156 23.933594 19.390625 23.933594 17.3125 26.023438 C 15.242188 28.113281 21.460938 32.292969 21.460938 32.292969 L 13.167969 46.933594 L 10.183594 48.4375 C 6.742188 43.769531 4.882812 38.105469 4.878906 32.292969 C 4.878906 17.277344 16.941406 5.109375 31.824219 5.109375 Z M 33.90625 21.835938 L 38.050781 21.835938 L 33.90625 23.933594 L 31.824219 23.933594 Z M 33.90625 21.835938 "/></g></svg>
