<svg width="64" height="64" viewBox="0 0 64 64" version="1.1" xmlns:inkscape="http://www.inkscape.org/namespaces/inkscape"><defs><linearGradient id="linear0" gradientUnits="userSpaceOnUse" x1="0" y1="0" x2="0" y2="1" gradientTransform="matrix(52.875,0,0,64,5.5625,0)"><stop offset="0" style="stop-color:rgb(0%,96.078432%,86.274511%);stop-opacity:1;"/><stop offset="1" style="stop-color:rgb(0%,54.901963%,49.411765%);stop-opacity:1;"/></linearGradient><filter style="color-interpolation-filters:sRGB;" inkscape:label="Diffuse Light" id="filter184" x="-0.0375" y="-0.0375" width="1.075" height="1.075"><feGaussianBlur in="SourceGraphic" stdDeviation="1" result="blur" id="feGaussianBlur174" /><feDiffuseLighting diffuseConstant="1" surfaceScale="10" lighting-color="rgb(255,255,255)" result="diffuse" id="feDiffuseLighting178"><feDistantLight elevation="8" azimuth="235" id="feDistantLight176" /></feDiffuseLighting><feComposite in="diffuse" in2="diffuse" operator="arithmetic" k1="1" result="composite1" id="feComposite180" /><feComposite in="composite1" in2="SourceGraphic" k1="1" operator="arithmetic" k3="1" result="composite2" id="feComposite182" /></filter></defs><g id="surface1" style="filter:url(#filter184)"><path style=" stroke:none;fill-rule:evenodd;fill:url(#linear0);" d="M 13.910156 51.480469 L 58.4375 51.480469 L 58.4375 0 L 13.910156 0 C 9.308594 0 5.5625 3.742188 5.5625 8.347656 L 5.5625 56.230469 C 5.5625 60.515625 9.308594 64 13.910156 64 L 58.4375 64 L 58.4375 61.214844 L 13.910156 61.214844 C 10.894531 61.214844 8.347656 58.9375 8.347656 56.230469 C 8.347656 53.5625 10.792969 51.480469 13.910156 51.480469 Z M 34.660156 14.398438 C 37.015625 14.398438 38.925781 16.308594 38.925781 18.664062 C 38.925781 21.019531 37.015625 22.929688 34.660156 22.929688 C 32.304688 22.929688 30.394531 21.019531 30.394531 18.664062 C 30.394531 16.308594 32.304688 14.398438 34.660156 14.398438 Z M 36.792969 35.71875 L 36.792969 29.113281 C 41.660156 28.125 45.320312 23.820312 45.320312 18.664062 C 45.320312 12.777344 40.546875 8.003906 34.660156 8.003906 C 28.773438 8.003906 24 12.777344 24 18.664062 C 24 23.820312 27.664062 28.125 32.527344 29.113281 L 32.527344 44.253906 L 36.792969 44.253906 L 36.792969 39.984375 L 41.054688 39.984375 L 41.054688 35.71875 Z M 36.792969 35.71875 "/></g></svg>
