<svg width="64" height="64" viewBox="0 0 64 64" version="1.1" xmlns:inkscape="http://www.inkscape.org/namespaces/inkscape"><defs><linearGradient id="linear0" gradientUnits="userSpaceOnUse" x1="0" y1="0" x2="0" y2="1" gradientTransform="matrix(60.585156,0,0,66.154198,2.113653,-0.647464)"><stop offset="0" style="stop-color:rgb(41.960785%,64.313728%,100%);stop-opacity:1;"/><stop offset="1" style="stop-color:rgb(0%,43.137255%,100%);stop-opacity:1;"/></linearGradient><filter style="color-interpolation-filters:sRGB;" inkscape:label="Diffuse Light" id="filter184" x="-0.0375" y="-0.0375" width="1.075" height="1.075"><feGaussianBlur in="SourceGraphic" stdDeviation="1" result="blur" id="feGaussianBlur174" /><feDiffuseLighting diffuseConstant="1" surfaceScale="10" lighting-color="rgb(255,255,255)" result="diffuse" id="feDiffuseLighting178"><feDistantLight elevation="8" azimuth="235" id="feDistantLight176" /></feDiffuseLighting><feComposite in="diffuse" in2="diffuse" operator="arithmetic" k1="1" result="composite1" id="feComposite180" /><feComposite in="composite1" in2="SourceGraphic" k1="1" operator="arithmetic" k3="1" result="composite2" id="feComposite182" /></filter></defs><g id="surface1" style="filter:url(#filter184)"><path style=" stroke:none;fill-rule:nonzero;fill:url(#linear0);" d="M 19.515625 2.96875 C 25.636719 2.96875 31.652344 8.890625 34.96875 18.101562 C 31.949219 19.847656 29.15625 22.0625 26.871094 24.550781 C 18.449219 33.761719 16.402344 46.683594 21.824219 55.175781 C 21.058594 55.316406 20.28125 55.410156 19.515625 55.410156 C 9.726562 55.410156 1.753906 44.449219 1.753906 30.976562 C 1.753906 18.03125 9.511719 2.964844 19.515625 2.964844 M 24.183594 56.140625 C 18.382812 48.265625 20.402344 35.527344 28.660156 26.484375 C 30.980469 23.957031 33.847656 21.707031 36.957031 19.988281 L 37.238281 19.828125 L 37.175781 19.6875 C 41.277344 17.46875 45.707031 16.242188 49.671875 16.242188 C 53.777344 16.242188 57.1875 17.585938 59.527344 20.113281 C 62.796875 23.648438 63.921875 29.328125 62.695312 36.09375 C 61.515625 42.589844 58.335938 49.054688 53.964844 53.832031 C 49.050781 59.210938 42.703125 62.296875 36.566406 62.296875 C 32.074219 62.296875 28.183594 60.652344 25.308594 57.546875 C 25.015625 57.234375 24.730469 56.863281 24.441406 56.488281 L 24.183594 56.140625 "/></g></svg>
