<svg width="64" height="64" viewBox="0 0 64 64" version="1.1" xmlns:inkscape="http://www.inkscape.org/namespaces/inkscape"><defs><linearGradient id="linear0" gradientUnits="userSpaceOnUse" x1="0" y1="0" x2="0" y2="1" gradientTransform="matrix(61.583725,0,0,59.614989,1.697087,1.504935)"><stop offset="0" style="stop-color:rgb(81.960785%,70.980394%,59.215689%);stop-opacity:1;"/><stop offset="1" style="stop-color:rgb(65.098041%,53.725493%,41.568628%);stop-opacity:1;"/></linearGradient><filter style="color-interpolation-filters:sRGB;" inkscape:label="Diffuse Light" id="filter184" x="-0.0375" y="-0.0375" width="1.075" height="1.075"><feGaussianBlur in="SourceGraphic" stdDeviation="1" result="blur" id="feGaussianBlur174" /><feDiffuseLighting diffuseConstant="1" surfaceScale="10" lighting-color="rgb(255,255,255)" result="diffuse" id="feDiffuseLighting178"><feDistantLight elevation="8" azimuth="235" id="feDistantLight176" /></feDiffuseLighting><feComposite in="diffuse" in2="diffuse" operator="arithmetic" k1="1" result="composite1" id="feComposite180" /><feComposite in="composite1" in2="SourceGraphic" k1="1" operator="arithmetic" k3="1" result="composite2" id="feComposite182" /></filter></defs><g id="surface1" style="filter:url(#filter184)"><path style=" stroke:none;fill-rule:nonzero;fill:url(#linear0);" d="M 7.878906 1.539062 L 19.550781 4.597656 L 16.378906 38.160156 C 15.773438 44.597656 17.597656 49.28125 20.023438 52.132812 C 22.457031 54.957031 26.390625 56.375 31.839844 56.375 C 37.261719 56.375 41.183594 54.957031 43.613281 52.132812 C 46.042969 49.28125 47.253906 44.625 47.253906 38.160156 L 45.234375 4.597656 L 55.761719 1.539062 L 55.761719 39.171875 C 55.761719 47.035156 53.738281 52.972656 49.683594 56.980469 C 45.664062 60.992188 39.714844 62.996094 31.839844 62.996094 C 23.9375 62.996094 17.957031 60.992188 13.910156 56.980469 C 9.890625 52.972656 7.878906 47.035156 7.878906 39.171875 Z M 7.878906 1.539062 "/></g></svg>
