<?xml version="1.0" encoding="UTF-8" standalone="no"?><svg width="64" height="64" viewBox="0 0 64 64" version="1.1" id="svg927" sodipodi:docname="lingot.svg" inkscape:version="1.2.2 (b0a8486541, 2022-12-01)" xmlns:inkscape="http://www.inkscape.org/namespaces/inkscape" xmlns:sodipodi="http://sodipodi.sourceforge.net/DTD/sodipodi-0.dtd" xmlns:xlink="http://www.w3.org/1999/xlink" xmlns="http://www.w3.org/2000/svg" xmlns:svg="http://www.w3.org/2000/svg"> <sodipodi:namedview id="namedview929" pagecolor="#ffffff" bordercolor="#000000" borderopacity="0.25" inkscape:showpageshadow="2" inkscape:pageopacity="0.0" inkscape:pagecheckerboard="0" inkscape:deskcolor="#d1d1d1" showgrid="false" inkscape:zoom="3.6875" inkscape:cx="32" inkscape:cy="32.135593" inkscape:window-width="1432" inkscape:window-height="844" inkscape:window-x="0" inkscape:window-y="0" inkscape:window-maximized="1" inkscape:current-layer="svg927" /> <defs id="defs920"> <filter id="alpha" filterUnits="objectBoundingBox" x="0" y="0" width="1" height="1"> <feColorMatrix type="matrix" in="SourceGraphic" values="0 0 0 0 1 0 0 0 0 1 0 0 0 0 1 0 0 0 1 0" id="feColorMatrix896" /> </filter> <mask id="mask0"> <g filter="url(#alpha)" id="g901"> <rect x="0" y="0" width="64" height="64" style="fill:rgb(0%,0%,0%);fill-opacity:0.5;stroke:none;" id="rect899" /> </g> </mask> <linearGradient id="linear0" gradientUnits="userSpaceOnUse" x1="0" y1="0" x2="0" y2="1" gradientTransform="matrix(64,0,0,27.710938,0,12.003906)"> <stop offset="0" style="stop-color:#d29cff;stop-opacity:1;" id="stop904" /> <stop offset="1" style="stop-color:#aa00ff;stop-opacity:1;" id="stop906" /> </linearGradient> <clipPath id="clip1"> <rect x="0" y="0" width="64" height="64" id="rect909" /> </clipPath> <g id="surface5" clip-path="url(#clip1)"> <path style=" stroke:none;fill-rule:nonzero;fill:url(#linear0);" d="M 31.222656 12.003906 C 19.78125 12.003906 6.636719 18.179688 0 28.597656 L 21.371094 39.714844 C 23.226562 35.820312 27.152344 33.335938 31.464844 33.328125 C 35.78125 33.335938 40.242188 35.816406 42.097656 39.714844 L 64 28.597656 C 56.28125 17.644531 42.667969 12.003906 31.222656 12.003906 Z M 31.222656 12.003906 " id="path912" /> </g> <linearGradient id="linear1" gradientUnits="userSpaceOnUse" x1="0" y1="0" x2="0" y2="1" gradientTransform="matrix(26.882812,0,0,33.875,24,18.121094)"> <stop offset="0" style="stop-color:#d29cff;stop-opacity:1;" id="stop915" /> <stop offset="1" style="stop-color:#aa00ff;stop-opacity:1;" id="stop917" /> </linearGradient> <filter style="color-interpolation-filters:sRGB;" inkscape:label="Diffuse Light" id="filter1099" x="-0.0375" y="-0.06001232" width="1.075" height="1.1200246"> <feGaussianBlur in="SourceGraphic" stdDeviation="1" result="blur" id="feGaussianBlur1089" /> <feDiffuseLighting diffuseConstant="1" surfaceScale="10" lighting-color="rgb(255,255,255)" result="diffuse" id="feDiffuseLighting1093"> <feDistantLight elevation="8" azimuth="235" id="feDistantLight1091" /> </feDiffuseLighting> <feComposite in="diffuse" in2="diffuse" operator="arithmetic" k1="1" result="composite1" id="feComposite1095" /> <feComposite in="composite1" in2="SourceGraphic" k1="1" operator="arithmetic" k3="1" result="composite2" id="feComposite1097" /> </filter> </defs> <g id="surface1" style="filter:url(#filter1099)"> <use xlink:href="#surface5" mask="url(#mask0)" id="use922" /> <path style=" stroke:none;fill-rule:nonzero;fill:url(#linear1);" d="M 44.742188 18.121094 L 43.910156 20.757812 L 37.699219 40.433594 C 36.695312 38.902344 35.167969 37.792969 33.402344 37.316406 C 29.417969 36.25 25.324219 38.613281 24.257812 42.597656 C 23.1875 46.582031 25.554688 50.675781 29.535156 51.742188 C 32.753906 52.601562 36.15625 51.226562 37.867188 48.367188 C 37.898438 48.316406 37.925781 48.261719 37.957031 48.210938 C 38.085938 47.984375 38.203125 47.746094 38.308594 47.507812 C 38.335938 47.4375 38.367188 47.371094 38.394531 47.304688 C 38.507812 47.027344 38.601562 46.75 38.679688 46.460938 C 38.691406 46.410156 38.707031 46.355469 38.714844 46.300781 L 45.65625 23.351562 C 46.265625 24.417969 46.792969 26.886719 47.285156 28.320312 C 47.871094 30.027344 48.191406 32.398438 47.949219 33.988281 C 47.707031 35.578125 46.992188 36.980469 45.238281 38.207031 C 44.773438 38.480469 44.5 38.992188 44.53125 39.535156 C 44.5625 40.074219 44.894531 40.546875 45.390625 40.765625 C 45.886719 40.980469 46.464844 40.898438 46.882812 40.550781 C 49.222656 38.914062 50.4375 36.679688 50.78125 34.429688 C 51.449219 29.363281 48.683594 25.09375 46.253906 21.011719 C 45.808594 20.042969 45.246094 19.085938 44.742188 18.121094 Z M 44.742188 18.121094 " id="path924" /> </g></svg>
