<svg width="64" height="64" viewBox="0 0 64 64" version="1.1" xmlns:inkscape="http://www.inkscape.org/namespaces/inkscape"><defs><linearGradient id="linear0" gradientUnits="userSpaceOnUse" x1="0" y1="0" x2="0" y2="1" gradientTransform="matrix(64.09634,0,0,41.097843,2.103992,12.178543)"><stop offset="0" style="stop-color:rgb(0%,96.078432%,86.274511%);stop-opacity:1;"/><stop offset="1" style="stop-color:rgb(0%,54.901963%,49.411765%);stop-opacity:1;"/></linearGradient><filter style="color-interpolation-filters:sRGB;" inkscape:label="Diffuse Light" id="filter184" x="-0.0375" y="-0.0375" width="1.075" height="1.075"><feGaussianBlur in="SourceGraphic" stdDeviation="1" result="blur" id="feGaussianBlur174" /><feDiffuseLighting diffuseConstant="1" surfaceScale="10" lighting-color="rgb(255,255,255)" result="diffuse" id="feDiffuseLighting178"><feDistantLight elevation="8" azimuth="235" id="feDistantLight176" /></feDiffuseLighting><feComposite in="diffuse" in2="diffuse" operator="arithmetic" k1="1" result="composite1" id="feComposite180" /><feComposite in="composite1" in2="SourceGraphic" k1="1" operator="arithmetic" k3="1" result="composite2" id="feComposite182" /></filter></defs><g id="surface1" style="filter:url(#filter184)"><path style=" stroke:none;fill-rule:nonzero;fill:url(#linear0);" d="M 5.863281 1.667969 L 1.183594 13.394531 L 1.183594 53.257812 L 17.566406 53.257812 L 17.566406 62.640625 L 26.921875 62.640625 L 36.285156 53.257812 L 45.648438 53.257812 L 61.875 38.375 L 62.023438 1.667969 Z M 10.539062 6.359375 L 57.347656 6.359375 L 57.347656 36.839844 L 47.984375 46.222656 L 31.605469 46.222656 L 24.585938 53.257812 L 24.585938 46.222656 L 10.539062 46.222656 Z M 26.921875 18.082031 L 26.921875 32.15625 L 31.605469 32.15625 L 31.605469 18.082031 Z M 40.964844 18.082031 L 40.964844 32.15625 L 45.648438 32.15625 L 45.648438 18.082031 Z M 40.964844 18.082031 "/></g></svg>
