<svg width="64" height="64" viewBox="0 0 64 64" version="1.1" xmlns:inkscape="http://www.inkscape.org/namespaces/inkscape"><defs><linearGradient id="linear0" gradientUnits="userSpaceOnUse" x1="0" y1="0" x2="0" y2="1" gradientTransform="matrix(61.216354,0,0,38.785716,2.466475,11.920471)"><stop offset="0" style="stop-color:rgb(41.960785%,64.313728%,100%);stop-opacity:1;"/><stop offset="1" style="stop-color:rgb(0%,43.137255%,100%);stop-opacity:1;"/></linearGradient><linearGradient id="linear1" gradientUnits="userSpaceOnUse" x1="0" y1="0" x2="0" y2="1" gradientTransform="matrix(61.216354,0,0,38.785716,2.466475,11.920471)"><stop offset="0" style="stop-color:rgb(41.960785%,64.313728%,100%);stop-opacity:1;"/><stop offset="1" style="stop-color:rgb(0%,43.137255%,100%);stop-opacity:1;"/></linearGradient><filter style="color-interpolation-filters:sRGB;" inkscape:label="Diffuse Light" id="filter184" x="-0.0375" y="-0.0375" width="1.075" height="1.075"><feGaussianBlur in="SourceGraphic" stdDeviation="1" result="blur" id="feGaussianBlur174" /><feDiffuseLighting diffuseConstant="1" surfaceScale="10" lighting-color="rgb(255,255,255)" result="diffuse" id="feDiffuseLighting178"><feDistantLight elevation="8" azimuth="235" id="feDistantLight176" /></feDiffuseLighting><feComposite in="diffuse" in2="diffuse" operator="arithmetic" k1="1" result="composite1" id="feComposite180" /><feComposite in="composite1" in2="SourceGraphic" k1="1" operator="arithmetic" k3="1" result="composite2" id="feComposite182" /></filter></defs><g id="surface1" style="filter:url(#filter184)"><path style=" stroke:none;fill-rule:nonzero;fill:url(#linear0);" d="M 23.605469 1.363281 L 23.605469 51.089844 L 20.128906 51.089844 L 1.59375 53.847656 L 1.59375 56.605469 L 23.605469 56.605469 L 23.605469 62.136719 L 29.09375 62.136719 L 29.09375 56.605469 L 62.097656 56.605469 L 62.097656 51.089844 L 29.09375 51.089844 L 29.09375 1.363281 Z M 23.605469 1.363281 "/><path style=" stroke:none;fill-rule:nonzero;fill:url(#linear1);" d="M 57.363281 1.511719 C 57.363281 27.480469 34.226562 48.472656 5.101562 48.472656 L 5.101562 54.003906 C 37.007812 54.003906 62.859375 30.789062 62.859375 1.511719 Z M 57.363281 1.511719 "/></g></svg>
