<svg width="64" height="64" viewBox="0 0 64 64" version="1.1" xmlns:inkscape="http://www.inkscape.org/namespaces/inkscape"><defs><linearGradient id="linear0" gradientUnits="userSpaceOnUse" x1="0" y1="0" x2="0" y2="1" gradientTransform="matrix(64,0,0,25.335938,0,19.195312)"><stop offset="0" style="stop-color:rgb(82.352942%,61.176473%,100%);stop-opacity:1;"/><stop offset="1" style="stop-color:rgb(66.666669%,0%,100%);stop-opacity:1;"/></linearGradient><linearGradient id="linear1" gradientUnits="userSpaceOnUse" x1="0" y1="0" x2="0" y2="1" gradientTransform="matrix(29.867188,0,0,32,18.132812,16.125)"><stop offset="0" style="stop-color:rgb(82.352942%,61.176473%,100%);stop-opacity:1;"/><stop offset="1" style="stop-color:rgb(66.666669%,0%,100%);stop-opacity:1;"/></linearGradient><filter style="color-interpolation-filters:sRGB;" inkscape:label="Diffuse Light" id="filter184" x="-0.0375" y="-0.0375" width="1.075" height="1.075"><feGaussianBlur in="SourceGraphic" stdDeviation="1" result="blur" id="feGaussianBlur174" /><feDiffuseLighting diffuseConstant="1" surfaceScale="10" lighting-color="rgb(255,255,255)" result="diffuse" id="feDiffuseLighting178"><feDistantLight elevation="8" azimuth="235" id="feDistantLight176" /></feDiffuseLighting><feComposite in="diffuse" in2="diffuse" operator="arithmetic" k1="1" result="composite1" id="feComposite180" /><feComposite in="composite1" in2="SourceGraphic" k1="1" operator="arithmetic" k3="1" result="composite2" id="feComposite182" /></filter></defs><g id="surface1" style="filter:url(#filter184)"><path style=" stroke:none;fill-rule:evenodd;fill:url(#linear0);" d="M 37.332031 28.925781 L 60.800781 28.925781 C 62.566406 28.925781 64 30.355469 64 32.125 C 64 33.886719 62.566406 35.324219 60.800781 35.324219 L 37.332031 35.324219 C 35.566406 35.324219 34.132812 33.886719 34.132812 32.125 C 34.132812 30.355469 35.566406 28.925781 37.332031 28.925781 Z M 3.199219 19.195312 L 26.667969 19.195312 C 28.433594 19.195312 29.867188 20.632812 29.867188 22.394531 C 29.867188 24.164062 28.433594 25.597656 26.667969 25.597656 L 3.199219 25.597656 C 1.433594 25.597656 0 24.164062 0 22.394531 C 0 20.632812 1.433594 19.195312 3.199219 19.195312 Z M 3.46875 38.132812 L 26.933594 38.132812 C 28.699219 38.132812 30.132812 39.5625 30.132812 41.332031 C 30.132812 43.097656 28.699219 44.53125 26.933594 44.53125 L 3.46875 44.53125 C 1.699219 44.53125 0.269531 43.097656 0.269531 41.332031 C 0.269531 39.5625 1.699219 38.132812 3.46875 38.132812 Z M 3.46875 38.132812 "/><path style=" stroke:none;fill-rule:nonzero;fill:url(#linear1);" d="M 18.132812 48.125 C 20.386719 41.625 21.367188 37.003906 21.332031 32.125 C 21.300781 27.398438 20.316406 22.425781 18.132812 16.125 C 38.8125 16.125 48 32.125 48 32.125 C 48 32.125 38.8125 48.125 18.132812 48.125 Z M 18.132812 48.125 "/></g></svg>
