<svg width="64" height="64" viewBox="0 0 64 64" version="1.1" xmlns:inkscape="http://www.inkscape.org/namespaces/inkscape"><defs><linearGradient id="linear0" gradientUnits="userSpaceOnUse" x1="0" y1="0" x2="0" y2="1" gradientTransform="matrix(69.812752,0,0,68.681746,-2.836463,-2.205537)"><stop offset="0" style="stop-color:rgb(100%,63.137257%,63.137257%);stop-opacity:1;"/><stop offset="1" style="stop-color:rgb(100%,27.843139%,27.843139%);stop-opacity:1;"/></linearGradient><filter style="color-interpolation-filters:sRGB;" inkscape:label="Diffuse Light" id="filter184" x="-0.0375" y="-0.0375" width="1.075" height="1.075"><feGaussianBlur in="SourceGraphic" stdDeviation="1" result="blur" id="feGaussianBlur174" /><feDiffuseLighting diffuseConstant="1" surfaceScale="10" lighting-color="rgb(255,255,255)" result="diffuse" id="feDiffuseLighting178"><feDistantLight elevation="8" azimuth="235" id="feDistantLight176" /></feDiffuseLighting><feComposite in="diffuse" in2="diffuse" operator="arithmetic" k1="1" result="composite1" id="feComposite180" /><feComposite in="composite1" in2="SourceGraphic" k1="1" operator="arithmetic" k3="1" result="composite2" id="feComposite182" /></filter></defs><g id="surface1" style="filter:url(#filter184)"><path style=" stroke:none;fill-rule:nonzero;fill:url(#linear0);" d="M 32.253906 2.351562 C 23.648438 2.351562 15.816406 5.960938 10.324219 11.429688 C 4.863281 16.867188 1.507812 24.332031 1.507812 32.460938 C 1.507812 40.585938 4.847656 48.046875 10.324219 53.496094 C 15.816406 58.960938 23.648438 62.351562 32.253906 62.351562 C 40.851562 62.351562 48.484375 58.949219 53.949219 53.496094 C 59.421875 48.046875 62.773438 40.585938 62.773438 32.460938 C 62.773438 24.320312 59.40625 16.867188 53.949219 11.429688 C 48.484375 5.976562 40.851562 2.351562 32.253906 2.351562 M 32.253906 13.417969 C 37.203125 13.417969 41.683594 15.519531 45.132812 18.957031 C 48.5625 22.367188 50.78125 27.121094 50.78125 32.460938 C 50.78125 33.375 50.71875 34.265625 50.597656 35.144531 C 48.574219 32.25 45.175781 30.347656 41.324219 30.347656 C 35.117188 30.347656 30.09375 35.269531 30.09375 41.34375 C 30.09375 45.464844 32.410156 49.050781 35.828125 50.933594 C 34.675781 51.160156 33.476562 51.273438 32.253906 51.273438 C 27.269531 51.273438 22.777344 49.363281 19.367188 45.960938 C 15.972656 42.585938 13.722656 37.839844 13.722656 32.460938 C 13.722656 27.078125 15.957031 22.347656 19.367188 18.957031 C 22.792969 15.539062 27.300781 13.417969 32.253906 13.417969 "/></g></svg>
