<svg width="64" height="64" viewBox="0 0 64 64" version="1.1" xmlns:inkscape="http://www.inkscape.org/namespaces/inkscape"><defs><linearGradient id="linear0" gradientUnits="userSpaceOnUse" x1="0" y1="0" x2="0" y2="1" gradientTransform="matrix(67.808888,0,0,68.258811,-1.139446,0.0916044)"><stop offset="0" style="stop-color:rgb(0%,96.078432%,86.274511%);stop-opacity:1;"/><stop offset="1" style="stop-color:rgb(0%,54.901963%,49.411765%);stop-opacity:1;"/></linearGradient><filter style="color-interpolation-filters:sRGB;" inkscape:label="Diffuse Light" id="filter184" x="-0.0375" y="-0.0375" width="1.075" height="1.075"><feGaussianBlur in="SourceGraphic" stdDeviation="1" result="blur" id="feGaussianBlur174" /><feDiffuseLighting diffuseConstant="1" surfaceScale="10" lighting-color="rgb(255,255,255)" result="diffuse" id="feDiffuseLighting178"><feDistantLight elevation="8" azimuth="235" id="feDistantLight176" /></feDiffuseLighting><feComposite in="diffuse" in2="diffuse" operator="arithmetic" k1="1" result="composite1" id="feComposite180" /><feComposite in="composite1" in2="SourceGraphic" k1="1" operator="arithmetic" k3="1" result="composite2" id="feComposite182" /></filter></defs><g id="surface1" style="filter:url(#filter184)"><path style=" stroke:none;fill-rule:nonzero;fill:url(#linear0);" d="M 39.121094 1.8125 C 32.210938 1.8125 27.605469 6.855469 27.605469 10.632812 C 27.605469 13.152344 29.90625 14.414062 34.515625 14.414062 C 41.425781 14.414062 46.039062 10.328125 46.039062 6.855469 C 46.039062 4.332031 43.730469 1.8125 39.121094 1.8125 Z M 10.324219 4.332031 C 5.230469 4.332031 2.261719 7.585938 2.261719 13.152344 C 2.261719 19.453125 8.023438 24.492188 13.777344 24.492188 C 18.390625 24.492188 20.695312 20.710938 20.695312 15.671875 C 20.695312 9.375 16.082031 4.332031 10.324219 4.332031 Z M 39.121094 24.492188 C 26.398438 24.492188 16.082031 32.953125 16.082031 43.390625 C 16.082031 53.824219 26.398438 62.289062 39.121094 62.289062 C 51.847656 62.289062 62.160156 53.824219 62.160156 43.390625 C 62.160156 32.953125 51.847656 24.492188 39.121094 24.492188 Z M 39.121094 24.492188 "/></g></svg>
