<svg width="64" height="64" viewBox="0 0 64 64" version="1.1" xmlns:inkscape="http://www.inkscape.org/namespaces/inkscape"><defs><linearGradient id="linear0" gradientUnits="userSpaceOnUse" x1="0" y1="0" x2="0" y2="1" gradientTransform="matrix(61.115705,0,0,39.049414,0.504547,11.537367)"><stop offset="0" style="stop-color:rgb(82.352942%,61.176473%,100%);stop-opacity:1;"/><stop offset="1" style="stop-color:rgb(66.666669%,0%,100%);stop-opacity:1;"/></linearGradient><filter style="color-interpolation-filters:sRGB;" inkscape:label="Diffuse Light" id="filter184" x="-0.0375" y="-0.0375" width="1.075" height="1.075"><feGaussianBlur in="SourceGraphic" stdDeviation="1" result="blur" id="feGaussianBlur174" /><feDiffuseLighting diffuseConstant="1" surfaceScale="10" lighting-color="rgb(255,255,255)" result="diffuse" id="feDiffuseLighting178"><feDistantLight elevation="8" azimuth="235" id="feDistantLight176" /></feDiffuseLighting><feComposite in="diffuse" in2="diffuse" operator="arithmetic" k1="1" result="composite1" id="feComposite180" /><feComposite in="composite1" in2="SourceGraphic" k1="1" operator="arithmetic" k3="1" result="composite2" id="feComposite182" /></filter></defs><g id="surface1" style="filter:url(#filter184)"><path style=" stroke:none;fill-rule:nonzero;fill:url(#linear0);" d="M 29.851562 2.152344 C 27.265625 2.152344 25.167969 4.40625 25.167969 7.1875 C 25.167969 9.964844 27.265625 12.21875 29.851562 12.21875 C 32.433594 12.21875 34.53125 9.964844 34.53125 7.1875 C 34.53125 4.40625 32.433594 2.152344 29.851562 2.152344 Z M 42.730469 12.21875 C 39.496094 12.21875 36.871094 15.03125 36.871094 18.507812 C 36.871094 21.980469 39.496094 24.792969 42.730469 24.792969 C 45.96875 24.792969 48.582031 28.160156 48.582031 32.34375 C 48.582031 36.527344 45.96875 39.890625 42.730469 39.890625 C 39.496094 39.890625 36.871094 42.707031 36.871094 46.179688 C 36.871094 49.65625 39.496094 52.46875 42.730469 52.46875 C 45.960938 52.46875 48.582031 49.65625 48.582031 46.179688 C 48.582031 42.695312 51.71875 39.890625 55.609375 39.890625 C 59.488281 39.890625 62.628906 36.515625 62.628906 32.34375 C 62.628906 28.175781 59.488281 24.792969 55.609375 24.792969 C 51.71875 24.792969 48.582031 21.988281 48.582031 18.507812 C 48.582031 15.03125 45.960938 12.21875 42.730469 12.21875 Z M 16.96875 17.25 C 15.027344 17.25 13.460938 18.9375 13.460938 21.019531 C 13.460938 23.109375 15.027344 24.792969 16.96875 24.792969 C 18.914062 24.792969 20.480469 23.109375 20.480469 21.019531 C 20.480469 18.9375 18.914062 17.25 16.96875 17.25 Z M 29.851562 27.308594 C 27.265625 27.308594 25.167969 29.566406 25.167969 32.34375 C 25.167969 35.125 27.265625 37.375 29.851562 37.375 C 32.433594 37.375 34.53125 35.125 34.53125 32.34375 C 34.53125 29.566406 32.433594 27.308594 29.851562 27.308594 Z M 4.089844 32.34375 C 2.796875 32.34375 1.75 33.472656 1.75 34.859375 C 1.75 36.25 2.796875 37.375 4.089844 37.375 C 5.386719 37.375 6.433594 36.25 6.433594 34.859375 C 6.433594 33.472656 5.386719 32.34375 4.089844 32.34375 Z M 16.96875 42.40625 C 15.027344 42.40625 13.460938 44.097656 13.460938 46.179688 C 13.460938 48.265625 15.027344 49.953125 16.96875 49.953125 C 18.914062 49.953125 20.480469 48.265625 20.480469 46.179688 C 20.480469 44.097656 18.914062 42.40625 16.96875 42.40625 Z M 29.851562 52.46875 C 27.265625 52.46875 25.167969 54.726562 25.167969 57.503906 C 25.167969 60.285156 27.265625 62.535156 29.851562 62.535156 C 32.433594 62.535156 34.53125 60.285156 34.53125 57.503906 C 34.53125 54.726562 32.433594 52.46875 29.851562 52.46875 Z M 29.851562 52.46875 "/></g></svg>
