<svg width="64" height="64" viewBox="0 0 64 64" version="1.1" xmlns:inkscape="http://www.inkscape.org/namespaces/inkscape"><defs><linearGradient id="linear0" gradientUnits="userSpaceOnUse" x1="0" y1="0" x2="0" y2="1" gradientTransform="matrix(62.418367,0,0,42.211922,1.25811,10.889557)"><stop offset="0" style="stop-color:rgb(92.941177%,83.529413%,72.549021%);stop-opacity:1;"/><stop offset="1" style="stop-color:rgb(81.960785%,71.372551%,59.215689%);stop-opacity:1;"/></linearGradient><filter style="color-interpolation-filters:sRGB;" inkscape:label="Diffuse Light" id="filter184" x="-0.0375" y="-0.0375" width="1.075" height="1.075"><feGaussianBlur in="SourceGraphic" stdDeviation="1" result="blur" id="feGaussianBlur174" /><feDiffuseLighting diffuseConstant="1" surfaceScale="10" lighting-color="rgb(255,255,255)" result="diffuse" id="feDiffuseLighting178"><feDistantLight elevation="8" azimuth="235" id="feDistantLight176" /></feDiffuseLighting><feComposite in="diffuse" in2="diffuse" operator="arithmetic" k1="1" result="composite1" id="feComposite180" /><feComposite in="composite1" in2="SourceGraphic" k1="1" operator="arithmetic" k3="1" result="composite2" id="feComposite182" /></filter></defs><g id="surface1" style="filter:url(#filter184)"><path style=" stroke:none;fill-rule:evenodd;fill:url(#linear0);" d="M 40.664062 10.890625 L 49.03125 12.804688 L 50.832031 19.269531 L 54.507812 14.28125 L 63.675781 16.585938 L 55.46875 27.527344 L 60.101562 43.804688 L 50.234375 42.65625 L 48.480469 33.820312 L 44.011719 41.085938 L 36.324219 38.238281 L 44.035156 25.226562 M 17.371094 19.679688 L 26.949219 21.226562 L 29.796875 28.308594 L 33.371094 22.1875 L 43.015625 23.652344 L 34.175781 38.714844 L 32.011719 53.101562 L 23.058594 51.40625 L 24.59375 38.496094 M 10.769531 46.164062 L 1.257812 19.898438 L 8.917969 15.621094 L 9.105469 15.328125 L 15.285156 33.183594 L 19.773438 30.300781 L 23.101562 38.496094 "/></g></svg>
