<svg width="64" height="64" viewBox="0 0 64 64" version="1.1" xmlns:inkscape="http://www.inkscape.org/namespaces/inkscape"><defs><linearGradient id="linear0" gradientUnits="userSpaceOnUse" x1="0" y1="0" x2="0" y2="1" gradientTransform="matrix(59.07218,0,0,36.534206,0.942195,8.978949)"><stop offset="0" style="stop-color:rgb(0%,73.333335%,100%);stop-opacity:1;"/><stop offset="1" style="stop-color:rgb(0%,52.156866%,70.980394%);stop-opacity:1;"/></linearGradient><filter style="color-interpolation-filters:sRGB;" inkscape:label="Diffuse Light" id="filter184" x="-0.0375" y="-0.0375" width="1.075" height="1.075"><feGaussianBlur in="SourceGraphic" stdDeviation="1" result="blur" id="feGaussianBlur174" /><feDiffuseLighting diffuseConstant="1" surfaceScale="10" lighting-color="rgb(255,255,255)" result="diffuse" id="feDiffuseLighting178"><feDistantLight elevation="8" azimuth="235" id="feDistantLight176" /></feDiffuseLighting><feComposite in="diffuse" in2="diffuse" operator="arithmetic" k1="1" result="composite1" id="feComposite180" /><feComposite in="composite1" in2="SourceGraphic" k1="1" operator="arithmetic" k3="1" result="composite2" id="feComposite182" /></filter></defs><g id="surface1" style="filter:url(#filter184)"><path style=" stroke:none;fill-rule:nonzero;fill:url(#linear0);" d="M 0.839844 8.734375 L 0.839844 20.054688 L 26.660156 20.054688 L 26.660156 8.734375 Z M 36.984375 8.734375 L 36.984375 20.054688 L 47.3125 20.054688 L 47.3125 8.734375 Z M 0.839844 25.714844 L 0.839844 31.375 L 21.496094 31.375 L 21.496094 25.714844 Z M 26.660156 25.714844 L 26.660156 31.375 L 57.636719 31.375 L 57.636719 25.714844 Z M 0.839844 37.039062 L 0.839844 42.699219 L 21.496094 42.699219 L 21.496094 37.039062 Z M 26.660156 37.039062 L 26.660156 42.699219 L 47.3125 42.699219 L 47.3125 37.039062 Z M 0.839844 48.359375 L 0.839844 54.019531 L 36.984375 54.019531 L 36.984375 48.359375 Z M 42.148438 48.359375 L 42.148438 54.019531 L 62.800781 54.019531 L 62.800781 48.359375 Z M 42.148438 48.359375 "/></g></svg>
