<svg width="64" height="64" viewBox="0 0 64 64" version="1.1" xmlns:inkscape="http://www.inkscape.org/namespaces/inkscape"><defs><linearGradient id="linear0" gradientUnits="userSpaceOnUse" x1="0" y1="0" x2="0" y2="1" gradientTransform="matrix(59.29607,0,0,36.8485,2.362592,14.238313)"><stop offset="0" style="stop-color:rgb(41.960785%,64.313728%,100%);stop-opacity:1;"/><stop offset="1" style="stop-color:rgb(0%,43.137255%,100%);stop-opacity:1;"/></linearGradient><filter style="color-interpolation-filters:sRGB;" inkscape:label="Diffuse Light" id="filter184" x="-0.0375" y="-0.0375" width="1.075" height="1.075"><feGaussianBlur in="SourceGraphic" stdDeviation="1" result="blur" id="feGaussianBlur174" /><feDiffuseLighting diffuseConstant="1" surfaceScale="10" lighting-color="rgb(255,255,255)" result="diffuse" id="feDiffuseLighting178"><feDistantLight elevation="8" azimuth="235" id="feDistantLight176" /></feDiffuseLighting><feComposite in="diffuse" in2="diffuse" operator="arithmetic" k1="1" result="composite1" id="feComposite180" /><feComposite in="composite1" in2="SourceGraphic" k1="1" operator="arithmetic" k3="1" result="composite2" id="feComposite182" /></filter></defs><g id="surface1" style="filter:url(#filter184)"><path style=" stroke:none;fill-rule:nonzero;fill:url(#linear0);" d="M 36.457031 6.96875 C 34.390625 6.96875 31.972656 7.9375 31.972656 7.9375 L 11.804688 24.65625 C 6.226562 16.308594 0.601562 25.265625 0.601562 29.230469 C 0.601562 32.011719 0.601562 34.792969 2.921875 34.792969 C 4.296875 34.792969 4.851562 34.761719 5.078125 33.605469 L 5.078125 37.152344 C 5.078125 41.78125 5.878906 45.535156 9.730469 45.535156 C 14.859375 45.535156 16.863281 43.078125 17.429688 38.90625 C 17.511719 38.945312 17.605469 38.972656 17.6875 39.015625 C 17.175781 40.265625 16.867188 41.65625 16.867188 43.140625 C 16.867188 48.429688 19.8125 52.710938 24.304688 52.710938 C 27.449219 52.710938 30.484375 50.589844 32.042969 47.515625 C 32.019531 48.050781 31.972656 48.546875 31.972656 49.117188 C 31.972656 53.746094 34.058594 57.5 39.59375 57.5 C 43.304688 57.5 45.421875 53.746094 45.421875 49.117188 L 45.421875 42.101562 C 46.167969 42.054688 47 42.023438 47.660156 41.964844 L 47.660156 46.09375 C 47.660156 50.367188 50.167969 53.835938 53.261719 53.835938 C 56.359375 53.835938 58.867188 50.367188 58.867188 46.09375 L 58.867188 39.273438 C 58.867188 39.273438 58.703125 43.140625 61.027344 43.140625 C 63.351562 43.140625 63.351562 40.351562 63.351562 37.574219 C 63.351562 33.609375 61.027344 29.226562 54.050781 29.226562 C 52.386719 28.144531 51.730469 26.445312 48.011719 26.445312 L 49.902344 17.074219 L 42.433594 20.878906 L 44.226562 9.492188 L 36.457031 15.8125 L 36.457031 6.964844 "/></g></svg>
