<svg width="64" height="64" viewBox="0 0 64 64" version="1.1" xmlns:inkscape="http://www.inkscape.org/namespaces/inkscape"><defs><linearGradient id="linear0" gradientUnits="userSpaceOnUse" x1="0" y1="0" x2="0" y2="1" gradientTransform="matrix(56,0,0,35.898438,4,14.050781)"><stop offset="0" style="stop-color:rgb(100%,63.137257%,63.137257%);stop-opacity:1;"/><stop offset="1" style="stop-color:rgb(100%,27.843139%,27.843139%);stop-opacity:1;"/></linearGradient><filter style="color-interpolation-filters:sRGB;" inkscape:label="Diffuse Light" id="filter184" x="-0.0375" y="-0.0375" width="1.075" height="1.075"><feGaussianBlur in="SourceGraphic" stdDeviation="1" result="blur" id="feGaussianBlur174" /><feDiffuseLighting diffuseConstant="1" surfaceScale="10" lighting-color="rgb(255,255,255)" result="diffuse" id="feDiffuseLighting178"><feDistantLight elevation="8" azimuth="235" id="feDistantLight176" /></feDiffuseLighting><feComposite in="diffuse" in2="diffuse" operator="arithmetic" k1="1" result="composite1" id="feComposite180" /><feComposite in="composite1" in2="SourceGraphic" k1="1" operator="arithmetic" k3="1" result="composite2" id="feComposite182" /></filter></defs><g id="surface1" style="filter:url(#filter184)"><path style=" stroke:none;fill-rule:nonzero;fill:url(#linear0);" d="M 3.449219 4.101562 L 3.449219 33.65625 L 12.960938 33.65625 L 12.960938 13.195312 L 22.476562 13.195312 C 26.429688 13.195312 29.613281 16.238281 29.613281 20.015625 L 29.613281 33.65625 L 36.746094 33.65625 L 36.746094 13.195312 L 46.261719 13.195312 C 50.214844 13.195312 53.394531 16.238281 53.394531 20.015625 L 53.394531 33.65625 L 60.53125 33.65625 L 60.53125 20.015625 C 60.53125 12.457031 54.167969 6.375 46.261719 6.375 L 12.960938 6.375 L 12.960938 4.101562 Z M 21.285156 15.46875 C 18.003906 15.46875 15.339844 19.539062 15.339844 24.5625 C 15.339844 29.585938 18.003906 33.65625 21.285156 33.65625 C 24.570312 33.65625 27.234375 29.585938 27.234375 24.5625 C 27.234375 19.539062 24.570312 15.46875 21.285156 15.46875 Z M 45.070312 15.46875 C 41.789062 15.46875 39.125 19.539062 39.125 24.5625 C 39.125 29.585938 41.789062 33.65625 45.070312 33.65625 C 48.355469 33.65625 51.015625 29.585938 51.015625 24.5625 C 51.015625 19.539062 48.355469 15.46875 45.070312 15.46875 Z M 21.285156 20.015625 C 23.257812 20.015625 24.855469 22.050781 24.855469 24.5625 C 24.855469 27.074219 23.257812 29.109375 21.285156 29.109375 C 19.316406 29.109375 17.71875 27.074219 17.71875 24.5625 C 17.71875 22.050781 19.316406 20.015625 21.285156 20.015625 Z M 45.070312 20.015625 C 47.042969 20.015625 48.640625 22.050781 48.640625 24.5625 C 48.640625 27.074219 47.042969 29.109375 45.070312 29.109375 C 43.101562 29.109375 41.503906 27.074219 41.503906 24.5625 C 41.503906 22.050781 43.101562 20.015625 45.070312 20.015625 Z M 3.449219 38.203125 L 3.449219 45.027344 L 41.503906 45.027344 C 47.449219 45.027344 53.394531 48.621094 53.394531 54.121094 L 53.394531 58.667969 L 60.53125 58.667969 L 60.53125 54.121094 C 60.53125 47.300781 54.347656 45.027344 54.347656 45.027344 L 60.53125 45.027344 L 60.53125 38.203125 Z M 3.449219 38.203125 "/></g></svg>
