<svg width="64" height="64" viewBox="0 0 64 64" version="1.1" xmlns:inkscape="http://www.inkscape.org/namespaces/inkscape"><defs><linearGradient id="linear0" gradientUnits="userSpaceOnUse" x1="0" y1="0" x2="0" y2="1" gradientTransform="matrix(61.65029,0,0,40.380496,1.248868,10.258073)"><stop offset="0" style="stop-color:rgb(81.960785%,70.980394%,59.215689%);stop-opacity:1;"/><stop offset="1" style="stop-color:rgb(65.098041%,53.725493%,41.568628%);stop-opacity:1;"/></linearGradient><filter style="color-interpolation-filters:sRGB;" inkscape:label="Diffuse Light" id="filter184" x="-0.0375" y="-0.0375" width="1.075" height="1.075"><feGaussianBlur in="SourceGraphic" stdDeviation="1" result="blur" id="feGaussianBlur174" /><feDiffuseLighting diffuseConstant="1" surfaceScale="10" lighting-color="rgb(255,255,255)" result="diffuse" id="feDiffuseLighting178"><feDistantLight elevation="8" azimuth="235" id="feDistantLight176" /></feDiffuseLighting><feComposite in="diffuse" in2="diffuse" operator="arithmetic" k1="1" result="composite1" id="feComposite180" /><feComposite in="composite1" in2="SourceGraphic" k1="1" operator="arithmetic" k3="1" result="composite2" id="feComposite182" /></filter></defs><g id="surface1" style="filter:url(#filter184)"><path style=" stroke:none;fill-rule:nonzero;fill:url(#linear0);" d="M 23.496094 1.761719 C 22.277344 1.761719 21.292969 2.957031 21.292969 4.433594 L 21.292969 5.765625 C 21.292969 7.101562 21.292969 9.773438 19.089844 9.773438 C 16.402344 9.773438 15.566406 7.101562 10.28125 7.101562 C 3.871094 7.101562 1.472656 12.445312 1.472656 17.550781 C 1.472656 17.632812 1.46875 17.710938 1.46875 17.785156 C 2.535156 15.890625 4 15.113281 5.871094 15.113281 C 10.273438 15.113281 12.476562 20.457031 12.476562 25.800781 L 12.476562 29.8125 C 12.476562 40.496094 30.097656 37.398438 30.097656 44.503906 L 30.097656 60.539062 C 30.097656 62.019531 31.082031 63.210938 32.300781 63.210938 C 33.519531 63.210938 34.503906 62.019531 34.503906 60.539062 L 34.503906 44.503906 C 34.503906 37.398438 52.121094 40.496094 52.121094 29.8125 L 52.121094 25.800781 C 52.121094 20.457031 54.324219 15.113281 58.726562 15.113281 C 60.597656 15.113281 62.078125 15.890625 63.136719 17.785156 C 63.136719 17.710938 63.132812 17.632812 63.132812 17.550781 C 63.136719 12.445312 60.75 7.101562 54.320312 7.101562 C 49.035156 7.101562 48.195312 9.773438 45.507812 9.773438 C 43.304688 9.773438 43.304688 7.101562 43.304688 5.765625 L 43.304688 4.433594 C 43.304688 2.957031 42.320312 1.761719 41.105469 1.761719 C 39.886719 1.761719 38.902344 2.957031 38.902344 4.433594 C 38.902344 8.542969 36.703125 9.773438 32.296875 9.773438 C 27.890625 9.773438 25.6875 8.542969 25.6875 4.433594 C 25.6875 2.957031 24.703125 1.761719 23.484375 1.761719 Z M 23.496094 1.761719 "/></g></svg>
