<svg width="64" height="64" viewBox="0 0 64 64" version="1.1" xmlns:inkscape="http://www.inkscape.org/namespaces/inkscape"><defs><linearGradient id="linear0" gradientUnits="userSpaceOnUse" x1="0" y1="0" x2="0" y2="1" gradientTransform="matrix(61.419223,0,0,38.814024,1.459617,12.012212)"><stop offset="0" style="stop-color:rgb(92.941177%,83.529413%,72.549021%);stop-opacity:1;"/><stop offset="1" style="stop-color:rgb(81.960785%,71.372551%,59.215689%);stop-opacity:1;"/></linearGradient><filter style="color-interpolation-filters:sRGB;" inkscape:label="Diffuse Light" id="filter184" x="-0.0375" y="-0.0375" width="1.075" height="1.075"><feGaussianBlur in="SourceGraphic" stdDeviation="1" result="blur" id="feGaussianBlur174" /><feDiffuseLighting diffuseConstant="1" surfaceScale="10" lighting-color="rgb(255,255,255)" result="diffuse" id="feDiffuseLighting178"><feDistantLight elevation="8" azimuth="235" id="feDistantLight176" /></feDiffuseLighting><feComposite in="diffuse" in2="diffuse" operator="arithmetic" k1="1" result="composite1" id="feComposite180" /><feComposite in="composite1" in2="SourceGraphic" k1="1" operator="arithmetic" k3="1" result="composite2" id="feComposite182" /></filter></defs><g id="surface1" style="filter:url(#filter184)"><path style=" stroke:none;fill-rule:nonzero;fill:url(#linear0);" d="M 55.753906 1.066406 L 51.992188 4.597656 L 51.765625 2.5625 L 46.355469 4.597656 C 46.355469 4.597656 33.632812 10.582031 29.441406 15.1875 C 25.457031 19.582031 23.390625 27.261719 21.925781 32.839844 L 21.925781 41.664062 L 22.863281 43.429688 L 35.078125 43.429688 L 29.441406 39.898438 L 36.960938 39.898438 L 35.078125 38.132812 L 44.472656 32.839844 L 55.75 1.066406 Z M 55.753906 1.066406 "/><path style=" stroke:none;fill-rule:nonzero;fill:rgb(89.019608%,89.019608%,89.019608%);fill-opacity:1;" d="M 39.566406 22.523438 L 36.464844 23.75 L 7.367188 62.960938 L 10.292969 62.960938 L 39.539062 22.597656 Z M 39.566406 22.523438 "/></g></svg>
