<svg width="64" height="64" viewBox="0 0 64 64" version="1.1" xmlns:inkscape="http://www.inkscape.org/namespaces/inkscape"><defs><linearGradient id="linear0" gradientUnits="userSpaceOnUse" x1="0" y1="0" x2="0" y2="1" gradientTransform="matrix(64,0,0,53.359375,0,5.320312)"><stop offset="0" style="stop-color:rgb(100%,73.333335%,0%);stop-opacity:1;"/><stop offset="1" style="stop-color:rgb(70.19608%,51.372552%,0%);stop-opacity:1;"/></linearGradient><filter style="color-interpolation-filters:sRGB;" inkscape:label="Diffuse Light" id="filter184" x="-0.0375" y="-0.0375" width="1.075" height="1.075"><feGaussianBlur in="SourceGraphic" stdDeviation="1" result="blur" id="feGaussianBlur174" /><feDiffuseLighting diffuseConstant="1" surfaceScale="10" lighting-color="rgb(255,255,255)" result="diffuse" id="feDiffuseLighting178"><feDistantLight elevation="8" azimuth="235" id="feDistantLight176" /></feDiffuseLighting><feComposite in="diffuse" in2="diffuse" operator="arithmetic" k1="1" result="composite1" id="feComposite180" /><feComposite in="composite1" in2="SourceGraphic" k1="1" operator="arithmetic" k3="1" result="composite2" id="feComposite182" /></filter></defs><g id="surface1" style="filter:url(#filter184)"><path style=" stroke:none;fill-rule:evenodd;fill:url(#linear0);" d="M 32 23.796875 L 0 5.320312 L 0 43.308594 L 10.667969 49.710938 L 10.667969 35.113281 L 7.113281 33.101562 L 7.113281 21.96875 L 31.96875 36.320312 L 32 36.300781 L 32.03125 36.320312 L 56.921875 21.953125 L 64 17.863281 L 64 5.320312 Z M 32 46.996094 L 49.777344 36.730469 L 49.777344 48.410156 L 42.121094 52.835938 L 40.46875 53.789062 L 32 58.679688 L 21.878906 52.835938 L 21.882812 52.835938 L 14.222656 48.410156 L 14.222656 36.730469 Z M 64 17.875 L 56.875 22 L 56.886719 33.101562 L 53.332031 35.113281 L 53.332031 49.710938 L 64 43.308594 Z M 64 17.875 "/></g></svg>
