<svg width="64" height="64" viewBox="0 0 64 64" version="1.1" xmlns:inkscape="http://www.inkscape.org/namespaces/inkscape"><defs><linearGradient id="linear0" gradientUnits="userSpaceOnUse" x1="0" y1="0" x2="0" y2="1" gradientTransform="matrix(55.992188,0,0,56,4.003906,4)"><stop offset="0" style="stop-color:rgb(82.352942%,61.176473%,100%);stop-opacity:1;"/><stop offset="1" style="stop-color:rgb(66.666669%,0%,100%);stop-opacity:1;"/></linearGradient><filter style="color-interpolation-filters:sRGB;" inkscape:label="Diffuse Light" id="filter184" x="-0.0375" y="-0.0375" width="1.075" height="1.075"><feGaussianBlur in="SourceGraphic" stdDeviation="1" result="blur" id="feGaussianBlur174" /><feDiffuseLighting diffuseConstant="1" surfaceScale="10" lighting-color="rgb(255,255,255)" result="diffuse" id="feDiffuseLighting178"><feDistantLight elevation="8" azimuth="235" id="feDistantLight176" /></feDiffuseLighting><feComposite in="diffuse" in2="diffuse" operator="arithmetic" k1="1" result="composite1" id="feComposite180" /><feComposite in="composite1" in2="SourceGraphic" k1="1" operator="arithmetic" k3="1" result="composite2" id="feComposite182" /></filter></defs><g id="surface1" style="filter:url(#filter184)"><path style=" stroke:none;fill-rule:nonzero;fill:url(#linear0);" d="M 32.8125 1.859375 L 32.8125 30.59375 L 57.804688 16.21875 Z M 31.074219 1.984375 L 5.332031 16.785156 L 31.027344 31.5625 C 31.109375 21.707031 31.085938 11.847656 31.074219 1.984375 Z M 58.78125 17.648438 C 50.398438 22.464844 42.027344 27.296875 33.640625 32.105469 C 42.015625 36.933594 50.410156 41.738281 58.78125 46.578125 L 58.78125 17.648438 M 31.027344 32.738281 L 5.332031 47.515625 L 31.011719 62.28125 C 31.003906 52.4375 31 42.585938 31.027344 32.738281 M 32.75 33.574219 L 32.75 62.484375 L 57.878906 48.03125 C 49.5 43.210938 41.125 38.398438 32.75 33.574219 "/></g></svg>
