<svg width="64" height="64" viewBox="0 0 64 64" version="1.1" xmlns:inkscape="http://www.inkscape.org/namespaces/inkscape"><defs><linearGradient id="linear0" gradientUnits="userSpaceOnUse" x1="0" y1="0" x2="0" y2="1" gradientTransform="matrix(56,0,0,35.898438,4,14.050781)"><stop offset="0" style="stop-color:rgb(61.176473%,69.803923%,85.09804%);stop-opacity:1;"/><stop offset="1" style="stop-color:rgb(44.313726%,52.156866%,65.882355%);stop-opacity:1;"/></linearGradient><filter style="color-interpolation-filters:sRGB;" inkscape:label="Diffuse Light" id="filter184" x="-0.0375" y="-0.0375" width="1.075" height="1.075"><feGaussianBlur in="SourceGraphic" stdDeviation="1" result="blur" id="feGaussianBlur174" /><feDiffuseLighting diffuseConstant="1" surfaceScale="10" lighting-color="rgb(255,255,255)" result="diffuse" id="feDiffuseLighting178"><feDistantLight elevation="8" azimuth="235" id="feDistantLight176" /></feDiffuseLighting><feComposite in="diffuse" in2="diffuse" operator="arithmetic" k1="1" result="composite1" id="feComposite180" /><feComposite in="composite1" in2="SourceGraphic" k1="1" operator="arithmetic" k3="1" result="composite2" id="feComposite182" /></filter></defs><g id="surface1" style="filter:url(#filter184)"><path style=" stroke:none;fill-rule:nonzero;fill:url(#linear0);" d="M 57.859375 2.960938 L 30.972656 24.214844 L 11.707031 24.214844 L 4.3125 27.832031 L 11.707031 31.449219 L 21.773438 31.449219 L 3.671875 48.632812 L 3.671875 55.132812 L 24.511719 38.574219 L 42.84375 60.050781 C 44.617188 59.035156 46.253906 57.90625 47.851562 56.660156 L 29.691406 34.449219 L 33.472656 31.453125 L 40.519531 31.453125 C 40.519531 31.453125 40.59375 31.441406 40.691406 31.339844 C 40.988281 31.03125 41.566406 30.109375 41.566406 27.832031 C 41.566406 26.652344 41.386719 25.898438 41.160156 25.347656 L 61.121094 9.464844 C 60.226562 7.179688 59.136719 5.035156 57.863281 2.960938 Z M 57.859375 2.960938 "/></g></svg>
