<svg xmlns="http://www.w3.org/2000/svg" xmlns:xlink="http://www.w3.org/1999/xlink" width="64" height="64" viewBox="0 0 64 64" version="1.1"><path style=" stroke:none;fill-rule:nonzero;fill:rgb(100%,100%,100%);fill-opacity:1;" d="M 15.65625 28.648438 C 17.121094 30.113281 17.121094 32.488281 15.65625 33.953125 C 14.191406 35.421875 11.8125 35.421875 10.347656 33.953125 C 8.882812 32.488281 8.882812 30.113281 10.347656 28.648438 C 11.8125 27.179688 14.191406 27.179688 15.65625 28.648438 Z M 15.65625 28.648438 "/><path style=" stroke:none;fill-rule:nonzero;fill:rgb(100%,100%,100%);fill-opacity:1;" d="M 25.171875 19.128906 C 26.640625 20.59375 26.640625 22.972656 25.171875 24.4375 C 23.707031 25.902344 21.332031 25.902344 19.867188 24.4375 C 18.398438 22.972656 18.398438 20.59375 19.867188 19.128906 C 21.332031 17.664062 23.707031 17.664062 25.171875 19.128906 Z M 25.171875 19.128906 "/><path style=" stroke:none;fill-rule:nonzero;fill:rgb(100%,100%,100%);fill-opacity:1;" d="M 34.691406 9.613281 C 36.15625 11.078125 36.15625 13.453125 34.691406 14.917969 C 33.226562 16.386719 30.847656 16.386719 29.382812 14.917969 C 27.917969 13.453125 27.917969 11.078125 29.382812 9.613281 C 30.847656 8.144531 33.226562 8.144531 34.691406 9.613281 Z M 34.691406 9.613281 "/></svg>
