<svg width="64" height="64" viewBox="0 0 64 64" version="1.1" xmlns:inkscape="http://www.inkscape.org/namespaces/inkscape"><defs><linearGradient id="linear0" gradientUnits="userSpaceOnUse" x1="0" y1="0" x2="0" y2="1" gradientTransform="matrix(104.690206,0,0,78.344123,-22.614843,-6.962271)"><stop offset="0" style="stop-color:rgb(100%,63.137257%,63.137257%);stop-opacity:1;"/><stop offset="1" style="stop-color:rgb(100%,27.843139%,27.843139%);stop-opacity:1;"/></linearGradient><filter style="color-interpolation-filters:sRGB;" inkscape:label="Diffuse Light" id="filter184" x="-0.0375" y="-0.0375" width="1.075" height="1.075"><feGaussianBlur in="SourceGraphic" stdDeviation="1" result="blur" id="feGaussianBlur174" /><feDiffuseLighting diffuseConstant="1" surfaceScale="10" lighting-color="rgb(255,255,255)" result="diffuse" id="feDiffuseLighting178"><feDistantLight elevation="8" azimuth="235" id="feDistantLight176" /></feDiffuseLighting><feComposite in="diffuse" in2="diffuse" operator="arithmetic" k1="1" result="composite1" id="feComposite180" /><feComposite in="composite1" in2="SourceGraphic" k1="1" operator="arithmetic" k3="1" result="composite2" id="feComposite182" /></filter></defs><g id="surface1" style="filter:url(#filter184)"><path style=" stroke:none;fill-rule:nonzero;fill:url(#linear0);" d="M 10.484375 3.550781 C 7.21875 3.550781 4.582031 5.515625 4.582031 7.953125 L 4.582031 56.292969 C 4.582031 58.71875 7.21875 60.683594 10.484375 60.683594 C 13.757812 60.683594 16.378906 58.71875 16.378906 56.292969 L 16.378906 41.457031 C 19.335938 42.636719 22.0625 43.101562 25.238281 43.101562 C 30.78125 43.101562 36.097656 41.664062 39.976562 38.714844 C 43.863281 41.664062 49.171875 43.101562 54.722656 43.101562 C 57.980469 43.101562 60.617188 41.140625 60.617188 38.714844 C 60.617188 36.28125 57.980469 34.3125 54.722656 34.3125 C 49.894531 34.3125 45.878906 31.320312 45.878906 27.722656 L 45.878906 7.953125 C 45.878906 5.515625 43.25 3.550781 39.976562 3.550781 C 36.707031 3.550781 34.082031 5.515625 34.082031 7.953125 L 34.082031 27.722656 C 34.082031 31.363281 30.125 34.3125 25.238281 34.3125 C 20.34375 34.3125 16.378906 31.363281 16.378906 27.722656 L 16.378906 7.953125 C 16.378906 5.515625 13.757812 3.550781 10.484375 3.550781 Z M 10.484375 3.550781 "/></g></svg>
