<svg width="64" height="64" viewBox="0 0 64 64" version="1.1" xmlns:inkscape="http://www.inkscape.org/namespaces/inkscape"><defs><linearGradient id="linear0" gradientUnits="userSpaceOnUse" x1="0" y1="0" x2="0" y2="1" gradientTransform="matrix(63.996094,0,0,55.46875,0,2.546875)"><stop offset="0" style="stop-color:rgb(82.352942%,61.176473%,100%);stop-opacity:1;"/><stop offset="1" style="stop-color:rgb(66.666669%,0%,100%);stop-opacity:1;"/></linearGradient><filter style="color-interpolation-filters:sRGB;" inkscape:label="Diffuse Light" id="filter184" x="-0.0375" y="-0.0375" width="1.075" height="1.075"><feGaussianBlur in="SourceGraphic" stdDeviation="1" result="blur" id="feGaussianBlur174" /><feDiffuseLighting diffuseConstant="1" surfaceScale="10" lighting-color="rgb(255,255,255)" result="diffuse" id="feDiffuseLighting178"><feDistantLight elevation="8" azimuth="235" id="feDistantLight176" /></feDiffuseLighting><feComposite in="diffuse" in2="diffuse" operator="arithmetic" k1="1" result="composite1" id="feComposite180" /><feComposite in="composite1" in2="SourceGraphic" k1="1" operator="arithmetic" k3="1" result="composite2" id="feComposite182" /></filter></defs><g id="surface1" style="filter:url(#filter184)"><path style=" stroke:none;fill-rule:evenodd;fill:url(#linear0);" d="M 45.539062 2.546875 C 39.957031 2.53125 34.28125 4.140625 29.804688 6.53125 C 12.25 15.898438 0 39.421875 0 39.421875 C 25.945312 67.046875 46.507812 55.710938 46.507812 55.710938 C 66.382812 46.21875 63.898438 12.507812 63.898438 12.507812 C 59.75 5.289062 52.71875 2.570312 45.539062 2.546875 Z M 20.296875 20.273438 C 26.726562 20.273438 41.105469 20.289062 44.8125 20.289062 C 46.613281 20.289062 47.027344 20.472656 48.46875 20.960938 C 50.992188 22.242188 51.933594 25.039062 52.039062 27.570312 C 52.113281 31.757812 52.058594 35.945312 52.078125 40.132812 L 45.164062 40.132812 L 45.164062 28.90625 C 45.164062 26.597656 45.007812 24.242188 42.390625 24.242188 C 39.480469 24.242188 40.167969 27.070312 40.15625 28.875 C 40.074219 32.628906 40.175781 36.378906 40.15625 40.132812 L 32.210938 40.132812 L 32.210938 28.820312 C 32.210938 26.199219 31.910156 24.242188 29.234375 24.242188 C 26.902344 24.242188 27.203125 26.644531 27.203125 28.679688 C 27.085938 32.496094 27.230469 36.316406 27.203125 40.132812 L 20.296875 40.132812 Z M 20.296875 20.273438 "/></g></svg>
