<svg width="64" height="64" viewBox="0 0 64 64" version="1.1" xmlns:inkscape="http://www.inkscape.org/namespaces/inkscape"><defs><linearGradient id="linear0" gradientUnits="userSpaceOnUse" x1="0" y1="0" x2="0" y2="1" gradientTransform="matrix(56,0,0,35.898438,4,14.050781)"><stop offset="0" style="stop-color:rgb(87.058824%,86.666667%,56.470591%);stop-opacity:1;"/><stop offset="1" style="stop-color:rgb(67.843139%,67.450982%,38.039216%);stop-opacity:1;"/></linearGradient><filter style="color-interpolation-filters:sRGB;" inkscape:label="Diffuse Light" id="filter184" x="-0.0375" y="-0.0375" width="1.075" height="1.075"><feGaussianBlur in="SourceGraphic" stdDeviation="1" result="blur" id="feGaussianBlur174" /><feDiffuseLighting diffuseConstant="1" surfaceScale="10" lighting-color="rgb(255,255,255)" result="diffuse" id="feDiffuseLighting178"><feDistantLight elevation="8" azimuth="235" id="feDistantLight176" /></feDiffuseLighting><feComposite in="diffuse" in2="diffuse" operator="arithmetic" k1="1" result="composite1" id="feComposite180" /><feComposite in="composite1" in2="SourceGraphic" k1="1" operator="arithmetic" k3="1" result="composite2" id="feComposite182" /></filter></defs><g id="surface1" style="filter:url(#filter184)"><path style=" stroke:none;fill-rule:nonzero;fill:url(#linear0);" d="M 8.683594 4.492188 C 5.164062 4.492188 3.582031 6.28125 3.582031 10.273438 L 3.582031 21.835938 L 8.683594 21.835938 L 8.683594 10.273438 L 57.117188 10.273438 L 57.117188 53.625 L 36.722656 53.625 L 36.722656 59.40625 L 57.117188 59.40625 C 60.636719 59.40625 62.214844 57.617188 62.214844 53.625 L 62.214844 10.273438 C 62.214844 6.285156 60.636719 4.492188 57.117188 4.492188 Z M 3.582031 27.613281 L 3.582031 33.394531 C 16.253906 33.394531 26.527344 45.042969 26.527344 59.40625 L 31.625 59.40625 C 31.625 41.835938 19.082031 27.613281 3.582031 27.613281 Z M 3.582031 39.175781 L 3.582031 44.957031 C 10.621094 44.957031 16.328125 51.429688 16.328125 59.40625 L 21.429688 59.40625 C 21.429688 48.222656 13.449219 39.175781 3.582031 39.175781 Z M 3.582031 50.738281 L 3.582031 59.40625 L 11.230469 59.40625 C 11.230469 54.609375 7.816406 50.738281 3.582031 50.738281 Z M 3.582031 50.738281 "/></g></svg>
