<svg width="64" height="64" viewBox="0 0 64 64" version="1.1" xmlns:inkscape="http://www.inkscape.org/namespaces/inkscape"><defs><linearGradient id="linear0" gradientUnits="userSpaceOnUse" x1="0" y1="0" x2="0" y2="1" gradientTransform="matrix(55.992187,0,0,56,4.003906,4)"><stop offset="0" style="stop-color:rgb(0%,78.823531%,36.862746%);stop-opacity:1;"/><stop offset="1" style="stop-color:rgb(0%,54.11765%,25.098041%);stop-opacity:1;"/></linearGradient><linearGradient id="linear1" gradientUnits="userSpaceOnUse" x1="0" y1="0" x2="0" y2="1" gradientTransform="matrix(70.048632,0,0,76.259102,-6.489104,-2.348042)"><stop offset="0" style="stop-color:rgb(0%,78.823531%,36.862746%);stop-opacity:1;"/><stop offset="1" style="stop-color:rgb(0%,54.11765%,25.098041%);stop-opacity:1;"/></linearGradient><filter style="color-interpolation-filters:sRGB;" inkscape:label="Diffuse Light" id="filter184" x="-0.0375" y="-0.0375" width="1.075" height="1.075"><feGaussianBlur in="SourceGraphic" stdDeviation="1" result="blur" id="feGaussianBlur174" /><feDiffuseLighting diffuseConstant="1" surfaceScale="10" lighting-color="rgb(255,255,255)" result="diffuse" id="feDiffuseLighting178"><feDistantLight elevation="8" azimuth="235" id="feDistantLight176" /></feDiffuseLighting><feComposite in="diffuse" in2="diffuse" operator="arithmetic" k1="1" result="composite1" id="feComposite180" /><feComposite in="composite1" in2="SourceGraphic" k1="1" operator="arithmetic" k3="1" result="composite2" id="feComposite182" /></filter></defs><g id="surface1" style="filter:url(#filter184)"><path style="fill:none;stroke-width:10.677;stroke-linecap:butt;stroke-linejoin:miter;stroke:url(#linear0);stroke-miterlimit:4;" d="M 368.381646 161.674661 C 404.85838 222.398211 397.916976 293.535588 352.883759 320.592518 C 307.798997 347.649449 241.75257 320.418162 205.275836 259.694612 C 168.764739 199.002763 175.757688 127.833685 220.790904 100.792605 C 265.824121 73.719824 331.904912 100.966961 368.381646 161.674661 Z M 368.381646 161.674661 " transform="matrix(0.22735,0,0,0.246442,-32.544367,-19.909861)"/><path style=" stroke:none;fill-rule:nonzero;fill:url(#linear1);" d="M 27.800781 45.457031 C 27.800781 48.71875 25.363281 51.355469 22.359375 51.355469 C 19.351562 51.355469 16.917969 48.71875 16.917969 45.457031 C 16.917969 42.203125 19.351562 39.558594 22.359375 39.558594 C 25.363281 39.558594 27.800781 42.203125 27.800781 45.457031 Z M 27.800781 45.457031 "/></g></svg>
