<svg width="64" height="64" viewBox="0 0 64 64" version="1.1" xmlns:inkscape="http://www.inkscape.org/namespaces/inkscape"><defs><linearGradient id="linear0" gradientUnits="userSpaceOnUse" x1="0" y1="0" x2="0" y2="1" gradientTransform="matrix(60.058524,0,0,38.123924,2.677323,12.570253)"><stop offset="0" style="stop-color:rgb(87.058824%,86.666667%,56.470591%);stop-opacity:1;"/><stop offset="1" style="stop-color:rgb(67.843139%,67.450982%,38.039216%);stop-opacity:1;"/></linearGradient><filter style="color-interpolation-filters:sRGB;" inkscape:label="Diffuse Light" id="filter184" x="-0.0375" y="-0.0375" width="1.075" height="1.075"><feGaussianBlur in="SourceGraphic" stdDeviation="1" result="blur" id="feGaussianBlur174" /><feDiffuseLighting diffuseConstant="1" surfaceScale="10" lighting-color="rgb(255,255,255)" result="diffuse" id="feDiffuseLighting178"><feDistantLight elevation="8" azimuth="235" id="feDistantLight176" /></feDiffuseLighting><feComposite in="diffuse" in2="diffuse" operator="arithmetic" k1="1" result="composite1" id="feComposite180" /><feComposite in="composite1" in2="SourceGraphic" k1="1" operator="arithmetic" k3="1" result="composite2" id="feComposite182" /></filter></defs><g id="surface1" style="filter:url(#filter184)"><path style=" stroke:none;fill-rule:nonzero;fill:url(#linear0);" d="M 32.050781 1.835938 C 30.21875 1.835938 28.828125 2.679688 27.640625 3.859375 L 18.820312 12.617188 L 45.28125 12.617188 L 36.734375 3.992188 C 35.554688 2.800781 33.882812 1.835938 32.050781 1.835938 Z M 7.792969 25.558594 C 4.132812 25.558594 1.175781 28.445312 1.175781 32.03125 C 1.175781 35.613281 4.132812 38.503906 7.792969 38.503906 L 56.304688 38.503906 C 59.972656 38.503906 62.921875 35.613281 62.921875 32.03125 C 62.921875 28.445312 59.972656 25.558594 56.304688 25.558594 Z M 18.820312 51.445312 L 27.640625 60.203125 C 28.828125 61.378906 30.21875 62.230469 32.050781 62.230469 C 33.882812 62.230469 35.550781 61.257812 36.734375 60.074219 L 45.28125 51.445312 Z M 18.820312 51.445312 "/></g></svg>
