<svg width="64" height="64" viewBox="0 0 64 64" version="1.1" xmlns:inkscape="http://www.inkscape.org/namespaces/inkscape"><defs><linearGradient id="linear0" gradientUnits="userSpaceOnUse" x1="0" y1="0" x2="0" y2="1" gradientTransform="matrix(59.593714,0,0,39.756611,2.793432,12.297279)"><stop offset="0" style="stop-color:rgb(92.941177%,83.529413%,72.549021%);stop-opacity:1;"/><stop offset="1" style="stop-color:rgb(81.960785%,71.372551%,59.215689%);stop-opacity:1;"/></linearGradient><filter style="color-interpolation-filters:sRGB;" inkscape:label="Diffuse Light" id="filter184" x="-0.0375" y="-0.0375" width="1.075" height="1.075"><feGaussianBlur in="SourceGraphic" stdDeviation="1" result="blur" id="feGaussianBlur174" /><feDiffuseLighting diffuseConstant="1" surfaceScale="10" lighting-color="rgb(255,255,255)" result="diffuse" id="feDiffuseLighting178"><feDistantLight elevation="8" azimuth="235" id="feDistantLight176" /></feDiffuseLighting><feComposite in="diffuse" in2="diffuse" operator="arithmetic" k1="1" result="composite1" id="feComposite180" /><feComposite in="composite1" in2="SourceGraphic" k1="1" operator="arithmetic" k3="1" result="composite2" id="feComposite182" /></filter></defs><g id="surface1" style="filter:url(#filter184)"><path style=" stroke:none;fill-rule:nonzero;fill:url(#linear0);" d="M 19.125 1.507812 C 9.320312 1.503906 1.386719 9.550781 1.386719 19.492188 L 1.386719 45.183594 C 1.386719 55.125 9.320312 63.167969 19.125 63.167969 L 44.464844 63.167969 C 54.277344 63.167969 62.207031 55.125 62.207031 45.183594 L 62.207031 32.339844 C 50.296875 32.378906 38.210938 32.339844 26.730469 32.339844 L 26.730469 42.613281 L 52.070312 42.613281 L 52.070312 45.183594 C 52.070312 49.449219 48.671875 52.890625 44.464844 52.890625 L 19.125 52.890625 C 14.917969 52.890625 11.523438 49.449219 11.523438 45.183594 L 11.523438 19.492188 C 11.523438 15.226562 14.917969 11.785156 19.125 11.785156 C 23.332031 11.785156 26.730469 15.226562 26.730469 19.492188 L 26.730469 27.199219 L 36.867188 27.199219 L 36.867188 19.492188 C 36.867188 15.226562 40.261719 11.785156 44.464844 11.785156 C 48.671875 11.785156 52.070312 15.226562 52.070312 19.492188 L 52.070312 27.199219 L 62.207031 27.199219 L 62.207031 19.492188 C 62.207031 9.550781 54.277344 1.507812 44.464844 1.507812 C 39.703125 1.511719 35.117188 3.472656 31.796875 6.929688 C 28.453125 3.464844 23.890625 1.507812 19.125 1.507812 Z M 19.125 1.507812 "/></g></svg>
