<svg width="64" height="64" viewBox="0 0 64 64" version="1.1" xmlns:inkscape="http://www.inkscape.org/namespaces/inkscape"><defs><linearGradient id="linear0" gradientUnits="userSpaceOnUse" x1="0" y1="0" x2="0" y2="1" gradientTransform="matrix(63.604206,0,0,40.432546,-0.325643,13.976002)"><stop offset="0" style="stop-color:rgb(61.176473%,69.803923%,85.09804%);stop-opacity:1;"/><stop offset="1" style="stop-color:rgb(44.313726%,52.156866%,65.882355%);stop-opacity:1;"/></linearGradient><filter style="color-interpolation-filters:sRGB;" inkscape:label="Diffuse Light" id="filter184" x="-0.0375" y="-0.0375" width="1.075" height="1.075"><feGaussianBlur in="SourceGraphic" stdDeviation="1" result="blur" id="feGaussianBlur174" /><feDiffuseLighting diffuseConstant="1" surfaceScale="10" lighting-color="rgb(255,255,255)" result="diffuse" id="feDiffuseLighting178"><feDistantLight elevation="8" azimuth="235" id="feDistantLight176" /></feDiffuseLighting><feComposite in="diffuse" in2="diffuse" operator="arithmetic" k1="1" result="composite1" id="feComposite180" /><feComposite in="composite1" in2="SourceGraphic" k1="1" operator="arithmetic" k3="1" result="composite2" id="feComposite182" /></filter></defs><g id="surface1" style="filter:url(#filter184)"><path style=" stroke:none;fill-rule:nonzero;fill:url(#linear0);" d="M 26.238281 4.53125 C 12.203125 4.53125 0.828125 16.789062 0.828125 31.898438 C 0.828125 47.015625 12.203125 59.269531 26.238281 59.269531 C 40.269531 59.269531 51.648438 47.015625 51.648438 31.898438 C 51.648438 16.789062 40.269531 4.53125 26.238281 4.53125 Z M 54.472656 4.53125 L 54.472656 54.710938 C 54.472656 55.550781 55.101562 56.230469 55.882812 56.230469 L 58.707031 56.230469 C 59.488281 56.230469 60.121094 55.550781 60.121094 54.710938 L 60.121094 22.773438 L 61.53125 22.773438 C 62.3125 22.773438 62.941406 22.097656 62.941406 21.257812 L 62.941406 6.050781 C 62.941406 5.207031 62.3125 4.53125 61.53125 4.53125 Z M 54.472656 4.53125 "/></g></svg>
