<svg width="64" height="64" viewBox="0 0 64 64" version="1.1" xmlns:inkscape="http://www.inkscape.org/namespaces/inkscape"><defs><linearGradient id="linear0" gradientUnits="userSpaceOnUse" x1="0" y1="0" x2="0" y2="1" gradientTransform="matrix(60.502199,0,0,38.241835,0.999036,13.01319)"><stop offset="0" style="stop-color:rgb(100%,56.862748%,82.745099%);stop-opacity:1;"/><stop offset="1" style="stop-color:rgb(100%,0%,60.000002%);stop-opacity:1;"/></linearGradient><filter style="color-interpolation-filters:sRGB;" inkscape:label="Diffuse Light" id="filter184" x="-0.0375" y="-0.0375" width="1.075" height="1.075"><feGaussianBlur in="SourceGraphic" stdDeviation="1" result="blur" id="feGaussianBlur174" /><feDiffuseLighting diffuseConstant="1" surfaceScale="10" lighting-color="rgb(255,255,255)" result="diffuse" id="feDiffuseLighting178"><feDistantLight elevation="8" azimuth="235" id="feDistantLight176" /></feDiffuseLighting><feComposite in="diffuse" in2="diffuse" operator="arithmetic" k1="1" result="composite1" id="feComposite180" /><feComposite in="composite1" in2="SourceGraphic" k1="1" operator="arithmetic" k3="1" result="composite2" id="feComposite182" /></filter></defs><g id="surface1" style="filter:url(#filter184)"><path style=" stroke:none;fill-rule:nonzero;fill:url(#linear0);" d="M 31.917969 2.148438 C 15.171875 2.148438 1.59375 15.882812 1.59375 32.835938 C 1.59375 49.785156 15.171875 63.527344 31.917969 63.527344 C 48.664062 63.527344 62.238281 49.785156 62.238281 32.835938 C 62.238281 15.882812 48.664062 2.148438 31.917969 2.148438 Z M 35.960938 8.285156 C 47.121094 8.285156 56.175781 17.445312 56.175781 28.742188 C 56.175781 40.042969 47.121094 49.203125 35.960938 49.203125 C 24.796875 49.203125 15.746094 40.042969 15.746094 28.742188 C 15.746094 17.445312 24.796875 8.285156 35.960938 8.285156 Z M 35.960938 8.285156 "/></g></svg>
