<svg width="64" height="64" viewBox="0 0 64 64" version="1.1" xmlns:inkscape="http://www.inkscape.org/namespaces/inkscape"><defs><linearGradient id="linear0" gradientUnits="userSpaceOnUse" x1="0" y1="0" x2="0" y2="1" gradientTransform="matrix(56,0,0,35.898438,4,14.050781)"><stop offset="0" style="stop-color:rgb(75.686276%,77.64706%,83.92157%);stop-opacity:1;"/><stop offset="1" style="stop-color:rgb(43.529412%,45.09804%,50.196081%);stop-opacity:1;"/></linearGradient><filter style="color-interpolation-filters:sRGB;" inkscape:label="Diffuse Light" id="filter184" x="-0.0375" y="-0.0375" width="1.075" height="1.075"><feGaussianBlur in="SourceGraphic" stdDeviation="1" result="blur" id="feGaussianBlur174" /><feDiffuseLighting diffuseConstant="1" surfaceScale="10" lighting-color="rgb(255,255,255)" result="diffuse" id="feDiffuseLighting178"><feDistantLight elevation="8" azimuth="235" id="feDistantLight176" /></feDiffuseLighting><feComposite in="diffuse" in2="diffuse" operator="arithmetic" k1="1" result="composite1" id="feComposite180" /><feComposite in="composite1" in2="SourceGraphic" k1="1" operator="arithmetic" k3="1" result="composite2" id="feComposite182" /></filter></defs><g id="surface1" style="filter:url(#filter184)"><path style=" stroke:none;fill-rule:nonzero;fill:url(#linear0);" d="M 18.59375 4.601562 C 10.695312 4.601562 4.324219 10.726562 4.324219 18.316406 L 4.324219 53.738281 C 4.324219 56.894531 6.988281 59.453125 10.269531 59.453125 C 13.550781 59.453125 16.214844 56.894531 16.214844 53.738281 L 16.214844 21.742188 C 16.214844 18.589844 18.878906 16.03125 22.160156 16.03125 C 25.441406 16.03125 28.105469 18.589844 28.105469 21.742188 L 28.105469 32.027344 C 28.105469 34.554688 30.234375 36.597656 32.859375 36.597656 C 35.488281 36.597656 37.617188 34.554688 37.617188 32.027344 L 37.617188 21.742188 C 37.617188 18.589844 40.277344 16.03125 43.5625 16.03125 C 46.84375 16.03125 49.503906 18.589844 49.503906 21.742188 L 49.503906 53.738281 C 49.503906 56.894531 52.167969 59.453125 55.449219 59.453125 C 58.730469 59.453125 61.394531 56.894531 61.394531 53.738281 L 61.394531 18.316406 C 61.394531 10.726562 55.023438 4.601562 47.128906 4.601562 Z M 18.59375 4.601562 "/></g></svg>
