<svg width="64" height="64" viewBox="0 0 64 64" version="1.1" xmlns:inkscape="http://www.inkscape.org/namespaces/inkscape"><defs><linearGradient id="linear0" gradientUnits="userSpaceOnUse" x1="0" y1="0" x2="0" y2="1" gradientTransform="matrix(59.044068,0,0,39.77381,2.221061,11.745742)"><stop offset="0" style="stop-color:rgb(75.686276%,77.64706%,83.92157%);stop-opacity:1;"/><stop offset="1" style="stop-color:rgb(43.529412%,45.09804%,50.196081%);stop-opacity:1;"/></linearGradient><filter style="color-interpolation-filters:sRGB;" inkscape:label="Diffuse Light" id="filter184" x="-0.0375" y="-0.0375" width="1.075" height="1.075"><feGaussianBlur in="SourceGraphic" stdDeviation="1" result="blur" id="feGaussianBlur174" /><feDiffuseLighting diffuseConstant="1" surfaceScale="10" lighting-color="rgb(255,255,255)" result="diffuse" id="feDiffuseLighting178"><feDistantLight elevation="8" azimuth="235" id="feDistantLight176" /></feDiffuseLighting><feComposite in="diffuse" in2="diffuse" operator="arithmetic" k1="1" result="composite1" id="feComposite180" /><feComposite in="composite1" in2="SourceGraphic" k1="1" operator="arithmetic" k3="1" result="composite2" id="feComposite182" /></filter></defs><g id="surface1" style="filter:url(#filter184)"><path style=" stroke:none;fill-rule:nonzero;fill:url(#linear0);" d="M 25.136719 2.070312 C 22.527344 2.070312 20.433594 4.140625 20.433594 6.710938 L 20.433594 20.644531 L 6.320312 20.644531 C 3.703125 20.644531 1.613281 22.71875 1.613281 25.289062 L 1.613281 39.21875 C 1.613281 41.800781 3.710938 43.863281 6.320312 43.863281 L 20.433594 43.863281 L 20.433594 57.796875 C 20.433594 60.375 22.53125 62.4375 25.136719 62.4375 L 39.253906 62.4375 C 41.867188 62.4375 43.957031 60.371094 43.957031 57.796875 L 43.957031 43.863281 L 58.078125 43.863281 C 60.6875 43.863281 62.78125 41.792969 62.78125 39.21875 L 62.78125 25.289062 C 62.78125 22.710938 60.683594 20.644531 58.078125 20.644531 L 43.957031 20.644531 L 43.957031 6.710938 C 43.957031 4.136719 41.863281 2.070312 39.253906 2.070312 Z M 27.492188 9.035156 L 36.902344 9.035156 L 36.902344 27.613281 L 55.722656 27.613281 L 55.722656 36.898438 L 36.902344 36.898438 L 36.902344 55.476562 L 27.492188 55.476562 L 27.492188 36.898438 L 8.671875 36.898438 L 8.671875 27.613281 L 27.492188 27.613281 Z M 27.492188 9.035156 "/></g></svg>
