<svg width="64" height="64" viewBox="0 0 64 64" version="1.1" xmlns:inkscape="http://www.inkscape.org/namespaces/inkscape"><defs><linearGradient id="linear0" gradientUnits="userSpaceOnUse" x1="0" y1="0" x2="0" y2="1" gradientTransform="matrix(65.702992,0,0,41.071901,2.268952,12.375172)"><stop offset="0" style="stop-color:rgb(82.352942%,61.176473%,100%);stop-opacity:1;"/><stop offset="1" style="stop-color:rgb(66.666669%,0%,100%);stop-opacity:1;"/></linearGradient><linearGradient id="linear1" gradientUnits="userSpaceOnUse" x1="0" y1="0" x2="0" y2="1" gradientTransform="matrix(65.702992,0,0,41.071901,2.268952,12.375172)"><stop offset="0" style="stop-color:rgb(82.352942%,61.176473%,100%);stop-opacity:1;"/><stop offset="1" style="stop-color:rgb(66.666669%,0%,100%);stop-opacity:1;"/></linearGradient><linearGradient id="linear2" gradientUnits="userSpaceOnUse" x1="0" y1="0" x2="0" y2="1" gradientTransform="matrix(65.702992,0,0,41.071901,2.268952,12.375172)"><stop offset="0" style="stop-color:rgb(82.352942%,61.176473%,100%);stop-opacity:1;"/><stop offset="1" style="stop-color:rgb(66.666669%,0%,100%);stop-opacity:1;"/></linearGradient><filter style="color-interpolation-filters:sRGB;" inkscape:label="Diffuse Light" id="filter184" x="-0.0375" y="-0.0375" width="1.075" height="1.075"><feGaussianBlur in="SourceGraphic" stdDeviation="1" result="blur" id="feGaussianBlur174" /><feDiffuseLighting diffuseConstant="1" surfaceScale="10" lighting-color="rgb(255,255,255)" result="diffuse" id="feDiffuseLighting178"><feDistantLight elevation="8" azimuth="235" id="feDistantLight176" /></feDiffuseLighting><feComposite in="diffuse" in2="diffuse" operator="arithmetic" k1="1" result="composite1" id="feComposite180" /><feComposite in="composite1" in2="SourceGraphic" k1="1" operator="arithmetic" k3="1" result="composite2" id="feComposite182" /></filter></defs><g id="surface1" style="filter:url(#filter184)"><path style=" stroke:none;fill-rule:nonzero;fill:url(#linear0);" d="M 15.316406 48.742188 L 15.316406 58.335938 C 15.316406 60.988281 25.675781 63.136719 38.449219 63.136719 C 51.222656 63.136719 61.574219 60.988281 61.574219 58.335938 L 61.574219 48.742188 Z M 15.316406 48.742188 "/><path style=" stroke:none;fill-rule:nonzero;fill:url(#linear1);" d="M 61.121094 14.816406 L 61.121094 6.371094 C 61.121094 4.039062 50.878906 2.148438 38.230469 2.148438 C 25.59375 2.148438 15.34375 4.039062 15.34375 6.371094 L 15.34375 14.816406 Z M 61.121094 14.816406 "/><path style=" stroke:none;fill-rule:nonzero;fill:url(#linear2);" d="M 12.15625 19.109375 L 0.667969 44.757812 L 9.859375 44.757812 L 12.15625 38.34375 L 21.339844 38.34375 L 23.636719 44.757812 L 32.820312 44.757812 L 21.339844 19.109375 Z M 16.746094 25.523438 L 19.042969 31.9375 L 14.449219 31.9375 Z M 16.746094 25.523438 "/></g></svg>
