<svg width="64" height="64" viewBox="0 0 64 64" version="1.1" xmlns:inkscape="http://www.inkscape.org/namespaces/inkscape"><defs><linearGradient id="linear0" gradientUnits="userSpaceOnUse" x1="0" y1="0" x2="0" y2="1" gradientTransform="matrix(57.140625,0,0,64,3.429688,0)"><stop offset="0" style="stop-color:rgb(0%,73.333335%,100%);stop-opacity:1;"/><stop offset="1" style="stop-color:rgb(0%,52.156866%,70.980394%);stop-opacity:1;"/></linearGradient><filter style="color-interpolation-filters:sRGB;" inkscape:label="Diffuse Light" id="filter184" x="-0.0375" y="-0.0375" width="1.075" height="1.075"><feGaussianBlur in="SourceGraphic" stdDeviation="1" result="blur" id="feGaussianBlur174" /><feDiffuseLighting diffuseConstant="1" surfaceScale="10" lighting-color="rgb(255,255,255)" result="diffuse" id="feDiffuseLighting178"><feDistantLight elevation="8" azimuth="235" id="feDistantLight176" /></feDiffuseLighting><feComposite in="diffuse" in2="diffuse" operator="arithmetic" k1="1" result="composite1" id="feComposite180" /><feComposite in="composite1" in2="SourceGraphic" k1="1" operator="arithmetic" k3="1" result="composite2" id="feComposite182" /></filter></defs><g id="surface1" style="filter:url(#filter184)"><path style=" stroke:none;fill-rule:evenodd;fill:url(#linear0);" d="M 21.558594 50.257812 C 21.859375 50.28125 22.167969 50.285156 22.476562 50.285156 L 41.523438 50.285156 C 52.035156 50.285156 60.570312 41.753906 60.570312 31.234375 L 60.570312 19.046875 C 60.570312 8.535156 52.035156 0 41.523438 0 L 22.476562 0 C 11.964844 0 3.429688 8.535156 3.429688 19.046875 L 3.429688 31.234375 C 3.429688 32.21875 3.503906 33.183594 3.683594 34.113281 C 3.890625 41.738281 5.179688 52.679688 9.519531 57.625 C 14.410156 63.195312 25.828125 64 30.441406 64 C 38.636719 64 42.285156 60.792969 42.285156 60.792969 L 42.285156 55.519531 C 42.285156 55.519531 37.34375 57.242188 31.503906 57.144531 C 27.496094 57.070312 24.0625 56.019531 22.339844 53.425781 C 21.714844 52.484375 21.808594 51.660156 21.558594 50.257812 Z M 17.144531 19.429688 C 17.144531 17.535156 18.679688 16 20.570312 16 C 22.464844 16 24 17.535156 24 19.429688 C 24 21.320312 22.464844 22.855469 20.570312 22.855469 C 18.679688 22.855469 17.144531 21.320312 17.144531 19.429688 Z M 17.144531 19.429688 "/></g></svg>
