<svg width="64" height="64" viewBox="0 0 64 64" version="1.1" xmlns:inkscape="http://www.inkscape.org/namespaces/inkscape"><defs><linearGradient id="linear0" gradientUnits="userSpaceOnUse" x1="0" y1="0" x2="0" y2="1" gradientTransform="matrix(61.640416,0,0,41.269525,1.010175,11.784835)"><stop offset="0" style="stop-color:rgb(100%,63.137257%,63.137257%);stop-opacity:1;"/><stop offset="1" style="stop-color:rgb(100%,27.843139%,27.843139%);stop-opacity:1;"/></linearGradient><filter style="color-interpolation-filters:sRGB;" inkscape:label="Diffuse Light" id="filter184" x="-0.0375" y="-0.0375" width="1.075" height="1.075"><feGaussianBlur in="SourceGraphic" stdDeviation="1" result="blur" id="feGaussianBlur174" /><feDiffuseLighting diffuseConstant="1" surfaceScale="10" lighting-color="rgb(255,255,255)" result="diffuse" id="feDiffuseLighting178"><feDistantLight elevation="8" azimuth="235" id="feDistantLight176" /></feDiffuseLighting><feComposite in="diffuse" in2="diffuse" operator="arithmetic" k1="1" result="composite1" id="feComposite180" /><feComposite in="composite1" in2="SourceGraphic" k1="1" operator="arithmetic" k3="1" result="composite2" id="feComposite182" /></filter></defs><g id="surface1" style="filter:url(#filter184)"><path style=" stroke:none;fill-rule:nonzero;fill:url(#linear0);" d="M 32.390625 1.59375 C 29.582031 1.59375 26.921875 2.855469 25.132812 5.015625 C 12.699219 8.574219 4.042969 20.726562 4.023438 34.628906 L 1.660156 34.628906 L 1.660156 39.347656 L 4.023438 39.347656 L 4.023438 53.503906 L 1.660156 53.503906 L 1.660156 62.941406 L 13.480469 62.941406 L 13.480469 53.503906 L 11.113281 53.503906 L 11.113281 39.347656 L 13.480469 39.347656 L 13.480469 34.628906 L 11.113281 34.628906 C 11.113281 21.597656 20.636719 11.035156 32.390625 11.035156 C 44.136719 11.035156 53.660156 21.597656 53.660156 34.628906 L 51.296875 34.628906 L 51.296875 39.347656 L 53.660156 39.347656 L 53.660156 53.503906 L 51.296875 53.503906 L 51.296875 62.941406 L 63.113281 62.941406 L 63.113281 53.503906 L 60.75 53.503906 L 60.75 39.347656 L 63.113281 39.347656 L 63.113281 34.628906 L 60.75 34.628906 C 60.742188 20.707031 52.066406 8.535156 39.617188 4.992188 C 37.828125 2.847656 35.179688 1.601562 32.390625 1.601562 Z M 32.390625 1.59375 "/></g></svg>
