<svg width="64" height="64" viewBox="0 0 64 64" version="1.1" xmlns:inkscape="http://www.inkscape.org/namespaces/inkscape"><defs><linearGradient id="linear0" gradientUnits="userSpaceOnUse" x1="0" y1="0" x2="0" y2="1" gradientTransform="matrix(64,0,0,53.6875,0,5.15625)"><stop offset="0" style="stop-color:rgb(100%,63.137257%,63.137257%);stop-opacity:1;"/><stop offset="1" style="stop-color:rgb(100%,27.843139%,27.843139%);stop-opacity:1;"/></linearGradient><filter style="color-interpolation-filters:sRGB;" inkscape:label="Diffuse Light" id="filter184" x="-0.0375" y="-0.0375" width="1.075" height="1.075"><feGaussianBlur in="SourceGraphic" stdDeviation="1" result="blur" id="feGaussianBlur174" /><feDiffuseLighting diffuseConstant="1" surfaceScale="10" lighting-color="rgb(255,255,255)" result="diffuse" id="feDiffuseLighting178"><feDistantLight elevation="8" azimuth="235" id="feDistantLight176" /></feDiffuseLighting><feComposite in="diffuse" in2="diffuse" operator="arithmetic" k1="1" result="composite1" id="feComposite180" /><feComposite in="composite1" in2="SourceGraphic" k1="1" operator="arithmetic" k3="1" result="composite2" id="feComposite182" /></filter></defs><g id="surface1" style="filter:url(#filter184)"><path style=" stroke:none;fill-rule:nonzero;fill:url(#linear0);" d="M 32 58.84375 L 23.679688 54.789062 L 23.679688 30.441406 L 18.140625 35.851562 L 13.875 33.773438 L 8.320312 22.949219 L 8.320312 47.296875 L 0 43.234375 L 0 5.15625 L 8.320312 9.210938 L 16 24.195312 L 23.679688 16.703125 L 32 20.765625 L 40.320312 16.703125 L 48 24.195312 L 55.679688 9.210938 L 64 5.15625 L 64 43.234375 L 55.679688 47.296875 L 55.679688 22.949219 L 50.125 33.773438 L 45.859375 35.851562 L 40.320312 30.441406 L 40.320312 54.789062 Z M 32 58.84375 "/></g></svg>
