<svg width="64" height="64" viewBox="0 0 64 64" version="1.1" xmlns:inkscape="http://www.inkscape.org/namespaces/inkscape"><defs><linearGradient id="linear0" gradientUnits="userSpaceOnUse" x1="0" y1="0" x2="0" y2="1" gradientTransform="matrix(45.179688,0,0,64,9.410156,0)"><stop offset="0" style="stop-color:rgb(81.960785%,70.980394%,59.215689%);stop-opacity:1;"/><stop offset="1" style="stop-color:rgb(65.098041%,53.725493%,41.568628%);stop-opacity:1;"/></linearGradient><filter style="color-interpolation-filters:sRGB;" inkscape:label="Diffuse Light" id="filter184" x="-0.0375" y="-0.0375" width="1.075" height="1.075"><feGaussianBlur in="SourceGraphic" stdDeviation="1" result="blur" id="feGaussianBlur174" /><feDiffuseLighting diffuseConstant="1" surfaceScale="10" lighting-color="rgb(255,255,255)" result="diffuse" id="feDiffuseLighting178"><feDistantLight elevation="8" azimuth="235" id="feDistantLight176" /></feDiffuseLighting><feComposite in="diffuse" in2="diffuse" operator="arithmetic" k1="1" result="composite1" id="feComposite180" /><feComposite in="composite1" in2="SourceGraphic" k1="1" operator="arithmetic" k3="1" result="composite2" id="feComposite182" /></filter></defs><g id="surface1" style="filter:url(#filter184)"><path style=" stroke:none;fill-rule:nonzero;fill:url(#linear0);" d="M 20.703125 18.816406 L 20.703125 0 L 9.410156 0 L 9.410156 26.359375 C 9.410156 26.363281 9.410156 26.367188 9.410156 26.367188 L 9.410156 64 L 20.703125 64 L 20.703125 45.898438 C 24.035156 47.835938 27.894531 48.949219 32 48.949219 C 36.105469 48.949219 39.964844 47.835938 43.296875 45.898438 L 43.296875 48.941406 L 54.589844 48.941406 L 54.589844 0 L 43.296875 0 L 43.296875 26.351562 C 43.296875 32.707031 38.355469 37.648438 32 37.648438 C 25.644531 37.648438 20.703125 32.707031 20.703125 26.351562 Z M 20.703125 18.816406 "/></g></svg>
