<?xml version="1.0" encoding="UTF-8" standalone="no"?><svg width="64" height="64" viewBox="0 0 64 64" version="1.1" id="svg9" sodipodi:docname="mx-tweak.svg" inkscape:version="1.2.2 (b0a8486541, 2022-12-01)" xmlns:inkscape="http://www.inkscape.org/namespaces/inkscape" xmlns:sodipodi="http://sodipodi.sourceforge.net/DTD/sodipodi-0.dtd" xmlns="http://www.w3.org/2000/svg" xmlns:svg="http://www.w3.org/2000/svg"> <defs id="defs13"> <filter style="color-interpolation-filters:sRGB;" inkscape:label="Diffuse Light" id="filter183" x="-0.040091354" y="-0.044863089" width="1.0801827" height="1.0897262"> <feGaussianBlur in="SourceGraphic" stdDeviation="1" result="blur" id="feGaussianBlur173" /> <feDiffuseLighting diffuseConstant="1" surfaceScale="10" lighting-color="rgb(255,255,255)" result="diffuse" id="feDiffuseLighting177"> <feDistantLight elevation="8" azimuth="235" id="feDistantLight175" /> </feDiffuseLighting> <feComposite in="diffuse" in2="diffuse" operator="arithmetic" k1="1" result="composite1" id="feComposite179" /> <feComposite in="composite1" in2="SourceGraphic" k1="1" operator="arithmetic" k3="1" result="composite2" id="feComposite181" /> </filter> </defs> <sodipodi:namedview id="namedview11" pagecolor="#ffffff" bordercolor="#000000" borderopacity="0.25" inkscape:showpageshadow="2" inkscape:pageopacity="0.0" inkscape:pagecheckerboard="0" inkscape:deskcolor="#d1d1d1" showgrid="false" inkscape:zoom="3.6875" inkscape:cx="32" inkscape:cy="32.135593" inkscape:window-width="1432" inkscape:window-height="844" inkscape:window-x="0" inkscape:window-y="0" inkscape:window-maximized="1" inkscape:current-layer="svg9" /> <g id="surface1" transform="translate(-0.97801907,-4.8782193)" style="filter:url(#filter183)"> <path style="fill:#f3e3a8;fill-opacity:1;fill-rule:nonzero;stroke:none" d="M 53.300781,10.152344 3.074219,44.058594 c 4.6875,11.824218 16.121093,19.589844 28.839843,19.589844 17.132813,0 31.023438,-13.890626 31.023438,-31.023438 0,-8.492188 -3.484375,-16.617188 -9.636719,-22.472656 z m 0,0" id="path2" /> <path style="fill:#d487a1;fill-opacity:1;fill-rule:nonzero;stroke:none" d="m 35.492188,22.175781 -17,11.476563 -2.878907,25.367187 c 4.898438,3.023438 10.542969,4.628907 16.300781,4.628907 5.984376,0 11.835938,-1.730469 16.859376,-4.980469 z m 0,0" id="path4" /> <path style="fill:#ffffff;fill-opacity:1;fill-rule:nonzero;stroke:none" d="m 29.914062,13.292969 c -0.738281,0 -1.277343,0.59375 -1.332031,1.332031 l -0.230469,3.105469 c -2.886718,0.691406 -5.511718,2.207031 -7.554687,4.359375 l -2.804687,-1.351563 c -0.640626,-0.371093 -1.449219,-0.152343 -1.820313,0.488281 l -2,3.464844 c -0.367187,0.636719 -0.125,1.40625 0.488281,1.820313 l 2.5625,1.746093 c -0.421875,1.417969 -0.640625,2.886719 -0.640625,4.367188 0.0039,1.476562 0.21875,2.949219 0.644531,4.363281 l -2.566406,1.75 c -0.640625,0.367188 -0.855468,1.183594 -0.488281,1.820313 l 2,3.464844 c 0.371094,0.640624 1.15625,0.808593 1.820313,0.488281 l 2.796874,-1.347657 c 2.046876,2.152344 4.671876,3.667969 7.5625,4.355469 L 28.582031,50.625 c 0,0.738281 0.59375,1.332031 1.332031,1.332031 h 4 c 0.738282,0 1.277344,-0.59375 1.332032,-1.332031 l 0.230468,-3.105469 c 2.886719,-0.691406 5.511719,-2.207031 7.554688,-4.359375 l 2.804688,1.351563 c 0.640624,0.371093 1.453124,0.152343 1.820312,-0.488281 l 2,-3.464844 c 0.371094,-0.636719 0.125,-1.40625 -0.488281,-1.820313 l -2.5625,-1.746093 c 0.421875,-1.417969 0.640625,-2.886719 0.640625,-4.367188 -0.0039,-1.480469 -0.21875,-2.949219 -0.644532,-4.363281 l 2.566407,-1.75 c 0.640625,-0.367188 0.859375,-1.183594 0.488281,-1.820313 l -2,-3.464844 C 47.289062,20.585938 46.5,20.414062 45.835938,20.738281 l -2.796876,1.347657 c -2.046874,-2.15625 -4.671874,-3.667969 -7.5625,-4.355469 L 35.246094,14.625 c 0,-0.738281 -0.59375,-1.332031 -1.332032,-1.332031 z m -6.019531,13.328125 h 2.363281 l 1.667969,8.410156 h 0.03906 l 1.691406,-8.410156 h 2.371094 V 38.074219 H 30.21875 V 34.75 l 0.152344,-4.453125 -0.03906,-0.0078 -1.777343,7.785157 h -1.207032 l -1.761718,-7.722657 -0.03906,0.0078 0.160156,4.390625 v 3.324219 h -1.8125 z m 9.132813,0 h 2.09375 l 1.246094,4.007812 h 0.03906 l 1.265625,-4.007812 h 2.105469 l -2.257813,5.679687 2.414063,5.773438 h -2.195313 l -1.304687,-4.085938 h -0.03906 l -1.304687,4.085938 H 32.96875 l 2.316406,-5.773438 z m 0,0" id="path6" /> </g></svg>
