<svg width="64" height="64" viewBox="0 0 64 64" version="1.1" xmlns:inkscape="http://www.inkscape.org/namespaces/inkscape"><defs><linearGradient id="linear0" gradientUnits="userSpaceOnUse" x1="0" y1="0" x2="0" y2="1" gradientTransform="matrix(56.831294,0,0,37.006766,4.03659,14.348788)"><stop offset="0" style="stop-color:rgb(61.176473%,69.803923%,85.09804%);stop-opacity:1;"/><stop offset="1" style="stop-color:rgb(44.313726%,52.156866%,65.882355%);stop-opacity:1;"/></linearGradient><filter style="color-interpolation-filters:sRGB;" inkscape:label="Diffuse Light" id="filter184" x="-0.0375" y="-0.0375" width="1.075" height="1.075"><feGaussianBlur in="SourceGraphic" stdDeviation="1" result="blur" id="feGaussianBlur174" /><feDiffuseLighting diffuseConstant="1" surfaceScale="10" lighting-color="rgb(255,255,255)" result="diffuse" id="feDiffuseLighting178"><feDistantLight elevation="8" azimuth="235" id="feDistantLight176" /></feDiffuseLighting><feComposite in="diffuse" in2="diffuse" operator="arithmetic" k1="1" result="composite1" id="feComposite180" /><feComposite in="composite1" in2="SourceGraphic" k1="1" operator="arithmetic" k3="1" result="composite2" id="feComposite182" /></filter></defs><g id="surface1" style="filter:url(#filter184)"><path style=" stroke:none;fill-rule:nonzero;fill:url(#linear0);" d="M 43.222656 4.398438 L 49.804688 6.484375 L 49.804688 10.660156 L 50.238281 11.914062 L 54.1875 10.660156 L 54.1875 16.925781 L 51.996094 16.925781 L 56.382812 21.101562 L 49.800781 21.101562 L 54.1875 23.1875 L 62.964844 25.277344 L 54.1875 27.363281 L 51.996094 27.363281 L 51.996094 29.453125 L 55.503906 31.539062 L 51.996094 33.628906 L 54.1875 35.71875 L 62.964844 37.804688 L 54.1875 39.894531 L 49.800781 41.980469 L 56.382812 41.980469 L 51.996094 46.15625 L 54.1875 46.15625 L 54.1875 52.421875 L 50.238281 51.171875 L 49.804688 52.421875 L 49.804688 56.597656 L 43.222656 58.683594 L 41.027344 54.507812 L 34.445312 46.15625 L 20.316406 38.242188 L 2.851562 33.628906 L 1.535156 31.539062 L 34.445312 16.925781 Z M 43.222656 4.398438 "/></g></svg>
