<svg width="64" height="64" viewBox="0 0 64 64" version="1.1" xmlns:inkscape="http://www.inkscape.org/namespaces/inkscape"><defs><linearGradient id="linear0" gradientUnits="userSpaceOnUse" x1="0" y1="0" x2="0" y2="1" gradientTransform="matrix(89.755692,0,0,61.215191,-13.167187,-3.455315)"><stop offset="0" style="stop-color:rgb(75.686276%,77.64706%,83.92157%);stop-opacity:1;"/><stop offset="1" style="stop-color:rgb(43.529412%,45.09804%,50.196081%);stop-opacity:1;"/></linearGradient><linearGradient id="linear1" gradientUnits="userSpaceOnUse" x1="0" y1="0" x2="0" y2="1" gradientTransform="matrix(89.755692,0,0,61.215191,-13.167187,-3.455315)"><stop offset="0" style="stop-color:rgb(75.686276%,77.64706%,83.92157%);stop-opacity:1;"/><stop offset="1" style="stop-color:rgb(43.529412%,45.09804%,50.196081%);stop-opacity:1;"/></linearGradient><linearGradient id="linear2" gradientUnits="userSpaceOnUse" x1="0" y1="0" x2="0" y2="1" gradientTransform="matrix(89.755692,0,0,61.215191,-13.167187,-3.455315)"><stop offset="0" style="stop-color:rgb(75.686276%,77.64706%,83.92157%);stop-opacity:1;"/><stop offset="1" style="stop-color:rgb(43.529412%,45.09804%,50.196081%);stop-opacity:1;"/></linearGradient><linearGradient id="linear3" gradientUnits="userSpaceOnUse" x1="0" y1="0" x2="0" y2="1" gradientTransform="matrix(89.755692,0,0,61.215191,-13.167187,-3.455315)"><stop offset="0" style="stop-color:rgb(75.686276%,77.64706%,83.92157%);stop-opacity:1;"/><stop offset="1" style="stop-color:rgb(43.529412%,45.09804%,50.196081%);stop-opacity:1;"/></linearGradient><filter style="color-interpolation-filters:sRGB;" inkscape:label="Diffuse Light" id="filter184" x="-0.0375" y="-0.0375" width="1.075" height="1.075"><feGaussianBlur in="SourceGraphic" stdDeviation="1" result="blur" id="feGaussianBlur174" /><feDiffuseLighting diffuseConstant="1" surfaceScale="10" lighting-color="rgb(255,255,255)" result="diffuse" id="feDiffuseLighting178"><feDistantLight elevation="8" azimuth="235" id="feDistantLight176" /></feDiffuseLighting><feComposite in="diffuse" in2="diffuse" operator="arithmetic" k1="1" result="composite1" id="feComposite180" /><feComposite in="composite1" in2="SourceGraphic" k1="1" operator="arithmetic" k3="1" result="composite2" id="feComposite182" /></filter></defs><g id="surface1" style="filter:url(#filter184)"><path style=" stroke:none;fill-rule:nonzero;fill:url(#linear0);" d="M 16.753906 2.140625 C 8.199219 2.140625 1.789062 10.101562 1.789062 18.058594 C 1.789062 26.011719 8.199219 33.972656 16.753906 33.972656 C 24.230469 33.972656 28.65625 28.765625 31.710938 22.167969 C 34.765625 28.765625 39.191406 33.972656 46.667969 33.972656 C 55.21875 33.972656 61.632812 26.011719 61.632812 18.058594 C 61.632812 10.101562 55.21875 2.140625 46.667969 2.140625 C 39.191406 2.140625 34.765625 7.347656 31.710938 13.945312 C 28.65625 7.347656 24.230469 2.140625 16.753906 2.140625 Z M 16.753906 6.691406 C 23.164062 6.691406 26.40625 12.71875 29.167969 18.058594 C 26.40625 23.402344 23.164062 29.421875 16.753906 29.421875 C 10.34375 29.421875 6.066406 23.742188 6.066406 18.058594 C 6.066406 12.371094 10.34375 6.691406 16.753906 6.691406 Z M 46.667969 6.691406 C 53.078125 6.691406 57.355469 12.371094 57.355469 18.058594 C 57.355469 23.742188 53.078125 29.421875 46.667969 29.421875 C 40.257812 29.421875 37.011719 23.402344 34.253906 18.058594 C 37.011719 12.71875 40.257812 6.691406 46.667969 6.691406 Z M 46.667969 6.691406 "/><path style=" stroke:none;fill-rule:nonzero;fill:url(#linear1);" d="M 49.503906 53.015625 L 40.957031 57.566406 L 49.503906 62.117188 L 55.914062 59.839844 L 58.054688 57.566406 L 55.914062 55.296875 Z M 49.503906 53.015625 "/><path style=" stroke:none;fill-rule:nonzero;fill:url(#linear2);" d="M 5.695312 53.070312 L 49.308594 53.070312 L 45.953125 55.34375 L 49.308594 57.613281 L 45.953125 59.890625 L 49.308594 62.164062 L 5.695312 62.164062 L 2.339844 57.613281 Z M 5.695312 53.070312 "/><path style=" stroke:none;fill-rule:nonzero;fill:url(#linear3);" d="M 56.441406 55.128906 L 56.441406 59.679688 L 62.851562 57.40625 Z M 56.441406 55.128906 "/></g></svg>
