<svg width="64" height="64" viewBox="0 0 64 64" version="1.1" xmlns:inkscape="http://www.inkscape.org/namespaces/inkscape"><defs><linearGradient id="linear0" gradientUnits="userSpaceOnUse" x1="0" y1="0" x2="0" y2="1" gradientTransform="matrix(48.661828,0,0,104.807512,6.544396,26.697892)"><stop offset="0" style="stop-color:rgb(100%,63.137257%,63.137257%);stop-opacity:1;"/><stop offset="1" style="stop-color:rgb(100%,27.843139%,27.843139%);stop-opacity:1;"/></linearGradient><filter style="color-interpolation-filters:sRGB;" inkscape:label="Diffuse Light" id="filter184" x="-0.0375" y="-0.0375" width="1.075" height="1.075"><feGaussianBlur in="SourceGraphic" stdDeviation="1" result="blur" id="feGaussianBlur174" /><feDiffuseLighting diffuseConstant="1" surfaceScale="10" lighting-color="rgb(255,255,255)" result="diffuse" id="feDiffuseLighting178"><feDistantLight elevation="8" azimuth="235" id="feDistantLight176" /></feDiffuseLighting><feComposite in="diffuse" in2="diffuse" operator="arithmetic" k1="1" result="composite1" id="feComposite180" /><feComposite in="composite1" in2="SourceGraphic" k1="1" operator="arithmetic" k3="1" result="composite2" id="feComposite182" /></filter></defs><g id="surface1" style="filter:url(#filter184)"><path style=" stroke:none;fill-rule:nonzero;fill:url(#linear0);" d="M 6.015625 17.894531 C 5.71875 17.894531 5.449219 18.457031 5.449219 19.117188 L 5.449219 27.582031 L 1.488281 27.582031 C 1.175781 27.582031 0.925781 28.125 0.925781 28.804688 L 0.925781 40.894531 C 0.925781 41.574219 1.175781 42.117188 1.488281 42.117188 L 62.578125 42.117188 C 62.890625 42.117188 63.144531 41.574219 63.144531 40.894531 L 63.144531 28.804688 C 63.144531 28.125 62.890625 27.582031 62.578125 27.582031 L 26.941406 27.582031 L 26.941406 19.117188 C 26.949219 18.453125 26.664062 17.894531 26.378906 17.894531 Z M 6.015625 17.894531 "/></g></svg>
