<svg width="64" height="64" viewBox="0 0 64 64" version="1.1" xmlns:inkscape="http://www.inkscape.org/namespaces/inkscape"><defs><linearGradient id="linear0" gradientUnits="userSpaceOnUse" x1="0" y1="0" x2="0" y2="1" gradientTransform="matrix(64,0,0,58.480469,0,2.761719)"><stop offset="0" style="stop-color:rgb(0%,73.333335%,100%);stop-opacity:1;"/><stop offset="1" style="stop-color:rgb(0%,52.156866%,70.980394%);stop-opacity:1;"/></linearGradient><filter style="color-interpolation-filters:sRGB;" inkscape:label="Diffuse Light" id="filter184" x="-0.0375" y="-0.0375" width="1.075" height="1.075"><feGaussianBlur in="SourceGraphic" stdDeviation="1" result="blur" id="feGaussianBlur174" /><feDiffuseLighting diffuseConstant="1" surfaceScale="10" lighting-color="rgb(255,255,255)" result="diffuse" id="feDiffuseLighting178"><feDistantLight elevation="8" azimuth="235" id="feDistantLight176" /></feDiffuseLighting><feComposite in="diffuse" in2="diffuse" operator="arithmetic" k1="1" result="composite1" id="feComposite180" /><feComposite in="composite1" in2="SourceGraphic" k1="1" operator="arithmetic" k3="1" result="composite2" id="feComposite182" /></filter></defs><g id="surface1" style="filter:url(#filter184)"><path style=" stroke:none;fill-rule:evenodd;fill:url(#linear0);" d="M 24.277344 27.035156 L 44.398438 27.035156 C 46.085938 27.035156 47.449219 25.667969 47.449219 23.988281 L 47.449219 12.429688 C 47.449219 10.742188 46.085938 9.378906 44.398438 9.378906 L 24.277344 9.378906 L 24.277344 5.921875 C 24.277344 5.066406 23.972656 4.246094 23.433594 3.652344 C 22.890625 3.054688 22.164062 2.734375 21.414062 2.761719 C 20.957031 2.777344 20.503906 2.921875 20.109375 3.183594 L 10.746094 9.324219 L 1.390625 15.46875 C 0.53125 16.03125 0 17.074219 0 18.203125 C 0 19.335938 0.53125 20.378906 1.390625 20.945312 L 10.746094 27.089844 L 20.109375 33.230469 C 20.96875 33.796875 22.023438 33.796875 22.882812 33.230469 C 23.746094 32.667969 24.277344 31.625 24.277344 30.492188 Z M 39.722656 37.113281 L 19.746094 37.113281 C 18.0625 37.113281 16.699219 38.480469 16.699219 40.160156 L 16.699219 51.71875 C 16.699219 53.402344 18.0625 54.769531 19.746094 54.769531 L 39.722656 54.769531 L 39.722656 58.078125 C 39.722656 59.207031 40.253906 60.253906 41.117188 60.816406 C 41.976562 61.382812 43.03125 61.382812 43.890625 60.820312 L 53.253906 54.671875 L 62.609375 48.53125 C 63.46875 47.964844 64 46.921875 64 45.792969 C 64 44.664062 63.46875 43.621094 62.609375 43.054688 L 53.253906 36.910156 L 43.890625 30.769531 C 43.496094 30.507812 43.042969 30.359375 42.585938 30.347656 C 41.835938 30.320312 41.109375 30.644531 40.566406 31.238281 C 40.027344 31.835938 39.722656 32.652344 39.722656 33.507812 Z M 39.722656 37.113281 "/></g></svg>
