<?xml version="1.0" encoding="UTF-8" standalone="no"?><svg width="64" height="64" viewBox="0 0 64 64" version="1.1" id="svg131" sodipodi:docname="netflix.svg" inkscape:version="1.2.2 (b0a8486541, 2022-12-01)" xmlns:inkscape="http://www.inkscape.org/namespaces/inkscape" xmlns:sodipodi="http://sodipodi.sourceforge.net/DTD/sodipodi-0.dtd" xmlns:xlink="http://www.w3.org/1999/xlink" xmlns="http://www.w3.org/2000/svg" xmlns:svg="http://www.w3.org/2000/svg"> <sodipodi:namedview id="namedview133" pagecolor="#ffffff" bordercolor="#000000" borderopacity="0.25" inkscape:showpageshadow="2" inkscape:pageopacity="0.0" inkscape:pagecheckerboard="0" inkscape:deskcolor="#d1d1d1" showgrid="false" inkscape:zoom="3.6875" inkscape:cx="32" inkscape:cy="32.135593" inkscape:window-width="1432" inkscape:window-height="844" inkscape:window-x="0" inkscape:window-y="0" inkscape:window-maximized="1" inkscape:current-layer="svg131" /> <defs id="defs124"> <filter id="alpha" filterUnits="objectBoundingBox" x="0" y="0" width="1" height="1"> <feColorMatrix type="matrix" in="SourceGraphic" values="0 0 0 0 1 0 0 0 0 1 0 0 0 0 1 0 0 0 1 0" id="feColorMatrix100" /> </filter> <mask id="mask0"> <g filter="url(#alpha)" id="g105"> <rect x="0" y="0" width="64" height="64" style="fill:rgb(0%,0%,0%);fill-opacity:0.6;stroke:none;" id="rect103" /> </g> </mask> <linearGradient id="linear0" gradientUnits="userSpaceOnUse" x1="0" y1="0" x2="0" y2="1" gradientTransform="matrix(64,0,0,19.46875,0,22.265625)"> <stop offset="0" style="stop-color:#d1b597;stop-opacity:1;" id="stop108" /> <stop offset="1" style="stop-color:#a6896a;stop-opacity:1;" id="stop110" /> </linearGradient> <clipPath id="clip1"> <rect x="0" y="0" width="64" height="64" id="rect113" /> </clipPath> <g id="surface5" clip-path="url(#clip1)"> <path style=" stroke:none;fill-rule:nonzero;fill:url(#linear0);" d="M 16.40625 22.265625 L 12.03125 22.273438 L 12.03125 38.554688 L 14.007812 40.109375 L 18.414062 39.835938 L 18.414062 38.03125 C 18.414062 38.03125 16.601562 36.03125 16.445312 35.859375 L 16.445312 32.953125 L 18.4375 32.953125 L 18.4375 31.132812 C 18.4375 31.132812 16.621094 29.316406 16.445312 29.140625 L 16.445312 25.742188 L 18.414062 25.742188 L 18.414062 24.0625 L 16.539062 22.265625 Z M 20.078125 22.265625 L 20.078125 24.59375 C 20.078125 24.59375 21.664062 25.84375 21.882812 26.015625 L 21.882812 38 L 23.875 39.59375 L 26.28125 39.53125 L 26.28125 26.015625 C 26.714844 26.011719 28.054688 26 28.054688 26 L 28.054688 24.304688 L 26.234375 22.265625 Z M 34.75 22.265625 L 30.375 22.273438 L 30.375 37.820312 L 32.382812 39.484375 L 34.789062 39.5 L 34.789062 32.945312 C 35.25 32.945312 36.78125 32.953125 36.78125 32.953125 L 36.78125 31.132812 C 36.78125 31.132812 34.964844 29.316406 34.789062 29.140625 L 34.789062 25.742188 L 36.757812 25.742188 L 36.757812 24.0625 L 34.882812 22.265625 Z M 0 22.273438 L 0 39.726562 L 2.023438 41.328125 L 4.140625 41.0625 C 4.140625 41.0625 4.148438 40.140625 4.15625 39.515625 C 4.851562 40.085938 5.796875 40.867188 5.796875 40.867188 L 9.257812 40.515625 L 9.257812 24.0625 L 7.375 22.273438 L 4.796875 22.273438 L 4.796875 22.601562 C 4.796875 22.601562 4.789062 23.183594 4.789062 23.6875 C 4.285156 23.128906 3.515625 22.273438 3.515625 22.273438 Z M 39.476562 22.273438 L 39.476562 37.921875 L 41.484375 39.679688 L 46.0625 39.90625 L 45.960938 37.882812 C 45.960938 37.882812 44.351562 36.070312 43.890625 35.554688 L 43.890625 24.054688 L 42.007812 22.273438 Z M 48.015625 22.273438 L 48.015625 38.320312 L 50.03125 40.1875 L 52.421875 40.382812 L 52.421875 24.109375 L 50.515625 22.273438 Z M 55.140625 22.273438 C 55.140625 22.273438 56.609375 29.980469 56.632812 30.09375 C 56.613281 30.207031 55.21875 38.867188 55.21875 38.867188 L 57.953125 40.953125 L 59.59375 41.140625 L 59.59375 39.679688 C 60.28125 40.214844 61.84375 41.4375 61.84375 41.4375 L 64 41.734375 C 64 41.734375 62.164062 32.199219 62.140625 32.078125 C 62.164062 31.960938 63.570312 24.234375 63.570312 24.234375 L 61.648438 22.273438 L 59.140625 22.273438 C 59.140625 22.273438 59.011719 23.078125 58.929688 23.585938 C 58.433594 23.046875 57.71875 22.273438 57.71875 22.273438 Z M 55.140625 22.273438 " id="path116" /> </g> <linearGradient id="linear1" gradientUnits="userSpaceOnUse" x1="0" y1="0" x2="0" y2="1" gradientTransform="matrix(60.890625,0,0,16.617188,0.539063,22.734375)"> <stop offset="0" style="stop-color:#d1b597;stop-opacity:1;" id="stop119" /> <stop offset="1" style="stop-color:#a6896a;stop-opacity:1;" id="stop121" /> </linearGradient> <filter style="color-interpolation-filters:sRGB;" inkscape:label="Diffuse Light" id="filter1600" x="-0.0375" y="-0.12327448" width="1.075" height="1.246549"> <feGaussianBlur in="SourceGraphic" stdDeviation="1" result="blur" id="feGaussianBlur1590" /> <feDiffuseLighting diffuseConstant="1" surfaceScale="10" lighting-color="rgb(255,255,255)" result="diffuse" id="feDiffuseLighting1594"> <feDistantLight elevation="8" azimuth="235" id="feDistantLight1592" /> </feDiffuseLighting> <feComposite in="diffuse" in2="diffuse" operator="arithmetic" k1="1" result="composite1" id="feComposite1596" /> <feComposite in="composite1" in2="SourceGraphic" k1="1" operator="arithmetic" k3="1" result="composite2" id="feComposite1598" /> </filter> </defs> <g id="surface1" transform="matrix(1,0,0,1.4487318,0,-12.94536)" style="filter:url(#filter1600)"> <use xlink:href="#surface5" mask="url(#mask0)" id="use126" /> <path style="fill:url(#linear1);fill-rule:nonzero;stroke:none" d="m 0.539062,22.734375 v 16.617187 c 0,0 0.535157,-0.07422 1.671876,-0.203124 L 2.09375,26.515625 l 0.117188,-0.0078 1.921874,12.445313 c 0,0 0.65625,-0.08203 2.890626,-0.304687 V 22.734375 H 5.3125 L 5.367188,35.960938 5.25,35.976562 3.234375,22.742188 Z m 12.015626,0 v 15.46875 c 0,0 0.984374,-0.06641 3.828124,-0.25 v -1.523437 l -2.148437,0.148437 V 31.257812 L 16.382812,31.25 v -1.546875 h -2.15625 v -5.429687 h 2.164063 v -1.539063 z m 8.046874,0 v 1.539063 H 22.40625 V 37.65625 c 0,0 0.390625,-0.02734 1.65625,-0.05469 l 0.0078,-13.328124 h 1.828126 v -1.53125 z m 10.296876,0 v 14.75 h 1.679687 V 31.257812 L 34.726562,31.25 v -1.546875 h -2.15625 v -5.429687 h 2.164063 v -1.539063 z m 9.109374,0 v 14.867187 c 0,0 1.128907,0.03516 3.851563,0.15625 V 36.25 c 0,0 -0.308594,-0.02734 -2.1875,-0.09375 V 22.734375 Z m 8.53125,0 v 15.28125 c 0,0 0.609376,0.03125 1.65625,0.109375 V 22.734375 Z m 7.164063,0 1.429687,7.34375 -1.382812,8.585937 1.78125,0.164063 0.921875,-7.070313 H 58.5625 L 59.453125,39.03125 61.40625,39.25 60.007812,30.289062 61.429688,22.734375 H 59.5625 l -0.9375,5.9375 h -0.117188 l -0.96875,-5.9375 z m 0,0" id="path128" /> </g></svg>
