<svg width="64" height="64" viewBox="0 0 64 64" version="1.1" xmlns:inkscape="http://www.inkscape.org/namespaces/inkscape"><defs><linearGradient id="linear0" gradientUnits="userSpaceOnUse" x1="0" y1="0" x2="0" y2="1" gradientTransform="matrix(64,0,0,51.203125,0,6.398438)"><stop offset="0" style="stop-color:rgb(100%,63.137257%,63.137257%);stop-opacity:1;"/><stop offset="1" style="stop-color:rgb(100%,27.843139%,27.843139%);stop-opacity:1;"/></linearGradient><filter style="color-interpolation-filters:sRGB;" inkscape:label="Diffuse Light" id="filter184" x="-0.0375" y="-0.0375" width="1.075" height="1.075"><feGaussianBlur in="SourceGraphic" stdDeviation="1" result="blur" id="feGaussianBlur174" /><feDiffuseLighting diffuseConstant="1" surfaceScale="10" lighting-color="rgb(255,255,255)" result="diffuse" id="feDiffuseLighting178"><feDistantLight elevation="8" azimuth="235" id="feDistantLight176" /></feDiffuseLighting><feComposite in="diffuse" in2="diffuse" operator="arithmetic" k1="1" result="composite1" id="feComposite180" /><feComposite in="composite1" in2="SourceGraphic" k1="1" operator="arithmetic" k3="1" result="composite2" id="feComposite182" /></filter></defs><g id="surface1" style="filter:url(#filter184)"><path style=" stroke:none;fill-rule:nonzero;fill:url(#linear0);" d="M 4.570312 6.398438 C 2.039062 6.398438 0 8.476562 0 11.054688 L 0 52.945312 C 0 55.523438 2.039062 57.601562 4.570312 57.601562 L 9.601562 57.601562 L 9.601562 38.6875 C 9.601562 36.761719 11.136719 35.199219 13.027344 35.199219 L 50.972656 35.199219 C 52.863281 35.199219 54.398438 36.761719 54.398438 38.6875 L 54.398438 57.601562 L 59.429688 57.601562 C 61.960938 57.601562 64 55.523438 64 52.945312 L 64 15.851562 C 64 13.277344 61.957031 11.03125 59.429688 11.199219 L 35.429688 11.199219 L 26.285156 6.398438 Z M 16 41.601562 L 16 57.601562 L 48 57.601562 L 48 41.601562 Z M 16 41.601562 "/></g></svg>
