<svg width="64" height="64" viewBox="0 0 64 64" version="1.1" xmlns:inkscape="http://www.inkscape.org/namespaces/inkscape"><defs><linearGradient id="linear0" gradientUnits="userSpaceOnUse" x1="0" y1="0" x2="0" y2="1" gradientTransform="matrix(61.766894,0,0,67.933698,0.728702,8.757463)"><stop offset="0" style="stop-color:rgb(92.941177%,83.529413%,72.549021%);stop-opacity:1;"/><stop offset="1" style="stop-color:rgb(81.960785%,71.372551%,59.215689%);stop-opacity:1;"/></linearGradient><filter style="color-interpolation-filters:sRGB;" inkscape:label="Diffuse Light" id="filter184" x="-0.0375" y="-0.0375" width="1.075" height="1.075"><feGaussianBlur in="SourceGraphic" stdDeviation="1" result="blur" id="feGaussianBlur174" /><feDiffuseLighting diffuseConstant="1" surfaceScale="10" lighting-color="rgb(255,255,255)" result="diffuse" id="feDiffuseLighting178"><feDistantLight elevation="8" azimuth="235" id="feDistantLight176" /></feDiffuseLighting><feComposite in="diffuse" in2="diffuse" operator="arithmetic" k1="1" result="composite1" id="feComposite180" /><feComposite in="composite1" in2="SourceGraphic" k1="1" operator="arithmetic" k3="1" result="composite2" id="feComposite182" /></filter></defs><g id="surface1" style="filter:url(#filter184)"><path style=" stroke:none;fill-rule:evenodd;fill:url(#linear0);" d="M 31.863281 8.914062 C 31.84375 8.914062 30 12.335938 27.765625 16.515625 L 23.699219 24.117188 L 24.632812 28.921875 C 25.152344 31.558594 25.566406 33.734375 25.558594 33.753906 C 25.554688 33.777344 24.011719 30.871094 22.128906 27.304688 C 20.242188 23.738281 18.695312 20.820312 18.675781 20.820312 C 18.664062 20.820312 14.359375 28.542969 9.113281 37.976562 C 4.660156 46.003906 2.015625 50.746094 0.964844 52.636719 L 0.964844 57.5 L 63.265625 57.5 L 63.265625 53.519531 C 62.492188 52.148438 59.390625 46.578125 54.671875 38.089844 C 49.417969 28.632812 45.089844 20.863281 45.070312 20.835938 C 45.035156 20.789062 44.796875 21.191406 44.128906 22.457031 C 43.632812 23.375 43.226562 24.164062 43.210938 24.207031 C 43.199219 24.253906 43.613281 26.414062 44.121094 29.019531 C 44.628906 31.625 45.042969 33.761719 45.03125 33.769531 C 45.023438 33.78125 42.0625 28.191406 38.449219 21.351562 C 34.847656 14.511719 31.878906 8.914062 31.863281 8.914062 Z M 31.863281 8.914062 "/></g></svg>
