<svg width="64" height="64" viewBox="0 0 64 64" version="1.1" xmlns:inkscape="http://www.inkscape.org/namespaces/inkscape"><defs><linearGradient id="linear0" gradientUnits="userSpaceOnUse" x1="0" y1="0" x2="0" y2="1" gradientTransform="matrix(64,0,0,64,0,0)"><stop offset="0" style="stop-color:rgb(0%,96.078432%,86.274511%);stop-opacity:1;"/><stop offset="1" style="stop-color:rgb(0%,54.901963%,49.411765%);stop-opacity:1;"/></linearGradient><filter style="color-interpolation-filters:sRGB;" inkscape:label="Diffuse Light" id="filter184" x="-0.0375" y="-0.0375" width="1.075" height="1.075"><feGaussianBlur in="SourceGraphic" stdDeviation="1" result="blur" id="feGaussianBlur174" /><feDiffuseLighting diffuseConstant="1" surfaceScale="10" lighting-color="rgb(255,255,255)" result="diffuse" id="feDiffuseLighting178"><feDistantLight elevation="8" azimuth="235" id="feDistantLight176" /></feDiffuseLighting><feComposite in="diffuse" in2="diffuse" operator="arithmetic" k1="1" result="composite1" id="feComposite180" /><feComposite in="composite1" in2="SourceGraphic" k1="1" operator="arithmetic" k3="1" result="composite2" id="feComposite182" /></filter></defs><g id="surface1" style="filter:url(#filter184)"><path style=" stroke:none;fill-rule:nonzero;fill:url(#linear0);" d="M 0 64 L 22.558594 64 L 22.558594 58.515625 L 18.011719 57.601562 C 15.476562 57.050781 15.214844 56.226562 15.214844 53.394531 L 15.214844 15.632812 L 15.5625 15.632812 L 43.277344 64 L 56.65625 64 L 56.65625 10.972656 C 56.65625 7.953125 56.742188 6.855469 59.277344 6.398438 L 64 5.484375 L 64 0 L 41.441406 0 L 41.441406 5.484375 L 46.078125 6.398438 C 48.613281 6.855469 48.785156 7.769531 48.785156 10.605469 L 48.785156 48.367188 L 48.523438 48.367188 L 20.808594 0 L 0 0 L 0 5.484375 L 4.632812 6.398438 C 7.167969 6.855469 7.34375 7.769531 7.34375 10.605469 L 7.34375 53.027344 C 7.34375 56.226562 7.167969 57.144531 4.722656 57.601562 L 0 58.515625 Z M 0 64 "/></g></svg>
