<svg width="64" height="64" viewBox="0 0 64 64" version="1.1" xmlns:inkscape="http://www.inkscape.org/namespaces/inkscape"><defs><linearGradient id="linear0" gradientUnits="userSpaceOnUse" x1="0" y1="0" x2="0" y2="1" gradientTransform="matrix(64,0,0,20.515625,0,21.742188)"><stop offset="0" style="stop-color:rgb(100%,56.862748%,82.745099%);stop-opacity:1;"/><stop offset="1" style="stop-color:rgb(100%,0%,60.000002%);stop-opacity:1;"/></linearGradient><filter style="color-interpolation-filters:sRGB;" inkscape:label="Diffuse Light" id="filter184" x="-0.0375" y="-0.0375" width="1.075" height="1.075"><feGaussianBlur in="SourceGraphic" stdDeviation="1" result="blur" id="feGaussianBlur174" /><feDiffuseLighting diffuseConstant="1" surfaceScale="10" lighting-color="rgb(255,255,255)" result="diffuse" id="feDiffuseLighting178"><feDistantLight elevation="8" azimuth="235" id="feDistantLight176" /></feDiffuseLighting><feComposite in="diffuse" in2="diffuse" operator="arithmetic" k1="1" result="composite1" id="feComposite180" /><feComposite in="composite1" in2="SourceGraphic" k1="1" operator="arithmetic" k3="1" result="composite2" id="feComposite182" /></filter></defs><g id="surface1" style="filter:url(#filter184)"><path style=" stroke:none;fill-rule:nonzero;fill:url(#linear0);" d="M 19.691406 42.257812 L 27.898438 42.257812 L 27.898438 38.152344 L 36.101562 38.152344 L 36.101562 21.742188 L 19.691406 21.742188 Z M 27.898438 25.847656 L 32 25.847656 L 32 34.050781 L 27.898438 34.050781 Z M 39.382812 21.742188 L 39.382812 38.152344 L 47.589844 38.152344 L 47.589844 25.847656 L 51.691406 25.847656 L 51.691406 38.152344 L 55.792969 38.152344 L 55.792969 25.847656 L 59.898438 25.847656 L 59.898438 38.152344 L 64 38.152344 L 64 21.742188 Z M 0 38.152344 L 8.207031 38.152344 L 8.207031 25.847656 L 12.308594 25.847656 L 12.308594 38.152344 L 16.410156 38.152344 L 16.410156 21.742188 L 0 21.742188 Z M 0 38.152344 "/></g></svg>
