<svg width="64" height="64" viewBox="0 0 64 64" version="1.1" xmlns:inkscape="http://www.inkscape.org/namespaces/inkscape"><defs><linearGradient id="linear0" gradientUnits="userSpaceOnUse" x1="0" y1="0" x2="0" y2="1" gradientTransform="matrix(56,0,0,35.898438,4,14.050781)"><stop offset="0" style="stop-color:rgb(87.058824%,86.666667%,56.470591%);stop-opacity:1;"/><stop offset="1" style="stop-color:rgb(67.843139%,67.450982%,38.039216%);stop-opacity:1;"/></linearGradient><filter style="color-interpolation-filters:sRGB;" inkscape:label="Diffuse Light" id="filter184" x="-0.0375" y="-0.0375" width="1.075" height="1.075"><feGaussianBlur in="SourceGraphic" stdDeviation="1" result="blur" id="feGaussianBlur174" /><feDiffuseLighting diffuseConstant="1" surfaceScale="10" lighting-color="rgb(255,255,255)" result="diffuse" id="feDiffuseLighting178"><feDistantLight elevation="8" azimuth="235" id="feDistantLight176" /></feDiffuseLighting><feComposite in="diffuse" in2="diffuse" operator="arithmetic" k1="1" result="composite1" id="feComposite180" /><feComposite in="composite1" in2="SourceGraphic" k1="1" operator="arithmetic" k3="1" result="composite2" id="feComposite182" /></filter></defs><g id="surface1" style="filter:url(#filter184)"><path style=" stroke:none;fill-rule:nonzero;fill:url(#linear0);" d="M 4.589844 6.378906 L 4.589844 28.984375 L 10.046875 28.984375 L 10.046875 6.378906 Z M 10.046875 10.488281 L 20.960938 10.488281 L 20.960938 28.984375 L 26.417969 28.984375 L 26.417969 6.378906 L 15.503906 6.378906 Z M 34.605469 6.378906 L 42.246094 24.464844 L 39.519531 28.984375 L 34.605469 28.984375 L 34.605469 33.097656 L 42.792969 33.097656 L 59.164062 6.378906 L 53.707031 6.378906 L 45.519531 19.121094 L 40.0625 6.378906 Z M 45.519531 37.207031 L 45.519531 41.316406 L 40.0625 41.316406 L 40.0625 45.429688 L 45.519531 45.429688 L 45.519531 55.703125 L 50.976562 59.816406 L 59.164062 59.816406 L 59.164062 55.703125 L 50.976562 55.703125 L 50.976562 45.429688 L 59.164062 45.429688 L 59.164062 41.316406 L 50.976562 41.316406 L 50.976562 37.207031 Z M 4.589844 39.261719 L 15.097656 49.539062 L 4.589844 59.816406 L 10.867188 59.816406 L 18.234375 52.601562 L 25.601562 59.816406 L 31.878906 59.816406 L 10.867188 39.261719 Z M 25.601562 39.261719 L 19.597656 45.140625 L 22.734375 48.203125 L 31.878906 39.261719 Z M 25.601562 39.261719 "/></g></svg>
