<svg width="64" height="64" viewBox="0 0 64 64" version="1.1" xmlns:inkscape="http://www.inkscape.org/namespaces/inkscape"><defs><linearGradient id="linear0" gradientUnits="userSpaceOnUse" x1="0" y1="0" x2="0" y2="1" gradientTransform="matrix(64.614743,0,0,39.685448,1.228821,11.079379)"><stop offset="0" style="stop-color:rgb(100%,56.862748%,82.745099%);stop-opacity:1;"/><stop offset="1" style="stop-color:rgb(100%,0%,60.000002%);stop-opacity:1;"/></linearGradient><filter style="color-interpolation-filters:sRGB;" inkscape:label="Diffuse Light" id="filter184" x="-0.0375" y="-0.0375" width="1.075" height="1.075"><feGaussianBlur in="SourceGraphic" stdDeviation="1" result="blur" id="feGaussianBlur174" /><feDiffuseLighting diffuseConstant="1" surfaceScale="10" lighting-color="rgb(255,255,255)" result="diffuse" id="feDiffuseLighting178"><feDistantLight elevation="8" azimuth="235" id="feDistantLight176" /></feDiffuseLighting><feComposite in="diffuse" in2="diffuse" operator="arithmetic" k1="1" result="composite1" id="feComposite180" /><feComposite in="composite1" in2="SourceGraphic" k1="1" operator="arithmetic" k3="1" result="composite2" id="feComposite182" /></filter></defs><g id="surface1" style="filter:url(#filter184)"><path style=" stroke:none;fill-rule:nonzero;fill:url(#linear0);" d="M 32.328125 2.292969 C 15.527344 2.292969 1.886719 15.695312 1.886719 32.207031 C 1.886719 48.722656 15.527344 62.121094 32.328125 62.121094 C 49.132812 62.121094 62.769531 48.722656 62.769531 32.207031 C 62.769531 15.695312 49.132812 2.292969 32.328125 2.292969 M 32.328125 6.28125 C 46.898438 6.277344 58.707031 17.890625 58.707031 32.207031 C 58.707031 46.527344 46.898438 58.132812 32.328125 58.132812 C 20.089844 58.128906 9.394531 49.835938 6.757812 38.191406 L 16.175781 24.3125 L 7.328125 24.3125 C 10.839844 13.621094 20.964844 6.363281 32.492188 6.363281 "/></g></svg>
