<svg width="64" height="64" viewBox="0 0 64 64" version="1.1" xmlns:inkscape="http://www.inkscape.org/namespaces/inkscape"><defs><linearGradient id="linear0" gradientUnits="userSpaceOnUse" x1="0" y1="0" x2="0" y2="1" gradientTransform="matrix(46.226563,0,0,64,8.886719,0)"><stop offset="0" style="stop-color:rgb(100%,56.862748%,82.745099%);stop-opacity:1;"/><stop offset="1" style="stop-color:rgb(100%,0%,60.000002%);stop-opacity:1;"/></linearGradient><filter style="color-interpolation-filters:sRGB;" inkscape:label="Diffuse Light" id="filter184" x="-0.0375" y="-0.0375" width="1.075" height="1.075"><feGaussianBlur in="SourceGraphic" stdDeviation="1" result="blur" id="feGaussianBlur174" /><feDiffuseLighting diffuseConstant="1" surfaceScale="10" lighting-color="rgb(255,255,255)" result="diffuse" id="feDiffuseLighting178"><feDistantLight elevation="8" azimuth="235" id="feDistantLight176" /></feDiffuseLighting><feComposite in="diffuse" in2="diffuse" operator="arithmetic" k1="1" result="composite1" id="feComposite180" /><feComposite in="composite1" in2="SourceGraphic" k1="1" operator="arithmetic" k3="1" result="composite2" id="feComposite182" /></filter></defs><g id="surface1" style="filter:url(#filter184)"><path style=" stroke:none;fill-rule:nonzero;fill:url(#linear0);" d="M 8.886719 0 L 8.886719 29.539062 C 8.886719 36.09375 11.34375 42.40625 15.492188 46.222656 L 8.886719 56.886719 C 15.613281 62.066406 23.699219 64 32 64 C 40.300781 64 48.386719 62.066406 55.113281 56.886719 L 48.507812 46.222656 C 52.65625 42.40625 55.113281 36.09375 55.113281 29.539062 L 55.113281 0 L 46.222656 0 L 46.222656 11.816406 C 44.363281 10.621094 40.753906 8.355469 37.332031 7.710938 L 37.332031 0 L 26.667969 0 L 26.667969 7.710938 C 25.019531 8.0625 19.636719 10.621094 17.777344 11.816406 L 17.777344 0 Z M 32 17.777344 C 38.230469 17.777344 42.261719 20.648438 46.222656 23.113281 L 46.222656 32 C 46.222656 38.242188 36.625 43.761719 32 46.222656 C 27.375 43.761719 17.777344 38.242188 17.777344 32 L 17.777344 23.113281 C 21.738281 20.648438 25.769531 17.777344 32 17.777344 Z M 32 17.777344 "/></g></svg>
