<svg width="64" height="64" viewBox="0 0 64 64" version="1.1" xmlns:inkscape="http://www.inkscape.org/namespaces/inkscape"><defs><linearGradient id="linear0" gradientUnits="userSpaceOnUse" x1="0" y1="0" x2="0" y2="1" gradientTransform="matrix(61.621631,0,0,41.462827,1.853539,11.180914)"><stop offset="0" style="stop-color:rgb(0%,78.823531%,36.862746%);stop-opacity:1;"/><stop offset="1" style="stop-color:rgb(0%,54.11765%,25.098041%);stop-opacity:1;"/></linearGradient><filter style="color-interpolation-filters:sRGB;" inkscape:label="Diffuse Light" id="filter184" x="-0.0375" y="-0.0375" width="1.075" height="1.075"><feGaussianBlur in="SourceGraphic" stdDeviation="1" result="blur" id="feGaussianBlur174" /><feDiffuseLighting diffuseConstant="1" surfaceScale="10" lighting-color="rgb(255,255,255)" result="diffuse" id="feDiffuseLighting178"><feDistantLight elevation="8" azimuth="235" id="feDistantLight176" /></feDiffuseLighting><feComposite in="diffuse" in2="diffuse" operator="arithmetic" k1="1" result="composite1" id="feComposite180" /><feComposite in="composite1" in2="SourceGraphic" k1="1" operator="arithmetic" k3="1" result="composite2" id="feComposite182" /></filter></defs><g id="surface1" style="filter:url(#filter184)"><path style=" stroke:none;fill-rule:nonzero;fill:url(#linear0);" d="M 55.609375 1.0625 C 54.667969 1.03125 53.777344 1.476562 53.296875 2.226562 L 47.703125 10.601562 L 6.367188 10.601562 C 3.5 10.601562 1.191406 12.726562 1.191406 15.371094 L 1.191406 44 C 1.191406 46.644531 3.5 48.773438 6.367188 48.773438 L 24.46875 48.773438 L 24.46875 63.089844 L 39.988281 48.773438 L 58.09375 48.773438 C 60.957031 48.773438 63.265625 46.644531 63.265625 44 L 63.265625 15.371094 C 63.265625 12.726562 60.957031 10.601562 58.09375 10.601562 L 53.761719 10.601562 L 57.695312 4.710938 C 58.1875 3.992188 58.226562 3.082031 57.796875 2.328125 C 57.367188 1.574219 56.535156 1.09375 55.613281 1.0625 Z M 8.949219 15.371094 L 44.523438 15.371094 L 32.65625 33.152344 C 32.113281 33.878906 32.046875 34.824219 32.484375 35.601562 C 32.925781 36.386719 33.800781 36.878906 34.753906 36.890625 C 35.707031 36.898438 36.59375 36.417969 37.046875 35.644531 L 50.574219 15.371094 L 55.507812 15.371094 C 56.9375 15.371094 58.089844 16.4375 58.089844 17.757812 L 58.089844 41.617188 C 58.089844 42.9375 56.9375 44 55.507812 44 L 38.4375 44 L 29.644531 52.117188 L 29.644531 44 L 8.949219 44 C 7.519531 44 6.363281 42.9375 6.363281 41.617188 L 6.363281 17.757812 C 6.363281 16.4375 7.519531 15.371094 8.949219 15.371094 Z M 8.949219 15.371094 "/></g></svg>
