<svg width="64" height="64" viewBox="0 0 64 64" version="1.1" xmlns:inkscape="http://www.inkscape.org/namespaces/inkscape"><defs><linearGradient id="linear0" gradientUnits="userSpaceOnUse" x1="0" y1="0" x2="0" y2="1" gradientTransform="matrix(33.050781,0,0,64,15.503906,0.15625)"><stop offset="0" style="stop-color:rgb(82.352942%,61.176473%,100%);stop-opacity:1;"/><stop offset="1" style="stop-color:rgb(66.666669%,0%,100%);stop-opacity:1;"/></linearGradient><filter style="color-interpolation-filters:sRGB;" inkscape:label="Diffuse Light" id="filter184" x="-0.0375" y="-0.0375" width="1.075" height="1.075"><feGaussianBlur in="SourceGraphic" stdDeviation="1" result="blur" id="feGaussianBlur174" /><feDiffuseLighting diffuseConstant="1" surfaceScale="10" lighting-color="rgb(255,255,255)" result="diffuse" id="feDiffuseLighting178"><feDistantLight elevation="8" azimuth="235" id="feDistantLight176" /></feDiffuseLighting><feComposite in="diffuse" in2="diffuse" operator="arithmetic" k1="1" result="composite1" id="feComposite180" /><feComposite in="composite1" in2="SourceGraphic" k1="1" operator="arithmetic" k3="1" result="composite2" id="feComposite182" /></filter></defs><g id="surface1" style="filter:url(#filter184)"><path style=" stroke:none;fill-rule:nonzero;fill:url(#linear0);" d="M 33.867188 51.714844 C 36.460938 51.484375 37.867188 50.46875 39.222656 49.207031 C 40.601562 47.941406 41.210938 46.785156 41.210938 44.601562 C 41.210938 42.625 40.613281 40.382812 39.257812 39.003906 C 37.902344 37.625 36.484375 36.425781 33.867188 35.714844 Z M 30.195312 12.601562 C 27.828125 12.761719 25.644531 13.730469 24.335938 14.949219 C 23.027344 16.144531 22.847656 17.691406 22.847656 19.714844 C 22.847656 21.550781 22.96875 23.140625 24.164062 24.359375 C 25.378906 25.574219 27.621094 26.066406 30.195312 26.824219 Z M 15.503906 51.714844 L 15.503906 42.824219 L 19.175781 42.824219 C 19.269531 45.972656 20.3125 47.324219 22.0625 48.929688 C 23.808594 50.539062 26.746094 51.644531 30.195312 51.714844 L 30.195312 35.714844 C 24.910156 34.242188 20.855469 31.570312 18.71875 29.664062 C 16.582031 27.734375 15.503906 25.183594 15.503906 22.015625 C 15.503906 18.335938 16.777344 15.386719 19.304688 13.15625 C 21.832031 10.929688 25.691406 9.324219 30.195312 9.046875 L 30.195312 0.15625 L 33.867188 0.15625 L 33.867188 9.046875 C 36.1875 9.230469 37.84375 9.964844 39.980469 10.539062 C 42.140625 11.089844 44.675781 11.835938 46.71875 12.777344 L 46.71875 21.492188 L 43.046875 21.492188 C 42.769531 18.824219 41.324219 17.039062 39.742188 15.5 C 38.15625 13.960938 36.578125 12.808594 33.867188 12.601562 L 33.867188 28.601562 C 39.519531 30.140625 42.898438 31.765625 45.152344 33.765625 C 47.425781 35.742188 48.554688 37.714844 48.554688 41.046875 C 48.554688 44.859375 47.230469 48.597656 44.566406 50.894531 C 41.902344 53.191406 38.714844 54.925781 33.867188 55.269531 L 33.867188 64.15625 L 30.195312 64.15625 L 30.195312 55.269531 C 27.988281 55.222656 25.359375 54.492188 22.992188 53.894531 C 20.625 53.320312 18.078125 52.863281 15.503906 51.714844 Z M 15.503906 51.714844 "/></g></svg>
