<svg width="64" height="64" viewBox="0 0 64 64" version="1.1" xmlns:inkscape="http://www.inkscape.org/namespaces/inkscape"><defs><linearGradient id="linear0" gradientUnits="userSpaceOnUse" x1="0" y1="0" x2="0" y2="1" gradientTransform="matrix(56,0,0,35.898438,4,14.050781)"><stop offset="0" style="stop-color:rgb(0%,96.078432%,86.274511%);stop-opacity:1;"/><stop offset="1" style="stop-color:rgb(0%,54.901963%,49.411765%);stop-opacity:1;"/></linearGradient><filter style="color-interpolation-filters:sRGB;" inkscape:label="Diffuse Light" id="filter184" x="-0.0375" y="-0.0375" width="1.075" height="1.075"><feGaussianBlur in="SourceGraphic" stdDeviation="1" result="blur" id="feGaussianBlur174" /><feDiffuseLighting diffuseConstant="1" surfaceScale="10" lighting-color="rgb(255,255,255)" result="diffuse" id="feDiffuseLighting178"><feDistantLight elevation="8" azimuth="235" id="feDistantLight176" /></feDiffuseLighting><feComposite in="diffuse" in2="diffuse" operator="arithmetic" k1="1" result="composite1" id="feComposite180" /><feComposite in="composite1" in2="SourceGraphic" k1="1" operator="arithmetic" k3="1" result="composite2" id="feComposite182" /></filter></defs><g id="surface1" style="filter:url(#filter184)"><path style=" stroke:none;fill-rule:nonzero;fill:url(#linear0);" d="M 49.464844 4.738281 C 44.460938 4.738281 40.40625 8.976562 40.40625 14.210938 C 40.40625 19.441406 44.460938 23.679688 49.464844 23.679688 C 54.46875 23.679688 58.527344 19.441406 58.527344 14.210938 C 58.527344 8.976562 54.46875 4.738281 49.464844 4.738281 Z M 13.226562 4.769531 C 8.210938 4.769531 4.164062 9 4.164062 14.242188 C 4.164062 19.449219 8.210938 23.714844 13.226562 23.714844 C 18.238281 23.714844 22.285156 19.449219 22.285156 14.242188 C 22.285156 9 18.238281 4.769531 13.226562 4.769531 Z M 31.34375 23.714844 C 26.332031 23.714844 22.285156 27.945312 22.285156 33.1875 C 22.285156 38.394531 26.332031 42.65625 31.34375 42.65625 C 36.359375 42.65625 40.40625 38.394531 40.40625 33.1875 C 40.40625 27.945312 36.359375 23.714844 31.34375 23.714844 Z M 13.226562 42.625 C 8.222656 42.625 4.164062 46.867188 4.164062 52.097656 C 4.164062 57.332031 8.222656 61.570312 13.226562 61.570312 C 18.230469 61.570312 22.285156 57.332031 22.285156 52.097656 C 22.285156 46.867188 18.230469 42.625 13.226562 42.625 Z M 49.464844 42.65625 C 44.453125 42.65625 40.40625 46.890625 40.40625 52.128906 C 40.40625 57.339844 44.453125 61.601562 49.464844 61.601562 C 54.480469 61.601562 58.527344 57.339844 58.527344 52.128906 C 58.527344 46.890625 54.480469 42.65625 49.464844 42.65625 Z M 49.464844 42.65625 "/></g></svg>
