<svg width="64" height="64" viewBox="0 0 64 64" version="1.1" xmlns:inkscape="http://www.inkscape.org/namespaces/inkscape"><defs><linearGradient id="linear0" gradientUnits="userSpaceOnUse" x1="0" y1="0" x2="0" y2="1" gradientTransform="matrix(64,0,0,49.773438,0,7.113281)"><stop offset="0" style="stop-color:rgb(61.176473%,69.803923%,85.09804%);stop-opacity:1;"/><stop offset="1" style="stop-color:rgb(44.313726%,52.156866%,65.882355%);stop-opacity:1;"/></linearGradient><filter style="color-interpolation-filters:sRGB;" inkscape:label="Diffuse Light" id="filter184" x="-0.0375" y="-0.0375" width="1.075" height="1.075"><feGaussianBlur in="SourceGraphic" stdDeviation="1" result="blur" id="feGaussianBlur174" /><feDiffuseLighting diffuseConstant="1" surfaceScale="10" lighting-color="rgb(255,255,255)" result="diffuse" id="feDiffuseLighting178"><feDistantLight elevation="8" azimuth="235" id="feDistantLight176" /></feDiffuseLighting><feComposite in="diffuse" in2="diffuse" operator="arithmetic" k1="1" result="composite1" id="feComposite180" /><feComposite in="composite1" in2="SourceGraphic" k1="1" operator="arithmetic" k3="1" result="composite2" id="feComposite182" /></filter></defs><g id="surface1" style="filter:url(#filter184)"><path style=" stroke:none;fill-rule:nonzero;fill:url(#linear0);" d="M 32 7.113281 C 24.183594 7.121094 16.382812 9.03125 10.433594 12.816406 C -2.65625 21.128906 -3.558594 35.511719 8.464844 44.347656 C 9.570312 45.144531 10.574219 45.886719 10.703125 45.988281 L 7.375 51.902344 L 14.222656 56.886719 L 32 27.308594 L 49.777344 56.886719 L 56.625 51.902344 L 53.296875 45.988281 C 53.425781 45.886719 54.429688 45.144531 55.53125 44.347656 C 67.558594 35.511719 66.660156 21.125 53.566406 12.816406 C 47.617188 9.03125 39.816406 7.121094 32 7.113281 Z M 30.199219 10.667969 L 14.199219 39.113281 C -3.574219 24.886719 15.980469 10.667969 30.199219 10.667969 Z M 33.777344 10.667969 C 48 10.667969 67.554688 24.886719 49.777344 39.113281 Z M 32 35.554688 L 24.886719 46.214844 L 32 56.886719 L 39.113281 46.214844 Z M 32 35.554688 "/></g></svg>
