<svg width="64" height="64" viewBox="0 0 64 64" version="1.1" xmlns:inkscape="http://www.inkscape.org/namespaces/inkscape"><defs><linearGradient id="linear0" gradientUnits="userSpaceOnUse" x1="0" y1="0" x2="0" y2="1" gradientTransform="matrix(56,0,0,35.898438,1.255164,16.067259)"><stop offset="0" style="stop-color:rgb(61.176473%,69.803923%,85.09804%);stop-opacity:1;"/><stop offset="1" style="stop-color:rgb(44.313726%,52.156866%,65.882355%);stop-opacity:1;"/></linearGradient><linearGradient id="linear1" gradientUnits="userSpaceOnUse" x1="0" y1="0" x2="0" y2="1" gradientTransform="matrix(56,0,0,35.898438,1.255164,16.067259)"><stop offset="0" style="stop-color:rgb(61.176473%,69.803923%,85.09804%);stop-opacity:1;"/><stop offset="1" style="stop-color:rgb(44.313726%,52.156866%,65.882355%);stop-opacity:1;"/></linearGradient><linearGradient id="linear2" gradientUnits="userSpaceOnUse" x1="0" y1="0" x2="0" y2="1" gradientTransform="matrix(56,0,0,35.898438,1.255164,16.067259)"><stop offset="0" style="stop-color:rgb(61.176473%,69.803923%,85.09804%);stop-opacity:1;"/><stop offset="1" style="stop-color:rgb(44.313726%,52.156866%,65.882355%);stop-opacity:1;"/></linearGradient><filter style="color-interpolation-filters:sRGB;" inkscape:label="Diffuse Light" id="filter184" x="-0.0375" y="-0.0375" width="1.075" height="1.075"><feGaussianBlur in="SourceGraphic" stdDeviation="1" result="blur" id="feGaussianBlur174" /><feDiffuseLighting diffuseConstant="1" surfaceScale="10" lighting-color="rgb(255,255,255)" result="diffuse" id="feDiffuseLighting178"><feDistantLight elevation="8" azimuth="235" id="feDistantLight176" /></feDiffuseLighting><feComposite in="diffuse" in2="diffuse" operator="arithmetic" k1="1" result="composite1" id="feComposite180" /><feComposite in="composite1" in2="SourceGraphic" k1="1" operator="arithmetic" k3="1" result="composite2" id="feComposite182" /></filter></defs><g id="surface1" style="filter:url(#filter184)"><path style=" stroke:none;fill-rule:nonzero;fill:url(#linear0);" d="M 19.121094 8.304688 L 19.121094 44.359375 L 2.929688 44.359375 L 5.242188 46.613281 L 5.628906 46.613281 L 12.183594 57.882812 L 35.316406 57.882812 L 58.449219 46.613281 L 60.761719 46.613281 L 63.074219 44.359375 L 39.941406 44.359375 L 39.941406 42.105469 C 39.941406 19.570312 19.121094 8.304688 19.121094 8.304688 Z M 19.121094 8.304688 "/><path style=" stroke:none;fill-rule:nonzero;fill:url(#linear1);" d="M 0.617188 42.105469 L 2.929688 44.359375 L 3.3125 44.359375 L 9.871094 55.628906 L 33.003906 55.628906 L 56.132812 44.359375 L 58.449219 44.359375 L 60.761719 42.105469 Z M 0.617188 42.105469 "/><path style=" stroke:none;fill-rule:nonzero;fill:url(#linear2);" d="M 16.808594 6.050781 L 16.808594 42.105469 L 37.628906 42.105469 L 37.628906 39.851562 C 37.628906 17.316406 16.808594 6.050781 16.808594 6.050781 Z M 16.808594 6.050781 "/></g></svg>
