<svg width="64" height="64" viewBox="0 0 64 64" version="1.1" xmlns:inkscape="http://www.inkscape.org/namespaces/inkscape"><defs><linearGradient id="linear0" gradientUnits="userSpaceOnUse" x1="0" y1="0" x2="0" y2="1" gradientTransform="matrix(64,0,0,64,0,0)"><stop offset="0" style="stop-color:rgb(100%,73.333335%,0%);stop-opacity:1;"/><stop offset="1" style="stop-color:rgb(70.19608%,51.372552%,0%);stop-opacity:1;"/></linearGradient><filter style="color-interpolation-filters:sRGB;" inkscape:label="Diffuse Light" id="filter184" x="-0.0375" y="-0.0375" width="1.075" height="1.075"><feGaussianBlur in="SourceGraphic" stdDeviation="1" result="blur" id="feGaussianBlur174" /><feDiffuseLighting diffuseConstant="1" surfaceScale="10" lighting-color="rgb(255,255,255)" result="diffuse" id="feDiffuseLighting178"><feDistantLight elevation="8" azimuth="235" id="feDistantLight176" /></feDiffuseLighting><feComposite in="diffuse" in2="diffuse" operator="arithmetic" k1="1" result="composite1" id="feComposite180" /><feComposite in="composite1" in2="SourceGraphic" k1="1" operator="arithmetic" k3="1" result="composite2" id="feComposite182" /></filter></defs><g id="surface1" style="filter:url(#filter184)"><path style=" stroke:none;fill-rule:evenodd;fill:url(#linear0);" d="M 0.78125 47.167969 C 9.859375 54.222656 23.640625 45.996094 29.5 42.773438 C 40.980469 36.464844 42.710938 44.382812 44.28125 45.476562 C 46.71875 47.628906 38.28125 54.429688 38.753906 59.226562 C 39.015625 61.886719 39.375 64 39.375 64 C 40.445312 64 52.65625 57.710938 52.28125 51.460938 C 57.21875 54.335938 58.273438 49.757812 64 50.671875 C 63.191406 49.398438 62.148438 47.503906 59.902344 46.511719 C 57.507812 45.585938 53.464844 45.714844 52.414062 42.566406 C 52.222656 39.003906 52.273438 20 43.9375 14.1875 C 42.722656 11.660156 44.035156 8.050781 46.40625 5.589844 C 48.546875 3.359375 51.769531 1.308594 52.871094 0 C 47.882812 -0.0546875 42.828125 1.402344 38.050781 4.273438 C 34.257812 6.550781 33.277344 8.585938 31.695312 9.347656 C 17.402344 6.421875 1.648438 18.59375 0.0585938 39.949219 C -0.0703125 41.675781 -0.046875 46.632812 0.78125 47.167969 Z M 0.78125 47.167969 "/></g></svg>
