<svg width="64" height="64" viewBox="0 0 64 64" version="1.1" xmlns:inkscape="http://www.inkscape.org/namespaces/inkscape"><defs><linearGradient id="linear0" gradientUnits="userSpaceOnUse" x1="0" y1="0" x2="0" y2="1" gradientTransform="matrix(73.498271,0,0,69.018957,-3.651103,-2.336522)"><stop offset="0" style="stop-color:rgb(61.176473%,69.803923%,85.09804%);stop-opacity:1;"/><stop offset="1" style="stop-color:rgb(44.313726%,52.156866%,65.882355%);stop-opacity:1;"/></linearGradient><linearGradient id="linear1" gradientUnits="userSpaceOnUse" x1="0" y1="0" x2="0" y2="1" gradientTransform="matrix(73.498271,0,0,69.018957,-3.651103,-2.336522)"><stop offset="0" style="stop-color:rgb(61.176473%,69.803923%,85.09804%);stop-opacity:1;"/><stop offset="1" style="stop-color:rgb(44.313726%,52.156866%,65.882355%);stop-opacity:1;"/></linearGradient><linearGradient id="linear2" gradientUnits="userSpaceOnUse" x1="0" y1="0" x2="0" y2="1" gradientTransform="matrix(73.498271,0,0,69.018957,-3.651103,-2.336522)"><stop offset="0" style="stop-color:rgb(61.176473%,69.803923%,85.09804%);stop-opacity:1;"/><stop offset="1" style="stop-color:rgb(44.313726%,52.156866%,65.882355%);stop-opacity:1;"/></linearGradient><linearGradient id="linear3" gradientUnits="userSpaceOnUse" x1="0" y1="0" x2="0" y2="1" gradientTransform="matrix(73.498271,0,0,69.018957,-3.651103,-2.336522)"><stop offset="0" style="stop-color:rgb(61.176473%,69.803923%,85.09804%);stop-opacity:1;"/><stop offset="1" style="stop-color:rgb(44.313726%,52.156866%,65.882355%);stop-opacity:1;"/></linearGradient><linearGradient id="linear4" gradientUnits="userSpaceOnUse" x1="0" y1="0" x2="0" y2="1" gradientTransform="matrix(73.498271,0,0,69.018957,-3.651103,-2.336522)"><stop offset="0" style="stop-color:rgb(61.176473%,69.803923%,85.09804%);stop-opacity:1;"/><stop offset="1" style="stop-color:rgb(44.313726%,52.156866%,65.882355%);stop-opacity:1;"/></linearGradient><filter style="color-interpolation-filters:sRGB;" inkscape:label="Diffuse Light" id="filter184" x="-0.0375" y="-0.0375" width="1.075" height="1.075"><feGaussianBlur in="SourceGraphic" stdDeviation="1" result="blur" id="feGaussianBlur174" /><feDiffuseLighting diffuseConstant="1" surfaceScale="10" lighting-color="rgb(255,255,255)" result="diffuse" id="feDiffuseLighting178"><feDistantLight elevation="8" azimuth="235" id="feDistantLight176" /></feDiffuseLighting><feComposite in="diffuse" in2="diffuse" operator="arithmetic" k1="1" result="composite1" id="feComposite180" /><feComposite in="composite1" in2="SourceGraphic" k1="1" operator="arithmetic" k3="1" result="composite2" id="feComposite182" /></filter></defs><g id="surface1" style="filter:url(#filter184)"><path style=" stroke:none;fill-rule:nonzero;fill:url(#linear0);" d="M 3.5625 15.714844 L 18.460938 15.714844 C 19.640625 15.714844 20.59375 16.683594 20.59375 17.882812 L 20.59375 28.03125 C 20.59375 29.230469 19.640625 30.203125 18.460938 30.203125 L 3.5625 30.203125 C 2.386719 30.203125 1.429688 29.230469 1.429688 28.03125 L 1.429688 17.882812 C 1.429688 16.683594 2.386719 15.714844 3.5625 15.714844 Z M 3.5625 15.714844 "/><path style=" stroke:none;fill-rule:nonzero;fill:url(#linear1);" d="M 25.515625 15.714844 L 40.417969 15.714844 C 41.59375 15.714844 42.546875 16.683594 42.546875 17.882812 L 42.546875 28.03125 C 42.546875 29.230469 41.59375 30.203125 40.417969 30.203125 L 25.515625 30.203125 C 24.339844 30.203125 23.386719 29.230469 23.386719 28.03125 L 23.386719 17.882812 C 23.386719 16.683594 24.339844 15.714844 25.515625 15.714844 Z M 25.515625 15.714844 "/><path style=" stroke:none;fill-rule:nonzero;fill:url(#linear2);" d="M 3.5625 33.269531 L 18.460938 33.269531 C 19.640625 33.269531 20.59375 34.238281 20.59375 35.4375 L 20.59375 45.585938 C 20.59375 46.785156 19.640625 47.757812 18.460938 47.757812 L 3.5625 47.757812 C 2.386719 47.757812 1.429688 46.785156 1.429688 45.585938 L 1.429688 35.4375 C 1.429688 34.238281 2.386719 33.269531 3.5625 33.269531 Z M 3.5625 33.269531 "/><path style=" stroke:none;fill-rule:nonzero;fill:url(#linear3);" d="M 25.515625 33.269531 L 40.417969 33.269531 C 41.59375 33.269531 42.546875 34.238281 42.546875 35.4375 L 42.546875 45.585938 C 42.546875 46.785156 41.59375 47.757812 40.417969 47.757812 L 25.515625 47.757812 C 24.339844 47.757812 23.386719 46.785156 23.386719 45.585938 L 23.386719 35.4375 C 23.386719 34.238281 24.339844 33.269531 25.515625 33.269531 Z M 25.515625 33.269531 "/><path style=" stroke:none;fill-rule:nonzero;fill:url(#linear4);" d="M 32.683594 1.210938 C 25.308594 1.242188 18.210938 4.0625 12.753906 9.136719 L 22.402344 9.136719 C 25.617188 7.589844 29.128906 6.769531 32.6875 6.753906 C 46.160156 6.742188 57.089844 17.914062 57.105469 31.703125 L 57.105469 31.734375 C 57.105469 45.527344 46.1875 56.710938 32.714844 56.714844 C 29.140625 56.707031 25.609375 55.890625 22.371094 54.328125 L 12.714844 54.328125 C 18.1875 59.421875 25.316406 62.25 32.714844 62.261719 C 49.175781 62.253906 62.519531 48.589844 62.519531 31.734375 L 62.519531 31.699219 C 62.5 14.847656 49.144531 1.195312 32.683594 1.210938 Z M 32.683594 1.210938 "/></g></svg>
