<svg width="64" height="64" viewBox="0 0 64 64" version="1.1" xmlns:inkscape="http://www.inkscape.org/namespaces/inkscape"><defs><linearGradient id="linear0" gradientUnits="userSpaceOnUse" x1="0" y1="0" x2="0" y2="1" gradientTransform="matrix(63.840927,0,0,37.898762,8.688791,12.937907)"><stop offset="0" style="stop-color:rgb(87.058824%,86.666667%,56.470591%);stop-opacity:1;"/><stop offset="1" style="stop-color:rgb(67.843139%,67.450982%,38.039216%);stop-opacity:1;"/></linearGradient><filter style="color-interpolation-filters:sRGB;" inkscape:label="Diffuse Light" id="filter184" x="-0.0375" y="-0.0375" width="1.075" height="1.075"><feGaussianBlur in="SourceGraphic" stdDeviation="1" result="blur" id="feGaussianBlur174" /><feDiffuseLighting diffuseConstant="1" surfaceScale="10" lighting-color="rgb(255,255,255)" result="diffuse" id="feDiffuseLighting178"><feDistantLight elevation="8" azimuth="235" id="feDistantLight176" /></feDiffuseLighting><feComposite in="diffuse" in2="diffuse" operator="arithmetic" k1="1" result="composite1" id="feComposite180" /><feComposite in="composite1" in2="SourceGraphic" k1="1" operator="arithmetic" k3="1" result="composite2" id="feComposite182" /></filter></defs><g id="surface1" style="filter:url(#filter184)"><path style=" stroke:none;fill-rule:nonzero;fill:url(#linear0);" d="M 31.828125 1.058594 C 37.792969 9.585938 46.746094 16.695312 46.746094 28.0625 C 46.746094 35.058594 43.285156 38.980469 34.8125 42.535156 L 34.8125 29.488281 C 34.8125 20.957031 31.828125 9.585938 31.828125 9.585938 C 31.828125 9.585938 28.84375 20.957031 28.84375 29.488281 L 28.84375 42.535156 C 20.375 38.980469 16.910156 35.058594 16.910156 28.0625 C 16.910156 16.695312 25.859375 9.585938 31.828125 1.058594 Z M 28.84375 42.5625 C 29.785156 42.957031 30.769531 43.34375 31.828125 43.726562 C 32.890625 43.34375 33.875 42.957031 34.8125 42.5625 L 34.8125 46.574219 C 34.8125 57.941406 28.84375 63.628906 28.84375 63.628906 Z M 28.84375 42.5625 "/></g></svg>
