<svg width="64" height="64" viewBox="0 0 64 64" version="1.1" xmlns:inkscape="http://www.inkscape.org/namespaces/inkscape"><defs><linearGradient id="linear0" gradientUnits="userSpaceOnUse" x1="0" y1="0" x2="0" y2="1" gradientTransform="matrix(64,0,0,64,0,0)"><stop offset="0" style="stop-color:rgb(100%,63.137257%,63.137257%);stop-opacity:1;"/><stop offset="1" style="stop-color:rgb(100%,27.843139%,27.843139%);stop-opacity:1;"/></linearGradient><filter style="color-interpolation-filters:sRGB;" inkscape:label="Diffuse Light" id="filter184" x="-0.0375" y="-0.0375" width="1.075" height="1.075"><feGaussianBlur in="SourceGraphic" stdDeviation="1" result="blur" id="feGaussianBlur174" /><feDiffuseLighting diffuseConstant="1" surfaceScale="10" lighting-color="rgb(255,255,255)" result="diffuse" id="feDiffuseLighting178"><feDistantLight elevation="8" azimuth="235" id="feDistantLight176" /></feDiffuseLighting><feComposite in="diffuse" in2="diffuse" operator="arithmetic" k1="1" result="composite1" id="feComposite180" /><feComposite in="composite1" in2="SourceGraphic" k1="1" operator="arithmetic" k3="1" result="composite2" id="feComposite182" /></filter></defs><g id="surface1" style="filter:url(#filter184)"><path style=" stroke:none;fill-rule:evenodd;fill:url(#linear0);" d="M 32 0 C 14.273438 0 0 14.273438 0 32 C 0 49.726562 14.273438 64 32 64 C 49.726562 64 64 49.726562 64 32 C 64 14.273438 49.726562 0 32 0 Z M 32 13.714844 C 35.636719 13.714844 39.128906 15.640625 41.695312 19.070312 C 44.269531 22.5 45.714844 27.152344 45.714844 32 C 45.714844 36.851562 44.269531 41.5 41.695312 44.933594 C 39.128906 48.359375 35.636719 50.289062 32 50.289062 C 28.363281 50.289062 24.875 48.359375 22.304688 44.933594 C 19.730469 41.5 18.285156 36.851562 18.285156 32 C 18.285156 27.152344 19.730469 22.5 22.304688 19.070312 C 24.875 15.640625 28.363281 13.714844 32 13.714844 Z M 32 13.714844 "/></g></svg>
