<svg width="64" height="64" viewBox="0 0 64 64" version="1.1" xmlns:inkscape="http://www.inkscape.org/namespaces/inkscape"><defs><linearGradient id="linear0" gradientUnits="userSpaceOnUse" x1="0" y1="0" x2="0" y2="1" gradientTransform="matrix(55.273438,0,0,64,4.363281,0)"><stop offset="0" style="stop-color:rgb(0%,96.078432%,86.274511%);stop-opacity:1;"/><stop offset="1" style="stop-color:rgb(0%,54.901963%,49.411765%);stop-opacity:1;"/></linearGradient><filter style="color-interpolation-filters:sRGB;" inkscape:label="Diffuse Light" id="filter184" x="-0.0375" y="-0.0375" width="1.075" height="1.075"><feGaussianBlur in="SourceGraphic" stdDeviation="1" result="blur" id="feGaussianBlur174" /><feDiffuseLighting diffuseConstant="1" surfaceScale="10" lighting-color="rgb(255,255,255)" result="diffuse" id="feDiffuseLighting178"><feDistantLight elevation="8" azimuth="235" id="feDistantLight176" /></feDiffuseLighting><feComposite in="diffuse" in2="diffuse" operator="arithmetic" k1="1" result="composite1" id="feComposite180" /><feComposite in="composite1" in2="SourceGraphic" k1="1" operator="arithmetic" k3="1" result="composite2" id="feComposite182" /></filter></defs><g id="surface1" style="filter:url(#filter184)"><path style=" stroke:none;fill-rule:nonzero;fill:url(#linear0);" d="M 32 0 C 16.734375 0 4.363281 14.328125 4.363281 32 C 4.363281 49.671875 16.734375 64 32 64 C 47.265625 64 59.636719 49.671875 59.636719 32 C 59.636719 14.328125 47.265625 0 32 0 Z M 32 11.636719 C 35.472656 11.636719 38.800781 13.78125 41.257812 17.601562 C 43.710938 21.421875 45.09375 26.601562 45.09375 32 C 45.09375 37.398438 43.710938 42.578125 41.257812 46.398438 C 38.800781 50.21875 35.472656 52.363281 32 52.363281 C 28.527344 52.363281 25.199219 50.21875 22.742188 46.398438 C 20.289062 42.578125 18.90625 37.398438 18.90625 32 C 18.90625 26.601562 20.289062 21.421875 22.742188 17.601562 C 25.199219 13.78125 28.527344 11.636719 32 11.636719 Z M 32 11.636719 "/></g></svg>
