<svg width="64" height="64" viewBox="0 0 64 64" version="1.1" xmlns:inkscape="http://www.inkscape.org/namespaces/inkscape"><defs><linearGradient id="linear0" gradientUnits="userSpaceOnUse" x1="0" y1="0" x2="0" y2="1" gradientTransform="matrix(83.397356,0,0,71.553992,-10.42166,-7.000335)"><stop offset="0" style="stop-color:rgb(92.941177%,83.529413%,72.549021%);stop-opacity:1;"/><stop offset="1" style="stop-color:rgb(81.960785%,71.372551%,59.215689%);stop-opacity:1;"/></linearGradient><linearGradient id="linear1" gradientUnits="userSpaceOnUse" x1="0" y1="0" x2="0" y2="1" gradientTransform="matrix(83.397356,0,0,71.553992,-10.42166,-7.000335)"><stop offset="0" style="stop-color:rgb(92.941177%,83.529413%,72.549021%);stop-opacity:1;"/><stop offset="1" style="stop-color:rgb(81.960785%,71.372551%,59.215689%);stop-opacity:1;"/></linearGradient><linearGradient id="linear2" gradientUnits="userSpaceOnUse" x1="0" y1="0" x2="0" y2="1" gradientTransform="matrix(83.397356,0,0,71.553992,-10.42166,-7.000335)"><stop offset="0" style="stop-color:rgb(92.941177%,83.529413%,72.549021%);stop-opacity:1;"/><stop offset="1" style="stop-color:rgb(81.960785%,71.372551%,59.215689%);stop-opacity:1;"/></linearGradient><linearGradient id="linear3" gradientUnits="userSpaceOnUse" x1="0" y1="0" x2="0" y2="1" gradientTransform="matrix(83.397356,0,0,71.553992,-10.42166,-7.000335)"><stop offset="0" style="stop-color:rgb(92.941177%,83.529413%,72.549021%);stop-opacity:1;"/><stop offset="1" style="stop-color:rgb(81.960785%,71.372551%,59.215689%);stop-opacity:1;"/></linearGradient><filter style="color-interpolation-filters:sRGB;" inkscape:label="Diffuse Light" id="filter184" x="-0.0375" y="-0.0375" width="1.075" height="1.075"><feGaussianBlur in="SourceGraphic" stdDeviation="1" result="blur" id="feGaussianBlur174" /><feDiffuseLighting diffuseConstant="1" surfaceScale="10" lighting-color="rgb(255,255,255)" result="diffuse" id="feDiffuseLighting178"><feDistantLight elevation="8" azimuth="235" id="feDistantLight176" /></feDiffuseLighting><feComposite in="diffuse" in2="diffuse" operator="arithmetic" k1="1" result="composite1" id="feComposite180" /><feComposite in="composite1" in2="SourceGraphic" k1="1" operator="arithmetic" k3="1" result="composite2" id="feComposite182" /></filter></defs><g id="surface1" style="filter:url(#filter184)"><path style=" stroke:none;fill-rule:nonzero;fill:url(#linear0);" d="M 7.449219 4.859375 L 7.449219 52.695312 L 19.363281 52.695312 L 19.363281 4.859375 Z M 47.164062 4.859375 L 47.164062 52.695312 L 59.078125 52.695312 L 59.078125 4.859375 Z M 27.304688 15.484375 L 27.304688 63.324219 L 39.21875 63.324219 L 39.21875 15.484375 Z M 27.304688 15.484375 "/><path style=" stroke:none;fill-rule:nonzero;fill:url(#linear1);" d="M 5.464844 2.203125 L 17.378906 2.203125 L 17.378906 7.511719 L 11.421875 10.175781 L 5.464844 7.511719 Z M 5.464844 2.203125 "/><path style=" stroke:none;fill-rule:nonzero;fill:url(#linear2);" d="M 25.320312 12.832031 L 37.234375 12.832031 L 37.234375 18.148438 L 31.277344 20.804688 L 25.320312 18.148438 Z M 25.320312 12.832031 "/><path style=" stroke:none;fill-rule:nonzero;fill:url(#linear3);" d="M 45.175781 2.203125 L 57.089844 2.203125 L 57.089844 7.511719 L 51.132812 10.175781 L 45.175781 7.511719 Z M 45.175781 2.203125 "/></g></svg>
