<svg width="64" height="64" viewBox="0 0 64 64" version="1.1" xmlns:inkscape="http://www.inkscape.org/namespaces/inkscape"><defs><linearGradient id="linear0" gradientUnits="userSpaceOnUse" x1="0" y1="0" x2="0" y2="1" gradientTransform="matrix(61.900262,0,0,39.545464,-0.420726,11.002368)"><stop offset="0" style="stop-color:rgb(100%,63.137257%,63.137257%);stop-opacity:1;"/><stop offset="1" style="stop-color:rgb(100%,27.843139%,27.843139%);stop-opacity:1;"/></linearGradient><filter style="color-interpolation-filters:sRGB;" inkscape:label="Diffuse Light" id="filter184" x="-0.0375" y="-0.0375" width="1.075" height="1.075"><feGaussianBlur in="SourceGraphic" stdDeviation="1" result="blur" id="feGaussianBlur174" /><feDiffuseLighting diffuseConstant="1" surfaceScale="10" lighting-color="rgb(255,255,255)" result="diffuse" id="feDiffuseLighting178"><feDistantLight elevation="8" azimuth="235" id="feDistantLight176" /></feDiffuseLighting><feComposite in="diffuse" in2="diffuse" operator="arithmetic" k1="1" result="composite1" id="feComposite180" /><feComposite in="composite1" in2="SourceGraphic" k1="1" operator="arithmetic" k3="1" result="composite2" id="feComposite182" /></filter></defs><g id="surface1" style="filter:url(#filter184)"><path style=" stroke:none;fill-rule:nonzero;fill:url(#linear0);" d="M 7.996094 1.535156 C 7.996094 8.023438 13.691406 13.25 20.765625 13.25 L 38.652344 13.25 C 41.480469 13.25 43.757812 15.339844 43.757812 17.9375 C 43.757812 20.535156 41.480469 22.625 38.652344 22.625 L 34.816406 22.625 C 24.910156 22.625 17.601562 30.117188 15.660156 39.027344 L 10.546875 62.464844 C 17.625 62.464844 25.992188 57.148438 27.152344 50.746094 C 28.429688 43.714844 32.261719 34.34375 37.375 34.34375 L 41.203125 34.34375 C 51.113281 34.34375 59.085938 27.023438 59.085938 17.9375 C 59.085938 8.851562 51.113281 1.535156 41.203125 1.535156 Z M 7.996094 1.535156 "/></g></svg>
