<svg width="64" height="64" viewBox="0 0 64 64" version="1.1" xmlns:inkscape="http://www.inkscape.org/namespaces/inkscape"><defs><linearGradient id="linear0" gradientUnits="userSpaceOnUse" x1="0" y1="0" x2="0" y2="1" gradientTransform="matrix(53.335938,0,0,40,5.332031,13.332031)"><stop offset="0" style="stop-color:rgb(0%,73.333335%,100%);stop-opacity:1;"/><stop offset="1" style="stop-color:rgb(0%,52.156866%,70.980394%);stop-opacity:1;"/></linearGradient><linearGradient id="linear1" gradientUnits="userSpaceOnUse" x1="0" y1="0" x2="0" y2="1" gradientTransform="matrix(64,0,0,48,0,8)"><stop offset="0" style="stop-color:rgb(0%,73.333335%,100%);stop-opacity:1;"/><stop offset="1" style="stop-color:rgb(0%,52.156866%,70.980394%);stop-opacity:1;"/></linearGradient><filter style="color-interpolation-filters:sRGB;" inkscape:label="Diffuse Light" id="filter184" x="-0.0375" y="-0.0375" width="1.075" height="1.075"><feGaussianBlur in="SourceGraphic" stdDeviation="1" result="blur" id="feGaussianBlur174" /><feDiffuseLighting diffuseConstant="1" surfaceScale="10" lighting-color="rgb(255,255,255)" result="diffuse" id="feDiffuseLighting178"><feDistantLight elevation="8" azimuth="235" id="feDistantLight176" /></feDiffuseLighting><feComposite in="diffuse" in2="diffuse" operator="arithmetic" k1="1" result="composite1" id="feComposite180" /><feComposite in="composite1" in2="SourceGraphic" k1="1" operator="arithmetic" k3="1" result="composite2" id="feComposite182" /></filter></defs><g id="surface1" style="filter:url(#filter184)"><path style=" stroke:none;fill-rule:evenodd;fill:url(#linear0);" d="M 34.667969 32 L 29.332031 32 L 29.332031 13.332031 L 34.667969 13.332031 Z M 5.332031 53.332031 L 5.332031 48 L 29.332031 48 L 29.332031 29.332031 L 58.667969 29.332031 L 58.667969 34.667969 L 34.667969 34.667969 L 34.667969 53.332031 Z M 5.332031 53.332031 "/><path style=" stroke:none;fill-rule:nonzero;fill:url(#linear1);" d="M 32 8 C 29.054688 8 26.667969 10.386719 26.667969 13.332031 C 26.667969 16.28125 29.054688 18.667969 32 18.667969 C 34.945312 18.667969 37.332031 16.28125 37.332031 13.332031 C 37.332031 10.386719 34.945312 8 32 8 Z M 32 26.667969 C 29.054688 26.667969 26.667969 29.054688 26.667969 32 C 26.667969 34.945312 29.054688 37.332031 32 37.332031 C 34.945312 37.332031 37.332031 34.945312 37.332031 32 C 37.332031 29.054688 34.945312 26.667969 32 26.667969 Z M 58.667969 26.667969 C 55.71875 26.667969 53.332031 29.054688 53.332031 32 C 53.332031 34.945312 55.71875 37.332031 58.667969 37.332031 C 61.613281 37.332031 64 34.945312 64 32 C 64 29.054688 61.613281 26.667969 58.667969 26.667969 Z M 5.332031 45.332031 C 2.386719 45.332031 0 47.71875 0 50.667969 C 0 53.613281 2.386719 56 5.332031 56 C 8.28125 56 10.667969 53.613281 10.667969 50.667969 C 10.667969 47.71875 8.28125 45.332031 5.332031 45.332031 Z M 32 45.332031 C 29.054688 45.332031 26.667969 47.71875 26.667969 50.667969 C 26.667969 53.613281 29.054688 56 32 56 C 34.945312 56 37.332031 53.613281 37.332031 50.667969 C 37.332031 47.71875 34.945312 45.332031 32 45.332031 Z M 32 45.332031 "/></g></svg>
