<svg width="64" height="64" viewBox="0 0 64 64" version="1.1" xmlns:inkscape="http://www.inkscape.org/namespaces/inkscape"><defs><linearGradient id="linear0" gradientUnits="userSpaceOnUse" x1="0" y1="0" x2="0" y2="1" gradientTransform="matrix(61.133315,0,0,39.294741,1.704639,11.574352)"><stop offset="0" style="stop-color:rgb(61.176473%,69.803923%,85.09804%);stop-opacity:1;"/><stop offset="1" style="stop-color:rgb(44.313726%,52.156866%,65.882355%);stop-opacity:1;"/></linearGradient><filter style="color-interpolation-filters:sRGB;" inkscape:label="Diffuse Light" id="filter184" x="-0.0375" y="-0.0375" width="1.075" height="1.075"><feGaussianBlur in="SourceGraphic" stdDeviation="1" result="blur" id="feGaussianBlur174" /><feDiffuseLighting diffuseConstant="1" surfaceScale="10" lighting-color="rgb(255,255,255)" result="diffuse" id="feDiffuseLighting178"><feDistantLight elevation="8" azimuth="235" id="feDistantLight176" /></feDiffuseLighting><feComposite in="diffuse" in2="diffuse" operator="arithmetic" k1="1" result="composite1" id="feComposite180" /><feComposite in="composite1" in2="SourceGraphic" k1="1" operator="arithmetic" k3="1" result="composite2" id="feComposite182" /></filter></defs><g id="surface1" style="filter:url(#filter184)"><path style=" stroke:none;fill-rule:nonzero;fill:url(#linear0);" d="M 32.261719 1.960938 C 32.261719 1.960938 28.449219 5.726562 20.824219 5.726562 L 1.769531 24.542969 L 9.390625 32.066406 L 17.011719 24.542969 L 28.449219 35.832031 L 24.636719 39.59375 L 17.011719 39.59375 L 9.390625 47.121094 L 9.390625 54.644531 L 17.011719 47.121094 L 22.730469 49 L 24.636719 54.644531 L 17.011719 62.171875 L 24.636719 62.171875 L 32.261719 54.644531 L 32.261719 47.121094 L 36.074219 43.355469 L 55.132812 62.171875 L 62.757812 54.644531 L 43.699219 35.832031 L 47.507812 32.066406 L 55.132812 32.066406 L 62.757812 24.542969 L 62.757812 17.011719 L 55.132812 24.542969 L 49.414062 22.65625 L 47.507812 17.011719 L 55.132812 9.488281 L 47.507812 9.488281 L 39.886719 17.011719 L 39.886719 24.542969 L 36.074219 28.304688 L 24.636719 17.011719 L 36.074219 5.726562 Z M 32.261719 1.960938 "/></g></svg>
