<svg width="64" height="64" viewBox="0 0 64 64" version="1.1" xmlns:inkscape="http://www.inkscape.org/namespaces/inkscape"><defs><linearGradient id="linear0" gradientUnits="userSpaceOnUse" x1="0" y1="0" x2="0" y2="1" gradientTransform="matrix(61.628172,0,0,61.381438,1.373374,1.312405)"><stop offset="0" style="stop-color:rgb(100%,56.862748%,82.745099%);stop-opacity:1;"/><stop offset="1" style="stop-color:rgb(100%,0%,60.000002%);stop-opacity:1;"/></linearGradient><filter style="color-interpolation-filters:sRGB;" inkscape:label="Diffuse Light" id="filter184" x="-0.0375" y="-0.0375" width="1.075" height="1.075"><feGaussianBlur in="SourceGraphic" stdDeviation="1" result="blur" id="feGaussianBlur174" /><feDiffuseLighting diffuseConstant="1" surfaceScale="10" lighting-color="rgb(255,255,255)" result="diffuse" id="feDiffuseLighting178"><feDistantLight elevation="8" azimuth="235" id="feDistantLight176" /></feDiffuseLighting><feComposite in="diffuse" in2="diffuse" operator="arithmetic" k1="1" result="composite1" id="feComposite180" /><feComposite in="composite1" in2="SourceGraphic" k1="1" operator="arithmetic" k3="1" result="composite2" id="feComposite182" /></filter></defs><g id="surface1" style="filter:url(#filter184)"><path style=" stroke:none;fill-rule:nonzero;fill:url(#linear0);" d="M 32.246094 1.34375 C 27.921875 1.34375 23.8125 2.21875 20.070312 3.804688 L 43.480469 24.722656 L 43.480469 3.433594 C 39.996094 2.089844 36.210938 1.34375 32.246094 1.34375 Z M 46.9375 4.984375 L 46.9375 40.757812 L 62.140625 40.757812 C 62.933594 38.042969 63.359375 35.164062 63.359375 32.191406 C 63.359375 20.421875 56.714844 10.1875 46.9375 4.984375 Z M 16.722656 5.464844 C 7.414062 10.800781 1.140625 20.769531 1.140625 32.191406 C 1.140625 35.429688 1.640625 38.558594 2.574219 41.488281 L 29.980469 17.304688 Z M 17.5625 32.863281 L 3.921875 44.886719 C 6.746094 51.074219 11.546875 56.203125 17.5625 59.402344 Z M 21.015625 44.1875 L 21.015625 60.957031 C 24.503906 62.296875 28.289062 63.046875 32.246094 63.046875 C 45.136719 63.046875 56.179688 55.265625 60.902344 44.1875 Z M 21.015625 44.1875 "/></g></svg>
