<svg width="64" height="64" viewBox="0 0 64 64" version="1.1" xmlns:inkscape="http://www.inkscape.org/namespaces/inkscape"><defs><linearGradient id="linear0" gradientUnits="userSpaceOnUse" x1="0" y1="0" x2="0" y2="1" gradientTransform="matrix(64,0,0,64,0,0)"><stop offset="0" style="stop-color:rgb(87.058824%,86.666667%,56.470591%);stop-opacity:1;"/><stop offset="1" style="stop-color:rgb(67.843139%,67.450982%,38.039216%);stop-opacity:1;"/></linearGradient><filter style="color-interpolation-filters:sRGB;" inkscape:label="Diffuse Light" id="filter184" x="-0.0375" y="-0.0375" width="1.075" height="1.075"><feGaussianBlur in="SourceGraphic" stdDeviation="1" result="blur" id="feGaussianBlur174" /><feDiffuseLighting diffuseConstant="1" surfaceScale="10" lighting-color="rgb(255,255,255)" result="diffuse" id="feDiffuseLighting178"><feDistantLight elevation="8" azimuth="235" id="feDistantLight176" /></feDiffuseLighting><feComposite in="diffuse" in2="diffuse" operator="arithmetic" k1="1" result="composite1" id="feComposite180" /><feComposite in="composite1" in2="SourceGraphic" k1="1" operator="arithmetic" k3="1" result="composite2" id="feComposite182" /></filter></defs><g id="surface1" style="filter:url(#filter184)"><path style=" stroke:none;fill-rule:nonzero;fill:url(#linear0);" d="M 5.289062 0 C 2.359375 0 0 2.359375 0 5.289062 L 0 58.710938 C 0 61.640625 2.359375 64 5.289062 64 L 58.710938 64 C 61.644531 64 64 61.640625 64 58.710938 L 64 5.289062 C 64 2.359375 61.644531 0 58.710938 0 Z M 15.578125 4.632812 L 32 21.050781 L 48.421875 4.632812 L 59.367188 15.578125 L 42.949219 32 L 59.367188 48.421875 L 48.421875 59.367188 L 32 42.949219 L 15.578125 59.367188 L 4.632812 48.421875 L 21.050781 32 L 4.632812 15.578125 Z M 15.578125 4.632812 "/></g></svg>
