<svg width="64" height="64" viewBox="0 0 64 64" version="1.1" xmlns:inkscape="http://www.inkscape.org/namespaces/inkscape"><defs><linearGradient id="linear0" gradientUnits="userSpaceOnUse" x1="0" y1="0" x2="0" y2="1" gradientTransform="matrix(69.367876,0,0,37.671537,4.735211,12.130637)"><stop offset="0" style="stop-color:rgb(0%,78.823531%,36.862746%);stop-opacity:1;"/><stop offset="1" style="stop-color:rgb(0%,54.11765%,25.098041%);stop-opacity:1;"/></linearGradient><filter style="color-interpolation-filters:sRGB;" inkscape:label="Diffuse Light" id="filter184" x="-0.0375" y="-0.0375" width="1.075" height="1.075"><feGaussianBlur in="SourceGraphic" stdDeviation="1" result="blur" id="feGaussianBlur174" /><feDiffuseLighting diffuseConstant="1" surfaceScale="10" lighting-color="rgb(255,255,255)" result="diffuse" id="feDiffuseLighting178"><feDistantLight elevation="8" azimuth="235" id="feDistantLight176" /></feDiffuseLighting><feComposite in="diffuse" in2="diffuse" operator="arithmetic" k1="1" result="composite1" id="feComposite180" /><feComposite in="composite1" in2="SourceGraphic" k1="1" operator="arithmetic" k3="1" result="composite2" id="feComposite182" /></filter></defs><g id="surface1" style="filter:url(#filter184)"><path style=" stroke:none;fill-rule:nonzero;fill:url(#linear0);" d="M 43.433594 2.410156 C 43.324219 2.402344 43.207031 2.410156 43.085938 2.433594 L 17.515625 6.609375 L 17.527344 36.878906 C 17.527344 37.460938 18.089844 37.957031 18.773438 37.949219 L 24.894531 37.949219 L 17.566406 61.746094 C 17.195312 62.898438 19.023438 63.59375 19.785156 62.589844 L 46.832031 29.1875 C 47.273438 28.648438 47.035156 27.582031 45.804688 27.582031 C 41.601562 27.582031 38.132812 27.550781 34.054688 27.546875 L 44.5 3.957031 C 44.804688 3.28125 44.234375 2.585938 43.445312 2.542969 Z M 43.433594 2.410156 "/></g></svg>
