<svg width="64" height="64" viewBox="0 0 64 64" version="1.1" xmlns:inkscape="http://www.inkscape.org/namespaces/inkscape"><defs><linearGradient id="linear0" gradientUnits="userSpaceOnUse" x1="0" y1="0" x2="0" y2="1" gradientTransform="matrix(56,0,0,35.898438,4,14.050781)"><stop offset="0" style="stop-color:rgb(41.960785%,64.313728%,100%);stop-opacity:1;"/><stop offset="1" style="stop-color:rgb(0%,43.137255%,100%);stop-opacity:1;"/></linearGradient><linearGradient id="linear1" gradientUnits="userSpaceOnUse" x1="0" y1="0" x2="0" y2="1" gradientTransform="matrix(56,0,0,35.898438,4,14.050781)"><stop offset="0" style="stop-color:rgb(41.960785%,64.313728%,100%);stop-opacity:1;"/><stop offset="1" style="stop-color:rgb(0%,43.137255%,100%);stop-opacity:1;"/></linearGradient><filter style="color-interpolation-filters:sRGB;" inkscape:label="Diffuse Light" id="filter184" x="-0.0375" y="-0.0375" width="1.075" height="1.075"><feGaussianBlur in="SourceGraphic" stdDeviation="1" result="blur" id="feGaussianBlur174" /><feDiffuseLighting diffuseConstant="1" surfaceScale="10" lighting-color="rgb(255,255,255)" result="diffuse" id="feDiffuseLighting178"><feDistantLight elevation="8" azimuth="235" id="feDistantLight176" /></feDiffuseLighting><feComposite in="diffuse" in2="diffuse" operator="arithmetic" k1="1" result="composite1" id="feComposite180" /><feComposite in="composite1" in2="SourceGraphic" k1="1" operator="arithmetic" k3="1" result="composite2" id="feComposite182" /></filter></defs><g id="surface1" style="filter:url(#filter184)"><path style=" stroke:none;fill-rule:nonzero;fill:url(#linear0);" d="M 43.261719 30.921875 C 43.261719 36.886719 38.664062 41.71875 32.992188 41.71875 C 27.320312 41.71875 22.71875 36.886719 22.71875 30.921875 C 22.71875 24.957031 27.320312 20.121094 32.992188 20.121094 C 38.664062 20.121094 43.261719 24.957031 43.261719 30.921875 Z M 43.261719 30.921875 "/><path style="fill:none;stroke-width:4.217;stroke-linecap:butt;stroke-linejoin:round;stroke:url(#linear1);stroke-miterlimit:4;" d="M 26.326178 44.343761 C 25.716803 44.704112 25.415045 44.885753 25.092779 44.953136 C 24.80567 45.014659 24.509771 45.014659 24.222662 44.953136 C 23.900396 44.885753 23.595709 44.704112 22.989263 44.343761 L 8.255861 35.663094 C 7.646486 35.302743 7.344728 35.121102 7.122072 34.872079 C 6.925783 34.652352 6.779298 34.38868 6.685548 34.1045 C 6.585939 33.785164 6.585939 33.427742 6.585939 32.709969 L 6.585939 15.339847 C 6.585939 14.625003 6.585939 14.267582 6.685548 13.945316 C 6.779298 13.661136 6.925783 13.397464 7.122072 13.177738 C 7.344728 12.928714 7.646486 12.747073 8.255861 12.386722 L 22.989263 3.706056 C 23.595709 3.345704 23.900396 3.164063 24.222662 3.09668 C 24.509771 3.035157 24.80567 3.035157 25.092779 3.09668 C 25.415045 3.164063 25.716803 3.345704 26.326178 3.706056 L 41.05958 12.386722 C 41.668955 12.747073 41.970713 12.928714 42.193369 13.177738 C 42.389659 13.397464 42.536143 13.661136 42.626963 13.945316 C 42.729502 14.267582 42.729502 14.625003 42.729502 15.339847 L 42.729502 32.709969 C 42.729502 33.427742 42.729502 33.785164 42.626963 34.1045 C 42.536143 34.38868 42.389659 34.652352 42.193369 34.872079 C 41.970713 35.121102 41.668955 35.302743 41.05958 35.663094 Z M 26.326178 44.343761 " transform="matrix(1.333333,0,0,1.333333,0,0)"/></g></svg>
