<svg width="64" height="64" viewBox="0 0 64 64" version="1.1" xmlns:inkscape="http://www.inkscape.org/namespaces/inkscape"><defs><linearGradient id="linear0" gradientUnits="userSpaceOnUse" x1="0" y1="0" x2="0" y2="1" gradientTransform="matrix(56,0,0,35.898438,4,14.050781)"><stop offset="0" style="stop-color:rgb(0%,96.078432%,86.274511%);stop-opacity:1;"/><stop offset="1" style="stop-color:rgb(0%,54.901963%,49.411765%);stop-opacity:1;"/></linearGradient><filter style="color-interpolation-filters:sRGB;" inkscape:label="Diffuse Light" id="filter184" x="-0.0375" y="-0.0375" width="1.075" height="1.075"><feGaussianBlur in="SourceGraphic" stdDeviation="1" result="blur" id="feGaussianBlur174" /><feDiffuseLighting diffuseConstant="1" surfaceScale="10" lighting-color="rgb(255,255,255)" result="diffuse" id="feDiffuseLighting178"><feDistantLight elevation="8" azimuth="235" id="feDistantLight176" /></feDiffuseLighting><feComposite in="diffuse" in2="diffuse" operator="arithmetic" k1="1" result="composite1" id="feComposite180" /><feComposite in="composite1" in2="SourceGraphic" k1="1" operator="arithmetic" k3="1" result="composite2" id="feComposite182" /></filter></defs><g id="surface1" style="filter:url(#filter184)"><path style=" stroke:none;fill-rule:nonzero;fill:url(#linear0);" d="M 21.171875 3.382812 L 21.171875 9.238281 L 43.910156 9.238281 L 43.910156 3.382812 Z M 43.910156 9.238281 L 43.910156 15.097656 L 49.59375 15.097656 L 49.59375 9.238281 Z M 49.59375 15.097656 L 49.59375 20.957031 L 55.277344 20.957031 L 55.277344 15.097656 Z M 55.277344 20.957031 L 55.277344 44.390625 L 60.960938 44.390625 L 60.960938 20.957031 Z M 55.277344 44.390625 L 49.59375 44.390625 L 49.59375 50.25 L 55.277344 50.25 Z M 49.59375 50.25 L 43.910156 50.25 L 43.910156 56.109375 L 49.59375 56.109375 Z M 43.910156 56.109375 L 21.171875 56.109375 L 21.171875 61.96875 L 43.910156 61.96875 Z M 21.171875 56.109375 L 21.171875 50.25 L 15.488281 50.25 L 15.488281 56.109375 Z M 15.488281 50.25 L 15.488281 44.390625 L 9.804688 44.390625 L 9.804688 50.25 Z M 9.804688 44.390625 L 9.804688 20.957031 L 4.121094 20.957031 L 4.121094 44.390625 Z M 9.804688 20.957031 L 15.488281 20.957031 L 15.488281 15.097656 L 9.804688 15.097656 Z M 15.488281 15.097656 L 21.171875 15.097656 L 21.171875 9.238281 L 15.488281 9.238281 Z M 32.542969 19.003906 L 21.171875 20.957031 L 19.277344 32.675781 L 21.171875 44.390625 L 32.542969 46.34375 L 43.910156 44.390625 L 45.804688 32.675781 L 43.910156 20.957031 Z M 28.75 24.863281 L 34.4375 24.863281 L 34.4375 28.769531 L 38.226562 28.769531 L 38.226562 34.628906 L 34.4375 34.628906 L 34.4375 38.535156 L 28.75 38.535156 L 28.75 34.628906 L 24.960938 34.628906 L 24.960938 28.769531 L 28.75 28.769531 Z M 38.226562 38.535156 L 42.015625 38.535156 L 42.015625 42.4375 L 38.226562 42.4375 Z M 38.226562 38.535156 "/></g></svg>
