<svg width="64" height="64" viewBox="0 0 64 64" version="1.1" xmlns:inkscape="http://www.inkscape.org/namespaces/inkscape"><defs><linearGradient id="linear0" gradientUnits="userSpaceOnUse" x1="0" y1="0" x2="0" y2="1" gradientTransform="matrix(56,0,0,35.898438,4,14.050781)"><stop offset="0" style="stop-color:rgb(100%,63.137257%,63.137257%);stop-opacity:1;"/><stop offset="1" style="stop-color:rgb(100%,27.843139%,27.843139%);stop-opacity:1;"/></linearGradient><linearGradient id="linear1" gradientUnits="userSpaceOnUse" x1="0" y1="0" x2="0" y2="1" gradientTransform="matrix(56,0,0,35.898438,4,14.050781)"><stop offset="0" style="stop-color:rgb(100%,63.137257%,63.137257%);stop-opacity:1;"/><stop offset="1" style="stop-color:rgb(100%,27.843139%,27.843139%);stop-opacity:1;"/></linearGradient><linearGradient id="linear2" gradientUnits="userSpaceOnUse" x1="0" y1="0" x2="0" y2="1" gradientTransform="matrix(56,0,0,35.898438,4,14.050781)"><stop offset="0" style="stop-color:rgb(100%,63.137257%,63.137257%);stop-opacity:1;"/><stop offset="1" style="stop-color:rgb(100%,27.843139%,27.843139%);stop-opacity:1;"/></linearGradient><filter style="color-interpolation-filters:sRGB;" inkscape:label="Diffuse Light" id="filter184" x="-0.0375" y="-0.0375" width="1.075" height="1.075"><feGaussianBlur in="SourceGraphic" stdDeviation="1" result="blur" id="feGaussianBlur174" /><feDiffuseLighting diffuseConstant="1" surfaceScale="10" lighting-color="rgb(255,255,255)" result="diffuse" id="feDiffuseLighting178"><feDistantLight elevation="8" azimuth="235" id="feDistantLight176" /></feDiffuseLighting><feComposite in="diffuse" in2="diffuse" operator="arithmetic" k1="1" result="composite1" id="feComposite180" /><feComposite in="composite1" in2="SourceGraphic" k1="1" operator="arithmetic" k3="1" result="composite2" id="feComposite182" /></filter></defs><g id="surface1" style="filter:url(#filter184)"><path style=" stroke:none;fill-rule:nonzero;fill:url(#linear0);" d="M 28.542969 41.609375 L 28.542969 48.980469 L 30.835938 48.980469 L 30.835938 53.898438 L 35.425781 53.898438 L 35.425781 48.980469 L 37.722656 48.980469 L 37.722656 41.609375 Z M 28.542969 41.609375 "/><path style=" stroke:none;fill-rule:nonzero;fill:url(#linear1);" d="M 10.25 9 L 10.25 38.484375 L 19.429688 38.484375 L 19.429688 31.113281 L 28.609375 31.113281 L 28.609375 9 Z M 37.792969 9 L 37.792969 31.113281 L 46.972656 31.113281 L 46.972656 38.484375 L 56.152344 38.484375 L 56.152344 9 Z M 10.25 48.3125 L 10.25 60.597656 L 56.152344 60.597656 L 56.152344 48.3125 L 46.972656 48.3125 L 46.972656 55.683594 L 19.429688 55.683594 L 19.429688 48.3125 Z M 10.25 48.3125 "/><path style=" stroke:none;fill-rule:nonzero;fill:url(#linear2);" d="M 3.464844 3.789062 L 3.464844 20.984375 L 10.351562 20.984375 L 10.351562 3.789062 Z M 28.714844 3.789062 L 28.714844 20.984375 L 37.894531 20.984375 L 37.894531 3.789062 Z M 56.261719 3.789062 L 56.261719 20.984375 L 63.148438 20.984375 L 63.148438 3.789062 Z M 19.53125 28.359375 L 19.53125 40.644531 L 24.121094 40.644531 L 24.121094 28.359375 Z M 42.488281 28.359375 L 42.488281 40.644531 L 47.074219 40.644531 L 47.074219 28.359375 Z M 42.488281 28.359375 "/></g></svg>
