<svg width="64" height="64" viewBox="0 0 64 64" version="1.1" xmlns:inkscape="http://www.inkscape.org/namespaces/inkscape"><defs><linearGradient id="linear0" gradientUnits="userSpaceOnUse" x1="0" y1="0" x2="0" y2="1" gradientTransform="matrix(58.664063,0,0,64,2.667969,0)"><stop offset="0" style="stop-color:rgb(0%,73.333335%,100%);stop-opacity:1;"/><stop offset="1" style="stop-color:rgb(0%,52.156866%,70.980394%);stop-opacity:1;"/></linearGradient><filter style="color-interpolation-filters:sRGB;" inkscape:label="Diffuse Light" id="filter184" x="-0.0375" y="-0.0375" width="1.075" height="1.075"><feGaussianBlur in="SourceGraphic" stdDeviation="1" result="blur" id="feGaussianBlur174" /><feDiffuseLighting diffuseConstant="1" surfaceScale="10" lighting-color="rgb(255,255,255)" result="diffuse" id="feDiffuseLighting178"><feDistantLight elevation="8" azimuth="235" id="feDistantLight176" /></feDiffuseLighting><feComposite in="diffuse" in2="diffuse" operator="arithmetic" k1="1" result="composite1" id="feComposite180" /><feComposite in="composite1" in2="SourceGraphic" k1="1" operator="arithmetic" k3="1" result="composite2" id="feComposite182" /></filter></defs><g id="surface1" style="filter:url(#filter184)"><path style=" stroke:none;fill-rule:evenodd;fill:url(#linear0);" d="M 8.777344 0 L 2.667969 42.667969 L 20.265625 64 L 43.734375 64 L 61.332031 42.667969 L 55.222656 0 Z M 19.277344 5.332031 L 44.722656 5.332031 L 57.667969 42.667969 L 42.695312 59.074219 L 40 59.074219 L 40 51.554688 L 24 51.554688 L 24 59.074219 L 21.304688 59.074219 L 6.332031 42.667969 Z M 19.777344 7.113281 L 22.222656 14.222656 L 27.113281 14.222656 L 29.554688 28.445312 L 34.445312 28.445312 L 36.886719 14.222656 L 41.777344 14.222656 L 44.222656 7.113281 Z M 12.445312 30.222656 L 22.503906 44.308594 L 24 37.332031 Z M 51.554688 30.222656 L 40 37.332031 L 41.496094 44.308594 Z M 51.554688 30.222656 "/></g></svg>
