<svg width="64" height="64" viewBox="0 0 64 64" version="1.1" xmlns:inkscape="http://www.inkscape.org/namespaces/inkscape"><defs><linearGradient id="linear0" gradientUnits="userSpaceOnUse" x1="0" y1="0" x2="0" y2="1" gradientTransform="matrix(70.846929,0,0,39.848922,6.154987,12.036535)"><stop offset="0" style="stop-color:rgb(61.176473%,69.803923%,85.09804%);stop-opacity:1;"/><stop offset="1" style="stop-color:rgb(44.313726%,52.156866%,65.882355%);stop-opacity:1;"/></linearGradient><filter style="color-interpolation-filters:sRGB;" inkscape:label="Diffuse Light" id="filter184" x="-0.0375" y="-0.0375" width="1.075" height="1.075"><feGaussianBlur in="SourceGraphic" stdDeviation="1" result="blur" id="feGaussianBlur174" /><feDiffuseLighting diffuseConstant="1" surfaceScale="10" lighting-color="rgb(255,255,255)" result="diffuse" id="feDiffuseLighting178"><feDistantLight elevation="8" azimuth="235" id="feDistantLight176" /></feDiffuseLighting><feComposite in="diffuse" in2="diffuse" operator="arithmetic" k1="1" result="composite1" id="feComposite180" /><feComposite in="composite1" in2="SourceGraphic" k1="1" operator="arithmetic" k3="1" result="composite2" id="feComposite182" /></filter></defs><g id="surface1" style="filter:url(#filter184)"><path style=" stroke:none;fill-rule:nonzero;fill:url(#linear0);" d="M 39.34375 1.414062 C 35.066406 1.453125 30.230469 2.449219 25.402344 4.207031 C 16.539062 7.441406 10.578125 12.179688 10.878906 17.222656 L 10.855469 62.363281 C 12.480469 62.917969 14.160156 63.410156 15.859375 63.859375 L 15.886719 23.988281 C 21.394531 27.003906 30.15625 26.320312 38.894531 23.136719 C 49.910156 19.117188 56.496094 12.738281 51.992188 6.398438 C 49.460938 2.835938 44.855469 1.289062 39.34375 1.339844 L 39.320312 1.339844 Z M 43.851562 6.753906 L 43.863281 6.753906 C 45.578125 6.714844 46.914062 7.085938 47.617188 8.074219 C 49.867188 11.234375 41.035156 14.449219 34.421875 16.871094 C 27.816406 19.277344 18.980469 22.492188 16.75 19.328125 C 14.5 16.167969 23.308594 12.957031 29.945312 10.53125 C 34.5 8.875 40.082031 6.84375 43.863281 6.753906 Z M 43.851562 6.753906 "/></g></svg>
