<svg width="64" height="64" viewBox="0 0 64 64" version="1.1" xmlns:inkscape="http://www.inkscape.org/namespaces/inkscape"><defs><linearGradient id="linear0" gradientUnits="userSpaceOnUse" x1="0" y1="0" x2="0" y2="1" gradientTransform="matrix(68.958127,0,0,48.071589,-2.937088,11.05127)"><stop offset="0" style="stop-color:rgb(87.058824%,86.666667%,56.470591%);stop-opacity:1;"/><stop offset="1" style="stop-color:rgb(67.843139%,67.450982%,38.039216%);stop-opacity:1;"/></linearGradient><filter style="color-interpolation-filters:sRGB;" inkscape:label="Diffuse Light" id="filter184" x="-0.0375" y="-0.0375" width="1.075" height="1.075"><feGaussianBlur in="SourceGraphic" stdDeviation="1" result="blur" id="feGaussianBlur174" /><feDiffuseLighting diffuseConstant="1" surfaceScale="10" lighting-color="rgb(255,255,255)" result="diffuse" id="feDiffuseLighting178"><feDistantLight elevation="8" azimuth="235" id="feDistantLight176" /></feDiffuseLighting><feComposite in="diffuse" in2="diffuse" operator="arithmetic" k1="1" result="composite1" id="feComposite180" /><feComposite in="composite1" in2="SourceGraphic" k1="1" operator="arithmetic" k3="1" result="composite2" id="feComposite182" /></filter></defs><g id="surface1" style="filter:url(#filter184)"><path style=" stroke:none;fill-rule:nonzero;fill:url(#linear0);" d="M 32.234375 0.878906 C 14.921875 0.878906 1.074219 18.609375 1.074219 45.207031 C 1.074219 49.539062 1.34375 53.1875 1.949219 56.265625 L 14.921875 23.039062 L 14.921875 40.773438 L 28.769531 40.773438 L 28.769531 23.039062 L 32.234375 40.773438 L 46.085938 40.773438 L 49.550781 23.039062 C 52.425781 37.796875 57.703125 37.238281 63.386719 44.28125 C 59.9375 18.609375 49.550781 0.878906 32.234375 0.878906 Z M 11.460938 49.640625 L 11.460938 51.855469 C 11.460938 57.976562 15.335938 62.941406 20.117188 62.941406 C 24.898438 62.941406 28.769531 57.976562 28.769531 51.855469 L 28.769531 49.640625 Z M 42.625 49.640625 L 42.625 51.855469 C 42.625 57.976562 46.5 62.941406 51.277344 62.941406 C 56.058594 62.941406 59.9375 57.976562 59.9375 51.855469 L 59.9375 49.640625 Z M 42.625 49.640625 "/></g></svg>
