<svg width="64" height="64" viewBox="0 0 64 64" version="1.1" xmlns:inkscape="http://www.inkscape.org/namespaces/inkscape"><defs><linearGradient id="linear0" gradientUnits="userSpaceOnUse" x1="0" y1="0" x2="0" y2="1" gradientTransform="matrix(71.94395,0,0,64.527583,-3.833883,0.981201)"><stop offset="0" style="stop-color:rgb(87.058824%,86.666667%,56.470591%);stop-opacity:1;"/><stop offset="1" style="stop-color:rgb(67.843139%,67.450982%,38.039216%);stop-opacity:1;"/></linearGradient><filter style="color-interpolation-filters:sRGB;" inkscape:label="Diffuse Light" id="filter184" x="-0.0375" y="-0.0375" width="1.075" height="1.075"><feGaussianBlur in="SourceGraphic" stdDeviation="1" result="blur" id="feGaussianBlur174" /><feDiffuseLighting diffuseConstant="1" surfaceScale="10" lighting-color="rgb(255,255,255)" result="diffuse" id="feDiffuseLighting178"><feDistantLight elevation="8" azimuth="235" id="feDistantLight176" /></feDiffuseLighting><feComposite in="diffuse" in2="diffuse" operator="arithmetic" k1="1" result="composite1" id="feComposite180" /><feComposite in="composite1" in2="SourceGraphic" k1="1" operator="arithmetic" k3="1" result="composite2" id="feComposite182" /></filter></defs><g id="surface1" style="filter:url(#filter184)"><path style=" stroke:none;fill-rule:nonzero;fill:url(#linear0);" d="M 32.132812 1.683594 C 15.164062 1.824219 1.484375 15.488281 1.484375 32.292969 C 1.484375 49.199219 15.320312 62.90625 32.390625 62.90625 C 49.457031 62.90625 63.292969 49.199219 63.292969 32.292969 C 63.292969 15.390625 49.457031 1.683594 32.390625 1.683594 C 32.304688 1.683594 32.21875 1.683594 32.132812 1.683594 Z M 32.390625 14.574219 C 42.269531 14.574219 50.28125 22.507812 50.28125 32.292969 C 50.28125 42.082031 42.269531 50.019531 32.390625 50.019531 C 22.507812 50.019531 14.5 42.082031 14.5 32.292969 C 14.5 22.507812 22.507812 14.574219 32.390625 14.574219 Z M 32.390625 14.574219 "/></g></svg>
