<svg width="64" height="64" viewBox="0 0 64 64" version="1.1" xmlns:inkscape="http://www.inkscape.org/namespaces/inkscape"><defs><linearGradient id="linear0" gradientUnits="userSpaceOnUse" x1="0" y1="0" x2="0" y2="1" gradientTransform="matrix(64,0,0,59.734375,0,2.132812)"><stop offset="0" style="stop-color:rgb(61.176473%,69.803923%,85.09804%);stop-opacity:1;"/><stop offset="1" style="stop-color:rgb(44.313726%,52.156866%,65.882355%);stop-opacity:1;"/></linearGradient><filter style="color-interpolation-filters:sRGB;" inkscape:label="Diffuse Light" id="filter184" x="-0.0375" y="-0.0375" width="1.075" height="1.075"><feGaussianBlur in="SourceGraphic" stdDeviation="1" result="blur" id="feGaussianBlur174" /><feDiffuseLighting diffuseConstant="1" surfaceScale="10" lighting-color="rgb(255,255,255)" result="diffuse" id="feDiffuseLighting178"><feDistantLight elevation="8" azimuth="235" id="feDistantLight176" /></feDiffuseLighting><feComposite in="diffuse" in2="diffuse" operator="arithmetic" k1="1" result="composite1" id="feComposite180" /><feComposite in="composite1" in2="SourceGraphic" k1="1" operator="arithmetic" k3="1" result="composite2" id="feComposite182" /></filter></defs><g id="surface1" style="filter:url(#filter184)"><path style=" stroke:none;fill-rule:evenodd;fill:url(#linear0);" d="M 41.859375 2.132812 C 61.230469 2.132812 64 4.894531 64 24.246094 L 64 39.746094 C 64 59.105469 61.230469 61.867188 41.859375 61.867188 L 22.140625 61.867188 C 2.769531 61.867188 0 59.105469 0 39.746094 L 0 24.246094 C 0 4.894531 2.769531 2.132812 22.140625 2.132812 Z M 26.21875 14.601562 C 14.738281 14.601562 13.101562 16.265625 13.101562 27.921875 L 13.101562 37.257812 C 13.101562 48.914062 14.738281 50.578125 26.21875 50.578125 L 37.90625 50.578125 C 49.386719 50.578125 51.03125 48.914062 51.03125 37.257812 L 51.03125 27.921875 C 51.03125 16.265625 49.386719 14.601562 37.90625 14.601562 Z M 25.414062 12.117188 C 12.347656 12.117188 10.484375 14.011719 10.484375 27.277344 L 10.484375 37.898438 C 10.484375 51.167969 12.347656 53.058594 25.414062 53.058594 L 38.710938 53.058594 C 51.78125 53.058594 53.648438 51.167969 53.648438 37.898438 L 53.648438 27.277344 C 53.648438 14.011719 51.78125 12.117188 38.710938 12.117188 Z M 25.414062 12.117188 "/></g></svg>
