<svg width="64" height="64" viewBox="0 0 64 64" version="1.1" xmlns:inkscape="http://www.inkscape.org/namespaces/inkscape"><defs><linearGradient id="linear0" gradientUnits="userSpaceOnUse" x1="0" y1="0" x2="0" y2="1" gradientTransform="matrix(62.34632,0,0,38.019352,1.916867,12.4209)"><stop offset="0" style="stop-color:rgb(75.686276%,77.64706%,83.92157%);stop-opacity:1;"/><stop offset="1" style="stop-color:rgb(43.529412%,45.09804%,50.196081%);stop-opacity:1;"/></linearGradient><filter style="color-interpolation-filters:sRGB;" inkscape:label="Diffuse Light" id="filter184" x="-0.0375" y="-0.0375" width="1.075" height="1.075"><feGaussianBlur in="SourceGraphic" stdDeviation="1" result="blur" id="feGaussianBlur174" /><feDiffuseLighting diffuseConstant="1" surfaceScale="10" lighting-color="rgb(255,255,255)" result="diffuse" id="feDiffuseLighting178"><feDistantLight elevation="8" azimuth="235" id="feDistantLight176" /></feDiffuseLighting><feComposite in="diffuse" in2="diffuse" operator="arithmetic" k1="1" result="composite1" id="feComposite180" /><feComposite in="composite1" in2="SourceGraphic" k1="1" operator="arithmetic" k3="1" result="composite2" id="feComposite182" /></filter></defs><g id="surface1" style="filter:url(#filter184)"><path style=" stroke:none;fill-rule:nonzero;fill:url(#linear0);" d="M 15.886719 2.316406 L 11.144531 6.949219 L 11.144531 37.042969 L 1.667969 43.992188 L 1.667969 55.566406 L 11.144531 62.507812 L 20.625 62.507812 L 30.101562 55.566406 L 30.101562 43.992188 L 20.625 37.042969 L 20.625 32.414062 L 25.363281 30.097656 L 25.363281 27.78125 L 20.625 25.46875 L 20.625 23.152344 L 25.363281 20.835938 L 25.363281 18.523438 L 20.625 16.207031 L 20.625 13.894531 L 25.363281 11.578125 L 25.363281 9.261719 L 20.625 2.316406 Z M 30.101562 4.632812 L 30.101562 16.207031 L 41.949219 16.207031 L 41.949219 30.097656 C 40.636719 30.097656 39.578125 31.132812 39.578125 32.414062 L 39.578125 60.195312 C 39.578125 61.476562 40.636719 62.507812 41.949219 62.507812 L 49.054688 62.507812 C 50.367188 62.507812 51.425781 61.476562 51.425781 60.195312 L 51.425781 32.414062 C 51.425781 31.132812 50.367188 30.097656 49.054688 30.097656 L 49.054688 16.207031 L 63.273438 16.207031 L 63.273438 11.578125 L 49.054688 4.632812 Z M 13.515625 48.621094 L 18.253906 48.621094 L 20.625 50.933594 L 20.625 55.566406 L 18.253906 57.878906 L 13.515625 57.878906 L 11.144531 55.566406 L 11.144531 50.933594 Z M 13.515625 48.621094 "/></g></svg>
