<svg width="64" height="64" viewBox="0 0 64 64" version="1.1" xmlns:inkscape="http://www.inkscape.org/namespaces/inkscape"><defs><linearGradient id="linear0" gradientUnits="userSpaceOnUse" x1="0" y1="0" x2="0" y2="1" gradientTransform="matrix(64,0,0,36.570312,0,13.714844)"><stop offset="0" style="stop-color:rgb(81.960785%,70.980394%,59.215689%);stop-opacity:1;"/><stop offset="1" style="stop-color:rgb(65.098041%,53.725493%,41.568628%);stop-opacity:1;"/></linearGradient><filter style="color-interpolation-filters:sRGB;" inkscape:label="Diffuse Light" id="filter184" x="-0.0375" y="-0.0375" width="1.075" height="1.075"><feGaussianBlur in="SourceGraphic" stdDeviation="1" result="blur" id="feGaussianBlur174" /><feDiffuseLighting diffuseConstant="1" surfaceScale="10" lighting-color="rgb(255,255,255)" result="diffuse" id="feDiffuseLighting178"><feDistantLight elevation="8" azimuth="235" id="feDistantLight176" /></feDiffuseLighting><feComposite in="diffuse" in2="diffuse" operator="arithmetic" k1="1" result="composite1" id="feComposite180" /><feComposite in="composite1" in2="SourceGraphic" k1="1" operator="arithmetic" k3="1" result="composite2" id="feComposite182" /></filter></defs><g id="surface1" style="filter:url(#filter184)"><path style=" stroke:none;fill-rule:evenodd;fill:url(#linear0);" d="M 5.714844 42.285156 L 5.714844 47.65625 C 5.714844 49.109375 6.890625 50.285156 8.34375 50.285156 L 55.65625 50.285156 C 57.109375 50.285156 58.285156 49.109375 58.285156 47.65625 L 58.285156 16.34375 C 58.285156 14.890625 57.109375 13.714844 55.65625 13.714844 L 8.34375 13.714844 C 6.890625 13.714844 5.714844 14.890625 5.714844 16.34375 L 5.714844 21.714844 L 2.144531 21.714844 C 0.957031 21.714844 0 22.695312 0 23.921875 L 0 40.078125 C 0 41.304688 0.957031 42.285156 2.144531 42.285156 Z M 61.855469 42.285156 C 63.042969 42.285156 64 41.304688 64 40.078125 L 64 23.921875 C 64 22.695312 63.042969 21.714844 61.855469 21.714844 L 58.285156 21.714844 L 58.285156 42.285156 Z M 32 22.855469 C 28.277344 22.859375 24.929688 25.121094 23.53125 28.570312 L 18.464844 28.570312 L 18.324219 28.34375 L 16.875 25.941406 C 16.5625 25.421875 15.96875 25.113281 15.339844 25.144531 C 14.777344 25.175781 14.265625 25.472656 13.980469 25.941406 L 12.53125 28.34375 L 12.390625 28.570312 L 8 28.570312 L 8 27.429688 C 8 26.164062 6.980469 25.144531 5.714844 25.144531 L 4.570312 25.144531 C 3.304688 25.144531 2.285156 26.164062 2.285156 27.429688 L 2.285156 36.570312 C 2.285156 37.835938 3.304688 38.855469 4.570312 38.855469 L 5.714844 38.855469 C 6.980469 38.855469 8 37.835938 8 36.570312 L 8 35.429688 L 12.390625 35.429688 L 12.53125 35.65625 L 13.980469 38.054688 C 14.265625 38.527344 14.777344 38.824219 15.339844 38.855469 C 15.96875 38.886719 16.5625 38.578125 16.875 38.054688 L 18.324219 35.65625 L 18.464844 35.429688 L 23.527344 35.429688 C 24.925781 38.878906 28.277344 41.140625 32 41.144531 C 35.722656 41.140625 39.070312 38.878906 40.46875 35.429688 L 45.535156 35.429688 L 45.675781 35.65625 L 47.125 38.054688 C 47.402344 38.527344 47.914062 38.824219 48.484375 38.855469 C 49.113281 38.886719 49.703125 38.578125 50.019531 38.054688 L 51.46875 35.65625 L 51.609375 35.429688 L 56 35.429688 L 56 36.570312 C 56 37.835938 57.019531 38.855469 58.285156 38.855469 L 59.429688 38.855469 C 60.695312 38.855469 61.714844 37.835938 61.714844 36.570312 L 61.714844 27.429688 C 61.714844 26.164062 60.695312 25.144531 59.429688 25.144531 L 58.285156 25.144531 C 57.019531 25.144531 56 26.164062 56 27.429688 L 56 28.570312 L 51.609375 28.570312 L 51.46875 28.34375 L 50.019531 25.941406 C 49.703125 25.421875 49.113281 25.113281 48.484375 25.144531 C 47.914062 25.175781 47.402344 25.472656 47.125 25.941406 L 45.675781 28.34375 L 45.535156 28.570312 L 40.472656 28.570312 C 39.074219 25.121094 35.722656 22.859375 32 22.855469 Z M 32 22.855469 "/></g></svg>
