<svg width="64" height="64" viewBox="0 0 64 64" version="1.1" xmlns:inkscape="http://www.inkscape.org/namespaces/inkscape"><defs><linearGradient id="linear0" gradientUnits="userSpaceOnUse" x1="0" y1="0" x2="0" y2="1" gradientTransform="matrix(55.992188,0,0,49.823287,-3.68659,7.744344)"><stop offset="0" style="stop-color:rgb(61.176473%,69.803923%,85.09804%);stop-opacity:0.560784;"/><stop offset="1" style="stop-color:rgb(44.313726%,52.156866%,65.882355%);stop-opacity:0.560784;"/></linearGradient><linearGradient id="linear1" gradientUnits="userSpaceOnUse" x1="0" y1="0" x2="0" y2="1" gradientTransform="matrix(55.992188,0,0,49.823287,-3.68659,7.744344)"><stop offset="0" style="stop-color:rgb(61.176473%,69.803923%,85.09804%);stop-opacity:1;"/><stop offset="1" style="stop-color:rgb(44.313726%,52.156866%,65.882355%);stop-opacity:1;"/></linearGradient><linearGradient id="linear2" gradientUnits="userSpaceOnUse" x1="0" y1="0" x2="0" y2="1" gradientTransform="matrix(55.992188,0,0,49.823287,-3.68659,7.744344)"><stop offset="0" style="stop-color:rgb(61.176473%,69.803923%,85.09804%);stop-opacity:1;"/><stop offset="1" style="stop-color:rgb(44.313726%,52.156866%,65.882355%);stop-opacity:1;"/></linearGradient><filter style="color-interpolation-filters:sRGB;" inkscape:label="Diffuse Light" id="filter184" x="-0.0375" y="-0.0375" width="1.075" height="1.075"><feGaussianBlur in="SourceGraphic" stdDeviation="1" result="blur" id="feGaussianBlur174" /><feDiffuseLighting diffuseConstant="1" surfaceScale="10" lighting-color="rgb(255,255,255)" result="diffuse" id="feDiffuseLighting178"><feDistantLight elevation="8" azimuth="235" id="feDistantLight176" /></feDiffuseLighting><feComposite in="diffuse" in2="diffuse" operator="arithmetic" k1="1" result="composite1" id="feComposite180" /><feComposite in="composite1" in2="SourceGraphic" k1="1" operator="arithmetic" k3="1" result="composite2" id="feComposite182" /></filter></defs><g id="surface1" style="filter:url(#filter184)"><path style=" stroke:none;fill-rule:nonzero;fill:url(#linear0);" d="M 15.761719 9.714844 C 24.648438 19.003906 41.40625 18.492188 55.222656 21.949219 C 40.753906 28.820312 26.363281 31.207031 10.722656 30.074219 Z M 15.761719 9.714844 "/><path style=" stroke:none;fill-rule:nonzero;fill:url(#linear1);" d="M 14.101562 7.355469 C 25.25 14.464844 40.613281 12.789062 54.957031 13.191406 C 42.789062 22.953125 28.765625 28.390625 13.277344 30.636719 Z M 14.101562 7.355469 "/><path style=" stroke:none;fill-rule:evenodd;fill:url(#linear2);" d="M 12.457031 0.984375 C 13.683594 0.984375 14.671875 1.738281 14.671875 2.671875 L 14.671875 61.464844 C 14.671875 62.394531 13.683594 63.148438 12.457031 63.148438 C 11.234375 63.148438 10.246094 62.394531 10.246094 61.464844 L 10.246094 2.671875 C 10.246094 1.738281 11.234375 0.984375 12.457031 0.984375 Z M 12.457031 0.984375 "/></g></svg>
