<svg width="64" height="64" viewBox="0 0 64 64" version="1.1" xmlns:inkscape="http://www.inkscape.org/namespaces/inkscape"><defs><linearGradient id="linear0" gradientUnits="userSpaceOnUse" x1="0" y1="0" x2="0" y2="1" gradientTransform="matrix(73.812986,0,0,72.478695,-4.724136,-4.258709)"><stop offset="0" style="stop-color:rgb(75.686276%,77.64706%,83.92157%);stop-opacity:1;"/><stop offset="1" style="stop-color:rgb(43.529412%,45.09804%,50.196081%);stop-opacity:1;"/></linearGradient><filter style="color-interpolation-filters:sRGB;" inkscape:label="Diffuse Light" id="filter184" x="-0.0375" y="-0.0375" width="1.075" height="1.075"><feGaussianBlur in="SourceGraphic" stdDeviation="1" result="blur" id="feGaussianBlur174" /><feDiffuseLighting diffuseConstant="1" surfaceScale="10" lighting-color="rgb(255,255,255)" result="diffuse" id="feDiffuseLighting178"><feDistantLight elevation="8" azimuth="235" id="feDistantLight176" /></feDiffuseLighting><feComposite in="diffuse" in2="diffuse" operator="arithmetic" k1="1" result="composite1" id="feComposite180" /><feComposite in="composite1" in2="SourceGraphic" k1="1" operator="arithmetic" k3="1" result="composite2" id="feComposite182" /></filter></defs><g id="surface1" style="filter:url(#filter184)"><path style=" stroke:none;fill-rule:nonzero;fill:url(#linear0);" d="M 1.015625 1.660156 L 1.015625 17.808594 L 7.394531 17.808594 L 7.394531 7.894531 L 17.53125 7.894531 L 17.53125 1.660156 L 1.015625 1.660156 M 46.980469 1.660156 L 46.980469 7.894531 L 57.117188 7.894531 L 57.117188 17.808594 L 63.496094 17.808594 L 63.496094 1.660156 L 46.980469 1.660156 M 1.015625 46.601562 L 1.015625 62.75 L 17.53125 62.75 L 17.53125 56.511719 L 7.394531 56.511719 L 7.394531 46.601562 L 1.015625 46.601562 M 57.117188 46.601562 L 57.117188 56.511719 L 46.980469 56.511719 L 46.980469 62.75 L 63.496094 62.75 L 63.496094 46.601562 L 57.117188 46.601562 "/></g></svg>
