<svg width="64" height="64" viewBox="0 0 64 64" version="1.1" xmlns:inkscape="http://www.inkscape.org/namespaces/inkscape"><defs><linearGradient id="linear0" gradientUnits="userSpaceOnUse" x1="0" y1="0" x2="0" y2="1" gradientTransform="matrix(68.986086,0,0,67.403145,-2.806229,0.477284)"><stop offset="0" style="stop-color:rgb(100%,63.137257%,63.137257%);stop-opacity:1;"/><stop offset="1" style="stop-color:rgb(100%,27.843139%,27.843139%);stop-opacity:1;"/></linearGradient><filter style="color-interpolation-filters:sRGB;" inkscape:label="Diffuse Light" id="filter184" x="-0.0375" y="-0.0375" width="1.075" height="1.075"><feGaussianBlur in="SourceGraphic" stdDeviation="1" result="blur" id="feGaussianBlur174" /><feDiffuseLighting diffuseConstant="1" surfaceScale="10" lighting-color="rgb(255,255,255)" result="diffuse" id="feDiffuseLighting178"><feDistantLight elevation="8" azimuth="235" id="feDistantLight176" /></feDiffuseLighting><feComposite in="diffuse" in2="diffuse" operator="arithmetic" k1="1" result="composite1" id="feComposite180" /><feComposite in="composite1" in2="SourceGraphic" k1="1" operator="arithmetic" k3="1" result="composite2" id="feComposite182" /></filter></defs><g id="surface1" style="filter:url(#filter184)"><path style=" stroke:none;fill-rule:evenodd;fill:url(#linear0);" d="M 31.714844 0.636719 C 21.917969 0.636719 13.957031 8.671875 13.957031 18.675781 C 13.957031 28.667969 21.925781 36.800781 31.714844 36.800781 C 41.507812 36.800781 49.46875 28.667969 49.46875 18.675781 C 49.46875 8.675781 41.507812 0.636719 31.714844 0.636719 M 15.160156 41.433594 C 8.003906 43.167969 2.070312 52.046875 2.339844 62.933594 L 61.167969 62.933594 C 61.429688 52.046875 55.449219 43.164062 48.277344 41.433594 C 43.640625 44.945312 37.914062 47.027344 31.714844 47.027344 C 25.515625 47.027344 19.785156 44.945312 15.160156 41.433594 "/></g></svg>
