<svg width="64" height="64" viewBox="0 0 64 64" version="1.1" xmlns:inkscape="http://www.inkscape.org/namespaces/inkscape"><defs><linearGradient id="linear0" gradientUnits="userSpaceOnUse" x1="0" y1="0" x2="0" y2="1" gradientTransform="matrix(68.885397,0,0,72.130282,-2.444488,-4.161546)"><stop offset="0" style="stop-color:rgb(92.941177%,83.529413%,72.549021%);stop-opacity:1;"/><stop offset="1" style="stop-color:rgb(81.960785%,71.372551%,59.215689%);stop-opacity:1;"/></linearGradient><filter style="color-interpolation-filters:sRGB;" inkscape:label="Diffuse Light" id="filter184" x="-0.0375" y="-0.0375" width="1.075" height="1.075"><feGaussianBlur in="SourceGraphic" stdDeviation="1" result="blur" id="feGaussianBlur174" /><feDiffuseLighting diffuseConstant="1" surfaceScale="10" lighting-color="rgb(255,255,255)" result="diffuse" id="feDiffuseLighting178"><feDistantLight elevation="8" azimuth="235" id="feDistantLight176" /></feDiffuseLighting><feComposite in="diffuse" in2="diffuse" operator="arithmetic" k1="1" result="composite1" id="feComposite180" /><feComposite in="composite1" in2="SourceGraphic" k1="1" operator="arithmetic" k3="1" result="composite2" id="feComposite182" /></filter></defs><g id="surface1" style="filter:url(#filter184)"><path style=" stroke:none;fill-rule:nonzero;fill:url(#linear0);" d="M 49.199219 1.453125 L 44.996094 10.011719 L 35.890625 11.476562 L 42.386719 18.289062 L 40.914062 27.773438 L 49.128906 23.421875 L 57.324219 27.8125 L 55.898438 18.324219 L 62.4375 11.5625 L 53.339844 10.042969 L 49.191406 1.457031 M 13.664062 2.15625 C 7.054688 2.15625 1.6875 7.738281 1.6875 14.636719 C 1.6875 21.527344 7.054688 27.113281 13.664062 27.113281 C 20.28125 27.113281 25.640625 21.527344 25.640625 14.636719 C 25.640625 7.738281 20.28125 2.15625 13.664062 2.15625 M 38.230469 37.832031 C 37.65625 37.832031 37.1875 38.320312 37.1875 38.917969 L 37.1875 61.710938 C 37.1875 62.3125 37.65625 62.792969 38.230469 62.792969 L 60.09375 62.792969 C 60.667969 62.792969 61.128906 62.3125 61.128906 61.710938 L 61.128906 38.917969 C 61.128906 38.320312 60.667969 37.832031 60.09375 37.832031 Z M 13.667969 39.441406 L 7.582031 50.183594 L 1.699219 61.0625 L 13.664062 61.1875 L 25.640625 61.0625 L 19.757812 50.183594 L 13.664062 39.441406 "/></g></svg>
