<svg width="64" height="64" viewBox="0 0 64 64" version="1.1" xmlns:inkscape="http://www.inkscape.org/namespaces/inkscape"><defs><linearGradient id="linear0" gradientUnits="userSpaceOnUse" x1="0" y1="0" x2="0" y2="1" gradientTransform="matrix(63.714844,0,0,50.0625,0,6.96875)"><stop offset="0" style="stop-color:rgb(0%,73.333335%,100%);stop-opacity:1;"/><stop offset="1" style="stop-color:rgb(0%,52.156866%,70.980394%);stop-opacity:1;"/></linearGradient><filter style="color-interpolation-filters:sRGB;" inkscape:label="Diffuse Light" id="filter184" x="-0.0375" y="-0.0375" width="1.075" height="1.075"><feGaussianBlur in="SourceGraphic" stdDeviation="1" result="blur" id="feGaussianBlur174" /><feDiffuseLighting diffuseConstant="1" surfaceScale="10" lighting-color="rgb(255,255,255)" result="diffuse" id="feDiffuseLighting178"><feDistantLight elevation="8" azimuth="235" id="feDistantLight176" /></feDiffuseLighting><feComposite in="diffuse" in2="diffuse" operator="arithmetic" k1="1" result="composite1" id="feComposite180" /><feComposite in="composite1" in2="SourceGraphic" k1="1" operator="arithmetic" k3="1" result="composite2" id="feComposite182" /></filter></defs><g id="surface1" style="filter:url(#filter184)"><path style=" stroke:none;fill-rule:evenodd;fill:url(#linear0);" d="M 0 18.039062 C 0 8 1.03125 6.921875 11.09375 6.96875 L 52.625 6.96875 C 62.683594 6.921875 63.714844 8 63.714844 18.039062 L 63.714844 45.960938 C 63.714844 56 62.683594 57.03125 52.625 57.03125 L 11.09375 57.03125 C 1.03125 57.03125 0 56 0 45.960938 Z M 17.351562 26.3125 C 14.207031 26.3125 11.664062 28.859375 11.664062 32 C 11.664062 35.140625 14.207031 37.6875 17.351562 37.6875 C 20.492188 37.6875 23.039062 35.140625 23.039062 32 C 23.039062 28.859375 20.492188 26.3125 17.351562 26.3125 Z M 32.144531 26.3125 C 29 26.3125 26.453125 28.859375 26.453125 32 C 26.453125 35.140625 29 37.6875 32.144531 37.6875 C 35.285156 37.6875 37.832031 35.140625 37.832031 32 C 37.832031 28.859375 35.285156 26.3125 32.144531 26.3125 Z M 46.933594 26.3125 C 43.792969 26.3125 41.242188 28.859375 41.242188 32 C 41.242188 35.140625 43.792969 37.6875 46.933594 37.6875 C 50.074219 37.6875 52.625 35.140625 52.625 32 C 52.625 28.859375 50.074219 26.3125 46.933594 26.3125 Z M 46.933594 26.3125 "/></g></svg>
