<svg width="64" height="64" viewBox="0 0 64 64" version="1.1" xmlns:inkscape="http://www.inkscape.org/namespaces/inkscape"><defs><linearGradient id="linear0" gradientUnits="userSpaceOnUse" x1="0" y1="0" x2="0" y2="1" gradientTransform="matrix(75.578274,0,0,68.827436,-5.649086,-2.441806)"><stop offset="0" style="stop-color:rgb(61.176473%,69.803923%,85.09804%);stop-opacity:1;"/><stop offset="1" style="stop-color:rgb(44.313726%,52.156866%,65.882355%);stop-opacity:1;"/></linearGradient><filter style="color-interpolation-filters:sRGB;" inkscape:label="Diffuse Light" id="filter184" x="-0.0375" y="-0.0375" width="1.075" height="1.075"><feGaussianBlur in="SourceGraphic" stdDeviation="1" result="blur" id="feGaussianBlur174" /><feDiffuseLighting diffuseConstant="1" surfaceScale="10" lighting-color="rgb(255,255,255)" result="diffuse" id="feDiffuseLighting178"><feDistantLight elevation="8" azimuth="235" id="feDistantLight176" /></feDiffuseLighting><feComposite in="diffuse" in2="diffuse" operator="arithmetic" k1="1" result="composite1" id="feComposite180" /><feComposite in="composite1" in2="SourceGraphic" k1="1" operator="arithmetic" k3="1" result="composite2" id="feComposite182" /></filter></defs><g id="surface1" style="filter:url(#filter184)"><path style=" stroke:none;fill-rule:evenodd;fill:url(#linear0);" d="M 18.066406 1.898438 C 20.144531 1.394531 22.28125 2.511719 22.839844 4.394531 C 22.949219 4.753906 22.988281 5.109375 22.964844 5.464844 C 31.34375 4.3125 37.042969 7.476562 39.472656 14.113281 C 42.402344 20.554688 44.265625 27.378906 51.371094 34.089844 C 54.421875 36.648438 57.058594 39.210938 62.9375 41.742188 C 64.085938 44.695312 61.480469 46.253906 60.371094 47.15625 L 42.648438 51.410156 C 42.679688 51.488281 42.703125 51.554688 42.726562 51.632812 C 44.097656 56.273438 41.054688 61.050781 35.929688 62.296875 C 30.8125 63.539062 25.550781 60.789062 24.171875 56.136719 C 24.152344 56.050781 24.121094 55.957031 24.097656 55.867188 L 6.277344 60.152344 C 4.457031 59.921875 2.449219 59.953125 1.199219 56.726562 C 3.820312 53.121094 5.929688 49.75 6.921875 45.78125 C 6.957031 45.636719 7.027344 45.5 7.074219 45.355469 C 8.796875 36.464844 7.902344 28.785156 6.296875 22.164062 C 4.375 16.023438 8.296875 10.121094 15.8125 7.246094 C 15.589844 6.9375 15.414062 6.597656 15.304688 6.230469 C 14.746094 4.34375 15.980469 2.402344 18.066406 1.898438 "/></g></svg>
