<svg width="64" height="64" viewBox="0 0 64 64" version="1.1" xmlns:inkscape="http://www.inkscape.org/namespaces/inkscape"><defs><linearGradient id="linear0" gradientUnits="userSpaceOnUse" x1="0" y1="0" x2="0" y2="1" gradientTransform="matrix(64,0,0,64,0,0)"><stop offset="0" style="stop-color:rgb(82.352942%,61.176473%,100%);stop-opacity:1;"/><stop offset="1" style="stop-color:rgb(66.666669%,0%,100%);stop-opacity:1;"/></linearGradient><filter style="color-interpolation-filters:sRGB;" inkscape:label="Diffuse Light" id="filter184" x="-0.0375" y="-0.0375" width="1.075" height="1.075"><feGaussianBlur in="SourceGraphic" stdDeviation="1" result="blur" id="feGaussianBlur174" /><feDiffuseLighting diffuseConstant="1" surfaceScale="10" lighting-color="rgb(255,255,255)" result="diffuse" id="feDiffuseLighting178"><feDistantLight elevation="8" azimuth="235" id="feDistantLight176" /></feDiffuseLighting><feComposite in="diffuse" in2="diffuse" operator="arithmetic" k1="1" result="composite1" id="feComposite180" /><feComposite in="composite1" in2="SourceGraphic" k1="1" operator="arithmetic" k3="1" result="composite2" id="feComposite182" /></filter></defs><g id="surface1" style="filter:url(#filter184)"><path style=" stroke:none;fill-rule:nonzero;fill:url(#linear0);" d="M 32 0 L 35.121094 16.308594 L 44.246094 2.4375 L 40.886719 18.695312 L 54.628906 9.371094 L 45.304688 23.113281 L 61.5625 19.753906 L 47.691406 28.878906 L 64 32 L 47.691406 35.121094 L 61.5625 44.242188 L 45.304688 40.886719 L 54.628906 54.628906 L 40.886719 45.304688 L 44.246094 61.5625 L 35.121094 47.691406 L 32 64 L 28.878906 47.691406 L 19.753906 61.5625 L 23.113281 45.304688 L 9.371094 54.628906 L 18.695312 40.886719 L 2.4375 44.242188 L 16.308594 35.121094 L 0 32 L 16.308594 28.878906 L 2.4375 19.753906 L 18.695312 23.113281 L 9.371094 9.371094 L 23.113281 18.695312 L 19.753906 2.4375 L 28.878906 16.308594 Z M 32 0 "/></g></svg>
