<svg width="64" height="64" viewBox="0 0 64 64" version="1.1" xmlns:inkscape="http://www.inkscape.org/namespaces/inkscape"><defs><linearGradient id="linear0" gradientUnits="userSpaceOnUse" x1="0" y1="0" x2="0" y2="1" gradientTransform="matrix(64.527772,0,0,39.149557,0.20609,12.844934)"><stop offset="0" style="stop-color:rgb(100%,73.333335%,0%);stop-opacity:1;"/><stop offset="1" style="stop-color:rgb(70.19608%,51.372552%,0%);stop-opacity:1;"/></linearGradient><filter style="color-interpolation-filters:sRGB;" inkscape:label="Diffuse Light" id="filter184" x="-0.0375" y="-0.0375" width="1.075" height="1.075"><feGaussianBlur in="SourceGraphic" stdDeviation="1" result="blur" id="feGaussianBlur174" /><feDiffuseLighting diffuseConstant="1" surfaceScale="10" lighting-color="rgb(255,255,255)" result="diffuse" id="feDiffuseLighting178"><feDistantLight elevation="8" azimuth="235" id="feDistantLight176" /></feDiffuseLighting><feComposite in="diffuse" in2="diffuse" operator="arithmetic" k1="1" result="composite1" id="feComposite180" /><feComposite in="composite1" in2="SourceGraphic" k1="1" operator="arithmetic" k3="1" result="composite2" id="feComposite182" /></filter></defs><g id="surface1" style="filter:url(#filter184)"><path style=" stroke:none;fill-rule:nonzero;fill:url(#linear0);" d="M 4.96875 48.484375 L 43.417969 63.019531 C 42.488281 57.5625 36.773438 55.351562 42.128906 45.636719 C 47.566406 46.070312 63.785156 44.75 63.121094 34.472656 C 63.226562 28.101562 58.699219 27.316406 52.371094 27.253906 L 43.816406 18.152344 C 47.242188 16.386719 53.382812 15.375 52.984375 12.535156 C 52.410156 10.113281 46.390625 10.761719 40.261719 10.585938 C 38.738281 6.953125 30.167969 4.867188 17.835938 9.730469 C 18.066406 9.574219 16.328125 8.984375 16.605469 8.824219 C 20.703125 6.390625 30.777344 3.589844 27.734375 1.824219 C 26.921875 0.261719 21.511719 -0.144531 16.074219 6.46875 C 13.355469 4.113281 10.710938 6.40625 11.808594 8.265625 C 2.558594 8.242188 0.0585938 14.554688 1.59375 14.933594 C 4.398438 18.769531 11.183594 12.703125 12.855469 10.734375 L 14.945312 12.3125 C 11.929688 16.753906 6.976562 18.585938 7.464844 27.742188 C 6.414062 30.125 7.839844 32.035156 8.835938 34.039062 C 9.996094 37.726562 6.652344 43.648438 4.890625 48.796875 Z M 4.96875 48.484375 "/></g></svg>
