<svg width="64" height="64" viewBox="0 0 64 64" version="1.1" xmlns:inkscape="http://www.inkscape.org/namespaces/inkscape"><defs><linearGradient id="linear0" gradientUnits="userSpaceOnUse" x1="0" y1="0" x2="0" y2="1" gradientTransform="matrix(57.936727,0,0,37.571539,3.099525,12.981684)"><stop offset="0" style="stop-color:rgb(75.686276%,77.64706%,83.92157%);stop-opacity:1;"/><stop offset="1" style="stop-color:rgb(43.529412%,45.09804%,50.196081%);stop-opacity:1;"/></linearGradient><linearGradient id="linear1" gradientUnits="userSpaceOnUse" x1="0" y1="0" x2="0" y2="1" gradientTransform="matrix(57.936727,0,0,37.571539,3.099525,12.981684)"><stop offset="0" style="stop-color:rgb(75.686276%,77.64706%,83.92157%);stop-opacity:1;"/><stop offset="1" style="stop-color:rgb(43.529412%,45.09804%,50.196081%);stop-opacity:1;"/></linearGradient><filter style="color-interpolation-filters:sRGB;" inkscape:label="Diffuse Light" id="filter184" x="-0.0375" y="-0.0375" width="1.075" height="1.075"><feGaussianBlur in="SourceGraphic" stdDeviation="1" result="blur" id="feGaussianBlur174" /><feDiffuseLighting diffuseConstant="1" surfaceScale="10" lighting-color="rgb(255,255,255)" result="diffuse" id="feDiffuseLighting178"><feDistantLight elevation="8" azimuth="235" id="feDistantLight176" /></feDiffuseLighting><feComposite in="diffuse" in2="diffuse" operator="arithmetic" k1="1" result="composite1" id="feComposite180" /><feComposite in="composite1" in2="SourceGraphic" k1="1" operator="arithmetic" k3="1" result="composite2" id="feComposite182" /></filter></defs><g id="surface1" style="filter:url(#filter184)"><path style=" stroke:none;fill-rule:nonzero;fill:url(#linear0);" d="M 34.367188 3.316406 C 25.902344 3.316406 15.707031 15.257812 12.402344 29.277344 C 15.320312 32.128906 18.246094 34.980469 21.164062 37.832031 L 28.742188 25.5 L 43.820312 37.761719 L 49.054688 25.003906 L 57.085938 32.84375 C 55.015625 15.648438 43.660156 3.316406 34.371094 3.316406 M 29.734375 31.191406 L 21.929688 43.886719 L 11.59375 33.800781 C 11.414062 35.308594 11.285156 36.824219 11.285156 38.34375 C 11.285156 55.863281 18.976562 63.375 34.363281 63.375 C 49.683594 63.375 57.375 50.957031 57.433594 38.496094 L 50.449219 31.675781 L 45.421875 43.9375 Z M 29.734375 31.191406 "/><path style=" stroke:none;fill-rule:nonzero;fill:url(#linear1);" d="M 31.800781 0.816406 C 23.339844 0.816406 13.144531 12.753906 9.835938 26.773438 C 12.757812 29.625 15.679688 32.480469 18.601562 35.328125 L 26.179688 22.996094 L 41.253906 35.257812 L 46.488281 22.503906 L 54.523438 30.339844 C 52.453125 13.144531 41.09375 0.816406 31.804688 0.816406 M 27.167969 28.6875 L 19.363281 41.382812 L 9.027344 31.296875 C 8.847656 32.804688 8.71875 34.324219 8.71875 35.839844 C 8.71875 53.363281 16.410156 60.867188 31.796875 60.867188 C 47.121094 60.867188 54.808594 48.457031 54.871094 35.996094 L 47.882812 29.171875 L 42.855469 41.4375 Z M 27.167969 28.6875 "/></g></svg>
