<svg width="64" height="64" viewBox="0 0 64 64" version="1.1" xmlns:inkscape="http://www.inkscape.org/namespaces/inkscape"><defs><linearGradient id="linear0" gradientUnits="userSpaceOnUse" x1="0" y1="0" x2="0" y2="1" gradientTransform="matrix(64,0,0,64,0,0)"><stop offset="0" style="stop-color:rgb(82.352942%,61.176473%,100%);stop-opacity:1;"/><stop offset="1" style="stop-color:rgb(66.666669%,0%,100%);stop-opacity:1;"/></linearGradient><filter style="color-interpolation-filters:sRGB;" inkscape:label="Diffuse Light" id="filter184" x="-0.0375" y="-0.0375" width="1.075" height="1.075"><feGaussianBlur in="SourceGraphic" stdDeviation="1" result="blur" id="feGaussianBlur174" /><feDiffuseLighting diffuseConstant="1" surfaceScale="10" lighting-color="rgb(255,255,255)" result="diffuse" id="feDiffuseLighting178"><feDistantLight elevation="8" azimuth="235" id="feDistantLight176" /></feDiffuseLighting><feComposite in="diffuse" in2="diffuse" operator="arithmetic" k1="1" result="composite1" id="feComposite180" /><feComposite in="composite1" in2="SourceGraphic" k1="1" operator="arithmetic" k3="1" result="composite2" id="feComposite182" /></filter></defs><g id="surface1" style="filter:url(#filter184)"><path style=" stroke:none;fill-rule:nonzero;fill:url(#linear0);" d="M 32 16 C 23.167969 16 16 23.167969 16 32 C 16 40.832031 23.167969 48 32 48 C 40.832031 48 48 40.832031 48 32 C 48 23.167969 40.832031 16 32 16 Z M 32 0 C 14.335938 0 0 14.335938 0 32 C 0 49.664062 14.335938 64 32 64 C 49.664062 64 64 49.664062 64 32 C 64 14.335938 49.664062 0 32 0 Z M 32 57.601562 C 17.855469 57.601562 6.398438 46.144531 6.398438 32 C 6.398438 17.855469 17.855469 6.398438 32 6.398438 C 46.144531 6.398438 57.601562 17.855469 57.601562 32 C 57.601562 46.144531 46.144531 57.601562 32 57.601562 Z M 32 57.601562 "/></g></svg>
