<svg width="64" height="64" viewBox="0 0 64 64" version="1.1" xmlns:inkscape="http://www.inkscape.org/namespaces/inkscape"><defs><linearGradient id="linear0" gradientUnits="userSpaceOnUse" x1="0" y1="0" x2="0" y2="1" gradientTransform="matrix(64,0,0,45.710938,0,9.144531)"><stop offset="0" style="stop-color:rgb(81.960785%,70.980394%,59.215689%);stop-opacity:1;"/><stop offset="1" style="stop-color:rgb(65.098041%,53.725493%,41.568628%);stop-opacity:1;"/></linearGradient><filter style="color-interpolation-filters:sRGB;" inkscape:label="Diffuse Light" id="filter184" x="-0.0375" y="-0.0375" width="1.075" height="1.075"><feGaussianBlur in="SourceGraphic" stdDeviation="1" result="blur" id="feGaussianBlur174" /><feDiffuseLighting diffuseConstant="1" surfaceScale="10" lighting-color="rgb(255,255,255)" result="diffuse" id="feDiffuseLighting178"><feDistantLight elevation="8" azimuth="235" id="feDistantLight176" /></feDiffuseLighting><feComposite in="diffuse" in2="diffuse" operator="arithmetic" k1="1" result="composite1" id="feComposite180" /><feComposite in="composite1" in2="SourceGraphic" k1="1" operator="arithmetic" k3="1" result="composite2" id="feComposite182" /></filter></defs><g id="surface1" style="filter:url(#filter184)"><path style=" stroke:none;fill-rule:nonzero;fill:url(#linear0);" d="M 0 9.144531 L 0 24.378906 L 4.570312 24.378906 L 4.570312 9.144531 Z M 16.761719 22.855469 C 14.234375 22.855469 12.191406 24.902344 12.191406 27.429688 C 12.191406 29.953125 14.234375 32 16.761719 32 C 19.289062 32 21.332031 29.953125 21.332031 27.429688 C 21.332031 24.902344 19.289062 22.855469 16.761719 22.855469 Z M 28.953125 33.523438 L 28.953125 38.097656 L 44.191406 38.097656 L 44.191406 33.523438 Z M 48.761719 33.523438 L 48.761719 38.097656 L 64 38.097656 L 64 33.523438 Z M 16.722656 39.601562 C 15.519531 39.601562 14.367188 40.074219 13.515625 40.929688 C 12.667969 41.777344 12.1875 42.933594 12.191406 44.132812 C 12.191406 46.070312 13.429688 47.796875 15.261719 48.421875 L 13.765625 54.855469 L 17.113281 54.855469 C 19.261719 51.40625 21.808594 48.378906 21.261719 44.132812 C 21.261719 42.933594 20.78125 41.777344 19.933594 40.929688 C 19.078125 40.074219 17.929688 39.597656 16.722656 39.601562 Z M 16.722656 39.601562 "/></g></svg>
