<svg width="64" height="64" viewBox="0 0 64 64" version="1.1" xmlns:inkscape="http://www.inkscape.org/namespaces/inkscape"><defs><linearGradient id="linear0" gradientUnits="userSpaceOnUse" x1="0" y1="0" x2="0" y2="1" gradientTransform="matrix(56,0,0,35.898438,4,14.050781)"><stop offset="0" style="stop-color:rgb(0%,78.823531%,36.862746%);stop-opacity:1;"/><stop offset="1" style="stop-color:rgb(0%,54.11765%,25.098041%);stop-opacity:1;"/></linearGradient><filter style="color-interpolation-filters:sRGB;" inkscape:label="Diffuse Light" id="filter184" x="-0.0375" y="-0.0375" width="1.075" height="1.075"><feGaussianBlur in="SourceGraphic" stdDeviation="1" result="blur" id="feGaussianBlur174" /><feDiffuseLighting diffuseConstant="1" surfaceScale="10" lighting-color="rgb(255,255,255)" result="diffuse" id="feDiffuseLighting178"><feDistantLight elevation="8" azimuth="235" id="feDistantLight176" /></feDiffuseLighting><feComposite in="diffuse" in2="diffuse" operator="arithmetic" k1="1" result="composite1" id="feComposite180" /><feComposite in="composite1" in2="SourceGraphic" k1="1" operator="arithmetic" k3="1" result="composite2" id="feComposite182" /></filter></defs><g id="surface1" style="filter:url(#filter184)"><path style=" stroke:none;fill-rule:nonzero;fill:url(#linear0);" d="M 3.328125 4.617188 L 3.328125 10.183594 L 25.347656 10.183594 L 25.347656 4.617188 Z M 30.242188 4.617188 L 30.242188 7.398438 L 33.910156 7.398438 L 43.699219 32.457031 L 32.6875 57.515625 L 30.242188 57.515625 L 30.242188 60.300781 L 40.027344 60.300781 L 40.027344 57.515625 L 36.359375 57.515625 L 45.410156 36.910156 L 53.484375 57.515625 L 49.8125 57.515625 L 49.8125 60.300781 L 62.046875 60.300781 L 62.046875 57.515625 L 59.601562 57.515625 L 48.835938 29.671875 L 58.378906 7.398438 L 62.046875 7.398438 L 62.046875 4.617188 L 49.8125 4.617188 L 49.8125 7.398438 L 54.707031 7.398438 L 46.9375 25.089844 L 40.027344 7.398438 L 44.921875 7.398438 L 44.921875 4.617188 Z M 3.328125 12.96875 L 3.328125 18.535156 L 32.910156 18.535156 L 30.734375 12.96875 Z M 3.328125 21.320312 L 3.328125 26.890625 L 36.171875 26.890625 L 34 21.320312 Z M 3.328125 29.671875 L 3.328125 35.242188 L 37.003906 35.242188 L 38.289062 32.316406 L 37.257812 29.671875 Z M 3.328125 38.027344 L 3.328125 43.59375 L 33.335938 43.59375 L 35.78125 38.027344 Z M 3.328125 46.378906 L 3.328125 51.945312 L 29.664062 51.945312 L 32.109375 46.378906 Z M 3.328125 54.730469 L 3.328125 60.300781 L 25.347656 60.300781 L 25.347656 54.730469 Z M 3.328125 54.730469 "/></g></svg>
