<svg width="64" height="64" viewBox="0 0 64 64" version="1.1" xmlns:inkscape="http://www.inkscape.org/namespaces/inkscape"><defs><linearGradient id="linear0" gradientUnits="userSpaceOnUse" x1="0" y1="0" x2="0" y2="1" gradientTransform="matrix(74.428789,0,0,72.87114,-4.446241,-3.895493)"><stop offset="0" style="stop-color:rgb(100%,63.137257%,63.137257%);stop-opacity:1;"/><stop offset="1" style="stop-color:rgb(100%,27.843139%,27.843139%);stop-opacity:1;"/></linearGradient><filter style="color-interpolation-filters:sRGB;" inkscape:label="Diffuse Light" id="filter184" x="-0.0375" y="-0.0375" width="1.075" height="1.075"><feGaussianBlur in="SourceGraphic" stdDeviation="1" result="blur" id="feGaussianBlur174" /><feDiffuseLighting diffuseConstant="1" surfaceScale="10" lighting-color="rgb(255,255,255)" result="diffuse" id="feDiffuseLighting178"><feDistantLight elevation="8" azimuth="235" id="feDistantLight176" /></feDiffuseLighting><feComposite in="diffuse" in2="diffuse" operator="arithmetic" k1="1" result="composite1" id="feComposite180" /><feComposite in="composite1" in2="SourceGraphic" k1="1" operator="arithmetic" k3="1" result="composite2" id="feComposite182" /></filter></defs><g id="surface1" style="filter:url(#filter184)"><path style=" stroke:none;fill-rule:nonzero;fill:url(#linear0);" d="M 7.285156 2.320312 L 26.925781 14.453125 L 39.417969 14.453125 L 59.050781 2.320312 L 46.875 2.320312 C 43.570312 3.378906 36.195312 8.203125 32.773438 12.59375 C 28.828125 8.03125 22.492188 3.527344 19.476562 2.320312 L 7.285156 2.320312 M 2.558594 2.925781 L 2.558594 49.707031 L 23.632812 61.574219 L 23.632812 14.796875 Z M 62.5625 2.925781 L 41.472656 14.796875 L 41.472656 61.574219 L 62.5625 49.707031 Z M 27.007812 16.40625 L 27.007812 63.175781 L 38.230469 63.175781 L 38.230469 16.40625 Z M 27.007812 16.40625 "/></g></svg>
