<svg width="64" height="64" viewBox="0 0 64 64" version="1.1" xmlns:inkscape="http://www.inkscape.org/namespaces/inkscape"><defs><linearGradient id="linear0" gradientUnits="userSpaceOnUse" x1="0" y1="0" x2="0" y2="1" gradientTransform="matrix(61.160691,0,0,60.700047,1.637282,2.029992)"><stop offset="0" style="stop-color:rgb(0%,96.078432%,86.274511%);stop-opacity:1;"/><stop offset="1" style="stop-color:rgb(0%,54.901963%,49.411765%);stop-opacity:1;"/></linearGradient><filter style="color-interpolation-filters:sRGB;" inkscape:label="Diffuse Light" id="filter184" x="-0.0375" y="-0.0375" width="1.075" height="1.075"><feGaussianBlur in="SourceGraphic" stdDeviation="1" result="blur" id="feGaussianBlur174" /><feDiffuseLighting diffuseConstant="1" surfaceScale="10" lighting-color="rgb(255,255,255)" result="diffuse" id="feDiffuseLighting178"><feDistantLight elevation="8" azimuth="235" id="feDistantLight176" /></feDiffuseLighting><feComposite in="diffuse" in2="diffuse" operator="arithmetic" k1="1" result="composite1" id="feComposite180" /><feComposite in="composite1" in2="SourceGraphic" k1="1" operator="arithmetic" k3="1" result="composite2" id="feComposite182" /></filter></defs><g id="surface1" style="filter:url(#filter184)"><path style=" stroke:none;fill-rule:nonzero;fill:url(#linear0);" d="M 22.257812 2.03125 L 1.636719 62.730469 L 8.023438 62.730469 L 13.621094 46.175781 L 36.804688 46.175781 L 42.222656 62.730469 L 48.683594 62.730469 L 28.679688 2.03125 Z M 43.980469 2.03125 L 43.980469 29.621094 L 55.742188 29.621094 C 59.636719 29.621094 62.796875 25.914062 62.796875 21.34375 C 62.796875 18.402344 61.535156 15.738281 59.5625 14.273438 C 60.105469 13.097656 60.445312 11.734375 60.445312 10.308594 C 60.445312 5.738281 57.285156 2.03125 53.386719 2.03125 Z M 48.683594 7.546875 L 53.386719 7.546875 C 54.6875 7.546875 55.742188 8.78125 55.742188 10.308594 C 55.742188 11.832031 54.6875 13.066406 53.386719 13.066406 L 48.683594 13.066406 Z M 25.453125 9.359375 C 25.988281 11.433594 28.804688 20.847656 33.910156 37.585938 L 34.964844 40.65625 L 15.476562 40.65625 Z M 48.683594 18.585938 L 55.742188 18.585938 C 57.042969 18.585938 58.09375 19.820312 58.09375 21.34375 C 58.09375 22.867188 57.042969 24.101562 55.742188 24.101562 L 48.683594 24.101562 Z M 48.683594 18.585938 "/></g></svg>
