<svg width="64" height="64" viewBox="0 0 64 64" version="1.1" xmlns:inkscape="http://www.inkscape.org/namespaces/inkscape"><defs><linearGradient id="linear0" gradientUnits="userSpaceOnUse" x1="0" y1="0" x2="0" y2="1" gradientTransform="matrix(56,0,0,35.898438,4,14.050781)"><stop offset="0" style="stop-color:rgb(92.941177%,83.529413%,72.549021%);stop-opacity:1;"/><stop offset="1" style="stop-color:rgb(81.960785%,71.372551%,59.215689%);stop-opacity:1;"/></linearGradient><filter style="color-interpolation-filters:sRGB;" inkscape:label="Diffuse Light" id="filter184" x="-0.0375" y="-0.0375" width="1.075" height="1.075"><feGaussianBlur in="SourceGraphic" stdDeviation="1" result="blur" id="feGaussianBlur174" /><feDiffuseLighting diffuseConstant="1" surfaceScale="10" lighting-color="rgb(255,255,255)" result="diffuse" id="feDiffuseLighting178"><feDistantLight elevation="8" azimuth="235" id="feDistantLight176" /></feDiffuseLighting><feComposite in="diffuse" in2="diffuse" operator="arithmetic" k1="1" result="composite1" id="feComposite180" /><feComposite in="composite1" in2="SourceGraphic" k1="1" operator="arithmetic" k3="1" result="composite2" id="feComposite182" /></filter></defs><g id="surface1" style="filter:url(#filter184)"><path style=" stroke:none;fill-rule:nonzero;fill:url(#linear0);" d="M 9.980469 4.042969 C 6.003906 4.042969 2.777344 8.695312 2.777344 14.429688 L 2.777344 24.8125 L 17.183594 15.914062 L 17.183594 14.429688 C 17.183594 8.695312 13.957031 4.042969 9.980469 4.042969 Z M 25.417969 4.042969 C 23.359375 4.042969 21.300781 7.011719 21.300781 9.976562 L 21.300781 51.519531 C 21.300781 57.453125 23.359375 60.417969 27.472656 60.417969 L 43.9375 60.417969 C 54.230469 60.417969 60.402344 48.550781 60.402344 36.683594 L 60.402344 27.78125 C 60.402344 15.914062 52.171875 4.042969 41.882812 4.042969 Z M 33.648438 18.878906 L 39.824219 18.878906 C 43.292969 18.878906 45.996094 24.8125 45.996094 32.230469 C 45.996094 41.164062 42.910156 45.582031 39.824219 45.582031 L 33.648438 45.582031 Z M 17.183594 21.847656 L 2.777344 30.75 L 2.777344 50.035156 C 2.777344 55.769531 6.003906 60.417969 9.980469 60.417969 C 13.957031 60.417969 17.183594 55.769531 17.183594 50.035156 Z M 17.183594 21.847656 "/></g></svg>
