<svg width="64" height="64" viewBox="0 0 64 64" version="1.1" xmlns:inkscape="http://www.inkscape.org/namespaces/inkscape"><defs><linearGradient id="linear0" gradientUnits="userSpaceOnUse" x1="0" y1="0" x2="0" y2="1" gradientTransform="matrix(59.060143,0,0,37.933981,2.504011,12.746766)"><stop offset="0" style="stop-color:rgb(100%,63.137257%,63.137257%);stop-opacity:1;"/><stop offset="1" style="stop-color:rgb(100%,27.843139%,27.843139%);stop-opacity:1;"/></linearGradient><filter style="color-interpolation-filters:sRGB;" inkscape:label="Diffuse Light" id="filter184" x="-0.0375" y="-0.0375" width="1.075" height="1.075"><feGaussianBlur in="SourceGraphic" stdDeviation="1" result="blur" id="feGaussianBlur174" /><feDiffuseLighting diffuseConstant="1" surfaceScale="10" lighting-color="rgb(255,255,255)" result="diffuse" id="feDiffuseLighting178"><feDistantLight elevation="8" azimuth="235" id="feDistantLight176" /></feDiffuseLighting><feComposite in="diffuse" in2="diffuse" operator="arithmetic" k1="1" result="composite1" id="feComposite180" /><feComposite in="composite1" in2="SourceGraphic" k1="1" operator="arithmetic" k3="1" result="composite2" id="feComposite182" /></filter></defs><g id="surface1" style="filter:url(#filter184)"><path style=" stroke:none;fill-rule:nonzero;fill:url(#linear0);" d="M 31.859375 1.988281 C 14.910156 1.988281 1.164062 15.496094 1.164062 32.15625 C 1.164062 48.816406 14.910156 62.316406 31.859375 62.316406 C 48.808594 62.316406 62.554688 48.816406 62.554688 32.15625 C 62.554688 15.496094 48.808594 1.988281 31.859375 1.988281 Z M 31.859375 17.074219 C 40.335938 17.074219 47.207031 23.824219 47.207031 32.15625 C 47.207031 40.484375 40.335938 47.238281 31.859375 47.238281 C 23.382812 47.238281 16.515625 40.484375 16.515625 32.15625 C 16.515625 23.824219 23.382812 17.074219 31.859375 17.074219 Z M 31.859375 17.074219 "/></g></svg>
