<svg width="64" height="64" viewBox="0 0 64 64" version="1.1" xmlns:inkscape="http://www.inkscape.org/namespaces/inkscape"><defs><linearGradient id="linear0" gradientUnits="userSpaceOnUse" x1="0" y1="0" x2="0" y2="1" gradientTransform="matrix(56,0,0,35.898438,4,14.050781)"><stop offset="0" style="stop-color:rgb(87.058824%,86.666667%,56.470591%);stop-opacity:1;"/><stop offset="1" style="stop-color:rgb(67.843139%,67.450982%,38.039216%);stop-opacity:1;"/></linearGradient><filter style="color-interpolation-filters:sRGB;" inkscape:label="Diffuse Light" id="filter184" x="-0.0375" y="-0.0375" width="1.075" height="1.075"><feGaussianBlur in="SourceGraphic" stdDeviation="1" result="blur" id="feGaussianBlur174" /><feDiffuseLighting diffuseConstant="1" surfaceScale="10" lighting-color="rgb(255,255,255)" result="diffuse" id="feDiffuseLighting178"><feDistantLight elevation="8" azimuth="235" id="feDistantLight176" /></feDiffuseLighting><feComposite in="diffuse" in2="diffuse" operator="arithmetic" k1="1" result="composite1" id="feComposite180" /><feComposite in="composite1" in2="SourceGraphic" k1="1" operator="arithmetic" k3="1" result="composite2" id="feComposite182" /></filter></defs><g id="surface1" style="filter:url(#filter184)"><path style=" stroke:none;fill-rule:nonzero;fill:url(#linear0);" d="M 32.976562 4.417969 C 17.257812 4.417969 4.5 18.910156 4.5 36.765625 C 4.496094 45.347656 7.5 53.5625 12.832031 59.621094 L 16.914062 54.984375 C 12.644531 50.15625 10.214844 43.601562 10.175781 36.765625 C 10.175781 22.46875 20.371094 10.886719 32.957031 10.886719 C 45.542969 10.886719 55.738281 22.46875 55.738281 36.765625 L 51.46875 51.859375 L 39.679688 50.484375 L 48.144531 60.492188 L 52.890625 60.492188 C 58.226562 54.433594 61.433594 45.351562 61.433594 36.769531 C 61.433594 18.914062 48.675781 4.425781 32.957031 4.425781 Z M 32.976562 15.199219 L 29.179688 19.511719 C 29.179688 21.886719 30.878906 23.824219 32.976562 23.824219 C 35.074219 23.824219 36.773438 21.894531 36.773438 19.511719 C 36.773438 17.128906 35.074219 15.199219 32.976562 15.199219 Z M 21.585938 19.511719 L 17.789062 23.824219 C 17.789062 26.199219 19.488281 28.140625 21.585938 28.140625 C 23.683594 28.140625 25.382812 26.207031 25.382812 23.824219 C 25.382812 21.441406 23.683594 19.511719 21.585938 19.511719 Z M 44.367188 19.511719 L 40.570312 23.824219 C 40.570312 26.199219 42.269531 28.140625 44.367188 28.140625 C 46.464844 28.140625 48.164062 26.207031 48.164062 23.824219 C 48.164062 21.441406 46.464844 19.511719 44.367188 19.511719 Z M 17.789062 32.453125 L 13.992188 36.765625 C 13.992188 39.136719 15.691406 41.078125 17.789062 41.078125 C 19.886719 41.078125 21.585938 39.148438 21.585938 36.765625 C 21.585938 34.382812 19.886719 32.453125 17.789062 32.453125 Z M 21.585938 45.390625 L 17.789062 49.703125 C 17.789062 52.074219 19.488281 54.015625 21.585938 54.015625 C 23.683594 54.015625 25.382812 52.085938 25.382812 49.703125 C 25.382812 47.320312 23.683594 45.390625 21.585938 45.390625 Z M 21.585938 45.390625 "/></g></svg>
