<svg width="64" height="64" viewBox="0 0 64 64" version="1.1" xmlns:inkscape="http://www.inkscape.org/namespaces/inkscape"><defs><linearGradient id="linear0" gradientUnits="userSpaceOnUse" x1="0" y1="0" x2="0" y2="1" gradientTransform="matrix(56,0,0,35.898438,4,14.050781)"><stop offset="0" style="stop-color:rgb(0%,78.823531%,36.862746%);stop-opacity:1;"/><stop offset="1" style="stop-color:rgb(0%,54.11765%,25.098041%);stop-opacity:1;"/></linearGradient><filter style="color-interpolation-filters:sRGB;" inkscape:label="Diffuse Light" id="filter184" x="-0.0375" y="-0.0375" width="1.075" height="1.075"><feGaussianBlur in="SourceGraphic" stdDeviation="1" result="blur" id="feGaussianBlur174" /><feDiffuseLighting diffuseConstant="1" surfaceScale="10" lighting-color="rgb(255,255,255)" result="diffuse" id="feDiffuseLighting178"><feDistantLight elevation="8" azimuth="235" id="feDistantLight176" /></feDiffuseLighting><feComposite in="diffuse" in2="diffuse" operator="arithmetic" k1="1" result="composite1" id="feComposite180" /><feComposite in="composite1" in2="SourceGraphic" k1="1" operator="arithmetic" k3="1" result="composite2" id="feComposite182" /></filter></defs><g id="surface1" style="filter:url(#filter184)"><path style=" stroke:none;fill-rule:nonzero;fill:url(#linear0);" d="M 47.761719 4.964844 C 41.964844 4.964844 38.488281 6.09375 38.488281 6.09375 L 38.488281 19.660156 C 38.488281 19.660156 41.964844 18.53125 47.761719 18.53125 C 50.230469 18.53125 52.695312 18.964844 54.714844 19.4375 L 54.714844 32.097656 C 38.488281 32.097656 17.628906 20.792969 3.722656 11.746094 L 3.722656 59.234375 L 8.359375 59.234375 L 8.359375 34.359375 C 17.628906 41.144531 43.125 50.1875 59.351562 50.1875 L 59.351562 6.09375 C 59.351562 6.09375 53.554688 4.964844 47.761719 4.964844 Z M 47.761719 4.964844 "/></g></svg>
