<svg width="64" height="64" viewBox="0 0 64 64" version="1.1" xmlns:inkscape="http://www.inkscape.org/namespaces/inkscape"><defs><linearGradient id="linear0" gradientUnits="userSpaceOnUse" x1="0" y1="0" x2="0" y2="1" gradientTransform="matrix(75.058687,0,0,68.358207,-6.824835,-0.92487)"><stop offset="0" style="stop-color:rgb(75.686276%,77.64706%,83.92157%);stop-opacity:1;"/><stop offset="1" style="stop-color:rgb(43.529412%,45.09804%,50.196081%);stop-opacity:1;"/></linearGradient><linearGradient id="linear1" gradientUnits="userSpaceOnUse" x1="0" y1="0" x2="0" y2="1" gradientTransform="matrix(75.058687,0,0,68.358207,-6.824835,-0.92487)"><stop offset="0" style="stop-color:rgb(75.686276%,77.64706%,83.92157%);stop-opacity:1;"/><stop offset="1" style="stop-color:rgb(43.529412%,45.09804%,50.196081%);stop-opacity:1;"/></linearGradient><filter style="color-interpolation-filters:sRGB;" inkscape:label="Diffuse Light" id="filter184" x="-0.0375" y="-0.0375" width="1.075" height="1.075"><feGaussianBlur in="SourceGraphic" stdDeviation="1" result="blur" id="feGaussianBlur174" /><feDiffuseLighting diffuseConstant="1" surfaceScale="10" lighting-color="rgb(255,255,255)" result="diffuse" id="feDiffuseLighting178"><feDistantLight elevation="8" azimuth="235" id="feDistantLight176" /></feDiffuseLighting><feComposite in="diffuse" in2="diffuse" operator="arithmetic" k1="1" result="composite1" id="feComposite180" /><feComposite in="composite1" in2="SourceGraphic" k1="1" operator="arithmetic" k3="1" result="composite2" id="feComposite182" /></filter></defs><g id="surface1" style="filter:url(#filter184)"><path style=" stroke:none;fill-rule:nonzero;fill:url(#linear0);" d="M 31.964844 2.082031 C 15.058594 2.082031 1.359375 15.707031 1.359375 32.515625 C 1.363281 44.011719 7.886719 54.53125 18.21875 59.695312 L 20.164062 43.71875 C 17.265625 40.703125 15.648438 36.6875 15.640625 32.515625 C 15.640625 23.554688 22.949219 16.28125 31.964844 16.28125 C 40.980469 16.28125 48.292969 23.554688 48.292969 32.515625 C 48.28125 36.683594 46.65625 40.691406 43.761719 43.714844 L 45.703125 59.675781 C 56.039062 54.519531 62.5625 44.007812 62.574219 32.515625 C 62.574219 15.707031 48.871094 2.082031 31.964844 2.082031 "/><path style=" stroke:none;fill-rule:nonzero;fill:url(#linear1);" d="M 31.964844 22.371094 C 26.332031 22.371094 21.761719 26.910156 21.761719 32.515625 C 21.773438 36.042969 23.617188 39.316406 26.648438 41.15625 L 24.109375 61.894531 C 26.671875 62.582031 29.316406 62.941406 31.964844 62.945312 C 34.617188 62.945312 37.253906 62.597656 39.820312 61.917969 L 37.285156 41.15625 C 40.316406 39.316406 42.160156 36.042969 42.171875 32.515625 C 42.171875 26.910156 37.601562 22.371094 31.964844 22.371094 "/></g></svg>
