<svg width="64" height="64" viewBox="0 0 64 64" version="1.1" xmlns:inkscape="http://www.inkscape.org/namespaces/inkscape"><defs><linearGradient id="linear0" gradientUnits="userSpaceOnUse" x1="0" y1="0" x2="0" y2="1" gradientTransform="matrix(61.268652,0,0,38.569138,-0.422204,12.25163)"><stop offset="0" style="stop-color:rgb(92.941177%,83.529413%,72.549021%);stop-opacity:1;"/><stop offset="1" style="stop-color:rgb(81.960785%,71.372551%,59.215689%);stop-opacity:1;"/></linearGradient><filter style="color-interpolation-filters:sRGB;" inkscape:label="Diffuse Light" id="filter184" x="-0.0375" y="-0.0375" width="1.075" height="1.075"><feGaussianBlur in="SourceGraphic" stdDeviation="1" result="blur" id="feGaussianBlur174" /><feDiffuseLighting diffuseConstant="1" surfaceScale="10" lighting-color="rgb(255,255,255)" result="diffuse" id="feDiffuseLighting178"><feDistantLight elevation="8" azimuth="235" id="feDistantLight176" /></feDiffuseLighting><feComposite in="diffuse" in2="diffuse" operator="arithmetic" k1="1" result="composite1" id="feComposite180" /><feComposite in="composite1" in2="SourceGraphic" k1="1" operator="arithmetic" k3="1" result="composite2" id="feComposite182" /></filter></defs><g id="surface1" style="filter:url(#filter184)"><path style=" stroke:none;fill-rule:nonzero;fill:url(#linear0);" d="M 18.082031 1.003906 C 15.945312 1.003906 14.226562 2.644531 14.226562 4.6875 C 14.226562 6.730469 15.945312 8.375 18.082031 8.375 L 19.371094 8.375 L 19.371094 18.203125 C 19.371094 18.203125 3.941406 50.144531 3.941406 55.058594 C 3.941406 59.140625 7.390625 62.433594 11.65625 62.433594 L 52.792969 62.433594 C 57.0625 62.433594 60.507812 59.140625 60.507812 55.058594 C 60.507812 50.144531 45.082031 18.203125 45.082031 18.203125 L 45.082031 8.375 L 46.367188 8.375 C 48.503906 8.375 50.222656 6.730469 50.222656 4.6875 C 50.222656 2.644531 48.503906 1.003906 46.367188 1.003906 Z M 27.082031 8.375 L 37.367188 8.375 L 37.367188 18.203125 L 47.652344 40.316406 C 47.652344 40.316406 45.082031 42.773438 39.9375 42.773438 C 29.65625 42.773438 32.226562 35.402344 19.371094 35.402344 L 27.082031 18.203125 Z M 27.082031 8.375 "/></g></svg>
