<svg width="64" height="64" viewBox="0 0 64 64" version="1.1" xmlns:inkscape="http://www.inkscape.org/namespaces/inkscape"><defs><linearGradient id="linear0" gradientUnits="userSpaceOnUse" x1="0" y1="0" x2="0" y2="1" gradientTransform="matrix(47.273438,0,0,64,8.363281,0)"><stop offset="0" style="stop-color:rgb(41.960785%,64.313728%,100%);stop-opacity:1;"/><stop offset="1" style="stop-color:rgb(0%,43.137255%,100%);stop-opacity:1;"/></linearGradient><filter style="color-interpolation-filters:sRGB;" inkscape:label="Diffuse Light" id="filter184" x="-0.0375" y="-0.0375" width="1.075" height="1.075"><feGaussianBlur in="SourceGraphic" stdDeviation="1" result="blur" id="feGaussianBlur174" /><feDiffuseLighting diffuseConstant="1" surfaceScale="10" lighting-color="rgb(255,255,255)" result="diffuse" id="feDiffuseLighting178"><feDistantLight elevation="8" azimuth="235" id="feDistantLight176" /></feDiffuseLighting><feComposite in="diffuse" in2="diffuse" operator="arithmetic" k1="1" result="composite1" id="feComposite180" /><feComposite in="composite1" in2="SourceGraphic" k1="1" operator="arithmetic" k3="1" result="composite2" id="feComposite182" /></filter></defs><g id="surface1" style="filter:url(#filter184)"><path style=" stroke:none;fill-rule:nonzero;fill:url(#linear0);" d="M 28.625 44.851562 C 17.167969 43.210938 8.363281 33.359375 8.363281 21.453125 C 8.375 12.222656 13.761719 3.84375 22.152344 0 L 22.152344 0.484375 C 16.066406 4 12.3125 10.488281 12.304688 17.511719 C 12.304688 22.734375 14.375 27.746094 18.070312 31.441406 C 20.960938 34.328125 24.652344 36.226562 28.625 36.921875 L 28.625 27.328125 L 24.300781 23.480469 L 39.699219 23.480469 L 35.375 27.328125 L 35.375 36.921875 C 39.347656 36.226562 43.039062 34.328125 45.929688 31.441406 C 49.625 27.746094 51.695312 22.734375 51.695312 17.511719 C 51.6875 10.484375 47.9375 3.992188 41.847656 0.476562 L 41.847656 0.015625 C 50.234375 3.859375 55.617188 12.226562 55.636719 21.453125 C 55.636719 33.359375 46.832031 43.210938 35.375 44.851562 L 35.375 52.351562 L 32 64 L 28.625 52.351562 Z M 28.625 44.851562 "/></g></svg>
