<svg width="64" height="64" viewBox="0 0 64 64" version="1.1" xmlns:inkscape="http://www.inkscape.org/namespaces/inkscape"><defs><linearGradient id="linear0" gradientUnits="userSpaceOnUse" x1="0" y1="0" x2="0" y2="1" gradientTransform="matrix(32,0,0,32,0,16)"><stop offset="0" style="stop-color:rgb(75.686276%,77.64706%,83.92157%);stop-opacity:1;"/><stop offset="1" style="stop-color:rgb(43.529412%,45.09804%,50.196081%);stop-opacity:1;"/></linearGradient><linearGradient id="linear1" gradientUnits="userSpaceOnUse" x1="0" y1="0" x2="0" y2="1" gradientTransform="matrix(20,0,0,8,44,40)"><stop offset="0" style="stop-color:rgb(75.686276%,77.64706%,83.92157%);stop-opacity:1;"/><stop offset="1" style="stop-color:rgb(43.529412%,45.09804%,50.196081%);stop-opacity:1;"/></linearGradient><filter style="color-interpolation-filters:sRGB;" inkscape:label="Diffuse Light" id="filter184" x="-0.0375" y="-0.0375" width="1.075" height="1.075"><feGaussianBlur in="SourceGraphic" stdDeviation="1" result="blur" id="feGaussianBlur174" /><feDiffuseLighting diffuseConstant="1" surfaceScale="10" lighting-color="rgb(255,255,255)" result="diffuse" id="feDiffuseLighting178"><feDistantLight elevation="8" azimuth="235" id="feDistantLight176" /></feDiffuseLighting><feComposite in="diffuse" in2="diffuse" operator="arithmetic" k1="1" result="composite1" id="feComposite180" /><feComposite in="composite1" in2="SourceGraphic" k1="1" operator="arithmetic" k3="1" result="composite2" id="feComposite182" /></filter></defs><g id="surface1" style="filter:url(#filter184)"><path style=" stroke:none;fill-rule:nonzero;fill:url(#linear0);" d="M 8 16 L 8 24 L 0 24 L 0 28 L 8 28 L 8 36 L 0 36 L 0 40 L 8 40 L 8 48 L 12 48 L 12 40 L 20 40 L 20 48 L 24 48 L 24 40 L 32 40 L 32 36 L 24 36 L 24 28 L 32 28 L 32 24 L 24 24 L 24 16 L 20 16 L 20 24 L 12 24 L 12 16 Z M 12 28 L 20 28 L 20 36 L 12 36 Z M 12 28 "/><path style=" stroke:none;fill-rule:nonzero;fill:url(#linear1);" d="M 48 40 C 45.785156 40 44 41.785156 44 44 C 44 46.214844 45.785156 48 48 48 C 50.214844 48 52 46.214844 52 44 C 52 41.785156 50.214844 40 48 40 Z M 60 40 C 57.785156 40 56 41.785156 56 44 C 56 46.214844 57.785156 48 60 48 C 62.214844 48 64 46.214844 64 44 C 64 41.785156 62.214844 40 60 40 Z M 60 40 "/></g></svg>
