<svg width="64" height="64" viewBox="0 0 64 64" version="1.1" xmlns:inkscape="http://www.inkscape.org/namespaces/inkscape"><defs><linearGradient id="linear0" gradientUnits="userSpaceOnUse" x1="0" y1="0" x2="0" y2="1" gradientTransform="matrix(64,0,0,64,0,0)"><stop offset="0" style="stop-color:rgb(0%,96.078432%,86.274511%);stop-opacity:1;"/><stop offset="1" style="stop-color:rgb(0%,54.901963%,49.411765%);stop-opacity:1;"/></linearGradient><filter style="color-interpolation-filters:sRGB;" inkscape:label="Diffuse Light" id="filter184" x="-0.0375" y="-0.0375" width="1.075" height="1.075"><feGaussianBlur in="SourceGraphic" stdDeviation="1" result="blur" id="feGaussianBlur174" /><feDiffuseLighting diffuseConstant="1" surfaceScale="10" lighting-color="rgb(255,255,255)" result="diffuse" id="feDiffuseLighting178"><feDistantLight elevation="8" azimuth="235" id="feDistantLight176" /></feDiffuseLighting><feComposite in="diffuse" in2="diffuse" operator="arithmetic" k1="1" result="composite1" id="feComposite180" /><feComposite in="composite1" in2="SourceGraphic" k1="1" operator="arithmetic" k3="1" result="composite2" id="feComposite182" /></filter></defs><g id="surface1" style="filter:url(#filter184)"><path style=" stroke:none;fill-rule:evenodd;fill:url(#linear0);" d="M 24 53.332031 L 24 64 L 0 64 L 0 0 L 24 0 L 24 10.667969 L 10.667969 10.667969 L 10.667969 53.332031 Z M 34.746094 10.667969 L 34.746094 0 L 37.253906 0 C 44.347656 0 51.148438 2.800781 56.160156 7.789062 C 61.171875 12.800781 64 19.570312 64 26.667969 L 64 37.332031 C 64 44.429688 61.171875 51.199219 56.160156 56.210938 C 51.148438 61.199219 44.347656 64 37.253906 64 L 34.746094 64 L 34.746094 53.332031 L 37.253906 53.332031 C 37.253906 53.332031 37.28125 53.332031 37.28125 53.332031 C 41.519531 53.332031 45.601562 51.652344 48.613281 48.667969 C 51.628906 45.652344 53.332031 41.570312 53.332031 37.332031 L 53.332031 26.667969 C 53.332031 22.429688 51.628906 18.347656 48.613281 15.332031 C 45.601562 12.347656 41.519531 10.667969 37.28125 10.667969 C 37.28125 10.667969 37.253906 10.667969 37.253906 10.667969 Z M 34.746094 10.667969 "/></g></svg>
