<svg width="64" height="64" viewBox="0 0 64 64" version="1.1" xmlns:inkscape="http://www.inkscape.org/namespaces/inkscape"><defs><linearGradient id="linear0" gradientUnits="userSpaceOnUse" x1="0" y1="0" x2="0" y2="1" gradientTransform="matrix(61.026437,0,0,39.425242,1.39949,11.980181)"><stop offset="0" style="stop-color:rgb(0%,73.333335%,100%);stop-opacity:1;"/><stop offset="1" style="stop-color:rgb(0%,52.156866%,70.980394%);stop-opacity:1;"/></linearGradient><filter style="color-interpolation-filters:sRGB;" inkscape:label="Diffuse Light" id="filter184" x="-0.0375" y="-0.0375" width="1.075" height="1.075"><feGaussianBlur in="SourceGraphic" stdDeviation="1" result="blur" id="feGaussianBlur174" /><feDiffuseLighting diffuseConstant="1" surfaceScale="10" lighting-color="rgb(255,255,255)" result="diffuse" id="feDiffuseLighting178"><feDistantLight elevation="8" azimuth="235" id="feDistantLight176" /></feDiffuseLighting><feComposite in="diffuse" in2="diffuse" operator="arithmetic" k1="1" result="composite1" id="feComposite180" /><feComposite in="composite1" in2="SourceGraphic" k1="1" operator="arithmetic" k3="1" result="composite2" id="feComposite182" /></filter></defs><g id="surface1" style="filter:url(#filter184)"><path style=" stroke:none;fill-rule:nonzero;fill:url(#linear0);" d="M 31.675781 1.75 C 30.289062 1.75 28.398438 3.4375 28.398438 3.5 L 25.511719 9.382812 L 9.585938 11.773438 L 3.867188 18.53125 L 0.851562 51.769531 L 9.070312 29.742188 L 23.453125 29.742188 L 30.070312 45.328125 L 21.398438 62.824219 L 27.113281 62.824219 L 30.070312 54.3125 L 31.226562 51.054688 L 31.675781 50.101562 L 32.125 51.054688 L 33.285156 54.3125 L 36.238281 62.824219 L 41.949219 62.824219 L 33.285156 45.328125 L 39.898438 29.742188 L 54.28125 29.742188 L 62.503906 51.769531 L 59.480469 18.53125 L 53.765625 11.773438 L 37.84375 9.382812 L 34.953125 3.5 C 34.953125 3.46875 33.058594 1.75 31.679688 1.75 M 31.679688 1.75 "/></g></svg>
