<svg width="64" height="64" viewBox="0 0 64 64" version="1.1" xmlns:inkscape="http://www.inkscape.org/namespaces/inkscape"><defs><linearGradient id="linear0" gradientUnits="userSpaceOnUse" x1="0" y1="0" x2="0" y2="1" gradientTransform="matrix(65.330554,0,0,41.861811,-1.241463,10.882003)"><stop offset="0" style="stop-color:rgb(92.941177%,83.529413%,72.549021%);stop-opacity:1;"/><stop offset="1" style="stop-color:rgb(81.960785%,71.372551%,59.215689%);stop-opacity:1;"/></linearGradient><filter style="color-interpolation-filters:sRGB;" inkscape:label="Diffuse Light" id="filter184" x="-0.0375" y="-0.0375" width="1.075" height="1.075"><feGaussianBlur in="SourceGraphic" stdDeviation="1" result="blur" id="feGaussianBlur174" /><feDiffuseLighting diffuseConstant="1" surfaceScale="10" lighting-color="rgb(255,255,255)" result="diffuse" id="feDiffuseLighting178"><feDistantLight elevation="8" azimuth="235" id="feDistantLight176" /></feDiffuseLighting><feComposite in="diffuse" in2="diffuse" operator="arithmetic" k1="1" result="composite1" id="feComposite180" /><feComposite in="composite1" in2="SourceGraphic" k1="1" operator="arithmetic" k3="1" result="composite2" id="feComposite182" /></filter></defs><g id="surface1" style="filter:url(#filter184)"><path style=" stroke:none;fill-rule:nonzero;fill:url(#linear0);" d="M 52.9375 1.292969 C 47.320312 1.292969 42.78125 5.871094 42.78125 11.542969 C 42.78125 17.214844 47.320312 21.792969 52.9375 21.792969 C 58.558594 21.792969 63.089844 17.214844 63.089844 11.542969 C 63.089844 5.871094 58.558594 1.292969 52.9375 1.292969 Z M 32.625 21.824219 C 27.007812 21.824219 22.46875 26.402344 22.46875 32.074219 C 22.46875 37.707031 27.007812 42.320312 32.625 42.320312 C 38.246094 42.320312 42.78125 37.707031 42.78125 32.074219 C 42.78125 26.402344 38.246094 21.824219 32.625 21.824219 Z M 12.316406 42.285156 C 6.695312 42.285156 2.164062 46.863281 2.164062 52.535156 C 2.164062 58.207031 6.695312 62.777344 12.316406 62.777344 C 17.933594 62.777344 22.46875 58.207031 22.46875 52.535156 C 22.46875 46.863281 17.933594 42.285156 12.316406 42.285156 Z M 12.316406 42.285156 "/></g></svg>
