<svg width="64" height="64" viewBox="0 0 64 64" version="1.1" xmlns:inkscape="http://www.inkscape.org/namespaces/inkscape"><defs><linearGradient id="linear0" gradientUnits="userSpaceOnUse" x1="0" y1="0" x2="0" y2="1" gradientTransform="matrix(56,0,0,35.898438,4,14.050781)"><stop offset="0" style="stop-color:rgb(0%,78.823531%,36.862746%);stop-opacity:1;"/><stop offset="1" style="stop-color:rgb(0%,54.11765%,25.098041%);stop-opacity:1;"/></linearGradient><linearGradient id="linear1" gradientUnits="userSpaceOnUse" x1="0" y1="0" x2="0" y2="1" gradientTransform="matrix(56,0,0,35.898438,4,14.050781)"><stop offset="0" style="stop-color:rgb(0%,78.823531%,36.862746%);stop-opacity:1;"/><stop offset="1" style="stop-color:rgb(0%,54.11765%,25.098041%);stop-opacity:1;"/></linearGradient><linearGradient id="linear2" gradientUnits="userSpaceOnUse" x1="0" y1="0" x2="0" y2="1" gradientTransform="matrix(56,0,0,35.898438,4,14.050781)"><stop offset="0" style="stop-color:rgb(0%,78.823531%,36.862746%);stop-opacity:1;"/><stop offset="1" style="stop-color:rgb(0%,54.11765%,25.098041%);stop-opacity:1;"/></linearGradient><linearGradient id="linear3" gradientUnits="userSpaceOnUse" x1="0" y1="0" x2="0" y2="1" gradientTransform="matrix(56,0,0,35.898438,4,14.050781)"><stop offset="0" style="stop-color:rgb(0%,78.823531%,36.862746%);stop-opacity:1;"/><stop offset="1" style="stop-color:rgb(0%,54.11765%,25.098041%);stop-opacity:1;"/></linearGradient><filter style="color-interpolation-filters:sRGB;" inkscape:label="Diffuse Light" id="filter184" x="-0.0375" y="-0.0375" width="1.075" height="1.075"><feGaussianBlur in="SourceGraphic" stdDeviation="1" result="blur" id="feGaussianBlur174" /><feDiffuseLighting diffuseConstant="1" surfaceScale="10" lighting-color="rgb(255,255,255)" result="diffuse" id="feDiffuseLighting178"><feDistantLight elevation="8" azimuth="235" id="feDistantLight176" /></feDiffuseLighting><feComposite in="diffuse" in2="diffuse" operator="arithmetic" k1="1" result="composite1" id="feComposite180" /><feComposite in="composite1" in2="SourceGraphic" k1="1" operator="arithmetic" k3="1" result="composite2" id="feComposite182" /></filter></defs><g id="surface1" style="filter:url(#filter184)"><path style=" stroke:none;fill-rule:nonzero;fill:url(#linear0);" d="M 4.523438 58.46875 C 0.546875 50.941406 29.140625 47.96875 35.84375 55.957031 C 30.453125 55.085938 25.003906 54.667969 18.894531 56.257812 C 14.445312 57.414062 7.15625 63.460938 4.519531 58.46875 Z M 4.523438 58.46875 "/><path style=" stroke:none;fill-rule:nonzero;fill:url(#linear1);" d="M 34.265625 16.71875 C 30.039062 16.539062 -1.1875 30.285156 3.699219 40.539062 C 7.058594 47.59375 21.316406 46.40625 30.636719 45.671875 C 37.371094 45.144531 43.886719 45.601562 51.433594 51.214844 C 48.386719 46.203125 44.9375 39.773438 37.628906 39.289062 C 22.441406 38.28125 16.308594 38.726562 17.03125 34.621094 C 18.421875 26.65625 27.078125 21.976562 34.273438 16.714844 Z M 34.265625 16.71875 "/><path style=" stroke:none;fill-rule:nonzero;fill:url(#linear2);" d="M 28.703125 28.089844 C 26.144531 23.832031 33.097656 22.175781 35.175781 25.152344 C 36.085938 26.457031 38.949219 27.113281 39.316406 24.734375 C 40.484375 17.175781 46.386719 16.917969 47.523438 17.605469 C 43.554688 19.636719 42.902344 24.625 42.855469 26.550781 C 42.699219 33.328125 31.503906 32.75 28.703125 28.089844 Z M 28.703125 28.089844 "/><path style=" stroke:none;fill-rule:nonzero;fill:url(#linear3);" d="M 37.855469 12.039062 C 34.003906 5.734375 43.472656 -0.511719 47.945312 5.105469 C 52.414062 10.71875 41.710938 18.347656 37.855469 12.039062 Z M 37.855469 12.039062 "/></g></svg>
