<svg width="64" height="64" viewBox="0 0 64 64" version="1.1" xmlns:inkscape="http://www.inkscape.org/namespaces/inkscape"><defs><linearGradient id="linear0" gradientUnits="userSpaceOnUse" x1="0" y1="0" x2="0" y2="1" gradientTransform="matrix(64,0,0,64,0,0)"><stop offset="0" style="stop-color:rgb(0%,96.078432%,86.274511%);stop-opacity:1;"/><stop offset="1" style="stop-color:rgb(0%,54.901963%,49.411765%);stop-opacity:1;"/></linearGradient><filter style="color-interpolation-filters:sRGB;" inkscape:label="Diffuse Light" id="filter184" x="-0.0375" y="-0.0375" width="1.075" height="1.075"><feGaussianBlur in="SourceGraphic" stdDeviation="1" result="blur" id="feGaussianBlur174" /><feDiffuseLighting diffuseConstant="1" surfaceScale="10" lighting-color="rgb(255,255,255)" result="diffuse" id="feDiffuseLighting178"><feDistantLight elevation="8" azimuth="235" id="feDistantLight176" /></feDiffuseLighting><feComposite in="diffuse" in2="diffuse" operator="arithmetic" k1="1" result="composite1" id="feComposite180" /><feComposite in="composite1" in2="SourceGraphic" k1="1" operator="arithmetic" k3="1" result="composite2" id="feComposite182" /></filter></defs><g id="surface1" style="filter:url(#filter184)"><path style=" stroke:none;fill-rule:evenodd;fill:url(#linear0);" d="M 0 32 C 0 23.519531 3.375 15.375 9.375 9.375 C 15.375 3.375 23.519531 0 32 0 C 40.480469 0 48.625 3.375 54.625 9.375 C 60.625 15.375 64 23.519531 64 32 C 64 40.480469 60.625 48.625 54.625 54.625 C 48.625 60.625 40.480469 64 32 64 C 23.519531 64 15.375 60.625 9.375 54.625 C 3.375 48.625 0 40.480469 0 32 Z M 9.601562 32 C 9.601562 26.0625 11.96875 20.351562 16.160156 16.160156 C 20.351562 11.96875 26.0625 9.601562 32 9.601562 C 37.9375 9.601562 43.648438 11.96875 47.839844 16.160156 C 52.03125 20.351562 54.398438 26.0625 54.398438 32 C 54.398438 37.9375 52.03125 43.648438 47.839844 47.839844 C 43.648438 52.03125 37.9375 54.398438 32 54.398438 C 26.0625 54.398438 20.351562 52.03125 16.160156 47.839844 C 11.96875 43.648438 9.601562 37.9375 9.601562 32 Z M 9.601562 32 "/></g></svg>
