<?xml version="1.0" encoding="UTF-8" standalone="no"?><svg width="64" height="64" viewBox="0 0 64 64" version="1.1" id="svg693" sodipodi:docname="Rcmdr.svg" inkscape:version="1.2.2 (b0a8486541, 2022-12-01)" xmlns:inkscape="http://www.inkscape.org/namespaces/inkscape" xmlns:sodipodi="http://sodipodi.sourceforge.net/DTD/sodipodi-0.dtd" xmlns:xlink="http://www.w3.org/1999/xlink" xmlns="http://www.w3.org/2000/svg" xmlns:svg="http://www.w3.org/2000/svg"> <sodipodi:namedview id="namedview695" pagecolor="#ffffff" bordercolor="#000000" borderopacity="0.25" inkscape:showpageshadow="2" inkscape:pageopacity="0.0" inkscape:pagecheckerboard="0" inkscape:deskcolor="#d1d1d1" showgrid="false" inkscape:zoom="3.6875" inkscape:cx="32" inkscape:cy="32.135593" inkscape:window-width="1432" inkscape:window-height="844" inkscape:window-x="0" inkscape:window-y="0" inkscape:window-maximized="1" inkscape:current-layer="svg693" /> <defs id="defs686"> <filter id="alpha" filterUnits="objectBoundingBox" x="0" y="0" width="1" height="1"> <feColorMatrix type="matrix" in="SourceGraphic" values="0 0 0 0 1 0 0 0 0 1 0 0 0 0 1 0 0 0 1 0" id="feColorMatrix662" /> </filter> <mask id="mask0"> <g filter="url(#alpha)" id="g667"> <rect x="0" y="0" width="64" height="64" style="fill:rgb(0%,0%,0%);fill-opacity:0.6;stroke:none;" id="rect665" /> </g> </mask> <linearGradient id="linear0" gradientUnits="userSpaceOnUse" x1="0" y1="0" x2="0" y2="1" gradientTransform="matrix(64,0,0,45.332031,0,8)"> <stop offset="0" style="stop-color:#d1b597;stop-opacity:1;" id="stop670" /> <stop offset="1" style="stop-color:#a6896a;stop-opacity:1;" id="stop672" /> </linearGradient> <clipPath id="clip1"> <rect x="0" y="0" width="64" height="64" id="rect675" /> </clipPath> <g id="surface5" clip-path="url(#clip1)"> <path style=" stroke:none;fill-rule:nonzero;fill:url(#linear0);" d="M 32 8 C 14.328125 8 0 18.148438 0 30.667969 C 0 43.183594 14.328125 53.332031 32 53.332031 C 49.671875 53.332031 64 43.183594 64 30.667969 C 64 18.148438 49.671875 8 32 8 Z M 37.332031 16 C 50.589844 16 61.332031 22.566406 61.332031 30.667969 C 61.332031 38.765625 50.589844 45.332031 37.332031 45.332031 C 24.078125 45.332031 13.332031 38.765625 13.332031 30.667969 C 13.332031 22.566406 24.078125 16 37.332031 16 Z M 37.332031 16 " id="path678" /> </g> <linearGradient id="linear1" gradientUnits="userSpaceOnUse" x1="0" y1="0" x2="0" y2="1" gradientTransform="matrix(34.664062,0,0,37.332031,26.667969,18.667969)"> <stop offset="0" style="stop-color:#d1b597;stop-opacity:1;" id="stop681" /> <stop offset="1" style="stop-color:#a6896a;stop-opacity:1;" id="stop683" /> </linearGradient> <filter style="color-interpolation-filters:sRGB;" inkscape:label="Diffuse Light" id="filter939" x="-0.0375" y="-0.05" width="1.075" height="1.1"> <feGaussianBlur in="SourceGraphic" stdDeviation="1" result="blur" id="feGaussianBlur929" /> <feDiffuseLighting diffuseConstant="1" surfaceScale="10" lighting-color="rgb(255,255,255)" result="diffuse" id="feDiffuseLighting933"> <feDistantLight elevation="8" azimuth="235" id="feDistantLight931" /> </feDiffuseLighting> <feComposite in="diffuse" in2="diffuse" operator="arithmetic" k1="1" result="composite1" id="feComposite935" /> <feComposite in="composite1" in2="SourceGraphic" k1="1" operator="arithmetic" k3="1" result="composite2" id="feComposite937" /> </filter> </defs> <g id="surface1" style="filter:url(#filter939)"> <use xlink:href="#surface5" mask="url(#mask0)" id="use688" /> <path style=" stroke:none;fill-rule:evenodd;fill:url(#linear1);" d="M 50.933594 41.265625 C 50.933594 41.265625 51.964844 40.972656 52.996094 41.496094 C 53.351562 41.679688 53.972656 42.042969 54.417969 42.523438 C 54.851562 42.992188 55.066406 43.464844 55.066406 43.464844 L 61.332031 56 L 48 56 C 48 56 45.019531 47.289062 42.230469 43.5625 C 41.675781 43.109375 41.214844 42.621094 40.667969 42.667969 L 37.332031 42.667969 L 37.332031 55.992188 L 26.667969 55.992188 L 26.667969 18.667969 L 46.875 18.667969 C 49.066406 18.667969 58.34375 20 58.664062 29.332031 C 58.34375 38.667969 50.933594 41.332031 50.933594 41.332031 Z M 37.335938 26.597656 L 37.335938 34.601562 L 45.332031 34.601562 C 45.332031 34.601562 48 34.695312 48 30.601562 C 48 26.296875 45.332031 26.601562 45.332031 26.601562 Z M 37.335938 26.597656 " id="path690" /> </g></svg>
