<svg width="64" height="64" viewBox="0 0 64 64" version="1.1" xmlns:inkscape="http://www.inkscape.org/namespaces/inkscape"><defs><linearGradient id="linear0" gradientUnits="userSpaceOnUse" x1="0" y1="0" x2="0" y2="1" gradientTransform="matrix(57.972534,0,0,60.624238,3.264361,1.690163)"><stop offset="0" style="stop-color:rgb(61.176473%,69.803923%,85.09804%);stop-opacity:1;"/><stop offset="1" style="stop-color:rgb(44.313726%,52.156866%,65.882355%);stop-opacity:1;"/></linearGradient><filter style="color-interpolation-filters:sRGB;" inkscape:label="Diffuse Light" id="filter184" x="-0.0375" y="-0.0375" width="1.075" height="1.075"><feGaussianBlur in="SourceGraphic" stdDeviation="1" result="blur" id="feGaussianBlur174" /><feDiffuseLighting diffuseConstant="1" surfaceScale="10" lighting-color="rgb(255,255,255)" result="diffuse" id="feDiffuseLighting178"><feDistantLight elevation="8" azimuth="235" id="feDistantLight176" /></feDiffuseLighting><feComposite in="diffuse" in2="diffuse" operator="arithmetic" k1="1" result="composite1" id="feComposite180" /><feComposite in="composite1" in2="SourceGraphic" k1="1" operator="arithmetic" k3="1" result="composite2" id="feComposite182" /></filter></defs><g id="surface1" style="filter:url(#filter184)"><path style=" stroke:none;fill-rule:evenodd;fill:url(#linear0);" d="M 37.519531 9.621094 L 36.433594 15.511719 L 40.535156 18.980469 L 35.242188 20.222656 L 34.058594 26.652344 L 32.144531 19.472656 L 26.039062 18.238281 L 30.597656 14.527344 L 29.230469 8.828125 L 33.496094 12.59375 Z M 32.640625 55.183594 L 23.96875 45.863281 L 36.390625 40.921875 Z M 11.546875 30.21875 C 11.546875 26.289062 14.792969 23.089844 18.792969 23.089844 C 22.792969 23.089844 26.039062 26.289062 26.039062 30.21875 C 26.039062 34.15625 22.792969 37.355469 18.792969 37.355469 C 14.792969 37.355469 11.546875 34.15625 11.546875 30.21875 Z M 32.25 1.691406 C 30.328125 1.691406 28.40625 2.433594 26.980469 3.925781 L 5.398438 26.496094 C 2.550781 29.46875 2.554688 34.539062 5.398438 37.515625 L 26.980469 60.089844 C 29.832031 63.058594 34.675781 63.058594 37.519531 60.089844 L 59.101562 37.515625 C 61.953125 34.539062 61.949219 29.46875 59.101562 26.496094 L 37.519531 3.925781 C 36.097656 2.433594 34.175781 1.691406 32.25 1.691406 Z M 44.671875 40.921875 L 36.390625 32.46875 L 44.671875 23.089844 L 52.953125 31.554688 Z M 44.671875 40.921875 "/></g></svg>
