<svg width="64" height="64" viewBox="0 0 64 64" version="1.1" xmlns:inkscape="http://www.inkscape.org/namespaces/inkscape"><defs><linearGradient id="linear0" gradientUnits="userSpaceOnUse" x1="0" y1="0" x2="0" y2="1" gradientTransform="matrix(41.140625,0,0,64,11.429688,0)"><stop offset="0" style="stop-color:rgb(75.686276%,77.64706%,83.92157%);stop-opacity:1;"/><stop offset="1" style="stop-color:rgb(43.529412%,45.09804%,50.196081%);stop-opacity:1;"/></linearGradient><filter style="color-interpolation-filters:sRGB;" inkscape:label="Diffuse Light" id="filter184" x="-0.0375" y="-0.0375" width="1.075" height="1.075"><feGaussianBlur in="SourceGraphic" stdDeviation="1" result="blur" id="feGaussianBlur174" /><feDiffuseLighting diffuseConstant="1" surfaceScale="10" lighting-color="rgb(255,255,255)" result="diffuse" id="feDiffuseLighting178"><feDistantLight elevation="8" azimuth="235" id="feDistantLight176" /></feDiffuseLighting><feComposite in="diffuse" in2="diffuse" operator="arithmetic" k1="1" result="composite1" id="feComposite180" /><feComposite in="composite1" in2="SourceGraphic" k1="1" operator="arithmetic" k3="1" result="composite2" id="feComposite182" /></filter></defs><g id="surface1" style="filter:url(#filter184)"><path style=" stroke:none;fill-rule:nonzero;fill:url(#linear0);" d="M 32 0 C 20.636719 0 11.429688 9.234375 11.429688 20.621094 C 11.429688 27.375 14.605469 33.265625 19.59375 37.027344 C 21.886719 38.765625 23.785156 41 23.785156 44.085938 L 24 48 L 40 48 L 40.230469 44.085938 C 40.410156 41.003906 42.117188 38.761719 44.40625 37.027344 C 49.398438 33.265625 52.570312 27.375 52.570312 20.621094 C 52.570312 9.234375 43.363281 0 32 0 Z M 32 8.242188 C 38.8125 8.242188 44.34375 13.796875 44.34375 20.621094 C 44.34375 24.519531 42.566406 28.109375 39.457031 30.445312 C 34.816406 33.957031 33.058594 37.878906 32.410156 41.140625 L 31.589844 41.140625 C 30.945312 37.878906 29.1875 33.957031 24.542969 30.445312 C 21.441406 28.105469 19.65625 24.519531 19.65625 20.621094 C 19.65625 13.796875 25.1875 8.242188 32 8.242188 Z M 24 52 L 24 56 L 40 56 L 40 52 Z M 28 60 L 28 64 L 36 64 L 36 60 Z M 28 60 "/></g></svg>
