<svg width="64" height="64" viewBox="0 0 64 64" version="1.1" xmlns:inkscape="http://www.inkscape.org/namespaces/inkscape"><defs><linearGradient id="linear0" gradientUnits="userSpaceOnUse" x1="0" y1="0" x2="0" y2="1" gradientTransform="matrix(56,0,0,35.898438,4,14.050781)"><stop offset="0" style="stop-color:rgb(82.352942%,61.176473%,100%);stop-opacity:1;"/><stop offset="1" style="stop-color:rgb(66.666669%,0%,100%);stop-opacity:1;"/></linearGradient><linearGradient id="linear1" gradientUnits="userSpaceOnUse" x1="0" y1="0" x2="0" y2="1" gradientTransform="matrix(56,0,0,35.898438,4,14.050781)"><stop offset="0" style="stop-color:rgb(82.352942%,61.176473%,100%);stop-opacity:1;"/><stop offset="1" style="stop-color:rgb(66.666669%,0%,100%);stop-opacity:1;"/></linearGradient><filter style="color-interpolation-filters:sRGB;" inkscape:label="Diffuse Light" id="filter184" x="-0.0375" y="-0.0375" width="1.075" height="1.075"><feGaussianBlur in="SourceGraphic" stdDeviation="1" result="blur" id="feGaussianBlur174" /><feDiffuseLighting diffuseConstant="1" surfaceScale="10" lighting-color="rgb(255,255,255)" result="diffuse" id="feDiffuseLighting178"><feDistantLight elevation="8" azimuth="235" id="feDistantLight176" /></feDiffuseLighting><feComposite in="diffuse" in2="diffuse" operator="arithmetic" k1="1" result="composite1" id="feComposite180" /><feComposite in="composite1" in2="SourceGraphic" k1="1" operator="arithmetic" k3="1" result="composite2" id="feComposite182" /></filter></defs><g id="surface1" style="filter:url(#filter184)"><path style=" stroke:none;fill-rule:nonzero;fill:url(#linear0);" d="M 2.175781 13.816406 L 15.835938 5.3125 L 22.664062 5.3125 L 22.664062 56.34375 L 15.835938 56.34375 L 2.175781 47.835938 Z M 2.175781 13.816406 "/><path style=" stroke:none;fill-rule:nonzero;fill:url(#linear1);" d="M 44.933594 58.097656 L 61.726562 58.097656 L 61.726562 40.394531 C 61.726562 31.542969 50.53125 31.542969 50.53125 31.542969 C 50.53125 31.542969 61.726562 31.542969 61.726562 22.695312 L 61.726562 13.84375 C 61.726562 9.417969 56.128906 4.992188 50.53125 4.992188 L 16.945312 4.992188 L 16.945312 13.84375 L 33.738281 13.84375 C 39.335938 13.84375 44.933594 13.84375 44.933594 20.480469 C 44.933594 27.121094 39.335938 27.121094 33.738281 27.121094 L 16.945312 27.121094 L 16.945312 35.96875 L 33.738281 35.96875 C 39.335938 35.96875 44.933594 40.394531 44.933594 44.820312 Z M 44.933594 58.097656 "/></g></svg>
