<svg width="64" height="64" viewBox="0 0 64 64" version="1.1" xmlns:inkscape="http://www.inkscape.org/namespaces/inkscape"><defs><linearGradient id="linear0" gradientUnits="userSpaceOnUse" x1="0" y1="0" x2="0" y2="1" gradientTransform="matrix(64,0,0,34.664062,0,14.667969)"><stop offset="0" style="stop-color:rgb(0%,78.823531%,36.862746%);stop-opacity:1;"/><stop offset="1" style="stop-color:rgb(0%,54.11765%,25.098041%);stop-opacity:1;"/></linearGradient><filter style="color-interpolation-filters:sRGB;" inkscape:label="Diffuse Light" id="filter184" x="-0.0375" y="-0.0375" width="1.075" height="1.075"><feGaussianBlur in="SourceGraphic" stdDeviation="1" result="blur" id="feGaussianBlur174" /><feDiffuseLighting diffuseConstant="1" surfaceScale="10" lighting-color="rgb(255,255,255)" result="diffuse" id="feDiffuseLighting178"><feDistantLight elevation="8" azimuth="235" id="feDistantLight176" /></feDiffuseLighting><feComposite in="diffuse" in2="diffuse" operator="arithmetic" k1="1" result="composite1" id="feComposite180" /><feComposite in="composite1" in2="SourceGraphic" k1="1" operator="arithmetic" k3="1" result="composite2" id="feComposite182" /></filter></defs><g id="surface1" style="filter:url(#filter184)"><path style=" stroke:none;fill-rule:evenodd;fill:url(#linear0);" d="M 40 26.667969 L 40 33.332031 L 46.667969 33.332031 L 46.667969 26.667969 Z M 18.667969 14.667969 L 24 22.667969 L 13.332031 22.667969 L 12 28 L 6 28 L 8 20 L 4 20 L 0 36 L 9.601562 36 L 8 41.332031 L 17.332031 41.332031 L 10.667969 49.332031 L 18.667969 49.332031 L 24 41.332031 L 40 41.332031 L 45.332031 49.332031 L 53.332031 49.332031 L 46.667969 41.332031 L 56 41.332031 L 54.398438 36 L 64 36 L 60 20 L 56 20 L 58 28 L 52 28 L 50.667969 22.667969 L 40 22.667969 L 45.332031 14.667969 L 41.332031 14.667969 L 36 22.667969 L 28 22.667969 L 22.667969 14.667969 Z M 17.332031 26.667969 L 17.332031 33.332031 L 24 33.332031 L 24 26.667969 Z M 17.332031 26.667969 "/></g></svg>
