<svg width="64" height="64" viewBox="0 0 64 64" version="1.1" xmlns:inkscape="http://www.inkscape.org/namespaces/inkscape"><defs><linearGradient id="linear0" gradientUnits="userSpaceOnUse" x1="0" y1="0" x2="0" y2="1" gradientTransform="matrix(50.289063,0,0,64,6.855469,0)"><stop offset="0" style="stop-color:rgb(100%,63.137257%,63.137257%);stop-opacity:1;"/><stop offset="1" style="stop-color:rgb(100%,27.843139%,27.843139%);stop-opacity:1;"/></linearGradient><filter style="color-interpolation-filters:sRGB;" inkscape:label="Diffuse Light" id="filter184" x="-0.0375" y="-0.0375" width="1.075" height="1.075"><feGaussianBlur in="SourceGraphic" stdDeviation="1" result="blur" id="feGaussianBlur174" /><feDiffuseLighting diffuseConstant="1" surfaceScale="10" lighting-color="rgb(255,255,255)" result="diffuse" id="feDiffuseLighting178"><feDistantLight elevation="8" azimuth="235" id="feDistantLight176" /></feDiffuseLighting><feComposite in="diffuse" in2="diffuse" operator="arithmetic" k1="1" result="composite1" id="feComposite180" /><feComposite in="composite1" in2="SourceGraphic" k1="1" operator="arithmetic" k3="1" result="composite2" id="feComposite182" /></filter></defs><g id="surface1" style="filter:url(#filter184)"><path style=" stroke:none;fill-rule:evenodd;fill:url(#linear0);" d="M 21.226562 0 C 23.59375 1.886719 25.144531 4.761719 25.144531 8 C 25.144531 13.652344 20.507812 18.285156 14.855469 18.285156 C 11.617188 18.285156 8.746094 16.734375 6.855469 14.371094 L 6.855469 57.144531 C 6.855469 61.390625 10.609375 64 14.855469 64 C 19.109375 64 22.855469 61.394531 22.855469 57.144531 L 22.855469 41.144531 L 26.195312 41.144531 L 24.746094 39.074219 L 24.746094 39.070312 L 24.742188 39.066406 C 23.519531 37.335938 22.859375 35.269531 22.855469 33.148438 L 22.855469 33.144531 C 22.855469 27.492188 27.492188 22.855469 33.144531 22.855469 C 36.679688 22.859375 39.976562 24.683594 41.851562 27.675781 L 48.226562 36.78125 C 53.625 32.503906 57.140625 25.875 57.144531 20.570312 C 57.144531 9.210938 47.933594 0 36.570312 0 Z M 6.855469 8 C 6.855469 3.585938 10.441406 0 14.855469 0 C 19.273438 0 22.855469 3.585938 22.855469 8 C 22.855469 12.414062 19.273438 16 14.855469 16 C 10.441406 16 6.855469 12.414062 6.855469 8 Z M 33.144531 25.144531 C 28.722656 25.144531 25.144531 28.722656 25.144531 33.144531 C 25.144531 34.785156 25.65625 36.382812 26.597656 37.726562 L 42.597656 60.585938 C 44.09375 62.71875 46.535156 63.996094 49.144531 64 C 53.558594 64 57.144531 60.414062 57.144531 56 C 57.140625 54.359375 56.632812 52.757812 55.6875 51.414062 L 39.6875 28.554688 C 38.191406 26.421875 35.753906 25.148438 33.144531 25.144531 Z M 33.144531 25.144531 "/></g></svg>
