<svg width="64" height="64" viewBox="0 0 64 64" version="1.1" xmlns:inkscape="http://www.inkscape.org/namespaces/inkscape"><defs><linearGradient id="linear0" gradientUnits="userSpaceOnUse" x1="0" y1="0" x2="0" y2="1" gradientTransform="matrix(65.428787,0,0,64.141234,-0.868209,1.913652)"><stop offset="0" style="stop-color:rgb(0%,96.078432%,86.274511%);stop-opacity:1;"/><stop offset="1" style="stop-color:rgb(0%,54.901963%,49.411765%);stop-opacity:1;"/></linearGradient><filter style="color-interpolation-filters:sRGB;" inkscape:label="Diffuse Light" id="filter184" x="-0.0375" y="-0.0375" width="1.075" height="1.075"><feGaussianBlur in="SourceGraphic" stdDeviation="1" result="blur" id="feGaussianBlur174" /><feDiffuseLighting diffuseConstant="1" surfaceScale="10" lighting-color="rgb(255,255,255)" result="diffuse" id="feDiffuseLighting178"><feDistantLight elevation="8" azimuth="235" id="feDistantLight176" /></feDiffuseLighting><feComposite in="diffuse" in2="diffuse" operator="arithmetic" k1="1" result="composite1" id="feComposite180" /><feComposite in="composite1" in2="SourceGraphic" k1="1" operator="arithmetic" k3="1" result="composite2" id="feComposite182" /></filter></defs><g id="surface1" style="filter:url(#filter184)"><path style=" stroke:none;fill-rule:nonzero;fill:url(#linear0);" d="M 32.242188 17.199219 C 31.398438 17.214844 30.589844 17.464844 29.992188 17.914062 L 2.734375 38.332031 C 1.460938 39.285156 1.460938 40.832031 2.734375 41.78125 L 29.992188 62.214844 C 31.265625 63.171875 33.324219 63.171875 34.601562 62.214844 L 61.863281 41.78125 C 63.132812 40.832031 63.132812 39.285156 61.863281 38.332031 L 34.601562 17.914062 C 33.976562 17.449219 33.125 17.191406 32.242188 17.199219 Z M 32.296875 25.515625 L 51.722656 40.066406 L 32.296875 54.617188 L 12.871094 40.066406 Z M 32.296875 25.515625 "/><path style=" stroke:none;fill-rule:nonzero;fill:rgb(0%,96.078432%,86.274511%);fill-opacity:1;" d="M 32.242188 9.601562 C 31.398438 9.605469 30.589844 9.863281 29.992188 10.308594 L 2.734375 30.730469 C 1.460938 31.683594 1.460938 33.226562 2.734375 34.183594 L 29.992188 54.617188 C 31.265625 55.5625 33.324219 55.5625 34.601562 54.617188 L 61.863281 34.183594 C 63.132812 33.226562 63.132812 31.683594 61.863281 30.730469 L 34.601562 10.308594 C 33.976562 9.847656 33.125 9.585938 32.242188 9.601562 Z M 32.296875 17.914062 L 51.722656 32.460938 L 32.296875 47.011719 L 12.871094 32.460938 Z M 32.296875 17.914062 "/><path style=" stroke:none;fill-rule:nonzero;fill:rgb(0%,54.901963%,49.411765%);fill-opacity:1;" d="M 32.242188 2.15625 C 31.398438 2.171875 30.589844 2.421875 29.992188 2.875 L 2.734375 23.289062 C 1.460938 24.246094 1.460938 25.789062 2.734375 26.75 L 29.992188 47.171875 C 31.265625 48.125 33.324219 48.125 34.601562 47.171875 L 61.863281 26.75 C 63.132812 25.789062 63.132812 24.246094 61.863281 23.289062 L 34.601562 2.875 C 33.976562 2.402344 33.125 2.144531 32.242188 2.15625 Z M 32.296875 10.472656 L 51.722656 25.023438 L 32.296875 39.574219 L 12.871094 25.023438 Z M 32.296875 10.472656 "/></g></svg>
