<?xml version="1.0" encoding="UTF-8" standalone="no"?><svg width="64" height="64" viewBox="0 0 64 64" version="1.1" id="svg728" sodipodi:docname="rkward.svg" inkscape:version="1.2.2 (b0a8486541, 2022-12-01)" xmlns:inkscape="http://www.inkscape.org/namespaces/inkscape" xmlns:sodipodi="http://sodipodi.sourceforge.net/DTD/sodipodi-0.dtd" xmlns:xlink="http://www.w3.org/1999/xlink" xmlns="http://www.w3.org/2000/svg" xmlns:svg="http://www.w3.org/2000/svg"> <sodipodi:namedview id="namedview730" pagecolor="#ffffff" bordercolor="#000000" borderopacity="0.25" inkscape:showpageshadow="2" inkscape:pageopacity="0.0" inkscape:pagecheckerboard="0" inkscape:deskcolor="#d1d1d1" showgrid="false" inkscape:zoom="3.6875" inkscape:cx="32" inkscape:cy="32.135593" inkscape:window-width="1432" inkscape:window-height="844" inkscape:window-x="0" inkscape:window-y="0" inkscape:window-maximized="1" inkscape:current-layer="svg728" /> <defs id="defs721"> <filter id="alpha" filterUnits="objectBoundingBox" x="0" y="0" width="1" height="1"> <feColorMatrix type="matrix" in="SourceGraphic" values="0 0 0 0 1 0 0 0 0 1 0 0 0 0 1 0 0 0 1 0" id="feColorMatrix697" /> </filter> <mask id="mask0"> <g filter="url(#alpha)" id="g702"> <rect x="0" y="0" width="64" height="64" style="fill:rgb(0%,0%,0%);fill-opacity:0.6;stroke:none;" id="rect700" /> </g> </mask> <linearGradient id="linear0" gradientUnits="userSpaceOnUse" x1="0" y1="0" x2="0" y2="1" gradientTransform="matrix(57.617188,0,0,40.8125,0,7.222656)"> <stop offset="0" style="stop-color:#ff91d3;stop-opacity:1;" id="stop705" /> <stop offset="1" style="stop-color:#ff0099;stop-opacity:1;" id="stop707" /> </linearGradient> <clipPath id="clip1"> <rect x="0" y="0" width="64" height="64" id="rect710" /> </clipPath> <g id="surface5" clip-path="url(#clip1)"> <path style=" stroke:none;fill-rule:nonzero;fill:url(#linear0);" d="M 28.808594 7.222656 C 12.898438 7.222656 0 16.359375 0 27.628906 C 0 38.898438 12.898438 48.035156 28.808594 48.035156 C 44.71875 48.035156 57.617188 38.898438 57.617188 27.628906 C 57.617188 16.359375 44.71875 7.222656 28.808594 7.222656 Z M 33.609375 14.425781 C 45.542969 14.425781 55.21875 20.335938 55.21875 27.628906 C 55.21875 34.921875 45.542969 40.832031 33.609375 40.832031 C 21.675781 40.832031 12.003906 34.921875 12.003906 27.628906 C 12.003906 20.335938 21.675781 14.425781 33.609375 14.425781 Z M 33.609375 14.425781 " id="path713" /> </g> <linearGradient id="linear1" gradientUnits="userSpaceOnUse" x1="0" y1="0" x2="0" y2="1" gradientTransform="matrix(35.953125,0,0,33.917969,28.046875,22.859375)"> <stop offset="0" style="stop-color:#ff91d3;stop-opacity:1;" id="stop716" /> <stop offset="1" style="stop-color:#ff0099;stop-opacity:1;" id="stop718" /> </linearGradient> <filter style="color-interpolation-filters:sRGB;" inkscape:label="Diffuse Light" id="filter900" x="-0.0375" y="-0.048431341" width="1.075" height="1.0968627"> <feGaussianBlur in="SourceGraphic" stdDeviation="1" result="blur" id="feGaussianBlur890" /> <feDiffuseLighting diffuseConstant="1" surfaceScale="10" lighting-color="rgb(255,255,255)" result="diffuse" id="feDiffuseLighting894"> <feDistantLight elevation="8" azimuth="235" id="feDistantLight892" /> </feDiffuseLighting> <feComposite in="diffuse" in2="diffuse" operator="arithmetic" k1="1" result="composite1" id="feComposite896" /> <feComposite in="composite1" in2="SourceGraphic" k1="1" operator="arithmetic" k3="1" result="composite2" id="feComposite898" /> </filter> </defs> <g id="surface1" style="filter:url(#filter900)"> <use xlink:href="#surface5" mask="url(#mask0)" id="use723" /> <path style=" stroke:none;fill-rule:nonzero;fill:url(#linear1);" d="M 28.046875 22.859375 L 38.527344 22.859375 L 38.527344 35.675781 L 49.515625 22.859375 L 63.445312 22.859375 L 51.089844 35.65625 L 64 56.777344 L 51.089844 56.777344 L 43.941406 42.828125 L 38.527344 48.496094 L 38.527344 56.777344 L 28.046875 56.777344 Z M 28.046875 22.859375 " id="path725" /> </g></svg>
