<svg width="64" height="64" viewBox="0 0 64 64" version="1.1" xmlns:inkscape="http://www.inkscape.org/namespaces/inkscape"><defs><linearGradient id="linear0" gradientUnits="userSpaceOnUse" x1="0" y1="0" x2="0" y2="1" gradientTransform="matrix(56,0,0,35.898438,4,14.050781)"><stop offset="0" style="stop-color:rgb(0%,73.333335%,100%);stop-opacity:1;"/><stop offset="1" style="stop-color:rgb(0%,52.156866%,70.980394%);stop-opacity:1;"/></linearGradient><filter style="color-interpolation-filters:sRGB;" inkscape:label="Diffuse Light" id="filter184" x="-0.0375" y="-0.0375" width="1.075" height="1.075"><feGaussianBlur in="SourceGraphic" stdDeviation="1" result="blur" id="feGaussianBlur174" /><feDiffuseLighting diffuseConstant="1" surfaceScale="10" lighting-color="rgb(255,255,255)" result="diffuse" id="feDiffuseLighting178"><feDistantLight elevation="8" azimuth="235" id="feDistantLight176" /></feDiffuseLighting><feComposite in="diffuse" in2="diffuse" operator="arithmetic" k1="1" result="composite1" id="feComposite180" /><feComposite in="composite1" in2="SourceGraphic" k1="1" operator="arithmetic" k3="1" result="composite2" id="feComposite182" /></filter></defs><g id="surface1" style="filter:url(#filter184)"><path style=" stroke:none;fill-rule:nonzero;fill:url(#linear0);" d="M 1.980469 13.273438 L 1.980469 18.128906 L 50.429688 18.128906 C 52.21875 18.128906 53.660156 19.75 53.660156 21.765625 L 53.660156 24.195312 C 53.660156 26.210938 52.21875 27.832031 50.429688 27.832031 L 1.980469 27.832031 L 1.980469 32.6875 L 50.429688 32.6875 C 52.21875 32.6875 53.660156 34.308594 53.660156 36.324219 L 53.660156 38.753906 C 53.660156 40.769531 52.21875 42.390625 50.429688 42.390625 L 1.980469 42.390625 L 1.980469 47.246094 L 53.660156 47.246094 C 60.121094 47.246094 62.273438 43.992188 62.273438 39.964844 L 62.273438 35.113281 C 62.273438 31.472656 59.042969 30.261719 59.042969 30.261719 C 59.042969 30.261719 62.273438 29.042969 62.273438 25.40625 L 62.273438 20.554688 C 62.273438 16.527344 60.121094 13.273438 53.660156 13.273438 Z M 1.980469 13.273438 "/></g></svg>
