<svg width="64" height="64" viewBox="0 0 64 64" version="1.1" xmlns:inkscape="http://www.inkscape.org/namespaces/inkscape"><defs><linearGradient id="linear0" gradientUnits="userSpaceOnUse" x1="0" y1="0" x2="0" y2="1" gradientTransform="matrix(64,0,0,46.34375,0,8.828125)"><stop offset="0" style="stop-color:rgb(75.686276%,77.64706%,83.92157%);stop-opacity:1;"/><stop offset="1" style="stop-color:rgb(43.529412%,45.09804%,50.196081%);stop-opacity:1;"/></linearGradient><filter style="color-interpolation-filters:sRGB;" inkscape:label="Diffuse Light" id="filter184" x="-0.0375" y="-0.0375" width="1.075" height="1.075"><feGaussianBlur in="SourceGraphic" stdDeviation="1" result="blur" id="feGaussianBlur174" /><feDiffuseLighting diffuseConstant="1" surfaceScale="10" lighting-color="rgb(255,255,255)" result="diffuse" id="feDiffuseLighting178"><feDistantLight elevation="8" azimuth="235" id="feDistantLight176" /></feDiffuseLighting><feComposite in="diffuse" in2="diffuse" operator="arithmetic" k1="1" result="composite1" id="feComposite180" /><feComposite in="composite1" in2="SourceGraphic" k1="1" operator="arithmetic" k3="1" result="composite2" id="feComposite182" /></filter></defs><g id="surface1" style="filter:url(#filter184)"><path style=" stroke:none;fill-rule:evenodd;fill:url(#linear0);" d="M 8.617188 23.648438 L 8.617188 20.410156 L 0 20.410156 L 0 55.171875 L 8.617188 55.171875 L 8.617188 29.105469 L 21.539062 29.105469 L 21.539062 20.410156 C 16.992188 20.390625 12.488281 21.507812 8.617188 23.648438 Z M 34.464844 17.515625 L 34.464844 29.105469 L 42.660156 29.105469 C 46.117188 29.105469 48.824219 26.835938 48.824219 23.3125 C 48.824219 19.785156 46.117188 17.515625 42.660156 17.515625 Z M 40.078125 37.792969 L 53.171875 55.171875 L 64 55.171875 L 50.398438 37.125 C 56.148438 35.273438 60.316406 29.789062 60.316406 23.3125 C 60.316406 15.3125 53.960938 8.828125 46.125 8.828125 L 25.847656 8.828125 L 25.847656 55.171875 L 34.464844 55.171875 L 34.464844 37.792969 Z M 40.078125 37.792969 "/></g></svg>
