<svg width="64" height="64" viewBox="0 0 64 64" version="1.1" xmlns:inkscape="http://www.inkscape.org/namespaces/inkscape"><defs><linearGradient id="linear0" gradientUnits="userSpaceOnUse" x1="0" y1="0" x2="0" y2="1" gradientTransform="matrix(60.788461,0,0,39.930989,-0.5483,15.476435)"><stop offset="0" style="stop-color:rgb(92.941177%,83.529413%,72.549021%);stop-opacity:1;"/><stop offset="1" style="stop-color:rgb(81.960785%,71.372551%,59.215689%);stop-opacity:1;"/></linearGradient><linearGradient id="linear1" gradientUnits="userSpaceOnUse" x1="0" y1="0" x2="0" y2="1" gradientTransform="matrix(60.788461,0,0,39.930989,-0.5483,15.476435)"><stop offset="0" style="stop-color:rgb(92.941177%,83.529413%,72.549021%);stop-opacity:1;"/><stop offset="1" style="stop-color:rgb(81.960785%,71.372551%,59.215689%);stop-opacity:1;"/></linearGradient><filter style="color-interpolation-filters:sRGB;" inkscape:label="Diffuse Light" id="filter184" x="-0.0375" y="-0.0375" width="1.075" height="1.075"><feGaussianBlur in="SourceGraphic" stdDeviation="1" result="blur" id="feGaussianBlur174" /><feDiffuseLighting diffuseConstant="1" surfaceScale="10" lighting-color="rgb(255,255,255)" result="diffuse" id="feDiffuseLighting178"><feDistantLight elevation="8" azimuth="235" id="feDistantLight176" /></feDiffuseLighting><feComposite in="diffuse" in2="diffuse" operator="arithmetic" k1="1" result="composite1" id="feComposite180" /><feComposite in="composite1" in2="SourceGraphic" k1="1" operator="arithmetic" k3="1" result="composite2" id="feComposite182" /></filter></defs><g id="surface1" style="filter:url(#filter184)"><path style=" stroke:none;fill-rule:nonzero;fill:url(#linear0);" d="M 24.449219 1.359375 C 20.269531 1.359375 16.894531 4.886719 16.894531 9.257812 L 16.894531 32.953125 L 32.003906 32.953125 L 32.003906 17.15625 L 42.078125 17.15625 L 42.078125 32.953125 L 57.191406 32.953125 L 57.191406 9.257812 C 57.191406 4.886719 53.816406 1.359375 49.636719 1.359375 Z M 24.449219 1.359375 "/><path style=" stroke:none;fill-rule:nonzero;fill:url(#linear1);" d="M 13.5625 23.1875 C 9.902344 23.1875 6.949219 26.167969 6.949219 29.863281 L 6.949219 63.242188 L 20.175781 63.242188 L 20.175781 23.1875 Z M 13.5625 23.1875 "/></g></svg>
