<svg width="64" height="64" viewBox="0 0 64 64" version="1.1" xmlns:inkscape="http://www.inkscape.org/namespaces/inkscape"><defs><linearGradient id="linear0" gradientUnits="userSpaceOnUse" x1="0" y1="0" x2="0" y2="1" gradientTransform="matrix(60.570712,0,0,37.563481,-0.492282,11.855783)"><stop offset="0" style="stop-color:rgb(75.686276%,77.64706%,83.92157%);stop-opacity:1;"/><stop offset="1" style="stop-color:rgb(43.529412%,45.09804%,50.196081%);stop-opacity:1;"/></linearGradient><filter style="color-interpolation-filters:sRGB;" inkscape:label="Diffuse Light" id="filter184" x="-0.0375" y="-0.0375" width="1.075" height="1.075"><feGaussianBlur in="SourceGraphic" stdDeviation="1" result="blur" id="feGaussianBlur174" /><feDiffuseLighting diffuseConstant="1" surfaceScale="10" lighting-color="rgb(255,255,255)" result="diffuse" id="feDiffuseLighting178"><feDistantLight elevation="8" azimuth="235" id="feDistantLight176" /></feDiffuseLighting><feComposite in="diffuse" in2="diffuse" operator="arithmetic" k1="1" result="composite1" id="feComposite180" /><feComposite in="composite1" in2="SourceGraphic" k1="1" operator="arithmetic" k3="1" result="composite2" id="feComposite182" /></filter></defs><g id="surface1" style="filter:url(#filter184)"><path style=" stroke:none;fill-rule:nonzero;fill:url(#linear0);" d="M 32.105469 1.796875 C 17.21875 1.796875 5.171875 5.902344 5.171875 10.964844 C 5.195312 14.195312 10.191406 17.171875 18.320312 18.824219 C 20.652344 23.179688 22.308594 28.332031 22.308594 33.304688 C 22.308594 38.027344 19.425781 44.121094 19.425781 44.121094 C 19.425781 44.121094 5.171875 48.820312 5.171875 52.210938 C 5.171875 57.273438 17.21875 61.375 32.105469 61.375 C 46.988281 61.375 59.035156 57.273438 59.035156 52.210938 C 59.035156 48.84375 53.574219 45.722656 44.835938 44.140625 C 42.578125 40.640625 42.070312 36.929688 41.898438 33.304688 C 41.898438 28.472656 43.476562 23.453125 45.71875 19.167969 C 45.78125 19.042969 45.851562 18.921875 45.921875 18.800781 C 54.046875 17.152344 59.019531 14.171875 59.039062 10.964844 C 59.039062 5.902344 46.996094 1.796875 32.109375 1.796875 Z M 32.105469 1.796875 "/></g></svg>
