<svg width="64" height="64" viewBox="0 0 64 64" version="1.1" xmlns:inkscape="http://www.inkscape.org/namespaces/inkscape"><defs><linearGradient id="linear0" gradientUnits="userSpaceOnUse" x1="0" y1="0" x2="0" y2="1" gradientTransform="matrix(69.124112,0,0,42.361781,1.838061,13.600184)"><stop offset="0" style="stop-color:rgb(100%,73.333335%,0%);stop-opacity:1;"/><stop offset="1" style="stop-color:rgb(70.19608%,51.372552%,0%);stop-opacity:1;"/></linearGradient><linearGradient id="linear1" gradientUnits="userSpaceOnUse" x1="0" y1="0" x2="0" y2="1" gradientTransform="matrix(69.124112,0,0,42.361781,1.838061,13.600184)"><stop offset="0" style="stop-color:rgb(100%,73.333335%,0%);stop-opacity:1;"/><stop offset="1" style="stop-color:rgb(70.19608%,51.372552%,0%);stop-opacity:1;"/></linearGradient><filter style="color-interpolation-filters:sRGB;" inkscape:label="Diffuse Light" id="filter184" x="-0.0375" y="-0.0375" width="1.075" height="1.075"><feGaussianBlur in="SourceGraphic" stdDeviation="1" result="blur" id="feGaussianBlur174" /><feDiffuseLighting diffuseConstant="1" surfaceScale="10" lighting-color="rgb(255,255,255)" result="diffuse" id="feDiffuseLighting178"><feDistantLight elevation="8" azimuth="235" id="feDistantLight176" /></feDiffuseLighting><feComposite in="diffuse" in2="diffuse" operator="arithmetic" k1="1" result="composite1" id="feComposite180" /><feComposite in="composite1" in2="SourceGraphic" k1="1" operator="arithmetic" k3="1" result="composite2" id="feComposite182" /></filter></defs><g id="surface1" style="filter:url(#filter184)"><path style=" stroke:none;fill-rule:nonzero;fill:url(#linear0);" d="M 12.382812 2.316406 C 6.523438 2.316406 1.832031 6.4375 1.832031 11.578125 L 1.832031 43.976562 C 1.832031 49.113281 6.523438 53.234375 12.382812 53.234375 L 20.296875 53.234375 L 20.296875 2.316406 Z M 30.851562 23.148438 L 29.527344 27.773438 L 25.570312 27.773438 L 24.78125 30.089844 L 28.867188 30.089844 L 27.546875 34.714844 L 23.722656 34.714844 L 22.929688 37.03125 L 26.886719 37.03125 L 25.566406 41.664062 L 28.203125 41.664062 L 29.523438 37.03125 L 32.160156 37.03125 L 33.484375 35.875 L 32.824219 34.714844 L 30.183594 34.714844 L 31.5 30.089844 L 34.140625 30.089844 L 36.121094 28.929688 L 34.800781 27.773438 L 32.160156 27.773438 L 33.484375 23.148438 Z M 30.851562 23.148438 "/><path style=" stroke:none;fill-rule:nonzero;fill:url(#linear1);" d="M 44.511719 11.554688 L 44.511719 62.785156 L 51.640625 62.785156 C 56.921875 62.785156 61.15625 58.640625 61.15625 53.46875 L 61.15625 20.871094 C 61.15625 15.699219 56.921875 11.554688 51.640625 11.554688 Z M 37.378906 23.199219 L 36.1875 27.851562 L 33.8125 27.851562 L 33.21875 30.179688 L 35.59375 30.179688 L 34.410156 34.839844 L 32.03125 34.839844 L 31.433594 37.167969 L 33.8125 37.167969 L 32.625 41.824219 L 35 41.824219 L 36.1875 37.167969 L 39.757812 37.167969 L 40.46875 34.839844 L 36.785156 34.839844 L 37.976562 30.179688 L 41.425781 30.179688 L 42.136719 27.851562 L 38.574219 27.851562 L 39.761719 23.199219 Z M 37.378906 23.199219 "/></g></svg>
