<?xml version="1.0" encoding="UTF-8" standalone="no"?><svg width="64" height="64" viewBox="0 0 64 64" version="1.1" id="svg114" sodipodi:docname="sauerbraten.svg" inkscape:version="1.2.2 (b0a8486541, 2022-12-01)" xmlns:inkscape="http://www.inkscape.org/namespaces/inkscape" xmlns:sodipodi="http://sodipodi.sourceforge.net/DTD/sodipodi-0.dtd" xmlns:xlink="http://www.w3.org/1999/xlink" xmlns="http://www.w3.org/2000/svg" xmlns:svg="http://www.w3.org/2000/svg"> <sodipodi:namedview id="namedview116" pagecolor="#ffffff" bordercolor="#000000" borderopacity="0.25" inkscape:showpageshadow="2" inkscape:pageopacity="0.0" inkscape:pagecheckerboard="0" inkscape:deskcolor="#d1d1d1" showgrid="false" inkscape:zoom="3.6875" inkscape:cx="32" inkscape:cy="32.135593" inkscape:window-width="1432" inkscape:window-height="844" inkscape:window-x="0" inkscape:window-y="0" inkscape:window-maximized="1" inkscape:current-layer="svg114" /> <defs id="defs105"> <filter id="alpha" filterUnits="objectBoundingBox" x="0" y="0" width="1" height="1"> <feColorMatrix type="matrix" in="SourceGraphic" values="0 0 0 0 1 0 0 0 0 1 0 0 0 0 1 0 0 0 1 0" id="feColorMatrix65" /> </filter> <mask id="mask0"> <g filter="url(#alpha)" id="g70"> <rect x="0" y="0" width="64" height="64" style="fill:rgb(0%,0%,0%);fill-opacity:0.4;stroke:none;" id="rect68" /> </g> </mask> <linearGradient id="linear0" gradientUnits="userSpaceOnUse" x1="0" y1="0" x2="0" y2="1" gradientTransform="matrix(64,0,0,64,0,0)"> <stop offset="0" style="stop-color:#d29cff;stop-opacity:1;" id="stop73" /> <stop offset="1" style="stop-color:#aa00ff;stop-opacity:1;" id="stop75" /> </linearGradient> <clipPath id="clip1"> <rect x="0" y="0" width="64" height="64" id="rect78" /> </clipPath> <g id="surface5" clip-path="url(#clip1)"> <path style=" stroke:none;fill-rule:nonzero;fill:url(#linear0);" d="M 32.074219 0 C 31.480469 -0.0117188 30.890625 0.136719 30.375 0.425781 L 1.628906 9.503906 C 0.621094 10.070312 0 11.121094 0 12.257812 L 0 44.636719 C 0 45.769531 0.621094 46.820312 1.628906 47.382812 L 30.375 63.574219 C 31.378906 64.140625 32.621094 64.140625 33.628906 63.574219 L 62.371094 47.382812 C 63.378906 46.820312 64 45.769531 64 44.636719 L 64 12.257812 C 64 11.121094 63.378906 10.070312 62.371094 9.503906 L 33.628906 0.425781 C 33.15625 0.160156 32.621094 0.0117188 32.074219 0 Z M 32.074219 0 " id="path81" /> </g> <mask id="mask1"> <g filter="url(#alpha)" id="g86"> <rect x="0" y="0" width="64" height="64" style="fill:rgb(0%,0%,0%);fill-opacity:0.6;stroke:none;" id="rect84" /> </g> </mask> <linearGradient id="linear1" gradientUnits="userSpaceOnUse" x1="0" y1="0" x2="0" y2="1" gradientTransform="matrix(38.859375,0,0,38.859375,12.570312,12.683594)"> <stop offset="0" style="stop-color:#d29cff;stop-opacity:1;" id="stop89" /> <stop offset="1" style="stop-color:#aa00ff;stop-opacity:1;" id="stop91" /> </linearGradient> <clipPath id="clip2"> <rect x="0" y="0" width="64" height="64" id="rect94" /> </clipPath> <g id="surface8" clip-path="url(#clip2)"> <path style=" stroke:none;fill-rule:nonzero;fill:url(#linear1);" d="M 32 12.683594 L 51.429688 19.851562 L 51.429688 41.757812 L 32 51.542969 L 12.570312 41.757812 L 12.570312 19.851562 Z M 32 12.683594 " id="path97" /> </g> <linearGradient id="linear2" gradientUnits="userSpaceOnUse" x1="0" y1="0" x2="0" y2="1" gradientTransform="matrix(25.140625,0,0,21.71875,19.429687,22.855469)"> <stop offset="0" style="stop-color:#d29cff;stop-opacity:1;" id="stop100" /> <stop offset="1" style="stop-color:#aa00ff;stop-opacity:1;" id="stop102" /> </linearGradient> <filter style="color-interpolation-filters:sRGB;" inkscape:label="Diffuse Light" id="filter2516" x="-0.0375" y="-0.037490131" width="1.075" height="1.0749903"> <feGaussianBlur in="SourceGraphic" stdDeviation="1" result="blur" id="feGaussianBlur2506" /> <feDiffuseLighting diffuseConstant="1" surfaceScale="10" lighting-color="rgb(255,255,255)" result="diffuse" id="feDiffuseLighting2510"> <feDistantLight elevation="8" azimuth="235" id="feDistantLight2508" /> </feDiffuseLighting> <feComposite in="diffuse" in2="diffuse" operator="arithmetic" k1="1" result="composite1" id="feComposite2512" /> <feComposite in="composite1" in2="SourceGraphic" k1="1" operator="arithmetic" k3="1" result="composite2" id="feComposite2514" /> </filter> </defs> <g id="surface1" style="filter:url(#filter2516)"> <use xlink:href="#surface5" mask="url(#mask0)" id="use107" /> <use xlink:href="#surface8" mask="url(#mask1)" id="use109" /> <path style=" stroke:none;fill-rule:nonzero;fill:url(#linear2);" d="M 32.027344 22.855469 C 31.796875 22.851562 31.5625 22.898438 31.359375 22.988281 L 20.066406 27.933594 C 19.671875 28.105469 19.429688 28.425781 19.429688 28.773438 L 19.429688 38.660156 C 19.429688 39.003906 19.671875 39.324219 20.066406 39.5 L 31.359375 44.441406 C 31.757812 44.617188 32.242188 44.617188 32.640625 44.441406 L 43.933594 39.5 C 44.328125 39.324219 44.570312 39.003906 44.570312 38.660156 L 44.570312 28.773438 C 44.570312 28.425781 44.328125 28.105469 43.933594 27.933594 L 32.640625 22.988281 C 32.453125 22.902344 32.242188 22.859375 32.027344 22.855469 Z M 32.027344 22.855469 " id="path111" /> </g></svg>
