<svg width="64" height="64" viewBox="0 0 64 64" version="1.1" xmlns:inkscape="http://www.inkscape.org/namespaces/inkscape"><defs><linearGradient id="linear0" gradientUnits="userSpaceOnUse" x1="0" y1="0" x2="0" y2="1" gradientTransform="matrix(56,0,0,35.898438,4,14.050781)"><stop offset="0" style="stop-color:rgb(75.686276%,77.64706%,83.92157%);stop-opacity:1;"/><stop offset="1" style="stop-color:rgb(43.529412%,45.09804%,50.196081%);stop-opacity:1;"/></linearGradient><filter style="color-interpolation-filters:sRGB;" inkscape:label="Diffuse Light" id="filter184" x="-0.0375" y="-0.0375" width="1.075" height="1.075"><feGaussianBlur in="SourceGraphic" stdDeviation="1" result="blur" id="feGaussianBlur174" /><feDiffuseLighting diffuseConstant="1" surfaceScale="10" lighting-color="rgb(255,255,255)" result="diffuse" id="feDiffuseLighting178"><feDistantLight elevation="8" azimuth="235" id="feDistantLight176" /></feDiffuseLighting><feComposite in="diffuse" in2="diffuse" operator="arithmetic" k1="1" result="composite1" id="feComposite180" /><feComposite in="composite1" in2="SourceGraphic" k1="1" operator="arithmetic" k3="1" result="composite2" id="feComposite182" /></filter></defs><g id="surface1" style="filter:url(#filter184)"><path style=" stroke:none;fill-rule:nonzero;fill:url(#linear0);" d="M 1.359375 3.695312 L 1.359375 60.808594 L 9.050781 53.667969 L 9.050781 10.832031 L 55.195312 10.832031 L 62.886719 3.695312 Z M 55.195312 10.832031 L 47.503906 17.972656 L 47.503906 46.527344 L 16.742188 46.527344 L 9.050781 53.667969 L 55.195312 53.667969 Z M 16.742188 46.527344 L 24.433594 39.390625 L 24.433594 25.109375 L 39.8125 25.109375 L 47.503906 17.972656 L 16.742188 17.972656 Z M 39.8125 25.109375 L 34.6875 29.871094 L 34.6875 34.628906 L 29.558594 34.628906 L 24.433594 39.390625 L 39.8125 39.390625 Z M 29.558594 34.628906 L 34.6875 29.871094 L 29.558594 29.871094 Z M 29.558594 34.628906 "/></g></svg>
