<svg width="64" height="64" viewBox="0 0 64 64" version="1.1" xmlns:inkscape="http://www.inkscape.org/namespaces/inkscape"><defs><linearGradient id="linear0" gradientUnits="userSpaceOnUse" x1="0" y1="0" x2="0" y2="1" gradientTransform="matrix(62.340432,0,0,40.809457,0.426807,9.685093)"><stop offset="0" style="stop-color:rgb(100%,56.862748%,82.745099%);stop-opacity:1;"/><stop offset="1" style="stop-color:rgb(100%,0%,60.000002%);stop-opacity:1;"/></linearGradient><filter style="color-interpolation-filters:sRGB;" inkscape:label="Diffuse Light" id="filter184" x="-0.0375" y="-0.0375" width="1.075" height="1.075"><feGaussianBlur in="SourceGraphic" stdDeviation="1" result="blur" id="feGaussianBlur174" /><feDiffuseLighting diffuseConstant="1" surfaceScale="10" lighting-color="rgb(255,255,255)" result="diffuse" id="feDiffuseLighting178"><feDistantLight elevation="8" azimuth="235" id="feDistantLight176" /></feDiffuseLighting><feComposite in="diffuse" in2="diffuse" operator="arithmetic" k1="1" result="composite1" id="feComposite180" /><feComposite in="composite1" in2="SourceGraphic" k1="1" operator="arithmetic" k3="1" result="composite2" id="feComposite182" /></filter></defs><g id="surface1" style="filter:url(#filter184)"><path style=" stroke:none;fill-rule:nonzero;fill:url(#linear0);" d="M 32.023438 1.269531 L 1.453125 31.707031 L 5.820312 36.054688 L 13.464844 28.445312 L 35.296875 50.1875 L 27.652344 57.796875 L 32.023438 62.140625 L 62.589844 31.707031 L 58.222656 27.359375 L 50.578125 34.964844 L 28.746094 13.222656 L 36.390625 5.617188 Z M 32.023438 3.441406 L 34.207031 5.617188 L 32.023438 7.789062 L 29.835938 5.617188 Z M 27.652344 7.789062 L 29.835938 9.964844 L 27.652344 12.140625 L 25.46875 9.964844 Z M 23.285156 12.140625 L 25.46875 14.3125 L 23.285156 16.488281 L 21.105469 14.3125 Z M 26.5625 15.398438 L 48.394531 37.140625 L 37.480469 48.011719 L 15.648438 26.269531 Z M 18.921875 16.488281 L 21.105469 18.660156 L 18.921875 20.835938 L 16.738281 18.660156 Z M 14.554688 20.835938 L 16.738281 23.011719 L 14.554688 25.183594 L 12.371094 23.011719 Z M 10.1875 25.183594 L 12.371094 27.359375 L 10.1875 29.53125 L 8 27.359375 Z M 5.820312 29.53125 L 8 31.707031 L 5.820312 33.882812 L 3.636719 31.707031 Z M 58.222656 29.53125 L 60.40625 31.707031 L 58.222656 33.882812 L 56.039062 31.707031 Z M 53.855469 33.882812 L 56.039062 36.054688 L 53.855469 38.230469 L 51.667969 36.054688 Z M 49.488281 38.230469 L 51.667969 40.402344 L 49.488281 42.578125 L 47.304688 40.402344 Z M 45.121094 42.578125 L 47.304688 44.753906 L 45.121094 46.925781 L 42.9375 44.753906 Z M 40.753906 46.925781 L 42.9375 49.101562 L 40.753906 51.273438 L 38.570312 49.101562 Z M 36.390625 51.273438 L 38.570312 53.449219 L 36.390625 55.625 L 34.207031 53.449219 Z M 32.023438 55.625 L 34.207031 57.796875 L 32.023438 59.972656 L 29.835938 57.796875 Z M 32.023438 55.625 "/></g></svg>
