<svg width="64" height="64" viewBox="0 0 64 64" version="1.1" xmlns:inkscape="http://www.inkscape.org/namespaces/inkscape"><defs><linearGradient id="linear0" gradientUnits="userSpaceOnUse" x1="0" y1="0" x2="0" y2="1" gradientTransform="matrix(63.507812,0,0,64,0.246094,0)"><stop offset="0" style="stop-color:rgb(0%,78.823531%,36.862746%);stop-opacity:1;"/><stop offset="1" style="stop-color:rgb(0%,54.11765%,25.098041%);stop-opacity:1;"/></linearGradient><filter style="color-interpolation-filters:sRGB;" inkscape:label="Diffuse Light" id="filter184" x="-0.0375" y="-0.0375" width="1.075" height="1.075"><feGaussianBlur in="SourceGraphic" stdDeviation="1" result="blur" id="feGaussianBlur174" /><feDiffuseLighting diffuseConstant="1" surfaceScale="10" lighting-color="rgb(255,255,255)" result="diffuse" id="feDiffuseLighting178"><feDistantLight elevation="8" azimuth="235" id="feDistantLight176" /></feDiffuseLighting><feComposite in="diffuse" in2="diffuse" operator="arithmetic" k1="1" result="composite1" id="feComposite180" /><feComposite in="composite1" in2="SourceGraphic" k1="1" operator="arithmetic" k3="1" result="composite2" id="feComposite182" /></filter></defs><g id="surface1" style="filter:url(#filter184)"><path style=" stroke:none;fill-rule:nonzero;fill:url(#linear0);" d="M 63.703125 2.625 L 63.703125 10.492188 C 63.703125 11.941406 62.53125 13.117188 61.085938 13.117188 L 14.9375 13.117188 C 14.0625 13.117188 13.359375 13.820312 13.359375 14.6875 L 13.359375 24.65625 C 13.359375 25.523438 14.0625 26.226562 14.9375 26.226562 L 61.070312 26.226562 C 62.519531 26.226562 63.695312 27.402344 63.699219 28.851562 L 63.753906 61.375 C 63.757812 62.824219 62.585938 64 61.136719 64 L 2.867188 64 C 1.421875 64 0.246094 62.824219 0.246094 61.375 L 0.246094 53.507812 C 0.246094 52.058594 1.421875 50.882812 2.867188 50.882812 L 49.046875 50.882812 C 49.914062 50.882812 50.621094 50.179688 50.621094 49.3125 L 50.605469 40.921875 C 50.605469 40.046875 49.894531 39.34375 49.027344 39.34375 L 2.867188 39.34375 C 1.421875 39.34375 0.246094 38.167969 0.246094 36.71875 L 0.246094 2.625 C 0.246094 1.175781 1.421875 0 2.867188 0 L 61.085938 0 C 62.53125 0 63.703125 1.175781 63.703125 2.625 Z M 63.703125 2.625 "/></g></svg>
