<svg width="64" height="64" viewBox="0 0 64 64" version="1.1" xmlns:inkscape="http://www.inkscape.org/namespaces/inkscape"><defs><linearGradient id="linear0" gradientUnits="userSpaceOnUse" x1="0" y1="0" x2="0" y2="1" gradientTransform="matrix(56,0,0,35.898438,4,14.050781)"><stop offset="0" style="stop-color:rgb(0%,78.823531%,36.862746%);stop-opacity:1;"/><stop offset="1" style="stop-color:rgb(0%,54.11765%,25.098041%);stop-opacity:1;"/></linearGradient><filter style="color-interpolation-filters:sRGB;" inkscape:label="Diffuse Light" id="filter184" x="-0.0375" y="-0.0375" width="1.075" height="1.075"><feGaussianBlur in="SourceGraphic" stdDeviation="1" result="blur" id="feGaussianBlur174" /><feDiffuseLighting diffuseConstant="1" surfaceScale="10" lighting-color="rgb(255,255,255)" result="diffuse" id="feDiffuseLighting178"><feDistantLight elevation="8" azimuth="235" id="feDistantLight176" /></feDiffuseLighting><feComposite in="diffuse" in2="diffuse" operator="arithmetic" k1="1" result="composite1" id="feComposite180" /><feComposite in="composite1" in2="SourceGraphic" k1="1" operator="arithmetic" k3="1" result="composite2" id="feComposite182" /></filter></defs><g id="surface1" style="filter:url(#filter184)"><path style=" stroke:none;fill-rule:nonzero;fill:url(#linear0);" d="M 9.933594 54.417969 L 15.261719 49.683594 L 44.578125 49.683594 L 47.246094 47.320312 L 47.246094 40.222656 L 44.578125 37.859375 L 15.261719 37.859375 L 7.269531 30.761719 L 7.269531 7.109375 L 12.597656 2.378906 L 52.574219 2.378906 L 57.90625 7.109375 L 57.90625 9.472656 L 52.574219 14.203125 L 23.257812 14.203125 L 20.59375 16.570312 L 20.59375 23.664062 L 23.257812 26.03125 L 52.574219 26.03125 L 60.570312 33.128906 L 60.570312 56.78125 L 55.238281 61.511719 L 15.261719 61.511719 L 9.933594 56.78125 Z M 9.933594 54.417969 "/></g></svg>
