<svg width="64" height="64" viewBox="0 0 64 64" version="1.1" xmlns:inkscape="http://www.inkscape.org/namespaces/inkscape"><defs><linearGradient id="linear0" gradientUnits="userSpaceOnUse" x1="0" y1="0" x2="0" y2="1" gradientTransform="matrix(64,0,0,64,0,0)"><stop offset="0" style="stop-color:rgb(100%,63.137257%,63.137257%);stop-opacity:1;"/><stop offset="1" style="stop-color:rgb(100%,27.843139%,27.843139%);stop-opacity:1;"/></linearGradient><filter style="color-interpolation-filters:sRGB;" inkscape:label="Diffuse Light" id="filter184" x="-0.0375" y="-0.0375" width="1.075" height="1.075"><feGaussianBlur in="SourceGraphic" stdDeviation="1" result="blur" id="feGaussianBlur174" /><feDiffuseLighting diffuseConstant="1" surfaceScale="10" lighting-color="rgb(255,255,255)" result="diffuse" id="feDiffuseLighting178"><feDistantLight elevation="8" azimuth="235" id="feDistantLight176" /></feDiffuseLighting><feComposite in="diffuse" in2="diffuse" operator="arithmetic" k1="1" result="composite1" id="feComposite180" /><feComposite in="composite1" in2="SourceGraphic" k1="1" operator="arithmetic" k3="1" result="composite2" id="feComposite182" /></filter></defs><g id="surface1" style="filter:url(#filter184)"><path style=" stroke:none;fill-rule:nonzero;fill:url(#linear0);" d="M 0 0 L 0 5.332031 L 5.332031 5.332031 L 5.332031 0 Z M 10.667969 0 L 10.667969 5.332031 L 16 5.332031 L 16 0 Z M 21.332031 0 L 21.332031 5.332031 L 26.667969 5.332031 L 26.667969 0 Z M 32 0 L 32 5.332031 L 37.332031 5.332031 L 37.332031 0 Z M 42.667969 0 L 42.667969 5.332031 L 48 5.332031 L 48 0 Z M 53.332031 0 L 53.332031 5.332031 L 58.667969 5.332031 L 58.667969 0 Z M 0 10.667969 L 0 16 L 5.332031 16 L 5.332031 10.667969 Z M 53.332031 10.667969 L 53.332031 16 L 58.667969 16 L 58.667969 10.667969 Z M 0 21.332031 L 0 26.667969 L 5.332031 26.667969 L 5.332031 21.332031 Z M 53.332031 21.332031 L 53.332031 26.667969 L 58.667969 26.667969 L 58.667969 21.332031 Z M 28 24 L 27.164062 25.085938 L 24 29.332031 L 10.667969 29.332031 L 10.667969 64 L 64 64 L 64 29.332031 L 50.667969 29.332031 L 47.5 25.085938 L 46.667969 24 Z M 30.667969 29.332031 L 44 29.332031 L 47.167969 33.585938 L 48 34.667969 L 58.667969 34.667969 L 58.667969 58.667969 L 16 58.667969 L 16 34.667969 L 26.667969 34.667969 L 27.5 33.585938 Z M 0 32 L 0 37.332031 L 5.332031 37.332031 L 5.332031 32 Z M 37.332031 34.667969 C 31.46875 34.667969 26.667969 39.46875 26.667969 45.332031 C 26.667969 51.199219 31.46875 56 37.332031 56 C 43.199219 56 48 51.199219 48 45.332031 C 48 39.46875 43.199219 34.667969 37.332031 34.667969 Z M 37.332031 40 C 40.3125 40 42.667969 42.355469 42.667969 45.332031 C 42.667969 48.3125 40.3125 50.667969 37.332031 50.667969 C 34.355469 50.667969 32 48.3125 32 45.332031 C 32 42.355469 34.355469 40 37.332031 40 Z M 0 42.667969 L 0 48 L 5.332031 48 L 5.332031 42.667969 Z M 0 42.667969 "/></g></svg>
