<svg width="64" height="64" viewBox="0 0 64 64" version="1.1" xmlns:inkscape="http://www.inkscape.org/namespaces/inkscape"><defs><linearGradient id="linear0" gradientUnits="userSpaceOnUse" x1="0" y1="0" x2="0" y2="1" gradientTransform="matrix(62.70265,0,0,45.567915,-1.32767,7.640699)"><stop offset="0" style="stop-color:rgb(75.686276%,77.64706%,83.92157%);stop-opacity:1;"/><stop offset="1" style="stop-color:rgb(43.529412%,45.09804%,50.196081%);stop-opacity:1;"/></linearGradient><filter style="color-interpolation-filters:sRGB;" inkscape:label="Diffuse Light" id="filter184" x="-0.0375" y="-0.0375" width="1.075" height="1.075"><feGaussianBlur in="SourceGraphic" stdDeviation="1" result="blur" id="feGaussianBlur174" /><feDiffuseLighting diffuseConstant="1" surfaceScale="10" lighting-color="rgb(255,255,255)" result="diffuse" id="feDiffuseLighting178"><feDistantLight elevation="8" azimuth="235" id="feDistantLight176" /></feDiffuseLighting><feComposite in="diffuse" in2="diffuse" operator="arithmetic" k1="1" result="composite1" id="feComposite180" /><feComposite in="composite1" in2="SourceGraphic" k1="1" operator="arithmetic" k3="1" result="composite2" id="feComposite182" /></filter></defs><g id="surface1" style="filter:url(#filter184)"><path style=" stroke:none;fill-rule:nonzero;fill:url(#linear0);" d="M 11.457031 1.347656 C 8.648438 1.347656 6.371094 3.628906 6.371094 6.4375 C 6.371094 9.246094 8.648438 11.527344 11.457031 11.527344 C 14.265625 11.527344 16.542969 9.246094 16.542969 6.4375 C 16.542969 3.628906 14.265625 1.347656 11.457031 1.347656 Z M 52.144531 1.347656 C 49.339844 1.347656 47.058594 3.628906 47.058594 6.4375 C 47.058594 9.246094 49.339844 11.527344 52.144531 11.527344 C 54.953125 11.527344 57.234375 9.246094 57.234375 6.4375 C 57.234375 3.628906 54.953125 1.347656 52.144531 1.347656 Z M 31.804688 11.527344 L 16.542969 21.703125 L 31.804688 62.402344 L 47.058594 21.703125 Z M 31.804688 11.527344 "/></g></svg>
