<svg width="64" height="64" viewBox="0 0 64 64" version="1.1" xmlns:inkscape="http://www.inkscape.org/namespaces/inkscape"><defs><linearGradient id="linear0" gradientUnits="userSpaceOnUse" x1="0" y1="0" x2="0" y2="1" gradientTransform="matrix(64.581753,0,0,64.667562,0.0680692,2.156269)"><stop offset="0" style="stop-color:rgb(0%,96.078432%,86.274511%);stop-opacity:1;"/><stop offset="1" style="stop-color:rgb(0%,54.901963%,49.411765%);stop-opacity:1;"/></linearGradient><linearGradient id="linear1" gradientUnits="userSpaceOnUse" x1="0" y1="0" x2="0" y2="1" gradientTransform="matrix(64.581753,0,0,64.667562,0.0680692,2.156269)"><stop offset="0" style="stop-color:rgb(0%,96.078432%,86.274511%);stop-opacity:1;"/><stop offset="1" style="stop-color:rgb(0%,54.901963%,49.411765%);stop-opacity:1;"/></linearGradient><filter style="color-interpolation-filters:sRGB;" inkscape:label="Diffuse Light" id="filter184" x="-0.0375" y="-0.0375" width="1.075" height="1.075"><feGaussianBlur in="SourceGraphic" stdDeviation="1" result="blur" id="feGaussianBlur174" /><feDiffuseLighting diffuseConstant="1" surfaceScale="10" lighting-color="rgb(255,255,255)" result="diffuse" id="feDiffuseLighting178"><feDistantLight elevation="8" azimuth="235" id="feDistantLight176" /></feDiffuseLighting><feComposite in="diffuse" in2="diffuse" operator="arithmetic" k1="1" result="composite1" id="feComposite180" /><feComposite in="composite1" in2="SourceGraphic" k1="1" operator="arithmetic" k3="1" result="composite2" id="feComposite182" /></filter></defs><g id="surface1" style="filter:url(#filter184)"><path style=" stroke:none;fill-rule:nonzero;fill:url(#linear0);" d="M 2.234375 51.636719 L 16.886719 39.457031 C 18.964844 42.636719 21.691406 45.355469 24.871094 47.425781 L 12.660156 62.035156 C 11.300781 63.660156 8.960938 63.769531 7.460938 62.269531 L 1.992188 56.824219 C 0.492188 55.324219 0.605469 52.988281 2.234375 51.636719 "/><path style=" stroke:none;fill-rule:nonzero;fill:url(#linear1);" d="M 16.382812 24.824219 C 16.382812 12.0625 26.757812 1.71875 39.558594 1.71875 C 52.351562 1.71875 62.730469 12.0625 62.730469 24.824219 C 62.730469 37.585938 52.355469 47.929688 39.558594 47.929688 C 26.757812 47.929688 16.382812 37.585938 16.382812 24.824219 M 39.558594 42.148438 C 49.136719 42.148438 56.9375 34.378906 56.9375 24.824219 C 56.9375 15.269531 49.136719 7.488281 39.558594 7.488281 C 29.976562 7.488281 22.171875 15.269531 22.171875 24.824219 C 22.171875 34.378906 29.976562 42.148438 39.558594 42.148438 "/></g></svg>
