<svg xmlns="http://www.w3.org/2000/svg" xmlns:xlink="http://www.w3.org/1999/xlink" width="64" height="64" viewBox="0 0 64 64" version="1.1"><g id="surface1"><path style=" stroke:none;fill-rule:nonzero;fill:rgb(65.098041%,40.784314%,15.686275%);fill-opacity:1;" d="M 57.515625 55.8125 L 57.515625 58.472656 C 57.515625 59.949219 56.476562 61.144531 55.191406 61.144531 L 8.855469 61.144531 C 7.574219 61.144531 6.535156 59.949219 6.535156 58.472656 L 6.535156 55.8125 Z M 57.515625 55.8125 "/><path style=" stroke:none;fill-rule:nonzero;fill:rgb(84.313726%,61.176473%,34.901962%);fill-opacity:1;" d="M 57.515625 34.496094 L 57.515625 55.8125 C 57.515625 57.289062 56.476562 58.472656 55.191406 58.472656 L 8.855469 58.472656 C 7.574219 58.472656 6.535156 57.289062 6.535156 55.8125 L 6.535156 34.496094 L 32.023438 32.222656 Z M 57.515625 34.496094 "/><path style=" stroke:none;fill-rule:nonzero;fill:rgb(72.941178%,72.941178%,72.941178%);fill-opacity:1;" d="M 1.902344 2.523438 L 1.902344 19.84375 C 1.902344 20.585938 2.421875 21.179688 3.058594 21.179688 L 60.988281 21.179688 C 61.628906 21.179688 62.144531 20.585938 62.144531 19.84375 L 62.144531 14.511719 C 62.144531 13.777344 61.628906 13.1875 60.988281 13.1875 L 4.21875 13.1875 L 4.21875 7.855469 L 8.855469 7.855469 L 8.855469 2.523438 Z M 1.902344 2.523438 "/><path style=" stroke:none;fill-rule:nonzero;fill:rgb(18.82353%,24.705882%,27.843139%);fill-opacity:1;" d="M 6.535156 10.515625 L 57.515625 10.515625 C 58.796875 10.515625 59.828125 11.710938 59.828125 13.1875 L 59.828125 21.179688 C 59.828125 22.652344 58.796875 23.839844 57.515625 23.839844 L 50.5625 23.839844 L 32.023438 34.496094 L 13.484375 23.839844 L 6.535156 23.839844 C 5.25 23.839844 4.21875 22.652344 4.21875 21.179688 L 4.21875 13.1875 C 4.21875 11.710938 5.25 10.515625 6.535156 10.515625 Z M 6.535156 10.515625 "/><path style=" stroke:none;fill-rule:nonzero;fill:rgb(96.078432%,92.156863%,89.019608%);fill-opacity:1;" d="M 11.171875 2.523438 L 11.171875 23.839844 L 25.074219 21.179688 L 27.386719 21.179688 C 27.386719 22.652344 28.425781 23.839844 29.710938 23.839844 L 34.339844 23.839844 C 35.621094 23.839844 36.660156 22.652344 36.660156 21.179688 L 38.976562 21.179688 L 52.878906 23.839844 L 52.878906 2.523438 Z M 11.171875 2.523438 "/><path style=" stroke:none;fill-rule:nonzero;fill:rgb(96.078432%,74.901962%,41.960785%);fill-opacity:1;" d="M 8.855469 21.179688 C 7.574219 21.179688 6.535156 22.363281 6.535156 23.839844 L 6.535156 34.496094 L 57.515625 34.496094 L 57.515625 23.839844 C 57.515625 22.363281 56.476562 21.179688 55.191406 21.179688 L 38.976562 21.179688 L 43.613281 26.503906 L 20.4375 26.503906 L 25.074219 21.179688 Z M 8.855469 21.179688 "/><path style=" stroke:none;fill-rule:nonzero;fill:rgb(18.82353%,24.705882%,29.019609%);fill-opacity:1;" d="M 8.855469 37.164062 L 55.191406 37.164062 L 55.191406 55.8125 L 8.855469 55.8125 Z M 8.855469 37.164062 "/><path style=" stroke:none;fill-rule:nonzero;fill:rgb(97.254902%,97.254902%,97.254902%);fill-opacity:1;" d="M 12.332031 39.828125 C 11.6875 39.828125 11.171875 40.417969 11.171875 41.160156 C 11.171875 41.894531 11.6875 42.488281 12.332031 42.488281 C 12.96875 42.488281 13.484375 41.894531 13.484375 41.160156 C 13.484375 40.417969 12.96875 39.828125 12.332031 39.828125 Z M 16.960938 39.828125 C 16.324219 39.828125 15.808594 40.417969 15.808594 41.160156 C 15.808594 41.894531 16.324219 42.488281 16.960938 42.488281 C 17.605469 42.488281 18.121094 41.894531 18.121094 41.160156 C 18.121094 40.417969 17.605469 39.828125 16.960938 39.828125 Z M 21.597656 39.828125 C 20.960938 39.828125 20.4375 40.417969 20.4375 41.160156 C 20.4375 41.894531 20.960938 42.488281 21.597656 42.488281 C 22.234375 42.488281 22.757812 41.894531 22.757812 41.160156 C 22.757812 40.417969 22.234375 39.828125 21.597656 39.828125 Z M 26.234375 39.828125 C 25.589844 39.828125 25.074219 40.417969 25.074219 41.160156 C 25.074219 41.894531 25.589844 42.488281 26.234375 42.488281 C 26.871094 42.488281 27.386719 41.894531 27.386719 41.160156 C 27.386719 40.417969 26.871094 39.828125 26.234375 39.828125 Z M 30.863281 39.828125 C 30.226562 39.828125 29.710938 40.417969 29.710938 41.160156 C 29.710938 41.894531 30.226562 42.488281 30.863281 42.488281 C 31.507812 42.488281 32.023438 41.894531 32.023438 41.160156 C 32.023438 40.417969 31.507812 39.828125 30.863281 39.828125 Z M 35.5 39.828125 C 34.863281 39.828125 34.339844 40.417969 34.339844 41.160156 C 34.339844 41.894531 34.863281 42.488281 35.5 42.488281 C 36.136719 42.488281 36.660156 41.894531 36.660156 41.160156 C 36.660156 40.417969 36.136719 39.828125 35.5 39.828125 Z M 40.136719 39.828125 C 39.492188 39.828125 38.976562 40.417969 38.976562 41.160156 C 38.976562 41.894531 39.492188 42.488281 40.136719 42.488281 C 40.773438 42.488281 41.289062 41.894531 41.289062 41.160156 C 41.289062 40.417969 40.773438 39.828125 40.136719 39.828125 Z M 44.765625 39.828125 C 44.128906 39.828125 43.613281 40.417969 43.613281 41.160156 C 43.613281 41.894531 44.128906 42.488281 44.765625 42.488281 C 45.410156 42.488281 45.925781 41.894531 45.925781 41.160156 C 45.925781 40.417969 45.410156 39.828125 44.765625 39.828125 Z M 49.402344 39.828125 C 48.757812 39.828125 48.242188 40.417969 48.242188 41.160156 C 48.242188 41.894531 48.757812 42.488281 49.402344 42.488281 L 51.71875 42.488281 C 52.363281 42.488281 52.878906 41.894531 52.878906 41.160156 C 52.878906 40.417969 52.363281 39.828125 51.71875 39.828125 Z M 14.644531 45.15625 C 14.007812 45.15625 13.484375 45.75 13.484375 46.484375 C 13.484375 47.226562 14.007812 47.820312 14.644531 47.820312 C 15.285156 47.820312 15.808594 47.226562 15.808594 46.484375 C 15.808594 45.75 15.285156 45.15625 14.644531 45.15625 Z M 19.28125 45.15625 C 18.636719 45.15625 18.121094 45.75 18.121094 46.484375 C 18.121094 47.226562 18.636719 47.820312 19.28125 47.820312 C 19.921875 47.820312 20.4375 47.226562 20.4375 46.484375 C 20.4375 45.75 19.921875 45.15625 19.28125 45.15625 Z M 23.910156 45.15625 C 23.273438 45.15625 22.757812 45.75 22.757812 46.484375 C 22.757812 47.226562 23.273438 47.820312 23.910156 47.820312 C 24.558594 47.820312 25.074219 47.226562 25.074219 46.484375 C 25.074219 45.75 24.558594 45.15625 23.910156 45.15625 Z M 28.546875 45.15625 C 27.910156 45.15625 27.386719 45.75 27.386719 46.484375 C 27.386719 47.226562 27.910156 47.820312 28.546875 47.820312 C 29.1875 47.820312 29.710938 47.226562 29.710938 46.484375 C 29.710938 45.75 29.1875 45.15625 28.546875 45.15625 Z M 33.183594 45.15625 C 32.539062 45.15625 32.023438 45.75 32.023438 46.484375 C 32.023438 47.226562 32.539062 47.820312 33.183594 47.820312 C 33.824219 47.820312 34.339844 47.226562 34.339844 46.484375 C 34.339844 45.75 33.824219 45.15625 33.183594 45.15625 Z M 37.8125 45.15625 C 37.175781 45.15625 36.660156 45.75 36.660156 46.484375 C 36.660156 47.226562 37.175781 47.820312 37.8125 47.820312 C 38.460938 47.820312 38.976562 47.226562 38.976562 46.484375 C 38.976562 45.75 38.460938 45.15625 37.8125 45.15625 Z M 42.449219 45.15625 C 41.8125 45.15625 41.289062 45.75 41.289062 46.484375 C 41.289062 47.226562 41.8125 47.820312 42.449219 47.820312 C 43.089844 47.820312 43.613281 47.226562 43.613281 46.484375 C 43.613281 45.75 43.089844 45.15625 42.449219 45.15625 Z M 47.085938 45.15625 C 46.441406 45.15625 45.925781 45.75 45.925781 46.484375 C 45.925781 47.226562 46.441406 47.820312 47.085938 47.820312 L 49.402344 47.820312 C 50.046875 47.820312 50.5625 47.226562 50.5625 46.484375 C 50.5625 45.75 50.046875 45.15625 49.402344 45.15625 Z M 19.28125 50.480469 C 18.636719 50.480469 18.121094 51.082031 18.121094 51.816406 C 18.121094 52.550781 18.636719 53.152344 19.28125 53.152344 C 19.921875 53.152344 20.4375 52.550781 20.4375 51.816406 C 20.4375 51.082031 19.921875 50.480469 19.28125 50.480469 Z M 23.910156 50.480469 C 23.273438 50.480469 22.757812 51.074219 22.757812 51.816406 C 22.757812 52.558594 23.273438 53.152344 23.910156 53.152344 L 40.136719 53.152344 C 40.773438 53.152344 41.289062 52.558594 41.289062 51.816406 C 41.289062 51.074219 40.773438 50.480469 40.136719 50.480469 Z M 44.765625 50.480469 C 44.128906 50.480469 43.613281 51.082031 43.613281 51.816406 C 43.613281 52.550781 44.128906 53.152344 44.765625 53.152344 C 45.410156 53.152344 45.925781 52.550781 45.925781 51.816406 C 45.925781 51.082031 45.410156 50.480469 44.765625 50.480469 Z M 44.765625 50.480469 "/><path style=" stroke:none;fill-rule:nonzero;fill:rgb(47.058824%,47.058824%,47.058824%);fill-opacity:1;" d="M 23.789062 22.652344 L 20.4375 26.503906 C 20.4375 26.503906 25.074219 31.832031 32.023438 31.832031 C 38.976562 31.832031 43.613281 26.503906 43.613281 26.503906 L 40.257812 22.652344 C 38.242188 24.605469 35.8125 26.503906 32.023438 26.503906 C 28.234375 26.503906 25.804688 24.605469 23.789062 22.652344 Z M 23.789062 22.652344 "/><path style=" stroke:none;fill-rule:nonzero;fill:rgb(72.941178%,72.941178%,72.941178%);fill-opacity:1;" d="M 3.058594 15.847656 L 60.988281 15.847656 L 60.988281 18.507812 L 3.058594 18.507812 Z M 3.058594 15.847656 "/><path style=" stroke:none;fill-rule:nonzero;fill:rgb(18.82353%,24.705882%,27.843139%);fill-opacity:1;" d="M 13.484375 13.1875 L 13.484375 18.507812 L 15.808594 18.507812 L 15.808594 13.1875 Z M 48.242188 13.1875 L 48.242188 18.507812 L 50.5625 18.507812 L 50.5625 13.1875 Z M 48.242188 13.1875 "/><path style=" stroke:none;fill-rule:nonzero;fill:rgb(52.156866%,56.862748%,65.098041%);fill-opacity:1;" d="M 13.484375 5.191406 L 13.484375 7.855469 L 25.074219 7.855469 L 25.074219 5.191406 Z M 27.386719 5.191406 L 27.386719 7.855469 L 34.339844 7.855469 L 34.339844 5.191406 Z M 38.976562 5.191406 L 38.976562 7.855469 L 43.613281 7.855469 L 43.613281 5.191406 Z M 45.925781 5.191406 L 45.925781 7.855469 L 50.5625 7.855469 L 50.5625 5.191406 Z M 18.121094 10.515625 L 18.121094 13.1875 L 41.289062 13.1875 L 41.289062 10.515625 Z M 43.613281 10.515625 L 43.613281 13.1875 L 45.925781 13.1875 L 45.925781 10.515625 Z M 43.613281 10.515625 "/></g></svg>
