<svg width="64" height="64" viewBox="0 0 64 64" version="1.1" xmlns:inkscape="http://www.inkscape.org/namespaces/inkscape"><defs><linearGradient id="linear0" gradientUnits="userSpaceOnUse" x1="0" y1="0" x2="0" y2="1" gradientTransform="matrix(56,0,0,35.898438,4,14.050781)"><stop offset="0" style="stop-color:rgb(92.941177%,83.529413%,72.549021%);stop-opacity:1;"/><stop offset="1" style="stop-color:rgb(81.960785%,71.372551%,59.215689%);stop-opacity:1;"/></linearGradient><linearGradient id="linear1" gradientUnits="userSpaceOnUse" x1="0" y1="0" x2="0" y2="1" gradientTransform="matrix(56,0,0,35.898438,4,14.050781)"><stop offset="0" style="stop-color:rgb(92.941177%,83.529413%,72.549021%);stop-opacity:1;"/><stop offset="1" style="stop-color:rgb(81.960785%,71.372551%,59.215689%);stop-opacity:1;"/></linearGradient><linearGradient id="linear2" gradientUnits="userSpaceOnUse" x1="0" y1="0" x2="0" y2="1" gradientTransform="matrix(56,0,0,35.898438,4,14.050781)"><stop offset="0" style="stop-color:rgb(92.941177%,83.529413%,72.549021%);stop-opacity:1;"/><stop offset="1" style="stop-color:rgb(81.960785%,71.372551%,59.215689%);stop-opacity:1;"/></linearGradient><filter style="color-interpolation-filters:sRGB;" inkscape:label="Diffuse Light" id="filter184" x="-0.0375" y="-0.0375" width="1.075" height="1.075"><feGaussianBlur in="SourceGraphic" stdDeviation="1" result="blur" id="feGaussianBlur174" /><feDiffuseLighting diffuseConstant="1" surfaceScale="10" lighting-color="rgb(255,255,255)" result="diffuse" id="feDiffuseLighting178"><feDistantLight elevation="8" azimuth="235" id="feDistantLight176" /></feDiffuseLighting><feComposite in="diffuse" in2="diffuse" operator="arithmetic" k1="1" result="composite1" id="feComposite180" /><feComposite in="composite1" in2="SourceGraphic" k1="1" operator="arithmetic" k3="1" result="composite2" id="feComposite182" /></filter></defs><g id="surface1" style="filter:url(#filter184)"><path style=" stroke:none;fill-rule:nonzero;fill:url(#linear0);" d="M 11.257812 33.910156 L 4.15625 61.160156 L 21.902344 61.160156 L 25.449219 33.910156 Z M 11.257812 33.910156 "/><path style=" stroke:none;fill-rule:nonzero;fill:url(#linear1);" d="M 53.84375 33.910156 L 60.945312 61.160156 L 43.199219 61.160156 L 39.652344 33.910156 Z M 53.84375 33.910156 "/><path style=" stroke:none;fill-rule:nonzero;fill:url(#linear2);" d="M 18.359375 3.257812 L 18.359375 10.074219 L 21.902344 10.074219 L 21.902344 3.257812 Z M 32.550781 3.257812 L 32.550781 13.476562 L 29.003906 13.476562 L 29.003906 16.886719 L 36.097656 16.886719 L 36.097656 3.257812 Z M 43.199219 3.257812 L 43.199219 10.074219 L 46.742188 10.074219 L 46.742188 3.257812 Z M 21.902344 16.886719 L 21.902344 20.289062 L 25.449219 20.289062 L 25.449219 16.886719 Z M 25.449219 20.289062 L 25.449219 23.691406 L 39.652344 23.691406 L 39.652344 20.289062 Z M 39.652344 20.289062 L 43.199219 20.289062 L 43.199219 16.886719 L 39.652344 16.886719 Z M 39.652344 20.289062 "/></g></svg>
