<svg width="64" height="64" viewBox="0 0 64 64" version="1.1" xmlns:inkscape="http://www.inkscape.org/namespaces/inkscape"><defs><linearGradient id="linear0" gradientUnits="userSpaceOnUse" x1="0" y1="0" x2="0" y2="1" gradientTransform="matrix(48,0,0,64,8,0)"><stop offset="0" style="stop-color:rgb(61.176473%,69.803923%,85.09804%);stop-opacity:1;"/><stop offset="1" style="stop-color:rgb(44.313726%,52.156866%,65.882355%);stop-opacity:1;"/></linearGradient><filter style="color-interpolation-filters:sRGB;" inkscape:label="Diffuse Light" id="filter184" x="-0.0375" y="-0.0375" width="1.075" height="1.075"><feGaussianBlur in="SourceGraphic" stdDeviation="1" result="blur" id="feGaussianBlur174" /><feDiffuseLighting diffuseConstant="1" surfaceScale="10" lighting-color="rgb(255,255,255)" result="diffuse" id="feDiffuseLighting178"><feDistantLight elevation="8" azimuth="235" id="feDistantLight176" /></feDiffuseLighting><feComposite in="diffuse" in2="diffuse" operator="arithmetic" k1="1" result="composite1" id="feComposite180" /><feComposite in="composite1" in2="SourceGraphic" k1="1" operator="arithmetic" k3="1" result="composite2" id="feComposite182" /></filter></defs><g id="surface1" style="filter:url(#filter184)"><path style=" stroke:none;fill-rule:nonzero;fill:url(#linear0);" d="M 32 0 C 25.386719 0 20 5.386719 20 12 L 20 16 L 12.375 16 C 9.953125 16 8 17.953125 8 20.375 L 8 59.625 C 8 62.050781 9.953125 64 12.375 64 L 51.625 64 C 54.050781 64 56 62.050781 56 59.625 L 56 20.375 C 56 17.953125 54.050781 16 51.625 16 L 44 16 L 44 12 C 44 5.386719 38.613281 0 32 0 Z M 32 4 C 36.464844 4 40 7.535156 40 12 L 40 16 L 24 16 L 24 12 C 24 7.535156 27.535156 4 32 4 Z M 21.875 20 C 23.023438 20 24 20.894531 24 22 C 24 23.105469 23.023438 24 21.875 24 C 20.726562 24 19.875 23.105469 19.875 22 C 19.875 20.894531 20.726562 20 21.875 20 Z M 41.875 20 C 43.023438 20 44 20.894531 44 22 C 44 23.105469 43.023438 24 41.875 24 C 40.726562 24 39.875 23.105469 39.875 22 C 39.875 20.894531 40.726562 20 41.875 20 Z M 41.875 20 "/></g></svg>
