<svg width="64" height="64" viewBox="0 0 64 64" version="1.1" xmlns:inkscape="http://www.inkscape.org/namespaces/inkscape"><defs><linearGradient id="linear0" gradientUnits="userSpaceOnUse" x1="0" y1="0" x2="0" y2="1" gradientTransform="matrix(56,0,0,35.898438,4,14.050781)"><stop offset="0" style="stop-color:rgb(87.058824%,86.666667%,56.470591%);stop-opacity:1;"/><stop offset="1" style="stop-color:rgb(67.843139%,67.450982%,38.039216%);stop-opacity:1;"/></linearGradient><filter style="color-interpolation-filters:sRGB;" inkscape:label="Diffuse Light" id="filter184" x="-0.0375" y="-0.0375" width="1.075" height="1.075"><feGaussianBlur in="SourceGraphic" stdDeviation="1" result="blur" id="feGaussianBlur174" /><feDiffuseLighting diffuseConstant="1" surfaceScale="10" lighting-color="rgb(255,255,255)" result="diffuse" id="feDiffuseLighting178"><feDistantLight elevation="8" azimuth="235" id="feDistantLight176" /></feDiffuseLighting><feComposite in="diffuse" in2="diffuse" operator="arithmetic" k1="1" result="composite1" id="feComposite180" /><feComposite in="composite1" in2="SourceGraphic" k1="1" operator="arithmetic" k3="1" result="composite2" id="feComposite182" /></filter></defs><g id="surface1" style="filter:url(#filter184)"><path style=" stroke:none;fill-rule:nonzero;fill:url(#linear0);" d="M 43.558594 5.039062 C 31.945312 5.039062 22.234375 11.542969 22.234375 20.214844 C 22.234375 33.222656 40.359375 36.816406 40.359375 46.230469 C 40.359375 51.617188 35.03125 57.066406 26.5 57.066406 C 19.433594 57.066406 13.707031 52.710938 13.707031 47.3125 C 13.707031 44.386719 15.429688 41.792969 18.105469 40.003906 C 15.953125 37.625 12.996094 34.863281 9.042969 36.847656 C 4.996094 38.878906 3.046875 42.882812 3.046875 46.660156 C 3.046875 54.800781 13.546875 61.402344 26.5 61.402344 C 33.964844 61.402344 41.425781 59.234375 47.023438 55.441406 C 52.621094 51.648438 56.351562 46.230469 56.351562 39.726562 C 56.351562 26.71875 37.160156 22.382812 37.160156 14.796875 C 37.160156 11.542969 40.898438 9.375 45.691406 9.375 C 50.480469 9.375 54.21875 11.851562 54.21875 14.796875 C 54.21875 16.570312 52.703125 18.429688 50.445312 19.277344 C 54.988281 22.765625 60.617188 20.214844 60.617188 14.578125 C 60.617188 8.628906 51.613281 5.039062 43.558594 5.039062 "/></g></svg>
