<?xml version="1.0" encoding="UTF-8" standalone="no"?><svg width="64" height="64" viewBox="0 0 64 64" version="1.1" id="svg4" sodipodi:docname="simplesok.svg" inkscape:version="1.2.2 (b0a8486541, 2022-12-01)" xmlns:inkscape="http://www.inkscape.org/namespaces/inkscape" xmlns:sodipodi="http://sodipodi.sourceforge.net/DTD/sodipodi-0.dtd" xmlns="http://www.w3.org/2000/svg" xmlns:svg="http://www.w3.org/2000/svg"> <defs id="defs8"> <filter style="color-interpolation-filters:sRGB;" inkscape:label="Diffuse Light" id="filter178" x="-0.13399192" y="-0.1705293" width="1.2679838" height="1.3410586"> <feGaussianBlur in="SourceGraphic" stdDeviation="3.45666" result="blur" id="feGaussianBlur168" /> <feDiffuseLighting diffuseConstant="1" surfaceScale="10" lighting-color="rgb(255,255,255)" result="diffuse" id="feDiffuseLighting172"> <feDistantLight elevation="8" azimuth="245" id="feDistantLight170" /> </feDiffuseLighting> <feComposite in="diffuse" in2="diffuse" operator="arithmetic" k1="1" result="composite1" id="feComposite174" /> <feComposite in="composite1" in2="SourceGraphic" k1="1" operator="arithmetic" k3="1" result="composite2" id="feComposite176" /> </filter> </defs> <sodipodi:namedview id="namedview6" pagecolor="#ffffff" bordercolor="#000000" borderopacity="0.25" inkscape:showpageshadow="2" inkscape:pageopacity="0.0" inkscape:pagecheckerboard="0" inkscape:deskcolor="#d1d1d1" showgrid="false" inkscape:zoom="3.6875" inkscape:cx="32" inkscape:cy="32.135593" inkscape:window-width="1432" inkscape:window-height="844" inkscape:window-x="0" inkscape:window-y="0" inkscape:window-maximized="1" inkscape:current-layer="svg4" /> <path style="stroke:none;fill-rule:nonzero;fill:rgb(23%, 70%, 44%);fill-opacity:1;filter:url(#filter178)" d="M 61.773438 9.886719 L 57.351562 13.628906 L 52.929688 22.984375 L 46.292969 17.371094 L 46.292969 13.628906 L 33.027344 13.628906 L 33.027344 19.242188 L 19.761719 19.242188 L 19.761719 13.628906 L 6.492188 13.628906 L 6.492188 22.984375 L 2.070312 24.855469 L 2.070312 43.566406 L 6.492188 43.566406 L 6.492188 54.792969 L 19.761719 54.792969 L 19.761719 49.179688 L 33.027344 49.179688 L 33.027344 54.792969 L 46.292969 54.792969 L 46.292969 49.179688 L 48.507812 49.179688 L 52.929688 45.4375 L 57.351562 54.792969 L 61.773438 58.535156 L 63.984375 56.664062 L 59.5625 52.921875 L 59.5625 15.5 L 63.984375 11.757812 Z M 61.773438 9.886719 " id="path2" /></svg>
