<?xml version="1.0" encoding="UTF-8" standalone="no"?><svg width="64" height="64" viewBox="0 0 64 64" version="1.1" id="svg18" sodipodi:docname="simplescreenrecorder.svg" inkscape:version="1.2.2 (b0a8486541, 2022-12-01)" xmlns:inkscape="http://www.inkscape.org/namespaces/inkscape" xmlns:sodipodi="http://sodipodi.sourceforge.net/DTD/sodipodi-0.dtd" xmlns="http://www.w3.org/2000/svg" xmlns:svg="http://www.w3.org/2000/svg"> <sodipodi:namedview id="namedview20" pagecolor="#ffffff" bordercolor="#000000" borderopacity="0.25" inkscape:showpageshadow="2" inkscape:pageopacity="0.0" inkscape:pagecheckerboard="0" inkscape:deskcolor="#d1d1d1" showgrid="false" inkscape:zoom="3.6875" inkscape:cx="32" inkscape:cy="32.135593" inkscape:window-width="1432" inkscape:window-height="844" inkscape:window-x="0" inkscape:window-y="0" inkscape:window-maximized="1" inkscape:current-layer="svg18" /> <defs id="defs13"> <linearGradient id="linear0" gradientUnits="userSpaceOnUse" x1="0" y1="0" x2="0" y2="1" gradientTransform="matrix(64,0,0,40,0,12)"> <stop offset="0" style="stop-color:rgb(100%,63.137257%,63.137257%);stop-opacity:1;" id="stop2" /> <stop offset="1" style="stop-color:rgb(100%,27.843139%,27.843139%);stop-opacity:1;" id="stop4" /> </linearGradient> <filter style="color-interpolation-filters:sRGB;" inkscape:label="Diffuse Light" id="filter184" x="-0.0375" y="-0.06" width="1.075" height="1.12"> <feGaussianBlur in="SourceGraphic" stdDeviation="1" result="blur" id="feGaussianBlur174" /> <feDiffuseLighting diffuseConstant="1" surfaceScale="10" lighting-color="rgb(255,255,255)" result="diffuse" id="feDiffuseLighting178"> <feDistantLight elevation="8" azimuth="235" id="feDistantLight176" /> </feDiffuseLighting> <feComposite in="diffuse" in2="diffuse" operator="arithmetic" k1="1" result="composite1" id="feComposite180" /> <feComposite in="composite1" in2="SourceGraphic" k1="1" operator="arithmetic" k3="1" result="composite2" id="feComposite182" /> </filter> </defs> <g id="surface1" style="filter:url(#filter184)"> <path style=" stroke:none;fill-rule:nonzero;fill:url(#linear0);" d="M 12 12 C 9.371094 12 7.285156 12.238281 5.53125 12.898438 C 3.777344 13.558594 2.371094 14.746094 1.539062 16.25 C -0.121094 19.261719 0.0585938 22.945312 0 27.976562 L 0 36.023438 C 0.0585938 41.054688 -0.121094 44.738281 1.539062 47.75 C 2.371094 49.253906 3.777344 50.441406 5.53125 51.101562 C 7.285156 51.757812 9.371094 52 12 52 L 36 52 C 38.628906 52 40.714844 51.761719 42.46875 51.101562 C 44.222656 50.441406 45.628906 49.253906 46.460938 47.75 C 48.058594 44.855469 47.945312 41.277344 47.984375 36.539062 C 54.203125 40.078125 59.84375 43.15625 64 45.125 L 64 18.875 C 59.925781 20.804688 54.269531 23.894531 47.984375 27.46875 C 47.941406 22.726562 48.058594 19.144531 46.460938 16.25 C 45.628906 14.746094 44.222656 13.558594 42.46875 12.898438 C 40.714844 12.242188 38.628906 12 36 12 Z M 12 16 L 36 16 C 38.371094 16 40.023438 16.25 41.0625 16.640625 C 42.101562 17.03125 42.546875 17.445312 42.953125 18.179688 C 43.761719 19.644531 43.941406 22.964844 44 28 L 44 35.976562 C 43.941406 41.03125 43.761719 44.34375 42.953125 45.8125 C 42.546875 46.546875 42.101562 46.96875 41.0625 47.359375 C 40.023438 47.75 38.371094 48 36 48 L 12 48 C 9.628906 48 7.976562 47.75 6.9375 47.359375 C 5.898438 46.96875 5.453125 46.546875 5.046875 45.8125 C 4.238281 44.347656 4.058594 41.035156 4 36 L 4 28 C 4.058594 22.964844 4.238281 19.644531 5.046875 18.179688 C 5.453125 17.445312 5.898438 17.03125 6.9375 16.640625 C 7.976562 16.25 9.628906 16 12 16 Z M 12 16 " id="path15" /> </g> <path style="fill:#ff0000" id="path206" d="m 7.0545124,21.996377 c 0.138717,1.060962 0.084065,2.132814 0.034892,3.197749 -0.013412,0.898773 0.00972,1.797682 0.019634,2.696424 -0.053664,0.912446 -0.04052,1.800353 0.1582097,2.69425 0.2261809,0.946424 0.3428124,1.913545 0.4882892,2.87427 0.1052167,0.748592 0.075254,1.505382 0.1156311,2.257577 0.042019,0.849629 0.026582,1.699898 0.041099,2.550197 0.00216,0.163904 0.00432,0.327808 0.00648,0.491713 0,0 13.1800886,6.717377 13.1800886,6.717377 v 0 c 0.0025,-0.161424 0.005,-0.322848 0.0075,-0.484272 0.01686,-0.845693 0.007,-1.691036 0.03696,-2.536479 0.01957,-0.813772 -0.07422,-1.625743 -0.135423,-2.436368 -0.08431,-0.998613 -0.301672,-1.981144 -0.392603,-2.979753 -0.08773,-0.436859 -0.06735,-0.39508 -0.193809,-0.804527 -0.03251,-0.105271 -0.08718,-0.204651 -0.105201,-0.313345 -0.07118,-0.429251 0.01713,-0.88586 -0.03094,-1.316968 0.0099,-0.892074 0.03317,-1.784309 0.01963,-2.676416 -0.04642,-1.052706 -0.109291,-2.114187 0.03489,-3.162192 0,0 -13.2853731,-6.769237 -13.2853731,-6.769237 z" /> <path style="fill:#ff0000" id="path208" d="m 26.247114,22.360774 c -0.01745,0.747981 -0.153276,1.485651 -0.200777,2.231368 -0.0096,1.001737 0.02527,2.001924 -0.0025,3.003964 -0.02897,0.766492 -0.03942,1.53367 -0.04881,2.300655 0.03343,0.940289 0.07192,1.877905 0.04173,2.818951 0.03162,1.005805 0.01219,2.010563 -0.0074,3.016237 -0.04368,0.79396 -0.0077,1.588397 -0.01018,2.382729 0.0091,0.411416 3.64e-4,0.822864 -0.0072,1.234204 0,0 13.237542,6.744866 13.237542,6.744866 v 0 c -0.0075,-0.413786 -0.01627,-0.827681 -0.0072,-1.241539 -0.0024,-0.797786 0.03335,-1.595655 -0.01017,-2.393092 -0.01925,-1.008227 -0.03927,-2.015565 -0.0074,-3.0239 -0.02891,-0.927505 0.006,-1.851451 0.04058,-2.778134 -0.01058,-0.782847 -0.02328,-1.565803 -0.0512,-2.348217 -0.02368,-0.963804 -0.0023,-1.925153 0.06126,-2.887267 0.02905,-0.693604 0.02845,-1.398078 0.210462,-2.073162 0,0 -13.238652,-6.987663 -13.238652,-6.987663 z" /></svg>
