<svg width="64" height="64" viewBox="0 0 64 64" version="1.1" xmlns:inkscape="http://www.inkscape.org/namespaces/inkscape"><defs><linearGradient id="linear0" gradientUnits="userSpaceOnUse" x1="0" y1="0" x2="0" y2="1" gradientTransform="matrix(70.13037,0,0,38.421913,-4.995636,11.597756)"><stop offset="0" style="stop-color:rgb(0%,78.823531%,36.862746%);stop-opacity:1;"/><stop offset="1" style="stop-color:rgb(0%,54.11765%,25.098041%);stop-opacity:1;"/></linearGradient><linearGradient id="linear1" gradientUnits="userSpaceOnUse" x1="0" y1="0" x2="0" y2="1" gradientTransform="matrix(70.13037,0,0,38.421913,-4.995636,11.597756)"><stop offset="0" style="stop-color:rgb(0%,78.823531%,36.862746%);stop-opacity:1;"/><stop offset="1" style="stop-color:rgb(0%,54.11765%,25.098041%);stop-opacity:1;"/></linearGradient><filter style="color-interpolation-filters:sRGB;" inkscape:label="Diffuse Light" id="filter184" x="-0.0375" y="-0.0375" width="1.075" height="1.075"><feGaussianBlur in="SourceGraphic" stdDeviation="1" result="blur" id="feGaussianBlur174" /><feDiffuseLighting diffuseConstant="1" surfaceScale="10" lighting-color="rgb(255,255,255)" result="diffuse" id="feDiffuseLighting178"><feDistantLight elevation="8" azimuth="235" id="feDistantLight176" /></feDiffuseLighting><feComposite in="diffuse" in2="diffuse" operator="arithmetic" k1="1" result="composite1" id="feComposite180" /><feComposite in="composite1" in2="SourceGraphic" k1="1" operator="arithmetic" k3="1" result="composite2" id="feComposite182" /></filter></defs><g id="surface1" style="filter:url(#filter184)"><path style=" stroke:none;fill-rule:nonzero;fill:url(#linear0);" d="M 62.714844 1.257812 L 57.472656 5.171875 L 57.15625 2.917969 L 49.613281 5.171875 C 49.613281 5.171875 31.875 11.808594 26.039062 16.910156 C 20.480469 21.773438 17.601562 30.296875 15.558594 36.472656 L 15.558594 46.257812 L 16.871094 48.214844 L 33.894531 48.214844 L 26.039062 44.300781 L 36.515625 44.300781 L 33.894531 42.34375 L 46.996094 36.472656 Z M 62.714844 1.257812 "/><path style=" stroke:none;fill-rule:nonzero;fill:url(#linear1);" d="M 38.410156 22.480469 L 34.867188 23.691406 L 1.675781 62.441406 L 5.019531 62.441406 Z M 38.410156 22.480469 "/></g></svg>
