<svg width="64" height="64" viewBox="0 0 64 64" version="1.1" xmlns:inkscape="http://www.inkscape.org/namespaces/inkscape"><defs><linearGradient id="linear0" gradientUnits="userSpaceOnUse" x1="0" y1="0" x2="0" y2="1" gradientTransform="matrix(59.769612,0,0,39.303017,2.285109,12.719723)"><stop offset="0" style="stop-color:rgb(61.176473%,69.803923%,85.09804%);stop-opacity:1;"/><stop offset="1" style="stop-color:rgb(44.313726%,52.156866%,65.882355%);stop-opacity:1;"/></linearGradient><linearGradient id="linear1" gradientUnits="userSpaceOnUse" x1="0" y1="0" x2="0" y2="1" gradientTransform="matrix(59.769612,0,0,39.303017,2.285109,12.719723)"><stop offset="0" style="stop-color:rgb(61.176473%,69.803923%,85.09804%);stop-opacity:1;"/><stop offset="1" style="stop-color:rgb(44.313726%,52.156866%,65.882355%);stop-opacity:1;"/></linearGradient><filter style="color-interpolation-filters:sRGB;" inkscape:label="Diffuse Light" id="filter184" x="-0.0375" y="-0.0375" width="1.075" height="1.075"><feGaussianBlur in="SourceGraphic" stdDeviation="1" result="blur" id="feGaussianBlur174" /><feDiffuseLighting diffuseConstant="1" surfaceScale="10" lighting-color="rgb(255,255,255)" result="diffuse" id="feDiffuseLighting178"><feDistantLight elevation="8" azimuth="235" id="feDistantLight176" /></feDiffuseLighting><feComposite in="diffuse" in2="diffuse" operator="arithmetic" k1="1" result="composite1" id="feComposite180" /><feComposite in="composite1" in2="SourceGraphic" k1="1" operator="arithmetic" k3="1" result="composite2" id="feComposite182" /></filter></defs><g id="surface1" style="filter:url(#filter184)"><path style=" stroke:none;fill-rule:nonzero;fill:url(#linear0);" d="M 14.074219 9.027344 C 11.65625 9.027344 9.695312 11.609375 9.695312 14.789062 L 9.695312 32.070312 C 9.695312 35.253906 11.65625 37.832031 14.074219 37.832031 L 18.457031 37.832031 L 18.457031 43.59375 L 0.933594 43.59375 L 0.933594 55.113281 L 22.839844 55.113281 C 25.261719 55.113281 27.222656 52.535156 27.222656 49.355469 L 27.222656 32.070312 C 27.222656 28.890625 25.261719 26.3125 22.839844 26.3125 L 18.457031 26.3125 L 18.457031 20.550781 L 29.410156 20.550781 L 29.410156 9.027344 Z M 14.074219 9.027344 "/><path style=" stroke:none;fill-rule:nonzero;fill:url(#linear1);" d="M 31.925781 20.808594 L 39.113281 20.808594 L 39.113281 50.4375 C 39.113281 53.707031 41.257812 56.359375 43.90625 56.359375 L 63.070312 56.359375 L 63.070312 44.507812 L 48.695312 44.507812 L 48.695312 14.882812 C 48.695312 11.609375 46.554688 8.957031 43.90625 8.957031 L 31.925781 8.957031 Z M 31.925781 20.808594 "/></g></svg>
