<svg width="64" height="64" viewBox="0 0 64 64" version="1.1" xmlns:inkscape="http://www.inkscape.org/namespaces/inkscape"><defs><linearGradient id="linear0" gradientUnits="userSpaceOnUse" x1="0" y1="0" x2="0" y2="1" gradientTransform="matrix(56,0,0,35.898438,4,14.050781)"><stop offset="0" style="stop-color:rgb(41.960785%,64.313728%,100%);stop-opacity:1;"/><stop offset="1" style="stop-color:rgb(0%,43.137255%,100%);stop-opacity:1;"/></linearGradient><filter style="color-interpolation-filters:sRGB;" inkscape:label="Diffuse Light" id="filter184" x="-0.0375" y="-0.0375" width="1.075" height="1.075"><feGaussianBlur in="SourceGraphic" stdDeviation="1" result="blur" id="feGaussianBlur174" /><feDiffuseLighting diffuseConstant="1" surfaceScale="10" lighting-color="rgb(255,255,255)" result="diffuse" id="feDiffuseLighting178"><feDistantLight elevation="8" azimuth="235" id="feDistantLight176" /></feDiffuseLighting><feComposite in="diffuse" in2="diffuse" operator="arithmetic" k1="1" result="composite1" id="feComposite180" /><feComposite in="composite1" in2="SourceGraphic" k1="1" operator="arithmetic" k3="1" result="composite2" id="feComposite182" /></filter></defs><g id="surface1" style="filter:url(#filter184)"><path style=" stroke:none;fill-rule:nonzero;fill:url(#linear0);" d="M 15.164062 3.535156 C 9.652344 3.535156 5.183594 8.292969 5.183594 14.1875 C 5.183594 20.066406 9.640625 24.835938 15.164062 24.835938 L 24.382812 24.835938 L 10.3125 39.78125 C 6.414062 43.9375 6.414062 50.710938 10.3125 54.867188 C 14.207031 59.027344 20.554688 59.027344 24.449219 54.867188 L 38.453125 39.851562 L 38.453125 49.691406 C 38.453125 55.570312 42.910156 60.339844 48.433594 60.339844 C 53.941406 60.339844 58.410156 55.582031 58.410156 49.691406 L 58.410156 14.1875 C 58.410156 8.304688 53.953125 3.535156 48.433594 3.535156 Z M 15.164062 3.535156 "/></g></svg>
