<svg width="64" height="64" viewBox="0 0 64 64" version="1.1" xmlns:inkscape="http://www.inkscape.org/namespaces/inkscape"><defs><linearGradient id="linear0" gradientUnits="userSpaceOnUse" x1="0" y1="0" x2="0" y2="1" gradientTransform="matrix(64.052849,0,0,68.703815,-1.184579,-0.952182)"><stop offset="0" style="stop-color:rgb(87.058824%,86.666667%,56.470591%);stop-opacity:1;"/><stop offset="1" style="stop-color:rgb(67.843139%,67.450982%,38.039216%);stop-opacity:1;"/></linearGradient><filter style="color-interpolation-filters:sRGB;" inkscape:label="Diffuse Light" id="filter184" x="-0.0375" y="-0.0375" width="1.075" height="1.075"><feGaussianBlur in="SourceGraphic" stdDeviation="1" result="blur" id="feGaussianBlur174" /><feDiffuseLighting diffuseConstant="1" surfaceScale="10" lighting-color="rgb(255,255,255)" result="diffuse" id="feDiffuseLighting178"><feDistantLight elevation="8" azimuth="235" id="feDistantLight176" /></feDiffuseLighting><feComposite in="diffuse" in2="diffuse" operator="arithmetic" k1="1" result="composite1" id="feComposite180" /><feComposite in="composite1" in2="SourceGraphic" k1="1" operator="arithmetic" k3="1" result="composite2" id="feComposite182" /></filter></defs><g id="surface1" style="filter:url(#filter184)"><path style=" stroke:none;fill-rule:nonzero;fill:url(#linear0);" d="M 28.082031 3.269531 L 2.984375 8.292969 L 8.515625 14.316406 L 8.5 14.335938 C 1.832031 21.925781 0.523438 32.675781 2.742188 41.972656 C 4.960938 51.269531 10.742188 59.214844 18.460938 61.082031 C 18.464844 61.082031 18.464844 61.082031 18.464844 61.082031 L 19.546875 61.34375 L 19.832031 61.417969 L 19.648438 61.160156 L 18.960938 60.222656 C 10.1875 48.207031 9.210938 32.554688 17.199219 23.746094 L 23.074219 30.140625 L 28.070312 3.269531 M 44.472656 3.269531 L 44.652344 3.519531 L 45.34375 4.457031 C 54.109375 16.46875 55.097656 32.128906 47.101562 40.933594 L 41.222656 34.535156 L 36.226562 61.417969 L 61.320312 56.382812 L 55.785156 50.359375 L 55.800781 50.34375 L 55.808594 50.34375 C 62.46875 42.757812 63.785156 32.011719 61.566406 22.710938 C 59.347656 13.421875 53.566406 5.480469 45.847656 3.605469 C 45.84375 3.605469 45.84375 3.605469 45.84375 3.605469 L 44.761719 3.34375 L 44.476562 3.269531 "/></g></svg>
