<svg width="64" height="64" viewBox="0 0 64 64" version="1.1" xmlns:inkscape="http://www.inkscape.org/namespaces/inkscape"><defs><linearGradient id="linear0" gradientUnits="userSpaceOnUse" x1="0" y1="0" x2="0" y2="1" gradientTransform="matrix(35.023438,0,0,64,14.488281,0)"><stop offset="0" style="stop-color:rgb(100%,73.333335%,0%);stop-opacity:1;"/><stop offset="1" style="stop-color:rgb(70.19608%,51.372552%,0%);stop-opacity:1;"/></linearGradient><filter style="color-interpolation-filters:sRGB;" inkscape:label="Diffuse Light" id="filter184" x="-0.0375" y="-0.0375" width="1.075" height="1.075"><feGaussianBlur in="SourceGraphic" stdDeviation="1" result="blur" id="feGaussianBlur174" /><feDiffuseLighting diffuseConstant="1" surfaceScale="10" lighting-color="rgb(255,255,255)" result="diffuse" id="feDiffuseLighting178"><feDistantLight elevation="8" azimuth="235" id="feDistantLight176" /></feDiffuseLighting><feComposite in="diffuse" in2="diffuse" operator="arithmetic" k1="1" result="composite1" id="feComposite180" /><feComposite in="composite1" in2="SourceGraphic" k1="1" operator="arithmetic" k3="1" result="composite2" id="feComposite182" /></filter></defs><g id="surface1" style="filter:url(#filter184)"><path style=" stroke:none;fill-rule:evenodd;fill:url(#linear0);" d="M 31.871094 0 L 31.871094 49.515625 C 30.414062 47.4375 24.484375 47.121094 20.328125 49.410156 C 15.402344 52.128906 13.15625 57.21875 15.304688 60.789062 C 17.457031 64.359375 23.1875 65.058594 28.117188 62.34375 C 31.070312 60.714844 33.042969 58.222656 33.699219 55.722656 C 34 54.347656 33.824219 53.636719 33.804688 52.671875 L 33.804688 17.6875 C 55.414062 23.164062 45.445312 42.144531 43.496094 48.847656 C 61.257812 24.597656 34.042969 14.703125 33.804688 0 Z M 31.871094 0 "/></g></svg>
