<svg width="64" height="64" viewBox="0 0 64 64" version="1.1" xmlns:inkscape="http://www.inkscape.org/namespaces/inkscape"><defs><linearGradient id="linear0" gradientUnits="userSpaceOnUse" x1="0" y1="0" x2="0" y2="1" gradientTransform="matrix(56,0,0,35.898438,4,14.050781)"><stop offset="0" style="stop-color:rgb(100%,73.333335%,0%);stop-opacity:1;"/><stop offset="1" style="stop-color:rgb(70.19608%,51.372552%,0%);stop-opacity:1;"/></linearGradient><filter style="color-interpolation-filters:sRGB;" inkscape:label="Diffuse Light" id="filter184" x="-0.0375" y="-0.0375" width="1.075" height="1.075"><feGaussianBlur in="SourceGraphic" stdDeviation="1" result="blur" id="feGaussianBlur174" /><feDiffuseLighting diffuseConstant="1" surfaceScale="10" lighting-color="rgb(255,255,255)" result="diffuse" id="feDiffuseLighting178"><feDistantLight elevation="8" azimuth="235" id="feDistantLight176" /></feDiffuseLighting><feComposite in="diffuse" in2="diffuse" operator="arithmetic" k1="1" result="composite1" id="feComposite180" /><feComposite in="composite1" in2="SourceGraphic" k1="1" operator="arithmetic" k3="1" result="composite2" id="feComposite182" /></filter></defs><g id="surface1" style="filter:url(#filter184)"><path style=" stroke:none;fill-rule:nonzero;fill:url(#linear0);" d="M 5.476562 5.824219 L 5.476562 20.640625 L 14.179688 20.640625 L 14.179688 25.578125 L 5.476562 25.578125 L 5.476562 30.515625 L 18.53125 30.515625 L 18.53125 15.703125 L 9.828125 15.703125 L 9.828125 10.761719 L 14.179688 10.761719 L 14.179688 13.234375 L 18.53125 13.234375 L 18.53125 5.824219 Z M 51.652344 8.289062 L 35.933594 37.214844 L 35.933594 42.859375 L 51.15625 42.863281 L 51.160156 57.671875 L 57.695312 57.671875 L 57.691406 42.863281 L 62.035156 42.871094 L 62.035156 35.453125 L 57.691406 35.449219 L 57.6875 8.296875 Z M 22.878906 8.292969 L 22.878906 15.703125 L 27.230469 15.703125 L 27.230469 57.671875 L 33.757812 57.671875 L 33.757812 8.292969 Z M 51.15625 23.324219 L 51.15625 35.445312 L 44.558594 35.445312 Z M 5.476562 35.453125 L 5.476562 50.265625 L 14.179688 50.265625 L 14.179688 55.203125 L 5.476562 55.203125 L 5.476562 60.140625 L 18.53125 60.140625 L 18.53125 45.328125 L 9.828125 45.328125 L 9.828125 40.390625 L 14.179688 40.390625 L 14.179688 42.859375 L 18.53125 42.859375 L 18.53125 35.453125 Z M 5.476562 35.453125 "/></g></svg>
