<svg width="64" height="64" viewBox="0 0 64 64" version="1.1" xmlns:inkscape="http://www.inkscape.org/namespaces/inkscape"><defs><linearGradient id="linear0" gradientUnits="userSpaceOnUse" x1="0" y1="0" x2="0" y2="1" gradientTransform="matrix(59.982421,0,0,37.281886,1.842031,13.240845)"><stop offset="0" style="stop-color:rgb(100%,63.137257%,63.137257%);stop-opacity:1;"/><stop offset="1" style="stop-color:rgb(100%,27.843139%,27.843139%);stop-opacity:1;"/></linearGradient><filter style="color-interpolation-filters:sRGB;" inkscape:label="Diffuse Light" id="filter184" x="-0.0375" y="-0.0375" width="1.075" height="1.075"><feGaussianBlur in="SourceGraphic" stdDeviation="1" result="blur" id="feGaussianBlur174" /><feDiffuseLighting diffuseConstant="1" surfaceScale="10" lighting-color="rgb(255,255,255)" result="diffuse" id="feDiffuseLighting178"><feDistantLight elevation="8" azimuth="235" id="feDistantLight176" /></feDiffuseLighting><feComposite in="diffuse" in2="diffuse" operator="arithmetic" k1="1" result="composite1" id="feComposite180" /><feComposite in="composite1" in2="SourceGraphic" k1="1" operator="arithmetic" k3="1" result="composite2" id="feComposite182" /></filter></defs><g id="surface1" style="filter:url(#filter184)"><path style=" stroke:none;fill-rule:nonzero;fill:url(#linear0);" d="M 18.449219 1.902344 C 11.0625 1.902344 11.785156 9.53125 15.496094 12.269531 C 21.523438 16.722656 39.25 16.828125 45.078125 13.921875 C 49.679688 11.628906 52.410156 5.382812 45.941406 4.328125 C 41.253906 3.507812 37.734375 3.921875 31.320312 3.3125 C 26.691406 2.855469 20.542969 1.902344 18.449219 1.898438 Z M 41.660156 22.9375 C 37.269531 22.925781 35.417969 23.53125 29.753906 23.605469 C 26.648438 23.640625 24.417969 23.289062 20.097656 23.253906 C 15.917969 23.191406 12.769531 24.570312 12.769531 27.609375 C 12.769531 33.457031 21.863281 34.621094 29.625 34.621094 C 35.875 34.621094 39.097656 33.792969 42.367188 31.84375 C 44.71875 30.449219 46.015625 28.242188 46.070312 26.195312 C 46.117188 24.414062 44.886719 22.945312 41.660156 22.9375 Z M 44.097656 39.292969 C 42.367188 39.292969 39 39.828125 35.183594 40.195312 C 31.371094 40.558594 30.921875 40.351562 27.671875 40.652344 C 24.988281 40.875 23.871094 41.863281 23.871094 43.074219 C 23.871094 45.5 25.484375 46.707031 27.570312 47.671875 C 29.652344 48.636719 32.273438 48.644531 34.972656 48.644531 C 39.816406 48.644531 45.792969 47.539062 48.332031 45.503906 C 49.132812 44.859375 49.769531 44.285156 49.769531 42.757812 C 49.769531 40.484375 47.675781 39.292969 44.097656 39.292969 Z M 45.933594 55.65625 C 42.652344 55.730469 42.125 55.972656 38.921875 55.933594 C 37.773438 55.890625 35.675781 55.621094 34.007812 55.726562 C 30.074219 55.976562 30.871094 59.945312 33.304688 61.324219 C 36.355469 63.050781 43.609375 63.296875 47.832031 60.957031 C 49.921875 59.796875 51.53125 55.523438 45.933594 55.65625 Z M 45.933594 55.65625 "/></g></svg>
