<svg width="64" height="64" viewBox="0 0 64 64" version="1.1" xmlns:inkscape="http://www.inkscape.org/namespaces/inkscape"><defs><linearGradient id="linear0" gradientUnits="userSpaceOnUse" x1="0" y1="0" x2="0" y2="1" gradientTransform="matrix(61.135905,0,0,39.700888,1.376355,11.179076)"><stop offset="0" style="stop-color:rgb(81.960785%,70.980394%,59.215689%);stop-opacity:1;"/><stop offset="1" style="stop-color:rgb(65.098041%,53.725493%,41.568628%);stop-opacity:1;"/></linearGradient><linearGradient id="linear1" gradientUnits="userSpaceOnUse" x1="0" y1="0" x2="0" y2="1" gradientTransform="matrix(61.135905,0,0,39.700888,1.376355,11.179076)"><stop offset="0" style="stop-color:rgb(81.960785%,70.980394%,59.215689%);stop-opacity:1;"/><stop offset="1" style="stop-color:rgb(65.098041%,53.725493%,41.568628%);stop-opacity:1;"/></linearGradient><linearGradient id="linear2" gradientUnits="userSpaceOnUse" x1="0" y1="0" x2="0" y2="1" gradientTransform="matrix(61.135905,0,0,39.700888,1.376355,11.179076)"><stop offset="0" style="stop-color:rgb(81.960785%,70.980394%,59.215689%);stop-opacity:1;"/><stop offset="1" style="stop-color:rgb(65.098041%,53.725493%,41.568628%);stop-opacity:1;"/></linearGradient><filter style="color-interpolation-filters:sRGB;" inkscape:label="Diffuse Light" id="filter184" x="-0.0375" y="-0.0375" width="1.075" height="1.075"><feGaussianBlur in="SourceGraphic" stdDeviation="1" result="blur" id="feGaussianBlur174" /><feDiffuseLighting diffuseConstant="1" surfaceScale="10" lighting-color="rgb(255,255,255)" result="diffuse" id="feDiffuseLighting178"><feDistantLight elevation="8" azimuth="235" id="feDistantLight176" /></feDiffuseLighting><feComposite in="diffuse" in2="diffuse" operator="arithmetic" k1="1" result="composite1" id="feComposite180" /><feComposite in="composite1" in2="SourceGraphic" k1="1" operator="arithmetic" k3="1" result="composite2" id="feComposite182" /></filter></defs><g id="surface1" style="filter:url(#filter184)"><path style=" stroke:none;fill-rule:nonzero;fill:url(#linear0);" d="M 62.640625 17.4375 C 62.640625 26 55.640625 32.941406 47.011719 32.941406 C 38.382812 32.941406 31.386719 26 31.386719 17.4375 C 31.386719 8.875 38.382812 1.933594 47.011719 1.933594 C 55.640625 1.933594 62.640625 8.875 62.640625 17.4375 Z M 62.640625 17.4375 "/><path style=" stroke:none;fill-rule:nonzero;fill:url(#linear1);" d="M 1.160156 59.90625 L 1.160156 56.742188 C 3.777344 58.382812 5.636719 60.386719 6.980469 62.640625 L 4.070312 62.640625 Z M 1.160156 59.90625 "/><path style=" stroke:none;fill-rule:nonzero;fill:url(#linear2);" d="M 28.34375 22.621094 L 41.671875 35.742188 L 10.574219 61.992188 L 1.6875 53.242188 Z M 28.34375 22.621094 "/></g></svg>
