<svg width="64" height="64" viewBox="0 0 64 64" version="1.1" xmlns:inkscape="http://www.inkscape.org/namespaces/inkscape"><defs><linearGradient id="linear0" gradientUnits="userSpaceOnUse" x1="0" y1="0" x2="0" y2="1" gradientTransform="matrix(66.168243,0,0,40.610083,-1.134636,13.254432)"><stop offset="0" style="stop-color:rgb(100%,63.137257%,63.137257%);stop-opacity:1;"/><stop offset="1" style="stop-color:rgb(100%,27.843139%,27.843139%);stop-opacity:1;"/></linearGradient><filter style="color-interpolation-filters:sRGB;" inkscape:label="Diffuse Light" id="filter184" x="-0.0375" y="-0.0375" width="1.075" height="1.075"><feGaussianBlur in="SourceGraphic" stdDeviation="1" result="blur" id="feGaussianBlur174" /><feDiffuseLighting diffuseConstant="1" surfaceScale="10" lighting-color="rgb(255,255,255)" result="diffuse" id="feDiffuseLighting178"><feDistantLight elevation="8" azimuth="235" id="feDistantLight176" /></feDiffuseLighting><feComposite in="diffuse" in2="diffuse" operator="arithmetic" k1="1" result="composite1" id="feComposite180" /><feComposite in="composite1" in2="SourceGraphic" k1="1" operator="arithmetic" k3="1" result="composite2" id="feComposite182" /></filter></defs><g id="surface1" style="filter:url(#filter184)"><path style=" stroke:none;fill-rule:nonzero;fill:url(#linear0);" d="M 62.332031 1.183594 C 62.15625 3.125 59.878906 10.234375 45.90625 15.433594 C 37.015625 19.382812 31.863281 20.195312 27.136719 29.675781 C 24.253906 35.441406 20.09375 46.277344 18.917969 46.277344 C 17.746094 46.277344 13.972656 38.910156 10.707031 34.414062 C 9.398438 32.175781 1.320312 32.039062 1.320312 32.039062 C 1.320312 32.9375 16.574219 62.890625 18.917969 62.890625 C 21.269531 62.890625 23.972656 57.847656 29.480469 43.914062 C 34.175781 32.039062 34.175781 27.296875 45.90625 22.550781 L 49.664062 22.550781 C 41.210938 27.296875 38.867188 36.792969 34.175781 46.289062 C 55.273438 46.289062 62.332031 20.171875 62.332031 1.183594 Z M 62.332031 1.183594 "/></g></svg>
