<svg width="64" height="64" viewBox="0 0 64 64" version="1.1" xmlns:inkscape="http://www.inkscape.org/namespaces/inkscape"><defs><linearGradient id="linear0" gradientUnits="userSpaceOnUse" x1="0" y1="0" x2="0" y2="1" gradientTransform="matrix(62.108598,0,0,61.059922,0.939751,1.762265)"><stop offset="0" style="stop-color:rgb(100%,56.862748%,82.745099%);stop-opacity:1;"/><stop offset="1" style="stop-color:rgb(100%,0%,60.000002%);stop-opacity:1;"/></linearGradient><filter style="color-interpolation-filters:sRGB;" inkscape:label="Diffuse Light" id="filter184" x="-0.0375" y="-0.0375" width="1.075" height="1.075"><feGaussianBlur in="SourceGraphic" stdDeviation="1" result="blur" id="feGaussianBlur174" /><feDiffuseLighting diffuseConstant="1" surfaceScale="10" lighting-color="rgb(255,255,255)" result="diffuse" id="feDiffuseLighting178"><feDistantLight elevation="8" azimuth="235" id="feDistantLight176" /></feDiffuseLighting><feComposite in="diffuse" in2="diffuse" operator="arithmetic" k1="1" result="composite1" id="feComposite180" /><feComposite in="composite1" in2="SourceGraphic" k1="1" operator="arithmetic" k3="1" result="composite2" id="feComposite182" /></filter></defs><g id="surface1" style="filter:url(#filter184)"><path style=" stroke:none;fill-rule:nonzero;fill:url(#linear0);" d="M 31.992188 62.820312 C 28.800781 62.820312 23.871094 44.710938 21.613281 42.496094 C 19.355469 40.277344 0.941406 35.429688 0.941406 32.292969 C 0.941406 29.152344 19.355469 24.304688 21.613281 22.085938 C 23.871094 19.867188 28.800781 1.761719 31.992188 1.761719 C 35.1875 1.761719 40.117188 19.867188 42.375 22.085938 C 44.632812 24.304688 63.046875 29.152344 63.046875 32.292969 C 63.046875 35.429688 44.632812 40.277344 42.375 42.496094 C 40.117188 44.714844 35.1875 62.820312 31.992188 62.820312 Z M 31.992188 62.820312 "/></g></svg>
