<svg width="64" height="64" viewBox="0 0 64 64" version="1.1" xmlns:inkscape="http://www.inkscape.org/namespaces/inkscape"><defs><linearGradient id="linear0" gradientUnits="userSpaceOnUse" x1="0" y1="0" x2="0" y2="1" gradientTransform="matrix(59.215341,0,0,39.681289,2.361658,14.009207)"><stop offset="0" style="stop-color:rgb(41.960785%,64.313728%,100%);stop-opacity:1;"/><stop offset="1" style="stop-color:rgb(0%,43.137255%,100%);stop-opacity:1;"/></linearGradient><linearGradient id="linear1" gradientUnits="userSpaceOnUse" x1="0" y1="0" x2="0" y2="1" gradientTransform="matrix(59.215341,0,0,39.681289,2.361658,14.009207)"><stop offset="0" style="stop-color:rgb(41.960785%,64.313728%,100%);stop-opacity:1;"/><stop offset="1" style="stop-color:rgb(0%,43.137255%,100%);stop-opacity:1;"/></linearGradient><filter style="color-interpolation-filters:sRGB;" inkscape:label="Diffuse Light" id="filter184" x="-0.0375" y="-0.0375" width="1.075" height="1.075"><feGaussianBlur in="SourceGraphic" stdDeviation="1" result="blur" id="feGaussianBlur174" /><feDiffuseLighting diffuseConstant="1" surfaceScale="10" lighting-color="rgb(255,255,255)" result="diffuse" id="feDiffuseLighting178"><feDistantLight elevation="8" azimuth="235" id="feDistantLight176" /></feDiffuseLighting><feComposite in="diffuse" in2="diffuse" operator="arithmetic" k1="1" result="composite1" id="feComposite180" /><feComposite in="composite1" in2="SourceGraphic" k1="1" operator="arithmetic" k3="1" result="composite2" id="feComposite182" /></filter></defs><g id="surface1" style="filter:url(#filter184)"><path style=" stroke:none;fill-rule:nonzero;fill:url(#linear0);" d="M 21.589844 14.445312 L 11.675781 14.527344 L 16.632812 26.574219 L 11.675781 26.574219 L 11.675781 30.015625 L 16.632812 30.015625 L 16.632812 33.460938 L 11.675781 33.460938 L 11.675781 36.902344 L 16.632812 36.902344 L 11.675781 48.949219 L 21.589844 48.949219 L 33.984375 40.34375 C 38.941406 40 46.375 38.621094 46.375 38.621094 L 63.726562 38.621094 L 63.726562 36.902344 L 52.574219 36.902344 C 58.644531 35.179688 61.246094 33.460938 61.246094 31.738281 C 61.246094 30.015625 58.742188 28.296875 52.574219 26.558594 L 63.726562 26.558594 L 63.726562 24.839844 L 47.617188 24.851562 C 47.617188 24.851562 38.941406 23.472656 33.984375 23.128906 Z M 21.589844 14.445312 "/><path style=" stroke:none;fill-rule:nonzero;fill:url(#linear1);" d="M 3.804688 26.789062 L 7.613281 29.242188 L 0.890625 31.695312 L 7.613281 34.148438 L 3.804688 36.601562 L 9.757812 36.601562 L 9.84375 26.789062 Z M 3.804688 26.789062 "/></g></svg>
