<svg width="64" height="64" viewBox="0 0 64 64" version="1.1" xmlns:inkscape="http://www.inkscape.org/namespaces/inkscape"><defs><linearGradient id="linear0" gradientUnits="userSpaceOnUse" x1="0" y1="0" x2="0" y2="1" gradientTransform="matrix(56,0,0,35.898438,4,14.050781)"><stop offset="0" style="stop-color:rgb(81.960785%,70.980394%,59.215689%);stop-opacity:1;"/><stop offset="1" style="stop-color:rgb(65.098041%,53.725493%,41.568628%);stop-opacity:1;"/></linearGradient><filter style="color-interpolation-filters:sRGB;" inkscape:label="Diffuse Light" id="filter184" x="-0.0375" y="-0.0375" width="1.075" height="1.075"><feGaussianBlur in="SourceGraphic" stdDeviation="1" result="blur" id="feGaussianBlur174" /><feDiffuseLighting diffuseConstant="1" surfaceScale="10" lighting-color="rgb(255,255,255)" result="diffuse" id="feDiffuseLighting178"><feDistantLight elevation="8" azimuth="235" id="feDistantLight176" /></feDiffuseLighting><feComposite in="diffuse" in2="diffuse" operator="arithmetic" k1="1" result="composite1" id="feComposite180" /><feComposite in="composite1" in2="SourceGraphic" k1="1" operator="arithmetic" k3="1" result="composite2" id="feComposite182" /></filter></defs><g id="surface1" style="filter:url(#filter184)"><path style=" stroke:none;fill-rule:nonzero;fill:url(#linear0);" d="M 3.46875 13.042969 C 3.46875 17.625 8.253906 22.207031 8.253906 22.207031 L 8.253906 40.542969 C 8.253906 52 17.820312 58.875 24.996094 58.875 L 34.566406 58.875 C 44.132812 58.875 56.09375 45.125 56.09375 35.957031 L 56.09375 22.207031 C 56.09375 22.207031 60.878906 16.480469 60.878906 11.667969 C 60.878906 6.164062 59.683594 3.875 53.703125 3.875 C 46.527344 3.875 44.132812 10.75 44.132812 10.75 L 29.78125 3.875 L 32.171875 8.457031 L 27.390625 6.164062 L 27.390625 8.457031 L 17.820312 10.75 C 17.820312 10.75 15.429688 6.164062 10.644531 6.164062 C 5.863281 6.164062 3.46875 8.457031 3.46875 13.042969 Z M 3.46875 13.042969 "/></g></svg>
