<svg width="64" height="64" viewBox="0 0 64 64" version="1.1" xmlns:inkscape="http://www.inkscape.org/namespaces/inkscape"><defs><linearGradient id="linear0" gradientUnits="userSpaceOnUse" x1="0" y1="0" x2="0" y2="1" gradientTransform="matrix(56,0,0,35.898438,4,14.050781)"><stop offset="0" style="stop-color:rgb(75.686276%,77.64706%,83.92157%);stop-opacity:1;"/><stop offset="1" style="stop-color:rgb(43.529412%,45.09804%,50.196081%);stop-opacity:1;"/></linearGradient><filter style="color-interpolation-filters:sRGB;" inkscape:label="Diffuse Light" id="filter184" x="-0.0375" y="-0.0375" width="1.075" height="1.075"><feGaussianBlur in="SourceGraphic" stdDeviation="1" result="blur" id="feGaussianBlur174" /><feDiffuseLighting diffuseConstant="1" surfaceScale="10" lighting-color="rgb(255,255,255)" result="diffuse" id="feDiffuseLighting178"><feDistantLight elevation="8" azimuth="235" id="feDistantLight176" /></feDiffuseLighting><feComposite in="diffuse" in2="diffuse" operator="arithmetic" k1="1" result="composite1" id="feComposite180" /><feComposite in="composite1" in2="SourceGraphic" k1="1" operator="arithmetic" k3="1" result="composite2" id="feComposite182" /></filter></defs><g id="surface1" style="filter:url(#filter184)"><path style=" stroke:none;fill-rule:nonzero;fill:url(#linear0);" d="M 30.667969 1.359375 L 30.667969 16.027344 L 14.667969 32.027344 L 30.667969 48.027344 L 30.667969 62.691406 C 31.554688 62.730469 32.445312 62.730469 33.332031 62.691406 L 33.332031 48.027344 L 41.332031 40.027344 L 45.332031 44.027344 L 47 42.359375 L 41.332031 36.691406 L 32 46.027344 L 18 32.027344 L 32 18.027344 L 41.332031 27.359375 L 47 21.691406 L 45.332031 20.027344 L 41.332031 24.027344 L 33.332031 16.027344 L 33.332031 1.359375 C 32.445312 1.320312 31.554688 1.320312 30.667969 1.359375 Z M 32 29.359375 C 30.527344 29.359375 29.332031 30.554688 29.332031 32.027344 C 29.332031 33.5 30.527344 34.691406 32 34.691406 C 33.472656 34.691406 34.667969 33.5 34.667969 32.027344 C 34.667969 30.554688 33.472656 29.359375 32 29.359375 Z M 32 29.359375 "/></g></svg>
