<svg width="64" height="64" viewBox="0 0 64 64" version="1.1" xmlns:inkscape="http://www.inkscape.org/namespaces/inkscape"><defs><linearGradient id="linear0" gradientUnits="userSpaceOnUse" x1="0" y1="0" x2="0" y2="1" gradientTransform="matrix(56,0,0,35.898438,4,14.050781)"><stop offset="0" style="stop-color:rgb(81.960785%,70.980394%,59.215689%);stop-opacity:1;"/><stop offset="1" style="stop-color:rgb(65.098041%,53.725493%,41.568628%);stop-opacity:1;"/></linearGradient><filter style="color-interpolation-filters:sRGB;" inkscape:label="Diffuse Light" id="filter184" x="-0.0375" y="-0.0375" width="1.075" height="1.075"><feGaussianBlur in="SourceGraphic" stdDeviation="1" result="blur" id="feGaussianBlur174" /><feDiffuseLighting diffuseConstant="1" surfaceScale="10" lighting-color="rgb(255,255,255)" result="diffuse" id="feDiffuseLighting178"><feDistantLight elevation="8" azimuth="235" id="feDistantLight176" /></feDiffuseLighting><feComposite in="diffuse" in2="diffuse" operator="arithmetic" k1="1" result="composite1" id="feComposite180" /><feComposite in="composite1" in2="SourceGraphic" k1="1" operator="arithmetic" k3="1" result="composite2" id="feComposite182" /></filter></defs><g id="surface1" style="filter:url(#filter184)"><path style=" stroke:none;fill-rule:nonzero;fill:url(#linear0);" d="M 31.46875 6.433594 C 15.503906 6.433594 11.515625 21.769531 11.515625 21.769531 L 11.515625 22.585938 C 6.222656 24.691406 3.53125 30.859375 3.53125 37.101562 C 3.53125 44.769531 7.523438 52.4375 15.503906 52.4375 C 19.496094 52.4375 19.496094 48.605469 19.496094 48.605469 L 19.496094 25.601562 C 19.496094 25.601562 19.496094 21.769531 15.503906 21.769531 C 15.503906 21.769531 19.496094 10.269531 31.46875 10.269531 C 43.441406 10.269531 47.433594 21.769531 47.433594 21.769531 C 43.441406 21.769531 43.441406 25.601562 43.441406 25.601562 L 43.441406 48.605469 C 43.441406 48.605469 43.441406 52.4375 47.433594 52.4375 L 39.449219 52.4375 C 37.238281 52.4375 35.460938 54.148438 35.460938 56.269531 C 35.460938 58.394531 37.238281 60.105469 39.449219 60.105469 C 41.660156 60.105469 43.441406 58.394531 43.441406 56.269531 C 47.433594 56.269531 51.421875 52.4375 51.421875 52.4375 C 55.691406 47.894531 59.3125 42.675781 59.40625 37.101562 C 59.40625 30.859375 56.714844 24.691406 51.421875 22.585938 L 51.421875 21.769531 C 51.421875 21.769531 47.433594 6.433594 31.46875 6.433594 Z M 27.476562 17.933594 L 27.476562 40.9375 L 35.460938 40.9375 L 35.460938 17.933594 Z M 27.476562 17.933594 "/></g></svg>
