<svg width="64" height="64" viewBox="0 0 64 64" version="1.1" xmlns:inkscape="http://www.inkscape.org/namespaces/inkscape"><defs><linearGradient id="linear0" gradientUnits="userSpaceOnUse" x1="0" y1="0" x2="0" y2="1" gradientTransform="matrix(56,0,0,35.898438,4,14.050781)"><stop offset="0" style="stop-color:rgb(0%,78.823531%,36.862746%);stop-opacity:1;"/><stop offset="1" style="stop-color:rgb(0%,54.11765%,25.098041%);stop-opacity:1;"/></linearGradient><filter style="color-interpolation-filters:sRGB;" inkscape:label="Diffuse Light" id="filter184" x="-0.0375" y="-0.0375" width="1.075" height="1.075"><feGaussianBlur in="SourceGraphic" stdDeviation="1" result="blur" id="feGaussianBlur174" /><feDiffuseLighting diffuseConstant="1" surfaceScale="10" lighting-color="rgb(255,255,255)" result="diffuse" id="feDiffuseLighting178"><feDistantLight elevation="8" azimuth="235" id="feDistantLight176" /></feDiffuseLighting><feComposite in="diffuse" in2="diffuse" operator="arithmetic" k1="1" result="composite1" id="feComposite180" /><feComposite in="composite1" in2="SourceGraphic" k1="1" operator="arithmetic" k3="1" result="composite2" id="feComposite182" /></filter></defs><g id="surface1" style="filter:url(#filter184)"><path style=" stroke:none;fill-rule:nonzero;fill:url(#linear0);" d="M 9.410156 4.558594 L 9.410156 6.882812 L 4.625 6.882812 L 4.625 11.53125 L 2.234375 11.53125 L 2.234375 39.414062 L 9.410156 39.414062 L 9.410156 46.386719 L 16.589844 46.386719 L 16.589844 53.359375 L 23.769531 53.359375 L 23.769531 60.328125 L 38.125 60.328125 L 38.125 53.359375 L 45.304688 53.359375 L 45.304688 46.386719 L 52.484375 46.386719 L 52.484375 39.414062 L 59.660156 39.414062 L 59.660156 11.53125 L 57.269531 11.53125 L 57.269531 6.882812 L 52.484375 6.882812 L 52.484375 4.558594 L 42.910156 4.558594 L 42.910156 6.882812 L 38.125 6.882812 L 38.125 11.53125 L 35.734375 11.53125 L 35.734375 18.5 L 26.160156 18.5 L 26.160156 11.53125 L 23.769531 11.53125 L 23.769531 6.882812 L 18.984375 6.882812 L 18.984375 4.558594 Z M 9.410156 4.558594 "/></g></svg>
