<svg width="64" height="64" viewBox="0 0 64 64" version="1.1" xmlns:inkscape="http://www.inkscape.org/namespaces/inkscape"><defs><linearGradient id="linear0" gradientUnits="userSpaceOnUse" x1="0" y1="0" x2="0" y2="1" gradientTransform="matrix(60.342289,0,0,40.786827,1.868228,18.082446)"><stop offset="0" style="stop-color:rgb(0%,96.078432%,86.274511%);stop-opacity:1;"/><stop offset="1" style="stop-color:rgb(0%,54.901963%,49.411765%);stop-opacity:1;"/></linearGradient><linearGradient id="linear1" gradientUnits="userSpaceOnUse" x1="0" y1="0" x2="0" y2="1" gradientTransform="matrix(60.342289,0,0,40.786827,1.868228,18.082446)"><stop offset="0" style="stop-color:rgb(0%,96.078432%,86.274511%);stop-opacity:1;"/><stop offset="1" style="stop-color:rgb(0%,54.901963%,49.411765%);stop-opacity:1;"/></linearGradient><linearGradient id="linear2" gradientUnits="userSpaceOnUse" x1="0" y1="0" x2="0" y2="1" gradientTransform="matrix(60.342289,0,0,40.786827,1.868228,18.082446)"><stop offset="0" style="stop-color:rgb(0%,96.078432%,86.274511%);stop-opacity:1;"/><stop offset="1" style="stop-color:rgb(0%,54.901963%,49.411765%);stop-opacity:1;"/></linearGradient><linearGradient id="linear3" gradientUnits="userSpaceOnUse" x1="0" y1="0" x2="0" y2="1" gradientTransform="matrix(60.342289,0,0,40.786827,1.868228,18.082446)"><stop offset="0" style="stop-color:rgb(0%,96.078432%,86.274511%);stop-opacity:1;"/><stop offset="1" style="stop-color:rgb(0%,54.901963%,49.411765%);stop-opacity:1;"/></linearGradient><filter style="color-interpolation-filters:sRGB;" inkscape:label="Diffuse Light" id="filter184" x="-0.0375" y="-0.0375" width="1.075" height="1.075"><feGaussianBlur in="SourceGraphic" stdDeviation="1" result="blur" id="feGaussianBlur174" /><feDiffuseLighting diffuseConstant="1" surfaceScale="10" lighting-color="rgb(255,255,255)" result="diffuse" id="feDiffuseLighting178"><feDistantLight elevation="8" azimuth="235" id="feDistantLight176" /></feDiffuseLighting><feComposite in="diffuse" in2="diffuse" operator="arithmetic" k1="1" result="composite1" id="feComposite180" /><feComposite in="composite1" in2="SourceGraphic" k1="1" operator="arithmetic" k3="1" result="composite2" id="feComposite182" /></filter></defs><g id="surface1" style="filter:url(#filter184)"><path style=" stroke:none;fill-rule:nonzero;fill:url(#linear0);" d="M 1.6875 35.386719 L 1.6875 52.375 C 1.6875 53.941406 2.824219 55.210938 4.234375 55.210938 L 9.332031 55.210938 C 10.746094 55.210938 11.878906 53.941406 11.878906 52.375 L 11.878906 35.386719 Z M 52.652344 35.386719 L 52.652344 52.375 C 52.652344 53.941406 53.789062 55.210938 55.199219 55.210938 L 60.296875 55.210938 C 61.710938 55.210938 62.84375 53.941406 62.84375 52.375 L 62.84375 35.386719 Z M 52.652344 35.386719 "/><path style=" stroke:none;fill-rule:nonzero;fill:url(#linear1);" d="M 9.332031 24.066406 C 9.332031 24.066406 11.878906 7.082031 24.621094 7.082031 L 39.910156 7.082031 C 52.652344 7.082031 55.199219 24.066406 55.199219 24.066406 Z M 9.332031 24.066406 "/><path style=" stroke:none;fill-rule:nonzero;fill:url(#linear2);" d="M 5.539062 35.082031 L 5.539062 43.574219 L 15.738281 49.242188 L 15.738281 54.90625 L 23.382812 57.734375 L 43.761719 57.734375 L 51.40625 54.90625 L 51.40625 49.242188 L 61.605469 43.574219 L 61.605469 35.082031 L 51.40625 37.917969 L 15.738281 37.917969 Z M 5.539062 35.082031 "/><path style=" stroke:none;fill-rule:nonzero;fill:url(#linear3);" d="M 17.148438 25.714844 L 17.148438 34.210938 L 22.25 37.039062 L 42.625 37.039062 L 47.726562 34.210938 L 47.726562 25.714844 Z M 1.859375 28.546875 L 1.859375 35.621094 L 4.40625 37.039062 L 4.40625 34.210938 L 9.503906 34.210938 L 9.503906 31.375 Z M 63.015625 28.546875 L 55.371094 31.375 L 55.371094 34.210938 L 60.46875 34.210938 L 60.46875 37.039062 L 63.015625 35.621094 Z M 63.015625 28.546875 "/></g></svg>
