<svg width="64" height="64" viewBox="0 0 64 64" version="1.1" xmlns:inkscape="http://www.inkscape.org/namespaces/inkscape"><defs><linearGradient id="linear0" gradientUnits="userSpaceOnUse" x1="0" y1="0" x2="0" y2="1" gradientTransform="matrix(56,0,0,35.898438,4,14.050781)"><stop offset="0" style="stop-color:rgb(75.686276%,77.64706%,83.92157%);stop-opacity:1;"/><stop offset="1" style="stop-color:rgb(43.529412%,45.09804%,50.196081%);stop-opacity:1;"/></linearGradient><linearGradient id="linear1" gradientUnits="userSpaceOnUse" x1="0" y1="0" x2="0" y2="1" gradientTransform="matrix(56,0,0,35.898438,4,14.050781)"><stop offset="0" style="stop-color:rgb(75.686276%,77.64706%,83.92157%);stop-opacity:1;"/><stop offset="1" style="stop-color:rgb(43.529412%,45.09804%,50.196081%);stop-opacity:1;"/></linearGradient><linearGradient id="linear2" gradientUnits="userSpaceOnUse" x1="0" y1="0" x2="0" y2="1" gradientTransform="matrix(56,0,0,35.898438,4,14.050781)"><stop offset="0" style="stop-color:rgb(75.686276%,77.64706%,83.92157%);stop-opacity:1;"/><stop offset="1" style="stop-color:rgb(43.529412%,45.09804%,50.196081%);stop-opacity:1;"/></linearGradient><filter style="color-interpolation-filters:sRGB;" inkscape:label="Diffuse Light" id="filter184" x="-0.0375" y="-0.0375" width="1.075" height="1.075"><feGaussianBlur in="SourceGraphic" stdDeviation="1" result="blur" id="feGaussianBlur174" /><feDiffuseLighting diffuseConstant="1" surfaceScale="10" lighting-color="rgb(255,255,255)" result="diffuse" id="feDiffuseLighting178"><feDistantLight elevation="8" azimuth="235" id="feDistantLight176" /></feDiffuseLighting><feComposite in="diffuse" in2="diffuse" operator="arithmetic" k1="1" result="composite1" id="feComposite180" /><feComposite in="composite1" in2="SourceGraphic" k1="1" operator="arithmetic" k3="1" result="composite2" id="feComposite182" /></filter></defs><g id="surface1" style="filter:url(#filter184)"><path style=" stroke:none;fill-rule:nonzero;fill:url(#linear0);" d="M 32.300781 4.945312 L 26.628906 9.359375 L 26.628906 15.972656 L 20.964844 20.382812 L 20.964844 18.179688 L 18.125 15.972656 L 15.292969 18.179688 L 15.292969 24.796875 L 9.621094 29.207031 L 9.621094 27 L 8.207031 25.898438 L 6.789062 27 L 6.789062 35.824219 L 3.957031 46.847656 L 6.789062 55.675781 L 15.292969 60.082031 L 12.460938 49.058594 L 15.292969 38.027344 L 32.300781 29.207031 L 35.132812 27 Z M 32.300781 4.945312 "/><path style=" stroke:none;fill-rule:nonzero;fill:url(#linear1);" d="M 32.300781 4.945312 L 37.972656 9.359375 L 37.972656 15.972656 L 43.636719 20.382812 L 43.636719 18.179688 L 46.476562 15.972656 L 49.308594 18.179688 L 49.308594 24.796875 L 54.980469 29.207031 L 54.980469 27 L 56.390625 25.898438 L 57.8125 27 L 57.8125 35.824219 L 60.644531 46.847656 L 57.8125 55.675781 L 49.308594 60.082031 L 52.140625 49.058594 L 49.308594 38.027344 L 32.300781 29.207031 Z M 32.300781 4.945312 "/><path style=" stroke:none;fill-rule:nonzero;fill:url(#linear2);" d="M 20.964844 42.441406 L 23.796875 42.441406 L 23.796875 51.261719 L 20.964844 51.261719 Z M 40.804688 42.441406 L 43.636719 42.441406 L 43.636719 51.261719 L 40.804688 51.261719 Z M 40.804688 42.441406 "/></g></svg>
