<svg width="64" height="64" viewBox="0 0 64 64" version="1.1" xmlns:inkscape="http://www.inkscape.org/namespaces/inkscape"><defs><linearGradient id="linear0" gradientUnits="userSpaceOnUse" x1="0" y1="0" x2="0" y2="1" gradientTransform="matrix(56,0,0,35.898438,4,14.050781)"><stop offset="0" style="stop-color:rgb(82.352942%,61.176473%,100%);stop-opacity:1;"/><stop offset="1" style="stop-color:rgb(66.666669%,0%,100%);stop-opacity:1;"/></linearGradient><linearGradient id="linear1" gradientUnits="userSpaceOnUse" x1="0" y1="0" x2="0" y2="1" gradientTransform="matrix(56,0,0,35.898438,4,14.050781)"><stop offset="0" style="stop-color:rgb(82.352942%,61.176473%,100%);stop-opacity:1;"/><stop offset="1" style="stop-color:rgb(66.666669%,0%,100%);stop-opacity:1;"/></linearGradient><linearGradient id="linear2" gradientUnits="userSpaceOnUse" x1="0" y1="0" x2="0" y2="1" gradientTransform="matrix(56,0,0,35.898438,4,14.050781)"><stop offset="0" style="stop-color:rgb(82.352942%,61.176473%,100%);stop-opacity:1;"/><stop offset="1" style="stop-color:rgb(66.666669%,0%,100%);stop-opacity:1;"/></linearGradient><filter style="color-interpolation-filters:sRGB;" inkscape:label="Diffuse Light" id="filter184" x="-0.0375" y="-0.0375" width="1.075" height="1.075"><feGaussianBlur in="SourceGraphic" stdDeviation="1" result="blur" id="feGaussianBlur174" /><feDiffuseLighting diffuseConstant="1" surfaceScale="10" lighting-color="rgb(255,255,255)" result="diffuse" id="feDiffuseLighting178"><feDistantLight elevation="8" azimuth="235" id="feDistantLight176" /></feDiffuseLighting><feComposite in="diffuse" in2="diffuse" operator="arithmetic" k1="1" result="composite1" id="feComposite180" /><feComposite in="composite1" in2="SourceGraphic" k1="1" operator="arithmetic" k3="1" result="composite2" id="feComposite182" /></filter></defs><g id="surface1" style="filter:url(#filter184)"><path style=" stroke:none;fill-rule:nonzero;fill:url(#linear0);" d="M 19.890625 3.394531 L 19.890625 21.664062 L 47.152344 21.664062 L 47.152344 16.445312 L 24.851562 16.445312 L 24.851562 3.394531 Z M 5.023438 16.445312 L 5.023438 39.929688 L 9.980469 39.929688 L 9.980469 16.445312 Z M 12.457031 19.050781 L 12.457031 39.929688 L 49.628906 39.929688 L 49.628906 37.324219 L 14.941406 37.324219 L 14.941406 21.664062 L 17.417969 21.664062 L 17.417969 19.050781 Z M 12.457031 19.050781 "/><path style=" stroke:none;fill-rule:nonzero;fill:url(#linear1);" d="M 27.328125 3.394531 L 27.328125 11.222656 L 34.761719 11.222656 L 34.761719 3.394531 Z M 39.71875 3.394531 L 39.71875 11.222656 L 47.152344 11.222656 L 47.152344 3.394531 Z M 39.71875 3.394531 "/><path style=" stroke:none;fill-rule:nonzero;fill:url(#linear2);" d="M 5.023438 3.394531 L 5.023438 13.835938 L 9.980469 13.835938 L 9.980469 3.394531 Z M 17.417969 24.273438 L 17.417969 29.492188 L 22.375 29.492188 L 22.375 24.273438 Z M 52.113281 24.273438 L 52.113281 26.878906 L 34.761719 26.878906 L 34.761719 34.707031 L 52.113281 34.707031 L 52.113281 39.929688 L 59.546875 39.929688 L 59.546875 34.707031 L 54.589844 34.707031 L 54.589844 29.492188 L 59.546875 29.492188 L 59.546875 24.273438 Z M 14.941406 42.535156 L 14.941406 60.808594 L 27.328125 60.808594 L 27.328125 52.980469 L 19.890625 52.980469 L 19.890625 42.535156 Z M 34.761719 42.535156 L 34.761719 60.808594 L 47.152344 60.808594 L 47.152344 52.980469 L 39.71875 52.980469 L 39.71875 42.535156 Z M 34.761719 42.535156 "/></g></svg>
