<svg width="64" height="64" viewBox="0 0 64 64" version="1.1" xmlns:inkscape="http://www.inkscape.org/namespaces/inkscape"><defs><linearGradient id="linear0" gradientUnits="userSpaceOnUse" x1="0" y1="0" x2="0" y2="1" gradientTransform="matrix(63.25692,0,0,52,0.531978,6.992668)"><stop offset="0" style="stop-color:rgb(61.176473%,69.803923%,85.09804%);stop-opacity:1;"/><stop offset="1" style="stop-color:rgb(44.313726%,52.156866%,65.882355%);stop-opacity:1;"/></linearGradient><filter style="color-interpolation-filters:sRGB;" inkscape:label="Diffuse Light" id="filter184" x="-0.0375" y="-0.0375" width="1.075" height="1.075"><feGaussianBlur in="SourceGraphic" stdDeviation="1" result="blur" id="feGaussianBlur174" /><feDiffuseLighting diffuseConstant="1" surfaceScale="10" lighting-color="rgb(255,255,255)" result="diffuse" id="feDiffuseLighting178"><feDistantLight elevation="8" azimuth="235" id="feDistantLight176" /></feDiffuseLighting><feComposite in="diffuse" in2="diffuse" operator="arithmetic" k1="1" result="composite1" id="feComposite180" /><feComposite in="composite1" in2="SourceGraphic" k1="1" operator="arithmetic" k3="1" result="composite2" id="feComposite182" /></filter></defs><g id="surface1" style="filter:url(#filter184)"><path style=" stroke:none;fill-rule:nonzero;fill:url(#linear0);" d="M 49.953125 6.992188 C 43.164062 6.996094 37.382812 11.980469 36.300781 18.757812 L 26.5 35.21875 C 25.757812 35.070312 25.007812 34.996094 24.253906 34.992188 C 22.460938 34.996094 20.699219 35.410156 19.085938 36.203125 L 1.589844 25.984375 C 0.902344 28.9375 0.546875 31.957031 0.53125 34.992188 C 0.546875 36.460938 0.644531 37.929688 0.816406 39.390625 L 12.421875 46.164062 C 12.402344 46.441406 12.394531 46.714844 12.394531 46.992188 C 12.394531 53.621094 17.703125 58.992188 24.253906 58.992188 C 30.804688 58.992188 36.113281 53.621094 36.113281 46.992188 C 36.109375 46.613281 36.089844 46.234375 36.050781 45.859375 L 53.355469 34.539062 C 59.484375 32.964844 63.777344 27.390625 63.789062 20.992188 C 63.789062 13.261719 57.59375 6.992188 49.953125 6.992188 Z M 49.953125 10.992188 C 55.410156 10.992188 59.835938 15.46875 59.835938 20.992188 C 59.835938 26.515625 55.410156 30.992188 49.953125 30.992188 C 44.492188 30.992188 40.066406 26.515625 40.066406 20.992188 C 40.066406 15.46875 44.492188 10.992188 49.953125 10.992188 Z M 49.953125 14.992188 C 46.675781 14.992188 44.019531 17.679688 44.019531 20.992188 C 44.019531 24.304688 46.675781 26.992188 49.953125 26.992188 C 53.226562 26.992188 55.882812 24.304688 55.882812 20.992188 C 55.882812 17.679688 53.226562 14.992188 49.953125 14.992188 Z M 24.253906 38.992188 C 28.621094 38.992188 32.160156 42.574219 32.160156 46.992188 C 32.160156 51.410156 28.621094 54.992188 24.253906 54.992188 C 20.480469 54.988281 17.242188 52.289062 16.507812 48.546875 L 19.296875 50.179688 C 22.140625 51.839844 25.753906 50.863281 27.394531 47.984375 C 29.035156 45.105469 28.070312 41.449219 25.226562 39.789062 L 23.890625 39.007812 C 24.011719 39 24.132812 38.996094 24.253906 38.992188 Z M 24.253906 38.992188 "/></g></svg>
