<svg width="64" height="64" viewBox="0 0 64 64" version="1.1" xmlns:inkscape="http://www.inkscape.org/namespaces/inkscape"><defs><linearGradient id="linear0" gradientUnits="userSpaceOnUse" x1="0" y1="0" x2="0" y2="1" gradientTransform="matrix(56,0,0,35.898438,4,14.050781)"><stop offset="0" style="stop-color:rgb(100%,63.137257%,63.137257%);stop-opacity:1;"/><stop offset="1" style="stop-color:rgb(100%,27.843139%,27.843139%);stop-opacity:1;"/></linearGradient><filter style="color-interpolation-filters:sRGB;" inkscape:label="Diffuse Light" id="filter184" x="-0.0375" y="-0.0375" width="1.075" height="1.075"><feGaussianBlur in="SourceGraphic" stdDeviation="1" result="blur" id="feGaussianBlur174" /><feDiffuseLighting diffuseConstant="1" surfaceScale="10" lighting-color="rgb(255,255,255)" result="diffuse" id="feDiffuseLighting178"><feDistantLight elevation="8" azimuth="235" id="feDistantLight176" /></feDiffuseLighting><feComposite in="diffuse" in2="diffuse" operator="arithmetic" k1="1" result="composite1" id="feComposite180" /><feComposite in="composite1" in2="SourceGraphic" k1="1" operator="arithmetic" k3="1" result="composite2" id="feComposite182" /></filter></defs><g id="surface1" style="filter:url(#filter184)"><path style=" stroke:none;fill-rule:nonzero;fill:url(#linear0);" d="M 12.8125 4.601562 C 5.671875 7.789062 3.289062 13.105469 3.289062 19.480469 C 3.289062 25.859375 5.671875 30.109375 12.8125 34.359375 C 12.8125 49.238281 15.191406 55.617188 18.761719 57.742188 C 22.332031 59.867188 27.09375 59.867188 31.855469 59.867188 C 36.617188 59.867188 41.375 59.867188 44.945312 57.742188 C 48.515625 55.617188 50.898438 49.238281 50.898438 34.359375 C 58.039062 30.109375 60.417969 25.859375 60.417969 19.480469 C 60.417969 13.105469 58.039062 7.789062 50.898438 4.601562 C 48.515625 3.539062 52.683594 7.789062 52.085938 8.855469 C 51.492188 9.917969 48.515625 9.917969 50.898438 10.980469 C 54.46875 12.574219 55.65625 16.292969 55.65625 19.480469 C 55.65625 22.667969 53.277344 25.859375 48.515625 27.984375 C 43.757812 25.859375 34.234375 25.859375 31.855469 25.859375 C 29.472656 25.859375 19.953125 25.859375 15.191406 27.984375 C 10.429688 25.859375 8.050781 22.667969 8.050781 19.480469 C 8.050781 16.292969 9.242188 12.574219 12.8125 10.980469 C 15.191406 9.917969 12.214844 9.917969 11.621094 8.855469 C 11.027344 7.789062 15.191406 3.539062 12.8125 4.601562 Z M 12.8125 4.601562 "/></g></svg>
