<svg width="64" height="64" viewBox="0 0 64 64" version="1.1" xmlns:inkscape="http://www.inkscape.org/namespaces/inkscape"><defs><linearGradient id="linear0" gradientUnits="userSpaceOnUse" x1="0" y1="0" x2="0" y2="1" gradientTransform="matrix(56,0,0,35.898438,4,14.050781)"><stop offset="0" style="stop-color:rgb(0%,78.823531%,36.862746%);stop-opacity:1;"/><stop offset="1" style="stop-color:rgb(0%,54.11765%,25.098041%);stop-opacity:1;"/></linearGradient><filter style="color-interpolation-filters:sRGB;" inkscape:label="Diffuse Light" id="filter184" x="-0.0375" y="-0.0375" width="1.075" height="1.075"><feGaussianBlur in="SourceGraphic" stdDeviation="1" result="blur" id="feGaussianBlur174" /><feDiffuseLighting diffuseConstant="1" surfaceScale="10" lighting-color="rgb(255,255,255)" result="diffuse" id="feDiffuseLighting178"><feDistantLight elevation="8" azimuth="235" id="feDistantLight176" /></feDiffuseLighting><feComposite in="diffuse" in2="diffuse" operator="arithmetic" k1="1" result="composite1" id="feComposite180" /><feComposite in="composite1" in2="SourceGraphic" k1="1" operator="arithmetic" k3="1" result="composite2" id="feComposite182" /></filter></defs><g id="surface1" style="filter:url(#filter184)"><path style=" stroke:none;fill-rule:nonzero;fill:url(#linear0);" d="M 29.453125 2.59375 C 26.761719 2.59375 23.40625 5.40625 24.070312 7.753906 C 24.429688 9.015625 28.03125 8.742188 28.03125 8.742188 C 28.03125 8.742188 26.792969 8.273438 26.761719 7.753906 C 26.695312 6.539062 28.183594 5.171875 29.453125 5.171875 C 30.722656 5.171875 32.144531 6.535156 32.144531 7.753906 C 32.144531 8.96875 30.664062 9.964844 29.453125 10.332031 C 17.433594 14 2.542969 12.914062 2.542969 25.8125 C 2.542969 28.738281 4.78125 31.429688 8.539062 33.59375 C 8.144531 35.261719 7.929688 36.980469 7.925781 38.714844 C 7.925781 51.539062 18.769531 61.9375 32.144531 61.9375 C 45.519531 61.9375 56.363281 51.539062 56.363281 38.714844 C 56.363281 36.976562 56.15625 35.261719 55.761719 33.589844 C 59.515625 31.425781 61.746094 28.734375 61.746094 25.8125 C 61.746094 15.492188 50.984375 12.914062 40.21875 10.332031 C 38.273438 9.867188 34.835938 9.675781 34.835938 7.753906 C 34.835938 5.171875 32.144531 2.59375 29.453125 2.59375 Z M 29.453125 2.59375 "/></g></svg>
