<svg width="64" height="64" viewBox="0 0 64 64" version="1.1" xmlns:inkscape="http://www.inkscape.org/namespaces/inkscape"><defs><linearGradient id="linear0" gradientUnits="userSpaceOnUse" x1="0" y1="0" x2="0" y2="1" gradientTransform="matrix(56,0,0,35.898438,4,14.050781)"><stop offset="0" style="stop-color:rgb(100%,63.137257%,63.137257%);stop-opacity:1;"/><stop offset="1" style="stop-color:rgb(100%,27.843139%,27.843139%);stop-opacity:1;"/></linearGradient><filter style="color-interpolation-filters:sRGB;" inkscape:label="Diffuse Light" id="filter184" x="-0.0375" y="-0.0375" width="1.075" height="1.075"><feGaussianBlur in="SourceGraphic" stdDeviation="1" result="blur" id="feGaussianBlur174" /><feDiffuseLighting diffuseConstant="1" surfaceScale="10" lighting-color="rgb(255,255,255)" result="diffuse" id="feDiffuseLighting178"><feDistantLight elevation="8" azimuth="235" id="feDistantLight176" /></feDiffuseLighting><feComposite in="diffuse" in2="diffuse" operator="arithmetic" k1="1" result="composite1" id="feComposite180" /><feComposite in="composite1" in2="SourceGraphic" k1="1" operator="arithmetic" k3="1" result="composite2" id="feComposite182" /></filter></defs><g id="surface1" style="filter:url(#filter184)"><path style=" stroke:none;fill-rule:nonzero;fill:url(#linear0);" d="M 23.230469 4.230469 C 19.308594 4.230469 16.128906 7.363281 16.128906 11.226562 C 16.128906 15.089844 19.308594 18.222656 23.230469 18.222656 C 27.152344 18.222656 30.332031 15.089844 30.332031 11.226562 C 30.332031 7.363281 27.152344 4.230469 23.230469 4.230469 Z M 43.117188 4.230469 C 39.195312 4.230469 36.015625 7.363281 36.015625 11.226562 C 36.015625 15.089844 39.195312 18.222656 43.117188 18.222656 C 47.039062 18.222656 50.21875 15.089844 50.21875 11.226562 C 50.21875 7.363281 47.039062 4.230469 43.117188 4.230469 Z M 11.867188 18.222656 C 7.945312 18.222656 4.765625 21.351562 4.765625 25.214844 C 4.765625 29.078125 7.945312 32.210938 11.867188 32.210938 C 15.789062 32.210938 18.96875 29.078125 18.96875 25.214844 C 18.96875 21.351562 15.789062 18.222656 11.867188 18.222656 Z M 54.480469 18.222656 C 50.558594 18.222656 47.378906 21.351562 47.378906 25.214844 C 47.378906 29.078125 50.558594 32.210938 54.480469 32.210938 C 58.40625 32.210938 61.585938 29.078125 61.585938 25.214844 C 61.585938 21.351562 58.40625 18.222656 54.480469 18.222656 Z M 33.175781 23.816406 C 23.707031 23.816406 16.128906 36.40625 16.128906 46.199219 C 16.128906 57.390625 25.777344 60.191406 33.175781 60.191406 C 40.570312 60.191406 50.21875 57.390625 50.21875 46.199219 C 50.21875 36.40625 42.644531 23.816406 33.175781 23.816406 Z M 33.175781 23.816406 "/></g></svg>
