<svg xmlns="http://www.w3.org/2000/svg" xmlns:xlink="http://www.w3.org/1999/xlink" width="64" height="64" viewBox="0 0 64 64" version="1.1"><g id="surface1"><path style=" stroke:none;fill-rule:nonzero;fill:rgb(24.705882%,24.705882%,24.705882%);fill-opacity:1;" d="M 10.078125 44.429688 L 12.816406 50.609375 L 29.21875 50.609375 L 45.621094 41.34375 L 45.621094 35.164062 L 10.078125 38.257812 Z M 10.078125 44.429688 "/><path style=" stroke:none;fill-rule:nonzero;fill:rgb(72.941178%,90.196079%,29.019609%);fill-opacity:1;" d="M 27 8.492188 L 18.285156 10.464844 L 12.816406 10.464844 C 10.085938 10.464844 8.617188 14.101562 7.34375 16.632812 C 3.644531 24.027344 1.882812 38.257812 1.882812 41.34375 C 1.882812 47.523438 7.34375 47.523438 7.34375 47.523438 C 7.34375 47.523438 10.773438 44.429688 12.816406 44.429688 C 17.492188 44.429688 22.464844 43.6875 27.023438 42.738281 Z M 30.46875 45.132812 C 25.078125 47.496094 17.8125 47.523438 12.816406 47.523438 C 10.773438 47.523438 7.34375 50.609375 7.34375 50.609375 C 7.34375 50.609375 15.546875 53.691406 26.488281 53.691406 C 37.417969 53.691406 40.148438 50.609375 40.148438 50.609375 C 40.148438 44.429688 37.417969 44.429688 30.46875 45.132812 Z M 30.46875 45.132812 "/><path style=" stroke:none;fill-rule:nonzero;fill:rgb(34.901962%,80.000001%,18.82353%);fill-opacity:1;" d="M 31.949219 7.371094 L 26.992188 8.492188 C 21.03125 12.066406 15.546875 20.40625 15.546875 25.898438 L 15.546875 32.078125 C 15.546875 36.449219 20.078125 39.960938 23.746094 41.34375 C 24.84375 41.757812 25.941406 42.230469 27.023438 42.738281 C 35.761719 40.910156 42.878906 38.257812 42.878906 38.257812 L 31.949219 44.429688 C 31.515625 44.671875 30.929688 45.089844 30.441406 45.117188 C 35.839844 48.046875 40.148438 50.609375 40.148438 50.609375 L 47.605469 53.984375 L 53.820312 50.609375 L 55.773438 42.445312 L 53.820312 41.34375 L 56.550781 41.34375 L 59.28125 33.625 L 56.550781 25.898438 L 53.820312 25.898438 L 56.207031 24.550781 L 56.550781 16.632812 L 52.242188 8.871094 L 45.621094 7.371094 Z M 19.648438 32.078125 C 20.398438 32.078125 21.015625 32.765625 21.015625 33.625 C 21.015625 34.476562 20.398438 35.164062 19.648438 35.164062 C 18.894531 35.164062 18.277344 34.476562 18.277344 33.625 C 18.277344 32.765625 18.894531 32.078125 19.648438 32.078125 Z M 19.648438 32.078125 "/><path style=" stroke:none;fill-rule:nonzero;fill:rgb(23.921569%,40.784314%,20.784314%);fill-opacity:1;" d="M 37.417969 10.464844 C 32.765625 10.464844 29.167969 14.878906 27.6875 21.085938 C 32.261719 24.089844 37.242188 29.453125 42.253906 29.445312 C 44.90625 28.25 45.621094 28.25 45.621094 25.898438 C 45.621094 19.730469 42.726562 10.464844 37.417969 10.464844 Z M 37.417969 10.464844 "/><path style=" stroke:none;fill-rule:nonzero;fill:rgb(93.333334%,43.137255%,31.764707%);fill-opacity:1;" d="M 34.679688 16.632812 C 31.828125 16.644531 29.175781 18.335938 27.695312 21.085938 L 40.046875 30.441406 C 40.832031 30.132812 41.582031 29.808594 42.253906 29.445312 C 42.671875 28.324219 42.878906 27.121094 42.878906 25.898438 C 42.878906 20.789062 39.210938 16.632812 34.679688 16.632812 Z M 34.679688 16.632812 "/><path style=" stroke:none;fill-rule:nonzero;fill:rgb(96.078432%,96.078432%,96.078432%);fill-opacity:1;" d="M 31.949219 19.730469 C 30.441406 19.730469 28.96875 20.199219 27.6875 21.085938 C 26.78125 22.652344 26.476562 24.359375 26.476562 25.898438 C 26.476562 27.617188 26.910156 29.300781 27.710938 30.765625 C 28.496094 31.5625 29.785156 32.078125 31.949219 32.078125 C 34.429688 32.078125 37.457031 31.425781 40.046875 30.441406 C 40.109375 29.960938 40.148438 29.472656 40.148438 28.992188 C 40.148438 23.871094 36.480469 19.730469 31.949219 19.730469 Z M 31.949219 19.730469 "/><path style=" stroke:none;fill-rule:nonzero;fill:rgb(38.82353%,79.215688%,70.19608%);fill-opacity:1;" d="M 36.050781 22.8125 C 33.78125 22.8125 31.949219 24.886719 31.949219 27.445312 C 31.949219 29.425781 33.070312 31.183594 34.726562 31.824219 C 36.097656 31.617188 37.492188 31.28125 38.835938 30.839844 C 39.53125 30.117188 39.980469 29.136719 40.109375 28.070312 C 39.980469 26.675781 39.582031 25.347656 38.933594 24.160156 C 38.164062 23.300781 37.128906 22.8125 36.050781 22.8125 Z M 36.050781 22.8125 "/><path style=" stroke:none;fill-rule:nonzero;fill:rgb(24.705882%,24.705882%,24.705882%);fill-opacity:1;" d="M 37.417969 27.445312 C 37.417969 28.296875 36.800781 28.992188 36.050781 28.992188 C 35.296875 28.992188 34.679688 28.296875 34.679688 27.445312 C 34.679688 26.597656 35.296875 25.898438 36.050781 25.898438 C 36.800781 25.898438 37.417969 26.597656 37.417969 27.445312 Z M 37.417969 27.445312 "/><path style=" stroke:none;fill-rule:nonzero;fill:rgb(93.333334%,38.039216%,25.882354%);fill-opacity:1;" d="M 52.242188 8.871094 L 56.207031 24.550781 L 59.28125 22.8125 L 59.28125 10.464844 Z M 56.550781 25.898438 L 56.550781 41.34375 L 62.019531 41.34375 L 62.019531 25.898438 Z M 55.773438 42.445312 L 47.605469 53.984375 L 53.820312 56.789062 L 59.28125 44.429688 Z M 55.773438 42.445312 "/></g></svg>
