<svg width="64" height="64" viewBox="0 0 64 64" version="1.1" xmlns:inkscape="http://www.inkscape.org/namespaces/inkscape"><defs><linearGradient id="linear0" gradientUnits="userSpaceOnUse" x1="0" y1="0" x2="0" y2="1" gradientTransform="matrix(56,0,0,35.898438,4,14.050781)"><stop offset="0" style="stop-color:rgb(100%,56.862748%,82.745099%);stop-opacity:1;"/><stop offset="1" style="stop-color:rgb(100%,0%,60.000002%);stop-opacity:1;"/></linearGradient><filter style="color-interpolation-filters:sRGB;" inkscape:label="Diffuse Light" id="filter184" x="-0.0375" y="-0.0375" width="1.075" height="1.075"><feGaussianBlur in="SourceGraphic" stdDeviation="1" result="blur" id="feGaussianBlur174" /><feDiffuseLighting diffuseConstant="1" surfaceScale="10" lighting-color="rgb(255,255,255)" result="diffuse" id="feDiffuseLighting178"><feDistantLight elevation="8" azimuth="235" id="feDistantLight176" /></feDiffuseLighting><feComposite in="diffuse" in2="diffuse" operator="arithmetic" k1="1" result="composite1" id="feComposite180" /><feComposite in="composite1" in2="SourceGraphic" k1="1" operator="arithmetic" k3="1" result="composite2" id="feComposite182" /></filter></defs><g id="surface1" style="filter:url(#filter184)"><path style=" stroke:none;fill-rule:nonzero;fill:url(#linear0);" d="M 32.464844 1.851562 C 15.527344 1.851562 1.796875 15.582031 1.796875 32.519531 C 1.796875 49.453125 15.527344 63.183594 32.464844 63.183594 C 49.402344 63.183594 63.132812 49.453125 63.132812 32.519531 C 63.132812 15.582031 49.402344 1.851562 32.464844 1.851562 Z M 32.464844 5.851562 C 47.191406 5.851562 59.132812 17.789062 59.132812 32.519531 C 59.109375 45.273438 50.054688 56.226562 37.53125 58.652344 L 51.132812 19.183594 L 48.464844 16.519531 L 27.132812 32.519531 L 16.464844 32.519531 L 20.464844 37.410156 L 16.464844 40.519531 L 8.464844 39.183594 L 15.359375 52.972656 C 9.316406 47.917969 5.816406 40.449219 5.796875 32.570312 C 5.796875 17.84375 17.738281 5.90625 32.464844 5.90625 Z M 32.464844 33.851562 C 33.933594 33.851562 35.132812 35.046875 35.132812 36.519531 C 35.132812 37.992188 33.9375 39.183594 32.464844 39.183594 C 30.992188 39.183594 29.796875 37.992188 29.796875 36.519531 C 29.796875 35.046875 30.992188 33.851562 32.464844 33.851562 Z M 25.796875 39.183594 C 27.265625 39.183594 28.464844 40.378906 28.464844 41.851562 C 28.464844 43.324219 27.273438 44.519531 25.796875 44.519531 C 24.324219 44.519531 23.132812 43.324219 23.132812 41.851562 C 23.132812 40.378906 24.324219 39.183594 25.796875 39.183594 Z M 25.796875 39.183594 "/></g></svg>
