<svg width="64" height="64" viewBox="0 0 64 64" version="1.1" xmlns:inkscape="http://www.inkscape.org/namespaces/inkscape"><defs><linearGradient id="linear0" gradientUnits="userSpaceOnUse" x1="0" y1="0" x2="0" y2="1" gradientTransform="matrix(56,0,0,35.898438,4,14.050781)"><stop offset="0" style="stop-color:rgb(0%,96.078432%,86.274511%);stop-opacity:1;"/><stop offset="1" style="stop-color:rgb(0%,54.901963%,49.411765%);stop-opacity:1;"/></linearGradient><filter style="color-interpolation-filters:sRGB;" inkscape:label="Diffuse Light" id="filter184" x="-0.0375" y="-0.0375" width="1.075" height="1.075"><feGaussianBlur in="SourceGraphic" stdDeviation="1" result="blur" id="feGaussianBlur174" /><feDiffuseLighting diffuseConstant="1" surfaceScale="10" lighting-color="rgb(255,255,255)" result="diffuse" id="feDiffuseLighting178"><feDistantLight elevation="8" azimuth="235" id="feDistantLight176" /></feDiffuseLighting><feComposite in="diffuse" in2="diffuse" operator="arithmetic" k1="1" result="composite1" id="feComposite180" /><feComposite in="composite1" in2="SourceGraphic" k1="1" operator="arithmetic" k3="1" result="composite2" id="feComposite182" /></filter></defs><g id="surface1" style="filter:url(#filter184)"><path style=" stroke:none;fill-rule:nonzero;fill:url(#linear0);" d="M 10.289062 3.769531 L 3.308594 10.835938 L 10.289062 17.898438 L 17.265625 10.835938 Z M 17.265625 10.835938 L 24.246094 17.898438 L 31.226562 10.835938 L 24.246094 3.769531 Z M 31.226562 10.835938 L 38.207031 17.898438 L 45.1875 10.835938 L 38.207031 3.769531 Z M 45.1875 10.835938 L 52.164062 17.898438 L 59.144531 10.835938 L 52.164062 3.769531 Z M 52.164062 17.898438 L 45.1875 24.960938 L 52.164062 32.027344 L 59.144531 24.960938 Z M 52.164062 32.027344 L 45.1875 39.089844 L 52.164062 46.152344 L 59.144531 39.089844 Z M 52.164062 46.152344 L 45.1875 53.21875 L 52.164062 60.28125 L 59.144531 53.21875 Z M 45.1875 53.21875 L 38.207031 46.152344 L 31.226562 53.21875 L 38.207031 60.28125 Z M 31.226562 53.21875 L 24.246094 46.152344 L 17.265625 53.21875 L 24.246094 60.28125 Z M 17.265625 53.21875 L 10.289062 46.152344 L 3.308594 53.21875 L 10.289062 60.28125 Z M 10.289062 46.152344 L 17.265625 39.089844 L 10.289062 32.027344 L 3.308594 39.089844 Z M 10.289062 32.027344 L 17.265625 24.960938 L 10.289062 17.898438 L 3.308594 24.960938 Z M 17.265625 24.960938 L 24.246094 32.027344 L 31.226562 24.960938 L 24.246094 17.898438 Z M 31.226562 24.960938 L 38.207031 32.027344 L 45.1875 24.960938 L 38.207031 17.898438 Z M 38.207031 32.027344 L 31.226562 39.089844 L 38.207031 46.152344 L 45.1875 39.089844 Z M 31.226562 39.089844 L 24.246094 32.027344 L 17.265625 39.089844 L 24.246094 46.152344 Z M 31.226562 39.089844 "/></g></svg>
