<svg width="64" height="64" viewBox="0 0 64 64" version="1.1" xmlns:inkscape="http://www.inkscape.org/namespaces/inkscape"><defs><linearGradient id="linear0" gradientUnits="userSpaceOnUse" x1="0" y1="0" x2="0" y2="1" gradientTransform="matrix(56,0,0,35.898438,4,14.050781)"><stop offset="0" style="stop-color:rgb(100%,63.137257%,63.137257%);stop-opacity:1;"/><stop offset="1" style="stop-color:rgb(100%,27.843139%,27.843139%);stop-opacity:1;"/></linearGradient><linearGradient id="linear1" gradientUnits="userSpaceOnUse" x1="0" y1="0" x2="0" y2="1" gradientTransform="matrix(56,0,0,35.898438,4,14.050781)"><stop offset="0" style="stop-color:rgb(100%,63.137257%,63.137257%);stop-opacity:1;"/><stop offset="1" style="stop-color:rgb(100%,27.843139%,27.843139%);stop-opacity:1;"/></linearGradient><filter style="color-interpolation-filters:sRGB;" inkscape:label="Diffuse Light" id="filter184" x="-0.0375" y="-0.0375" width="1.075" height="1.075"><feGaussianBlur in="SourceGraphic" stdDeviation="1" result="blur" id="feGaussianBlur174" /><feDiffuseLighting diffuseConstant="1" surfaceScale="10" lighting-color="rgb(255,255,255)" result="diffuse" id="feDiffuseLighting178"><feDistantLight elevation="8" azimuth="235" id="feDistantLight176" /></feDiffuseLighting><feComposite in="diffuse" in2="diffuse" operator="arithmetic" k1="1" result="composite1" id="feComposite180" /><feComposite in="composite1" in2="SourceGraphic" k1="1" operator="arithmetic" k3="1" result="composite2" id="feComposite182" /></filter></defs><g id="surface1" style="filter:url(#filter184)"><path style=" stroke:none;fill-rule:nonzero;fill:url(#linear0);" d="M 28.425781 28.027344 L 5.046875 59.75 L 37.777344 37.089844 Z M 28.425781 28.027344 "/><path style=" stroke:none;fill-rule:nonzero;fill:url(#linear1);" d="M 61.15625 5.367188 C 61.15625 5.367188 59.367188 5.214844 55.621094 7.394531 C 48.730469 11.410156 35.441406 18.960938 35.441406 18.960938 L 14.398438 23.496094 L 28.425781 28.027344 C 28.425781 28.027344 29.265625 31.949219 31.757812 34.363281 C 34.511719 37.035156 37.777344 37.089844 37.777344 37.089844 L 42.453125 52.953125 L 47.128906 30.292969 C 47.128906 30.292969 55.222656 18.050781 59.4375 11.476562 C 61.902344 7.625 61.15625 5.367188 61.15625 5.367188 Z M 61.15625 5.367188 "/></g></svg>
