<svg width="64" height="64" viewBox="0 0 64 64" version="1.1" xmlns:inkscape="http://www.inkscape.org/namespaces/inkscape"><defs><linearGradient id="linear0" gradientUnits="userSpaceOnUse" x1="0" y1="0" x2="0" y2="1" gradientTransform="matrix(60.457539,0,0,39.619789,-0.771615,13.287485)"><stop offset="0" style="stop-color:rgb(100%,73.333335%,0%);stop-opacity:1;"/><stop offset="1" style="stop-color:rgb(70.19608%,51.372552%,0%);stop-opacity:1;"/></linearGradient><filter style="color-interpolation-filters:sRGB;" inkscape:label="Diffuse Light" id="filter184" x="-0.0375" y="-0.0375" width="1.075" height="1.075"><feGaussianBlur in="SourceGraphic" stdDeviation="1" result="blur" id="feGaussianBlur174" /><feDiffuseLighting diffuseConstant="1" surfaceScale="10" lighting-color="rgb(255,255,255)" result="diffuse" id="feDiffuseLighting178"><feDistantLight elevation="8" azimuth="235" id="feDistantLight176" /></feDiffuseLighting><feComposite in="diffuse" in2="diffuse" operator="arithmetic" k1="1" result="composite1" id="feComposite180" /><feComposite in="composite1" in2="SourceGraphic" k1="1" operator="arithmetic" k3="1" result="composite2" id="feComposite182" /></filter></defs><g id="surface1" style="filter:url(#filter184)"><path style=" stroke:none;fill-rule:nonzero;fill:url(#linear0);" d="M 31.566406 1.273438 C 3.511719 1.273438 3.511719 14.09375 3.511719 19.21875 C 3.511719 24.351562 9.746094 32.046875 9.746094 32.046875 L 9.746094 39.738281 C 9.746094 44.023438 15.980469 44.867188 19.09375 49.992188 C 21.464844 53.894531 22.214844 57.6875 22.214844 57.6875 C 22.214844 57.6875 22.214844 62.820312 28.449219 62.820312 L 34.683594 62.820312 C 40.914062 62.820312 40.914062 57.6875 40.914062 57.6875 C 40.914062 57.6875 41.664062 53.894531 44.035156 49.992188 C 47.152344 44.867188 53.386719 44.023438 53.386719 39.738281 L 53.386719 32.046875 C 53.386719 32.046875 59.617188 24.351562 59.617188 19.21875 C 59.617188 14.09375 59.617188 1.273438 31.566406 1.273438 Z M 12.863281 29.480469 C 12.863281 29.480469 19.09375 29.480469 25.332031 34.605469 C 28.449219 37.171875 28.449219 42.300781 28.449219 42.300781 C 28.449219 42.300781 22.214844 42.300781 19.09375 39.738281 C 15.980469 37.171875 12.863281 29.480469 12.863281 29.480469 Z M 50.269531 29.480469 C 50.269531 29.480469 47.152344 37.171875 44.035156 39.738281 C 40.914062 42.300781 34.683594 42.300781 34.683594 42.300781 C 34.683594 42.300781 34.683594 37.171875 37.796875 34.605469 C 44.035156 29.480469 50.269531 29.480469 50.269531 29.480469 Z M 50.269531 29.480469 "/></g></svg>
