<svg width="64" height="64" viewBox="0 0 64 64" version="1.1" xmlns:inkscape="http://www.inkscape.org/namespaces/inkscape"><defs><linearGradient id="linear0" gradientUnits="userSpaceOnUse" x1="0" y1="0" x2="0" y2="1" gradientTransform="matrix(56,0,0,35.898438,4,14.050781)"><stop offset="0" style="stop-color:rgb(41.960785%,64.313728%,100%);stop-opacity:1;"/><stop offset="1" style="stop-color:rgb(0%,43.137255%,100%);stop-opacity:1;"/></linearGradient><filter style="color-interpolation-filters:sRGB;" inkscape:label="Diffuse Light" id="filter184" x="-0.0375" y="-0.0375" width="1.075" height="1.075"><feGaussianBlur in="SourceGraphic" stdDeviation="1" result="blur" id="feGaussianBlur174" /><feDiffuseLighting diffuseConstant="1" surfaceScale="10" lighting-color="rgb(255,255,255)" result="diffuse" id="feDiffuseLighting178"><feDistantLight elevation="8" azimuth="235" id="feDistantLight176" /></feDiffuseLighting><feComposite in="diffuse" in2="diffuse" operator="arithmetic" k1="1" result="composite1" id="feComposite180" /><feComposite in="composite1" in2="SourceGraphic" k1="1" operator="arithmetic" k3="1" result="composite2" id="feComposite182" /></filter></defs><g id="surface1" style="filter:url(#filter184)"><path style=" stroke:none;fill-rule:nonzero;fill:url(#linear0);" d="M 2.355469 3.816406 L 2.355469 61.382812 C 13.894531 61.382812 25.433594 61.382812 36.96875 61.382812 L 36.96875 56.585938 L 7.300781 56.585938 L 7.300781 37.398438 L 27.082031 37.398438 L 27.082031 44.59375 L 14.71875 44.59375 L 14.71875 49.390625 C 20.488281 49.390625 26.257812 49.390625 32.027344 49.390625 L 32.027344 37.398438 L 39.441406 37.398438 L 39.441406 46.992188 L 44.386719 46.992188 L 44.386719 23.003906 L 39.441406 23.003906 L 39.441406 32.597656 L 7.300781 32.597656 L 7.300781 8.613281 L 19.664062 8.613281 L 19.664062 3.816406 C 13.894531 3.816406 8.125 3.816406 2.355469 3.816406 Z M 29.554688 3.816406 C 29.554688 8.613281 29.554688 13.410156 29.554688 18.207031 L 17.191406 18.207031 L 17.191406 23.003906 L 34.496094 23.003906 C 34.496094 18.207031 34.496094 13.410156 34.496094 8.613281 L 56.75 8.613281 L 56.75 56.585938 L 44.386719 56.585938 L 44.386719 61.382812 C 50.15625 61.382812 55.925781 61.382812 61.695312 61.382812 C 61.695312 42.195312 61.695312 23.003906 61.695312 3.816406 Z M 29.554688 3.816406 "/></g></svg>
