<svg width="64" height="64" viewBox="0 0 64 64" version="1.1" xmlns:inkscape="http://www.inkscape.org/namespaces/inkscape"><defs><linearGradient id="linear0" gradientUnits="userSpaceOnUse" x1="0" y1="0" x2="0" y2="1" gradientTransform="matrix(58.704134,0,0,38.203281,3.007428,11.899691)"><stop offset="0" style="stop-color:rgb(92.941177%,83.529413%,72.549021%);stop-opacity:1;"/><stop offset="1" style="stop-color:rgb(81.960785%,71.372551%,59.215689%);stop-opacity:1;"/></linearGradient><linearGradient id="linear1" gradientUnits="userSpaceOnUse" x1="0" y1="0" x2="0" y2="1" gradientTransform="matrix(58.704134,0,0,38.203281,3.007428,11.899691)"><stop offset="0" style="stop-color:rgb(92.941177%,83.529413%,72.549021%);stop-opacity:1;"/><stop offset="1" style="stop-color:rgb(81.960785%,71.372551%,59.215689%);stop-opacity:1;"/></linearGradient><filter style="color-interpolation-filters:sRGB;" inkscape:label="Diffuse Light" id="filter184" x="-0.0375" y="-0.0375" width="1.075" height="1.075"><feGaussianBlur in="SourceGraphic" stdDeviation="1" result="blur" id="feGaussianBlur174" /><feDiffuseLighting diffuseConstant="1" surfaceScale="10" lighting-color="rgb(255,255,255)" result="diffuse" id="feDiffuseLighting178"><feDistantLight elevation="8" azimuth="235" id="feDistantLight176" /></feDiffuseLighting><feComposite in="diffuse" in2="diffuse" operator="arithmetic" k1="1" result="composite1" id="feComposite180" /><feComposite in="composite1" in2="SourceGraphic" k1="1" operator="arithmetic" k3="1" result="composite2" id="feComposite182" /></filter></defs><g id="surface1" style="filter:url(#filter184)"><path style=" stroke:none;fill-rule:nonzero;fill:url(#linear0);" d="M 32.347656 5.082031 C 18.699219 5.082031 7.542969 17.554688 7.542969 32.804688 C 7.542969 48.0625 18.703125 60.527344 32.347656 60.527344 C 45.996094 60.527344 57.144531 48.058594 57.144531 32.804688 C 57.144531 17.550781 45.992188 5.082031 32.347656 5.082031 Z M 32.347656 14.6875 C 41.351562 14.6875 48.554688 22.742188 48.554688 32.808594 C 48.554688 42.875 41.351562 50.925781 32.347656 50.925781 C 23.34375 50.925781 16.136719 42.875 16.136719 32.808594 C 16.136719 22.742188 23.339844 14.6875 32.347656 14.6875 Z M 32.347656 14.6875 "/><path style=" stroke:none;fill-rule:nonzero;fill:url(#linear1);" d="M 1.34375 28.1875 L 63.347656 28.1875 L 63.347656 37.429688 L 1.34375 37.429688 M 1.34375 28.1875 "/></g></svg>
