<svg width="64" height="64" viewBox="0 0 64 64" version="1.1" xmlns:inkscape="http://www.inkscape.org/namespaces/inkscape"><defs><linearGradient id="linear0" gradientUnits="userSpaceOnUse" x1="0" y1="0" x2="0" y2="1" gradientTransform="matrix(56,0,0,35.898438,4,14.050781)"><stop offset="0" style="stop-color:rgb(0%,96.078432%,86.274511%);stop-opacity:1;"/><stop offset="1" style="stop-color:rgb(0%,54.901963%,49.411765%);stop-opacity:1;"/></linearGradient><filter style="color-interpolation-filters:sRGB;" inkscape:label="Diffuse Light" id="filter184" x="-0.0375" y="-0.0375" width="1.075" height="1.075"><feGaussianBlur in="SourceGraphic" stdDeviation="1" result="blur" id="feGaussianBlur174" /><feDiffuseLighting diffuseConstant="1" surfaceScale="10" lighting-color="rgb(255,255,255)" result="diffuse" id="feDiffuseLighting178"><feDistantLight elevation="8" azimuth="235" id="feDistantLight176" /></feDiffuseLighting><feComposite in="diffuse" in2="diffuse" operator="arithmetic" k1="1" result="composite1" id="feComposite180" /><feComposite in="composite1" in2="SourceGraphic" k1="1" operator="arithmetic" k3="1" result="composite2" id="feComposite182" /></filter></defs><g id="surface1" style="filter:url(#filter184)"><path style=" stroke:none;fill-rule:nonzero;fill:url(#linear0);" d="M 13.941406 6.082031 L 25.539062 22.238281 L 16.261719 6.082031 Z M 25.539062 6.082031 L 30.179688 19.929688 L 27.859375 6.082031 Z M 37.140625 6.082031 L 34.820312 19.929688 L 39.460938 6.082031 Z M 48.738281 6.082031 L 39.460938 22.238281 L 51.058594 6.082031 Z M 4.660156 15.316406 L 4.660156 17.621094 L 20.902344 26.855469 Z M 60.339844 15.316406 L 44.101562 26.855469 L 60.339844 17.621094 Z M 27.859375 24.546875 C 23.21875 24.546875 23.21875 29.164062 23.21875 31.472656 L 23.21875 36.089844 L 27.859375 36.089844 C 27.859375 31.472656 30.179688 30.316406 30.179688 28.007812 C 30.179688 26.855469 30.179688 24.546875 27.859375 24.546875 Z M 37.140625 24.546875 C 34.820312 24.546875 34.820312 26.855469 34.820312 28.007812 C 34.820312 30.316406 37.140625 31.472656 37.140625 36.089844 L 41.78125 36.089844 L 41.78125 31.472656 C 41.78125 29.164062 41.78125 24.546875 37.140625 24.546875 Z M 4.660156 26.855469 L 4.660156 29.164062 L 18.582031 31.472656 Z M 60.339844 26.855469 L 46.417969 31.472656 L 60.339844 29.164062 Z M 18.582031 36.089844 L 4.660156 38.394531 L 4.660156 40.703125 Z M 46.417969 36.089844 L 60.339844 40.703125 L 60.339844 38.394531 Z M 23.21875 38.394531 L 23.21875 40.703125 C 23.21875 41.980469 24.257812 43.011719 25.539062 43.011719 C 26.820312 43.011719 27.859375 41.980469 27.859375 40.703125 L 27.859375 38.394531 Z M 37.140625 38.394531 L 37.140625 40.703125 C 37.140625 41.980469 38.179688 43.011719 39.460938 43.011719 C 40.742188 43.011719 41.78125 41.980469 41.78125 40.703125 L 41.78125 38.394531 Z M 20.902344 40.703125 L 4.660156 49.9375 L 4.660156 52.246094 Z M 44.101562 40.703125 L 60.339844 52.246094 L 60.339844 49.9375 Z M 25.539062 45.320312 L 13.941406 61.476562 L 16.261719 61.476562 Z M 39.460938 45.320312 L 48.738281 61.476562 L 51.058594 61.476562 Z M 30.179688 47.628906 L 25.539062 61.476562 L 27.859375 61.476562 Z M 34.820312 47.628906 L 37.140625 61.476562 L 39.460938 61.476562 Z M 34.820312 47.628906 "/></g></svg>
