<svg width="64" height="64" viewBox="0 0 64 64" version="1.1" xmlns:inkscape="http://www.inkscape.org/namespaces/inkscape"><defs><linearGradient id="linear0" gradientUnits="userSpaceOnUse" x1="0" y1="0" x2="0" y2="1" gradientTransform="matrix(56,0,0,35.898438,4,14.050781)"><stop offset="0" style="stop-color:rgb(75.686276%,77.64706%,83.92157%);stop-opacity:1;"/><stop offset="1" style="stop-color:rgb(43.529412%,45.09804%,50.196081%);stop-opacity:1;"/></linearGradient><filter style="color-interpolation-filters:sRGB;" inkscape:label="Diffuse Light" id="filter184" x="-0.0375" y="-0.0375" width="1.075" height="1.075"><feGaussianBlur in="SourceGraphic" stdDeviation="1" result="blur" id="feGaussianBlur174" /><feDiffuseLighting diffuseConstant="1" surfaceScale="10" lighting-color="rgb(255,255,255)" result="diffuse" id="feDiffuseLighting178"><feDistantLight elevation="8" azimuth="235" id="feDistantLight176" /></feDiffuseLighting><feComposite in="diffuse" in2="diffuse" operator="arithmetic" k1="1" result="composite1" id="feComposite180" /><feComposite in="composite1" in2="SourceGraphic" k1="1" operator="arithmetic" k3="1" result="composite2" id="feComposite182" /></filter></defs><g id="surface1" style="filter:url(#filter184)"><path style=" stroke:none;fill-rule:nonzero;fill:url(#linear0);" d="M 39.238281 60.722656 L 42.175781 51.28125 L 39.238281 46.5625 L 45.109375 48.921875 L 39.238281 41.84375 L 45.109375 44.203125 L 42.175781 39.480469 L 45.109375 37.121094 L 42.175781 37.121094 L 45.109375 32.402344 L 39.238281 34.761719 L 42.175781 30.042969 L 39.238281 32.402344 L 39.238281 27.679688 L 36.300781 27.679688 L 39.238281 22.960938 L 33.363281 27.679688 L 33.363281 18.242188 L 24.554688 46.5625 L 21.621094 48.921875 L 21.621094 46.5625 L 18.683594 48.921875 L 18.683594 46.5625 L 15.746094 48.921875 L 18.683594 44.203125 L 15.746094 46.5625 C 15.746094 46.5625 24.554688 4.078125 30.429688 4.078125 C 33.363281 4.078125 50.984375 13.519531 50.984375 34.761719 C 50.984375 51.28125 39.238281 60.722656 39.238281 60.722656 Z M 39.238281 60.722656 "/></g></svg>
