<svg width="64" height="64" viewBox="0 0 64 64" version="1.1" xmlns:inkscape="http://www.inkscape.org/namespaces/inkscape"><defs><linearGradient id="linear0" gradientUnits="userSpaceOnUse" x1="0" y1="0" x2="0" y2="1" gradientTransform="matrix(56,0,0,35.898438,4,14.050781)"><stop offset="0" style="stop-color:rgb(87.058824%,86.666667%,56.470591%);stop-opacity:1;"/><stop offset="1" style="stop-color:rgb(67.843139%,67.450982%,38.039216%);stop-opacity:1;"/></linearGradient><filter style="color-interpolation-filters:sRGB;" inkscape:label="Diffuse Light" id="filter184" x="-0.0375" y="-0.0375" width="1.075" height="1.075"><feGaussianBlur in="SourceGraphic" stdDeviation="1" result="blur" id="feGaussianBlur174" /><feDiffuseLighting diffuseConstant="1" surfaceScale="10" lighting-color="rgb(255,255,255)" result="diffuse" id="feDiffuseLighting178"><feDistantLight elevation="8" azimuth="235" id="feDistantLight176" /></feDiffuseLighting><feComposite in="diffuse" in2="diffuse" operator="arithmetic" k1="1" result="composite1" id="feComposite180" /><feComposite in="composite1" in2="SourceGraphic" k1="1" operator="arithmetic" k3="1" result="composite2" id="feComposite182" /></filter></defs><g id="surface1" style="filter:url(#filter184)"><path style=" stroke:none;fill-rule:nonzero;fill:url(#linear0);" d="M 31.808594 2.242188 C 15.703125 2.242188 2.644531 15.71875 2.644531 32.34375 C 2.644531 48.972656 15.703125 62.449219 31.808594 62.449219 C 47.914062 62.449219 60.972656 48.972656 60.972656 32.34375 C 60.972656 15.71875 47.914062 2.242188 31.808594 2.242188 Z M 31.808594 14.28125 C 41.46875 14.285156 49.300781 22.371094 49.300781 32.34375 C 49.300781 42.320312 41.46875 50.40625 31.808594 50.410156 C 22.144531 50.40625 14.3125 42.320312 14.3125 32.34375 C 14.3125 22.371094 22.144531 14.285156 31.808594 14.28125 Z M 31.808594 14.28125 "/></g></svg>
