<svg width="64" height="64" viewBox="0 0 64 64" version="1.1" xmlns:inkscape="http://www.inkscape.org/namespaces/inkscape"><defs><linearGradient id="linear0" gradientUnits="userSpaceOnUse" x1="0" y1="0" x2="0" y2="1" gradientTransform="matrix(56,0,0,35.898438,4,14.050781)"><stop offset="0" style="stop-color:rgb(0%,78.823531%,36.862746%);stop-opacity:1;"/><stop offset="1" style="stop-color:rgb(0%,54.11765%,25.098041%);stop-opacity:1;"/></linearGradient><filter style="color-interpolation-filters:sRGB;" inkscape:label="Diffuse Light" id="filter184" x="-0.0375" y="-0.0375" width="1.075" height="1.075"><feGaussianBlur in="SourceGraphic" stdDeviation="1" result="blur" id="feGaussianBlur174" /><feDiffuseLighting diffuseConstant="1" surfaceScale="10" lighting-color="rgb(255,255,255)" result="diffuse" id="feDiffuseLighting178"><feDistantLight elevation="8" azimuth="235" id="feDistantLight176" /></feDiffuseLighting><feComposite in="diffuse" in2="diffuse" operator="arithmetic" k1="1" result="composite1" id="feComposite180" /><feComposite in="composite1" in2="SourceGraphic" k1="1" operator="arithmetic" k3="1" result="composite2" id="feComposite182" /></filter></defs><g id="surface1" style="filter:url(#filter184)"><path style=" stroke:none;fill-rule:nonzero;fill:url(#linear0);" d="M 12.625 2.363281 L 10.652344 12.195312 L 12.625 12.195312 L 6.703125 48.246094 L 4.730469 48.246094 L 2.757812 61.351562 L 20.515625 61.351562 L 22.488281 48.246094 L 20.515625 48.246094 L 28.410156 2.363281 Z M 44.195312 2.363281 L 28.410156 35.136719 L 26.4375 48.246094 L 43.949219 48.246094 L 42.222656 61.351562 L 54.058594 61.351562 L 55.355469 48.246094 L 59.980469 48.246094 L 61.953125 35.136719 L 56.710938 35.136719 L 59.980469 2.363281 Z M 47.832031 19.367188 L 45.734375 35.140625 L 40.25 35.140625 Z M 47.832031 19.367188 "/></g></svg>
