<svg width="64" height="64" viewBox="0 0 64 64" version="1.1" xmlns:inkscape="http://www.inkscape.org/namespaces/inkscape"><defs><linearGradient id="linear0" gradientUnits="userSpaceOnUse" x1="0" y1="0" x2="0" y2="1" gradientTransform="matrix(56,0,0,35.898438,4,14.050781)"><stop offset="0" style="stop-color:rgb(100%,63.137257%,63.137257%);stop-opacity:1;"/><stop offset="1" style="stop-color:rgb(100%,27.843139%,27.843139%);stop-opacity:1;"/></linearGradient><filter style="color-interpolation-filters:sRGB;" inkscape:label="Diffuse Light" id="filter184" x="-0.0375" y="-0.0375" width="1.075" height="1.075"><feGaussianBlur in="SourceGraphic" stdDeviation="1" result="blur" id="feGaussianBlur174" /><feDiffuseLighting diffuseConstant="1" surfaceScale="10" lighting-color="rgb(255,255,255)" result="diffuse" id="feDiffuseLighting178"><feDistantLight elevation="8" azimuth="235" id="feDistantLight176" /></feDiffuseLighting><feComposite in="diffuse" in2="diffuse" operator="arithmetic" k1="1" result="composite1" id="feComposite180" /><feComposite in="composite1" in2="SourceGraphic" k1="1" operator="arithmetic" k3="1" result="composite2" id="feComposite182" /></filter></defs><g id="surface1" style="filter:url(#filter184)"><path style=" stroke:none;fill-rule:nonzero;fill:url(#linear0);" d="M 4.464844 5.914062 L 4.464844 58.890625 L 16.925781 58.890625 C 21.078125 58.890625 25.234375 54.074219 25.234375 49.257812 L 25.234375 15.546875 C 25.234375 10.730469 21.078125 5.914062 16.925781 5.914062 Z M 41.847656 5.914062 L 35.617188 58.890625 L 43.921875 58.890625 L 44.636719 49.257812 L 51.511719 49.257812 L 52.230469 58.890625 L 60.539062 58.890625 L 54.308594 5.914062 Z M 12.773438 15.546875 L 14.847656 15.546875 L 14.847656 49.257812 L 12.773438 49.257812 Z M 46.832031 17.953125 L 49.300781 17.953125 L 50.859375 39.625 L 45.273438 39.625 Z M 46.832031 17.953125 "/></g></svg>
