<svg width="64" height="64" viewBox="0 0 64 64" version="1.1" xmlns:inkscape="http://www.inkscape.org/namespaces/inkscape"><defs><linearGradient id="linear0" gradientUnits="userSpaceOnUse" x1="0" y1="0" x2="0" y2="1" gradientTransform="matrix(60.54704,0,0,37.479399,2.441978,12.445085)"><stop offset="0" style="stop-color:rgb(100%,63.137257%,63.137257%);stop-opacity:1;"/><stop offset="1" style="stop-color:rgb(100%,27.843139%,27.843139%);stop-opacity:1;"/></linearGradient><filter style="color-interpolation-filters:sRGB;" inkscape:label="Diffuse Light" id="filter184" x="-0.0375" y="-0.0375" width="1.075" height="1.075"><feGaussianBlur in="SourceGraphic" stdDeviation="1" result="blur" id="feGaussianBlur174" /><feDiffuseLighting diffuseConstant="1" surfaceScale="10" lighting-color="rgb(255,255,255)" result="diffuse" id="feDiffuseLighting178"><feDistantLight elevation="8" azimuth="235" id="feDistantLight176" /></feDiffuseLighting><feComposite in="diffuse" in2="diffuse" operator="arithmetic" k1="1" result="composite1" id="feComposite180" /><feComposite in="composite1" in2="SourceGraphic" k1="1" operator="arithmetic" k3="1" result="composite2" id="feComposite182" /></filter></defs><g id="surface1" style="filter:url(#filter184)"><path style=" stroke:none;fill-rule:nonzero;fill:url(#linear0);" d="M 32.183594 1.167969 C 25.027344 1.191406 18.035156 5.285156 14.363281 12.234375 C 9.785156 14.214844 6.71875 19.53125 6.714844 25.503906 C 6.71875 27.765625 7.167969 29.992188 8.019531 32 C 5.882812 32.234375 1.621094 33.167969 1.621094 37.027344 C 1.621094 45.34375 10.507812 50.433594 19.371094 51.90625 L 22.359375 59.417969 C 23.132812 61.363281 25.007812 62.640625 27.089844 62.640625 L 37.277344 62.640625 C 39.359375 62.640625 41.234375 61.363281 42.007812 59.417969 L 44.980469 51.949219 C 53.84375 50.597656 62.738281 46.007812 62.738281 39.589844 C 62.738281 33.765625 58.449219 32.390625 56.324219 32.050781 C 57.191406 30.03125 57.644531 27.785156 57.644531 25.503906 C 57.640625 19.539062 54.582031 14.222656 50.003906 12.238281 C 46.335938 5.257812 39.355469 1.179688 32.183594 1.167969 Z M 55.921875 32.914062 C 56.667969 33.878906 57.644531 35.414062 57.644531 37.027344 C 57.644531 38.867188 55.996094 40.363281 53.660156 41.425781 L 50.007812 39.589844 L 50.007812 38.769531 C 52.464844 37.703125 54.550781 35.632812 55.921875 32.914062 Z M 8.445312 32.917969 C 9.816406 35.632812 11.902344 37.699219 14.355469 38.765625 L 14.355469 39.589844 L 10.703125 41.425781 C 8.367188 40.363281 6.714844 38.867188 6.714844 37.027344 C 6.714844 35.414062 7.695312 33.882812 8.445312 32.917969 Z M 8.445312 32.917969 "/></g></svg>
