<svg width="64" height="64" viewBox="0 0 64 64" version="1.1" xmlns:inkscape="http://www.inkscape.org/namespaces/inkscape"><defs><linearGradient id="linear0" gradientUnits="userSpaceOnUse" x1="0" y1="0" x2="0" y2="1" gradientTransform="matrix(56,0,0,35.898438,4,14.050781)"><stop offset="0" style="stop-color:rgb(87.058824%,86.666667%,56.470591%);stop-opacity:1;"/><stop offset="1" style="stop-color:rgb(67.843139%,67.450982%,38.039216%);stop-opacity:1;"/></linearGradient><filter style="color-interpolation-filters:sRGB;" inkscape:label="Diffuse Light" id="filter184" x="-0.0375" y="-0.0375" width="1.075" height="1.075"><feGaussianBlur in="SourceGraphic" stdDeviation="1" result="blur" id="feGaussianBlur174" /><feDiffuseLighting diffuseConstant="1" surfaceScale="10" lighting-color="rgb(255,255,255)" result="diffuse" id="feDiffuseLighting178"><feDistantLight elevation="8" azimuth="235" id="feDistantLight176" /></feDiffuseLighting><feComposite in="diffuse" in2="diffuse" operator="arithmetic" k1="1" result="composite1" id="feComposite180" /><feComposite in="composite1" in2="SourceGraphic" k1="1" operator="arithmetic" k3="1" result="composite2" id="feComposite182" /></filter></defs><g id="surface1" style="filter:url(#filter184)"><path style=" stroke:none;fill-rule:nonzero;fill:url(#linear0);" d="M 28.71875 3.277344 C 17.4375 3.277344 4.277344 16.792969 4.277344 28.378906 C 4.277344 28.378906 6.160156 30.308594 6.160156 32.238281 C 6.160156 34.167969 4.277344 36.101562 4.277344 36.101562 C 4.277344 47.683594 17.4375 61.199219 28.71875 61.199219 C 28.71875 61.199219 30.601562 59.265625 32.480469 59.265625 C 34.359375 59.265625 36.242188 61.199219 36.242188 61.199219 C 47.523438 61.199219 60.683594 47.683594 60.683594 36.101562 C 60.683594 36.101562 58.804688 34.167969 58.804688 32.238281 C 58.804688 30.308594 60.683594 28.378906 60.683594 28.378906 C 60.683594 16.792969 47.523438 3.277344 36.242188 3.277344 C 36.242188 3.277344 34.359375 5.210938 32.480469 5.210938 C 30.601562 5.210938 28.71875 3.277344 28.71875 3.277344 Z M 28.71875 5.210938 C 28.71875 5.210938 30.601562 7.140625 32.480469 7.140625 C 34.359375 7.140625 36.242188 5.210938 36.242188 5.210938 C 46.769531 5.210938 58.804688 17.566406 58.804688 28.378906 C 58.804688 28.378906 56.921875 30.308594 56.921875 32.238281 C 56.921875 34.167969 58.804688 36.101562 58.804688 36.101562 C 58.804688 46.910156 46.769531 59.265625 36.242188 59.265625 C 36.242188 59.265625 34.230469 57.335938 32.480469 57.335938 C 30.730469 57.335938 28.71875 59.265625 28.71875 59.265625 C 18.191406 59.265625 6.160156 46.910156 6.160156 36.101562 C 6.160156 36.101562 8.039062 34.167969 8.039062 32.238281 C 8.039062 30.308594 6.160156 28.378906 6.160156 28.378906 C 6.160156 17.566406 18.191406 5.210938 28.71875 5.210938 Z M 28.71875 20.65625 L 28.71875 24.515625 L 32.480469 24.515625 L 33.421875 26.445312 L 28.71875 34.167969 L 26.839844 35.132812 L 22.140625 42.855469 L 26.839844 45.753906 L 31.539062 38.03125 L 31.539062 36.101562 L 36.242188 28.378906 L 38.121094 28.378906 L 38.121094 30.308594 L 40.566406 31.855469 L 43.761719 26.449219 L 41.128906 24.902344 L 39.4375 25.675781 L 39.4375 23.742188 L 34.359375 20.65625 Z M 28.71875 20.65625 "/></g></svg>
