<svg width="64" height="64" viewBox="0 0 64 64" version="1.1" xmlns:inkscape="http://www.inkscape.org/namespaces/inkscape"><defs><linearGradient id="linear0" gradientUnits="userSpaceOnUse" x1="0" y1="0" x2="0" y2="1" gradientTransform="matrix(56,0,0,35.898438,4,14.050781)"><stop offset="0" style="stop-color:rgb(0%,73.333335%,100%);stop-opacity:1;"/><stop offset="1" style="stop-color:rgb(0%,52.156866%,70.980394%);stop-opacity:1;"/></linearGradient><linearGradient id="linear1" gradientUnits="userSpaceOnUse" x1="0" y1="0" x2="0" y2="1" gradientTransform="matrix(56,0,0,35.898438,4,14.050781)"><stop offset="0" style="stop-color:rgb(0%,73.333335%,100%);stop-opacity:1;"/><stop offset="1" style="stop-color:rgb(0%,52.156866%,70.980394%);stop-opacity:1;"/></linearGradient><linearGradient id="linear2" gradientUnits="userSpaceOnUse" x1="0" y1="0" x2="0" y2="1" gradientTransform="matrix(56,0,0,35.898438,4,14.050781)"><stop offset="0" style="stop-color:rgb(0%,73.333335%,100%);stop-opacity:1;"/><stop offset="1" style="stop-color:rgb(0%,52.156866%,70.980394%);stop-opacity:1;"/></linearGradient><linearGradient id="linear3" gradientUnits="userSpaceOnUse" x1="0" y1="0" x2="0" y2="1" gradientTransform="matrix(56,0,0,35.898438,4,14.050781)"><stop offset="0" style="stop-color:rgb(0%,73.333335%,100%);stop-opacity:1;"/><stop offset="1" style="stop-color:rgb(0%,52.156866%,70.980394%);stop-opacity:1;"/></linearGradient><linearGradient id="linear4" gradientUnits="userSpaceOnUse" x1="0" y1="0" x2="0" y2="1" gradientTransform="matrix(56,0,0,35.898438,4,14.050781)"><stop offset="0" style="stop-color:rgb(0%,73.333335%,100%);stop-opacity:1;"/><stop offset="1" style="stop-color:rgb(0%,52.156866%,70.980394%);stop-opacity:1;"/></linearGradient><filter style="color-interpolation-filters:sRGB;" inkscape:label="Diffuse Light" id="filter184" x="-0.0375" y="-0.0375" width="1.075" height="1.075"><feGaussianBlur in="SourceGraphic" stdDeviation="1" result="blur" id="feGaussianBlur174" /><feDiffuseLighting diffuseConstant="1" surfaceScale="10" lighting-color="rgb(255,255,255)" result="diffuse" id="feDiffuseLighting178"><feDistantLight elevation="8" azimuth="235" id="feDistantLight176" /></feDiffuseLighting><feComposite in="diffuse" in2="diffuse" operator="arithmetic" k1="1" result="composite1" id="feComposite180" /><feComposite in="composite1" in2="SourceGraphic" k1="1" operator="arithmetic" k3="1" result="composite2" id="feComposite182" /></filter></defs><g id="surface1" style="filter:url(#filter184)"><path style=" stroke:none;fill-rule:nonzero;fill:url(#linear0);" d="M 33.773438 5.214844 L 33.773438 13.816406 L 38.261719 13.816406 L 38.261719 5.214844 Z M 31.53125 35.335938 L 30.40625 37.488281 L 31.53125 39.636719 L 42.75 39.636719 L 42.75 35.335938 Z M 31.53125 41.792969 L 30.40625 43.941406 L 31.53125 46.089844 L 42.75 46.089844 L 42.75 41.792969 Z M 31.53125 41.792969 "/><path style=" stroke:none;fill-rule:nonzero;fill:url(#linear1);" d="M 22.5625 11.667969 L 20.417969 18.125 L 13.597656 18.125 L 12.472656 22.429688 L 13.597656 26.726562 L 17.566406 26.726562 L 16.859375 28.882812 L 11.335938 28.882812 L 10.214844 33.183594 L 11.335938 37.488281 L 13.984375 37.488281 L 13.269531 39.636719 L 9.097656 39.636719 L 7.980469 43.941406 L 9.097656 48.246094 L 10.425781 48.246094 L 9.714844 50.394531 L 6.863281 50.394531 L 5.746094 54.699219 L 6.863281 59 L 20.320312 59 L 31.539062 24.578125 L 44.996094 59 L 58.457031 59 L 40.507812 11.667969 Z M 22.5625 11.667969 "/><path style=" stroke:none;fill-rule:nonzero;fill:url(#linear2);" d="M 42.75 39.636719 L 53.960938 39.636719 L 53.960938 46.089844 L 42.75 46.089844 Z M 42.75 39.636719 "/><path style=" stroke:none;fill-rule:nonzero;fill:url(#linear3);" d="M 44.992188 52.546875 L 58.449219 52.546875 L 58.449219 54.699219 L 44.992188 54.699219 Z M 44.992188 52.546875 "/><path style=" stroke:none;fill-rule:nonzero;fill:url(#linear4);" d="M 36.019531 20.273438 L 47.230469 20.273438 L 47.230469 28.882812 L 36.019531 28.882812 Z M 36.019531 20.273438 "/></g></svg>
