<svg width="64" height="64" viewBox="0 0 64 64" version="1.1" xmlns:inkscape="http://www.inkscape.org/namespaces/inkscape"><defs><linearGradient id="linear0" gradientUnits="userSpaceOnUse" x1="0" y1="0" x2="0" y2="1" gradientTransform="matrix(64.041653,0,0,39.303013,1.662661,15.873471)"><stop offset="0" style="stop-color:rgb(100%,73.333335%,0%);stop-opacity:1;"/><stop offset="1" style="stop-color:rgb(70.19608%,51.372552%,0%);stop-opacity:1;"/></linearGradient><linearGradient id="linear1" gradientUnits="userSpaceOnUse" x1="0" y1="0" x2="0" y2="1" gradientTransform="matrix(64.041653,0,0,39.303013,1.662661,15.873471)"><stop offset="0" style="stop-color:rgb(100%,73.333335%,0%);stop-opacity:1;"/><stop offset="1" style="stop-color:rgb(70.19608%,51.372552%,0%);stop-opacity:1;"/></linearGradient><linearGradient id="linear2" gradientUnits="userSpaceOnUse" x1="0" y1="0" x2="0" y2="1" gradientTransform="matrix(64.041653,0,0,39.303013,1.662661,15.873471)"><stop offset="0" style="stop-color:rgb(100%,73.333335%,0%);stop-opacity:1;"/><stop offset="1" style="stop-color:rgb(70.19608%,51.372552%,0%);stop-opacity:1;"/></linearGradient><linearGradient id="linear3" gradientUnits="userSpaceOnUse" x1="0" y1="0" x2="0" y2="1" gradientTransform="matrix(64.041653,0,0,39.303013,1.662661,15.873471)"><stop offset="0" style="stop-color:rgb(100%,73.333335%,0%);stop-opacity:1;"/><stop offset="1" style="stop-color:rgb(70.19608%,51.372552%,0%);stop-opacity:1;"/></linearGradient><linearGradient id="linear4" gradientUnits="userSpaceOnUse" x1="0" y1="0" x2="0" y2="1" gradientTransform="matrix(64.041653,0,0,39.303013,1.662661,15.873471)"><stop offset="0" style="stop-color:rgb(100%,73.333335%,0%);stop-opacity:1;"/><stop offset="1" style="stop-color:rgb(70.19608%,51.372552%,0%);stop-opacity:1;"/></linearGradient><linearGradient id="linear5" gradientUnits="userSpaceOnUse" x1="0" y1="0" x2="0" y2="1" gradientTransform="matrix(64.041653,0,0,39.303013,1.662661,15.873471)"><stop offset="0" style="stop-color:rgb(100%,73.333335%,0%);stop-opacity:1;"/><stop offset="1" style="stop-color:rgb(70.19608%,51.372552%,0%);stop-opacity:1;"/></linearGradient><filter style="color-interpolation-filters:sRGB;" inkscape:label="Diffuse Light" id="filter184" x="-0.0375" y="-0.0375" width="1.075" height="1.075"><feGaussianBlur in="SourceGraphic" stdDeviation="1" result="blur" id="feGaussianBlur174" /><feDiffuseLighting diffuseConstant="1" surfaceScale="10" lighting-color="rgb(255,255,255)" result="diffuse" id="feDiffuseLighting178"><feDistantLight elevation="8" azimuth="235" id="feDistantLight176" /></feDiffuseLighting><feComposite in="diffuse" in2="diffuse" operator="arithmetic" k1="1" result="composite1" id="feComposite180" /><feComposite in="composite1" in2="SourceGraphic" k1="1" operator="arithmetic" k3="1" result="composite2" id="feComposite182" /></filter></defs><g id="surface1" style="filter:url(#filter184)"><path style=" stroke:none;fill-rule:nonzero;fill:url(#linear0);" d="M 32.59375 5.582031 L 28.019531 24.5625 L 17.347656 24.5625 L 17.347656 34.78125 L 12.773438 34.78125 L 12.773438 28.941406 L 14.296875 28.941406 L 14.296875 23.101562 L 9.722656 23.101562 L 9.722656 26.023438 L 6.671875 26.023438 L 6.671875 23.101562 L 3.625 23.101562 L 3.625 49.265625 L 31.070312 62.515625 C 43.699219 62.507812 55.34375 55.996094 61.5625 45.472656 L 61.5625 28.9375 L 63.089844 28.9375 L 63.089844 23.101562 L 58.515625 23.101562 L 58.515625 26.023438 L 55.464844 26.023438 L 55.464844 23.101562 L 50.890625 23.101562 L 50.890625 34.78125 L 46.316406 34.78125 L 46.316406 30.402344 L 47.839844 30.402344 L 47.839844 24.558594 L 37.167969 24.558594 L 37.167969 14.34375 L 38.691406 12.882812 L 38.691406 11.421875 Z M 32.59375 5.582031 "/><path style=" stroke:none;fill-rule:nonzero;fill:url(#linear1);" d="M 29.265625 8.160156 L 38.414062 8.160156 L 38.414062 24.21875 L 29.265625 24.21875 Z M 29.265625 8.160156 "/><path style=" stroke:none;fill-rule:nonzero;fill:url(#linear2);" d="M 16.90625 20.929688 L 16.90625 26.765625 L 18.429688 26.765625 L 18.429688 51.585938 L 45.875 51.585938 L 45.875 26.765625 L 47.402344 26.765625 L 47.402344 20.929688 L 44.351562 20.929688 L 44.351562 23.84375 L 42.828125 23.84375 L 42.828125 20.929688 L 39.777344 20.929688 L 39.777344 23.84375 L 38.253906 23.84375 L 38.253906 20.929688 L 35.203125 20.929688 L 35.203125 23.84375 L 33.679688 23.84375 L 33.679688 20.929688 L 30.628906 20.929688 L 30.628906 23.84375 L 29.105469 23.84375 L 29.105469 20.929688 L 26.054688 20.929688 L 26.054688 23.84375 L 24.53125 23.84375 L 24.53125 20.929688 L 21.480469 20.929688 L 21.480469 23.84375 L 19.957031 23.84375 L 19.957031 20.929688 Z M 16.90625 20.929688 "/><path style=" stroke:none;fill-rule:nonzero;fill:url(#linear3);" d="M 1.796875 23.3125 L 1.796875 29.148438 L 3.320312 29.148438 L 3.320312 49.472656 C 4.445312 51.070312 5.710938 52.570312 7.097656 53.964844 L 12.46875 55.425781 L 12.46875 29.148438 L 13.996094 29.148438 L 13.996094 23.3125 L 9.421875 23.3125 L 9.421875 26.226562 L 6.371094 26.226562 L 6.371094 23.3125 Z M 50.59375 23.3125 L 50.59375 29.148438 L 52.113281 29.148438 L 52.113281 55.425781 L 57.433594 53.964844 C 58.84375 52.589844 60.121094 51.105469 61.265625 49.523438 L 61.265625 29.148438 L 62.789062 29.148438 L 62.789062 23.3125 L 58.210938 23.3125 L 58.210938 26.226562 L 55.167969 26.226562 L 55.167969 23.3125 Z M 50.59375 23.3125 "/><path style=" stroke:none;fill-rule:nonzero;fill:url(#linear4);" d="M 27.941406 7.777344 L 34.046875 1.941406 L 40.144531 7.777344 L 34.046875 8.507812 Z M 27.941406 7.777344 "/><path style=" stroke:none;fill-rule:nonzero;fill:url(#linear5);" d="M 6.003906 48.683594 L 6.003906 49.144531 C 6.714844 50 7.464844 50.820312 8.261719 51.605469 C 12.660156 55.9375 18.203125 59.050781 24.300781 60.621094 L 25.824219 51.605469 L 21.25 51.605469 L 21.25 48.683594 L 18.203125 48.683594 L 18.203125 51.605469 L 15.152344 51.605469 L 15.152344 48.683594 L 12.101562 48.683594 L 12.101562 51.605469 L 9.054688 51.605469 L 9.054688 48.683594 Z M 45.652344 48.683594 L 45.652344 51.605469 L 41.078125 51.605469 L 42.601562 60.652344 C 48.683594 59.066406 54.210938 55.941406 58.59375 51.605469 C 59.40625 50.804688 60.175781 49.96875 60.898438 49.09375 L 60.898438 48.683594 L 57.847656 48.683594 L 57.847656 51.605469 L 54.800781 51.605469 L 54.800781 48.683594 L 51.75 48.683594 L 51.75 51.605469 L 48.699219 51.605469 L 48.699219 48.683594 Z M 45.652344 48.683594 "/></g></svg>
