<svg width="64" height="64" viewBox="0 0 64 64" version="1.1" xmlns:inkscape="http://www.inkscape.org/namespaces/inkscape"><defs><linearGradient id="linear0" gradientUnits="userSpaceOnUse" x1="0" y1="0" x2="0" y2="1" gradientTransform="matrix(56,0,0,35.898438,4,14.050781)"><stop offset="0" style="stop-color:rgb(100%,56.862748%,82.745099%);stop-opacity:1;"/><stop offset="1" style="stop-color:rgb(100%,0%,60.000002%);stop-opacity:1;"/></linearGradient><linearGradient id="linear1" gradientUnits="userSpaceOnUse" x1="0" y1="0" x2="0" y2="1" gradientTransform="matrix(56,0,0,35.898438,4,14.050781)"><stop offset="0" style="stop-color:rgb(100%,56.862748%,82.745099%);stop-opacity:1;"/><stop offset="1" style="stop-color:rgb(100%,0%,60.000002%);stop-opacity:1;"/></linearGradient><filter style="color-interpolation-filters:sRGB;" inkscape:label="Diffuse Light" id="filter184" x="-0.0375" y="-0.0375" width="1.075" height="1.075"><feGaussianBlur in="SourceGraphic" stdDeviation="1" result="blur" id="feGaussianBlur174" /><feDiffuseLighting diffuseConstant="1" surfaceScale="10" lighting-color="rgb(255,255,255)" result="diffuse" id="feDiffuseLighting178"><feDistantLight elevation="8" azimuth="235" id="feDistantLight176" /></feDiffuseLighting><feComposite in="diffuse" in2="diffuse" operator="arithmetic" k1="1" result="composite1" id="feComposite180" /><feComposite in="composite1" in2="SourceGraphic" k1="1" operator="arithmetic" k3="1" result="composite2" id="feComposite182" /></filter></defs><g id="surface1" style="filter:url(#filter184)"><path style=" stroke:none;fill-rule:nonzero;fill:url(#linear0);" d="M 7.511719 6.648438 L 11.882812 20.558594 L 14.070312 18.238281 L 27.183594 32.148438 L 18.441406 41.421875 L 11.882812 41.421875 L 3.140625 50.695312 L 9.699219 50.695312 L 14.070312 55.332031 L 14.070312 62.289062 L 22.8125 53.015625 L 22.8125 46.058594 L 31.554688 36.785156 L 40.296875 46.058594 L 40.296875 53.015625 L 49.039062 62.289062 L 49.039062 55.332031 L 53.410156 50.695312 L 59.96875 50.695312 L 51.222656 41.421875 L 44.667969 41.421875 L 35.925781 32.148438 L 49.039062 18.238281 L 51.222656 20.558594 L 55.59375 6.648438 L 42.480469 11.285156 L 31.554688 27.511719 L 18.441406 13.601562 L 20.625 11.285156 Z M 7.511719 6.648438 "/><path style=" stroke:none;fill-rule:nonzero;fill:url(#linear1);" d="M 6.367188 4.550781 L 10.753906 21.191406 L 19.53125 10.097656 Z M 54.632812 4.550781 L 41.472656 10.097656 L 50.246094 21.191406 Z M 54.632812 4.550781 "/></g></svg>
