<svg width="64" height="64" viewBox="0 0 64 64" version="1.1" xmlns:inkscape="http://www.inkscape.org/namespaces/inkscape"><defs><linearGradient id="linear0" gradientUnits="userSpaceOnUse" x1="0" y1="0" x2="0" y2="1" gradientTransform="matrix(58.872456,0,0,38.820636,-0.572452,13.098026)"><stop offset="0" style="stop-color:rgb(75.686276%,77.64706%,83.92157%);stop-opacity:1;"/><stop offset="1" style="stop-color:rgb(43.529412%,45.09804%,50.196081%);stop-opacity:1;"/></linearGradient><filter style="color-interpolation-filters:sRGB;" inkscape:label="Diffuse Light" id="filter184" x="-0.0375" y="-0.0375" width="1.075" height="1.075"><feGaussianBlur in="SourceGraphic" stdDeviation="1" result="blur" id="feGaussianBlur174" /><feDiffuseLighting diffuseConstant="1" surfaceScale="10" lighting-color="rgb(255,255,255)" result="diffuse" id="feDiffuseLighting178"><feDistantLight elevation="8" azimuth="235" id="feDistantLight176" /></feDiffuseLighting><feComposite in="diffuse" in2="diffuse" operator="arithmetic" k1="1" result="composite1" id="feComposite180" /><feComposite in="composite1" in2="SourceGraphic" k1="1" operator="arithmetic" k3="1" result="composite2" id="feComposite182" /></filter></defs><g id="surface1" style="filter:url(#filter184)"><path style=" stroke:none;fill-rule:nonzero;fill:url(#linear0);" d="M 11.117188 1.679688 L 6.921875 17.054688 L 11.117188 24.746094 L 26.496094 28.28125 L 26.496094 45.246094 L 19.503906 47.804688 L 12.515625 47.804688 L 6.921875 55.492188 L 16.707031 55.492188 L 26.496094 52.933594 L 26.496094 58.054688 C 26.496094 60.898438 28.992188 63.179688 32.085938 63.179688 C 35.183594 63.179688 37.679688 60.894531 37.679688 58.054688 L 37.679688 50.367188 L 48.863281 47.804688 L 54.457031 47.804688 L 54.457031 40.117188 L 48.863281 40.117188 L 37.679688 42.679688 L 37.679688 28.28125 L 53.054688 24.746094 L 57.253906 17.054688 L 53.054688 1.679688 Z M 11.117188 1.679688 "/></g></svg>
