<svg width="64" height="64" viewBox="0 0 64 64" version="1.1" xmlns:inkscape="http://www.inkscape.org/namespaces/inkscape"><defs><linearGradient id="linear0" gradientUnits="userSpaceOnUse" x1="0" y1="0" x2="0" y2="1" gradientTransform="matrix(62.039377,0,0,39.223578,-0.774283,12.549771)"><stop offset="0" style="stop-color:rgb(100%,56.862748%,82.745099%);stop-opacity:1;"/><stop offset="1" style="stop-color:rgb(100%,0%,60.000002%);stop-opacity:1;"/></linearGradient><filter style="color-interpolation-filters:sRGB;" inkscape:label="Diffuse Light" id="filter184" x="-0.0375" y="-0.0375" width="1.075" height="1.075"><feGaussianBlur in="SourceGraphic" stdDeviation="1" result="blur" id="feGaussianBlur174" /><feDiffuseLighting diffuseConstant="1" surfaceScale="10" lighting-color="rgb(255,255,255)" result="diffuse" id="feDiffuseLighting178"><feDistantLight elevation="8" azimuth="235" id="feDistantLight176" /></feDiffuseLighting><feComposite in="diffuse" in2="diffuse" operator="arithmetic" k1="1" result="composite1" id="feComposite180" /><feComposite in="composite1" in2="SourceGraphic" k1="1" operator="arithmetic" k3="1" result="composite2" id="feComposite182" /></filter></defs><g id="surface1" style="filter:url(#filter184)"><path style=" stroke:none;fill-rule:nonzero;fill:url(#linear0);" d="M 24.390625 1.464844 L 1.226562 43.140625 L 19.242188 43.140625 L 24.390625 29.582031 L 14.09375 21.078125 L 26.960938 21.078125 L 32.109375 6.371094 L 37.257812 21.078125 L 50.765625 21.078125 L 39.832031 1.464844 Z M 50.640625 21.078125 L 39.699219 29.65625 L 44.851562 43.140625 L 62.867188 43.140625 Z M 44.851562 43.140625 L 31.980469 34.339844 L 19.109375 43.140625 Z M 1.09375 48.039062 L 1.09375 52.941406 L 52.570312 52.941406 L 57.714844 48.039062 Z M 62.867188 48.039062 L 47.421875 62.746094 L 62.867188 62.746094 Z M 1.09375 57.847656 L 1.09375 62.746094 L 42.277344 62.746094 L 47.421875 57.847656 Z M 1.09375 57.847656 "/></g></svg>
