<svg width="64" height="64" viewBox="0 0 64 64" version="1.1" xmlns:inkscape="http://www.inkscape.org/namespaces/inkscape"><defs><linearGradient id="linear0" gradientUnits="userSpaceOnUse" x1="0" y1="0" x2="0" y2="1" gradientTransform="matrix(56,0,0,35.898438,4,14.050781)"><stop offset="0" style="stop-color:rgb(100%,73.333335%,0%);stop-opacity:1;"/><stop offset="1" style="stop-color:rgb(70.19608%,51.372552%,0%);stop-opacity:1;"/></linearGradient><filter style="color-interpolation-filters:sRGB;" inkscape:label="Diffuse Light" id="filter184" x="-0.0375" y="-0.0375" width="1.075" height="1.075"><feGaussianBlur in="SourceGraphic" stdDeviation="1" result="blur" id="feGaussianBlur174" /><feDiffuseLighting diffuseConstant="1" surfaceScale="10" lighting-color="rgb(255,255,255)" result="diffuse" id="feDiffuseLighting178"><feDistantLight elevation="8" azimuth="235" id="feDistantLight176" /></feDiffuseLighting><feComposite in="diffuse" in2="diffuse" operator="arithmetic" k1="1" result="composite1" id="feComposite180" /><feComposite in="composite1" in2="SourceGraphic" k1="1" operator="arithmetic" k3="1" result="composite2" id="feComposite182" /></filter></defs><g id="surface1" style="filter:url(#filter184)"><path style=" stroke:none;fill-rule:nonzero;fill:url(#linear0);" d="M 40.71875 61.636719 C 41.980469 61.253906 43.34375 60.609375 44.519531 59.660156 L 44.519531 51.742188 L 52.125 43.824219 L 59.726562 43.824219 C 61.066406 40.378906 61.625 37.648438 61.628906 33.925781 C 61.628906 17.714844 48.855469 4.234375 33.117188 4.234375 C 17.378906 4.234375 4.601562 17.714844 4.601562 33.925781 C 4.605469 37.648438 5.164062 40.378906 6.503906 43.824219 L 14.109375 43.824219 L 21.710938 51.742188 L 21.710938 59.660156 C 22.878906 60.609375 24.257812 61.253906 25.511719 61.636719 M 19.808594 24.027344 L 27.414062 31.945312 L 27.414062 43.824219 L 14.109375 29.964844 Z M 46.421875 24.027344 L 52.125 29.964844 L 38.820312 43.824219 L 38.820312 31.945312 Z M 46.421875 24.027344 "/></g></svg>
