<svg width="64" height="64" viewBox="0 0 64 64" version="1.1" xmlns:inkscape="http://www.inkscape.org/namespaces/inkscape"><defs><linearGradient id="linear0" gradientUnits="userSpaceOnUse" x1="0" y1="0" x2="0" y2="1" gradientTransform="matrix(56,0,0,35.898438,4,14.050781)"><stop offset="0" style="stop-color:rgb(100%,63.137257%,63.137257%);stop-opacity:1;"/><stop offset="1" style="stop-color:rgb(100%,27.843139%,27.843139%);stop-opacity:1;"/></linearGradient><linearGradient id="linear1" gradientUnits="userSpaceOnUse" x1="0" y1="0" x2="0" y2="1" gradientTransform="matrix(56,0,0,35.898438,4,14.050781)"><stop offset="0" style="stop-color:rgb(100%,63.137257%,63.137257%);stop-opacity:1;"/><stop offset="1" style="stop-color:rgb(100%,27.843139%,27.843139%);stop-opacity:1;"/></linearGradient><linearGradient id="linear2" gradientUnits="userSpaceOnUse" x1="0" y1="0" x2="0" y2="1" gradientTransform="matrix(56,0,0,35.898438,4,14.050781)"><stop offset="0" style="stop-color:rgb(100%,63.137257%,63.137257%);stop-opacity:1;"/><stop offset="1" style="stop-color:rgb(100%,27.843139%,27.843139%);stop-opacity:1;"/></linearGradient><linearGradient id="linear3" gradientUnits="userSpaceOnUse" x1="0" y1="0" x2="0" y2="1" gradientTransform="matrix(56,0,0,35.898438,4,14.050781)"><stop offset="0" style="stop-color:rgb(100%,63.137257%,63.137257%);stop-opacity:1;"/><stop offset="1" style="stop-color:rgb(100%,27.843139%,27.843139%);stop-opacity:1;"/></linearGradient><linearGradient id="linear4" gradientUnits="userSpaceOnUse" x1="0" y1="0" x2="0" y2="1" gradientTransform="matrix(56,0,0,35.898438,4,14.050781)"><stop offset="0" style="stop-color:rgb(100%,63.137257%,63.137257%);stop-opacity:1;"/><stop offset="1" style="stop-color:rgb(100%,27.843139%,27.843139%);stop-opacity:1;"/></linearGradient><filter style="color-interpolation-filters:sRGB;" inkscape:label="Diffuse Light" id="filter184" x="-0.0375" y="-0.0375" width="1.075" height="1.075"><feGaussianBlur in="SourceGraphic" stdDeviation="1" result="blur" id="feGaussianBlur174" /><feDiffuseLighting diffuseConstant="1" surfaceScale="10" lighting-color="rgb(255,255,255)" result="diffuse" id="feDiffuseLighting178"><feDistantLight elevation="8" azimuth="235" id="feDistantLight176" /></feDiffuseLighting><feComposite in="diffuse" in2="diffuse" operator="arithmetic" k1="1" result="composite1" id="feComposite180" /><feComposite in="composite1" in2="SourceGraphic" k1="1" operator="arithmetic" k3="1" result="composite2" id="feComposite182" /></filter></defs><g id="surface1" style="filter:url(#filter184)"><path style=" stroke:none;fill-rule:nonzero;fill:url(#linear0);" d="M 28.199219 34.738281 L 30.414062 43.554688 L 30.414062 34.738281 Z M 34.828125 34.738281 L 34.828125 43.554688 L 37.039062 34.738281 Z M 30.414062 52.378906 L 28.199219 58.996094 L 30.414062 58.996094 Z M 34.828125 52.378906 L 34.828125 58.996094 L 37.039062 58.996094 Z M 34.828125 52.378906 "/><path style=" stroke:none;fill-rule:nonzero;fill:url(#linear1);" d="M 10.890625 3.617188 C 8.683594 5.820312 10.890625 8.03125 17.515625 16.847656 L 13.097656 21.261719 L 4.265625 25.667969 L 27.894531 25.667969 L 30.769531 30.078125 L 35.1875 30.078125 L 38.054688 25.667969 L 61.695312 25.667969 L 52.855469 21.261719 L 48.441406 16.847656 C 55.066406 8.03125 57.273438 5.820312 55.066406 3.617188 C 55.066406 8.03125 50.648438 8.03125 44.023438 10.234375 L 46.226562 3.617188 L 39.601562 8.03125 L 26.347656 8.03125 L 19.722656 3.617188 L 21.9375 10.234375 C 15.308594 8.03125 10.890625 8.03125 10.890625 3.617188 Z M 24.484375 26.976562 C 23.863281 27.050781 23.035156 27.328125 21.9375 27.875 L 17.515625 30.078125 L 6.46875 43.308594 L 26.347656 30.078125 C 26.347656 28.425781 26.347656 26.769531 24.484375 26.976562 Z M 41.464844 26.976562 C 39.601562 26.769531 39.601562 28.425781 39.601562 30.078125 L 59.480469 43.308594 L 48.441406 30.078125 L 44.023438 27.875 C 42.914062 27.328125 42.085938 27.050781 41.464844 26.976562 Z M 41.464844 26.976562 "/><path style=" stroke:none;fill-rule:nonzero;fill:url(#linear2);" d="M 28.199219 41.351562 L 25.992188 47.96875 L 28.199219 61.199219 L 37.039062 61.199219 L 39.246094 47.96875 L 37.039062 41.351562 C 39.246094 50.171875 37.039062 58.996094 32.621094 58.996094 C 28.199219 58.996094 25.992188 50.171875 28.199219 41.351562 Z M 25.992188 43.554688 L 17.160156 47.96875 L 14.949219 58.996094 Z M 39.246094 43.554688 L 50.292969 58.996094 L 48.078125 47.96875 Z M 39.246094 43.554688 "/><path style=" stroke:none;fill-rule:nonzero;fill:url(#linear3);" d="M 32.621094 39.148438 C 30.414062 45.765625 30.414062 45.765625 30.414062 50.171875 C 30.414062 52.378906 34.828125 52.378906 34.828125 50.171875 C 34.828125 45.765625 34.828125 45.765625 32.621094 39.148438 Z M 32.621094 39.148438 "/><path style=" stroke:none;fill-rule:nonzero;fill:url(#linear4);" d="M 25.992188 32.535156 C 28.199219 32.535156 28.199219 34.738281 28.199219 36.941406 L 29.914062 36.941406 C 31.589844 38.359375 33.648438 38.359375 35.324219 36.941406 L 37.039062 36.941406 C 37.039062 34.738281 37.039062 32.535156 39.246094 32.535156 L 37.039062 32.535156 L 34.828125 34.738281 L 30.414062 34.738281 L 28.199219 32.535156 Z M 25.992188 32.535156 "/></g></svg>
