<svg width="64" height="64" viewBox="0 0 64 64" version="1.1" xmlns:inkscape="http://www.inkscape.org/namespaces/inkscape"><defs><linearGradient id="linear0" gradientUnits="userSpaceOnUse" x1="0" y1="0" x2="0" y2="1" gradientTransform="matrix(56,0,0,35.898438,4,14.050781)"><stop offset="0" style="stop-color:rgb(100%,73.333335%,0%);stop-opacity:1;"/><stop offset="1" style="stop-color:rgb(70.19608%,51.372552%,0%);stop-opacity:1;"/></linearGradient><filter style="color-interpolation-filters:sRGB;" inkscape:label="Diffuse Light" id="filter184" x="-0.0375" y="-0.0375" width="1.075" height="1.075"><feGaussianBlur in="SourceGraphic" stdDeviation="1" result="blur" id="feGaussianBlur174" /><feDiffuseLighting diffuseConstant="1" surfaceScale="10" lighting-color="rgb(255,255,255)" result="diffuse" id="feDiffuseLighting178"><feDistantLight elevation="8" azimuth="235" id="feDistantLight176" /></feDiffuseLighting><feComposite in="diffuse" in2="diffuse" operator="arithmetic" k1="1" result="composite1" id="feComposite180" /><feComposite in="composite1" in2="SourceGraphic" k1="1" operator="arithmetic" k3="1" result="composite2" id="feComposite182" /></filter></defs><g id="surface1" style="filter:url(#filter184)"><path style=" stroke:none;fill-rule:nonzero;fill:url(#linear0);" d="M 4.078125 4.9375 L 4.078125 13.890625 L 8.734375 13.890625 L 8.734375 22.84375 L 13.390625 22.84375 L 13.390625 31.796875 L 18.046875 31.796875 L 18.046875 40.75 L 22.703125 40.75 L 22.703125 54.179688 L 11.0625 54.179688 C 23.480469 63.132812 40.554688 63.132812 52.972656 54.179688 L 41.332031 54.179688 L 41.332031 40.75 L 45.988281 40.75 L 45.988281 31.796875 L 50.644531 31.796875 L 50.644531 22.84375 L 55.300781 22.84375 L 55.300781 13.890625 L 59.957031 13.890625 L 59.957031 4.9375 Z M 4.078125 4.9375 "/></g></svg>
