<svg width="64" height="64" viewBox="0 0 64 64" version="1.1" xmlns:inkscape="http://www.inkscape.org/namespaces/inkscape"><defs><linearGradient id="linear0" gradientUnits="userSpaceOnUse" x1="0" y1="0" x2="0" y2="1" gradientTransform="matrix(56,0,0,35.898438,4,14.050781)"><stop offset="0" style="stop-color:rgb(87.058824%,86.666667%,56.470591%);stop-opacity:1;"/><stop offset="1" style="stop-color:rgb(67.843139%,67.450982%,38.039216%);stop-opacity:1;"/></linearGradient><filter style="color-interpolation-filters:sRGB;" inkscape:label="Diffuse Light" id="filter184" x="-0.0375" y="-0.0375" width="1.075" height="1.075"><feGaussianBlur in="SourceGraphic" stdDeviation="1" result="blur" id="feGaussianBlur174" /><feDiffuseLighting diffuseConstant="1" surfaceScale="10" lighting-color="rgb(255,255,255)" result="diffuse" id="feDiffuseLighting178"><feDistantLight elevation="8" azimuth="235" id="feDistantLight176" /></feDiffuseLighting><feComposite in="diffuse" in2="diffuse" operator="arithmetic" k1="1" result="composite1" id="feComposite180" /><feComposite in="composite1" in2="SourceGraphic" k1="1" operator="arithmetic" k3="1" result="composite2" id="feComposite182" /></filter></defs><g id="surface1" style="filter:url(#filter184)"><path style=" stroke:none;fill-rule:nonzero;fill:url(#linear0);" d="M 19.128906 3.769531 L 19.128906 17.851562 L 12.382812 17.851562 L 12.382812 34.28125 L 19.128906 34.28125 L 19.128906 41.320312 L 46.109375 41.320312 L 46.109375 34.28125 L 52.855469 34.28125 L 52.855469 17.851562 L 46.109375 17.851562 L 46.109375 3.769531 L 39.363281 3.769531 L 39.363281 17.851562 L 25.875 17.851562 L 25.875 3.769531 Z M 52.855469 17.851562 L 59.601562 17.851562 L 59.601562 10.808594 L 52.855469 10.808594 Z M 46.109375 41.320312 L 46.109375 48.363281 L 52.855469 48.363281 L 52.855469 41.320312 Z M 52.855469 48.363281 L 52.855469 60.097656 L 59.601562 60.097656 L 59.601562 48.363281 Z M 46.109375 48.363281 L 39.363281 48.363281 L 39.363281 55.40625 L 46.109375 55.40625 Z M 19.128906 41.320312 L 12.382812 41.320312 L 12.382812 48.363281 L 19.128906 48.363281 Z M 19.128906 48.363281 L 19.128906 55.40625 L 25.875 55.40625 L 25.875 48.363281 Z M 12.382812 48.363281 L 5.636719 48.363281 L 5.636719 60.097656 L 12.382812 60.097656 Z M 12.382812 17.851562 L 12.382812 10.808594 L 5.636719 10.808594 L 5.636719 17.851562 Z M 12.382812 17.851562 "/></g></svg>
