<svg width="64" height="64" viewBox="0 0 64 64" version="1.1" xmlns:inkscape="http://www.inkscape.org/namespaces/inkscape"><defs><linearGradient id="linear0" gradientUnits="userSpaceOnUse" x1="0" y1="0" x2="0" y2="1" gradientTransform="matrix(56,0,0,35.898438,4,14.050781)"><stop offset="0" style="stop-color:rgb(0%,78.823531%,36.862746%);stop-opacity:1;"/><stop offset="1" style="stop-color:rgb(0%,54.11765%,25.098041%);stop-opacity:1;"/></linearGradient><filter style="color-interpolation-filters:sRGB;" inkscape:label="Diffuse Light" id="filter184" x="-0.0375" y="-0.0375" width="1.075" height="1.075"><feGaussianBlur in="SourceGraphic" stdDeviation="1" result="blur" id="feGaussianBlur174" /><feDiffuseLighting diffuseConstant="1" surfaceScale="10" lighting-color="rgb(255,255,255)" result="diffuse" id="feDiffuseLighting178"><feDistantLight elevation="8" azimuth="235" id="feDistantLight176" /></feDiffuseLighting><feComposite in="diffuse" in2="diffuse" operator="arithmetic" k1="1" result="composite1" id="feComposite180" /><feComposite in="composite1" in2="SourceGraphic" k1="1" operator="arithmetic" k3="1" result="composite2" id="feComposite182" /></filter></defs><g id="surface1" style="filter:url(#filter184)"><path style=" stroke:none;fill-rule:nonzero;fill:url(#linear0);" d="M 1.84375 2.414062 L 1.84375 18.71875 L 18.339844 18.71875 L 18.339844 13.285156 L 7.34375 13.285156 L 7.34375 7.847656 L 18.339844 7.847656 L 18.339844 2.414062 Z M 23.839844 2.414062 L 23.839844 18.71875 L 29.335938 18.71875 L 29.335938 7.847656 L 37.585938 7.847656 L 37.585938 10.566406 L 32.085938 10.566406 L 32.085938 18.71875 L 34.835938 18.71875 L 34.835938 13.285156 L 40.332031 13.285156 L 40.332031 2.414062 Z M 45.832031 2.414062 L 45.832031 18.71875 L 62.328125 18.71875 L 62.328125 2.414062 Z M 51.328125 7.847656 L 56.828125 7.847656 L 56.828125 13.285156 L 51.328125 13.285156 Z M 1.84375 24.152344 L 1.84375 35.023438 L 12.84375 35.023438 L 12.84375 37.742188 L 1.84375 37.742188 L 1.84375 40.457031 L 18.339844 40.457031 L 18.339844 32.304688 L 7.34375 32.304688 L 7.34375 29.589844 L 18.339844 29.589844 L 18.339844 24.152344 Z M 23.839844 24.152344 L 23.839844 35.023438 L 34.835938 35.023438 L 34.835938 37.742188 L 23.839844 37.742188 L 23.839844 40.457031 L 40.332031 40.457031 L 40.332031 32.304688 L 29.335938 32.304688 L 29.335938 29.589844 L 40.332031 29.589844 L 40.332031 24.152344 Z M 45.832031 24.152344 L 45.832031 40.457031 L 51.328125 40.457031 L 51.328125 29.589844 L 56.828125 29.589844 L 56.828125 40.457031 L 62.328125 40.457031 L 62.328125 24.152344 Z M 7.34375 45.894531 L 7.34375 62.199219 L 12.84375 62.199219 L 12.84375 45.894531 Z M 23.839844 45.894531 L 23.839844 56.761719 L 32.085938 56.761719 L 32.085938 54.046875 L 29.335938 54.046875 L 29.335938 51.328125 L 34.835938 51.328125 L 34.835938 62.199219 L 40.332031 62.199219 L 40.332031 45.894531 Z M 23.839844 45.894531 "/></g></svg>
