<svg width="64" height="64" viewBox="0 0 64 64" version="1.1" xmlns:inkscape="http://www.inkscape.org/namespaces/inkscape"><defs><linearGradient id="linear0" gradientUnits="userSpaceOnUse" x1="0" y1="0" x2="0" y2="1" gradientTransform="matrix(56,0,0,35.898438,4,14.050781)"><stop offset="0" style="stop-color:rgb(92.941177%,83.529413%,72.549021%);stop-opacity:1;"/><stop offset="1" style="stop-color:rgb(81.960785%,71.372551%,59.215689%);stop-opacity:1;"/></linearGradient><linearGradient id="linear1" gradientUnits="userSpaceOnUse" x1="0" y1="0" x2="0" y2="1" gradientTransform="matrix(56,0,0,35.898438,4,14.050781)"><stop offset="0" style="stop-color:rgb(92.941177%,83.529413%,72.549021%);stop-opacity:1;"/><stop offset="1" style="stop-color:rgb(81.960785%,71.372551%,59.215689%);stop-opacity:1;"/></linearGradient><filter style="color-interpolation-filters:sRGB;" inkscape:label="Diffuse Light" id="filter184" x="-0.0375" y="-0.0375" width="1.075" height="1.075"><feGaussianBlur in="SourceGraphic" stdDeviation="1" result="blur" id="feGaussianBlur174" /><feDiffuseLighting diffuseConstant="1" surfaceScale="10" lighting-color="rgb(255,255,255)" result="diffuse" id="feDiffuseLighting178"><feDistantLight elevation="8" azimuth="235" id="feDistantLight176" /></feDiffuseLighting><feComposite in="diffuse" in2="diffuse" operator="arithmetic" k1="1" result="composite1" id="feComposite180" /><feComposite in="composite1" in2="SourceGraphic" k1="1" operator="arithmetic" k3="1" result="composite2" id="feComposite182" /></filter></defs><g id="surface1" style="filter:url(#filter184)"><path style=" stroke:none;fill-rule:nonzero;fill:url(#linear0);" d="M 43.675781 27.179688 L 43.675781 61.457031 C 48.851562 59.875 53.667969 57.164062 57.8125 53.492188 L 57.8125 27.179688 Z M 8.328125 27.730469 L 8.328125 53.492188 C 12.46875 57.164062 17.285156 59.875 22.464844 61.457031 L 22.464844 27.730469 Z M 8.328125 27.730469 "/><path style=" stroke:none;fill-rule:nonzero;fill:url(#linear1);" d="M 15.496094 8.398438 C 9.632812 8.398438 4.890625 13.46875 4.890625 19.730469 C 4.890625 25.984375 9.632812 31.0625 15.496094 31.0625 C 21.347656 31.0625 26.097656 25.984375 26.097656 19.730469 C 26.097656 13.46875 21.347656 8.398438 15.496094 8.398438 Z M 50.84375 8.398438 C 44.980469 8.398438 40.238281 13.46875 40.238281 19.730469 C 40.238281 25.984375 44.980469 31.0625 50.84375 31.0625 C 56.695312 31.0625 61.445312 25.984375 61.445312 19.730469 C 61.445312 13.46875 56.695312 8.398438 50.84375 8.398438 Z M 32.832031 27.277344 C 30.4375 27.265625 28.058594 28.007812 26.097656 29.558594 C 23.976562 31.226562 22.558594 38.609375 22.558594 38.609375 L 43.769531 38.609375 C 43.769531 38.609375 41.925781 31.273438 39.625 29.558594 C 37.636719 28.074219 35.222656 27.300781 32.832031 27.277344 Z M 32.832031 27.277344 "/></g></svg>
