<svg width="64" height="64" viewBox="0 0 64 64" version="1.1" xmlns:inkscape="http://www.inkscape.org/namespaces/inkscape"><defs><linearGradient id="linear0" gradientUnits="userSpaceOnUse" x1="0" y1="0" x2="0" y2="1" gradientTransform="matrix(56,0,0,35.898438,4,14.050781)"><stop offset="0" style="stop-color:rgb(0%,96.078432%,86.274511%);stop-opacity:1;"/><stop offset="1" style="stop-color:rgb(0%,54.901963%,49.411765%);stop-opacity:1;"/></linearGradient><filter style="color-interpolation-filters:sRGB;" inkscape:label="Diffuse Light" id="filter184" x="-0.0375" y="-0.0375" width="1.075" height="1.075"><feGaussianBlur in="SourceGraphic" stdDeviation="1" result="blur" id="feGaussianBlur174" /><feDiffuseLighting diffuseConstant="1" surfaceScale="10" lighting-color="rgb(255,255,255)" result="diffuse" id="feDiffuseLighting178"><feDistantLight elevation="8" azimuth="235" id="feDistantLight176" /></feDiffuseLighting><feComposite in="diffuse" in2="diffuse" operator="arithmetic" k1="1" result="composite1" id="feComposite180" /><feComposite in="composite1" in2="SourceGraphic" k1="1" operator="arithmetic" k3="1" result="composite2" id="feComposite182" /></filter></defs><g id="surface1" style="filter:url(#filter184)"><path style=" stroke:none;fill-rule:nonzero;fill:url(#linear0);" d="M 30.675781 4.925781 L 26.757812 7.949219 L 31.226562 17.019531 L 15.984375 13.785156 L 19.476562 20.046875 L 3.253906 17.609375 L 3.253906 36.933594 C 3.253906 36.933594 3.285156 39.605469 4.988281 43.675781 L 30.691406 41.199219 L 56.550781 43.691406 C 58.398438 39.605469 58.59375 36.917969 58.59375 36.917969 L 58.59375 17.5625 L 50.875 7.945312 L 54.792969 17.019531 L 42.488281 10.96875 L 42.488281 17.019531 Z M 7.714844 20.046875 L 27.308594 23.070312 L 27.308594 26.09375 L 7.714844 23.070312 Z M 54.734375 20.046875 L 54.734375 23.070312 L 35.144531 26.09375 L 35.144531 23.070312 Z M 26.757812 47.261719 L 15.003906 50.285156 L 26.757812 59.355469 L 34.59375 59.355469 L 46.347656 50.285156 L 34.59375 47.261719 Z M 26.757812 47.261719 "/></g></svg>
