<svg width="64" height="64" viewBox="0 0 64 64" version="1.1" xmlns:inkscape="http://www.inkscape.org/namespaces/inkscape"><defs><linearGradient id="linear0" gradientUnits="userSpaceOnUse" x1="0" y1="0" x2="0" y2="1" gradientTransform="matrix(56,0,0,35.898438,4,14.050781)"><stop offset="0" style="stop-color:rgb(75.686276%,77.64706%,83.92157%);stop-opacity:1;"/><stop offset="1" style="stop-color:rgb(43.529412%,45.09804%,50.196081%);stop-opacity:1;"/></linearGradient><filter style="color-interpolation-filters:sRGB;" inkscape:label="Diffuse Light" id="filter184" x="-0.0375" y="-0.0375" width="1.075" height="1.075"><feGaussianBlur in="SourceGraphic" stdDeviation="1" result="blur" id="feGaussianBlur174" /><feDiffuseLighting diffuseConstant="1" surfaceScale="10" lighting-color="rgb(255,255,255)" result="diffuse" id="feDiffuseLighting178"><feDistantLight elevation="8" azimuth="235" id="feDistantLight176" /></feDiffuseLighting><feComposite in="diffuse" in2="diffuse" operator="arithmetic" k1="1" result="composite1" id="feComposite180" /><feComposite in="composite1" in2="SourceGraphic" k1="1" operator="arithmetic" k3="1" result="composite2" id="feComposite182" /></filter></defs><g id="surface1" style="filter:url(#filter184)"><path style=" stroke:none;fill-rule:nonzero;fill:url(#linear0);" d="M 3.199219 16.222656 L 3.199219 55.085938 L 19.601562 55.085938 L 24.289062 48.609375 L 24.289062 22.699219 L 19.601562 16.222656 Z M 31.316406 16.222656 L 26.628906 22.699219 L 26.628906 48.609375 L 31.316406 55.085938 L 43.03125 55.085938 L 47.71875 48.609375 L 47.71875 22.699219 L 43.03125 16.222656 Z M 52.40625 16.222656 L 52.40625 55.085938 L 59.433594 55.085938 L 59.433594 16.222656 Z M 10.230469 25.9375 L 14.914062 25.9375 L 17.257812 29.179688 L 17.257812 42.132812 L 14.914062 45.371094 L 10.230469 45.371094 Z M 36.003906 25.9375 L 38.347656 25.9375 L 40.691406 29.179688 L 40.691406 42.132812 L 38.347656 45.371094 L 36.003906 45.371094 L 33.660156 42.132812 L 33.660156 29.179688 Z M 36.003906 25.9375 "/></g></svg>
