<svg width="64" height="64" viewBox="0 0 64 64" version="1.1" xmlns:inkscape="http://www.inkscape.org/namespaces/inkscape"><defs><linearGradient id="linear0" gradientUnits="userSpaceOnUse" x1="0" y1="0" x2="0" y2="1" gradientTransform="matrix(56,0,0,35.898438,4,14.050781)"><stop offset="0" style="stop-color:rgb(0%,78.823531%,36.862746%);stop-opacity:1;"/><stop offset="1" style="stop-color:rgb(0%,54.11765%,25.098041%);stop-opacity:1;"/></linearGradient><filter style="color-interpolation-filters:sRGB;" inkscape:label="Diffuse Light" id="filter184" x="-0.0375" y="-0.0375" width="1.075" height="1.075"><feGaussianBlur in="SourceGraphic" stdDeviation="1" result="blur" id="feGaussianBlur174" /><feDiffuseLighting diffuseConstant="1" surfaceScale="10" lighting-color="rgb(255,255,255)" result="diffuse" id="feDiffuseLighting178"><feDistantLight elevation="8" azimuth="235" id="feDistantLight176" /></feDiffuseLighting><feComposite in="diffuse" in2="diffuse" operator="arithmetic" k1="1" result="composite1" id="feComposite180" /><feComposite in="composite1" in2="SourceGraphic" k1="1" operator="arithmetic" k3="1" result="composite2" id="feComposite182" /></filter></defs><g id="surface1" style="filter:url(#filter184)"><path style=" stroke:none;fill-rule:nonzero;fill:url(#linear0);" d="M 22.871094 4.882812 L 22.871094 7.25 L 15.992188 7.25 L 15.992188 9.613281 L 11.40625 9.613281 L 11.40625 11.976562 L 9.113281 11.976562 L 9.113281 14.34375 L 6.820312 14.34375 L 6.820312 21.4375 L 4.527344 21.4375 L 4.527344 35.625 L 6.820312 35.625 L 6.820312 37.988281 L 9.113281 37.988281 L 9.113281 40.351562 L 11.40625 40.351562 L 11.40625 42.71875 L 13.699219 42.71875 L 13.699219 54.539062 L 15.992188 54.539062 L 15.992188 56.90625 L 20.578125 56.90625 L 20.578125 49.8125 L 25.164062 49.8125 L 25.164062 56.90625 L 29.746094 56.90625 L 29.746094 49.8125 L 34.332031 49.8125 L 34.332031 56.90625 L 41.210938 56.90625 L 41.210938 49.8125 L 43.503906 49.8125 L 43.503906 45.082031 L 45.796875 45.082031 L 45.796875 42.71875 L 52.675781 42.71875 L 52.675781 40.351562 L 54.96875 40.351562 L 54.96875 37.988281 L 57.261719 37.988281 L 57.261719 33.257812 L 59.554688 33.257812 L 59.554688 19.070312 L 57.261719 19.070312 L 57.261719 14.34375 L 54.96875 14.34375 L 54.96875 11.976562 L 52.675781 11.976562 L 52.675781 9.613281 L 50.382812 9.613281 L 50.382812 7.25 L 43.503906 7.25 L 43.503906 4.882812 Z M 9.113281 21.4375 L 15.992188 21.4375 L 15.992188 23.800781 L 18.285156 23.800781 L 18.285156 37.988281 L 11.40625 37.988281 L 11.40625 35.625 L 9.113281 35.625 Z M 32.039062 21.4375 L 41.210938 21.4375 L 41.210938 23.800781 L 43.503906 23.800781 L 43.503906 35.625 L 41.210938 35.625 L 41.210938 37.988281 L 29.746094 37.988281 L 29.746094 23.800781 L 32.039062 23.800781 Z M 20.578125 40.351562 L 25.164062 40.351562 L 25.164062 42.71875 L 27.457031 42.71875 L 27.457031 45.082031 L 18.285156 45.082031 L 18.285156 42.71875 L 20.578125 42.71875 Z M 20.578125 40.351562 "/></g></svg>
