<svg width="64" height="64" viewBox="0 0 64 64" version="1.1" xmlns:inkscape="http://www.inkscape.org/namespaces/inkscape"><defs><linearGradient id="linear0" gradientUnits="userSpaceOnUse" x1="0" y1="0" x2="0" y2="1" gradientTransform="matrix(56,0,0,37.442104,-5.732935,15.464312)"><stop offset="0" style="stop-color:rgb(61.176473%,69.803923%,85.09804%);stop-opacity:1;"/><stop offset="1" style="stop-color:rgb(44.313726%,52.156866%,65.882355%);stop-opacity:1;"/></linearGradient><filter style="color-interpolation-filters:sRGB;" inkscape:label="Diffuse Light" id="filter184" x="-0.0375" y="-0.0375" width="1.075" height="1.075"><feGaussianBlur in="SourceGraphic" stdDeviation="1" result="blur" id="feGaussianBlur174" /><feDiffuseLighting diffuseConstant="1" surfaceScale="10" lighting-color="rgb(255,255,255)" result="diffuse" id="feDiffuseLighting178"><feDistantLight elevation="8" azimuth="235" id="feDistantLight176" /></feDiffuseLighting><feComposite in="diffuse" in2="diffuse" operator="arithmetic" k1="1" result="composite1" id="feComposite180" /><feComposite in="composite1" in2="SourceGraphic" k1="1" operator="arithmetic" k3="1" result="composite2" id="feComposite182" /></filter></defs><g id="surface1" style="filter:url(#filter184)"><path style=" stroke:none;fill-rule:nonzero;fill:url(#linear0);" d="M 31.664062 2.839844 C 25.007812 2.839844 19.613281 8.460938 19.613281 15.390625 C 19.617188 16.597656 19.785156 17.789062 20.113281 18.945312 C 16.960938 19.777344 15.496094 21.101562 14.792969 22.925781 C 9.976562 35.476562 9.976562 35.476562 9.976562 43.011719 C 9.976562 44.878906 9.976562 45.519531 14.792969 45.519531 C 14.792969 43.011719 19.613281 32.96875 19.613281 32.96875 C 19.613281 32.96875 17.203125 40.5 17.203125 45.519531 C 17.203125 53.054688 19.613281 53.054688 19.613281 55.5625 C 19.613281 58.210938 22.023438 63.097656 22.023438 63.097656 L 26.84375 63.097656 C 26.84375 63.097656 29.253906 63.097656 31.664062 55.5625 C 34.074219 63.097656 36.484375 63.097656 36.484375 63.097656 L 41.300781 63.097656 C 41.300781 63.097656 43.710938 58.210938 43.710938 55.5625 C 43.710938 53.054688 46.121094 53.054688 46.121094 45.519531 C 46.121094 41.253906 43.710938 32.96875 43.710938 32.96875 C 43.710938 32.96875 48.53125 43.011719 48.53125 45.519531 C 53.351562 45.519531 53.351562 44.878906 53.351562 43.011719 C 53.351562 35.476562 53.351562 35.476562 48.53125 22.925781 C 47.832031 21.101562 46.363281 19.777344 43.214844 18.945312 C 43.542969 17.789062 43.710938 16.597656 43.710938 15.390625 C 43.710938 8.460938 38.316406 2.839844 31.664062 2.839844 Z M 31.664062 2.839844 "/></g></svg>
