<svg width="64" height="64" viewBox="0 0 64 64" version="1.1" xmlns:inkscape="http://www.inkscape.org/namespaces/inkscape"><defs><linearGradient id="linear0" gradientUnits="userSpaceOnUse" x1="0" y1="0" x2="0" y2="1" gradientTransform="matrix(56,0,0,35.898438,4,14.050781)"><stop offset="0" style="stop-color:rgb(92.941177%,83.529413%,72.549021%);stop-opacity:1;"/><stop offset="1" style="stop-color:rgb(81.960785%,71.372551%,59.215689%);stop-opacity:1;"/></linearGradient><filter style="color-interpolation-filters:sRGB;" inkscape:label="Diffuse Light" id="filter184" x="-0.0375" y="-0.0375" width="1.075" height="1.075"><feGaussianBlur in="SourceGraphic" stdDeviation="1" result="blur" id="feGaussianBlur174" /><feDiffuseLighting diffuseConstant="1" surfaceScale="10" lighting-color="rgb(255,255,255)" result="diffuse" id="feDiffuseLighting178"><feDistantLight elevation="8" azimuth="235" id="feDistantLight176" /></feDiffuseLighting><feComposite in="diffuse" in2="diffuse" operator="arithmetic" k1="1" result="composite1" id="feComposite180" /><feComposite in="composite1" in2="SourceGraphic" k1="1" operator="arithmetic" k3="1" result="composite2" id="feComposite182" /></filter></defs><g id="surface1" style="filter:url(#filter184)"><path style=" stroke:none;fill-rule:nonzero;fill:url(#linear0);" d="M 23.164062 4.058594 L 23.164062 31.25 L 19.039062 31.25 L 19.039062 36.6875 L 14.914062 36.6875 L 14.914062 47.5625 L 6.664062 47.5625 L 6.664062 58.4375 L 14.914062 58.4375 L 14.914062 53 L 19.039062 53 L 19.039062 42.125 L 23.164062 42.125 L 23.164062 36.6875 L 27.289062 36.6875 L 27.289062 4.058594 Z M 31.414062 4.058594 L 31.414062 58.4375 L 35.539062 58.4375 L 35.539062 4.058594 Z M 39.664062 4.058594 L 39.664062 36.6875 L 43.789062 36.6875 L 43.789062 42.125 L 47.914062 42.125 L 47.914062 53 L 52.039062 53 L 52.039062 58.4375 L 60.289062 58.4375 L 60.289062 47.5625 L 52.039062 47.5625 L 52.039062 36.6875 L 47.914062 36.6875 L 47.914062 31.25 L 43.789062 31.25 L 43.789062 4.058594 Z M 39.664062 4.058594 "/></g></svg>
