<svg width="64" height="64" viewBox="0 0 64 64" version="1.1" xmlns:inkscape="http://www.inkscape.org/namespaces/inkscape"><defs><linearGradient id="linear0" gradientUnits="userSpaceOnUse" x1="0" y1="0" x2="0" y2="1" gradientTransform="matrix(61.493604,0,0,40.824516,2.326022,8.952099)"><stop offset="0" style="stop-color:rgb(82.352942%,61.176473%,100%);stop-opacity:1;"/><stop offset="1" style="stop-color:rgb(66.666669%,0%,100%);stop-opacity:1;"/></linearGradient><filter style="color-interpolation-filters:sRGB;" inkscape:label="Diffuse Light" id="filter184" x="-0.0375" y="-0.0375" width="1.075" height="1.075"><feGaussianBlur in="SourceGraphic" stdDeviation="1" result="blur" id="feGaussianBlur174" /><feDiffuseLighting diffuseConstant="1" surfaceScale="10" lighting-color="rgb(255,255,255)" result="diffuse" id="feDiffuseLighting178"><feDistantLight elevation="8" azimuth="235" id="feDistantLight176" /></feDiffuseLighting><feComposite in="diffuse" in2="diffuse" operator="arithmetic" k1="1" result="composite1" id="feComposite180" /><feComposite in="composite1" in2="SourceGraphic" k1="1" operator="arithmetic" k3="1" result="composite2" id="feComposite182" /></filter></defs><g id="surface1" style="filter:url(#filter184)"><path style=" stroke:none;fill-rule:nonzero;fill:url(#linear0);" d="M 22.5625 12.6875 C 14.523438 12.6875 7.789062 18.808594 5.886719 27.132812 L 5.332031 27.132812 C 2.953125 27.132812 1.027344 29.289062 1.027344 31.949219 C 1.027344 34.605469 2.953125 36.765625 5.332031 36.765625 L 5.886719 36.765625 C 7.789062 45.085938 14.523438 51.207031 22.5625 51.207031 C 26.757812 51.207031 30.8125 49.496094 33.960938 46.390625 L 58.101562 46.390625 C 61.332031 46.390625 63.484375 42.101562 63.484375 36.765625 L 63.484375 27.132812 C 63.484375 21.800781 61.332031 17.503906 58.101562 17.503906 L 33.960938 17.503906 C 30.8125 14.398438 26.757812 12.6875 22.5625 12.6875 Z M 5.332031 29.542969 C 6.519531 29.542969 7.484375 30.617188 7.484375 31.949219 C 7.484375 33.277344 6.519531 34.359375 5.332031 34.359375 C 4.144531 34.359375 3.179688 33.277344 3.179688 31.949219 C 3.179688 30.617188 4.144531 29.542969 5.332031 29.542969 Z M 5.332031 29.542969 "/></g></svg>
