<?xml version="1.0" encoding="UTF-8" standalone="no"?><svg width="64" height="64" viewBox="0 0 64 64" version="1.1" id="svg307" sodipodi:docname="sublime-text.svg" inkscape:version="1.2.2 (b0a8486541, 2022-12-01)" xmlns:inkscape="http://www.inkscape.org/namespaces/inkscape" xmlns:sodipodi="http://sodipodi.sourceforge.net/DTD/sodipodi-0.dtd" xmlns:xlink="http://www.w3.org/1999/xlink" xmlns="http://www.w3.org/2000/svg" xmlns:svg="http://www.w3.org/2000/svg"> <sodipodi:namedview id="namedview309" pagecolor="#ffffff" bordercolor="#000000" borderopacity="0.25" inkscape:showpageshadow="2" inkscape:pageopacity="0.0" inkscape:pagecheckerboard="0" inkscape:deskcolor="#d1d1d1" showgrid="false" inkscape:zoom="3.6875" inkscape:cx="32" inkscape:cy="32.135593" inkscape:window-width="1432" inkscape:window-height="844" inkscape:window-x="0" inkscape:window-y="0" inkscape:window-maximized="1" inkscape:current-layer="svg307" /> <defs id="defs298"> <filter id="alpha" filterUnits="objectBoundingBox" x="0" y="0" width="1" height="1"> <feColorMatrix type="matrix" in="SourceGraphic" values="0 0 0 0 1 0 0 0 0 1 0 0 0 0 1 0 0 0 1 0" id="feColorMatrix258" /> </filter> <mask id="mask0"> <g filter="url(#alpha)" id="g263"> <rect x="0" y="0" width="64" height="64" style="fill:rgb(0%,0%,0%);fill-opacity:0.6;stroke:none;" id="rect261" /> </g> </mask> <linearGradient id="linear0" gradientUnits="userSpaceOnUse" x1="0" y1="0" x2="0" y2="1" gradientTransform="matrix(43.199219,0,0,28.800781,10.449219,31.199219)"> <stop offset="0" style="stop-color:#ffa1a1;stop-opacity:1;" id="stop266" /> <stop offset="1" style="stop-color:#ff4747;stop-opacity:1;" id="stop268" /> </linearGradient> <clipPath id="clip1"> <rect x="0" y="0" width="64" height="64" id="rect271" /> </clipPath> <g id="surface5" clip-path="url(#clip1)"> <path style=" stroke:none;fill-rule:nonzero;fill:url(#linear0);" d="M 53.648438 32.097656 C 53.648438 31.441406 53.160156 31.058594 52.5625 31.246094 L 11.527344 44.265625 C 10.933594 44.453125 10.449219 45.140625 10.449219 45.800781 L 10.449219 59.105469 C 10.449219 59.761719 10.933594 60.140625 11.527344 59.953125 L 52.5625 46.9375 C 53.160156 46.742188 53.648438 46.054688 53.648438 45.398438 Z M 53.648438 32.097656 " id="path274" /> </g> <mask id="mask1"> <g filter="url(#alpha)" id="g279"> <rect x="0" y="0" width="64" height="64" style="fill:rgb(0%,0%,0%);fill-opacity:0.6;stroke:none;" id="rect277" /> </g> </mask> <linearGradient id="linear1" gradientUnits="userSpaceOnUse" x1="0" y1="0" x2="0" y2="1" gradientTransform="matrix(43.199219,0,0,28.800781,10.351562,4)"> <stop offset="0" style="stop-color:#ffa1a1;stop-opacity:1;" id="stop282" /> <stop offset="1" style="stop-color:#ff4747;stop-opacity:1;" id="stop284" /> </linearGradient> <clipPath id="clip2"> <rect x="0" y="0" width="64" height="64" id="rect287" /> </clipPath> <g id="surface8" clip-path="url(#clip2)"> <path style=" stroke:none;fill-rule:nonzero;fill:url(#linear1);" d="M 10.351562 31.902344 C 10.351562 32.558594 10.839844 32.941406 11.4375 32.753906 L 52.472656 19.734375 C 53.066406 19.546875 53.550781 18.859375 53.550781 18.199219 L 53.550781 4.894531 C 53.550781 4.238281 53.066406 3.859375 52.472656 4.046875 L 11.4375 17.0625 C 10.839844 17.257812 10.351562 17.945312 10.351562 18.601562 Z M 10.351562 31.902344 " id="path290" /> </g> <linearGradient id="linear2" gradientUnits="userSpaceOnUse" x1="0" y1="0" x2="0" y2="1" gradientTransform="matrix(43.199219,0,0,28.800781,10.449219,17.546875)"> <stop offset="0" style="stop-color:#ffa1a1;stop-opacity:1;" id="stop293" /> <stop offset="1" style="stop-color:#ff4747;stop-opacity:1;" id="stop295" /> </linearGradient> <filter style="color-interpolation-filters:sRGB;" inkscape:label="Diffuse Light" id="filter2310" x="-0.055431251" y="-0.042855492" width="1.1108625" height="1.085711"> <feGaussianBlur in="SourceGraphic" stdDeviation="1" result="blur" id="feGaussianBlur2300" /> <feDiffuseLighting diffuseConstant="1" surfaceScale="10" lighting-color="rgb(255,255,255)" result="diffuse" id="feDiffuseLighting2304"> <feDistantLight elevation="8" azimuth="235" id="feDistantLight2302" /> </feDiffuseLighting> <feComposite in="diffuse" in2="diffuse" operator="arithmetic" k1="1" result="composite1" id="feComposite2306" /> <feComposite in="composite1" in2="SourceGraphic" k1="1" operator="arithmetic" k3="1" result="composite2" id="feComposite2308" /> </filter> </defs> <g id="surface1" transform="matrix(1.1914647,0,0,1.1079712,-5.2221766,-3.0628842)" style="filter:url(#filter2310)"> <use xlink:href="#surface5" mask="url(#mask0)" id="use300" /> <use xlink:href="#surface8" mask="url(#mask1)" id="use302" /> <path style="fill:url(#linear2);fill-rule:nonzero;stroke:none" d="m 10.449219,31.746094 c 0,0.65625 0.484375,1.347656 1.078125,1.535156 L 52.5625,46.300781 c 0.601562,0.1875 1.085938,-0.191406 1.085938,-0.847656 V 32.148438 c 0,-0.65625 -0.484376,-1.34375 -1.085938,-1.535157 L 11.527344,17.597656 c -0.59375,-0.195312 -1.078125,0.1875 -1.078125,0.847656 z m 0,0" id="path304" /> </g></svg>
