<svg width="64" height="64" viewBox="0 0 64 64" version="1.1" xmlns:inkscape="http://www.inkscape.org/namespaces/inkscape"><defs><linearGradient id="linear0" gradientUnits="userSpaceOnUse" x1="0" y1="0" x2="0" y2="1" gradientTransform="matrix(56,0,0,35.898438,4,14.050781)"><stop offset="0" style="stop-color:rgb(0%,78.823531%,36.862746%);stop-opacity:1;"/><stop offset="1" style="stop-color:rgb(0%,54.11765%,25.098041%);stop-opacity:1;"/></linearGradient><linearGradient id="linear1" gradientUnits="userSpaceOnUse" x1="0" y1="0" x2="0" y2="1" gradientTransform="matrix(56,0,0,35.898438,4,14.050781)"><stop offset="0" style="stop-color:rgb(0%,78.823531%,36.862746%);stop-opacity:1;"/><stop offset="1" style="stop-color:rgb(0%,54.11765%,25.098041%);stop-opacity:1;"/></linearGradient><filter style="color-interpolation-filters:sRGB;" inkscape:label="Diffuse Light" id="filter184" x="-0.0375" y="-0.0375" width="1.075" height="1.075"><feGaussianBlur in="SourceGraphic" stdDeviation="1" result="blur" id="feGaussianBlur174" /><feDiffuseLighting diffuseConstant="1" surfaceScale="10" lighting-color="rgb(255,255,255)" result="diffuse" id="feDiffuseLighting178"><feDistantLight elevation="8" azimuth="235" id="feDistantLight176" /></feDiffuseLighting><feComposite in="diffuse" in2="diffuse" operator="arithmetic" k1="1" result="composite1" id="feComposite180" /><feComposite in="composite1" in2="SourceGraphic" k1="1" operator="arithmetic" k3="1" result="composite2" id="feComposite182" /></filter></defs><g id="surface1" style="filter:url(#filter184)"><path style=" stroke:none;fill-rule:nonzero;fill:url(#linear0);" d="M 32.828125 1.265625 C 21.746094 1.265625 12.027344 7.117188 6.691406 15.929688 L 25.894531 29.011719 L 34.972656 25.558594 L 43.558594 3.15625 C 40.214844 1.902344 36.597656 1.199219 32.8125 1.199219 L 32.808594 1.199219 Z M 62.558594 24.464844 L 39.894531 28.796875 L 38.558594 34.878906 L 56.691406 51.144531 C 60.972656 45.878906 63.519531 39.171875 63.519531 31.8125 C 63.519531 29.25 63.191406 26.769531 62.601562 24.398438 Z M 25.359375 35.625 L 25.355469 35.628906 L 5.886719 46.417969 C 11.046875 55.976562 21.085938 62.417969 32.6875 62.550781 L 30.847656 37.882812 L 25.355469 35.589844 Z M 25.359375 35.625 "/><path style=" stroke:none;fill-rule:nonzero;fill:url(#linear1);" d="M 40.535156 9.066406 L 39.542969 11.652344 L 55.140625 25.785156 L 49.421875 45.386719 L 31.289062 54.066406 L 14.621094 41.292969 L 20.046875 25.425781 L 18.261719 24.207031 L 12.621094 42.339844 L 31.421875 56.074219 L 51.289062 46.941406 L 57.714844 25.207031 L 40.648438 8.941406 Z M 34.226562 25.332031 L 25.238281 28.8125 L 25.722656 30.054688 L 34.121094 26.800781 L 38.546875 29.390625 L 37.148438 34.574219 L 30.09375 37.347656 L 24.90625 35.214844 L 24.398438 36.445312 L 30.078125 38.792969 L 38.253906 35.566406 L 40.09375 28.753906 L 34.226562 25.339844 Z M 34.226562 25.332031 "/></g></svg>
