<?xml version="1.0" encoding="UTF-8" standalone="no"?><svg width="64" height="64" viewBox="0 0 64 64" version="1.1" id="svg360" sodipodi:docname="sweethome3d.svg" inkscape:version="1.2.2 (b0a8486541, 2022-12-01)" xmlns:inkscape="http://www.inkscape.org/namespaces/inkscape" xmlns:sodipodi="http://sodipodi.sourceforge.net/DTD/sodipodi-0.dtd" xmlns:xlink="http://www.w3.org/1999/xlink" xmlns="http://www.w3.org/2000/svg" xmlns:svg="http://www.w3.org/2000/svg"> <sodipodi:namedview id="namedview362" pagecolor="#ffffff" bordercolor="#000000" borderopacity="0.25" inkscape:showpageshadow="2" inkscape:pageopacity="0.0" inkscape:pagecheckerboard="0" inkscape:deskcolor="#d1d1d1" showgrid="false" inkscape:zoom="3.6875" inkscape:cx="32" inkscape:cy="32.135593" inkscape:window-width="1432" inkscape:window-height="844" inkscape:window-x="0" inkscape:window-y="0" inkscape:window-maximized="1" inkscape:current-layer="svg360" /> <defs id="defs351"> <linearGradient id="linear0" gradientUnits="userSpaceOnUse" x1="0" y1="0" x2="0" y2="1" gradientTransform="matrix(61.023443,32.115978,-58.447043,33.531743,30.71766,14.760124)"> <stop offset="0" style="stop-color:#d29cff;stop-opacity:1;" id="stop311" /> <stop offset="1" style="stop-color:#aa00ff;stop-opacity:1;" id="stop313" /> </linearGradient> <filter id="alpha" filterUnits="objectBoundingBox" x="0" y="0" width="1" height="1"> <feColorMatrix type="matrix" in="SourceGraphic" values="0 0 0 0 1 0 0 0 0 1 0 0 0 0 1 0 0 0 1 0" id="feColorMatrix316" /> </filter> <mask id="mask0"> <g filter="url(#alpha)" id="g321"> <rect x="0" y="0" width="64" height="64" style="fill:rgb(0%,0%,0%);fill-opacity:0.8;stroke:none;" id="rect319" /> </g> </mask> <linearGradient id="linear1" gradientUnits="userSpaceOnUse" x1="0" y1="0" x2="0" y2="1" gradientTransform="matrix(-31.512004,-17.367268,0.0666915,66.089924,62,0.0273437)"> <stop offset="0" style="stop-color:#d29cff;stop-opacity:1;" id="stop324" /> <stop offset="1" style="stop-color:#aa00ff;stop-opacity:1;" id="stop326" /> </linearGradient> <clipPath id="clip1"> <rect x="0" y="0" width="64" height="64" id="rect329" /> </clipPath> <g id="surface5" clip-path="url(#clip1)"> <path style=" stroke:none;fill-rule:nonzero;fill:url(#linear1);" d="M 58.859375 14.324219 L 33.660156 0.4375 C 31.9375 -0.511719 30.554688 0.246094 30.554688 2.132812 L 30.582031 33.253906 C 30.585938 35.144531 31.859375 37.644531 33.695312 38.378906 L 58.894531 48.4375 C 60.730469 49.167969 62 48.628906 62 46.738281 L 61.972656 19.449219 C 61.96875 17.558594 60.582031 15.273438 58.859375 14.324219 Z M 58.859375 14.324219 " id="path332" /> </g> <mask id="mask1"> <g filter="url(#alpha)" id="g337"> <rect x="0" y="0" width="64" height="64" style="fill:rgb(0%,0%,0%);fill-opacity:0.6;stroke:none;" id="rect335" /> </g> </mask> <linearGradient id="linear2" gradientUnits="userSpaceOnUse" x1="0" y1="0" x2="0" y2="1" gradientTransform="matrix(32.251895,-17.524652,-0.0683012,66.731683,2,-0.000000000000000466)"> <stop offset="0" style="stop-color:#d29cff;stop-opacity:1;" id="stop340" /> <stop offset="1" style="stop-color:#aa00ff;stop-opacity:1;" id="stop342" /> </linearGradient> <clipPath id="clip2"> <rect x="0" y="0" width="64" height="64" id="rect345" /> </clipPath> <g id="surface8" clip-path="url(#clip2)"> <path style=" stroke:none;fill-rule:nonzero;fill:url(#linear2);" d="M 5.179688 14.457031 L 31.039062 0.40625 C 32.78125 -0.542969 34.183594 0.230469 34.183594 2.136719 L 34.152344 32.652344 C 34.152344 34.558594 32.835938 37.019531 31.003906 37.804688 L 5.144531 48.875 C 3.3125 49.660156 2 49.050781 2 47.144531 L 2.027344 19.609375 C 2.03125 17.703125 3.433594 15.402344 5.179688 14.457031 Z M 5.179688 14.457031 " id="path348" /> </g> <filter style="color-interpolation-filters:sRGB;" inkscape:label="Diffuse Light" id="filter2260" x="-0.04" y="-0.037498222" width="1.08" height="1.0749964"> <feGaussianBlur in="SourceGraphic" stdDeviation="1" result="blur" id="feGaussianBlur2250" /> <feDiffuseLighting diffuseConstant="1" surfaceScale="10" lighting-color="rgb(255,255,255)" result="diffuse" id="feDiffuseLighting2254"> <feDistantLight elevation="8" azimuth="235" id="feDistantLight2252" /> </feDiffuseLighting> <feComposite in="diffuse" in2="diffuse" operator="arithmetic" k1="1" result="composite1" id="feComposite2256" /> <feComposite in="composite1" in2="SourceGraphic" k1="1" operator="arithmetic" k3="1" result="composite2" id="feComposite2258" /> </filter> </defs> <g id="surface1" style="filter:url(#filter2260)"> <path style=" stroke:none;fill-rule:nonzero;fill:url(#linear0);" d="M 34.488281 31.824219 L 60.554688 45.539062 C 62.304688 46.460938 62.335938 48.007812 60.621094 48.988281 L 35.792969 63.234375 C 34.078125 64.214844 31.269531 64.265625 29.519531 63.34375 L 3.457031 49.628906 C 1.707031 48.707031 1.675781 47.164062 3.386719 46.179688 L 28.21875 31.933594 C 29.929688 30.953125 32.738281 30.902344 34.488281 31.824219 Z M 34.488281 31.824219 " id="path353" /> <use xlink:href="#surface5" mask="url(#mask0)" id="use355" /> <use xlink:href="#surface8" mask="url(#mask1)" id="use357" /> </g></svg>
