<svg width="64" height="64" viewBox="0 0 64 64" version="1.1" xmlns:inkscape="http://www.inkscape.org/namespaces/inkscape"><defs><linearGradient id="linear0" gradientUnits="userSpaceOnUse" x1="0" y1="0" x2="0" y2="1" gradientTransform="matrix(53.335938,0,0,64,5.332031,0)"><stop offset="0" style="stop-color:rgb(100%,73.333335%,0%);stop-opacity:1;"/><stop offset="1" style="stop-color:rgb(70.19608%,51.372552%,0%);stop-opacity:1;"/></linearGradient><filter style="color-interpolation-filters:sRGB;" inkscape:label="Diffuse Light" id="filter184" x="-0.0375" y="-0.0375" width="1.075" height="1.075"><feGaussianBlur in="SourceGraphic" stdDeviation="1" result="blur" id="feGaussianBlur174" /><feDiffuseLighting diffuseConstant="1" surfaceScale="10" lighting-color="rgb(255,255,255)" result="diffuse" id="feDiffuseLighting178"><feDistantLight elevation="8" azimuth="235" id="feDistantLight176" /></feDiffuseLighting><feComposite in="diffuse" in2="diffuse" operator="arithmetic" k1="1" result="composite1" id="feComposite180" /><feComposite in="composite1" in2="SourceGraphic" k1="1" operator="arithmetic" k3="1" result="composite2" id="feComposite182" /></filter></defs><g id="surface1" style="filter:url(#filter184)"><path style=" stroke:none;fill-rule:nonzero;fill:url(#linear0);" d="M 32 0 C 23.164062 0 16 7.164062 16 16 L 16 32 L 5.332031 32 L 5.332031 64 L 58.667969 64 L 58.667969 32 L 48 32 L 48 16 C 48 7.164062 40.835938 0 32 0 Z M 32 5.332031 C 37.890625 5.332031 42.667969 10.109375 42.667969 16 L 42.667969 32 L 21.332031 32 L 21.332031 16 C 21.332031 10.109375 26.109375 5.332031 32 5.332031 Z M 32 5.332031 "/></g></svg>
