<svg width="64" height="64" viewBox="0 0 64 64" version="1.1" xmlns:inkscape="http://www.inkscape.org/namespaces/inkscape"><defs><linearGradient id="linear0" gradientUnits="userSpaceOnUse" x1="0" y1="0" x2="0" y2="1" gradientTransform="matrix(64,0,0,64,0,0)"><stop offset="0" style="stop-color:rgb(82.352942%,61.176473%,100%);stop-opacity:1;"/><stop offset="1" style="stop-color:rgb(66.666669%,0%,100%);stop-opacity:1;"/></linearGradient><filter style="color-interpolation-filters:sRGB;" inkscape:label="Diffuse Light" id="filter184" x="-0.0375" y="-0.0375" width="1.075" height="1.075"><feGaussianBlur in="SourceGraphic" stdDeviation="1" result="blur" id="feGaussianBlur174" /><feDiffuseLighting diffuseConstant="1" surfaceScale="10" lighting-color="rgb(255,255,255)" result="diffuse" id="feDiffuseLighting178"><feDistantLight elevation="8" azimuth="235" id="feDistantLight176" /></feDiffuseLighting><feComposite in="diffuse" in2="diffuse" operator="arithmetic" k1="1" result="composite1" id="feComposite180" /><feComposite in="composite1" in2="SourceGraphic" k1="1" operator="arithmetic" k3="1" result="composite2" id="feComposite182" /></filter></defs><g id="surface1" style="filter:url(#filter184)"><path style=" stroke:none;fill-rule:nonzero;fill:url(#linear0);" d="M 32 0 C 49.671875 0 64 14.328125 64 32 C 64 49.671875 49.671875 64 32 64 C 14.328125 64 0 49.671875 0 32 C 0 14.328125 14.328125 0 32 0 Z M 32 7.109375 C 18.257812 7.109375 7.109375 18.257812 7.109375 32 C 7.109375 45.742188 18.257812 56.890625 32 56.890625 C 45.742188 56.890625 56.890625 45.742188 56.890625 32 C 56.890625 18.257812 45.742188 7.109375 32 7.109375 Z M 34.195312 21.332031 L 41.242188 26.808594 L 48.421875 32 L 41.253906 37.191406 L 34.195312 42.667969 L 34.285156 35.554688 L 14.308594 35.554688 L 18.261719 28.445312 L 34.28125 28.445312 Z M 34.195312 21.332031 "/></g></svg>
