<svg width="64" height="64" viewBox="0 0 64 64" version="1.1" xmlns:inkscape="http://www.inkscape.org/namespaces/inkscape"><defs><linearGradient id="linear0" gradientUnits="userSpaceOnUse" x1="0" y1="0" x2="0" y2="1" gradientTransform="matrix(72.469643,0,0,42.762335,-1.590465,14.806356)"><stop offset="0" style="stop-color:rgb(92.941177%,83.529413%,72.549021%);stop-opacity:1;"/><stop offset="1" style="stop-color:rgb(81.960785%,71.372551%,59.215689%);stop-opacity:1;"/></linearGradient><linearGradient id="linear1" gradientUnits="userSpaceOnUse" x1="0" y1="0" x2="0" y2="1" gradientTransform="matrix(72.469643,0,0,42.762335,-1.590465,14.806356)"><stop offset="0" style="stop-color:rgb(92.941177%,83.529413%,72.549021%);stop-opacity:1;"/><stop offset="1" style="stop-color:rgb(81.960785%,71.372551%,59.215689%);stop-opacity:1;"/></linearGradient><filter style="color-interpolation-filters:sRGB;" inkscape:label="Diffuse Light" id="filter184" x="-0.0375" y="-0.0375" width="1.075" height="1.075"><feGaussianBlur in="SourceGraphic" stdDeviation="1" result="blur" id="feGaussianBlur174" /><feDiffuseLighting diffuseConstant="1" surfaceScale="10" lighting-color="rgb(255,255,255)" result="diffuse" id="feDiffuseLighting178"><feDistantLight elevation="8" azimuth="235" id="feDistantLight176" /></feDiffuseLighting><feComposite in="diffuse" in2="diffuse" operator="arithmetic" k1="1" result="composite1" id="feComposite180" /><feComposite in="composite1" in2="SourceGraphic" k1="1" operator="arithmetic" k3="1" result="composite2" id="feComposite182" /></filter></defs><g id="surface1" style="filter:url(#filter184)"><path style=" stroke:none;fill-rule:nonzero;fill:url(#linear0);" d="M 16.488281 49.234375 C 14.066406 49.234375 12.105469 51.21875 12.105469 53.65625 C 12.105469 56.09375 14.066406 58.070312 16.488281 58.070312 C 18.902344 58.070312 20.863281 56.09375 20.863281 53.65625 C 20.863281 51.21875 18.902344 49.234375 16.488281 49.234375 Z M 48.601562 49.234375 C 46.183594 49.234375 44.222656 51.21875 44.222656 53.65625 C 44.222656 56.09375 46.183594 58.070312 48.601562 58.070312 C 51.019531 58.070312 52.980469 56.09375 52.980469 53.65625 C 52.980469 51.21875 51.019531 49.234375 48.601562 49.234375 Z M 32.542969 52.179688 C 29.332031 52.179688 26.703125 54.820312 26.703125 58.070312 C 26.703125 61.324219 29.316406 63.960938 32.542969 63.960938 C 35.757812 63.960938 38.378906 61.324219 38.378906 58.070312 C 38.378906 54.820312 35.765625 52.179688 32.542969 52.179688 Z M 32.542969 52.179688 "/><path style=" stroke:none;fill-rule:nonzero;fill:url(#linear1);" d="M 32.289062 1.582031 C 21.347656 1.582031 10.414062 16.039062 10.414062 34.632812 C 10.414062 39.113281 11.859375 43.058594 14.214844 46.261719 L 21.347656 41.859375 L 25.722656 45.992188 L 32.289062 41.859375 L 38.851562 45.992188 L 43.222656 41.859375 L 50.355469 46.261719 C 52.695312 43.058594 54.160156 39.113281 54.160156 34.632812 C 54.160156 16.039062 43.222656 1.582031 32.289062 1.582031 Z M 32.289062 1.582031 "/></g></svg>
