<svg width="64" height="64" viewBox="0 0 64 64" version="1.1" xmlns:inkscape="http://www.inkscape.org/namespaces/inkscape"><defs><linearGradient id="linear0" gradientUnits="userSpaceOnUse" x1="0" y1="0" x2="0" y2="1" gradientTransform="matrix(57.265625,0,0,64,3.367188,0)"><stop offset="0" style="stop-color:rgb(0%,73.333335%,100%);stop-opacity:1;"/><stop offset="1" style="stop-color:rgb(0%,52.156866%,70.980394%);stop-opacity:1;"/></linearGradient><filter style="color-interpolation-filters:sRGB;" inkscape:label="Diffuse Light" id="filter184" x="-0.0375" y="-0.0375" width="1.075" height="1.075"><feGaussianBlur in="SourceGraphic" stdDeviation="1" result="blur" id="feGaussianBlur174" /><feDiffuseLighting diffuseConstant="1" surfaceScale="10" lighting-color="rgb(255,255,255)" result="diffuse" id="feDiffuseLighting178"><feDistantLight elevation="8" azimuth="235" id="feDistantLight176" /></feDiffuseLighting><feComposite in="diffuse" in2="diffuse" operator="arithmetic" k1="1" result="composite1" id="feComposite180" /><feComposite in="composite1" in2="SourceGraphic" k1="1" operator="arithmetic" k3="1" result="composite2" id="feComposite182" /></filter></defs><g id="surface1" style="filter:url(#filter184)"><path style=" stroke:none;fill-rule:evenodd;fill:url(#linear0);" d="M 15.15625 51.789062 C 8.011719 46.585938 3.367188 38.148438 3.367188 28.632812 C 3.367188 12.820312 16.1875 0 32 0 C 47.8125 0 60.632812 12.820312 60.632812 28.632812 C 60.632812 44.445312 47.8125 57.265625 32 57.265625 C 30.351562 57.265625 28.734375 57.125 27.164062 56.855469 L 22.925781 59.746094 L 16.976562 63.808594 C 16.601562 64.0625 16.140625 64.0625 15.765625 63.808594 C 15.386719 63.550781 15.15625 63.078125 15.15625 62.566406 Z M 16.84375 28.632812 L 47.15625 28.632812 C 47.15625 37.003906 40.371094 43.789062 32 43.789062 C 23.628906 43.789062 16.84375 37.003906 16.84375 28.632812 Z M 16.84375 28.632812 "/></g></svg>
