<svg width="64" height="64" viewBox="0 0 64 64" version="1.1" xmlns:inkscape="http://www.inkscape.org/namespaces/inkscape"><defs><linearGradient id="linear0" gradientUnits="userSpaceOnUse" x1="0" y1="0" x2="0" y2="1" gradientTransform="matrix(62.822186,0,0,43.976438,2.401686,3.577509)"><stop offset="0" style="stop-color:rgb(0%,96.078432%,86.274511%);stop-opacity:1;"/><stop offset="1" style="stop-color:rgb(0%,54.901963%,49.411765%);stop-opacity:1;"/></linearGradient><filter style="color-interpolation-filters:sRGB;" inkscape:label="Diffuse Light" id="filter184" x="-0.0375" y="-0.0375" width="1.075" height="1.075"><feGaussianBlur in="SourceGraphic" stdDeviation="1" result="blur" id="feGaussianBlur174" /><feDiffuseLighting diffuseConstant="1" surfaceScale="10" lighting-color="rgb(255,255,255)" result="diffuse" id="feDiffuseLighting178"><feDistantLight elevation="8" azimuth="235" id="feDistantLight176" /></feDiffuseLighting><feComposite in="diffuse" in2="diffuse" operator="arithmetic" k1="1" result="composite1" id="feComposite180" /><feComposite in="composite1" in2="SourceGraphic" k1="1" operator="arithmetic" k3="1" result="composite2" id="feComposite182" /></filter></defs><g id="surface1" style="filter:url(#filter184)"><path style=" stroke:none;fill-rule:nonzero;fill:url(#linear0);" d="M 36.960938 3.203125 C 34.457031 3.203125 32.265625 5.054688 30.957031 7.875 C 32.511719 8.820312 33.824219 10.371094 34.851562 12.292969 C 35.257812 11.167969 36.035156 10.378906 36.960938 10.378906 L 56.378906 10.378906 C 57.726562 10.378906 58.808594 11.976562 58.808594 13.964844 L 58.808594 31.902344 C 58.808594 33.886719 57.726562 35.484375 56.378906 35.484375 L 51.523438 35.484375 L 51.523438 39.96875 L 47.644531 35.484375 L 36.960938 35.484375 C 35.613281 35.484375 34.53125 33.886719 34.53125 31.902344 L 34.53125 21.140625 C 34.53125 15.175781 31.285156 10.378906 27.25 10.378906 L 7.828125 10.378906 C 3.789062 10.378906 0.542969 15.175781 0.542969 21.140625 L 0.542969 39.074219 C 0.542969 45.035156 3.789062 49.835938 7.828125 49.835938 L 15.109375 49.835938 L 15.109375 60.59375 L 24.820312 49.835938 L 27.25 49.835938 C 29.75 49.835938 31.941406 47.984375 33.25 45.160156 C 31.699219 44.21875 30.382812 42.667969 29.359375 40.75 C 28.949219 41.875 28.175781 42.660156 27.25 42.660156 L 23.847656 42.660156 L 19.964844 47.140625 L 19.964844 42.660156 L 7.828125 42.660156 C 6.480469 42.660156 5.398438 41.058594 5.398438 39.074219 L 5.398438 21.140625 C 5.398438 19.148438 6.480469 17.550781 7.828125 17.550781 L 27.25 17.550781 C 28.59375 17.550781 29.675781 19.148438 29.675781 21.140625 L 29.675781 31.902344 C 29.675781 37.859375 32.921875 42.660156 36.960938 42.660156 L 46.671875 42.660156 L 56.378906 53.421875 L 56.378906 42.660156 C 60.417969 42.660156 63.667969 37.859375 63.667969 31.902344 L 63.667969 13.964844 C 63.667969 8.003906 60.417969 3.203125 56.378906 3.203125 Z M 36.960938 3.203125 "/></g></svg>
