<svg width="64" height="64" viewBox="0 0 64 64" version="1.1" xmlns:inkscape="http://www.inkscape.org/namespaces/inkscape"><defs><linearGradient id="linear0" gradientUnits="userSpaceOnUse" x1="0" y1="0" x2="0" y2="1" gradientTransform="matrix(64,0,0,64,0,0)"><stop offset="0" style="stop-color:rgb(0%,78.823531%,36.862746%);stop-opacity:1;"/><stop offset="1" style="stop-color:rgb(0%,54.11765%,25.098041%);stop-opacity:1;"/></linearGradient><filter style="color-interpolation-filters:sRGB;" inkscape:label="Diffuse Light" id="filter184" x="-0.0375" y="-0.0375" width="1.075" height="1.075"><feGaussianBlur in="SourceGraphic" stdDeviation="1" result="blur" id="feGaussianBlur174" /><feDiffuseLighting diffuseConstant="1" surfaceScale="10" lighting-color="rgb(255,255,255)" result="diffuse" id="feDiffuseLighting178"><feDistantLight elevation="8" azimuth="235" id="feDistantLight176" /></feDiffuseLighting><feComposite in="diffuse" in2="diffuse" operator="arithmetic" k1="1" result="composite1" id="feComposite180" /><feComposite in="composite1" in2="SourceGraphic" k1="1" operator="arithmetic" k3="1" result="composite2" id="feComposite182" /></filter></defs><g id="surface1" style="filter:url(#filter184)"><path style=" stroke:none;fill-rule:evenodd;fill:url(#linear0);" d="M 22.152344 27.074219 C 22.152344 23 24.359375 19.691406 27.074219 19.691406 C 29.796875 19.691406 32 23 32 27.074219 C 32 31.152344 29.796875 34.460938 27.074219 34.460938 C 24.359375 34.460938 22.152344 31.152344 22.152344 27.074219 Z M 32 0 C 14.328125 0 0 14.328125 0 32 C 0 49.671875 14.328125 64 32 64 C 49.671875 64 64 49.671875 64 32 C 64 23.511719 60.628906 15.371094 54.628906 9.371094 C 48.628906 3.371094 40.488281 0 32 0 Z M 36.925781 27.074219 C 36.925781 23 39.128906 19.691406 41.847656 19.691406 C 44.5625 19.691406 46.769531 23 46.769531 27.074219 C 46.769531 31.152344 44.5625 34.460938 41.847656 34.460938 C 39.128906 34.460938 36.925781 31.152344 36.925781 27.074219 Z M 36.925781 27.074219 "/></g></svg>
