<svg width="64" height="64" viewBox="0 0 64 64" version="1.1" xmlns:inkscape="http://www.inkscape.org/namespaces/inkscape"><defs><linearGradient id="linear0" gradientUnits="userSpaceOnUse" x1="0" y1="0" x2="0" y2="1" gradientTransform="matrix(56,0,0,35.898438,4,14.050781)"><stop offset="0" style="stop-color:rgb(100%,56.862748%,82.745099%);stop-opacity:1;"/><stop offset="1" style="stop-color:rgb(100%,0%,60.000002%);stop-opacity:1;"/></linearGradient><filter style="color-interpolation-filters:sRGB;" inkscape:label="Diffuse Light" id="filter184" x="-0.0375" y="-0.0375" width="1.075" height="1.075"><feGaussianBlur in="SourceGraphic" stdDeviation="1" result="blur" id="feGaussianBlur174" /><feDiffuseLighting diffuseConstant="1" surfaceScale="10" lighting-color="rgb(255,255,255)" result="diffuse" id="feDiffuseLighting178"><feDistantLight elevation="8" azimuth="235" id="feDistantLight176" /></feDiffuseLighting><feComposite in="diffuse" in2="diffuse" operator="arithmetic" k1="1" result="composite1" id="feComposite180" /><feComposite in="composite1" in2="SourceGraphic" k1="1" operator="arithmetic" k3="1" result="composite2" id="feComposite182" /></filter></defs><g id="surface1" style="filter:url(#filter184)"><path style=" stroke:none;fill-rule:nonzero;fill:url(#linear0);" d="M 32.554688 2.1875 C 16.289062 2.1875 3.101562 15.542969 3.101562 32.023438 C 3.101562 48.503906 16.289062 61.863281 32.554688 61.863281 C 48.820312 61.863281 62.003906 48.503906 62.003906 32.023438 C 62.003906 15.542969 48.820312 2.1875 32.554688 2.1875 M 32.554688 8.152344 C 43.027344 8.160156 52.238281 15.167969 55.164062 25.355469 C 48.671875 23.292969 40.917969 22.078125 32.554688 22.078125 C 24.195312 22.078125 16.4375 23.292969 9.941406 25.355469 C 12.867188 15.167969 22.082031 8.160156 32.554688 8.152344 M 11.9375 30.035156 C 14.105469 30.035156 15.863281 33.152344 15.863281 36.996094 C 15.863281 40.707031 14.222656 43.710938 12.160156 43.917969 C 10.160156 40.414062 9.074219 36.453125 9.003906 32.40625 C 9.722656 30.964844 10.765625 30.035156 11.9375 30.035156 M 52.972656 30.035156 C 54.242188 30.035156 55.355469 31.121094 56.074219 32.777344 C 55.953125 36.707031 54.875 40.546875 52.9375 43.953125 C 50.792969 43.917969 49.046875 40.820312 49.046875 36.996094 C 49.046875 33.152344 50.804688 30.035156 52.972656 30.035156 Z M 32.554688 39.980469 C 40.707031 39.980469 47.410156 44.308594 48.183594 49.84375 C 43.878906 53.730469 38.320312 55.882812 32.554688 55.894531 C 26.789062 55.886719 21.230469 53.734375 16.925781 49.855469 C 17.695312 44.316406 24.394531 39.980469 32.554688 39.980469 "/></g></svg>
