<svg width="64" height="64" viewBox="0 0 64 64" version="1.1" xmlns:inkscape="http://www.inkscape.org/namespaces/inkscape"><defs><linearGradient id="linear0" gradientUnits="userSpaceOnUse" x1="0" y1="0" x2="0" y2="1" gradientTransform="matrix(69.693774,0,0,64.885277,-2.982003,-0.445678)"><stop offset="0" style="stop-color:rgb(0%,78.823531%,36.862746%);stop-opacity:1;"/><stop offset="1" style="stop-color:rgb(0%,54.11765%,25.098041%);stop-opacity:1;"/></linearGradient><linearGradient id="linear1" gradientUnits="userSpaceOnUse" x1="0" y1="0" x2="0" y2="1" gradientTransform="matrix(69.693774,0,0,64.885277,-2.982003,-0.445678)"><stop offset="0" style="stop-color:rgb(0%,78.823531%,36.862746%);stop-opacity:1;"/><stop offset="1" style="stop-color:rgb(0%,54.11765%,25.098041%);stop-opacity:1;"/></linearGradient><filter style="color-interpolation-filters:sRGB;" inkscape:label="Diffuse Light" id="filter184" x="-0.0375" y="-0.0375" width="1.075" height="1.075"><feGaussianBlur in="SourceGraphic" stdDeviation="1" result="blur" id="feGaussianBlur174" /><feDiffuseLighting diffuseConstant="1" surfaceScale="10" lighting-color="rgb(255,255,255)" result="diffuse" id="feDiffuseLighting178"><feDistantLight elevation="8" azimuth="235" id="feDistantLight176" /></feDiffuseLighting><feComposite in="diffuse" in2="diffuse" operator="arithmetic" k1="1" result="composite1" id="feComposite180" /><feComposite in="composite1" in2="SourceGraphic" k1="1" operator="arithmetic" k3="1" result="composite2" id="feComposite182" /></filter></defs><g id="surface1" style="filter:url(#filter184)"><path style=" stroke:none;fill-rule:nonzero;fill:url(#linear0);" d="M 36.601562 58.3125 L 1.601562 26.132812 L 1.542969 2.226562 L 27.324219 2.285156 L 62.332031 34.472656 M 9.777344 7.230469 C 8.148438 7.230469 6.824219 8.457031 6.824219 9.972656 C 6.824219 11.476562 8.148438 12.703125 9.777344 12.703125 C 11.40625 12.703125 12.726562 11.476562 12.726562 9.972656 C 12.726562 8.457031 11.40625 7.230469 9.777344 7.230469 M 12.121094 22.519531 L 36.164062 44.804688 L 39.546875 41.65625 L 15.511719 19.371094 M 23.054688 12.382812 L 19.664062 15.527344 L 43.546875 37.675781 L 46.945312 34.53125 "/><path style=" stroke:none;fill-rule:nonzero;fill:url(#linear1);" d="M 32.0625 58.003906 L 22.601562 62.167969 L 6.976562 35.480469 "/></g></svg>
