<?xml version="1.0" encoding="UTF-8" standalone="no"?><svg width="64" height="64" viewBox="0 0 64 64" version="1.1" id="svg11" sodipodi:docname="tiktok.svg" inkscape:version="1.2.2 (b0a8486541, 2022-12-01)" xmlns:inkscape="http://www.inkscape.org/namespaces/inkscape" xmlns:sodipodi="http://sodipodi.sourceforge.net/DTD/sodipodi-0.dtd" xmlns="http://www.w3.org/2000/svg" xmlns:svg="http://www.w3.org/2000/svg"> <defs id="defs15"> <filter style="color-interpolation-filters:sRGB;" inkscape:label="Diffuse Light" id="filter185" x="-0.066050313" y="-0.058458612" width="1.1321006" height="1.1169172"> <feGaussianBlur in="SourceGraphic" stdDeviation="1" result="blur" id="feGaussianBlur175" /> <feDiffuseLighting diffuseConstant="1" surfaceScale="10" lighting-color="rgb(255,255,255)" result="diffuse" id="feDiffuseLighting179"> <feDistantLight elevation="8" azimuth="235" id="feDistantLight177" /> </feDiffuseLighting> <feComposite in="diffuse" in2="diffuse" operator="arithmetic" k1="1" result="composite1" id="feComposite181" /> <feComposite in="composite1" in2="SourceGraphic" k1="1" operator="arithmetic" k3="1" result="composite2" id="feComposite183" /> </filter> </defs> <sodipodi:namedview id="namedview13" pagecolor="#ffffff" bordercolor="#000000" borderopacity="0.25" inkscape:showpageshadow="2" inkscape:pageopacity="0.0" inkscape:pagecheckerboard="0" inkscape:deskcolor="#d1d1d1" showgrid="false" inkscape:zoom="3.6875" inkscape:cx="32" inkscape:cy="32.135593" inkscape:window-width="1432" inkscape:window-height="844" inkscape:window-x="0" inkscape:window-y="0" inkscape:window-maximized="1" inkscape:current-layer="svg11" /> <g id="surface1" style="fill:#00bfff;filter:url(#filter185)" transform="matrix(1.6476992,0,0,1.4402059,-21.572763,-13.705623)"> <path style="fill:#00bfff;fill-opacity:1;fill-rule:nonzero;stroke:none" d="m 32.300781,11.328125 v 25.628906 c 0,3.875 -2.023437,6.316407 -5.027343,6.40625 -1.171876,0.03516 -2.160157,-0.191406 -2.972657,-0.601562 0.839844,1.667969 2.554688,2.921875 5.199219,2.84375 3.003906,-0.08984 5.027344,-2.53125 5.027344,-6.40625 V 13.570312 h 4.992187 c -0.175781,-0.691406 -0.285156,-1.4375 -0.3125,-2.242187 z m 10.785157,7.4375 c 1.382812,1.996094 3.4375,3.210937 5.40625,3.734375 l -0.0078,-1.941406 c -1.667969,0 -3.675781,-0.574219 -5.398437,-1.792969 z m -16.347657,6.601563 c -6.21875,-0.1875 -12.335937,5.78125 -12.335937,10.933593 0,5.472657 1.320312,7.734375 3.203125,9.835938 0.480469,0.539062 0.996093,1.007812 1.53125,1.417969 -1.503907,-1.914063 -2.507813,-4.242188 -2.507813,-9.011719 0,-5.070313 5.917969,-10.921875 12.03125,-10.929688 l 0.0039,-1.980469 c -0.636718,-0.160156 -1.28125,-0.246093 -1.925781,-0.265624 z m 0,0" id="path2" /> <path style="fill:#00bfff;fill-opacity:1;fill-rule:nonzero;stroke:none" d="m 30.890625,27.875 c -6.8125,-1.695312 -14.261719,4.980469 -14.261719,10.667969 0,5.472656 1.320313,7.734375 3.203125,9.835937 2.84375,3.179688 6.824219,4.003906 8.628907,4.003906 3.574218,0 6.109374,-0.828124 8.410156,-2.746093 3.167968,-2.648438 4.585937,-4.859375 4.585937,-12.667969 l -0.125,-10.300781 c 1.132813,0.957031 5.28125,3.3125 9.402344,3.015625 l -0.02344,-6.882813 c -3.683594,0 -9.046876,-2.769531 -9.277344,-9.230469 h -6.90625 v 25.628907 c 0,3.875 -2.023438,6.316406 -5.027344,6.40625 -5.425781,0.160156 -6.953125,-5.269531 -5.023438,-8.390625 1.929688,-3.125 6.398438,-2.304688 6.398438,-2.304688 z m 0,0" id="path4" /> <path style="fill:#00bfff;fill-opacity:1;fill-rule:nonzero;stroke:none" d="m 28.660156,27.613281 c -6.8125,-1.699219 -14.261718,4.980469 -14.261718,10.664063 0,5.476562 1.320312,7.738281 3.203124,9.839844 2.84375,3.175781 6.824219,4.003906 8.628907,4.003906 3.574219,0 6.109375,-0.828125 8.410156,-2.746094 3.164063,-2.648438 4.585937,-4.859375 4.585937,-12.667969 l -0.125,-10.304687 c 1.132813,0.957031 5.277344,3.3125 9.402344,3.015625 l -0.02344,-6.878907 c -3.683594,0 -9.046875,-2.769531 -9.277344,-9.234374 h -6.90625 V 38.9375 c 0,3.875 -2.023437,6.316406 -5.027344,6.40625 -5.425781,0.160156 -6.953125,-5.269531 -5.023437,-8.394531 1.929687,-3.121094 6.398437,-2.300781 6.398437,-2.300781 z m 0,0" id="path6" /> <path style="fill:#00bfff;fill-opacity:1;fill-rule:nonzero;stroke:none" d="m 32.300781,11.328125 v 25.628906 c 0,3.875 -2.023437,6.316407 -5.027343,6.40625 -1.171876,0.03516 -2.160157,-0.191406 -2.972657,-0.601562 0.839844,1.667969 2.554688,2.921875 5.199219,2.84375 3.003906,-0.08984 5.027344,-2.53125 5.027344,-6.40625 V 13.570312 h 4.992187 c -0.175781,-0.691406 -0.285156,-1.4375 -0.3125,-2.242187 z m 10.785157,7.4375 c 1.382812,1.996094 3.4375,3.210937 5.40625,3.734375 l -0.0078,-1.941406 c -1.667969,0 -3.675781,-0.574219 -5.398437,-1.792969 z m -16.347657,6.601563 c -6.21875,-0.1875 -12.335937,5.78125 -12.335937,10.933593 0,5.472657 1.320312,7.734375 3.203125,9.835938 0.480469,0.539062 0.996093,1.007812 1.53125,1.417969 -1.503907,-1.914063 -2.507813,-4.242188 -2.507813,-9.011719 0,-5.070313 5.917969,-10.921875 12.03125,-10.929688 l 0.0039,-1.980469 c -0.636718,-0.160156 -1.28125,-0.246093 -1.925781,-0.265624 z m 0,0" id="path8" /> </g></svg>
