<svg width="64" height="64" viewBox="0 0 64 64" version="1.1" xmlns:inkscape="http://www.inkscape.org/namespaces/inkscape"><defs><linearGradient id="linear0" gradientUnits="userSpaceOnUse" x1="0" y1="0" x2="0" y2="1" gradientTransform="matrix(64,0,0,56.3125,0,3.84375)"><stop offset="0" style="stop-color:rgb(100%,73.333335%,0%);stop-opacity:1;"/><stop offset="1" style="stop-color:rgb(70.19608%,51.372552%,0%);stop-opacity:1;"/></linearGradient><filter style="color-interpolation-filters:sRGB;" inkscape:label="Diffuse Light" id="filter184" x="-0.0375" y="-0.0375" width="1.075" height="1.075"><feGaussianBlur in="SourceGraphic" stdDeviation="1" result="blur" id="feGaussianBlur174" /><feDiffuseLighting diffuseConstant="1" surfaceScale="10" lighting-color="rgb(255,255,255)" result="diffuse" id="feDiffuseLighting178"><feDistantLight elevation="8" azimuth="235" id="feDistantLight176" /></feDiffuseLighting><feComposite in="diffuse" in2="diffuse" operator="arithmetic" k1="1" result="composite1" id="feComposite180" /><feComposite in="composite1" in2="SourceGraphic" k1="1" operator="arithmetic" k3="1" result="composite2" id="feComposite182" /></filter></defs><g id="surface1" style="filter:url(#filter184)"><path style=" stroke:none;fill-rule:evenodd;fill:url(#linear0);" d="M 38.328125 10.050781 L 61.671875 10.050781 C 62.957031 10.050781 64 11.097656 64 12.378906 L 64 29.886719 C 64 31.171875 62.957031 32.214844 61.671875 32.214844 L 38.328125 32.214844 C 37.042969 32.214844 36 31.171875 36 29.886719 L 36 12.378906 C 36 11.097656 37.042969 10.050781 38.328125 10.050781 Z M 20.328125 37.992188 L 43.671875 37.992188 C 44.957031 37.992188 46 39.03125 46 40.316406 L 46 57.828125 C 46 59.113281 44.957031 60.15625 43.671875 60.15625 L 20.328125 60.15625 C 19.042969 60.15625 18 59.113281 18 57.828125 L 18 40.316406 C 18 39.03125 19.042969 37.992188 20.328125 37.992188 Z M 2.328125 3.84375 L 25.671875 3.84375 C 26.957031 3.84375 28 4.886719 28 6.171875 L 28 23.683594 C 28 24.96875 26.957031 26.007812 25.671875 26.007812 L 2.328125 26.007812 C 1.042969 26.007812 0 24.96875 0 23.683594 L 0 6.171875 C 0 4.886719 1.042969 3.84375 2.328125 3.84375 Z M 2.328125 3.84375 "/></g></svg>
