<svg width="64" height="64" viewBox="0 0 64 64" version="1.1" xmlns:inkscape="http://www.inkscape.org/namespaces/inkscape"><defs><linearGradient id="linear0" gradientUnits="userSpaceOnUse" x1="0" y1="0" x2="0" y2="1" gradientTransform="matrix(51.203125,0,0,64,6.398438,0)"><stop offset="0" style="stop-color:rgb(100%,63.137257%,63.137257%);stop-opacity:1;"/><stop offset="1" style="stop-color:rgb(100%,27.843139%,27.843139%);stop-opacity:1;"/></linearGradient><filter style="color-interpolation-filters:sRGB;" inkscape:label="Diffuse Light" id="filter184" x="-0.0375" y="-0.0375" width="1.075" height="1.075"><feGaussianBlur in="SourceGraphic" stdDeviation="1" result="blur" id="feGaussianBlur174" /><feDiffuseLighting diffuseConstant="1" surfaceScale="10" lighting-color="rgb(255,255,255)" result="diffuse" id="feDiffuseLighting178"><feDistantLight elevation="8" azimuth="235" id="feDistantLight176" /></feDiffuseLighting><feComposite in="diffuse" in2="diffuse" operator="arithmetic" k1="1" result="composite1" id="feComposite180" /><feComposite in="composite1" in2="SourceGraphic" k1="1" operator="arithmetic" k3="1" result="composite2" id="feComposite182" /></filter></defs><g id="surface1" style="filter:url(#filter184)"><path style=" stroke:none;fill-rule:nonzero;fill:url(#linear0);" d="M 12.800781 0 C 9.273438 0 6.398438 2.871094 6.398438 6.398438 L 6.398438 57.601562 C 6.398438 61.128906 9.273438 64 12.800781 64 L 51.199219 64 C 54.726562 64 57.601562 61.128906 57.601562 57.601562 L 57.601562 6.398438 C 57.601562 2.871094 54.726562 0 51.199219 0 Z M 12.800781 6.398438 L 51.199219 6.398438 L 51.199219 19.199219 L 12.800781 19.199219 Z M 41.601562 9.601562 L 41.601562 16 L 48 16 L 48 9.601562 Z M 16 25.601562 L 22.398438 25.601562 L 22.398438 32 L 16 32 Z M 28.800781 25.601562 L 35.199219 25.601562 L 35.199219 32 L 28.800781 32 Z M 41.601562 25.601562 L 48 25.601562 L 48 32 L 41.601562 32 Z M 16 38.398438 L 22.398438 38.398438 L 22.398438 44.800781 L 16 44.800781 Z M 28.800781 38.398438 L 35.199219 38.398438 L 35.199219 44.800781 L 28.800781 44.800781 Z M 41.601562 38.398438 L 48 38.398438 L 48 44.800781 L 41.601562 44.800781 Z M 16 51.199219 L 22.398438 51.199219 L 22.398438 57.601562 L 16 57.601562 Z M 28.800781 51.199219 L 35.199219 51.199219 L 35.199219 57.601562 L 28.800781 57.601562 Z M 41.601562 51.199219 L 48 51.199219 L 48 57.601562 L 41.601562 57.601562 Z M 41.601562 51.199219 "/></g></svg>
