<svg width="64" height="64" viewBox="0 0 64 64" version="1.1" xmlns:inkscape="http://www.inkscape.org/namespaces/inkscape"><defs><linearGradient id="linear0" gradientUnits="userSpaceOnUse" x1="0" y1="0" x2="0" y2="1" gradientTransform="matrix(62.543474,0,0,40.487528,-1.304106,13.4932)"><stop offset="0" style="stop-color:rgb(0%,73.333335%,100%);stop-opacity:1;"/><stop offset="1" style="stop-color:rgb(0%,52.156866%,70.980394%);stop-opacity:1;"/></linearGradient><filter style="color-interpolation-filters:sRGB;" inkscape:label="Diffuse Light" id="filter184" x="-0.0375" y="-0.0375" width="1.075" height="1.075"><feGaussianBlur in="SourceGraphic" stdDeviation="1" result="blur" id="feGaussianBlur174" /><feDiffuseLighting diffuseConstant="1" surfaceScale="10" lighting-color="rgb(255,255,255)" result="diffuse" id="feDiffuseLighting178"><feDistantLight elevation="8" azimuth="235" id="feDistantLight176" /></feDiffuseLighting><feComposite in="diffuse" in2="diffuse" operator="arithmetic" k1="1" result="composite1" id="feComposite180" /><feComposite in="composite1" in2="SourceGraphic" k1="1" operator="arithmetic" k3="1" result="composite2" id="feComposite182" /></filter></defs><g id="surface1" style="filter:url(#filter184)"><path style=" stroke:none;fill-rule:nonzero;fill:url(#linear0);" d="M 48.496094 2.875 L 41.429688 10.28125 L 1.382812 10.28125 L 1.382812 25.09375 L 22.585938 25.09375 L 22.585938 54.710938 L 15.519531 54.710938 L 15.519531 62.113281 L 39.074219 62.113281 L 39.074219 54.710938 L 32.003906 54.710938 L 32.003906 25.09375 L 41.429688 25.09375 L 48.496094 32.496094 L 62.625 17.6875 Z M 6.09375 15.21875 L 36.714844 15.21875 L 34.359375 17.6875 L 36.714844 20.15625 L 6.09375 20.15625 Z M 6.09375 15.21875 "/><path style=" stroke:none;fill-rule:nonzero;fill:rgb(97.254902%,97.254902%,97.254902%);fill-opacity:1;" d="M 46.410156 11.414062 L 46.410156 15.753906 L 42.097656 15.753906 L 42.097656 20.097656 L 46.410156 20.097656 L 46.410156 24.4375 L 50.726562 24.4375 L 50.726562 20.097656 L 55.042969 20.097656 L 55.042969 15.753906 L 50.726562 15.753906 L 50.726562 11.414062 Z M 46.410156 11.414062 "/></g></svg>
