<svg width="64" height="64" viewBox="0 0 64 64" version="1.1" xmlns:inkscape="http://www.inkscape.org/namespaces/inkscape"><defs><linearGradient id="linear0" gradientUnits="userSpaceOnUse" x1="0" y1="0" x2="0" y2="1" gradientTransform="matrix(60,0,0,60,2.167969,1.832031)"><stop offset="0" style="stop-color:rgb(61.176473%,69.803923%,85.09804%);stop-opacity:1;"/><stop offset="1" style="stop-color:rgb(44.313726%,52.156866%,65.882355%);stop-opacity:1;"/></linearGradient><filter style="color-interpolation-filters:sRGB;" inkscape:label="Diffuse Light" id="filter184" x="-0.0375" y="-0.0375" width="1.075" height="1.075"><feGaussianBlur in="SourceGraphic" stdDeviation="1" result="blur" id="feGaussianBlur174" /><feDiffuseLighting diffuseConstant="1" surfaceScale="10" lighting-color="rgb(255,255,255)" result="diffuse" id="feDiffuseLighting178"><feDistantLight elevation="8" azimuth="235" id="feDistantLight176" /></feDiffuseLighting><feComposite in="diffuse" in2="diffuse" operator="arithmetic" k1="1" result="composite1" id="feComposite180" /><feComposite in="composite1" in2="SourceGraphic" k1="1" operator="arithmetic" k3="1" result="composite2" id="feComposite182" /></filter></defs><g id="surface1" style="filter:url(#filter184)"><path style=" stroke:none;fill-rule:nonzero;fill:url(#linear0);" d="M 32.167969 1.832031 C 15.601562 1.832031 2.167969 15.261719 2.167969 31.832031 C 2.167969 48.398438 15.601562 61.832031 32.167969 61.832031 C 48.738281 61.832031 62.167969 48.398438 62.167969 31.832031 C 62.167969 15.261719 48.738281 1.832031 32.167969 1.832031 Z M 32.167969 9.332031 C 44.597656 9.332031 54.667969 19.402344 54.667969 31.832031 C 54.660156 38.222656 51.933594 44.304688 47.167969 48.566406 L 47.167969 24.332031 L 39.667969 24.332031 L 39.667969 53.019531 C 37.261719 53.882812 34.726562 54.324219 32.167969 54.332031 C 19.742188 54.332031 9.667969 44.257812 9.667969 31.832031 C 9.667969 19.40625 19.742188 9.332031 32.167969 9.332031 Z M 39.667969 33.707031 L 20.917969 20.582031 L 20.917969 46.832031 Z M 39.667969 33.707031 "/></g></svg>
