<svg width="64" height="64" viewBox="0 0 64 64" version="1.1" xmlns:inkscape="http://www.inkscape.org/namespaces/inkscape"><defs><linearGradient id="linear0" gradientUnits="userSpaceOnUse" x1="0" y1="0" x2="0" y2="1" gradientTransform="matrix(64,0,0,64,0,0.0078125)"><stop offset="0" style="stop-color:rgb(0%,73.333335%,100%);stop-opacity:1;"/><stop offset="1" style="stop-color:rgb(0%,52.156866%,70.980394%);stop-opacity:1;"/></linearGradient><filter style="color-interpolation-filters:sRGB;" inkscape:label="Diffuse Light" id="filter184" x="-0.0375" y="-0.0375" width="1.075" height="1.075"><feGaussianBlur in="SourceGraphic" stdDeviation="1" result="blur" id="feGaussianBlur174" /><feDiffuseLighting diffuseConstant="1" surfaceScale="10" lighting-color="rgb(255,255,255)" result="diffuse" id="feDiffuseLighting178"><feDistantLight elevation="8" azimuth="235" id="feDistantLight176" /></feDiffuseLighting><feComposite in="diffuse" in2="diffuse" operator="arithmetic" k1="1" result="composite1" id="feComposite180" /><feComposite in="composite1" in2="SourceGraphic" k1="1" operator="arithmetic" k3="1" result="composite2" id="feComposite182" /></filter></defs><g id="surface1" style="filter:url(#filter184)"><path style=" stroke:none;fill-rule:nonzero;fill:url(#linear0);" d="M 8 0.0078125 C 8 0.0078125 0 -0.0078125 0 8.007812 L 0 56.007812 C 0 63.992188 8 64.007812 8 64.007812 L 56 64.007812 C 56.378906 63.992188 64 63.992188 64 56.007812 L 64 8.007812 C 64 8.007812 64 0.0078125 56 0.0078125 Z M 19.625 12.007812 L 44.375 12.007812 C 48.597656 12.007812 52 15.40625 52 19.632812 L 52 20.382812 C 52 24.605469 48.597656 28.007812 44.375 28.007812 L 19.625 28.007812 C 15.402344 28.007812 12 24.605469 12 20.382812 L 12 19.632812 C 12 15.40625 15.402344 12.007812 19.625 12.007812 Z M 20 16.007812 C 17.789062 16.007812 16 17.796875 16 20.007812 C 16 22.214844 17.789062 24.007812 20 24.007812 C 22.207031 24.007812 24 22.214844 24 20.007812 C 24 17.796875 22.207031 16.007812 20 16.007812 Z M 19.773438 36.007812 L 44.226562 36.007812 C 48.535156 36.007812 52 39.472656 52 43.78125 L 52 44.234375 C 52 48.539062 48.535156 52.007812 44.226562 52.007812 L 19.773438 52.007812 C 15.464844 52.007812 12 48.539062 12 44.234375 L 12 43.78125 C 12 39.472656 15.464844 36.007812 19.773438 36.007812 Z M 44 40.007812 C 41.789062 40.007812 40 41.796875 40 44.007812 C 40 46.214844 41.789062 48.007812 44 48.007812 C 46.210938 48.007812 48 46.214844 48 44.007812 C 48 41.796875 46.210938 40.007812 44 40.007812 Z M 44 40.007812 "/></g></svg>
