<svg width="64" height="64" viewBox="0 0 64 64" version="1.1" xmlns:inkscape="http://www.inkscape.org/namespaces/inkscape"><defs><linearGradient id="linear0" gradientUnits="userSpaceOnUse" x1="0" y1="0" x2="0" y2="1" gradientTransform="matrix(55.992188,0,0,56,4.003906,4)"><stop offset="0" style="stop-color:rgb(82.352942%,61.176473%,100%);stop-opacity:1;"/><stop offset="1" style="stop-color:rgb(66.666669%,0%,100%);stop-opacity:1;"/></linearGradient><filter style="color-interpolation-filters:sRGB;" inkscape:label="Diffuse Light" id="filter184" x="-0.0375" y="-0.0375" width="1.075" height="1.075"><feGaussianBlur in="SourceGraphic" stdDeviation="1" result="blur" id="feGaussianBlur174" /><feDiffuseLighting diffuseConstant="1" surfaceScale="10" lighting-color="rgb(255,255,255)" result="diffuse" id="feDiffuseLighting178"><feDistantLight elevation="8" azimuth="235" id="feDistantLight176" /></feDiffuseLighting><feComposite in="diffuse" in2="diffuse" operator="arithmetic" k1="1" result="composite1" id="feComposite180" /><feComposite in="composite1" in2="SourceGraphic" k1="1" operator="arithmetic" k3="1" result="composite2" id="feComposite182" /></filter></defs><g id="surface1" style="filter:url(#filter184)"><path style=" stroke:none;fill-rule:evenodd;fill:url(#linear0);" d="M 20.5 2.269531 C 17.988281 2.269531 15.972656 4.203125 15.972656 6.601562 C 15.972656 8.996094 17.988281 10.925781 20.5 10.925781 L 27.371094 10.925781 L 27.371094 31.183594 L 36.742188 31.183594 L 36.742188 10.925781 L 43.613281 10.925781 C 46.121094 10.925781 48.140625 8.996094 48.140625 6.601562 C 48.140625 4.203125 46.121094 2.269531 43.613281 2.269531 Z M 27.371094 31.1875 L 27.371094 46.050781 L 17.660156 46.050781 L 24.855469 54.066406 L 32.054688 62.078125 L 39.25 54.066406 L 46.453125 46.050781 L 36.734375 46.050781 L 36.734375 31.1875 L 27.371094 31.1875 "/></g></svg>
