<svg width="64" height="64" viewBox="0 0 64 64" version="1.1" xmlns:inkscape="http://www.inkscape.org/namespaces/inkscape"><defs><linearGradient id="linear0" gradientUnits="userSpaceOnUse" x1="0" y1="0" x2="0" y2="1" gradientTransform="matrix(64,0,0,50.84375,0,6.578125)"><stop offset="0" style="stop-color:rgb(100%,56.862748%,82.745099%);stop-opacity:1;"/><stop offset="1" style="stop-color:rgb(100%,0%,60.000002%);stop-opacity:1;"/></linearGradient><filter style="color-interpolation-filters:sRGB;" inkscape:label="Diffuse Light" id="filter184" x="-0.0375" y="-0.0375" width="1.075" height="1.075"><feGaussianBlur in="SourceGraphic" stdDeviation="1" result="blur" id="feGaussianBlur174" /><feDiffuseLighting diffuseConstant="1" surfaceScale="10" lighting-color="rgb(255,255,255)" result="diffuse" id="feDiffuseLighting178"><feDistantLight elevation="8" azimuth="235" id="feDistantLight176" /></feDiffuseLighting><feComposite in="diffuse" in2="diffuse" operator="arithmetic" k1="1" result="composite1" id="feComposite180" /><feComposite in="composite1" in2="SourceGraphic" k1="1" operator="arithmetic" k3="1" result="composite2" id="feComposite182" /></filter></defs><g id="surface1" style="filter:url(#filter184)"><path style=" stroke:none;fill-rule:nonzero;fill:url(#linear0);" d="M 28.820312 6.578125 C 18.335938 6.578125 9.757812 15.160156 9.757812 25.644531 L 9.757812 32 L 54.238281 32 L 54.238281 25.644531 C 54.238281 15.160156 45.660156 6.578125 35.175781 6.578125 Z M 3.105469 37.363281 C 0.992188 37.523438 -0.609375 40.015625 0.222656 42.523438 L 1.515625 46.300781 C 3.738281 53.609375 9.433594 57.421875 16.113281 57.421875 L 47.882812 57.421875 C 54.5625 57.421875 60.261719 53.609375 62.480469 46.300781 L 63.773438 42.523438 C 64.722656 39.671875 62.542969 36.726562 59.996094 37.363281 L 35.175781 44.707031 C 33.589844 45.34375 30.40625 45.34375 28.820312 44.707031 L 3.996094 37.359375 C 3.675781 37.289062 3.398438 37.335938 3.109375 37.359375 Z M 3.105469 37.363281 "/></g></svg>
