<svg width="64" height="64" viewBox="0 0 64 64" version="1.1" xmlns:inkscape="http://www.inkscape.org/namespaces/inkscape"><defs><linearGradient id="linear0" gradientUnits="userSpaceOnUse" x1="0" y1="0" x2="0" y2="1" gradientTransform="matrix(56,0,0,35.898438,4,14.050781)"><stop offset="0" style="stop-color:rgb(92.941177%,83.529413%,72.549021%);stop-opacity:1;"/><stop offset="1" style="stop-color:rgb(81.960785%,71.372551%,59.215689%);stop-opacity:1;"/></linearGradient><filter style="color-interpolation-filters:sRGB;" inkscape:label="Diffuse Light" id="filter184" x="-0.0375" y="-0.0375" width="1.075" height="1.075"><feGaussianBlur in="SourceGraphic" stdDeviation="1" result="blur" id="feGaussianBlur174" /><feDiffuseLighting diffuseConstant="1" surfaceScale="10" lighting-color="rgb(255,255,255)" result="diffuse" id="feDiffuseLighting178"><feDistantLight elevation="8" azimuth="235" id="feDistantLight176" /></feDiffuseLighting><feComposite in="diffuse" in2="diffuse" operator="arithmetic" k1="1" result="composite1" id="feComposite180" /><feComposite in="composite1" in2="SourceGraphic" k1="1" operator="arithmetic" k3="1" result="composite2" id="feComposite182" /></filter></defs><g id="surface1" style="filter:url(#filter184)"><path style=" stroke:none;fill-rule:nonzero;fill:url(#linear0);" d="M 17.167969 2.886719 C 10.203125 2.886719 4.59375 8.234375 4.59375 14.882812 L 4.59375 24.480469 C 4.59375 31.125 10.203125 36.476562 17.167969 36.476562 L 24.710938 36.476562 L 24.710938 24.480469 C 24.710938 28.464844 21.347656 31.675781 17.167969 31.675781 C 12.988281 31.675781 9.621094 28.464844 9.621094 24.480469 L 9.621094 14.882812 C 9.621094 10.894531 12.988281 7.683594 17.167969 7.683594 L 47.34375 7.683594 C 51.523438 7.683594 54.886719 10.894531 54.886719 14.882812 L 54.886719 24.480469 C 54.886719 28.464844 51.523438 31.675781 47.34375 31.675781 C 43.164062 31.675781 39.800781 28.464844 39.800781 24.480469 L 39.800781 36.476562 L 47.34375 36.476562 C 54.308594 36.476562 59.917969 31.125 59.917969 24.480469 L 59.917969 14.882812 C 59.917969 8.234375 54.308594 2.886719 47.34375 2.886719 Z M 39.800781 36.476562 L 39.800781 41.273438 C 43.976562 41.273438 47.34375 44.484375 47.34375 48.472656 C 47.34375 52.457031 43.976562 55.667969 39.800781 55.667969 L 24.710938 55.667969 C 20.53125 55.667969 17.167969 52.457031 17.167969 48.472656 C 17.167969 44.484375 20.53125 41.273438 24.710938 41.273438 L 24.710938 36.476562 C 17.746094 36.476562 12.136719 41.824219 12.136719 48.472656 C 12.136719 55.117188 17.746094 60.46875 24.710938 60.46875 L 39.800781 60.46875 C 46.765625 60.46875 52.371094 55.117188 52.371094 48.472656 C 52.371094 41.824219 46.765625 36.476562 39.800781 36.476562 Z M 17.167969 12.484375 L 14.652344 14.882812 L 14.652344 24.480469 C 14.652344 25.808594 15.773438 26.878906 17.167969 26.878906 C 18.558594 26.878906 19.683594 25.808594 19.683594 24.480469 L 19.683594 17.28125 L 29.742188 17.28125 L 29.742188 46.070312 L 22.195312 48.472656 C 22.195312 49.800781 23.316406 50.871094 24.710938 50.871094 L 39.800781 50.871094 C 41.191406 50.871094 42.3125 49.800781 42.3125 48.472656 C 42.3125 47.140625 41.191406 46.070312 39.800781 46.070312 L 34.769531 46.070312 L 34.769531 17.28125 L 44.828125 17.28125 L 44.828125 24.480469 C 44.828125 25.808594 45.949219 26.878906 47.34375 26.878906 C 48.734375 26.878906 49.859375 25.808594 49.859375 24.480469 L 49.859375 14.882812 C 49.859375 13.550781 48.734375 12.484375 47.34375 12.484375 Z M 17.167969 12.484375 "/></g></svg>
