<svg width="64" height="64" viewBox="0 0 64 64" version="1.1" xmlns:inkscape="http://www.inkscape.org/namespaces/inkscape"><defs><linearGradient id="linear0" gradientUnits="userSpaceOnUse" x1="0" y1="0" x2="0" y2="1" gradientTransform="matrix(55.992188,0,0,56,4.003906,4)"><stop offset="0" style="stop-color:rgb(100%,63.137257%,63.137257%);stop-opacity:1;"/><stop offset="1" style="stop-color:rgb(100%,27.843139%,27.843139%);stop-opacity:1;"/></linearGradient><filter style="color-interpolation-filters:sRGB;" inkscape:label="Diffuse Light" id="filter184" x="-0.0375" y="-0.0375" width="1.075" height="1.075"><feGaussianBlur in="SourceGraphic" stdDeviation="1" result="blur" id="feGaussianBlur174" /><feDiffuseLighting diffuseConstant="1" surfaceScale="10" lighting-color="rgb(255,255,255)" result="diffuse" id="feDiffuseLighting178"><feDistantLight elevation="8" azimuth="235" id="feDistantLight176" /></feDiffuseLighting><feComposite in="diffuse" in2="diffuse" operator="arithmetic" k1="1" result="composite1" id="feComposite180" /><feComposite in="composite1" in2="SourceGraphic" k1="1" operator="arithmetic" k3="1" result="composite2" id="feComposite182" /></filter></defs><g id="surface1" style="filter:url(#filter184)"><path style=" stroke:none;fill-rule:nonzero;fill:url(#linear0);" d="M 35.402344 1.542969 L 27.898438 3.722656 L 27.988281 4.03125 L 27.921875 4 L 14.148438 30.03125 L -9.484375 30.03125 L -9.484375 37.8125 L 18.671875 37.8125 L 18.671875 37.800781 L 18.824219 37.878906 L 31.109375 14.675781 L 42.898438 54.898438 L 43.078125 54.84375 L 42.910156 55.15625 L 49.769531 58.882812 L 57.980469 43.886719 L 71.757812 43.886719 L 71.757812 35.921875 L 53.679688 35.921875 L 53.679688 36.011719 L 53.5 36.011719 L 53.5 36.082031 L 53.386719 36.019531 L 48.253906 45.394531 L 35.402344 1.542969 "/></g></svg>
