<svg width="64" height="64" viewBox="0 0 64 64" version="1.1" xmlns:inkscape="http://www.inkscape.org/namespaces/inkscape"><defs><linearGradient id="linear0" gradientUnits="userSpaceOnUse" x1="0" y1="0" x2="0" y2="1" gradientTransform="matrix(56,0,0,35.898438,4,14.050781)"><stop offset="0" style="stop-color:rgb(41.960785%,64.313728%,100%);stop-opacity:1;"/><stop offset="1" style="stop-color:rgb(0%,43.137255%,100%);stop-opacity:1;"/></linearGradient><filter style="color-interpolation-filters:sRGB;" inkscape:label="Diffuse Light" id="filter184" x="-0.0375" y="-0.0375" width="1.075" height="1.075"><feGaussianBlur in="SourceGraphic" stdDeviation="1" result="blur" id="feGaussianBlur174" /><feDiffuseLighting diffuseConstant="1" surfaceScale="10" lighting-color="rgb(255,255,255)" result="diffuse" id="feDiffuseLighting178"><feDistantLight elevation="8" azimuth="235" id="feDistantLight176" /></feDiffuseLighting><feComposite in="diffuse" in2="diffuse" operator="arithmetic" k1="1" result="composite1" id="feComposite180" /><feComposite in="composite1" in2="SourceGraphic" k1="1" operator="arithmetic" k3="1" result="composite2" id="feComposite182" /></filter></defs><g id="surface1" style="filter:url(#filter184)"><path style=" stroke:none;fill-rule:nonzero;fill:url(#linear0);" d="M 8.046875 4.640625 C 5.378906 4.640625 3.230469 6.78125 3.230469 9.445312 L 3.230469 57.5 C 3.230469 60.164062 5.378906 62.308594 8.046875 62.308594 L 56.234375 62.308594 C 58.90625 62.308594 61.054688 60.164062 61.054688 57.5 L 61.054688 9.445312 C 61.054688 6.78125 58.90625 4.640625 56.234375 4.640625 Z M 15.277344 19.054688 L 24.914062 19.054688 L 24.914062 47.890625 L 15.277344 47.890625 Z M 39.371094 19.054688 L 49.007812 19.054688 L 49.007812 47.890625 L 39.371094 47.890625 Z M 39.371094 19.054688 "/></g></svg>
