<svg width="64" height="64" viewBox="0 0 64 64" version="1.1" xmlns:inkscape="http://www.inkscape.org/namespaces/inkscape"><defs><linearGradient id="linear0" gradientUnits="userSpaceOnUse" x1="0" y1="0" x2="0" y2="1" gradientTransform="matrix(54.859375,0,0,64,4.570312,0)"><stop offset="0" style="stop-color:rgb(61.176473%,69.803923%,85.09804%);stop-opacity:1;"/><stop offset="1" style="stop-color:rgb(44.313726%,52.156866%,65.882355%);stop-opacity:1;"/></linearGradient><filter style="color-interpolation-filters:sRGB;" inkscape:label="Diffuse Light" id="filter184" x="-0.0375" y="-0.0375" width="1.075" height="1.075"><feGaussianBlur in="SourceGraphic" stdDeviation="1" result="blur" id="feGaussianBlur174" /><feDiffuseLighting diffuseConstant="1" surfaceScale="10" lighting-color="rgb(255,255,255)" result="diffuse" id="feDiffuseLighting178"><feDistantLight elevation="8" azimuth="235" id="feDistantLight176" /></feDiffuseLighting><feComposite in="diffuse" in2="diffuse" operator="arithmetic" k1="1" result="composite1" id="feComposite180" /><feComposite in="composite1" in2="SourceGraphic" k1="1" operator="arithmetic" k3="1" result="composite2" id="feComposite182" /></filter></defs><g id="surface1" style="filter:url(#filter184)"><path style=" stroke:none;fill-rule:evenodd;fill:url(#linear0);" d="M 7.621094 0 L 4.570312 12.191406 L 4.570312 57.902344 L 16.761719 57.902344 L 16.761719 64 L 22.855469 64 L 28.953125 57.902344 L 38.097656 57.902344 L 59.429688 36.570312 L 59.429688 0 Z M 13.714844 3.046875 L 56.378906 3.046875 L 56.378906 35.046875 L 48.761719 42.667969 L 32 42.667969 L 22.855469 51.808594 L 22.855469 42.667969 L 13.714844 42.667969 Z M 25.902344 12.191406 L 25.902344 30.476562 L 32 30.476562 L 32 12.191406 Z M 41.144531 12.191406 L 41.144531 30.476562 L 47.238281 30.476562 L 47.238281 12.191406 Z M 41.144531 12.191406 "/></g></svg>
