<svg width="64" height="64" viewBox="0 0 64 64" version="1.1" xmlns:inkscape="http://www.inkscape.org/namespaces/inkscape"><defs><linearGradient id="linear0" gradientUnits="userSpaceOnUse" x1="0" y1="0" x2="0" y2="1" gradientTransform="matrix(64,0,0,59.078125,0,2.460938)"><stop offset="0" style="stop-color:rgb(75.686276%,77.64706%,83.92157%);stop-opacity:1;"/><stop offset="1" style="stop-color:rgb(43.529412%,45.09804%,50.196081%);stop-opacity:1;"/></linearGradient><filter style="color-interpolation-filters:sRGB;" inkscape:label="Diffuse Light" id="filter184" x="-0.0375" y="-0.0375" width="1.075" height="1.075"><feGaussianBlur in="SourceGraphic" stdDeviation="1" result="blur" id="feGaussianBlur174" /><feDiffuseLighting diffuseConstant="1" surfaceScale="10" lighting-color="rgb(255,255,255)" result="diffuse" id="feDiffuseLighting178"><feDistantLight elevation="8" azimuth="235" id="feDistantLight176" /></feDiffuseLighting><feComposite in="diffuse" in2="diffuse" operator="arithmetic" k1="1" result="composite1" id="feComposite180" /><feComposite in="composite1" in2="SourceGraphic" k1="1" operator="arithmetic" k3="1" result="composite2" id="feComposite182" /></filter></defs><g id="surface1" style="filter:url(#filter184)"><path style=" stroke:none;fill-rule:nonzero;fill:url(#linear0);" d="M 46.769531 2.460938 C 37.253906 2.460938 29.539062 10.175781 29.539062 19.691406 C 29.539062 29.207031 37.253906 36.925781 46.769531 36.925781 C 56.285156 36.925781 64 29.207031 64 19.691406 C 64 10.175781 56.285156 2.460938 46.769531 2.460938 Z M 17.230469 27.074219 C 7.714844 27.074219 0 34.792969 0 44.308594 C 0 53.824219 7.714844 61.539062 17.230469 61.539062 C 26.746094 61.539062 34.460938 53.824219 34.460938 44.308594 C 34.460938 34.792969 26.746094 27.074219 17.230469 27.074219 Z M 17.230469 27.074219 "/></g></svg>
