<svg width="64" height="64" viewBox="0 0 64 64" version="1.1" xmlns:inkscape="http://www.inkscape.org/namespaces/inkscape"><defs><linearGradient id="linear0" gradientUnits="userSpaceOnUse" x1="0" y1="0" x2="0" y2="1" gradientTransform="matrix(55.992188,0,0,56,4.003906,4)"><stop offset="0" style="stop-color:rgb(61.176473%,69.803923%,85.09804%);stop-opacity:1;"/><stop offset="1" style="stop-color:rgb(44.313726%,52.156866%,65.882355%);stop-opacity:1;"/></linearGradient><filter style="color-interpolation-filters:sRGB;" inkscape:label="Diffuse Light" id="filter184" x="-0.0375" y="-0.0375" width="1.075" height="1.075"><feGaussianBlur in="SourceGraphic" stdDeviation="1" result="blur" id="feGaussianBlur174" /><feDiffuseLighting diffuseConstant="1" surfaceScale="10" lighting-color="rgb(255,255,255)" result="diffuse" id="feDiffuseLighting178"><feDistantLight elevation="8" azimuth="235" id="feDistantLight176" /></feDiffuseLighting><feComposite in="diffuse" in2="diffuse" operator="arithmetic" k1="1" result="composite1" id="feComposite180" /><feComposite in="composite1" in2="SourceGraphic" k1="1" operator="arithmetic" k3="1" result="composite2" id="feComposite182" /></filter></defs><g id="surface1" style="filter:url(#filter184)"><path style=" stroke:none;fill-rule:nonzero;fill:url(#linear0);" d="M 47.332031 17.886719 C 54.761719 17.886719 60.742188 23.847656 60.742188 31.246094 L 60.742188 33.101562 C 60.742188 40.496094 54.761719 46.457031 47.332031 46.457031 L 16.78125 46.457031 C 9.351562 46.457031 3.371094 40.496094 3.371094 33.101562 L 3.371094 31.246094 C 3.371094 23.847656 9.351562 17.886719 16.78125 17.886719 L 47.332031 17.886719 M 17.710938 21.683594 C 11.894531 21.683594 7.175781 26.375 7.175781 32.171875 C 7.175781 37.96875 11.894531 42.664062 17.710938 42.664062 C 23.53125 42.664062 28.246094 37.964844 28.246094 32.171875 C 28.246094 26.375 23.53125 21.683594 17.710938 21.683594 "/></g></svg>
