<svg width="64" height="64" viewBox="0 0 64 64" version="1.1" xmlns:inkscape="http://www.inkscape.org/namespaces/inkscape"><defs><linearGradient id="linear0" gradientUnits="userSpaceOnUse" x1="0" y1="0" x2="0" y2="1" gradientTransform="matrix(72.585273,0,0,47.970111,-3.259561,23.793628)"><stop offset="0" style="stop-color:rgb(87.058824%,86.666667%,56.470591%);stop-opacity:1;"/><stop offset="1" style="stop-color:rgb(67.843139%,67.450982%,38.039216%);stop-opacity:1;"/></linearGradient><linearGradient id="linear1" gradientUnits="userSpaceOnUse" x1="0" y1="0" x2="0" y2="1" gradientTransform="matrix(72.585273,0,0,47.970111,-3.259561,23.793628)"><stop offset="0" style="stop-color:rgb(87.058824%,86.666667%,56.470591%);stop-opacity:1;"/><stop offset="1" style="stop-color:rgb(67.843139%,67.450982%,38.039216%);stop-opacity:1;"/></linearGradient><linearGradient id="linear2" gradientUnits="userSpaceOnUse" x1="0" y1="0" x2="0" y2="1" gradientTransform="matrix(72.585273,0,0,47.970111,-3.259561,23.793628)"><stop offset="0" style="stop-color:rgb(87.058824%,86.666667%,56.470591%);stop-opacity:1;"/><stop offset="1" style="stop-color:rgb(67.843139%,67.450982%,38.039216%);stop-opacity:1;"/></linearGradient><filter style="color-interpolation-filters:sRGB;" inkscape:label="Diffuse Light" id="filter184" x="-0.0375" y="-0.0375" width="1.075" height="1.075"><feGaussianBlur in="SourceGraphic" stdDeviation="1" result="blur" id="feGaussianBlur174" /><feDiffuseLighting diffuseConstant="1" surfaceScale="10" lighting-color="rgb(255,255,255)" result="diffuse" id="feDiffuseLighting178"><feDistantLight elevation="8" azimuth="235" id="feDistantLight176" /></feDiffuseLighting><feComposite in="diffuse" in2="diffuse" operator="arithmetic" k1="1" result="composite1" id="feComposite180" /><feComposite in="composite1" in2="SourceGraphic" k1="1" operator="arithmetic" k3="1" result="composite2" id="feComposite182" /></filter></defs><g id="surface1" style="filter:url(#filter184)"><path style=" stroke:none;fill-rule:nonzero;fill:url(#linear0);" d="M 4.9375 8.210938 L 4.9375 32.683594 L 1.53125 40.835938 L 11.753906 40.835938 L 8.34375 32.683594 L 8.34375 8.210938 Z M 56.050781 8.210938 L 56.050781 32.683594 L 52.644531 40.835938 L 62.871094 40.835938 L 59.460938 32.683594 L 59.460938 8.210938 Z M 56.050781 8.210938 "/><path style=" stroke:none;fill-rule:nonzero;fill:url(#linear1);" d="M 56.582031 32.761719 L 62.171875 42.121094 L 31.441406 46.800781 L 0.714844 42.121094 L 6.300781 32.761719 C 14.683594 26.566406 48.203125 26.566406 56.582031 32.761719 Z M 56.582031 32.761719 "/><path style=" stroke:none;fill-rule:nonzero;fill:url(#linear2);" d="M 1.28125 39.984375 L 1.28125 52.171875 L 3.8125 55.222656 L 3.8125 58.269531 L 16.472656 58.269531 L 16.472656 55.222656 L 46.859375 55.222656 L 46.859375 58.269531 L 59.523438 58.269531 L 59.523438 55.222656 L 62.054688 52.171875 L 62.054688 39.984375 Z M 1.28125 39.984375 "/></g></svg>
