<svg width="64" height="64" viewBox="0 0 64 64" version="1.1" xmlns:inkscape="http://www.inkscape.org/namespaces/inkscape"><defs><linearGradient id="linear0" gradientUnits="userSpaceOnUse" x1="0" y1="0" x2="0" y2="1" gradientTransform="matrix(56,0,0,35.898438,4,14.050781)"><stop offset="0" style="stop-color:rgb(41.960785%,64.313728%,100%);stop-opacity:1;"/><stop offset="1" style="stop-color:rgb(0%,43.137255%,100%);stop-opacity:1;"/></linearGradient><linearGradient id="linear1" gradientUnits="userSpaceOnUse" x1="0" y1="0" x2="0" y2="1" gradientTransform="matrix(56,0,0,35.898438,4,14.050781)"><stop offset="0" style="stop-color:rgb(41.960785%,64.313728%,100%);stop-opacity:1;"/><stop offset="1" style="stop-color:rgb(0%,43.137255%,100%);stop-opacity:1;"/></linearGradient><filter style="color-interpolation-filters:sRGB;" inkscape:label="Diffuse Light" id="filter184" x="-0.0375" y="-0.0375" width="1.075" height="1.075"><feGaussianBlur in="SourceGraphic" stdDeviation="1" result="blur" id="feGaussianBlur174" /><feDiffuseLighting diffuseConstant="1" surfaceScale="10" lighting-color="rgb(255,255,255)" result="diffuse" id="feDiffuseLighting178"><feDistantLight elevation="8" azimuth="235" id="feDistantLight176" /></feDiffuseLighting><feComposite in="diffuse" in2="diffuse" operator="arithmetic" k1="1" result="composite1" id="feComposite180" /><feComposite in="composite1" in2="SourceGraphic" k1="1" operator="arithmetic" k3="1" result="composite2" id="feComposite182" /></filter></defs><g id="surface1" style="filter:url(#filter184)"><path style=" stroke:none;fill-rule:nonzero;fill:url(#linear0);" d="M 21.332031 16 C 18.375 16 16 18.375 16 21.332031 L 21.332031 21.332031 Z M 21.332031 21.332031 L 21.332031 26.667969 L 26.667969 26.667969 L 26.667969 21.332031 Z M 26.667969 21.332031 L 32 21.332031 L 30.667969 16 L 26.667969 16 Z M 26.667969 26.667969 L 26.667969 32 L 32 32 L 32 26.667969 Z M 26.667969 32 L 21.332031 32 L 21.332031 37.332031 L 26.667969 37.332031 Z M 26.667969 37.332031 L 26.667969 42.667969 L 32 42.667969 L 32 37.332031 Z M 26.667969 42.667969 L 21.332031 42.667969 L 21.332031 48 L 26.667969 48 Z M 21.332031 42.667969 L 21.332031 37.332031 L 16 37.332031 L 16 42.667969 Z M 21.332031 32 L 21.332031 26.667969 L 16 26.667969 L 16 32 Z M 21.332031 32 "/><path style=" stroke:none;fill-rule:nonzero;fill:url(#linear1);" d="M 22.214844 18.121094 L 2.28125 38.097656 L 22.214844 58.074219 Z M 42.152344 18.121094 L 42.152344 58.074219 L 62.089844 38.097656 Z M 42.152344 18.121094 "/></g></svg>
