<svg width="64" height="64" viewBox="0 0 64 64" version="1.1" xmlns:inkscape="http://www.inkscape.org/namespaces/inkscape"><defs><linearGradient id="linear0" gradientUnits="userSpaceOnUse" x1="0" y1="0" x2="0" y2="1" gradientTransform="matrix(56,0,0,35.898438,4,14.050781)"><stop offset="0" style="stop-color:rgb(0%,78.823531%,36.862746%);stop-opacity:1;"/><stop offset="1" style="stop-color:rgb(0%,54.11765%,25.098041%);stop-opacity:1;"/></linearGradient><filter style="color-interpolation-filters:sRGB;" inkscape:label="Diffuse Light" id="filter184" x="-0.0375" y="-0.0375" width="1.075" height="1.075"><feGaussianBlur in="SourceGraphic" stdDeviation="1" result="blur" id="feGaussianBlur174" /><feDiffuseLighting diffuseConstant="1" surfaceScale="10" lighting-color="rgb(255,255,255)" result="diffuse" id="feDiffuseLighting178"><feDistantLight elevation="8" azimuth="235" id="feDistantLight176" /></feDiffuseLighting><feComposite in="diffuse" in2="diffuse" operator="arithmetic" k1="1" result="composite1" id="feComposite180" /><feComposite in="composite1" in2="SourceGraphic" k1="1" operator="arithmetic" k3="1" result="composite2" id="feComposite182" /></filter></defs><g id="surface1" style="filter:url(#filter184)"><path style=" stroke:none;fill-rule:nonzero;fill:url(#linear0);" d="M 32.105469 3.15625 C 16.503906 3.15625 3.859375 16.214844 3.859375 32.324219 C 3.859375 48.433594 16.503906 61.492188 32.105469 61.492188 C 47.707031 61.492188 60.355469 48.433594 60.355469 32.324219 C 60.355469 16.214844 47.707031 3.15625 32.105469 3.15625 Z M 32.105469 7.046875 C 45.628906 7.046875 56.589844 18.363281 56.589844 32.324219 C 56.589844 46.285156 45.628906 57.601562 32.105469 57.601562 C 18.585938 57.601562 7.625 46.285156 7.625 32.324219 C 7.625 18.363281 18.585938 7.046875 32.105469 7.046875 Z M 20.808594 24.546875 L 20.808594 40.101562 L 35.871094 40.101562 L 45.289062 32.324219 L 35.871094 24.546875 Z M 20.808594 24.546875 "/></g></svg>
