<svg width="64" height="64" viewBox="0 0 64 64" version="1.1" xmlns:inkscape="http://www.inkscape.org/namespaces/inkscape"><defs><linearGradient id="linear0" gradientUnits="userSpaceOnUse" x1="0" y1="0" x2="0" y2="1" gradientTransform="matrix(55.992188,0,0,56,4.003906,4)"><stop offset="0" style="stop-color:rgb(41.960785%,64.313728%,100%);stop-opacity:1;"/><stop offset="1" style="stop-color:rgb(0%,43.137255%,100%);stop-opacity:1;"/></linearGradient><filter style="color-interpolation-filters:sRGB;" inkscape:label="Diffuse Light" id="filter184" x="-0.0375" y="-0.0375" width="1.075" height="1.075"><feGaussianBlur in="SourceGraphic" stdDeviation="1" result="blur" id="feGaussianBlur174" /><feDiffuseLighting diffuseConstant="1" surfaceScale="10" lighting-color="rgb(255,255,255)" result="diffuse" id="feDiffuseLighting178"><feDistantLight elevation="8" azimuth="235" id="feDistantLight176" /></feDiffuseLighting><feComposite in="diffuse" in2="diffuse" operator="arithmetic" k1="1" result="composite1" id="feComposite180" /><feComposite in="composite1" in2="SourceGraphic" k1="1" operator="arithmetic" k3="1" result="composite2" id="feComposite182" /></filter></defs><g id="surface1" style="filter:url(#filter184)"><path style=" stroke:none;fill-rule:evenodd;fill:url(#linear0);" d="M 32.023438 3.648438 C 24.855469 3.648438 19.027344 9.386719 19.027344 16.519531 C 19.027344 23.65625 24.855469 29.457031 32.023438 29.457031 C 39.1875 29.457031 45.015625 23.65625 45.015625 16.519531 C 45.015625 9.386719 39.1875 3.648438 32.023438 3.648438 M 21.054688 32.734375 C 14.542969 33.347656 8.972656 42.324219 10.925781 52.695312 L 12.390625 60.699219 L 51.648438 60.699219 L 53.1875 52.695312 C 55.792969 38.863281 44.917969 27.507812 36.421875 35.164062 C 32.222656 38.953125 31.824219 38.953125 27.621094 35.164062 C 25.496094 33.253906 23.226562 32.523438 21.050781 32.726562 "/></g></svg>
