<svg width="64" height="64" viewBox="0 0 64 64" version="1.1" xmlns:inkscape="http://www.inkscape.org/namespaces/inkscape"><defs><linearGradient id="linear0" gradientUnits="userSpaceOnUse" x1="0" y1="0" x2="0" y2="1" gradientTransform="matrix(52.117943,0,0,56,8.045995,4)"><stop offset="0" style="stop-color:rgb(100%,73.333335%,0%);stop-opacity:1;"/><stop offset="1" style="stop-color:rgb(70.19608%,51.372552%,0%);stop-opacity:1;"/></linearGradient><filter style="color-interpolation-filters:sRGB;" inkscape:label="Diffuse Light" id="filter184" x="-0.0375" y="-0.0375" width="1.075" height="1.075"><feGaussianBlur in="SourceGraphic" stdDeviation="1" result="blur" id="feGaussianBlur174" /><feDiffuseLighting diffuseConstant="1" surfaceScale="10" lighting-color="rgb(255,255,255)" result="diffuse" id="feDiffuseLighting178"><feDistantLight elevation="8" azimuth="235" id="feDistantLight176" /></feDiffuseLighting><feComposite in="diffuse" in2="diffuse" operator="arithmetic" k1="1" result="composite1" id="feComposite180" /><feComposite in="composite1" in2="SourceGraphic" k1="1" operator="arithmetic" k3="1" result="composite2" id="feComposite182" /></filter></defs><g id="surface1" style="filter:url(#filter184)"><path style=" stroke:none;fill-rule:nonzero;fill:url(#linear0);" d="M 33.316406 8.585938 L 25.535156 36.933594 L 19.371094 28.605469 L 19.28125 28.484375 L 19.21875 28.617188 L 15.839844 35.652344 L 1.617188 35.71875 L 1.617188 35.820312 L 1.609375 35.929688 L 1.617188 35.929688 L 16.367188 37.816406 L 16.433594 37.824219 L 16.460938 37.765625 L 19.394531 32.773438 L 26.683594 44.070312 L 26.792969 44.242188 L 26.847656 44.050781 L 32.460938 25.332031 L 38.277344 56.066406 L 38.332031 56.355469 L 38.453125 56.09375 L 46.789062 36.96875 L 54.808594 36.996094 C 55.390625 38.546875 56.820312 39.644531 58.476562 39.644531 C 60.65625 39.644531 62.421875 37.753906 62.421875 35.425781 C 62.421875 33.09375 60.65625 31.207031 58.476562 31.207031 C 56.691406 31.207031 55.1875 32.480469 54.699219 34.21875 L 45.527344 34.339844 L 45.476562 34.339844 L 45.441406 34.394531 L 40.070312 45.085938 L 33.492188 8.601562 L 33.316406 8.585938 "/></g></svg>
