<svg width="64" height="64" viewBox="0 0 64 64" version="1.1" xmlns:inkscape="http://www.inkscape.org/namespaces/inkscape"><defs><linearGradient id="linear0" gradientUnits="userSpaceOnUse" x1="0" y1="0" x2="0" y2="1" gradientTransform="matrix(56,0,0,35.898438,4,14.050781)"><stop offset="0" style="stop-color:rgb(100%,56.862748%,82.745099%);stop-opacity:1;"/><stop offset="1" style="stop-color:rgb(100%,0%,60.000002%);stop-opacity:1;"/></linearGradient><filter style="color-interpolation-filters:sRGB;" inkscape:label="Diffuse Light" id="filter184" x="-0.0375" y="-0.0375" width="1.075" height="1.075"><feGaussianBlur in="SourceGraphic" stdDeviation="1" result="blur" id="feGaussianBlur174" /><feDiffuseLighting diffuseConstant="1" surfaceScale="10" lighting-color="rgb(255,255,255)" result="diffuse" id="feDiffuseLighting178"><feDistantLight elevation="8" azimuth="235" id="feDistantLight176" /></feDiffuseLighting><feComposite in="diffuse" in2="diffuse" operator="arithmetic" k1="1" result="composite1" id="feComposite180" /><feComposite in="composite1" in2="SourceGraphic" k1="1" operator="arithmetic" k3="1" result="composite2" id="feComposite182" /></filter></defs><g id="surface1" style="filter:url(#filter184)"><path style=" stroke:none;fill-rule:nonzero;fill:url(#linear0);" d="M 41.625 3.667969 C 39.296875 3.667969 39.488281 3.667969 38.128906 5.203125 L 5.511719 42.035156 C 4.347656 43.570312 4.355469 44.535156 4.355469 46.628906 L 4.355469 51.230469 C 4.355469 53.25 5.351562 54.949219 6.726562 55.570312 C 6.722656 55.660156 6.6875 55.742188 6.6875 55.832031 C 6.6875 57.617188 7.578125 58.902344 9.015625 58.902344 L 60.257812 58.902344 L 52.90625 52.765625 L 11.34375 52.765625 L 11.34375 51.230469 C 11.34375 48.6875 9.78125 46.628906 7.851562 46.628906 L 6.996094 46.628906 L 43.953125 3.667969 Z M 13.675781 43.558594 L 13.675781 46.628906 L 50.941406 46.628906 L 50.941406 43.558594 Z M 13.675781 43.558594 "/></g></svg>
