<svg width="64" height="64" viewBox="0 0 64 64" version="1.1" xmlns:inkscape="http://www.inkscape.org/namespaces/inkscape"><defs><linearGradient id="linear0" gradientUnits="userSpaceOnUse" x1="0" y1="0" x2="0" y2="1" gradientTransform="matrix(56,0,0,35.898438,4,14.050781)"><stop offset="0" style="stop-color:rgb(0%,78.823531%,36.862746%);stop-opacity:1;"/><stop offset="1" style="stop-color:rgb(0%,54.11765%,25.098041%);stop-opacity:1;"/></linearGradient><filter style="color-interpolation-filters:sRGB;" inkscape:label="Diffuse Light" id="filter184" x="-0.0375" y="-0.0375" width="1.075" height="1.075"><feGaussianBlur in="SourceGraphic" stdDeviation="1" result="blur" id="feGaussianBlur174" /><feDiffuseLighting diffuseConstant="1" surfaceScale="10" lighting-color="rgb(255,255,255)" result="diffuse" id="feDiffuseLighting178"><feDistantLight elevation="8" azimuth="235" id="feDistantLight176" /></feDiffuseLighting><feComposite in="diffuse" in2="diffuse" operator="arithmetic" k1="1" result="composite1" id="feComposite180" /><feComposite in="composite1" in2="SourceGraphic" k1="1" operator="arithmetic" k3="1" result="composite2" id="feComposite182" /></filter></defs><g id="surface1" style="filter:url(#filter184)"><path style=" stroke:none;fill-rule:nonzero;fill:url(#linear0);" d="M 8.371094 17.167969 C 5.933594 17.167969 3.976562 19.207031 3.976562 21.742188 C 3.976562 24.277344 5.9375 26.316406 8.371094 26.316406 L 21.546875 26.316406 C 23.984375 26.316406 25.9375 24.277344 25.9375 21.742188 C 25.9375 19.207031 23.980469 17.167969 21.546875 17.167969 Z M 32.527344 17.167969 C 30.101562 17.167969 28.132812 19.214844 28.132812 21.742188 C 28.132812 24.269531 30.101562 26.316406 32.527344 26.316406 C 34.953125 26.316406 36.917969 24.269531 36.917969 21.742188 C 36.917969 19.214844 34.953125 17.167969 32.527344 17.167969 Z M 43.503906 17.167969 C 41.066406 17.167969 39.113281 19.207031 39.113281 21.742188 C 39.113281 24.277344 41.074219 26.316406 43.503906 26.316406 L 56.679688 26.316406 C 59.117188 26.316406 61.074219 24.277344 61.074219 21.742188 C 61.074219 19.207031 59.113281 17.167969 56.679688 17.167969 Z M 8.371094 30.890625 C 5.933594 30.890625 3.976562 32.929688 3.976562 35.464844 C 3.976562 38 5.9375 40.039062 8.371094 40.039062 L 21.546875 40.039062 C 23.984375 40.039062 25.9375 38 25.9375 35.464844 C 25.9375 32.929688 23.980469 30.890625 21.546875 30.890625 Z M 32.527344 30.890625 C 30.101562 30.890625 28.132812 32.9375 28.132812 35.464844 C 28.132812 37.992188 30.101562 40.039062 32.527344 40.039062 C 34.953125 40.039062 36.917969 37.992188 36.917969 35.464844 C 36.917969 32.9375 34.953125 30.890625 32.527344 30.890625 Z M 8.371094 44.613281 C 5.945312 44.613281 3.976562 46.664062 3.976562 49.1875 C 3.976562 51.714844 5.945312 53.765625 8.371094 53.765625 C 10.796875 53.765625 12.761719 51.714844 12.761719 49.1875 C 12.761719 46.664062 10.796875 44.613281 8.371094 44.613281 Z M 8.371094 44.613281 "/></g></svg>
