<?xml version="1.0" encoding="UTF-8" standalone="no"?><svg width="64" height="64" viewBox="0 0 64 64" version="1.1" id="svg18" sodipodi:docname="view-calendar-week.svg" inkscape:version="1.2.2 (b0a8486541, 2022-12-01)" xmlns:inkscape="http://www.inkscape.org/namespaces/inkscape" xmlns:sodipodi="http://sodipodi.sourceforge.net/DTD/sodipodi-0.dtd" xmlns="http://www.w3.org/2000/svg" xmlns:svg="http://www.w3.org/2000/svg"> <sodipodi:namedview id="namedview20" pagecolor="#ffffff" bordercolor="#000000" borderopacity="0.25" inkscape:showpageshadow="2" inkscape:pageopacity="0.0" inkscape:pagecheckerboard="0" inkscape:deskcolor="#d1d1d1" showgrid="false" inkscape:zoom="3.6875" inkscape:cx="32" inkscape:cy="32.135593" inkscape:window-width="1432" inkscape:window-height="844" inkscape:window-x="0" inkscape:window-y="0" inkscape:window-maximized="1" inkscape:current-layer="svg18" /> <defs id="defs13"> <linearGradient id="linear0" gradientUnits="userSpaceOnUse" x1="0" y1="128" x2="128" y2="0" gradientTransform="matrix(0.432432,0,0,0.432432,4.324324,4.324324)"> <stop offset="0" style="stop-color:rgb(87.058824%,86.666667%,56.470591%);stop-opacity:1;" id="stop2" /> <stop offset="1" style="stop-color:rgb(67.843139%,67.450982%,38.039216%);stop-opacity:1;" id="stop4" /> </linearGradient> <filter style="color-interpolation-filters:sRGB;" inkscape:label="Diffuse Light" id="filter184" x="-0.049596385" y="-0.053185596" width="1.0991928" height="1.1063712"> <feGaussianBlur in="SourceGraphic" stdDeviation="1" result="blur" id="feGaussianBlur174" /> <feDiffuseLighting diffuseConstant="1" surfaceScale="10" lighting-color="rgb(255,255,255)" result="diffuse" id="feDiffuseLighting178"> <feDistantLight elevation="8" azimuth="235" id="feDistantLight176" /> </feDiffuseLighting> <feComposite in="diffuse" in2="diffuse" operator="arithmetic" k1="1" result="composite1" id="feComposite180" /> <feComposite in="composite1" in2="SourceGraphic" k1="1" operator="arithmetic" k3="1" result="composite2" id="feComposite182" /> </filter> </defs> <g id="surface1" style="filter:url(#filter184)" transform="matrix(1.0989733,0,0,1.2234235,-3.2585193,-7.0380395)"> <path style="fill:url(#linear0);fill-rule:nonzero;stroke:none" d="m 11.84375,9.4375 c -2.242188,0 -4.039062,1.8125 -4.039062,4.054688 v 37.015624 c 0,2.242188 1.796874,4.054688 4.039062,4.054688 h 40.296875 c 2.246094,0 4.054687,-1.8125 4.054687,-4.054688 V 13.492188 C 56.195312,11.25 54.386719,9.4375 52.140625,9.4375 Z m 2.230469,3.191406 h 15.8125 v 7.417969 H 11.5625 v -4.917969 c 0,-1.390625 1.125,-2.5 2.511719,-2.5 z m 19.269531,0 h 16.582031 c 1.386719,0 2.511719,1.109375 2.511719,2.5 v 4.917969 H 33.34375 Z M 11.5625,23.519531 h 18.324219 v 6.648438 H 11.5625 Z m 21.78125,0 H 52.4375 v 6.648438 H 33.34375 Z M 11.5625,33.640625 h 18.324219 v 17.730469 h -15.8125 c -1.386719,0 -2.511719,-1.109375 -2.511719,-2.5 z m 21.78125,0 H 52.4375 v 6.648437 H 33.34375 Z m 0,10.121094 H 52.4375 v 5.109375 c 0,1.390625 -1.125,2.5 -2.511719,2.5 H 33.34375 Z m 0,0" id="path15" /> </g></svg>
