<svg width="64" height="64" viewBox="0 0 64 64" version="1.1" id="svg25" sodipodi:docname="viewnior.svg" inkscape:version="1.2.2 (b0a8486541, 2022-12-01)" xmlns:inkscape="http://www.inkscape.org/namespaces/inkscape" xmlns:sodipodi="http://sodipodi.sourceforge.net/DTD/sodipodi-0.dtd" xmlns="http://www.w3.org/2000/svg" xmlns:svg="http://www.w3.org/2000/svg"> <sodipodi:namedview id="namedview27" pagecolor="#ffffff" bordercolor="#000000" borderopacity="0.25" inkscape:showpageshadow="2" inkscape:pageopacity="0.0" inkscape:pagecheckerboard="0" inkscape:deskcolor="#d1d1d1" showgrid="false" inkscape:zoom="3.6875" inkscape:cx="32" inkscape:cy="32.135593" inkscape:window-width="1432" inkscape:window-height="844" inkscape:window-x="0" inkscape:window-y="0" inkscape:window-maximized="1" inkscape:current-layer="svg25" /> <defs id="defs18"> <linearGradient id="linear0" gradientUnits="userSpaceOnUse" x1="0" y1="0" x2="0" y2="1" gradientTransform="matrix(55.992188,0,0,56,4.003906,4)"> <stop offset="0" style="stop-color:rgb(41.960785%,64.313728%,100%);stop-opacity:1;" id="stop2" /> <stop offset="1" style="stop-color:rgb(0%,43.137255%,100%);stop-opacity:1;" id="stop4" /> </linearGradient> <linearGradient id="linear1" gradientUnits="userSpaceOnUse" x1="0" y1="0" x2="0" y2="1" gradientTransform="matrix(55.992188,0,0,56,4.003906,4)"> <stop offset="0" style="stop-color:rgb(41.960785%,64.313728%,100%);stop-opacity:1;" id="stop7" /> <stop offset="1" style="stop-color:rgb(0%,43.137255%,100%);stop-opacity:1;" id="stop9" /> </linearGradient> <filter style="color-interpolation-filters:sRGB;" inkscape:label="Diffuse Light" id="filter184" x="-0.059427676" y="-0.04769659" width="1.1188554" height="1.0953932"> <feGaussianBlur in="SourceGraphic" stdDeviation="1" result="blur" id="feGaussianBlur174" /> <feDiffuseLighting diffuseConstant="1" surfaceScale="10" lighting-color="rgb(255,255,255)" result="diffuse" id="feDiffuseLighting178"> <feDistantLight elevation="8" azimuth="235" id="feDistantLight176" /> </feDiffuseLighting> <feComposite in="diffuse" in2="diffuse" operator="arithmetic" k1="1" result="composite1" id="feComposite180" /> <feComposite in="composite1" in2="SourceGraphic" k1="1" operator="arithmetic" k3="1" result="composite2" id="feComposite182" /> </filter> </defs> <g id="surface1" style="filter:url(#filter184)" transform="matrix(1.1612587,0,0,1.1368777,-4.6927777,-3.5360808)"> <path style="fill:url(#linear0);fill-rule:nonzero;stroke:none" d="m 14.996094,6.875 c 2.964844,-1.152344 6.308594,0.308594 7.472656,3.257812 l 15.152344,38.621094 c 1.160156,2.953125 -0.304688,6.285156 -3.277344,7.4375 -2.964844,1.160156 -6.308594,-0.300781 -7.46875,-3.257812 L 11.726562,14.320312 C 10.566406,11.363281 12.03125,8.03125 14.996094,6.875 Z m 0,0" id="path20" /> <path style="fill:url(#linear1);fill-rule:nonzero;stroke:none" d="M 46.382812,7.628906 C 44.015625,7.527344 41.765625,8.96875 40.933594,11.339844 L 27.460938,49.335938 c -1.03125,2.917968 0.472656,6.097656 3.367187,7.136718 2.898437,1.035156 6.0625,-0.472656 7.09375,-3.390625 l 2.324219,-6.542969 c -1.234375,-0.667968 -1.972656,-1.96875 -1.914063,-3.359374 0.03906,-0.957032 0.453125,-1.855469 1.144531,-2.507813 -0.257812,-0.542969 -0.382812,-1.140625 -0.363281,-1.742187 0.05469,-1.253907 0.75,-2.394532 1.839844,-3.023438 0.28125,-1.855469 1.921875,-3.203125 3.800781,-3.121094 0.121094,0.0039 0.234375,0.01563 0.351563,0.03125 l 6.28125,-17.726562 C 52.421875,12.171875 50.921875,8.984375 48.023438,7.953125 47.480469,7.753906 46.929688,7.652344 46.382812,7.628906 Z m 0,0" id="path22" /> </g></svg>
