<svg width="64" height="64" viewBox="0 0 64 64" version="1.1" xmlns:inkscape="http://www.inkscape.org/namespaces/inkscape"><defs><linearGradient id="linear0" gradientUnits="userSpaceOnUse" x1="0" y1="0" x2="0" y2="1" gradientTransform="matrix(56,0,0,35.898438,4,14.050781)"><stop offset="0" style="stop-color:rgb(0%,96.078432%,86.274511%);stop-opacity:1;"/><stop offset="1" style="stop-color:rgb(0%,54.901963%,49.411765%);stop-opacity:1;"/></linearGradient><linearGradient id="linear1" gradientUnits="userSpaceOnUse" x1="0" y1="0" x2="0" y2="1" gradientTransform="matrix(56,0,0,35.898438,4,14.050781)"><stop offset="0" style="stop-color:rgb(0%,96.078432%,86.274511%);stop-opacity:1;"/><stop offset="1" style="stop-color:rgb(0%,54.901963%,49.411765%);stop-opacity:1;"/></linearGradient><linearGradient id="linear2" gradientUnits="userSpaceOnUse" x1="0" y1="0" x2="0" y2="1" gradientTransform="matrix(56,0,0,35.898438,4,14.050781)"><stop offset="0" style="stop-color:rgb(0%,96.078432%,86.274511%);stop-opacity:1;"/><stop offset="1" style="stop-color:rgb(0%,54.901963%,49.411765%);stop-opacity:1;"/></linearGradient><filter style="color-interpolation-filters:sRGB;" inkscape:label="Diffuse Light" id="filter184" x="-0.0375" y="-0.0375" width="1.075" height="1.075"><feGaussianBlur in="SourceGraphic" stdDeviation="1" result="blur" id="feGaussianBlur174" /><feDiffuseLighting diffuseConstant="1" surfaceScale="10" lighting-color="rgb(255,255,255)" result="diffuse" id="feDiffuseLighting178"><feDistantLight elevation="8" azimuth="235" id="feDistantLight176" /></feDiffuseLighting><feComposite in="diffuse" in2="diffuse" operator="arithmetic" k1="1" result="composite1" id="feComposite180" /><feComposite in="composite1" in2="SourceGraphic" k1="1" operator="arithmetic" k3="1" result="composite2" id="feComposite182" /></filter></defs><g id="surface1" style="filter:url(#filter184)"><path style=" stroke:none;fill-rule:nonzero;fill:url(#linear0);" d="M 48.570312 6.253906 C 46.46875 6.289062 44.394531 7.730469 44.0625 10.410156 C 43.53125 14.699219 47.511719 13.089844 50.683594 13.089844 C 53.859375 13.089844 54.925781 20.054688 54.125 23.808594 C 53.332031 27.550781 44.886719 36.410156 25.777344 27.550781 C 10.050781 20.257812 2.195312 29.972656 1.785156 30.167969 C 3.289062 44.65625 15.410156 60.359375 30.148438 60.359375 C 45.859375 60.359375 58.628906 43.042969 58.628906 27.148438 C 58.628906 25.324219 58.421875 23.519531 58.101562 21.792969 C 57.808594 20.910156 57.519531 20.039062 57.304688 19.246094 C 56.921875 17.820312 56.488281 16.613281 56.109375 15.496094 C 56.09375 15.457031 56.128906 15.398438 56.109375 15.351562 C 54.605469 11.972656 52.5 8.921875 49.886719 6.378906 C 49.878906 6.359375 49.828125 6.40625 49.816406 6.378906 C 49.40625 6.28125 48.980469 6.238281 48.5625 6.246094 M 48.5625 6.253906 "/><path style=" stroke:none;fill-rule:nonzero;fill:url(#linear1);" d="M 44.199219 16.433594 C 44.199219 17.324219 43.480469 18.046875 42.609375 18.046875 C 41.730469 18.046875 41.015625 17.324219 41.015625 16.433594 C 41.015625 15.542969 41.730469 14.832031 42.609375 14.832031 C 43.480469 14.832031 44.199219 15.542969 44.199219 16.433594 M 44.199219 16.433594 "/><path style=" stroke:none;fill-rule:nonzero;fill:url(#linear2);" d="M 41.015625 10.613281 C 41.015625 11.238281 40.511719 11.75 39.886719 11.75 C 39.261719 11.75 38.757812 11.238281 38.757812 10.613281 C 38.757812 9.980469 39.261719 9.46875 39.886719 9.46875 C 40.507812 9.46875 41.015625 9.980469 41.015625 10.613281 M 41.015625 10.613281 "/></g></svg>
