<svg width="64" height="64" viewBox="0 0 64 64" version="1.1" xmlns:inkscape="http://www.inkscape.org/namespaces/inkscape"><defs><linearGradient id="linear0" gradientUnits="userSpaceOnUse" x1="0" y1="0" x2="0" y2="1" gradientTransform="matrix(56,0,0,35.898438,4,14.050781)"><stop offset="0" style="stop-color:rgb(61.176473%,69.803923%,85.09804%);stop-opacity:1;"/><stop offset="1" style="stop-color:rgb(44.313726%,52.156866%,65.882355%);stop-opacity:1;"/></linearGradient><filter style="color-interpolation-filters:sRGB;" inkscape:label="Diffuse Light" id="filter184" x="-0.0375" y="-0.0375" width="1.075" height="1.075"><feGaussianBlur in="SourceGraphic" stdDeviation="1" result="blur" id="feGaussianBlur174" /><feDiffuseLighting diffuseConstant="1" surfaceScale="10" lighting-color="rgb(255,255,255)" result="diffuse" id="feDiffuseLighting178"><feDistantLight elevation="8" azimuth="235" id="feDistantLight176" /></feDiffuseLighting><feComposite in="diffuse" in2="diffuse" operator="arithmetic" k1="1" result="composite1" id="feComposite180" /><feComposite in="composite1" in2="SourceGraphic" k1="1" operator="arithmetic" k3="1" result="composite2" id="feComposite182" /></filter></defs><g id="surface1" style="filter:url(#filter184)"><path style=" stroke:none;fill-rule:nonzero;fill:url(#linear0);" d="M 31.277344 12.167969 L 31.277344 36.882812 L 41.019531 36.882812 L 41.019531 13.875 C 37.976562 12.773438 34.710938 12.171875 31.277344 12.171875 M 28.085938 12.335938 C 24.917969 12.695312 21.875 13.582031 19.097656 14.882812 L 19.097656 36.902344 L 28.839844 36.902344 L 28.839844 12.335938 C 28.59375 12.355469 28.328125 12.308594 28.078125 12.335938 M 43.472656 14.882812 L 43.472656 36.878906 L 60.0625 36.878906 C 58.425781 27.089844 52.097656 18.910156 43.472656 14.882812 M 16.679688 16.117188 C 9.300781 20.46875 3.988281 28.03125 2.503906 36.878906 L 16.679688 36.878906 "/><path style=" stroke:none;fill-rule:nonzero;fill:rgb(61.176473%,69.803923%,85.09804%);fill-opacity:1;" d="M 3.742188 45.328125 L 60.015625 45.328125 C 61.316406 45.328125 62.359375 46.769531 62.359375 48.5625 C 62.359375 50.355469 61.289062 51.445312 60.015625 51.796875 C 48.292969 55.03125 41.257812 55.03125 31.878906 55.03125 C 22.5 55.03125 15.464844 55.03125 3.742188 51.796875 C 2.46875 51.445312 1.398438 50.355469 1.398438 48.5625 C 1.398438 46.769531 2.445312 45.328125 3.742188 45.328125 Z M 3.742188 45.328125 "/><path style=" stroke:none;fill-rule:nonzero;fill:rgb(86.666667%,86.666667%,86.666667%);fill-opacity:1;" d="M 11.808594 21.703125 L 22.917969 21.703125 L 32.171875 41.042969 L 41.429688 21.703125 L 52.539062 21.703125 L 39.578125 47.488281 L 24.769531 47.488281 "/></g></svg>
