<svg width="64" height="64" viewBox="0 0 64 64" version="1.1" xmlns:inkscape="http://www.inkscape.org/namespaces/inkscape"><defs><linearGradient id="linear0" gradientUnits="userSpaceOnUse" x1="0" y1="0" x2="0" y2="1" gradientTransform="matrix(56,0,0,35.898438,4,14.050781)"><stop offset="0" style="stop-color:rgb(0%,73.333335%,100%);stop-opacity:1;"/><stop offset="1" style="stop-color:rgb(0%,52.156866%,70.980394%);stop-opacity:1;"/></linearGradient><filter style="color-interpolation-filters:sRGB;" inkscape:label="Diffuse Light" id="filter184" x="-0.0375" y="-0.0375" width="1.075" height="1.075"><feGaussianBlur in="SourceGraphic" stdDeviation="1" result="blur" id="feGaussianBlur174" /><feDiffuseLighting diffuseConstant="1" surfaceScale="10" lighting-color="rgb(255,255,255)" result="diffuse" id="feDiffuseLighting178"><feDistantLight elevation="8" azimuth="235" id="feDistantLight176" /></feDiffuseLighting><feComposite in="diffuse" in2="diffuse" operator="arithmetic" k1="1" result="composite1" id="feComposite180" /><feComposite in="composite1" in2="SourceGraphic" k1="1" operator="arithmetic" k3="1" result="composite2" id="feComposite182" /></filter></defs><g id="surface1" style="filter:url(#filter184)"><path style=" stroke:none;fill-rule:nonzero;fill:url(#linear0);" d="M 26.597656 2.867188 L 26.597656 25.714844 C 26.597656 26.863281 27.859375 27.789062 29.425781 27.789062 L 29.425781 43.367188 L 20.933594 36.097656 L 26.597656 44.40625 L 12.441406 38.175781 L 23.765625 45.441406 L 12.441406 44.40625 L 26.597656 48.558594 L 3.949219 48.558594 L 3.949219 61.019531 L 60.566406 61.019531 L 60.566406 48.558594 L 37.917969 48.558594 L 52.074219 44.40625 L 40.75 45.441406 L 52.074219 38.175781 L 37.917969 44.40625 L 43.582031 36.097656 L 35.089844 43.367188 L 35.089844 27.789062 C 36.65625 27.789062 37.917969 26.863281 37.917969 25.714844 L 37.917969 2.867188 Z M 26.597656 2.867188 "/></g></svg>
