<svg width="64" height="64" viewBox="0 0 64 64" version="1.1" xmlns:inkscape="http://www.inkscape.org/namespaces/inkscape"><defs><linearGradient id="linear0" gradientUnits="userSpaceOnUse" x1="0" y1="0" x2="0" y2="1" gradientTransform="matrix(55.992188,0,0,56,4.003906,4)"><stop offset="0" style="stop-color:rgb(100%,63.137257%,63.137257%);stop-opacity:1;"/><stop offset="1" style="stop-color:rgb(100%,27.843139%,27.843139%);stop-opacity:1;"/></linearGradient><filter style="color-interpolation-filters:sRGB;" inkscape:label="Diffuse Light" id="filter184" x="-0.0375" y="-0.0375" width="1.075" height="1.075"><feGaussianBlur in="SourceGraphic" stdDeviation="1" result="blur" id="feGaussianBlur174" /><feDiffuseLighting diffuseConstant="1" surfaceScale="10" lighting-color="rgb(255,255,255)" result="diffuse" id="feDiffuseLighting178"><feDistantLight elevation="8" azimuth="235" id="feDistantLight176" /></feDiffuseLighting><feComposite in="diffuse" in2="diffuse" operator="arithmetic" k1="1" result="composite1" id="feComposite180" /><feComposite in="composite1" in2="SourceGraphic" k1="1" operator="arithmetic" k3="1" result="composite2" id="feComposite182" /></filter></defs><g id="surface1" style="filter:url(#filter184)"><path style=" stroke:none;fill-rule:evenodd;fill:url(#linear0);" d="M 12.144531 7.144531 C 9.289062 7.144531 6.988281 9.433594 6.988281 12.277344 L 6.988281 36.261719 C 6.988281 39.105469 9.289062 41.398438 12.144531 41.398438 L 22.199219 41.398438 L 22.199219 51.40625 C 22.199219 54.257812 24.496094 56.542969 27.355469 56.542969 L 51.4375 56.542969 C 54.296875 56.542969 56.59375 54.257812 56.59375 51.40625 L 56.59375 27.421875 C 56.59375 24.578125 54.296875 22.289062 51.4375 22.289062 L 41.386719 22.289062 L 41.386719 12.277344 C 41.386719 9.433594 39.085938 7.136719 36.230469 7.136719 Z M 14.558594 14.679688 L 30.925781 14.679688 C 32.527344 14.679688 33.816406 15.964844 33.816406 17.558594 L 33.816406 22.289062 L 31.273438 22.289062 C 28.886719 22.289062 27.449219 22.6875 30.402344 25.339844 L 37.304688 32.210938 C 41.761719 36.652344 41.386719 35.082031 41.386719 30.046875 L 45.980469 30.046875 C 47.542969 30.046875 48.804688 31.300781 48.804688 32.859375 L 48.804688 48.78125 L 32.8125 48.78125 C 31.25 48.78125 29.988281 47.527344 29.988281 45.972656 L 29.988281 41.398438 L 32.773438 41.398438 C 35.546875 41.398438 36.234375 41.074219 32.773438 37.628906 L 25.691406 30.578125 C 22.453125 27.207031 22.199219 29.253906 22.199219 30.851562 L 22.199219 33.859375 L 17.445312 33.859375 C 15.84375 33.859375 14.558594 32.574219 14.558594 30.980469 Z M 14.558594 14.679688 "/></g></svg>
