<svg width="64" height="64" viewBox="0 0 64 64" version="1.1" xmlns:inkscape="http://www.inkscape.org/namespaces/inkscape"><defs><linearGradient id="linear0" gradientUnits="userSpaceOnUse" x1="0" y1="0" x2="0" y2="1" gradientTransform="matrix(55.351562,0,0,64,5.050781,0)"><stop offset="0" style="stop-color:rgb(87.058824%,86.666667%,56.470591%);stop-opacity:1;"/><stop offset="1" style="stop-color:rgb(67.843139%,67.450982%,38.039216%);stop-opacity:1;"/></linearGradient><filter style="color-interpolation-filters:sRGB;" inkscape:label="Diffuse Light" id="filter184" x="-0.0375" y="-0.0375" width="1.075" height="1.075"><feGaussianBlur in="SourceGraphic" stdDeviation="1" result="blur" id="feGaussianBlur174" /><feDiffuseLighting diffuseConstant="1" surfaceScale="10" lighting-color="rgb(255,255,255)" result="diffuse" id="feDiffuseLighting178"><feDistantLight elevation="8" azimuth="235" id="feDistantLight176" /></feDiffuseLighting><feComposite in="diffuse" in2="diffuse" operator="arithmetic" k1="1" result="composite1" id="feComposite180" /><feComposite in="composite1" in2="SourceGraphic" k1="1" operator="arithmetic" k3="1" result="composite2" id="feComposite182" /></filter></defs><g id="surface1" style="filter:url(#filter184)"><path style=" stroke:none;fill-rule:evenodd;fill:url(#linear0);" d="M 10.238281 8.648438 L 10.238281 22.488281 L 24.078125 22.488281 L 24.078125 8.648438 Z M 36.1875 8.648438 L 36.1875 22.488281 L 50.023438 22.488281 L 50.023438 8.648438 Z M 55.214844 0 L 55.214844 5.1875 L 60.402344 5.1875 L 60.402344 46.703125 L 55.214844 46.703125 L 55.214844 51.890625 L 44.835938 51.890625 L 44.835938 58.8125 L 55.214844 58.8125 L 55.214844 64 L 10.238281 64 L 10.238281 58.8125 L 20.621094 58.8125 L 20.621094 51.890625 L 10.238281 51.890625 L 10.238281 46.703125 L 5.050781 46.703125 L 5.050781 5.1875 L 10.238281 5.1875 L 10.238281 0 Z M 10.238281 34.597656 L 10.238281 41.511719 L 17.160156 41.511719 L 17.160156 46.703125 L 37.914062 46.703125 L 37.914062 41.511719 L 44.835938 41.511719 L 44.835938 34.597656 Z M 10.238281 34.597656 "/></g></svg>
