<svg width="64" height="64" viewBox="0 0 64 64" version="1.1" xmlns:inkscape="http://www.inkscape.org/namespaces/inkscape"><defs><linearGradient id="linear0" gradientUnits="userSpaceOnUse" x1="0" y1="0" x2="0" y2="1" gradientTransform="matrix(55.992188,0,0,56,4.003906,4)"><stop offset="0" style="stop-color:rgb(0%,73.333335%,100%);stop-opacity:1;"/><stop offset="1" style="stop-color:rgb(0%,52.156866%,70.980394%);stop-opacity:1;"/></linearGradient><filter style="color-interpolation-filters:sRGB;" inkscape:label="Diffuse Light" id="filter184" x="-0.0375" y="-0.0375" width="1.075" height="1.075"><feGaussianBlur in="SourceGraphic" stdDeviation="1" result="blur" id="feGaussianBlur174" /><feDiffuseLighting diffuseConstant="1" surfaceScale="10" lighting-color="rgb(255,255,255)" result="diffuse" id="feDiffuseLighting178"><feDistantLight elevation="8" azimuth="235" id="feDistantLight176" /></feDiffuseLighting><feComposite in="diffuse" in2="diffuse" operator="arithmetic" k1="1" result="composite1" id="feComposite180" /><feComposite in="composite1" in2="SourceGraphic" k1="1" operator="arithmetic" k3="1" result="composite2" id="feComposite182" /></filter></defs><g id="surface1" style="filter:url(#filter184)"><path style=" stroke:none;fill-rule:nonzero;fill:url(#linear0);" d="M 9.976562 11.519531 C 7.910156 11.519531 6.246094 13.175781 6.246094 15.230469 L 6.246094 47.410156 C 6.246094 49.460938 7.910156 51.117188 9.976562 51.117188 L 54.710938 51.117188 C 56.777344 51.117188 58.441406 49.460938 58.441406 47.410156 L 58.441406 15.230469 C 58.441406 13.175781 56.777344 11.519531 54.710938 11.519531 Z M 41.726562 20.183594 C 42.113281 20.160156 42.535156 20.285156 42.878906 20.5625 C 43.578125 21.121094 43.738281 22.074219 43.230469 22.707031 L 30.597656 38.644531 C 30.097656 39.269531 27.957031 40.25 27.535156 39.914062 C 27.117188 39.582031 27.582031 37.261719 28.082031 36.636719 L 40.722656 20.699219 C 40.972656 20.382812 41.335938 20.207031 41.726562 20.183594 Z M 10.457031 43.691406 C 11.488281 43.691406 12.320312 44.523438 12.320312 45.554688 C 12.320312 46.578125 11.488281 47.410156 10.457031 47.410156 C 9.429688 47.410156 8.597656 46.578125 8.597656 45.554688 C 8.597656 44.523438 9.429688 43.691406 10.457031 43.691406 Z M 10.457031 43.691406 "/></g></svg>
