<svg xmlns="http://www.w3.org/2000/svg" xmlns:xlink="http://www.w3.org/1999/xlink" width="64" height="64" viewBox="0 0 64 64" version="1.1"><defs><filter id="alpha" filterUnits="objectBoundingBox" x="0%" y="0%" width="100%" height="100%"> <feColorMatrix type="matrix" in="SourceGraphic" values="0 0 0 0 1 0 0 0 0 1 0 0 0 0 1 0 0 0 1 0"/></filter><mask id="mask0"><rect x="0" y="0" width="64" height="64" style="fill:rgb(0%,0%,0%);fill-opacity:0.99;stroke:none;"/></mask><clipPath id="clip1"> <rect x="0" y="0" width="64" height="64"/></clipPath><path style=" stroke:none;fill-rule:nonzero;fill:rgb(47.058824%,76.47059%,69.01961%);fill-opacity:1;" d="M 62.9375 32.625 C 62.9375 49.757812 49.046875 63.648438 31.914062 63.648438 C 14.78125 63.648438 0.890625 49.757812 0.890625 32.625 C 0.890625 15.492188 14.78125 1.601562 31.914062 1.601562 C 49.046875 1.601562 62.9375 15.492188 62.9375 32.625 Z M 62.9375 32.625 "/></defs><use xlink:href="#surface5" mask="url(#mask0)"/><path style="fill:none;stroke-width:1.3;stroke-linecap:butt;stroke-linejoin:miter;stroke:rgb(100%,100%,100%);stroke-opacity:1;stroke-miterlimit:4;" d="M 41.118164 29.000977 L 41.118164 33.125977 C 41.118164 35.34082 39.333984 37.125 37.119141 37.125 L 11.118164 37.125 C 8.90332 37.125 7.119141 35.34082 7.119141 33.125977 L 7.119141 17.124023 C 7.119141 14.90918 8.90332 13.125 11.118164 13.125 L 37.119141 13.125 C 39.333984 13.125 41.118164 14.90918 41.118164 17.124023 L 41.118164 21 " transform="matrix(1.333333,0,0,1.333333,0,0)"/><path style="fill:none;stroke-width:1.3;stroke-linecap:butt;stroke-linejoin:miter;stroke:rgb(100%,100%,100%);stroke-opacity:1;stroke-miterlimit:4;" d="M 33.120117 21.125977 L 41.118164 21.125977 C 42.222656 21.125977 43.119141 22.019531 43.119141 23.124023 L 43.119141 27.125977 C 43.119141 28.230469 42.222656 29.124023 41.118164 29.124023 L 33.120117 29.124023 C 32.015625 29.124023 31.119141 28.230469 31.119141 27.125977 L 31.119141 23.124023 C 31.119141 22.019531 32.015625 21.125977 33.120117 21.125977 Z M 33.120117 21.125977 " transform="matrix(1.333333,0,0,1.333333,0,0)"/><path style=" stroke:none;fill-rule:nonzero;fill:rgb(100%,100%,100%);fill-opacity:1;" d="M 49.492188 33.5 C 49.492188 34.972656 48.296875 36.167969 46.824219 36.167969 C 45.351562 36.167969 44.160156 34.972656 44.160156 33.5 C 44.160156 32.027344 45.351562 30.832031 46.824219 30.832031 C 48.296875 30.832031 49.492188 32.027344 49.492188 33.5 Z M 49.492188 33.5 "/><path style="fill:none;stroke-width:1;stroke-linecap:round;stroke-linejoin:miter;stroke:rgb(100%,100%,100%);stroke-opacity:1;stroke-miterlimit:4;" d="M 11.118164 19.125 L 37.119141 19.125 " transform="matrix(1.333333,0,0,1.333333,0,0)"/><path style=" stroke:none;fill-rule:evenodd;fill:rgb(100%,100%,100%);fill-opacity:1;" d="M 17.492188 25.5 L 38.660156 11.832031 L 46.824219 25.5 Z M 17.492188 25.5 "/></svg>
