<svg width="64" height="64" viewBox="0 0 64 64" version="1.1" xmlns:inkscape="http://www.inkscape.org/namespaces/inkscape"><defs><linearGradient id="linear0" gradientUnits="userSpaceOnUse" x1="0" y1="0" x2="0" y2="1" gradientTransform="matrix(56,0,0,35.898438,4,14.050781)"><stop offset="0" style="stop-color:rgb(0%,96.078432%,86.274511%);stop-opacity:1;"/><stop offset="1" style="stop-color:rgb(0%,54.901963%,49.411765%);stop-opacity:1;"/></linearGradient><linearGradient id="linear1" gradientUnits="userSpaceOnUse" x1="0" y1="0" x2="0" y2="1" gradientTransform="matrix(56,0,0,35.898438,4,14.050781)"><stop offset="0" style="stop-color:rgb(0%,96.078432%,86.274511%);stop-opacity:1;"/><stop offset="1" style="stop-color:rgb(0%,54.901963%,49.411765%);stop-opacity:1;"/></linearGradient><linearGradient id="linear2" gradientUnits="userSpaceOnUse" x1="0" y1="0" x2="0" y2="1" gradientTransform="matrix(56,0,0,35.898438,4,14.050781)"><stop offset="0" style="stop-color:rgb(0%,96.078432%,86.274511%);stop-opacity:1;"/><stop offset="1" style="stop-color:rgb(0%,54.901963%,49.411765%);stop-opacity:1;"/></linearGradient><filter style="color-interpolation-filters:sRGB;" inkscape:label="Diffuse Light" id="filter184" x="-0.0375" y="-0.0375" width="1.075" height="1.075"><feGaussianBlur in="SourceGraphic" stdDeviation="1" result="blur" id="feGaussianBlur174" /><feDiffuseLighting diffuseConstant="1" surfaceScale="10" lighting-color="rgb(255,255,255)" result="diffuse" id="feDiffuseLighting178"><feDistantLight elevation="8" azimuth="235" id="feDistantLight176" /></feDiffuseLighting><feComposite in="diffuse" in2="diffuse" operator="arithmetic" k1="1" result="composite1" id="feComposite180" /><feComposite in="composite1" in2="SourceGraphic" k1="1" operator="arithmetic" k3="1" result="composite2" id="feComposite182" /></filter></defs><g id="surface1" style="filter:url(#filter184)"><path style=" stroke:none;fill-rule:nonzero;fill:url(#linear0);" d="M 5.320312 6.378906 L 5.320312 9.148438 L 60.867188 9.148438 L 60.867188 6.378906 Z M 5.320312 39.566406 L 5.320312 42.335938 L 60.867188 42.335938 L 60.867188 39.566406 Z M 5.320312 39.566406 "/><path style=" stroke:none;fill-rule:nonzero;fill:url(#linear1);" d="M 5.320312 6.378906 L 5.320312 11.914062 L 30.011719 28.507812 L 60.867188 17.445312 L 60.867188 6.378906 Z M 5.320312 39.566406 L 5.320312 50.632812 L 36.175781 61.691406 L 60.867188 45.101562 L 60.867188 39.566406 Z M 5.320312 39.566406 "/><path style=" stroke:none;fill-rule:nonzero;fill:url(#linear2);" d="M 8.402344 14.675781 L 8.402344 20.210938 L 23.835938 20.210938 L 23.835938 14.675781 Z M 42.351562 20.210938 L 42.351562 22.972656 L 54.695312 22.972656 L 54.695312 20.210938 Z M 8.402344 22.972656 L 8.402344 25.742188 L 17.660156 25.742188 L 17.660156 22.972656 Z M 42.351562 25.742188 L 42.351562 28.507812 L 51.609375 28.507812 L 51.609375 25.742188 Z M 30.011719 47.863281 L 30.011719 53.394531 L 45.433594 53.394531 L 45.433594 47.863281 Z M 8.402344 53.394531 L 8.402344 56.160156 L 20.753906 56.160156 L 20.753906 53.394531 Z M 30.011719 56.160156 L 30.011719 58.929688 L 39.269531 58.929688 L 39.269531 56.160156 Z M 8.402344 58.929688 L 8.402344 61.691406 L 17.660156 61.691406 L 17.660156 58.929688 Z M 8.402344 58.929688 "/></g></svg>
