<svg width="64" height="64" viewBox="0 0 64 64" version="1.1" xmlns:inkscape="http://www.inkscape.org/namespaces/inkscape"><defs><linearGradient id="linear0" gradientUnits="userSpaceOnUse" x1="0" y1="0" x2="0" y2="1" gradientTransform="matrix(56,0,0,35.898438,4,14.050781)"><stop offset="0" style="stop-color:rgb(41.960785%,64.313728%,100%);stop-opacity:1;"/><stop offset="1" style="stop-color:rgb(0%,43.137255%,100%);stop-opacity:1;"/></linearGradient><linearGradient id="linear1" gradientUnits="userSpaceOnUse" x1="0" y1="0" x2="0" y2="1" gradientTransform="matrix(56,0,0,35.898438,4,14.050781)"><stop offset="0" style="stop-color:rgb(41.960785%,64.313728%,100%);stop-opacity:1;"/><stop offset="1" style="stop-color:rgb(0%,43.137255%,100%);stop-opacity:1;"/></linearGradient><linearGradient id="linear2" gradientUnits="userSpaceOnUse" x1="0" y1="0" x2="0" y2="1" gradientTransform="matrix(56,0,0,35.898438,4,14.050781)"><stop offset="0" style="stop-color:rgb(41.960785%,64.313728%,100%);stop-opacity:1;"/><stop offset="1" style="stop-color:rgb(0%,43.137255%,100%);stop-opacity:1;"/></linearGradient><linearGradient id="linear3" gradientUnits="userSpaceOnUse" x1="0" y1="0" x2="0" y2="1" gradientTransform="matrix(56,0,0,35.898438,4,14.050781)"><stop offset="0" style="stop-color:rgb(41.960785%,64.313728%,100%);stop-opacity:1;"/><stop offset="1" style="stop-color:rgb(0%,43.137255%,100%);stop-opacity:1;"/></linearGradient><linearGradient id="linear4" gradientUnits="userSpaceOnUse" x1="0" y1="0" x2="0" y2="1" gradientTransform="matrix(56,0,0,35.898438,4,14.050781)"><stop offset="0" style="stop-color:rgb(41.960785%,64.313728%,100%);stop-opacity:1;"/><stop offset="1" style="stop-color:rgb(0%,43.137255%,100%);stop-opacity:1;"/></linearGradient><filter style="color-interpolation-filters:sRGB;" inkscape:label="Diffuse Light" id="filter184" x="-0.0375" y="-0.0375" width="1.075" height="1.075"><feGaussianBlur in="SourceGraphic" stdDeviation="1" result="blur" id="feGaussianBlur174" /><feDiffuseLighting diffuseConstant="1" surfaceScale="10" lighting-color="rgb(255,255,255)" result="diffuse" id="feDiffuseLighting178"><feDistantLight elevation="8" azimuth="235" id="feDistantLight176" /></feDiffuseLighting><feComposite in="diffuse" in2="diffuse" operator="arithmetic" k1="1" result="composite1" id="feComposite180" /><feComposite in="composite1" in2="SourceGraphic" k1="1" operator="arithmetic" k3="1" result="composite2" id="feComposite182" /></filter></defs><g id="surface1" style="filter:url(#filter184)"><path style=" stroke:none;fill-rule:nonzero;fill:url(#linear0);" d="M 42.773438 16.054688 C 39.800781 17.914062 36.679688 20.386719 33.125 23.457031 L 33.125 37.523438 L 48.859375 32.675781 C 48.316406 26.335938 45.625 20.542969 42.773438 16.054688 Z M 42.773438 16.054688 "/><path style=" stroke:none;fill-rule:nonzero;fill:url(#linear1);" d="M 19.8125 32.839844 L 33.125 54.148438 L 35.238281 50.761719 C 34.355469 37.664062 29.429688 33.910156 19.8125 32.839844 Z M 19.8125 32.839844 "/><path style=" stroke:none;fill-rule:nonzero;fill:url(#linear2);" d="M 10.488281 11.949219 C 10.488281 11.949219 8.21875 17.058594 8.21875 29.847656 L 33.125 37.523438 L 58.027344 29.847656 C 58.027344 17.058594 55.757812 11.949219 55.757812 11.949219 C 47.980469 11.949219 41.863281 15.90625 33.125 23.457031 C 24.382812 15.90625 18.265625 11.949219 10.488281 11.949219 Z M 10.488281 11.949219 "/><path style=" stroke:none;fill-rule:nonzero;fill:url(#linear3);" d="M 19.539062 32.40625 C 19.539062 17.058594 33.125 4.273438 33.125 4.273438 C 33.125 4.273438 46.707031 17.058594 46.707031 32.40625 L 33.125 54.148438 Z M 19.539062 32.40625 "/><path style=" stroke:none;fill-rule:nonzero;fill:url(#linear4);" d="M 3.695312 29.847656 C 3.695312 40.078125 8.21875 55.425781 21.800781 55.425781 L 44.445312 55.425781 C 58.027344 55.425781 62.550781 40.078125 62.550781 29.847656 C 42.175781 29.847656 33.125 29.847656 33.125 52.867188 C 33.125 29.847656 24.070312 29.847656 3.695312 29.847656 Z M 3.695312 29.847656 "/></g></svg>
