<svg width="64" height="64" viewBox="0 0 64 64" version="1.1" xmlns:inkscape="http://www.inkscape.org/namespaces/inkscape"><defs><linearGradient id="linear0" gradientUnits="userSpaceOnUse" x1="0" y1="0" x2="0" y2="1" gradientTransform="matrix(56,0,0,35.898438,4,14.050781)"><stop offset="0" style="stop-color:rgb(0%,96.078432%,86.274511%);stop-opacity:1;"/><stop offset="1" style="stop-color:rgb(0%,54.901963%,49.411765%);stop-opacity:1;"/></linearGradient><filter style="color-interpolation-filters:sRGB;" inkscape:label="Diffuse Light" id="filter184" x="-0.0375" y="-0.0375" width="1.075" height="1.075"><feGaussianBlur in="SourceGraphic" stdDeviation="1" result="blur" id="feGaussianBlur174" /><feDiffuseLighting diffuseConstant="1" surfaceScale="10" lighting-color="rgb(255,255,255)" result="diffuse" id="feDiffuseLighting178"><feDistantLight elevation="8" azimuth="235" id="feDistantLight176" /></feDiffuseLighting><feComposite in="diffuse" in2="diffuse" operator="arithmetic" k1="1" result="composite1" id="feComposite180" /><feComposite in="composite1" in2="SourceGraphic" k1="1" operator="arithmetic" k3="1" result="composite2" id="feComposite182" /></filter></defs><g id="surface1" style="filter:url(#filter184)"><path style=" stroke:none;fill-rule:nonzero;fill:url(#linear0);" d="M 27.199219 2.988281 L 27.199219 5.039062 L 22.851562 5.039062 L 22.851562 7.089844 L 20.675781 7.089844 L 20.675781 9.140625 L 18.5 9.140625 L 18.5 11.191406 L 16.328125 11.191406 L 16.328125 15.296875 L 14.152344 15.296875 L 14.152344 19.398438 L 11.976562 19.398438 L 11.976562 31.707031 L 14.152344 31.707031 L 14.152344 35.8125 L 11.976562 35.8125 L 11.976562 39.914062 L 14.152344 39.914062 L 14.152344 41.964844 L 16.328125 41.964844 L 16.328125 44.015625 L 14.152344 44.015625 L 14.152344 46.066406 L 11.976562 46.066406 L 11.976562 50.171875 L 9.804688 50.171875 L 9.804688 56.324219 L 11.976562 56.324219 L 11.976562 58.375 L 14.152344 58.375 L 14.152344 60.429688 L 18.5 60.429688 L 18.5 58.375 L 16.328125 58.375 L 16.328125 48.121094 L 18.5 48.121094 L 18.5 44.015625 L 20.675781 44.015625 L 20.675781 41.964844 L 22.851562 41.964844 L 22.851562 39.914062 L 29.375 39.914062 L 29.375 41.964844 L 27.199219 41.964844 L 27.199219 44.015625 L 22.851562 44.015625 L 22.851562 46.066406 L 20.675781 46.066406 L 20.675781 50.171875 L 22.851562 50.171875 L 22.851562 52.222656 L 25.023438 52.222656 L 25.023438 54.273438 L 22.851562 54.273438 L 22.851562 56.324219 L 20.675781 56.324219 L 20.675781 58.375 L 22.851562 58.375 L 22.851562 60.429688 L 27.199219 60.429688 L 27.199219 58.375 L 29.375 58.375 L 29.375 56.324219 L 33.722656 56.324219 L 33.722656 58.375 L 31.546875 58.375 L 31.546875 60.429688 L 33.722656 60.429688 L 33.722656 62.480469 L 38.070312 62.480469 L 38.070312 56.324219 L 40.246094 56.324219 L 40.246094 54.273438 L 42.421875 54.273438 L 42.421875 52.222656 L 44.59375 52.222656 L 44.59375 54.273438 L 48.945312 54.273438 L 48.945312 52.222656 L 51.117188 52.222656 L 51.117188 48.121094 L 48.945312 48.121094 L 48.945312 46.066406 L 46.769531 46.066406 L 46.769531 44.015625 L 44.59375 44.015625 L 44.59375 41.964844 L 42.421875 41.964844 L 42.421875 39.914062 L 44.59375 39.914062 L 44.59375 37.863281 L 46.769531 37.863281 L 46.769531 39.914062 L 48.945312 39.914062 L 48.945312 41.964844 L 51.117188 41.964844 L 51.117188 46.066406 L 53.292969 46.066406 L 53.292969 54.273438 L 51.117188 54.273438 L 51.117188 56.324219 L 48.945312 56.324219 L 48.945312 58.375 L 44.59375 58.375 L 44.59375 60.429688 L 55.46875 60.429688 L 55.46875 58.375 L 57.640625 58.375 L 57.640625 56.324219 L 59.816406 56.324219 L 59.816406 48.121094 L 57.640625 48.121094 L 57.640625 44.015625 L 55.46875 44.015625 L 55.46875 41.964844 L 53.292969 41.964844 L 53.292969 39.914062 L 55.46875 39.914062 L 55.46875 37.863281 L 57.640625 37.863281 L 57.640625 33.757812 L 55.46875 33.757812 L 55.46875 31.707031 L 57.640625 31.707031 L 57.640625 19.398438 L 55.46875 19.398438 L 55.46875 15.296875 L 53.292969 15.296875 L 53.292969 11.191406 L 51.117188 11.191406 L 51.117188 9.140625 L 48.945312 9.140625 L 48.945312 7.089844 L 46.769531 7.089844 L 46.769531 5.039062 L 42.421875 5.039062 L 42.421875 2.988281 Z M 27.199219 2.988281 "/></g></svg>
