<svg width="64" height="64" viewBox="0 0 64 64" version="1.1" xmlns:inkscape="http://www.inkscape.org/namespaces/inkscape"><defs><linearGradient id="linear0" gradientUnits="userSpaceOnUse" x1="0" y1="0" x2="0" y2="1" gradientTransform="matrix(56,0,0,35.898438,4,14.050781)"><stop offset="0" style="stop-color:rgb(92.941177%,83.529413%,72.549021%);stop-opacity:1;"/><stop offset="1" style="stop-color:rgb(81.960785%,71.372551%,59.215689%);stop-opacity:1;"/></linearGradient><filter style="color-interpolation-filters:sRGB;" inkscape:label="Diffuse Light" id="filter184" x="-0.0375" y="-0.0375" width="1.075" height="1.075"><feGaussianBlur in="SourceGraphic" stdDeviation="1" result="blur" id="feGaussianBlur174" /><feDiffuseLighting diffuseConstant="1" surfaceScale="10" lighting-color="rgb(255,255,255)" result="diffuse" id="feDiffuseLighting178"><feDistantLight elevation="8" azimuth="235" id="feDistantLight176" /></feDiffuseLighting><feComposite in="diffuse" in2="diffuse" operator="arithmetic" k1="1" result="composite1" id="feComposite180" /><feComposite in="composite1" in2="SourceGraphic" k1="1" operator="arithmetic" k3="1" result="composite2" id="feComposite182" /></filter></defs><g id="surface1" style="filter:url(#filter184)"><path style=" stroke:none;fill-rule:nonzero;fill:url(#linear0);" d="M 12.046875 2.796875 C 6.566406 2.796875 2.152344 7.21875 2.152344 12.707031 L 2.152344 52.34375 C 2.152344 57.832031 6.566406 62.25 12.046875 62.25 L 51.617188 62.25 C 57.097656 62.25 61.507812 57.832031 61.507812 52.34375 L 61.507812 12.707031 C 61.507812 7.21875 57.097656 2.796875 51.617188 2.796875 Z M 41.722656 5.273438 L 51.617188 5.273438 C 55.726562 5.273438 59.035156 8.589844 59.035156 12.707031 L 59.035156 52.34375 C 59.035156 56.460938 55.726562 59.773438 51.617188 59.773438 L 21.9375 59.773438 L 21.9375 44.910156 L 41.722656 44.910156 L 41.722656 32.523438 L 21.9375 32.523438 L 21.9375 20.136719 L 41.722656 20.136719 Z M 41.722656 5.273438 "/></g></svg>
