<svg width="64" height="64" viewBox="0 0 64 64" version="1.1" xmlns:inkscape="http://www.inkscape.org/namespaces/inkscape"><defs><linearGradient id="linear0" gradientUnits="userSpaceOnUse" x1="0" y1="0" x2="0" y2="1" gradientTransform="matrix(56,0,0,35.898438,4,14.050781)"><stop offset="0" style="stop-color:rgb(81.960785%,70.980394%,59.215689%);stop-opacity:1;"/><stop offset="1" style="stop-color:rgb(65.098041%,53.725493%,41.568628%);stop-opacity:1;"/></linearGradient><filter style="color-interpolation-filters:sRGB;" inkscape:label="Diffuse Light" id="filter184" x="-0.0375" y="-0.0375" width="1.075" height="1.075"><feGaussianBlur in="SourceGraphic" stdDeviation="1" result="blur" id="feGaussianBlur174" /><feDiffuseLighting diffuseConstant="1" surfaceScale="10" lighting-color="rgb(255,255,255)" result="diffuse" id="feDiffuseLighting178"><feDistantLight elevation="8" azimuth="235" id="feDistantLight176" /></feDiffuseLighting><feComposite in="diffuse" in2="diffuse" operator="arithmetic" k1="1" result="composite1" id="feComposite180" /><feComposite in="composite1" in2="SourceGraphic" k1="1" operator="arithmetic" k3="1" result="composite2" id="feComposite182" /></filter></defs><g id="surface1" style="filter:url(#filter184)"><path style=" stroke:none;fill-rule:nonzero;fill:url(#linear0);" d="M 16.9375 3.046875 L 16.9375 8.898438 L 20.710938 8.898438 L 20.710938 5.972656 L 28.253906 5.972656 L 28.253906 23.527344 L 24.484375 23.527344 L 24.484375 26.453125 L 28.253906 26.453125 L 28.253906 32.304688 L 16.9375 32.304688 L 26.996094 42.058594 L 22.597656 55.710938 L 16.9375 41.082031 L 20.710938 41.082031 L 20.710938 38.15625 L 5.625 38.15625 L 5.625 41.082031 L 9.394531 41.082031 L 18.824219 61.5625 L 26.371094 61.5625 L 32.027344 46.933594 L 37.6875 61.5625 L 45.230469 61.5625 L 54.660156 41.082031 L 58.433594 41.082031 L 58.433594 38.15625 L 43.34375 38.15625 L 43.34375 41.082031 L 47.117188 41.082031 L 41.457031 55.710938 L 37.058594 42.058594 L 47.117188 32.304688 L 35.800781 32.304688 L 35.800781 26.453125 L 39.570312 26.453125 L 39.570312 23.527344 L 35.800781 23.527344 L 35.800781 5.972656 L 43.34375 5.972656 L 43.34375 8.898438 L 47.117188 8.898438 L 47.117188 3.046875 Z M 16.9375 3.046875 "/></g></svg>
