<svg width="64" height="64" viewBox="0 0 64 64" version="1.1" xmlns:inkscape="http://www.inkscape.org/namespaces/inkscape"><defs><linearGradient id="linear0" gradientUnits="userSpaceOnUse" x1="0" y1="0" x2="0" y2="1" gradientTransform="matrix(56,0,0,35.898438,4,14.050781)"><stop offset="0" style="stop-color:rgb(87.058824%,86.666667%,56.470591%);stop-opacity:1;"/><stop offset="1" style="stop-color:rgb(67.843139%,67.450982%,38.039216%);stop-opacity:1;"/></linearGradient><filter style="color-interpolation-filters:sRGB;" inkscape:label="Diffuse Light" id="filter184" x="-0.0375" y="-0.0375" width="1.075" height="1.075"><feGaussianBlur in="SourceGraphic" stdDeviation="1" result="blur" id="feGaussianBlur174" /><feDiffuseLighting diffuseConstant="1" surfaceScale="10" lighting-color="rgb(255,255,255)" result="diffuse" id="feDiffuseLighting178"><feDistantLight elevation="8" azimuth="235" id="feDistantLight176" /></feDiffuseLighting><feComposite in="diffuse" in2="diffuse" operator="arithmetic" k1="1" result="composite1" id="feComposite180" /><feComposite in="composite1" in2="SourceGraphic" k1="1" operator="arithmetic" k3="1" result="composite2" id="feComposite182" /></filter></defs><g id="surface1" style="filter:url(#filter184)"><path style=" stroke:none;fill-rule:nonzero;fill:url(#linear0);" d="M 30.105469 4.496094 C 29.398438 4.5 28.738281 4.964844 28.375 5.722656 L 4.121094 56.167969 C 3.316406 57.851562 4.285156 59.980469 5.851562 59.980469 L 54.359375 59.980469 C 55.929688 59.976562 56.90625 57.84375 56.09375 56.167969 L 52.230469 48.148438 C 52.292969 47.90625 52.335938 47.648438 52.335938 47.378906 L 52.335938 39.8125 L 58.398438 39.8125 C 59.519531 39.8125 60.417969 38.6875 60.417969 37.289062 C 60.417969 35.894531 59.519531 34.769531 58.398438 34.769531 L 52.335938 34.769531 L 52.335938 24.679688 L 58.398438 24.679688 C 59.519531 24.679688 60.417969 23.554688 60.417969 22.15625 C 60.417969 20.757812 59.519531 19.632812 58.398438 19.632812 L 52.335938 19.632812 L 52.335938 12.066406 C 52.335938 10.667969 51.433594 9.542969 50.3125 9.542969 C 49.195312 9.542969 48.292969 10.667969 48.292969 12.066406 L 48.292969 19.632812 L 40.207031 19.632812 L 40.207031 12.066406 C 40.207031 10.667969 39.308594 9.542969 38.1875 9.542969 C 37.066406 9.542969 36.164062 10.667969 36.164062 12.066406 L 36.164062 14.742188 L 31.839844 5.734375 C 31.476562 4.976562 30.816406 4.511719 30.109375 4.511719 Z M 40.960938 24.675781 L 48.296875 24.675781 L 48.296875 34.765625 L 45.8125 34.765625 Z M 40.960938 24.675781 "/></g></svg>
