<svg width="64" height="64" viewBox="0 0 64 64" version="1.1" xmlns:inkscape="http://www.inkscape.org/namespaces/inkscape"><defs><linearGradient id="linear0" gradientUnits="userSpaceOnUse" x1="0" y1="0" x2="0" y2="1" gradientTransform="matrix(56,0,0,35.898438,4,14.050781)"><stop offset="0" style="stop-color:rgb(0%,78.823531%,36.862746%);stop-opacity:1;"/><stop offset="1" style="stop-color:rgb(0%,54.11765%,25.098041%);stop-opacity:1;"/></linearGradient><filter style="color-interpolation-filters:sRGB;" inkscape:label="Diffuse Light" id="filter184" x="-0.0375" y="-0.0375" width="1.075" height="1.075"><feGaussianBlur in="SourceGraphic" stdDeviation="1" result="blur" id="feGaussianBlur174" /><feDiffuseLighting diffuseConstant="1" surfaceScale="10" lighting-color="rgb(255,255,255)" result="diffuse" id="feDiffuseLighting178"><feDistantLight elevation="8" azimuth="235" id="feDistantLight176" /></feDiffuseLighting><feComposite in="diffuse" in2="diffuse" operator="arithmetic" k1="1" result="composite1" id="feComposite180" /><feComposite in="composite1" in2="SourceGraphic" k1="1" operator="arithmetic" k3="1" result="composite2" id="feComposite182" /></filter></defs><g id="surface1" style="filter:url(#filter184)"><path style=" stroke:none;fill-rule:nonzero;fill:url(#linear0);" d="M 15.773438 6.277344 C 12.300781 6.277344 9.484375 9.074219 9.484375 12.523438 C 9.492188 14.601562 10.539062 16.542969 12.277344 17.699219 L 12.007812 18.765625 C 7.832031 18.765625 4.457031 22.117188 4.457031 26.261719 L 4.457031 28.761719 L 27.105469 28.761719 L 27.105469 26.261719 C 27.105469 22.117188 23.734375 18.765625 19.558594 18.765625 L 19.289062 17.699219 C 21.027344 16.542969 22.074219 14.601562 22.082031 12.523438 C 22.082031 9.074219 19.265625 6.277344 15.789062 6.277344 Z M 48.488281 6.277344 C 45.015625 6.277344 42.199219 9.074219 42.199219 12.523438 C 42.203125 14.601562 43.25 16.542969 44.992188 17.699219 L 44.722656 18.765625 C 40.542969 18.765625 37.171875 22.117188 37.171875 26.261719 L 37.171875 28.761719 L 59.820312 28.761719 L 59.820312 26.261719 C 59.820312 22.117188 56.449219 18.765625 52.273438 18.765625 L 52.003906 17.699219 C 53.742188 16.542969 54.789062 14.601562 54.796875 12.523438 C 54.796875 9.074219 51.980469 6.277344 48.503906 6.277344 Z M 15.773438 38.761719 C 12.300781 38.761719 9.484375 41.558594 9.484375 45.007812 C 9.492188 47.085938 10.539062 49.027344 12.277344 50.183594 L 12.007812 51.25 C 7.832031 51.25 4.457031 54.601562 4.457031 58.746094 L 4.457031 61.246094 L 27.105469 61.246094 L 27.105469 58.746094 C 27.105469 54.601562 23.734375 51.25 19.558594 51.25 L 19.289062 50.183594 C 21.027344 49.027344 22.074219 47.085938 22.082031 45.007812 C 22.082031 41.558594 19.265625 38.761719 15.789062 38.761719 Z M 48.488281 38.761719 C 45.015625 38.761719 42.199219 41.558594 42.199219 45.007812 C 42.203125 47.085938 43.25 49.027344 44.992188 50.183594 L 44.722656 51.25 C 40.542969 51.25 37.171875 54.601562 37.171875 58.746094 L 37.171875 61.246094 L 59.820312 61.246094 L 59.820312 58.746094 C 59.820312 54.601562 56.449219 51.25 52.273438 51.25 L 52.003906 50.183594 C 53.742188 49.027344 54.789062 47.085938 54.796875 45.007812 C 54.796875 41.558594 51.980469 38.761719 48.503906 38.761719 Z M 48.488281 38.761719 "/></g></svg>
