<svg width="64" height="64" viewBox="0 0 64 64" version="1.1" xmlns:inkscape="http://www.inkscape.org/namespaces/inkscape"><defs><linearGradient id="linear0" gradientUnits="userSpaceOnUse" x1="0" y1="0" x2="0" y2="1" gradientTransform="matrix(74.339954,0,0,76.973117,-4.32409,-7.326777)"><stop offset="0" style="stop-color:rgb(75.686276%,77.64706%,83.92157%);stop-opacity:1;"/><stop offset="1" style="stop-color:rgb(43.529412%,45.09804%,50.196081%);stop-opacity:1;"/></linearGradient><filter style="color-interpolation-filters:sRGB;" inkscape:label="Diffuse Light" id="filter184" x="-0.0375" y="-0.0375" width="1.075" height="1.075"><feGaussianBlur in="SourceGraphic" stdDeviation="1" result="blur" id="feGaussianBlur174" /><feDiffuseLighting diffuseConstant="1" surfaceScale="10" lighting-color="rgb(255,255,255)" result="diffuse" id="feDiffuseLighting178"><feDistantLight elevation="8" azimuth="235" id="feDistantLight176" /></feDiffuseLighting><feComposite in="diffuse" in2="diffuse" operator="arithmetic" k1="1" result="composite1" id="feComposite180" /><feComposite in="composite1" in2="SourceGraphic" k1="1" operator="arithmetic" k3="1" result="composite2" id="feComposite182" /></filter></defs><g id="surface1" style="filter:url(#filter184)"><path style=" stroke:none;fill-rule:nonzero;fill:url(#linear0);" d="M 52.515625 1.71875 L 47.382812 6.902344 C 55.40625 14.980469 55.457031 28.023438 47.425781 36.117188 L 52.5625 41.292969 C 63.371094 30.402344 63.316406 12.59375 52.515625 1.71875 M 13.324219 1.761719 C 2.511719 12.65625 2.480469 30.371094 13.277344 41.25 L 18.414062 36.066406 C 10.390625 27.988281 10.429688 15.023438 18.460938 6.945312 L 13.324219 1.761719 M 43.667969 10.714844 L 40.84375 13.566406 C 45.242188 18.019531 45.273438 25.226562 40.867188 29.6875 L 43.695312 32.550781 C 49.625 26.542969 49.59375 16.714844 43.667969 10.714844 M 22.167969 10.746094 C 16.238281 16.742188 16.230469 26.527344 22.148438 32.523438 L 24.972656 29.65625 C 20.574219 25.199219 20.589844 18.054688 24.992188 13.589844 L 22.167969 10.734375 M 32.917969 17.101562 C 30.558594 17.101562 28.660156 19.066406 28.660156 21.5 C 28.660156 23.128906 29.511719 24.550781 30.785156 25.3125 L 30.824219 56.683594 L 15.855469 56.683594 L 15.855469 61.078125 L 49.976562 61.078125 L 49.976562 56.683594 L 35.042969 56.683594 L 35.019531 25.335938 C 36.316406 24.582031 37.179688 23.144531 37.179688 21.5 C 37.179688 19.066406 35.273438 17.101562 32.917969 17.101562 "/></g></svg>
