<svg width="64" height="64" viewBox="0 0 64 64" version="1.1" xmlns:inkscape="http://www.inkscape.org/namespaces/inkscape"><defs><linearGradient id="linear0" gradientUnits="userSpaceOnUse" x1="0" y1="0" x2="0" y2="1" gradientTransform="matrix(56,0,0,35.898438,4,14.050781)"><stop offset="0" style="stop-color:rgb(81.960785%,70.980394%,59.215689%);stop-opacity:1;"/><stop offset="1" style="stop-color:rgb(65.098041%,53.725493%,41.568628%);stop-opacity:1;"/></linearGradient><filter style="color-interpolation-filters:sRGB;" inkscape:label="Diffuse Light" id="filter184" x="-0.0375" y="-0.0375" width="1.075" height="1.075"><feGaussianBlur in="SourceGraphic" stdDeviation="1" result="blur" id="feGaussianBlur174" /><feDiffuseLighting diffuseConstant="1" surfaceScale="10" lighting-color="rgb(255,255,255)" result="diffuse" id="feDiffuseLighting178"><feDistantLight elevation="8" azimuth="235" id="feDistantLight176" /></feDiffuseLighting><feComposite in="diffuse" in2="diffuse" operator="arithmetic" k1="1" result="composite1" id="feComposite180" /><feComposite in="composite1" in2="SourceGraphic" k1="1" operator="arithmetic" k3="1" result="composite2" id="feComposite182" /></filter></defs><g id="surface1" style="filter:url(#filter184)"><path style=" stroke:none;fill-rule:nonzero;fill:url(#linear0);" d="M 15.34375 3.167969 L 15.34375 7.617188 L 26.125 7.617188 L 26.125 3.167969 Z M 47.683594 3.167969 L 47.683594 7.617188 L 58.464844 7.617188 L 58.464844 3.167969 Z M 15.34375 12.0625 L 15.34375 16.511719 L 26.125 16.511719 L 26.125 12.0625 Z M 47.683594 12.0625 L 47.683594 16.511719 L 58.464844 16.511719 L 58.464844 12.0625 Z M 15.34375 20.960938 L 15.34375 25.40625 L 26.125 25.40625 L 26.125 20.960938 Z M 47.683594 20.960938 L 47.683594 25.40625 L 58.464844 25.40625 L 58.464844 20.960938 Z M 15.34375 29.855469 L 15.34375 34.300781 L 26.125 34.300781 L 26.125 29.855469 Z M 31.515625 29.855469 L 31.515625 34.300781 L 42.296875 34.300781 L 42.296875 29.855469 Z M 47.683594 29.855469 L 47.683594 34.300781 L 58.464844 34.300781 L 58.464844 29.855469 Z M 15.34375 38.75 L 15.34375 43.199219 L 31.515625 43.199219 L 31.515625 38.75 Z M 42.296875 38.75 L 42.296875 43.199219 L 58.464844 43.199219 L 58.464844 38.75 Z M 15.34375 47.644531 L 15.34375 52.09375 L 26.125 52.09375 L 26.125 47.644531 Z M 47.683594 47.644531 L 47.683594 52.09375 L 58.464844 52.09375 L 58.464844 47.644531 Z M 15.34375 56.542969 L 15.34375 60.988281 L 20.734375 60.988281 L 20.734375 56.542969 Z M 53.074219 56.542969 L 53.074219 60.988281 L 58.464844 60.988281 L 58.464844 56.542969 Z M 53.074219 56.542969 "/></g></svg>
