<svg width="64" height="64" viewBox="0 0 64 64" version="1.1" xmlns:inkscape="http://www.inkscape.org/namespaces/inkscape"><defs><linearGradient id="linear0" gradientUnits="userSpaceOnUse" x1="0" y1="0" x2="0" y2="1" gradientTransform="matrix(56,0,0,35.898438,4,14.050781)"><stop offset="0" style="stop-color:rgb(0%,96.078432%,86.274511%);stop-opacity:1;"/><stop offset="1" style="stop-color:rgb(0%,54.901963%,49.411765%);stop-opacity:1;"/></linearGradient><filter style="color-interpolation-filters:sRGB;" inkscape:label="Diffuse Light" id="filter184" x="-0.0375" y="-0.0375" width="1.075" height="1.075"><feGaussianBlur in="SourceGraphic" stdDeviation="1" result="blur" id="feGaussianBlur174" /><feDiffuseLighting diffuseConstant="1" surfaceScale="10" lighting-color="rgb(255,255,255)" result="diffuse" id="feDiffuseLighting178"><feDistantLight elevation="8" azimuth="235" id="feDistantLight176" /></feDiffuseLighting><feComposite in="diffuse" in2="diffuse" operator="arithmetic" k1="1" result="composite1" id="feComposite180" /><feComposite in="composite1" in2="SourceGraphic" k1="1" operator="arithmetic" k3="1" result="composite2" id="feComposite182" /></filter></defs><g id="surface1" style="filter:url(#filter184)"><path style=" stroke:none;fill-rule:nonzero;fill:url(#linear0);" d="M 3.398438 2.4375 L 21.5625 28.09375 L 21.5625 29.28125 L 7.9375 40.140625 L 5.667969 44.566406 L 7.9375 42.90625 L 19.632812 37.222656 L 3.398438 60.003906 L 23.835938 60.019531 L 25.523438 57.34375 L 32.222656 55.511719 C 32.617188 56.886719 32.929688 57.8125 32.929688 57.8125 C 32.929688 57.8125 33.242188 56.890625 33.636719 55.511719 L 40.335938 57.34375 L 42.023438 60.019531 L 62.460938 60.003906 L 46.226562 37.222656 L 57.917969 42.90625 L 60.191406 44.566406 L 57.917969 40.140625 L 51.109375 34.722656 L 51.109375 30.742188 C 51.109375 30.4375 50.851562 30.1875 50.539062 30.1875 L 49.40625 30.1875 C 49.089844 30.1875 48.835938 30.4375 48.835938 30.742188 L 48.835938 32.90625 L 44.296875 29.28125 L 44.296875 28.09375 L 62.460938 2.433594 L 42.023438 2.445312 L 35.210938 13.242188 C 35.175781 8.464844 34.179688 4.660156 32.945312 4.660156 C 31.710938 4.660156 30.714844 8.464844 30.679688 13.242188 L 23.867188 2.445312 Z M 3.398438 2.4375 "/></g></svg>
