<svg width="64" height="64" viewBox="0 0 64 64" version="1.1" xmlns:inkscape="http://www.inkscape.org/namespaces/inkscape"><defs><linearGradient id="linear0" gradientUnits="userSpaceOnUse" x1="0" y1="0" x2="0" y2="1" gradientTransform="matrix(62.453125,0,0,64,0.773438,0)"><stop offset="0" style="stop-color:rgb(100%,63.137257%,63.137257%);stop-opacity:1;"/><stop offset="1" style="stop-color:rgb(100%,27.843139%,27.843139%);stop-opacity:1;"/></linearGradient><filter style="color-interpolation-filters:sRGB;" inkscape:label="Diffuse Light" id="filter184" x="-0.0375" y="-0.0375" width="1.075" height="1.075"><feGaussianBlur in="SourceGraphic" stdDeviation="1" result="blur" id="feGaussianBlur174" /><feDiffuseLighting diffuseConstant="1" surfaceScale="10" lighting-color="rgb(255,255,255)" result="diffuse" id="feDiffuseLighting178"><feDistantLight elevation="8" azimuth="235" id="feDistantLight176" /></feDiffuseLighting><feComposite in="diffuse" in2="diffuse" operator="arithmetic" k1="1" result="composite1" id="feComposite180" /><feComposite in="composite1" in2="SourceGraphic" k1="1" operator="arithmetic" k3="1" result="composite2" id="feComposite182" /></filter></defs><g id="surface1" style="filter:url(#filter184)"><path style=" stroke:none;fill-rule:nonzero;fill:url(#linear0);" d="M 13.527344 0 L 0.773438 13.074219 L 2.226562 14.566406 L 19.238281 32 L 0.773438 50.929688 L 13.527344 64 L 32 45.070312 L 50.46875 64 L 63.226562 50.929688 L 44.761719 32 L 63.226562 13.074219 L 50.46875 0 L 32 18.929688 Z M 13.527344 2.988281 L 32 21.914062 L 50.46875 2.988281 L 60.3125 13.074219 L 41.839844 32 L 60.3125 50.929688 L 50.46875 61.011719 L 32 42.089844 L 13.527344 61.011719 L 3.6875 50.929688 L 22.15625 32 L 3.6875 13.074219 Z M 13.527344 2.988281 "/></g></svg>
