<svg width="64" height="64" viewBox="0 0 64 64" version="1.1" xmlns:inkscape="http://www.inkscape.org/namespaces/inkscape"><defs><linearGradient id="linear0" gradientUnits="userSpaceOnUse" x1="0" y1="0" x2="0" y2="1" gradientTransform="matrix(56,0,0,35.898438,4,14.050781)"><stop offset="0" style="stop-color:rgb(81.960785%,70.980394%,59.215689%);stop-opacity:1;"/><stop offset="1" style="stop-color:rgb(65.098041%,53.725493%,41.568628%);stop-opacity:1;"/></linearGradient><filter style="color-interpolation-filters:sRGB;" inkscape:label="Diffuse Light" id="filter184" x="-0.0375" y="-0.0375" width="1.075" height="1.075"><feGaussianBlur in="SourceGraphic" stdDeviation="1" result="blur" id="feGaussianBlur174" /><feDiffuseLighting diffuseConstant="1" surfaceScale="10" lighting-color="rgb(255,255,255)" result="diffuse" id="feDiffuseLighting178"><feDistantLight elevation="8" azimuth="235" id="feDistantLight176" /></feDiffuseLighting><feComposite in="diffuse" in2="diffuse" operator="arithmetic" k1="1" result="composite1" id="feComposite180" /><feComposite in="composite1" in2="SourceGraphic" k1="1" operator="arithmetic" k3="1" result="composite2" id="feComposite182" /></filter></defs><g id="surface1" style="filter:url(#filter184)"><path style=" stroke:none;fill-rule:nonzero;fill:url(#linear0);" d="M 14.457031 2.667969 L 14.457031 7.664062 L 2.515625 7.664062 L 2.515625 40.113281 L 28.785156 40.113281 L 28.785156 43.855469 L 31.175781 43.855469 L 31.175781 33.871094 L 28.785156 33.871094 L 28.785156 37.617188 L 4.902344 37.617188 L 4.902344 10.160156 L 14.457031 10.160156 L 14.457031 15.152344 L 47.886719 15.152344 L 47.886719 10.160156 L 57.441406 10.160156 L 57.441406 37.617188 L 35.945312 37.617188 L 35.945312 30.128906 L 33.558594 30.128906 L 33.558594 47.59375 L 35.945312 47.59375 L 35.945312 40.105469 L 59.828125 40.105469 L 59.828125 7.660156 L 47.886719 7.660156 L 47.886719 2.667969 Z M 16.84375 5.167969 L 45.503906 5.167969 L 45.503906 12.65625 L 16.84375 12.65625 Z M 16.84375 52.597656 L 7.292969 56.339844 L 16.835938 60.085938 L 16.835938 60.066406 L 16.855469 60.074219 L 52.667969 60.085938 C 52.667969 60.085938 55.058594 59.476562 55.058594 56.339844 C 55.058594 53.324219 52.667969 52.597656 52.667969 52.597656 L 16.855469 52.605469 L 16.84375 52.613281 Z M 16.84375 52.597656 "/></g></svg>
