<svg width="64" height="64" viewBox="0 0 64 64" version="1.1" xmlns:inkscape="http://www.inkscape.org/namespaces/inkscape"><defs><linearGradient id="linear0" gradientUnits="userSpaceOnUse" x1="0" y1="0" x2="0" y2="1" gradientTransform="matrix(55.992188,0,0,56,4.003906,4)"><stop offset="0" style="stop-color:rgb(61.176473%,69.803923%,85.09804%);stop-opacity:1;"/><stop offset="1" style="stop-color:rgb(44.313726%,52.156866%,65.882355%);stop-opacity:1;"/></linearGradient><linearGradient id="linear1" gradientUnits="userSpaceOnUse" x1="0" y1="0" x2="0" y2="1" gradientTransform="matrix(55.992188,0,0,56,4.003906,4)"><stop offset="0" style="stop-color:rgb(61.176473%,69.803923%,85.09804%);stop-opacity:1;"/><stop offset="1" style="stop-color:rgb(44.313726%,52.156866%,65.882355%);stop-opacity:1;"/></linearGradient><linearGradient id="linear2" gradientUnits="userSpaceOnUse" x1="0" y1="0" x2="0" y2="1" gradientTransform="matrix(55.992188,0,0,56,4.003906,4)"><stop offset="0" style="stop-color:rgb(61.176473%,69.803923%,85.09804%);stop-opacity:1;"/><stop offset="1" style="stop-color:rgb(44.313726%,52.156866%,65.882355%);stop-opacity:1;"/></linearGradient><linearGradient id="linear3" gradientUnits="userSpaceOnUse" x1="0" y1="0" x2="0" y2="1" gradientTransform="matrix(55.992188,0,0,56,4.003906,4)"><stop offset="0" style="stop-color:rgb(61.176473%,69.803923%,85.09804%);stop-opacity:1;"/><stop offset="1" style="stop-color:rgb(44.313726%,52.156866%,65.882355%);stop-opacity:1;"/></linearGradient><linearGradient id="linear4" gradientUnits="userSpaceOnUse" x1="0" y1="0" x2="0" y2="1" gradientTransform="matrix(55.992188,0,0,56,4.003906,4)"><stop offset="0" style="stop-color:rgb(61.176473%,69.803923%,85.09804%);stop-opacity:1;"/><stop offset="1" style="stop-color:rgb(44.313726%,52.156866%,65.882355%);stop-opacity:1;"/></linearGradient><linearGradient id="linear5" gradientUnits="userSpaceOnUse" x1="0" y1="0" x2="0" y2="1" gradientTransform="matrix(55.992188,0,0,56,4.003906,4)"><stop offset="0" style="stop-color:rgb(61.176473%,69.803923%,85.09804%);stop-opacity:1;"/><stop offset="1" style="stop-color:rgb(44.313726%,52.156866%,65.882355%);stop-opacity:1;"/></linearGradient><filter style="color-interpolation-filters:sRGB;" inkscape:label="Diffuse Light" id="filter184" x="-0.0375" y="-0.0375" width="1.075" height="1.075"><feGaussianBlur in="SourceGraphic" stdDeviation="1" result="blur" id="feGaussianBlur174" /><feDiffuseLighting diffuseConstant="1" surfaceScale="10" lighting-color="rgb(255,255,255)" result="diffuse" id="feDiffuseLighting178"><feDistantLight elevation="8" azimuth="235" id="feDistantLight176" /></feDiffuseLighting><feComposite in="diffuse" in2="diffuse" operator="arithmetic" k1="1" result="composite1" id="feComposite180" /><feComposite in="composite1" in2="SourceGraphic" k1="1" operator="arithmetic" k3="1" result="composite2" id="feComposite182" /></filter></defs><g id="surface1" style="filter:url(#filter184)"><path style=" stroke:none;fill-rule:evenodd;fill:url(#linear0);" d="M 38.308594 17.25 L 13.832031 41.625 L 8.546875 58.136719 C 8.242188 59.046875 8.523438 59.992188 9.238281 60.511719 C 9.777344 60.898438 10.492188 60.992188 11.175781 60.773438 L 27.988281 55.492188 L 52.351562 31.230469 L 38.308594 17.25 M 24.296875 45.363281 C 24.433594 45.480469 24.507812 45.65625 24.503906 45.835938 L 24.269531 50.839844 L 25.191406 51.757812 C 25.335938 51.90625 25.398438 52.125 25.34375 52.335938 C 25.285156 52.539062 25.121094 52.703125 24.917969 52.757812 L 16.984375 54.867188 C 16.78125 54.925781 16.558594 54.867188 16.40625 54.714844 L 14.867188 53.183594 C 14.707031 53.03125 14.648438 52.804688 14.707031 52.59375 L 17.023438 44.480469 C 17.082031 44.277344 17.246094 44.117188 17.449219 44.0625 C 17.652344 44.003906 17.875 44.066406 18.027344 44.214844 L 19.265625 45.445312 L 23.871094 45.214844 C 24.027344 45.207031 24.179688 45.261719 24.296875 45.363281 "/><path style=" stroke:none;fill-rule:evenodd;fill:url(#linear1);" d="M 58.054688 9.917969 L 59.710938 11.578125 C 63.132812 14.980469 64.640625 18.996094 63.089844 20.546875 C 61.535156 22.089844 57.503906 20.585938 54.085938 17.179688 L 52.421875 15.53125 C 49.003906 12.125 47.492188 8.109375 49.046875 6.558594 C 50.605469 5.011719 54.636719 6.515625 58.054688 9.917969 Z M 58.054688 9.917969 "/><path style=" stroke:none;fill-rule:evenodd;fill:url(#linear2);" d="M 49.070312 6.539062 L 63.113281 20.515625 L 59.796875 23.820312 L 45.757812 9.835938 Z M 49.070312 6.539062 "/><path style=" stroke:none;fill-rule:evenodd;fill:url(#linear3);" d="M 43.9375 11.648438 L 57.980469 25.628906 L 54.5 29.097656 L 40.460938 15.109375 Z M 43.9375 11.648438 "/><path style=" stroke:none;fill-rule:evenodd;fill:url(#linear4);" d="M 11.800781 -0.796875 L 32.835938 20.148438 L 27.972656 24.984375 L 6.9375 4.042969 Z M 11.800781 -0.796875 "/><path style=" stroke:none;fill-rule:evenodd;fill:url(#linear5);" d="M 32.835938 4.042969 L 11.800781 24.984375 L 6.945312 20.144531 L 27.972656 -0.796875 Z M 32.835938 4.042969 "/></g></svg>
