<svg width="64" height="64" viewBox="0 0 64 64" version="1.1" xmlns:inkscape="http://www.inkscape.org/namespaces/inkscape"><defs><linearGradient id="linear0" gradientUnits="userSpaceOnUse" x1="0" y1="0" x2="0" y2="1" gradientTransform="matrix(56,0,0,35.898438,4,14.050781)"><stop offset="0" style="stop-color:rgb(100%,73.333335%,0%);stop-opacity:1;"/><stop offset="1" style="stop-color:rgb(70.19608%,51.372552%,0%);stop-opacity:1;"/></linearGradient><linearGradient id="linear1" gradientUnits="userSpaceOnUse" x1="0" y1="0" x2="0" y2="1" gradientTransform="matrix(56,0,0,35.898438,4,14.050781)"><stop offset="0" style="stop-color:rgb(100%,73.333335%,0%);stop-opacity:1;"/><stop offset="1" style="stop-color:rgb(70.19608%,51.372552%,0%);stop-opacity:1;"/></linearGradient><filter style="color-interpolation-filters:sRGB;" inkscape:label="Diffuse Light" id="filter184" x="-0.0375" y="-0.0375" width="1.075" height="1.075"><feGaussianBlur in="SourceGraphic" stdDeviation="1" result="blur" id="feGaussianBlur174" /><feDiffuseLighting diffuseConstant="1" surfaceScale="10" lighting-color="rgb(255,255,255)" result="diffuse" id="feDiffuseLighting178"><feDistantLight elevation="8" azimuth="235" id="feDistantLight176" /></feDiffuseLighting><feComposite in="diffuse" in2="diffuse" operator="arithmetic" k1="1" result="composite1" id="feComposite180" /><feComposite in="composite1" in2="SourceGraphic" k1="1" operator="arithmetic" k3="1" result="composite2" id="feComposite182" /></filter></defs><g id="surface1" style="filter:url(#filter184)"><path style=" stroke:none;fill-rule:nonzero;fill:url(#linear0);" d="M 45.277344 18.957031 C 44.070312 19.066406 42.925781 19.925781 42.050781 21.394531 L 37.003906 29.984375 L 38.15625 48.238281 L 49.113281 55.265625 C 55.144531 54.050781 59.917969 52.222656 63.089844 50.703125 L 49.378906 21.984375 C 48.5 20.144531 47.203125 19.015625 45.808594 18.90625 C 45.636719 18.882812 45.464844 18.882812 45.289062 18.90625 Z M 45.277344 18.957031 "/><path style=" stroke:none;fill-rule:nonzero;fill:url(#linear1);" d="M 23.117188 6.394531 C 21.914062 6.503906 20.769531 7.363281 19.894531 8.835938 L 3.675781 36.421875 L 3.675781 48.273438 C 3.675781 48.273438 15.980469 56.652344 35.675781 56.652344 C 40.644531 56.652344 45.132812 56.113281 49.089844 55.316406 L 27.207031 9.679688 C 26.328125 7.839844 25.03125 6.726562 23.636719 6.601562 C 23.464844 6.578125 23.292969 6.578125 23.117188 6.601562 Z M 23.117188 6.394531 "/></g></svg>
