<svg width="64" height="64" viewBox="0 0 64 64" version="1.1" xmlns:inkscape="http://www.inkscape.org/namespaces/inkscape"><defs><linearGradient id="linear0" gradientUnits="userSpaceOnUse" x1="0" y1="0" x2="0" y2="1" gradientTransform="matrix(56,0,0,35.898438,4,14.050781)"><stop offset="0" style="stop-color:rgb(92.941177%,83.529413%,72.549021%);stop-opacity:1;"/><stop offset="1" style="stop-color:rgb(81.960785%,71.372551%,59.215689%);stop-opacity:1;"/></linearGradient><filter style="color-interpolation-filters:sRGB;" inkscape:label="Diffuse Light" id="filter184" x="-0.0375" y="-0.0375" width="1.075" height="1.075"><feGaussianBlur in="SourceGraphic" stdDeviation="1" result="blur" id="feGaussianBlur174" /><feDiffuseLighting diffuseConstant="1" surfaceScale="10" lighting-color="rgb(255,255,255)" result="diffuse" id="feDiffuseLighting178"><feDistantLight elevation="8" azimuth="235" id="feDistantLight176" /></feDiffuseLighting><feComposite in="diffuse" in2="diffuse" operator="arithmetic" k1="1" result="composite1" id="feComposite180" /><feComposite in="composite1" in2="SourceGraphic" k1="1" operator="arithmetic" k3="1" result="composite2" id="feComposite182" /></filter></defs><g id="surface1" style="filter:url(#filter184)"><path style=" stroke:none;fill-rule:nonzero;fill:url(#linear0);" d="M 3.050781 19.328125 L 3.050781 24.648438 L 7.085938 24.648438 L 7.085938 29.96875 L 9.105469 29.96875 L 9.105469 40.609375 L 7.085938 40.609375 L 7.085938 45.929688 L 3.050781 45.929688 L 3.050781 51.253906 L 9.105469 51.253906 L 9.105469 45.929688 L 11.121094 45.929688 L 11.121094 40.609375 L 15.160156 40.609375 L 15.160156 45.929688 L 17.175781 45.929688 L 17.175781 51.253906 L 23.230469 51.253906 L 23.230469 45.929688 L 19.195312 45.929688 L 19.195312 40.609375 L 17.175781 40.609375 L 17.175781 29.96875 L 19.195312 29.96875 L 19.195312 24.648438 L 23.230469 24.648438 L 23.230469 19.328125 L 17.175781 19.328125 L 17.175781 24.648438 L 15.160156 24.648438 L 15.160156 29.96875 L 11.121094 29.96875 L 11.121094 24.648438 L 9.105469 24.648438 L 9.105469 19.328125 Z M 27.265625 19.328125 L 27.265625 29.96875 L 29.285156 29.96875 L 29.285156 35.289062 L 31.300781 35.289062 L 31.300781 40.609375 L 33.320312 40.609375 L 33.320312 45.929688 L 35.339844 45.929688 L 35.339844 51.253906 L 39.375 51.253906 L 39.375 45.929688 L 41.390625 45.929688 L 41.390625 40.609375 L 43.410156 40.609375 L 43.410156 35.289062 L 45.429688 35.289062 L 45.429688 29.96875 L 47.445312 29.96875 L 47.445312 19.328125 L 41.390625 19.328125 L 41.390625 24.648438 L 43.410156 24.648438 L 43.410156 29.96875 L 41.390625 29.96875 L 41.390625 35.289062 L 39.375 35.289062 L 39.375 40.609375 L 35.339844 40.609375 L 35.339844 35.289062 L 33.320312 35.289062 L 33.320312 29.96875 L 31.300781 29.96875 L 31.300781 24.648438 L 33.320312 24.648438 L 33.320312 19.328125 Z M 51.480469 19.328125 L 51.480469 24.648438 L 53.5 24.648438 L 53.5 45.929688 L 51.480469 45.929688 L 51.480469 51.253906 L 59.554688 51.253906 L 59.554688 45.929688 L 57.535156 45.929688 L 57.535156 24.648438 L 59.554688 24.648438 L 59.554688 19.328125 Z M 51.480469 19.328125 "/></g></svg>
