<svg width="64" height="64" viewBox="0 0 64 64" version="1.1" xmlns:inkscape="http://www.inkscape.org/namespaces/inkscape"><defs><linearGradient id="linear0" gradientUnits="userSpaceOnUse" x1="0" y1="0" x2="0" y2="1" gradientTransform="matrix(64.011719,0,0,40.949219,-0.00390625,11.476563)"><stop offset="0" style="stop-color:rgb(0%,96.078432%,86.274511%);stop-opacity:1;"/><stop offset="1" style="stop-color:rgb(0%,54.901963%,49.411765%);stop-opacity:1;"/></linearGradient><filter style="color-interpolation-filters:sRGB;" inkscape:label="Diffuse Light" id="filter184" x="-0.0375" y="-0.0375" width="1.075" height="1.075"><feGaussianBlur in="SourceGraphic" stdDeviation="1" result="blur" id="feGaussianBlur174" /><feDiffuseLighting diffuseConstant="1" surfaceScale="10" lighting-color="rgb(255,255,255)" result="diffuse" id="feDiffuseLighting178"><feDistantLight elevation="8" azimuth="235" id="feDistantLight176" /></feDiffuseLighting><feComposite in="diffuse" in2="diffuse" operator="arithmetic" k1="1" result="composite1" id="feComposite180" /><feComposite in="composite1" in2="SourceGraphic" k1="1" operator="arithmetic" k3="1" result="composite2" id="feComposite182" /></filter></defs><g id="surface1" style="filter:url(#filter184)"><path style=" stroke:none;fill-rule:evenodd;fill:url(#linear0);" d="M 18.753906 50.277344 C 8.941406 50.214844 1.621094 47.59375 0.230469 42.914062 C -1.882812 35.773438 10.628906 26.53125 28.164062 22.289062 C 45.695312 18.039062 61.648438 20.390625 63.769531 27.535156 C 65.238281 32.503906 59.832031 38.386719 50.375 43 C 51.074219 33.585938 37.332031 35.894531 32 37.1875 C 25.949219 38.652344 14.5625 42.375 18.753906 50.277344 Z M 19.273438 48.480469 C 18.472656 44.828125 24.484375 40.257812 32.6875 38.28125 C 40.886719 36.308594 48.195312 37.667969 48.996094 41.324219 C 49.792969 44.976562 43.78125 49.546875 35.578125 51.519531 C 27.375 53.496094 20.066406 52.136719 19.273438 48.480469 Z M 13.6875 26.0625 C 15.859375 18.019531 19.839844 13.351562 25.5 11.9375 C 32.679688 10.378906 38.449219 12.777344 42.6875 19 C 32.796875 18.089844 23.167969 20.480469 13.6875 26.0625 Z M 13.6875 26.0625 "/></g></svg>
