<svg width="64" height="64" viewBox="0 0 64 64" version="1.1" xmlns:inkscape="http://www.inkscape.org/namespaces/inkscape"><defs><linearGradient id="linear0" gradientUnits="userSpaceOnUse" x1="0" y1="0" x2="0" y2="1" gradientTransform="matrix(56,0,0,35.898438,4,14.050781)"><stop offset="0" style="stop-color:rgb(100%,56.862748%,82.745099%);stop-opacity:1;"/><stop offset="1" style="stop-color:rgb(100%,0%,60.000002%);stop-opacity:1;"/></linearGradient><filter style="color-interpolation-filters:sRGB;" inkscape:label="Diffuse Light" id="filter184" x="-0.0375" y="-0.0375" width="1.075" height="1.075"><feGaussianBlur in="SourceGraphic" stdDeviation="1" result="blur" id="feGaussianBlur174" /><feDiffuseLighting diffuseConstant="1" surfaceScale="10" lighting-color="rgb(255,255,255)" result="diffuse" id="feDiffuseLighting178"><feDistantLight elevation="8" azimuth="235" id="feDistantLight176" /></feDiffuseLighting><feComposite in="diffuse" in2="diffuse" operator="arithmetic" k1="1" result="composite1" id="feComposite180" /><feComposite in="composite1" in2="SourceGraphic" k1="1" operator="arithmetic" k3="1" result="composite2" id="feComposite182" /></filter></defs><g id="surface1" style="filter:url(#filter184)"><path style=" stroke:none;fill-rule:nonzero;fill:url(#linear0);" d="M 25.144531 6.460938 C 22.726562 8.421875 21.644531 11.0625 21.140625 12.171875 C 19.589844 15.246094 23.730469 15 26.488281 11.808594 C 30.792969 7.03125 32.507812 11.191406 32.675781 26.304688 C 32.847656 39.078125 32.332031 41.539062 28.707031 46.683594 C 23.695312 54.066406 18.015625 57.019531 12.332031 55.148438 C 9.230469 54.167969 7.523438 54.292969 5.269531 55.398438 C 2.679688 56.746094 2.511719 57.234375 4.585938 59.582031 C 10.773438 66.574219 25.769531 59.21875 43.257812 40.433594 C 54.523438 28.523438 58.320312 13.117188 59.332031 10.65625 C 60.183594 8.167969 61.167969 3.320312 58.765625 3.320312 C 50.527344 7.257812 44.609375 35.070312 40.640625 35.316406 C 40.21875 23.058594 40.417969 -7.015625 25.039062 6.519531 "/></g></svg>
