<svg width="64" height="64" viewBox="0 0 64 64" version="1.1" xmlns:inkscape="http://www.inkscape.org/namespaces/inkscape"><defs><linearGradient id="linear0" gradientUnits="userSpaceOnUse" x1="0" y1="0" x2="0" y2="1" gradientTransform="matrix(56,0,0,35.898438,4,14.050781)"><stop offset="0" style="stop-color:rgb(41.960785%,64.313728%,100%);stop-opacity:1;"/><stop offset="1" style="stop-color:rgb(0%,43.137255%,100%);stop-opacity:1;"/></linearGradient><filter style="color-interpolation-filters:sRGB;" inkscape:label="Diffuse Light" id="filter184" x="-0.0375" y="-0.0375" width="1.075" height="1.075"><feGaussianBlur in="SourceGraphic" stdDeviation="1" result="blur" id="feGaussianBlur174" /><feDiffuseLighting diffuseConstant="1" surfaceScale="10" lighting-color="rgb(255,255,255)" result="diffuse" id="feDiffuseLighting178"><feDistantLight elevation="8" azimuth="235" id="feDistantLight176" /></feDiffuseLighting><feComposite in="diffuse" in2="diffuse" operator="arithmetic" k1="1" result="composite1" id="feComposite180" /><feComposite in="composite1" in2="SourceGraphic" k1="1" operator="arithmetic" k3="1" result="composite2" id="feComposite182" /></filter></defs><g id="surface1" style="filter:url(#filter184)"><path style=" stroke:none;fill-rule:nonzero;fill:url(#linear0);" d="M 44.636719 4.597656 C 38.710938 4.601562 33.433594 8.402344 31.457031 14.09375 L 2.695312 14.09375 L 25.996094 40.199219 L 25.996094 56.816406 L 16.675781 59.1875 L 16.675781 61.5625 L 39.976562 61.5625 L 39.976562 59.1875 L 30.65625 56.816406 L 30.65625 40.199219 L 38.363281 31.566406 C 40.3125 32.558594 42.457031 33.078125 44.636719 33.082031 C 52.355469 33.082031 58.617188 26.703125 58.617188 18.839844 C 58.617188 10.976562 52.355469 4.597656 44.636719 4.597656 Z M 8.523438 16.464844 L 30.851562 16.464844 C 30.722656 17.25 30.65625 18.042969 30.65625 18.839844 C 30.65625 20.457031 30.929688 22.0625 31.457031 23.585938 L 15.125 23.585938 Z M 8.523438 16.464844 "/></g></svg>
