<svg width="64" height="64" viewBox="0 0 64 64" version="1.1" xmlns:inkscape="http://www.inkscape.org/namespaces/inkscape"><defs><linearGradient id="linear0" gradientUnits="userSpaceOnUse" x1="0" y1="0" x2="0" y2="1" gradientTransform="matrix(56,0,0,35.898438,4,14.050781)"><stop offset="0" style="stop-color:rgb(0%,73.333335%,100%);stop-opacity:1;"/><stop offset="1" style="stop-color:rgb(0%,52.156866%,70.980394%);stop-opacity:1;"/></linearGradient><filter style="color-interpolation-filters:sRGB;" inkscape:label="Diffuse Light" id="filter184" x="-0.0375" y="-0.0375" width="1.075" height="1.075"><feGaussianBlur in="SourceGraphic" stdDeviation="1" result="blur" id="feGaussianBlur174" /><feDiffuseLighting diffuseConstant="1" surfaceScale="10" lighting-color="rgb(255,255,255)" result="diffuse" id="feDiffuseLighting178"><feDistantLight elevation="8" azimuth="235" id="feDistantLight176" /></feDiffuseLighting><feComposite in="diffuse" in2="diffuse" operator="arithmetic" k1="1" result="composite1" id="feComposite180" /><feComposite in="composite1" in2="SourceGraphic" k1="1" operator="arithmetic" k3="1" result="composite2" id="feComposite182" /></filter></defs><g id="surface1" style="filter:url(#filter184)"><path style=" stroke:none;fill-rule:nonzero;fill:url(#linear0);" d="M 16.542969 4.542969 C 9.515625 4.542969 3.824219 10.222656 3.824219 17.234375 C 3.824219 24.246094 9.515625 29.925781 16.542969 29.925781 C 23.574219 29.925781 29.265625 24.246094 29.265625 17.234375 C 29.265625 10.222656 23.574219 4.542969 16.542969 4.542969 Z M 46.613281 4.542969 C 39.582031 4.542969 33.890625 10.222656 33.890625 17.234375 C 33.890625 24.246094 39.582031 29.925781 46.613281 29.925781 C 53.640625 29.925781 59.332031 24.246094 59.332031 17.234375 C 59.332031 10.222656 53.640625 4.542969 46.613281 4.542969 Z M 3.824219 39.15625 L 3.824219 48.386719 L 13.074219 48.386719 L 13.074219 39.15625 Z M 15.386719 39.15625 L 15.386719 48.386719 L 24.640625 48.386719 L 24.640625 39.15625 Z M 26.953125 39.15625 L 26.953125 48.386719 L 36.203125 48.386719 L 36.203125 39.15625 Z M 38.515625 39.15625 L 38.515625 48.386719 L 47.769531 48.386719 L 47.769531 39.15625 Z M 50.082031 39.15625 L 50.082031 48.386719 L 59.332031 48.386719 L 59.332031 39.15625 Z M 3.824219 50.695312 L 3.824219 59.925781 L 13.074219 59.925781 L 13.074219 50.695312 Z M 15.386719 50.695312 L 15.386719 59.925781 L 24.640625 59.925781 L 24.640625 50.695312 Z M 26.953125 50.695312 L 26.953125 59.925781 L 36.203125 59.925781 L 36.203125 50.695312 Z M 38.515625 50.695312 L 38.515625 59.925781 L 47.769531 59.925781 L 47.769531 50.695312 Z M 50.082031 50.695312 L 50.082031 59.925781 L 59.332031 59.925781 L 59.332031 50.695312 Z M 50.082031 50.695312 "/></g></svg>
