<svg width="64" height="64" viewBox="0 0 64 64" version="1.1" xmlns:inkscape="http://www.inkscape.org/namespaces/inkscape"><defs><linearGradient id="linear0" gradientUnits="userSpaceOnUse" x1="0" y1="0" x2="0" y2="1" gradientTransform="matrix(70.496317,0,0,81.327883,-3.017643,-8.851763)"><stop offset="0" style="stop-color:rgb(100%,63.137257%,63.137257%);stop-opacity:1;"/><stop offset="1" style="stop-color:rgb(100%,27.843139%,27.843139%);stop-opacity:1;"/></linearGradient><filter style="color-interpolation-filters:sRGB;" inkscape:label="Diffuse Light" id="filter184" x="-0.0375" y="-0.0375" width="1.075" height="1.075"><feGaussianBlur in="SourceGraphic" stdDeviation="1" result="blur" id="feGaussianBlur174" /><feDiffuseLighting diffuseConstant="1" surfaceScale="10" lighting-color="rgb(255,255,255)" result="diffuse" id="feDiffuseLighting178"><feDistantLight elevation="8" azimuth="235" id="feDistantLight176" /></feDiffuseLighting><feComposite in="diffuse" in2="diffuse" operator="arithmetic" k1="1" result="composite1" id="feComposite180" /><feComposite in="composite1" in2="SourceGraphic" k1="1" operator="arithmetic" k3="1" result="composite2" id="feComposite182" /></filter></defs><g id="surface1" style="filter:url(#filter184)"><path style=" stroke:none;fill-rule:nonzero;fill:url(#linear0);" d="M 32.671875 7.53125 C 25.464844 7.53125 14.871094 8.007812 11.683594 8.121094 C 8.21875 8.472656 6.902344 8.671875 5.007812 10.511719 C 2.121094 13.421875 1.449219 19.148438 1.449219 27.890625 L 1.449219 36.238281 C 1.449219 46.203125 2.632812 51.246094 4.566406 53.109375 C 6.789062 55.265625 8.273438 55.40625 9.753906 55.660156 C 10.332031 55.757812 14.382812 56.597656 32.453125 56.597656 C 43.71875 56.597656 53.402344 55.980469 54.402344 55.832031 C 56.007812 55.605469 58.292969 55.296875 60.039062 53.109375 C 62.625 49.789062 63.15625 44.230469 63.15625 36.238281 L 63.15625 26.609375 C 63.15625 21.4375 62.878906 14.085938 60.039062 11.019531 C 57.882812 8.960938 57.082031 8.378906 52.621094 8.121094 C 51.363281 8.058594 40.359375 7.53125 32.671875 7.53125 M 25.179688 15.710938 L 39.421875 15.710938 L 39.421875 34.789062 L 45.277344 34.789062 L 32.300781 50.125 L 19.324219 34.789062 L 25.1875 34.789062 L 25.1875 15.710938 "/></g></svg>
