<svg width="64" height="64" viewBox="0 0 64 64" version="1.1" xmlns:inkscape="http://www.inkscape.org/namespaces/inkscape"><defs><linearGradient id="linear0" gradientUnits="userSpaceOnUse" x1="0" y1="0" x2="0" y2="1" gradientTransform="matrix(64,0,0,58.1875,0,2.90625)"><stop offset="0" style="stop-color:rgb(61.176473%,69.803923%,85.09804%);stop-opacity:1;"/><stop offset="1" style="stop-color:rgb(44.313726%,52.156866%,65.882355%);stop-opacity:1;"/></linearGradient><filter style="color-interpolation-filters:sRGB;" inkscape:label="Diffuse Light" id="filter184" x="-0.0375" y="-0.0375" width="1.075" height="1.075"><feGaussianBlur in="SourceGraphic" stdDeviation="1" result="blur" id="feGaussianBlur174" /><feDiffuseLighting diffuseConstant="1" surfaceScale="10" lighting-color="rgb(255,255,255)" result="diffuse" id="feDiffuseLighting178"><feDistantLight elevation="8" azimuth="235" id="feDistantLight176" /></feDiffuseLighting><feComposite in="diffuse" in2="diffuse" operator="arithmetic" k1="1" result="composite1" id="feComposite180" /><feComposite in="composite1" in2="SourceGraphic" k1="1" operator="arithmetic" k3="1" result="composite2" id="feComposite182" /></filter></defs><g id="surface1" style="filter:url(#filter184)"><path style=" stroke:none;fill-rule:evenodd;fill:url(#linear0);" d="M 40.726562 20.363281 L 40.726562 55.273438 C 50.367188 55.273438 58.179688 47.457031 58.179688 37.820312 C 58.179688 28.179688 50.367188 20.363281 40.726562 20.363281 Z M 40.726562 14.542969 C 53.578125 14.542969 64 24.964844 64 37.820312 C 64 50.671875 53.578125 61.09375 40.726562 61.09375 L 34.90625 61.09375 L 34.90625 14.542969 Z M 23.273438 8.726562 L 23.273438 43.636719 C 13.632812 43.636719 5.820312 35.820312 5.820312 26.179688 C 5.820312 16.542969 13.632812 8.726562 23.273438 8.726562 Z M 23.273438 2.90625 C 10.421875 2.90625 0 13.328125 0 26.179688 C 0 39.035156 10.421875 49.457031 23.273438 49.457031 L 29.09375 49.457031 L 29.09375 2.90625 Z M 23.273438 2.90625 "/></g></svg>
