<svg width="64" height="64" viewBox="0 0 64 64" version="1.1" xmlns:inkscape="http://www.inkscape.org/namespaces/inkscape"><defs><linearGradient id="linear0" gradientUnits="userSpaceOnUse" x1="0" y1="0" x2="0" y2="1" gradientTransform="matrix(56,0,0,35.898438,4,14.050781)"><stop offset="0" style="stop-color:rgb(0%,78.823531%,36.862746%);stop-opacity:1;"/><stop offset="1" style="stop-color:rgb(0%,54.11765%,25.098041%);stop-opacity:1;"/></linearGradient><linearGradient id="linear1" gradientUnits="userSpaceOnUse" x1="0" y1="0" x2="0" y2="1" gradientTransform="matrix(56,0,0,35.898438,4,14.050781)"><stop offset="0" style="stop-color:rgb(0%,78.823531%,36.862746%);stop-opacity:1;"/><stop offset="1" style="stop-color:rgb(0%,54.11765%,25.098041%);stop-opacity:1;"/></linearGradient><filter style="color-interpolation-filters:sRGB;" inkscape:label="Diffuse Light" id="filter184" x="-0.0375" y="-0.0375" width="1.075" height="1.075"><feGaussianBlur in="SourceGraphic" stdDeviation="1" result="blur" id="feGaussianBlur174" /><feDiffuseLighting diffuseConstant="1" surfaceScale="10" lighting-color="rgb(255,255,255)" result="diffuse" id="feDiffuseLighting178"><feDistantLight elevation="8" azimuth="235" id="feDistantLight176" /></feDiffuseLighting><feComposite in="diffuse" in2="diffuse" operator="arithmetic" k1="1" result="composite1" id="feComposite180" /><feComposite in="composite1" in2="SourceGraphic" k1="1" operator="arithmetic" k3="1" result="composite2" id="feComposite182" /></filter></defs><g id="surface1" style="filter:url(#filter184)"><path style=" stroke:none;fill-rule:nonzero;fill:url(#linear0);" d="M 16 26.667969 C 17.605469 31.984375 29.28125 33.246094 32.003906 31.996094 C 44 12 54.667969 37.332031 57.089844 49.621094 C 60.597656 44.632812 62.671875 38.558594 62.671875 31.996094 C 62.671875 23.082031 58.871094 15.058594 52.796875 9.453125 C 33.140625 -2.453125 16 10.667969 16 26.667969 "/><path style=" stroke:none;fill-rule:nonzero;fill:url(#linear1);" d="M 5.542969 16.5 C 2.875 21.046875 1.332031 26.347656 1.332031 32 C 1.332031 40.933594 5.152344 48.980469 11.25 54.585938 C 15.613281 56.597656 20.441406 57.519531 25.585938 56.957031 C 37.113281 55.699219 45.265625 46.453125 43.585938 34.078125 C 43.472656 33.75 43.320312 33.4375 43.210938 33.160156 C 40.953125 29.984375 34.769531 29.507812 32.082031 31.953125 C 32.09375 31.945312 32.046875 31.945312 32.039062 31.953125 C 32.03125 31.957031 32.011719 31.988281 32 31.992188 C 31.019531 35.71875 21.707031 39.007812 14.125 35.492188 C 8.167969 32.074219 4.609375 24.785156 5.539062 16.492188 "/></g></svg>
