<svg width="64" height="64" viewBox="0 0 64 64" version="1.1" xmlns:inkscape="http://www.inkscape.org/namespaces/inkscape"><defs><linearGradient id="linear0" gradientUnits="userSpaceOnUse" x1="0" y1="0" x2="0" y2="1" gradientTransform="matrix(56,0,0,35.898438,4,14.050781)"><stop offset="0" style="stop-color:rgb(100%,73.333335%,0%);stop-opacity:1;"/><stop offset="1" style="stop-color:rgb(70.19608%,51.372552%,0%);stop-opacity:1;"/></linearGradient><filter style="color-interpolation-filters:sRGB;" inkscape:label="Diffuse Light" id="filter184" x="-0.0375" y="-0.0375" width="1.075" height="1.075"><feGaussianBlur in="SourceGraphic" stdDeviation="1" result="blur" id="feGaussianBlur174" /><feDiffuseLighting diffuseConstant="1" surfaceScale="10" lighting-color="rgb(255,255,255)" result="diffuse" id="feDiffuseLighting178"><feDistantLight elevation="8" azimuth="235" id="feDistantLight176" /></feDiffuseLighting><feComposite in="diffuse" in2="diffuse" operator="arithmetic" k1="1" result="composite1" id="feComposite180" /><feComposite in="composite1" in2="SourceGraphic" k1="1" operator="arithmetic" k3="1" result="composite2" id="feComposite182" /></filter></defs><g id="surface1" style="filter:url(#filter184)"><path style=" stroke:none;fill-rule:nonzero;fill:url(#linear0);" d="M 2.871094 15.210938 L 2.871094 27.109375 L 19.632812 27.109375 L 2.871094 43.773438 L 2.871094 58.050781 L 48.230469 58.050781 C 57.066406 58.050781 61.996094 47.292969 62.035156 36.632812 C 62.070312 25.875 57.144531 15.210938 48.230469 15.210938 Z M 38.367188 27.109375 L 46.257812 27.109375 C 48.230469 27.109375 50.203125 29.492188 50.203125 34.25 L 50.203125 39.011719 C 50.203125 43.773438 48.230469 46.152344 46.257812 46.152344 L 40.339844 46.152344 L 40.339844 39.011719 L 30.480469 39.011719 L 30.480469 46.152344 L 18.648438 46.152344 Z M 38.367188 27.109375 "/></g></svg>
