<svg xmlns="http://www.w3.org/2000/svg" xmlns:xlink="http://www.w3.org/1999/xlink" width="64" height="64" viewBox="0 0 64 64" version="1.1"><g id="surface1"><path style=" stroke:none;fill-rule:nonzero;fill:rgb(90.196079%,90.196079%,49.019608%);fill-opacity:1;" d="M 39.671875 1.824219 C 32.800781 1.824219 26.289062 4.90625 21.9375 10.214844 C 9.914062 13.109375 1.4375 23.859375 1.4375 36.21875 C 1.4375 50.992188 13.421875 62.988281 28.203125 62.972656 C 40.546875 62.957031 51.269531 54.476562 54.160156 42.480469 C 59.5 38.136719 62.605469 31.628906 62.613281 24.753906 C 62.621094 12.085938 52.34375 1.824219 39.671875 1.824219 Z M 39.671875 1.824219 "/><path style=" stroke:none;fill-rule:nonzero;fill:rgb(99.215686%,99.215686%,84.313726%);fill-opacity:1;" d="M 21.832031 24.753906 C 21.832031 34.605469 29.816406 42.585938 39.671875 42.585938 C 49.53125 42.585938 57.511719 34.605469 57.511719 24.753906 C 57.511719 14.902344 49.53125 6.921875 39.671875 6.921875 C 29.816406 6.921875 21.832031 14.902344 21.832031 24.753906 Z M 21.832031 24.753906 "/><path style=" stroke:none;fill-rule:nonzero;fill:rgb(38.039216%,38.039216%,31.764707%);fill-opacity:1;" d="M 6.539062 36.21875 C 6.539062 48.175781 16.238281 57.875 28.203125 57.875 C 40.164062 57.875 49.867188 48.175781 49.867188 36.21875 C 49.867188 24.261719 40.164062 14.566406 28.203125 14.566406 C 16.238281 14.566406 6.539062 24.261719 6.539062 36.21875 Z M 6.539062 36.21875 "/></g></svg>
