<svg width="64px" height="64px" viewBox="0 0 64 64" version="1.1" id="svg12" inkscape:version="1.2.2 (b0a8486541, 2022-12-01)" xmlns:inkscape="http://www.inkscape.org/namespaces/inkscape" xmlns:sodipodi="http://sodipodi.sourceforge.net/DTD/sodipodi-0.dtd" xmlns="http://www.w3.org/2000/svg" xmlns:svg="http://www.w3.org/2000/svg"> <sodipodi:namedview id="namedview14" pagecolor="#ffffff" bordercolor="#000000" borderopacity="0.25" inkscape:showpageshadow="2" inkscape:pageopacity="0.0" inkscape:pagecheckerboard="0" inkscape:deskcolor="#d1d1d1" showgrid="false" inkscape:zoom="3.6875" inkscape:cx="32" inkscape:cy="32.135593" inkscape:window-width="1432" inkscape:window-height="844" inkscape:window-x="0" inkscape:window-y="0" inkscape:window-maximized="1" inkscape:current-layer="svg12" /> <defs id="defs7"> <linearGradient id="linear0" gradientUnits="userSpaceOnUse" x1="0" y1="0" x2="0" y2="1" gradientTransform="matrix(64,0,0,56,0,4)"> <stop offset="0" style="stop-color:#a8a802;stop-opacity:1;" id="stop2" /> <stop offset="1" style="stop-color:#858500;stop-opacity:1;" id="stop4" /> </linearGradient> <filter style="color-interpolation-filters:sRGB;" inkscape:label="Diffuse Light" id="filter184" x="-0.11210663" y="-0.12812186" width="1.2242133" height="1.2562437"> <feGaussianBlur in="SourceGraphic" stdDeviation="2.98951" result="blur" id="feGaussianBlur174" /> <feDiffuseLighting diffuseConstant="1" surfaceScale="10" lighting-color="rgb(255,255,255)" result="diffuse" id="feDiffuseLighting178"> <feDistantLight elevation="38" azimuth="235" id="feDistantLight176" /> </feDiffuseLighting> <feComposite in="diffuse" in2="diffuse" operator="arithmetic" k1="1" result="composite1" id="feComposite180" /> <feComposite in="composite1" in2="SourceGraphic" k1="1" operator="arithmetic" k3="1" result="composite2" id="feComposite182" /> </filter> </defs> <g id="surface1" style="filter:url(#filter184)"><path style=" stroke:none;fill-rule:nonzero;fill:url(#linear0);" d="M 56 20 L 56 12 L 47.992188 12 Z M 56 20 "/><path style=" stroke:none;fill-rule:nonzero;fill:url(#linear0);" d="M 8 28 L 8 60 L 44 60 L 44 56 L 12 56 L 12 25.332031 Z M 52.007812 24 L 52 60 L 56 60 L 56 28 Z M 52.007812 24 "/><path style=" stroke:none;fill-rule:nonzero;fill:url(#linear0);" d="M 32 35.945312 C 32.804688 35.75 33.613281 35.589844 34.429688 35.457031 C 35.441406 35.285156 36.601562 35.199219 37.914062 35.199219 C 39.097656 35.199219 40.074219 35.371094 40.855469 35.714844 C 41.636719 36.035156 42.257812 36.503906 42.714844 37.117188 C 43.191406 37.703125 43.523438 38.421875 43.714844 39.257812 C 43.902344 40.097656 44 41.015625 44 42.027344 L 44 56.800781 L 32 56.800781 Z M 32 35.945312 "/><path style=" stroke:none;fill-rule:evenodd;fill:url(#linear0);fill-opacity:1;" d="M 32 1.171875 L 0.585938 32.585938 L 3.414062 35.414062 L 32 6.828125 L 60.585938 35.414062 L 63.414062 32.585938 Z M 32 1.171875 "/></g></svg>
