<svg width="64px" height="64px" viewBox="0 0 64 64" version="1.1" id="svg12" inkscape:version="1.2.2 (b0a8486541, 2022-12-01)" xmlns:inkscape="http://www.inkscape.org/namespaces/inkscape" xmlns:sodipodi="http://sodipodi.sourceforge.net/DTD/sodipodi-0.dtd" xmlns="http://www.w3.org/2000/svg" xmlns:svg="http://www.w3.org/2000/svg"> <sodipodi:namedview id="namedview14" pagecolor="#ffffff" bordercolor="#000000" borderopacity="0.25" inkscape:showpageshadow="2" inkscape:pageopacity="0.0" inkscape:pagecheckerboard="0" inkscape:deskcolor="#d1d1d1" showgrid="false" inkscape:zoom="3.6875" inkscape:cx="32" inkscape:cy="32.135593" inkscape:window-width="1432" inkscape:window-height="844" inkscape:window-x="0" inkscape:window-y="0" inkscape:window-maximized="1" inkscape:current-layer="svg12" /> <defs id="defs7"> <linearGradient id="linear0" gradientUnits="userSpaceOnUse" x1="0" y1="0" x2="0" y2="1" gradientTransform="matrix(64,0,0,56,0,4)"> <stop offset="0" style="stop-color:#a8a802;stop-opacity:1;" id="stop2" /> <stop offset="1" style="stop-color:#858500;stop-opacity:1;" id="stop4" /> </linearGradient> <filter style="color-interpolation-filters:sRGB;" inkscape:label="Diffuse Light" id="filter184" x="-0.11210663" y="-0.12812186" width="1.2242133" height="1.2562437"> <feGaussianBlur in="SourceGraphic" stdDeviation="2.98951" result="blur" id="feGaussianBlur174" /> <feDiffuseLighting diffuseConstant="1" surfaceScale="10" lighting-color="rgb(255,255,255)" result="diffuse" id="feDiffuseLighting178"> <feDistantLight elevation="38" azimuth="235" id="feDistantLight176" /> </feDiffuseLighting> <feComposite in="diffuse" in2="diffuse" operator="arithmetic" k1="1" result="composite1" id="feComposite180" /> <feComposite in="composite1" in2="SourceGraphic" k1="1" operator="arithmetic" k3="1" result="composite2" id="feComposite182" /> </filter> </defs> <g id="surface1" style="filter:url(#filter184)"><path style=" stroke:none;fill-rule:nonzero;fill:url(#linear0);fill-opacity:1;" d="M 59.503906 39.175781 C 61.621094 26.351562 54.632812 13.957031 42.925781 8.96875 C 41.226562 4.609375 36.988281 1.5 32 1.5 C 27.019531 1.5 22.777344 4.601562 21.074219 8.96875 C 9.410156 13.941406 2.394531 26.292969 4.488281 39.125 C 1.734375 41.300781 0 44.671875 0 48.34375 C 0 57.394531 9.863281 63 17.601562 58.492188 C 26.417969 63.820312 37.511719 63.839844 46.351562 58.519531 C 54.074219 63.070312 64 57.492188 64 48.402344 C 64 44.722656 62.261719 41.351562 59.503906 39.175781 Z M 55.671875 37.175781 C 44.636719 33.839844 36.023438 46.84375 43.089844 55.691406 C 36.160156 59.351562 27.808594 59.347656 20.878906 55.675781 C 28.023438 46.8125 19.363281 33.777344 8.320312 37.121094 C 7.328125 27.675781 12.019531 18.5625 20.292969 13.878906 C 20.636719 20.042969 25.753906 24.949219 32 24.949219 C 38.246094 24.949219 43.363281 20.042969 43.707031 13.878906 C 51.988281 18.566406 56.691406 27.703125 55.671875 37.175781 Z M 55.671875 37.175781 "/></g></svg>
